v -75.50223541 -0.3125 47.72472
v -75.50223541 0.1666666716 47.72472
v -52.28765488 -0.3125 47.72472
v -52.28765488 0.1666666716 47.72472
v -28.12023544 -0.3125 -153.0215759
v -28.12023544 0.1666666716 -153.0215759
v -12.86681557 -0.3125 -153.0215759
v -12.86681557 0.1666666716 -153.0215759
v -46.04747391 -0.3125 -143.3686523
v -46.04747391 0.1666666716 -143.3686523
v -30.49930573 -0.3125 -140.4307709
v -30.49930573 0.1666666716 -140.4307709
v -75.50223541 0.1666666716 143.1933136
v -75.50223541 -0.3125 143.1933136
v -47.68987274 -0.3125 -151.3027344
v -47.68987274 0.1666666716 -151.3027344
v -47.68987274 -0.3125 -153.0692749
v -47.68987274 0.1666666716 -153.0692749
v -36.5334816 -0.3125 -111.3066788
v -36.5334816 0.1666666716 -111.3066788
v -44.20014954 -0.3125 -111.3066788
v -44.20014954 0.1666666716 -111.3066788
v -44.20014954 -0.3125 -107.0566788
v -44.20014954 0.1666666716 -107.0566788
v -43.5334816 -0.3125 -107.0566788
v -43.5334816 0.1666666716 -107.0566788
v -43.5334816 -0.3125 -103.0566788
v -43.5334816 0.1666666716 -103.0566788
v -44.20014954 -0.3125 -94.55667877
v -44.20014954 0.1666666716 -94.55667877
v -44.20014954 -0.3125 -92.97335052
v -44.20014954 0.1666666716 -92.97335052
v 51.54985046 -0.3125 143.1933136
v -36.5334816 -0.3125 -92.97335052
v 51.54985046 -0.3125 -152.6880341
v -12.86681557 -0.3125 -152.6880341
v -52.28765488 -0.3125 -115.0566788
v -44.20014954 -0.3125 -103.0566788
v -52.28765488 -0.3125 -45.22376633
v -52.28765488 -0.3125 -51.22343445
v -44.20014954 -0.3125 -98.55667877
v -43.5334816 -0.3125 -94.55667877
v -43.5334816 -0.3125 -98.55667877
v -52.64194489 -0.3125 -45.22376633
v -52.64194489 -0.3125 -51.22343445
v -75.76264954 -0.3125 -115.0566788
v -63.54802322 -0.3125 -142.5733795
v -54.48945999 -0.3125 -137.9578094
v -44.21451187 -0.3125 -153.0692749
v -75.76264954 -0.3125 -118.6008224
v -36.5334816 0.1666666716 -92.97335052
v -43.5334816 0.1666666716 -94.55667877
v 51.54985046 0.1666666716 143.1933136
v 51.54985046 0.1666666716 -152.6880341
v -12.86681557 0.1666666716 -152.6880341
v -52.28765488 0.1666666716 -115.0566788
v -44.20014954 0.1666666716 -103.0566788
v -44.21451187 0.1666666716 -153.0692749
v -54.48945999 0.1666666716 -137.9578094
v -63.54802322 0.1666666716 -142.5733795
v -75.76264954 0.1666666716 -115.0566788
v -75.76264954 0.1666666716 -118.6008224
v -52.28765488 0.1666666716 -51.22343445
v -44.20014954 0.1666666716 -98.55667877
v -43.5334816 0.1666666716 -98.55667877
v -52.64194489 0.1666666716 -51.22343445
v -52.64194489 0.1666666716 -45.22376633
v -52.28765488 0.1666666716 -45.22376633
vn -0.04124587774 -0.9991364479 -0.005014768336
vn -0.02063532919 0.9997367263 -0.01003556233
vn -0.001395125524 -0.9999988079 -0.000696886098
vn -0.002790243365 0.9999960661 -0.0003484420886
vn -0.06077669188 -0.9969821572 -0.04829859734
vn -0.03037017956 0.9963861704 -0.07932384312
vn 0.01032526325 -0.3286864161 -0.9443826675
vn 0.03587054089 0.5709375143 -0.8202095032
vn 0.008360148408 -0.9999551773 -0.004446786363
vn 0.005829086993 0.9999230504 -0.01095111296
vn -0.002916920697 -0.9998900294 -0.01454124972
vn -0.009662601165 0.9999144077 -0.008820992894
vn -0.006377364043 0.9999706745 0.00424358109
vn -0.003188644536 -0.9999588728 0.008487061597
vn -0.1201444045 -0.9910947084 -0.05741644278
vn -0.07168509811 0.9970091581 -0.02887954004
vn -0.2571822107 -0.9326618314 -0.2529805899
vn -0.1203105226 0.8726034164 -0.4733799994
vn -0.01105051581 -0.9999362826 0.002310563345
vn -0.00552546652 0.999974072 0.004621301312
vn 0.003823552979 -0.9998975396 0.01379478164
vn 0.007647484075 0.9999469519 0.00689773215
vn 0.05643426627 -0.9983965158 -0.004426225554
vn 0.0293347314 0.9995272756 -0.009203070775
vn 0.5728945732 -0.7970722318 -0.1909652203
vn 0.5829462409 0.81105721 -0.04857894778
vn 0.5829462409 -0.81105721 0.04857894778
vn 0.5728945732 0.7970722318 0.1909652203
vn 0.01586125791 -0.999785006 0.01335691754
vn 0.03003931418 0.9995287061 0.006324098445
vn 0.001786914188 -0.9999890327 -0.004326228052
vn 0.0008934330544 0.9999621511 -0.008652223274
vn 0.005221370142 -0.9999857545 0.001121033682
vn -0.0001817449811 -1 -0.0001520049555
vn 0.00474022422 -0.9999866486 -0.002063999185
vn 6.499334268e-05 -0.9999803305 -0.006276055239
vn -0.03110990301 -0.999499619 0.005720410962
vn 0.03018019162 -0.999504447 0.008942295797
vn -0.05689430237 -0.9983801842 0.000108431479
vn -0.03276634216 -0.9994629622 -0.0003637222981
vn 0.05811740085 -0.9983004928 -0.004305000883
vn 0.5829462409 -0.81105721 0.04857894778
vn 0.5728945732 -0.7970722318 -0.1909652203
vn -0.8004758954 -0.5918621421 0.09453876317
vn -0.8038507104 -0.5943574309 -0.02373433486
vn -0.002462588716 -0.9994646907 0.03262241185
vn -0.02340913564 -0.9995622635 -0.01809206232
vn -0.004119063728 -0.9996802211 -0.02494868636
vn 0.1256621778 -0.9898555279 -0.06629562378
vn -0.3224985003 -0.9380356669 -0.1268220097
vn -0.0003634899331 0.9999999404 -7.600247773e-05
vn 0.5728945732 0.7970722318 0.1909652203
vn 0.002610706724 0.9999940991 0.002242086222
vn 0.009480143897 0.9999545217 -0.001031966531
vn 3.249475049e-05 0.9999212027 -0.01255136915
vn -0.01555983536 0.9998134375 0.01144441497
vn 0.05811740085 0.9983004928 0.004305000883
vn 0.2460910082 0.9692437053 0.002417158801
vn -0.02209858596 0.9994984269 -0.02268268727
vn -0.007966334 0.9998339415 -0.01639142819
vn -0.004927099217 0.9998547435 0.01631757058
vn -0.4820258915 0.8457823992 -0.2286988199
vn -0.06527931243 0.9978669882 -0.000181158015
vn 0.03018019162 0.999504447 -0.008942295797
vn 0.5829462409 0.81105721 -0.04857894778
vn -0.8004758954 0.5918621421 -0.09453876317
vn -0.8038507104 0.5943574309 0.02373433486
vn -0.02852049842 0.9995931983 0.0002174221008
f 1//1 2//2 3//3 
f 3//3 2//2 4//4 
f 5//5 6//6 7//7 
f 7//7 6//6 8//8 
f 9//9 10//10 11//11 
f 11//11 10//10 12//12 
f 2//2 1//1 13//13 
f 13//13 1//1 14//14 
f 15//15 16//16 17//17 
f 17//17 16//16 18//18 
f 19//19 20//20 21//21 
f 21//21 20//20 22//22 
f 21//21 22//22 23//23 
f 23//23 22//22 24//24 
f 23//23 24//24 25//25 
f 25//25 24//24 26//26 
f 25//25 26//26 27//27 
f 27//27 26//26 28//28 
f 29//29 30//30 31//31 
f 31//31 30//30 32//32 
f 1//1 3//3 14//14 
f 14//14 3//3 33//33 
f 33//33 3//3 34//34 
f 33//33 34//34 35//35 
f 35//35 34//34 36//36 
f 36//36 34//34 19//19 
f 36//36 19//19 11//11 
f 11//11 19//19 9//9 
f 9//9 19//19 21//21 
f 9//9 21//21 37//37 
f 37//37 21//21 23//23 
f 37//37 23//23 38//38 
f 38//38 23//23 27//27 
f 27//27 23//23 25//25 
f 3//3 39//39 34//34 
f 34//34 39//39 40//40 
f 34//34 40//40 31//31 
f 31//31 40//40 37//37 
f 31//31 37//37 29//29 
f 29//29 37//37 41//41 
f 29//29 41//41 42//42 
f 42//42 41//41 43//43 
f 44//44 45//45 39//39 
f 39//39 45//45 40//40 
f 46//46 47//47 37//37 
f 37//37 47//47 48//48 
f 37//37 48//48 9//9 
f 9//9 48//48 15//15 
f 9//9 15//15 49//49 
f 49//49 15//15 17//17 
f 46//46 50//50 47//47 
f 11//11 5//5 36//36 
f 36//36 5//5 7//7 
f 38//38 41//41 37//37 
f 31//31 32//32 34//34 
f 34//34 32//32 51//51 
f 42//42 52//52 29//29 
f 29//29 52//52 30//30 
f 2//2 13//13 4//4 
f 4//4 13//13 53//53 
f 4//4 53//53 51//51 
f 51//51 53//53 54//54 
f 51//51 54//54 55//55 
f 8//8 6//6 55//55 
f 55//55 6//6 12//12 
f 55//55 12//12 20//20 
f 20//20 12//12 10//10 
f 20//20 10//10 22//22 
f 22//22 10//10 56//56 
f 22//22 56//56 24//24 
f 24//24 56//56 57//57 
f 24//24 57//57 26//26 
f 26//26 57//57 28//28 
f 58//58 16//16 10//10 
f 10//10 16//16 59//59 
f 10//10 59//59 56//56 
f 56//56 59//59 60//60 
f 56//56 60//60 61//61 
f 61//61 60//60 62//62 
f 58//58 18//18 16//16 
f 63//63 32//32 56//56 
f 56//56 32//32 30//30 
f 56//56 30//30 64//64 
f 64//64 30//30 65//65 
f 65//65 30//30 52//52 
f 66//66 67//67 63//63 
f 63//63 67//67 68//68 
f 63//63 68//68 51//51 
f 51//51 68//68 4//4 
f 20//20 51//51 55//55 
f 51//51 32//32 63//63 
f 64//64 57//57 56//56 
f 43//43 65//65 42//42 
f 42//42 65//65 52//52 
f 41//41 64//64 43//43 
f 43//43 64//64 65//65 
f 38//38 57//57 41//41 
f 41//41 57//57 64//64 
f 27//27 28//28 38//38 
f 38//38 28//28 57//57 
f 17//17 18//18 49//49 
f 49//49 18//18 58//58 
f 48//48 59//59 15//15 
f 15//15 59//59 16//16 
f 47//47 60//60 48//48 
f 48//48 60//60 59//59 
f 50//50 62//62 47//47 
f 47//47 62//62 60//60 
f 34//34 51//51 19//19 
f 19//19 51//51 20//20 
f 62//62 50//50 61//61 
f 61//61 50//50 46//46 
f 37//37 56//56 46//46 
f 46//46 56//56 61//61 
f 40//40 63//63 37//37 
f 37//37 63//63 56//56 
f 35//35 54//54 33//33 
f 33//33 54//54 53//53 
f 33//33 53//53 14//14 
f 14//14 53//53 13//13 
f 49//49 58//58 9//9 
f 9//9 58//58 10//10 
f 11//11 12//12 5//5 
f 5//5 12//12 6//6 
f 45//45 66//66 40//40 
f 40//40 66//66 63//63 
f 44//44 67//67 45//45 
f 45//45 67//67 66//66 
f 39//39 68//68 44//44 
f 44//44 68//68 67//67 
f 3//3 4//4 39//39 
f 39//39 4//4 68//68 
f 36//36 55//55 35//35 
f 35//35 55//55 54//54 
f 7//7 8//8 36//36 
f 36//36 8//8 55//55 
