v 44.79985046 18.375 -86.47335052
v 45.39813995 18.375 -86.40070343
v 44.79985046 16.375 -85.22335052
v 45.12337494 16.375 -85.18075562
v 45.96165848 18.375 -86.18698883
v 45.42485046 16.375 -85.05587769
v 46.45765686 18.375 -85.84462738
v 45.68373489 16.375 -84.85723114
v 46.85731125 18.375 -85.39350891
v 45.88238144 16.375 -84.59835052
v 47.13739014 18.375 -84.85986328
v 46.00725937 16.375 -84.296875
v 47.28162384 18.375 -84.27468872
v 46.04985046 16.375 -83.97335052
v 47.28162384 18.375 -83.6720047
v 46.00725937 16.375 -83.64982605
v 47.13739014 18.375 -83.08683777
v 45.88238144 16.375 -83.34835052
v 46.85731125 18.375 -82.55318451
v 45.68373489 16.375 -83.08946228
v 46.45765686 18.375 -82.10207367
v 45.42485046 16.375 -82.89081573
v 45.96165848 18.375 -81.75970459
v 45.12337494 16.375 -82.76593781
v 45.39813995 18.375 -81.54598999
v 44.79985046 16.375 -82.72335052
v 44.79985046 18.375 -81.47335052
v 44.20156097 18.375 -81.54598999
v 44.47632599 16.375 -82.76593781
v 43.63804245 18.375 -81.75970459
v 44.17485046 16.375 -82.89081573
v 43.14204407 18.375 -82.10207367
v 43.91596603 16.375 -83.08946228
v 42.74239349 18.375 -82.55318451
v 43.71731949 16.375 -83.34835052
v 42.46231079 18.375 -83.08683777
v 43.59244537 16.375 -83.64982605
v 42.3180809 18.375 -83.6720047
v 43.54985046 16.375 -83.97335052
v 42.3180809 18.375 -84.27468872
v 43.59244537 16.375 -84.296875
v 42.46231079 18.375 -84.85986328
v 43.71731949 16.375 -84.59835052
v 42.74239349 18.375 -85.39350891
v 43.91596603 16.375 -84.85723114
v 43.14204407 18.375 -85.84462738
v 44.17485046 16.375 -85.05587769
v 43.63804245 18.375 -86.18698883
v 44.47632599 16.375 -85.18075562
v 44.20156097 18.375 -86.40070343
v 44.79985046 0 -82.72335052
v 44.47632599 0 -82.76593781
v 44.17485046 0 -82.89081573
v 43.91596603 0 -83.08946228
v 43.71731949 0 -83.34835052
v 43.59244537 0 -83.64982605
v 43.54985046 0 -83.97335052
v 43.59244537 0 -84.296875
v 43.71731949 0 -84.59835052
v 43.91596603 0 -84.85723114
v 44.17485046 0 -85.05587769
v 44.47632599 0 -85.18075562
v 44.79985046 0 -85.22335052
v 45.12337494 0 -82.76593781
v 45.12337494 0 -85.18075562
v 45.42485046 0 -82.89081573
v 45.42485046 0 -85.05587769
v 45.68373489 0 -83.08946228
v 45.68373489 0 -84.85723114
v 45.88238144 0 -83.34835052
v 45.88238144 0 -84.59835052
v 46.00725937 0 -83.64982605
v 46.00725937 0 -84.296875
v 46.04985046 0 -83.97335052
v 44.79985046 18.375 -85.22335052
v 44.79985046 18.375 -82.72335052
vn -9.278309569e-17 -1.391746468e-16 -1
vn 0.2147224396 -0.1179000288 -0.9695327878
vn 0.03535480052 -0.1170142218 -0.9925007224
vn 0.3004544079 -0.08449081331 -0.9500465393
vn 0.4461601079 -0.07599952817 -0.8917203546
vn 0.534989357 -0.08457168192 -0.8406152725
vn 0.6517225504 -0.008550605737 -0.7584092617
vn 0.7334337234 -0.08463602513 -0.6744714379
vn 0.8141844273 0.08010226488 -0.5750542283
vn 0.8823949695 -0.08468198031 -0.4628261924
vn 0.9170783758 0.1822614074 -0.3546097577
vn 0.9718257189 -0.08471222967 -0.2199514061
vn 0.3903609514 0.9193965197 -0.0482532233
vn 0.995688796 -0.0847247839 0.03775552288
vn 0.950488925 0.2876915038 0.1174922511
vn 0.9523753524 -0.08472026885 0.2929225862
vn 0.9170783758 0.1822611094 0.3546097875
vn 0.844812274 -0.08469896764 0.5283164978
vn 0.8141862154 0.08010051399 0.5750519633
vn 0.6802437901 -0.08466049284 0.7280803919
vn 0.6517225504 -0.008548361249 0.7584092617
vn 0.4697818756 -0.08460526913 0.8787189126
vn 0.4461642504 -0.07599516958 0.8917186856
vn 0.2276065201 -0.08453281224 0.9700770378
vn 0.2147129923 -0.1178982183 0.9695351124
vn -0.03534847498 -0.117014043 0.9925009608
vn 3.479366171e-17 -1.391746468e-16 1
vn -0.2147129923 -0.1178982183 0.9695351124
vn -0.3004474938 -0.08449089527 0.9500487447
vn -0.4461642504 -0.07599516958 0.8917186856
vn -0.534989953 -0.08457175642 0.8406148553
vn -0.6517238021 -0.008547918871 0.7584082484
vn -0.7334402204 -0.08463484794 0.6744645238
vn -0.8141862154 0.08010051399 0.5750519633
vn -0.8823994994 -0.08468255401 0.4628174007
vn -0.9170792103 0.1822612435 0.3546076417
vn -0.9718250632 -0.08471174538 0.2199544162
vn -0.3903600872 0.9193968773 0.04825336114
vn -0.9956887364 -0.08472464234 -0.03775889799
vn -0.9504884481 0.2876933217 -0.1174915954
vn -0.9523764849 -0.08472068608 -0.2929188609
vn -0.9170791507 0.1822615415 -0.3546076119
vn -0.8448095322 -0.0846991539 -0.5283208489
vn -0.8141844273 0.08010226488 -0.5750542283
vn -0.6802403331 -0.08466076106 -0.7280835509
vn -0.6517238021 -0.008550163358 -0.7584081888
vn -0.46978122 -0.08460518718 -0.8787192702
vn -0.4461601079 -0.07599952817 -0.8917203546
vn -0.2276201397 -0.08453265578 -0.9700738788
vn -0.2147224396 -0.1179000288 -0.9695327878
vn 0.04334625229 -0.1491069794 0.987870574
vn -0.2142442167 -0.1346636862 0.9674528837
vn -0.4590287209 -0.1044554636 0.8822594285
vn -0.6739403009 -0.06630394608 0.7358044982
vn -0.8428846598 -0.03048530594 0.5372299552
vn -0.953627944 -0.006811383646 0.3009108901
vn -0.9990369081 -0.001732473727 0.04384406656
vn -0.9762087464 -0.01662117802 -0.2161950022
vn -0.886115849 -0.04744132981 -0.4610293508
vn -0.7347089648 -0.08575815707 -0.6729400754
vn -0.5335286856 -0.121126458 -0.8370636106
vn -0.2977803349 -0.1441907585 -0.9436820745
vn -0.0433540009 -0.1491069198 -0.9878702164
vn 0.297773242 -0.1441911012 0.9436842799
vn 0.2142590731 -0.1346632391 -0.9674496651
vn 0.5335286856 -0.121126458 0.8370636106
vn 0.4590287209 -0.1044554636 -0.8822594285
vn 0.7347161174 -0.0857571736 0.6729323268
vn 0.6739360094 -0.06630429626 -0.7358084321
vn 0.8861142993 -0.04744112492 0.461032331
vn 0.8428783417 -0.03048609942 -0.5372398496
vn 0.9762095213 -0.0166214928 0.2161912471
vn 0.9536268115 -0.006811375264 -0.3009144664
vn 0.9990370274 -0.001732318895 -0.04384014755
vn 0 1 0
vn 0 1 0
f 1//1 2//2 3//3 
f 3//3 2//2 4//4 
f 4//4 2//2 5//5 
f 4//4 5//5 6//6 
f 6//6 5//5 7//7 
f 6//6 7//7 8//8 
f 8//8 7//7 9//9 
f 8//8 9//9 10//10 
f 10//10 9//9 11//11 
f 10//10 11//11 12//12 
f 12//12 11//11 13//13 
f 12//12 13//13 14//14 
f 14//14 13//13 15//15 
f 14//14 15//15 16//16 
f 16//16 15//15 17//17 
f 16//16 17//17 18//18 
f 18//18 17//17 19//19 
f 18//18 19//19 20//20 
f 20//20 19//19 21//21 
f 20//20 21//21 22//22 
f 22//22 21//21 23//23 
f 22//22 23//23 24//24 
f 24//24 23//23 25//25 
f 24//24 25//25 26//26 
f 26//26 25//25 27//27 
f 27//27 28//28 26//26 
f 26//26 28//28 29//29 
f 29//29 28//28 30//30 
f 29//29 30//30 31//31 
f 31//31 30//30 32//32 
f 31//31 32//32 33//33 
f 33//33 32//32 34//34 
f 33//33 34//34 35//35 
f 35//35 34//34 36//36 
f 35//35 36//36 37//37 
f 37//37 36//36 38//38 
f 37//37 38//38 39//39 
f 39//39 38//38 40//40 
f 39//39 40//40 41//41 
f 41//41 40//40 42//42 
f 41//41 42//42 43//43 
f 43//43 42//42 44//44 
f 43//43 44//44 45//45 
f 45//45 44//44 46//46 
f 45//45 46//46 47//47 
f 47//47 46//46 48//48 
f 47//47 48//48 49//49 
f 49//49 48//48 50//50 
f 49//49 50//50 3//3 
f 3//3 50//50 1//1 
f 51//51 26//26 52//52 
f 52//52 26//26 29//29 
f 52//52 29//29 53//53 
f 53//53 29//29 31//31 
f 53//53 31//31 54//54 
f 54//54 31//31 33//33 
f 54//54 33//33 55//55 
f 55//55 33//33 35//35 
f 55//55 35//35 56//56 
f 56//56 35//35 37//37 
f 56//56 37//37 57//57 
f 57//57 37//37 39//39 
f 57//57 39//39 58//58 
f 58//58 39//39 41//41 
f 58//58 41//41 59//59 
f 59//59 41//41 43//43 
f 59//59 43//43 60//60 
f 60//60 43//43 45//45 
f 60//60 45//45 61//61 
f 61//61 45//45 47//47 
f 61//61 47//47 62//62 
f 62//62 47//47 49//49 
f 62//62 49//49 63//63 
f 63//63 49//49 3//3 
f 52//52 62//62 51//51 
f 51//51 62//62 63//63 
f 51//51 63//63 64//64 
f 64//64 63//63 65//65 
f 64//64 65//65 66//66 
f 66//66 65//65 67//67 
f 66//66 67//67 68//68 
f 68//68 67//67 69//69 
f 68//68 69//69 70//70 
f 70//70 69//69 71//71 
f 70//70 71//71 72//72 
f 72//72 71//71 73//73 
f 72//72 73//73 74//74 
f 62//62 52//52 61//61 
f 61//61 52//52 53//53 
f 61//61 53//53 60//60 
f 60//60 53//53 54//54 
f 60//60 54//54 59//59 
f 59//59 54//54 55//55 
f 59//59 55//55 58//58 
f 58//58 55//55 56//56 
f 58//58 56//56 57//57 
f 1//1 50//50 75//75 
f 75//75 50//50 48//48 
f 75//75 48//48 46//46 
f 46//46 44//44 75//75 
f 75//75 44//44 42//42 
f 75//75 42//42 40//40 
f 40//40 38//38 75//75 
f 75//75 38//38 76//76 
f 75//75 76//76 13//13 
f 13//13 76//76 15//15 
f 15//15 76//76 17//17 
f 17//17 76//76 19//19 
f 19//19 76//76 21//21 
f 21//21 76//76 23//23 
f 23//23 76//76 25//25 
f 25//25 76//76 27//27 
f 38//38 36//36 76//76 
f 76//76 36//36 34//34 
f 76//76 34//34 32//32 
f 32//32 30//30 76//76 
f 76//76 30//30 28//28 
f 76//76 28//28 27//27 
f 13//13 11//11 75//75 
f 75//75 11//11 9//9 
f 75//75 9//9 7//7 
f 7//7 5//5 75//75 
f 75//75 5//5 2//2 
f 75//75 2//2 1//1 
f 63//63 3//3 65//65 
f 65//65 3//3 4//4 
f 65//65 4//4 67//67 
f 67//67 4//4 6//6 
f 67//67 6//6 69//69 
f 69//69 6//6 8//8 
f 69//69 8//8 71//71 
f 71//71 8//8 10//10 
f 71//71 10//10 73//73 
f 73//73 10//10 12//12 
f 73//73 12//12 74//74 
f 74//74 12//12 14//14 
f 74//74 14//14 72//72 
f 72//72 14//14 16//16 
f 72//72 16//16 70//70 
f 70//70 16//16 18//18 
f 70//70 18//18 68//68 
f 68//68 18//18 20//20 
f 68//68 20//20 66//66 
f 66//66 20//20 22//22 
f 66//66 22//22 64//64 
f 64//64 22//22 24//24 
f 64//64 24//24 51//51 
f 51//51 24//24 26//26 
