v 14.79985142 18 -86.47335052
v 15.39814091 18 -86.40070343
v 14.79985142 16 -85.22335052
v 15.12337494 16 -85.18075562
v 15.96165943 18 -86.18698883
v 15.42485142 16 -85.05587769
v 16.45765877 18 -85.84462738
v 15.68373489 16 -84.85723114
v 16.85731125 18 -85.39350891
v 15.88238335 16 -84.59835052
v 17.13739204 18 -84.85986328
v 16.00725937 16 -84.296875
v 17.28162384 18 -84.27468872
v 16.04985046 16 -83.97335052
v 17.28162384 18 -83.6720047
v 16.00725937 16 -83.64982605
v 17.13739204 18 -83.08683777
v 15.88238335 16 -83.34835052
v 16.85731125 18 -82.55318451
v 15.68373489 16 -83.08946228
v 16.45765877 18 -82.10207367
v 15.42485142 16 -82.89081573
v 15.96165943 18 -81.75970459
v 15.12337494 16 -82.76593781
v 15.39814091 18 -81.54598999
v 14.79985142 16 -82.72335052
v 14.79985142 18 -81.47335052
v 14.20156193 18 -81.54598999
v 14.4763279 16 -82.76593781
v 13.6380434 18 -81.75970459
v 14.17485142 16 -82.89081573
v 13.14204502 18 -82.10207367
v 13.91596794 16 -83.08946228
v 12.74239159 18 -82.55318451
v 13.71731949 16 -83.34835052
v 12.46231079 18 -83.08683777
v 13.59244442 16 -83.64982605
v 12.31807899 18 -83.6720047
v 13.54985142 16 -83.97335052
v 12.31807899 18 -84.27468872
v 13.59244442 16 -84.296875
v 12.46231079 18 -84.85986328
v 13.71731949 16 -84.59835052
v 12.74239159 18 -85.39350891
v 13.91596794 16 -84.85723114
v 13.14204502 18 -85.84462738
v 14.17485142 16 -85.05587769
v 13.6380434 18 -86.18698883
v 14.4763279 16 -85.18075562
v 14.20156193 18 -86.40070343
v 14.79985142 0 -82.72335052
v 14.4763279 0 -82.76593781
v 14.17485142 0 -82.89081573
v 13.91596794 0 -83.08946228
v 13.71731949 0 -83.34835052
v 13.59244442 0 -83.64982605
v 13.54985142 0 -83.97335052
v 13.59244442 0 -84.296875
v 13.71731949 0 -84.59835052
v 13.91596794 0 -84.85723114
v 14.17485142 0 -85.05587769
v 14.4763279 0 -85.18075562
v 14.79985142 0 -85.22335052
v 15.12337494 0 -82.76593781
v 15.12337494 0 -85.18075562
v 15.42485142 0 -82.89081573
v 15.42485142 0 -85.05587769
v 15.68373489 0 -83.08946228
v 15.68373489 0 -84.85723114
v 15.88238335 0 -83.34835052
v 15.88238335 0 -84.59835052
v 16.00725937 0 -83.64982605
v 16.00725937 0 -84.296875
v 16.04985046 0 -83.97335052
v 14.79985142 18 -85.22335052
v 14.79985142 18 -82.72335052
vn -9.278309569e-17 -1.391746468e-16 -1
vn 0.2147225738 -0.1178998053 -0.9695327878
vn 0.03519051522 -0.1192001477 -0.9922463894
vn 0.3004226387 -0.08618444949 -0.9499044418
vn 0.4461596012 -0.07599990815 -0.891720593
vn 0.5349001288 -0.08626700193 -0.8404997587
vn 0.6517231464 -0.008550393395 -0.7584087253
vn 0.7332982421 -0.08633223921 -0.6744037867
vn 0.8141838312 0.08010174334 -0.5750550628
vn 0.882235527 -0.08637935668 -0.462816447
vn 0.9170786738 0.1822618097 -0.3546086848
vn 0.9716633558 -0.08641012013 -0.2200081646
vn 0.3903610408 0.9193965197 -0.04825274274
vn 0.9955475926 -0.08642296493 0.03763031214
vn 0.9504889846 0.2876917124 0.117491059
vn 0.9522800446 -0.08641852438 0.2927364111
vn 0.9170787334 0.1822615117 0.3546086848
vn 0.8447794318 -0.08639682829 0.5280940533
vn 0.8141856194 0.080099985 0.5750527978
vn 0.6802899241 -0.08635777235 0.7278378606
vn 0.6517231464 -0.008548148908 0.7584087849
vn 0.4699118733 -0.08630170673 0.8784843683
vn 0.4461637437 -0.07599555701 0.891718924
vn 0.227818951 -0.0862281397 0.9698779583
vn 0.2147131264 -0.1178979948 0.9695351124
vn -0.03518421948 -0.1191999614 0.9922466874
vn 3.479366171e-17 -1.391746468e-16 1
vn -0.2147131264 -0.1178979948 0.9695351124
vn -0.3004157543 -0.08618453145 0.9499066472
vn -0.4461639822 -0.07599554211 0.8917187452
vn -0.5349007845 -0.08626701683 0.8404993415
vn -0.6517231464 -0.008548148908 0.7584087849
vn -0.7333043814 -0.08633128554 0.6743971705
vn -0.8141853213 0.08009984344 0.575053215
vn -0.88223809 -0.08637978882 0.4628115594
vn -0.9170789719 0.1822614521 0.3546081483
vn -0.9716628194 -0.0864097178 0.2200108618
vn -0.3903598189 0.9193969965 0.04825332761
vn -0.995547533 -0.08642295003 -0.03763199598
vn -0.9504885077 0.2876930535 -0.1174916103
vn -0.9522800446 -0.08641893417 -0.2927362621
vn -0.9170789123 0.1822617501 -0.3546081483
vn -0.8447755575 -0.0863969475 -0.5281001925
vn -0.8141835928 0.08010159433 -0.5750555396
vn -0.6802862883 -0.08635829389 -0.7278411984
vn -0.6517231464 -0.008550393395 -0.7584087253
vn -0.4699112773 -0.08630156517 -0.878484726
vn -0.4461598396 -0.0759999007 -0.8917204738
vn -0.2278325409 -0.08622797579 -0.9698747993
vn -0.2147225738 -0.1178998053 -0.9695327878
vn 0.04332354665 -0.1525212824 0.9873501658
vn -0.214152351 -0.1377609074 0.9670370817
vn -0.4589096308 -0.1068757921 0.8820315003
vn -0.6738700271 -0.06785113364 0.7357278466
vn -0.8428638577 -0.03119930625 0.5372216105
vn -0.9536268711 -0.006970977876 0.3009105623
vn -0.9990369081 -0.001772999181 0.04384210333
vn -0.9762029648 -0.01701067388 -0.2161907703
vn -0.8860669136 -0.04855100065 -0.4610078335
vn -0.7345793843 -0.0877526179 -0.6728243232
vn -0.5333436131 -0.123922497 -0.8367722631
vn -0.2976333797 -0.1474972516 -0.9432173371
vn -0.04333129153 -0.1525212377 -0.9873498082
vn 0.2976262867 -0.1474975944 0.9432195425
vn 0.2141671926 -0.1377604455 -0.9670338631
vn 0.5333436131 -0.123922497 0.8367722631
vn 0.4589096308 -0.1068757921 -0.8820315003
vn 0.7345865965 -0.08775161207 0.6728166342
vn 0.6738657355 -0.06785149127 -0.7357317209
vn 0.8860678077 -0.04855069518 0.4610061646
vn 0.8428589106 -0.03119981848 -0.5372294188
vn 0.9762035608 -0.01701072231 0.2161879689
vn 0.9536268711 -0.006970938295 -0.3009105623
vn 0.9990369678 -0.001772920019 -0.04384014383
vn 0 1 0
vn 0 1 0
f 1//1 2//2 3//3 
f 3//3 2//2 4//4 
f 4//4 2//2 5//5 
f 4//4 5//5 6//6 
f 6//6 5//5 7//7 
f 6//6 7//7 8//8 
f 8//8 7//7 9//9 
f 8//8 9//9 10//10 
f 10//10 9//9 11//11 
f 10//10 11//11 12//12 
f 12//12 11//11 13//13 
f 12//12 13//13 14//14 
f 14//14 13//13 15//15 
f 14//14 15//15 16//16 
f 16//16 15//15 17//17 
f 16//16 17//17 18//18 
f 18//18 17//17 19//19 
f 18//18 19//19 20//20 
f 20//20 19//19 21//21 
f 20//20 21//21 22//22 
f 22//22 21//21 23//23 
f 22//22 23//23 24//24 
f 24//24 23//23 25//25 
f 24//24 25//25 26//26 
f 26//26 25//25 27//27 
f 27//27 28//28 26//26 
f 26//26 28//28 29//29 
f 29//29 28//28 30//30 
f 29//29 30//30 31//31 
f 31//31 30//30 32//32 
f 31//31 32//32 33//33 
f 33//33 32//32 34//34 
f 33//33 34//34 35//35 
f 35//35 34//34 36//36 
f 35//35 36//36 37//37 
f 37//37 36//36 38//38 
f 37//37 38//38 39//39 
f 39//39 38//38 40//40 
f 39//39 40//40 41//41 
f 41//41 40//40 42//42 
f 41//41 42//42 43//43 
f 43//43 42//42 44//44 
f 43//43 44//44 45//45 
f 45//45 44//44 46//46 
f 45//45 46//46 47//47 
f 47//47 46//46 48//48 
f 47//47 48//48 49//49 
f 49//49 48//48 50//50 
f 49//49 50//50 3//3 
f 3//3 50//50 1//1 
f 51//51 26//26 52//52 
f 52//52 26//26 29//29 
f 52//52 29//29 53//53 
f 53//53 29//29 31//31 
f 53//53 31//31 54//54 
f 54//54 31//31 33//33 
f 54//54 33//33 55//55 
f 55//55 33//33 35//35 
f 55//55 35//35 56//56 
f 56//56 35//35 37//37 
f 56//56 37//37 57//57 
f 57//57 37//37 39//39 
f 57//57 39//39 58//58 
f 58//58 39//39 41//41 
f 58//58 41//41 59//59 
f 59//59 41//41 43//43 
f 59//59 43//43 60//60 
f 60//60 43//43 45//45 
f 60//60 45//45 61//61 
f 61//61 45//45 47//47 
f 61//61 47//47 62//62 
f 62//62 47//47 49//49 
f 62//62 49//49 63//63 
f 63//63 49//49 3//3 
f 52//52 62//62 51//51 
f 51//51 62//62 63//63 
f 51//51 63//63 64//64 
f 64//64 63//63 65//65 
f 64//64 65//65 66//66 
f 66//66 65//65 67//67 
f 66//66 67//67 68//68 
f 68//68 67//67 69//69 
f 68//68 69//69 70//70 
f 70//70 69//69 71//71 
f 70//70 71//71 72//72 
f 72//72 71//71 73//73 
f 72//72 73//73 74//74 
f 62//62 52//52 61//61 
f 61//61 52//52 53//53 
f 61//61 53//53 60//60 
f 60//60 53//53 54//54 
f 60//60 54//54 59//59 
f 59//59 54//54 55//55 
f 59//59 55//55 58//58 
f 58//58 55//55 56//56 
f 58//58 56//56 57//57 
f 1//1 50//50 75//75 
f 75//75 50//50 48//48 
f 75//75 48//48 46//46 
f 46//46 44//44 75//75 
f 75//75 44//44 42//42 
f 75//75 42//42 40//40 
f 40//40 38//38 75//75 
f 75//75 38//38 76//76 
f 75//75 76//76 13//13 
f 13//13 76//76 15//15 
f 15//15 76//76 17//17 
f 17//17 76//76 19//19 
f 19//19 76//76 21//21 
f 21//21 76//76 23//23 
f 23//23 76//76 25//25 
f 25//25 76//76 27//27 
f 38//38 36//36 76//76 
f 76//76 36//36 34//34 
f 76//76 34//34 32//32 
f 32//32 30//30 76//76 
f 76//76 30//30 28//28 
f 76//76 28//28 27//27 
f 13//13 11//11 75//75 
f 75//75 11//11 9//9 
f 75//75 9//9 7//7 
f 7//7 5//5 75//75 
f 75//75 5//5 2//2 
f 75//75 2//2 1//1 
f 63//63 3//3 65//65 
f 65//65 3//3 4//4 
f 65//65 4//4 67//67 
f 67//67 4//4 6//6 
f 67//67 6//6 69//69 
f 69//69 6//6 8//8 
f 69//69 8//8 71//71 
f 71//71 8//8 10//10 
f 71//71 10//10 73//73 
f 73//73 10//10 12//12 
f 73//73 12//12 74//74 
f 74//74 12//12 14//14 
f 74//74 14//14 72//72 
f 72//72 14//14 16//16 
f 72//72 16//16 70//70 
f 70//70 16//16 18//18 
f 70//70 18//18 68//68 
f 68//68 18//18 20//20 
f 68//68 20//20 66//66 
f 66//66 20//20 22//22 
f 66//66 22//22 64//64 
f 64//64 22//22 24//24 
f 64//64 24//24 51//51 
f 51//51 24//24 26//26 
