v 44.79985046 18.35416603 25.52665138
v 45.39813995 18.35416603 25.59929657
v 44.79985046 16.35416603 26.77665138
v 45.12337494 16.35416603 26.81924438
v 45.96165848 18.35416603 25.81301117
v 45.42485046 16.35416603 26.94412041
v 46.45765686 18.35416603 26.15537453
v 45.68373489 16.35416603 27.14276886
v 46.85731125 18.35416603 26.60649109
v 45.88238144 16.35416603 27.40165138
v 47.13739014 18.35416603 27.14014053
v 46.00725937 16.35416603 27.70312881
v 47.28162384 18.35416603 27.72531128
v 46.04985046 16.35416603 28.02665138
v 47.28162384 18.35416603 28.32799339
v 46.00725937 16.35416603 28.35017586
v 47.13739014 18.35416603 28.91316414
v 45.88238144 16.35416603 28.65165138
v 46.85731125 18.35416603 29.44681358
v 45.68373489 16.35416603 28.91053581
v 46.45765686 18.35416603 29.89792824
v 45.42485046 16.35416603 29.10918427
v 45.96165848 18.35416603 30.2402916
v 45.12337494 16.35416603 29.23406029
v 45.39813995 18.35416603 30.4540062
v 44.79985046 16.35416603 29.27665138
v 44.79985046 18.35416603 30.52665138
v 44.20156097 18.35416603 30.4540062
v 44.47632599 16.35416603 29.23406029
v 43.63804245 18.35416603 30.2402916
v 44.17485046 16.35416603 29.10918427
v 43.14204407 18.35416603 29.89792824
v 43.91596603 16.35416603 28.91053581
v 42.74239349 18.35416603 29.44681358
v 43.71731949 16.35416603 28.65165138
v 42.46231079 18.35416603 28.91316414
v 43.59244537 16.35416603 28.35017586
v 42.3180809 18.35416603 28.32799339
v 43.54985046 16.35416603 28.02665138
v 42.3180809 18.35416603 27.72531128
v 43.59244537 16.35416603 27.70312881
v 42.46231079 18.35416603 27.14014053
v 43.71731949 16.35416603 27.40165138
v 42.74239349 18.35416603 26.60649109
v 43.91596603 16.35416603 27.14276886
v 43.14204407 18.35416603 26.15537453
v 44.17485046 16.35416603 26.94412041
v 43.63804245 18.35416603 25.81301117
v 44.47632599 16.35416603 26.81924438
v 44.20156097 18.35416603 25.59929657
v 44.79985046 0 29.27665138
v 44.47632599 0 29.23406029
v 44.17485046 0 29.10918427
v 43.91596603 0 28.91053581
v 43.71731949 0 28.65165138
v 43.59244537 0 28.35017586
v 43.54985046 0 28.02665138
v 43.59244537 0 27.70312881
v 43.71731949 0 27.40165138
v 43.91596603 0 27.14276886
v 44.17485046 0 26.94412041
v 44.47632599 0 26.81924438
v 44.79985046 0 26.77665138
v 45.12337494 0 29.23406029
v 45.12337494 0 26.81924438
v 45.42485046 0 29.10918427
v 45.42485046 0 26.94412041
v 45.68373489 0 28.91053581
v 45.68373489 0 27.14276886
v 45.88238144 0 28.65165138
v 45.88238144 0 27.40165138
v 46.00725937 0 28.35017586
v 46.00725937 0 27.70312881
v 46.04985046 0 28.02665138
v 44.79985046 18.35416603 26.77665138
v 44.79985046 18.35416603 29.27665138
vn 5.798943729e-17 -9.278309569e-17 -1
vn 0.2147200853 -0.1178995743 -0.9695333838
vn 0.0353442505 -0.1171335205 -0.9924870133
vn 0.3004477322 -0.08458319306 -0.9500404596
vn 0.4461601675 -0.07599765062 -0.8917204738
vn 0.5349858403 -0.08466400206 -0.8406081796
vn 0.6517232656 -0.008550211787 -0.7584086657
vn 0.7334288955 -0.08472824842 -0.6744650602
vn 0.8141852617 0.08010241389 -0.5750530362
vn 0.8823875785 -0.08477455378 -0.4628233314
vn 0.9170786738 0.1822602898 -0.3546094298
vn 0.9718168378 -0.08480475098 -0.2199550867
vn 0.3903595209 0.9193971157 -0.04825329036
vn 0.9956812263 -0.08481730521 0.03774877638
vn 0.9504888058 0.2876918614 0.1174920946
vn 0.9523702264 -0.08481305838 0.292912513
vn 0.9170783758 0.1822612584 0.3546097875
vn 0.8448084593 -0.08479159325 0.5283077359
vn 0.8141853213 0.08010138571 0.5750530958
vn 0.6802464128 -0.08475316316 0.7280671
vn 0.6517225504 -0.008550048806 0.7584092617
vn 0.4697872102 -0.08469761163 0.8787071705
vn 0.4461601973 -0.07599680126 0.8917205334
vn 0.22762312 -0.08462499827 0.9700651169
vn 0.2147189081 -0.1178988963 0.9695337415
vn -0.03534267098 -0.1171334162 0.9924871325
vn -5.798943729e-17 -9.278309569e-17 1
vn -0.2147189081 -0.1178988963 0.9695337415
vn -0.3004460037 -0.08458309621 0.9500409961
vn -0.4461601973 -0.07599680126 0.8917205334
vn -0.5349858999 -0.0846638903 0.8406081796
vn -0.6517238021 -0.008549606428 0.7584081888
vn -0.7334306836 -0.08472777903 0.6744632125
vn -0.8141853213 0.08010138571 0.5750530958
vn -0.8823899627 -0.0847749263 0.462818712
vn -0.9170791507 0.1822613925 0.3546076417
vn -0.9718163013 -0.08480451256 0.2199575454
vn -0.390360415 0.9193967581 0.04825333878
vn -0.9956810474 -0.08481730521 -0.03775221854
vn -0.9504883885 0.2876932025 -0.117492184
vn -0.9523714185 -0.08481294662 -0.2929085791
vn -0.9170795083 0.1822604239 -0.3546072841
vn -0.8448094726 -0.08479177952 -0.528306067
vn -0.8141852617 0.08010241389 -0.5750530362
vn -0.6802457571 -0.08475305885 -0.7280677557
vn -0.6517245173 -0.008549769409 -0.7584075928
vn -0.4697872102 -0.08469771594 -0.8787071705
vn -0.4461601675 -0.07599765062 -0.8917204738
vn -0.2276265323 -0.08462508023 -0.9700642824
vn -0.2147200853 -0.1178995743 -0.9695333838
vn 0.04334889725 -0.1492926329 0.987842381
vn -0.2142448425 -0.1348319203 0.9674293399
vn -0.4590207934 -0.1045872122 0.8822479248
vn -0.6739364862 -0.06638798118 0.7358003855
vn -0.8428814411 -0.03052429296 0.5372328758
vn -0.9536278844 -0.006820040289 0.3009108901
vn -0.9990368485 -0.001734679099 0.04384415224
vn -0.9762082696 -0.01664235815 -0.21619533
vn -0.8861145377 -0.04750135913 -0.4610256255
vn -0.7347047329 -0.08586621284 -0.6729308367
vn -0.5335201025 -0.1212783977 -0.8370471001
vn -0.2977671325 -0.1443708092 -0.9436587095
vn -0.0433508344 -0.149292618 -0.9878423214
vn 0.2977653444 -0.1443708837 0.9436593056
vn 0.2142485529 -0.1348318011 -0.9674285054
vn 0.5335201025 -0.1212783977 0.8370471001
vn 0.4590207934 -0.1045872122 -0.8822479248
vn 0.734706521 -0.08586595953 0.6729289293
vn 0.6739354134 -0.06638807058 -0.7358013988
vn 0.8861109018 -0.04750156775 0.4610325992
vn 0.8428790569 -0.03052473441 -0.5372365713
vn 0.9762092233 -0.01664264128 0.2161911726
vn 0.9536269307 -0.006820019335 -0.3009139001
vn 0.9990370274 -0.00173452741 -0.04384031892
vn 0 1 0
vn 0 1 0
f 1//1 2//2 3//3 
f 3//3 2//2 4//4 
f 4//4 2//2 5//5 
f 4//4 5//5 6//6 
f 6//6 5//5 7//7 
f 6//6 7//7 8//8 
f 8//8 7//7 9//9 
f 8//8 9//9 10//10 
f 10//10 9//9 11//11 
f 10//10 11//11 12//12 
f 12//12 11//11 13//13 
f 12//12 13//13 14//14 
f 14//14 13//13 15//15 
f 14//14 15//15 16//16 
f 16//16 15//15 17//17 
f 16//16 17//17 18//18 
f 18//18 17//17 19//19 
f 18//18 19//19 20//20 
f 20//20 19//19 21//21 
f 20//20 21//21 22//22 
f 22//22 21//21 23//23 
f 22//22 23//23 24//24 
f 24//24 23//23 25//25 
f 24//24 25//25 26//26 
f 26//26 25//25 27//27 
f 27//27 28//28 26//26 
f 26//26 28//28 29//29 
f 29//29 28//28 30//30 
f 29//29 30//30 31//31 
f 31//31 30//30 32//32 
f 31//31 32//32 33//33 
f 33//33 32//32 34//34 
f 33//33 34//34 35//35 
f 35//35 34//34 36//36 
f 35//35 36//36 37//37 
f 37//37 36//36 38//38 
f 37//37 38//38 39//39 
f 39//39 38//38 40//40 
f 39//39 40//40 41//41 
f 41//41 40//40 42//42 
f 41//41 42//42 43//43 
f 43//43 42//42 44//44 
f 43//43 44//44 45//45 
f 45//45 44//44 46//46 
f 45//45 46//46 47//47 
f 47//47 46//46 48//48 
f 47//47 48//48 49//49 
f 49//49 48//48 50//50 
f 49//49 50//50 3//3 
f 3//3 50//50 1//1 
f 51//51 26//26 52//52 
f 52//52 26//26 29//29 
f 52//52 29//29 53//53 
f 53//53 29//29 31//31 
f 53//53 31//31 54//54 
f 54//54 31//31 33//33 
f 54//54 33//33 55//55 
f 55//55 33//33 35//35 
f 55//55 35//35 56//56 
f 56//56 35//35 37//37 
f 56//56 37//37 57//57 
f 57//57 37//37 39//39 
f 57//57 39//39 58//58 
f 58//58 39//39 41//41 
f 58//58 41//41 59//59 
f 59//59 41//41 43//43 
f 59//59 43//43 60//60 
f 60//60 43//43 45//45 
f 60//60 45//45 61//61 
f 61//61 45//45 47//47 
f 61//61 47//47 62//62 
f 62//62 47//47 49//49 
f 62//62 49//49 63//63 
f 63//63 49//49 3//3 
f 52//52 62//62 51//51 
f 51//51 62//62 63//63 
f 51//51 63//63 64//64 
f 64//64 63//63 65//65 
f 64//64 65//65 66//66 
f 66//66 65//65 67//67 
f 66//66 67//67 68//68 
f 68//68 67//67 69//69 
f 68//68 69//69 70//70 
f 70//70 69//69 71//71 
f 70//70 71//71 72//72 
f 72//72 71//71 73//73 
f 72//72 73//73 74//74 
f 62//62 52//52 61//61 
f 61//61 52//52 53//53 
f 61//61 53//53 60//60 
f 60//60 53//53 54//54 
f 60//60 54//54 59//59 
f 59//59 54//54 55//55 
f 59//59 55//55 58//58 
f 58//58 55//55 56//56 
f 58//58 56//56 57//57 
f 1//1 50//50 75//75 
f 75//75 50//50 48//48 
f 75//75 48//48 46//46 
f 46//46 44//44 75//75 
f 75//75 44//44 42//42 
f 75//75 42//42 40//40 
f 40//40 38//38 75//75 
f 75//75 38//38 76//76 
f 75//75 76//76 13//13 
f 13//13 76//76 15//15 
f 15//15 76//76 17//17 
f 17//17 76//76 19//19 
f 19//19 76//76 21//21 
f 21//21 76//76 23//23 
f 23//23 76//76 25//25 
f 25//25 76//76 27//27 
f 38//38 36//36 76//76 
f 76//76 36//36 34//34 
f 76//76 34//34 32//32 
f 32//32 30//30 76//76 
f 76//76 30//30 28//28 
f 76//76 28//28 27//27 
f 13//13 11//11 75//75 
f 75//75 11//11 9//9 
f 75//75 9//9 7//7 
f 7//7 5//5 75//75 
f 75//75 5//5 2//2 
f 75//75 2//2 1//1 
f 63//63 3//3 65//65 
f 65//65 3//3 4//4 
f 65//65 4//4 67//67 
f 67//67 4//4 6//6 
f 67//67 6//6 69//69 
f 69//69 6//6 8//8 
f 69//69 8//8 71//71 
f 71//71 8//8 10//10 
f 71//71 10//10 73//73 
f 73//73 10//10 12//12 
f 73//73 12//12 74//74 
f 74//74 12//12 14//14 
f 74//74 14//14 72//72 
f 72//72 14//14 16//16 
f 72//72 16//16 70//70 
f 70//70 16//16 18//18 
f 70//70 18//18 68//68 
f 68//68 18//18 20//20 
f 68//68 20//20 66//66 
f 66//66 20//20 22//22 
f 66//66 22//22 64//64 
f 64//64 22//22 24//24 
f 64//64 24//24 51//51 
f 51//51 24//24 26//26 
