v 44.79985046 18.375 53.52665329
v 45.39813995 18.375 53.59929657
v 44.79985046 16.375 54.77665329
v 45.12337494 16.375 54.81924438
v 45.96165848 18.375 53.81301117
v 45.42485046 16.375 54.9441185
v 46.45765686 18.375 54.15537643
v 45.68373489 16.375 55.14276886
v 46.85731125 18.375 54.60649109
v 45.88238144 16.375 55.40165329
v 47.13739014 18.375 55.14014053
v 46.00725937 16.375 55.70312881
v 47.28162384 18.375 55.72531128
v 46.04985046 16.375 56.02665329
v 47.28162384 18.375 56.3279953
v 46.00725937 16.375 56.35017776
v 47.13739014 18.375 56.91316605
v 45.88238144 16.375 56.65165329
v 46.85731125 18.375 57.44681549
v 45.68373489 16.375 56.91053391
v 46.45765686 18.375 57.89793015
v 45.42485046 16.375 57.10918427
v 45.96165848 18.375 58.2402916
v 45.12337494 16.375 57.23405838
v 45.39813995 18.375 58.4540062
v 44.79985046 16.375 57.27665329
v 44.79985046 18.375 58.52665329
v 44.20156097 18.375 58.4540062
v 44.47632599 16.375 57.23405838
v 43.63804245 18.375 58.2402916
v 44.17485046 16.375 57.10918427
v 43.14204407 18.375 57.89793015
v 43.91596603 16.375 56.91053391
v 42.74239349 18.375 57.44681549
v 43.71731949 16.375 56.65165329
v 42.46231079 18.375 56.91316605
v 43.59244537 16.375 56.35017776
v 42.3180809 18.375 56.3279953
v 43.54985046 16.375 56.02665329
v 42.3180809 18.375 55.72531128
v 43.59244537 16.375 55.70312881
v 42.46231079 18.375 55.14014053
v 43.71731949 16.375 55.40165329
v 42.74239349 18.375 54.60649109
v 43.91596603 16.375 55.14276886
v 43.14204407 18.375 54.15537643
v 44.17485046 16.375 54.9441185
v 43.63804245 18.375 53.81301117
v 44.47632599 16.375 54.81924438
v 44.20156097 18.375 53.59929657
v 44.79985046 0 57.27665329
v 44.47632599 0 57.23405838
v 44.17485046 0 57.10918427
v 43.91596603 0 56.91053391
v 43.71731949 0 56.65165329
v 43.59244537 0 56.35017776
v 43.54985046 0 56.02665329
v 43.59244537 0 55.70312881
v 43.71731949 0 55.40165329
v 43.91596603 0 55.14276886
v 44.17485046 0 54.9441185
v 44.47632599 0 54.81924438
v 44.79985046 0 54.77665329
v 45.12337494 0 57.23405838
v 45.12337494 0 54.81924438
v 45.42485046 0 57.10918427
v 45.42485046 0 54.9441185
v 45.68373489 0 56.91053391
v 45.68373489 0 55.14276886
v 45.88238144 0 56.65165329
v 45.88238144 0 55.40165329
v 46.00725937 0 56.35017776
v 46.00725937 0 55.70312881
v 46.04985046 0 56.02665329
v 44.79985046 18.375 54.77665329
v 44.79985046 18.375 57.27665329
vn -2.319577392e-17 -4.639154784e-17 -1
vn 0.214717716 -0.1178991273 -0.9695339799
vn 0.03535163775 -0.1170141324 -0.9925008416
vn 0.3004444242 -0.08449086547 -0.9500496984
vn 0.4461602271 -0.07599577308 -0.8917206526
vn 0.5349920392 -0.08457145095 -0.840613544
vn 0.6517239809 -0.008549817838 -0.75840801
vn 0.733438611 -0.08463547379 -0.6744661927
vn 0.8141853213 0.08010138571 -0.5750530958
vn 0.8823958635 -0.08468215913 -0.4628244638
vn 0.9170783758 0.1822612584 -0.3546097875
vn 0.9718257189 -0.0847120434 -0.2199514955
vn 0.3903603256 0.9193967581 -0.04825327173
vn 0.995688796 -0.0847247839 0.03775552288
vn 0.9504887462 0.287692219 0.1174919307
vn 0.952375412 -0.08472045511 0.292922467
vn 0.9170783758 0.1822612584 0.3546097875
vn 0.8448081017 -0.08469932526 0.5283231139
vn 0.8141844273 0.08010226488 0.5750542283
vn 0.6802437901 -0.08466064185 0.7280803323
vn 0.6517225504 -0.008552061394 0.7584092617
vn 0.4697785974 -0.08460520208 0.8787207007
vn 0.4461581707 -0.07599794865 0.891721487
vn 0.2276165485 -0.08453255147 0.9700747132
vn 0.2147224396 -0.1179000288 0.9695327878
vn -0.03535480052 -0.1170142218 0.9925007224
vn 9.278309569e-17 -9.278309569e-17 1
vn -0.2147224396 -0.1179000288 0.9695327878
vn -0.3004478812 -0.08449082822 0.9500486255
vn -0.4461581707 -0.07599794865 0.891721487
vn -0.5349918008 -0.0845714137 0.8406137228
vn -0.6517237425 -0.008551619016 0.7584081888
vn -0.7334355116 -0.0846356228 0.6744695306
vn -0.8141844273 0.08010226488 0.5750542283
vn -0.8823977709 -0.08468245715 0.4628207088
vn -0.9170791507 0.1822613925 0.3546076417
vn -0.9718250632 -0.08471193165 0.2199543267
vn -0.390360713 0.9193966389 0.04825331643
vn -0.9956887364 -0.08472464234 -0.03775889799
vn -0.950488627 0.2876926064 -0.1174919158
vn -0.9523764253 -0.08472049981 -0.2929189801
vn -0.9170791507 0.1822613925 -0.3546076417
vn -0.8448116779 -0.0846991092 -0.5283174515
vn -0.8141853213 0.08010138571 -0.5750530958
vn -0.6802459955 -0.08466025442 -0.7280783057
vn -0.6517252326 -0.00854937546 -0.7584069967
vn -0.4697788954 -0.08460524678 -0.8787205219
vn -0.4461602271 -0.07599577308 -0.8917206526
vn -0.2276097387 -0.08453263342 -0.9700763226
vn -0.214717716 -0.1178991273 -0.9695339799
vn 0.0433540009 -0.1491068453 0.9878702164
vn -0.2142553627 -0.1346632838 0.9674504995
vn -0.4590256512 -0.1044557244 0.8822609782
vn -0.6739403009 -0.06630383432 0.7358044982
vn -0.8428801298 -0.03048571013 0.5372371078
vn -0.953627944 -0.006811383646 0.3009108901
vn -0.9990369081 -0.001732473727 0.04384406656
vn -0.9762087464 -0.01662117802 -0.2161950022
vn -0.8861166835 -0.04744111747 -0.4610277712
vn -0.7347143292 -0.08575737476 -0.6729342341
vn -0.533531487 -0.1211262643 -0.837061882
vn -0.2977697253 -0.1441911161 -0.9436854124
vn -0.04335012659 -0.1491068751 -0.9878703952
vn 0.297773242 -0.1441909522 0.9436842799
vn 0.214247942 -0.1346635073 -0.9674521089
vn 0.533531487 -0.1211262643 0.837061882
vn 0.4590256512 -0.1044557244 -0.8822609782
vn 0.734710753 -0.0857578665 0.6729381084
vn 0.6739423871 -0.06630366296 -0.7358025908
vn 0.8861126304 -0.04744140804 0.4610355496
vn 0.8428806067 -0.03048589826 -0.5372363329
vn 0.9762095213 -0.0166214928 0.2161912471
vn 0.9536268115 -0.006811375264 -0.3009144664
vn 0.9990370274 -0.001732318895 -0.04384014755
vn 0 1 0
vn 0 1 0
f 1//1 2//2 3//3 
f 3//3 2//2 4//4 
f 4//4 2//2 5//5 
f 4//4 5//5 6//6 
f 6//6 5//5 7//7 
f 6//6 7//7 8//8 
f 8//8 7//7 9//9 
f 8//8 9//9 10//10 
f 10//10 9//9 11//11 
f 10//10 11//11 12//12 
f 12//12 11//11 13//13 
f 12//12 13//13 14//14 
f 14//14 13//13 15//15 
f 14//14 15//15 16//16 
f 16//16 15//15 17//17 
f 16//16 17//17 18//18 
f 18//18 17//17 19//19 
f 18//18 19//19 20//20 
f 20//20 19//19 21//21 
f 20//20 21//21 22//22 
f 22//22 21//21 23//23 
f 22//22 23//23 24//24 
f 24//24 23//23 25//25 
f 24//24 25//25 26//26 
f 26//26 25//25 27//27 
f 27//27 28//28 26//26 
f 26//26 28//28 29//29 
f 29//29 28//28 30//30 
f 29//29 30//30 31//31 
f 31//31 30//30 32//32 
f 31//31 32//32 33//33 
f 33//33 32//32 34//34 
f 33//33 34//34 35//35 
f 35//35 34//34 36//36 
f 35//35 36//36 37//37 
f 37//37 36//36 38//38 
f 37//37 38//38 39//39 
f 39//39 38//38 40//40 
f 39//39 40//40 41//41 
f 41//41 40//40 42//42 
f 41//41 42//42 43//43 
f 43//43 42//42 44//44 
f 43//43 44//44 45//45 
f 45//45 44//44 46//46 
f 45//45 46//46 47//47 
f 47//47 46//46 48//48 
f 47//47 48//48 49//49 
f 49//49 48//48 50//50 
f 49//49 50//50 3//3 
f 3//3 50//50 1//1 
f 51//51 26//26 52//52 
f 52//52 26//26 29//29 
f 52//52 29//29 53//53 
f 53//53 29//29 31//31 
f 53//53 31//31 54//54 
f 54//54 31//31 33//33 
f 54//54 33//33 55//55 
f 55//55 33//33 35//35 
f 55//55 35//35 56//56 
f 56//56 35//35 37//37 
f 56//56 37//37 57//57 
f 57//57 37//37 39//39 
f 57//57 39//39 58//58 
f 58//58 39//39 41//41 
f 58//58 41//41 59//59 
f 59//59 41//41 43//43 
f 59//59 43//43 60//60 
f 60//60 43//43 45//45 
f 60//60 45//45 61//61 
f 61//61 45//45 47//47 
f 61//61 47//47 62//62 
f 62//62 47//47 49//49 
f 62//62 49//49 63//63 
f 63//63 49//49 3//3 
f 52//52 62//62 51//51 
f 51//51 62//62 63//63 
f 51//51 63//63 64//64 
f 64//64 63//63 65//65 
f 64//64 65//65 66//66 
f 66//66 65//65 67//67 
f 66//66 67//67 68//68 
f 68//68 67//67 69//69 
f 68//68 69//69 70//70 
f 70//70 69//69 71//71 
f 70//70 71//71 72//72 
f 72//72 71//71 73//73 
f 72//72 73//73 74//74 
f 62//62 52//52 61//61 
f 61//61 52//52 53//53 
f 61//61 53//53 60//60 
f 60//60 53//53 54//54 
f 60//60 54//54 59//59 
f 59//59 54//54 55//55 
f 59//59 55//55 58//58 
f 58//58 55//55 56//56 
f 58//58 56//56 57//57 
f 1//1 50//50 75//75 
f 75//75 50//50 48//48 
f 75//75 48//48 46//46 
f 46//46 44//44 75//75 
f 75//75 44//44 42//42 
f 75//75 42//42 40//40 
f 40//40 38//38 75//75 
f 75//75 38//38 76//76 
f 75//75 76//76 13//13 
f 13//13 76//76 15//15 
f 15//15 76//76 17//17 
f 17//17 76//76 19//19 
f 19//19 76//76 21//21 
f 21//21 76//76 23//23 
f 23//23 76//76 25//25 
f 25//25 76//76 27//27 
f 38//38 36//36 76//76 
f 76//76 36//36 34//34 
f 76//76 34//34 32//32 
f 32//32 30//30 76//76 
f 76//76 30//30 28//28 
f 76//76 28//28 27//27 
f 13//13 11//11 75//75 
f 75//75 11//11 9//9 
f 75//75 9//9 7//7 
f 7//7 5//5 75//75 
f 75//75 5//5 2//2 
f 75//75 2//2 1//1 
f 63//63 3//3 65//65 
f 65//65 3//3 4//4 
f 65//65 4//4 67//67 
f 67//67 4//4 6//6 
f 67//67 6//6 69//69 
f 69//69 6//6 8//8 
f 69//69 8//8 71//71 
f 71//71 8//8 10//10 
f 71//71 10//10 73//73 
f 73//73 10//10 12//12 
f 73//73 12//12 74//74 
f 74//74 12//12 14//14 
f 74//74 14//14 72//72 
f 72//72 14//14 16//16 
f 72//72 16//16 70//70 
f 70//70 16//16 18//18 
f 70//70 18//18 68//68 
f 68//68 18//18 20//20 
f 68//68 20//20 66//66 
f 66//66 20//20 22//22 
f 66//66 22//22 64//64 
f 64//64 22//22 24//24 
f 64//64 24//24 51//51 
f 51//51 24//24 26//26 
