v 14.79985142 18.66666603 25.27665138
v 15.45796967 18.66666603 25.35656166
v 14.79985142 16.66666603 26.65165138
v 15.15572739 16.66666603 26.69850349
v 16.07784081 18.66666603 25.5916481
v 15.48735142 16.66666603 26.83586693
v 16.62343788 18.66666603 25.96824837
v 15.77212334 16.66666603 27.05438042
v 17.06305695 18.66666603 26.46447372
v 15.99063587 16.66666603 27.33915138
v 17.37114525 18.66666603 27.05148888
v 16.12799835 16.66666603 27.67077637
v 17.52980042 18.66666603 27.69517708
v 16.17485046 16.66666603 28.02665138
v 17.52980042 18.66666603 28.35812759
v 16.12799835 16.66666603 28.38252831
v 17.37114525 18.66666603 29.0018158
v 15.99063587 16.66666603 28.71415138
v 17.06305695 18.66666603 29.58883095
v 15.77212334 16.66666603 28.99892426
v 16.62343788 18.66666603 30.0850563
v 15.48735142 16.66666603 29.21743774
v 16.07784081 18.66666603 30.46165657
v 15.15572739 16.66666603 29.35479927
v 15.45796967 18.66666603 30.6967411
v 14.79985142 16.66666603 29.40165138
v 14.79985142 18.66666603 30.77665138
v 14.14173317 18.66666603 30.6967411
v 14.44397545 16.66666603 29.35479927
v 13.52186298 18.66666603 30.46165657
v 14.11235142 16.66666603 29.21743774
v 12.976264 18.66666603 30.0850563
v 13.8275795 16.66666603 28.99892426
v 12.53664589 18.66666603 29.58883095
v 13.60906601 16.66666603 28.71415138
v 12.22855663 18.66666603 29.0018158
v 13.47170353 16.66666603 28.38252831
v 12.06990147 18.66666603 28.35812759
v 13.42485142 16.66666603 28.02665138
v 12.06990147 18.66666603 27.69517708
v 13.47170353 16.66666603 27.67077637
v 12.22855663 18.66666603 27.05148888
v 13.60906601 16.66666603 27.33915138
v 12.53664589 18.66666603 26.46447372
v 13.8275795 16.66666603 27.05438042
v 12.976264 18.66666603 25.96824837
v 14.11235142 16.66666603 26.83586693
v 13.52186298 18.66666603 25.5916481
v 14.44397545 16.66666603 26.69850349
v 14.14173317 18.66666603 25.35656166
v 14.79985142 0 29.40165138
v 14.44397545 0 29.35479927
v 14.11235142 0 29.21743774
v 13.8275795 0 28.99892426
v 13.60906601 0 28.71415138
v 13.47170353 0 28.38252831
v 13.42485142 0 28.02665138
v 13.47170353 0 27.67077637
v 13.60906601 0 27.33915138
v 13.8275795 0 27.05438042
v 14.11235142 0 26.83586693
v 14.44397545 0 26.69850349
v 14.79985142 0 26.65165138
v 15.15572739 0 29.35479927
v 15.15572739 0 26.69850349
v 15.48735142 0 29.21743774
v 15.48735142 0 26.83586693
v 15.77212334 0 28.99892426
v 15.77212334 0 27.05438042
v 15.99063587 0 28.71415138
v 15.99063587 0 27.33915138
v 16.12799835 0 28.38252831
v 16.12799835 0 27.67077637
v 16.17485046 0 28.02665138
v 14.79985142 18.66666603 26.65165138
v 14.79985142 18.66666603 29.40165138
vn 8.434829528e-17 8.434829528e-17 -1
vn 0.2144078612 -0.1295002252 -0.9681213498
vn 0.03542730212 -0.1267284304 -0.9913045764
vn 0.3002535999 -0.09147401154 -0.949463129
vn 0.445890069 -0.08354669064 -0.8911800981
vn 0.534668088 -0.0915613994 -0.840087235
vn 0.6517183781 -0.009405410849 -0.7584027052
vn 0.7330004573 -0.09163061529 -0.6740282774
vn 0.8136363626 0.08805220574 -0.5746674538
vn 0.8818724751 -0.09168119729 -0.4624883533
vn 0.9138972759 0.1997912526 -0.353376925
vn 0.9712362885 -0.09171356261 -0.2197468281
vn 0.3597349524 0.931994319 -0.04446769506
vn 0.9950655699 -0.09172707051 0.03782344982
vn 0.9423347712 0.3137460351 0.116484113
vn 0.9517514706 -0.09172253311 0.2928414047
vn 0.9138969183 0.1997922063 0.353377223
vn 0.8442161083 -0.09169919044 0.5281007886
vn 0.8136367798 0.08805164695 0.5746669173
vn 0.6797122359 -0.09165741503 0.7277294993
vn 0.6517183781 -0.009404850192 0.7584027052
vn 0.4693362415 -0.09159730375 0.8782559037
vn 0.4458882809 -0.08354634047 0.8911810517
vn 0.2272876501 -0.09151872247 0.9695177674
vn 0.2144067734 -0.1295004487 0.9681215882
vn -0.03542730212 -0.1267284304 0.9913045764
vn -8.434829528e-17 8.434829528e-17 1
vn -0.2144068927 -0.1295005083 0.9681215286
vn -0.3002505004 -0.09147396684 0.9494641423
vn -0.4458880424 -0.08354634792 0.8911811709
vn -0.5346667767 -0.09156151861 0.8400880098
vn -0.65171808 -0.009404898621 0.7584029436
vn -0.7330012321 -0.09163042903 0.6740275025
vn -0.8136365414 0.08805153519 0.5746673346
vn -0.8818717599 -0.09168135375 0.462489754
vn -0.9138967395 0.1997923106 0.3533776999
vn -0.9712364078 -0.09171343595 0.2197465003
vn -0.3597352803 0.9319941998 0.04446768016
vn -0.9950655699 -0.09172721207 -0.0378235057
vn -0.9423343539 0.3137472868 -0.116484195
vn -0.9517516494 -0.0917223841 -0.2928409576
vn -0.9138970375 0.1997913569 -0.3533774018
vn -0.8442149162 -0.09169922769 -0.5281026959
vn -0.8136361241 0.08805209398 -0.5746678114
vn -0.6797109246 -0.09165736288 -0.7277306914
vn -0.65171808 -0.009405459277 -0.7584029436
vn -0.4693387151 -0.09159730375 -0.8782545924
vn -0.4458898604 -0.08354670554 -0.8911802173
vn -0.227289483 -0.09151870757 -0.9695172906
vn -0.2144079804 -0.1295002699 -0.9681213498
vn 0.04327125847 -0.1608471125 0.9860303402
vn -0.2139258385 -0.1453164965 0.9659807682
vn -0.4586037099 -0.1127870753 0.881454289
vn -0.6736915112 -0.07163176686 0.7355328798
vn -0.8428142667 -0.03294482455 0.5371952653
vn -0.9536243081 -0.007361302152 0.3009094
vn -0.9990367293 -0.001872277586 0.0438419953
vn -0.9761866927 -0.01796296798 -0.2161871195
vn -0.8859479427 -0.05126265064 -0.4609429538
vn -0.7342566848 -0.0926252827 -0.6725233793
vn -0.532874167 -0.1307464689 -0.8360325694
vn -0.2972555459 -0.1555625796 -0.9420400262
vn -0.04327125847 -0.1608471125 -0.9860303402
vn 0.2972523272 -0.1555627435 0.9420410395
vn 0.2139275223 -0.1453164369 -0.9659804106
vn 0.5328729153 -0.130746603 0.8360333443
vn 0.4586065114 -0.1127868891 -0.8814528584
vn 0.7342592478 -0.09262505174 0.6725206375
vn 0.6736909747 -0.0716317296 -0.7355333567
vn 0.8859478831 -0.05126257613 0.4609429836
vn 0.8428145647 -0.032944832 -0.5371947885
vn 0.9761867523 -0.01796293631 0.216186747
vn 0.9536244869 -0.007361289579 -0.3009088933
vn 0.9990367293 -0.001872280962 -0.04384207353
vn 0 1 0
vn 0 1 0
f 1//1 2//2 3//3 
f 3//3 2//2 4//4 
f 4//4 2//2 5//5 
f 4//4 5//5 6//6 
f 6//6 5//5 7//7 
f 6//6 7//7 8//8 
f 8//8 7//7 9//9 
f 8//8 9//9 10//10 
f 10//10 9//9 11//11 
f 10//10 11//11 12//12 
f 12//12 11//11 13//13 
f 12//12 13//13 14//14 
f 14//14 13//13 15//15 
f 14//14 15//15 16//16 
f 16//16 15//15 17//17 
f 16//16 17//17 18//18 
f 18//18 17//17 19//19 
f 18//18 19//19 20//20 
f 20//20 19//19 21//21 
f 20//20 21//21 22//22 
f 22//22 21//21 23//23 
f 22//22 23//23 24//24 
f 24//24 23//23 25//25 
f 24//24 25//25 26//26 
f 26//26 25//25 27//27 
f 27//27 28//28 26//26 
f 26//26 28//28 29//29 
f 29//29 28//28 30//30 
f 29//29 30//30 31//31 
f 31//31 30//30 32//32 
f 31//31 32//32 33//33 
f 33//33 32//32 34//34 
f 33//33 34//34 35//35 
f 35//35 34//34 36//36 
f 35//35 36//36 37//37 
f 37//37 36//36 38//38 
f 37//37 38//38 39//39 
f 39//39 38//38 40//40 
f 39//39 40//40 41//41 
f 41//41 40//40 42//42 
f 41//41 42//42 43//43 
f 43//43 42//42 44//44 
f 43//43 44//44 45//45 
f 45//45 44//44 46//46 
f 45//45 46//46 47//47 
f 47//47 46//46 48//48 
f 47//47 48//48 49//49 
f 49//49 48//48 50//50 
f 49//49 50//50 3//3 
f 3//3 50//50 1//1 
f 51//51 26//26 52//52 
f 52//52 26//26 29//29 
f 52//52 29//29 53//53 
f 53//53 29//29 31//31 
f 53//53 31//31 54//54 
f 54//54 31//31 33//33 
f 54//54 33//33 55//55 
f 55//55 33//33 35//35 
f 55//55 35//35 56//56 
f 56//56 35//35 37//37 
f 56//56 37//37 57//57 
f 57//57 37//37 39//39 
f 57//57 39//39 58//58 
f 58//58 39//39 41//41 
f 58//58 41//41 59//59 
f 59//59 41//41 43//43 
f 59//59 43//43 60//60 
f 60//60 43//43 45//45 
f 60//60 45//45 61//61 
f 61//61 45//45 47//47 
f 61//61 47//47 62//62 
f 62//62 47//47 49//49 
f 62//62 49//49 63//63 
f 63//63 49//49 3//3 
f 52//52 62//62 51//51 
f 51//51 62//62 63//63 
f 51//51 63//63 64//64 
f 64//64 63//63 65//65 
f 64//64 65//65 66//66 
f 66//66 65//65 67//67 
f 66//66 67//67 68//68 
f 68//68 67//67 69//69 
f 68//68 69//69 70//70 
f 70//70 69//69 71//71 
f 70//70 71//71 72//72 
f 72//72 71//71 73//73 
f 72//72 73//73 74//74 
f 62//62 52//52 61//61 
f 61//61 52//52 53//53 
f 61//61 53//53 60//60 
f 60//60 53//53 54//54 
f 60//60 54//54 59//59 
f 59//59 54//54 55//55 
f 59//59 55//55 58//58 
f 58//58 55//55 56//56 
f 58//58 56//56 57//57 
f 1//1 50//50 75//75 
f 75//75 50//50 48//48 
f 75//75 48//48 46//46 
f 46//46 44//44 75//75 
f 75//75 44//44 42//42 
f 75//75 42//42 40//40 
f 40//40 38//38 75//75 
f 75//75 38//38 76//76 
f 75//75 76//76 13//13 
f 13//13 76//76 15//15 
f 15//15 76//76 17//17 
f 17//17 76//76 19//19 
f 19//19 76//76 21//21 
f 21//21 76//76 23//23 
f 23//23 76//76 25//25 
f 25//25 76//76 27//27 
f 38//38 36//36 76//76 
f 76//76 36//36 34//34 
f 76//76 34//34 32//32 
f 32//32 30//30 76//76 
f 76//76 30//30 28//28 
f 76//76 28//28 27//27 
f 13//13 11//11 75//75 
f 75//75 11//11 9//9 
f 75//75 9//9 7//7 
f 7//7 5//5 75//75 
f 75//75 5//5 2//2 
f 75//75 2//2 1//1 
f 63//63 3//3 65//65 
f 65//65 3//3 4//4 
f 65//65 4//4 67//67 
f 67//67 4//4 6//6 
f 67//67 6//6 69//69 
f 69//69 6//6 8//8 
f 69//69 8//8 71//71 
f 71//71 8//8 10//10 
f 71//71 10//10 73//73 
f 73//73 10//10 12//12 
f 73//73 12//12 74//74 
f 74//74 12//12 14//14 
f 74//74 14//14 72//72 
f 72//72 14//14 16//16 
f 72//72 16//16 70//70 
f 70//70 16//16 18//18 
f 70//70 18//18 68//68 
f 68//68 18//18 20//20 
f 68//68 20//20 66//66 
f 66//66 20//20 22//22 
f 66//66 22//22 64//64 
f 64//64 22//22 24//24 
f 64//64 24//24 51//51 
f 51//51 24//24 26//26 
