v 44.79985046 18.66666603 -58.47334671
v 45.39813995 18.66666603 -58.40070343
v 44.79985046 16.66666603 -57.22334671
v 45.12337494 16.66666603 -57.18075562
v 45.96165848 18.66666603 -58.18698883
v 45.42485046 16.66666603 -57.0558815
v 46.45765686 18.66666603 -57.84462357
v 45.68373489 16.66666603 -56.85723114
v 46.85731125 18.66666603 -57.39350891
v 45.88238144 16.66666603 -56.59834671
v 47.13739014 18.66666603 -56.85985947
v 46.00725937 16.66666603 -56.29687119
v 47.28162384 18.66666603 -56.27468872
v 46.04985046 16.66666603 -55.97334671
v 47.28162384 18.66666603 -55.6720047
v 46.00725937 16.66666603 -55.64982224
v 47.13739014 18.66666603 -55.08683395
v 45.88238144 16.66666603 -55.34834671
v 46.85731125 18.66666603 -54.55318451
v 45.68373489 16.66666603 -55.08946609
v 46.45765686 18.66666603 -54.10206985
v 45.42485046 16.66666603 -54.89081573
v 45.96165848 18.66666603 -53.7597084
v 45.12337494 16.66666603 -54.76594162
v 45.39813995 18.66666603 -53.5459938
v 44.79985046 16.66666603 -54.72334671
v 44.79985046 18.66666603 -53.47334671
v 44.20156097 18.66666603 -53.5459938
v 44.47632599 16.66666603 -54.76594162
v 43.63804245 18.66666603 -53.7597084
v 44.17485046 16.66666603 -54.89081573
v 43.14204407 18.66666603 -54.10206985
v 43.91596603 16.66666603 -55.08946609
v 42.74239349 18.66666603 -54.55318451
v 43.71731949 16.66666603 -55.34834671
v 42.46231079 18.66666603 -55.08683395
v 43.59244537 16.66666603 -55.64982224
v 42.3180809 18.66666603 -55.6720047
v 43.54985046 16.66666603 -55.97334671
v 42.3180809 18.66666603 -56.27468872
v 43.59244537 16.66666603 -56.29687119
v 42.46231079 18.66666603 -56.85985947
v 43.71731949 16.66666603 -56.59834671
v 42.74239349 18.66666603 -57.39350891
v 43.91596603 16.66666603 -56.85723114
v 43.14204407 18.66666603 -57.84462357
v 44.17485046 16.66666603 -57.0558815
v 43.63804245 18.66666603 -58.18698883
v 44.47632599 16.66666603 -57.18075562
v 44.20156097 18.66666603 -58.40070343
v 44.79985046 0.1666666716 -54.72334671
v 44.47632599 0.1666666716 -54.76594162
v 44.17485046 0.1666666716 -54.89081573
v 43.91596603 0.1666666716 -55.08946609
v 43.71731949 0.1666666716 -55.34834671
v 43.59244537 0.1666666716 -55.64982224
v 43.54985046 0.1666666716 -55.97334671
v 43.59244537 0.1666666716 -56.29687119
v 43.71731949 0.1666666716 -56.59834671
v 43.91596603 0.1666666716 -56.85723114
v 44.17485046 0.1666666716 -57.0558815
v 44.47632599 0.1666666716 -57.18075562
v 44.79985046 0.1666666716 -57.22334671
v 45.12337494 0.1666666716 -54.76594162
v 45.12337494 0.1666666716 -57.18075562
v 45.42485046 0.1666666716 -54.89081573
v 45.42485046 0.1666666716 -57.0558815
v 45.68373489 0.1666666716 -55.08946609
v 45.68373489 0.1666666716 -56.85723114
v 45.88238144 0.1666666716 -55.34834671
v 45.88238144 0.1666666716 -56.59834671
v 46.00725937 0.1666666716 -55.64982224
v 46.00725937 0.1666666716 -56.29687119
v 46.04985046 0.1666666716 -55.97334671
v 44.79985046 18.66666603 -57.22334671
v 44.79985046 18.66666603 -54.72334671
vn -2.319577392e-17 -4.639154784e-17 -1
vn 0.214717716 -0.1178991273 -0.9695339799
vn 0.03540505469 -0.1163031384 -0.9925825
vn 0.3004544675 -0.08394094557 -0.9500952959
vn 0.4461602271 -0.07599577308 -0.8917206526
vn 0.5350208282 -0.08402104676 -0.8406504393
vn 0.6517239809 -0.008549817838 -0.75840801
vn 0.7334817648 -0.08408468217 -0.6744881272
vn 0.8141853213 0.08010138571 -0.5750530958
vn 0.8824472427 -0.08413107693 -0.4628269672
vn 0.9170783758 0.1822612584 -0.3546097875
vn 0.9718779325 -0.0841607675 -0.219932273
vn 0.3903603256 0.9193967581 -0.04825327173
vn 0.995734036 -0.08417341113 0.03779614717
vn 0.9504887462 0.287692219 0.1174919307
vn 0.9524061084 -0.08416908234 0.2929815948
vn 0.9170783758 0.1822612584 0.3546097875
vn 0.8448179364 -0.0841480419 0.5283954144
vn 0.8141844273 0.08010226488 0.5750542283
vn 0.6802283525 -0.0841095522 0.7281585932
vn 0.6517225504 -0.008552061394 0.7584092617
vn 0.4697359502 -0.08405440301 0.878796339
vn 0.4461581707 -0.07599794865 0.891721487
vn 0.2275475115 -0.08398213983 0.9701387286
vn 0.2147224396 -0.1179000288 0.9695327878
vn -0.03540822119 -0.1163032353 0.9925823808
vn 9.278309569e-17 -9.278309569e-17 1
vn -0.2147224396 -0.1179000288 0.9695327878
vn -0.3004579246 -0.08394090831 0.9500941634
vn -0.4461581707 -0.07599794865 0.891721487
vn -0.5350205302 -0.0840210095 0.8406506181
vn -0.6517237425 -0.008551619016 0.7584081888
vn -0.7334786654 -0.08408483118 0.6744914651
vn -0.8141844273 0.08010226488 0.5750542283
vn -0.8824492097 -0.08413137496 0.4628232121
vn -0.9170791507 0.1822613925 0.3546076417
vn -0.9718773365 -0.08416065574 0.2199351192
vn -0.390360713 0.9193966389 0.04825331643
vn -0.9957339168 -0.08417326212 -0.03779952973
vn -0.950488627 0.2876926064 -0.1174919158
vn -0.9524071217 -0.0841691196 -0.2929781079
vn -0.9170791507 0.1822613925 -0.3546076417
vn -0.8448215127 -0.08414782584 -0.5283897519
vn -0.8141853213 0.08010138571 -0.5750530958
vn -0.6802306175 -0.08410917222 -0.7281565666
vn -0.6517252326 -0.00854937546 -0.7584069967
vn -0.4697362781 -0.08405444026 -0.8787961602
vn -0.4461602271 -0.07599577308 -0.8917206526
vn -0.2275406867 -0.08398222178 -0.9701403379
vn -0.214717716 -0.1178991273 -0.9695339799
vn 0.04336128011 -0.1480020881 0.9880360365
vn -0.2142846882 -0.1336614043 0.9675829411
vn -0.4590634406 -0.1036729366 0.8823336363
vn -0.6739626527 -0.06580372155 0.7358289361
vn -0.8428860307 -0.03025497124 0.5372408628
vn -0.953628242 -0.00675978465 0.3009110093
vn -0.9990369081 -0.001719349064 0.04384406656
vn -0.976210773 -0.01649529673 -0.2161954492
vn -0.8861317039 -0.0470825173 -0.4610355794
vn -0.7347550988 -0.0851124227 -0.6729716063
vn -0.5335905552 -0.1202219576 -0.8371545672
vn -0.2978164554 -0.1431212276 -0.9438335299
vn -0.04335740209 -0.1480021179 -0.9880362153
vn 0.2978200018 -0.1431210637 0.9438323975
vn 0.2142772675 -0.1336616278 -0.9675845504
vn 0.5335905552 -0.1202219576 0.8371545672
vn 0.4590634406 -0.1036729366 -0.8823336363
vn 0.7347515225 -0.08511291444 0.6729754806
vn 0.6739647985 -0.06580354273 -0.7358269691
vn 0.8861276507 -0.04708280414 0.4610433578
vn 0.8428865671 -0.0302551575 -0.537240088
vn 0.9762115479 -0.01649560779 0.216191709
vn 0.9536271691 -0.006759776734 -0.3009145856
vn 0.999037087 -0.001719195396 -0.04384014755
vn 0 1 0
vn 0 1 0
f 1//1 2//2 3//3 
f 3//3 2//2 4//4 
f 4//4 2//2 5//5 
f 4//4 5//5 6//6 
f 6//6 5//5 7//7 
f 6//6 7//7 8//8 
f 8//8 7//7 9//9 
f 8//8 9//9 10//10 
f 10//10 9//9 11//11 
f 10//10 11//11 12//12 
f 12//12 11//11 13//13 
f 12//12 13//13 14//14 
f 14//14 13//13 15//15 
f 14//14 15//15 16//16 
f 16//16 15//15 17//17 
f 16//16 17//17 18//18 
f 18//18 17//17 19//19 
f 18//18 19//19 20//20 
f 20//20 19//19 21//21 
f 20//20 21//21 22//22 
f 22//22 21//21 23//23 
f 22//22 23//23 24//24 
f 24//24 23//23 25//25 
f 24//24 25//25 26//26 
f 26//26 25//25 27//27 
f 27//27 28//28 26//26 
f 26//26 28//28 29//29 
f 29//29 28//28 30//30 
f 29//29 30//30 31//31 
f 31//31 30//30 32//32 
f 31//31 32//32 33//33 
f 33//33 32//32 34//34 
f 33//33 34//34 35//35 
f 35//35 34//34 36//36 
f 35//35 36//36 37//37 
f 37//37 36//36 38//38 
f 37//37 38//38 39//39 
f 39//39 38//38 40//40 
f 39//39 40//40 41//41 
f 41//41 40//40 42//42 
f 41//41 42//42 43//43 
f 43//43 42//42 44//44 
f 43//43 44//44 45//45 
f 45//45 44//44 46//46 
f 45//45 46//46 47//47 
f 47//47 46//46 48//48 
f 47//47 48//48 49//49 
f 49//49 48//48 50//50 
f 49//49 50//50 3//3 
f 3//3 50//50 1//1 
f 51//51 26//26 52//52 
f 52//52 26//26 29//29 
f 52//52 29//29 53//53 
f 53//53 29//29 31//31 
f 53//53 31//31 54//54 
f 54//54 31//31 33//33 
f 54//54 33//33 55//55 
f 55//55 33//33 35//35 
f 55//55 35//35 56//56 
f 56//56 35//35 37//37 
f 56//56 37//37 57//57 
f 57//57 37//37 39//39 
f 57//57 39//39 58//58 
f 58//58 39//39 41//41 
f 58//58 41//41 59//59 
f 59//59 41//41 43//43 
f 59//59 43//43 60//60 
f 60//60 43//43 45//45 
f 60//60 45//45 61//61 
f 61//61 45//45 47//47 
f 61//61 47//47 62//62 
f 62//62 47//47 49//49 
f 62//62 49//49 63//63 
f 63//63 49//49 3//3 
f 52//52 62//62 51//51 
f 51//51 62//62 63//63 
f 51//51 63//63 64//64 
f 64//64 63//63 65//65 
f 64//64 65//65 66//66 
f 66//66 65//65 67//67 
f 66//66 67//67 68//68 
f 68//68 67//67 69//69 
f 68//68 69//69 70//70 
f 70//70 69//69 71//71 
f 70//70 71//71 72//72 
f 72//72 71//71 73//73 
f 72//72 73//73 74//74 
f 62//62 52//52 61//61 
f 61//61 52//52 53//53 
f 61//61 53//53 60//60 
f 60//60 53//53 54//54 
f 60//60 54//54 59//59 
f 59//59 54//54 55//55 
f 59//59 55//55 58//58 
f 58//58 55//55 56//56 
f 58//58 56//56 57//57 
f 1//1 50//50 75//75 
f 75//75 50//50 48//48 
f 75//75 48//48 46//46 
f 46//46 44//44 75//75 
f 75//75 44//44 42//42 
f 75//75 42//42 40//40 
f 40//40 38//38 75//75 
f 75//75 38//38 76//76 
f 75//75 76//76 13//13 
f 13//13 76//76 15//15 
f 15//15 76//76 17//17 
f 17//17 76//76 19//19 
f 19//19 76//76 21//21 
f 21//21 76//76 23//23 
f 23//23 76//76 25//25 
f 25//25 76//76 27//27 
f 38//38 36//36 76//76 
f 76//76 36//36 34//34 
f 76//76 34//34 32//32 
f 32//32 30//30 76//76 
f 76//76 30//30 28//28 
f 76//76 28//28 27//27 
f 13//13 11//11 75//75 
f 75//75 11//11 9//9 
f 75//75 9//9 7//7 
f 7//7 5//5 75//75 
f 75//75 5//5 2//2 
f 75//75 2//2 1//1 
f 63//63 3//3 65//65 
f 65//65 3//3 4//4 
f 65//65 4//4 67//67 
f 67//67 4//4 6//6 
f 67//67 6//6 69//69 
f 69//69 6//6 8//8 
f 69//69 8//8 71//71 
f 71//71 8//8 10//10 
f 71//71 10//10 73//73 
f 73//73 10//10 12//12 
f 73//73 12//12 74//74 
f 74//74 12//12 14//14 
f 74//74 14//14 72//72 
f 72//72 14//14 16//16 
f 72//72 16//16 70//70 
f 70//70 16//16 18//18 
f 70//70 18//18 68//68 
f 68//68 18//18 20//20 
f 68//68 20//20 66//66 
f 66//66 20//20 22//22 
f 66//66 22//22 64//64 
f 64//64 22//22 24//24 
f 64//64 24//24 51//51 
f 51//51 24//24 26//26 
