v 14.79985142 18.66666603 -2.723347902
v 15.45796967 18.66666603 -2.643437862
v 14.79985142 16.66666603 -1.348347902
v 15.15572739 16.66666603 -1.30149591
v 16.07784081 18.66666603 -2.408352137
v 15.48735142 16.66666603 -1.164132833
v 16.62343788 18.66666603 -2.031752586
v 15.77212334 16.66666603 -0.9456197619
v 17.06305695 18.66666603 -1.535526037
v 15.99063587 16.66666603 -0.6608479619
v 17.37114525 18.66666603 -0.9485113621
v 16.12799835 16.66666603 -0.3292241395
v 17.52980042 18.66666603 -0.3048238158
v 16.17485046 16.66666603 0.026652053
v 17.52980042 18.66666603 0.3581279218
v 16.12799835 16.66666603 0.3825282454
v 17.37114525 18.66666603 1.001815438
v 15.99063587 16.66666603 0.7141520381
v 17.06305695 18.66666603 1.588830113
v 15.77212334 16.66666603 0.9989238977
v 16.62343788 18.66666603 2.085056543
v 15.48735142 16.66666603 1.217437029
v 16.07784081 18.66666603 2.461656094
v 15.15572739 16.66666603 1.354800105
v 15.45796967 18.66666603 2.696742058
v 14.79985142 16.66666603 1.401652098
v 14.79985142 18.66666603 2.776652098
v 14.14173317 18.66666603 2.696742058
v 14.44397545 16.66666603 1.354800105
v 13.52186298 18.66666603 2.461656094
v 14.11235142 16.66666603 1.217437029
v 12.976264 18.66666603 2.085056543
v 13.8275795 16.66666603 0.9989238977
v 12.53664589 18.66666603 1.588830113
v 13.60906601 16.66666603 0.7141520381
v 12.22855663 18.66666603 1.001815438
v 13.47170353 16.66666603 0.3825282454
v 12.06990147 18.66666603 0.3581279218
v 13.42485142 16.66666603 0.026652053
v 12.06990147 18.66666603 -0.3048238158
v 13.47170353 16.66666603 -0.3292241395
v 12.22855663 18.66666603 -0.9485113621
v 13.60906601 16.66666603 -0.6608479619
v 12.53664589 18.66666603 -1.535526037
v 13.8275795 16.66666603 -0.9456197619
v 12.976264 18.66666603 -2.031752586
v 14.11235142 16.66666603 -1.164132833
v 13.52186298 18.66666603 -2.408352137
v 14.44397545 16.66666603 -1.30149591
v 14.14173317 18.66666603 -2.643437862
v 14.79985142 0 1.401652098
v 14.44397545 0 1.354800105
v 14.11235142 0 1.217437029
v 13.8275795 0 0.9989238977
v 13.60906601 0 0.7141520381
v 13.47170353 0 0.3825282454
v 13.42485142 0 0.026652053
v 13.47170353 0 -0.3292241395
v 13.60906601 0 -0.6608479619
v 13.8275795 0 -0.9456197619
v 14.11235142 0 -1.164132833
v 14.44397545 0 -1.30149591
v 14.79985142 0 -1.348347902
v 15.15572739 0 1.354800105
v 15.15572739 0 -1.30149591
v 15.48735142 0 1.217437029
v 15.48735142 0 -1.164132833
v 15.77212334 0 0.9989238977
v 15.77212334 0 -0.9456197619
v 15.99063587 0 0.7141520381
v 15.99063587 0 -0.6608479619
v 16.12799835 0 0.3825282454
v 16.12799835 0 -0.3292241395
v 16.17485046 0 0.026652053
v 14.79985142 18.66666603 -1.348347902
v 14.79985142 18.66666603 1.401652098
vn 0 -4.217414764e-17 -1
vn 0.2144072503 -0.1295002848 -0.968121469
vn 0.03542720899 -0.1267284304 -0.9913045764
vn 0.3002528846 -0.09147402644 -0.9494633675
vn 0.4458892345 -0.08354683965 -0.8911805153
vn 0.5346673131 -0.09156143665 -0.8400877118
vn 0.6517183781 -0.009404976852 -0.7584027052
vn 0.7330009937 -0.0916306451 -0.6740276814
vn 0.8136366606 0.08805214614 -0.5746670365
vn 0.8818721771 -0.09168125689 -0.4624888897
vn 0.9138970375 0.1997915655 -0.3533773422
vn 0.9712363482 -0.09171345085 -0.2197466344
vn 0.3597353101 0.9319941401 -0.04446769133
vn 0.9950655699 -0.09172718972 0.03782344982
vn 0.9423346519 0.3137465119 0.1164841056
vn 0.9517515302 -0.0917224437 0.2928412557
vn 0.9138970375 0.1997915506 0.353377372
vn 0.8442157507 -0.09169920534 0.5281012654
vn 0.8136366606 0.08805207908 0.5746670365
vn 0.6797114611 -0.09165748954 0.7277302146
vn 0.6517183781 -0.009405018762 0.7584027052
vn 0.4693379998 -0.09159722924 0.87825495
vn 0.4458893538 -0.0835467875 0.8911804557
vn 0.2272889167 -0.09151876718 0.9695174098
vn 0.2144073844 -0.1295002699 0.968121469
vn -0.03542720899 -0.1267284304 0.9913045764
vn 0 0 1
vn -0.2144075036 -0.1295003146 0.9681214094
vn -0.3002529442 -0.09147396684 0.9494633675
vn -0.4458891153 -0.08354679495 0.8911805749
vn -0.5346673131 -0.09156151116 0.8400877118
vn -0.65171808 -0.009405067191 0.7584029436
vn -0.7330003381 -0.09163054824 0.6740284562
vn -0.8136364222 0.08805196732 0.5746673942
vn -0.8818718195 -0.09168125689 0.4624896348
vn -0.9138967991 0.1997916698 0.3533778489
vn -0.9712363482 -0.09171345085 0.2197466493
vn -0.3597351611 0.9319941998 0.04446767643
vn -0.9950655699 -0.09172718972 -0.03782344982
vn -0.9423345327 0.3137468398 -0.1164840907
vn -0.9517515302 -0.09172243625 -0.2928412557
vn -0.9138967991 0.1997916698 -0.3533778191
vn -0.8442149758 -0.09169916064 -0.5281025767
vn -0.8136364222 0.08805203438 -0.5746673942
vn -0.6797109842 -0.09165745974 -0.7277306318
vn -0.6517181396 -0.009405025281 -0.7584029436
vn -0.4693378806 -0.09159733355 -0.8782550097
vn -0.4458889961 -0.08354684711 -0.8911806345
vn -0.2272889167 -0.09151870757 -0.9695174694
vn -0.2144073695 -0.1295003444 -0.968121469
vn 0.04327115044 -0.1608471125 0.9860303402
vn -0.2139269859 -0.1453164518 0.9659805298
vn -0.4586057365 -0.1127869114 0.8814532757
vn -0.6736906171 -0.07163184136 0.7355337143
vn -0.8428139091 -0.0329448618 0.5371958017
vn -0.9536243677 -0.007361302152 0.3009092212
vn -0.9990367293 -0.001872279332 0.04384200647
vn -0.9761867523 -0.01796295308 -0.2161868811
vn -0.8859476447 -0.05126271024 -0.4609435201
vn -0.7342572212 -0.09262518585 -0.6725227833
vn -0.5328733921 -0.1307465285 -0.8360330462
vn -0.2972548306 -0.1555626243 -0.9420402646
vn -0.04327115044 -0.1608471125 -0.9860303402
vn 0.2972548306 -0.1555626243 0.9420402646
vn 0.2139269859 -0.1453164518 -0.9659805298
vn 0.5328734517 -0.1307465136 0.8360330462
vn 0.4586056769 -0.1127869114 -0.8814533353
vn 0.7342581749 -0.0926251784 0.6725217104
vn 0.6736909747 -0.07163172215 -0.7355333567
vn 0.8859480023 -0.05126255378 0.4609428346
vn 0.8428146839 -0.03294482082 -0.5371946096
vn 0.9761867523 -0.01796295308 0.216186896
vn 0.9536243677 -0.007361301687 -0.3009091914
vn 0.9990367293 -0.001872279332 -0.04384200647
vn 0 1 0
vn 0 1 0
f 1//1 2//2 3//3 
f 3//3 2//2 4//4 
f 4//4 2//2 5//5 
f 4//4 5//5 6//6 
f 6//6 5//5 7//7 
f 6//6 7//7 8//8 
f 8//8 7//7 9//9 
f 8//8 9//9 10//10 
f 10//10 9//9 11//11 
f 10//10 11//11 12//12 
f 12//12 11//11 13//13 
f 12//12 13//13 14//14 
f 14//14 13//13 15//15 
f 14//14 15//15 16//16 
f 16//16 15//15 17//17 
f 16//16 17//17 18//18 
f 18//18 17//17 19//19 
f 18//18 19//19 20//20 
f 20//20 19//19 21//21 
f 20//20 21//21 22//22 
f 22//22 21//21 23//23 
f 22//22 23//23 24//24 
f 24//24 23//23 25//25 
f 24//24 25//25 26//26 
f 26//26 25//25 27//27 
f 27//27 28//28 26//26 
f 26//26 28//28 29//29 
f 29//29 28//28 30//30 
f 29//29 30//30 31//31 
f 31//31 30//30 32//32 
f 31//31 32//32 33//33 
f 33//33 32//32 34//34 
f 33//33 34//34 35//35 
f 35//35 34//34 36//36 
f 35//35 36//36 37//37 
f 37//37 36//36 38//38 
f 37//37 38//38 39//39 
f 39//39 38//38 40//40 
f 39//39 40//40 41//41 
f 41//41 40//40 42//42 
f 41//41 42//42 43//43 
f 43//43 42//42 44//44 
f 43//43 44//44 45//45 
f 45//45 44//44 46//46 
f 45//45 46//46 47//47 
f 47//47 46//46 48//48 
f 47//47 48//48 49//49 
f 49//49 48//48 50//50 
f 49//49 50//50 3//3 
f 3//3 50//50 1//1 
f 51//51 26//26 52//52 
f 52//52 26//26 29//29 
f 52//52 29//29 53//53 
f 53//53 29//29 31//31 
f 53//53 31//31 54//54 
f 54//54 31//31 33//33 
f 54//54 33//33 55//55 
f 55//55 33//33 35//35 
f 55//55 35//35 56//56 
f 56//56 35//35 37//37 
f 56//56 37//37 57//57 
f 57//57 37//37 39//39 
f 57//57 39//39 58//58 
f 58//58 39//39 41//41 
f 58//58 41//41 59//59 
f 59//59 41//41 43//43 
f 59//59 43//43 60//60 
f 60//60 43//43 45//45 
f 60//60 45//45 61//61 
f 61//61 45//45 47//47 
f 61//61 47//47 62//62 
f 62//62 47//47 49//49 
f 62//62 49//49 63//63 
f 63//63 49//49 3//3 
f 52//52 62//62 51//51 
f 51//51 62//62 63//63 
f 51//51 63//63 64//64 
f 64//64 63//63 65//65 
f 64//64 65//65 66//66 
f 66//66 65//65 67//67 
f 66//66 67//67 68//68 
f 68//68 67//67 69//69 
f 68//68 69//69 70//70 
f 70//70 69//69 71//71 
f 70//70 71//71 72//72 
f 72//72 71//71 73//73 
f 72//72 73//73 74//74 
f 62//62 52//52 61//61 
f 61//61 52//52 53//53 
f 61//61 53//53 60//60 
f 60//60 53//53 54//54 
f 60//60 54//54 59//59 
f 59//59 54//54 55//55 
f 59//59 55//55 58//58 
f 58//58 55//55 56//56 
f 58//58 56//56 57//57 
f 1//1 50//50 75//75 
f 75//75 50//50 48//48 
f 75//75 48//48 46//46 
f 46//46 44//44 75//75 
f 75//75 44//44 42//42 
f 75//75 42//42 40//40 
f 40//40 38//38 75//75 
f 75//75 38//38 76//76 
f 75//75 76//76 13//13 
f 13//13 76//76 15//15 
f 15//15 76//76 17//17 
f 17//17 76//76 19//19 
f 19//19 76//76 21//21 
f 21//21 76//76 23//23 
f 23//23 76//76 25//25 
f 25//25 76//76 27//27 
f 38//38 36//36 76//76 
f 76//76 36//36 34//34 
f 76//76 34//34 32//32 
f 32//32 30//30 76//76 
f 76//76 30//30 28//28 
f 76//76 28//28 27//27 
f 13//13 11//11 75//75 
f 75//75 11//11 9//9 
f 75//75 9//9 7//7 
f 7//7 5//5 75//75 
f 75//75 5//5 2//2 
f 75//75 2//2 1//1 
f 63//63 3//3 65//65 
f 65//65 3//3 4//4 
f 65//65 4//4 67//67 
f 67//67 4//4 6//6 
f 67//67 6//6 69//69 
f 69//69 6//6 8//8 
f 69//69 8//8 71//71 
f 71//71 8//8 10//10 
f 71//71 10//10 73//73 
f 73//73 10//10 12//12 
f 73//73 12//12 74//74 
f 74//74 12//12 14//14 
f 74//74 14//14 72//72 
f 72//72 14//14 16//16 
f 72//72 16//16 70//70 
f 70//70 16//16 18//18 
f 70//70 18//18 68//68 
f 68//68 18//18 20//20 
f 68//68 20//20 66//66 
f 66//66 20//20 22//22 
f 66//66 22//22 64//64 
f 64//64 22//22 24//24 
f 64//64 24//24 51//51 
f 51//51 24//24 26//26 
