v -15.20014858 18.66666603 53.27665329
v -14.54203033 18.66666603 53.35656357
v -15.20014858 16.66666603 54.65165329
v -14.84427261 16.66666603 54.6985054
v -13.92216015 18.66666603 53.5916481
v -14.51264858 16.66666603 54.83586884
v -13.37656116 18.66666603 53.96824646
v -14.22787666 16.66666603 55.05437851
v -12.93694305 18.66666603 54.46447372
v -14.00936413 16.66666603 55.33915329
v -12.6288538 18.66666603 55.05148697
v -13.87200069 16.66666603 55.67077637
v -12.47019958 18.66666603 55.69517517
v -13.82514858 16.66666603 56.02665329
v -12.47019958 18.66666603 56.35812759
v -13.87200069 16.66666603 56.3825264
v -12.6288538 18.66666603 57.0018158
v -14.00936413 16.66666603 56.71415329
v -12.93694305 18.66666603 57.58882904
v -14.22787666 16.66666603 56.99892426
v -13.37656116 18.66666603 58.0850563
v -14.51264858 16.66666603 57.21743774
v -13.92216015 18.66666603 58.46165466
v -14.84427261 16.66666603 57.35480118
v -14.54203033 18.66666603 58.69674301
v -15.20014858 16.66666603 57.40165329
v -15.20014858 18.66666603 58.77665329
v -15.85826683 18.66666603 58.69674301
v -15.55602455 16.66666603 57.35480118
v -16.47813797 18.66666603 58.46165466
v -15.88764858 16.66666603 57.21743774
v -17.02373695 18.66666603 58.0850563
v -16.1724205 16.66666603 56.99892426
v -17.46335411 18.66666603 57.58882904
v -16.39093399 16.66666603 56.71415329
v -17.77144432 18.66666603 57.0018158
v -16.52829742 16.66666603 56.3825264
v -17.93009758 18.66666603 56.35812759
v -16.57514954 16.66666603 56.02665329
v -17.93009758 18.66666603 55.69517517
v -16.52829742 16.66666603 55.67077637
v -17.77144432 18.66666603 55.05148697
v -16.39093399 16.66666603 55.33915329
v -17.46335411 18.66666603 54.46447372
v -16.1724205 16.66666603 55.05437851
v -17.02373695 18.66666603 53.96824646
v -15.88764858 16.66666603 54.83586884
v -16.47813797 18.66666603 53.5916481
v -15.55602455 16.66666603 54.6985054
v -15.85826683 18.66666603 53.35656357
v -15.20014858 0 57.40165329
v -15.55602455 0 57.35480118
v -15.88764858 0 57.21743774
v -16.1724205 0 56.99892426
v -16.39093399 0 56.71415329
v -16.52829742 0 56.3825264
v -16.57514954 0 56.02665329
v -16.52829742 0 55.67077637
v -16.39093399 0 55.33915329
v -16.1724205 0 55.05437851
v -15.88764858 0 54.83586884
v -15.55602455 0 54.6985054
v -15.20014858 0 54.65165329
v -14.84427261 0 57.35480118
v -14.84427261 0 54.6985054
v -14.51264858 0 57.21743774
v -14.51264858 0 54.83586884
v -14.22787666 0 56.99892426
v -14.22787666 0 55.05437851
v -14.00936413 0 56.71415329
v -14.00936413 0 55.33915329
v -13.87200069 0 56.3825264
v -13.87200069 0 55.67077637
v -13.82514858 0 56.02665329
v -15.20014858 18.66666603 54.65165329
v -15.20014858 18.66666603 57.40165329
vn 8.434829528e-17 8.434829528e-17 -1
vn 0.2144068927 -0.1295005083 -0.9681215286
vn 0.03542730212 -0.1267284304 -0.9913045764
vn 0.3002534509 -0.09147395939 -0.9494631886
vn 0.4458880126 -0.08354756236 -0.8911810517
vn 0.53466326 -0.09156168997 -0.8400902748
vn 0.6517167687 -0.00940384157 -0.7584040761
vn 0.733002007 -0.09163052589 -0.6740266085
vn 0.813637197 0.0880510062 -0.5746664405
vn 0.8818717599 -0.09168123454 -0.4624897242
vn 0.9138966799 0.1997917444 -0.3533781171
vn 0.9712362289 -0.09171343595 -0.2197472304
vn 0.3597355783 0.9319940805 -0.04446746409
vn 0.9950655699 -0.09172743559 0.03782362118
vn 0.9423339367 0.3137488961 0.1164835989
vn 0.9517513514 -0.09172221273 0.2928419411
vn 0.9138973355 0.199789837 0.353377521
vn 0.8442156911 -0.09169916064 0.5281014442
vn 0.8136363626 0.08805212379 0.5746674538
vn 0.6797114611 -0.09165744483 0.7277302146
vn 0.65171808 -0.009405297227 0.7584029436
vn 0.4693385661 -0.09159717709 0.878254652
vn 0.4458898604 -0.08354670554 0.8911802173
vn 0.2272896618 -0.09151870012 0.9695172906
vn 0.2144090682 -0.1295000464 0.9681211114
vn -0.03542730212 -0.1267284304 0.9913045764
vn -8.434829528e-17 8.434829528e-17 1
vn -0.214408949 -0.1294999868 0.968121171
vn -0.3002537787 -0.09147400409 0.949463129
vn -0.445889622 -0.08354671299 0.8911803365
vn -0.5346679091 -0.0915613994 0.8400873542
vn -0.6517183781 -0.009405248798 0.7584027052
vn -0.7329998612 -0.09163056314 0.6740289927
vn -0.8136361241 0.08805201948 0.5746678114
vn -0.8818720579 -0.09168092161 0.4624892175
vn -0.9138972759 0.1997902542 0.3533774912
vn -0.9712360501 -0.09171364456 0.2197477967
vn -0.3597345948 0.9319944382 0.04446723685
vn -0.9950655699 -0.09172709286 -0.0378235057
vn -0.9423344135 0.3137477338 -0.1164828464
vn -0.9517511129 -0.09172246605 -0.292842716
vn -0.9138966203 0.1997921616 -0.3533780873
vn -0.8442158103 -0.09169894457 -0.528101325
vn -0.8136369586 0.08805089444 -0.5746667981
vn -0.6797094345 -0.0916576758 -0.7277320623
vn -0.6517170668 -0.009403793141 -0.7584038377
vn -0.4693358839 -0.09159736335 -0.8782560825
vn -0.4458877742 -0.08354756981 -0.8911811709
vn -0.2272892892 -0.09151877463 -0.9695173502
vn -0.2144067734 -0.1295004487 -0.9681215882
vn 0.04327125847 -0.1608471125 0.9860303402
vn -0.2139275223 -0.1453164071 0.9659804106
vn -0.4586065114 -0.1127868593 0.8814528584
vn -0.6736905575 -0.07163190842 0.7355337739
vn -0.8428138494 -0.0329449065 0.5371959209
vn -0.9536241293 -0.007361291442 0.300909996
vn -0.9990367293 -0.001872282592 0.04384222999
vn -0.9761865735 -0.01796302572 -0.2161875963
vn -0.8859471679 -0.05126270279 -0.4609443545
vn -0.7342583537 -0.09262506664 -0.6725215912
vn -0.5328691006 -0.130746901 -0.8360357285
vn -0.2972555459 -0.1555625796 -0.9420400262
vn -0.04327125847 -0.1608471125 -0.9860303402
vn 0.2972555459 -0.1555625796 0.9420400262
vn 0.2139275223 -0.1453164071 -0.9659804106
vn 0.532874167 -0.1307464093 0.8360325694
vn 0.4586037099 -0.1127870381 -0.8814543486
vn 0.7342575788 -0.09262531251 0.672522366
vn 0.6736890674 -0.07163195312 -0.7355351448
vn 0.88594836 -0.05126238614 0.4609422088
vn 0.8428156972 -0.03294476494 -0.5371930003
vn 0.9761863947 -0.01796308719 0.2161883414
vn 0.9536238313 -0.007361316588 -0.3009110391
vn 0.9990367293 -0.001872275956 -0.04384207353
vn 0 1 0
vn 0 1 0
f 1//1 2//2 3//3 
f 3//3 2//2 4//4 
f 4//4 2//2 5//5 
f 4//4 5//5 6//6 
f 6//6 5//5 7//7 
f 6//6 7//7 8//8 
f 8//8 7//7 9//9 
f 8//8 9//9 10//10 
f 10//10 9//9 11//11 
f 10//10 11//11 12//12 
f 12//12 11//11 13//13 
f 12//12 13//13 14//14 
f 14//14 13//13 15//15 
f 14//14 15//15 16//16 
f 16//16 15//15 17//17 
f 16//16 17//17 18//18 
f 18//18 17//17 19//19 
f 18//18 19//19 20//20 
f 20//20 19//19 21//21 
f 20//20 21//21 22//22 
f 22//22 21//21 23//23 
f 22//22 23//23 24//24 
f 24//24 23//23 25//25 
f 24//24 25//25 26//26 
f 26//26 25//25 27//27 
f 27//27 28//28 26//26 
f 26//26 28//28 29//29 
f 29//29 28//28 30//30 
f 29//29 30//30 31//31 
f 31//31 30//30 32//32 
f 31//31 32//32 33//33 
f 33//33 32//32 34//34 
f 33//33 34//34 35//35 
f 35//35 34//34 36//36 
f 35//35 36//36 37//37 
f 37//37 36//36 38//38 
f 37//37 38//38 39//39 
f 39//39 38//38 40//40 
f 39//39 40//40 41//41 
f 41//41 40//40 42//42 
f 41//41 42//42 43//43 
f 43//43 42//42 44//44 
f 43//43 44//44 45//45 
f 45//45 44//44 46//46 
f 45//45 46//46 47//47 
f 47//47 46//46 48//48 
f 47//47 48//48 49//49 
f 49//49 48//48 50//50 
f 49//49 50//50 3//3 
f 3//3 50//50 1//1 
f 51//51 26//26 52//52 
f 52//52 26//26 29//29 
f 52//52 29//29 53//53 
f 53//53 29//29 31//31 
f 53//53 31//31 54//54 
f 54//54 31//31 33//33 
f 54//54 33//33 55//55 
f 55//55 33//33 35//35 
f 55//55 35//35 56//56 
f 56//56 35//35 37//37 
f 56//56 37//37 57//57 
f 57//57 37//37 39//39 
f 57//57 39//39 58//58 
f 58//58 39//39 41//41 
f 58//58 41//41 59//59 
f 59//59 41//41 43//43 
f 59//59 43//43 60//60 
f 60//60 43//43 45//45 
f 60//60 45//45 61//61 
f 61//61 45//45 47//47 
f 61//61 47//47 62//62 
f 62//62 47//47 49//49 
f 62//62 49//49 63//63 
f 63//63 49//49 3//3 
f 52//52 62//62 51//51 
f 51//51 62//62 63//63 
f 51//51 63//63 64//64 
f 64//64 63//63 65//65 
f 64//64 65//65 66//66 
f 66//66 65//65 67//67 
f 66//66 67//67 68//68 
f 68//68 67//67 69//69 
f 68//68 69//69 70//70 
f 70//70 69//69 71//71 
f 70//70 71//71 72//72 
f 72//72 71//71 73//73 
f 72//72 73//73 74//74 
f 62//62 52//52 61//61 
f 61//61 52//52 53//53 
f 61//61 53//53 60//60 
f 60//60 53//53 54//54 
f 60//60 54//54 59//59 
f 59//59 54//54 55//55 
f 59//59 55//55 58//58 
f 58//58 55//55 56//56 
f 58//58 56//56 57//57 
f 1//1 50//50 75//75 
f 75//75 50//50 48//48 
f 75//75 48//48 46//46 
f 46//46 44//44 75//75 
f 75//75 44//44 42//42 
f 75//75 42//42 40//40 
f 40//40 38//38 75//75 
f 75//75 38//38 76//76 
f 75//75 76//76 13//13 
f 13//13 76//76 15//15 
f 15//15 76//76 17//17 
f 17//17 76//76 19//19 
f 19//19 76//76 21//21 
f 21//21 76//76 23//23 
f 23//23 76//76 25//25 
f 25//25 76//76 27//27 
f 38//38 36//36 76//76 
f 76//76 36//36 34//34 
f 76//76 34//34 32//32 
f 32//32 30//30 76//76 
f 76//76 30//30 28//28 
f 76//76 28//28 27//27 
f 13//13 11//11 75//75 
f 75//75 11//11 9//9 
f 75//75 9//9 7//7 
f 7//7 5//5 75//75 
f 75//75 5//5 2//2 
f 75//75 2//2 1//1 
f 63//63 3//3 65//65 
f 65//65 3//3 4//4 
f 65//65 4//4 67//67 
f 67//67 4//4 6//6 
f 67//67 6//6 69//69 
f 69//69 6//6 8//8 
f 69//69 8//8 71//71 
f 71//71 8//8 10//10 
f 71//71 10//10 73//73 
f 73//73 10//10 12//12 
f 73//73 12//12 74//74 
f 74//74 12//12 14//14 
f 74//74 14//14 72//72 
f 72//72 14//14 16//16 
f 72//72 16//16 70//70 
f 70//70 16//16 18//18 
f 70//70 18//18 68//68 
f 68//68 18//18 20//20 
f 68//68 20//20 66//66 
f 66//66 20//20 22//22 
f 66//66 22//22 64//64 
f 64//64 22//22 24//24 
f 64//64 24//24 51//51 
f 51//51 24//24 26//26 
