v -63.20014954 -4.166666508 308.5474854
v -63.20014954 -26.0625 308.5474854
v -63.20014954 -4.166666508 307.5474854
v -63.20014954 -26.0625 307.5474854
v -89.70014954 -26.0625 308.5474854
v -89.70014954 -4.166666508 308.5474854
v -89.70014954 -26.0625 307.5474854
v -89.70014954 -4.166666508 307.5474854
vn 0.0188596528 0.02282538265 0.9995615482
vn 0.07494743168 -0.09070707113 0.9930534363
vn 0.07494743168 0.09070707113 -0.9930534363
vn 0.0188596528 -0.02282538265 -0.9995615482
vn -0.0188596528 -0.02282538265 0.9995615482
vn -0.07494743168 0.09070707113 0.9930534363
vn -0.07494743168 -0.09070707113 -0.9930534363
vn -0.0188596528 0.02282538265 -0.9995615482
f 1//1 2//2 3//3 
f 3//3 2//2 4//4 
f 2//2 1//1 5//5 
f 5//5 1//1 6//6 
f 5//5 7//7 2//2 
f 2//2 7//7 4//4 
f 1//1 3//3 6//6 
f 6//6 3//3 8//8 
f 7//7 8//8 4//4 
f 4//4 8//8 3//3 
f 5//5 6//6 7//7 
f 7//7 6//6 8//8 
