v -90.15848541 -11 26.85998535
v -90.15848541 -4.583333492 26.85998535
v -90.15848541 -11 27.85998535
v -90.15848541 -4.583333492 27.85998535
v -103.2001495 -11 26.85998535
v -103.2001495 -4.583333492 26.85998535
v -103.2001495 -11 27.85998535
v -103.2001495 -4.583333492 27.85998535
vn 0.03819490969 -0.07762990147 -0.9962503314
vn 0.144863382 0.2944300771 -0.944629848
vn 0.144863382 -0.2944300771 0.944629848
vn 0.03819490969 0.07762990147 0.9962503314
vn -0.144863382 -0.2944300771 -0.944629848
vn -0.03819490969 0.07762990147 -0.9962503314
vn -0.03819490969 -0.07762990147 0.9962503314
vn -0.144863382 0.2944300771 0.944629848
f 1//1 2//2 3//3 
f 3//3 2//2 4//4 
f 5//5 6//6 1//1 
f 1//1 6//6 2//2 
f 1//1 3//3 5//5 
f 5//5 3//3 7//7 
f 6//6 8//8 2//2 
f 2//2 8//8 4//4 
f 3//3 4//4 7//7 
f 7//7 4//4 8//8 
f 6//6 5//5 8//8 
f 8//8 5//5 7//7 
