v -89.70014954 -4.583333492 308.5474854
v -89.70014954 -11 308.5474854
v -89.70014954 -4.583333492 307.5474854
v -89.70014954 -11 307.5474854
v -102.2001495 -11 307.5474854
v -102.2001495 -4.583333492 307.5474854
v -102.2001495 -4.583333492 308.5474854
v -102.2001495 -11 308.5474854
vn 0.03984744102 0.07762488723 0.996186018
vn 0.1510005444 -0.294156909 0.9437534213
vn 0.1510005444 0.294156909 -0.9437534213
vn 0.03984744102 -0.07762488723 -0.996186018
vn -0.1510005444 -0.294156909 -0.9437534213
vn -0.03984744102 0.07762488723 -0.996186018
vn -0.1510005444 0.294156909 0.9437534213
vn -0.03984744102 -0.07762488723 0.996186018
f 1//1 2//2 3//3 
f 3//3 2//2 4//4 
f 5//5 6//6 4//4 
f 4//4 6//6 3//3 
f 1//1 3//3 7//7 
f 7//7 3//3 6//6 
f 8//8 5//5 2//2 
f 2//2 5//5 4//4 
f 2//2 1//1 8//8 
f 8//8 1//1 7//7 
f 8//8 7//7 5//5 
f 5//5 7//7 6//6 
