v 43.79985046 -11.3125 295.4433289
v 43.79985046 -25.75 295.4433289
v 43.79985046 -11.3125 294.4433289
v 43.79985046 -25.75 294.4433289
v 40.79985046 -25.75 294.4433289
v 40.79985046 -11.3125 294.4433289
v 40.79985046 -11.3125 295.4433289
v 40.79985046 -25.75 295.4433289
vn 0.1643031538 0.03414091468 0.9858188629
vn 0.5510517955 -0.1145042703 0.826577723
vn 0.5510517955 0.1145042703 -0.826577723
vn 0.1643031538 -0.03414091468 -0.9858188629
vn -0.5510517955 -0.1145042703 -0.826577723
vn -0.1643031538 0.03414091468 -0.9858188629
vn -0.5510517955 0.1145042703 0.826577723
vn -0.1643031538 -0.03414091468 0.9858188629
f 1//1 2//2 3//3 
f 3//3 2//2 4//4 
f 5//5 6//6 4//4 
f 4//4 6//6 3//3 
f 1//1 3//3 7//7 
f 7//7 3//3 6//6 
f 8//8 5//5 2//2 
f 2//2 5//5 4//4 
f 2//2 1//1 8//8 
f 8//8 1//1 7//7 
f 8//8 7//7 5//5 
f 5//5 7//7 6//6 
