v 2.569860697 -25.75 167.6079254
v 3.083692312 -25.75 166.7500305
v 4.964691162 -25.75 169.1806335
v 5.547770977 -25.75 168.3682251
v 7.221122265 -25.75 170.9461823
v 7.869448185 -25.75 170.1848145
v 9.32366848 -25.75 172.8924561
v 10.03279018 -25.75 172.1873627
v 11.25789738 -25.75 175.006073
v 12.02295017 -25.75 174.3621063
v 13.01053619 -25.75 177.2725525
v 13.82626629 -25.75 176.6941223
v 14.56955338 -25.75 179.6763153
v 15.43036366 -25.75 179.1673889
v 15.92424965 -25.75 182.200882
v 16.8242321 -25.75 181.7649536
v 3.083692312 2.667690754 166.7500305
v 5.246942997 2.932023764 168.1551819
v 7.302748203 3.196356773 169.7133636
v 9.240696907 3.460689783 171.4158936
v 11.05037785 3.725023031 173.2541351
v 12.72160339 3.989356041 175.2191315
v 14.24599552 4.253689289 177.3001251
v 15.61604118 4.51802206 179.4858246
v 16.8242321 4.782355309 181.7649536
v 2.569860697 2.646130562 167.6079254
v 15.92424965 4.740787506 182.200882
v 14.56955338 4.441551685 179.6763153
v 13.55227852 4.242056847 178.0593414
v 12.44726944 4.042568207 176.5010071
v 10.63270092 3.743332386 174.2838135
v 9.32366848 3.543839216 172.8924561
v 7.939804554 3.344351053 171.5755005
v 5.732997894 3.045115471 169.748291
v 4.180998802 2.845621347 168.6344147
v 3.888921738 2.786375284 167.8413239
v 5.977972031 3.05032897 169.3066864
v 7.27193737 3.221294403 170.3353577
v 9.050746918 3.468020678 171.9245453
v 10.71738815 3.714746952 173.6309814
v 12.26417446 3.961473227 175.4467926
v 13.68413258 4.208199501 177.3634033
v 14.12532902 4.289925098 178.0190125
v 15.3144207 4.525807381 179.9649658
vn -0.7028186917 -0.01988979243 0.7110909224
vn 0.2268449813 -0.03526676819 -0.973292172
vn -0.5827131271 -0.03896809742 0.8117431402
vn 0.5892016292 -0.03617663309 -0.8071757555
vn -0.6445095539 -0.03452789783 0.7638162374
vn 0.6515552402 -0.03593038023 -0.7577497959
vn -0.7089128494 -0.03045675717 0.7046381831
vn 0.7098121643 -0.03565684333 -0.7034879327
vn -0.7676382661 -0.03375380859 0.639993906
vn 0.7636393309 -0.03533111513 -0.6446756124
vn -0.8152128458 -0.03740982339 0.5779520273
vn 0.812566936 -0.03494765982 -0.5818192363
vn -0.8567187786 -0.03735286742 0.51442945
vn 0.8562969565 -0.03453078121 -0.5153281689
vn -0.7866574526 -0.03265726566 0.6165254116
vn 0.9904436469 -0.01690573804 -0.1368780285
vn 0.1969058365 0.03191740066 -0.9799027443
vn 0.5640269518 0.01632883772 -0.825594902
vn 0.6254252195 0.01426458918 -0.7801537514
vn 0.6828380227 0.01591379195 -0.7303964496
vn 0.7361405492 0.02078430541 -0.6765094995
vn 0.7860161066 0.01564098708 -0.6180081367
vn 0.8310509324 0.012017495 -0.5560665131
vn 0.870793283 0.01491023973 -0.4914231896
vn 0.9923197031 0.04258069769 -0.1161400303
vn -0.9780874252 0.02791724354 0.2063143849
vn -0.4668214321 0.03469859064 0.8836706281
vn -0.873562932 0.01538517047 0.4864680171
vn -0.8353102803 0.01188476011 0.5496503115
vn -0.7920235395 0.01584716141 0.6102848649
vn -0.7503257394 0.01617021486 0.6608704329
vn -0.7108798027 0.02767348103 0.7027688622
vn -0.6677681804 0.01636988483 0.7441892624
vn -0.6174384356 0.01484853774 0.7864790559
vn -0.5569137931 0.01683052815 0.8303997517
vn -0.09867532551 0.9944223166 -0.03724865988
vn -0.09752240032 0.9943883419 -0.04100255296
vn -0.09583723545 0.9943270087 -0.04614112899
vn -0.09426584095 0.9942705035 -0.0504000783
vn -0.09318599105 0.9941649437 -0.05433586612
vn -0.09109149873 0.9941155314 -0.05862278864
vn -0.08901964873 0.9940705299 -0.062443804
vn -0.08671911806 0.9939837456 -0.06690336019
vn -0.08386002481 0.993938148 -0.07109506428
f 1//1 2//2 3//3 
f 3//3 2//2 4//4 
f 3//3 4//4 5//5 
f 5//5 4//4 6//6 
f 5//5 6//6 7//7 
f 7//7 6//6 8//8 
f 7//7 8//8 9//9 
f 9//9 8//8 10//10 
f 9//9 10//10 11//11 
f 11//11 10//10 12//12 
f 11//11 12//12 13//13 
f 13//13 12//12 14//14 
f 13//13 14//14 15//15 
f 15//15 14//14 16//16 
f 17//17 18//18 2//2 
f 2//2 18//18 4//4 
f 4//4 18//18 19//19 
f 4//4 19//19 6//6 
f 6//6 19//19 20//20 
f 6//6 20//20 8//8 
f 8//8 20//20 21//21 
f 8//8 21//21 10//10 
f 10//10 21//21 22//22 
f 10//10 22//22 12//12 
f 12//12 22//22 23//23 
f 12//12 23//23 14//14 
f 14//14 23//23 24//24 
f 14//14 24//24 16//16 
f 16//16 24//24 25//25 
f 17//17 2//2 26//26 
f 26//26 2//2 1//1 
f 25//25 27//27 16//16 
f 16//16 27//27 15//15 
f 27//27 28//28 15//15 
f 15//15 28//28 13//13 
f 13//13 28//28 29//29 
f 13//13 29//29 11//11 
f 11//11 29//29 30//30 
f 11//11 30//30 9//9 
f 9//9 30//30 31//31 
f 9//9 31//31 7//7 
f 7//7 31//31 32//32 
f 7//7 32//32 33//33 
f 7//7 33//33 5//5 
f 5//5 33//33 34//34 
f 5//5 34//34 3//3 
f 3//3 34//34 35//35 
f 3//3 35//35 1//1 
f 1//1 35//35 26//26 
f 17//17 26//26 36//36 
f 36//36 26//26 35//35 
f 36//36 35//35 37//37 
f 37//37 35//35 34//34 
f 37//37 34//34 38//38 
f 38//38 34//34 33//33 
f 38//38 33//33 39//39 
f 39//39 33//33 32//32 
f 39//39 32//32 40//40 
f 40//40 32//32 31//31 
f 40//40 31//31 41//41 
f 41//41 31//31 30//30 
f 41//41 30//30 42//42 
f 42//42 30//30 29//29 
f 42//42 29//29 43//43 
f 43//43 29//29 28//28 
f 43//43 28//28 44//44 
f 44//44 28//28 27//27 
f 44//44 27//27 25//25 
f 25//25 24//24 44//44 
f 44//44 24//24 43//43 
f 24//24 23//23 43//43 
f 43//43 23//23 42//42 
f 23//23 22//22 42//42 
f 42//42 22//22 41//41 
f 22//22 21//21 41//41 
f 41//41 21//21 40//40 
f 40//40 21//21 39//39 
f 39//39 21//21 20//20 
f 39//39 20//20 38//38 
f 38//38 20//20 19//19 
f 38//38 19//19 37//37 
f 37//37 19//19 18//18 
f 37//37 18//18 36//36 
f 36//36 18//18 17//17 
