v 0.5498512983 -1.3125 85.52664948
v 0.5498512983 -25.75 85.52664948
v -0.7834820747 -1.3125 85.52664948
v -0.7834820747 -25.75 85.52664948
v -0.7834820747 -25.75 110.5266495
v -0.7834820747 -1.3125 110.5266495
v 0.5498512983 -1.3125 110.5266495
v 0.5498512983 -25.75 110.5266495
vn 0.9981610775 0.05446062237 -0.02661762945
vn 0.9928990006 -0.0541735217 -0.1059092283
vn -0.9928990006 0.0541735217 -0.1059092283
vn -0.9981610775 -0.05446062237 -0.02661762945
vn -0.9928990006 -0.0541735217 0.1059092283
vn -0.9981610775 0.05446062237 0.02661762945
vn 0.9928990006 0.0541735217 0.1059092283
vn 0.9981610775 -0.05446062237 0.02661762945
f 1//1 2//2 3//3 
f 3//3 2//2 4//4 
f 5//5 6//6 4//4 
f 4//4 6//6 3//3 
f 7//7 1//1 6//6 
f 6//6 1//1 3//3 
f 2//2 8//8 4//4 
f 4//4 8//8 5//5 
f 2//2 1//1 8//8 
f 8//8 1//1 7//7 
f 8//8 7//7 5//5 
f 5//5 7//7 6//6 
