v 44.79985046 -25.75 264.7766418
v 44.79985046 -4.166666508 264.7766418
v 44.79985046 -25.75 265.7766418
v 44.79985046 -4.166666508 265.7766418
v 24.04985046 -25.75 264.7766418
v 24.04985046 -4.166666508 264.7766418
v 24.04985046 -25.75 265.7766418
v 24.04985046 -4.166666508 265.7766418
vn 0.02408293448 -0.02315309271 -0.9994418025
vn 0.09553539008 0.09184676409 -0.9911797047
vn 0.09553539008 -0.09184676409 0.9911797047
vn 0.02408293448 0.02315309271 0.9994418025
vn -0.09553539008 -0.09184676409 -0.9911797047
vn -0.02408293448 0.02315309271 -0.9994418025
vn -0.02408293448 -0.02315309271 0.9994418025
vn -0.09553539008 0.09184676409 0.9911797047
f 1//1 2//2 3//3 
f 3//3 2//2 4//4 
f 5//5 6//6 1//1 
f 1//1 6//6 2//2 
f 1//1 3//3 5//5 
f 5//5 3//3 7//7 
f 6//6 8//8 2//2 
f 2//2 8//8 4//4 
f 3//3 4//4 7//7 
f 7//7 4//4 8//8 
f 6//6 5//5 8//8 
f 8//8 5//5 7//7 
