v 19.29985046 -0.3125 -11.97334766
v 19.29985046 -25.75 -11.97334766
v 19.9665184 -0.3125 -11.97334766
v 19.9665184 -25.75 -11.97334766
v 19.29985046 -25.75 -36.30668259
v 19.29985046 -0.3125 -36.30668259
v 19.9665184 -25.75 -36.30668259
v 19.9665184 -0.3125 -36.30668259
vn -0.9995630383 0.02619662322 0.01369266957
vn -0.9981604218 -0.02615986392 0.05469382182
vn 0.9981604218 0.02615986392 0.05469382182
vn 0.9995630383 -0.02619662322 0.01369266957
vn -0.9995630383 -0.02619662322 -0.01369266957
vn -0.9981604218 0.02615986392 -0.05469382182
vn 0.9981604218 -0.02615986392 -0.05469382182
vn 0.9995630383 0.02619662322 -0.01369266957
f 1//1 2//2 3//3 
f 3//3 2//2 4//4 
f 2//2 1//1 5//5 
f 5//5 1//1 6//6 
f 2//2 5//5 4//4 
f 4//4 5//5 7//7 
f 6//6 1//1 8//8 
f 8//8 1//1 3//3 
f 7//7 8//8 4//4 
f 4//4 8//8 3//3 
f 5//5 6//6 7//7 
f 7//7 6//6 8//8 
