v 45.29985046 -16 113.0266495
v 45.29985046 -25.75 113.0266495
v 44.29985046 -16 113.0266495
v 44.29985046 -25.75 113.0266495
v 44.29985046 -16 182.5266571
v 44.29985046 -25.75 182.5266571
v 45.29985046 -25.75 182.5266571
v 45.29985046 -16 182.5266571
v 45.29985046 -16 197.4433136
v 45.29985046 -25.75 197.4433136
v 44.29985046 -16 197.4433136
v 44.29985046 -25.75 197.4433136
v 45.29985046 -16 204.3599854
v 45.29985046 -25.75 204.3599854
v 44.29985046 -16 204.3599854
v 44.29985046 -25.75 204.3599854
vn 0.9947559834 0.1020262539 -0.007156516891
vn 0.9943740964 -0.1019870862 -0.02861507796
vn -0.9943740964 0.1019870862 -0.02861507796
vn -0.9947559834 -0.1020262539 -0.007156516891
vn -0.9947559834 0.1020262539 0.007156516891
vn -0.9943740964 -0.1019870862 0.02861507796
vn 0.9947559834 -0.1020262539 0.007156516891
vn 0.9943740964 0.1019870862 0.02861507796
vn 0.9922192097 0.1017660722 -0.0717266351
vn 0.9560164809 -0.09805297107 -0.2764382958
vn -0.9560164809 0.09805297107 -0.2764382958
vn -0.9922192097 -0.1017660722 -0.0717266351
vn 0.9560164809 0.09805297107 0.2764382958
vn 0.9922192097 -0.1017660722 0.0717266351
vn -0.9922192097 0.1017660722 0.0717266351
vn -0.9560164809 -0.09805297107 0.2764382958
f 1//1 2//2 3//3 
f 3//3 2//2 4//4 
f 3//3 4//4 5//5 
f 5//5 4//4 6//6 
f 2//2 7//7 4//4 
f 4//4 7//7 6//6 
f 3//3 5//5 1//1 
f 1//1 5//5 8//8 
f 2//2 1//1 7//7 
f 7//7 1//1 8//8 
f 7//7 8//8 6//6 
f 6//6 8//8 5//5 
f 9//9 10//10 11//11 
f 11//11 10//10 12//12 
f 13//13 14//14 9//9 
f 9//9 14//14 10//10 
f 13//13 9//9 15//15 
f 15//15 9//9 11//11 
f 16//16 12//12 14//14 
f 14//14 12//12 10//10 
f 16//16 15//15 12//12 
f 12//12 15//15 11//11 
f 14//14 13//13 16//16 
f 16//16 13//13 15//15 
