v 29.29985046 -1.3125 -88.64001465
v 29.29985046 -25.75 -88.64001465
v 29.29985046 -1.3125 -87.97335052
v 29.29985046 -25.75 -87.97335052
v 39.63318634 -25.75 -88.64001465
v 39.63318634 -1.3125 -88.64001465
v 39.63318634 -25.75 -87.97335052
v 39.63318634 -1.3125 -87.97335052
vn -0.03223816678 0.01363182906 -0.9993872643
vn -0.1277838796 -0.05403309315 -0.9903290868
vn -0.1277838796 0.05403309315 0.9903290868
vn -0.03223816678 -0.01363182906 0.9993872643
vn 0.03223816678 -0.01363182906 -0.9993872643
vn 0.1277838796 0.05403309315 -0.9903290868
vn 0.1277838796 -0.05403309315 0.9903290868
vn 0.03223816678 0.01363182906 0.9993872643
f 1//1 2//2 3//3 
f 3//3 2//2 4//4 
f 2//2 1//1 5//5 
f 5//5 1//1 6//6 
f 5//5 7//7 2//2 
f 2//2 7//7 4//4 
f 1//1 3//3 6//6 
f 6//6 3//3 8//8 
f 7//7 8//8 4//4 
f 4//4 8//8 3//3 
f 5//5 6//6 7//7 
f 7//7 6//6 8//8 
