v -15.20014858 -11.66666698 -148.9733429
v -14.62839127 -11.66666698 -148.9132538
v -15.20014858 -13.66666698 -147.2233429
v -14.94132996 -13.66666698 -147.18927
v -14.08162308 -11.66666698 -148.7355957
v -14.70014858 -13.66666698 -147.0893707
v -13.58373928 -11.66666698 -148.4481506
v -14.49304199 -13.66666698 -146.9304504
v -13.15650082 -11.66666698 -148.0634613
v -14.33412361 -13.66666698 -146.7233429
v -12.81857872 -11.66666698 -147.5983429
v -12.5847435 -11.66666698 -147.0731506
v -14.23422337 -13.66666698 -146.4821625
v -12.46521378 -11.66666698 -146.5108032
v -14.20014858 -13.66666698 -146.2233429
v -12.46521378 -11.66666698 -145.9358978
v -14.23422337 -13.66666698 -145.9645233
v -12.5847435 -11.66666698 -145.3735504
v -14.33412361 -13.66666698 -145.7233429
v -12.81857872 -11.66666698 -144.8483429
v -13.15650082 -11.66666698 -144.3832397
v -14.49304199 -13.66666698 -145.5162354
v -13.58373928 -11.66666698 -143.9985504
v -14.70014858 -13.66666698 -145.3573151
v -14.08162308 -11.66666698 -143.7111053
v -14.94132996 -13.66666698 -145.2574158
v -14.62839127 -11.66666698 -143.5334473
v -15.20014858 -13.66666698 -145.2233429
v -15.20014858 -11.66666698 -143.4733429
v -15.7719059 -11.66666698 -143.5334473
v -15.45896816 -13.66666698 -145.2574158
v -16.31867409 -11.66666698 -143.7111053
v -15.70014858 -13.66666698 -145.3573151
v -16.81655884 -11.66666698 -143.9985504
v -15.90725517 -13.66666698 -145.5162354
v -17.2437973 -11.66666698 -144.3832397
v -16.06617355 -13.66666698 -145.7233429
v -17.58171844 -11.66666698 -144.8483429
v -17.81555367 -11.66666698 -145.3735504
v -16.16607475 -13.66666698 -145.9645233
v -17.93508339 -11.66666698 -145.9358978
v -16.20014954 -13.66666698 -146.2233429
v -17.93508339 -11.66666698 -146.5108032
v -16.16607475 -13.66666698 -146.4821625
v -17.81555367 -11.66666698 -147.0731506
v -16.06617355 -13.66666698 -146.7233429
v -17.58171844 -11.66666698 -147.5983429
v -17.2437973 -11.66666698 -148.0634613
v -15.90725517 -13.66666698 -146.9304504
v -16.81655884 -11.66666698 -148.4481506
v -15.70014858 -13.66666698 -147.0893707
v -16.31867409 -11.66666698 -148.7355957
v -15.45896816 -13.66666698 -147.18927
v -15.7719059 -11.66666698 -148.9132538
v -15.20014858 -25.75 -145.2233429
v -15.45896816 -25.75 -145.2574158
v -15.70014858 -25.75 -145.3573151
v -15.90725517 -25.75 -145.5162354
v -16.06617355 -25.75 -145.7233429
v -16.16607475 -25.75 -145.9645233
v -16.20014954 -25.75 -146.2233429
v -16.16607475 -25.75 -146.4821625
v -16.06617355 -25.75 -146.7233429
v -15.90725517 -25.75 -146.9304504
v -15.70014858 -25.75 -147.0893707
v -15.45896816 -25.75 -147.18927
v -15.20014858 -25.75 -147.2233429
v -14.94132996 -25.75 -145.2574158
v -14.94132996 -25.75 -147.18927
v -14.70014858 -25.75 -145.3573151
v -14.70014858 -25.75 -147.0893707
v -14.49304199 -25.75 -145.5162354
v -14.49304199 -25.75 -146.9304504
v -14.33412361 -25.75 -145.7233429
v -14.33412361 -25.75 -146.7233429
v -14.23422337 -25.75 -145.9645233
v -14.23422337 -25.75 -146.4821625
v -14.20014858 -25.75 -146.2233429
v -15.20014858 -11.66666698 -147.2233429
v -15.20014858 -11.66666698 -145.2233429
vn 9.70886568e-17 0 -1
vn 0.1913901865 -0.1512105167 -0.9697964787
vn 0.03157050535 -0.2235146761 -0.9741891623
vn 0.2939879596 -0.1631289274 -0.941785574
vn 0.3991176188 -0.1251944751 -0.9083124399
vn 0.5233748555 -0.163236171 -0.8363209367
vn 0.58965379 -0.08334465325 -0.8033443093
vn 0.718503654 -0.163187921 -0.6761081219
vn 0.7525548339 -0.02710677311 -0.6579714417
vn 0.8594585061 -0.2235146463 -0.4597524107
vn 0.8401677012 0.2425350994 -0.4850720763
vn 0.9397560358 0.1186938882 -0.3205781877
vn 0.9626047611 -0.1631291807 -0.2162889838
vn 0.4191325903 0.9067531228 -0.04611555487
vn 0.9859626293 -0.1632360965 0.0350952521
vn 0.9741027355 0.199090451 0.1071767956
vn 0.9447795153 -0.1631878167 0.2841854692
vn 0.9397566915 0.1186978295 0.3205747604
vn 0.8278872371 -0.2235141546 0.5144357085
vn 0.8401677012 0.2425350994 0.4850720763
vn 0.7525500655 -0.02711083181 0.6579767466
vn 0.6686167121 -0.1631280929 0.7254936099
vn 0.5896538496 -0.08334354311 0.8033443689
vn 0.4625867009 -0.163235113 0.8714171648
vn 0.3991176784 -0.1251931936 0.9083125591
vn 0.226274699 -0.1631864607 0.9602968097
vn 0.1914005727 -0.1512088478 0.9697946906
vn -0.03157047927 -0.2235139012 0.9741893411
vn -9.70886568e-17 1.941773136e-16 1
vn -0.1914004236 -0.1512092501 0.969794631
vn -0.2939883173 -0.1631277353 0.9417856336
vn -0.3991177082 -0.1251926422 0.9083126187
vn -0.523375392 -0.1632351279 0.8363208175
vn -0.5896535516 -0.08334359527 0.8033446074
vn -0.7185037732 -0.1631869674 0.6761081815
vn -0.7525503635 -0.02711074613 0.6579763889
vn -0.8594578505 -0.2235141546 0.4597538412
vn -0.8401679993 0.2425353825 0.4850714207
vn -0.9397565126 0.1186978742 0.3205753565
vn -0.9626045823 -0.1631287783 0.2162900865
vn -0.4191324711 0.9067531824 0.04611554369
vn -0.9859626293 -0.1632360071 -0.0350952521
vn -0.9741026759 0.1990907341 -0.1071767956
vn -0.9447789192 -0.1631879956 -0.2841874063
vn -0.9397557974 0.1186939403 -0.3205788136
vn -0.8278868198 -0.2235143185 -0.5144363642
vn -0.8401679993 0.2425353825 -0.4850714207
vn -0.7525551915 -0.02710668556 -0.6579710841
vn -0.6686165929 -0.1631291509 -0.7254934311
vn -0.589653492 -0.0833447054 -0.8033445477
vn -0.4625874162 -0.1632366031 -0.8714165092
vn -0.3991176486 -0.1251939088 -0.9083124995
vn -0.2262744308 -0.163187623 -0.9602966905
vn -0.1913900375 -0.151210919 -0.9697964191
vn 0.04326597601 -0.1613384932 0.9859502912
vn -0.2139080912 -0.1457624733 0.9659175277
vn -0.4585876465 -0.1131362543 0.8814179301
vn -0.6736832857 -0.07185494155 0.7355186939
vn -0.8428112864 -0.03304813802 0.5371935964
vn -0.9536230564 -0.007384483702 0.3009127975
vn -0.9990366697 -0.001878177049 0.04384258389
vn -0.976185143 -0.018019462 -0.2161892951
vn -0.8859392405 -0.05142296478 -0.4609418213
vn -0.7342401743 -0.09291286021 -0.6725016832
vn -0.5328475237 -0.131149292 -0.8359864354
vn -0.2972283661 -0.1560390294 -0.9419698119
vn -0.04326592386 -0.1613381207 -0.9859503508
vn 0.2972280383 -0.1560386568 0.9419699907
vn 0.2139083445 -0.1457628161 -0.9659174085
vn 0.5328469872 -0.1311495304 0.835986793
vn 0.458586663 -0.1131361797 -0.8814184666
vn 0.7342401743 -0.09291286021 0.6725016832
vn 0.6736832857 -0.07185494155 -0.7355186939
vn 0.8859402537 -0.05142292008 0.4609398842
vn 0.8428118229 -0.03304800391 -0.5371927023
vn 0.976185441 -0.01801931299 0.2161881179
vn 0.9536237717 -0.007384436671 -0.3009105623
vn 0.9990366697 -0.001878177049 -0.04384258389
vn 0 1 0
vn 0 1 0
f 1//1 2//2 3//3 
f 3//3 2//2 4//4 
f 4//4 2//2 5//5 
f 4//4 5//5 6//6 
f 6//6 5//5 7//7 
f 6//6 7//7 8//8 
f 8//8 7//7 9//9 
f 8//8 9//9 10//10 
f 10//10 9//9 11//11 
f 10//10 11//11 12//12 
f 10//10 12//12 13//13 
f 13//13 12//12 14//14 
f 13//13 14//14 15//15 
f 15//15 14//14 16//16 
f 15//15 16//16 17//17 
f 17//17 16//16 18//18 
f 17//17 18//18 19//19 
f 19//19 18//18 20//20 
f 19//19 20//20 21//21 
f 19//19 21//21 22//22 
f 22//22 21//21 23//23 
f 22//22 23//23 24//24 
f 24//24 23//23 25//25 
f 24//24 25//25 26//26 
f 26//26 25//25 27//27 
f 26//26 27//27 28//28 
f 28//28 27//27 29//29 
f 29//29 30//30 28//28 
f 28//28 30//30 31//31 
f 31//31 30//30 32//32 
f 31//31 32//32 33//33 
f 33//33 32//32 34//34 
f 33//33 34//34 35//35 
f 35//35 34//34 36//36 
f 35//35 36//36 37//37 
f 37//37 36//36 38//38 
f 37//37 38//38 39//39 
f 37//37 39//39 40//40 
f 40//40 39//39 41//41 
f 40//40 41//41 42//42 
f 42//42 41//41 43//43 
f 42//42 43//43 44//44 
f 44//44 43//43 45//45 
f 44//44 45//45 46//46 
f 46//46 45//45 47//47 
f 46//46 47//47 48//48 
f 46//46 48//48 49//49 
f 49//49 48//48 50//50 
f 49//49 50//50 51//51 
f 51//51 50//50 52//52 
f 51//51 52//52 53//53 
f 53//53 52//52 54//54 
f 53//53 54//54 3//3 
f 3//3 54//54 1//1 
f 55//55 28//28 56//56 
f 56//56 28//28 31//31 
f 56//56 31//31 57//57 
f 57//57 31//31 33//33 
f 57//57 33//33 58//58 
f 58//58 33//33 35//35 
f 58//58 35//35 59//59 
f 59//59 35//35 37//37 
f 59//59 37//37 60//60 
f 60//60 37//37 40//40 
f 60//60 40//40 61//61 
f 61//61 40//40 42//42 
f 61//61 42//42 62//62 
f 62//62 42//42 44//44 
f 62//62 44//44 63//63 
f 63//63 44//44 46//46 
f 63//63 46//46 64//64 
f 64//64 46//46 49//49 
f 64//64 49//49 65//65 
f 65//65 49//49 51//51 
f 65//65 51//51 66//66 
f 66//66 51//51 53//53 
f 66//66 53//53 67//67 
f 67//67 53//53 3//3 
f 56//56 66//66 55//55 
f 55//55 66//66 67//67 
f 55//55 67//67 68//68 
f 68//68 67//67 69//69 
f 68//68 69//69 70//70 
f 70//70 69//69 71//71 
f 70//70 71//71 72//72 
f 72//72 71//71 73//73 
f 72//72 73//73 74//74 
f 74//74 73//73 75//75 
f 74//74 75//75 76//76 
f 76//76 75//75 77//77 
f 76//76 77//77 78//78 
f 66//66 56//56 65//65 
f 65//65 56//56 57//57 
f 65//65 57//57 64//64 
f 64//64 57//57 58//58 
f 64//64 58//58 63//63 
f 63//63 58//58 59//59 
f 63//63 59//59 62//62 
f 62//62 59//59 60//60 
f 62//62 60//60 61//61 
f 1//1 54//54 79//79 
f 79//79 54//54 52//52 
f 79//79 52//52 50//50 
f 50//50 48//48 79//79 
f 79//79 48//48 47//47 
f 79//79 47//47 45//45 
f 45//45 43//43 79//79 
f 79//79 43//43 41//41 
f 79//79 41//41 80//80 
f 80//80 41//41 39//39 
f 80//80 39//39 38//38 
f 38//38 36//36 80//80 
f 80//80 36//36 34//34 
f 80//80 34//34 32//32 
f 32//32 30//30 80//80 
f 80//80 30//30 29//29 
f 29//29 27//27 80//80 
f 80//80 27//27 25//25 
f 80//80 25//25 23//23 
f 23//23 21//21 80//80 
f 80//80 21//21 20//20 
f 80//80 20//20 18//18 
f 18//18 16//16 80//80 
f 80//80 16//16 14//14 
f 80//80 14//14 79//79 
f 79//79 14//14 12//12 
f 79//79 12//12 11//11 
f 11//11 9//9 79//79 
f 79//79 9//9 7//7 
f 79//79 7//7 5//5 
f 5//5 2//2 79//79 
f 79//79 2//2 1//1 
f 67//67 3//3 69//69 
f 69//69 3//3 4//4 
f 69//69 4//4 71//71 
f 71//71 4//4 6//6 
f 71//71 6//6 73//73 
f 73//73 6//6 8//8 
f 73//73 8//8 75//75 
f 75//75 8//8 10//10 
f 75//75 10//10 77//77 
f 77//77 10//10 13//13 
f 77//77 13//13 78//78 
f 78//78 13//13 15//15 
f 78//78 15//15 76//76 
f 76//76 15//15 17//17 
f 76//76 17//17 74//74 
f 74//74 17//17 19//19 
f 74//74 19//19 72//72 
f 72//72 19//19 22//22 
f 72//72 22//22 70//70 
f 70//70 22//22 24//24 
f 70//70 24//24 68//68 
f 68//68 24//24 26//26 
f 68//68 26//26 55//55 
f 55//55 26//26 28//28 
