v 86.21651459 -3.895833254 -211.2233429
v 86.21651459 -25.75 -211.2233429
v 86.21651459 -3.895833254 -211.8900146
v 86.21651459 -25.75 -211.8900146
v 74.88318634 -25.75 -211.2233429
v 74.88318634 -25.75 -211.8900146
v 77.19525146 -25.75 -211.2233429
v 77.19525146 -25.75 -211.8900146
v 77.19525146 -18.72916603 -211.2233429
v 77.19525146 -18.72916603 -211.8900146
v 83.23692322 -25.75 -211.8900146
v 83.23692322 -25.75 -211.2233429
v 83.23692322 -18.72916603 -211.2233429
v 83.23692322 -18.72916603 -211.8900146
v 74.88318634 -3.895833254 -211.8900146
v 74.88318634 -3.895833254 -211.2233429
vn 0.06231518462 0.03231596202 0.9975332022
vn 0.3204807639 -0.04369426519 0.9462467432
vn 0.1237192824 0.06415944546 -0.9902409315
vn 0.166922763 -0.02275820635 -0.985707283
vn -0.2131623775 -0.02255154774 0.9767565131
vn -0.3996684551 -0.04228299111 -0.9156840444
vn 0.4929442108 -0.1623338759 0.8547828197
vn 0.2759109735 -0.09086159617 -0.9568789601
vn 0.02990776487 -0.0257366728 0.9992212653
vn 0.05967633426 -0.0513535589 -0.9968959689
vn -0.4024580419 -0.1708002985 -0.8993635178
vn -0.2174158394 -0.09226971865 0.9717081189
vn -0.0272138007 -0.02341842093 0.9993552566
vn -0.01361348201 -0.01171487477 -0.9998387098
vn -0.04719740152 0.02447604947 -0.9985856414
vn -0.09399709851 0.04874585196 0.9943783879
f 1//1 2//2 3//3 
f 3//3 2//2 4//4 
f 5//5 6//6 7//7 
f 7//7 6//6 8//8 
f 9//9 7//7 10//10 
f 10//10 7//7 8//8 
f 4//4 2//2 11//11 
f 11//11 2//2 12//12 
f 9//9 10//10 13//13 
f 13//13 10//10 14//14 
f 3//3 14//14 15//15 
f 15//15 14//14 10//10 
f 15//15 10//10 6//6 
f 6//6 10//10 8//8 
f 3//3 4//4 14//14 
f 14//14 4//4 11//11 
f 2//2 1//1 13//13 
f 13//13 1//1 16//16 
f 13//13 16//16 9//9 
f 9//9 16//16 5//5 
f 9//9 5//5 7//7 
f 13//13 12//12 2//2 
f 14//14 11//11 13//13 
f 13//13 11//11 12//12 
f 1//1 3//3 16//16 
f 16//16 3//3 15//15 
f 5//5 16//16 6//6 
f 6//6 16//16 15//15 
