v 44.79985046 -11.66666698 -208.7233429
v 45.3561554 -11.66666698 -208.660675
v 44.79985046 -13.66666698 -207.4733429
v 45.12337494 -13.66666698 -207.4307556
v 45.88455963 -11.66666698 -208.475769
v 45.42485046 -13.66666698 -207.3058777
v 46.35857391 -11.66666698 -208.1779327
v 45.68373489 -13.66666698 -207.1072388
v 46.75442886 -11.66666698 -207.782074
v 45.88238144 -13.66666698 -206.8483429
v 47.0522728 -11.66666698 -207.3080597
v 46.00725937 -13.66666698 -206.546875
v 47.23717117 -11.66666698 -206.7796478
v 46.04985046 -13.66666698 -206.2233429
v 47.29985046 -11.66666698 -206.2233429
v 47.23717117 -11.66666698 -205.6670532
v 46.00725937 -13.66666698 -205.899826
v 47.0522728 -11.66666698 -205.1386414
v 45.88238144 -13.66666698 -205.5983429
v 46.75442886 -11.66666698 -204.6646271
v 45.68373489 -13.66666698 -205.3394623
v 46.35857391 -11.66666698 -204.2687683
v 45.42485046 -13.66666698 -205.1408234
v 45.88455963 -11.66666698 -203.970932
v 45.12337494 -13.66666698 -205.0159454
v 45.3561554 -11.66666698 -203.786026
v 44.79985046 -13.66666698 -204.9733429
v 44.79985046 -11.66666698 -203.7233429
v 44.24354935 -11.66666698 -203.786026
v 44.47632599 -13.66666698 -205.0159454
v 43.7151413 -11.66666698 -203.970932
v 44.17485046 -13.66666698 -205.1408234
v 43.24112701 -11.66666698 -204.2687683
v 43.91596603 -13.66666698 -205.3394623
v 42.84527206 -11.66666698 -204.6646271
v 43.71731949 -13.66666698 -205.5983429
v 42.54742813 -11.66666698 -205.1386414
v 43.59244537 -13.66666698 -205.899826
v 42.36252975 -11.66666698 -205.6670532
v 43.54985046 -13.66666698 -206.2233429
v 42.29985046 -11.66666698 -206.2233429
v 42.36252975 -11.66666698 -206.7796478
v 43.59244537 -13.66666698 -206.546875
v 42.54742813 -11.66666698 -207.3080597
v 43.71731949 -13.66666698 -206.8483429
v 42.84527206 -11.66666698 -207.782074
v 43.91596603 -13.66666698 -207.1072388
v 43.24112701 -11.66666698 -208.1779327
v 44.17485046 -13.66666698 -207.3058777
v 43.7151413 -11.66666698 -208.475769
v 44.47632599 -13.66666698 -207.4307556
v 44.24354935 -11.66666698 -208.660675
v 44.79985046 -25.75 -204.9733429
v 44.47632599 -25.75 -205.0159454
v 44.17485046 -25.75 -205.1408234
v 43.91596603 -25.75 -205.3394623
v 43.71731949 -25.75 -205.5983429
v 43.59244537 -25.75 -205.899826
v 43.54985046 -25.75 -206.2233429
v 43.59244537 -25.75 -206.546875
v 43.71731949 -25.75 -206.8483429
v 43.91596603 -25.75 -207.1072388
v 44.17485046 -25.75 -207.3058777
v 44.47632599 -25.75 -207.4307556
v 44.79985046 -25.75 -207.4733429
v 45.12337494 -25.75 -205.0159454
v 45.12337494 -25.75 -207.4307556
v 45.42485046 -25.75 -205.1408234
v 45.42485046 -25.75 -207.3058777
v 45.68373489 -25.75 -205.3394623
v 45.68373489 -25.75 -207.1072388
v 45.88238144 -25.75 -205.5983429
v 45.88238144 -25.75 -206.8483429
v 46.00725937 -25.75 -205.899826
v 46.00725937 -25.75 -206.546875
v 46.04985046 -25.75 -206.2233429
v 44.79985046 -11.66666698 -207.4733429
v 44.79985046 -11.66666698 -204.9733429
vn -7.483936444e-17 0 -1
vn 0.2001523525 -0.1277863979 -0.971395731
vn 0.03338395059 -0.1431382895 -0.9891394973
vn 0.2977371812 -0.10616377 -0.9487264156
vn 0.4205983281 -0.0920689404 -0.9025632143
vn 0.5306352973 -0.1062944382 -0.8409088254
vn 0.6197929978 -0.03455484658 -0.7840042114
vn 0.7282108665 -0.10634505 -0.6770521402
vn 0.7837837934 0.0419052653 -0.6196183562
vn 0.8772478104 -0.1063174084 -0.468116343
vn 0.8984622955 0.1321605891 -0.4186873138
vn 0.9678585529 -0.1062081829 -0.2279684842
vn 0.9534419179 0.2288089097 -0.1964560747
vn 0.9891393781 -0.1431381851 0.03338719159
vn 0.2849941254 0.9585292339 0
vn 0.953440249 0.2288124263 0.1964599937
vn 0.9487264156 -0.1061628461 0.297737509
vn 0.898465097 0.1321529895 0.4186837077
vn 0.8409022093 -0.1062941998 0.5306459069
vn 0.7837796211 0.04190918058 0.619623363
vn 0.6770498157 -0.1063462421 0.728212893
vn 0.6197928786 -0.03455945104 0.7840040922
vn 0.4681085646 -0.1063165814 0.8772520423
vn 0.4205981493 -0.09207418561 0.9025627971
vn 0.227991119 -0.1062085554 0.9678531885
vn 0.200172469 -0.1277897954 0.9713911414
vn -0.0333958976 -0.1431386918 0.9891390204
vn 2.494645371e-17 0 1
vn -0.200172469 -0.1277897954 0.9713911414
vn -0.297750771 -0.1061637476 0.9487221837
vn -0.420597136 -0.0920740217 0.9025632739
vn -0.5306352973 -0.1062944382 0.8409088254
vn -0.6197928786 -0.03455945104 0.7840040922
vn -0.728197813 -0.1063460857 0.6770660877
vn -0.7837796211 0.04190918058 0.619623363
vn -0.8772537112 -0.1063160822 0.4681055844
vn -0.8984661102 0.1321530491 0.4186815321
vn -0.9678570032 -0.1062094122 0.2279744148
vn -0.9534400702 0.2288109809 0.1964625418
vn -0.9891394973 -0.1431367546 -0.03338978067
vn -0.2849941254 0.9585292339 0
vn -0.9534417391 0.2288074791 -0.1964586228
vn -0.9487259984 -0.1061646119 -0.2977382243
vn -0.8984633088 0.1321606487 -0.4186851382
vn -0.8409076333 -0.1062934771 -0.5306373835
vn -0.7837837934 0.0419052653 -0.6196183562
vn -0.6770579219 -0.1063462868 -0.7282053828
vn -0.6197929978 -0.03455484658 -0.7840042114
vn -0.4681085646 -0.1063165814 -0.8772520423
vn -0.4205973446 -0.09206877649 -0.9025636911
vn -0.2279643863 -0.1062092036 -0.9678593874
vn -0.2001523525 -0.1277863979 -0.971395731
vn 0.04296408221 -0.2002121657 0.9788100719
vn -0.212667048 -0.1811221689 0.9601913691
vn -0.4569420516 -0.1409138888 0.8782637715
vn -0.6726916432 -0.08969023079 0.7344669104
vn -0.8425549865 -0.04129707068 0.5370248556
vn -0.9536101222 -0.009230351076 0.3009028137
vn -0.9990355968 -0.002347816247 0.04384435713
vn -0.9760963321 -0.02252178825 -0.2161683589
vn -0.8852828741 -0.06423087418 -0.4605959952
vn -0.7324702144 -0.1158593968 -0.6708680987
vn -0.5302734971 -0.1631499529 -0.8319808245
vn -0.2952171862 -0.1937260777 -0.9355837703
vn -0.04294871911 -0.2002122998 -0.9788107276
vn 0.2952312529 -0.1937251985 0.9355795383
vn 0.2126375437 -0.181123361 -0.9601976871
vn 0.5302734971 -0.1631499529 0.8319808245
vn 0.4569420516 -0.1409138888 -0.8782637715
vn 0.7324557304 -0.1158620417 0.6708834171
vn 0.6727002263 -0.08968928456 -0.7344591618
vn 0.8852830529 -0.06423015893 0.4605957568
vn 0.8425577283 -0.04129705206 -0.5370205045
vn 0.9760963917 -0.02252255939 0.2161679268
vn 0.9536076188 -0.009230478667 -0.3009108901
vn 0.9990358353 -0.002347569447 -0.04383974895
vn 0 1 0
vn 0 1 0
f 1//1 2//2 3//3 
f 3//3 2//2 4//4 
f 4//4 2//2 5//5 
f 4//4 5//5 6//6 
f 6//6 5//5 7//7 
f 6//6 7//7 8//8 
f 8//8 7//7 9//9 
f 8//8 9//9 10//10 
f 10//10 9//9 11//11 
f 10//10 11//11 12//12 
f 12//12 11//11 13//13 
f 12//12 13//13 14//14 
f 14//14 13//13 15//15 
f 14//14 15//15 16//16 
f 14//14 16//16 17//17 
f 17//17 16//16 18//18 
f 17//17 18//18 19//19 
f 19//19 18//18 20//20 
f 19//19 20//20 21//21 
f 21//21 20//20 22//22 
f 21//21 22//22 23//23 
f 23//23 22//22 24//24 
f 23//23 24//24 25//25 
f 25//25 24//24 26//26 
f 25//25 26//26 27//27 
f 27//27 26//26 28//28 
f 28//28 29//29 27//27 
f 27//27 29//29 30//30 
f 30//30 29//29 31//31 
f 30//30 31//31 32//32 
f 32//32 31//31 33//33 
f 32//32 33//33 34//34 
f 34//34 33//33 35//35 
f 34//34 35//35 36//36 
f 36//36 35//35 37//37 
f 36//36 37//37 38//38 
f 38//38 37//37 39//39 
f 38//38 39//39 40//40 
f 40//40 39//39 41//41 
f 40//40 41//41 42//42 
f 40//40 42//42 43//43 
f 43//43 42//42 44//44 
f 43//43 44//44 45//45 
f 45//45 44//44 46//46 
f 45//45 46//46 47//47 
f 47//47 46//46 48//48 
f 47//47 48//48 49//49 
f 49//49 48//48 50//50 
f 49//49 50//50 51//51 
f 51//51 50//50 52//52 
f 51//51 52//52 3//3 
f 3//3 52//52 1//1 
f 53//53 27//27 54//54 
f 54//54 27//27 30//30 
f 54//54 30//30 55//55 
f 55//55 30//30 32//32 
f 55//55 32//32 56//56 
f 56//56 32//32 34//34 
f 56//56 34//34 57//57 
f 57//57 34//34 36//36 
f 57//57 36//36 58//58 
f 58//58 36//36 38//38 
f 58//58 38//38 59//59 
f 59//59 38//38 40//40 
f 59//59 40//40 60//60 
f 60//60 40//40 43//43 
f 60//60 43//43 61//61 
f 61//61 43//43 45//45 
f 61//61 45//45 62//62 
f 62//62 45//45 47//47 
f 62//62 47//47 63//63 
f 63//63 47//47 49//49 
f 63//63 49//49 64//64 
f 64//64 49//49 51//51 
f 64//64 51//51 65//65 
f 65//65 51//51 3//3 
f 54//54 64//64 53//53 
f 53//53 64//64 65//65 
f 53//53 65//65 66//66 
f 66//66 65//65 67//67 
f 66//66 67//67 68//68 
f 68//68 67//67 69//69 
f 68//68 69//69 70//70 
f 70//70 69//69 71//71 
f 70//70 71//71 72//72 
f 72//72 71//71 73//73 
f 72//72 73//73 74//74 
f 74//74 73//73 75//75 
f 74//74 75//75 76//76 
f 64//64 54//54 63//63 
f 63//63 54//54 55//55 
f 63//63 55//55 62//62 
f 62//62 55//55 56//56 
f 62//62 56//56 61//61 
f 61//61 56//56 57//57 
f 61//61 57//57 60//60 
f 60//60 57//57 58//58 
f 60//60 58//58 59//59 
f 1//1 52//52 77//77 
f 77//77 52//52 50//50 
f 77//77 50//50 48//48 
f 48//48 46//46 77//77 
f 77//77 46//46 44//44 
f 77//77 44//44 42//42 
f 42//42 41//41 77//77 
f 77//77 41//41 78//78 
f 77//77 78//78 15//15 
f 15//15 78//78 16//16 
f 16//16 78//78 18//18 
f 18//18 78//78 20//20 
f 20//20 78//78 22//22 
f 22//22 78//78 24//24 
f 24//24 78//78 26//26 
f 26//26 78//78 28//28 
f 41//41 39//39 78//78 
f 78//78 39//39 37//37 
f 78//78 37//37 35//35 
f 35//35 33//33 78//78 
f 78//78 33//33 31//31 
f 78//78 31//31 29//29 
f 29//29 28//28 78//78 
f 15//15 13//13 77//77 
f 77//77 13//13 11//11 
f 77//77 11//11 9//9 
f 9//9 7//7 77//77 
f 77//77 7//7 5//5 
f 77//77 5//5 2//2 
f 2//2 1//1 77//77 
f 65//65 3//3 67//67 
f 67//67 3//3 4//4 
f 67//67 4//4 69//69 
f 69//69 4//4 6//6 
f 69//69 6//6 71//71 
f 71//71 6//6 8//8 
f 71//71 8//8 73//73 
f 73//73 8//8 10//10 
f 73//73 10//10 75//75 
f 75//75 10//10 12//12 
f 75//75 12//12 76//76 
f 76//76 12//12 14//14 
f 76//76 14//14 74//74 
f 74//74 14//14 17//17 
f 74//74 17//17 72//72 
f 72//72 17//17 19//19 
f 72//72 19//19 70//70 
f 70//70 19//19 21//21 
f 70//70 21//21 68//68 
f 68//68 21//21 23//23 
f 68//68 23//23 66//66 
f 66//66 23//23 25//25 
f 66//66 25//25 53//53 
f 53//53 25//25 27//27 
