v -75.20014954 -11.66666698 -117.8066788
v -74.62839508 -11.66666698 -117.7465897
v -75.20014954 -13.66666698 -116.0566788
v -74.94132996 -13.66666698 -116.0226059
v -74.08161926 -11.66666698 -117.5689316
v -74.70014954 -13.66666698 -115.9227066
v -73.58374023 -11.66666698 -117.2814789
v -74.49304199 -13.66666698 -115.7637863
v -73.15650177 -11.66666698 -116.8967896
v -74.3341217 -13.66666698 -115.5566788
v -72.81858063 -11.66666698 -116.4316788
v -72.58473969 -11.66666698 -115.9064789
v -74.23422241 -13.66666698 -115.3154984
v -72.46520996 -11.66666698 -115.3441315
v -74.20014954 -13.66666698 -115.0566788
v -72.46520996 -11.66666698 -114.7692261
v -74.23422241 -13.66666698 -114.7978592
v -72.58473969 -11.66666698 -114.2068863
v -74.3341217 -13.66666698 -114.5566788
v -72.81858063 -11.66666698 -113.6816788
v -73.15650177 -11.66666698 -113.2165756
v -74.49304199 -13.66666698 -114.3495712
v -73.58374023 -11.66666698 -112.8318863
v -74.70014954 -13.66666698 -114.1906586
v -74.08161926 -11.66666698 -112.5444336
v -74.94132996 -13.66666698 -114.0907516
v -74.62839508 -11.66666698 -112.3667755
v -75.20014954 -13.66666698 -114.0566788
v -75.20014954 -11.66666698 -112.3066788
v -75.77190399 -11.66666698 -112.3667755
v -75.45896912 -13.66666698 -114.0907516
v -76.31867218 -11.66666698 -112.5444336
v -75.70014954 -13.66666698 -114.1906586
v -76.81655884 -11.66666698 -112.8318863
v -75.90725708 -13.66666698 -114.3495712
v -77.2437973 -11.66666698 -113.2165756
v -76.06617737 -13.66666698 -114.5566788
v -77.58171844 -11.66666698 -113.6816788
v -77.81555176 -11.66666698 -114.2068863
v -76.16607666 -13.66666698 -114.7978592
v -77.93508148 -11.66666698 -114.7692261
v -76.20014954 -13.66666698 -115.0566788
v -77.93508148 -11.66666698 -115.3441315
v -76.16607666 -13.66666698 -115.3154984
v -77.81555176 -11.66666698 -115.9064789
v -76.06617737 -13.66666698 -115.5566788
v -77.58171844 -11.66666698 -116.4316788
v -77.2437973 -11.66666698 -116.8967896
v -75.90725708 -13.66666698 -115.7637863
v -76.81655884 -11.66666698 -117.2814789
v -75.70014954 -13.66666698 -115.9227066
v -76.31867218 -11.66666698 -117.5689316
v -75.45896912 -13.66666698 -116.0226059
v -75.77190399 -11.66666698 -117.7465897
v -75.20014954 -25.75 -114.0566788
v -75.45896912 -25.75 -114.0907516
v -75.70014954 -25.75 -114.1906586
v -75.90725708 -25.75 -114.3495712
v -76.06617737 -25.75 -114.5566788
v -76.16607666 -25.75 -114.7978592
v -76.20014954 -25.75 -115.0566788
v -76.16607666 -25.75 -115.3154984
v -76.06617737 -25.75 -115.5566788
v -75.90725708 -25.75 -115.7637863
v -75.70014954 -25.75 -115.9227066
v -75.45896912 -25.75 -116.0226059
v -75.20014954 -25.75 -116.0566788
v -74.94132996 -25.75 -114.0907516
v -74.94132996 -25.75 -116.0226059
v -74.70014954 -25.75 -114.1906586
v -74.70014954 -25.75 -115.9227066
v -74.49304199 -25.75 -114.3495712
v -74.49304199 -25.75 -115.7637863
v -74.3341217 -25.75 -114.5566788
v -74.3341217 -25.75 -115.5566788
v -74.23422241 -25.75 -114.7978592
v -74.23422241 -25.75 -115.3154984
v -74.20014954 -25.75 -115.0566788
v -75.20014954 -11.66666698 -116.0566788
v -75.20014954 -11.66666698 -114.0566788
vn 6.068071656e-18 -9.708914649e-17 -1
vn 0.1913894117 -0.151210472 -0.969796598
vn 0.03157047555 -0.2235138267 -0.9741893411
vn 0.2939878404 -0.1631299555 -0.9417853951
vn 0.3991217613 -0.1251921505 -0.9083109498
vn 0.5233757496 -0.1632357836 -0.8363204598
vn 0.5896586776 -0.0833427757 -0.8033409119
vn 0.718501091 -0.1631870568 -0.6761110425
vn 0.7525520921 -0.02710871585 -0.6579744816
vn 0.8594581485 -0.2235146016 -0.4597530961
vn 0.8401660323 0.2425348014 -0.485075146
vn 0.9397553802 0.1186955869 -0.320579499
vn 0.9626058936 -0.1631294042 -0.216283828
vn 0.419132024 0.9067534208 -0.04611492157
vn 0.9859626293 -0.1632364392 0.03509328514
vn 0.9741030931 0.199089095 0.1071760952
vn 0.9447807074 -0.1631873995 0.2841817737
vn 0.9397553802 0.1186955869 0.320579499
vn 0.8278856874 -0.223513931 0.5144383311
vn 0.8401660323 0.2425348014 0.485075146
vn 0.7525497079 -0.02711074613 0.6579771638
vn 0.6686052084 -0.1631290913 0.7255039811
vn 0.5896552801 -0.08334137499 0.8033435941
vn 0.4625945985 -0.1632352918 0.8714129329
vn 0.3991261423 -0.1251948476 0.9083086252
vn 0.2262828052 -0.1631880403 0.9602946043
vn 0.1913946122 -0.1512096375 0.9697957039
vn -0.03157047927 -0.2235135436 0.9741894007
vn -2.245186558e-16 0 1
vn -0.1913956106 -0.1512103379 0.9697954059
vn -0.2940037847 -0.1631280631 0.941780746
vn -0.3991261423 -0.1251948476 0.9083086252
vn -0.5233694315 -0.1632367522 0.8363242149
vn -0.5896526575 -0.08334137499 0.8033454418
vn -0.7184967995 -0.1631870568 0.6761156321
vn -0.7525497079 -0.02711074613 0.6579771638
vn -0.8594587445 -0.2235139459 0.4597522616
vn -0.8401683569 0.2425370812 0.4850699902
vn -0.9397567511 0.1186977625 0.3205745816
vn -0.9626060724 -0.1631277502 0.2162841707
vn -0.4191313088 0.9067537189 0.04611509666
vn -0.9859627485 -0.1632357538 -0.03509329259
vn -0.9741027355 0.1990911812 -0.1071754694
vn -0.944780767 -0.1631876975 -0.284181416
vn -0.9397567511 0.1186977625 -0.3205745816
vn -0.8278862834 -0.2235135883 -0.5144374967
vn -0.8401683569 0.2425370812 -0.4850699902
vn -0.7525520921 -0.02710871585 -0.6579744816
vn -0.6686144471 -0.1631283164 -0.7254955769
vn -0.5896561146 -0.08334276825 -0.8033428192
vn -0.4625878036 -0.1632368118 -0.8714162707
vn -0.3991217613 -0.1251921505 -0.9083109498
vn -0.2262744308 -0.1631875485 -0.9602966905
vn -0.1913904101 -0.1512111723 -0.9697962999
vn 0.04326586798 -0.1613383144 0.9859502912
vn -0.2139173597 -0.1457619816 0.9659155011
vn -0.4585948586 -0.1131355837 0.8814142346
vn -0.6736701131 -0.0718562603 0.7355306149
vn -0.842810154 -0.03304798901 0.5371953249
vn -0.9536252022 -0.007384289987 0.3009060919
vn -0.9990367889 -0.001878072158 0.04384013638
vn -0.9761867523 -0.01801907644 -0.2161822766
vn -0.8859401941 -0.05142330751 -0.4609398842
vn -0.7342371345 -0.09291291237 -0.6725050211
vn -0.5328464508 -0.131148845 -0.8359872103
vn -0.2972283661 -0.1560390294 -0.9419698119
vn -0.04326586798 -0.1613383144 -0.9859502912
vn 0.2972460687 -0.1560381353 0.9419643879
vn 0.2139081061 -0.1457622796 -0.9659175277
vn 0.5328395367 -0.1311495304 0.8359915614
vn 0.4585871398 -0.1131360903 -0.8814182281
vn 0.7342326641 -0.09291358292 0.6725098491
vn 0.6736808419 -0.07185531408 -0.7355208993
vn 0.8859401941 -0.05142330751 0.4609398842
vn 0.842810154 -0.03304798901 -0.5371953249
vn 0.9761867523 -0.01801907644 0.2161822766
vn 0.9536252022 -0.007384289987 -0.3009060919
vn 0.9990367889 -0.001878072158 -0.04384013638
vn 0 1 0
vn 0 1 0
f 1//1 2//2 3//3 
f 3//3 2//2 4//4 
f 4//4 2//2 5//5 
f 4//4 5//5 6//6 
f 6//6 5//5 7//7 
f 6//6 7//7 8//8 
f 8//8 7//7 9//9 
f 8//8 9//9 10//10 
f 10//10 9//9 11//11 
f 10//10 11//11 12//12 
f 10//10 12//12 13//13 
f 13//13 12//12 14//14 
f 13//13 14//14 15//15 
f 15//15 14//14 16//16 
f 15//15 16//16 17//17 
f 17//17 16//16 18//18 
f 17//17 18//18 19//19 
f 19//19 18//18 20//20 
f 19//19 20//20 21//21 
f 19//19 21//21 22//22 
f 22//22 21//21 23//23 
f 22//22 23//23 24//24 
f 24//24 23//23 25//25 
f 24//24 25//25 26//26 
f 26//26 25//25 27//27 
f 26//26 27//27 28//28 
f 28//28 27//27 29//29 
f 29//29 30//30 28//28 
f 28//28 30//30 31//31 
f 31//31 30//30 32//32 
f 31//31 32//32 33//33 
f 33//33 32//32 34//34 
f 33//33 34//34 35//35 
f 35//35 34//34 36//36 
f 35//35 36//36 37//37 
f 37//37 36//36 38//38 
f 37//37 38//38 39//39 
f 37//37 39//39 40//40 
f 40//40 39//39 41//41 
f 40//40 41//41 42//42 
f 42//42 41//41 43//43 
f 42//42 43//43 44//44 
f 44//44 43//43 45//45 
f 44//44 45//45 46//46 
f 46//46 45//45 47//47 
f 46//46 47//47 48//48 
f 46//46 48//48 49//49 
f 49//49 48//48 50//50 
f 49//49 50//50 51//51 
f 51//51 50//50 52//52 
f 51//51 52//52 53//53 
f 53//53 52//52 54//54 
f 53//53 54//54 3//3 
f 3//3 54//54 1//1 
f 55//55 28//28 56//56 
f 56//56 28//28 31//31 
f 56//56 31//31 57//57 
f 57//57 31//31 33//33 
f 57//57 33//33 58//58 
f 58//58 33//33 35//35 
f 58//58 35//35 59//59 
f 59//59 35//35 37//37 
f 59//59 37//37 60//60 
f 60//60 37//37 40//40 
f 60//60 40//40 61//61 
f 61//61 40//40 42//42 
f 61//61 42//42 62//62 
f 62//62 42//42 44//44 
f 62//62 44//44 63//63 
f 63//63 44//44 46//46 
f 63//63 46//46 64//64 
f 64//64 46//46 49//49 
f 64//64 49//49 65//65 
f 65//65 49//49 51//51 
f 65//65 51//51 66//66 
f 66//66 51//51 53//53 
f 66//66 53//53 67//67 
f 67//67 53//53 3//3 
f 56//56 66//66 55//55 
f 55//55 66//66 67//67 
f 55//55 67//67 68//68 
f 68//68 67//67 69//69 
f 68//68 69//69 70//70 
f 70//70 69//69 71//71 
f 70//70 71//71 72//72 
f 72//72 71//71 73//73 
f 72//72 73//73 74//74 
f 74//74 73//73 75//75 
f 74//74 75//75 76//76 
f 76//76 75//75 77//77 
f 76//76 77//77 78//78 
f 66//66 56//56 65//65 
f 65//65 56//56 57//57 
f 65//65 57//57 64//64 
f 64//64 57//57 58//58 
f 64//64 58//58 63//63 
f 63//63 58//58 59//59 
f 63//63 59//59 62//62 
f 62//62 59//59 60//60 
f 62//62 60//60 61//61 
f 1//1 54//54 79//79 
f 79//79 54//54 52//52 
f 79//79 52//52 50//50 
f 50//50 48//48 79//79 
f 79//79 48//48 47//47 
f 79//79 47//47 45//45 
f 45//45 43//43 79//79 
f 79//79 43//43 41//41 
f 79//79 41//41 80//80 
f 80//80 41//41 39//39 
f 80//80 39//39 38//38 
f 38//38 36//36 80//80 
f 80//80 36//36 34//34 
f 80//80 34//34 32//32 
f 32//32 30//30 80//80 
f 80//80 30//30 29//29 
f 29//29 27//27 80//80 
f 80//80 27//27 25//25 
f 80//80 25//25 23//23 
f 23//23 21//21 80//80 
f 80//80 21//21 20//20 
f 80//80 20//20 18//18 
f 18//18 16//16 80//80 
f 80//80 16//16 14//14 
f 80//80 14//14 79//79 
f 79//79 14//14 12//12 
f 79//79 12//12 11//11 
f 11//11 9//9 79//79 
f 79//79 9//9 7//7 
f 79//79 7//7 5//5 
f 5//5 2//2 79//79 
f 79//79 2//2 1//1 
f 67//67 3//3 69//69 
f 69//69 3//3 4//4 
f 69//69 4//4 71//71 
f 71//71 4//4 6//6 
f 71//71 6//6 73//73 
f 73//73 6//6 8//8 
f 73//73 8//8 75//75 
f 75//75 8//8 10//10 
f 75//75 10//10 77//77 
f 77//77 10//10 13//13 
f 77//77 13//13 78//78 
f 78//78 13//13 15//15 
f 78//78 15//15 76//76 
f 76//76 15//15 17//17 
f 76//76 17//17 74//74 
f 74//74 17//17 19//19 
f 74//74 19//19 72//72 
f 72//72 19//19 22//22 
f 72//72 22//22 70//70 
f 70//70 22//22 24//24 
f 70//70 24//24 68//68 
f 68//68 24//24 26//26 
f 68//68 26//26 55//55 
f 55//55 26//26 28//28 
