v -45.20014954 -11.66666698 -2.723347902
v -44.62839127 -11.66666698 -2.663253784
v -45.20014954 -13.66666698 -0.9733479619
v -44.94132996 -13.66666698 -0.9392737746
v -44.08162308 -11.66666698 -2.485597849
v -44.70014954 -13.66666698 -0.8393733501
v -43.58374023 -11.66666698 -2.198144674
v -44.49304199 -13.66666698 -0.680454731
v -43.15650177 -11.66666698 -1.813457131
v -44.3341217 -13.66666698 -0.4733479619
v -42.81858063 -11.66666698 -1.348347902
v -42.5847435 -11.66666698 -0.8231446743
v -44.23422241 -13.66666698 -0.2321669906
v -42.46521378 -11.66666698 -0.2608012259
v -44.20014954 -13.66666698 0.026652053
v -42.46521378 -11.66666698 0.3141053319
v -44.23422241 -13.66666698 0.2854711115
v -42.5847435 -11.66666698 0.8764488101
v -44.3341217 -13.66666698 0.5266520381
v -42.81858063 -11.66666698 1.401652098
v -43.15650177 -11.66666698 1.866761208
v -44.49304199 -13.66666698 0.7337588072
v -43.58374023 -11.66666698 2.25144887
v -44.70014954 -13.66666698 0.8926774859
v -44.08162308 -11.66666698 2.538902044
v -44.94132996 -13.66666698 0.9925778508
v -44.62839127 -11.66666698 2.71655798
v -45.20014954 -13.66666698 1.026652098
v -45.20014954 -11.66666698 2.776652098
v -45.77190399 -11.66666698 2.71655798
v -45.45896912 -13.66666698 0.9925778508
v -46.31867599 -11.66666698 2.538902044
v -45.70014954 -13.66666698 0.8926774859
v -46.81655884 -11.66666698 2.25144887
v -45.90725708 -13.66666698 0.7337588072
v -47.2437973 -11.66666698 1.866761208
v -46.06617355 -13.66666698 0.5266520381
v -47.58171844 -11.66666698 1.401652098
v -47.81555557 -11.66666698 0.8764488101
v -46.16607285 -13.66666698 0.2854711115
v -47.9350853 -11.66666698 0.3141053319
v -46.20014954 -13.66666698 0.026652053
v -47.9350853 -11.66666698 -0.2608012259
v -46.16607285 -13.66666698 -0.2321669906
v -47.81555557 -11.66666698 -0.8231446743
v -46.06617355 -13.66666698 -0.4733479619
v -47.58171844 -11.66666698 -1.348347902
v -47.2437973 -11.66666698 -1.813457131
v -45.90725708 -13.66666698 -0.680454731
v -46.81655884 -11.66666698 -2.198144674
v -45.70014954 -13.66666698 -0.8393733501
v -46.31867599 -11.66666698 -2.485597849
v -45.45896912 -13.66666698 -0.9392737746
v -45.77190399 -11.66666698 -2.663253784
v -45.20014954 -25.75 1.026652098
v -45.45896912 -25.75 0.9925778508
v -45.70014954 -25.75 0.8926774859
v -45.90725708 -25.75 0.7337588072
v -46.06617355 -25.75 0.5266520381
v -46.16607285 -25.75 0.2854711115
v -46.20014954 -25.75 0.026652053
v -46.16607285 -25.75 -0.2321669906
v -46.06617355 -25.75 -0.4733479619
v -45.90725708 -25.75 -0.680454731
v -45.70014954 -25.75 -0.8393733501
v -45.45896912 -25.75 -0.9392737746
v -45.20014954 -25.75 -0.9733479619
v -44.94132996 -25.75 0.9925778508
v -44.94132996 -25.75 -0.9392737746
v -44.70014954 -25.75 0.8926774859
v -44.70014954 -25.75 -0.8393733501
v -44.49304199 -25.75 0.7337588072
v -44.49304199 -25.75 -0.680454731
v -44.3341217 -25.75 0.5266520381
v -44.3341217 -25.75 -0.4733479619
v -44.23422241 -25.75 0.2854711115
v -44.23422241 -25.75 -0.2321669906
v -44.20014954 -25.75 0.026652053
v -45.20014954 -11.66666698 -0.9733479619
v -45.20014954 -11.66666698 1.026652098
vn 1.759734903e-16 2.912664667e-16 -1
vn 0.1913927346 -0.1512109935 -0.9697958827
vn 0.03157166764 -0.2235140949 -0.9741892219
vn 0.2939916551 -0.1631286889 -0.9417844415
vn 0.3991223574 -0.1251934171 -0.908310473
vn 0.5233737826 -0.163236171 -0.8363215923
vn 0.5896559954 -0.08334305882 -0.8033428192
vn 0.7184991837 -0.1631870419 -0.6761130691
vn 0.7525508404 -0.02710940503 -0.6579759121
vn 0.8594585657 -0.223514393 -0.4597524405
vn 0.8401675224 0.2425362468 -0.4850718677
vn 0.9397560954 0.1186961159 -0.320577085
vn 0.9626059532 -0.163128674 -0.2162841111
vn 0.4191316664 0.9067535996 -0.04611499235
vn 0.9859626293 -0.1632363796 0.03509334475
vn 0.9741027951 0.1990906894 0.1071757302
vn 0.944780767 -0.163187474 0.2841814756
vn 0.9397560954 0.1186961606 0.320577085
vn 0.827885747 -0.2235141098 0.5144382119
vn 0.8401675224 0.2425362319 0.4850718975
vn 0.7525508404 -0.02710942738 0.6579759121
vn 0.6686118841 -0.1631283611 0.725497961
vn 0.5896561146 -0.08334305882 0.8033427596
vn 0.4625885189 -0.1632363647 0.8714159131
vn 0.3991223276 -0.125193432 0.9083105326
vn 0.2262782156 -0.1631872803 0.960295856
vn 0.1913927794 -0.1512110084 0.9697958827
vn -0.03157172352 -0.2235141098 0.9741892219
vn 3.034025695e-17 0 1
vn -0.1913927794 -0.1512110084 0.9697958827
vn -0.2939914167 -0.1631290764 0.9417844415
vn -0.3991213441 -0.1251931638 0.9083109498
vn -0.5233738422 -0.163236171 0.8363215923
vn -0.5896561146 -0.08334305882 0.8033427596
vn -0.7185034156 -0.163187623 0.6761084795
vn -0.7525522113 -0.0271085687 0.657974422
vn -0.859460175 -0.2235148549 0.4597492516
vn -0.8401678205 0.2425347269 0.4850720763
vn -0.9397563338 0.1186943874 0.3205771446
vn -0.9626041055 -0.1631287187 0.2162922174
vn -0.4191318452 0.9067534208 0.04611615464
vn -0.9859625101 -0.1632365435 -0.03509726748
vn -0.9741027355 0.1990895569 -0.10717839
vn -0.9447795153 -0.1631875932 -0.284185648
vn -0.9397563338 0.1186943427 -0.3205771446
vn -0.8278890252 -0.2235150188 -0.5144325495
vn -0.8401678205 0.2425347418 -0.4850720763
vn -0.7525522113 -0.02710854635 -0.657974422
vn -0.6686140299 -0.1631285399 -0.7254959345
vn -0.5896559954 -0.08334305882 -0.8033428192
vn -0.4625885785 -0.1632363498 -0.8714159131
vn -0.3991213739 -0.1251931638 -0.9083109498
vn -0.226278007 -0.1631876528 -0.9602957964
vn -0.1913927346 -0.1512109935 -0.9697958827
vn 0.04326760769 -0.161338225 0.9859502316
vn -0.2139127403 -0.145762071 0.9659165144
vn -0.4585876763 -0.1131361499 0.8814179301
vn -0.6736804843 -0.07185478508 0.7355212569
vn -0.8428142667 -0.03304778412 0.5371889472
vn -0.9536238313 -0.007384469733 0.3009103835
vn -0.9990365505 -0.001878281939 0.04384512454
vn -0.9761846066 -0.01801924594 -0.2161917686
vn -0.8859423399 -0.05142240226 -0.4609358609
vn -0.7342401147 -0.09291324019 -0.6725017428
vn -0.5328444839 -0.1311491132 -0.835988462
vn -0.2972325385 -0.1560386866 -0.9419685602
vn -0.04326753318 -0.161338225 -0.9859502316
vn 0.2972324491 -0.1560386866 0.9419685602
vn 0.2139126658 -0.145762071 -0.965916574
vn 0.5328444839 -0.1311490983 0.8359884024
vn 0.4585877359 -0.1131361425 -0.8814178705
vn 0.7342352867 -0.09291318804 0.672506988
vn 0.6736779213 -0.07185550779 -0.7355235219
vn 0.8859403133 -0.05142327026 0.460939765
vn 0.8428097963 -0.03304801509 -0.5371959209
vn 0.9761866927 -0.01801907457 0.2161824256
vn 0.9536252618 -0.007384269498 -0.3009058833
vn 0.9990367889 -0.001878072158 -0.04384022579
vn 0 1 0
vn 0 1 0
f 1//1 2//2 3//3 
f 3//3 2//2 4//4 
f 4//4 2//2 5//5 
f 4//4 5//5 6//6 
f 6//6 5//5 7//7 
f 6//6 7//7 8//8 
f 8//8 7//7 9//9 
f 8//8 9//9 10//10 
f 10//10 9//9 11//11 
f 10//10 11//11 12//12 
f 10//10 12//12 13//13 
f 13//13 12//12 14//14 
f 13//13 14//14 15//15 
f 15//15 14//14 16//16 
f 15//15 16//16 17//17 
f 17//17 16//16 18//18 
f 17//17 18//18 19//19 
f 19//19 18//18 20//20 
f 19//19 20//20 21//21 
f 19//19 21//21 22//22 
f 22//22 21//21 23//23 
f 22//22 23//23 24//24 
f 24//24 23//23 25//25 
f 24//24 25//25 26//26 
f 26//26 25//25 27//27 
f 26//26 27//27 28//28 
f 28//28 27//27 29//29 
f 29//29 30//30 28//28 
f 28//28 30//30 31//31 
f 31//31 30//30 32//32 
f 31//31 32//32 33//33 
f 33//33 32//32 34//34 
f 33//33 34//34 35//35 
f 35//35 34//34 36//36 
f 35//35 36//36 37//37 
f 37//37 36//36 38//38 
f 37//37 38//38 39//39 
f 37//37 39//39 40//40 
f 40//40 39//39 41//41 
f 40//40 41//41 42//42 
f 42//42 41//41 43//43 
f 42//42 43//43 44//44 
f 44//44 43//43 45//45 
f 44//44 45//45 46//46 
f 46//46 45//45 47//47 
f 46//46 47//47 48//48 
f 46//46 48//48 49//49 
f 49//49 48//48 50//50 
f 49//49 50//50 51//51 
f 51//51 50//50 52//52 
f 51//51 52//52 53//53 
f 53//53 52//52 54//54 
f 53//53 54//54 3//3 
f 3//3 54//54 1//1 
f 55//55 28//28 56//56 
f 56//56 28//28 31//31 
f 56//56 31//31 57//57 
f 57//57 31//31 33//33 
f 57//57 33//33 58//58 
f 58//58 33//33 35//35 
f 58//58 35//35 59//59 
f 59//59 35//35 37//37 
f 59//59 37//37 60//60 
f 60//60 37//37 40//40 
f 60//60 40//40 61//61 
f 61//61 40//40 42//42 
f 61//61 42//42 62//62 
f 62//62 42//42 44//44 
f 62//62 44//44 63//63 
f 63//63 44//44 46//46 
f 63//63 46//46 64//64 
f 64//64 46//46 49//49 
f 64//64 49//49 65//65 
f 65//65 49//49 51//51 
f 65//65 51//51 66//66 
f 66//66 51//51 53//53 
f 66//66 53//53 67//67 
f 67//67 53//53 3//3 
f 56//56 66//66 55//55 
f 55//55 66//66 67//67 
f 55//55 67//67 68//68 
f 68//68 67//67 69//69 
f 68//68 69//69 70//70 
f 70//70 69//69 71//71 
f 70//70 71//71 72//72 
f 72//72 71//71 73//73 
f 72//72 73//73 74//74 
f 74//74 73//73 75//75 
f 74//74 75//75 76//76 
f 76//76 75//75 77//77 
f 76//76 77//77 78//78 
f 66//66 56//56 65//65 
f 65//65 56//56 57//57 
f 65//65 57//57 64//64 
f 64//64 57//57 58//58 
f 64//64 58//58 63//63 
f 63//63 58//58 59//59 
f 63//63 59//59 62//62 
f 62//62 59//59 60//60 
f 62//62 60//60 61//61 
f 1//1 54//54 79//79 
f 79//79 54//54 52//52 
f 79//79 52//52 50//50 
f 50//50 48//48 79//79 
f 79//79 48//48 47//47 
f 79//79 47//47 45//45 
f 45//45 43//43 79//79 
f 79//79 43//43 41//41 
f 79//79 41//41 80//80 
f 80//80 41//41 39//39 
f 80//80 39//39 38//38 
f 38//38 36//36 80//80 
f 80//80 36//36 34//34 
f 80//80 34//34 32//32 
f 32//32 30//30 80//80 
f 80//80 30//30 29//29 
f 29//29 27//27 80//80 
f 80//80 27//27 25//25 
f 80//80 25//25 23//23 
f 23//23 21//21 80//80 
f 80//80 21//21 20//20 
f 80//80 20//20 18//18 
f 18//18 16//16 80//80 
f 80//80 16//16 14//14 
f 80//80 14//14 79//79 
f 79//79 14//14 12//12 
f 79//79 12//12 11//11 
f 11//11 9//9 79//79 
f 79//79 9//9 7//7 
f 79//79 7//7 5//5 
f 5//5 2//2 79//79 
f 79//79 2//2 1//1 
f 67//67 3//3 69//69 
f 69//69 3//3 4//4 
f 69//69 4//4 71//71 
f 71//71 4//4 6//6 
f 71//71 6//6 73//73 
f 73//73 6//6 8//8 
f 73//73 8//8 75//75 
f 75//75 8//8 10//10 
f 75//75 10//10 77//77 
f 77//77 10//10 13//13 
f 77//77 13//13 78//78 
f 78//78 13//13 15//15 
f 78//78 15//15 76//76 
f 76//76 15//15 17//17 
f 76//76 17//17 74//74 
f 74//74 17//17 19//19 
f 74//74 19//19 72//72 
f 72//72 19//19 22//22 
f 72//72 22//22 70//70 
f 70//70 22//22 24//24 
f 70//70 24//24 68//68 
f 68//68 24//24 26//26 
f 68//68 26//26 55//55 
f 55//55 26//26 28//28 
