v 90.62436676 -25.75 84.9925766
v 90.62436676 -25.75 83.06072998
v 90.88318634 -25.75 85.02664948
v 90.88318634 -25.75 83.02664948
v 91.14200592 -25.75 84.9925766
v 91.14200592 -25.75 83.06072998
v 91.38318634 -25.75 84.89267731
v 91.38318634 -25.75 83.16062927
v 91.59029388 -25.75 84.73375702
v 91.59029388 -25.75 83.31954193
v 91.74920654 -25.75 84.52664948
v 91.74920654 -25.75 83.52664948
v 91.84911346 -25.75 84.28546906
v 91.84911346 -25.75 83.7678299
v 91.88318634 -25.75 84.02664948
v 90.38318634 -25.75 83.16062927
v 90.38318634 -25.75 84.89267731
v 90.1760788 -25.75 83.31954193
v 90.1760788 -25.75 84.73375702
v 90.01715851 -25.75 83.52664948
v 90.01715851 -25.75 84.52664948
v 89.91725922 -25.75 83.7678299
v 89.91725922 -25.75 84.28546906
v 89.88318634 -25.75 84.02664948
v 90.88318634 -11.66666698 85.02664948
v 90.62436676 -11.66666698 84.9925766
v 90.38318634 -11.66666698 84.89267731
v 90.1760788 -11.66666698 84.73375702
v 90.01715851 -11.66666698 84.52664948
v 89.91725922 -11.66666698 84.28546906
v 89.88318634 -11.66666698 84.02664948
v 89.91725922 -11.66666698 83.7678299
v 90.01715851 -11.66666698 83.52664948
v 90.1760788 -11.66666698 83.31954193
v 90.38318634 -11.66666698 83.16062927
v 90.62436676 -11.66666698 83.06072998
v 90.88318634 -11.66666698 83.02664948
v 91.14200592 -11.66666698 84.9925766
v 91.14200592 -11.66666698 83.06072998
v 91.38318634 -11.66666698 83.16062927
v 91.38318634 -11.66666698 84.89267731
v 91.59029388 -11.66666698 83.31954193
v 91.59029388 -11.66666698 84.73375702
v 91.74920654 -11.66666698 83.52664948
v 91.74920654 -11.66666698 84.52664948
v 91.84911346 -11.66666698 83.7678299
v 91.84911346 -11.66666698 84.28546906
v 91.88318634 -11.66666698 84.02664948
vn -0.2145102322 -0.1254140139 0.9686365128
vn -0.2981966436 -0.1343110502 -0.9450075626
vn 0.04341521859 -0.1389040202 0.9893537164
vn -0.04342492297 -0.1389039606 -0.9893532991
vn 0.2981877625 -0.1343114376 0.9450103045
vn 0.214528814 -0.1254134774 -0.9686324596
vn 0.534059763 -0.1127801985 0.8378906846
vn 0.4593558013 -0.09723418951 -0.8829143643
vn 0.7350845337 -0.07980920374 0.6732615829
vn 0.6741344333 -0.06169263273 -0.7360277176
vn 0.8862454891 -0.04413480684 0.4611085057
vn 0.8429360986 -0.02835937962 -0.5372657776
vn 0.976226449 -0.0154618416 0.2162008882
vn 0.9536263943 -0.006336002145 -0.3009261191
vn 0.9990372658 -0.001611364423 -0.04384015501
vn -0.5340458155 -0.1127813756 -0.8378994465
vn -0.4593635201 -0.09723375738 0.8829103708
vn -0.7350702882 -0.07980970293 -0.6732770801
vn -0.6741401553 -0.06169304624 0.7360224128
vn -0.886249423 -0.04413599148 -0.4611007571
vn -0.8429316282 -0.02835886925 0.5372727513
vn -0.9762285352 -0.01546081714 -0.2161915302
vn -0.9536320567 -0.006335678976 0.3009082675
vn -0.9990372658 -0.001611364423 0.04384015501
vn -0.04341521859 0.1389040202 0.9893537164
vn -0.2981877625 0.1343114376 0.9450103045
vn -0.534059763 0.1127801985 0.8378906846
vn -0.7350748181 0.07980912924 0.6732722521
vn -0.886249423 0.04413599148 0.4611007571
vn -0.9762285352 0.01546081714 0.2161915302
vn -0.9990372658 0.001611364423 -0.04384015501
vn -0.9536320567 0.006335678976 -0.3009082675
vn -0.8429316282 0.02835886925 -0.5372727513
vn -0.6741294861 0.06169386208 -0.7360321283
vn -0.4593558013 0.09723418951 -0.8829143643
vn -0.214528814 0.1254134774 -0.9686324596
vn 0.04342492297 0.1389039606 -0.9893532991
vn 0.2145102322 0.1254140139 0.9686365128
vn 0.2981966436 0.1343110502 -0.9450075626
vn 0.5340458155 0.1127813756 -0.8378994465
vn 0.4593635201 0.09723375738 0.8829103708
vn 0.7350800633 0.07980977744 -0.6732664704
vn 0.6741451025 0.0616918169 0.736018002
vn 0.8862454891 0.04413480684 -0.4611085057
vn 0.8429360986 0.02835937962 0.5372657776
vn 0.976226449 0.0154618416 -0.2162008882
vn 0.9536263943 0.006336002145 0.3009261191
vn 0.9990372658 0.001611364423 0.04384015501
f 1//1 2//2 3//3 
f 3//3 2//2 4//4 
f 3//3 4//4 5//5 
f 5//5 4//4 6//6 
f 5//5 6//6 7//7 
f 7//7 6//6 8//8 
f 7//7 8//8 9//9 
f 9//9 8//8 10//10 
f 9//9 10//10 11//11 
f 11//11 10//10 12//12 
f 11//11 12//12 13//13 
f 13//13 12//12 14//14 
f 13//13 14//14 15//15 
f 2//2 1//1 16//16 
f 16//16 1//1 17//17 
f 16//16 17//17 18//18 
f 18//18 17//17 19//19 
f 18//18 19//19 20//20 
f 20//20 19//19 21//21 
f 20//20 21//21 22//22 
f 22//22 21//21 23//23 
f 22//22 23//23 24//24 
f 3//3 25//25 1//1 
f 1//1 25//25 26//26 
f 1//1 26//26 17//17 
f 17//17 26//26 27//27 
f 17//17 27//27 19//19 
f 19//19 27//27 28//28 
f 19//19 28//28 21//21 
f 21//21 28//28 29//29 
f 21//21 29//29 23//23 
f 23//23 29//29 30//30 
f 23//23 30//30 24//24 
f 24//24 30//30 31//31 
f 24//24 31//31 22//22 
f 22//22 31//31 32//32 
f 22//22 32//32 20//20 
f 20//20 32//32 33//33 
f 20//20 33//33 18//18 
f 18//18 33//33 34//34 
f 18//18 34//34 16//16 
f 16//16 34//34 35//35 
f 16//16 35//35 2//2 
f 2//2 35//35 36//36 
f 2//2 36//36 4//4 
f 4//4 36//36 37//37 
f 38//38 39//39 25//25 
f 25//25 39//39 37//37 
f 25//25 37//37 26//26 
f 26//26 37//37 36//36 
f 26//26 36//36 27//27 
f 27//27 36//36 35//35 
f 27//27 35//35 28//28 
f 28//28 35//35 34//34 
f 28//28 34//34 29//29 
f 29//29 34//34 33//33 
f 29//29 33//33 30//30 
f 30//30 33//33 32//32 
f 30//30 32//32 31//31 
f 39//39 38//38 40//40 
f 40//40 38//38 41//41 
f 40//40 41//41 42//42 
f 42//42 41//41 43//43 
f 42//42 43//43 44//44 
f 44//44 43//43 45//45 
f 44//44 45//45 46//46 
f 46//46 45//45 47//47 
f 46//46 47//47 48//48 
f 4//4 37//37 6//6 
f 6//6 37//37 39//39 
f 6//6 39//39 8//8 
f 8//8 39//39 40//40 
f 8//8 40//40 10//10 
f 10//10 40//40 42//42 
f 10//10 42//42 12//12 
f 12//12 42//42 44//44 
f 12//12 44//44 14//14 
f 14//14 44//44 46//46 
f 14//14 46//46 15//15 
f 15//15 46//46 48//48 
f 15//15 48//48 13//13 
f 13//13 48//48 47//47 
f 13//13 47//47 11//11 
f 11//11 47//47 45//45 
f 11//11 45//45 9//9 
f 9//9 45//45 43//43 
f 9//9 43//43 7//7 
f 7//7 43//43 41//41 
f 7//7 41//41 5//5 
f 5//5 41//41 38//38 
f 5//5 38//38 3//3 
f 3//3 38//38 25//25 
