v 90.54116821 -25.75 162.4202881
v 90.88318634 -25.75 164.3599854
v 90.38318634 -25.75 162.4939575
v 90.62436676 -25.75 164.3259125
v 90.38318634 -25.75 164.2260132
v 90.70953369 -25.75 162.3751831
v 90.88318634 -25.75 162.3599854
v 91.14200592 -25.75 164.3259125
v 91.14200592 -25.75 162.3940582
v 91.38318634 -25.75 164.2260132
v 91.38318634 -25.75 162.4939575
v 91.59029388 -25.75 164.0670929
v 91.59029388 -25.75 162.6528778
v 91.74920654 -25.75 163.8599854
v 91.74920654 -25.75 162.8599854
v 91.84911346 -25.75 163.6188049
v 91.84911346 -25.75 163.1011658
v 91.88318634 -25.75 163.3599854
v 90.1760788 -25.75 162.6528778
v 90.1760788 -25.75 164.0670929
v 90.01715851 -25.75 162.8599854
v 90.01715851 -25.75 163.8599854
v 89.91725922 -25.75 163.1011658
v 89.91725922 -25.75 163.6188049
v 89.88318634 -25.75 163.3599854
v 90.99458313 -11.66666698 162.3662109
v 90.88318634 -11.66666698 164.3599854
v 91.04985046 -11.66666698 162.3739777
v 91.12850189 -11.66666698 164.329422
v 91.28664398 -11.66666698 162.4449921
v 91.35882568 -11.66666698 164.239624
v 91.4987793 -11.66666698 162.5719147
v 91.56008148 -11.66666698 164.0960693
v 91.67329407 -11.66666698 162.7470245
v 91.7199707 -11.66666698 163.9075165
v 91.7995224 -11.66666698 162.9595795
v 91.82872009 -11.66666698 163.6855164
v 91.86974335 -11.66666698 163.1965942
v 91.87968445 -11.66666698 163.4436188
v 90.93897247 -11.66666698 162.3615417
v 90.88318634 -11.66666698 162.3599854
v 90.62436676 -11.66666698 164.3259125
v 90.62436676 -11.66666698 162.3940582
v 90.38318634 -11.66666698 164.2260132
v 90.38318634 -11.66666698 162.4939575
v 90.1760788 -11.66666698 164.0670929
v 90.1760788 -11.66666698 162.6528778
v 90.01715851 -11.66666698 163.8599854
v 90.01715851 -11.66666698 162.8599854
v 89.91725922 -11.66666698 163.6188049
v 89.91725922 -11.66666698 163.1011658
v 89.88318634 -11.66666698 163.3599854
vn -0.358440578 -0.0782507956 -0.9302672744
vn 0.03934901208 -0.1832874864 0.9822715521
vn -0.5574934483 -0.1591483057 -0.8147839308
vn -0.2155161798 -0.08047053218 0.9731789231
vn -0.4593634903 -0.09723406285 0.8829103708
vn -0.154672727 -0.08006280661 -0.9847163558
vn 0.04538707063 -0.1755520701 -0.9834233522
vn 0.2902055383 -0.1366993189 0.9471504688
vn 0.2575625777 -0.1191950366 -0.9588816762
vn 0.5231331587 -0.114811115 0.8444821239
vn 0.5018752217 -0.0990235433 -0.8592529297
vn 0.7232127786 -0.08129883558 0.6858234406
vn 0.7060988545 -0.06291974336 -0.7053123713
vn 0.8759269118 -0.04504763335 0.4803360701
vn 0.863666594 -0.02905276045 -0.503225565
vn 0.970182538 -0.01591684483 0.2418522388
vn 0.9636734724 -0.006667474285 -0.2669998705
vn 0.9999138117 -0.001854435424 -0.01299949735
vn -0.7350748181 -0.0798092708 -0.6732722521
vn -0.6741401553 -0.06169304624 0.7360224128
vn -0.886249423 -0.04413599148 -0.4611007571
vn -0.8429316282 -0.02835886925 0.5372727513
vn -0.9762285352 -0.01546081714 -0.2161915302
vn -0.9536320567 -0.006335678976 0.3009082675
vn -0.9990372658 -0.001611364423 0.04384015501
vn 0.1247091889 0.04182977602 -0.9913111925
vn -0.0488255471 0.1230374202 0.9912002087
vn 0.2528390288 0.2397370189 -0.9373359084
vn 0.2040888518 0.1275552958 0.9706066847
vn 0.3935150206 0.117299743 -0.91180408
vn 0.4414634109 0.1041488126 0.8912143707
vn 0.6108055115 0.08880906552 -0.7867843509
vn 0.6521144509 0.07221227884 0.7546735406
vn 0.790030539 0.05543106422 -0.6105564237
vn 0.8215907812 0.03940726817 0.5687140226
vn 0.9186971784 0.02526698448 -0.3941535652
vn 0.9383168817 0.01375699881 0.3455027938
vn 0.9883657694 0.005712751765 -0.1519883424
vn 0.9949935079 0.001538270386 0.09992777556
vn 0.05524691567 0.1403864026 -0.9885542393
vn -0.09598206729 0.1615752131 -0.9821817279
vn -0.2981877625 0.1343117803 0.9450102448
vn -0.2562222183 0.1409088671 -0.9562922716
vn -0.5340597034 0.1127806753 0.8378906846
vn -0.477969259 0.1093564481 -0.8715426326
vn -0.7350748181 0.0798092708 0.6732722521
vn -0.6741401553 0.06169304624 -0.7360224128
vn -0.886249423 0.04413599148 0.4611007571
vn -0.8429316282 0.02835886925 -0.5372727513
vn -0.9762285352 0.01546081714 0.2161915302
vn -0.9536320567 0.006335678976 -0.3009082675
vn -0.9990372658 0.001611364423 -0.04384015501
f 1//1 2//2 3//3 
f 3//3 2//2 4//4 
f 3//3 4//4 5//5 
f 1//1 6//6 2//2 
f 2//2 6//6 7//7 
f 2//2 7//7 8//8 
f 8//8 7//7 9//9 
f 8//8 9//9 10//10 
f 10//10 9//9 11//11 
f 10//10 11//11 12//12 
f 12//12 11//11 13//13 
f 12//12 13//13 14//14 
f 14//14 13//13 15//15 
f 14//14 15//15 16//16 
f 16//16 15//15 17//17 
f 16//16 17//17 18//18 
f 3//3 5//5 19//19 
f 19//19 5//5 20//20 
f 19//19 20//20 21//21 
f 21//21 20//20 22//22 
f 21//21 22//22 23//23 
f 23//23 22//22 24//24 
f 23//23 24//24 25//25 
f 26//26 27//27 28//28 
f 28//28 27//27 29//29 
f 28//28 29//29 30//30 
f 30//30 29//29 31//31 
f 30//30 31//31 32//32 
f 32//32 31//31 33//33 
f 32//32 33//33 34//34 
f 34//34 33//33 35//35 
f 34//34 35//35 36//36 
f 36//36 35//35 37//37 
f 36//36 37//37 38//38 
f 38//38 37//37 39//39 
f 26//26 40//40 27//27 
f 27//27 40//40 41//41 
f 27//27 41//41 42//42 
f 42//42 41//41 43//43 
f 42//42 43//43 44//44 
f 44//44 43//43 45//45 
f 44//44 45//45 46//46 
f 46//46 45//45 47//47 
f 46//46 47//47 48//48 
f 48//48 47//47 49//49 
f 48//48 49//49 50//50 
f 50//50 49//49 51//51 
f 50//50 51//51 52//52 
f 2//2 27//27 4//4 
f 4//4 27//27 42//42 
f 4//4 42//42 5//5 
f 5//5 42//42 44//44 
f 5//5 44//44 20//20 
f 20//20 44//44 46//46 
f 20//20 46//46 22//22 
f 22//22 46//46 48//48 
f 22//22 48//48 24//24 
f 24//24 48//48 50//50 
f 24//24 50//50 25//25 
f 25//25 50//50 52//52 
f 25//25 52//52 23//23 
f 23//23 52//52 51//51 
f 23//23 51//51 21//21 
f 21//21 51//51 49//49 
f 21//21 49//49 19//19 
f 19//19 49//49 47//47 
f 19//19 47//47 3//3 
f 3//3 47//47 45//45 
f 3//3 45//45 1//1 
f 1//1 45//45 43//43 
f 1//1 43//43 6//6 
f 6//6 43//43 41//41 
f 6//6 41//41 7//7 
f 41//41 40//40 7//7 
f 7//7 40//40 26//26 
f 7//7 26//26 9//9 
f 9//9 26//26 28//28 
f 9//9 28//28 30//30 
f 9//9 30//30 11//11 
f 11//11 30//30 32//32 
f 11//11 32//32 13//13 
f 13//13 32//32 34//34 
f 13//13 34//34 15//15 
f 15//15 34//34 36//36 
f 15//15 36//36 17//17 
f 17//17 36//36 38//38 
f 17//17 38//38 18//18 
f 18//18 38//38 39//39 
f 18//18 39//39 16//16 
f 16//16 39//39 37//37 
f 16//16 37//37 14//14 
f 14//14 37//37 35//35 
f 14//14 35//35 12//12 
f 12//12 35//35 33//33 
f 12//12 33//33 10//10 
f 10//10 33//33 31//31 
f 10//10 31//31 8//8 
f 8//8 31//31 29//29 
f 8//8 29//29 2//2 
f 2//2 29//29 27//27 
