v 90.62436676 -25.75 0.9925778508
v 90.62436676 -25.75 -0.9392737746
v 90.88318634 -25.75 1.026652098
v 90.88318634 -25.75 -0.9733479619
v 91.14200592 -25.75 0.9925778508
v 91.14200592 -25.75 -0.9392737746
v 91.38318634 -25.75 0.8926774859
v 91.38318634 -25.75 -0.8393733501
v 91.59029388 -25.75 0.7337588072
v 91.59029388 -25.75 -0.680454731
v 91.74920654 -25.75 0.5266520381
v 91.74920654 -25.75 -0.4733479619
v 91.84911346 -25.75 0.2854711115
v 91.84911346 -25.75 -0.2321669906
v 91.88318634 -25.75 0.026652053
v 90.38318634 -25.75 -0.8393733501
v 90.38318634 -25.75 0.8926774859
v 90.1760788 -25.75 -0.680454731
v 90.1760788 -25.75 0.7337588072
v 90.01715851 -25.75 -0.4733479619
v 90.01715851 -25.75 0.5266520381
v 89.91725922 -25.75 -0.2321669906
v 89.91725922 -25.75 0.2854711115
v 89.88318634 -25.75 0.026652053
v 90.88318634 -11.66666698 1.026652098
v 90.62436676 -11.66666698 0.9925778508
v 90.38318634 -11.66666698 0.8926774859
v 90.1760788 -11.66666698 0.7337588072
v 90.01715851 -11.66666698 0.5266520381
v 89.91725922 -11.66666698 0.2854711115
v 89.88318634 -11.66666698 0.026652053
v 89.91725922 -11.66666698 -0.2321669906
v 90.01715851 -11.66666698 -0.4733479619
v 90.1760788 -11.66666698 -0.680454731
v 90.38318634 -11.66666698 -0.8393733501
v 90.62436676 -11.66666698 -0.9392737746
v 90.88318634 -11.66666698 -0.9733479619
v 91.14200592 -11.66666698 0.9925778508
v 91.14200592 -11.66666698 -0.9392737746
v 91.38318634 -11.66666698 -0.8393733501
v 91.38318634 -11.66666698 0.8926774859
v 91.59029388 -11.66666698 -0.680454731
v 91.59029388 -11.66666698 0.7337588072
v 91.74920654 -11.66666698 -0.4733479619
v 91.74920654 -11.66666698 0.5266520381
v 91.84911346 -11.66666698 -0.2321669906
v 91.84911346 -11.66666698 0.2854711115
v 91.88318634 -11.66666698 0.026652053
vn -0.2145148665 -0.1254141629 0.9686354399
vn -0.2981919348 -0.1343114823 -0.9450089931
vn 0.04341696203 -0.1389041245 0.9893536568
vn -0.04341688752 -0.1389041245 -0.9893536568
vn 0.2981918454 -0.1343114823 0.9450089931
vn 0.214514792 -0.1254141629 -0.9686354995
vn 0.5340577364 -0.1127805859 0.8378919363
vn 0.4593641162 -0.09723380953 -0.8829100728
vn 0.7350826859 -0.07980944216 0.6732636094
vn 0.6741422415 -0.06169198453 -0.7360206246
vn 0.8862455487 -0.04413477331 0.4611083865
vn 0.8429356813 -0.02835940011 -0.5372663736
vn 0.976226449 -0.0154618388 0.2162010372
vn 0.9536264539 -0.006335984915 -0.3009259105
vn 0.9990372658 -0.001611364423 -0.04384024441
vn -0.5340576768 -0.1127805933 -0.8378919363
vn -0.4593640566 -0.09723380953 0.8829101324
vn -0.7350729108 -0.07980936766 -0.6732742786
vn -0.6741373539 -0.06169320643 0.7360249758
vn -0.8862495422 -0.04413595051 -0.4611006081
vn -0.8429312706 -0.02835889161 0.5372733474
vn -0.9762285352 -0.01546081435 -0.2161916792
vn -0.9536321163 -0.006335662212 0.3009080887
vn -0.9990372658 -0.001611364423 0.04384024441
vn -0.04341696203 0.1389041245 0.9893536568
vn -0.2981918454 0.1343114823 0.9450089931
vn -0.5340577364 0.1127805859 0.8378919363
vn -0.7350729704 0.07980936766 0.6732742786
vn -0.8862495422 0.04413595423 0.4611006379
vn -0.9762285352 0.01546081435 0.2161916792
vn -0.9990372658 0.001611364423 -0.04384024441
vn -0.9536321163 0.006335661747 -0.3009080589
vn -0.8429312706 0.02835889161 -0.5372733474
vn -0.6741372943 0.06169321388 -0.7360250354
vn -0.4593641162 0.09723380953 -0.8829100728
vn -0.214514792 0.1254141629 -0.9686354995
vn 0.04341688752 0.1389041245 -0.9893536568
vn 0.2145148665 0.1254141629 0.9686354399
vn 0.2981919348 0.1343114823 -0.9450089931
vn 0.5340576768 0.1127805933 -0.8378919363
vn 0.4593640566 0.09723380953 0.8829101324
vn 0.7350826859 0.07980944961 -0.673263669
vn 0.6741423011 0.06169198081 0.736020565
vn 0.8862455487 0.04413476959 -0.4611083567
vn 0.8429356813 0.02835940197 0.5372663736
vn 0.976226449 0.0154618388 -0.2162010223
vn 0.9536264539 0.006335985381 0.3009259403
vn 0.9990372658 0.001611364423 0.04384024441
f 1//1 2//2 3//3 
f 3//3 2//2 4//4 
f 3//3 4//4 5//5 
f 5//5 4//4 6//6 
f 5//5 6//6 7//7 
f 7//7 6//6 8//8 
f 7//7 8//8 9//9 
f 9//9 8//8 10//10 
f 9//9 10//10 11//11 
f 11//11 10//10 12//12 
f 11//11 12//12 13//13 
f 13//13 12//12 14//14 
f 13//13 14//14 15//15 
f 2//2 1//1 16//16 
f 16//16 1//1 17//17 
f 16//16 17//17 18//18 
f 18//18 17//17 19//19 
f 18//18 19//19 20//20 
f 20//20 19//19 21//21 
f 20//20 21//21 22//22 
f 22//22 21//21 23//23 
f 22//22 23//23 24//24 
f 3//3 25//25 1//1 
f 1//1 25//25 26//26 
f 1//1 26//26 17//17 
f 17//17 26//26 27//27 
f 17//17 27//27 19//19 
f 19//19 27//27 28//28 
f 19//19 28//28 21//21 
f 21//21 28//28 29//29 
f 21//21 29//29 23//23 
f 23//23 29//29 30//30 
f 23//23 30//30 24//24 
f 24//24 30//30 31//31 
f 24//24 31//31 22//22 
f 22//22 31//31 32//32 
f 22//22 32//32 20//20 
f 20//20 32//32 33//33 
f 20//20 33//33 18//18 
f 18//18 33//33 34//34 
f 18//18 34//34 16//16 
f 16//16 34//34 35//35 
f 16//16 35//35 2//2 
f 2//2 35//35 36//36 
f 2//2 36//36 4//4 
f 4//4 36//36 37//37 
f 38//38 39//39 25//25 
f 25//25 39//39 37//37 
f 25//25 37//37 26//26 
f 26//26 37//37 36//36 
f 26//26 36//36 27//27 
f 27//27 36//36 35//35 
f 27//27 35//35 28//28 
f 28//28 35//35 34//34 
f 28//28 34//34 29//29 
f 29//29 34//34 33//33 
f 29//29 33//33 30//30 
f 30//30 33//33 32//32 
f 30//30 32//32 31//31 
f 39//39 38//38 40//40 
f 40//40 38//38 41//41 
f 40//40 41//41 42//42 
f 42//42 41//41 43//43 
f 42//42 43//43 44//44 
f 44//44 43//43 45//45 
f 44//44 45//45 46//46 
f 46//46 45//45 47//47 
f 46//46 47//47 48//48 
f 4//4 37//37 6//6 
f 6//6 37//37 39//39 
f 6//6 39//39 8//8 
f 8//8 39//39 40//40 
f 8//8 40//40 10//10 
f 10//10 40//40 42//42 
f 10//10 42//42 12//12 
f 12//12 42//42 44//44 
f 12//12 44//44 14//14 
f 14//14 44//44 46//46 
f 14//14 46//46 15//15 
f 15//15 46//46 48//48 
f 15//15 48//48 13//13 
f 13//13 48//48 47//47 
f 13//13 47//47 11//11 
f 11//11 47//47 45//45 
f 11//11 45//45 9//9 
f 9//9 45//45 43//43 
f 9//9 43//43 7//7 
f 7//7 43//43 41//41 
f 7//7 41//41 5//5 
f 5//5 41//41 38//38 
f 5//5 38//38 3//3 
f 3//3 38//38 25//25 
