v 58.2165184 -11.66666698 109.2766495
v 58.78827667 -11.66666698 109.3367462
v 58.2165184 -13.66666698 111.0266495
v 58.47533798 -13.66666698 111.06073
v 59.33504486 -11.66666698 109.5144043
v 58.7165184 -13.66666698 111.1606293
v 59.8329277 -11.66666698 109.801857
v 58.92362595 -13.66666698 111.3195419
v 60.26016617 -11.66666698 110.1865463
v 59.08254242 -13.66666698 111.5266495
v 60.59808731 -11.66666698 110.6516495
v 60.83192444 -11.66666698 111.176857
v 59.18244553 -13.66666698 111.7678299
v 60.95145416 -11.66666698 111.7391968
v 59.2165184 -13.66666698 112.0266495
v 60.95145416 -11.66666698 112.3141022
v 59.18244553 -13.66666698 112.2854691
v 60.83192444 -11.66666698 112.8764496
v 59.08254242 -13.66666698 112.5266495
v 60.59808731 -11.66666698 113.4016495
v 60.26016617 -11.66666698 113.8667603
v 58.92362595 -13.66666698 112.733757
v 59.8329277 -11.66666698 114.2514496
v 58.7165184 -13.66666698 112.8926773
v 59.33504486 -11.66666698 114.5389023
v 58.47533798 -13.66666698 112.9925766
v 58.78827667 -11.66666698 114.7165604
v 58.2165184 -13.66666698 113.0266495
v 58.2165184 -11.66666698 114.7766495
v 57.64476013 -11.66666698 114.7165604
v 57.95769882 -13.66666698 112.9925766
v 57.09799194 -11.66666698 114.5389023
v 57.7165184 -13.66666698 112.8926773
v 56.6001091 -11.66666698 114.2514496
v 57.50941086 -13.66666698 112.733757
v 56.17287064 -11.66666698 113.8667603
v 57.35049438 -13.66666698 112.5266495
v 55.83494949 -11.66666698 113.4016495
v 55.60111237 -11.66666698 112.8764496
v 57.25059128 -13.66666698 112.2854691
v 55.48158264 -11.66666698 112.3141022
v 57.2165184 -13.66666698 112.0266495
v 55.48158264 -11.66666698 111.7391968
v 57.25059128 -13.66666698 111.7678299
v 55.60111237 -11.66666698 111.176857
v 57.35049438 -13.66666698 111.5266495
v 55.83494949 -11.66666698 110.6516495
v 56.17287064 -11.66666698 110.1865463
v 57.50941086 -13.66666698 111.3195419
v 56.6001091 -11.66666698 109.801857
v 57.7165184 -13.66666698 111.1606293
v 57.09799194 -11.66666698 109.5144043
v 57.95769882 -13.66666698 111.06073
v 57.64476013 -11.66666698 109.3367462
v 58.2165184 -25.75 113.0266495
v 57.95769882 -25.75 112.9925766
v 57.7165184 -25.75 112.8926773
v 57.50941086 -25.75 112.733757
v 57.35049438 -25.75 112.5266495
v 57.25059128 -25.75 112.2854691
v 57.2165184 -25.75 112.0266495
v 57.25059128 -25.75 111.7678299
v 57.35049438 -25.75 111.5266495
v 57.50941086 -25.75 111.3195419
v 57.7165184 -25.75 111.1606293
v 57.95769882 -25.75 111.06073
v 58.2165184 -25.75 111.0266495
v 58.47533798 -25.75 112.9925766
v 58.47533798 -25.75 111.06073
v 58.7165184 -25.75 112.8926773
v 58.7165184 -25.75 111.1606293
v 58.92362595 -25.75 112.733757
v 58.92362595 -25.75 111.3195419
v 59.08254242 -25.75 112.5266495
v 59.08254242 -25.75 111.5266495
v 59.18244553 -25.75 112.2854691
v 59.18244553 -25.75 111.7678299
v 59.2165184 -25.75 112.0266495
v 58.2165184 -11.66666698 111.0266495
v 58.2165184 -11.66666698 113.0266495
vn 1.092245611e-16 -9.708849798e-17 -1
vn 0.1914002001 -0.1512127668 -0.9697941542
vn 0.031577494 -0.2235148549 -0.9741888642
vn 0.2939966023 -0.1631288528 -0.9417828918
vn 0.3991225958 -0.1251951903 -0.9083101749
vn 0.5233631134 -0.1632368416 -0.8363281488
vn 0.5896539688 -0.08334137499 -0.8033445477
vn 0.7185009718 -0.1631876379 -0.6761110425
vn 0.7525510788 -0.02710988745 -0.6579756141
vn 0.8594570756 -0.2235139608 -0.4597554803
vn 0.8401675224 0.2425344437 -0.4850727618
vn 0.9397554398 0.1186950877 -0.3205795288
vn 0.9626050591 -0.1631281227 -0.2162885219
vn 0.4191309214 0.9067538977 -0.04611505195
vn 0.9859626889 -0.1632360965 0.03509328887
vn 0.9741027951 0.1990908533 0.1071754768
vn 0.9447783828 -0.1631878316 0.2841892242
vn 0.9397554398 0.1186950877 0.3205795288
vn 0.8278874755 -0.2235143632 0.5144352913
vn 0.8401675224 0.2425344437 0.4850727618
vn 0.752553463 -0.02710785717 0.6579729915
vn 0.6686167121 -0.1631284952 0.7254934311
vn 0.5896574259 -0.08334276825 0.8033418655
vn 0.4625881016 -0.1632365137 0.8714161515
vn 0.3991227448 -0.1251924187 0.908310473
vn 0.2262744308 -0.1631876379 0.9602966309
vn 0.1913899183 -0.1512108296 0.9697964787
vn -0.03157043457 -0.2235145569 0.9741891623
vn -1.213606175e-16 -9.708849798e-17 1
vn -0.1913899183 -0.1512108296 0.9697964787
vn -0.2939882278 -0.1631290913 0.9417854548
vn -0.3991227448 -0.1251924187 0.908310473
vn -0.523375392 -0.1632360816 0.8363205791
vn -0.5896574259 -0.08334276825 0.8033418655
vn -0.7185052633 -0.1631876379 0.6761064529
vn -0.752553463 -0.02710785717 0.6579729915
vn -0.859457016 -0.2235141098 0.4597554505
vn -0.8401675224 0.2425344437 0.4850727618
vn -0.9397554398 0.1186950877 0.3205795288
vn -0.9626049399 -0.1631290913 0.216288209
vn -0.4191324115 0.906753242 0.04611496255
vn -0.9859626889 -0.1632360965 -0.03509328887
vn -0.9741030335 0.1990894228 -0.1071760878
vn -0.9447784424 -0.1631868482 -0.2841896117
vn -0.9397554398 0.1186950877 -0.3205795288
vn -0.8278874755 -0.2235142142 -0.5144352913
vn -0.8401675224 0.2425344437 -0.4850727618
vn -0.7525510788 -0.02710988745 -0.6579756141
vn -0.6686074138 -0.1631292701 -0.7255018353
vn -0.5896539688 -0.08334137499 -0.8033445477
vn -0.4625809491 -0.1632364988 -0.8714199662
vn -0.3991225958 -0.1251951903 -0.9083101749
vn -0.2262905836 -0.1631872058 -0.9602929354
vn -0.1914002001 -0.1512127668 -0.9697941542
vn 0.0432658717 -0.1613381058 0.9859503508
vn -0.2139081061 -0.1457618922 0.9659175873
vn -0.4585871398 -0.1131360903 0.8814182281
vn -0.6736832857 -0.07185459882 0.7355186939
vn -0.8428124189 -0.03304828703 0.5371918678
vn -0.9536223412 -0.007384478115 0.3009150326
vn -0.9990367889 -0.001878072158 0.04384013638
vn -0.9761856794 -0.01801967435 -0.2161869556
vn -0.8859382272 -0.05142262205 -0.4609437585
vn -0.7342374921 -0.09291362762 -0.6725045443
vn -0.5328325629 -0.1311500221 -0.8359959126
vn -0.2972372472 -0.1560381949 -0.9419671297
vn -0.04327554256 -0.1613380462 -0.9859499335
vn 0.2972283959 -0.1560386419 0.9419698715
vn 0.2139266431 -0.1457612813 -0.9659135938
vn 0.5328465104 -0.1311486512 0.8359872103
vn 0.4585794508 -0.1131365895 -0.8814221621
vn 0.734242022 -0.09291295707 0.6724997163
vn 0.6736726165 -0.07185554504 -0.7355284095
vn 0.8859382272 -0.05142262205 0.4609437585
vn 0.8428124189 -0.03304828703 -0.5371918678
vn 0.9761856794 -0.01801967435 0.2161869556
vn 0.9536223412 -0.007384478115 -0.3009150326
vn 0.9990367889 -0.001878072158 -0.04384013638
vn 0 1 0
vn 0 1 0
f 1//1 2//2 3//3 
f 3//3 2//2 4//4 
f 4//4 2//2 5//5 
f 4//4 5//5 6//6 
f 6//6 5//5 7//7 
f 6//6 7//7 8//8 
f 8//8 7//7 9//9 
f 8//8 9//9 10//10 
f 10//10 9//9 11//11 
f 10//10 11//11 12//12 
f 10//10 12//12 13//13 
f 13//13 12//12 14//14 
f 13//13 14//14 15//15 
f 15//15 14//14 16//16 
f 15//15 16//16 17//17 
f 17//17 16//16 18//18 
f 17//17 18//18 19//19 
f 19//19 18//18 20//20 
f 19//19 20//20 21//21 
f 19//19 21//21 22//22 
f 22//22 21//21 23//23 
f 22//22 23//23 24//24 
f 24//24 23//23 25//25 
f 24//24 25//25 26//26 
f 26//26 25//25 27//27 
f 26//26 27//27 28//28 
f 28//28 27//27 29//29 
f 29//29 30//30 28//28 
f 28//28 30//30 31//31 
f 31//31 30//30 32//32 
f 31//31 32//32 33//33 
f 33//33 32//32 34//34 
f 33//33 34//34 35//35 
f 35//35 34//34 36//36 
f 35//35 36//36 37//37 
f 37//37 36//36 38//38 
f 37//37 38//38 39//39 
f 37//37 39//39 40//40 
f 40//40 39//39 41//41 
f 40//40 41//41 42//42 
f 42//42 41//41 43//43 
f 42//42 43//43 44//44 
f 44//44 43//43 45//45 
f 44//44 45//45 46//46 
f 46//46 45//45 47//47 
f 46//46 47//47 48//48 
f 46//46 48//48 49//49 
f 49//49 48//48 50//50 
f 49//49 50//50 51//51 
f 51//51 50//50 52//52 
f 51//51 52//52 53//53 
f 53//53 52//52 54//54 
f 53//53 54//54 3//3 
f 3//3 54//54 1//1 
f 55//55 28//28 56//56 
f 56//56 28//28 31//31 
f 56//56 31//31 57//57 
f 57//57 31//31 33//33 
f 57//57 33//33 58//58 
f 58//58 33//33 35//35 
f 58//58 35//35 59//59 
f 59//59 35//35 37//37 
f 59//59 37//37 60//60 
f 60//60 37//37 40//40 
f 60//60 40//40 61//61 
f 61//61 40//40 42//42 
f 61//61 42//42 62//62 
f 62//62 42//42 44//44 
f 62//62 44//44 63//63 
f 63//63 44//44 46//46 
f 63//63 46//46 64//64 
f 64//64 46//46 49//49 
f 64//64 49//49 65//65 
f 65//65 49//49 51//51 
f 65//65 51//51 66//66 
f 66//66 51//51 53//53 
f 66//66 53//53 67//67 
f 67//67 53//53 3//3 
f 56//56 66//66 55//55 
f 55//55 66//66 67//67 
f 55//55 67//67 68//68 
f 68//68 67//67 69//69 
f 68//68 69//69 70//70 
f 70//70 69//69 71//71 
f 70//70 71//71 72//72 
f 72//72 71//71 73//73 
f 72//72 73//73 74//74 
f 74//74 73//73 75//75 
f 74//74 75//75 76//76 
f 76//76 75//75 77//77 
f 76//76 77//77 78//78 
f 66//66 56//56 65//65 
f 65//65 56//56 57//57 
f 65//65 57//57 64//64 
f 64//64 57//57 58//58 
f 64//64 58//58 63//63 
f 63//63 58//58 59//59 
f 63//63 59//59 62//62 
f 62//62 59//59 60//60 
f 62//62 60//60 61//61 
f 1//1 54//54 79//79 
f 79//79 54//54 52//52 
f 79//79 52//52 50//50 
f 50//50 48//48 79//79 
f 79//79 48//48 47//47 
f 79//79 47//47 45//45 
f 45//45 43//43 79//79 
f 79//79 43//43 41//41 
f 79//79 41//41 80//80 
f 80//80 41//41 39//39 
f 80//80 39//39 38//38 
f 38//38 36//36 80//80 
f 80//80 36//36 34//34 
f 80//80 34//34 32//32 
f 32//32 30//30 80//80 
f 80//80 30//30 29//29 
f 29//29 27//27 80//80 
f 80//80 27//27 25//25 
f 80//80 25//25 23//23 
f 23//23 21//21 80//80 
f 80//80 21//21 20//20 
f 80//80 20//20 18//18 
f 18//18 16//16 80//80 
f 80//80 16//16 14//14 
f 80//80 14//14 79//79 
f 79//79 14//14 12//12 
f 79//79 12//12 11//11 
f 11//11 9//9 79//79 
f 79//79 9//9 7//7 
f 79//79 7//7 5//5 
f 5//5 2//2 79//79 
f 79//79 2//2 1//1 
f 67//67 3//3 69//69 
f 69//69 3//3 4//4 
f 69//69 4//4 71//71 
f 71//71 4//4 6//6 
f 71//71 6//6 73//73 
f 73//73 6//6 8//8 
f 73//73 8//8 75//75 
f 75//75 8//8 10//10 
f 75//75 10//10 77//77 
f 77//77 10//10 13//13 
f 77//77 13//13 78//78 
f 78//78 13//13 15//15 
f 78//78 15//15 76//76 
f 76//76 15//15 17//17 
f 76//76 17//17 74//74 
f 74//74 17//17 19//19 
f 74//74 19//19 72//72 
f 72//72 19//19 22//22 
f 72//72 22//22 70//70 
f 70//70 22//22 24//24 
f 70//70 24//24 68//68 
f 68//68 24//24 26//26 
f 68//68 26//26 55//55 
f 55//55 26//26 28//28 
