v 58.2165184 -11.66666698 53.27665329
v 58.78827667 -11.66666698 53.33674622
v 58.2165184 -13.66666698 55.02665329
v 58.47533798 -13.66666698 55.06072617
v 59.33504486 -11.66666698 53.51440048
v 58.7165184 -13.66666698 55.16062546
v 59.8329277 -11.66666698 53.80185699
v 58.92362595 -13.66666698 55.31954575
v 60.26016617 -11.66666698 54.18654251
v 59.08254242 -13.66666698 55.52665329
v 60.59808731 -11.66666698 54.65165329
v 60.83192444 -11.66666698 55.17685699
v 59.18244553 -13.66666698 55.76783371
v 60.95145416 -11.66666698 55.73920059
v 59.2165184 -13.66666698 56.02665329
v 60.95145416 -11.66666698 56.31410599
v 59.18244553 -13.66666698 56.28547287
v 60.83192444 -11.66666698 56.87644958
v 59.08254242 -13.66666698 56.52665329
v 60.59808731 -11.66666698 57.40165329
v 60.26016617 -11.66666698 57.86676025
v 58.92362595 -13.66666698 56.73375702
v 59.8329277 -11.66666698 58.25144958
v 58.7165184 -13.66666698 56.89267731
v 59.33504486 -11.66666698 58.53890228
v 58.47533798 -13.66666698 56.9925766
v 58.78827667 -11.66666698 58.71655655
v 58.2165184 -13.66666698 57.02665329
v 58.2165184 -11.66666698 58.77665329
v 57.64476013 -11.66666698 58.71655655
v 57.95769882 -13.66666698 56.9925766
v 57.09799194 -11.66666698 58.53890228
v 57.7165184 -13.66666698 56.89267731
v 56.6001091 -11.66666698 58.25144958
v 57.50941086 -13.66666698 56.73375702
v 56.17287064 -11.66666698 57.86676025
v 57.35049438 -13.66666698 56.52665329
v 55.83494949 -11.66666698 57.40165329
v 55.60111237 -11.66666698 56.87644958
v 57.25059128 -13.66666698 56.28547287
v 55.48158264 -11.66666698 56.31410599
v 57.2165184 -13.66666698 56.02665329
v 55.48158264 -11.66666698 55.73920059
v 57.25059128 -13.66666698 55.76783371
v 55.60111237 -11.66666698 55.17685699
v 57.35049438 -13.66666698 55.52665329
v 55.83494949 -11.66666698 54.65165329
v 56.17287064 -11.66666698 54.18654251
v 57.50941086 -13.66666698 55.31954575
v 56.6001091 -11.66666698 53.80185699
v 57.7165184 -13.66666698 55.16062546
v 57.09799194 -11.66666698 53.51440048
v 57.95769882 -13.66666698 55.06072617
v 57.64476013 -11.66666698 53.33674622
v 58.2165184 -25.75 57.02665329
v 57.95769882 -25.75 56.9925766
v 57.7165184 -25.75 56.89267731
v 57.50941086 -25.75 56.73375702
v 57.35049438 -25.75 56.52665329
v 57.25059128 -25.75 56.28547287
v 57.2165184 -25.75 56.02665329
v 57.25059128 -25.75 55.76783371
v 57.35049438 -25.75 55.52665329
v 57.50941086 -25.75 55.31954575
v 57.7165184 -25.75 55.16062546
v 57.95769882 -25.75 55.06072617
v 58.2165184 -25.75 55.02665329
v 58.47533798 -25.75 56.9925766
v 58.47533798 -25.75 55.06072617
v 58.7165184 -25.75 56.89267731
v 58.7165184 -25.75 55.16062546
v 58.92362595 -25.75 56.73375702
v 58.92362595 -25.75 55.31954575
v 59.08254242 -25.75 56.52665329
v 59.08254242 -25.75 55.52665329
v 59.18244553 -25.75 56.28547287
v 59.18244553 -25.75 55.76783371
v 59.2165184 -25.75 56.02665329
v 58.2165184 -11.66666698 55.02665329
v 58.2165184 -11.66666698 57.02665329
vn 1.274286557e-16 0 -1
vn 0.1913899183 -0.1512108296 -0.9697964787
vn 0.03157043457 -0.2235144228 -0.9741892219
vn 0.2939876616 -0.1631287634 -0.9417856932
vn 0.3991227448 -0.1251920909 -0.9083105326
vn 0.5233758688 -0.1632361561 -0.836320281
vn 0.5896574259 -0.08334276825 -0.8033418655
vn 0.7185050249 -0.1631872356 -0.6761068702
vn 0.7525522709 -0.02710887231 -0.6579743028
vn 0.8594570756 -0.223514393 -0.4597551823
vn 0.8401681781 0.2425350994 -0.4850712717
vn 0.9397554398 0.1186950877 -0.3205795288
vn 0.9626049995 -0.1631286144 -0.216288358
vn 0.4191316664 0.9067535996 -0.04611500725
vn 0.9859626889 -0.1632360965 0.03509328887
vn 0.9741029143 0.1990901381 0.1071757823
vn 0.9447784424 -0.1631873399 0.2841894031
vn 0.9397554398 0.1186950877 0.3205795288
vn 0.8278851509 -0.2235153764 0.5144385695
vn 0.8401675224 0.2425344437 0.4850727618
vn 0.7525511384 -0.02710790932 0.6579756737
vn 0.6686142683 -0.1631285697 0.7254957557
vn 0.5896573663 -0.0833440125 0.8033417463
vn 0.4625881016 -0.1632365137 0.8714161515
vn 0.3991203904 -0.1251942813 0.9083112478
vn 0.2262818962 -0.1631871015 0.9602950215
vn 0.1913950592 -0.1512117982 0.9697952867
vn -0.03157396242 -0.2235145718 0.974189043
vn -1.092245611e-16 -9.708849798e-17 1
vn -0.1913950592 -0.1512117982 0.9697952867
vn -0.2939918339 -0.1631286442 0.9417843819
vn -0.3991203904 -0.1251942813 0.9083112478
vn -0.523375392 -0.1632360816 0.8363205791
vn -0.5896573663 -0.0833440125 0.8033417463
vn -0.7185012102 -0.1631882191 0.6761106849
vn -0.7525511384 -0.02710790932 0.6579756737
vn -0.8594560027 -0.2235144973 0.4597571194
vn -0.8401675224 0.2425344437 0.4850727618
vn -0.9397554398 0.1186950877 0.3205795288
vn -0.9626049995 -0.1631286144 0.216288358
vn -0.4191316664 0.9067535996 0.04611500725
vn -0.9859626889 -0.1632360965 -0.03509328887
vn -0.9741029143 0.1990901381 -0.1071757823
vn -0.9447784424 -0.1631873399 -0.2841894031
vn -0.9397554398 0.1186950877 -0.3205795288
vn -0.8278875947 -0.2235146463 -0.5144349933
vn -0.8401681781 0.2425350994 -0.4850712717
vn -0.7525522709 -0.02710887231 -0.6579743028
vn -0.6686164141 -0.163128078 -0.7254938483
vn -0.5896574259 -0.08334276825 -0.8033418655
vn -0.4625886083 -0.1632365882 -0.8714158535
vn -0.3991227448 -0.1251920909 -0.9083105326
vn -0.2262738347 -0.1631873101 -0.9602968693
vn -0.1913899183 -0.1512108296 -0.9697964787
vn 0.04327070341 -0.1613381803 0.9859501123
vn -0.2139173746 -0.1457618773 0.9659155607
vn -0.4585871398 -0.1131361797 0.8814181685
vn -0.6736806035 -0.07185468823 0.7355211377
vn -0.8428095579 -0.03304855898 0.5371962786
vn -0.9536223412 -0.007384478115 0.3009150326
vn -0.9990367889 -0.001878072158 0.04384013638
vn -0.9761856794 -0.01801967435 -0.2161869556
vn -0.8859382272 -0.051422555 -0.4609437585
vn -0.734242022 -0.09291289747 -0.6724997163
vn -0.5328464508 -0.1311489344 -0.8359872103
vn -0.2972283959 -0.1560388356 -0.9419698119
vn -0.0432658717 -0.1613382101 -0.9859503508
vn 0.2972328067 -0.1560386121 0.9419685006
vn 0.2139081061 -0.1457621753 -0.9659175277
vn 0.5328464508 -0.1311489344 0.8359872103
vn 0.4585871398 -0.1131361797 -0.8814181685
vn 0.7342374921 -0.09291356057 0.6725045443
vn 0.6736832857 -0.07185444981 -0.7355186939
vn 0.8859372139 -0.05142277852 0.4609457552
vn 0.8428124189 -0.03304828703 -0.5371918678
vn 0.9761856794 -0.01801967435 0.2161869556
vn 0.9536223412 -0.007384478115 -0.3009150326
vn 0.9990367889 -0.001878072158 -0.04384013638
vn 0 1 0
vn 0 1 0
f 1//1 2//2 3//3 
f 3//3 2//2 4//4 
f 4//4 2//2 5//5 
f 4//4 5//5 6//6 
f 6//6 5//5 7//7 
f 6//6 7//7 8//8 
f 8//8 7//7 9//9 
f 8//8 9//9 10//10 
f 10//10 9//9 11//11 
f 10//10 11//11 12//12 
f 10//10 12//12 13//13 
f 13//13 12//12 14//14 
f 13//13 14//14 15//15 
f 15//15 14//14 16//16 
f 15//15 16//16 17//17 
f 17//17 16//16 18//18 
f 17//17 18//18 19//19 
f 19//19 18//18 20//20 
f 19//19 20//20 21//21 
f 19//19 21//21 22//22 
f 22//22 21//21 23//23 
f 22//22 23//23 24//24 
f 24//24 23//23 25//25 
f 24//24 25//25 26//26 
f 26//26 25//25 27//27 
f 26//26 27//27 28//28 
f 28//28 27//27 29//29 
f 29//29 30//30 28//28 
f 28//28 30//30 31//31 
f 31//31 30//30 32//32 
f 31//31 32//32 33//33 
f 33//33 32//32 34//34 
f 33//33 34//34 35//35 
f 35//35 34//34 36//36 
f 35//35 36//36 37//37 
f 37//37 36//36 38//38 
f 37//37 38//38 39//39 
f 37//37 39//39 40//40 
f 40//40 39//39 41//41 
f 40//40 41//41 42//42 
f 42//42 41//41 43//43 
f 42//42 43//43 44//44 
f 44//44 43//43 45//45 
f 44//44 45//45 46//46 
f 46//46 45//45 47//47 
f 46//46 47//47 48//48 
f 46//46 48//48 49//49 
f 49//49 48//48 50//50 
f 49//49 50//50 51//51 
f 51//51 50//50 52//52 
f 51//51 52//52 53//53 
f 53//53 52//52 54//54 
f 53//53 54//54 3//3 
f 3//3 54//54 1//1 
f 55//55 28//28 56//56 
f 56//56 28//28 31//31 
f 56//56 31//31 57//57 
f 57//57 31//31 33//33 
f 57//57 33//33 58//58 
f 58//58 33//33 35//35 
f 58//58 35//35 59//59 
f 59//59 35//35 37//37 
f 59//59 37//37 60//60 
f 60//60 37//37 40//40 
f 60//60 40//40 61//61 
f 61//61 40//40 42//42 
f 61//61 42//42 62//62 
f 62//62 42//42 44//44 
f 62//62 44//44 63//63 
f 63//63 44//44 46//46 
f 63//63 46//46 64//64 
f 64//64 46//46 49//49 
f 64//64 49//49 65//65 
f 65//65 49//49 51//51 
f 65//65 51//51 66//66 
f 66//66 51//51 53//53 
f 66//66 53//53 67//67 
f 67//67 53//53 3//3 
f 56//56 66//66 55//55 
f 55//55 66//66 67//67 
f 55//55 67//67 68//68 
f 68//68 67//67 69//69 
f 68//68 69//69 70//70 
f 70//70 69//69 71//71 
f 70//70 71//71 72//72 
f 72//72 71//71 73//73 
f 72//72 73//73 74//74 
f 74//74 73//73 75//75 
f 74//74 75//75 76//76 
f 76//76 75//75 77//77 
f 76//76 77//77 78//78 
f 66//66 56//56 65//65 
f 65//65 56//56 57//57 
f 65//65 57//57 64//64 
f 64//64 57//57 58//58 
f 64//64 58//58 63//63 
f 63//63 58//58 59//59 
f 63//63 59//59 62//62 
f 62//62 59//59 60//60 
f 62//62 60//60 61//61 
f 1//1 54//54 79//79 
f 79//79 54//54 52//52 
f 79//79 52//52 50//50 
f 50//50 48//48 79//79 
f 79//79 48//48 47//47 
f 79//79 47//47 45//45 
f 45//45 43//43 79//79 
f 79//79 43//43 41//41 
f 79//79 41//41 80//80 
f 80//80 41//41 39//39 
f 80//80 39//39 38//38 
f 38//38 36//36 80//80 
f 80//80 36//36 34//34 
f 80//80 34//34 32//32 
f 32//32 30//30 80//80 
f 80//80 30//30 29//29 
f 29//29 27//27 80//80 
f 80//80 27//27 25//25 
f 80//80 25//25 23//23 
f 23//23 21//21 80//80 
f 80//80 21//21 20//20 
f 80//80 20//20 18//18 
f 18//18 16//16 80//80 
f 80//80 16//16 14//14 
f 80//80 14//14 79//79 
f 79//79 14//14 12//12 
f 79//79 12//12 11//11 
f 11//11 9//9 79//79 
f 79//79 9//9 7//7 
f 79//79 7//7 5//5 
f 5//5 2//2 79//79 
f 79//79 2//2 1//1 
f 67//67 3//3 69//69 
f 69//69 3//3 4//4 
f 69//69 4//4 71//71 
f 71//71 4//4 6//6 
f 71//71 6//6 73//73 
f 73//73 6//6 8//8 
f 73//73 8//8 75//75 
f 75//75 8//8 10//10 
f 75//75 10//10 77//77 
f 77//77 10//10 13//13 
f 77//77 13//13 78//78 
f 78//78 13//13 15//15 
f 78//78 15//15 76//76 
f 76//76 15//15 17//17 
f 76//76 17//17 74//74 
f 74//74 17//17 19//19 
f 74//74 19//19 72//72 
f 72//72 19//19 22//22 
f 72//72 22//22 70//70 
f 70//70 22//22 24//24 
f 70//70 24//24 68//68 
f 68//68 24//24 26//26 
f 68//68 26//26 55//55 
f 55//55 26//26 28//28 
