v 13.29985142 -25.75 57.52665329
v 13.29985142 -25.75 54.52665329
v 16.29985046 -25.75 57.52665329
v 16.29985046 -25.75 54.52665329
v 13.29985142 -11.66666698 54.52665329
v 13.29985142 -11.66666698 57.52665329
v 16.29985046 -11.66666698 57.52665329
v 16.29985046 -11.66666698 54.52665329
vn -0.4451981187 -0.09483507276 0.8903959394
vn -0.8786218762 -0.187161997 -0.4393107891
vn 0.8786218762 -0.187161997 0.4393107891
vn 0.4451981187 -0.09483507276 -0.8903959394
vn -0.4451981187 0.09483507276 -0.8903959394
vn -0.8786218762 0.187161997 0.4393107891
vn 0.4451981187 0.09483507276 0.8903959394
vn 0.8786218762 0.187161997 -0.4393107891
f 1//1 2//2 3//3 
f 3//3 2//2 4//4 
f 5//5 2//2 6//6 
f 6//6 2//2 1//1 
f 7//7 3//3 8//8 
f 8//8 3//3 4//4 
f 8//8 4//4 5//5 
f 5//5 4//4 2//2 
f 6//6 1//1 7//7 
f 7//7 1//1 3//3 
f 7//7 8//8 6//6 
f 6//6 8//8 5//5 
