v 89.88318634 -0.3125 -126.9733505
v 89.88318634 -25.75 -126.9733505
v 90.54985046 -0.3125 -126.9733505
v 90.54985046 -25.75 -126.9733505
v 90.54985046 -25.75 -134.3066864
v 90.54985046 -0.3125 -134.3066864
v 89.88318634 -0.3125 -134.3066864
v 89.88318634 -25.75 -134.3066864
vn -0.9986263514 0.02617192641 0.04539191723
vn -0.9835431576 -0.02577662654 0.1788252741
vn 0.9835431576 0.02577662654 0.1788252741
vn 0.9986263514 -0.02617192641 0.04539191723
vn 0.9835431576 -0.02577662654 -0.1788252741
vn 0.9986263514 0.02617192641 -0.04539191723
vn -0.9835431576 0.02577662654 -0.1788252741
vn -0.9986263514 -0.02617192641 -0.04539191723
f 1//1 2//2 3//3 
f 3//3 2//2 4//4 
f 5//5 6//6 4//4 
f 4//4 6//6 3//3 
f 7//7 1//1 6//6 
f 6//6 1//1 3//3 
f 2//2 8//8 4//4 
f 4//4 8//8 5//5 
f 2//2 1//1 8//8 
f 8//8 1//1 7//7 
f 8//8 7//7 5//5 
f 5//5 7//7 6//6 
