v 88.57979584 -11.66666698 -84.9050293
v 88.21651459 -11.66666698 -82.97335052
v 88.74572754 -11.66666698 -84.82183838
v 88.4720459 -11.66666698 -83.00654602
v 88.71060181 -11.66666698 -83.10393524
v 88.40133667 -11.66666698 -84.95612335
v 88.21651459 -11.66666698 -84.97335052
v 87.95770264 -11.66666698 -83.0074234
v 87.95770264 -11.66666698 -84.93927002
v 87.71651459 -11.66666698 -83.10732269
v 87.71651459 -11.66666698 -84.83937073
v 87.50941467 -11.66666698 -83.26624298
v 87.50941467 -11.66666698 -84.68045807
v 87.35049438 -11.66666698 -83.47335052
v 87.35049438 -11.66666698 -84.47335052
v 87.25059509 -11.66666698 -83.71453094
v 87.25059509 -11.66666698 -84.2321701
v 87.21651459 -11.66666698 -83.97335052
v 88.91635895 -11.66666698 -83.25904846
v 88.94496918 -11.66666698 -84.65843964
v 89.07564545 -11.66666698 -83.46159363
v 89.09584808 -11.66666698 -84.44956207
v 89.17789459 -11.66666698 -83.69811249
v 89.18833923 -11.66666698 -84.20906067
v 89.21630859 -11.66666698 -83.95290375
v 87.95770264 -25.75 -83.0074234
v 87.95770264 -25.75 -84.93927002
v 88.21651459 -25.75 -82.97335052
v 88.21651459 -25.75 -84.97335052
v 88.47533417 -25.75 -83.0074234
v 88.47533417 -25.75 -84.93927002
v 88.71651459 -25.75 -83.10732269
v 88.71651459 -25.75 -84.83937073
v 88.92362213 -25.75 -83.26624298
v 88.92362213 -25.75 -84.68045807
v 89.08254242 -25.75 -83.47335052
v 89.08254242 -25.75 -84.47335052
v 89.18244171 -25.75 -83.71453094
v 89.18244171 -25.75 -84.2321701
v 89.21651459 -25.75 -83.97335052
v 87.71651459 -25.75 -84.83937073
v 87.71651459 -25.75 -83.10732269
v 87.50941467 -25.75 -84.68045807
v 87.50941467 -25.75 -83.26624298
v 87.35049438 -25.75 -84.47335052
v 87.35049438 -25.75 -83.47335052
v 87.25059509 -25.75 -84.2321701
v 87.25059509 -25.75 -83.71453094
v 87.21651459 -25.75 -83.97335052
vn 0.3701390922 0.08003105968 -0.9255226254
vn -0.04437596351 0.1853670776 0.981666863
vn 0.568330884 0.1834919751 -0.8020790219
vn 0.2129770964 0.07909237593 0.9738506675
vn 0.4561061561 0.0693416968 0.8872197866
vn 0.1618716866 0.08214645833 -0.983386755
vn -0.03706061095 0.2166092545 -0.9755547047
vn -0.2981850803 0.1343088448 0.9450115561
vn -0.2145308107 0.1254158467 -0.9686317444
vn -0.5340639949 0.1127824411 0.8378876448
vn -0.4593518972 0.09723237902 -0.8829165697
vn -0.7350797653 0.07980748266 0.6732670069
vn -0.6741392612 0.06169377267 -0.7360231876
vn -0.886249423 0.04413599148 0.4611007571
vn -0.8429316282 0.02835886925 -0.5372727513
vn -0.9762244225 0.01546111237 0.2162102461
vn -0.9536291957 0.006336020771 -0.3009172082
vn -0.9990368485 0.001611724496 -0.04384995252
vn 0.6681020856 0.07795125991 0.7399751544
vn 0.7498777509 0.06016473845 -0.6588350534
vn 0.8374059796 0.04296857491 0.5448898077
vn 0.8951261044 0.02761120722 -0.4449571669
vn 0.9499676824 0.01504625566 0.3119856417
vn 0.9796951413 0.006200756412 -0.2003971338
vn 0.9983305931 0.001609307947 0.0577358529
vn -0.214512229 -0.1254163682 0.9686357379
vn -0.2981939614 -0.1343084574 -0.9450088143
vn 0.04247574508 -0.1394978464 0.9893109798
vn -0.0174178686 -0.1127993837 -0.9934651256
vn 0.2962052524 -0.1348868906 0.9455516934
vn 0.2606267631 -0.138680324 -0.9554273486
vn 0.531337738 -0.1132685319 0.8395537138
vn 0.4836523235 -0.1076508462 -0.8686148524
vn 0.73213166 -0.0801686272 0.6764289737
vn 0.6822676063 -0.06200419366 -0.7284685373
vn 0.8837043643 -0.04435961321 0.4659386873
vn 0.8482496738 -0.02854750119 -0.5288265944
vn 0.9747787714 -0.01558068022 0.2226289362
vn 0.9562599063 -0.006437137723 -0.2924475074
vn 0.9993459582 -0.001686892589 -0.03612200543
vn -0.5340500474 -0.1127836183 -0.8378964067
vn -0.4593595862 -0.09723194689 0.8829126358
vn -0.735075295 -0.07980805635 -0.6732718349
vn -0.6741499305 -0.06169295684 0.7360134721
vn -0.886249423 -0.04413599148 -0.4611007571
vn -0.8429316282 -0.02835886925 0.5372727513
vn -0.9762244225 -0.01546111237 -0.2162102461
vn -0.9536291957 -0.006336020771 0.3009172082
vn -0.9990368485 -0.001611724496 0.04384995252
f 1//1 2//2 3//3 
f 3//3 2//2 4//4 
f 3//3 4//4 5//5 
f 1//1 6//6 2//2 
f 2//2 6//6 7//7 
f 2//2 7//7 8//8 
f 8//8 7//7 9//9 
f 8//8 9//9 10//10 
f 10//10 9//9 11//11 
f 10//10 11//11 12//12 
f 12//12 11//11 13//13 
f 12//12 13//13 14//14 
f 14//14 13//13 15//15 
f 14//14 15//15 16//16 
f 16//16 15//15 17//17 
f 16//16 17//17 18//18 
f 5//5 19//19 3//3 
f 3//3 19//19 20//20 
f 20//20 19//19 21//21 
f 20//20 21//21 22//22 
f 22//22 21//21 23//23 
f 22//22 23//23 24//24 
f 24//24 23//23 25//25 
f 26//26 27//27 28//28 
f 28//28 27//27 29//29 
f 28//28 29//29 30//30 
f 30//30 29//29 31//31 
f 30//30 31//31 32//32 
f 32//32 31//31 33//33 
f 32//32 33//33 34//34 
f 34//34 33//33 35//35 
f 34//34 35//35 36//36 
f 36//36 35//35 37//37 
f 36//36 37//37 38//38 
f 38//38 37//37 39//39 
f 38//38 39//39 40//40 
f 27//27 26//26 41//41 
f 41//41 26//26 42//42 
f 41//41 42//42 43//43 
f 43//43 42//42 44//44 
f 43//43 44//44 45//45 
f 45//45 44//44 46//46 
f 45//45 46//46 47//47 
f 47//47 46//46 48//48 
f 47//47 48//48 49//49 
f 28//28 2//2 26//26 
f 26//26 2//2 8//8 
f 26//26 8//8 42//42 
f 42//42 8//8 10//10 
f 42//42 10//10 44//44 
f 44//44 10//10 12//12 
f 44//44 12//12 46//46 
f 46//46 12//12 14//14 
f 46//46 14//14 48//48 
f 48//48 14//14 16//16 
f 48//48 16//16 49//49 
f 49//49 16//16 18//18 
f 49//49 18//18 47//47 
f 47//47 18//18 17//17 
f 47//47 17//17 45//45 
f 45//45 17//17 15//15 
f 45//45 15//15 43//43 
f 43//43 15//15 13//13 
f 43//43 13//13 41//41 
f 41//41 13//13 11//11 
f 41//41 11//11 27//27 
f 27//27 11//11 9//9 
f 27//27 9//9 29//29 
f 29//29 9//9 7//7 
f 7//7 6//6 29//29 
f 29//29 6//6 31//31 
f 31//31 6//6 1//1 
f 31//31 1//1 33//33 
f 33//33 1//1 3//3 
f 33//33 3//3 35//35 
f 35//35 3//3 20//20 
f 35//35 20//20 37//37 
f 37//37 20//20 22//22 
f 37//37 22//22 39//39 
f 39//39 22//22 24//24 
f 39//39 24//24 40//40 
f 40//40 24//24 25//25 
f 40//40 25//25 38//38 
f 38//38 25//25 23//23 
f 38//38 23//23 36//36 
f 36//36 23//23 21//21 
f 36//36 21//21 34//34 
f 34//34 21//21 19//19 
f 34//34 19//19 32//32 
f 32//32 19//19 5//5 
f 32//32 5//5 30//30 
f 30//30 5//5 4//4 
f 30//30 4//4 28//28 
f 28//28 4//4 2//2 
