v 89.88318634 -0.3125 86.69332123
v 89.88318634 -25.75 86.69332123
v 89.88318634 -0.3125 87.35998535
v 89.88318634 -25.75 87.35998535
v 97.46651459 -25.75 86.69332123
v 97.46651459 -0.3125 86.69332123
v 97.46651459 -25.75 87.35998535
v 97.46651459 -0.3125 87.35998535
vn -0.0439097397 0.01309020072 -0.9989497662
vn -0.1729370654 -0.05155532435 -0.9835826159
vn -0.1729370654 0.05155532435 0.9835826159
vn -0.0439097397 -0.01309020072 0.9989497662
vn 0.0439097397 -0.01309020072 -0.9989497662
vn 0.1729370654 0.05155532435 -0.9835826159
vn 0.1729370654 -0.05155532435 0.9835826159
vn 0.0439097397 0.01309020072 0.9989497662
f 1//1 2//2 3//3 
f 3//3 2//2 4//4 
f 2//2 1//1 5//5 
f 5//5 1//1 6//6 
f 5//5 7//7 2//2 
f 2//2 7//7 4//4 
f 1//1 3//3 6//6 
f 6//6 3//3 8//8 
f 7//7 8//8 4//4 
f 4//4 8//8 3//3 
f 5//5 6//6 7//7 
f 7//7 6//6 8//8 
