v 95.54985046 -0.3125 209.3599854
v 95.54985046 -25.75 209.3599854
v 95.54985046 -0.3125 208.6933136
v 95.54985046 -25.75 208.6933136
v 89.71651459 -25.75 209.3599854
v 89.71651459 -0.3125 209.3599854
v 89.71651459 -25.75 208.6933136
v 89.71651459 -0.3125 208.6933136
vn 0.05704531819 0.01308165118 0.9982858896
vn 0.2225359827 -0.05103202537 0.9735879302
vn 0.2225359827 0.05103202537 -0.9735879302
vn 0.05704531819 -0.01308165118 -0.9982858896
vn -0.05704531819 -0.01308165118 0.9982858896
vn -0.2225359827 0.05103202537 0.9735879302
vn -0.2225359827 -0.05103202537 -0.9735879302
vn -0.05704531819 0.01308165118 -0.9982858896
f 1//1 2//2 3//3 
f 3//3 2//2 4//4 
f 2//2 1//1 5//5 
f 5//5 1//1 6//6 
f 5//5 7//7 2//2 
f 2//2 7//7 4//4 
f 1//1 3//3 6//6 
f 6//6 3//3 8//8 
f 7//7 8//8 4//4 
f 4//4 8//8 3//3 
f 5//5 6//6 7//7 
f 7//7 6//6 8//8 
