v 89.04985046 -0.3125 197.8599854
v 89.04985046 -25.75 197.8599854
v 89.04985046 -0.3125 198.5266571
v 89.04985046 -25.75 198.5266571
v 91.04985046 -25.75 197.8599854
v 91.04985046 -0.3125 197.8599854
v 91.04985046 -25.75 198.5266571
v 91.04985046 -0.3125 198.5266571
vn -0.164386481 0.01292473543 -0.9863113165
vn -0.5541763306 -0.04357160255 -0.8312581778
vn -0.5541763306 0.04357160255 0.8312581778
vn -0.164386481 -0.01292473543 0.9863113165
vn 0.164386481 -0.01292473543 -0.9863113165
vn 0.5541763306 0.04357160255 -0.8312581778
vn 0.5541763306 -0.04357160255 0.8312581778
vn 0.164386481 0.01292473543 0.9863113165
f 1//1 2//2 3//3 
f 3//3 2//2 4//4 
f 2//2 1//1 5//5 
f 5//5 1//1 6//6 
f 5//5 7//7 2//2 
f 2//2 7//7 4//4 
f 1//1 3//3 6//6 
f 6//6 3//3 8//8 
f 7//7 8//8 4//4 
f 4//4 8//8 3//3 
f 5//5 6//6 7//7 
f 7//7 6//6 8//8 
