v 92.21651459 -3 249.4433136
v 92.21651459 -25.75 249.4433136
v 92.21651459 -3 250.1099854
v 92.21651459 -25.75 250.1099854
v 97.38318634 -25.75 249.4433136
v 97.38318634 -3 249.4433136
v 97.38318634 -25.75 250.1099854
v 97.38318634 -3 250.1099854
vn -0.06437582523 0.01462016441 -0.9978186488
vn -0.2494781762 -0.05665810406 -0.9667215347
vn -0.2494781762 0.05665810406 0.9667215347
vn -0.06437582523 -0.01462016441 0.9978186488
vn 0.06437582523 -0.01462016441 -0.9978186488
vn 0.2494781762 0.05665810406 -0.9667215347
vn 0.2494781762 -0.05665810406 0.9667215347
vn 0.06437582523 0.01462016441 0.9978186488
f 1//1 2//2 3//3 
f 3//3 2//2 4//4 
f 2//2 1//1 5//5 
f 5//5 1//1 6//6 
f 5//5 7//7 2//2 
f 2//2 7//7 4//4 
f 1//1 3//3 6//6 
f 6//6 3//3 8//8 
f 7//7 8//8 4//4 
f 4//4 8//8 3//3 
f 5//5 6//6 7//7 
f 7//7 6//6 8//8 
