v -28.10338211 0 -153.1047058
v -28.10338211 -0.3125 -153.1047058
v -28.17430687 0 -152.7297058
v -28.17430687 -0.3125 -152.7297058
v -13.1849432 -0.3125 -153.1047058
v -13.1849432 0 -153.1047058
v -13.1849432 -0.3125 -152.7297058
v -13.1849432 0 -152.7297058
vn -0.008026715368 0.7681965232 -0.6401637793
vn -0.01926613413 -0.9219323993 -0.3868713975
vn -0.03213968873 0.7708055377 0.6362592578
vn -0.01074433327 -0.5153623223 0.8569050431
vn 0.01077663619 -0.5144658685 -0.8574431539
vn 0.03216756135 0.7678236961 -0.6398531199
vn 0.01927969605 -0.9225813746 0.3853205144
vn 0.008018916473 0.7674501538 0.641058445
f 1//1 2//2 3//3 
f 3//3 2//2 4//4 
f 2//2 1//1 5//5 
f 5//5 1//1 6//6 
f 5//5 7//7 2//2 
f 2//2 7//7 4//4 
f 6//6 1//1 8//8 
f 8//8 1//1 3//3 
f 7//7 8//8 4//4 
f 4//4 8//8 3//3 
f 5//5 6//6 7//7 
f 7//7 6//6 8//8 
