v -76.36681366 0 85.19332123
v -76.36681366 0 82.85998535
v -74.03348541 0 85.19332123
v -74.03348541 0 82.85998535
v -76.36681366 18.66666603 82.85998535
v -76.36681366 18.66666603 85.19332123
v -74.03348541 18.66666603 85.19332123
v -74.03348541 18.66666603 82.85998535
vn -0.4465176165 -0.05581458285 0.8930323124
vn -0.8888894916 -0.111110948 -0.4444432855
vn 0.8888894916 -0.111110948 0.4444432855
vn 0.4465176165 -0.05581458285 -0.8930323124
vn -0.4465176165 0.05581458285 -0.8930323124
vn -0.8888894916 0.111110948 0.4444432855
vn 0.4465176165 0.05581458285 0.8930323124
vn 0.8888894916 0.111110948 -0.4444432855
f 1//1 2//2 3//3 
f 3//3 2//2 4//4 
f 5//5 2//2 6//6 
f 6//6 2//2 1//1 
f 7//7 3//3 8//8 
f 8//8 3//3 4//4 
f 8//8 4//4 5//5 
f 5//5 4//4 2//2 
f 6//6 1//1 7//7 
f 7//7 1//1 3//3 
f 7//7 8//8 6//6 
f 6//6 8//8 5//5 
