v -45.50210571 0 143.1535645
v -45.50210571 0 140.8997345
v -45.20014954 0 143.1933136
v -45.20014954 0 140.8599854
v -44.89819336 0 143.1535645
v -44.89819336 0 140.8997345
v -44.61681366 0 143.0370178
v -44.61681366 0 141.0162964
v -44.37519073 0 142.8516083
v -44.37519073 0 141.2016907
v -44.189785 0 142.6099854
v -44.189785 0 141.4433136
v -44.07323456 0 142.3286133
v -44.07323456 0 141.7247009
v -44.0334816 0 142.0266571
v -45.7834816 0 141.0162964
v -45.7834816 0 143.0370178
v -46.02510834 0 141.2016907
v -46.02510834 0 142.8516083
v -46.21051025 0 141.4433136
v -46.21051025 0 142.6099854
v -46.3270607 0 141.7247009
v -46.3270607 0 142.3286133
v -46.36681366 0 142.0266571
v -45.20014954 18.66666603 143.1933136
v -45.50210571 18.66666603 143.1535645
v -45.7834816 18.66666603 143.0370178
v -46.02510834 18.66666603 142.8516083
v -46.21051025 18.66666603 142.6099854
v -46.3270607 18.66666603 142.3286133
v -46.36681366 18.66666603 142.0266571
v -46.3270607 18.66666603 141.7247009
v -46.21051025 18.66666603 141.4433136
v -46.02510834 18.66666603 141.2016907
v -45.7834816 18.66666603 141.0162964
v -45.50210571 18.66666603 140.8997345
v -45.20014954 18.66666603 140.8599854
v -44.89819336 18.66666603 143.1535645
v -44.89819336 18.66666603 140.8997345
v -44.61681366 18.66666603 141.0162964
v -44.61681366 18.66666603 143.0370178
v -44.37519073 18.66666603 141.2016907
v -44.37519073 18.66666603 142.8516083
v -44.189785 18.66666603 141.4433136
v -44.189785 18.66666603 142.6099854
v -44.07323456 18.66666603 141.7247009
v -44.07323456 18.66666603 142.3286133
v -44.0334816 18.66666603 142.0266571
vn -0.2148835212 -0.1105868295 0.9703584909
vn -0.2988190353 -0.1184624285 -0.9469286203
vn 0.04350708425 -0.1225309968 0.9915106297
vn -0.04350708425 -0.1225309968 -0.9915106297
vn 0.2987862229 -0.1184631735 0.9469388723
vn 0.2148985863 -0.1105869263 -0.9703551531
vn 0.5348296165 -0.09941310436 0.8390913606
vn 0.4598632753 -0.08567618579 -0.883846879
vn 0.735604167 -0.07029882818 0.673754096
vn 0.6744160056 -0.05432702973 -0.7363501787
vn 0.8864403367 -0.03885781765 0.4612087905
vn 0.8430102468 -0.02496401221 -0.537317872
vn 0.9762536883 -0.01360938232 0.2162025422
vn 0.9536371827 -0.005576706957 -0.3009070158
vn 0.9990375042 -0.001418382046 -0.04384157062
vn -0.5348157883 -0.09941314161 -0.8391001821
vn -0.4598517418 -0.08567753434 0.8838527799
vn -0.7355985641 -0.0703003481 -0.6737600565
vn -0.6744322777 -0.05432536826 0.7363354564
vn -0.886449337 -0.03885610029 -0.4611917436
vn -0.8430091739 -0.02496421523 0.537319541
vn -0.9762544632 -0.01360915881 -0.2161989957
vn -0.9536341429 -0.005576885771 0.3009166718
vn -0.9990375042 -0.001418382046 0.04384157062
vn -0.04350708425 0.1225309968 0.9915106297
vn -0.2987885773 0.1184636131 0.9469380975
vn -0.5348277688 0.09941225499 0.8390926719
vn -0.7356062531 0.07029947639 0.6737517715
vn -0.8864421248 0.03885725886 0.4612054825
vn -0.9762536883 0.01360938232 0.2162025422
vn -0.9990375042 0.001418382046 -0.04384157062
vn -0.9536371827 0.005576706957 -0.3009070158
vn -0.8430140615 0.02496386133 -0.5373119116
vn -0.6744139194 0.05432660133 -0.7363521457
vn -0.459864974 0.08567687124 -0.8838459849
vn -0.2148994803 0.1105864272 -0.9703550339
vn 0.04350708425 0.1225309968 -0.9915106297
vn 0.2148826271 0.1105873212 0.9703586698
vn 0.2988166511 0.1184619889 -0.9469294548
vn 0.534817636 0.09941399097 -0.8390988708
vn 0.4598500729 0.08567684889 0.8838537335
vn 0.735596478 0.07029969245 -0.6737623811
vn 0.6744343042 0.05432580039 0.7363334894
vn 0.8864475489 0.03885665908 -0.4611950517
vn 0.8430053592 0.02496436611 0.5373255014
vn 0.9762544632 0.01360915881 -0.2161989957
vn 0.9536341429 0.005576885771 0.3009166718
vn 0.9990375042 0.001418382046 0.04384157062
f 1//1 2//2 3//3 
f 3//3 2//2 4//4 
f 3//3 4//4 5//5 
f 5//5 4//4 6//6 
f 5//5 6//6 7//7 
f 7//7 6//6 8//8 
f 7//7 8//8 9//9 
f 9//9 8//8 10//10 
f 9//9 10//10 11//11 
f 11//11 10//10 12//12 
f 11//11 12//12 13//13 
f 13//13 12//12 14//14 
f 13//13 14//14 15//15 
f 2//2 1//1 16//16 
f 16//16 1//1 17//17 
f 16//16 17//17 18//18 
f 18//18 17//17 19//19 
f 18//18 19//19 20//20 
f 20//20 19//19 21//21 
f 20//20 21//21 22//22 
f 22//22 21//21 23//23 
f 22//22 23//23 24//24 
f 3//3 25//25 1//1 
f 1//1 25//25 26//26 
f 1//1 26//26 17//17 
f 17//17 26//26 27//27 
f 17//17 27//27 19//19 
f 19//19 27//27 28//28 
f 19//19 28//28 21//21 
f 21//21 28//28 29//29 
f 21//21 29//29 23//23 
f 23//23 29//29 30//30 
f 23//23 30//30 24//24 
f 24//24 30//30 31//31 
f 24//24 31//31 22//22 
f 22//22 31//31 32//32 
f 22//22 32//32 20//20 
f 20//20 32//32 33//33 
f 20//20 33//33 18//18 
f 18//18 33//33 34//34 
f 18//18 34//34 16//16 
f 16//16 34//34 35//35 
f 16//16 35//35 2//2 
f 2//2 35//35 36//36 
f 2//2 36//36 4//4 
f 4//4 36//36 37//37 
f 38//38 39//39 25//25 
f 25//25 39//39 37//37 
f 25//25 37//37 26//26 
f 26//26 37//37 36//36 
f 26//26 36//36 27//27 
f 27//27 36//36 35//35 
f 27//27 35//35 28//28 
f 28//28 35//35 34//34 
f 28//28 34//34 29//29 
f 29//29 34//34 33//33 
f 29//29 33//33 30//30 
f 30//30 33//33 32//32 
f 30//30 32//32 31//31 
f 39//39 38//38 40//40 
f 40//40 38//38 41//41 
f 40//40 41//41 42//42 
f 42//42 41//41 43//43 
f 42//42 43//43 44//44 
f 44//44 43//43 45//45 
f 44//44 45//45 46//46 
f 46//46 45//45 47//47 
f 46//46 47//47 48//48 
f 4//4 37//37 6//6 
f 6//6 37//37 39//39 
f 6//6 39//39 8//8 
f 8//8 39//39 40//40 
f 8//8 40//40 10//10 
f 10//10 40//40 42//42 
f 10//10 42//42 12//12 
f 12//12 42//42 44//44 
f 12//12 44//44 14//14 
f 14//14 44//44 46//46 
f 14//14 46//46 15//15 
f 15//15 46//46 48//48 
f 15//15 48//48 13//13 
f 13//13 48//48 47//47 
f 13//13 47//47 11//11 
f 11//11 47//47 45//45 
f 11//11 45//45 9//9 
f 9//9 45//45 43//43 
f 9//9 43//43 7//7 
f 7//7 43//43 41//41 
f 7//7 41//41 5//5 
f 5//5 41//41 38//38 
f 5//5 38//38 3//3 
f 3//3 38//38 25//25 
