v -61.20014954 -0.3125 4.609985352
v -61.20014954 -2.166666746 4.609985352
v -60.20014954 -0.3125 4.609985352
v -60.20014954 -2.166666746 4.609985352
v -60.20014954 -2.166666746 -15.39001465
v -60.20014954 -0.3125 -15.39001465
v -61.20014954 -0.3125 -15.39001465
v -61.20014954 -2.166666746 -15.39001465
vn -0.8799403906 0.4745745659 0.02199850976
vn -0.8767638803 -0.4728614092 0.08767639101
vn 0.8767638803 0.4728614092 0.08767639101
vn 0.8799403906 -0.4745745659 0.02199850976
vn 0.8767638803 -0.4728614092 -0.08767639101
vn 0.8799403906 0.4745745659 -0.02199850976
vn -0.8767638803 0.4728614092 -0.08767639101
vn -0.8799403906 -0.4745745659 -0.02199850976
f 1//1 2//2 3//3 
f 3//3 2//2 4//4 
f 5//5 6//6 4//4 
f 4//4 6//6 3//3 
f 7//7 1//1 6//6 
f 6//6 1//1 3//3 
f 2//2 8//8 4//4 
f 4//4 8//8 5//5 
f 2//2 1//1 8//8 
f 8//8 1//1 7//7 
f 8//8 7//7 5//5 
f 5//5 7//7 6//6 
