v -75.11681366 -0.3125 -207.3483429
v -75.11681366 -3.583333254 -207.3483429
v -75.11681366 -0.3125 -206.3483429
v -75.11681366 -3.583333254 -206.3483429
v -47.70014954 -3.583333254 -207.3483429
v -47.70014954 -0.3125 -207.3483429
v -47.70014954 -3.583333254 -206.3483429
v -47.70014954 -0.3125 -206.3483429
vn -0.01802473515 0.1510863006 -0.9883562326
vn -0.06211550906 -0.5206624269 -0.8515000343
vn -0.06211550906 0.5206624269 0.8515000343
vn -0.01802473515 -0.1510863006 0.9883562326
vn 0.01802473515 -0.1510863006 -0.9883562326
vn 0.06211550906 0.5206624269 -0.8515000343
vn 0.06211550906 -0.5206624269 0.8515000343
vn 0.01802473515 0.1510863006 0.9883562326
f 1//1 2//2 3//3 
f 3//3 2//2 4//4 
f 2//2 1//1 5//5 
f 5//5 1//1 6//6 
f 5//5 7//7 2//2 
f 2//2 7//7 4//4 
f 1//1 3//3 6//6 
f 6//6 3//3 8//8 
f 7//7 8//8 4//4 
f 4//4 8//8 3//3 
f 5//5 6//6 7//7 
f 7//7 6//6 8//8 
