v -75.11681366 -0.3125 -207.3483429
v -75.11681366 -3.583333254 -207.3483429
v -76.11681366 -0.3125 -207.3483429
v -76.11681366 -3.583333254 -207.3483429
v -75.11681366 -3.583333254 -178.2233429
v -75.11681366 -0.3125 -178.2233429
v -76.11681366 -3.583333254 -178.2233429
v -76.11681366 -0.3125 -178.2233429
vn 0.9561754465 0.2923339009 -0.0164150279
vn 0.9542489052 -0.2917448878 -0.06552782655
vn -0.9542489052 0.2917448878 -0.06552782655
vn -0.9561754465 -0.2923339009 -0.0164150279
vn 0.9561754465 -0.2923339009 0.0164150279
vn 0.9542489052 0.2917448878 0.06552782655
vn -0.9542489052 -0.2917448878 0.06552782655
vn -0.9561754465 0.2923339009 0.0164150279
f 1//1 2//2 3//3 
f 3//3 2//2 4//4 
f 2//2 1//1 5//5 
f 5//5 1//1 6//6 
f 2//2 5//5 4//4 
f 4//4 5//5 7//7 
f 6//6 1//1 8//8 
f 8//8 1//1 3//3 
f 7//7 8//8 4//4 
f 4//4 8//8 3//3 
f 5//5 6//6 7//7 
f 7//7 6//6 8//8 
