v 26.25818443 2.166666746 -207.3900146
v 26.25818443 2.166666746 -215.2233429
v 25.9665184 2.166666746 -207.3900146
v 25.9665184 2.166666746 -215.2233429
v 25.9665184 -0.3125 -207.3900146
v 25.9665184 -0.3125 -215.2233429
v 27.3415184 2.166666746 -215.2233429
v 27.3415184 2.166666746 -207.3900146
v 27.38318443 2.166666746 -215.2233429
v 27.38318443 2.166666746 -207.3900146
v 27.38318443 -0.3125 -215.2233429
v 27.38318443 -0.3125 -207.3900146
v 27.38318443 2.458333254 -207.3900146
v 27.38318443 2.458333254 -215.2233429
v 27.29985046 2.541666746 -207.3900146
v 27.29985046 2.541666746 -215.2233429
v 26.29985046 2.541666746 -207.3900146
v 26.29985046 2.541666746 -215.2233429
v 26.2165184 2.208333254 -207.3900146
v 26.2165184 2.208333254 -215.2233429
v 26.25818443 2.208333254 -207.3900146
v 26.25818443 2.208333254 -215.2233429
v 27.3415184 2.208333254 -215.2233429
v 27.38318443 2.208333254 -215.2233429
v 26.2165184 2.458333254 -215.2233429
v 27.38318443 2.208333254 -207.3900146
v 27.3415184 2.208333254 -207.3900146
v 26.2165184 2.458333254 -207.3900146
vn -0.04058404267 0.2840887606 0.9579386711
vn -0.07268445939 0.5087920427 -0.8578156233
vn -0.9929808974 0.1168210283 0.01848631911
vn -0.992472291 0.1167611852 -0.03695369884
vn -0.853084743 -0.4874767661 0.1860450655
vn -0.8643779755 -0.4939300418 -0.09425397217
vn 0.1010425538 0.1010413989 -0.9897378683
vn 0.1961661428 0.1961638927 0.9607489705
vn 0.9998552799 0.01680403389 -0.002659150632
vn 0.9998446703 0.01680385508 0.005318244919
vn 0.8357133269 -0.4775502384 -0.2711623907
vn 0.8597558737 -0.4912888408 0.1394817233
vn 0.9700613618 0.2425170839 0.01289973687
vn 0.9701219201 0.2425322086 -0.006450271234
vn 0.1408838183 0.9861859083 0.08711559325
vn 0.0399193652 0.9979825616 -0.04936832935
vn -0.03995609656 0.9988998771 0.02454743907
vn -0.1412886679 0.9890165925 -0.04340107366
vn -0.9863807559 -0.1643942893 0.005246629473
vn -0.9863909483 -0.164395988 -0.002623341745
vn -0.7065600753 -0.7065519691 0.03946170583
vn -0.7049154043 -0.7049073577 -0.0787397027
vn 0.7065600157 -0.7065519691 -0.03946230561
vn 0.9863807559 -0.1643942893 -0.005246629473
vn -0.9700626731 0.2425118536 -0.01289957762
vn 0.9863909483 -0.164395988 0.002623341745
vn 0.7049153447 -0.7049072385 0.07874089479
vn -0.9701232314 0.2425269932 0.00645019114
f 1//1 2//2 3//3 
f 3//3 2//2 4//4 
f 5//5 3//3 6//6 
f 6//6 3//3 4//4 
f 7//7 8//8 9//9 
f 9//9 8//8 10//10 
f 11//11 12//12 6//6 
f 6//6 12//12 5//5 
f 11//11 9//9 12//12 
f 12//12 9//9 10//10 
f 13//13 14//14 15//15 
f 15//15 14//14 16//16 
f 15//15 16//16 17//17 
f 17//17 16//16 18//18 
f 19//19 20//20 21//21 
f 21//21 20//20 22//22 
f 22//22 18//18 2//2 
f 2//2 18//18 16//16 
f 2//2 16//16 7//7 
f 7//7 16//16 23//23 
f 23//23 16//16 14//14 
f 23//23 14//14 24//24 
f 20//20 25//25 22//22 
f 22//22 25//25 18//18 
f 9//9 11//11 7//7 
f 7//7 11//11 2//2 
f 11//11 6//6 2//2 
f 2//2 6//6 4//4 
f 13//13 26//26 14//14 
f 14//14 26//26 24//24 
f 27//27 8//8 23//23 
f 23//23 8//8 7//7 
f 27//27 15//15 8//8 
f 8//8 15//15 1//1 
f 8//8 1//1 12//12 
f 12//12 1//1 5//5 
f 5//5 1//1 3//3 
f 26//26 13//13 27//27 
f 27//27 13//13 15//15 
f 15//15 17//17 1//1 
f 1//1 17//17 21//21 
f 21//21 17//17 28//28 
f 21//21 28//28 19//19 
f 12//12 10//10 8//8 
f 27//27 23//23 26//26 
f 26//26 23//23 24//24 
f 1//1 21//21 2//2 
f 2//2 21//21 22//22 
f 19//19 28//28 20//20 
f 20//20 28//28 25//25 
f 17//17 18//18 28//28 
f 28//28 18//18 25//25 
