v -76.11681366 3.303920031 -178.3691864
v -76.11681366 3.290053129 -178.3703766
v -76.11681366 3.31778717 -178.3703766
v -76.11681366 3.331121206 -178.3739319
v -76.11681366 3.276719093 -178.3739319
v -76.11681366 3.343410015 -178.379715
v -76.11681366 3.264430285 -178.379715
v -76.11681366 3.35418129 -178.3874817
v -76.11681366 3.25365901 -178.3874817
v -76.11681366 3.363020897 -178.3969574
v -76.11681366 3.244819403 -178.3969574
v -76.11681366 3.369589329 -178.4077606
v -76.11681366 3.238250732 -178.4077606
v -76.11681366 3.373634338 -178.4194946
v -76.11681366 3.234205961 -178.4194946
v -76.11681366 3.375 -178.4316864
v -76.11681366 3.232840061 -178.4316864
v -76.11681366 3.373634338 -178.4438782
v -76.11681366 3.234205961 -178.4438782
v -76.11681366 3.369589329 -178.4555969
v -76.11681366 3.238250732 -178.4555969
v -76.11681366 3.363020897 -178.4664001
v -76.11681366 3.244819403 -178.4664001
v -76.11681366 3.35418129 -178.4758759
v -76.11681366 3.25365901 -178.4758759
v -76.11681366 3.343410015 -178.4836426
v -76.11681366 3.264430285 -178.4836426
v -76.11681366 3.331121206 -178.4894257
v -76.11681366 3.276719093 -178.4894257
v -76.11681366 3.31778717 -178.492981
v -76.11681366 3.290053129 -178.492981
v -76.11681366 3.303920031 -178.4941864
v -80.09687805 1.129657149 -178.3713074
v -80.10097504 1.145833373 -178.3691864
v -80.09305573 1.114583373 -178.3775482
v -80.08977509 1.101639152 -178.3874817
v -80.08725739 1.091706753 -178.4004364
v -80.0856781 1.085462928 -178.4155121
v -80.08513641 1.083333373 -178.4316864
v -80.0856781 1.085462928 -178.4478607
v -80.08725739 1.091706753 -178.4629364
v -80.08977509 1.101639152 -178.4758759
v -80.09305573 1.114583373 -178.4858093
v -80.09687805 1.129657149 -178.4920502
v -80.10097504 1.145833373 -178.4941864
v -80.10507202 1.162009478 -178.4920502
v -80.10889435 1.177083373 -178.4858093
v -80.11217499 1.190027475 -178.4758759
v -80.11469269 1.199959874 -178.4629364
v -80.11627197 1.206203699 -178.4478607
v -80.11681366 1.208333373 -178.4316864
v -80.11627197 1.206203699 -178.4155121
v -80.11469269 1.199959874 -178.4004364
v -80.11217499 1.190027475 -178.3874817
v -80.10889435 1.177083373 -178.3775482
v -80.10507202 1.162009478 -178.3713074
v -81.06650543 1.158026457 -178.3703766
v -81.05431366 1.145833373 -178.3691864
v -81.04212189 1.13364017 -178.3703766
v -81.03039551 1.121915579 -178.3739319
v -81.01959229 1.11111021 -178.379715
v -81.01012421 1.101639152 -178.3874817
v -81.00234985 1.093866467 -178.3969574
v -80.9965744 1.088090897 -178.4077606
v -80.9930191 1.084534287 -178.4194946
v -80.99211884 1.083634257 -178.4255524
v -80.99181366 1.083333373 -178.4316864
v -80.99211884 1.083634257 -178.4378052
v -80.9930191 1.084534287 -178.4438782
v -80.9965744 1.088090897 -178.4555969
v -81.00234985 1.093866467 -178.4664001
v -81.01012421 1.101639152 -178.4758759
v -81.01959229 1.11111021 -178.4836426
v -81.03039551 1.121915579 -178.4894257
v -81.04212189 1.13364017 -178.492981
v -81.05431366 1.145833373 -178.4941864
v -81.06650543 1.158026457 -178.492981
v -81.07823181 1.169751048 -178.4894257
v -81.08903503 1.180556417 -178.4836426
v -81.09851074 1.190027475 -178.4758759
v -81.1062851 1.197800159 -178.4664001
v -81.11206055 1.20357585 -178.4555969
v -81.11561584 1.207132459 -178.4438782
v -81.11651611 1.20803237 -178.4378052
v -81.11681366 1.208333373 -178.4316864
v -81.11651611 1.20803237 -178.4255524
v -81.11561584 1.207132459 -178.4194946
v -81.11206055 1.20357585 -178.4077606
v -81.1062851 1.197800159 -178.3969574
v -81.09851074 1.190027475 -178.3874817
v -81.08903503 1.180556417 -178.379715
v -81.07823181 1.169751048 -178.3739319
v -81.04212189 -0.133640185 -178.3703766
v -81.05431366 -0.1458333284 -178.3691864
v -81.06650543 -0.1580264717 -178.3703766
v -81.03039551 -0.1219156161 -178.3739319
v -81.01959229 -0.1111101955 -178.379715
v -81.01012421 -0.101639159 -178.3874817
v -81.00234985 -0.09386648238 -178.3969574
v -80.9965744 -0.08809085935 -178.4077606
v -80.9930191 -0.0845342502 -178.4194946
v -80.99211884 -0.08363428712 -178.4255524
v -80.99181366 -0.08333333582 -178.4316864
v -80.99211884 -0.08363428712 -178.4378052
v -80.9930191 -0.0845342502 -178.4438782
v -80.9965744 -0.08809085935 -178.4555969
v -81.00234985 -0.09386648238 -178.4664001
v -81.01012421 -0.101639159 -178.4758759
v -81.01959229 -0.1111101955 -178.4836426
v -81.03039551 -0.1219156161 -178.4894257
v -81.04212189 -0.133640185 -178.492981
v -81.05431366 -0.1458333284 -178.4941864
v -81.06650543 -0.1580264717 -178.492981
v -81.07823181 -0.1697510481 -178.4894257
v -81.08903503 -0.1805564761 -178.4836426
v -81.09851074 -0.1900275052 -178.4758759
v -81.1062851 -0.1978001893 -178.4664001
v -81.11206055 -0.2035758048 -178.4555969
v -81.11561584 -0.207132414 -178.4438782
v -81.11651611 -0.2080323845 -178.4378052
v -81.11681366 -0.2083333284 -178.4316864
v -81.11651611 -0.2080323845 -178.4255524
v -81.11561584 -0.207132414 -178.4194946
v -81.11206055 -0.2035758048 -178.4077606
v -81.1062851 -0.1978001893 -178.3969574
v -81.09851074 -0.1900275052 -178.3874817
v -81.08903503 -0.1805564761 -178.379715
v -81.07823181 -0.1697510481 -178.3739319
v -80.13608551 -0.1458333284 -178.3691864
v -80.13608551 -0.1620095223 -178.3713074
v -80.13608551 -0.1296571493 -178.3713074
v -80.13608551 -0.1145833358 -178.3775482
v -80.13608551 -0.1770833284 -178.3775482
v -80.13608551 -0.101639159 -178.3874817
v -80.13608551 -0.1900275052 -178.3874817
v -80.13608551 -0.09170674533 -178.4004364
v -80.13608551 -0.1999599189 -178.4004364
v -80.13608551 -0.08546297252 -178.4155121
v -80.13608551 -0.2062036991 -178.4155121
v -80.13608551 -0.08333333582 -178.4316864
v -80.13608551 -0.2083333284 -178.4316864
v -80.13608551 -0.08546297252 -178.4478607
v -80.13608551 -0.2062036991 -178.4478607
v -80.13608551 -0.09170674533 -178.4629364
v -80.13608551 -0.1999599189 -178.4629364
v -80.13608551 -0.101639159 -178.4758759
v -80.13608551 -0.1900275052 -178.4758759
v -80.13608551 -0.1145833358 -178.4858093
v -80.13608551 -0.1770833284 -178.4858093
v -80.13608551 -0.1296571493 -178.4920502
v -80.13608551 -0.1620095223 -178.4920502
v -80.13608551 -0.1458333284 -178.4941864
vn 0.0002987292246 9.504353413e-14 0.9999999404
vn 0.08212468028 -0.1483959705 0.9855121374
vn -0.07971905172 0.1484529078 0.9857010841
vn -0.1791356355 0.3367538154 0.9243956208
vn 0.1873314828 -0.3362053037 0.9229696393
vn -0.267998457 0.5085955262 0.8182343245
vn 0.2841662169 -0.5061225891 0.8143031001
vn -0.317795068 0.6260706186 0.7120687366
vn 0.3594262898 -0.6161753535 0.7008143067
vn -0.3734781444 0.7231238484 0.5810387135
vn 0.4063732922 -0.712249279 0.5723300576
vn -0.4213294387 0.820484519 0.3863763511
vn 0.4598689377 -0.8033613563 0.3783266842
vn -0.4484978616 0.8772024512 0.1713638008
vn 0.4904966652 -0.8552757502 0.1670820862
vn -0.4390718043 0.8984519839 7.989844243e-18
vn 0.5113693476 -0.8593610525 -7.703216235e-18
vn -0.4476539493 0.8776052594 -0.171507746
vn 0.4896977842 -0.8557046056 -0.1672295034
vn -0.4196999669 0.8211072683 -0.3868265152
vn 0.4583164454 -0.804027915 -0.3787943125
vn -0.3712233305 0.723698616 -0.5817676187
vn 0.4042160213 -0.7128663063 -0.5730890632
vn -0.3136467338 0.6269820333 -0.7131053805
vn 0.355448246 -0.6171806455 -0.701957643
vn -0.2656497657 0.508938849 -0.8187865615
vn 0.2818404436 -0.5064848661 -0.8148859143
vn -0.1772568524 0.3368702829 -0.9247153401
vn 0.1854557395 -0.3363271058 -0.9233039618
vn -0.07902146876 0.1491061449 -0.9856586456
vn 0.0814313665 -0.1490494311 -0.9854710698
vn 0.0003025591141 7.849647882e-18 -0.9999999404
vn 0.1054995731 -0.2407268882 0.9648421407
vn -2.281882371e-05 0.000166202095 1
vn 0.1952357292 -0.4447794855 0.8741019368
vn 0.2822029591 -0.6416643262 0.7131818533
vn 0.3494135737 -0.7933269739 0.4985403121
vn 0.3800649345 -0.8848503232 0.269426316
vn 0.4172975421 -0.9087699056 -6.633224065e-16
vn 0.380033195 -0.8848416805 -0.2694995403
vn 0.3493793905 -0.7932495475 -0.4986874759
vn 0.2821483612 -0.6415404081 -0.7133149505
vn 0.1952357292 -0.4447794855 -0.8741019368
vn 0.1056253538 -0.2410141975 -0.9647566676
vn -2.29829875e-05 0.0001673977968 -1
vn -0.1051888615 0.2413046807 -0.9647317529
vn -0.1938286722 0.4453423023 -0.8741285205
vn -0.2792074382 0.6427258849 -0.7134049535
vn -0.3448863924 0.7950464487 -0.4989534318
vn -0.3740743101 0.8873770237 -0.2695003748
vn -0.4124000669 0.9110028744 7.27558371e-18
vn -0.3741070926 0.8873850703 0.2694283426
vn -0.3449200988 0.7951242924 0.4988060892
vn -0.2792614698 0.6428504586 0.7132715583
vn -0.1938286722 0.4453423023 0.8741285205
vn -0.1050636992 0.2410178632 0.9648171067
vn -0.08844155818 0.0936101824 0.9916729331
vn -0.02212162688 2.91545437e-15 0.9997552633
vn 0.1203509271 -0.06516982615 0.9905899763
vn 0.2335657328 -0.1820867807 0.9551395178
vn 0.2675639689 -0.3511834741 0.8972623348
vn 0.5119892955 -0.2686760128 0.8158922195
vn 0.6151774526 -0.388432622 0.6860588789
vn 0.6657990217 -0.5668078661 0.4852221012
vn 0.744974196 -0.5788612962 0.331561476
vn 0.6297031641 -0.7597852349 0.1618651748
vn 0.8879196644 -0.4597622752 0.0147423204
vn 0.6326820254 -0.7613576651 -0.141590789
vn 0.8868998885 -0.3439612985 -0.3083815873
vn 0.6426994205 -0.5595056415 -0.5233458281
vn 0.4458176196 -0.5629651546 -0.6959287524
vn 0.5505885482 -0.2730237544 -0.7888664603
vn 0.3694340587 -0.2426301539 -0.8970223665
vn 0.1989587992 -0.179760471 -0.9633802772
vn 0.08771328628 -0.09465675801 -0.9916383028
vn 0.02175784297 3.459029505e-15 -0.9997632504
vn -0.1228213683 0.06478080899 -0.9903122783
vn -0.2390059531 0.1775386781 -0.9546497464
vn -0.2751476169 0.3437092602 -0.8978628516
vn -0.5207548141 0.2577011585 -0.8138823509
vn -0.6322025657 0.3678328395 -0.6819229722
vn -0.6918930411 0.5369303823 -0.4826901555
vn -0.7713339925 0.5444674492 -0.3295437694
vn -0.6646870375 0.7293496132 -0.1619885117
vn -0.9046303034 0.425945431 -0.01464725193
vn -0.6683408618 0.7305033803 0.1403042376
vn -0.8981155753 0.3174452782 0.3043302298
vn -0.6656814814 0.5330953002 0.5221853852
vn -0.4675126374 0.5440931916 0.6967025995
vn -0.5626609325 0.258485347 0.7852374911
vn -0.3769036531 0.2352493256 0.8958802223
vn -0.2015746683 0.1775491536 0.9632465839
vn 0.0894106403 0.09249591082 0.9916905761
vn 0.02174770646 -3.126557013e-18 0.9997634888
vn -0.1240279526 -0.06314424425 0.9902675748
vn 0.2029731423 0.1752932966 0.9633660316
vn 0.3760184348 0.2351061404 0.8962897062
vn 0.5586929917 0.2631022334 0.7865363359
vn 0.4599394798 0.5506967306 0.6965549588
vn 0.658189714 0.5417266488 0.522798717
vn 0.8939427137 0.3274522126 0.306008935
vn 0.6544077992 0.7428480983 0.1411634982
vn 0.898207128 0.4393189847 -0.01492551714
vn 0.6513080597 0.7412922382 -0.1621223092
vn 0.7609032393 0.5584282279 -0.3304302096
vn 0.6815256476 0.5488428473 -0.4840395451
vn 0.6262046099 0.374566853 -0.6837890744
vn 0.5195685029 0.258933872 -0.8142492175
vn 0.2750442028 0.3436813653 -0.8979052305
vn 0.238305673 0.1775821596 -0.954816699
vn 0.1225927323 0.06379429996 -0.9904046059
vn -0.02267927118 3.099908149e-18 -0.999742806
vn -0.09041130543 -0.0925944671 -0.9915906787
vn -0.2042932063 -0.1745820791 -0.9632161856
vn -0.3804482222 -0.2312150151 -0.8954321742
vn -0.5663552284 -0.253875196 -0.7840849161
vn -0.4736031592 -0.5384835005 -0.6969473362
vn -0.6711137295 -0.5263593793 -0.5220652819
vn -0.9003325105 -0.311912328 -0.3034996986
vn -0.6751950979 -0.7241986394 -0.1401713043
vn -0.9079116583 -0.4189040959 0.01468818542
vn -0.6715015769 -0.7230557203 0.1620988697
vn -0.7765644193 -0.5372804999 0.3290552199
vn -0.6978147626 -0.5300784111 0.4817378819
vn -0.6366488934 -0.3622255325 0.6807869673
vn -0.524255991 -0.253144592 0.8130642772
vn -0.2792308033 -0.3396340907 0.898153007
vn -0.2422016412 -0.1745518148 0.9543951154
vn 0.001570770401 -0.0009926618077 0.9999982715
vn 0.01611753926 -0.2676795125 0.9633731842
vn 0.007036204915 0.2667038143 0.9637528658
vn 0.03089140169 0.4916256666 0.8702585101
vn 0.04490638897 -0.4921964705 0.8693250418
vn 0.05346281454 0.7056628466 0.7065278888
vn 0.06286679208 -0.7062741518 0.7051415443
vn 0.1081603244 0.8652998209 0.4894461334
vn 0.1114475131 -0.865234971 0.4888229668
vn 0.1236588955 0.9599624872 0.2513572872
vn 0.1163703948 -0.9609152079 0.2511969507
vn 0.1555827409 0.9878228903 -1.47787632e-14
vn 0.1362105608 -0.9906799197 8.959762897e-15
vn 0.1323972195 0.9588712454 -0.2510715723
vn 0.1086568236 -0.9617602229 -0.2514178753
vn 0.1253156662 0.8634626269 -0.4885982573
vn 0.0960931927 -0.8665471077 -0.4897572994
vn 0.06907308102 0.7048526406 -0.7059827447
vn 0.04859872535 -0.7067025304 -0.7058396935
vn 0.04791312292 0.4912955165 -0.8696740866
vn 0.02895048074 -0.4924869835 -0.8698381782
vn 0.01675378345 0.2669925988 -0.9635529518
vn 0.006782425568 -0.2680238783 -0.9633883834
vn 0.001577912597 -0.0009998031892 -0.9999982715
f 1//1 2//2 3//3 
f 3//3 2//2 4//4 
f 4//4 2//2 5//5 
f 4//4 5//5 6//6 
f 6//6 5//5 7//7 
f 6//6 7//7 8//8 
f 8//8 7//7 9//9 
f 8//8 9//9 10//10 
f 10//10 9//9 11//11 
f 10//10 11//11 12//12 
f 12//12 11//11 13//13 
f 12//12 13//13 14//14 
f 14//14 13//13 15//15 
f 14//14 15//15 16//16 
f 16//16 15//15 17//17 
f 16//16 17//17 18//18 
f 18//18 17//17 19//19 
f 18//18 19//19 20//20 
f 20//20 19//19 21//21 
f 20//20 21//21 22//22 
f 22//22 21//21 23//23 
f 22//22 23//23 24//24 
f 24//24 23//23 25//25 
f 24//24 25//25 26//26 
f 26//26 25//25 27//27 
f 26//26 27//27 28//28 
f 28//28 27//27 29//29 
f 28//28 29//29 30//30 
f 30//30 29//29 31//31 
f 30//30 31//31 32//32 
f 33//33 2//2 34//34 
f 34//34 2//2 1//1 
f 34//34 1//1 3//3 
f 2//2 33//33 5//5 
f 5//5 33//33 35//35 
f 5//5 35//35 7//7 
f 7//7 35//35 36//36 
f 7//7 36//36 9//9 
f 9//9 36//36 11//11 
f 11//11 36//36 37//37 
f 11//11 37//37 13//13 
f 13//13 37//37 38//38 
f 13//13 38//38 15//15 
f 15//15 38//38 39//39 
f 15//15 39//39 17//17 
f 17//17 39//39 19//19 
f 19//19 39//39 40//40 
f 19//19 40//40 21//21 
f 21//21 40//40 41//41 
f 21//21 41//41 23//23 
f 23//23 41//41 42//42 
f 23//23 42//42 25//25 
f 25//25 42//42 27//27 
f 27//27 42//42 43//43 
f 27//27 43//43 29//29 
f 29//29 43//43 44//44 
f 29//29 44//44 31//31 
f 31//31 44//44 45//45 
f 31//31 45//45 32//32 
f 32//32 45//45 30//30 
f 30//30 45//45 46//46 
f 30//30 46//46 28//28 
f 28//28 46//46 47//47 
f 28//28 47//47 26//26 
f 26//26 47//47 48//48 
f 26//26 48//48 24//24 
f 24//24 48//48 22//22 
f 22//22 48//48 49//49 
f 22//22 49//49 20//20 
f 20//20 49//49 50//50 
f 20//20 50//50 18//18 
f 18//18 50//50 51//51 
f 18//18 51//51 16//16 
f 16//16 51//51 14//14 
f 14//14 51//51 52//52 
f 14//14 52//52 12//12 
f 12//12 52//52 53//53 
f 12//12 53//53 10//10 
f 10//10 53//53 54//54 
f 10//10 54//54 8//8 
f 8//8 54//54 6//6 
f 6//6 54//54 55//55 
f 6//6 55//55 4//4 
f 4//4 55//55 56//56 
f 4//4 56//56 3//3 
f 3//3 56//56 34//34 
f 57//57 58//58 34//34 
f 34//34 58//58 59//59 
f 34//34 59//59 33//33 
f 33//33 59//59 60//60 
f 33//33 60//60 35//35 
f 35//35 60//60 61//61 
f 35//35 61//61 36//36 
f 36//36 61//61 62//62 
f 36//36 62//62 63//63 
f 36//36 63//63 37//37 
f 37//37 63//63 64//64 
f 37//37 64//64 38//38 
f 38//38 64//64 65//65 
f 38//38 65//65 66//66 
f 38//38 66//66 39//39 
f 39//39 66//66 67//67 
f 39//39 67//67 68//68 
f 39//39 68//68 40//40 
f 40//40 68//68 69//69 
f 40//40 69//69 70//70 
f 40//40 70//70 41//41 
f 41//41 70//70 71//71 
f 41//41 71//71 42//42 
f 42//42 71//71 72//72 
f 42//42 72//72 73//73 
f 42//42 73//73 43//43 
f 43//43 73//73 74//74 
f 43//43 74//74 44//44 
f 44//44 74//74 75//75 
f 44//44 75//75 45//45 
f 45//45 75//75 76//76 
f 45//45 76//76 77//77 
f 45//45 77//77 46//46 
f 46//46 77//77 78//78 
f 46//46 78//78 47//47 
f 47//47 78//78 79//79 
f 47//47 79//79 48//48 
f 48//48 79//79 80//80 
f 48//48 80//80 81//81 
f 48//48 81//81 49//49 
f 49//49 81//81 82//82 
f 49//49 82//82 50//50 
f 50//50 82//82 83//83 
f 50//50 83//83 84//84 
f 50//50 84//84 51//51 
f 51//51 84//84 85//85 
f 51//51 85//85 86//86 
f 51//51 86//86 52//52 
f 52//52 86//86 87//87 
f 52//52 87//87 88//88 
f 52//52 88//88 53//53 
f 53//53 88//88 89//89 
f 53//53 89//89 54//54 
f 54//54 89//89 90//90 
f 54//54 90//90 91//91 
f 54//54 91//91 55//55 
f 55//55 91//91 92//92 
f 55//55 92//92 56//56 
f 56//56 92//92 57//57 
f 56//56 57//57 34//34 
f 93//93 59//59 94//94 
f 94//94 59//59 58//58 
f 94//94 58//58 95//95 
f 95//95 58//58 57//57 
f 95//95 57//57 92//92 
f 93//93 96//96 59//59 
f 59//59 96//96 60//60 
f 60//60 96//96 97//97 
f 60//60 97//97 61//61 
f 61//61 97//97 62//62 
f 62//62 97//97 98//98 
f 62//62 98//98 63//63 
f 63//63 98//98 99//99 
f 63//63 99//99 100//100 
f 63//63 100//100 64//64 
f 64//64 100//100 101//101 
f 64//64 101//101 65//65 
f 65//65 101//101 66//66 
f 66//66 101//101 102//102 
f 66//66 102//102 67//67 
f 67//67 102//102 103//103 
f 67//67 103//103 68//68 
f 68//68 103//103 104//104 
f 68//68 104//104 69//69 
f 69//69 104//104 105//105 
f 69//69 105//105 106//106 
f 69//69 106//106 70//70 
f 70//70 106//106 107//107 
f 70//70 107//107 71//71 
f 71//71 107//107 72//72 
f 72//72 107//107 108//108 
f 72//72 108//108 73//73 
f 73//73 108//108 109//109 
f 73//73 109//109 110//110 
f 73//73 110//110 74//74 
f 74//74 110//110 111//111 
f 74//74 111//111 75//75 
f 75//75 111//111 76//76 
f 76//76 111//111 112//112 
f 76//76 112//112 77//77 
f 77//77 112//112 113//113 
f 77//77 113//113 114//114 
f 77//77 114//114 78//78 
f 78//78 114//114 115//115 
f 78//78 115//115 79//79 
f 79//79 115//115 80//80 
f 80//80 115//115 116//116 
f 80//80 116//116 81//81 
f 81//81 116//116 117//117 
f 81//81 117//117 118//118 
f 81//81 118//118 82//82 
f 82//82 118//118 119//119 
f 82//82 119//119 83//83 
f 83//83 119//119 84//84 
f 84//84 119//119 120//120 
f 84//84 120//120 85//85 
f 85//85 120//120 121//121 
f 85//85 121//121 86//86 
f 86//86 121//121 122//122 
f 86//86 122//122 87//87 
f 87//87 122//122 123//123 
f 87//87 123//123 124//124 
f 87//87 124//124 88//88 
f 88//88 124//124 125//125 
f 88//88 125//125 89//89 
f 89//89 125//125 90//90 
f 90//90 125//125 126//126 
f 90//90 126//126 91//91 
f 91//91 126//126 127//127 
f 91//91 127//127 128//128 
f 91//91 128//128 92//92 
f 92//92 128//128 95//95 
f 129//129 130//130 131//131 
f 131//131 130//130 132//132 
f 132//132 130//130 133//133 
f 132//132 133//133 134//134 
f 134//134 133//133 135//135 
f 134//134 135//135 136//136 
f 136//136 135//135 137//137 
f 136//136 137//137 138//138 
f 138//138 137//137 139//139 
f 138//138 139//139 140//140 
f 140//140 139//139 141//141 
f 140//140 141//141 142//142 
f 142//142 141//141 143//143 
f 142//142 143//143 144//144 
f 144//144 143//143 145//145 
f 144//144 145//145 146//146 
f 146//146 145//145 147//147 
f 146//146 147//147 148//148 
f 148//148 147//147 149//149 
f 148//148 149//149 150//150 
f 150//150 149//149 151//151 
f 150//150 151//151 152//152 
f 131//131 93//93 129//129 
f 129//129 93//93 94//94 
f 129//129 94//94 95//95 
f 93//93 131//131 96//96 
f 96//96 131//131 132//132 
f 96//96 132//132 97//97 
f 97//97 132//132 134//134 
f 97//97 134//134 98//98 
f 98//98 134//134 99//99 
f 99//99 134//134 136//136 
f 99//99 136//136 100//100 
f 100//100 136//136 138//138 
f 100//100 138//138 101//101 
f 101//101 138//138 102//102 
f 102//102 138//138 140//140 
f 102//102 140//140 103//103 
f 103//103 140//140 104//104 
f 104//104 140//140 142//142 
f 104//104 142//142 105//105 
f 105//105 142//142 106//106 
f 106//106 142//142 144//144 
f 106//106 144//144 107//107 
f 107//107 144//144 146//146 
f 107//107 146//146 108//108 
f 108//108 146//146 109//109 
f 109//109 146//146 148//148 
f 109//109 148//148 110//110 
f 110//110 148//148 150//150 
f 110//110 150//150 111//111 
f 111//111 150//150 152//152 
f 111//111 152//152 112//112 
f 112//112 152//152 113//113 
f 113//113 152//152 151//151 
f 113//113 151//151 114//114 
f 114//114 151//151 149//149 
f 114//114 149//149 115//115 
f 115//115 149//149 147//147 
f 115//115 147//147 116//116 
f 116//116 147//147 117//117 
f 117//117 147//147 145//145 
f 117//117 145//145 118//118 
f 118//118 145//145 143//143 
f 118//118 143//143 119//119 
f 119//119 143//143 120//120 
f 120//120 143//143 141//141 
f 120//120 141//141 121//121 
f 121//121 141//141 122//122 
f 122//122 141//141 139//139 
f 122//122 139//139 123//123 
f 123//123 139//139 124//124 
f 124//124 139//139 137//137 
f 124//124 137//137 125//125 
f 125//125 137//137 135//135 
f 125//125 135//135 126//126 
f 126//126 135//135 127//127 
f 127//127 135//135 133//133 
f 127//127 133//133 128//128 
f 128//128 133//133 130//130 
f 128//128 130//130 95//95 
f 95//95 130//130 129//129 
