v -22.67931557 2.166666746 -220.4316864
v -22.67931557 2.166666746 -220.3900146
v -21.86681557 2.166666746 -220.4316864
v -21.86681557 2.166666746 -220.3900146
v -25.2209816 2.166666746 -221.5150146
v -25.2209816 2.166666746 -221.8066864
v -46.2834816 2.166666746 -221.5150146
v -46.2834816 2.166666746 -221.8066864
v -46.2834816 -2.166666746 -220.3900146
v -46.2834816 -2.166666746 -221.8066864
v -21.86681557 -2.166666746 -220.3900146
v -21.86681557 -2.166666746 -221.8066864
v -25.2209816 0.1666666716 -221.8066864
v -25.2209816 0.1666666716 -220.3900146
v -22.67931557 0.1666666716 -221.8066864
v -22.67931557 0.1666666716 -220.3900146
v -46.2834816 2.166666746 -220.3900146
v -25.2209816 2.166666746 -220.3900146
v -21.86681557 2.166666746 -221.8066864
v -22.67931557 2.166666746 -221.8066864
v -21.86681557 2.166666746 -221.5150146
v -22.67931557 2.166666746 -221.5150146
v -46.2834816 2.166666746 -220.4316864
v -25.2209816 2.166666746 -220.4316864
v -46.2834816 2.208333254 -220.4316864
v -25.2209816 2.208333254 -220.4316864
v -46.2834816 2.208333254 -220.3900146
v -25.2209816 2.208333254 -220.3900146
v -46.2834816 2.458333254 -220.3900146
v -25.2209816 2.458333254 -220.3900146
v -46.2834816 2.541666746 -220.4733429
v -25.2209816 2.541666746 -220.4733429
v -46.2834816 2.541666746 -221.4733429
v -25.2209816 2.541666746 -221.4733429
v -46.2834816 2.458333254 -221.5566864
v -25.2209816 2.458333254 -221.5566864
v -46.2834816 2.208333254 -221.5566864
v -25.2209816 2.208333254 -221.5566864
v -25.2209816 2.208333254 -221.5150146
v -46.2834816 2.208333254 -221.5150146
v -22.67931557 2.208333254 -220.4316864
v -21.86681557 2.208333254 -220.4316864
v -22.67931557 2.208333254 -220.3900146
v -21.86681557 2.208333254 -220.3900146
v -22.67931557 2.458333254 -220.3900146
v -21.86681557 2.458333254 -220.3900146
v -22.67931557 2.541666746 -220.4733429
v -21.86681557 2.541666746 -220.4733429
v -22.67931557 2.541666746 -221.4733429
v -21.86681557 2.541666746 -221.4733429
v -22.67931557 2.458333254 -221.5566864
v -21.86681557 2.458333254 -221.5566864
v -22.67931557 2.208333254 -221.5566864
v -21.86681557 2.208333254 -221.5566864
v -21.86681557 2.208333254 -221.5150146
v -22.67931557 2.208333254 -221.5150146
vn -0.9994564652 0.01474416256 0.02948461287
vn -0.05117668957 0.04158105701 0.997823596
vn 0.9999104738 0.0119672548 0.005982874427
vn 0.03506965563 0.006575560663 0.9993632436
vn 0.661026597 0.7214926481 -0.2061363757
vn 0.01329280809 0.2799797654 -0.9599138498
vn -0.7124205828 0.6999694705 -0.04999675602
vn -0.009464435279 0.04600261152 -0.9988964796
vn -0.07216412574 -0.2266393751 0.9713016748
vn -0.04520577565 -0.4224567115 -0.9052550793
vn 0.1140900925 -0.7166249752 0.6880639791
vn 0.09836915135 -0.4596393704 -0.8826410174
vn 0.01739999652 0.01833714359 -0.9996804595
vn 0.02586990409 0.03664907813 0.9989932775
vn -0.2503753006 0.5277205706 -0.811679244
vn -0.4000130892 0.2833429575 0.8716113567
vn -0.001353578991 0.01315834932 0.9999125004
vn 0.001978047658 0.02083131298 0.9997810721
vn 0.2375801206 0.08909253776 -0.9672735929
vn -0.3347314894 0.1359846592 -0.9324499965
vn 0.9998058081 0.01894705743 -0.005413329694
vn -0.9965111613 0.08324719965 -0.005946102086
vn -0.9447849989 0.1465625316 0.2930881679
vn 0.7662302852 0.5747430325 0.2873353362
vn -0.01857360266 -0.8942953944 0.4470914304
vn 0.3670283258 -0.4160443544 0.8319839835
vn -0.0009858220583 -0.08305550367 0.9965444207
vn 0.001876925468 -0.3162619472 0.9486700296
vn -0.003673547646 0.3713683784 0.9284783602
vn 0.002797679277 0.1414123029 0.9899468422
vn -0.009131775238 0.9991592765 0.039966546
vn 0.01440651249 0.9898465276 0.1414081454
vn -0.03250502422 0.9894266725 -0.1413444728
vn 0.01636449806 0.9990671873 -0.03996256739
vn -0.002797976369 0.1414376795 -0.9899432063
vn 0.003673858242 0.3714269996 -0.9284548759
vn -0.001876925468 -0.3162619472 -0.9486700296
vn 0.0009858220583 -0.08305550367 -0.9965444207
vn 0.240426302 -0.8682131767 -0.4340519309
vn -0.01857727021 -0.4471814334 -0.8942503333
vn -0.9880884886 -0.1376439333 0.06881330907
vn 0.4339054823 -0.4029614329 0.8058214188
vn -0.02554721199 -0.08302843571 0.996219635
vn 0.04859827831 -0.3158888221 0.9475507736
vn -0.09480140358 0.3696983159 0.924302876
vn 0.07233475894 0.1410424113 0.9873574376
vn -0.3905759156 0.9198351502 0.03679356724
vn 0.386312604 0.9130974412 0.1304438859
vn -0.3498865068 0.9273771644 -0.1324803978
vn 0.4301910698 0.9020165205 -0.03608055413
vn -0.07234239578 0.1410676539 -0.9873532653
vn 0.0948093459 0.3697564006 -0.9242788553
vn -0.04859827831 -0.3158888221 -0.9475507736
vn 0.02554721199 -0.08302843571 -0.996219635
vn 0.4339218736 -0.8058549166 -0.4028767347
vn -0.9952548146 -0.04351967573 -0.08702839166
f 1//1 2//2 3//3 
f 3//3 2//2 4//4 
f 5//5 6//6 7//7 
f 7//7 6//6 8//8 
f 9//9 10//10 11//11 
f 11//11 10//10 12//12 
f 13//13 14//14 15//15 
f 15//15 14//14 16//16 
f 17//17 9//9 14//14 
f 14//14 9//9 11//11 
f 14//14 11//11 16//16 
f 16//16 11//11 4//4 
f 16//16 4//4 2//2 
f 14//14 18//18 17//17 
f 10//10 13//13 12//12 
f 12//12 13//13 15//15 
f 12//12 15//15 19//19 
f 19//19 15//15 20//20 
f 10//10 8//8 13//13 
f 13//13 8//8 6//6 
f 21//21 19//19 22//22 
f 22//22 19//19 20//20 
f 23//23 17//17 24//24 
f 24//24 17//17 18//18 
f 25//25 23//23 26//26 
f 26//26 23//23 24//24 
f 27//27 25//25 28//28 
f 28//28 25//25 26//26 
f 29//29 27//27 30//30 
f 30//30 27//27 28//28 
f 31//31 29//29 32//32 
f 32//32 29//29 30//30 
f 33//33 31//31 34//34 
f 34//34 31//31 32//32 
f 35//35 33//33 36//36 
f 36//36 33//33 34//34 
f 37//37 35//35 38//38 
f 38//38 35//35 36//36 
f 39//39 24//24 5//5 
f 5//5 24//24 14//14 
f 5//5 14//14 13//13 
f 38//38 36//36 39//39 
f 39//39 36//36 34//34 
f 39//39 34//34 26//26 
f 26//26 34//34 32//32 
f 26//26 32//32 30//30 
f 30//30 28//28 26//26 
f 26//26 24//24 39//39 
f 24//24 18//18 14//14 
f 13//13 6//6 5//5 
f 40//40 37//37 39//39 
f 39//39 37//37 38//38 
f 25//25 31//31 23//23 
f 23//23 31//31 33//33 
f 23//23 33//33 7//7 
f 7//7 33//33 40//40 
f 40//40 33//33 35//35 
f 40//40 35//35 37//37 
f 27//27 29//29 25//25 
f 25//25 29//29 31//31 
f 8//8 10//10 7//7 
f 7//7 10//10 9//9 
f 7//7 9//9 23//23 
f 23//23 9//9 17//17 
f 7//7 40//40 5//5 
f 5//5 40//40 39//39 
f 41//41 1//1 42//42 
f 42//42 1//1 3//3 
f 43//43 41//41 44//44 
f 44//44 41//41 42//42 
f 45//45 43//43 46//46 
f 46//46 43//43 44//44 
f 47//47 45//45 48//48 
f 48//48 45//45 46//46 
f 49//49 47//47 50//50 
f 50//50 47//47 48//48 
f 51//51 49//49 52//52 
f 52//52 49//49 50//50 
f 53//53 51//51 54//54 
f 54//54 51//51 52//52 
f 55//55 50//50 21//21 
f 21//21 50//50 3//3 
f 21//21 3//3 11//11 
f 11//11 3//3 4//4 
f 54//54 52//52 55//55 
f 55//55 52//52 50//50 
f 50//50 48//48 3//3 
f 3//3 48//48 42//42 
f 42//42 48//48 46//46 
f 42//42 46//46 44//44 
f 11//11 12//12 21//21 
f 21//21 12//12 19//19 
f 56//56 53//53 55//55 
f 55//55 53//53 54//54 
f 41//41 22//22 1//1 
f 1//1 22//22 16//16 
f 1//1 16//16 2//2 
f 43//43 45//45 41//41 
f 41//41 45//45 47//47 
f 41//41 47//47 56//56 
f 56//56 47//47 49//49 
f 56//56 49//49 51//51 
f 51//51 53//53 56//56 
f 56//56 22//22 41//41 
f 20//20 15//15 22//22 
f 22//22 15//15 16//16 
f 22//22 56//56 21//21 
f 21//21 56//56 55//55 
