v 64.21651459 5 146.0266571
v 64.21651459 -1.395833373 146.0266571
v 64.21651459 5 145.1933136
v 64.21651459 -1.395833373 145.1933136
v 52.44568634 -1.395833373 145.1933136
v 52.44568634 5 145.1933136
v 52.44568634 5 146.0266571
v 52.44568634 -1.395833373 146.0266571
vn 0.03530177847 0.06496904045 0.9972626567
vn 0.1357504725 -0.2498338372 0.9587256312
vn 0.1357504725 0.2498338372 -0.9587256312
vn 0.03530177847 -0.06496904045 -0.9972626567
vn -0.1357504725 -0.2498338372 -0.9587256312
vn -0.03530177847 0.06496904045 -0.9972626567
vn -0.1357504725 0.2498338372 0.9587256312
vn -0.03530177847 -0.06496904045 0.9972626567
f 1//1 2//2 3//3 
f 3//3 2//2 4//4 
f 5//5 6//6 4//4 
f 4//4 6//6 3//3 
f 1//1 3//3 7//7 
f 7//7 3//3 6//6 
f 8//8 5//5 2//2 
f 2//2 5//5 4//4 
f 2//2 1//1 8//8 
f 8//8 1//1 7//7 
f 8//8 7//7 5//5 
f 5//5 7//7 6//6 
