v -46.57514954 2.166666746 -220.3900146
v -46.57514954 2.166666746 -207.6400146
v -46.2834816 2.166666746 -220.3900146
v -46.2834816 2.166666746 -207.6400146
v -46.2834816 -2.166666746 -220.3900146
v -46.2834816 -2.166666746 -207.6400146
v -47.6584816 2.166666746 -207.6400146
v -47.6584816 2.166666746 -220.3900146
v -47.70014954 2.166666746 -207.6400146
v -47.70014954 2.166666746 -220.3900146
v -47.70014954 -2.166666746 -207.6400146
v -47.70014954 -2.166666746 -220.3900146
v -47.6584816 2.208333254 -220.3900146
v -47.6584816 2.208333254 -207.6400146
v -47.70014954 2.208333254 -220.3900146
v -47.70014954 2.208333254 -207.6400146
v -47.70014954 2.458333254 -220.3900146
v -47.70014954 2.458333254 -207.6400146
v -47.61681366 2.541666746 -220.3900146
v -47.61681366 2.541666746 -207.6400146
v -46.61681366 2.541666746 -220.3900146
v -46.61681366 2.541666746 -207.6400146
v -46.5334816 2.458333254 -220.3900146
v -46.5334816 2.458333254 -207.6400146
v -46.5334816 2.208333254 -220.3900146
v -46.5334816 2.208333254 -207.6400146
v -46.57514954 2.208333254 -207.6400146
v -46.57514954 2.208333254 -220.3900146
vn 0.03959563747 0.277171731 -0.9600041509
vn 0.07125460356 0.4987863004 0.8637910485
vn 0.997677505 0.06715165824 -0.01141139399
vn 0.997482717 0.06713855267 0.02281833068
vn 0.9428796768 -0.3082493842 -0.1263337433
vn 0.9485740662 -0.310111016 0.06354835629
vn -0.09955657274 0.09955999255 0.9900385141
vn -0.1934440434 0.1934506893 -0.9618504047
vn -0.9999524355 0.009615220129 0.001633959124
vn -0.999948442 0.009615181945 -0.003267904976
vn -0.9338790774 -0.3053068817 0.1861655265
vn -0.9462581873 -0.309353888 -0.09431663156
vn -0.7062635422 -0.7062878013 -0.0484707281
vn -0.7068865895 -0.7069108486 0.02425674535
vn -0.9863918424 -0.1644036621 -0.001611800515
vn -0.9863879681 -0.1644030213 0.003223588457
vn -0.9701102972 0.242534861 -0.007925976999
vn -0.9701331854 0.242540583 0.003963082097
vn -0.141217351 0.9885239005 -0.05364866927
vn -0.03994964808 0.9987405539 0.03035385348
vn 0.03996359184 0.9990872741 -0.01508425642
vn 0.141371578 0.9895970225 0.02668034844
vn 0.970135808 0.2425301224 -0.003962983843
vn 0.9701129198 0.2425244153 0.007925781421
vn 0.9863879681 -0.1644030213 -0.003223588457
vn 0.9863918424 -0.1644036621 0.001611800515
vn 0.7062636018 -0.7062878013 0.04846925288
vn 0.7068865895 -0.7069108486 -0.02425600588
f 1//1 2//2 3//3 
f 3//3 2//2 4//4 
f 5//5 3//3 6//6 
f 6//6 3//3 4//4 
f 7//7 8//8 9//9 
f 9//9 8//8 10//10 
f 11//11 12//12 6//6 
f 6//6 12//12 5//5 
f 11//11 9//9 12//12 
f 12//12 9//9 10//10 
f 13//13 8//8 14//14 
f 14//14 8//8 7//7 
f 13//13 14//14 15//15 
f 15//15 14//14 16//16 
f 17//17 15//15 18//18 
f 18//18 15//15 16//16 
f 17//17 18//18 19//19 
f 19//19 18//18 20//20 
f 19//19 20//20 21//21 
f 21//21 20//20 22//22 
f 21//21 22//22 23//23 
f 23//23 22//22 24//24 
f 25//25 23//23 26//26 
f 26//26 23//23 24//24 
f 27//27 22//22 2//2 
f 2//2 22//22 20//20 
f 2//2 20//20 7//7 
f 7//7 20//20 14//14 
f 14//14 20//20 18//18 
f 14//14 18//18 16//16 
f 26//26 24//24 27//27 
f 27//27 24//24 22//22 
f 9//9 11//11 7//7 
f 7//7 11//11 2//2 
f 11//11 6//6 2//2 
f 2//2 6//6 4//4 
f 25//25 26//26 28//28 
f 28//28 26//26 27//27 
f 13//13 19//19 8//8 
f 8//8 19//19 1//1 
f 8//8 1//1 12//12 
f 12//12 1//1 5//5 
f 5//5 1//1 3//3 
f 15//15 17//17 13//13 
f 13//13 17//17 19//19 
f 19//19 21//21 1//1 
f 1//1 21//21 28//28 
f 28//28 21//21 23//23 
f 28//28 23//23 25//25 
f 12//12 10//10 8//8 
f 1//1 28//28 2//2 
f 2//2 28//28 27//27 
