v -20.45014954 -2.166666746 -221.8066864
v -20.45014954 -2.166666746 -220.3900146
v -21.86681557 -2.166666746 -221.8066864
v -21.86681557 -2.166666746 -220.3900146
v -21.86681557 3.166666746 -220.3900146
v -21.82514954 3.166666746 -221.7650146
v -21.86681557 3.166666746 -221.8066864
v -20.49181557 3.166666746 -221.7650146
v -20.45014954 3.166666746 -221.8066864
v -20.49181557 3.166666746 -220.4316864
v -20.45014954 3.166666746 -220.3900146
v -21.82514954 3.166666746 -220.4316864
v -21.82514954 3.208333254 -221.7650146
v -21.82514954 3.208333254 -220.4316864
v -20.49181557 3.208333254 -221.7650146
v -20.49181557 3.208333254 -220.4316864
v -20.45014954 3.666666746 -220.3900146
v -20.5334816 3.75 -220.4733429
v -21.86681557 3.666666746 -220.3900146
v -21.7834816 3.75 -220.4733429
v -20.5334816 3.75 -221.7233429
v -21.7834816 3.75 -221.7233429
v -20.45014954 3.208333254 -220.3900146
v -21.86681557 3.208333254 -220.3900146
v -20.45014954 3.208333254 -221.8066864
v -20.45014954 3.666666746 -221.8066864
v -21.86681557 3.666666746 -221.8066864
v -21.86681557 3.208333254 -221.8066864
vn 0.4440926313 -0.1179620475 -0.8881816864
vn 0.8702055216 -0.231148228 0.4351010025
vn -0.8702055216 -0.231148228 -0.4351010025
vn -0.4440926313 -0.1179620475 0.8881816864
vn -0.8943456411 0.01356382109 0.4471710026
vn -0.5274196863 0.8076416254 -0.2637109756
vn -0.4471914172 0.01027628779 -0.8943792582
vn 0.2637016773 0.8076538444 -0.5274056196
vn 0.8943806887 0.01027579792 -0.4471885264
vn 0.4262298942 0.8791528344 0.213115871
vn 0.447204113 0.006987923291 0.8944046497
vn -0.3333238959 0.6666873693 0.6666506529
vn -0.3333238959 -0.6666873693 -0.6666506529
vn -0.5274196863 -0.8076416254 0.2637109756
vn 0.4262298942 -0.8791528344 -0.213115871
vn 0.2637016773 -0.8076538444 0.5274056196
vn 0.4712514281 0.1449946016 0.8699992299
vn 0.1093945429 0.9879603982 0.1093943119
vn -0.8410217166 0.245770812 0.4819535017
vn -0.03121954948 0.999024868 0.03121954948
vn 0.03010481969 0.9974813461 -0.06422360241
vn -0.1166656092 0.9916645288 -0.05468690023
vn 0.8881008625 -0.1187333092 0.4440486431
vn -0.4440512359 -0.1187388971 0.8880988359
vn 0.4457437694 -0.08104845881 -0.8914839625
vn 0.8754937649 0.1958926022 -0.441742897
vn -0.4417447448 0.1959024221 -0.8754906058
vn -0.8834891319 -0.1559175551 -0.4417427778
f 1//1 2//2 3//3 
f 3//3 2//2 4//4 
f 5//5 6//6 7//7 
f 7//7 6//6 8//8 
f 7//7 8//8 9//9 
f 9//9 8//8 10//10 
f 9//9 10//10 11//11 
f 11//11 10//10 5//5 
f 5//5 10//10 12//12 
f 5//5 12//12 6//6 
f 2//2 11//11 4//4 
f 4//4 11//11 5//5 
f 4//4 5//5 3//3 
f 3//3 5//5 7//7 
f 3//3 7//7 1//1 
f 1//1 7//7 9//9 
f 1//1 9//9 2//2 
f 2//2 9//9 11//11 
f 13//13 6//6 14//14 
f 14//14 6//6 12//12 
f 8//8 15//15 10//10 
f 10//10 15//15 16//16 
f 15//15 8//8 13//13 
f 13//13 8//8 6//6 
f 10//10 16//16 12//12 
f 12//12 16//16 14//14 
f 17//17 18//18 19//19 
f 19//19 18//18 20//20 
f 18//18 21//21 20//20 
f 20//20 21//21 22//22 
f 23//23 17//17 24//24 
f 24//24 17//17 19//19 
f 25//25 26//26 23//23 
f 23//23 26//26 17//17 
f 21//21 18//18 26//26 
f 26//26 18//18 17//17 
f 27//27 19//19 22//22 
f 22//22 19//19 20//20 
f 24//24 19//19 28//28 
f 28//28 19//19 27//27 
f 28//28 27//27 25//25 
f 25//25 27//27 26//26 
f 26//26 27//27 21//21 
f 21//21 27//27 22//22 
f 28//28 14//14 24//24 
f 24//24 14//14 16//16 
f 24//24 16//16 23//23 
f 23//23 16//16 15//15 
f 23//23 15//15 25//25 
f 25//25 15//15 28//28 
f 28//28 15//15 13//13 
f 28//28 13//13 14//14 
