v -15.70014858 -11 161.6968384
v -15.70014858 -2.166666746 161.6968384
v -16.03356552 -11 161.7030792
v -16.03356552 -2.166666746 161.7030792
v -16.36690903 -11 161.7124481
v -16.36690903 -2.166666746 161.7124481
v -16.70014954 -11 161.7249451
v -16.70014954 -2.166666746 161.7249451
v -15.70014858 -11 148.1958618
v -15.70014858 -2.166666746 148.1958618
v -16.03352547 -11 148.2003937
v -16.36686325 -11 148.2071838
v -16.70014954 -11 148.2162476
v -16.03352547 -2.166666746 148.2003937
v -16.36686325 -2.166666746 148.2071838
v -16.70014954 -2.166666746 148.2162476
vn 0.9992126822 -0.0377070047 0.01233530976
vn 0.9959629178 0.07511665672 0.0491466932
vn 0.01195928734 -0.8367736936 0.5474182367
vn 0.01367133763 0.8367737532 0.5473780632
vn 0.01709562913 -0.8367699385 0.5472877026
vn 0.0188076999 0.8367700577 0.5472313762
vn -0.9980697632 -0.03772231564 0.04933322221
vn -0.9997459054 0.01886660419 0.01233686693
vn 0.9980713725 -0.03769329563 -0.04932346195
vn 0.9997457266 0.01886875927 -0.01234533172
vn -0.00991427619 -0.836805582 -0.5474103689
vn -0.01363936905 -0.8368058801 -0.5473297834
vn -0.9992138743 -0.03768083826 -0.01232215762
vn -0.008678121492 0.8368054032 -0.5474316478
vn -0.01239487994 0.8368065357 -0.5473583937
vn -0.9959718585 0.07504166663 -0.0490793325
f 1//1 2//2 3//3 
f 3//3 2//2 4//4 
f 3//3 4//4 5//5 
f 5//5 4//4 6//6 
f 5//5 6//6 7//7 
f 7//7 6//6 8//8 
f 9//9 10//10 1//1 
f 1//1 10//10 2//2 
f 9//9 1//1 11//11 
f 11//11 1//1 3//3 
f 11//11 3//3 12//12 
f 12//12 3//3 5//5 
f 12//12 5//5 13//13 
f 13//13 5//5 7//7 
f 10//10 14//14 2//2 
f 2//2 14//14 4//4 
f 4//4 14//14 15//15 
f 4//4 15//15 6//6 
f 6//6 15//15 16//16 
f 6//6 16//16 8//8 
f 7//7 8//8 13//13 
f 13//13 8//8 16//16 
f 10//10 9//9 14//14 
f 14//14 9//9 11//11 
f 14//14 11//11 15//15 
f 15//15 11//11 12//12 
f 15//15 12//12 16//16 
f 16//16 12//12 13//13 
