v -75.70014954 0.1666666716 175.2766571
v -75.70014954 -3.583333254 175.2766571
v -75.70014954 0.1666666716 174.2766571
v -75.70014954 -3.583333254 174.2766571
v -89.15848541 -3.583333254 174.2766571
v -89.15848541 0.1666666716 174.2766571
v -89.15848541 0.1666666716 175.2766571
v -89.15848541 -3.583333254 175.2766571
vn 0.03680085391 0.1320741922 0.9905564785
vn 0.1300107241 -0.4665941596 0.8748640418
vn 0.1300107241 0.4665941596 -0.8748640418
vn 0.03680085391 -0.1320741922 -0.9905564785
vn -0.1300107241 -0.4665941596 -0.8748640418
vn -0.03680085391 0.1320741922 -0.9905564785
vn -0.1300107241 0.4665941596 0.8748640418
vn -0.03680085391 -0.1320741922 0.9905564785
f 1//1 2//2 3//3 
f 3//3 2//2 4//4 
f 5//5 6//6 4//4 
f 4//4 6//6 3//3 
f 1//1 3//3 7//7 
f 7//7 3//3 6//6 
f 8//8 5//5 2//2 
f 2//2 5//5 4//4 
f 2//2 1//1 8//8 
f 8//8 1//1 7//7 
f 8//8 7//7 5//5 
f 5//5 7//7 6//6 
