v 63.7165184 1.833333373 249.6516571
v 63.7165184 1.833333373 249.6933136
v 69.21651459 1.833333373 249.6516571
v 69.21651459 1.833333373 249.6933136
v 69.21651459 -4.238793373 249.6933136
v 63.7165184 -4.238793373 249.6933136
v 69.21651459 1.833333373 248.4016571
v 69.21651459 1.833333373 248.3599854
v 63.7165184 1.833333373 248.4016571
v 63.7165184 1.833333373 248.3599854
v 69.21651459 -4.238793373 248.3599854
v 63.7165184 -4.238793373 248.3599854
v 69.21651459 2.125 248.3599854
v 69.21651459 1.875 248.3599854
v 63.7165184 2.125 248.3599854
v 63.7165184 1.875 248.3599854
v 69.21651459 2.208333254 248.4433136
v 63.7165184 2.208333254 248.4433136
v 69.21651459 2.208333254 249.6099854
v 63.7165184 2.208333254 249.6099854
v 69.21651459 2.125 249.6933136
v 63.7165184 2.125 249.6933136
v 69.21651459 1.875 248.4016571
v 63.7165184 1.875 248.4016571
v 69.21651459 1.875 249.6516571
v 69.21651459 1.875 249.6933136
v 63.7165184 1.875 249.6516571
v 63.7165184 1.875 249.6933136
vn -0.999537766 0.01359301712 0.02719264664
vn -0.007572983392 0.01371887699 0.9998772144
vn 0.9995379448 0.02718603797 0.01359632518
vn 0.003786907298 0.003430095501 0.9999869466
vn 0.2231263071 -0.3919598162 0.8925145268
vn -0.1233038977 -0.1083022729 0.986441493
vn 0.9981057048 0.02751613222 -0.05502549559
vn 0.007575756405 0.01372390054 -0.9998770952
vn -0.9981054664 0.05503224954 -0.02751274034
vn -0.003788294271 0.003431352088 -0.9999869466
vn 0.2308063656 -0.106188409 -0.9671878815
vn -0.4004264176 -0.3684529662 -0.8389881253
vn 0.01406673994 0.371334523 -0.9283925891
vn 0.003775227815 -0.08305495232 -0.9965378046
vn -0.01071327552 0.1414048076 -0.9898939133
vn -0.007187603507 -0.3162543476 -0.9486472011
vn 0.06992772967 0.9969595075 -0.03437780961
vn -0.1251576394 0.9844754338 -0.1230597794
vn 0.06259935349 0.9903317094 0.1237918213
vn -0.03483268246 0.9987995028 0.03444125876
vn 0.01071170717 0.1414048076 0.9898939133
vn -0.01406467985 0.371334523 0.9283926487
vn 0.07096137851 -0.8921943307 -0.4460422993
vn -0.07096659392 -0.4461299479 -0.892150104
vn 0.0709631443 -0.4459993541 0.8922156692
vn 0.007185235154 -0.3161501288 0.9486819506
vn -0.07097344846 -0.8921282291 0.4461726248
vn -0.003773855045 -0.08302475512 0.9965403676
f 1//1 2//2 3//3 
f 3//3 2//2 4//4 
f 5//5 4//4 6//6 
f 6//6 4//4 2//2 
f 7//7 8//8 9//9 
f 9//9 8//8 10//10 
f 11//11 5//5 12//12 
f 12//12 5//5 6//6 
f 12//12 10//10 11//11 
f 11//11 10//10 8//8 
f 13//13 14//14 15//15 
f 15//15 14//14 16//16 
f 17//17 13//13 18//18 
f 18//18 13//13 15//15 
f 19//19 17//17 20//20 
f 20//20 17//17 18//18 
f 21//21 19//19 22//22 
f 22//22 19//19 20//20 
f 14//14 23//23 16//16 
f 16//16 23//23 24//24 
f 23//23 7//7 24//24 
f 24//24 7//7 9//9 
f 25//25 26//26 27//27 
f 27//27 26//26 28//28 
f 23//23 17//17 7//7 
f 7//7 17//17 3//3 
f 7//7 3//3 11//11 
f 11//11 3//3 5//5 
f 5//5 3//3 4//4 
f 14//14 13//13 23//23 
f 23//23 13//13 17//17 
f 17//17 19//19 3//3 
f 3//3 19//19 25//25 
f 25//25 19//19 21//21 
f 25//25 21//21 26//26 
f 11//11 8//8 7//7 
f 26//26 21//21 28//28 
f 28//28 21//21 22//22 
f 3//3 25//25 1//1 
f 1//1 25//25 27//27 
f 27//27 20//20 1//1 
f 1//1 20//20 18//18 
f 1//1 18//18 9//9 
f 9//9 18//18 24//24 
f 24//24 18//18 15//15 
f 24//24 15//15 16//16 
f 28//28 22//22 27//27 
f 27//27 22//22 20//20 
f 10//10 12//12 9//9 
f 9//9 12//12 1//1 
f 12//12 6//6 1//1 
f 1//1 6//6 2//2 
