v -13.70014858 -25.75 178.8375702
v -13.61906719 -25.75 177.8408508
v -10.90575218 -25.75 179.2819824
v -10.81894493 -25.75 178.2752075
v -8.211812973 -25.75 180.1473389
v -8.111336708 -25.75 179.1107788
v -5.681350231 -25.75 181.4134064
v -5.553414345 -25.75 180.3299561
v -3.199192524 -25.75 181.9069672
v -3.373558283 -25.75 183.0505524
v -1.098382235 -25.75 183.8085327
v -1.342422366 -25.75 185.0204926
v 0.7046556473 -25.75 185.9944916
v 0.364543587 -25.75 187.2771301
v 2.171848536 -25.75 188.4186707
v 1.707408905 -25.75 189.7676849
v 3.27221489 -25.75 191.0299072
v 2.654760361 -25.75 192.4338989
v 3.982519627 -25.75 193.773056
v 3.184437037 -25.75 195.2133942
v 4.287764072 -25.75 196.5901642
v 3.284047842 -25.75 198.0411682
v 4.181502342 -25.75 199.4217834
v 2.951263189 -25.75 200.8510437
v 3.66597867 -25.75 202.2080994
v 2.193867207 -25.75 203.577301
v 2.752078772 -25.75 204.8902893
v 1.02957809 -25.75 206.1561737
v 1.459100246 -25.75 207.4117126
v -0.5143687129 -25.75 208.5273285
v -0.185654223 -25.75 209.7191162
v -2.147454023 -25.75 211.7637939
v -2.401855946 -25.75 210.6353149
v -4.384874344 -25.75 213.5025482
v -4.588729858 -25.75 212.4307861
v -6.850668907 -25.75 214.8986816
v -7.023834229 -25.75 213.8717651
v -9.492771149 -25.75 215.9227142
v -9.650204659 -25.75 214.9245453
v -12.25539017 -25.75 216.5530243
v -12.40640354 -25.75 215.5644836
v -12.28720474 5.833333492 215.5458832
v -12.32692432 5.833333492 215.5521698
v -12.28720474 5.833333492 216.3447571
v -12.36665726 5.833333492 215.5583801
v -12.40640354 5.833333492 215.5644836
v -13.61906719 0.8672053218 177.8408508
v -13.70014858 0.8541666865 178.8375702
v -11.43123531 1.22167182 178.1443481
v -9.99784565 1.458059788 178.4834137
v -7.905914783 1.812570095 179.1922913
v -6.561673641 2.048893213 179.7944641
v -4.640052319 2.403397799 180.8835297
v -3.432789564 2.639738321 181.7274017
v -2.292667627 2.876076221 182.6599884
v -0.7224900723 3.230580807 184.2134399
v 1.078989744 3.703255653 186.5416718
v 1.842847466 3.939596415 187.8010864
v 2.805094004 4.294102192 189.7892456
v 3.318893671 4.530444145 191.1696777
v 3.890721321 4.884952068 193.3031616
v 4.217608929 5.239463806 195.4876099
v 4.297254086 5.475804806 196.9584045
v 4.208166599 5.830320835 199.16539
v 4.010231972 6.066666603 200.6249695
v 3.508338213 6.421189785 202.7759705
v 3.039865494 6.657542229 204.1724396
v 1.793971181 7.130250454 206.8395996
v 1.02365911 7.366612911 208.0950623
v -0.3038555682 7.721151352 209.8603821
v -1.822490811 8.075699806 211.4642639
v -2.931564331 8.312067032 212.4335632
v -4.724336624 8.666627884 213.7237549
v -5.995683193 8.902994156 214.4675751
v -8.688373566 9.375747681 215.6572571
v -10.09434509 9.612184525 216.096344
v -12.25539017 9.966714859 216.5530243
v -12.28720474 9.947088242 216.3447571
v -12.28720474 9.854166985 215.5458832
v -10.64427853 9.572951317 215.2069092
v -9.039020538 9.291643143 214.7205811
v -7.484686852 9.01043129 214.0909882
v -5.993413448 8.729179382 213.3230286
v -4.577849865 8.447927475 212.4231567
v -3.249932528 8.166731834 211.3990631
v -2.019838333 7.885458469 210.2585449
v -0.8981617093 7.604192734 209.0113525
v 0.105895631 7.322945595 207.6677551
v 0.9841275811 7.041693687 206.2387543
v 1.729397416 6.760417461 204.7359009
v 2.335425377 6.479161739 203.171875
v 2.797301054 6.197911739 201.5593872
v 3.111228466 5.916658878 199.9116974
v 3.274628878 5.635414124 198.2423553
v 3.2861619 5.354166508 196.565094
v 3.14573431 5.072924614 194.8936768
v 2.85449791 4.791674614 193.2418365
v 2.414844275 4.510426521 191.6231537
v 1.830385685 4.229172707 190.0509338
v 1.105926037 3.947920561 188.5381165
v 0.2473404109 3.666639566 187.0970154
v -0.7381381989 3.385392904 185.7397461
v -1.842504978 3.104140997 184.4772949
v -3.056732655 2.822880507 183.3200226
v -4.370856762 2.541601181 182.2774353
v -5.773565769 2.260409355 181.3584442
v -7.25411129 1.97915411 180.5700531
v -8.800004005 1.69791007 179.9189911
v -10.39813423 1.416692138 179.4107513
v -12.03602695 1.135385036 179.0492401
v -10.59456158 9.629929543 215.7100677
v -8.940635681 9.346840858 215.2163239
v -6.368513584 8.886820793 214.1001129
v -3.988558054 8.426800728 212.6174316
v -1.852783442 7.966781139 210.8006439
v -0.007573006675 7.506761551 208.68927
v 1.506812096 7.046741486 206.3292847
v 2.65735054 6.586721897 203.772049
v 3.418973207 6.126701832 201.0733032
v 3.77511549 5.666681767 198.2918091
v 3.718023539 5.206662178 195.4881592
v 3.248920918 4.746642113 192.7234192
v 2.377989531 4.286622524 190.0578613
v 1.124195218 3.826602697 187.54953
v -0.4851050973 3.36658287 185.2530518
v -2.414857388 2.906562805 183.2184296
v -4.623005867 2.446542978 181.489975
v -7.061529636 1.986523271 180.1053467
v -8.653924942 1.70343411 179.4376068
v -10.30011654 1.420344949 178.917099
v -11.98650074 1.137255788 178.5483246
vn -0.3519524932 -0.0213359464 0.935774684
vn -0.2339491099 -0.04065420106 -0.9713985324
vn -0.24271442 -0.03353137523 0.9695181251
vn 0.2258158624 -0.04522686079 -0.9731195569
vn -0.380072087 -0.0406283997 0.9240641594
vn 0.3609727323 -0.03434053063 -0.9319438934
vn -0.5125914812 -0.04384968802 0.857512176
vn 0.4943107665 -0.0267638918 -0.868873179
vn 0.6112738252 -0.0355942063 -0.79061836
vn -0.6457154155 -0.03237368539 0.7628915906
vn 0.7173195481 -0.0378225483 -0.6957169771
vn -0.7494781613 -0.03953124955 0.6608477831
vn 0.8070193529 -0.03363756835 -0.5895662308
vn -0.8388215303 -0.03148753941 0.5434951782
vn 0.8875781298 -0.03101896308 -0.4596116543
vn -0.9161689878 -0.03098114207 0.3995929658
vn 0.9502791762 -0.03041712567 -0.3099100888
vn -0.9644830823 -0.03783202916 0.2614213228
vn 0.9847378135 -0.03524747863 -0.1704377085
vn -0.9926175475 -0.03013369814 0.1174832955
vn 0.9985011816 -0.03852432221 -0.03887464851
vn -0.9985122085 -0.02961067669 -0.04578822106
vn 0.9947806001 -0.02917454205 0.09777714312
vn -0.9807416201 -0.03616303578 -0.1919325441
vn 0.9658518434 -0.02875621803 0.2574941516
vn -0.9425976276 -0.028797796 -0.3326865733
vn 0.9152424932 -0.0301943738 0.4017704725
vn -0.8758218884 -0.02825907804 -0.4818063974
vn 0.8532447219 -0.036494039 0.5202322602
vn -0.7945196033 -0.04573623836 -0.6055136919
vn 0.7669291496 -0.01760673523 0.6414901614
vn 0.6664606333 -0.03653094172 0.7446446419
vn -0.6990305185 -0.02662723139 -0.7145959139
vn 0.5534862876 -0.02762325481 0.8324000835
vn -0.5732826591 -0.02629870921 -0.8189355135
vn 0.419588536 -0.02894694358 0.9072527289
vn -0.4322276115 -0.02608158998 -0.9013872743
vn 0.2934577167 -0.03476950899 0.955339551
vn -0.2973385155 -0.0320094265 -0.9542353749
vn -0.0003304423881 -0.03194755316 0.9994894862
vn -0.5285515189 -0.01572976075 -0.8487554789
vn -0.2514969409 0.0006787242019 -0.9678578377
vn -0.1553295106 0.02498379722 -0.987546742
vn -0.9905149937 0.001334692934 0.137398392
vn -0.153057158 0.02498398349 -0.9879014492
vn -0.994933784 0.001271508401 0.1005242988
vn -0.2983174026 0.04320229217 -0.9534884691
vn -0.8279713988 0.03542678803 0.5596501231
vn 0.1631134599 0.01475719456 -0.9864969254
vn 0.2870929241 0.01441947091 -0.9577941895
vn 0.3523744643 0.02630917914 -0.9354892373
vn 0.4456733465 0.009809766896 -0.8951418996
vn 0.53673172 0.01760942489 -0.8435692191
vn 0.6009767652 0.01852994598 -0.799051702
vn 0.6717077494 0.01754089259 -0.7406085134
vn 0.7591145635 0.01718403213 -0.6507301927
vn 0.82896173 0.01642490923 -0.5590640903
vn 0.8815762401 0.01736485399 -0.471722126
vn 0.9172309041 0.01661353 -0.39800933
vn 0.9535967708 0.02961744182 -0.2996263504
vn 0.9743199944 0.01617998816 -0.2245858759
vn 0.9938251972 0.008689880371 -0.1106164455
vn 0.9997580051 0.01579931378 0.0153079452
vn 0.9968988299 0.02839803509 0.07339089364
vn 0.9826286435 0.008409952745 0.1853920966
vn 0.9653772116 0.02813222632 0.2593364716
vn 0.9325209856 0.01505350787 0.3608019352
vn 0.8901395798 0.009265984409 0.4555937052
vn 0.8195515275 0.01501005236 0.5728088021
vn 0.7662505507 0.02457600087 0.6420717239
vn 0.7101109624 0.007919522934 0.7040452361
vn 0.6157708764 0.01464562025 0.7877891064
vn 0.5564450622 0.02642778866 0.8304640055
vn 0.4609675109 0.008621360175 0.8873751163
vn 0.3681810498 0.01428791322 0.9296443462
vn 0.2363065928 0.01288757194 0.971593082
vn 0.1025255099 0.005894819275 0.9947128892
vn -0.8017047644 0.5960525274 -0.04461869597
vn -0.7228203416 0.2103550732 -0.6582412124
vn -0.2352397889 0.01221072767 -0.9718606472
vn -0.3495986164 0.008344112895 -0.9368624091
vn -0.4130198061 0.02572135255 -0.910358727
vn -0.5008215308 0.01449004654 -0.8654292822
vn -0.5721104741 0.01452514064 -0.820047915
vn -0.6387743354 0.01475873683 -0.7692525983
vn -0.7105963826 0.01502124034 -0.7034394741
vn -0.7586653233 0.01501119789 -0.6513075829
vn -0.8307486773 0.01516468078 -0.5564410686
vn -0.873481214 0.01527876966 -0.4866180122
vn -0.9122541547 0.01542450022 -0.4093341529
vn -0.9469220638 0.0155060254 -0.3210890591
vn -0.9679527879 0.01566478796 -0.2506432831
vn -0.9908899069 0.01588423736 -0.1337343156
vn -0.9983639121 0.01604307257 -0.0548829101
vn -0.9992837906 0.01613341272 0.0342293717
vn -0.9918589592 0.02882228233 0.1240366027
vn -0.9792643785 0.00948016718 0.2023644447
vn -0.9485193491 0.01665832475 0.3162807226
vn -0.9215385914 0.01682613045 0.3879220188
vn -0.8820877075 0.01689665578 0.4707820415
vn -0.8373611569 0.0302179344 0.5458142161
vn -0.7900534272 0.009993561544 0.6129565835
vn -0.7123090625 0.01748985238 0.7016479969
vn -0.6585251689 0.01762339287 0.7523522973
vn -0.5846323371 0.01771918312 0.8111048341
vn -0.5137987733 0.03174968064 0.8573230505
vn -0.4393626451 0.01051734108 0.8982481956
vn -0.3309288919 0.02093527652 0.94342345
vn -0.2625620067 0.01880843006 0.9647318125
vn -0.1673245132 0.01608749665 0.9857706428
vn 0.1366969794 0.9829545617 -0.1229402646
vn 0.1228585616 0.9832361341 -0.1347312182
vn 0.1052148193 0.9835543633 -0.146801576
vn 0.08529379219 0.9837961197 -0.1577029228
vn 0.0624903217 0.9841500521 -0.1659628153
vn 0.0410259217 0.9844141603 -0.1710136384
vn 0.01766946167 0.9846857786 -0.1734408736
vn -0.005880311131 0.9847431183 -0.1739150882
vn -0.02528425679 0.9852293134 -0.1693633944
vn -0.0463979654 0.9853059053 -0.1643762589
vn -0.06501682103 0.9856767654 -0.155608952
vn -0.08388807625 0.9857103825 -0.1460747719
vn -0.09999912977 0.9858988523 -0.1341774911
vn -0.1137285531 0.9861856699 -0.1204312071
vn -0.1282689571 0.9862312078 -0.1043797806
vn -0.1398423314 0.9863461256 -0.08697987348
vn -0.147722289 0.9865412116 -0.0701039806
vn -0.1548693925 0.9865790009 -0.05174288526
vn -0.1583542228 0.9867447615 -0.0354777202
vn -0.1616015285 0.986569345 -0.02378739417
vn -0.1622512639 0.9867073298 -0.00911846105
f 1//1 2//2 3//3 
f 3//3 2//2 4//4 
f 3//3 4//4 5//5 
f 5//5 4//4 6//6 
f 5//5 6//6 7//7 
f 7//7 6//6 8//8 
f 7//7 8//8 9//9 
f 7//7 9//9 10//10 
f 10//10 9//9 11//11 
f 10//10 11//11 12//12 
f 12//12 11//11 13//13 
f 12//12 13//13 14//14 
f 14//14 13//13 15//15 
f 14//14 15//15 16//16 
f 16//16 15//15 17//17 
f 16//16 17//17 18//18 
f 18//18 17//17 19//19 
f 18//18 19//19 20//20 
f 20//20 19//19 21//21 
f 20//20 21//21 22//22 
f 22//22 21//21 23//23 
f 22//22 23//23 24//24 
f 24//24 23//23 25//25 
f 24//24 25//25 26//26 
f 26//26 25//25 27//27 
f 26//26 27//27 28//28 
f 28//28 27//27 29//29 
f 28//28 29//29 30//30 
f 30//30 29//29 31//31 
f 30//30 31//31 32//32 
f 30//30 32//32 33//33 
f 33//33 32//32 34//34 
f 33//33 34//34 35//35 
f 35//35 34//34 36//36 
f 35//35 36//36 37//37 
f 37//37 36//36 38//38 
f 37//37 38//38 39//39 
f 39//39 38//38 40//40 
f 39//39 40//40 41//41 
f 42//42 43//43 44//44 
f 44//44 43//43 45//45 
f 44//44 45//45 46//46 
f 47//47 2//2 48//48 
f 48//48 2//2 1//1 
f 47//47 49//49 2//2 
f 2//2 49//49 4//4 
f 4//4 49//49 50//50 
f 4//4 50//50 6//6 
f 6//6 50//50 51//51 
f 6//6 51//51 52//52 
f 6//6 52//52 8//8 
f 8//8 52//52 53//53 
f 8//8 53//53 9//9 
f 9//9 53//53 54//54 
f 9//9 54//54 55//55 
f 9//9 55//55 11//11 
f 11//11 55//55 56//56 
f 11//11 56//56 13//13 
f 13//13 56//56 57//57 
f 13//13 57//57 15//15 
f 15//15 57//57 58//58 
f 15//15 58//58 59//59 
f 15//15 59//59 17//17 
f 17//17 59//59 60//60 
f 17//17 60//60 61//61 
f 17//17 61//61 19//19 
f 19//19 61//61 62//62 
f 19//19 62//62 21//21 
f 21//21 62//62 63//63 
f 21//21 63//63 23//23 
f 23//23 63//63 64//64 
f 23//23 64//64 65//65 
f 23//23 65//65 25//25 
f 25//25 65//65 66//66 
f 25//25 66//66 67//67 
f 25//25 67//67 27//27 
f 27//27 67//67 68//68 
f 27//27 68//68 29//29 
f 29//29 68//68 69//69 
f 29//29 69//69 31//31 
f 31//31 69//69 70//70 
f 31//31 70//70 71//71 
f 31//31 71//71 32//32 
f 32//32 71//71 72//72 
f 32//32 72//72 34//34 
f 34//34 72//72 73//73 
f 34//34 73//73 74//74 
f 34//34 74//74 36//36 
f 36//36 74//74 75//75 
f 36//36 75//75 38//38 
f 38//38 75//75 76//76 
f 38//38 76//76 40//40 
f 40//40 76//76 77//77 
f 78//78 44//44 77//77 
f 77//77 44//44 40//40 
f 40//40 44//44 41//41 
f 41//41 44//44 46//46 
f 42//42 44//44 79//79 
f 79//79 44//44 78//78 
f 46//46 45//45 41//41 
f 41//41 45//45 43//43 
f 41//41 43//43 42//42 
f 79//79 80//80 42//42 
f 42//42 80//80 41//41 
f 41//41 80//80 39//39 
f 39//39 80//80 81//81 
f 39//39 81//81 37//37 
f 37//37 81//81 82//82 
f 37//37 82//82 83//83 
f 37//37 83//83 35//35 
f 35//35 83//83 84//84 
f 35//35 84//84 85//85 
f 35//35 85//85 33//33 
f 33//33 85//85 86//86 
f 33//33 86//86 87//87 
f 33//33 87//87 30//30 
f 30//30 87//87 88//88 
f 30//30 88//88 28//28 
f 28//28 88//88 89//89 
f 28//28 89//89 90//90 
f 28//28 90//90 26//26 
f 26//26 90//90 91//91 
f 26//26 91//91 92//92 
f 26//26 92//92 24//24 
f 24//24 92//92 93//93 
f 24//24 93//93 22//22 
f 22//22 93//93 94//94 
f 22//22 94//94 95//95 
f 22//22 95//95 20//20 
f 20//20 95//95 96//96 
f 20//20 96//96 97//97 
f 20//20 97//97 18//18 
f 18//18 97//97 98//98 
f 18//18 98//98 16//16 
f 16//16 98//98 99//99 
f 16//16 99//99 100//100 
f 16//16 100//100 14//14 
f 14//14 100//100 101//101 
f 14//14 101//101 102//102 
f 14//14 102//102 12//12 
f 12//12 102//102 103//103 
f 12//12 103//103 10//10 
f 10//10 103//103 104//104 
f 10//10 104//104 105//105 
f 10//10 105//105 7//7 
f 7//7 105//105 106//106 
f 7//7 106//106 107//107 
f 7//7 107//107 5//5 
f 5//5 107//107 108//108 
f 5//5 108//108 3//3 
f 3//3 108//108 109//109 
f 3//3 109//109 110//110 
f 48//48 1//1 110//110 
f 110//110 1//1 3//3 
f 80//80 79//79 111//111 
f 111//111 79//79 78//78 
f 111//111 78//78 76//76 
f 76//76 78//78 77//77 
f 111//111 76//76 112//112 
f 112//112 76//76 75//75 
f 112//112 75//75 113//113 
f 113//113 75//75 74//74 
f 113//113 74//74 73//73 
f 113//113 73//73 114//114 
f 114//114 73//73 72//72 
f 114//114 72//72 115//115 
f 115//115 72//72 71//71 
f 115//115 71//71 70//70 
f 115//115 70//70 116//116 
f 116//116 70//70 69//69 
f 116//116 69//69 117//117 
f 117//117 69//69 68//68 
f 117//117 68//68 67//67 
f 117//117 67//67 118//118 
f 118//118 67//67 66//66 
f 118//118 66//66 119//119 
f 119//119 66//66 65//65 
f 119//119 65//65 64//64 
f 119//119 64//64 120//120 
f 120//120 64//64 63//63 
f 120//120 63//63 121//121 
f 121//121 63//63 62//62 
f 121//121 62//62 61//61 
f 121//121 61//61 122//122 
f 122//122 61//61 60//60 
f 122//122 60//60 123//123 
f 123//123 60//60 59//59 
f 123//123 59//59 124//124 
f 124//124 59//59 58//58 
f 124//124 58//58 57//57 
f 124//124 57//57 125//125 
f 125//125 57//57 56//56 
f 125//125 56//56 126//126 
f 126//126 56//56 55//55 
f 126//126 55//55 127//127 
f 127//127 55//55 54//54 
f 127//127 54//54 53//53 
f 127//127 53//53 128//128 
f 128//128 53//53 52//52 
f 128//128 52//52 51//51 
f 128//128 51//51 129//129 
f 129//129 51//51 50//50 
f 129//129 50//50 130//130 
f 130//130 50//50 49//49 
f 130//130 49//49 131//131 
f 131//131 49//49 47//47 
f 131//131 47//47 48//48 
f 48//48 110//110 131//131 
f 131//131 110//110 130//130 
f 110//110 109//109 130//130 
f 130//130 109//109 108//108 
f 130//130 108//108 129//129 
f 129//129 108//108 128//128 
f 108//108 107//107 128//128 
f 128//128 107//107 106//106 
f 128//128 106//106 127//127 
f 127//127 106//106 105//105 
f 127//127 105//105 126//126 
f 126//126 105//105 104//104 
f 126//126 104//104 103//103 
f 126//126 103//103 125//125 
f 125//125 103//103 102//102 
f 125//125 102//102 101//101 
f 125//125 101//101 124//124 
f 124//124 101//101 100//100 
f 124//124 100//100 123//123 
f 123//123 100//100 99//99 
f 123//123 99//99 98//98 
f 123//123 98//98 122//122 
f 122//122 98//98 97//97 
f 122//122 97//97 96//96 
f 122//122 96//96 121//121 
f 121//121 96//96 95//95 
f 121//121 95//95 120//120 
f 120//120 95//95 94//94 
f 120//120 94//94 93//93 
f 120//120 93//93 119//119 
f 119//119 93//93 92//92 
f 119//119 92//92 118//118 
f 118//118 92//92 91//91 
f 118//118 91//91 90//90 
f 118//118 90//90 117//117 
f 117//117 90//90 89//89 
f 117//117 89//89 88//88 
f 117//117 88//88 116//116 
f 116//116 88//88 87//87 
f 116//116 87//87 115//115 
f 115//115 87//87 86//86 
f 115//115 86//86 85//85 
f 115//115 85//85 114//114 
f 114//114 85//85 84//84 
f 114//114 84//84 83//83 
f 114//114 83//83 113//113 
f 113//113 83//83 82//82 
f 113//113 82//82 112//112 
f 112//112 82//82 81//81 
f 112//112 81//81 80//80 
f 112//112 80//80 111//111 
