v 69.21651459 -2.166666746 144.8599854
v 69.21651459 -2.166666746 143.5266571
v 70.54985046 -2.166666746 144.8599854
v 70.54985046 -2.166666746 143.5266571
v 69.21651459 1.833333373 144.8599854
v 70.54985046 1.833333373 144.8599854
v 70.50818634 1.833333373 144.8183136
v 70.54985046 1.833333373 143.5266571
v 70.50818634 1.833333373 143.5683136
v 69.21651459 1.833333373 143.5266571
v 69.25818634 1.833333373 143.5683136
v 69.25818634 1.833333373 144.8183136
v 70.50818634 1.875 144.8183136
v 70.50818634 1.875 143.5683136
v 69.25818634 1.875 144.8183136
v 69.25818634 1.875 143.5683136
v 69.29985046 2.416666746 143.6099854
v 70.46651459 2.416666746 143.6099854
v 69.21651459 2.333333254 143.5266571
v 70.54985046 2.333333254 143.5266571
v 69.29985046 2.416666746 144.7766571
v 70.46651459 2.416666746 144.7766571
v 69.21651459 1.875 143.5266571
v 70.54985046 1.875 143.5266571
v 69.21651459 1.875 144.8599854
v 69.21651459 2.333333254 144.8599854
v 70.54985046 2.333333254 144.8599854
v 70.54985046 1.875 144.8599854
vn -0.4423238635 -0.147441566 0.8846527934
vn -0.8571418524 -0.2857144773 -0.42857337
vn 0.8571418524 -0.2857144773 0.42857337
vn 0.4423238635 -0.147441566 -0.8846527934
vn -0.8942804337 0.01805089042 0.4471427798
vn 0.4471921325 0.009316813201 0.8943893909
vn 0.4255752265 0.8795493841 0.2127876133
vn 0.8943424821 0.01368132886 -0.4471737742
vn 0.2635139227 0.8079616427 -0.5270278454
vn -0.4471696913 0.01368133537 -0.8943445086
vn -0.5269641876 0.8080135584 -0.2634820938
vn -0.3333151042 0.6667122245 0.6666302085
vn 0.2634714842 -0.8080309033 0.5269429684
vn 0.4256355166 -0.8795129061 -0.2128177583
vn -0.52692312 -0.8080470562 0.26346156
vn -0.3333422244 -0.6666443944 -0.6666844487
vn -0.1238274723 0.9906197786 -0.05778602883
vn 0.03201815858 0.9971296191 -0.06861004233
vn -0.4419799447 0.195485875 -0.8754650354
vn 0.8754620552 0.1954919994 -0.4419831336
vn -0.0332965292 0.9988907576 0.03329631314
vn 0.1156110168 0.9865435362 0.1156110168
vn -0.8835303783 -0.1556128711 -0.4417677224
vn 0.4457409084 -0.08103168011 -0.8914868832
vn -0.444055289 -0.1185978204 0.8881157041
vn -0.8412715793 0.2450275868 0.4818958044
vn 0.4712477624 0.1449974924 0.87000072
vn 0.888115108 -0.1185841039 0.4440600872
f 1//1 2//2 3//3 
f 3//3 2//2 4//4 
f 5//5 6//6 7//7 
f 7//7 6//6 8//8 
f 7//7 8//8 9//9 
f 9//9 8//8 10//10 
f 9//9 10//10 11//11 
f 11//11 10//10 5//5 
f 11//11 5//5 12//12 
f 12//12 5//5 7//7 
f 2//2 10//10 4//4 
f 4//4 10//10 8//8 
f 4//4 8//8 3//3 
f 3//3 8//8 6//6 
f 3//3 6//6 1//1 
f 1//1 6//6 5//5 
f 1//1 5//5 2//2 
f 2//2 5//5 10//10 
f 13//13 7//7 14//14 
f 14//14 7//7 9//9 
f 12//12 15//15 11//11 
f 11//11 15//15 16//16 
f 15//15 12//12 13//13 
f 13//13 12//12 7//7 
f 11//11 16//16 9//9 
f 9//9 16//16 14//14 
f 17//17 18//18 19//19 
f 19//19 18//18 20//20 
f 17//17 21//21 18//18 
f 18//18 21//21 22//22 
f 23//23 19//19 24//24 
f 24//24 19//19 20//20 
f 25//25 26//26 23//23 
f 23//23 26//26 19//19 
f 21//21 17//17 26//26 
f 26//26 17//17 19//19 
f 27//27 20//20 22//22 
f 22//22 20//20 18//18 
f 24//24 20//20 28//28 
f 28//28 20//20 27//27 
f 28//28 27//27 25//25 
f 25//25 27//27 26//26 
f 21//21 26//26 22//22 
f 22//22 26//26 27//27 
f 23//23 24//24 14//14 
f 14//14 24//24 28//28 
f 14//14 28//28 13//13 
f 13//13 28//28 25//25 
f 13//13 25//25 15//15 
f 15//15 25//25 23//23 
f 15//15 23//23 16//16 
f 16//16 23//23 14//14 
