v 95.78561401 2.765217543 233.6933136
v 95.78348541 2.747587919 233.6933136
v 95.78348541 2.782847166 233.6933136
v 95.77724457 2.799275398 233.6933136
v 95.77724457 2.731159687 233.6933136
v 95.7673111 2.813382626 233.6933136
v 95.7673111 2.71705246 233.6933136
v 95.75436401 2.824207544 233.6933136
v 95.75436401 2.706227541 233.6933136
v 95.73929596 2.831012249 233.6933136
v 95.73929596 2.699422836 233.6933136
v 95.72311401 2.833333254 233.6933136
v 95.72311401 2.697101831 233.6933136
v 95.7069397 2.831012249 233.6933136
v 95.7069397 2.699422836 233.6933136
v 95.69186401 2.824207544 233.6933136
v 95.69186401 2.706227541 233.6933136
v 95.67892456 2.813382626 233.6933136
v 95.67892456 2.71705246 233.6933136
v 95.66899109 2.799275398 233.6933136
v 95.66899109 2.731159687 233.6933136
v 95.66274261 2.782847166 233.6933136
v 95.66274261 2.747587919 233.6933136
v 95.66061401 2.765217543 233.6933136
v 95.78348541 1.0213238 237.677002
v 95.78561401 1.037500024 237.6803589
v 95.78348541 1.053676248 237.6837158
v 95.77724457 1.068750024 237.6868439
v 95.7673111 1.081694126 237.6895294
v 95.75436401 1.091626644 237.6915894
v 95.73929596 1.09787035 237.6928711
v 95.72311401 1.100000024 237.6933136
v 95.77724457 1.006250024 237.6738739
v 95.7673111 0.9933058023 237.6711884
v 95.75436401 0.9833734035 237.6691437
v 95.73929596 0.9771296382 237.6678467
v 95.72311401 0.9750000238 237.6674042
v 95.7069397 0.9771296382 237.6678467
v 95.69186401 0.9833734035 237.6691437
v 95.67892456 0.9933058023 237.6711884
v 95.66899109 1.006250024 237.6738739
v 95.66274261 1.0213238 237.677002
v 95.66061401 1.037500024 237.6803589
v 95.66274261 1.053676248 237.6837158
v 95.66899109 1.068750024 237.6868439
v 95.67892456 1.081694126 237.6895294
v 95.69186401 1.091626644 237.6915894
v 95.7069397 1.09787035 237.6928711
v 95.7844162 1.049693108 238.6430054
v 95.78561401 1.037500024 238.6308136
v 95.7844162 1.025306821 238.6186218
v 95.7808609 1.01358223 238.6069031
v 95.77508545 1.002776861 238.5960999
v 95.7673111 0.9933058023 238.5866241
v 95.75784302 0.9855331779 238.5788574
v 95.74703217 0.9797575474 238.5730743
v 95.73531342 0.9762009382 238.569519
v 95.72924042 0.9753009677 238.5686188
v 95.72311401 0.9750000238 238.5683136
v 95.71698761 0.9753009677 238.5686188
v 95.71092224 0.9762009382 238.569519
v 95.69919586 0.9797575474 238.5730743
v 95.68839264 0.9855331779 238.5788574
v 95.67892456 0.9933058023 238.5866241
v 95.67115021 1.002776861 238.5960999
v 95.66537476 1.01358223 238.6069031
v 95.66181946 1.025306821 238.6186218
v 95.66061401 1.037500024 238.6308136
v 95.66181946 1.049693108 238.6430054
v 95.66537476 1.061417699 238.6547394
v 95.67115021 1.072223186 238.6655426
v 95.67892456 1.081694126 238.6750183
v 95.68839264 1.08946681 238.682785
v 95.69919586 1.0952425 238.6885681
v 95.71092224 1.098799109 238.6921234
v 95.71698761 1.09969902 238.6930237
v 95.72311401 1.100000024 238.6933136
v 95.72924042 1.09969902 238.6930237
v 95.73531342 1.098799109 238.6921234
v 95.74703217 1.0952425 238.6885681
v 95.75784302 1.08946681 238.682785
v 95.7673111 1.081694126 238.6750183
v 95.77508545 1.072223186 238.6655426
v 95.7808609 1.061417699 238.6547394
v 95.7844162 -0.2419735193 238.6186218
v 95.78561401 -0.2541666627 238.6308136
v 95.7844162 -0.2663598061 238.6430054
v 95.7808609 -0.2302489579 238.6069031
v 95.77508545 -0.2194435298 238.5960999
v 95.7673111 -0.2099724859 238.5866241
v 95.75784302 -0.2021998167 238.5788574
v 95.74703217 -0.1964242011 238.5730743
v 95.73531342 -0.192867592 238.569519
v 95.72924042 -0.1919676214 238.5686188
v 95.72311401 -0.1916666627 238.5683136
v 95.71698761 -0.1919676214 238.5686188
v 95.71092224 -0.192867592 238.569519
v 95.69919586 -0.1964242011 238.5730743
v 95.68839264 -0.2021998167 238.5788574
v 95.67892456 -0.2099724859 238.5866241
v 95.67115021 -0.2194435298 238.5960999
v 95.66537476 -0.2302489579 238.6069031
v 95.66181946 -0.2419735193 238.6186218
v 95.66061401 -0.2541666627 238.6308136
v 95.66181946 -0.2663598061 238.6430054
v 95.66537476 -0.2780843675 238.6547394
v 95.67115021 -0.2888897955 238.6655426
v 95.67892456 -0.2983608544 238.6750183
v 95.68839264 -0.3061335087 238.682785
v 95.69919586 -0.3119091392 238.6885681
v 95.71092224 -0.3154657483 238.6921234
v 95.71698761 -0.3163657188 238.6930237
v 95.72311401 -0.3166666627 238.6933136
v 95.72924042 -0.3163657188 238.6930237
v 95.73531342 -0.3154657483 238.6921234
v 95.74703217 -0.3119091392 238.6885681
v 95.75784302 -0.3061335087 238.682785
v 95.7673111 -0.2983608544 238.6750183
v 95.77508545 -0.2888897955 238.6655426
v 95.7808609 -0.2780843675 238.6547394
v 95.78561401 -0.2541666627 237.7125854
v 95.78348541 -0.2703428566 237.7125854
v 95.78348541 -0.2379904836 237.7125854
v 95.77724457 -0.2229166627 237.7125854
v 95.77724457 -0.2854166627 237.7125854
v 95.7673111 -0.2099724859 237.7125854
v 95.7673111 -0.2983608544 237.7125854
v 95.75436401 -0.2000400722 237.7125854
v 95.75436401 -0.3082932532 237.7125854
v 95.73929596 -0.1937963068 237.7125854
v 95.73929596 -0.3145370185 237.7125854
v 95.72311401 -0.1916666627 237.7125854
v 95.72311401 -0.3166666627 237.7125854
v 95.7069397 -0.1937963068 237.7125854
v 95.7069397 -0.3145370185 237.7125854
v 95.69186401 -0.2000400722 237.7125854
v 95.69186401 -0.3082932532 237.7125854
v 95.67892456 -0.2099724859 237.7125854
v 95.67892456 -0.2983608544 237.7125854
v 95.66899109 -0.2229166627 237.7125854
v 95.66899109 -0.2854166627 237.7125854
v 95.66274261 -0.2379904836 237.7125854
v 95.66274261 -0.2703428566 237.7125854
v 95.66061401 -0.2541666627 237.7125854
vn 0.9990444779 0.04022981599 0.01707741432
vn 0.976080358 -0.1982199848 -0.08930824697
vn 0.9538439512 0.2760515809 0.118225269
vn 0.8443843126 0.4938246906 0.2077313215
vn 0.8855413795 -0.422624439 -0.1928859949
vn 0.677996695 0.6793509126 0.2807183862
vn 0.7337988615 -0.616748929 -0.2848859429
vn 0.4649633169 0.8200404048 0.3336806893
vn 0.532777071 -0.7671179771 -0.3573213816
vn 0.2184869796 0.9053288102 0.3642021716
vn 0.2974778712 -0.8648359179 -0.4044326246
vn -2.631537024e-13 0.9339053631 0.3575203419
vn 4.924140997e-14 -0.9089224339 -0.4169652462
vn -0.2186822444 0.9059921503 0.362431109
vn -0.2976740897 -0.8655489683 -0.4027594328
vn -0.4654401243 0.8210267425 0.3305760622
vn -0.5335056186 -0.7680238485 -0.3542754054
vn -0.6789166331 0.6799829006 0.2769394517
vn -0.734713316 -0.6173739433 -0.2811507583
vn -0.8449211717 0.4942830205 0.2044321895
vn -0.8860031366 -0.4231326878 -0.1896238476
vn -0.9539795518 0.2763791978 0.1163508669
vn -0.976220727 -0.1983925402 -0.08736997843
vn -0.9990444779 0.04022981599 0.01707741432
vn 0.9563086629 -0.274740696 -0.09995671362
vn 0.9993959069 -0.03184423968 -0.01392057445
vn 0.9750335813 0.2102608979 0.07141329348
vn 0.8867157102 0.4364127219 0.1525750011
vn 0.7358956933 0.6424452662 0.2138260454
vn 0.5343040228 0.7976794243 0.2796904147
vn 0.2951889038 0.9038417935 0.3097313046
vn -1.638717509e-13 0.937989831 0.34666273
vn 0.8504994512 -0.4944856465 -0.1792612374
vn 0.686481595 -0.6874706745 -0.2369116098
vn 0.4706242085 -0.8303123116 -0.2984866798
vn 0.2254527658 -0.9192742109 -0.3226545751
vn 7.839169987e-14 -0.9495620728 -0.3135792017
vn -0.2254813313 -0.9192710519 -0.3226436675
vn -0.4705800414 -0.8303285241 -0.2985112667
vn -0.6866204143 -0.6873503327 -0.2368584126
vn -0.8504287601 -0.4945937395 -0.1792984903
vn -0.9562279582 -0.2749869227 -0.1000515446
vn -0.9993959069 -0.0318444334 -0.01391964313
vn -0.9749994278 0.2104020268 0.07146379352
vn -0.8865976334 0.4366233349 0.1526587605
vn -0.735971272 0.6423678994 0.2137984782
vn -0.5343757272 0.7976363897 0.2796761096
vn -0.2951528728 0.9038491249 0.3097443581
vn 0.9916419983 0.09370045364 0.08869268
vn 0.9997516274 2.866229897e-15 0.02228549123
vn 0.9905435443 -0.06517842412 -0.1207278594
vn 0.9551687241 -0.1816024035 -0.2338231355
vn 0.8973618746 -0.3503816724 -0.2682802975
vn 0.8157125711 -0.2676018476 -0.51283741
vn 0.6858460903 -0.3868963718 -0.6163816452
vn 0.4854004681 -0.5648288131 -0.6673491001
vn 0.3314460516 -0.5766256452 -0.7467572689
vn 0.1617758572 -0.7576102614 -0.6323410869
vn 0.01476696786 -0.4576012492 -0.8890348673
vn -0.1415322572 -0.7592596412 -0.6352113485
vn -0.3081204295 -0.3421230614 -0.8877013326
vn -0.5234511495 -0.5575137138 -0.6443425417
vn -0.6961211562 -0.5616114736 -0.4472223818
vn -0.7886372209 -0.2720440924 -0.5514012575
vn -0.8969943523 -0.2418230921 -0.3700306714
vn -0.9633864164 -0.1793814152 -0.1992708743
vn -0.9916454554 -0.09441240132 -0.08789540082
vn -0.9997627735 -3.425398698e-15 -0.02177965455
vn -0.9903123379 0.06459789723 0.1229170933
vn -0.9546998739 0.1773496568 0.2389460802
vn -0.8978751302 0.3435287178 0.2753330171
vn -0.8137328029 0.257553637 0.5210614204
vn -0.6820192933 0.3676701784 0.6321932673
vn -0.4826657772 0.5367779136 0.6920283437
vn -0.3295415938 0.5444345474 0.7713581324
vn -0.1617484987 0.7295050025 0.6645749807
vn -0.01426691096 0.4258030653 0.9047033787
vn 0.1397186071 0.7307311296 0.6682145596
vn 0.3043257594 0.3174191117 0.8981263638
vn 0.5224606991 0.5327789187 0.6657187343
vn 0.6967525482 0.5438700914 0.4676977694
vn 0.7851448059 0.2584124804 0.5628237724
vn 0.8958584666 0.235067457 0.3770688772
vn 0.9632998705 0.1772522032 0.2015812695
vn 0.9916564822 0.09271304309 -0.08956371993
vn 0.9997604489 -6.953441695e-15 -0.02188704722
vn 0.9902384877 -0.06326912344 0.124196209
vn 0.9633864164 0.175255686 -0.2029088587
vn 0.8963321447 0.2350611836 -0.3759453893
vn 0.7865455151 0.263158232 -0.5586536527
vn 0.6966035366 0.5506093502 -0.4599704146
vn 0.5230796933 0.541487813 -0.6581630111
vn 0.3060098588 0.327453047 -0.8939421177
vn 0.1411221325 0.7430272102 -0.6542133689
vn -0.01492051687 0.4391717911 -0.8982791901
vn -0.1621516347 0.7414233088 -0.6511515379
vn -0.3304304183 0.5584282279 -0.7609031796
vn -0.4840261042 0.5487658978 -0.6815971732
vn -0.6839109063 0.3745492101 -0.6260820627
vn -0.8142354488 0.2588785589 -0.5196176767
vn -0.8979353905 0.3436318338 -0.2750076056
vn -0.9548607469 0.1776147038 -0.2381049842
vn -0.9904054999 0.06373738497 -0.1226151511
vn -0.999742806 3.099908356e-18 0.02267927118
vn -0.9916023612 -0.0924783349 0.09040176868
vn -0.9632573724 -0.1745455563 0.2041299492
vn -0.8954315186 -0.2312174886 0.380448252
vn -0.7840328217 -0.2539646327 0.5663872361
vn -0.6970524788 -0.5384435654 0.4734938443
vn -0.5222053528 -0.5263012052 0.6710503697
vn -0.3035003543 -0.3119148314 0.9003314376
vn -0.1395933479 -0.7241201997 0.6753988862
vn 0.01431653928 -0.4190496802 0.9078504443
vn 0.1616888046 -0.7228671908 0.6718033552
vn 0.3290554285 -0.5372833014 0.7765623927
vn 0.4820689261 -0.5300572515 0.6976022124
vn 0.6808075905 -0.3621534705 0.6366678476
vn 0.8129425049 -0.2531580925 0.5244382024
vn 0.8981529474 -0.3396373987 0.2792270482
vn 0.9544768929 -0.1744598448 0.2419453859
vn 0.9999982715 -0.0009962324984 -0.001574341557
vn 0.9633291364 -0.2678377628 -0.01612193324
vn 0.9637084603 0.2668639719 -0.007041241042
vn 0.8703321218 0.4914949536 -0.03089763969
vn 0.8693976402 -0.4920675755 -0.04491341487
vn 0.706594646 0.7055965066 -0.05345635489
vn 0.7052102685 -0.7062072754 -0.06284722686
vn 0.489521265 0.8652631044 -0.1081144363
vn 0.4888978899 -0.8651982546 -0.1114036813
vn 0.2513582706 0.9599648714 -0.1236383095
vn 0.2511963248 -0.9609134197 -0.1163864136
vn 1.424886553e-15 0.9878194928 -0.1556040496
vn -4.390688456e-15 -0.9906802773 -0.1362081021
vn -0.2510716319 0.958871007 -0.1323986351
vn -0.2514178455 -0.9617601633 -0.1086572483
vn -0.4885985553 0.8634619117 -0.1253194511
vn -0.4897561669 -0.8665473461 -0.09609659761
vn -0.7059826255 0.7048524618 -0.06907624006
vn -0.7058398128 -0.7067022324 -0.04860163853
vn -0.8696736097 0.4912950397 -0.04792717844
vn -0.8698377609 -0.4924865663 -0.02896965854
vn -0.963552773 0.2669928968 -0.01675965078
vn -0.9633883238 -0.2680242956 -0.006776687689
vn -0.9999982715 -0.0009962324984 -0.001569603803
f 1//1 2//2 3//3 
f 3//3 2//2 4//4 
f 4//4 2//2 5//5 
f 4//4 5//5 6//6 
f 6//6 5//5 7//7 
f 6//6 7//7 8//8 
f 8//8 7//7 9//9 
f 8//8 9//9 10//10 
f 10//10 9//9 11//11 
f 10//10 11//11 12//12 
f 12//12 11//11 13//13 
f 12//12 13//13 14//14 
f 14//14 13//13 15//15 
f 14//14 15//15 16//16 
f 16//16 15//15 17//17 
f 16//16 17//17 18//18 
f 18//18 17//17 19//19 
f 18//18 19//19 20//20 
f 20//20 19//19 21//21 
f 20//20 21//21 22//22 
f 22//22 21//21 23//23 
f 22//22 23//23 24//24 
f 25//25 2//2 26//26 
f 26//26 2//2 1//1 
f 26//26 1//1 27//27 
f 27//27 1//1 3//3 
f 27//27 3//3 28//28 
f 28//28 3//3 4//4 
f 28//28 4//4 29//29 
f 29//29 4//4 6//6 
f 29//29 6//6 30//30 
f 30//30 6//6 8//8 
f 30//30 8//8 31//31 
f 31//31 8//8 10//10 
f 31//31 10//10 32//32 
f 32//32 10//10 12//12 
f 32//32 12//12 14//14 
f 2//2 25//25 5//5 
f 5//5 25//25 33//33 
f 5//5 33//33 7//7 
f 7//7 33//33 34//34 
f 7//7 34//34 9//9 
f 9//9 34//34 35//35 
f 9//9 35//35 11//11 
f 11//11 35//35 36//36 
f 11//11 36//36 13//13 
f 13//13 36//36 37//37 
f 13//13 37//37 38//38 
f 13//13 38//38 15//15 
f 15//15 38//38 39//39 
f 15//15 39//39 17//17 
f 17//17 39//39 40//40 
f 17//17 40//40 19//19 
f 19//19 40//40 41//41 
f 19//19 41//41 21//21 
f 21//21 41//41 42//42 
f 21//21 42//42 23//23 
f 23//23 42//42 43//43 
f 23//23 43//43 24//24 
f 24//24 43//43 44//44 
f 24//24 44//44 22//22 
f 22//22 44//44 45//45 
f 22//22 45//45 20//20 
f 20//20 45//45 46//46 
f 20//20 46//46 18//18 
f 18//18 46//46 47//47 
f 18//18 47//47 16//16 
f 16//16 47//47 48//48 
f 16//16 48//48 14//14 
f 14//14 48//48 32//32 
f 49//49 50//50 26//26 
f 26//26 50//50 51//51 
f 26//26 51//51 25//25 
f 25//25 51//51 52//52 
f 25//25 52//52 33//33 
f 33//33 52//52 53//53 
f 33//33 53//53 34//34 
f 34//34 53//53 54//54 
f 34//34 54//54 55//55 
f 34//34 55//55 35//35 
f 35//35 55//55 56//56 
f 35//35 56//56 36//36 
f 36//36 56//56 57//57 
f 36//36 57//57 58//58 
f 36//36 58//58 37//37 
f 37//37 58//58 59//59 
f 37//37 59//59 60//60 
f 37//37 60//60 38//38 
f 38//38 60//60 61//61 
f 38//38 61//61 62//62 
f 38//38 62//62 39//39 
f 39//39 62//62 63//63 
f 39//39 63//63 40//40 
f 40//40 63//63 64//64 
f 40//40 64//64 65//65 
f 40//40 65//65 41//41 
f 41//41 65//65 66//66 
f 41//41 66//66 42//42 
f 42//42 66//66 67//67 
f 42//42 67//67 43//43 
f 43//43 67//67 68//68 
f 43//43 68//68 69//69 
f 43//43 69//69 44//44 
f 44//44 69//69 70//70 
f 44//44 70//70 45//45 
f 45//45 70//70 71//71 
f 45//45 71//71 46//46 
f 46//46 71//71 72//72 
f 46//46 72//72 73//73 
f 46//46 73//73 47//47 
f 47//47 73//73 74//74 
f 47//47 74//74 48//48 
f 48//48 74//74 75//75 
f 48//48 75//75 76//76 
f 48//48 76//76 32//32 
f 32//32 76//76 77//77 
f 32//32 77//77 78//78 
f 32//32 78//78 31//31 
f 31//31 78//78 79//79 
f 31//31 79//79 80//80 
f 31//31 80//80 30//30 
f 30//30 80//80 81//81 
f 30//30 81//81 29//29 
f 29//29 81//81 82//82 
f 29//29 82//82 83//83 
f 29//29 83//83 28//28 
f 28//28 83//83 84//84 
f 28//28 84//84 27//27 
f 27//27 84//84 49//49 
f 27//27 49//49 26//26 
f 85//85 51//51 86//86 
f 86//86 51//51 50//50 
f 86//86 50//50 87//87 
f 87//87 50//50 49//49 
f 87//87 49//49 84//84 
f 85//85 88//88 51//51 
f 51//51 88//88 52//52 
f 52//52 88//88 89//89 
f 52//52 89//89 53//53 
f 53//53 89//89 54//54 
f 54//54 89//89 90//90 
f 54//54 90//90 55//55 
f 55//55 90//90 91//91 
f 55//55 91//91 92//92 
f 55//55 92//92 56//56 
f 56//56 92//92 93//93 
f 56//56 93//93 57//57 
f 57//57 93//93 58//58 
f 58//58 93//93 94//94 
f 58//58 94//94 59//59 
f 59//59 94//94 95//95 
f 59//59 95//95 60//60 
f 60//60 95//95 96//96 
f 60//60 96//96 61//61 
f 61//61 96//96 97//97 
f 61//61 97//97 98//98 
f 61//61 98//98 62//62 
f 62//62 98//98 99//99 
f 62//62 99//99 63//63 
f 63//63 99//99 64//64 
f 64//64 99//99 100//100 
f 64//64 100//100 65//65 
f 65//65 100//100 101//101 
f 65//65 101//101 102//102 
f 65//65 102//102 66//66 
f 66//66 102//102 103//103 
f 66//66 103//103 67//67 
f 67//67 103//103 68//68 
f 68//68 103//103 104//104 
f 68//68 104//104 69//69 
f 69//69 104//104 105//105 
f 69//69 105//105 106//106 
f 69//69 106//106 70//70 
f 70//70 106//106 107//107 
f 70//70 107//107 71//71 
f 71//71 107//107 72//72 
f 72//72 107//107 108//108 
f 72//72 108//108 73//73 
f 73//73 108//108 109//109 
f 73//73 109//109 110//110 
f 73//73 110//110 74//74 
f 74//74 110//110 111//111 
f 74//74 111//111 75//75 
f 75//75 111//111 76//76 
f 76//76 111//111 112//112 
f 76//76 112//112 77//77 
f 77//77 112//112 113//113 
f 77//77 113//113 78//78 
f 78//78 113//113 114//114 
f 78//78 114//114 79//79 
f 79//79 114//114 115//115 
f 79//79 115//115 116//116 
f 79//79 116//116 80//80 
f 80//80 116//116 117//117 
f 80//80 117//117 81//81 
f 81//81 117//117 82//82 
f 82//82 117//117 118//118 
f 82//82 118//118 83//83 
f 83//83 118//118 119//119 
f 83//83 119//119 120//120 
f 83//83 120//120 84//84 
f 84//84 120//120 87//87 
f 121//121 122//122 123//123 
f 123//123 122//122 124//124 
f 124//124 122//122 125//125 
f 124//124 125//125 126//126 
f 126//126 125//125 127//127 
f 126//126 127//127 128//128 
f 128//128 127//127 129//129 
f 128//128 129//129 130//130 
f 130//130 129//129 131//131 
f 130//130 131//131 132//132 
f 132//132 131//131 133//133 
f 132//132 133//133 134//134 
f 134//134 133//133 135//135 
f 134//134 135//135 136//136 
f 136//136 135//135 137//137 
f 136//136 137//137 138//138 
f 138//138 137//137 139//139 
f 138//138 139//139 140//140 
f 140//140 139//139 141//141 
f 140//140 141//141 142//142 
f 142//142 141//141 143//143 
f 142//142 143//143 144//144 
f 123//123 85//85 121//121 
f 121//121 85//85 86//86 
f 121//121 86//86 87//87 
f 85//85 123//123 88//88 
f 88//88 123//123 124//124 
f 88//88 124//124 89//89 
f 89//89 124//124 126//126 
f 89//89 126//126 90//90 
f 90//90 126//126 91//91 
f 91//91 126//126 128//128 
f 91//91 128//128 92//92 
f 92//92 128//128 130//130 
f 92//92 130//130 93//93 
f 93//93 130//130 94//94 
f 94//94 130//130 132//132 
f 94//94 132//132 95//95 
f 95//95 132//132 96//96 
f 96//96 132//132 134//134 
f 96//96 134//134 97//97 
f 97//97 134//134 98//98 
f 98//98 134//134 136//136 
f 98//98 136//136 99//99 
f 99//99 136//136 138//138 
f 99//99 138//138 100//100 
f 100//100 138//138 101//101 
f 101//101 138//138 140//140 
f 101//101 140//140 102//102 
f 102//102 140//140 142//142 
f 102//102 142//142 103//103 
f 103//103 142//142 144//144 
f 103//103 144//144 104//104 
f 104//104 144//144 105//105 
f 105//105 144//144 143//143 
f 105//105 143//143 106//106 
f 106//106 143//143 141//141 
f 106//106 141//141 107//107 
f 107//107 141//141 139//139 
f 107//107 139//139 108//108 
f 108//108 139//139 109//109 
f 109//109 139//139 137//137 
f 109//109 137//137 110//110 
f 110//110 137//137 135//135 
f 110//110 135//135 111//111 
f 111//111 135//135 112//112 
f 112//112 135//135 133//133 
f 112//112 133//133 113//113 
f 113//113 133//133 114//114 
f 114//114 133//133 131//131 
f 114//114 131//131 115//115 
f 115//115 131//131 116//116 
f 116//116 131//131 129//129 
f 116//116 129//129 117//117 
f 117//117 129//129 127//127 
f 117//117 127//127 118//118 
f 118//118 127//127 119//119 
f 119//119 127//127 125//125 
f 119//119 125//125 120//120 
f 120//120 125//125 122//122 
f 120//120 122//122 87//87 
f 87//87 122//122 121//121 
