v 48.4665184 1.25 249.6933136
v 48.4665184 -2.166666746 249.6933136
v 49.29985046 1.25 249.6933136
v 49.29985046 -2.166666746 249.6933136
v 48.4665184 -2.166666746 224.3599854
v 48.4665184 1.25 224.3599854
v 49.29985046 -2.166666746 224.3599854
v 49.29985046 1.25 224.3599854
vn -0.9713964462 0.2369255871 0.01597689278
vn -0.9695420265 -0.236473307 0.06378557533
vn 0.9695420265 0.236473307 0.06378557533
vn 0.9713964462 -0.2369255871 0.01597689278
vn -0.9713964462 -0.2369255871 -0.01597689278
vn -0.9695420265 0.236473307 -0.06378557533
vn 0.9695420265 -0.236473307 -0.06378557533
vn 0.9713964462 0.2369255871 -0.01597689278
f 1//1 2//2 3//3 
f 3//3 2//2 4//4 
f 2//2 1//1 5//5 
f 5//5 1//1 6//6 
f 2//2 5//5 4//4 
f 4//4 5//5 7//7 
f 6//6 1//1 8//8 
f 8//8 1//1 3//3 
f 7//7 8//8 4//4 
f 4//4 8//8 3//3 
f 5//5 6//6 7//7 
f 7//7 6//6 8//8 
