v 41.6282959 -2.166666746 225.1933136
v 41.6282959 1.25 225.1933136
v 41.76561737 -2.166666746 224.9161987
v 41.76561737 1.25 224.9161987
v 41.90158844 -2.166666746 224.6384277
v 41.90158844 1.25 224.6384277
v 42.03620148 -2.166666746 224.3599854
v 42.03620148 1.25 224.3599854
v 48.4665184 -2.166666746 225.1933136
v 48.4665184 1.25 225.1933136
v 48.4665184 -2.166666746 224.3599854
v 48.4665184 1.25 224.3599854
vn -0.02044628374 -0.04092182592 0.998953104
vn -0.08384403586 0.08390402049 0.9929402471
vn -0.5749729872 -0.7673877478 -0.2837641239
vn -0.5754284859 0.7673904896 -0.2828319073
vn -0.2939632237 -0.9450132251 -0.1433027685
vn -0.2941995263 0.9450121522 -0.1428239197
vn -0.08258657902 -0.07771578431 -0.9935490489
vn -0.02140417323 0.04028359428 -0.9989590049
vn 0.2209636271 -0.3595041335 0.906604588
vn 0.05966173112 0.1941372901 0.9791584015
vn 0.06379956752 -0.1627077609 -0.9846094847
vn 0.2389650643 0.3047157824 -0.9219782948
f 1//1 2//2 3//3 
f 3//3 2//2 4//4 
f 3//3 4//4 5//5 
f 5//5 4//4 6//6 
f 5//5 6//6 7//7 
f 7//7 6//6 8//8 
f 9//9 10//10 1//1 
f 1//1 10//10 2//2 
f 1//1 3//3 9//9 
f 9//9 3//3 5//5 
f 9//9 5//5 11//11 
f 11//11 5//5 7//7 
f 2//2 10//10 4//4 
f 4//4 10//10 6//6 
f 6//6 10//10 12//12 
f 6//6 12//12 8//8 
f 7//7 8//8 11//11 
f 11//11 8//8 12//12 
f 10//10 9//9 12//12 
f 12//12 9//9 11//11 
