v 29.17045975 1.25 248.8599854
v 29.17045975 -2.166666746 248.8599854
v 29.17045975 1.25 249.6933136
v 29.17045975 -2.166666746 249.6933136
v 48.4665184 -2.166666746 248.8599854
v 48.4665184 1.25 248.8599854
v 48.4665184 -2.166666746 249.6933136
v 48.4665184 1.25 249.6933136
vn -0.0214295052 0.1210258454 -0.9924179912
vn -0.07739646733 -0.4371063709 -0.8960735798
vn -0.07739646733 0.4371063709 0.8960735798
vn -0.0214295052 -0.1210258454 0.9924179912
vn 0.0214295052 -0.1210258454 -0.9924179912
vn 0.07739646733 0.4371063709 -0.8960735798
vn 0.07739646733 -0.4371063709 0.8960735798
vn 0.0214295052 0.1210258454 0.9924179912
f 1//1 2//2 3//3 
f 3//3 2//2 4//4 
f 2//2 1//1 5//5 
f 5//5 1//1 6//6 
f 5//5 7//7 2//2 
f 2//2 7//7 4//4 
f 1//1 3//3 6//6 
f 6//6 3//3 8//8 
f 7//7 8//8 4//4 
f 4//4 8//8 3//3 
f 5//5 6//6 7//7 
f 7//7 6//6 8//8 
