v 89.46651459 -11.66666698 144.4849854
v 44.79985046 -11.66666698 56.02665329
v 89.46651459 -11.66666698 -220.2233429
v -0.7834820747 -11.66666698 56.02665329
v -89.20014954 -11.66666698 -220.2233429
v -63.11681366 -11.66666698 30.85998535
v -67.11681366 -11.66666698 26.85998535
v 44.79985046 -11.66666698 115.8681488
v 55.35013199 -11.66666698 144.4849854
v 49.70837021 -11.66666698 135.821228
v 46.13204575 -11.66666698 126.1207199
v -0.7834820747 -11.66666698 143.2766571
v -63.11681366 -11.66666698 143.2766571
v -89.20014954 -11.66666698 26.85998535
v 89.46651459 -11 -220.2233429
v 89.46651459 -11 144.4849854
v 55.35013199 -11 144.4849854
v -89.20014954 -11 -220.2233429
v 49.70837021 -11 135.821228
v 46.13204575 -11 126.1207199
v 44.79985046 -11 115.8681488
v 44.79985046 -11 56.02665329
v -0.7834820747 -11 56.02665329
v -0.7834820747 -11 143.2766571
v -63.11681366 -11 143.2766571
v -63.11681366 -11 30.85998535
v -67.11681366 -11 26.85998535
v -89.20014954 -11 26.85998535
vn 0.0243803747 -0.999702096 0.00114032242
vn -0.002528500743 -0.9999963641 0.000963023107
vn 0.003107600613 -0.9999905229 -0.003044759855
vn 0.000650711183 -0.9999995828 0.0006799217081
vn -0.004659201019 -0.9999877214 -0.001684540883
vn -0.006661165506 -0.9999778271 0.0001164369751
vn -0.0008390421281 -0.9999946952 0.003155148122
vn -0.0143090589 -0.99989748 0.0004745055048
vn -0.005513815675 -0.9988789558 0.04701545835
vn -0.1876644194 -0.97679919 0.1031767949
vn -0.629393816 -0.7559306026 0.1800898015
vn 0.02138486877 -0.9997421503 0.007638911717
vn -0.006021382287 -0.9999595881 0.006677529309
vn -0.03017450497 -0.999530077 0.005393757019
vn 0.006215132773 0.9999795556 -0.001522363164
vn 0.01219288167 0.9999230504 0.002281148918
vn -0.01103472058 0.9995210767 0.02891212516
vn -0.00232960959 0.9999915957 -0.003369094804
vn -0.194862932 0.97679919 0.08883579075
vn -0.6411113143 0.7559306026 0.1324584186
vn -0.02313660458 0.9997322559 0.0002372135496
vn -0.001264251652 0.9999973178 0.001926048193
vn 0.001301421784 0.9999991059 0.0003399606794
vn 0.01069333218 0.9998260736 0.01527910586
vn -0.01204231102 0.9999219179 0.003338638926
vn -0.003505294444 0.9999938011 0.0002328776754
vn -0.0004195178917 0.9999871254 0.005051695276
vn -0.06026741117 0.9981786609 0.002693232149
f 1//1 2//2 3//3 
f 3//3 2//2 4//4 
f 3//3 4//4 5//5 
f 5//5 4//4 6//6 
f 5//5 6//6 7//7 
f 2//2 1//1 8//8 
f 8//8 1//1 9//9 
f 8//8 9//9 10//10 
f 10//10 11//11 8//8 
f 12//12 13//13 4//4 
f 4//4 13//13 6//6 
f 7//7 14//14 5//5 
f 3//3 15//15 1//1 
f 1//1 15//15 16//16 
f 1//1 16//16 9//9 
f 9//9 16//16 17//17 
f 5//5 18//18 3//3 
f 3//3 18//18 15//15 
f 9//9 17//17 10//10 
f 10//10 17//17 19//19 
f 10//10 19//19 11//11 
f 11//11 19//19 20//20 
f 11//11 20//20 8//8 
f 8//8 20//20 21//21 
f 8//8 21//21 2//2 
f 2//2 21//21 22//22 
f 2//2 22//22 4//4 
f 4//4 22//22 23//23 
f 4//4 23//23 12//12 
f 12//12 23//23 24//24 
f 12//12 24//24 13//13 
f 13//13 24//24 25//25 
f 13//13 25//25 6//6 
f 6//6 25//25 26//26 
f 6//6 26//26 7//7 
f 7//7 26//26 27//27 
f 7//7 27//27 14//14 
f 14//14 27//27 28//28 
f 14//14 28//28 5//5 
f 5//5 28//28 18//18 
f 18//18 23//23 15//15 
f 15//15 23//23 22//22 
f 15//15 22//22 16//16 
f 16//16 22//22 21//21 
f 16//16 21//21 17//17 
f 17//17 21//21 19//19 
f 19//19 21//21 20//20 
f 28//28 27//27 18//18 
f 18//18 27//27 26//26 
f 18//18 26//26 23//23 
f 23//23 26//26 25//25 
f 23//23 25//25 24//24 
