v -75.20014954 -11.3125 -86.72335052
v -74.62839508 -11.3125 -86.66325378
v -75.20014954 -13.3125 -84.97335052
v -74.94132996 -13.3125 -84.93927002
v -74.08161926 -11.3125 -86.4855957
v -74.70014954 -13.3125 -84.83937073
v -73.58374023 -11.3125 -86.19814301
v -74.49304199 -13.3125 -84.68045807
v -73.15650177 -11.3125 -85.81345367
v -74.3341217 -13.3125 -84.47335052
v -72.81858063 -11.3125 -85.34835052
v -72.58473969 -11.3125 -84.82314301
v -74.23422241 -13.3125 -84.2321701
v -72.46520996 -11.3125 -84.26080322
v -74.20014954 -13.3125 -83.97335052
v -72.46520996 -11.3125 -83.68589783
v -74.23422241 -13.3125 -83.71453094
v -72.58473969 -11.3125 -83.12355042
v -74.3341217 -13.3125 -83.47335052
v -72.81858063 -11.3125 -82.59835052
v -73.15650177 -11.3125 -82.13323975
v -74.49304199 -13.3125 -83.26624298
v -73.58374023 -11.3125 -81.74855042
v -74.70014954 -13.3125 -83.10732269
v -74.08161926 -11.3125 -81.46109772
v -74.94132996 -13.3125 -83.0074234
v -74.62839508 -11.3125 -81.28343964
v -75.20014954 -13.3125 -82.97335052
v -75.20014954 -11.3125 -81.22335052
v -75.77190399 -11.3125 -81.28343964
v -75.45896912 -13.3125 -83.0074234
v -76.31867218 -11.3125 -81.46109772
v -75.70014954 -13.3125 -83.10732269
v -76.81655884 -11.3125 -81.74855042
v -75.90725708 -13.3125 -83.26624298
v -77.2437973 -11.3125 -82.13323975
v -76.06617737 -13.3125 -83.47335052
v -77.58171844 -11.3125 -82.59835052
v -77.81555176 -11.3125 -83.12355042
v -76.16607666 -13.3125 -83.71453094
v -77.93508148 -11.3125 -83.68589783
v -76.20014954 -13.3125 -83.97335052
v -77.93508148 -11.3125 -84.26080322
v -76.16607666 -13.3125 -84.2321701
v -77.81555176 -11.3125 -84.82314301
v -76.06617737 -13.3125 -84.47335052
v -77.58171844 -11.3125 -85.34835052
v -77.2437973 -11.3125 -85.81345367
v -75.90725708 -13.3125 -84.68045807
v -76.81655884 -11.3125 -86.19814301
v -75.70014954 -13.3125 -84.83937073
v -76.31867218 -11.3125 -86.4855957
v -75.45896912 -13.3125 -84.93927002
v -75.77190399 -11.3125 -86.66325378
v -75.20014954 -25.75 -82.97335052
v -75.45896912 -25.75 -83.0074234
v -75.70014954 -25.75 -83.10732269
v -75.90725708 -25.75 -83.26624298
v -76.06617737 -25.75 -83.47335052
v -76.16607666 -25.75 -83.71453094
v -76.20014954 -25.75 -83.97335052
v -76.16607666 -25.75 -84.2321701
v -76.06617737 -25.75 -84.47335052
v -75.90725708 -25.75 -84.68045807
v -75.70014954 -25.75 -84.83937073
v -75.45896912 -25.75 -84.93927002
v -75.20014954 -25.75 -84.97335052
v -74.94132996 -25.75 -83.0074234
v -74.94132996 -25.75 -84.93927002
v -74.70014954 -25.75 -83.10732269
v -74.70014954 -25.75 -84.83937073
v -74.49304199 -25.75 -83.26624298
v -74.49304199 -25.75 -84.68045807
v -74.3341217 -25.75 -83.47335052
v -74.3341217 -25.75 -84.47335052
v -74.23422241 -25.75 -83.71453094
v -74.23422241 -25.75 -84.2321701
v -74.20014954 -25.75 -83.97335052
v -75.20014954 -11.3125 -84.97335052
v -75.20014954 -11.3125 -82.97335052
vn 2.245186558e-16 0 -1
vn 0.1913996935 -0.151212424 -0.9697942734
vn 0.03184757382 -0.2190063745 -0.9752035141
vn 0.2942433059 -0.1594380587 -0.9423377514
vn 0.3991216123 -0.1251949221 -0.9083105922
vn 0.5238447785 -0.1595424712 -0.8367394209
vn 0.5896552801 -0.08334137499 -0.8033435941
vn 0.7191482782 -0.1594931483 -0.6763044596
vn 0.7525497079 -0.02711074613 -0.6579771638
vn 0.8604717851 -0.2190067023 -0.4600265324
vn 0.8401660323 0.2425348014 -0.485075146
vn 0.9397553802 0.1186955869 -0.320579499
vn 0.9632100463 -0.159436807 -0.2163475603
vn 0.4191305637 0.9067540765 -0.04611501098
vn 0.9865595698 -0.1595423818 0.03530444205
vn 0.9741028547 0.1990905255 0.1071754843
vn 0.9452699423 -0.1594944447 0.2846511602
vn 0.9397553802 0.1186955869 0.320579499
vn 0.8286292553 -0.2190063149 0.5151793361
vn 0.8401660323 0.2425348014 0.485075146
vn 0.7525520921 -0.02710871585 0.6579744816
vn 0.6689714193 -0.1594366878 0.7259870172
vn 0.5896586776 -0.0833427757 0.8033409119
vn 0.4627039731 -0.1595421433 0.8720386028
vn 0.3991217613 -0.1251921505 0.9083109498
vn 0.226111874 -0.159494549 0.9609552026
vn 0.1913894117 -0.151210472 0.969796598
vn -0.03184045479 -0.2190060765 0.9752038121
vn -6.068071656e-18 -9.708914649e-17 1
vn -0.1913904101 -0.1512111723 0.9697962999
vn -0.2942353487 -0.1594373584 0.9423403144
vn -0.3991217613 -0.1251921505 0.9083109498
vn -0.523856461 -0.1595423371 0.8367321491
vn -0.5896561146 -0.08334276825 0.8033428192
vn -0.7191525698 -0.1594931483 0.67629987
vn -0.7525520921 -0.02710871585 0.6579744816
vn -0.8604723215 -0.2190063447 0.4600256979
vn -0.8401683569 0.2425370812 0.4850699902
vn -0.9397567511 0.1186977625 0.3205745816
vn -0.9632101059 -0.1594371051 0.2163472772
vn -0.4191327691 0.9067530632 0.04611500353
vn -0.986559689 -0.1595417112 -0.03530444577
vn -0.9741029739 0.1990897506 -0.1071760803
vn -0.9452700615 -0.1594928205 -0.2846516073
vn -0.9397567511 0.1186977625 -0.3205745816
vn -0.8286299109 -0.2190057039 -0.5151786208
vn -0.8401683569 0.2425370812 -0.4850699902
vn -0.7525497079 -0.02711074613 -0.6579771638
vn -0.668962121 -0.1594374478 -0.7259954214
vn -0.5896526575 -0.08334137499 -0.8033454418
vn -0.4626962543 -0.1595427394 -0.8720425963
vn -0.3991216123 -0.1251949221 -0.9083105922
vn -0.2261283994 -0.159493193 -0.9609515667
vn -0.1914006919 -0.1512131244 -0.9697939754
vn 0.04329751804 -0.1568585336 0.986671567
vn -0.2140357941 -0.1416957527 0.9664942026
vn -0.4587520063 -0.1099539697 0.8817350864
vn -0.6737784743 -0.06981930137 0.735627532
vn -0.8428360224 -0.03210790828 0.5372118354
vn -0.9536266327 -0.007174027618 0.3009065688
vn -0.9990369081 -0.001824592822 0.0438401401
vn -0.9761956334 -0.01750613004 -0.2161842436
vn -0.8860059977 -0.04996269941 -0.4609740973
vn -0.7344106436 -0.09028968215 -0.6726728678
vn -0.5330899954 -0.1274769902 -0.8363998532
vn -0.2974405885 -0.1516986042 -0.9426115751
vn -0.04330719635 -0.156858474 -0.9866711497
vn 0.2974317372 -0.1516990364 0.9426143169
vn 0.2140543461 -0.1416951567 -0.9664901495
vn 0.5331039429 -0.127475664 0.836391151
vn 0.4587443173 -0.1099544615 -0.8817390203
vn 0.7344151139 -0.09028903395 0.6726680398
vn 0.6737678051 -0.06982022524 -0.735637188
vn 0.8860059977 -0.04996269941 0.4609740973
vn 0.8428360224 -0.03210790828 -0.5372118354
vn 0.9761956334 -0.01750613004 0.2161842436
vn 0.9536266327 -0.007174027618 -0.3009065688
vn 0.9990369081 -0.001824592822 -0.0438401401
vn 0 1 0
vn 0 1 0
f 1//1 2//2 3//3 
f 3//3 2//2 4//4 
f 4//4 2//2 5//5 
f 4//4 5//5 6//6 
f 6//6 5//5 7//7 
f 6//6 7//7 8//8 
f 8//8 7//7 9//9 
f 8//8 9//9 10//10 
f 10//10 9//9 11//11 
f 10//10 11//11 12//12 
f 10//10 12//12 13//13 
f 13//13 12//12 14//14 
f 13//13 14//14 15//15 
f 15//15 14//14 16//16 
f 15//15 16//16 17//17 
f 17//17 16//16 18//18 
f 17//17 18//18 19//19 
f 19//19 18//18 20//20 
f 19//19 20//20 21//21 
f 19//19 21//21 22//22 
f 22//22 21//21 23//23 
f 22//22 23//23 24//24 
f 24//24 23//23 25//25 
f 24//24 25//25 26//26 
f 26//26 25//25 27//27 
f 26//26 27//27 28//28 
f 28//28 27//27 29//29 
f 29//29 30//30 28//28 
f 28//28 30//30 31//31 
f 31//31 30//30 32//32 
f 31//31 32//32 33//33 
f 33//33 32//32 34//34 
f 33//33 34//34 35//35 
f 35//35 34//34 36//36 
f 35//35 36//36 37//37 
f 37//37 36//36 38//38 
f 37//37 38//38 39//39 
f 37//37 39//39 40//40 
f 40//40 39//39 41//41 
f 40//40 41//41 42//42 
f 42//42 41//41 43//43 
f 42//42 43//43 44//44 
f 44//44 43//43 45//45 
f 44//44 45//45 46//46 
f 46//46 45//45 47//47 
f 46//46 47//47 48//48 
f 46//46 48//48 49//49 
f 49//49 48//48 50//50 
f 49//49 50//50 51//51 
f 51//51 50//50 52//52 
f 51//51 52//52 53//53 
f 53//53 52//52 54//54 
f 53//53 54//54 3//3 
f 3//3 54//54 1//1 
f 55//55 28//28 56//56 
f 56//56 28//28 31//31 
f 56//56 31//31 57//57 
f 57//57 31//31 33//33 
f 57//57 33//33 58//58 
f 58//58 33//33 35//35 
f 58//58 35//35 59//59 
f 59//59 35//35 37//37 
f 59//59 37//37 60//60 
f 60//60 37//37 40//40 
f 60//60 40//40 61//61 
f 61//61 40//40 42//42 
f 61//61 42//42 62//62 
f 62//62 42//42 44//44 
f 62//62 44//44 63//63 
f 63//63 44//44 46//46 
f 63//63 46//46 64//64 
f 64//64 46//46 49//49 
f 64//64 49//49 65//65 
f 65//65 49//49 51//51 
f 65//65 51//51 66//66 
f 66//66 51//51 53//53 
f 66//66 53//53 67//67 
f 67//67 53//53 3//3 
f 56//56 66//66 55//55 
f 55//55 66//66 67//67 
f 55//55 67//67 68//68 
f 68//68 67//67 69//69 
f 68//68 69//69 70//70 
f 70//70 69//69 71//71 
f 70//70 71//71 72//72 
f 72//72 71//71 73//73 
f 72//72 73//73 74//74 
f 74//74 73//73 75//75 
f 74//74 75//75 76//76 
f 76//76 75//75 77//77 
f 76//76 77//77 78//78 
f 66//66 56//56 65//65 
f 65//65 56//56 57//57 
f 65//65 57//57 64//64 
f 64//64 57//57 58//58 
f 64//64 58//58 63//63 
f 63//63 58//58 59//59 
f 63//63 59//59 62//62 
f 62//62 59//59 60//60 
f 62//62 60//60 61//61 
f 1//1 54//54 79//79 
f 79//79 54//54 52//52 
f 79//79 52//52 50//50 
f 50//50 48//48 79//79 
f 79//79 48//48 47//47 
f 79//79 47//47 45//45 
f 45//45 43//43 79//79 
f 79//79 43//43 41//41 
f 79//79 41//41 80//80 
f 80//80 41//41 39//39 
f 80//80 39//39 38//38 
f 38//38 36//36 80//80 
f 80//80 36//36 34//34 
f 80//80 34//34 32//32 
f 32//32 30//30 80//80 
f 80//80 30//30 29//29 
f 29//29 27//27 80//80 
f 80//80 27//27 25//25 
f 80//80 25//25 23//23 
f 23//23 21//21 80//80 
f 80//80 21//21 20//20 
f 80//80 20//20 18//18 
f 18//18 16//16 80//80 
f 80//80 16//16 14//14 
f 80//80 14//14 79//79 
f 79//79 14//14 12//12 
f 79//79 12//12 11//11 
f 11//11 9//9 79//79 
f 79//79 9//9 7//7 
f 79//79 7//7 5//5 
f 5//5 2//2 79//79 
f 79//79 2//2 1//1 
f 67//67 3//3 69//69 
f 69//69 3//3 4//4 
f 69//69 4//4 71//71 
f 71//71 4//4 6//6 
f 71//71 6//6 73//73 
f 73//73 6//6 8//8 
f 73//73 8//8 75//75 
f 75//75 8//8 10//10 
f 75//75 10//10 77//77 
f 77//77 10//10 13//13 
f 77//77 13//13 78//78 
f 78//78 13//13 15//15 
f 78//78 15//15 76//76 
f 76//76 15//15 17//17 
f 76//76 17//17 74//74 
f 74//74 17//17 19//19 
f 74//74 19//19 72//72 
f 72//72 19//19 22//22 
f 72//72 22//22 70//70 
f 70//70 22//22 24//24 
f 70//70 24//24 68//68 
f 68//68 24//24 26//26 
f 68//68 26//26 55//55 
f 55//55 26//26 28//28 
