v -13.94132996 -25.75 -56.93927383
v -13.70014858 -25.75 -56.83937454
v -14.20014858 -25.75 -56.97334671
v -13.49304199 -25.75 -56.68045425
v -13.33412361 -25.75 -56.47334671
v -16.20014954 -25.75 -56.97334671
v -13.23422337 -25.75 -56.23216629
v -17.16607475 -25.75 -56.23216629
v -13.20014858 -25.75 -55.97334671
v -17.20014954 -25.75 -55.97334671
v -17.16607475 -25.75 -55.71452713
v -13.23422337 -25.75 -55.71452713
v -16.20014954 -25.75 -54.97334671
v -13.33412361 -25.75 -55.47334671
v -14.20014858 -25.75 -54.97334671
v -13.49304199 -25.75 -55.26624298
v -13.70014858 -25.75 -55.10732269
v -13.94132996 -25.75 -55.0074234
v -16.45896721 -25.75 -55.0074234
v -16.70014954 -25.75 -55.10732269
v -16.90725517 -25.75 -55.26624298
v -17.06617355 -25.75 -55.47334671
v -17.06617355 -25.75 -56.47334671
v -16.90725517 -25.75 -56.68045425
v -16.70014954 -25.75 -56.83937454
v -16.45896721 -25.75 -56.93927383
v -16.20014954 -11.66666698 -54.97334671
v -14.20014858 -11.66666698 -54.97334671
v -14.20014858 -11.66666698 -56.97334671
v -16.20014954 -11.66666698 -56.97334671
v -16.45896721 -11.66666698 -55.0074234
v -16.70014954 -11.66666698 -55.10732269
v -16.90725517 -11.66666698 -55.26624298
v -17.06617355 -11.66666698 -55.47334671
v -17.16607475 -11.66666698 -55.71452713
v -17.20014954 -11.66666698 -55.97334671
v -17.16607475 -11.66666698 -56.23216629
v -17.06617355 -11.66666698 -56.47334671
v -16.90725517 -11.66666698 -56.68045425
v -16.70014954 -11.66666698 -56.83937454
v -16.45896721 -11.66666698 -56.93927383
v -13.94132996 -11.66666698 -56.93927383
v -13.70014858 -11.66666698 -56.83937454
v -13.49304199 -11.66666698 -56.68045425
v -13.33412361 -11.66666698 -56.47334671
v -13.23422337 -11.66666698 -56.23216629
v -13.20014858 -11.66666698 -55.97334671
v -13.23422337 -11.66666698 -55.71452713
v -13.33412361 -11.66666698 -55.47334671
v -13.49304199 -11.66666698 -55.26624298
v -13.70014858 -11.66666698 -55.10732269
v -13.94132996 -11.66666698 -55.0074234
vn 0.2162173539 -0.001611424959 -0.9763439298
vn 0.4615407586 -0.006335886195 -0.8870963454
vn 0.007998767309 -0.01949024945 -0.9997780323
vn 0.6753644347 -0.01385025494 -0.7373540998
vn 0.8328012824 -0.1571000665 -0.5308122039
vn -0.02680456638 -0.1363986433 -0.990291357
vn 0.8799362183 -0.385509789 -0.2776588798
vn -0.8841856718 -0.424113512 -0.1958147734
vn 0.9353946447 -0.3512147665 -0.04104966298
vn -0.9816294312 -0.185870707 0.04307866842
vn -0.8636330366 -0.4241138697 0.2725167274
vn 0.9008764029 -0.3855092824 0.199510023
vn -0.007974794134 -0.08115245402 0.9966697693
vn 0.8760972619 -0.1571006328 0.4558212757
vn 0.02704575844 -0.03294678777 0.9990910888
vn 0.7373549342 -0.01384998858 0.6753635406
vn 0.5374786854 -0.006335722748 0.8432534933
vn 0.3009180427 -0.001611337415 0.9536486268
vn -0.2162269801 -0.001611327752 0.976341784
vn -0.4615402818 -0.006335723214 0.8870966434
vn -0.6753629446 -0.01384994574 0.7373554707
vn -0.843033433 -0.02363907546 0.5373414159
vn -0.8868650198 -0.02363920026 -0.4614234865
vn -0.7373600006 -0.01385026705 -0.6753579378
vn -0.5374792814 -0.006335885264 -0.8432531953
vn -0.3009132147 -0.001611410291 -0.9536501765
vn -0.02680756524 0.1363984942 0.9902912974
vn 0.00799966231 0.01949016564 0.9997780323
vn 0.02704273351 0.03294692934 -0.999091208
vn -0.007973900996 0.08115253597 -0.9966697693
vn -0.300917685 0.001611323794 0.953648746
vn -0.5374792814 0.006335729267 0.8432531953
vn -0.7373555303 0.01384999324 0.6753628254
vn -0.8868639469 0.02363900281 0.461425513
vn -0.8841856718 0.424113512 0.1958147734
vn -0.9816294312 0.185870707 -0.04307866842
vn -0.8636330366 0.4241138697 -0.2725167274
vn -0.843036294 0.02363917977 -0.5373370051
vn -0.6753656268 0.01385027356 -0.7373529673
vn -0.4615402818 0.006335879676 -0.8870966434
vn -0.2162176222 0.00161141518 -0.9763438702
vn 0.3009135723 0.001611423795 -0.9536500573
vn 0.5374786854 0.006335878745 -0.8432534933
vn 0.7373594046 0.01385026146 -0.6753586531
vn 0.8760983348 0.1571002603 -0.4558193088
vn 0.9008764029 0.3855092824 -0.199510023
vn 0.9353946447 0.3512147665 0.04104966298
vn 0.8799362183 0.385509789 0.2776588798
vn 0.8327983618 0.1571010351 0.5308164954
vn 0.6753617525 0.01384992711 0.7373565435
vn 0.4615407586 0.006335730199 0.8870963454
vn 0.2162267119 0.001611337415 0.9763418436
f 1//1 2//2 3//3 
f 3//3 2//2 4//4 
f 3//3 4//4 5//5 
f 3//3 5//5 6//6 
f 6//6 5//5 7//7 
f 6//6 7//7 8//8 
f 8//8 7//7 9//9 
f 8//8 9//9 10//10 
f 10//10 9//9 11//11 
f 11//11 9//9 12//12 
f 11//11 12//12 13//13 
f 13//13 12//12 14//14 
f 13//13 14//14 15//15 
f 15//15 14//14 16//16 
f 15//15 16//16 17//17 
f 17//17 18//18 15//15 
f 19//19 20//20 13//13 
f 13//13 20//20 21//21 
f 13//13 21//21 22//22 
f 22//22 11//11 13//13 
f 8//8 23//23 6//6 
f 6//6 23//23 24//24 
f 6//6 24//24 25//25 
f 25//25 26//26 6//6 
f 27//27 13//13 28//28 
f 28//28 13//13 15//15 
f 29//29 3//3 30//30 
f 30//30 3//3 6//6 
f 13//13 27//27 19//19 
f 19//19 27//27 31//31 
f 19//19 31//31 20//20 
f 20//20 31//31 32//32 
f 20//20 32//32 21//21 
f 21//21 32//32 33//33 
f 21//21 33//33 22//22 
f 22//22 33//33 34//34 
f 22//22 34//34 11//11 
f 11//11 34//34 35//35 
f 11//11 35//35 10//10 
f 10//10 35//35 36//36 
f 10//10 36//36 8//8 
f 8//8 36//36 37//37 
f 8//8 37//37 23//23 
f 23//23 37//37 38//38 
f 23//23 38//38 24//24 
f 24//24 38//38 39//39 
f 24//24 39//39 25//25 
f 25//25 39//39 40//40 
f 25//25 40//40 26//26 
f 26//26 40//40 41//41 
f 26//26 41//41 6//6 
f 6//6 41//41 30//30 
f 3//3 29//29 1//1 
f 1//1 29//29 42//42 
f 1//1 42//42 2//2 
f 2//2 42//42 43//43 
f 2//2 43//43 4//4 
f 4//4 43//43 44//44 
f 4//4 44//44 5//5 
f 5//5 44//44 45//45 
f 5//5 45//45 7//7 
f 7//7 45//45 46//46 
f 7//7 46//46 9//9 
f 9//9 46//46 47//47 
f 9//9 47//47 12//12 
f 12//12 47//47 48//48 
f 12//12 48//48 14//14 
f 14//14 48//48 49//49 
f 14//14 49//49 16//16 
f 16//16 49//49 50//50 
f 16//16 50//50 17//17 
f 17//17 50//50 51//51 
f 17//17 51//51 18//18 
f 18//18 51//51 52//52 
f 18//18 52//52 15//15 
f 15//15 52//52 28//28 
f 30//30 45//45 29//29 
f 29//29 45//45 44//44 
f 29//29 44//44 43//43 
f 41//41 40//40 30//30 
f 30//30 40//40 39//39 
f 30//30 39//39 38//38 
f 38//38 37//37 30//30 
f 30//30 37//37 46//46 
f 30//30 46//46 45//45 
f 46//46 37//37 47//47 
f 47//47 37//37 36//36 
f 47//47 36//36 35//35 
f 34//34 27//27 35//35 
f 35//35 27//27 48//48 
f 35//35 48//48 47//47 
f 34//34 33//33 27//27 
f 27//27 33//33 32//32 
f 27//27 32//32 31//31 
f 48//48 27//27 49//49 
f 49//49 27//27 28//28 
f 49//49 28//28 50//50 
f 50//50 28//28 51//51 
f 51//51 28//28 52//52 
f 43//43 42//42 29//29 
