v 16.05867004 -25.75 -84.93927002
v 16.29985046 -25.75 -84.83937073
v 15.79985142 -25.75 -84.97335052
v 16.50695801 -25.75 -84.68045807
v 16.66587639 -25.75 -84.47335052
v 13.79985142 -25.75 -84.97335052
v 16.76577759 -25.75 -84.2321701
v 12.83392525 -25.75 -84.2321701
v 16.79985046 -25.75 -83.97335052
v 12.79985142 -25.75 -83.97335052
v 12.83392525 -25.75 -83.71453094
v 16.76577759 -25.75 -83.71453094
v 13.79985142 -25.75 -82.97335052
v 16.66587639 -25.75 -83.47335052
v 15.79985142 -25.75 -82.97335052
v 16.50695801 -25.75 -83.26624298
v 16.29985046 -25.75 -83.10732269
v 16.05867004 -25.75 -83.0074234
v 13.54103184 -25.75 -83.0074234
v 13.29985142 -25.75 -83.10732269
v 13.09274483 -25.75 -83.26624298
v 12.93382549 -25.75 -83.47335052
v 12.93382549 -25.75 -84.47335052
v 13.09274483 -25.75 -84.68045807
v 13.29985142 -25.75 -84.83937073
v 13.54103184 -25.75 -84.93927002
v 13.79985142 -11.3125 -82.97335052
v 15.79985142 -11.3125 -82.97335052
v 15.79985142 -11.3125 -84.97335052
v 13.79985142 -11.3125 -84.97335052
v 13.54103184 -11.3125 -83.0074234
v 13.29985142 -11.3125 -83.10732269
v 13.09274483 -11.3125 -83.26624298
v 12.93382549 -11.3125 -83.47335052
v 12.83392525 -11.3125 -83.71453094
v 12.79985142 -11.3125 -83.97335052
v 12.83392525 -11.3125 -84.2321701
v 12.93382549 -11.3125 -84.47335052
v 13.09274483 -11.3125 -84.68045807
v 13.29985142 -11.3125 -84.83937073
v 13.54103184 -11.3125 -84.93927002
v 16.05867004 -11.3125 -84.93927002
v 16.29985046 -11.3125 -84.83937073
v 16.50695801 -11.3125 -84.68045807
v 16.66587639 -11.3125 -84.47335052
v 16.76577759 -11.3125 -84.2321701
v 16.79985046 -11.3125 -83.97335052
v 16.76577759 -11.3125 -83.71453094
v 16.66587639 -11.3125 -83.47335052
v 16.50695801 -11.3125 -83.26624298
v 16.29985046 -11.3125 -83.10732269
v 16.05867004 -11.3125 -83.0074234
vn 0.216236338 -0.001571729197 -0.9763397574
vn 0.4615339935 -0.00617983425 -0.8871009946
vn 0.008000635542 -0.01901218668 -0.9997872114
vn 0.6753556728 -0.01351020578 -0.7373684645
vn 0.8332992196 -0.1533377618 -0.5311307907
vn -0.02682262845 -0.1331123114 -0.990737915
vn 0.8831220865 -0.3774143755 -0.2786641717
vn -0.8880651593 -0.4155249 -0.1966705918
vn 0.9382030368 -0.3436276913 -0.04117060453
vn -0.9824522138 -0.1814630032 0.04311357439
vn -0.8674225807 -0.415525347 0.2737091482
vn 0.9041387439 -0.3774141669 0.2002290934
vn -0.007975174114 -0.07917442918 0.9968288541
vn 0.8766217232 -0.153337881 0.4560940564
vn 0.02704345621 -0.03213954344 0.999117434
vn 0.737362206 -0.01351052709 0.6753624082
vn 0.5374786854 -0.006180430762 0.8432546854
vn 0.3009142876 -0.001571900561 0.9536498785
vn -0.2162171155 -0.001571904635 0.976344049
vn -0.4615422189 -0.006180491298 0.8870967031
vn -0.6753669381 -0.01351051871 0.7373580933
vn -0.843047142 -0.02305966057 0.5373451114
vn -0.8868775368 -0.02305970713 -0.4614287615
vn -0.7373571396 -0.01351013314 -0.675368011
vn -0.5374658108 -0.00617989758 -0.8432629108
vn -0.3009228706 -0.001571738627 -0.9536471963
vn -0.02681662701 0.13311252 0.9907380939
vn 0.007998844609 0.01901230589 0.999787271
vn 0.02704950608 0.03213934228 -0.9991173148
vn -0.007976959459 0.07917430997 -0.9968288541
vn -0.3009139299 0.001571907196 0.9536499977
vn -0.5374797583 0.006180476863 0.8432539701
vn -0.7373616099 0.01351051591 0.6753631234
vn -0.8868775368 0.02305970713 0.4614287615
vn -0.8880651593 0.4155249 0.1966705918
vn -0.9824522138 0.1814630032 -0.04311357439
vn -0.8674225807 0.415525347 -0.2737091482
vn -0.843047142 0.02305966057 -0.5373451114
vn -0.6753562689 0.01351021789 -0.7373678684
vn -0.4615345001 0.006179874763 -0.8871007562
vn -0.2162358314 0.00157173397 -0.9763398767
vn 0.3009232283 0.001571731875 -0.9536470771
vn 0.5374647379 0.00617985148 -0.8432636261
vn 0.7373577356 0.01351014432 -0.6753672957
vn 0.8766217232 0.153337881 -0.4560940564
vn 0.9041387439 0.3774141669 -0.2002290934
vn 0.9382030368 0.3436276913 0.04117060453
vn 0.8831220865 0.3774143755 0.2786641717
vn 0.8332992196 0.1533377618 0.5311307907
vn 0.6753663421 0.0135105066 0.7373586893
vn 0.4615417123 0.006180451252 0.8870970011
vn 0.2162176222 0.001571899862 0.9763439298
f 1//1 2//2 3//3 
f 3//3 2//2 4//4 
f 3//3 4//4 5//5 
f 3//3 5//5 6//6 
f 6//6 5//5 7//7 
f 6//6 7//7 8//8 
f 8//8 7//7 9//9 
f 8//8 9//9 10//10 
f 10//10 9//9 11//11 
f 11//11 9//9 12//12 
f 11//11 12//12 13//13 
f 13//13 12//12 14//14 
f 13//13 14//14 15//15 
f 15//15 14//14 16//16 
f 15//15 16//16 17//17 
f 17//17 18//18 15//15 
f 19//19 20//20 13//13 
f 13//13 20//20 21//21 
f 13//13 21//21 22//22 
f 22//22 11//11 13//13 
f 8//8 23//23 6//6 
f 6//6 23//23 24//24 
f 6//6 24//24 25//25 
f 25//25 26//26 6//6 
f 27//27 13//13 28//28 
f 28//28 13//13 15//15 
f 29//29 3//3 30//30 
f 30//30 3//3 6//6 
f 13//13 27//27 19//19 
f 19//19 27//27 31//31 
f 19//19 31//31 20//20 
f 20//20 31//31 32//32 
f 20//20 32//32 21//21 
f 21//21 32//32 33//33 
f 21//21 33//33 22//22 
f 22//22 33//33 34//34 
f 22//22 34//34 11//11 
f 11//11 34//34 35//35 
f 11//11 35//35 10//10 
f 10//10 35//35 36//36 
f 10//10 36//36 8//8 
f 8//8 36//36 37//37 
f 8//8 37//37 23//23 
f 23//23 37//37 38//38 
f 23//23 38//38 24//24 
f 24//24 38//38 39//39 
f 24//24 39//39 25//25 
f 25//25 39//39 40//40 
f 25//25 40//40 26//26 
f 26//26 40//40 41//41 
f 26//26 41//41 6//6 
f 6//6 41//41 30//30 
f 3//3 29//29 1//1 
f 1//1 29//29 42//42 
f 1//1 42//42 2//2 
f 2//2 42//42 43//43 
f 2//2 43//43 4//4 
f 4//4 43//43 44//44 
f 4//4 44//44 5//5 
f 5//5 44//44 45//45 
f 5//5 45//45 7//7 
f 7//7 45//45 46//46 
f 7//7 46//46 9//9 
f 9//9 46//46 47//47 
f 9//9 47//47 12//12 
f 12//12 47//47 48//48 
f 12//12 48//48 14//14 
f 14//14 48//48 49//49 
f 14//14 49//49 16//16 
f 16//16 49//49 50//50 
f 16//16 50//50 17//17 
f 17//17 50//50 51//51 
f 17//17 51//51 18//18 
f 18//18 51//51 52//52 
f 18//18 52//52 15//15 
f 15//15 52//52 28//28 
f 30//30 45//45 29//29 
f 29//29 45//45 44//44 
f 29//29 44//44 43//43 
f 41//41 40//40 30//30 
f 30//30 40//40 39//39 
f 30//30 39//39 38//38 
f 38//38 37//37 30//30 
f 30//30 37//37 46//46 
f 30//30 46//46 45//45 
f 46//46 37//37 47//47 
f 47//47 37//37 36//36 
f 47//47 36//36 35//35 
f 34//34 27//27 35//35 
f 35//35 27//27 48//48 
f 35//35 48//48 47//47 
f 34//34 33//33 27//27 
f 27//27 33//33 32//32 
f 27//27 32//32 31//31 
f 48//48 27//27 49//49 
f 49//49 27//27 28//28 
f 49//49 28//28 50//50 
f 50//50 28//28 51//51 
f 51//51 28//28 52//52 
f 43//43 42//42 29//29 
