v 44.79985046 -0.3125 -148.9733429
v 45.30516434 -0.3125 -148.9265289
v 44.79985046 -2.3125 -147.2233429
v 45.05867004 -2.3125 -147.18927
v 45.7932663 -0.3125 -148.7876434
v 45.29985046 -2.3125 -147.0893707
v 46.24753952 -0.3125 -148.5614471
v 46.65251541 -0.3125 -148.2556152
v 45.50695801 -2.3125 -146.9304504
v 46.99440002 -0.3125 -147.8806
v 45.6658783 -2.3125 -146.7233429
v 47.2615509 -0.3125 -147.4491272
v 45.76577759 -2.3125 -146.4821625
v 47.44487 -0.3125 -146.9759216
v 47.53812027 -0.3125 -146.4770813
v 45.79985046 -2.3125 -146.2233429
v 47.53812027 -0.3125 -145.9696045
v 45.76577759 -2.3125 -145.9645233
v 47.44487 -0.3125 -145.4707794
v 47.2615509 -0.3125 -144.9975739
v 45.6658783 -2.3125 -145.7233429
v 46.99440002 -0.3125 -144.5661011
v 45.50695801 -2.3125 -145.5162354
v 46.65251541 -0.3125 -144.1910706
v 45.29985046 -2.3125 -145.3573151
v 46.24753952 -0.3125 -143.8852539
v 45.7932663 -0.3125 -143.6590424
v 45.05867004 -2.3125 -145.2574158
v 45.30516434 -0.3125 -143.5201721
v 44.79985046 -2.3125 -145.2233429
v 44.79985046 -0.3125 -143.4733429
v 44.29454041 -0.3125 -143.5201721
v 44.54103088 -2.3125 -145.2574158
v 43.80643845 -0.3125 -143.6590424
v 44.29985046 -2.3125 -145.3573151
v 43.35216141 -0.3125 -143.8852539
v 42.94718933 -0.3125 -144.1910706
v 44.09274292 -2.3125 -145.5162354
v 42.60530472 -0.3125 -144.5661011
v 43.93382645 -2.3125 -145.7233429
v 42.33815384 -0.3125 -144.9975739
v 43.83392715 -2.3125 -145.9645233
v 42.15483093 -0.3125 -145.4707794
v 42.06158066 -0.3125 -145.9696045
v 43.79985046 -2.3125 -146.2233429
v 42.06158066 -0.3125 -146.4770813
v 43.83392715 -2.3125 -146.4821625
v 42.15483093 -0.3125 -146.9759216
v 42.33815384 -0.3125 -147.4491272
v 43.93382645 -2.3125 -146.7233429
v 42.60530472 -0.3125 -147.8806
v 44.09274292 -2.3125 -146.9304504
v 42.94718933 -0.3125 -148.2556152
v 44.29985046 -2.3125 -147.0893707
v 43.35216141 -0.3125 -148.5614471
v 43.80643845 -0.3125 -148.7876434
v 44.54103088 -2.3125 -147.18927
v 44.29454041 -0.3125 -148.9265289
v 44.79985046 -11 -145.2233429
v 44.54103088 -11 -145.2574158
v 44.29985046 -11 -145.3573151
v 44.09274292 -11 -145.5162354
v 43.93382645 -11 -145.7233429
v 43.83392715 -11 -145.9645233
v 43.79985046 -11 -146.2233429
v 43.83392715 -11 -146.4821625
v 43.93382645 -11 -146.7233429
v 44.09274292 -11 -146.9304504
v 44.29985046 -11 -147.0893707
v 44.54103088 -11 -147.18927
v 44.79985046 -11 -147.2233429
v 45.05867004 -11 -145.2574158
v 45.05867004 -11 -147.18927
v 45.29985046 -11 -145.3573151
v 45.29985046 -11 -147.0893707
v 45.50695801 -11 -145.5162354
v 45.50695801 -11 -146.9304504
v 45.6658783 -11 -145.7233429
v 45.6658783 -11 -146.7233429
v 45.76577759 -11 -145.9645233
v 45.76577759 -11 -146.4821625
v 45.79985046 -11 -146.2233429
v 44.79985046 -0.3125 -147.2233429
v 44.79985046 -0.3125 -145.2233429
vn 1.029892604e-16 0 -1
vn 0.1703450531 -0.1700255126 -0.9706048965
vn 0.02911367081 -0.2640480995 -0.9640700221
vn 0.2869250476 -0.200277552 -0.9367832541
vn 0.3614927828 -0.1505614966 -0.9201381207
vn 0.5124536753 -0.2640017867 -0.8171256185
vn 0.5249738693 0.07444890589 -0.8478560448
vn 0.6588574648 -0.07563377172 -0.7484560013
vn 0.7192576528 -0.2001767009 -0.6652801633
vn 0.7968826294 -0.02119807154 -0.6037621498
vn 0.8628341556 -0.2002843618 -0.4641156495
vn 0.9006608725 0.04085355997 -0.4325978756
vn 0.9380431175 -0.2640718222 -0.2243683636
vn 0.9040703177 0.3413065672 -0.2572287619
vn 0.3916937411 0.9192508459 -0.03941999376
vn 0.9791807532 -0.2002975941 0.03295302019
vn 0.9789736867 0.1786151081 0.09852493554
vn 0.9228063822 -0.2640228868 0.2805714309
vn 0.9040698409 0.3413048983 0.257232666
vn 0.9006608725 0.04085415602 0.4325978756
vn 0.8296833634 -0.2002371103 0.5210859776
vn 0.7968870997 -0.02119267546 0.6037564278
vn 0.6728892922 -0.2002466917 0.7121244669
vn 0.6588575244 -0.07563253492 0.7484560609
vn 0.4621940553 -0.2640953064 0.8465402126
vn 0.5249738693 0.07444890589 0.8478560448
vn 0.3614928722 -0.1505600959 0.9201383591
vn 0.223286882 -0.2002988458 0.9539514184
vn 0.1703450531 -0.1700255126 0.9706048965
vn -0.02911367826 -0.2640473843 0.9640702009
vn -1.51050909e-16 -5.492760509e-17 1
vn -0.1703455448 -0.1700259447 0.9706047177
vn -0.2869220376 -0.2002760172 0.9367845058
vn -0.3614918888 -0.1505597383 0.9201387763
vn -0.5124538541 -0.2640005052 0.8171259165
vn -0.5249738693 0.07444890589 0.8478560448
vn -0.6588590145 -0.07563227415 0.7484547496
vn -0.7192631364 -0.2001782209 0.6652738452
vn -0.7968885899 -0.02119162679 0.6037545204
vn -0.8628362417 -0.2002834529 0.4641122222
vn -0.9006597996 0.04085164145 0.4326003492
vn -0.938041687 -0.2640698254 0.2243767679
vn -0.9040699601 0.3413018882 0.2572362423
vn -0.3916907012 0.919252038 0.03942134231
vn -0.979180634 -0.2002977729 -0.0329567045
vn -0.9789730906 0.1786174327 -0.09852664173
vn -0.9228046536 -0.2640252709 -0.280574739
vn -0.904070437 0.341303587 -0.2572323382
vn -0.9006597996 0.04085104167 -0.4326003492
vn -0.8296868801 -0.2002383471 -0.5210799575
vn -0.7968841195 -0.02119702101 -0.6037602425
vn -0.6728899479 -0.2002454996 -0.7121241689
vn -0.6588589549 -0.0756335035 -0.74845469
vn -0.4621939063 -0.2640964091 -0.8465399742
vn -0.5249738693 0.07444890589 -0.8478560448
vn -0.3614917994 -0.150561139 -0.9201385975
vn -0.2232900411 -0.2003002018 -0.9539504051
vn -0.1703455448 -0.1700259447 -0.9706047177
vn 0.0427490212 -0.2217226923 0.9741722345
vn -0.2118154764 -0.2007558197 0.9564681649
vn -0.4558686018 -0.1564272046 0.8761931062
vn -0.6720638275 -0.09970139712 0.7337505817
vn -0.8423848152 -0.04594226554 0.5369144082
vn -0.953599453 -0.01027073059 0.3009029031
vn -0.9990349412 -0.002612474142 0.04384496063
vn -0.9760366082 -0.02505894192 -0.2161588371
vn -0.8848496079 -0.07143461704 -0.4603675604
vn -0.7312979102 -0.1287134886 -0.6698031425
vn -0.5286147594 -0.1809650809 -0.8293480277
vn -0.2939032912 -0.2146047652 -0.9314320683
vn -0.0427490212 -0.2217226923 -0.9741722345
vn 0.2939032912 -0.2146047652 0.9314320683
vn 0.2118154764 -0.2007558197 -0.9564681649
vn 0.5286147594 -0.1809650809 0.8293480277
vn 0.4558686018 -0.1564272046 -0.8761931062
vn 0.7312930226 -0.128713429 0.6698084474
vn 0.6720613241 -0.0997023806 -0.7337527275
vn 0.8848475218 -0.07143580914 0.4603713751
vn 0.8423804045 -0.04594258592 -0.536921382
vn 0.9760386348 -0.0250587035 0.2161494792
vn 0.9536008835 -0.01027045306 -0.3008984327
vn 0.99903512 -0.002612182405 -0.0438400656
vn 0 1 0
vn 0 1 0
f 1//1 2//2 3//3 
f 3//3 2//2 4//4 
f 4//4 2//2 5//5 
f 4//4 5//5 6//6 
f 6//6 5//5 7//7 
f 6//6 7//7 8//8 
f 6//6 8//8 9//9 
f 9//9 8//8 10//10 
f 9//9 10//10 11//11 
f 11//11 10//10 12//12 
f 11//11 12//12 13//13 
f 13//13 12//12 14//14 
f 13//13 14//14 15//15 
f 13//13 15//15 16//16 
f 16//16 15//15 17//17 
f 16//16 17//17 18//18 
f 18//18 17//17 19//19 
f 18//18 19//19 20//20 
f 18//18 20//20 21//21 
f 21//21 20//20 22//22 
f 21//21 22//22 23//23 
f 23//23 22//22 24//24 
f 23//23 24//24 25//25 
f 25//25 24//24 26//26 
f 25//25 26//26 27//27 
f 25//25 27//27 28//28 
f 28//28 27//27 29//29 
f 28//28 29//29 30//30 
f 30//30 29//29 31//31 
f 31//31 32//32 30//30 
f 30//30 32//32 33//33 
f 33//33 32//32 34//34 
f 33//33 34//34 35//35 
f 35//35 34//34 36//36 
f 35//35 36//36 37//37 
f 35//35 37//37 38//38 
f 38//38 37//37 39//39 
f 38//38 39//39 40//40 
f 40//40 39//39 41//41 
f 40//40 41//41 42//42 
f 42//42 41//41 43//43 
f 42//42 43//43 44//44 
f 42//42 44//44 45//45 
f 45//45 44//44 46//46 
f 45//45 46//46 47//47 
f 47//47 46//46 48//48 
f 47//47 48//48 49//49 
f 47//47 49//49 50//50 
f 50//50 49//49 51//51 
f 50//50 51//51 52//52 
f 52//52 51//51 53//53 
f 52//52 53//53 54//54 
f 54//54 53//53 55//55 
f 54//54 55//55 56//56 
f 54//54 56//56 57//57 
f 57//57 56//56 58//58 
f 57//57 58//58 3//3 
f 3//3 58//58 1//1 
f 59//59 30//30 60//60 
f 60//60 30//30 33//33 
f 60//60 33//33 61//61 
f 61//61 33//33 35//35 
f 61//61 35//35 62//62 
f 62//62 35//35 38//38 
f 62//62 38//38 63//63 
f 63//63 38//38 40//40 
f 63//63 40//40 64//64 
f 64//64 40//40 42//42 
f 64//64 42//42 65//65 
f 65//65 42//42 45//45 
f 65//65 45//45 66//66 
f 66//66 45//45 47//47 
f 66//66 47//47 67//67 
f 67//67 47//47 50//50 
f 67//67 50//50 68//68 
f 68//68 50//50 52//52 
f 68//68 52//52 69//69 
f 69//69 52//52 54//54 
f 69//69 54//54 70//70 
f 70//70 54//54 57//57 
f 70//70 57//57 71//71 
f 71//71 57//57 3//3 
f 60//60 70//70 59//59 
f 59//59 70//70 71//71 
f 59//59 71//71 72//72 
f 72//72 71//71 73//73 
f 72//72 73//73 74//74 
f 74//74 73//73 75//75 
f 74//74 75//75 76//76 
f 76//76 75//75 77//77 
f 76//76 77//77 78//78 
f 78//78 77//77 79//79 
f 78//78 79//79 80//80 
f 80//80 79//79 81//81 
f 80//80 81//81 82//82 
f 70//70 60//60 69//69 
f 69//69 60//60 61//61 
f 69//69 61//61 68//68 
f 68//68 61//61 62//62 
f 68//68 62//62 67//67 
f 67//67 62//62 63//63 
f 67//67 63//63 66//66 
f 66//66 63//63 64//64 
f 66//66 64//64 65//65 
f 1//1 58//58 83//83 
f 83//83 58//58 56//56 
f 83//83 56//56 55//55 
f 55//55 53//53 83//83 
f 83//83 53//53 51//51 
f 83//83 51//51 49//49 
f 49//49 48//48 83//83 
f 83//83 48//48 46//46 
f 83//83 46//46 44//44 
f 83//83 44//44 84//84 
f 84//84 44//44 43//43 
f 84//84 43//43 41//41 
f 41//41 39//39 84//84 
f 84//84 39//39 37//37 
f 84//84 37//37 36//36 
f 36//36 34//34 84//84 
f 84//84 34//34 32//32 
f 84//84 32//32 31//31 
f 31//31 29//29 84//84 
f 84//84 29//29 27//27 
f 84//84 27//27 26//26 
f 26//26 24//24 84//84 
f 84//84 24//24 22//22 
f 84//84 22//22 20//20 
f 20//20 19//19 84//84 
f 84//84 19//19 17//17 
f 84//84 17//17 15//15 
f 84//84 15//15 83//83 
f 83//83 15//15 14//14 
f 83//83 14//14 12//12 
f 12//12 10//10 83//83 
f 83//83 10//10 8//8 
f 83//83 8//8 7//7 
f 7//7 5//5 83//83 
f 83//83 5//5 2//2 
f 83//83 2//2 1//1 
f 71//71 3//3 73//73 
f 73//73 3//3 4//4 
f 73//73 4//4 75//75 
f 75//75 4//4 6//6 
f 75//75 6//6 77//77 
f 77//77 6//6 9//9 
f 77//77 9//9 79//79 
f 79//79 9//9 11//11 
f 79//79 11//11 81//81 
f 81//81 11//11 13//13 
f 81//81 13//13 82//82 
f 82//82 13//13 16//16 
f 82//82 16//16 80//80 
f 80//80 16//16 18//18 
f 80//80 18//18 78//78 
f 78//78 18//18 21//21 
f 78//78 21//21 76//76 
f 76//76 21//21 23//23 
f 76//76 23//23 74//74 
f 74//74 23//23 25//25 
f 74//74 25//25 72//72 
f 72//72 25//25 28//28 
f 72//72 28//28 59//59 
f 59//59 28//28 30//30 
