v 87.95770264 -11 0.9925778508
v 87.95770264 -11 -0.9392737746
v 88.21651459 -11 1.026652098
v 88.21651459 -11 -0.9733479619
v 88.47533417 -11 0.9925778508
v 88.47533417 -11 -0.9392737746
v 88.71651459 -11 0.8926774859
v 88.71651459 -11 -0.8393733501
v 88.92362213 -11 0.7337588072
v 88.92362213 -11 -0.680454731
v 89.08254242 -11 0.5266520381
v 89.08254242 -11 -0.4733479619
v 89.18244171 -11 0.2854711115
v 89.18244171 -11 -0.2321669906
v 89.21651459 -11 0.026652053
v 87.71651459 -11 -0.8393733501
v 87.71651459 -11 0.8926774859
v 87.50941467 -11 -0.680454731
v 87.50941467 -11 0.7337588072
v 87.35049438 -11 -0.4733479619
v 87.35049438 -11 0.5266520381
v 87.25059509 -11 -0.2321669906
v 87.25059509 -11 0.2854711115
v 87.21651459 -11 0.026652053
v 88.21651459 -0.3125 1.026652098
v 87.95770264 -0.3125 0.9925778508
v 87.71651459 -0.3125 0.8926774859
v 87.50941467 -0.3125 0.7337588072
v 87.35049438 -0.3125 0.5266520381
v 87.25059509 -0.3125 0.2854711115
v 87.21651459 -0.3125 0.026652053
v 87.25059509 -0.3125 -0.2321669906
v 87.35049438 -0.3125 -0.4733479619
v 87.50941467 -0.3125 -0.680454731
v 87.71651459 -0.3125 -0.8393733501
v 87.95770264 -0.3125 -0.9392737746
v 88.21651459 -0.3125 -0.9733479619
v 88.47533417 -0.3125 0.9925778508
v 88.47533417 -0.3125 -0.9392737746
v 88.71651459 -0.3125 -0.8393733501
v 88.71651459 -0.3125 0.8926774859
v 88.92362213 -0.3125 -0.680454731
v 88.92362213 -0.3125 0.7337588072
v 89.08254242 -0.3125 -0.4733479619
v 89.08254242 -0.3125 0.5266520381
v 89.18244171 -0.3125 -0.2321669906
v 89.18244171 -0.3125 0.2854711115
v 89.21651459 -0.3125 0.026652053
vn -0.2132851183 -0.1643172652 0.9630728364
vn -0.2962281108 -0.1758200377 -0.9387950897
vn 0.0431121923 -0.1817509234 0.9823990464
vn -0.04311251268 -0.1817543358 -0.9823984504
vn 0.296230644 -0.1758233905 0.9387936592
vn 0.2132831067 -0.1643142104 -0.9630737901
vn 0.5315738916 -0.147924155 0.8339949846
vn 0.4577732384 -0.1276850253 -0.8798523545
vn 0.7333549857 -0.1049221009 0.671700716
vn 0.6731945276 -0.08118184656 -0.7349957228
vn 0.8856145144 -0.05811798945 0.4607702494
vn 0.8426817656 -0.03735854849 -0.5371143222
vn 0.9761425853 -0.02037152089 0.2161726505
vn 0.95361799 -0.008348623291 -0.3009036183
vn 0.9990363121 -0.0021233554 -0.04384020343
vn -0.5315780044 -0.1479270756 -0.8339918256
vn -0.4577693343 -0.127682656 0.8798547387
vn -0.7333599925 -0.1049199551 -0.67169559
vn -0.6732043624 -0.0811817199 0.7349867225
vn -0.8856145144 -0.058117982 -0.4607702196
vn -0.8426817656 -0.03735855222 0.5371143222
vn -0.9761384726 -0.02037191018 -0.2161913663
vn -0.9536151886 -0.008349074982 0.300912559
vn -0.9990358949 -0.002123829909 0.04385000095
vn -0.04311258718 0.1817543358 0.9823984504
vn -0.2962280512 0.1758200526 0.9387950897
vn -0.531578064 0.1479270756 0.8339918256
vn -0.7333599925 0.1049199477 0.6716955304
vn -0.8856145144 0.05811798945 0.4607702494
vn -0.9761384726 0.02037191018 0.2161913663
vn -0.9990358949 0.002123829909 -0.04385000095
vn -0.9536151886 0.008349074051 -0.3009125292
vn -0.8426817656 0.03735854849 -0.5371143222
vn -0.6732042432 0.08118172735 -0.7349867821
vn -0.4577693939 0.127682656 -0.8798547387
vn -0.2132850438 0.1643172652 -0.9630728364
vn 0.04311211407 0.1817509234 -0.982399106
vn 0.2132831812 0.1643141955 0.9630737901
vn 0.2962307036 0.1758233905 -0.9387936592
vn 0.5315738916 0.1479241699 -0.8339949846
vn 0.4577731788 0.1276850253 0.8798524141
vn 0.7333549261 0.1049221084 -0.671700716
vn 0.6731945872 0.08118183911 0.7349956036
vn 0.8856145144 0.058117982 -0.4607702196
vn 0.8426817656 0.03735855222 0.5371143222
vn 0.9761425853 0.02037152089 -0.2161726505
vn 0.95361799 0.008348624222 0.3009036481
vn 0.9990363121 0.0021233554 0.04384020343
f 1//1 2//2 3//3 
f 3//3 2//2 4//4 
f 3//3 4//4 5//5 
f 5//5 4//4 6//6 
f 5//5 6//6 7//7 
f 7//7 6//6 8//8 
f 7//7 8//8 9//9 
f 9//9 8//8 10//10 
f 9//9 10//10 11//11 
f 11//11 10//10 12//12 
f 11//11 12//12 13//13 
f 13//13 12//12 14//14 
f 13//13 14//14 15//15 
f 2//2 1//1 16//16 
f 16//16 1//1 17//17 
f 16//16 17//17 18//18 
f 18//18 17//17 19//19 
f 18//18 19//19 20//20 
f 20//20 19//19 21//21 
f 20//20 21//21 22//22 
f 22//22 21//21 23//23 
f 22//22 23//23 24//24 
f 3//3 25//25 1//1 
f 1//1 25//25 26//26 
f 1//1 26//26 17//17 
f 17//17 26//26 27//27 
f 17//17 27//27 19//19 
f 19//19 27//27 28//28 
f 19//19 28//28 21//21 
f 21//21 28//28 29//29 
f 21//21 29//29 23//23 
f 23//23 29//29 30//30 
f 23//23 30//30 24//24 
f 24//24 30//30 31//31 
f 24//24 31//31 22//22 
f 22//22 31//31 32//32 
f 22//22 32//32 20//20 
f 20//20 32//32 33//33 
f 20//20 33//33 18//18 
f 18//18 33//33 34//34 
f 18//18 34//34 16//16 
f 16//16 34//34 35//35 
f 16//16 35//35 2//2 
f 2//2 35//35 36//36 
f 2//2 36//36 4//4 
f 4//4 36//36 37//37 
f 38//38 39//39 25//25 
f 25//25 39//39 37//37 
f 25//25 37//37 26//26 
f 26//26 37//37 36//36 
f 26//26 36//36 27//27 
f 27//27 36//36 35//35 
f 27//27 35//35 28//28 
f 28//28 35//35 34//34 
f 28//28 34//34 29//29 
f 29//29 34//34 33//33 
f 29//29 33//33 30//30 
f 30//30 33//33 32//32 
f 30//30 32//32 31//31 
f 39//39 38//38 40//40 
f 40//40 38//38 41//41 
f 40//40 41//41 42//42 
f 42//42 41//41 43//43 
f 42//42 43//43 44//44 
f 44//44 43//43 45//45 
f 44//44 45//45 46//46 
f 46//46 45//45 47//47 
f 46//46 47//47 48//48 
f 4//4 37//37 6//6 
f 6//6 37//37 39//39 
f 6//6 39//39 8//8 
f 8//8 39//39 40//40 
f 8//8 40//40 10//10 
f 10//10 40//40 42//42 
f 10//10 42//42 12//12 
f 12//12 42//42 44//44 
f 12//12 44//44 14//14 
f 14//14 44//44 46//46 
f 14//14 46//46 15//15 
f 15//15 46//46 48//48 
f 15//15 48//48 13//13 
f 13//13 48//48 47//47 
f 13//13 47//47 11//11 
f 11//11 47//47 45//45 
f 11//11 45//45 9//9 
f 9//9 45//45 43//43 
f 9//9 43//43 7//7 
f 7//7 43//43 41//41 
f 7//7 41//41 5//5 
f 5//5 41//41 38//38 
f 5//5 38//38 3//3 
f 3//3 38//38 25//25 
