v 87.97720337 -11 265.9142456
v 87.97720337 -11 263.9723816
v 88.21651459 -11 265.9433289
v 88.21651459 -11 263.9433289
v 88.45583344 -11 265.9142456
v 88.45583344 -11 263.9723816
v 88.6812439 -11 265.8287659
v 88.6812439 -11 264.0578613
v 88.87963867 -11 265.6918335
v 88.87963867 -11 264.1947937
v 89.039505 -11 265.5113831
v 89.039505 -11 264.3752441
v 89.15153503 -11 265.2979126
v 89.15153503 -11 264.5887146
v 89.20922852 -11 265.0638428
v 89.20922852 -11 264.8227844
v 87.75179291 -11 264.0578613
v 87.75179291 -11 265.8287659
v 87.55339813 -11 264.1947937
v 87.55339813 -11 265.6918335
v 87.3935318 -11 264.3752441
v 87.3935318 -11 265.5113831
v 87.28150177 -11 264.5887146
v 87.28150177 -11 265.2979126
v 87.22380829 -11 264.8227844
v 87.22380829 -11 265.0638428
v 88.21651459 -4 265.9433289
v 87.97720337 -4 265.9142456
v 87.75179291 -4 265.8287659
v 87.55339813 -4 265.6918335
v 87.3935318 -4 265.5113831
v 87.28150177 -4 265.2979126
v 87.22380829 -4 265.0638428
v 87.22380829 -4 264.8227844
v 87.28150177 -4 264.5887146
v 87.3935318 -4 264.3752441
v 87.55339813 -4 264.1947937
v 87.75179291 -4 264.0578613
v 87.97720337 -4 263.9723816
v 88.21651459 -4 263.9433289
v 88.45583344 -4 265.9142456
v 88.45583344 -4 263.9723816
v 88.6812439 -4 264.0578613
v 88.6812439 -4 265.8287659
v 88.87963867 -4 264.1947937
v 88.87963867 -4 265.6918335
v 89.039505 -4 264.3752441
v 89.039505 -4 265.5113831
v 89.15153503 -4 264.5887146
v 89.15153503 -4 265.2979126
v 89.20922852 -4 264.8227844
v 89.20922852 -4 265.0638428
vn -0.1935392469 -0.2505281568 0.9485663772
vn -0.2684276402 -0.264777869 -0.9261961579
vn 0.03894901648 -0.2720482349 0.9614950418
vn -0.03890855983 -0.272053957 -0.9614950418
vn 0.2684626877 -0.2647778094 0.9261860251
vn 0.1934561729 -0.2505299151 -0.9485828876
vn 0.4867238104 -0.2299195677 0.8427555561
vn 0.4195037186 -0.2038934976 -0.8845586777
vn 0.6822996736 -0.1737978756 0.7101136446
vn 0.6259496212 -0.1413140148 -0.7669533491
vn 0.8403167725 -0.1083542034 0.5311563611
vn 0.7969700098 -0.07698207349 -0.5990931392
vn 0.9474463463 -0.04917649552 0.3161123991
vn 0.9195899963 -0.02668597549 -0.391972065
vn 0.9967118502 -0.01089966018 0.08029162139
vn 0.9870175719 -0.002765083686 -0.1605883837
vn -0.4867238104 -0.2299195677 -0.8427555561
vn -0.4195037186 -0.2038934976 0.8845586777
vn -0.6822996736 -0.1737978756 -0.7101136446
vn -0.6259496212 -0.1413140148 0.7669533491
vn -0.8403167725 -0.1083542034 -0.5311563611
vn -0.7969700098 -0.07698207349 0.5990931392
vn -0.9474463463 -0.04917649552 -0.3161123991
vn -0.9195899963 -0.02668597549 0.391972065
vn -0.9967118502 -0.01089966018 -0.08029162139
vn -0.9870175719 -0.002765083686 0.1605883837
vn -0.03894936666 0.27205351 0.9614935517
vn -0.2684656382 0.2647749484 0.9261859655
vn -0.4867238104 0.2299195677 0.8427555561
vn -0.6822996736 0.1737978756 0.7101136446
vn -0.8403167725 0.1083542034 0.5311563611
vn -0.9474463463 0.04917649552 0.3161123991
vn -0.9967118502 0.01089966018 0.08029162139
vn -0.9870175719 0.002765083686 -0.1605883837
vn -0.9195899963 0.02668597549 -0.391972065
vn -0.7969700098 0.07698207349 -0.5990931392
vn -0.6259496212 0.1413140148 -0.7669533491
vn -0.4195037186 0.2038934976 -0.8845586777
vn -0.1934600919 0.2505321205 -0.9485815167
vn 0.03890820593 0.2720486522 -0.9614965916
vn 0.1935353279 0.2505259216 0.9485678077
vn 0.26842466 0.26478073 -0.9261961579
vn 0.4867238104 0.2299195677 -0.8427555561
vn 0.4195037186 0.2038934976 0.8845586777
vn 0.6822996736 0.1737978756 -0.7101136446
vn 0.6259496212 0.1413140148 0.7669533491
vn 0.8403167725 0.1083542034 -0.5311563611
vn 0.7969700098 0.07698207349 0.5990931392
vn 0.9474463463 0.04917649552 -0.3161123991
vn 0.9195899963 0.02668597549 0.391972065
vn 0.9967118502 0.01089966018 -0.08029162139
vn 0.9870175719 0.002765083686 0.1605883837
f 1//1 2//2 3//3 
f 3//3 2//2 4//4 
f 3//3 4//4 5//5 
f 5//5 4//4 6//6 
f 5//5 6//6 7//7 
f 7//7 6//6 8//8 
f 7//7 8//8 9//9 
f 9//9 8//8 10//10 
f 9//9 10//10 11//11 
f 11//11 10//10 12//12 
f 11//11 12//12 13//13 
f 13//13 12//12 14//14 
f 13//13 14//14 15//15 
f 15//15 14//14 16//16 
f 2//2 1//1 17//17 
f 17//17 1//1 18//18 
f 17//17 18//18 19//19 
f 19//19 18//18 20//20 
f 19//19 20//20 21//21 
f 21//21 20//20 22//22 
f 21//21 22//22 23//23 
f 23//23 22//22 24//24 
f 23//23 24//24 25//25 
f 25//25 24//24 26//26 
f 3//3 27//27 1//1 
f 1//1 27//27 28//28 
f 1//1 28//28 18//18 
f 18//18 28//28 29//29 
f 18//18 29//29 20//20 
f 20//20 29//29 30//30 
f 20//20 30//30 22//22 
f 22//22 30//30 31//31 
f 22//22 31//31 24//24 
f 24//24 31//31 32//32 
f 24//24 32//32 26//26 
f 26//26 32//32 33//33 
f 26//26 33//33 25//25 
f 25//25 33//33 34//34 
f 25//25 34//34 23//23 
f 23//23 34//34 35//35 
f 23//23 35//35 21//21 
f 21//21 35//35 36//36 
f 21//21 36//36 19//19 
f 19//19 36//36 37//37 
f 19//19 37//37 17//17 
f 17//17 37//37 38//38 
f 17//17 38//38 2//2 
f 2//2 38//38 39//39 
f 2//2 39//39 4//4 
f 4//4 39//39 40//40 
f 41//41 42//42 27//27 
f 27//27 42//42 40//40 
f 27//27 40//40 28//28 
f 28//28 40//40 39//39 
f 28//28 39//39 29//29 
f 29//29 39//39 38//38 
f 29//29 38//38 30//30 
f 30//30 38//38 37//37 
f 30//30 37//37 31//31 
f 31//31 37//37 36//36 
f 31//31 36//36 32//32 
f 32//32 36//36 35//35 
f 32//32 35//35 33//33 
f 33//33 35//35 34//34 
f 42//42 41//41 43//43 
f 43//43 41//41 44//44 
f 43//43 44//44 45//45 
f 45//45 44//44 46//46 
f 45//45 46//46 47//47 
f 47//47 46//46 48//48 
f 47//47 48//48 49//49 
f 49//49 48//48 50//50 
f 49//49 50//50 51//51 
f 51//51 50//50 52//52 
f 4//4 40//40 6//6 
f 6//6 40//40 42//42 
f 6//6 42//42 8//8 
f 8//8 42//42 43//43 
f 8//8 43//43 10//10 
f 10//10 43//43 45//45 
f 10//10 45//45 12//12 
f 12//12 45//45 47//47 
f 12//12 47//47 14//14 
f 14//14 47//47 49//49 
f 14//14 49//49 16//16 
f 16//16 49//49 51//51 
f 16//16 51//51 15//15 
f 15//15 51//51 52//52 
f 15//15 52//52 13//13 
f 13//13 52//52 50//50 
f 13//13 50//50 11//11 
f 11//11 50//50 48//48 
f 11//11 48//48 9//9 
f 9//9 48//48 46//46 
f 9//9 46//46 7//7 
f 7//7 46//46 44//44 
f 7//7 44//44 5//5 
f 5//5 44//44 41//41 
f 5//5 41//41 3//3 
f 3//3 41//41 27//27 
