v 87.95770264 -11 -27.00742149
v 87.95770264 -11 -28.93927383
v 88.21651459 -11 -26.97334862
v 88.21651459 -11 -28.97334862
v 88.47533417 -11 -27.00742149
v 88.47533417 -11 -28.93927383
v 88.71651459 -11 -27.10732269
v 88.71651459 -11 -28.83937263
v 88.92362213 -11 -27.26624107
v 88.92362213 -11 -28.68045425
v 89.08254242 -11 -27.47334862
v 89.08254242 -11 -28.47334862
v 89.18244171 -11 -27.71452904
v 89.18244171 -11 -28.23216629
v 89.21651459 -11 -27.97334862
v 87.71651459 -11 -28.83937263
v 87.71651459 -11 -27.10732269
v 87.50941467 -11 -28.68045425
v 87.50941467 -11 -27.26624107
v 87.35049438 -11 -28.47334862
v 87.35049438 -11 -27.47334862
v 87.25059509 -11 -28.23216629
v 87.25059509 -11 -27.71452904
v 87.21651459 -11 -27.97334862
v 88.21651459 -0.3125 -26.97334862
v 87.95770264 -0.3125 -27.00742149
v 87.71651459 -0.3125 -27.10732269
v 87.50941467 -0.3125 -27.26624107
v 87.35049438 -0.3125 -27.47334862
v 87.25059509 -0.3125 -27.71452904
v 87.21651459 -0.3125 -27.97334862
v 87.25059509 -0.3125 -28.23216629
v 87.35049438 -0.3125 -28.47334862
v 87.50941467 -0.3125 -28.68045425
v 87.71651459 -0.3125 -28.83937263
v 87.95770264 -0.3125 -28.93927383
v 88.21651459 -0.3125 -28.97334862
v 88.47533417 -0.3125 -27.00742149
v 88.47533417 -0.3125 -28.93927383
v 88.71651459 -0.3125 -28.83937263
v 88.71651459 -0.3125 -27.10732269
v 88.92362213 -0.3125 -28.68045425
v 88.92362213 -0.3125 -27.26624107
v 89.08254242 -0.3125 -28.47334862
v 89.08254242 -0.3125 -27.47334862
v 89.18244171 -0.3125 -28.23216629
v 89.18244171 -0.3125 -27.71452904
v 89.21651459 -0.3125 -27.97334862
vn -0.2132827938 -0.1643173546 0.9630733132
vn -0.2962305844 -0.1758199334 -0.9387943149
vn 0.04311046004 -0.1817509532 0.9823991656
vn -0.04311326519 -0.1817543507 -0.9823983908
vn 0.2962309718 -0.1758234203 0.93879354
vn 0.2132854909 -0.1643141359 -0.9630733132
vn 0.5315741301 -0.1479241103 0.8339948654
vn 0.4577745795 -0.1276848614 -0.8798516989
vn 0.733355701 -0.1049219444 0.6716999412
vn 0.6731933951 -0.08118194342 -0.734996736
vn 0.8856144547 -0.0581179969 0.4607703984
vn 0.8426814079 -0.03735857457 -0.5371148586
vn 0.9761426449 -0.02037149481 0.2161725014
vn 0.9536181688 -0.008348596282 -0.3009031117
vn 0.9990363121 -0.002123357961 -0.04384033009
vn -0.5315783024 -0.147927016 -0.8339916468
vn -0.4577707052 -0.127682507 0.8798540235
vn -0.7333585024 -0.1049201638 -0.6716971397
vn -0.6732044816 -0.0811816901 0.7349866033
vn -0.8856149912 -0.05811787024 -0.4607693851
vn -0.8426821232 -0.03735849634 0.5371137261
vn -0.9761383533 -0.02037193254 -0.2161917388
vn -0.953615129 -0.0083490666 0.3009127378
vn -0.9990358949 -0.002123827348 0.04385001957
vn -0.04311085492 0.1817543656 0.98239851
vn -0.296228379 0.1758200675 0.9387949705
vn -0.5315783024 0.147927016 0.8339916468
vn -0.7333607674 0.1049197838 0.6716947556
vn -0.8856144547 0.0581179969 0.4607703984
vn -0.9761384726 0.02037188224 0.2161912173
vn -0.9990358353 0.00212383247 -0.04385012761
vn -0.9536153674 0.008349047042 -0.3009120524
vn -0.8426814079 0.03735857457 -0.5371148586
vn -0.6732031107 0.08118182421 -0.7349877954
vn -0.4577707052 0.127682507 -0.8798540235
vn -0.213287428 0.1643171906 -0.9630723596
vn 0.04311286658 0.1817509383 -0.9823990464
vn 0.2132808715 0.1643142998 0.9630742669
vn 0.2962331772 0.1758232862 -0.9387928843
vn 0.5315741301 0.1479241103 -0.8339948654
vn 0.4577745795 0.1276848614 0.8798516989
vn 0.733353436 0.104922317 -0.6717023253
vn 0.6731947064 0.08118180931 0.7349954844
vn 0.8856149912 0.05811787024 -0.4607693851
vn 0.8426821232 0.03735849634 0.5371137261
vn 0.9761425257 0.02037154324 -0.216173023
vn 0.9536179304 0.00834861584 0.300903827
vn 0.9990363121 0.002123352606 0.04384022206
f 1//1 2//2 3//3 
f 3//3 2//2 4//4 
f 3//3 4//4 5//5 
f 5//5 4//4 6//6 
f 5//5 6//6 7//7 
f 7//7 6//6 8//8 
f 7//7 8//8 9//9 
f 9//9 8//8 10//10 
f 9//9 10//10 11//11 
f 11//11 10//10 12//12 
f 11//11 12//12 13//13 
f 13//13 12//12 14//14 
f 13//13 14//14 15//15 
f 2//2 1//1 16//16 
f 16//16 1//1 17//17 
f 16//16 17//17 18//18 
f 18//18 17//17 19//19 
f 18//18 19//19 20//20 
f 20//20 19//19 21//21 
f 20//20 21//21 22//22 
f 22//22 21//21 23//23 
f 22//22 23//23 24//24 
f 3//3 25//25 1//1 
f 1//1 25//25 26//26 
f 1//1 26//26 17//17 
f 17//17 26//26 27//27 
f 17//17 27//27 19//19 
f 19//19 27//27 28//28 
f 19//19 28//28 21//21 
f 21//21 28//28 29//29 
f 21//21 29//29 23//23 
f 23//23 29//29 30//30 
f 23//23 30//30 24//24 
f 24//24 30//30 31//31 
f 24//24 31//31 22//22 
f 22//22 31//31 32//32 
f 22//22 32//32 20//20 
f 20//20 32//32 33//33 
f 20//20 33//33 18//18 
f 18//18 33//33 34//34 
f 18//18 34//34 16//16 
f 16//16 34//34 35//35 
f 16//16 35//35 2//2 
f 2//2 35//35 36//36 
f 2//2 36//36 4//4 
f 4//4 36//36 37//37 
f 38//38 39//39 25//25 
f 25//25 39//39 37//37 
f 25//25 37//37 26//26 
f 26//26 37//37 36//36 
f 26//26 36//36 27//27 
f 27//27 36//36 35//35 
f 27//27 35//35 28//28 
f 28//28 35//35 34//34 
f 28//28 34//34 29//29 
f 29//29 34//34 33//33 
f 29//29 33//33 30//30 
f 30//30 33//33 32//32 
f 30//30 32//32 31//31 
f 39//39 38//38 40//40 
f 40//40 38//38 41//41 
f 40//40 41//41 42//42 
f 42//42 41//41 43//43 
f 42//42 43//43 44//44 
f 44//44 43//43 45//45 
f 44//44 45//45 46//46 
f 46//46 45//45 47//47 
f 46//46 47//47 48//48 
f 4//4 37//37 6//6 
f 6//6 37//37 39//39 
f 6//6 39//39 8//8 
f 8//8 39//39 40//40 
f 8//8 40//40 10//10 
f 10//10 40//40 42//42 
f 10//10 42//42 12//12 
f 12//12 42//42 44//44 
f 12//12 44//44 14//14 
f 14//14 44//44 46//46 
f 14//14 46//46 15//15 
f 15//15 46//46 48//48 
f 15//15 48//48 13//13 
f 13//13 48//48 47//47 
f 13//13 47//47 11//11 
f 11//11 47//47 45//45 
f 11//11 45//45 9//9 
f 9//9 45//45 43//43 
f 9//9 43//43 7//7 
f 7//7 43//43 41//41 
f 7//7 41//41 5//5 
f 5//5 41//41 38//38 
f 5//5 38//38 3//3 
f 3//3 38//38 25//25 
