v -45.20014954 -0.6666666865 -208.9733429
v -44.69483566 -0.6666666865 -208.9265289
v -45.20014954 -2.666666746 -207.2233429
v -44.94132996 -2.666666746 -207.18927
v -44.2067337 -0.6666666865 -208.7876434
v -44.70014954 -2.666666746 -207.0893707
v -43.75246048 -0.6666666865 -208.5614471
v -43.34748459 -0.6666666865 -208.2556152
v -44.49304199 -2.666666746 -206.9304504
v -43.00559998 -0.6666666865 -207.8806
v -44.3341217 -2.666666746 -206.7233429
v -42.7384491 -0.6666666865 -207.4491272
v -44.23422241 -2.666666746 -206.4821625
v -42.55513 -0.6666666865 -206.9759216
v -42.46187973 -0.6666666865 -206.4770813
v -44.20014954 -2.666666746 -206.2233429
v -42.46187973 -0.6666666865 -205.9696045
v -44.23422241 -2.666666746 -205.9645233
v -42.55513 -0.6666666865 -205.4707794
v -42.7384491 -0.6666666865 -204.9975739
v -44.3341217 -2.666666746 -205.7233429
v -43.00559998 -0.6666666865 -204.5661011
v -44.49304199 -2.666666746 -205.5162354
v -43.34748459 -0.6666666865 -204.1910706
v -44.70014954 -2.666666746 -205.3573151
v -43.75246048 -0.6666666865 -203.8852539
v -44.2067337 -0.6666666865 -203.6590424
v -44.94132996 -2.666666746 -205.2574158
v -44.69483566 -0.6666666865 -203.5201721
v -45.20014954 -2.666666746 -205.2233429
v -45.20014954 -0.6666666865 -203.4733429
v -45.70545959 -0.6666666865 -203.5201721
v -45.45896912 -2.666666746 -205.2574158
v -46.19356155 -0.6666666865 -203.6590424
v -45.70014954 -2.666666746 -205.3573151
v -46.64783859 -0.6666666865 -203.8852539
v -47.05281067 -0.6666666865 -204.1910706
v -45.90725708 -2.666666746 -205.5162354
v -47.39469528 -0.6666666865 -204.5661011
v -46.06617355 -2.666666746 -205.7233429
v -47.66184616 -0.6666666865 -204.9975739
v -46.16607285 -2.666666746 -205.9645233
v -47.84516907 -0.6666666865 -205.4707794
v -47.93841934 -0.6666666865 -205.9696045
v -46.20014954 -2.666666746 -206.2233429
v -47.93841934 -0.6666666865 -206.4770813
v -46.16607285 -2.666666746 -206.4821625
v -47.84516907 -0.6666666865 -206.9759216
v -47.66184616 -0.6666666865 -207.4491272
v -46.06617355 -2.666666746 -206.7233429
v -47.39469528 -0.6666666865 -207.8806
v -45.90725708 -2.666666746 -206.9304504
v -47.05281067 -0.6666666865 -208.2556152
v -45.70014954 -2.666666746 -207.0893707
v -46.64783859 -0.6666666865 -208.5614471
v -46.19356155 -0.6666666865 -208.7876434
v -45.45896912 -2.666666746 -207.18927
v -45.70545959 -0.6666666865 -208.9265289
v -45.20014954 -11 -205.2233429
v -45.45896912 -11 -205.2574158
v -45.70014954 -11 -205.3573151
v -45.90725708 -11 -205.5162354
v -46.06617355 -11 -205.7233429
v -46.16607285 -11 -205.9645233
v -46.20014954 -11 -206.2233429
v -46.16607285 -11 -206.4821625
v -46.06617355 -11 -206.7233429
v -45.90725708 -11 -206.9304504
v -45.70014954 -11 -207.0893707
v -45.45896912 -11 -207.18927
v -45.20014954 -11 -207.2233429
v -44.94132996 -11 -205.2574158
v -44.94132996 -11 -207.18927
v -44.70014954 -11 -205.3573151
v -44.70014954 -11 -207.0893707
v -44.49304199 -11 -205.5162354
v -44.49304199 -11 -206.9304504
v -44.3341217 -11 -205.7233429
v -44.3341217 -11 -206.7233429
v -44.23422241 -11 -205.9645233
v -44.23422241 -11 -206.4821625
v -44.20014954 -11 -206.2233429
v -45.20014954 -0.6666666865 -207.2233429
v -45.20014954 -0.6666666865 -205.2233429
vn 1.716487518e-16 2.197104071e-16 -1
vn 0.1703450531 -0.1700254977 -0.9706048965
vn 0.02867471986 -0.2711198628 -0.9621183872
vn 0.2862934172 -0.2064718306 -0.9356310368
vn 0.3614927828 -0.1505614966 -0.9201381207
vn 0.5112383366 -0.2710721493 -0.8155705333
vn 0.5249738693 0.07444890589 -0.8478560448
vn 0.6588574648 -0.07563376427 -0.7484560013
vn 0.7182091475 -0.2063681632 -0.6645206809
vn 0.7968826294 -0.02119806968 -0.6037621498
vn 0.86149472 -0.2064798176 -0.4638888836
vn 0.9006608725 0.04085355625 -0.4325978756
vn 0.9360236526 -0.2711445689 -0.2243666351
vn 0.9040703177 0.3413065672 -0.2572287619
vn 0.3916937411 0.9192508459 -0.03941999376
vn 0.977905333 -0.2064926326 0.03258727118
vn 0.9789736867 0.1786151081 0.09852493554
vn 0.9210125804 -0.2710938156 0.2797212601
vn 0.9040698409 0.3413048983 0.257232666
vn 0.9006608725 0.04085415602 0.4325978756
vn 0.8287062049 -0.2064301819 0.5202236772
vn 0.7968870997 -0.02119267546 0.6037564278
vn 0.6723623872 -0.2064417005 0.7108520865
vn 0.6588575244 -0.07563253492 0.7484560609
vn 0.4617406726 -0.2711692452 0.8445488811
vn 0.5249738693 0.07444890589 0.8478560448
vn 0.3614928722 -0.1505600959 0.9201383591
vn 0.2233622819 -0.2064942569 0.9526118636
vn 0.1703450531 -0.1700254977 0.9706048965
vn -0.02867472544 -0.2711191177 0.962118566
vn -2.81503962e-16 -2.746380188e-16 1
vn -0.1703455448 -0.1700259447 0.9706047177
vn -0.2862903178 -0.206470266 0.9356323481
vn -0.3614918888 -0.1505597383 0.9201387763
vn -0.5112385154 -0.271070838 0.8155708313
vn -0.5249738693 0.07444890589 0.8478560448
vn -0.6588590145 -0.0756322667 0.7484547496
vn -0.7182146311 -0.2063697129 0.6645143628
vn -0.7968885899 -0.02119162679 0.6037545204
vn -0.8614968061 -0.2064788789 0.4638854563
vn -0.9006597996 0.04085163772 0.4326003492
vn -0.936022222 -0.2711425424 0.2243749946
vn -0.9040699601 0.3413018882 0.2572362423
vn -0.3916907012 0.919252038 0.03942134231
vn -0.9779051542 -0.2064928263 -0.03259091452
vn -0.9789730906 0.1786174327 -0.09852664173
vn -0.9210108519 -0.2710962296 -0.2797245383
vn -0.904070437 0.3413035572 -0.2572323382
vn -0.9006597996 0.04085104167 -0.4326003492
vn -0.828709662 -0.2064314485 -0.5202176571
vn -0.7968841195 -0.02119702101 -0.6037602425
vn -0.6723629832 -0.2064404786 -0.7108518481
vn -0.6588589549 -0.0756335035 -0.74845469
vn -0.4617405236 -0.2711703777 -0.844548583
vn -0.5249738693 0.07444890589 -0.8478560448
vn -0.3614917994 -0.150561139 -0.9201385975
vn -0.2233655453 -0.2064956427 -0.9526108503
vn -0.1703455448 -0.1700259447 -0.9706047177
vn 0.04265809432 -0.2306542844 0.9721002579
vn -0.2114459276 -0.2089227885 0.9547994137
vn -0.4553852379 -0.1629024446 0.875263989
vn -0.6717740297 -0.103893891 0.7334342003
vn -0.8423076868 -0.04789042473 0.5368652344
vn -0.9535951018 -0.01070718747 0.3009015322
vn -0.9990346432 -0.002723503625 0.04384494945
vn -0.9760099649 -0.026123235 -0.2161529511
vn -0.8846536875 -0.07445409894 -0.4602656364
vn -0.7307726145 -0.1340874285 -0.6693220139
vn -0.5278649926 -0.1883885115 -0.8281716704
vn -0.2933175564 -0.2232795954 -0.9295757413
vn -0.04265809432 -0.2306542844 -0.9721002579
vn 0.2933175564 -0.2232795954 0.9295757413
vn 0.2114459276 -0.2089227885 -0.9547994137
vn 0.5278649926 -0.1883885115 0.8281716704
vn 0.4553852379 -0.1629024446 -0.875263989
vn 0.7307677865 -0.1340873688 0.6693273187
vn 0.6717715263 -0.1038949192 -0.7334363461
vn 0.8846516013 -0.07445534319 0.4602694213
vn 0.8423032165 -0.04789076 -0.5368722081
vn 0.9760120511 -0.02612298541 0.2161435932
vn 0.9535965323 -0.01070689876 -0.3008970618
vn 0.999034822 -0.002723199315 -0.0438400507
vn 0 1 0
vn 0 1 0
f 1//1 2//2 3//3 
f 3//3 2//2 4//4 
f 4//4 2//2 5//5 
f 4//4 5//5 6//6 
f 6//6 5//5 7//7 
f 6//6 7//7 8//8 
f 6//6 8//8 9//9 
f 9//9 8//8 10//10 
f 9//9 10//10 11//11 
f 11//11 10//10 12//12 
f 11//11 12//12 13//13 
f 13//13 12//12 14//14 
f 13//13 14//14 15//15 
f 13//13 15//15 16//16 
f 16//16 15//15 17//17 
f 16//16 17//17 18//18 
f 18//18 17//17 19//19 
f 18//18 19//19 20//20 
f 18//18 20//20 21//21 
f 21//21 20//20 22//22 
f 21//21 22//22 23//23 
f 23//23 22//22 24//24 
f 23//23 24//24 25//25 
f 25//25 24//24 26//26 
f 25//25 26//26 27//27 
f 25//25 27//27 28//28 
f 28//28 27//27 29//29 
f 28//28 29//29 30//30 
f 30//30 29//29 31//31 
f 31//31 32//32 30//30 
f 30//30 32//32 33//33 
f 33//33 32//32 34//34 
f 33//33 34//34 35//35 
f 35//35 34//34 36//36 
f 35//35 36//36 37//37 
f 35//35 37//37 38//38 
f 38//38 37//37 39//39 
f 38//38 39//39 40//40 
f 40//40 39//39 41//41 
f 40//40 41//41 42//42 
f 42//42 41//41 43//43 
f 42//42 43//43 44//44 
f 42//42 44//44 45//45 
f 45//45 44//44 46//46 
f 45//45 46//46 47//47 
f 47//47 46//46 48//48 
f 47//47 48//48 49//49 
f 47//47 49//49 50//50 
f 50//50 49//49 51//51 
f 50//50 51//51 52//52 
f 52//52 51//51 53//53 
f 52//52 53//53 54//54 
f 54//54 53//53 55//55 
f 54//54 55//55 56//56 
f 54//54 56//56 57//57 
f 57//57 56//56 58//58 
f 57//57 58//58 3//3 
f 3//3 58//58 1//1 
f 59//59 30//30 60//60 
f 60//60 30//30 33//33 
f 60//60 33//33 61//61 
f 61//61 33//33 35//35 
f 61//61 35//35 62//62 
f 62//62 35//35 38//38 
f 62//62 38//38 63//63 
f 63//63 38//38 40//40 
f 63//63 40//40 64//64 
f 64//64 40//40 42//42 
f 64//64 42//42 65//65 
f 65//65 42//42 45//45 
f 65//65 45//45 66//66 
f 66//66 45//45 47//47 
f 66//66 47//47 67//67 
f 67//67 47//47 50//50 
f 67//67 50//50 68//68 
f 68//68 50//50 52//52 
f 68//68 52//52 69//69 
f 69//69 52//52 54//54 
f 69//69 54//54 70//70 
f 70//70 54//54 57//57 
f 70//70 57//57 71//71 
f 71//71 57//57 3//3 
f 60//60 70//70 59//59 
f 59//59 70//70 71//71 
f 59//59 71//71 72//72 
f 72//72 71//71 73//73 
f 72//72 73//73 74//74 
f 74//74 73//73 75//75 
f 74//74 75//75 76//76 
f 76//76 75//75 77//77 
f 76//76 77//77 78//78 
f 78//78 77//77 79//79 
f 78//78 79//79 80//80 
f 80//80 79//79 81//81 
f 80//80 81//81 82//82 
f 70//70 60//60 69//69 
f 69//69 60//60 61//61 
f 69//69 61//61 68//68 
f 68//68 61//61 62//62 
f 68//68 62//62 67//67 
f 67//67 62//62 63//63 
f 67//67 63//63 66//66 
f 66//66 63//63 64//64 
f 66//66 64//64 65//65 
f 1//1 58//58 83//83 
f 83//83 58//58 56//56 
f 83//83 56//56 55//55 
f 55//55 53//53 83//83 
f 83//83 53//53 51//51 
f 83//83 51//51 49//49 
f 49//49 48//48 83//83 
f 83//83 48//48 46//46 
f 83//83 46//46 44//44 
f 83//83 44//44 84//84 
f 84//84 44//44 43//43 
f 84//84 43//43 41//41 
f 41//41 39//39 84//84 
f 84//84 39//39 37//37 
f 84//84 37//37 36//36 
f 36//36 34//34 84//84 
f 84//84 34//34 32//32 
f 84//84 32//32 31//31 
f 31//31 29//29 84//84 
f 84//84 29//29 27//27 
f 84//84 27//27 26//26 
f 26//26 24//24 84//84 
f 84//84 24//24 22//22 
f 84//84 22//22 20//20 
f 20//20 19//19 84//84 
f 84//84 19//19 17//17 
f 84//84 17//17 15//15 
f 84//84 15//15 83//83 
f 83//83 15//15 14//14 
f 83//83 14//14 12//12 
f 12//12 10//10 83//83 
f 83//83 10//10 8//8 
f 83//83 8//8 7//7 
f 7//7 5//5 83//83 
f 83//83 5//5 2//2 
f 83//83 2//2 1//1 
f 71//71 3//3 73//73 
f 73//73 3//3 4//4 
f 73//73 4//4 75//75 
f 75//75 4//4 6//6 
f 75//75 6//6 77//77 
f 77//77 6//6 9//9 
f 77//77 9//9 79//79 
f 79//79 9//9 11//11 
f 79//79 11//11 81//81 
f 81//81 11//11 13//13 
f 81//81 13//13 82//82 
f 82//82 13//13 16//16 
f 82//82 16//16 80//80 
f 80//80 16//16 18//18 
f 80//80 18//18 78//78 
f 78//78 18//18 21//21 
f 78//78 21//21 76//76 
f 76//76 21//21 23//23 
f 76//76 23//23 74//74 
f 74//74 23//23 25//25 
f 74//74 25//25 72//72 
f 72//72 25//25 28//28 
f 72//72 28//28 59//59 
f 59//59 28//28 30//30 
