v -75.20014954 -3.166666746 -117.8066788
v -74.7226181 -3.166666746 -117.7649002
v -75.20014954 -5.166666508 -116.0566788
v -74.94132996 -5.166666508 -116.0226059
v -74.25959015 -3.166666746 -117.6408386
v -74.70014954 -5.166666508 -115.9227066
v -73.82514954 -3.166666746 -117.4382477
v -73.43247986 -3.166666746 -117.1633072
v -74.49304199 -5.166666508 -115.7637863
v -73.09352875 -3.166666746 -116.8243484
v -74.3341217 -5.166666508 -115.5566788
v -72.81858063 -3.166666746 -116.4316788
v -72.61599731 -3.166666746 -115.9972382
v -74.23422241 -5.166666508 -115.3154984
v -72.4919281 -3.166666746 -115.5342102
v -74.20014954 -5.166666508 -115.0566788
v -72.45014954 -3.166666746 -115.0566788
v -72.4919281 -3.166666746 -114.5791473
v -74.23422241 -5.166666508 -114.7978592
v -72.61599731 -3.166666746 -114.116127
v -74.3341217 -5.166666508 -114.5566788
v -72.81858063 -3.166666746 -113.6816788
v -73.09352875 -3.166666746 -113.2890167
v -74.49304199 -5.166666508 -114.3495712
v -73.43247986 -3.166666746 -112.950058
v -74.70014954 -5.166666508 -114.1906586
v -73.82514954 -3.166666746 -112.6751099
v -74.25959015 -3.166666746 -112.4725266
v -74.94132996 -5.166666508 -114.0907516
v -74.7226181 -3.166666746 -112.3484573
v -75.20014954 -5.166666508 -114.0566788
v -75.20014954 -3.166666746 -112.3066788
v -75.67768097 -3.166666746 -112.3484573
v -75.45896912 -5.166666508 -114.0907516
v -76.14070129 -3.166666746 -112.4725266
v -75.70014954 -5.166666508 -114.1906586
v -76.57514954 -3.166666746 -112.6751099
v -76.96781158 -3.166666746 -112.950058
v -75.90725708 -5.166666508 -114.3495712
v -77.30677032 -3.166666746 -113.2890167
v -76.06617737 -5.166666508 -114.5566788
v -77.58171844 -3.166666746 -113.6816788
v -77.78430176 -3.166666746 -114.116127
v -76.16607666 -5.166666508 -114.7978592
v -77.90837097 -3.166666746 -114.5791473
v -76.20014954 -5.166666508 -115.0566788
v -77.95014954 -3.166666746 -115.0566788
v -77.90837097 -3.166666746 -115.5342102
v -76.16607666 -5.166666508 -115.3154984
v -77.78430176 -3.166666746 -115.9972382
v -76.06617737 -5.166666508 -115.5566788
v -77.58171844 -3.166666746 -116.4316788
v -77.30677032 -3.166666746 -116.8243484
v -75.90725708 -5.166666508 -115.7637863
v -76.96781158 -3.166666746 -117.1633072
v -75.70014954 -5.166666508 -115.9227066
v -76.57514954 -3.166666746 -117.4382477
v -76.14070129 -3.166666746 -117.6408386
v -75.45896912 -5.166666508 -116.0226059
v -75.67768097 -3.166666746 -117.7649002
v -75.20014954 -11 -114.0566788
v -75.45896912 -11 -114.0907516
v -75.70014954 -11 -114.1906586
v -75.90725708 -11 -114.3495712
v -76.06617737 -11 -114.5566788
v -76.16607666 -11 -114.7978592
v -76.20014954 -11 -115.0566788
v -76.16607666 -11 -115.3154984
v -76.06617737 -11 -115.5566788
v -75.90725708 -11 -115.7637863
v -75.70014954 -11 -115.9227066
v -75.45896912 -11 -116.0226059
v -75.20014954 -11 -116.0566788
v -74.94132996 -11 -114.0907516
v -74.94132996 -11 -116.0226059
v -74.70014954 -11 -114.1906586
v -74.70014954 -11 -115.9227066
v -74.49304199 -11 -114.3495712
v -74.49304199 -11 -115.7637863
v -74.3341217 -11 -114.5566788
v -74.3341217 -11 -115.5566788
v -74.23422241 -11 -114.7978592
v -74.23422241 -11 -115.3154984
v -74.20014954 -11 -115.0566788
v -75.20014954 -3.166666746 -116.0566788
v -75.20014954 -3.166666746 -114.0566788
vn 1.816345027e-16 -2.32492174e-16 -1
vn 0.1617613435 -0.1788480133 -0.970487833
vn 0.02511911467 -0.3270899355 -0.9446592927
vn 0.2782742083 -0.2590839863 -0.9248994589
vn 0.3461772501 -0.1618947089 -0.9240949154
vn 0.4940850139 -0.3270901442 -0.8055383563
vn 0.498881191 0.06683835387 -0.8640892506
vn 0.632683754 -0.09542766958 -0.7685081959
vn 0.7034468055 -0.2590824366 -0.6618450284
vn 0.7711662054 -0.04740093276 -0.6348667741
vn 0.8306590319 -0.327090323 -0.4505745769
vn 0.8401681781 0.2425369471 -0.4850703776
vn 0.9341190457 0.07049074769 -0.3499324024
vn 0.9401256442 -0.2590835392 -0.2214485705
vn 0.9772897363 0.1355283856 -0.1629013121
vn 0.9446592927 -0.3270899355 0.02511911467
vn 0.2871649563 0.9578811526 0
vn 0.9772898555 0.1355262697 0.1629023701
vn 0.9248990417 -0.2590824068 0.2782770097
vn 0.9341190457 0.07049074769 0.3499324024
vn 0.8055385351 -0.3270895183 0.4940851033
vn 0.8401681781 0.2425369471 0.4850703776
vn 0.7711635828 -0.04740337282 0.6348698139
vn 0.6618390083 -0.2590832412 0.7034521699
vn 0.6326839924 -0.0954234153 0.7685084939
vn 0.4505790174 -0.3270898759 0.8306568265
vn 0.4988813102 0.06683506817 0.8640894294
vn 0.3461824954 -0.1618977189 0.924092412
vn 0.22145693 -0.2590837479 0.9401236176
vn 0.1617673784 -0.1788470596 0.9704869986
vn -0.02511911467 -0.3270899355 0.9446592927
vn -1.816345027e-16 -2.32492174e-16 1
vn -0.1617683619 -0.1788480282 0.9704867005
vn -0.2782911956 -0.2590820193 0.9248948693
vn -0.3461824954 -0.1618977189 0.924092412
vn -0.4940807819 -0.3270908296 0.8055406809
vn -0.4988813102 0.06683506817 0.8640894294
vn -0.6326839924 -0.0954234153 0.7685084939
vn -0.7034415007 -0.2590827346 0.6618505716
vn -0.7711604834 -0.04740409926 0.6348735094
vn -0.8306590915 -0.3270901144 0.4505746365
vn -0.8401681781 0.2425369471 0.4850703776
vn -0.9341190457 0.07049074769 0.3499324024
vn -0.9401258826 -0.2590821385 0.2214491665
vn -0.9772898555 0.1355262697 0.1629023701
vn -0.9446592927 -0.3270899355 -0.02511911467
vn -0.2871649563 0.9578811526 0
vn -0.9772897363 0.1355283856 -0.1629013121
vn -0.9248988628 -0.2590838075 -0.2782762945
vn -0.9341190457 0.07049074769 -0.3499324024
vn -0.8055384755 -0.3270897567 -0.4940850735
vn -0.8401681781 0.2425369471 -0.4850703776
vn -0.771163106 -0.04740165919 -0.6348705292
vn -0.6618461609 -0.2590830028 -0.7034456134
vn -0.632683754 -0.09542766958 -0.7685081959
vn -0.4505745769 -0.3270905018 -0.8306589723
vn -0.498881191 0.06683835387 -0.8640892506
vn -0.3461772501 -0.1618947089 -0.9240949154
vn -0.2214470059 -0.2590822875 -0.9401263595
vn -0.161762327 -0.1788489819 -0.9704874754
vn 0.04152393341 -0.3207454383 0.9462547898
vn -0.2068095952 -0.2919031978 0.9338213205
vn -0.4492313266 -0.2295672894 0.863417685
vn -0.6680186987 -0.1475964487 0.7293602228
vn -0.8412996531 -0.06833385676 0.5362325311
vn -0.9535396099 -0.01529465616 0.3008791208
vn -0.9990310073 -0.003890269436 0.04383988306
vn -0.9756656289 -0.03730530292 -0.2160668671
vn -0.8821104169 -0.1060592383 -0.4589473009
vn -0.7240247726 -0.1897855252 -0.6631512642
vn -0.5183777809 -0.2642887533 -0.8132871389
vn -0.2859915495 -0.3110041022 -0.906358242
vn -0.04152393341 -0.3207454383 -0.9462547898
vn 0.2860086858 -0.3110024333 0.9063534141
vn 0.2068006098 -0.291903764 -0.9338231683
vn 0.5183708668 -0.2642900348 0.8132911325
vn 0.4492236972 -0.2295682728 -0.8634213805
vn 0.7240201831 -0.1897868514 0.6631558537
vn 0.6680294275 -0.1475945264 -0.7293507457
vn 0.8821104169 -0.1060592383 0.4589473009
vn 0.8412996531 -0.06833385676 -0.5362325311
vn 0.9756656289 -0.03730530292 0.2160668671
vn 0.9535396099 -0.01529465616 -0.3008791208
vn 0.9990310073 -0.003890269436 -0.04383988306
vn 0 1 0
vn 0 1 0
f 1//1 2//2 3//3 
f 3//3 2//2 4//4 
f 4//4 2//2 5//5 
f 4//4 5//5 6//6 
f 6//6 5//5 7//7 
f 6//6 7//7 8//8 
f 6//6 8//8 9//9 
f 9//9 8//8 10//10 
f 9//9 10//10 11//11 
f 11//11 10//10 12//12 
f 11//11 12//12 13//13 
f 11//11 13//13 14//14 
f 14//14 13//13 15//15 
f 14//14 15//15 16//16 
f 16//16 15//15 17//17 
f 16//16 17//17 18//18 
f 16//16 18//18 19//19 
f 19//19 18//18 20//20 
f 19//19 20//20 21//21 
f 21//21 20//20 22//22 
f 21//21 22//22 23//23 
f 21//21 23//23 24//24 
f 24//24 23//23 25//25 
f 24//24 25//25 26//26 
f 26//26 25//25 27//27 
f 26//26 27//27 28//28 
f 26//26 28//28 29//29 
f 29//29 28//28 30//30 
f 29//29 30//30 31//31 
f 31//31 30//30 32//32 
f 32//32 33//33 31//31 
f 31//31 33//33 34//34 
f 34//34 33//33 35//35 
f 34//34 35//35 36//36 
f 36//36 35//35 37//37 
f 36//36 37//37 38//38 
f 36//36 38//38 39//39 
f 39//39 38//38 40//40 
f 39//39 40//40 41//41 
f 41//41 40//40 42//42 
f 41//41 42//42 43//43 
f 41//41 43//43 44//44 
f 44//44 43//43 45//45 
f 44//44 45//45 46//46 
f 46//46 45//45 47//47 
f 46//46 47//47 48//48 
f 46//46 48//48 49//49 
f 49//49 48//48 50//50 
f 49//49 50//50 51//51 
f 51//51 50//50 52//52 
f 51//51 52//52 53//53 
f 51//51 53//53 54//54 
f 54//54 53//53 55//55 
f 54//54 55//55 56//56 
f 56//56 55//55 57//57 
f 56//56 57//57 58//58 
f 56//56 58//58 59//59 
f 59//59 58//58 60//60 
f 59//59 60//60 3//3 
f 3//3 60//60 1//1 
f 61//61 31//31 62//62 
f 62//62 31//31 34//34 
f 62//62 34//34 63//63 
f 63//63 34//34 36//36 
f 63//63 36//36 64//64 
f 64//64 36//36 39//39 
f 64//64 39//39 65//65 
f 65//65 39//39 41//41 
f 65//65 41//41 66//66 
f 66//66 41//41 44//44 
f 66//66 44//44 67//67 
f 67//67 44//44 46//46 
f 67//67 46//46 68//68 
f 68//68 46//46 49//49 
f 68//68 49//49 69//69 
f 69//69 49//49 51//51 
f 69//69 51//51 70//70 
f 70//70 51//51 54//54 
f 70//70 54//54 71//71 
f 71//71 54//54 56//56 
f 71//71 56//56 72//72 
f 72//72 56//56 59//59 
f 72//72 59//59 73//73 
f 73//73 59//59 3//3 
f 62//62 72//72 61//61 
f 61//61 72//72 73//73 
f 61//61 73//73 74//74 
f 74//74 73//73 75//75 
f 74//74 75//75 76//76 
f 76//76 75//75 77//77 
f 76//76 77//77 78//78 
f 78//78 77//77 79//79 
f 78//78 79//79 80//80 
f 80//80 79//79 81//81 
f 80//80 81//81 82//82 
f 82//82 81//81 83//83 
f 82//82 83//83 84//84 
f 72//72 62//62 71//71 
f 71//71 62//62 63//63 
f 71//71 63//63 70//70 
f 70//70 63//63 64//64 
f 70//70 64//64 69//69 
f 69//69 64//64 65//65 
f 69//69 65//65 68//68 
f 68//68 65//65 66//66 
f 68//68 66//66 67//67 
f 1//1 60//60 85//85 
f 85//85 60//60 58//58 
f 85//85 58//58 57//57 
f 57//57 55//55 85//85 
f 85//85 55//55 53//53 
f 85//85 53//53 52//52 
f 52//52 50//50 85//85 
f 85//85 50//50 48//48 
f 85//85 48//48 47//47 
f 85//85 47//47 86//86 
f 86//86 47//47 45//45 
f 86//86 45//45 43//43 
f 43//43 42//42 86//86 
f 86//86 42//42 40//40 
f 86//86 40//40 38//38 
f 38//38 37//37 86//86 
f 86//86 37//37 35//35 
f 86//86 35//35 33//33 
f 33//33 32//32 86//86 
f 32//32 30//30 86//86 
f 86//86 30//30 28//28 
f 86//86 28//28 27//27 
f 27//27 25//25 86//86 
f 86//86 25//25 23//23 
f 86//86 23//23 22//22 
f 22//22 20//20 86//86 
f 86//86 20//20 18//18 
f 86//86 18//18 17//17 
f 86//86 17//17 85//85 
f 85//85 17//17 15//15 
f 85//85 15//15 13//13 
f 13//13 12//12 85//85 
f 85//85 12//12 10//10 
f 85//85 10//10 8//8 
f 8//8 7//7 85//85 
f 85//85 7//7 5//5 
f 85//85 5//5 2//2 
f 2//2 1//1 85//85 
f 73//73 3//3 75//75 
f 75//75 3//3 4//4 
f 75//75 4//4 77//77 
f 77//77 4//4 6//6 
f 77//77 6//6 79//79 
f 79//79 6//6 9//9 
f 79//79 9//9 81//81 
f 81//81 9//9 11//11 
f 81//81 11//11 83//83 
f 83//83 11//11 14//14 
f 83//83 14//14 84//84 
f 84//84 14//14 16//16 
f 84//84 16//16 82//82 
f 82//82 16//16 19//19 
f 82//82 19//19 80//80 
f 80//80 19//19 21//21 
f 80//80 21//21 78//78 
f 78//78 21//21 24//24 
f 78//78 24//24 76//76 
f 76//76 24//24 26//26 
f 76//76 26//26 74//74 
f 74//74 26//26 29//29 
f 74//74 29//29 61//61 
f 61//61 29//29 31//31 
