v -45.20014954 -0.3125 -117.8066788
v -44.69483566 -0.3125 -117.7598572
v -45.20014954 -2.3125 -116.0566788
v -44.94132996 -2.3125 -116.0226059
v -44.2067337 -0.3125 -117.6209793
v -44.70014954 -2.3125 -115.9227066
v -43.75246048 -0.3125 -117.3947754
v -43.34748459 -0.3125 -117.0889587
v -44.49304199 -2.3125 -115.7637863
v -43.00559998 -0.3125 -116.7139282
v -44.3341217 -2.3125 -115.5566788
v -42.7384491 -0.3125 -116.2824631
v -44.23422241 -2.3125 -115.3154984
v -42.55513 -0.3125 -115.8092575
v -42.46187973 -0.3125 -115.3104172
v -44.20014954 -2.3125 -115.0566788
v -42.46187973 -0.3125 -114.8029404
v -44.23422241 -2.3125 -114.7978592
v -42.55513 -0.3125 -114.3041077
v -42.7384491 -0.3125 -113.8309021
v -44.3341217 -2.3125 -114.5566788
v -43.00559998 -0.3125 -113.399437
v -44.49304199 -2.3125 -114.3495712
v -43.34748459 -0.3125 -113.0244064
v -44.70014954 -2.3125 -114.1906586
v -43.75246048 -0.3125 -112.7185822
v -44.2067337 -0.3125 -112.4923859
v -44.94132996 -2.3125 -114.0907516
v -44.69483566 -0.3125 -112.353508
v -45.20014954 -2.3125 -114.0566788
v -45.20014954 -0.3125 -112.3066788
v -45.70545959 -0.3125 -112.353508
v -45.45896912 -2.3125 -114.0907516
v -46.19356155 -0.3125 -112.4923859
v -45.70014954 -2.3125 -114.1906586
v -46.64783859 -0.3125 -112.7185822
v -47.05281067 -0.3125 -113.0244064
v -45.90725708 -2.3125 -114.3495712
v -47.39469528 -0.3125 -113.399437
v -46.06617355 -2.3125 -114.5566788
v -47.66184616 -0.3125 -113.8309021
v -46.16607285 -2.3125 -114.7978592
v -47.84516907 -0.3125 -114.3041077
v -47.93841934 -0.3125 -114.8029404
v -46.20014954 -2.3125 -115.0566788
v -47.93841934 -0.3125 -115.3104172
v -46.16607285 -2.3125 -115.3154984
v -47.84516907 -0.3125 -115.8092575
v -47.66184616 -0.3125 -116.2824631
v -46.06617355 -2.3125 -115.5566788
v -47.39469528 -0.3125 -116.7139282
v -45.90725708 -2.3125 -115.7637863
v -47.05281067 -0.3125 -117.0889587
v -45.70014954 -2.3125 -115.9227066
v -46.64783859 -0.3125 -117.3947754
v -46.19356155 -0.3125 -117.6209793
v -45.45896912 -2.3125 -116.0226059
v -45.70545959 -0.3125 -117.7598572
v -45.20014954 -11 -114.0566788
v -45.45896912 -11 -114.0907516
v -45.70014954 -11 -114.1906586
v -45.90725708 -11 -114.3495712
v -46.06617355 -11 -114.5566788
v -46.16607285 -11 -114.7978592
v -46.20014954 -11 -115.0566788
v -46.16607285 -11 -115.3154984
v -46.06617355 -11 -115.5566788
v -45.90725708 -11 -115.7637863
v -45.70014954 -11 -115.9227066
v -45.45896912 -11 -116.0226059
v -45.20014954 -11 -116.0566788
v -44.94132996 -11 -114.0907516
v -44.94132996 -11 -116.0226059
v -44.70014954 -11 -114.1906586
v -44.70014954 -11 -115.9227066
v -44.49304199 -11 -114.3495712
v -44.49304199 -11 -115.7637863
v -44.3341217 -11 -114.5566788
v -44.3341217 -11 -115.5566788
v -44.23422241 -11 -114.7978592
v -44.23422241 -11 -115.3154984
v -44.20014954 -11 -115.0566788
v -45.20014954 -0.3125 -116.0566788
v -45.20014954 -0.3125 -114.0566788
vn 6.865950471e-17 0 -1
vn 0.1703450531 -0.1700255126 -0.9706048965
vn 0.02911367454 -0.2640477419 -0.9640700817
vn 0.2869235277 -0.2002768368 -0.9367839098
vn 0.3614928424 -0.1505607963 -0.9201382399
vn 0.5124527216 -0.2640008628 -0.8171265125
vn 0.5249684453 0.07444732636 -0.8478595018
vn 0.6588575244 -0.07563315332 -0.7484560013
vn 0.7192589641 -0.2001783997 -0.6652782559
vn 0.7968848348 -0.0211958494 -0.6037592888
vn 0.8628339767 -0.2002832294 -0.4641164839
vn 0.9006598592 0.04085118696 -0.4326002598
vn 0.9380431175 -0.2640718222 -0.2243683636
vn 0.9040703177 0.3413065672 -0.2572287619
vn 0.3916937411 0.9192508459 -0.03941999376
vn 0.9791807532 -0.2002975941 0.03295302019
vn 0.9789734483 0.1786168367 0.09852431715
vn 0.9228062034 -0.2640239596 0.2805709243
vn 0.9040700793 0.3413057327 0.2572306991
vn 0.9006598592 0.04085148498 0.4326002598
vn 0.8296830058 -0.2002363801 0.521086812
vn 0.7968848944 -0.02119537443 0.6037592888
vn 0.6728804111 -0.2002479881 0.7121324539
vn 0.6588577032 -0.07562884688 0.7484562397
vn 0.4621979892 -0.26409477 0.8465382457
vn 0.5249685645 0.07444411516 0.8478596807
vn 0.361492604 -0.1505649984 0.9201376438
vn 0.2232970893 -0.200298965 0.9539490342
vn 0.1703508198 -0.1700245887 0.9706040621
vn -0.02911367826 -0.2640473843 0.9640702009
vn -1.51050909e-16 -5.492760509e-17 1
vn -0.1703513116 -0.1700250357 0.9706038833
vn -0.2869386673 -0.2002755851 0.9367795587
vn -0.3614916205 -0.1505646408 0.920138061
vn -0.5124479532 -0.2640016675 0.8171292543
vn -0.5249685645 0.07444411516 0.8478596807
vn -0.6588591933 -0.07562857866 0.748454988
vn -0.7192588449 -0.2001785934 0.6652783155
vn -0.7968863249 -0.0211943239 0.6037573814
vn -0.8628360033 -0.2002827525 0.4641129971
vn -0.9006587863 0.04084897041 0.4326027334
vn -0.9380415082 -0.2640708685 0.2243763506
vn -0.9040701985 0.3413027525 0.2572343051
vn -0.3916922808 0.9192513824 0.03942126408
vn -0.979180634 -0.2002977729 -0.0329567045
vn -0.9789730906 0.1786174327 -0.09852664173
vn -0.9228046536 -0.2640252709 -0.280574739
vn -0.904070437 0.341303587 -0.2572323382
vn -0.9006587863 0.04084866866 -0.4326027334
vn -0.8296865821 -0.2002371997 -0.5210808516
vn -0.7968863249 -0.02119480073 -0.6037573814
vn -0.6728914976 -0.2002472281 -0.7121222615
vn -0.6588590145 -0.0756328851 -0.7484547496
vn -0.4621928632 -0.2640954554 -0.8465408087
vn -0.5249684453 0.07444732636 -0.8478595018
vn -0.361491859 -0.1505604386 -0.9201386571
vn -0.2232884616 -0.2002994716 -0.9539509416
vn -0.1703455448 -0.1700259447 -0.9706047177
vn 0.0427490212 -0.2217226923 0.9741722345
vn -0.2118246704 -0.2007551491 0.9564662576
vn -0.4558763206 -0.1564260274 0.8761892915
vn -0.6720530987 -0.09970270097 0.7337601781
vn -0.8423848152 -0.04594226554 0.5369144082
vn -0.953599453 -0.01027073059 0.3009029031
vn -0.9990349412 -0.002612474142 0.04384496063
vn -0.9760366082 -0.02505894192 -0.2161588371
vn -0.8848496079 -0.07143461704 -0.4603675604
vn -0.7312979102 -0.1287132651 -0.6698031425
vn -0.5286147594 -0.1809645891 -0.8293480873
vn -0.2939032912 -0.2146047652 -0.9314320683
vn -0.0427490212 -0.2217226923 -0.9741722345
vn 0.293920815 -0.2146035582 0.9314267635
vn 0.2118154913 -0.2007555515 -0.9564681649
vn 0.5286078453 -0.180965513 0.8293523192
vn 0.4558686614 -0.1564267129 -0.8761931658
vn 0.7312885523 -0.1287141293 0.6698132157
vn 0.6720613241 -0.0997023806 -0.7337527275
vn 0.8848475218 -0.07143580914 0.4603713751
vn 0.8423804045 -0.04594258592 -0.536921382
vn 0.9760386348 -0.0250587035 0.2161494792
vn 0.9536008835 -0.01027045306 -0.3008984327
vn 0.99903512 -0.002612182405 -0.0438400656
vn 0 1 0
vn 0 1 0
f 1//1 2//2 3//3 
f 3//3 2//2 4//4 
f 4//4 2//2 5//5 
f 4//4 5//5 6//6 
f 6//6 5//5 7//7 
f 6//6 7//7 8//8 
f 6//6 8//8 9//9 
f 9//9 8//8 10//10 
f 9//9 10//10 11//11 
f 11//11 10//10 12//12 
f 11//11 12//12 13//13 
f 13//13 12//12 14//14 
f 13//13 14//14 15//15 
f 13//13 15//15 16//16 
f 16//16 15//15 17//17 
f 16//16 17//17 18//18 
f 18//18 17//17 19//19 
f 18//18 19//19 20//20 
f 18//18 20//20 21//21 
f 21//21 20//20 22//22 
f 21//21 22//22 23//23 
f 23//23 22//22 24//24 
f 23//23 24//24 25//25 
f 25//25 24//24 26//26 
f 25//25 26//26 27//27 
f 25//25 27//27 28//28 
f 28//28 27//27 29//29 
f 28//28 29//29 30//30 
f 30//30 29//29 31//31 
f 31//31 32//32 30//30 
f 30//30 32//32 33//33 
f 33//33 32//32 34//34 
f 33//33 34//34 35//35 
f 35//35 34//34 36//36 
f 35//35 36//36 37//37 
f 35//35 37//37 38//38 
f 38//38 37//37 39//39 
f 38//38 39//39 40//40 
f 40//40 39//39 41//41 
f 40//40 41//41 42//42 
f 42//42 41//41 43//43 
f 42//42 43//43 44//44 
f 42//42 44//44 45//45 
f 45//45 44//44 46//46 
f 45//45 46//46 47//47 
f 47//47 46//46 48//48 
f 47//47 48//48 49//49 
f 47//47 49//49 50//50 
f 50//50 49//49 51//51 
f 50//50 51//51 52//52 
f 52//52 51//51 53//53 
f 52//52 53//53 54//54 
f 54//54 53//53 55//55 
f 54//54 55//55 56//56 
f 54//54 56//56 57//57 
f 57//57 56//56 58//58 
f 57//57 58//58 3//3 
f 3//3 58//58 1//1 
f 59//59 30//30 60//60 
f 60//60 30//30 33//33 
f 60//60 33//33 61//61 
f 61//61 33//33 35//35 
f 61//61 35//35 62//62 
f 62//62 35//35 38//38 
f 62//62 38//38 63//63 
f 63//63 38//38 40//40 
f 63//63 40//40 64//64 
f 64//64 40//40 42//42 
f 64//64 42//42 65//65 
f 65//65 42//42 45//45 
f 65//65 45//45 66//66 
f 66//66 45//45 47//47 
f 66//66 47//47 67//67 
f 67//67 47//47 50//50 
f 67//67 50//50 68//68 
f 68//68 50//50 52//52 
f 68//68 52//52 69//69 
f 69//69 52//52 54//54 
f 69//69 54//54 70//70 
f 70//70 54//54 57//57 
f 70//70 57//57 71//71 
f 71//71 57//57 3//3 
f 60//60 70//70 59//59 
f 59//59 70//70 71//71 
f 59//59 71//71 72//72 
f 72//72 71//71 73//73 
f 72//72 73//73 74//74 
f 74//74 73//73 75//75 
f 74//74 75//75 76//76 
f 76//76 75//75 77//77 
f 76//76 77//77 78//78 
f 78//78 77//77 79//79 
f 78//78 79//79 80//80 
f 80//80 79//79 81//81 
f 80//80 81//81 82//82 
f 70//70 60//60 69//69 
f 69//69 60//60 61//61 
f 69//69 61//61 68//68 
f 68//68 61//61 62//62 
f 68//68 62//62 67//67 
f 67//67 62//62 63//63 
f 67//67 63//63 66//66 
f 66//66 63//63 64//64 
f 66//66 64//64 65//65 
f 1//1 58//58 83//83 
f 83//83 58//58 56//56 
f 83//83 56//56 55//55 
f 55//55 53//53 83//83 
f 83//83 53//53 51//51 
f 83//83 51//51 49//49 
f 49//49 48//48 83//83 
f 83//83 48//48 46//46 
f 83//83 46//46 44//44 
f 83//83 44//44 84//84 
f 84//84 44//44 43//43 
f 84//84 43//43 41//41 
f 41//41 39//39 84//84 
f 84//84 39//39 37//37 
f 84//84 37//37 36//36 
f 36//36 34//34 84//84 
f 84//84 34//34 32//32 
f 84//84 32//32 31//31 
f 31//31 29//29 84//84 
f 84//84 29//29 27//27 
f 84//84 27//27 26//26 
f 26//26 24//24 84//84 
f 84//84 24//24 22//22 
f 84//84 22//22 20//20 
f 20//20 19//19 84//84 
f 84//84 19//19 17//17 
f 84//84 17//17 15//15 
f 84//84 15//15 83//83 
f 83//83 15//15 14//14 
f 83//83 14//14 12//12 
f 12//12 10//10 83//83 
f 83//83 10//10 8//8 
f 83//83 8//8 7//7 
f 7//7 5//5 83//83 
f 83//83 5//5 2//2 
f 83//83 2//2 1//1 
f 71//71 3//3 73//73 
f 73//73 3//3 4//4 
f 73//73 4//4 75//75 
f 75//75 4//4 6//6 
f 75//75 6//6 77//77 
f 77//77 6//6 9//9 
f 77//77 9//9 79//79 
f 79//79 9//9 11//11 
f 79//79 11//11 81//81 
f 81//81 11//11 13//13 
f 81//81 13//13 82//82 
f 82//82 13//13 16//16 
f 82//82 16//16 80//80 
f 80//80 16//16 18//18 
f 80//80 18//18 78//78 
f 78//78 18//18 21//21 
f 78//78 21//21 76//76 
f 76//76 21//21 23//23 
f 76//76 23//23 74//74 
f 74//74 23//23 25//25 
f 74//74 25//25 72//72 
f 72//72 25//25 28//28 
f 72//72 28//28 59//59 
f 59//59 28//28 30//30 
