v -45.16402817 -4.5 143.6939697
v -45.20014954 -4.5 145.6933136
v -45.14598083 -4.5 143.6947937
v -44.9648819 -4.5 145.6652527
v -44.9125824 -4.5 143.7355652
v -44.74282455 -4.5 145.5826111
v -44.69532394 -4.5 143.8300934
v -44.54644012 -4.5 145.450058
v -44.50640869 -4.5 143.9730988
v -44.38675308 -4.5 145.2750244
v -44.35643768 -4.5 144.1565247
v -44.27272797 -4.5 145.067337
v -44.25382996 -4.5 144.3700867
v -44.21076584 -4.5 144.8386383
v -44.2043457 -4.5 144.6017914
v -45.18208694 -4.5 143.6934814
v -45.20014954 -4.5 143.6933136
v -45.42266846 -4.5 145.6682434
v -45.42266846 -4.5 143.7183838
v -45.6340332 -4.5 145.5942841
v -45.6340332 -4.5 143.7923431
v -45.82363892 -4.5 145.4751434
v -45.82363892 -4.5 143.9114838
v -45.98197937 -4.5 145.316803
v -45.98197937 -4.5 144.0698242
v -46.10111618 -4.5 145.1271973
v -46.10111618 -4.5 144.2594299
v -46.17507553 -4.5 144.9158325
v -46.17507553 -4.5 144.4707947
v -46.20014954 -4.5 144.6933136
v -45.42266846 -11 145.6682434
v -45.42266846 -11 143.7183838
v -45.20014954 -11 145.6933136
v -45.20014954 -11 143.6933136
v -44.9776268 -11 145.6682434
v -44.9776268 -11 143.7183838
v -44.76626587 -11 145.5942841
v -44.76626587 -11 143.7923431
v -44.57666016 -11 145.4751434
v -44.57666016 -11 143.9114838
v -44.41831589 -11 145.316803
v -44.41831589 -11 144.0698242
v -44.29917908 -11 145.1271973
v -44.29917908 -11 144.2594299
v -44.22521973 -11 144.9158325
v -44.22521973 -11 144.4707947
v -44.20014954 -11 144.6933136
v -45.6340332 -11 143.7923431
v -45.6340332 -11 145.5942841
v -45.82363892 -11 143.9114838
v -45.82363892 -11 145.4751434
v -45.98197937 -11 144.0698242
v -45.98197937 -11 145.316803
v -46.10111618 -11 144.2594299
v -46.10111618 -11 145.1271973
v -46.17507553 -11 144.4707947
v -46.17507553 -11 144.9158325
v -46.20014954 -11 144.6933136
vn 0.03471630067 0.2939085662 -0.9552028775
vn 0.003263438819 0.171637401 0.9851548076
vn 0.1331198066 0.2941817343 -0.9464334249
vn 0.2550701797 0.2860433757 0.9236440659
vn 0.2902322114 0.2696259022 -0.918186903
vn 0.4669240415 0.2467177659 0.849183321
vn 0.5012667775 0.2183004767 -0.8373031616
vn 0.6596321464 0.1857266575 0.7282794714
vn 0.69009161 0.1508450806 -0.7078272104
vn 0.8189406991 0.1155417338 0.5621265173
vn 0.8418303132 0.08214208484 -0.533455193
vn 0.9316657782 0.05251978338 0.3595004082
vn 0.9451491833 0.02869525924 -0.325376153
vn 0.9908316731 0.01193381753 0.1345740706
vn 0.9951693416 0.003339589341 -0.09811614454
vn 0.01735866629 0.2940415442 -0.9556350112
vn -0.08898379654 0.5030361414 -0.8596723676
vn -0.2482129335 0.2849941552 0.9258340597
vn -0.1787705719 0.27190274 -0.9455738664
vn -0.4522156715 0.2528176308 0.8553269506
vn -0.3891935349 0.2284653485 -0.8923743367
vn -0.6392331719 0.1998653412 0.7425865531
vn -0.5852418542 0.1683318913 -0.7931937575
vn -0.7972664237 0.1354449391 0.5882354379
vn -0.7538542747 0.1029442847 -0.6489269733
vn -0.9141995907 0.07260982692 0.3987065256
vn -0.883110106 0.04612014815 -0.4668933749
vn -0.982286036 0.02492267638 0.185722813
vn -0.9658390284 0.01014945935 -0.2589438558
vn -0.999292016 0.002569872187 -0.03753426671
vn -0.1787705719 -0.27190274 0.9455738664
vn -0.2482129335 -0.2849941552 -0.9258340597
vn 0 -0.4161638916 0.9092895985
vn -0.03143935651 -0.2716779709 -0.9618745446
vn 0.1791312993 -0.2799489796 0.9431545734
vn 0.1976125836 -0.2669874728 -0.9432215691
vn 0.3920502365 -0.2482419163 0.8858174682
vn 0.4110837281 -0.2242719978 -0.8835791945
vn 0.5899825096 -0.1961734146 0.7832219601
vn 0.6081341505 -0.1652289778 -0.7764484882
vn 0.7604351044 -0.1329403967 0.635661304
vn 0.7751885653 -0.1011122167 -0.6235855818
vn 0.8905078173 -0.0713442266 0.4493393302
vn 0.9001754522 -0.04543450847 -0.4331510365
vn 0.9714322686 -0.02463515848 0.2360347956
vn 0.9759480357 -0.01019369345 -0.2177648395
vn 0.9999518991 -0.002756365575 0.00941482652
vn -0.4522156715 -0.2528176308 -0.8553269506
vn -0.3891935349 -0.2284653485 0.8923743367
vn -0.6392331719 -0.1998653412 -0.7425865531
vn -0.5852418542 -0.1683318913 0.7931937575
vn -0.7972664237 -0.1354449391 -0.5882354379
vn -0.7538542747 -0.1029442847 0.6489269733
vn -0.9141995907 -0.07260982692 -0.3987065256
vn -0.883110106 -0.04612014815 0.4668933749
vn -0.982286036 -0.02492267638 -0.185722813
vn -0.9658390284 -0.01014945935 0.2589438558
vn -0.999292016 -0.002569872187 0.03753426671
f 1//1 2//2 3//3 
f 3//3 2//2 4//4 
f 3//3 4//4 5//5 
f 5//5 4//4 6//6 
f 5//5 6//6 7//7 
f 7//7 6//6 8//8 
f 7//7 8//8 9//9 
f 9//9 8//8 10//10 
f 9//9 10//10 11//11 
f 11//11 10//10 12//12 
f 11//11 12//12 13//13 
f 13//13 12//12 14//14 
f 13//13 14//14 15//15 
f 1//1 16//16 2//2 
f 2//2 16//16 17//17 
f 2//2 17//17 18//18 
f 18//18 17//17 19//19 
f 18//18 19//19 20//20 
f 20//20 19//19 21//21 
f 20//20 21//21 22//22 
f 22//22 21//21 23//23 
f 22//22 23//23 24//24 
f 24//24 23//23 25//25 
f 24//24 25//25 26//26 
f 26//26 25//25 27//27 
f 26//26 27//27 28//28 
f 28//28 27//27 29//29 
f 28//28 29//29 30//30 
f 31//31 32//32 33//33 
f 33//33 32//32 34//34 
f 33//33 34//34 35//35 
f 35//35 34//34 36//36 
f 35//35 36//36 37//37 
f 37//37 36//36 38//38 
f 37//37 38//38 39//39 
f 39//39 38//38 40//40 
f 39//39 40//40 41//41 
f 41//41 40//40 42//42 
f 41//41 42//42 43//43 
f 43//43 42//42 44//44 
f 43//43 44//44 45//45 
f 45//45 44//44 46//46 
f 45//45 46//46 47//47 
f 32//32 31//31 48//48 
f 48//48 31//31 49//49 
f 48//48 49//49 50//50 
f 50//50 49//49 51//51 
f 50//50 51//51 52//52 
f 52//52 51//51 53//53 
f 52//52 53//53 54//54 
f 54//54 53//53 55//55 
f 54//54 55//55 56//56 
f 56//56 55//55 57//57 
f 56//56 57//57 58//58 
f 33//33 2//2 31//31 
f 31//31 2//2 18//18 
f 31//31 18//18 49//49 
f 49//49 18//18 20//20 
f 49//49 20//20 51//51 
f 51//51 20//20 22//22 
f 51//51 22//22 53//53 
f 53//53 22//22 24//24 
f 53//53 24//24 55//55 
f 55//55 24//24 26//26 
f 55//55 26//26 57//57 
f 57//57 26//26 28//28 
f 57//57 28//28 58//58 
f 58//58 28//28 30//30 
f 58//58 30//30 56//56 
f 56//56 30//30 29//29 
f 56//56 29//29 54//54 
f 54//54 29//29 27//27 
f 54//54 27//27 52//52 
f 52//52 27//27 25//25 
f 52//52 25//25 50//50 
f 50//50 25//25 23//23 
f 50//50 23//23 48//48 
f 48//48 23//23 21//21 
f 48//48 21//21 32//32 
f 32//32 21//21 19//19 
f 32//32 19//19 34//34 
f 34//34 19//19 17//17 
f 17//17 16//16 34//34 
f 34//34 16//16 1//1 
f 34//34 1//1 3//3 
f 34//34 3//3 36//36 
f 36//36 3//3 5//5 
f 36//36 5//5 38//38 
f 38//38 5//5 7//7 
f 38//38 7//7 40//40 
f 40//40 7//7 9//9 
f 40//40 9//9 42//42 
f 42//42 9//9 11//11 
f 42//42 11//11 44//44 
f 44//44 11//11 13//13 
f 44//44 13//13 46//46 
f 46//46 13//13 15//15 
f 46//46 15//15 47//47 
f 47//47 15//15 14//14 
f 47//47 14//14 45//45 
f 45//45 14//14 12//12 
f 45//45 12//12 43//43 
f 43//43 12//12 10//10 
f 43//43 10//10 41//41 
f 41//41 10//10 8//8 
f 41//41 8//8 39//39 
f 39//39 8//8 6//6 
f 39//39 6//6 37//37 
f 37//37 6//6 4//4 
f 37//37 4//4 35//35 
f 35//35 4//4 2//2 
f 35//35 2//2 33//33 
