v 44.79985046 -0.3125 -86.72335052
v 45.30516434 -0.3125 -86.6765213
v 44.79985046 -2.3125 -84.97335052
v 45.05867004 -2.3125 -84.93927002
v 45.7932663 -0.3125 -86.53764343
v 45.29985046 -2.3125 -84.83937073
v 46.24753952 -0.3125 -86.31144714
v 46.65251541 -0.3125 -86.00562286
v 45.50695801 -2.3125 -84.68045807
v 46.99440002 -0.3125 -85.63059235
v 45.6658783 -2.3125 -84.47335052
v 47.2615509 -0.3125 -85.1991272
v 45.76577759 -2.3125 -84.2321701
v 47.44487 -0.3125 -84.72592163
v 47.53812027 -0.3125 -84.22708893
v 45.79985046 -2.3125 -83.97335052
v 47.53812027 -0.3125 -83.71961212
v 45.76577759 -2.3125 -83.71453094
v 47.44487 -0.3125 -83.22077179
v 47.2615509 -0.3125 -82.74756622
v 45.6658783 -2.3125 -83.47335052
v 46.99440002 -0.3125 -82.31610107
v 45.50695801 -2.3125 -83.26624298
v 46.65251541 -0.3125 -81.94107056
v 45.29985046 -2.3125 -83.10732269
v 46.24753952 -0.3125 -81.63525391
v 45.7932663 -0.3125 -81.40904999
v 45.05867004 -2.3125 -83.0074234
v 45.30516434 -0.3125 -81.27017212
v 44.79985046 -2.3125 -82.97335052
v 44.79985046 -0.3125 -81.22335052
v 44.29454041 -0.3125 -81.27017212
v 44.54103088 -2.3125 -83.0074234
v 43.80643845 -0.3125 -81.40904999
v 44.29985046 -2.3125 -83.10732269
v 43.35216141 -0.3125 -81.63525391
v 42.94718933 -0.3125 -81.94107056
v 44.09274292 -2.3125 -83.26624298
v 42.60530472 -0.3125 -82.31610107
v 43.93382645 -2.3125 -83.47335052
v 42.33815384 -0.3125 -82.74756622
v 43.83392715 -2.3125 -83.71453094
v 42.15483093 -0.3125 -83.22077179
v 42.06158066 -0.3125 -83.71961212
v 43.79985046 -2.3125 -83.97335052
v 42.06158066 -0.3125 -84.22708893
v 43.83392715 -2.3125 -84.2321701
v 42.15483093 -0.3125 -84.72592163
v 42.33815384 -0.3125 -85.1991272
v 43.93382645 -2.3125 -84.47335052
v 42.60530472 -0.3125 -85.63059235
v 44.09274292 -2.3125 -84.68045807
v 42.94718933 -0.3125 -86.00562286
v 44.29985046 -2.3125 -84.83937073
v 43.35216141 -0.3125 -86.31144714
v 43.80643845 -0.3125 -86.53764343
v 44.54103088 -2.3125 -84.93927002
v 44.29454041 -0.3125 -86.6765213
v 44.79985046 -11 -82.97335052
v 44.54103088 -11 -83.0074234
v 44.29985046 -11 -83.10732269
v 44.09274292 -11 -83.26624298
v 43.93382645 -11 -83.47335052
v 43.83392715 -11 -83.71453094
v 43.79985046 -11 -83.97335052
v 43.83392715 -11 -84.2321701
v 43.93382645 -11 -84.47335052
v 44.09274292 -11 -84.68045807
v 44.29985046 -11 -84.83937073
v 44.54103088 -11 -84.93927002
v 44.79985046 -11 -84.97335052
v 45.05867004 -11 -83.0074234
v 45.05867004 -11 -84.93927002
v 45.29985046 -11 -83.10732269
v 45.29985046 -11 -84.83937073
v 45.50695801 -11 -83.26624298
v 45.50695801 -11 -84.68045807
v 45.6658783 -11 -83.47335052
v 45.6658783 -11 -84.47335052
v 45.76577759 -11 -83.71453094
v 45.76577759 -11 -84.2321701
v 45.79985046 -11 -83.97335052
v 44.79985046 -0.3125 -84.97335052
v 44.79985046 -0.3125 -82.97335052
vn 3.226996741e-16 -5.492760509e-17 -1
vn 0.1703564823 -0.1700272709 -0.970602572
vn 0.02912018448 -0.2640480399 -0.9640698433
vn 0.2869318724 -0.2002765238 -0.9367814064
vn 0.3614874482 -0.1505652964 -0.9201396108
vn 0.5124420524 -0.264002502 -0.8171326518
vn 0.5249685645 0.07444411516 -0.8478596807
vn 0.6588577032 -0.07562884688 -0.7484562397
vn 0.7192548513 -0.2001781911 -0.6652827859
vn 0.7968848944 -0.02119537443 -0.6037592888
vn 0.862834096 -0.2002827972 -0.4641165137
vn 0.9006598592 0.04085148498 -0.4326002598
vn 0.9380433559 -0.2640707493 -0.2243687809
vn 0.9040700793 0.3413057327 -0.2572306991
vn 0.3916921318 0.9192515016 -0.03942006826
vn 0.9791807532 -0.2002975941 0.03295302019
vn 0.9789732099 0.1786185652 0.09852369875
vn 0.9228060842 -0.2640250325 0.2805704176
vn 0.9040703177 0.3413065672 0.2572287619
vn 0.9006598592 0.04085118696 0.4326002598
vn 0.8296829462 -0.2002368122 0.5210867524
vn 0.7968848348 -0.0211958494 0.6037592888
vn 0.6728892326 -0.2002472728 0.7121243477
vn 0.6588575244 -0.07563315332 0.7484560013
vn 0.4621928632 -0.2640955746 0.8465408087
vn 0.5249684453 0.07444732636 0.8478595018
vn 0.3614928424 -0.1505607963 0.9201382399
vn 0.2232884616 -0.2002995759 0.9539509416
vn 0.1703450531 -0.1700255126 0.9706048965
vn -0.02911367454 -0.2640477419 0.9640700817
vn -1.647828086e-16 5.492760509e-17 1
vn -0.1703455448 -0.1700259447 0.9706047177
vn -0.2869235575 -0.2002767324 0.9367839098
vn -0.361491859 -0.1505604386 0.9201386571
vn -0.5124527812 -0.2640007734 0.8171265125
vn -0.5249684453 0.07444732636 0.8478595018
vn -0.6588590145 -0.0756328851 0.7484547496
vn -0.7192630172 -0.200178802 0.665273726
vn -0.7968863249 -0.02119480073 0.6037573814
vn -0.8628358841 -0.2002831846 0.4641129673
vn -0.9006587863 0.04084866866 0.4326027334
vn -0.9380412698 -0.2640719414 0.2243759483
vn -0.904070437 0.341303587 0.2572323382
vn -0.3916938603 0.9192507267 0.03942118585
vn -0.979180634 -0.2002977729 -0.0329567045
vn -0.9789733291 0.1786157042 -0.09852726012
vn -0.9228048325 -0.2640241981 -0.2805752456
vn -0.9040701985 0.3413027525 -0.2572343051
vn -0.9006587863 0.04084897041 -0.4326027334
vn -0.8296866417 -0.2002367675 -0.5210808516
vn -0.7968863249 -0.0211943239 -0.6037573814
vn -0.6728826761 -0.2002479434 -0.7121303678
vn -0.6588591933 -0.07562857866 -0.748454988
vn -0.4621866047 -0.2640961111 -0.8465440273
vn -0.5249685645 0.07444411516 -0.8478596807
vn -0.3614864647 -0.1505649388 -0.9201400876
vn -0.2233040929 -0.2002989352 -0.9539473653
vn -0.170356974 -0.1700277179 -0.9706024528
vn 0.0427490212 -0.221722424 0.9741722941
vn -0.2118155062 -0.2007550299 0.9564682841
vn -0.4558686614 -0.1564267129 0.8761931658
vn -0.6720638275 -0.09970139712 0.7337505817
vn -0.8423848152 -0.04594226554 0.5369144082
vn -0.953599453 -0.01027073059 0.3009029031
vn -0.9990349412 -0.002612474142 0.04384496063
vn -0.9760366082 -0.02505894192 -0.2161588371
vn -0.8848496079 -0.07143461704 -0.4603675604
vn -0.7312933803 -0.1287141889 -0.6698079109
vn -0.5286008716 -0.1809661835 -0.8293565512
vn -0.2939120829 -0.2146036327 -0.9314295053
vn -0.04275857657 -0.2217223346 -0.9741719365
vn 0.293903321 -0.2146042436 0.931432128
vn 0.2118338794 -0.2007542104 -0.9564644098
vn 0.528614819 -0.1809643358 0.8293480873
vn 0.4558609724 -0.1564274132 -0.8761970401
vn 0.7312930822 -0.1287132055 0.6698084474
vn 0.6720505953 -0.0997036919 -0.7337623239
vn 0.8848475218 -0.07143580914 0.4603713751
vn 0.8423804045 -0.04594258592 -0.536921382
vn 0.9760386348 -0.0250587035 0.2161494792
vn 0.9536008835 -0.01027045306 -0.3008984327
vn 0.99903512 -0.002612182405 -0.0438400656
vn 0 1 0
vn 0 1 0
f 1//1 2//2 3//3 
f 3//3 2//2 4//4 
f 4//4 2//2 5//5 
f 4//4 5//5 6//6 
f 6//6 5//5 7//7 
f 6//6 7//7 8//8 
f 6//6 8//8 9//9 
f 9//9 8//8 10//10 
f 9//9 10//10 11//11 
f 11//11 10//10 12//12 
f 11//11 12//12 13//13 
f 13//13 12//12 14//14 
f 13//13 14//14 15//15 
f 13//13 15//15 16//16 
f 16//16 15//15 17//17 
f 16//16 17//17 18//18 
f 18//18 17//17 19//19 
f 18//18 19//19 20//20 
f 18//18 20//20 21//21 
f 21//21 20//20 22//22 
f 21//21 22//22 23//23 
f 23//23 22//22 24//24 
f 23//23 24//24 25//25 
f 25//25 24//24 26//26 
f 25//25 26//26 27//27 
f 25//25 27//27 28//28 
f 28//28 27//27 29//29 
f 28//28 29//29 30//30 
f 30//30 29//29 31//31 
f 31//31 32//32 30//30 
f 30//30 32//32 33//33 
f 33//33 32//32 34//34 
f 33//33 34//34 35//35 
f 35//35 34//34 36//36 
f 35//35 36//36 37//37 
f 35//35 37//37 38//38 
f 38//38 37//37 39//39 
f 38//38 39//39 40//40 
f 40//40 39//39 41//41 
f 40//40 41//41 42//42 
f 42//42 41//41 43//43 
f 42//42 43//43 44//44 
f 42//42 44//44 45//45 
f 45//45 44//44 46//46 
f 45//45 46//46 47//47 
f 47//47 46//46 48//48 
f 47//47 48//48 49//49 
f 47//47 49//49 50//50 
f 50//50 49//49 51//51 
f 50//50 51//51 52//52 
f 52//52 51//51 53//53 
f 52//52 53//53 54//54 
f 54//54 53//53 55//55 
f 54//54 55//55 56//56 
f 54//54 56//56 57//57 
f 57//57 56//56 58//58 
f 57//57 58//58 3//3 
f 3//3 58//58 1//1 
f 59//59 30//30 60//60 
f 60//60 30//30 33//33 
f 60//60 33//33 61//61 
f 61//61 33//33 35//35 
f 61//61 35//35 62//62 
f 62//62 35//35 38//38 
f 62//62 38//38 63//63 
f 63//63 38//38 40//40 
f 63//63 40//40 64//64 
f 64//64 40//40 42//42 
f 64//64 42//42 65//65 
f 65//65 42//42 45//45 
f 65//65 45//45 66//66 
f 66//66 45//45 47//47 
f 66//66 47//47 67//67 
f 67//67 47//47 50//50 
f 67//67 50//50 68//68 
f 68//68 50//50 52//52 
f 68//68 52//52 69//69 
f 69//69 52//52 54//54 
f 69//69 54//54 70//70 
f 70//70 54//54 57//57 
f 70//70 57//57 71//71 
f 71//71 57//57 3//3 
f 60//60 70//70 59//59 
f 59//59 70//70 71//71 
f 59//59 71//71 72//72 
f 72//72 71//71 73//73 
f 72//72 73//73 74//74 
f 74//74 73//73 75//75 
f 74//74 75//75 76//76 
f 76//76 75//75 77//77 
f 76//76 77//77 78//78 
f 78//78 77//77 79//79 
f 78//78 79//79 80//80 
f 80//80 79//79 81//81 
f 80//80 81//81 82//82 
f 70//70 60//60 69//69 
f 69//69 60//60 61//61 
f 69//69 61//61 68//68 
f 68//68 61//61 62//62 
f 68//68 62//62 67//67 
f 67//67 62//62 63//63 
f 67//67 63//63 66//66 
f 66//66 63//63 64//64 
f 66//66 64//64 65//65 
f 1//1 58//58 83//83 
f 83//83 58//58 56//56 
f 83//83 56//56 55//55 
f 55//55 53//53 83//83 
f 83//83 53//53 51//51 
f 83//83 51//51 49//49 
f 49//49 48//48 83//83 
f 83//83 48//48 46//46 
f 83//83 46//46 44//44 
f 83//83 44//44 84//84 
f 84//84 44//44 43//43 
f 84//84 43//43 41//41 
f 41//41 39//39 84//84 
f 84//84 39//39 37//37 
f 84//84 37//37 36//36 
f 36//36 34//34 84//84 
f 84//84 34//34 32//32 
f 84//84 32//32 31//31 
f 31//31 29//29 84//84 
f 84//84 29//29 27//27 
f 84//84 27//27 26//26 
f 26//26 24//24 84//84 
f 84//84 24//24 22//22 
f 84//84 22//22 20//20 
f 20//20 19//19 84//84 
f 84//84 19//19 17//17 
f 84//84 17//17 15//15 
f 84//84 15//15 83//83 
f 83//83 15//15 14//14 
f 83//83 14//14 12//12 
f 12//12 10//10 83//83 
f 83//83 10//10 8//8 
f 83//83 8//8 7//7 
f 7//7 5//5 83//83 
f 83//83 5//5 2//2 
f 83//83 2//2 1//1 
f 71//71 3//3 73//73 
f 73//73 3//3 4//4 
f 73//73 4//4 75//75 
f 75//75 4//4 6//6 
f 75//75 6//6 77//77 
f 77//77 6//6 9//9 
f 77//77 9//9 79//79 
f 79//79 9//9 11//11 
f 79//79 11//11 81//81 
f 81//81 11//11 13//13 
f 81//81 13//13 82//82 
f 82//82 13//13 16//16 
f 82//82 16//16 80//80 
f 80//80 16//16 18//18 
f 80//80 18//18 78//78 
f 78//78 18//18 21//21 
f 78//78 21//21 76//76 
f 76//76 21//21 23//23 
f 76//76 23//23 74//74 
f 74//74 23//23 25//25 
f 74//74 25//25 72//72 
f 72//72 25//25 28//28 
f 72//72 28//28 59//59 
f 59//59 28//28 30//30 
