v 33.54103088 -25.75 142.9925842
v 33.54103088 -25.75 141.06073
v 33.79985046 -25.75 143.0266571
v 33.79985046 -25.75 141.0266571
v 34.05867004 -25.75 142.9925842
v 34.05867004 -25.75 141.06073
v 34.29985046 -25.75 142.8926849
v 34.29985046 -25.75 141.1606293
v 34.50695801 -25.75 142.7337646
v 34.50695801 -25.75 141.3195496
v 34.6658783 -25.75 142.5266571
v 34.6658783 -25.75 141.5266571
v 34.76577759 -25.75 142.2854767
v 34.76577759 -25.75 141.7678375
v 34.79985046 -25.75 142.0266571
v 33.29985046 -25.75 141.1606293
v 33.29985046 -25.75 142.8926849
v 33.09274292 -25.75 141.3195496
v 33.09274292 -25.75 142.7337646
v 32.93382645 -25.75 141.5266571
v 32.93382645 -25.75 142.5266571
v 32.83392715 -25.75 141.7678375
v 32.83392715 -25.75 142.2854767
v 32.79985046 -25.75 142.0266571
v 34.79637146 -0.3125 141.9433136
v 32.80332947 -0.3125 141.9433136
v 34.78818512 -0.3125 142.1789398
v 32.81151581 -0.3125 142.1789398
v 32.87464142 -0.3125 142.4061127
v 34.72506332 -0.3125 142.4061127
v 32.98919678 -0.3125 142.6121674
v 34.61050797 -0.3125 142.6121674
v 33.14881134 -0.3125 142.7856903
v 34.4508934 -0.3125 142.7856903
v 33.34461594 -0.3125 142.9170227
v 34.25508499 -0.3125 142.9170227
v 33.56572723 -0.3125 142.9988556
v 34.03397751 -0.3125 142.9988556
v 33.79985046 -0.3125 143.0266571
v 34.79637146 -1.3125 141.9433136
v 34.74546432 -1.3125 141.701355
v 32.80332947 -1.3125 141.9433136
v 32.85424042 -1.3125 141.701355
v 32.96295929 -1.3125 141.4792786
v 34.63674164 -1.3125 141.4792786
v 33.12284851 -1.3125 141.2906647
v 34.47685623 -1.3125 141.2906647
v 33.3241272 -1.3125 141.1470642
v 34.27557755 -1.3125 141.1470642
v 33.55448914 -1.3125 141.0572205
v 34.04521561 -1.3125 141.0572205
v 33.79985046 -1.3125 141.0266571
vn -0.285956502 -0.07215718925 0.9555219412
vn -0.2920743823 -0.07927107066 -0.9531047344
vn 1.158138916e-14 -0.06116642058 0.9981275797
vn -2.203379129e-16 -0.06221927702 -0.9980624914
vn 0.2858467102 -0.07733147591 0.9551500082
vn 0.29219383 -0.0739665702 -0.9534944892
vn 0.5170083046 -0.06483192742 0.8535216451
vn 0.5257818699 -0.05724195391 -0.8486912251
vn 0.7155262232 -0.0458197929 0.6970816255
vn 0.7251722217 -0.03628502041 -0.6876108646
vn 0.8682694435 -0.02536795475 0.4954438806
vn 0.8767322302 -0.01672163792 -0.4806880653
vn 0.965136826 -0.008975208737 0.2615920603
vn 0.970322907 -0.003826383036 -0.2417825162
vn 0.9999203086 -0.001066203229 0.01257866342
vn -0.5254811645 -0.06645493209 -0.848205924
vn -0.5172919035 -0.05584860966 0.8539847732
vn -0.7248497009 -0.04695363715 -0.6873050332
vn -0.7158316374 -0.03541794419 0.6973741055
vn -0.8765631318 -0.02597671375 -0.4805853665
vn -0.8684351444 -0.01634453982 0.4955333471
vn -0.9702868462 -0.009172341786 -0.2417835146
vn -0.9651662707 -0.003763063578 0.2616101801
vn -0.9999237657 -0.001079758862 0.0123004131
vn 0.9566848874 0.07416525483 -0.2815200388
vn -0.05756559968 0.2285188138 -0.9718360901
vn 0.9848498106 0.09688232094 0.143821761
vn -0.9884297848 0.04908864945 0.1435160637
vn -0.9226368666 0.06731922925 0.3797490597
vn 0.9230053425 0.06116056815 0.3798954785
vn -0.8033757806 0.05370451882 0.5930457115
vn 0.8037062287 0.04536050186 0.5932948589
vn -0.635704875 0.03658794984 0.7710645795
vn 0.6358810067 0.0278790202 0.7712834477
vn -0.4294981956 0.0197089985 0.9028526545
vn 0.4295477867 0.01255423017 0.9029568434
vn -0.197294876 0.006783933844 0.9803206921
vn 0.1972986609 0.002762763994 0.9803395271
vn 1.864178565e-17 0.001092933584 0.999999404
vn 0.8966050744 0.03506231308 -0.4414408207
vn 0.9343174696 0.09393446147 -0.3438418508
vn -0.9772145152 0.05020432547 -0.2062313408
vn -0.9373944998 0.04779525846 -0.3449742198
vn -0.8208112121 0.06025481969 -0.5680125952
vn 0.8212189078 0.05133080482 -0.5682997704
vn -0.653318882 0.04170368612 -0.755933404
vn 0.6535560489 0.03196775541 -0.7562027574
vn -0.4438284039 0.02271188609 -0.8958239555
vn 0.4438961148 0.01452255249 -0.8959605694
vn -0.2057991922 0.007878468372 -0.9785625339
vn 0.2058034837 0.003218480619 -0.9785880446
vn -1.851584906e-17 0.001250673318 -0.9999992251
f 1//1 2//2 3//3 
f 3//3 2//2 4//4 
f 3//3 4//4 5//5 
f 5//5 4//4 6//6 
f 5//5 6//6 7//7 
f 7//7 6//6 8//8 
f 7//7 8//8 9//9 
f 9//9 8//8 10//10 
f 9//9 10//10 11//11 
f 11//11 10//10 12//12 
f 11//11 12//12 13//13 
f 13//13 12//12 14//14 
f 13//13 14//14 15//15 
f 2//2 1//1 16//16 
f 16//16 1//1 17//17 
f 16//16 17//17 18//18 
f 18//18 17//17 19//19 
f 18//18 19//19 20//20 
f 20//20 19//19 21//21 
f 20//20 21//21 22//22 
f 22//22 21//21 23//23 
f 22//22 23//23 24//24 
f 25//25 26//26 27//27 
f 27//27 26//26 28//28 
f 27//27 28//28 29//29 
f 27//27 29//29 30//30 
f 30//30 29//29 31//31 
f 30//30 31//31 32//32 
f 32//32 31//31 33//33 
f 32//32 33//33 34//34 
f 34//34 33//33 35//35 
f 34//34 35//35 36//36 
f 36//36 35//35 37//37 
f 36//36 37//37 38//38 
f 38//38 37//37 39//39 
f 40//40 41//41 42//42 
f 42//42 41//41 43//43 
f 43//43 41//41 44//44 
f 44//44 41//41 45//45 
f 44//44 45//45 46//46 
f 46//46 45//45 47//47 
f 46//46 47//47 48//48 
f 48//48 47//47 49//49 
f 48//48 49//49 50//50 
f 50//50 49//49 51//51 
f 50//50 51//51 52//52 
f 39//39 3//3 38//38 
f 38//38 3//3 5//5 
f 38//38 5//5 36//36 
f 36//36 5//5 7//7 
f 36//36 7//7 34//34 
f 34//34 7//7 9//9 
f 34//34 9//9 32//32 
f 32//32 9//9 11//11 
f 32//32 11//11 30//30 
f 30//30 11//11 13//13 
f 30//30 13//13 27//27 
f 27//27 13//13 15//15 
f 27//27 15//15 25//25 
f 25//25 15//15 40//40 
f 40//40 15//15 14//14 
f 40//40 14//14 41//41 
f 41//41 14//14 12//12 
f 41//41 12//12 45//45 
f 45//45 12//12 10//10 
f 45//45 10//10 47//47 
f 47//47 10//10 8//8 
f 47//47 8//8 49//49 
f 49//49 8//8 6//6 
f 49//49 6//6 51//51 
f 51//51 6//6 4//4 
f 51//51 4//4 52//52 
f 52//52 4//4 50//50 
f 50//50 4//4 2//2 
f 50//50 2//2 48//48 
f 48//48 2//2 16//16 
f 48//48 16//16 46//46 
f 46//46 16//16 18//18 
f 46//46 18//18 44//44 
f 44//44 18//18 20//20 
f 44//44 20//20 43//43 
f 43//43 20//20 22//22 
f 43//43 22//22 42//42 
f 42//42 22//22 24//24 
f 42//42 24//24 28//28 
f 28//28 24//24 23//23 
f 28//28 23//23 29//29 
f 29//29 23//23 21//21 
f 29//29 21//21 31//31 
f 31//31 21//21 19//19 
f 31//31 19//19 33//33 
f 33//33 19//19 17//17 
f 33//33 17//17 35//35 
f 35//35 17//17 1//1 
f 35//35 1//1 37//37 
f 37//37 1//1 3//3 
f 37//37 3//3 39//39 
f 28//28 26//26 42//42 
f 42//42 26//26 40//40 
f 40//40 26//26 25//25 
