v 58.2165184 -0.3125 53.27665329
v 58.72182846 -0.3125 53.32347488
v 58.2165184 -2.3125 55.02665329
v 58.47533798 -2.3125 55.06072617
v 59.20993423 -0.3125 53.46235275
v 58.7165184 -2.3125 55.16062546
v 59.66420746 -0.3125 53.68855667
v 60.06917953 -0.3125 53.99437714
v 58.92362595 -2.3125 55.31954575
v 60.41106415 -0.3125 54.36940765
v 59.08254242 -2.3125 55.52665329
v 60.67821884 -0.3125 54.8008728
v 59.18244553 -2.3125 55.76783371
v 60.86153793 -0.3125 55.27407837
v 60.95478821 -0.3125 55.77291489
v 59.2165184 -2.3125 56.02665329
v 60.95478821 -0.3125 56.28039169
v 59.18244553 -2.3125 56.28547287
v 60.86153793 -0.3125 56.7792244
v 60.67821884 -0.3125 57.25243378
v 59.08254242 -2.3125 56.52665329
v 60.41106415 -0.3125 57.68389893
v 58.92362595 -2.3125 56.73375702
v 60.06917953 -0.3125 58.05892563
v 58.7165184 -2.3125 56.89267731
v 59.66420746 -0.3125 58.36474991
v 59.20993423 -0.3125 58.59095001
v 58.47533798 -2.3125 56.9925766
v 58.72182846 -0.3125 58.72982788
v 58.2165184 -2.3125 57.02665329
v 58.2165184 -0.3125 58.77665329
v 57.71120834 -0.3125 58.72982788
v 57.95769882 -2.3125 56.9925766
v 57.22310257 -0.3125 58.59095001
v 57.7165184 -2.3125 56.89267731
v 56.76882935 -0.3125 58.36474991
v 56.36385345 -0.3125 58.05892563
v 57.50941086 -2.3125 56.73375702
v 56.02196884 -0.3125 57.68389893
v 57.35049438 -2.3125 56.52665329
v 55.75481796 -0.3125 57.25243378
v 57.25059128 -2.3125 56.28547287
v 55.57149887 -0.3125 56.7792244
v 55.4782486 -0.3125 56.28039169
v 57.2165184 -2.3125 56.02665329
v 55.4782486 -0.3125 55.77291489
v 57.25059128 -2.3125 55.76783371
v 55.57149887 -0.3125 55.27407837
v 55.75481796 -0.3125 54.8008728
v 57.35049438 -2.3125 55.52665329
v 56.02196884 -0.3125 54.36940765
v 57.50941086 -2.3125 55.31954575
v 56.36385345 -0.3125 53.99437714
v 57.7165184 -2.3125 55.16062546
v 56.76882935 -0.3125 53.68855667
v 57.22310257 -0.3125 53.46235275
v 57.95769882 -2.3125 55.06072617
v 57.71120834 -0.3125 53.32347488
v 58.2165184 -11 57.02665329
v 57.95769882 -11 56.9925766
v 57.7165184 -11 56.89267731
v 57.50941086 -11 56.73375702
v 57.35049438 -11 56.52665329
v 57.25059128 -11 56.28547287
v 57.2165184 -11 56.02665329
v 57.25059128 -11 55.76783371
v 57.35049438 -11 55.52665329
v 57.50941086 -11 55.31954575
v 57.7165184 -11 55.16062546
v 57.95769882 -11 55.06072617
v 58.2165184 -11 55.02665329
v 58.47533798 -11 56.9925766
v 58.47533798 -11 55.06072617
v 58.7165184 -11 56.89267731
v 58.7165184 -11 55.16062546
v 58.92362595 -11 56.73375702
v 58.92362595 -11 55.31954575
v 59.08254242 -11 56.52665329
v 59.08254242 -11 55.52665329
v 59.18244553 -11 56.28547287
v 59.18244553 -11 55.76783371
v 59.2165184 -11 56.02665329
v 58.2165184 -0.3125 55.02665329
v 58.2165184 -0.3125 57.02665329
vn 7.552573906e-17 1.098556205e-16 -1
vn 0.1703450531 -0.1700255126 -0.9706048965
vn 0.02911370061 -0.2640473247 -0.9640702009
vn 0.2869232595 -0.2002773285 -0.9367838502
vn 0.361491859 -0.1505604386 -0.9201386571
vn 0.5124536753 -0.2640006244 -0.8171260357
vn 0.5249727964 0.07444860786 -0.8478567004
vn 0.658860743 -0.07563168555 -0.7484533191
vn 0.7192630768 -0.2001785189 -0.6652737856
vn 0.7968848944 -0.02119527385 -0.6037592888
vn 0.862832129 -0.2002829909 -0.4641200304
vn 0.9006576538 0.04084838927 -0.4326051772
vn 0.9380422831 -0.2640713751 -0.2243723571
vn 0.9040701985 0.34130615 -0.2572297454
vn 0.3916929364 0.9192511439 -0.03942003101
vn 0.9791807532 -0.2002975941 0.03295302019
vn 0.9789734483 0.1786168367 0.09852431715
vn 0.9228041768 -0.2640241981 0.2805773318
vn 0.9040701985 0.34130615 0.2572297454
vn 0.9006581306 0.04084972292 0.4326039851
vn 0.8296816945 -0.2002381086 0.5210883021
vn 0.796882689 -0.02119495533 0.6037621498
vn 0.6728887558 -0.2002466619 0.7121250033
vn 0.6588606834 -0.07563310862 0.7484532595
vn 0.4621937573 -0.2640956342 0.8465402722
vn 0.524972856 0.07444699854 0.84785676
vn 0.3614891469 -0.1505626887 0.9201393723
vn 0.2232960612 -0.2002997845 0.9539490938
vn 0.1703507602 -0.1700263917 0.9706037641
vn -0.02911695652 -0.2640474737 0.9640700817
vn -2.334432067e-16 -2.746390511e-16 1
vn -0.1703507602 -0.1700263917 0.9706037641
vn -0.2869274318 -0.2002771646 0.9367826581
vn -0.3614891469 -0.1505626887 0.9201393723
vn -0.5124531984 -0.2640013397 0.8171260357
vn -0.5249711871 0.0744465068 0.8478578329
vn -0.6588591933 -0.07563336939 0.7484545112
vn -0.7192587852 -0.2001791149 0.6652781963
vn -0.7968841195 -0.02119455487 0.6037602425
vn -0.8628314734 -0.2002830952 0.4641212523
vn -0.9006592631 0.04085052386 0.4326015413
vn -0.9380423427 -0.2640712857 0.224372372
vn -0.9040701985 0.34130615 0.2572297454
vn -0.3916921318 0.9192515016 0.03942006826
vn -0.9791807532 -0.2002975941 -0.03295302019
vn -0.9789733291 0.1786177009 -0.09852401167
vn -0.9228041768 -0.2640242875 -0.2805773318
vn -0.9040701985 0.34130615 -0.2572297454
vn -0.9006587863 0.04084919021 -0.4326027334
vn -0.8296845555 -0.2002371699 -0.5210840702
vn -0.7968863249 -0.02119487338 -0.6037573814
vn -0.6728914976 -0.200247243 -0.7121222615
vn -0.6588592529 -0.07563195378 -0.7484546304
vn -0.4621934295 -0.2640957236 -0.846540451
vn -0.5249711275 0.07444811612 -0.8478577733
vn -0.361491859 -0.1505604386 -0.9201386571
vn -0.223288238 -0.2003000528 -0.953950882
vn -0.1703450531 -0.1700255126 -0.9706048965
vn 0.04275379702 -0.2217225134 0.9741720557
vn -0.2118246853 -0.200755015 0.9564662576
vn -0.4558686316 -0.156426847 0.8761931658
vn -0.6720611453 -0.09970151633 0.7337529659
vn -0.8423797488 -0.0459433794 0.5369223356
vn -0.9535980821 -0.01027071476 0.3009073734
vn -0.99903512 -0.002612182405 0.0438400656
vn -0.9760376215 -0.02505953237 -0.2161541581
vn -0.8848455548 -0.07143476605 -0.4603752494
vn -0.7312979102 -0.1287131757 -0.6698031425
vn -0.5286147594 -0.1809647083 -0.8293480277
vn -0.293903321 -0.2146045119 -0.9314320683
vn -0.0427490212 -0.2217225581 -0.9741722941
vn 0.293907702 -0.2146041989 0.931430757
vn 0.2118154913 -0.2007554173 -0.9564682245
vn 0.5286147594 -0.1809647083 0.8293480277
vn 0.4558686316 -0.156426847 -0.8761931658
vn 0.7312933803 -0.1287140995 0.6698079109
vn 0.6720638275 -0.0997011885 -0.7337505817
vn 0.8848445415 -0.07143507153 0.4603772461
vn 0.8423826098 -0.04594299942 -0.5369178653
vn 0.9760376215 -0.02505953237 0.2161541581
vn 0.9535980821 -0.01027071476 -0.3009073734
vn 0.99903512 -0.002612182405 -0.0438400656
vn 0 1 0
vn 0 1 0
f 1//1 2//2 3//3 
f 3//3 2//2 4//4 
f 4//4 2//2 5//5 
f 4//4 5//5 6//6 
f 6//6 5//5 7//7 
f 6//6 7//7 8//8 
f 6//6 8//8 9//9 
f 9//9 8//8 10//10 
f 9//9 10//10 11//11 
f 11//11 10//10 12//12 
f 11//11 12//12 13//13 
f 13//13 12//12 14//14 
f 13//13 14//14 15//15 
f 13//13 15//15 16//16 
f 16//16 15//15 17//17 
f 16//16 17//17 18//18 
f 18//18 17//17 19//19 
f 18//18 19//19 20//20 
f 18//18 20//20 21//21 
f 21//21 20//20 22//22 
f 21//21 22//22 23//23 
f 23//23 22//22 24//24 
f 23//23 24//24 25//25 
f 25//25 24//24 26//26 
f 25//25 26//26 27//27 
f 25//25 27//27 28//28 
f 28//28 27//27 29//29 
f 28//28 29//29 30//30 
f 30//30 29//29 31//31 
f 31//31 32//32 30//30 
f 30//30 32//32 33//33 
f 33//33 32//32 34//34 
f 33//33 34//34 35//35 
f 35//35 34//34 36//36 
f 35//35 36//36 37//37 
f 35//35 37//37 38//38 
f 38//38 37//37 39//39 
f 38//38 39//39 40//40 
f 40//40 39//39 41//41 
f 40//40 41//41 42//42 
f 42//42 41//41 43//43 
f 42//42 43//43 44//44 
f 42//42 44//44 45//45 
f 45//45 44//44 46//46 
f 45//45 46//46 47//47 
f 47//47 46//46 48//48 
f 47//47 48//48 49//49 
f 47//47 49//49 50//50 
f 50//50 49//49 51//51 
f 50//50 51//51 52//52 
f 52//52 51//51 53//53 
f 52//52 53//53 54//54 
f 54//54 53//53 55//55 
f 54//54 55//55 56//56 
f 54//54 56//56 57//57 
f 57//57 56//56 58//58 
f 57//57 58//58 3//3 
f 3//3 58//58 1//1 
f 59//59 30//30 60//60 
f 60//60 30//30 33//33 
f 60//60 33//33 61//61 
f 61//61 33//33 35//35 
f 61//61 35//35 62//62 
f 62//62 35//35 38//38 
f 62//62 38//38 63//63 
f 63//63 38//38 40//40 
f 63//63 40//40 64//64 
f 64//64 40//40 42//42 
f 64//64 42//42 65//65 
f 65//65 42//42 45//45 
f 65//65 45//45 66//66 
f 66//66 45//45 47//47 
f 66//66 47//47 67//67 
f 67//67 47//47 50//50 
f 67//67 50//50 68//68 
f 68//68 50//50 52//52 
f 68//68 52//52 69//69 
f 69//69 52//52 54//54 
f 69//69 54//54 70//70 
f 70//70 54//54 57//57 
f 70//70 57//57 71//71 
f 71//71 57//57 3//3 
f 60//60 70//70 59//59 
f 59//59 70//70 71//71 
f 59//59 71//71 72//72 
f 72//72 71//71 73//73 
f 72//72 73//73 74//74 
f 74//74 73//73 75//75 
f 74//74 75//75 76//76 
f 76//76 75//75 77//77 
f 76//76 77//77 78//78 
f 78//78 77//77 79//79 
f 78//78 79//79 80//80 
f 80//80 79//79 81//81 
f 80//80 81//81 82//82 
f 70//70 60//60 69//69 
f 69//69 60//60 61//61 
f 69//69 61//61 68//68 
f 68//68 61//61 62//62 
f 68//68 62//62 67//67 
f 67//67 62//62 63//63 
f 67//67 63//63 66//66 
f 66//66 63//63 64//64 
f 66//66 64//64 65//65 
f 1//1 58//58 83//83 
f 83//83 58//58 56//56 
f 83//83 56//56 55//55 
f 55//55 53//53 83//83 
f 83//83 53//53 51//51 
f 83//83 51//51 49//49 
f 49//49 48//48 83//83 
f 83//83 48//48 46//46 
f 83//83 46//46 44//44 
f 83//83 44//44 84//84 
f 84//84 44//44 43//43 
f 84//84 43//43 41//41 
f 41//41 39//39 84//84 
f 84//84 39//39 37//37 
f 84//84 37//37 36//36 
f 36//36 34//34 84//84 
f 84//84 34//34 32//32 
f 84//84 32//32 31//31 
f 31//31 29//29 84//84 
f 84//84 29//29 27//27 
f 84//84 27//27 26//26 
f 26//26 24//24 84//84 
f 84//84 24//24 22//22 
f 84//84 22//22 20//20 
f 20//20 19//19 84//84 
f 84//84 19//19 17//17 
f 84//84 17//17 15//15 
f 84//84 15//15 83//83 
f 83//83 15//15 14//14 
f 83//83 14//14 12//12 
f 12//12 10//10 83//83 
f 83//83 10//10 8//8 
f 83//83 8//8 7//7 
f 7//7 5//5 83//83 
f 83//83 5//5 2//2 
f 83//83 2//2 1//1 
f 71//71 3//3 73//73 
f 73//73 3//3 4//4 
f 73//73 4//4 75//75 
f 75//75 4//4 6//6 
f 75//75 6//6 77//77 
f 77//77 6//6 9//9 
f 77//77 9//9 79//79 
f 79//79 9//9 11//11 
f 79//79 11//11 81//81 
f 81//81 11//11 13//13 
f 81//81 13//13 82//82 
f 82//82 13//13 16//16 
f 82//82 16//16 80//80 
f 80//80 16//16 18//18 
f 80//80 18//18 78//78 
f 78//78 18//18 21//21 
f 78//78 21//21 76//76 
f 76//76 21//21 23//23 
f 76//76 23//23 74//74 
f 74//74 23//23 25//25 
f 74//74 25//25 72//72 
f 72//72 25//25 28//28 
f 72//72 28//28 59//59 
f 59//59 28//28 30//30 
