v 87.95770264 -11 -114.0907516
v 87.95770264 -11 -116.0226059
v 88.21651459 -11 -114.0566788
v 88.21651459 -11 -116.0566788
v 88.47533417 -11 -114.0907516
v 88.47533417 -11 -116.0226059
v 88.71651459 -11 -114.1906586
v 88.71651459 -11 -115.9227066
v 88.92362213 -11 -114.3495712
v 88.92362213 -11 -115.7637863
v 89.08254242 -11 -114.5566788
v 89.08254242 -11 -115.5566788
v 89.18244171 -11 -114.7978592
v 89.18244171 -11 -115.3154984
v 89.21651459 -11 -115.0566788
v 87.71651459 -11 -115.9227066
v 87.71651459 -11 -114.1906586
v 87.50941467 -11 -115.7637863
v 87.50941467 -11 -114.3495712
v 87.35049438 -11 -115.5566788
v 87.35049438 -11 -114.5566788
v 87.25059509 -11 -115.3154984
v 87.25059509 -11 -114.7978592
v 87.21651459 -11 -115.0566788
v 88.21651459 -0.3125 -114.0566788
v 87.95770264 -0.3125 -114.0907516
v 87.71651459 -0.3125 -114.1906586
v 87.50941467 -0.3125 -114.3495712
v 87.35049438 -0.3125 -114.5566788
v 87.25059509 -0.3125 -114.7978592
v 87.21651459 -0.3125 -115.0566788
v 87.25059509 -0.3125 -115.3154984
v 87.35049438 -0.3125 -115.5566788
v 87.50941467 -0.3125 -115.7637863
v 87.71651459 -0.3125 -115.9227066
v 87.95770264 -0.3125 -116.0226059
v 88.21651459 -0.3125 -116.0566788
v 88.47533417 -0.3125 -114.0907516
v 88.47533417 -0.3125 -116.0226059
v 88.71651459 -0.3125 -115.9227066
v 88.71651459 -0.3125 -114.1906586
v 88.92362213 -0.3125 -115.7637863
v 88.92362213 -0.3125 -114.3495712
v 89.08254242 -0.3125 -115.5566788
v 89.08254242 -0.3125 -114.5566788
v 89.18244171 -0.3125 -115.3154984
v 89.18244171 -0.3125 -114.7978592
v 89.21651459 -0.3125 -115.0566788
vn -0.2132897377 -0.1643171608 0.9630718231
vn -0.2962239683 -0.1758204252 -0.9387963414
vn 0.04311046004 -0.1817510128 0.982399106
vn -0.04311085492 -0.1817544252 -0.98239851
vn 0.296244204 -0.1758227646 0.9387894869
vn 0.2132785469 -0.1643144488 -0.9630748034
vn 0.5315689445 -0.1479246318 0.8339980841
vn 0.4577726424 -0.1276849508 -0.8798527122
vn 0.7333523035 -0.1049225405 0.6717035174
vn 0.6731973886 -0.08118162304 -0.7349931002
vn 0.8856144547 -0.05811803415 0.4607703984
vn 0.8426821232 -0.03735852242 -0.5371137261
vn 0.9761426449 -0.02037152462 0.2161725014
vn 0.9536179304 -0.008348646574 -0.300903827
vn 0.9990363121 -0.0021233554 -0.04384011403
vn -0.5315800309 -0.1479267925 -0.8339905739
vn -0.4577764869 -0.1276820302 0.8798511028
vn -0.7333618999 -0.1049196348 -0.6716935635
vn -0.673196435 -0.08118257672 0.7349938154
vn -0.8856144547 -0.05811803415 -0.4607703984
vn -0.8426821232 -0.03735852242 0.5371137261
vn -0.9761384726 -0.02037191391 -0.2161912173
vn -0.953615129 -0.008349097334 0.3009127378
vn -0.9990358949 -0.002123829909 0.04384991154
vn -0.04311085492 0.1817544252 0.98239851
vn -0.2962416112 0.1758194268 0.938790977
vn -0.5315730572 0.1479275525 0.833994925
vn -0.7333573699 0.1049203873 0.6716983914
vn -0.8856144547 0.05811803415 0.4607703984
vn -0.9761384726 0.02037191391 0.2161912173
vn -0.9990358949 0.002123829909 -0.04384991154
vn -0.953615129 0.008349097334 -0.3009127378
vn -0.8426821232 0.03735852242 -0.5371137261
vn -0.6732071638 0.08118150383 -0.7349841595
vn -0.4577687979 0.1276825964 -0.8798550367
vn -0.2132804841 0.1643175036 -0.9630738497
vn 0.04311046004 0.1817510128 -0.982399106
vn 0.2132878006 0.1643141061 0.9630727768
vn 0.2962265611 0.1758237779 -0.9387948513
vn 0.5315758586 0.1479238719 -0.8339937925
vn 0.4577803314 0.1276843846 0.8798487782
vn 0.7333568335 0.104921788 -0.6716986895
vn 0.6731866598 0.08118269593 0.7350027561
vn 0.8856144547 0.05811803415 -0.4607703984
vn 0.8426821232 0.03735852242 0.5371137261
vn 0.9761426449 0.02037152462 -0.2161725014
vn 0.9536179304 0.008348646574 0.300903827
vn 0.9990363121 0.0021233554 0.04384011403
f 1//1 2//2 3//3 
f 3//3 2//2 4//4 
f 3//3 4//4 5//5 
f 5//5 4//4 6//6 
f 5//5 6//6 7//7 
f 7//7 6//6 8//8 
f 7//7 8//8 9//9 
f 9//9 8//8 10//10 
f 9//9 10//10 11//11 
f 11//11 10//10 12//12 
f 11//11 12//12 13//13 
f 13//13 12//12 14//14 
f 13//13 14//14 15//15 
f 2//2 1//1 16//16 
f 16//16 1//1 17//17 
f 16//16 17//17 18//18 
f 18//18 17//17 19//19 
f 18//18 19//19 20//20 
f 20//20 19//19 21//21 
f 20//20 21//21 22//22 
f 22//22 21//21 23//23 
f 22//22 23//23 24//24 
f 3//3 25//25 1//1 
f 1//1 25//25 26//26 
f 1//1 26//26 17//17 
f 17//17 26//26 27//27 
f 17//17 27//27 19//19 
f 19//19 27//27 28//28 
f 19//19 28//28 21//21 
f 21//21 28//28 29//29 
f 21//21 29//29 23//23 
f 23//23 29//29 30//30 
f 23//23 30//30 24//24 
f 24//24 30//30 31//31 
f 24//24 31//31 22//22 
f 22//22 31//31 32//32 
f 22//22 32//32 20//20 
f 20//20 32//32 33//33 
f 20//20 33//33 18//18 
f 18//18 33//33 34//34 
f 18//18 34//34 16//16 
f 16//16 34//34 35//35 
f 16//16 35//35 2//2 
f 2//2 35//35 36//36 
f 2//2 36//36 4//4 
f 4//4 36//36 37//37 
f 38//38 39//39 25//25 
f 25//25 39//39 37//37 
f 25//25 37//37 26//26 
f 26//26 37//37 36//36 
f 26//26 36//36 27//27 
f 27//27 36//36 35//35 
f 27//27 35//35 28//28 
f 28//28 35//35 34//34 
f 28//28 34//34 29//29 
f 29//29 34//34 33//33 
f 29//29 33//33 30//30 
f 30//30 33//33 32//32 
f 30//30 32//32 31//31 
f 39//39 38//38 40//40 
f 40//40 38//38 41//41 
f 40//40 41//41 42//42 
f 42//42 41//41 43//43 
f 42//42 43//43 44//44 
f 44//44 43//43 45//45 
f 44//44 45//45 46//46 
f 46//46 45//45 47//47 
f 46//46 47//47 48//48 
f 4//4 37//37 6//6 
f 6//6 37//37 39//39 
f 6//6 39//39 8//8 
f 8//8 39//39 40//40 
f 8//8 40//40 10//10 
f 10//10 40//40 42//42 
f 10//10 42//42 12//12 
f 12//12 42//42 44//44 
f 12//12 44//44 14//14 
f 14//14 44//44 46//46 
f 14//14 46//46 15//15 
f 15//15 46//46 48//48 
f 15//15 48//48 13//13 
f 13//13 48//48 47//47 
f 13//13 47//47 11//11 
f 11//11 47//47 45//45 
f 11//11 45//45 9//9 
f 9//9 45//45 43//43 
f 9//9 43//43 7//7 
f 7//7 43//43 41//41 
f 7//7 41//41 5//5 
f 5//5 41//41 38//38 
f 5//5 38//38 3//3 
f 3//3 38//38 25//25 
