v 13.29985142 -25.75 85.52664948
v 13.29985142 -25.75 82.52664948
v 16.29985046 -25.75 85.52664948
v 16.29985046 -25.75 82.52664948
v 13.29985142 -0.3125 82.52664948
v 13.29985142 -0.3125 85.52664948
v 16.29985046 -0.3125 85.52664948
v 16.29985046 -0.3125 82.52664948
vn -0.4465929866 -0.05266942456 0.8931856751
vn -0.8894922137 -0.1049032211 -0.4447459579
vn 0.8894922137 -0.1049032211 0.4447459579
vn 0.4465929866 -0.05266942456 -0.8931856751
vn -0.4465929866 0.05266942456 -0.8931856751
vn -0.8894922137 0.1049032211 0.4447459579
vn 0.4465929866 0.05266942456 0.8931856751
vn 0.8894922137 0.1049032211 -0.4447459579
f 1//1 2//2 3//3 
f 3//3 2//2 4//4 
f 5//5 2//2 6//6 
f 6//6 2//2 1//1 
f 7//7 3//3 8//8 
f 8//8 3//3 4//4 
f 8//8 4//4 5//5 
f 5//5 4//4 2//2 
f 6//6 1//1 7//7 
f 7//7 1//1 3//3 
f 7//7 8//8 6//6 
f 6//6 8//8 5//5 
