v -13.94132996 -11 -0.9392737746
v -13.70014858 -11 -0.8393733501
v -14.20014858 -11 -0.9733479619
v -13.49304199 -11 -0.680454731
v -13.33412361 -11 -0.4733479619
v -16.20014954 -11 -0.9733479619
v -13.23422337 -11 -0.2321669906
v -17.16607475 -11 -0.2321669906
v -13.20014858 -11 0.026652053
v -17.20014954 -11 0.026652053
v -17.16607475 -11 0.2854711115
v -13.23422337 -11 0.2854711115
v -16.20014954 -11 1.026652098
v -13.33412361 -11 0.5266520381
v -14.20014858 -11 1.026652098
v -13.49304199 -11 0.7337588072
v -13.70014858 -11 0.8926774859
v -13.94132996 -11 0.9925778508
v -16.45896721 -11 0.9925778508
v -16.70014954 -11 0.8926774859
v -16.90725517 -11 0.7337588072
v -17.06617355 -11 0.5266520381
v -17.06617355 -11 -0.4733479619
v -16.90725517 -11 -0.680454731
v -16.70014954 -11 -0.8393733501
v -16.45896721 -11 -0.9392737746
v -16.20014954 -0.3125 1.026652098
v -14.20014858 -0.3125 1.026652098
v -14.20014858 -0.3125 -0.9733479619
v -16.20014954 -0.3125 -0.9733479619
v -16.45896721 -0.3125 0.9925778508
v -16.70014954 -0.3125 0.8926774859
v -16.90725517 -0.3125 0.7337588072
v -17.06617355 -0.3125 0.5266520381
v -17.16607475 -0.3125 0.2854711115
v -17.20014954 -0.3125 0.026652053
v -17.16607475 -0.3125 -0.2321669906
v -17.06617355 -0.3125 -0.4733479619
v -16.90725517 -0.3125 -0.680454731
v -16.70014954 -0.3125 -0.8393733501
v -16.45896721 -0.3125 -0.9392737746
v -13.94132996 -0.3125 -0.9392737746
v -13.70014858 -0.3125 -0.8393733501
v -13.49304199 -0.3125 -0.680454731
v -13.33412361 -0.3125 -0.4733479619
v -13.23422337 -0.3125 -0.2321669906
v -13.20014858 -0.3125 0.026652053
v -13.23422337 -0.3125 0.2854711115
v -13.33412361 -0.3125 0.5266520381
v -13.49304199 -0.3125 0.7337588072
v -13.70014858 -0.3125 0.8926774859
v -13.94132996 -0.3125 0.9925778508
vn 0.2162217498 -0.002123430138 -0.9763419628
vn 0.4615345597 -0.008348752744 -0.8870829344
vn 0.007997956127 -0.02567942068 -0.9996382594
vn 0.6753138304 -0.01824955083 -0.7373046875
vn 0.8253341913 -0.2051610947 -0.5260536075
vn -0.02662382834 -0.1785190552 -0.9835761786
vn 0.8354066014 -0.4822933376 -0.2636076212
vn -0.8308663368 -0.5251692533 -0.1840066016
vn 0.8956002593 -0.4431200922 -0.03930337355
vn -0.9693753123 -0.2418714762 0.04254098609
vn -0.811553359 -0.5251691937 0.2560829818
vn 0.8552868366 -0.482293278 0.1894138008
vn -0.00795495417 -0.1066795141 0.9942616224
vn 0.8682435155 -0.2051610947 0.4517324269
vn 0.02703301795 -0.0433980301 0.9986920357
vn 0.7373054624 -0.0182495527 0.6753129363
vn 0.537468791 -0.008348758332 0.8432422876
vn 0.300917387 -0.002123424318 0.9536478519
vn -0.2162220925 -0.002123413607 0.9763419032
vn -0.4615339935 -0.008348743431 0.8870832324
vn -0.6753151417 -0.01824957691 0.7373034954
vn -0.8428624868 -0.03114386275 0.5372270942
vn -0.8866826892 -0.03114384785 -0.4613284171
vn -0.7373060584 -0.01824955828 -0.6753123403
vn -0.5374692678 -0.008348766714 -0.8432419896
vn -0.3009171188 -0.002123409882 -0.9536479115
vn -0.0266238749 0.1785190552 0.9835761786
vn 0.007997970097 0.02567942441 0.9996382594
vn 0.02703297138 0.04339802638 -0.9986920357
vn -0.007954941131 0.1066795141 -0.9942616224
vn -0.3009170294 0.00212340639 0.9536479712
vn -0.5374693274 0.008348766714 0.84324193
vn -0.737306118 0.01824956015 0.6753122807
vn -0.8866826296 0.03114384599 0.4613284469
vn -0.8308663368 0.5251692533 0.1840066165
vn -0.9693753123 0.2418714762 -0.04254098609
vn -0.8115534186 0.5251691341 -0.256082952
vn -0.8428624868 0.03114386648 -0.5372270346
vn -0.6753150821 0.01824957691 -0.737303555
vn -0.4615340531 0.008348743431 -0.8870832324
vn -0.216222018 0.0021234171 -0.9763419032
vn 0.3009174764 0.00212342781 -0.9536478519
vn 0.5374687314 0.008348758332 -0.8432423472
vn 0.7373054624 0.01824955083 -0.6753129959
vn 0.8682435155 0.2051610649 -0.4517323673
vn 0.8552868366 0.482293278 -0.1894138008
vn 0.8956002593 0.4431200922 0.03930337355
vn 0.8354065418 0.4822933674 0.2636076212
vn 0.8253341913 0.2051611096 0.5260536075
vn 0.67531389 0.0182495527 0.7373046279
vn 0.4615345001 0.008348752744 0.887082994
vn 0.2162218243 0.002123426413 0.9763419628
f 1//1 2//2 3//3 
f 3//3 2//2 4//4 
f 3//3 4//4 5//5 
f 3//3 5//5 6//6 
f 6//6 5//5 7//7 
f 6//6 7//7 8//8 
f 8//8 7//7 9//9 
f 8//8 9//9 10//10 
f 10//10 9//9 11//11 
f 11//11 9//9 12//12 
f 11//11 12//12 13//13 
f 13//13 12//12 14//14 
f 13//13 14//14 15//15 
f 15//15 14//14 16//16 
f 15//15 16//16 17//17 
f 17//17 18//18 15//15 
f 19//19 20//20 13//13 
f 13//13 20//20 21//21 
f 13//13 21//21 22//22 
f 22//22 11//11 13//13 
f 8//8 23//23 6//6 
f 6//6 23//23 24//24 
f 6//6 24//24 25//25 
f 25//25 26//26 6//6 
f 27//27 13//13 28//28 
f 28//28 13//13 15//15 
f 29//29 3//3 30//30 
f 30//30 3//3 6//6 
f 13//13 27//27 19//19 
f 19//19 27//27 31//31 
f 19//19 31//31 20//20 
f 20//20 31//31 32//32 
f 20//20 32//32 21//21 
f 21//21 32//32 33//33 
f 21//21 33//33 22//22 
f 22//22 33//33 34//34 
f 22//22 34//34 11//11 
f 11//11 34//34 35//35 
f 11//11 35//35 10//10 
f 10//10 35//35 36//36 
f 10//10 36//36 8//8 
f 8//8 36//36 37//37 
f 8//8 37//37 23//23 
f 23//23 37//37 38//38 
f 23//23 38//38 24//24 
f 24//24 38//38 39//39 
f 24//24 39//39 25//25 
f 25//25 39//39 40//40 
f 25//25 40//40 26//26 
f 26//26 40//40 41//41 
f 26//26 41//41 6//6 
f 6//6 41//41 30//30 
f 3//3 29//29 1//1 
f 1//1 29//29 42//42 
f 1//1 42//42 2//2 
f 2//2 42//42 43//43 
f 2//2 43//43 4//4 
f 4//4 43//43 44//44 
f 4//4 44//44 5//5 
f 5//5 44//44 45//45 
f 5//5 45//45 7//7 
f 7//7 45//45 46//46 
f 7//7 46//46 9//9 
f 9//9 46//46 47//47 
f 9//9 47//47 12//12 
f 12//12 47//47 48//48 
f 12//12 48//48 14//14 
f 14//14 48//48 49//49 
f 14//14 49//49 16//16 
f 16//16 49//49 50//50 
f 16//16 50//50 17//17 
f 17//17 50//50 51//51 
f 17//17 51//51 18//18 
f 18//18 51//51 52//52 
f 18//18 52//52 15//15 
f 15//15 52//52 28//28 
f 30//30 45//45 29//29 
f 29//29 45//45 44//44 
f 29//29 44//44 43//43 
f 41//41 40//40 30//30 
f 30//30 40//40 39//39 
f 30//30 39//39 38//38 
f 38//38 37//37 30//30 
f 30//30 37//37 46//46 
f 30//30 46//46 45//45 
f 46//46 37//37 47//47 
f 47//47 37//37 36//36 
f 47//47 36//36 35//35 
f 34//34 27//27 35//35 
f 35//35 27//27 48//48 
f 35//35 48//48 47//47 
f 34//34 33//33 27//27 
f 27//27 33//33 32//32 
f 27//27 32//32 31//31 
f 48//48 27//27 49//49 
f 49//49 27//27 28//28 
f 49//49 28//28 50//50 
f 50//50 28//28 51//51 
f 51//51 28//28 52//52 
f 43//43 42//42 29//29 
