v 16.05867004 -11 -0.9392737746
v 16.29985046 -11 -0.8393733501
v 15.79985142 -11 -0.9733479619
v 16.50695801 -11 -0.680454731
v 16.66587639 -11 -0.4733479619
v 13.79985142 -11 -0.9733479619
v 16.76577759 -11 -0.2321669906
v 12.83392525 -11 -0.2321669906
v 16.79985046 -11 0.026652053
v 12.79985142 -11 0.026652053
v 12.83392525 -11 0.2854711115
v 16.76577759 -11 0.2854711115
v 13.79985142 -11 1.026652098
v 16.66587639 -11 0.5266520381
v 15.79985142 -11 1.026652098
v 16.50695801 -11 0.7337588072
v 16.29985046 -11 0.8926774859
v 16.05867004 -11 0.9925778508
v 13.54103184 -11 0.9925778508
v 13.29985142 -11 0.8926774859
v 13.09274483 -11 0.7337588072
v 12.93382549 -11 0.5266520381
v 12.93382549 -11 -0.4733479619
v 13.09274483 -11 -0.680454731
v 13.29985142 -11 -0.8393733501
v 13.54103184 -11 -0.9392737746
v 13.79985142 -0.3125 1.026652098
v 15.79985142 -0.3125 1.026652098
v 15.79985142 -0.3125 -0.9733479619
v 13.79985142 -0.3125 -0.9733479619
v 13.54103184 -0.3125 0.9925778508
v 13.29985142 -0.3125 0.8926774859
v 13.09274483 -0.3125 0.7337588072
v 12.93382549 -0.3125 0.5266520381
v 12.83392525 -0.3125 0.2854711115
v 12.79985142 -0.3125 0.026652053
v 12.83392525 -0.3125 -0.2321669906
v 12.93382549 -0.3125 -0.4733479619
v 13.09274483 -0.3125 -0.680454731
v 13.29985142 -0.3125 -0.8393733501
v 13.54103184 -0.3125 -0.9392737746
v 16.05867004 -0.3125 -0.9392737746
v 16.29985046 -0.3125 -0.8393733501
v 16.50695801 -0.3125 -0.680454731
v 16.66587639 -0.3125 -0.4733479619
v 16.76577759 -0.3125 -0.2321669906
v 16.79985046 -0.3125 0.026652053
v 16.76577759 -0.3125 0.2854711115
v 16.66587639 -0.3125 0.5266520381
v 16.50695801 -0.3125 0.7337588072
v 16.29985046 -0.3125 0.8926774859
v 16.05867004 -0.3125 0.9925778508
vn 0.216222018 -0.002123436425 -0.9763419032
vn 0.4615350664 -0.008348732255 -0.887082696
vn 0.007997959852 -0.02567941695 -0.9996382594
vn 0.6753126383 -0.01824948564 -0.73730582
vn 0.8253337145 -0.2051608264 -0.5260545015
vn -0.0266238004 -0.1785188764 -0.9835762382
vn 0.8354066014 -0.4822933674 -0.2636075914
vn -0.8308667541 -0.5251696706 -0.1840035617
vn 0.8956003785 -0.4431200922 -0.03930117562
vn -0.9693753719 -0.2418713719 0.04253979772
vn -0.8115539551 -0.5251696706 0.2560800314
vn 0.8552873731 -0.4822936058 0.1894106865
vn -0.00795495417 -0.1066795215 0.9942616224
vn 0.8682425618 -0.205160737 0.4517343342
vn 0.02703302912 -0.04339801893 0.9986920357
vn 0.7373048663 -0.01824950427 0.675313592
vn 0.5374682546 -0.008348720148 0.8432426453
vn 0.3009181023 -0.002123433165 0.9536476135
vn -0.216221571 -0.002123439219 0.9763420224
vn -0.4615354836 -0.008348786272 0.8870824575
vn -0.6753132939 -0.01824950241 0.7373051643
vn -0.8428618908 -0.03114394471 0.5372279286
vn -0.886683166 -0.03114396892 -0.4613274336
vn -0.7373042107 -0.0182494875 -0.6753143072
vn -0.5374692678 -0.008348782547 -0.8432419896
vn -0.3009178042 -0.002123445738 -0.9536477327
vn -0.02662384696 0.1785188764 0.9835762382
vn 0.007997973822 0.02567941882 0.9996382594
vn 0.0270329807 0.0433980152 -0.9986920357
vn -0.007954941131 0.1066795215 -0.9942616224
vn -0.3009177446 0.002123442246 0.9536477327
vn -0.5374693274 0.008348782547 0.84324193
vn -0.7373042703 0.01824948937 0.6753143072
vn -0.886683166 0.0311439652 0.4613274932
vn -0.8308667541 0.5251696706 0.1840035766
vn -0.9693753719 0.2418713868 -0.04253979772
vn -0.8115539551 0.5251696706 -0.2560800016
vn -0.8428619504 0.0311439503 -0.5372279286
vn -0.6753132343 0.01824950054 -0.7373052239
vn -0.461535573 0.008348786272 -0.8870823979
vn -0.2162214965 0.002123442944 -0.9763420224
vn 0.3009181619 0.002123436658 -0.9536476135
vn 0.537468195 0.008348720148 -0.8432427049
vn 0.7373048067 0.01824950241 -0.6753136516
vn 0.8682426214 0.2051607072 -0.4517343044
vn 0.8552873731 0.482293576 -0.1894106865
vn 0.8956003785 0.4431200922 0.03930117562
vn 0.8354065418 0.4822933972 0.2636076212
vn 0.8253336549 0.2051608413 0.5260545015
vn 0.6753126979 0.01824948564 0.7373057008
vn 0.4615350068 0.008348732255 0.887082696
vn 0.2162220925 0.002123432932 0.9763419032
f 1//1 2//2 3//3 
f 3//3 2//2 4//4 
f 3//3 4//4 5//5 
f 3//3 5//5 6//6 
f 6//6 5//5 7//7 
f 6//6 7//7 8//8 
f 8//8 7//7 9//9 
f 8//8 9//9 10//10 
f 10//10 9//9 11//11 
f 11//11 9//9 12//12 
f 11//11 12//12 13//13 
f 13//13 12//12 14//14 
f 13//13 14//14 15//15 
f 15//15 14//14 16//16 
f 15//15 16//16 17//17 
f 17//17 18//18 15//15 
f 19//19 20//20 13//13 
f 13//13 20//20 21//21 
f 13//13 21//21 22//22 
f 22//22 11//11 13//13 
f 8//8 23//23 6//6 
f 6//6 23//23 24//24 
f 6//6 24//24 25//25 
f 25//25 26//26 6//6 
f 27//27 13//13 28//28 
f 28//28 13//13 15//15 
f 29//29 3//3 30//30 
f 30//30 3//3 6//6 
f 13//13 27//27 19//19 
f 19//19 27//27 31//31 
f 19//19 31//31 20//20 
f 20//20 31//31 32//32 
f 20//20 32//32 21//21 
f 21//21 32//32 33//33 
f 21//21 33//33 22//22 
f 22//22 33//33 34//34 
f 22//22 34//34 11//11 
f 11//11 34//34 35//35 
f 11//11 35//35 10//10 
f 10//10 35//35 36//36 
f 10//10 36//36 8//8 
f 8//8 36//36 37//37 
f 8//8 37//37 23//23 
f 23//23 37//37 38//38 
f 23//23 38//38 24//24 
f 24//24 38//38 39//39 
f 24//24 39//39 25//25 
f 25//25 39//39 40//40 
f 25//25 40//40 26//26 
f 26//26 40//40 41//41 
f 26//26 41//41 6//6 
f 6//6 41//41 30//30 
f 3//3 29//29 1//1 
f 1//1 29//29 42//42 
f 1//1 42//42 2//2 
f 2//2 42//42 43//43 
f 2//2 43//43 4//4 
f 4//4 43//43 44//44 
f 4//4 44//44 5//5 
f 5//5 44//44 45//45 
f 5//5 45//45 7//7 
f 7//7 45//45 46//46 
f 7//7 46//46 9//9 
f 9//9 46//46 47//47 
f 9//9 47//47 12//12 
f 12//12 47//47 48//48 
f 12//12 48//48 14//14 
f 14//14 48//48 49//49 
f 14//14 49//49 16//16 
f 16//16 49//49 50//50 
f 16//16 50//50 17//17 
f 17//17 50//50 51//51 
f 17//17 51//51 18//18 
f 18//18 51//51 52//52 
f 18//18 52//52 15//15 
f 15//15 52//52 28//28 
f 30//30 45//45 29//29 
f 29//29 45//45 44//44 
f 29//29 44//44 43//43 
f 41//41 40//40 30//30 
f 30//30 40//40 39//39 
f 30//30 39//39 38//38 
f 38//38 37//37 30//30 
f 30//30 37//37 46//46 
f 30//30 46//46 45//45 
f 46//46 37//37 47//47 
f 47//47 37//37 36//36 
f 47//47 36//36 35//35 
f 34//34 27//27 35//35 
f 35//35 27//27 48//48 
f 35//35 48//48 47//47 
f 34//34 33//33 27//27 
f 27//27 33//33 32//32 
f 27//27 32//32 31//31 
f 48//48 27//27 49//49 
f 49//49 27//27 28//28 
f 49//49 28//28 50//50 
f 50//50 28//28 51//51 
f 51//51 28//28 52//52 
f 43//43 42//42 29//29 
