v 57.2165184 -11 -205.2233429
v 57.2165184 -11 -207.2233429
v 59.2165184 -11 -205.2233429
v 59.2165184 -11 -207.2233429
v 57.2165184 -0.3125 -207.2233429
v 57.2165184 -0.3125 -205.2233429
v 59.2165184 -0.3125 -205.2233429
v 59.2165184 -0.3125 -207.2233429
vn -0.4456556737 -0.08339755237 0.8913113475
vn -0.8821555376 -0.1650817394 -0.4410777688
vn 0.8821555376 -0.1650817394 0.4410777688
vn 0.4456556737 -0.08339755237 -0.8913113475
vn -0.4456556737 0.08339755237 -0.8913113475
vn -0.8821555376 0.1650817394 0.4410777688
vn 0.4456556737 0.08339755237 0.8913113475
vn 0.8821555376 0.1650817394 -0.4410777688
f 1//1 2//2 3//3 
f 3//3 2//2 4//4 
f 5//5 2//2 6//6 
f 6//6 2//2 1//1 
f 7//7 3//3 8//8 
f 8//8 3//3 4//4 
f 8//8 4//4 5//5 
f 5//5 4//4 2//2 
f 6//6 1//1 7//7 
f 7//7 1//1 3//3 
f 7//7 8//8 6//6 
f 6//6 8//8 5//5 
