v -47.7834816 -24.91666603 -57.97334671
v -47.7834816 -24.25 -57.97334671
v -35.0334816 -24.91666603 -57.97334671
v -35.0334816 -24.25 -57.97334671
v -35.0334816 -24.91666603 -28.30668068
v -35.0334816 -24.25 -28.30668068
v -26.86681557 -24.91666603 -28.30668068
v -26.86681557 -24.25 -28.30668068
v -45.95014954 -24.91666603 -45.97334671
v -45.95014954 -24.25 -45.97334671
v -47.7834816 -24.91666603 -45.97334671
v -47.7834816 -24.25 -45.97334671
v -26.86681557 -24.91666603 -25.72334862
v -47.7834816 -24.91666603 -25.72334862
v -45.95014954 -24.91666603 -30.97334862
v -47.7834816 -24.91666603 -30.97334862
v -45.95014954 -24.25 -30.97334862
v -26.86681557 -24.25 -25.72334862
v -47.7834816 -24.25 -25.72334862
v -47.7834816 -24.25 -30.97334862
vn -0.09094241261 -0.9946835041 -0.0483131595
vn -0.04545303807 0.9942861199 -0.09658771008
vn 0.04141299054 -0.9985077977 -0.03559656069
vn 0.08265280724 0.996420145 -0.01776106842
vn 0.06316566467 -0.997965157 -0.008694149554
vn 0.03162659705 0.9993480444 -0.01741239429
vn 0.07235030085 -0.8862919211 -0.4574407935
vn 0.1561468542 0.9564003348 -0.2468128651
vn -0.03016979247 -0.9995430708 0.001843708451
vn -0.01508997101 0.9998793602 0.003688657423
vn -0.3398949206 -0.9347112775 0.1038567126
vn -0.5875788331 0.8079211116 0.04488446191
vn 0.04502972215 -0.982211709 0.1822978258
vn -0.02713987231 -0.9759591222 0.2162573785
vn -0.04240855947 -0.9990465641 -0.01036653016
vn -0.5850943327 -0.8045048714 -0.1021592543
vn -0.08459261805 0.996402204 -0.005169545766
vn 0.02148489095 0.9372792244 0.3479167819
vn -0.05519432202 0.992403388 0.1099505872
vn -0.332406044 0.9141168594 -0.2321564406
f 1//1 2//2 3//3 
f 3//3 2//2 4//4 
f 3//3 4//4 5//5 
f 5//5 4//4 6//6 
f 5//5 6//6 7//7 
f 7//7 6//6 8//8 
f 9//9 10//10 11//11 
f 11//11 10//10 12//12 
f 7//7 13//13 5//5 
f 5//5 13//13 14//14 
f 5//5 14//14 15//15 
f 15//15 14//14 16//16 
f 15//15 9//9 5//5 
f 5//5 9//9 3//3 
f 3//3 9//9 1//1 
f 1//1 9//9 11//11 
f 11//11 12//12 1//1 
f 1//1 12//12 2//2 
f 15//15 17//17 9//9 
f 9//9 17//17 10//10 
f 8//8 6//6 18//18 
f 18//18 6//6 19//19 
f 19//19 6//6 17//17 
f 19//19 17//17 20//20 
f 17//17 6//6 10//10 
f 10//10 6//6 4//4 
f 10//10 4//4 2//2 
f 2//2 12//12 10//10 
f 16//16 20//20 15//15 
f 15//15 20//20 17//17 
f 14//14 19//19 16//16 
f 16//16 19//19 20//20 
f 13//13 18//18 14//14 
f 14//14 18//18 19//19 
f 7//7 8//8 13//13 
f 13//13 8//8 18//18 
