v 59.2165184 -2.479166746 125.2183762
v 59.2165184 -10.33333302 125.2183762
v 59.2165184 -2.479166746 124.551712
v 59.2165184 -10.33333302 124.551712
v 54.38318634 -10.33333302 125.2183762
v 54.38318634 -2.479166746 125.2183762
v 54.38318634 -10.33333302 124.551712
v 54.38318634 -2.479166746 124.551712
vn 0.06874026358 0.04230169207 0.996737361
vn 0.2624372244 -0.1614997834 0.9513382912
vn 0.2624372244 0.1614997834 -0.9513382912
vn 0.06874026358 -0.04230169207 -0.996737361
vn -0.06874026358 -0.04230169207 0.996737361
vn -0.2624372244 0.1614997834 0.9513382912
vn -0.2624372244 -0.1614997834 -0.9513382912
vn -0.06874026358 0.04230169207 -0.996737361
f 1//1 2//2 3//3 
f 3//3 2//2 4//4 
f 2//2 1//1 5//5 
f 5//5 1//1 6//6 
f 5//5 7//7 2//2 
f 2//2 7//7 4//4 
f 1//1 3//3 6//6 
f 6//6 3//3 8//8 
f 7//7 8//8 4//4 
f 4//4 8//8 3//3 
f 5//5 6//6 7//7 
f 7//7 6//6 8//8 
