v -31.3772316 -2.479166746 -1.973347902
v -31.3772316 -11 -1.973347902
v -31.3772316 -2.479166746 -2.640014648
v -31.3772316 -11 -2.640014648
v -46.71056366 -11 -1.973347902
v -46.71056366 -2.479166746 -1.973347902
v -46.71056366 -11 -2.640014648
v -46.71056366 -2.479166746 -2.640014648
vn 0.02171739563 0.03908069059 0.9990000129
vn 0.08559580147 -0.1540305763 0.9843515158
vn 0.08559580147 0.1540305763 -0.9843515158
vn 0.02171739563 -0.03908069059 -0.9990000129
vn -0.02171739563 -0.03908069059 0.9990000129
vn -0.08559580147 0.1540305763 0.9843515158
vn -0.08559580147 -0.1540305763 -0.9843515158
vn -0.02171739563 0.03908069059 -0.9990000129
f 1//1 2//2 3//3 
f 3//3 2//2 4//4 
f 2//2 1//1 5//5 
f 5//5 1//1 6//6 
f 5//5 7//7 2//2 
f 2//2 7//7 4//4 
f 1//1 3//3 6//6 
f 6//6 3//3 8//8 
f 7//7 8//8 4//4 
f 4//4 8//8 3//3 
f 5//5 6//6 7//7 
f 7//7 6//6 8//8 
