v -30.71056557 -2.479166746 -18.30668068
v -30.71056557 -11 -18.30668068
v -31.3772316 -2.479166746 -18.30668068
v -31.3772316 -11 -18.30668068
v -30.71056557 -11 -1.973347902
v -30.71056557 -2.479166746 -1.973347902
v -31.3772316 -11 -1.973347902
v -31.3772316 -2.479166746 -1.973347902
vn 0.9967469573 0.07798501849 -0.02034175582
vn 0.9936680198 -0.07774411887 -0.08111567795
vn -0.9936680198 0.07774411887 -0.08111567795
vn -0.9967469573 -0.07798501849 -0.02034175582
vn 0.9967469573 -0.07798501849 0.02034175582
vn 0.9936680198 0.07774411887 0.08111567795
vn -0.9936680198 -0.07774411887 0.08111567795
vn -0.9967469573 0.07798501849 0.02034175582
f 1//1 2//2 3//3 
f 3//3 2//2 4//4 
f 2//2 1//1 5//5 
f 5//5 1//1 6//6 
f 2//2 5//5 4//4 
f 4//4 5//5 7//7 
f 6//6 1//1 8//8 
f 8//8 1//1 3//3 
f 7//7 8//8 4//4 
f 4//4 8//8 3//3 
f 5//5 6//6 7//7 
f 7//7 6//6 8//8 
