v -49.21489334 -11 192.0322113
v -49.40891647 -11 193.4994507
v -50.36793518 -11 191.8544312
v -50.56853485 -11 193.3714142
v -49.53968048 -11 194.9736938
v -50.70373154 -11 194.8956299
v -49.60693741 -11 196.4521942
v -50.77326965 -11 196.4242401
v -49.61057281 -11 197.9322052
v -50.77702713 -11 197.9544373
v -49.21489334 -2.5 192.0322113
v -49.40891647 -2.5 193.4994507
v -49.53968048 -2.5 194.9736938
v -49.60693741 -2.5 196.4521942
v -49.61057281 -2.5 197.9322052
v -50.36793518 -2.5 191.8544312
v -50.77702713 -2.5 197.9544373
v -50.77326965 -2.5 196.4242401
v -50.70373154 -2.5 194.8956299
v -50.56853485 -2.5 193.3714142
vn 0.651638329 -0.07260398567 -0.7550470829
vn 0.9837160707 -0.1374842674 0.115761891
vn -0.8713681102 -0.1260195374 -0.4741694927
vn -0.9856797457 -0.1345174611 -0.1016880944
vn 0.9877835512 -0.1374839991 0.07336103916
vn -0.9891402721 -0.1345177442 -0.05921601504
vn 0.990024209 -0.1374839097 0.03082505241
vn -0.9907715917 -0.1345170885 -0.01663585007
vn 0.922891736 -0.1278295815 0.3632223308
vn -0.5362420678 -0.07578721642 0.8406549692
vn 0.9691504836 0.06324239075 -0.2382179052
vn 0.9852746725 0.1374836862 0.1016464904
vn 0.9887338281 0.1374840438 0.05919087306
vn 0.9903643131 0.137484327 0.0166293215
vn 0.5405365825 0.1464636922 0.8284736872
vn -0.4157763422 0.1478741169 -0.8973646164
vn -0.93238765 0.06444087625 0.3556692302
vn -0.9904312491 0.1345174015 -0.03083804063
vn -0.9881896377 0.1345174909 -0.07339167595
vn -0.9841205478 0.134517774 -0.1158089712
f 1//1 2//2 3//3 
f 3//3 2//2 4//4 
f 4//4 2//2 5//5 
f 4//4 5//5 6//6 
f 6//6 5//5 7//7 
f 6//6 7//7 8//8 
f 8//8 7//7 9//9 
f 8//8 9//9 10//10 
f 1//1 11//11 2//2 
f 2//2 11//11 12//12 
f 2//2 12//12 5//5 
f 5//5 12//12 13//13 
f 5//5 13//13 7//7 
f 7//7 13//13 14//14 
f 7//7 14//14 9//9 
f 9//9 14//14 15//15 
f 11//11 1//1 16//16 
f 16//16 1//1 3//3 
f 17//17 10//10 15//15 
f 15//15 10//10 9//9 
f 10//10 17//17 8//8 
f 8//8 17//17 18//18 
f 8//8 18//18 6//6 
f 6//6 18//18 19//19 
f 6//6 19//19 4//4 
f 4//4 19//19 20//20 
f 4//4 20//20 3//3 
f 3//3 20//20 16//16 
f 11//11 16//16 12//12 
f 12//12 16//16 20//20 
f 12//12 20//20 13//13 
f 13//13 20//20 19//19 
f 13//13 19//19 14//14 
f 14//14 19//19 18//18 
f 14//14 18//18 15//15 
f 15//15 18//18 17//17 
