v -78.20014954 -11 241.9433136
v -78.20014954 -11 238.9433136
v -75.20014954 -11 241.9433136
v -75.20014954 -11 238.9433136
v -78.20014954 -1.842632413 238.9433136
v -78.20014954 -1.842632413 241.9433136
v -75.20014954 -1.842632413 241.9433136
v -75.20014954 -1.842632413 238.9433136
vn -0.442489773 -0.1449618936 0.8849795461
vn -0.8583374619 -0.2811957002 -0.429168731
vn 0.8583374619 -0.2811957002 0.429168731
vn 0.442489773 -0.1449618936 -0.8849795461
vn -0.442489773 0.1449618936 -0.8849795461
vn -0.8583374619 0.2811957002 0.429168731
vn 0.442489773 0.1449618936 0.8849795461
vn 0.8583374619 0.2811957002 -0.429168731
f 1//1 2//2 3//3 
f 3//3 2//2 4//4 
f 5//5 2//2 6//6 
f 6//6 2//2 1//1 
f 7//7 3//3 8//8 
f 8//8 3//3 4//4 
f 8//8 4//4 5//5 
f 5//5 4//4 2//2 
f 6//6 1//1 7//7 
f 7//7 1//1 3//3 
f 7//7 8//8 6//6 
f 6//6 8//8 5//5 
