v 45.29985046 -7.5 115.8638306
v 45.29985046 -16 115.8638306
v 44.29985046 -7.5 115.8724365
v 44.29985046 -16 115.8724365
v 54.56209946 -7.5 142.6807556
v 52.7190094 -7.5 140.0592651
v 53.76469421 -7.5 143.2841949
v 51.88079071 -7.5 140.6046143
v 51.06393814 -7.5 137.3152008
v 50.18913269 -7.5 137.7996826
v 49.60501099 -7.5 134.4620209
v 48.69802856 -7.5 134.883194
v 48.34938049 -7.5 131.5137024
v 47.41479492 -7.5 131.8694611
v 47.30321121 -7.5 128.4847412
v 46.34572983 -7.5 128.7732697
v 46.4716301 -7.5 125.3899612
v 45.49608231 -7.5 125.6098328
v 45.85871887 -7.5 122.2445755
v 44.87002563 -7.5 122.3946609
v 45.46748734 -7.5 119.0639954
v 44.47062683 -7.5 119.1435394
v 45.46748734 -16 119.0639954
v 45.85871887 -16 122.2445755
v 46.4716301 -16 125.3899612
v 47.30321121 -16 128.4847412
v 48.34938049 -16 131.5137024
v 49.60501099 -16 134.4620209
v 51.06393814 -16 137.3152008
v 52.7190094 -16 140.0592651
v 54.56209946 -16 142.6807556
v 53.76469421 -16 143.2841949
v 51.88079071 -16 140.6046143
v 50.18913269 -16 137.7996826
v 48.69802856 -16 134.883194
v 47.41479492 -16 131.8694611
v 46.34572983 -16 128.7732697
v 45.49608231 -16 125.6098328
v 44.87002563 -16 122.3946609
v 44.47062683 -16 119.1435394
vn 0.9722722173 0.1158936098 -0.2031141669
vn 0.8108201623 -0.1940814108 -0.5521802306
vn -0.8693495989 0.1017867997 -0.4836017787
vn -0.9932895303 -0.05837825313 -0.09983934462
vn 0.9931257367 0.09773990512 -0.06440675259
vn 0.8254778385 0.1176847294 -0.5520295501
vn -0.7166383862 0.1148085967 0.6879305243
vn -0.8383270502 0.1159985587 0.5326838493
vn 0.8620934486 0.1176862419 -0.4928943217
vn -0.8735681176 0.1159966812 0.4726769626
vn 0.8944809437 0.1176870093 -0.4313392639
vn -0.9045205712 0.1159953922 0.4103505611
vn 0.9224801064 0.1176881194 -0.3676682115
vn -0.9310331941 0.1159939393 0.3460094929
vn 0.9459534287 0.117689617 -0.3021940291
vn -0.9529754519 0.1159930304 0.2799703777
vn 0.9647862315 0.117690824 -0.2352369726
vn -0.9702401757 0.1159916595 0.2125557065
vn 0.9788857698 0.1176921353 -0.1671262234
vn -0.9827420712 0.115990147 0.1440984309
vn 0.9881832004 0.1176934168 -0.09819484502
vn -0.990419805 0.1159891188 0.07493399084
vn 0.9902072549 -0.1176934093 -0.07508585602
vn 0.9825225472 -0.1176920608 -0.1442150176
vn 0.9700176716 -0.117690973 -0.2126372457
vn 0.9527542591 -0.1176894084 -0.2800153196
vn 0.930816412 -0.1176883355 -0.3460205793
vn 0.9043124914 -0.1176868528 -0.4103275239
vn 0.8733714223 -0.1176863313 -0.4726227224
vn 0.8381466866 -0.1176848114 -0.5325977802
vn 0.895036757 -0.05768094212 -0.4422466457
vn -0.3821556866 -0.1977043599 0.9027014971
vn -0.8256514072 -0.115998745 0.5521268249
vn -0.8622854948 -0.1159965917 0.4929589629
vn -0.8946857452 -0.1159953475 0.4313727915
vn -0.9226943851 -0.115993984 0.3676689267
vn -0.9461737871 -0.1159929037 0.3021602631
vn -0.9650087357 -0.1159917414 0.2351680994
vn -0.9791069031 -0.1159902066 0.1670208871
vn -0.9883985519 -0.1159890667 0.09805501252
f 1//1 2//2 3//3 
f 3//3 2//2 4//4 
f 5//5 6//6 7//7 
f 7//7 6//6 8//8 
f 8//8 6//6 9//9 
f 8//8 9//9 10//10 
f 10//10 9//9 11//11 
f 10//10 11//11 12//12 
f 12//12 11//11 13//13 
f 12//12 13//13 14//14 
f 14//14 13//13 15//15 
f 14//14 15//15 16//16 
f 16//16 15//15 17//17 
f 16//16 17//17 18//18 
f 18//18 17//17 19//19 
f 18//18 19//19 20//20 
f 20//20 19//19 21//21 
f 20//20 21//21 22//22 
f 22//22 21//21 1//1 
f 22//22 1//1 3//3 
f 2//2 1//1 23//23 
f 23//23 1//1 21//21 
f 23//23 21//21 24//24 
f 24//24 21//21 19//19 
f 24//24 19//19 25//25 
f 25//25 19//19 17//17 
f 25//25 17//17 26//26 
f 26//26 17//17 15//15 
f 26//26 15//15 27//27 
f 27//27 15//15 13//13 
f 27//27 13//13 28//28 
f 28//28 13//13 11//11 
f 28//28 11//11 29//29 
f 29//29 11//11 9//9 
f 29//29 9//9 30//30 
f 30//30 9//9 6//6 
f 30//30 6//6 31//31 
f 31//31 6//6 5//5 
f 32//32 7//7 33//33 
f 33//33 7//7 8//8 
f 33//33 8//8 34//34 
f 34//34 8//8 10//10 
f 34//34 10//10 35//35 
f 35//35 10//10 12//12 
f 35//35 12//12 36//36 
f 36//36 12//12 14//14 
f 36//36 14//14 37//37 
f 37//37 14//14 16//16 
f 37//37 16//16 38//38 
f 38//38 16//16 18//18 
f 38//38 18//18 39//39 
f 39//39 18//18 20//20 
f 39//39 20//20 40//40 
f 40//40 20//20 22//22 
f 40//40 22//22 4//4 
f 4//4 22//22 3//3 
f 31//31 32//32 30//30 
f 30//30 32//32 33//33 
f 30//30 33//33 29//29 
f 29//29 33//33 34//34 
f 29//29 34//34 28//28 
f 28//28 34//34 35//35 
f 28//28 35//35 27//27 
f 27//27 35//35 36//36 
f 27//27 36//36 26//26 
f 26//26 36//36 37//37 
f 26//26 37//37 25//25 
f 25//25 37//37 38//38 
f 25//25 38//38 24//24 
f 24//24 38//38 39//39 
f 24//24 39//39 23//23 
f 23//23 39//39 40//40 
f 23//23 40//40 2//2 
f 2//2 40//40 4//4 
f 7//7 32//32 5//5 
f 5//5 32//32 31//31 
