v 45.79985046 -11 223.9433136
v 45.79985046 -11 222.9433136
v 62.38318634 -11 223.9433136
v 62.38318634 -11 222.9433136
v 49.29985046 -5.880797863 223.9433136
v 49.29985046 -6.093949795 223.9433136
v 49.29985046 -5.955487251 222.9433136
v 49.29985046 -6.172031879 222.9433136
v 45.79985046 -5.897728443 223.9433136
v 45.79985046 -5.974565983 222.9433136
v 57.16482544 -6.093949795 223.9433136
v 62.38318634 -6.583101749 223.9433136
v 56.94064713 -6.172031879 222.9433136
v 62.38318634 -6.682198048 222.9433136
v 47.54977798 -5.88875246 223.9433136
v 47.55055618 -5.964423656 222.9433136
v 47.46234131 -5.9316535 223.3823853
vn -0.07277436554 -0.119162403 0.9902041554
vn -0.0362425372 -0.239192158 -0.970295608
vn 0.07948102057 -0.3017986715 0.9500527978
vn 0.04113297909 -0.1579789966 -0.9865853786
vn 0.1153672189 0.9839357138 0.1362382472
vn 0.007397040259 0.2669251561 0.9636888504
vn 0.1152566746 0.9770347476 -0.179217875
vn 0.003842444858 0.1355810165 -0.9907588363
vn -0.2695678473 0.179648906 0.9460757971
vn -0.4868440032 0.08407312632 -0.8694335222
vn 0.003433482489 0.09183527529 0.9957683086
vn 0.2163613588 0.425870508 0.8785340786
vn 0.006886973046 0.1803321242 -0.9835816622
vn 0.3511912525 0.2067495733 -0.913191855
vn -0.004879514221 0.9961053729 0.08803559095
vn -0.005226842128 0.9691625237 -0.2463668883
vn -0.005114654079 0.997135818 -0.07545844465
f 1//1 2//2 3//3 
f 3//3 2//2 4//4 
f 5//5 6//6 7//7 
f 7//7 6//6 8//8 
f 9//9 10//10 1//1 
f 1//1 10//10 2//2 
f 11//11 12//12 13//13 
f 13//13 12//12 14//14 
f 3//3 11//11 1//1 
f 1//1 11//11 6//6 
f 1//1 6//6 9//9 
f 9//9 6//6 15//15 
f 15//15 6//6 5//5 
f 3//3 12//12 11//11 
f 11//11 13//13 6//6 
f 6//6 13//13 8//8 
f 12//12 3//3 14//14 
f 14//14 3//3 4//4 
f 10//10 8//8 2//2 
f 2//2 8//8 13//13 
f 2//2 13//13 4//4 
f 4//4 13//13 14//14 
f 10//10 16//16 8//8 
f 8//8 16//16 7//7 
f 15//15 17//17 9//9 
f 9//9 17//17 16//16 
f 9//9 16//16 10//10 
f 5//5 7//7 15//15 
f 15//15 7//7 16//16 
f 15//15 16//16 17//17 
