v 42.4311409 -16 198.519928
v 43.05379868 -16 198.4971008
v 44.29985046 -16 197.8634186
v 43.67677689 -16 198.486084
v 44.29985046 -16 198.4868927
v 42.4311409 -11.3125 198.519928
v 41.36224747 -25.75 198.5867767
v 39.39788437 -11.3125 198.8014679
v 38.44534683 -25.75 198.9489746
v 36.40377426 -11.3125 199.362915
v 35.57252502 -25.75 199.5705872
v 33.4745903 -11.3125 200.1994476
v 32.76680756 -25.75 200.44664
v 30.63554192 -11.3125 201.3038635
v 30.05068207 -25.75 201.5700989
v 27.91106987 -11.3125 202.6666412
v 27.44591141 -25.75 202.9319611
v 25.32462883 -11.3125 204.276062
v 24.97337341 -25.75 204.5213165
v 22.89848137 -11.3125 206.1182556
v 22.65288353 -25.75 206.3254395
v 20.65351295 -11.3125 208.1773987
v 20.5030365 -25.75 208.3298492
v 18.60904884 -11.3125 210.43573
v 18.54106331 -25.75 210.5184937
v 16.78268814 -11.3125 212.8738251
v 16.78268814 -25.75 212.8738251
v 44.29985046 -25.75 198.4868927
v 45.29985046 -16 197.5121002
v 44.96660614 -16 197.5003967
v 44.63326263 -16 197.4919739
v 44.29985046 -16 197.4868317
v 45.29985046 -11.3125 197.5121002
v 44.29985046 -25.75 197.4868317
v 41.35860443 -25.75 197.5840454
v 38.43693161 -25.75 197.9364624
v 35.55693436 -25.75 198.5414429
v 32.74040604 -25.75 199.3944092
v 30.00865173 -25.75 200.4888916
v 27.38233948 -25.75 201.8166199
v 24.88134193 -25.75 203.3675537
v 22.52457809 -25.75 205.1299438
v 20.32987785 -25.75 207.0904846
v 18.3138485 -25.75 209.234314
v 17.84848404 -25.75 210.466095
v 17.33786392 -25.75 211.6798248
v 18.3138485 -11.3125 209.234314
v 20.40161705 -11.3125 207.0207672
v 22.67981339 -11.3125 205.0037384
v 25.13001442 -11.3125 203.1995544
v 27.7324028 -11.3125 201.6228027
v 30.46592712 -11.3125 200.2862244
v 33.30847931 -11.3125 199.2006531
v 36.23706436 -11.3125 198.3748627
v 39.22800446 -11.3125 197.8155212
v 42.25709915 -11.3125 197.5271454
v 17.84848404 -11.3125 210.466095
v 17.33786392 -11.3125 211.6798248
vn 0.1791345626 0.01900497265 0.9836410284
vn 0.03194406256 0.02122252621 0.9992642999
vn 0.7325033545 0.01909533702 0.6804955602
vn 0.008175408468 0.06381358951 0.9979283214
vn 0.7061530948 0.0451853089 0.7066159844
vn 0.1677425653 0.1242420301 0.9779705405
vn 0.08547662199 -0.06910589337 0.993940711
vn 0.1332176477 0.06912262738 0.988673389
vn 0.1728594154 -0.06796564162 0.982598722
vn 0.2232403159 0.06927000731 0.9722990394
vn 0.2611152232 -0.0680853501 0.9629035592
vn 0.3113848865 0.06942003965 0.9477448463
vn 0.3472236395 -0.0682079643 0.935298562
vn 0.3969051242 0.06957145035 0.9152191877
vn 0.4304755628 -0.06833361089 0.9000118375
vn 0.4790845811 0.06972424686 0.8749951124
vn 0.5101915002 -0.06846149266 0.8573316932
vn 0.5572322607 0.0698793605 0.8274110556
vn 0.5857149363 -0.06859190017 0.8076095581
vn 0.6306927204 0.07003688812 0.7728658319
vn 0.6564269066 -0.06872493774 0.7512526512
vn 0.6988440156 0.07019624114 0.7118213177
vn 0.7217422128 -0.06886086613 0.6887280941
vn 0.7622629404 0.04410237819 0.645763278
vn 0.7822670937 -0.0431050919 0.621450007
vn 0.6969521642 0.0163059067 0.7169322371
vn 0.6941040754 -0.03278192505 0.7191278338
vn 0.3795709014 -0.1299209148 0.915994823
vn 0.4778660834 -0.0361638777 0.8776879907
vn 0.03007995896 -0.081084162 -0.996253252
vn 0.02027705871 -0.07902384549 -0.996666491
vn 0.09006360173 -0.000845534727 -0.9959356785
vn 0.8935810328 0.4342977703 -0.1135708168
vn 0.1830045283 -0.04756142944 -0.9819608927
vn -0.08251608908 -0.06881789863 -0.9942108393
vn -0.1695892811 -0.06869872659 -0.9831174612
vn -0.2553548515 -0.06857901812 -0.9644121528
vn -0.3391440511 -0.06845767796 -0.9382402897
vn -0.4203090072 -0.06833406538 -0.9048042893
vn -0.4982207119 -0.06820867211 -0.8643631935
vn -0.5722769499 -0.06808175892 -0.8172294497
vn -0.6419049501 -0.06795351952 -0.7637671828
vn -0.706563592 -0.06782336533 -0.7043918967
vn -0.8393609524 -0.08535194397 -0.536831677
vn -0.9277903438 -0.04585075006 -0.3702739775
vn -0.9141998291 -0.02181824856 -0.4046759307
vn -0.7724584341 0.06730828434 -0.6314883828
vn -0.6846593618 0.06965973228 -0.7255267501
vn -0.6174547076 0.06981223077 -0.7835023403
vn -0.5453648567 0.06996383518 -0.8352737427
vn -0.4689598382 0.0701142922 -0.8804320693
vn -0.3888439834 0.07026344538 -0.9186204076
vn -0.3056512177 0.07041142136 -0.9495365024
vn -0.2200404704 0.07055903971 -0.9729355574
vn -0.1326918155 0.07070548832 -0.9886322021
vn -0.04996887222 0.05120320991 -0.9974374175
vn -0.9284980893 0.02406687476 -0.3705564439
vn -0.9134669304 0.04558502138 -0.4043515325
f 1//1 2//2 3//3 
f 3//3 2//2 4//4 
f 3//3 4//4 5//5 
f 1//1 6//6 7//7 
f 7//7 6//6 8//8 
f 7//7 8//8 9//9 
f 9//9 8//8 10//10 
f 9//9 10//10 11//11 
f 11//11 10//10 12//12 
f 11//11 12//12 13//13 
f 13//13 12//12 14//14 
f 13//13 14//14 15//15 
f 15//15 14//14 16//16 
f 15//15 16//16 17//17 
f 17//17 16//16 18//18 
f 17//17 18//18 19//19 
f 19//19 18//18 20//20 
f 19//19 20//20 21//21 
f 21//21 20//20 22//22 
f 21//21 22//22 23//23 
f 23//23 22//22 24//24 
f 23//23 24//24 25//25 
f 25//25 24//24 26//26 
f 25//25 26//26 27//27 
f 1//1 7//7 2//2 
f 2//2 7//7 28//28 
f 2//2 28//28 4//4 
f 4//4 28//28 5//5 
f 29//29 3//3 30//30 
f 30//30 3//3 31//31 
f 31//31 3//3 32//32 
f 29//29 33//33 3//3 
f 3//3 33//33 6//6 
f 3//3 6//6 1//1 
f 5//5 28//28 3//3 
f 3//3 28//28 34//34 
f 3//3 34//34 32//32 
f 34//34 28//28 35//35 
f 35//35 28//28 7//7 
f 35//35 7//7 36//36 
f 36//36 7//7 9//9 
f 36//36 9//9 37//37 
f 37//37 9//9 11//11 
f 37//37 11//11 38//38 
f 38//38 11//11 13//13 
f 38//38 13//13 39//39 
f 39//39 13//13 15//15 
f 39//39 15//15 40//40 
f 40//40 15//15 17//17 
f 40//40 17//17 41//41 
f 41//41 17//17 19//19 
f 41//41 19//19 42//42 
f 42//42 19//19 21//21 
f 42//42 21//21 43//43 
f 43//43 21//21 23//23 
f 43//43 23//23 44//44 
f 44//44 23//23 25//25 
f 44//44 25//25 45//45 
f 45//45 25//25 46//46 
f 46//46 25//25 27//27 
f 44//44 47//47 43//43 
f 43//43 47//47 48//48 
f 43//43 48//48 42//42 
f 42//42 48//48 49//49 
f 42//42 49//49 41//41 
f 41//41 49//49 50//50 
f 41//41 50//50 40//40 
f 40//40 50//50 51//51 
f 40//40 51//51 39//39 
f 39//39 51//51 52//52 
f 39//39 52//52 38//38 
f 38//38 52//52 53//53 
f 38//38 53//53 37//37 
f 37//37 53//53 54//54 
f 37//37 54//54 36//36 
f 36//36 54//54 55//55 
f 36//36 55//55 35//35 
f 35//35 55//55 56//56 
f 35//35 56//56 34//34 
f 34//34 56//56 32//32 
f 32//32 56//56 33//33 
f 32//32 33//33 31//31 
f 31//31 33//33 30//30 
f 30//30 33//33 29//29 
f 33//33 56//56 6//6 
f 6//6 56//56 55//55 
f 6//6 55//55 8//8 
f 8//8 55//55 54//54 
f 8//8 54//54 10//10 
f 10//10 54//54 53//53 
f 10//10 53//53 12//12 
f 12//12 53//53 52//52 
f 12//12 52//52 14//14 
f 14//14 52//52 51//51 
f 14//14 51//51 16//16 
f 16//16 51//51 50//50 
f 16//16 50//50 18//18 
f 18//18 50//50 49//49 
f 18//18 49//49 20//20 
f 20//20 49//49 48//48 
f 20//20 48//48 22//22 
f 22//22 48//48 47//47 
f 22//22 47//47 24//24 
f 24//24 47//47 57//57 
f 24//24 57//57 58//58 
f 58//58 26//26 24//24 
f 27//27 26//26 46//46 
f 46//46 26//26 58//58 
f 46//46 58//58 57//57 
f 47//47 44//44 57//57 
f 57//57 44//44 45//45 
f 57//57 45//45 46//46 
