v -69.81427002 0.3333333433 69.96817017
v -72.5124054 0.3333333433 70.32910156
v -69.76454926 0.3333333433 70.33985901
v -72.46268463 0.3333333433 70.70079041
v -72.46268463 0.1666666716 70.70079041
v -72.5124054 0.1666666716 70.32910156
v -69.76454926 0.1666666716 70.33985901
v -69.81427002 0.1666666716 69.96817017
vn 0.05670583621 0.9081436992 -0.4148005545
vn -0.08154526353 0.9134540558 -0.3986879289
vn 0.08154526353 0.9134540558 0.3986879289
vn -0.05670583621 0.9081436992 0.4148005545
vn 0.04268651456 -0.7466276884 0.6638711691
vn -0.08784602582 -0.9744480848 -0.2067219466
vn 0.08784602582 -0.9744480848 0.2067219466
vn -0.04268651456 -0.7466276884 -0.6638711691
f 1//1 2//2 3//3 
f 3//3 2//2 4//4 
f 5//5 4//4 6//6 
f 6//6 4//4 2//2 
f 7//7 3//3 5//5 
f 5//5 3//3 4//4 
f 1//1 8//8 2//2 
f 2//2 8//8 6//6 
f 8//8 1//1 7//7 
f 7//7 1//1 3//3 
f 8//8 7//7 6//6 
f 6//6 7//7 5//5 
