v -66.56227875 7.166666508 109.366951
v -66.56227875 3.25 109.366951
v -66.55131531 7.166666508 109.4495621
v -66.55131531 3.25 109.4495621
v -64.48608398 3.25 109.1755142
v -64.48608398 7.166666508 109.1755142
v -64.49704742 7.166666508 109.0929108
v -64.49704742 3.25 109.0929108
vn -0.1513015181 0.02126710489 -0.9882588387
vn -0.2099859118 -0.04237875715 -0.9767855406
vn 0.05205816031 0.02120456286 0.9984189272
vn 0.1116875559 -0.01063582953 0.9936864376
vn 0.209982425 -0.04237879068 0.9767862558
vn 0.1513033062 0.02126709931 0.9882586002
vn -0.05206180364 0.02120262571 -0.9984187484
vn -0.1116857529 -0.01063486189 -0.993686676
f 1//1 2//2 3//3 
f 3//3 2//2 4//4 
f 5//5 6//6 4//4 
f 4//4 6//6 3//3 
f 7//7 1//1 6//6 
f 6//6 1//1 3//3 
f 8//8 5//5 2//2 
f 2//2 5//5 4//4 
f 2//2 1//1 8//8 
f 8//8 1//1 7//7 
f 8//8 7//7 5//5 
f 5//5 7//7 6//6 
