v -69.5993576 7.166666508 70.31776428
v -69.64907837 7.166666508 69.94607544
v -66.98381805 7.166666508 69.96788025
v -67.03353882 7.166666508 69.59619141
v -66.98381805 7.333333492 69.96788025
v -67.03353882 7.333333492 69.59619141
v -69.5993576 7.333333492 70.31776428
v -69.64907837 7.333333492 69.94607544
vn 0.04125336185 -0.7465770841 0.6640186906
vn -0.08970346302 -0.9743367434 -0.2064489275
vn 0.08970346302 -0.9743367434 0.2064489275
vn -0.04125336185 -0.7465770841 -0.6640186906
vn 0.0824188143 0.9134308696 0.3985614479
vn 0.060162507 0.9077833891 -0.415102154
vn -0.060162507 0.9077833891 0.415102154
vn -0.0824188143 0.9134308696 -0.3985614479
f 1//1 2//2 3//3 
f 3//3 2//2 4//4 
f 5//5 3//3 6//6 
f 6//6 3//3 4//4 
f 7//7 1//1 5//5 
f 5//5 1//1 3//3 
f 2//2 8//8 4//4 
f 4//4 8//8 6//6 
f 8//8 2//2 7//7 
f 7//7 2//2 1//1 
f 7//7 5//5 8//8 
f 8//8 5//5 6//6 
