v -73.87374115 7.166666508 110.3328247
v -73.87374115 3.25 110.3328247
v -73.86278534 7.166666508 110.4154358
v -73.86278534 3.25 110.4154358
v -71.82853699 3.25 110.1455002
v -71.82853699 7.166666508 110.1455002
v -71.83950043 7.166666508 110.0628967
v -71.83950043 3.25 110.0628967
vn -0.1516022235 0.02126684785 -0.9882127643
vn -0.2111670673 -0.04237414896 -0.9765310287
vn 0.05084935576 0.0212023966 0.9984812737
vn 0.1113847345 -0.01063565537 0.9937204719
vn 0.2111642957 -0.04237433523 0.9765316248
vn 0.1516037583 0.02126680315 0.9882125258
vn -0.05085286126 0.02120055631 -0.9984810948
vn -0.1113831103 -0.01063479576 -0.9937206507
f 1//1 2//2 3//3 
f 3//3 2//2 4//4 
f 5//5 6//6 4//4 
f 4//4 6//6 3//3 
f 7//7 1//1 6//6 
f 6//6 1//1 3//3 
f 8//8 5//5 2//2 
f 2//2 5//5 4//4 
f 2//2 1//1 8//8 
f 8//8 1//1 7//7 
f 8//8 7//7 5//5 
f 5//5 7//7 6//6 
