v -45.88093185 3.083333254 76.7155304
v -45.88093185 0.3333333433 76.7155304
v -45.79833221 3.083333254 76.70448303
v -45.79833221 0.3333333433 76.70448303
v -46.16295242 0.3333333433 73.97875977
v -46.16295242 3.083333254 73.97875977
v -46.24554825 3.083333254 73.98981476
v -46.24554825 0.3333333433 73.98981476
vn -0.9885950685 0.03028583899 0.1475214809
vn -0.9795439243 -0.06038497016 0.1919565499
vn 0.9969208837 0.03023439832 -0.07235082239
vn 0.9929521084 -0.01514837146 -0.1175439954
vn 0.9795441031 -0.0603851527 -0.1919557303
vn 0.9885950089 0.03028579615 -0.1475219578
vn -0.9969208241 0.03023321927 0.07235199958
vn -0.9929522276 -0.01514784526 0.1175434738
f 1//1 2//2 3//3 
f 3//3 2//2 4//4 
f 5//5 6//6 4//4 
f 4//4 6//6 3//3 
f 7//7 1//1 6//6 
f 6//6 1//1 3//3 
f 8//8 5//5 2//2 
f 2//2 5//5 4//4 
f 2//2 1//1 8//8 
f 8//8 1//1 7//7 
f 8//8 7//7 5//5 
f 5//5 7//7 6//6 
