v -69.62973785 7.166666508 70.09061432
v -69.62973785 3.25 70.09061432
v -69.61869049 7.166666508 70.17321777
v -69.61869049 3.25 70.17321777
v -67.00315094 3.25 69.82333374
v -67.00315094 7.166666508 69.82333374
v -67.01420593 7.166666508 69.74073792
v -67.01420593 3.25 69.74073792
vn -0.1481871903 0.02126974612 -0.9887305498
vn -0.194629848 -0.04243148118 -0.9799585938
vn 0.06982946396 0.0212309584 0.9973329902
vn 0.1169175729 -0.01063708775 0.9930846691
vn 0.1946276277 -0.04243162274 0.9799590111
vn 0.1481883824 0.02126971073 0.988730371
vn -0.06983213872 0.02122915536 -0.9973328114
vn -0.1169163138 -0.01063623466 -0.9930847883
f 1//1 2//2 3//3 
f 3//3 2//2 4//4 
f 5//5 6//6 4//4 
f 4//4 6//6 3//3 
f 7//7 1//1 6//6 
f 6//6 1//1 3//3 
f 8//8 5//5 2//2 
f 2//2 5//5 4//4 
f 2//2 1//1 8//8 
f 8//8 1//1 7//7 
f 8//8 7//7 5//5 
f 5//5 7//7 6//6 
