v -64.30168152 7.166666508 109.2981567
v -64.35100555 7.166666508 108.9264221
v -61.32774734 7.166666508 108.9035416
v -61.3770752 7.166666508 108.5317993
v -61.32774734 7.333333492 108.9035416
v -61.3770752 7.333333492 108.5317993
v -64.30168152 7.333333492 109.2981567
v -64.35100555 7.333333492 108.9264221
vn 0.04618892446 -0.7467588782 0.6634891033
vn -0.08217570186 -0.9747540951 -0.2076091766
vn 0.0821762532 -0.9747541547 0.2076088935
vn -0.04618924856 -0.746765852 -0.6634812355
vn 0.07856134325 0.9135156274 0.3991457522
vn 0.04698716477 0.9091373086 -0.4138376713
vn -0.0469869487 0.9091342688 0.4138442874
vn -0.07856186479 0.913515687 -0.3991455138
f 1//1 2//2 3//3 
f 3//3 2//2 4//4 
f 5//5 3//3 6//6 
f 6//6 3//3 4//4 
f 7//7 1//1 5//5 
f 5//5 1//1 3//3 
f 2//2 8//8 4//4 
f 4//4 8//8 6//6 
f 8//8 2//2 7//7 
f 7//7 2//2 1//1 
f 7//7 5//5 8//8 
f 8//8 5//5 6//6 
