v -66.8186264 7.166666508 69.94578552
v -66.86834717 7.166666508 69.57409668
v -63.17326736 7.166666508 69.45814514
v -63.22298813 7.166666508 69.0864563
v -63.17326736 7.333333492 69.45814514
v -63.22298813 7.333333492 69.0864563
v -66.8186264 7.333333492 69.94578552
v -66.86834717 7.333333492 69.57409668
vn 0.05448530987 -0.7469800711 0.6626101136
vn -0.07253871858 -0.9752331376 -0.2089460194
vn 0.07253871858 -0.9752331376 0.2089460194
vn -0.05448530987 -0.7469800711 -0.6626101136
vn 0.07435636967 0.9136152864 0.3997226655
vn 0.02814447321 0.9106930494 -0.4121238291
vn -0.02814447321 0.9106930494 0.4121238291
vn -0.07435636967 0.9136152864 -0.3997226655
f 1//1 2//2 3//3 
f 3//3 2//2 4//4 
f 5//5 3//3 6//6 
f 6//6 3//3 4//4 
f 7//7 1//1 5//5 
f 5//5 1//1 3//3 
f 2//2 8//8 4//4 
f 4//4 8//8 6//6 
f 8//8 2//2 7//7 
f 7//7 2//2 1//1 
f 7//7 5//5 8//8 
f 8//8 5//5 6//6 
