v -46.26764679 3.083333254 73.82461548
v -46.26764679 0.3333333433 73.82461548
v -46.18505096 3.083333254 73.81356812
v -46.18505096 0.3333333433 73.81356812
v -46.54966736 0.3333333433 71.08784485
v -46.54966736 3.083333254 71.08784485
v -46.632267 3.083333254 71.09889221
v -46.632267 0.3333333433 71.09889221
vn -0.9885950089 0.03028561175 0.147521764
vn -0.9795443416 -0.06038454175 0.1919547021
vn 0.9969208241 0.0302330181 -0.07235220075
vn 0.9929522276 -0.01514768228 -0.1175433099
vn 0.9795440435 -0.06038452685 -0.1919560283
vn 0.9885951281 0.03028561547 -0.1475210786
vn -0.9969208837 0.03023439832 0.07235082239
vn -0.9929521084 -0.01514837146 0.1175439954
f 1//1 2//2 3//3 
f 3//3 2//2 4//4 
f 5//5 6//6 4//4 
f 4//4 6//6 3//3 
f 7//7 1//1 6//6 
f 6//6 1//1 3//3 
f 8//8 5//5 2//2 
f 2//2 5//5 4//4 
f 2//2 1//1 8//8 
f 8//8 1//1 7//7 
f 8//8 7//7 5//5 
f 5//5 7//7 6//6 
