v -72.67760468 0.3333333433 70.35119629
v -75.05981445 0.3333333433 70.66986084
v -72.62788391 0.3333333433 70.72288513
v -75.01009369 0.3333333433 71.04154968
v -75.01009369 0.1666666716 71.04154968
v -75.05981445 0.1666666716 70.66986084
v -72.62788391 0.1666666716 70.72288513
v -72.67760468 0.1666666716 70.35119629
vn 0.07119978219 0.9065596461 -0.4160291255
vn -0.08521071076 0.9133530855 -0.3981523216
vn 0.08521071076 0.9133530855 0.3981523216
vn -0.07119978219 0.9065596461 0.4160291255
vn 0.03666538745 -0.7464071512 0.6644787788
vn -0.09563979506 -0.9739580154 -0.2055694908
vn 0.09563979506 -0.9739580154 0.2055694908
vn -0.03666538745 -0.7464071512 -0.6644787788
f 1//1 2//2 3//3 
f 3//3 2//2 4//4 
f 5//5 4//4 6//6 
f 6//6 4//4 2//2 
f 7//7 3//3 5//5 
f 5//5 3//3 4//4 
f 1//1 8//8 2//2 
f 2//2 8//8 6//6 
f 8//8 1//1 7//7 
f 7//7 1//1 3//3 
f 8//8 7//7 6//6 
f 6//6 7//7 5//5 
