v -59.09674072 7.166666508 108.6118622
v -59.14606857 7.166666508 108.2401199
v -57.0315094 7.166666508 108.337822
v -57.08083725 7.166666508 107.9660797
v -57.0315094 7.333333492 108.337822
v -57.08083725 7.333333492 107.9660797
v -59.09674072 7.333333492 108.6118622
v -59.14606857 7.333333492 108.2401199
vn 0.02806652337 -0.7460767627 0.6652681231
vn -0.1056297868 -0.9732238054 -0.2041512579
vn 0.1056297868 -0.9732238054 0.2041512579
vn -0.02806652337 -0.7460767627 -0.6652681231
vn 0.08959825337 0.9132016897 0.3975358903
vn 0.09055370092 0.9041978717 -0.417404145
vn -0.09055370092 0.9041978717 0.417404145
vn -0.08959825337 0.9132016897 -0.3975358903
f 1//1 2//2 3//3 
f 3//3 2//2 4//4 
f 5//5 3//3 6//6 
f 6//6 3//3 4//4 
f 7//7 1//1 5//5 
f 5//5 1//1 3//3 
f 2//2 8//8 4//4 
f 4//4 8//8 6//6 
f 8//8 2//2 7//7 
f 7//7 2//2 1//1 
f 7//7 5//5 8//8 
f 8//8 5//5 6//6 
