v -5.787063122 18.66666603 46.23288727
v -5.787063122 10.33333302 46.23288727
v -5.840270519 18.66666603 45.83013535
v -5.840270519 10.33333302 45.83013535
v -11.49470997 18.66666603 46.99639511
v -11.49470997 0.1666666716 46.99639511
v 1.57871747 0.1666666716 45.24757004
v 1.57871747 10.33333302 45.24757004
v 1.524853349 10.33333302 44.84490585
v -11.54791737 18.66666603 46.59364319
v 1.524853349 0.1666666716 44.84490585
v -11.54791737 0.1666666716 46.59364319
vn 0.2010551393 0.09679073095 0.9747863412
vn 0.1509849876 0.008288131095 0.9885013103
vn 0.007214584854 0.04822667316 -0.9988103509
vn -0.1233513951 0.01657742821 -0.9922245741
vn 0.03598020226 0.01506930962 0.9992389083
vn 0.1015545353 -0.02225310355 0.9945810437
vn 0.171285376 -0.0510103181 0.9839000106
vn 0.1859033853 0.07954265922 0.9793431163
vn -0.0240480192 0.03969104961 -0.9989225864
vn -0.1804978698 0.0302275978 -0.9831107855
vn -0.1130017415 -0.02554584295 -0.9932663441
vn -0.1939290911 -0.04440167174 -0.9800102115
f 1//1 2//2 3//3 
f 3//3 2//2 4//4 
f 5//5 6//6 2//2 
f 2//2 6//6 7//7 
f 2//2 7//7 8//8 
f 2//2 1//1 5//5 
f 2//2 8//8 4//4 
f 4//4 8//8 9//9 
f 5//5 1//1 10//10 
f 10//10 1//1 3//3 
f 11//11 12//12 4//4 
f 4//4 12//12 10//10 
f 4//4 10//10 3//3 
f 4//4 9//9 11//11 
f 8//8 7//7 9//9 
f 9//9 7//7 11//11 
f 6//6 5//5 12//12 
f 12//12 5//5 10//10 
f 6//6 12//12 7//7 
f 7//7 12//12 11//11 
