v -27.33733368 0.1666666716 31.37503433
v -27.33733368 18.66666603 31.37503433
v -26.93458557 0.1666666716 31.32179832
v -26.93458557 18.66666603 31.32179832
v -25.7238903 0.1666666716 43.5932312
v -25.7238903 18.66666603 43.5932312
v -25.32065201 0.1666666716 43.54371643
v -25.32065201 18.66666603 43.54371643
vn -0.9933564067 -0.01097758953 0.1145536378
vn -0.9976186752 0.02190652117 0.06539917737
vn 0.9796975255 -0.04377561063 -0.1956435889
vn 0.9888638854 0.02194793336 -0.1471954137
vn -0.9797020555 -0.04376236722 0.1956240386
vn -0.9888634682 0.02195127122 0.1471979171
vn 0.9933561087 -0.01097922865 -0.1145560816
vn 0.9976196885 0.0219197683 -0.06537930667
f 1//1 2//2 3//3 
f 3//3 2//2 4//4 
f 5//5 6//6 1//1 
f 1//1 6//6 2//2 
f 1//1 3//3 5//5 
f 5//5 3//3 7//7 
f 2//2 6//6 4//4 
f 4//4 6//6 8//8 
f 3//3 4//4 7//7 
f 7//7 4//4 8//8 
f 6//6 5//5 8//8 
f 8//8 5//5 7//7 
