v 8.777853966 0.1666666716 100.5610352
v 8.447273254 10.16666698 98.08976746
v 3.852686882 0.1666666716 63.74272919
v 4.183267117 10.16666698 66.21399689
v 9.283763885 0.1666666716 100.4933624
v 4.358597279 0.1666666716 63.67505646
v 4.699613094 10.16666698 66.22433472
v 4.62339592 8.015071869 65.65457153
v 4.628572941 10.16666698 66.20780182
v 4.557639122 10.16666698 66.19082642
v 4.486814022 10.16666698 66.17339325
v 4.501903534 9.120700836 65.90826416
v 4.517595768 8.074763298 65.64305878
v 4.533911228 7.02885437 65.3777771
v 4.550872803 5.98297596 65.11241913
v 8.953184128 10.16666698 98.02209473
vn -0.9827120304 -0.0947669968 0.1590479463
vn -0.9889730811 0.04910959676 0.1397155672
vn -0.9917978048 -0.02551184595 0.1252446473
vn -0.9936142564 0.04462292045 0.1036318466
vn 0.9918442369 -0.031651631 -0.1234632879
vn 0.9722123742 -0.1638358682 -0.1672150791
vn 0.9567574263 0.2601940632 -0.1300548762
vn 0.9903011918 0.001715499908 -0.1389264315
vn 0.01606491394 0.9975514412 -0.06806670874
vn 0.005170368124 0.9997597337 -0.02130125649
vn 0.03795681894 0.2587226331 -0.9652056098
vn -0.03310957924 0.2451509535 -0.9689193964
vn -0.03280305862 0.2452123314 -0.9689142704
vn -0.03249700367 0.2452735752 -0.9689090848
vn 0.990434885 0.001358685549 -0.1379744262
vn 0.9930012822 0.03965170681 -0.111248441
f 1//1 2//2 3//3 
f 3//3 2//2 4//4 
f 5//5 1//1 6//6 
f 6//6 1//1 3//3 
f 7//7 8//8 9//9 
f 9//9 8//8 10//10 
f 10//10 8//8 11//11 
f 11//11 8//8 12//12 
f 12//12 8//8 13//13 
f 13//13 8//8 14//14 
f 14//14 8//8 15//15 
f 6//6 15//15 5//5 
f 5//5 15//15 16//16 
f 16//16 15//15 8//8 
f 16//16 8//8 7//7 
f 11//11 4//4 10//10 
f 10//10 4//4 2//2 
f 10//10 2//2 9//9 
f 9//9 2//2 7//7 
f 7//7 2//2 16//16 
f 3//3 4//4 6//6 
f 6//6 4//4 15//15 
f 15//15 4//4 14//14 
f 14//14 4//4 13//13 
f 13//13 4//4 12//12 
f 12//12 4//4 11//11 
f 5//5 16//16 1//1 
f 1//1 16//16 2//2 
