v -49.96265411 18.66666603 47.81962204
v -49.96265411 0.1666666716 47.81962204
v -50.01625824 18.66666603 47.41337204
v -50.01625824 0.1666666716 47.41337204
v -52.23203659 0.1666666716 47.81962204
v -52.23203659 18.66666603 47.81962204
v -52.23203659 0.1666666716 47.41337204
v -52.23203659 18.66666603 47.41337204
vn 0.09020166099 0.01106497739 0.9958620667
vn 0.3516809642 -0.02157023363 0.9358713627
vn 0.3298889399 0.03998932242 -0.9431723952
vn 0.09018561989 -0.02186470293 -0.9956849217
vn -0.08912951499 -0.02160866 0.995785594
vn -0.3367934227 0.04082629085 0.9406930208
vn -0.344199419 -0.02061269246 -0.9386702776
vn -0.09128383547 0.0109332297 -0.9957649112
f 1//1 2//2 3//3 
f 3//3 2//2 4//4 
f 2//2 1//1 5//5 
f 5//5 1//1 6//6 
f 2//2 5//5 4//4 
f 4//4 5//5 7//7 
f 1//1 3//3 6//6 
f 6//6 3//3 8//8 
f 7//7 8//8 4//4 
f 4//4 8//8 3//3 
f 5//5 6//6 7//7 
f 7//7 6//6 8//8 
