v -55.26746368 7.1875 128.3703156
v -55.26746368 0.1666666716 128.3703156
v -54.75704956 7.1875 128.3703156
v -54.75704956 0.1666666716 128.3703156
v -55.26746368 0.1666666716 142.6099854
v -55.26746368 18.66666603 142.6099854
v -55.26746368 7.1875 134.4119873
v -55.26746368 18.66666603 126.726738
v -55.26746368 0.1666666716 126.726738
v -55.26746368 0.1666666716 134.4119873
v -54.75704956 18.66666603 142.6099854
v -54.75704956 18.66666603 126.726738
v -54.75704956 0.1666666716 126.726738
v -54.75704956 7.1875 134.4119873
v -54.75704956 0.1666666716 142.6099854
v -54.75704956 0.1666666716 134.4119873
vn -0.9979526401 -0.05530051142 0.03213147819
vn -0.8478680849 -0.0616399534 0.5266120434
vn 0.9975518584 -0.02763915248 0.06423714757
vn 0.9459325075 -0.1375384629 0.2937599719
vn -0.9957532883 -0.01991496608 0.08988215774
vn -0.9984256625 0.04847022519 0.02822782844
vn -0.99985677 -0.00668977201 -0.01554794051
vn -0.9973564744 0.02866361104 -0.06677183509
vn -0.974843204 -0.03899353743 -0.2194543183
vn -0.9877211452 -0.1436145306 -0.06149633229
vn 0.9981120825 0.02422750182 0.0564379245
vn 0.997795105 0.05735243484 -0.03340060264
vn 0.9116896987 -0.01823370345 -0.4104746878
vn 0.9998802543 -0.01337985881 -0.007774152793
vn 0.9981864691 -0.03992725909 0.0450508967
vn 0.9897638559 -0.07195577025 -0.1232470348
f 1//1 2//2 3//3 
f 3//3 2//2 4//4 
f 5//5 6//6 7//7 
f 7//7 6//6 8//8 
f 7//7 8//8 1//1 
f 1//1 8//8 9//9 
f 1//1 9//9 2//2 
f 7//7 10//10 5//5 
f 11//11 12//12 6//6 
f 6//6 12//12 8//8 
f 13//13 4//4 9//9 
f 9//9 4//4 2//2 
f 11//11 14//14 12//12 
f 12//12 14//14 3//3 
f 12//12 3//3 13//13 
f 13//13 3//3 4//4 
f 11//11 15//15 14//14 
f 14//14 15//15 16//16 
f 12//12 13//13 8//8 
f 8//8 13//13 9//9 
f 7//7 1//1 14//14 
f 14//14 1//1 3//3 
f 14//14 16//16 7//7 
f 7//7 16//16 10//10 
f 5//5 10//10 15//15 
f 15//15 10//10 16//16 
f 15//15 11//11 5//5 
f 5//5 11//11 6//6 
