v 15.52128792 10.33333302 25.71173668
v 15.52128792 18.66666603 25.71173668
v 15.46808052 10.33333302 25.30898666
v 15.46808052 18.66666603 25.30898666
v 8.18596077 10.33333302 26.68135834
v 8.132754326 10.33333302 26.27860832
v 32.50972748 18.66666603 23.46611595
v 32.48299408 18.66666603 23.05986595
v 8.18596077 0.1666666716 26.68135834
v 32.50972748 0.1666666716 23.46611595
v 8.132754326 0.1666666716 26.27860832
v 32.48299408 0.1666666716 23.05986595
vn 0.1267621815 0.007663017139 0.9919035435
vn 0.08384623379 0.04863776639 0.9952909946
vn -0.1395847946 0.003826672677 -0.9902027249
vn -0.1537406147 0.09693793207 -0.9833447337
vn 0.02203146555 0.03968922049 0.9989691377
vn -0.1846108139 0.07954454422 -0.9795874357
vn 0.1471446007 0.03025262803 0.9886522293
vn -0.09855468571 0.01516248472 -0.995016098
vn 0.1183683127 -0.03068367019 0.9924955964
vn 0.1571537554 -0.03511577845 0.9869496226
vn -0.1559037566 -0.06124810502 -0.9858715534
vn -0.1178697646 -0.01760245673 -0.992873013
f 1//1 2//2 3//3 
f 3//3 2//2 4//4 
f 5//5 1//1 6//6 
f 6//6 1//1 3//3 
f 2//2 7//7 4//4 
f 4//4 7//7 8//8 
f 5//5 9//9 1//1 
f 1//1 9//9 10//10 
f 1//1 10//10 7//7 
f 7//7 2//2 1//1 
f 6//6 3//3 11//11 
f 11//11 3//3 12//12 
f 12//12 3//3 8//8 
f 8//8 3//3 4//4 
f 9//9 5//5 11//11 
f 11//11 5//5 6//6 
f 7//7 10//10 8//8 
f 8//8 10//10 12//12 
f 9//9 11//11 10//10 
f 10//10 11//11 12//12 
