v 30.71369743 10.16666698 46.9585495
v 30.71369743 0.1666666716 46.9585495
v 30.31098747 10.16666698 47.01207733
v 30.31098747 0.1666666716 47.01207733
v 31.42380333 0.1666666716 52.31090546
v 31.42380333 10.16666698 52.31090546
v 31.02105331 0.1666666716 52.36411285
v 31.02105331 10.16666698 52.36411285
vn 0.9848572016 0.04056208581 -0.1685556769
vn 0.9576176405 -0.08008786291 -0.2766846716
vn -0.9990417361 0.04013899714 -0.01745028608
vn -0.9953523278 -0.02029386349 0.09413746744
vn 0.9953522682 -0.02029434964 -0.09413836151
vn 0.9990413785 0.04014350101 0.01745863631
vn -0.9576205611 -0.08008321375 0.2766759396
vn -0.9848569036 0.04056329653 0.1685570031
f 1//1 2//2 3//3 
f 3//3 2//2 4//4 
f 2//2 1//1 5//5 
f 5//5 1//1 6//6 
f 5//5 7//7 2//2 
f 2//2 7//7 4//4 
f 6//6 1//1 8//8 
f 8//8 1//1 3//3 
f 7//7 8//8 4//4 
f 4//4 8//8 3//3 
f 5//5 6//6 7//7 
f 7//7 6//6 8//8 
