v 25.74179459 7.020833492 47.61936951
v 25.7953186 7.020833492 48.02207947
v 22.72664261 7.020833492 48.02011871
v 22.78016853 7.020833492 48.42282486
v 25.74179459 0.1666666716 47.61936951
v 25.7953186 0.1666666716 48.02207947
v 16.94184303 10.16666698 48.78897858
v 14.09938622 0.1666666716 49.16677475
v 16.99536705 10.16666698 49.19168854
v 14.15291023 0.1666666716 49.5694809
v 30.31098747 10.16666698 47.01207733
v 30.31098747 0.1666666716 47.01207733
v 22.72664261 0.1666666716 48.02011871
v 22.78016853 0.1666666716 48.42282486
v 30.36441803 10.16666698 47.41479492
v 30.36441803 0.1666666716 47.41479492
vn -0.1632861644 -0.01415272895 -0.9864772558
vn 0.06831716746 -0.02825469896 0.9972634912
vn -0.1008576974 -0.01379659679 -0.9948052168
vn 0.1471489966 -0.006901215762 0.9890902638
vn -0.2997974455 -0.1159522906 -0.9469300508
vn 0.04413495213 -0.05893919244 0.9972854257
vn -0.1672969759 0.1096624658 -0.979788661
vn -0.1946227849 -0.03722368926 -0.9801716208
vn 0.05809675902 0.07074382156 0.9958012104
vn 0.09998206049 -0.01865003072 0.9948144555
vn -0.04939448088 0.05558097363 -0.9972316623
vn -0.07978199422 -0.02406405844 -0.9965218306
vn -0.08523853123 -0.0591022186 -0.9946061373
vn 0.2217846662 -0.117213577 0.9680250883
vn 0.1715938896 0.1109292656 0.9789025784
vn 0.2338799834 -0.04789034277 0.97108531
f 1//1 2//2 3//3 
f 3//3 2//2 4//4 
f 1//1 5//5 2//2 
f 2//2 5//5 6//6 
f 7//7 8//8 9//9 
f 9//9 8//8 10//10 
f 8//8 7//7 3//3 
f 3//3 7//7 11//11 
f 3//3 11//11 1//1 
f 1//1 11//11 12//12 
f 1//1 12//12 5//5 
f 3//3 13//13 8//8 
f 10//10 8//8 14//14 
f 14//14 8//8 13//13 
f 11//11 7//7 15//15 
f 15//15 7//7 9//9 
f 9//9 4//4 15//15 
f 15//15 4//4 2//2 
f 15//15 2//2 16//16 
f 16//16 2//2 6//6 
f 9//9 10//10 4//4 
f 4//4 10//10 14//14 
f 12//12 11//11 16//16 
f 16//16 11//11 15//15 
f 4//4 14//14 3//3 
f 3//3 14//14 13//13 
f 12//12 16//16 5//5 
f 5//5 16//16 6//6 
