v -35.49181366 18.66666603 -28.30668068
v -35.49181366 0.1666666716 -28.30668068
v -35.49181366 18.66666603 -28.71293068
v -35.49181366 0.1666666716 -28.71293068
v -40.13227081 0.1666666716 -28.71293068
v -40.13227081 18.66666603 -28.71293068
v -40.07860184 18.66666603 -28.30668068
v -40.07860184 0.1666666716 -28.30668068
vn 0.04423877969 0.01096832007 0.998960793
vn 0.1743830144 -0.02161778323 0.9844405651
vn 0.172307536 0.04297091812 -0.9841054678
vn 0.04372035339 -0.02180640213 -0.9988058209
vn -0.1763817519 -0.02212140523 -0.9840732217
vn -0.04398193955 0.01103223301 -0.9989714026
vn -0.1703985929 0.04249485582 0.9844585061
vn -0.04397403449 -0.02193292975 0.9987918735
f 1//1 2//2 3//3 
f 3//3 2//2 4//4 
f 5//5 6//6 4//4 
f 4//4 6//6 3//3 
f 1//1 3//3 7//7 
f 7//7 3//3 6//6 
f 2//2 8//8 4//4 
f 4//4 8//8 5//5 
f 2//2 1//1 8//8 
f 8//8 1//1 7//7 
f 8//8 7//7 5//5 
f 5//5 7//7 6//6 
