v 50.54985046 0.1666666716 -16.83333397
v 50.54985046 12.16666698 -16.83333397
v 50.52311707 0.1666666716 -17.23958397
v 50.52311707 12.16666698 -17.23958397
v 50.98735046 0.1666666716 -16.83333397
v 50.98735046 12.16666698 -16.83333397
v 50.98735046 0.1666666716 -17.23958397
v 50.98735046 12.16666698 -17.23958397
vn -0.4105642736 -0.03085162491 0.9113095999
vn -0.855435431 0.0321406126 0.5169112682
vn -0.8923010826 -0.01725983061 -0.4511107504
vn -0.4107079506 0.01588869467 -0.9116284847
vn 0.8803576827 -0.01604818739 0.4740387797
vn 0.4210616946 0.015351207 0.9069020748
vn 0.4006749988 -0.03010850213 -0.91572541
vn 0.8678055406 0.03260538355 -0.4958330095
f 1//1 2//2 3//3 
f 3//3 2//2 4//4 
f 5//5 6//6 1//1 
f 1//1 6//6 2//2 
f 5//5 1//1 7//7 
f 7//7 1//1 3//3 
f 6//6 8//8 2//2 
f 2//2 8//8 4//4 
f 3//3 4//4 7//7 
f 7//7 4//4 8//8 
f 7//7 8//8 5//5 
f 5//5 8//8 6//6 
