v 30.92390442 0.1666666716 2.812565327
v 30.92390442 18.66666603 2.812565327
v 30.52115822 0.1666666716 2.865802526
v 30.52115822 18.66666603 2.865802526
v 28.25265312 0.1666666716 -14.2957592
v 28.65539932 0.1666666716 -14.34899616
v 29.25850677 0.1666666716 -6.686339378
v 29.66125298 0.1666666716 -6.73957634
v 29.25850677 7.020833492 -6.686339378
v 29.66125298 7.020833492 -6.73957634
v 30.05984879 0.1666666716 -3.724139929
v 29.65710258 0.1666666716 -3.670902729
v 28.65539932 18.66666603 -14.34899616
v 30.05984879 7.020833492 -3.724139929
v 28.25265312 18.66666603 -14.2957592
v 29.65710258 7.020833492 -3.670902729
vn 0.9961338639 -0.01600477286 -0.08637788892
vn 0.9957998395 0.01956817508 -0.08944146335
vn -0.9751611948 -0.03190097958 0.2191871256
vn -0.9876590371 0.03913945705 0.1516499072
vn -0.9955673814 -0.01600900292 0.09267836064
vn 0.9778417349 -0.03193451837 -0.2068954408
vn -0.9653891325 -0.1170716584 0.2330622971
vn 0.995175302 -0.05908420309 -0.07832761109
vn -0.9905062914 -0.002862760331 0.1374374181
vn 0.9929682612 -0.00572502194 -0.1182425916
vn 0.9612771869 -0.1168451309 -0.2495864481
vn -0.9958178401 -0.0590550229 0.06970927864
vn 0.9874470234 0.04089061171 -0.1525657773
vn 0.9894634485 -0.006098495796 -0.144654423
vn -0.9959481955 0.02044343203 0.08757396787
vn -0.9945289493 -0.01219283417 0.1037473306
f 1//1 2//2 3//3 
f 3//3 2//2 4//4 
f 5//5 6//6 7//7 
f 7//7 6//6 8//8 
f 9//9 7//7 10//10 
f 10//10 7//7 8//8 
f 1//1 3//3 11//11 
f 11//11 3//3 12//12 
f 6//6 13//13 10//10 
f 10//10 13//13 2//2 
f 10//10 2//2 14//14 
f 14//14 2//2 1//1 
f 14//14 1//1 11//11 
f 10//10 8//8 6//6 
f 15//15 9//9 4//4 
f 4//4 9//9 16//16 
f 4//4 16//16 3//3 
f 3//3 16//16 12//12 
f 15//15 5//5 9//9 
f 9//9 5//5 7//7 
f 9//9 10//10 16//16 
f 16//16 10//10 14//14 
f 14//14 11//11 16//16 
f 16//16 11//11 12//12 
f 2//2 13//13 4//4 
f 4//4 13//13 15//15 
f 13//13 6//6 15//15 
f 15//15 6//6 5//5 
