v 25.06379318 7.020833492 -2.868750572
v 25.11765671 7.020833492 -2.466087341
v 22.04898071 7.020833492 -2.465460777
v 22.10284615 7.020833492 -2.062797546
v 18.07525635 7.020833492 -1.524029016
v 18.02139282 7.020833492 -1.926692247
v 21.09006882 7.020833492 -1.927318931
v 21.03620529 7.020833492 -2.329982281
v 25.06379318 0.1666666716 -2.868750572
v 25.11765671 0.1666666716 -2.466087341
v 21.09006882 0.1666666716 -1.927318931
v 21.03620529 0.1666666716 -2.329982281
v 22.10284615 0.1666666716 -2.062797546
v 22.04898071 0.1666666716 -2.465460777
v 14.79985142 10.16666698 -1.348347902
v 14.79985142 0.1666666716 -1.348347902
v 15.0312252 10.16666698 -1.328741193
v 15.0312252 0.1666666716 -1.328741193
v 15.25600147 0.1666666716 -1.270480275
v 15.46776772 0.1666666716 -1.17522645
v 15.46776772 10.16666698 -1.17522645
v 15.25600147 10.16666698 -1.270480275
v 29.73472023 0.1666666716 -3.083709478
v 29.73472023 10.16666698 -3.083709478
v 18.07525635 0.1666666716 -1.524029016
v 14.44938278 0.1666666716 -1.302933216
v 14.44938278 10.16666698 -1.302933216
v 14.12206554 0.1666666716 -1.169688821
v 14.12206554 10.16666698 -1.169688821
v 13.83952141 0.1666666716 -0.9574167132
v 13.83952141 10.16666698 -0.9574167132
v 29.68148232 10.16666698 -3.486456633
v 29.68148232 0.1666666716 -3.486456633
v 11.2999258 10.16666698 -1.027564883
v 8.825778961 0.1666666716 -0.6965995431
v 18.02139282 0.1666666716 -1.926692247
v 8.87964344 0.1666666716 -0.2939362526
v 11.35378933 10.16666698 -0.6249015927
vn -0.1638215482 -0.0140192043 -0.9863903522
vn 0.06975218654 -0.02799165994 0.9971715212
vn 0.1398986876 -0.1193696484 -0.9829441905
vn 0.1707302928 -0.01712990925 0.9851688743
vn 0.1834934652 -0.02288583666 0.9827544689
vn -0.09541888535 -0.01659195684 -0.9952989221
vn -0.1398987323 -0.1193697304 0.9829441309
vn -0.1649028212 -0.01450578682 -0.9862031341
vn -0.2988764048 -0.1159824058 -0.9472174644
vn 0.04589202255 -0.05894371495 0.9972058535
vn -0.06318461895 -0.02905423194 0.9975788593
vn -0.7175871134 -0.09238651395 -0.6903140545
vn 0.717587769 -0.09238661081 0.6903133392
vn 0.06318473071 -0.02905421332 -0.9975788593
vn 0.05326753855 0.7148199081 0.6972768903
vn 0.007621687371 -0.03113975935 0.9994859695
vn -0.1646731347 0.2057107687 0.9646583796
vn -0.1584494114 -0.3366587758 0.9281997085
vn -0.3311750293 -0.05862227082 0.9417465329
vn 0.1063328013 -0.006955500692 0.9943062663
vn 0.1050331146 0.0199521035 0.9942685366
vn -0.2779746056 0.5458006263 0.7904630303
vn 0.2336311787 -0.04789215326 0.9711450934
vn 0.171346873 0.09624161571 0.9804987311
vn 0.4173241556 -0.09388933331 0.9038945436
vn 0.20935902 -0.1821179092 0.9607298374
vn 0.2961884439 0.03570919111 0.9544617534
vn 0.4501262903 -0.1449242532 0.8811261654
vn 0.5281443596 0.0841203928 0.8449776769
vn 0.1744857877 -0.0371376425 0.9839590788
vn 0.1927917302 0.05583336577 0.9796499014
vn -0.06383553147 0.07452418655 -0.9951739311
vn -0.08117095381 -0.02406660095 -0.996409595
vn -0.1604444385 0.03949569166 -0.9862543941
vn -0.1900552511 -0.02070010081 -0.9815551639
vn -0.08901304752 -0.04444179684 -0.9950385094
vn 0.05193951726 -0.02028900385 0.99844414
vn 0.02521447837 0.0402938351 0.9988696575
f 1//1 2//2 3//3 
f 3//3 2//2 4//4 
f 5//5 6//6 7//7 
f 7//7 6//6 8//8 
f 1//1 9//9 2//2 
f 2//2 9//9 10//10 
f 11//11 12//12 13//13 
f 13//13 12//12 14//14 
f 8//8 12//12 7//7 
f 7//7 12//12 11//11 
f 4//4 13//13 3//3 
f 3//3 13//13 14//14 
f 15//15 16//16 17//17 
f 17//17 16//16 18//18 
f 17//17 18//18 19//19 
f 20//20 21//21 19//19 
f 19//19 21//21 22//22 
f 19//19 22//22 17//17 
f 10//10 23//23 2//2 
f 2//2 23//23 24//24 
f 2//2 24//24 4//4 
f 4//4 24//24 21//21 
f 4//4 21//21 7//7 
f 7//7 21//21 5//5 
f 5//5 21//21 20//20 
f 5//5 20//20 25//25 
f 7//7 11//11 4//4 
f 4//4 11//11 13//13 
f 16//16 15//15 26//26 
f 26//26 15//15 27//27 
f 26//26 27//27 28//28 
f 28//28 27//27 29//29 
f 28//28 29//29 30//30 
f 30//30 29//29 31//31 
f 24//24 23//23 32//32 
f 32//32 23//23 33//33 
f 32//32 8//8 34//34 
f 34//34 8//8 6//6 
f 34//34 6//6 35//35 
f 35//35 6//6 36//36 
f 33//33 1//1 32//32 
f 32//32 1//1 3//3 
f 32//32 3//3 8//8 
f 8//8 3//3 14//14 
f 8//8 14//14 12//12 
f 33//33 9//9 1//1 
f 36//36 26//26 35//35 
f 35//35 26//26 28//28 
f 35//35 28//28 30//30 
f 25//25 18//18 36//36 
f 36//36 18//18 16//16 
f 36//36 16//16 26//26 
f 20//20 19//19 25//25 
f 25//25 19//19 18//18 
f 30//30 37//37 35//35 
f 24//24 32//32 15//15 
f 15//15 32//32 34//34 
f 15//15 34//34 27//27 
f 27//27 34//34 29//29 
f 29//29 34//34 31//31 
f 31//31 34//34 38//38 
f 15//15 17//17 24//24 
f 24//24 17//17 22//22 
f 24//24 22//22 21//21 
f 37//37 30//30 38//38 
f 38//38 30//30 31//31 
f 37//37 38//38 35//35 
f 35//35 38//38 34//34 
f 5//5 25//25 6//6 
f 6//6 25//25 36//36 
f 10//10 9//9 23//23 
f 23//23 9//9 33//33 
