v -10.16601753 10 -132.070282
v -10.16601753 0.1666666716 -132.070282
v -10.56877041 10 -132.0171051
v -10.56877041 0.1666666716 -132.0171051
v -9.826381683 0.1666666716 -129.4984894
v -10.22913456 0.1666666716 -129.4452972
v -7.276696205 0 -110.1917343
v -7.276696205 10 -110.1917343
v -7.679442883 0 -110.1384964
v -7.679442883 10 -110.1384964
v -7.563164234 10 -112.3609314
v -7.96591711 10 -112.3077393
v -9.826381683 10 -129.4984894
v -10.22913456 10 -129.4452972
v -7.563164234 0 -112.3609314
v -7.96591711 0 -112.3077393
v -6.538417339 10 -104.6013336
v -6.538417339 18.66666603 -104.6013336
v -6.941164017 10 -104.5480957
v -6.941164017 18.66666603 -104.5480957
v -10.85196304 18.66666603 -137.2644043
v -10.85196304 10 -137.2644043
v -11.25471592 18.66666603 -137.2112274
v -11.25471592 10 -137.2112274
vn 0.9862793684 -0.01788698509 -0.1641129404
vn 0.9041361809 -0.07860553265 -0.4199511707
vn -0.9979153275 -0.04536506534 0.04590280354
vn -0.9983757138 -0.02058933489 0.05312308669
vn 0.9983756542 -0.02058937773 -0.05312324315
vn -0.904135108 -0.07860593498 0.4199532866
vn 0.9990456104 -0.02022117376 -0.03871611878
vn 0.9978704453 -0.05079500377 -0.04091952369
vn -0.8812502623 -0.07595051825 0.4665077329
vn -0.9857655764 -0.0205100365 0.166869998
vn 0.9881700873 -0.03301743791 -0.1497656554
vn -0.9933807254 -0.07340099663 0.08835718781
vn 0.9930016994 -0.02904209308 -0.1144736186
vn -0.9902396202 -0.01379897632 0.1386904866
vn 0.8812535405 -0.07594911754 -0.4665017426
vn -0.9990456104 -0.02022139728 0.03871712461
vn 0.9971480966 -0.04670241475 -0.05928361416
vn 0.9927760959 0.02658760734 -0.1169985905
vn -0.9584683776 -0.09239641577 0.2698171139
vn -0.9890533686 0.05312285945 0.137663871
vn 0.9872114658 0.07552164048 -0.140392229
vn 0.9555262923 -0.09224681556 -0.2801072598
vn -0.9930919409 0.03783621639 0.111070998
vn -0.9974581599 -0.04668366909 0.05383203551
f 1//1 2//2 3//3 
f 3//3 2//2 4//4 
f 5//5 6//6 2//2 
f 2//2 6//6 4//4 
f 7//7 8//8 9//9 
f 9//9 8//8 10//10 
f 11//11 12//12 13//13 
f 13//13 12//12 14//14 
f 7//7 9//9 15//15 
f 15//15 9//9 16//16 
f 17//17 18//18 19//19 
f 19//19 18//18 20//20 
f 2//2 1//1 5//5 
f 5//5 1//1 13//13 
f 13//13 1//1 21//21 
f 13//13 21//21 18//18 
f 1//1 22//22 21//21 
f 17//17 8//8 18//18 
f 18//18 8//8 11//11 
f 18//18 11//11 13//13 
f 8//8 7//7 11//11 
f 11//11 7//7 15//15 
f 18//18 21//21 20//20 
f 20//20 21//21 23//23 
f 17//17 19//19 8//8 
f 8//8 19//19 10//10 
f 6//6 14//14 4//4 
f 4//4 14//14 3//3 
f 3//3 14//14 23//23 
f 3//3 23//23 24//24 
f 23//23 14//14 20//20 
f 20//20 14//14 12//12 
f 20//20 12//12 10//10 
f 10//10 12//12 16//16 
f 10//10 16//16 9//9 
f 10//10 19//19 20//20 
f 11//11 15//15 12//12 
f 12//12 15//15 16//16 
f 5//5 13//13 6//6 
f 6//6 13//13 14//14 
f 1//1 3//3 22//22 
f 22//22 3//3 24//24 
f 21//21 22//22 23//23 
f 23//23 22//22 24//24 
