v 20.4196434 7.020833492 -149.2557068
v 20.4196434 0 -149.2557068
v 20.0133934 7.020833492 -149.2557068
v 20.0133934 0 -149.2557068
v 20.0133934 7.020833492 -152.2973633
v 20.4196434 7.020833492 -152.2973633
v 20.0133934 0 -152.7297058
v 20.0133934 0.5625 -152.7297058
v 20.4196434 0 -152.7297058
v 20.4196434 0.5625 -152.7297058
v 20.4196434 0.5625 -152.6712646
v 20.0133934 0.5625 -152.6712646
v 20.0133934 18.66666603 -146.7297058
v 20.0133934 0 -146.7297058
v 20.4196434 18.66666603 -146.7297058
v 20.4196434 0 -146.7297058
v 20.4196434 18.66666603 -152.6712646
v 20.4196434 0 -152.2973633
v 20.0133934 18.66666603 -152.6712646
v 20.0133934 0 -152.2973633
vn 0.9997522235 -0.01457628328 -0.01682268456
vn 0.9505248666 -0.05500069633 -0.3057407439
vn -0.999407649 -0.007285629865 -0.03363377601
vn -0.9809305668 -0.1135201529 -0.1577604562
vn -0.9964732528 -0.05494869873 0.06341703236
vn 0.9916257858 -0.02734069899 0.1262170672
vn -0.5501238704 -0.7000018358 -0.4553692937
vn -0.07164613158 0.05174442753 -0.9960870147
vn 0.4911464751 -0.3124781847 -0.8131005764
vn 0.1394700408 0.2014567256 -0.9695170522
vn 0.5493363142 0.001348679885 -0.8356002569
vn -0.7959434986 0.003908254206 -0.6053583026
vn -0.9970283508 0.04136930779 0.06498522311
vn -0.9736378789 -0.01539816614 0.2275790274
vn 0.9914004207 0.02056789584 0.1292368025
vn 0.9927500486 -0.03140085191 0.1160231605
vn 0.9968953729 0.04320579395 -0.0658248812
vn 0.7064326406 -0.08651645482 0.7024726868
vn -0.9911638498 0.02147869393 -0.1308928579
vn -0.4490571022 -0.02749790251 0.8930798173
f 1//1 2//2 3//3 
f 3//3 2//2 4//4 
f 3//3 5//5 1//1 
f 1//1 5//5 6//6 
f 7//7 8//8 9//9 
f 9//9 8//8 10//10 
f 11//11 10//10 12//12 
f 12//12 10//10 8//8 
f 13//13 14//14 15//15 
f 15//15 14//14 16//16 
f 15//15 1//1 17//17 
f 17//17 1//1 6//6 
f 17//17 6//6 11//11 
f 11//11 6//6 18//18 
f 11//11 18//18 9//9 
f 15//15 16//16 1//1 
f 1//1 16//16 2//2 
f 9//9 10//10 11//11 
f 14//14 13//13 3//3 
f 3//3 13//13 19//19 
f 3//3 19//19 5//5 
f 5//5 19//19 12//12 
f 5//5 12//12 20//20 
f 20//20 12//12 7//7 
f 7//7 12//12 8//8 
f 3//3 4//4 14//14 
f 15//15 17//17 13//13 
f 13//13 17//17 19//19 
f 14//14 4//4 16//16 
f 16//16 4//4 2//2 
f 17//17 11//11 19//19 
f 19//19 11//11 12//12 
f 9//9 18//18 7//7 
f 7//7 18//18 20//20 
f 5//5 20//20 6//6 
f 6//6 20//20 18//18 
