v -10.85196304 0.1666666716 -137.2644043
v -10.85196304 18.66666603 -137.2644043
v -10.90515137 0.1666666716 -137.66716
v -10.90515137 18.66666603 -137.66716
v -7.930730343 0.1666666716 -138.059967
v -7.930730343 18.66666603 -138.059967
v -7.877542019 0.1666666716 -137.6572113
v -7.877542019 18.66666603 -137.6572113
vn 0.0636549294 -0.01095406618 0.9979118705
vn -0.1327444017 0.02119133994 0.9909237623
vn -0.3851738572 -0.04235414416 -0.9218716025
vn -0.1975456178 0.02190418728 -0.9800489545
vn -0.0636549294 -0.01095406618 -0.9979118705
vn 0.1327444017 0.02119133994 -0.9909237623
vn 0.3851738572 -0.04235414416 0.9218716025
vn 0.1975456178 0.02190418728 0.9800489545
f 1//1 2//2 3//3 
f 3//3 2//2 4//4 
f 3//3 4//4 5//5 
f 5//5 4//4 6//6 
f 7//7 8//8 1//1 
f 1//1 8//8 2//2 
f 5//5 7//7 3//3 
f 3//3 7//7 1//1 
f 6//6 4//4 8//8 
f 8//8 4//4 2//2 
f 5//5 6//6 7//7 
f 7//7 6//6 8//8 
