v 20.69346237 10.16666698 -13.30523491
v 20.69346237 18.66666603 -13.30523491
v 20.29071236 10.16666698 -13.25202751
v 20.29071236 18.66666603 -13.25202751
v 15.23013592 10.16666698 -54.66740799
v 15.23013592 0.1666666716 -54.66740799
v 15.0990591 10.16666698 -54.63129807
v 15.0990591 0.1666666716 -54.63129807
v 14.96505547 0.1666666716 -54.60830688
v 14.82943726 0.1666666716 -54.59866714
v 14.82943726 10.16666698 -54.59866714
v 14.96505547 10.16666698 -54.60830688
v 15.22064972 18.66666603 -51.63684464
v 15.22064972 10.16666698 -51.63684464
v 21.01348495 0.1666666716 -7.779994488
v 21.01348495 10.16666698 -7.779994488
v 15.62340069 10.16666698 -51.69005203
v 15.62340069 18.66666603 -51.69005203
v 21.41614914 10.16666698 -7.83385849
v 21.41614914 0.1666666716 -7.83385849
vn 0.9916703105 0.002850827063 -0.1287705302
vn 0.9927856326 0.0477290526 -0.1099937633
vn -0.9906452894 0.001802901737 0.1364504099
vn -0.989559114 0.04773896933 0.1359917074
vn 0.983039856 0.05404267088 -0.1752484143
vn 0.9905794263 -0.02871590666 -0.133894816
vn -0.2152843326 0.1458801329 -0.9655939341
vn -0.04527242854 -0.9781199694 -0.2030560225
vn -0.04686235636 -0.9207985997 -0.3872129321
vn -0.9915621877 -0.007207201328 0.1294311881
vn -0.999098897 0.01358836051 0.04020926729
vn -0.1151421219 0.2856458127 -0.9513930678
vn -0.9927856326 0.04772916436 0.1099937409
vn -0.991802156 0.002256590407 0.1277630031
vn -0.9866480231 -0.07254668325 0.1458172053
vn -0.9759020209 0.08077097684 0.2027098089
vn 0.990133822 0.001634671004 -0.1401156336
vn 0.989559114 0.04773896933 -0.1359917074
vn 0.9990840554 0.04014982283 0.01479913294
vn 0.9917123318 -0.03634989262 -0.1232288927
f 1//1 2//2 3//3 
f 3//3 2//2 4//4 
f 5//5 6//6 7//7 
f 7//7 6//6 8//8 
f 7//7 8//8 9//9 
f 10//10 11//11 9//9 
f 9//9 11//11 12//12 
f 9//9 12//12 7//7 
f 13//13 14//14 4//4 
f 4//4 14//14 3//3 
f 3//3 14//14 10//10 
f 3//3 10//10 15//15 
f 14//14 11//11 10//10 
f 15//15 16//16 3//3 
f 17//17 5//5 14//14 
f 14//14 5//5 7//7 
f 14//14 7//7 12//12 
f 12//12 11//11 14//14 
f 2//2 1//1 18//18 
f 18//18 1//1 17//17 
f 17//17 1//1 6//6 
f 17//17 6//6 5//5 
f 19//19 20//20 1//1 
f 1//1 20//20 6//6 
f 2//2 18//18 4//4 
f 4//4 18//18 13//13 
f 18//18 17//17 13//13 
f 13//13 17//17 14//14 
f 19//19 1//1 16//16 
f 16//16 1//1 3//3 
f 20//20 19//19 15//15 
f 15//15 19//19 16//16 
f 20//20 15//15 6//6 
f 6//6 15//15 8//8 
f 8//8 15//15 9//9 
f 9//9 15//15 10//10 
