v 25.10779953 18.66666603 -112.6572037
v 25.10779953 0.1666666716 -112.6572037
v 25.05055809 18.66666603 -113.0906448
v 25.05055809 0.1666666716 -113.0906448
v 23.00074196 18.66666603 -112.0682373
v 22.88913345 18.66666603 -111.5782623
v 20.85785866 18.66666603 -111.2588501
v 20.56757927 18.66666603 -110.7434082
v 18.64397812 18.66666603 -110.6708069
v 18.16989899 18.66666603 -110.162262
v 16.38189697 18.66666603 -110.310173
v 15.72373486 18.66666603 -109.8415298
v 14.09491444 18.66666603 -110.1806641
v 13.25728226 18.66666603 -109.7849045
v 11.80658245 18.66666603 -110.2836151
v 10.79897499 18.66666603 -109.9930344
v 9.540467262 18.66666603 -110.6179504
v 8.377151489 18.66666603 -110.4635315
v 7.319907188 18.66666603 -111.1802444
v 6.019730091 18.66666603 -111.1909637
v 5.167769909 18.66666603 -111.9646988
v 3.753885984 18.66666603 -112.1669464
v 3.106220245 18.66666603 -112.9632339
v 1.605739117 18.66666603 -113.3802338
v 1.156488895 18.66666603 -114.1655655
v -0.3999470174 18.66666603 -114.8168335
v -0.6613445282 18.66666603 -115.5593185
v -2.240051746 18.66666603 -116.4601822
v -2.328558922 18.66666603 -117.1301346
v -2.328558922 0.1666666716 -117.1301346
v -0.6613445282 0.1666666716 -115.5593185
v 1.156488895 0.1666666716 -114.1655655
v 3.106220245 0.1666666716 -112.9632339
v 5.167769909 0.1666666716 -111.9646988
v 7.319907188 0.1666666716 -111.1802444
v 9.540467262 0.1666666716 -110.6179504
v 11.80658245 0.1666666716 -110.2836151
v 14.09491444 0.1666666716 -110.1806641
v 16.38189697 0.1666666716 -110.310173
v 18.64397812 0.1666666716 -110.6708069
v 20.85785866 0.1666666716 -111.2588501
v 23.00074196 0.1666666716 -112.0682373
v 22.88913345 0.1666666716 -111.5782623
v 20.56757927 0.1666666716 -110.7434082
v 18.16989899 0.1666666716 -110.162262
v 15.72373486 0.1666666716 -109.8415298
v 13.25728226 0.1666666716 -109.7849045
v 10.79897499 0.1666666716 -109.9930344
v 8.377151489 0.1666666716 -110.4635315
v 6.019730091 0.1666666716 -111.1909637
v 3.753885984 0.1666666716 -112.1669464
v 1.605739117 0.1666666716 -113.3802338
v -0.3999470174 0.1666666716 -114.8168335
v -2.240051746 0.1666666716 -116.4601822
vn 0.5090739131 0.02032144554 0.8604828715
vn 0.6784975529 -0.03606951237 0.7337166071
vn -0.07165464014 0.02358420379 -0.9971506596
vn -0.3614113927 -0.01148109231 -0.932335794
vn -0.4003004432 0.01697023399 -0.9162268043
vn 0.3717676401 0.02106011286 0.9280868769
vn -0.2891813815 0.02270810865 -0.9570049644
vn 0.27012375 0.0209720619 0.9625971913
vn -0.1906988472 0.02278135344 -0.9813842177
vn 0.1653643399 0.02089877799 0.9860110879
vn -0.09025110304 0.02284097672 -0.9956570864
vn 0.05869847909 0.02084040269 0.9980581999
vn 0.01112650335 0.02288717218 -0.9996761084
vn -0.04864249378 0.02079720423 0.9985997081
vn 0.1123850569 0.02292011492 -0.9934003353
vn -0.155425325 0.02076888457 0.9876292944
vn 0.212488994 0.02293915674 -0.9768941998
vn -0.2604157627 0.02075517923 0.9652734399
vn 0.3104048967 0.02294466272 -0.9503275156
vn -0.362403363 0.02075657621 0.9317901731
vn 0.4051229656 0.02293672785 -0.9139744639
vn -0.4602143466 0.02077283524 0.8875647783
vn 0.4956688583 0.02291511185 -0.8682092428
vn -0.5527191758 0.02080382407 0.8331078887
vn 0.5811118484 0.02287984267 -0.8135020137
vn -0.6388511658 0.02084986679 0.7690477371
vn 0.6475575566 0.03424072638 -0.76124686
vn -0.828065753 0.02872652002 0.5598945022
vn 0.6057747006 0.01295546815 -0.7955307364
vn 0.1530317962 -0.03503246978 -0.9876001477
vn 0.6478424072 -0.01712789573 -0.7615817785
vn 0.553231895 -0.02287985198 -0.8327130079
vn 0.4659862518 -0.02291510627 -0.8844951987
vn 0.3739425242 -0.02293672599 -0.9271681905
vn 0.2780477405 -0.02294466458 -0.9602931738
vn 0.1792873293 -0.0229391586 -0.9835292697
vn 0.07868441939 -0.02292011119 -0.9966360331
vn -0.02273082547 -0.02288717218 -0.9994795918
vn -0.1239139736 -0.02284097299 -0.9920300245
vn -0.2238206714 -0.02278135903 -0.9743640423
vn -0.3214198947 -0.02270811237 -0.9466644526
vn -0.4001276195 -0.03392581642 -0.9158312678
vn 0.40478158 -0.02106011473 0.9141708612
vn 0.3044390082 -0.02097206563 0.9523009062
vn 0.200586617 -0.02089876868 0.9794530272
vn 0.09442032874 -0.02084040642 0.9953142405
vn -0.01283291727 -0.02079720236 0.9997013807
vn -0.1199387386 -0.02076888643 0.9925640225
vn -0.2256638557 -0.02075517736 0.9739841223
vn -0.3287855089 -0.02075657435 0.9441764951
vn -0.4281177223 -0.02077284083 0.9034842253
vn -0.5225148797 -0.0208038222 0.8523763418
vn -0.610886991 -0.02084985748 0.7914432287
vn -0.7239643335 -0.01893641986 0.6895774603
f 1//1 2//2 3//3 
f 3//3 2//2 4//4 
f 3//3 5//5 1//1 
f 1//1 5//5 6//6 
f 6//6 5//5 7//7 
f 6//6 7//7 8//8 
f 8//8 7//7 9//9 
f 8//8 9//9 10//10 
f 10//10 9//9 11//11 
f 10//10 11//11 12//12 
f 12//12 11//11 13//13 
f 12//12 13//13 14//14 
f 14//14 13//13 15//15 
f 14//14 15//15 16//16 
f 16//16 15//15 17//17 
f 16//16 17//17 18//18 
f 18//18 17//17 19//19 
f 18//18 19//19 20//20 
f 20//20 19//19 21//21 
f 20//20 21//21 22//22 
f 22//22 21//21 23//23 
f 22//22 23//23 24//24 
f 24//24 23//23 25//25 
f 24//24 25//25 26//26 
f 26//26 25//25 27//27 
f 26//26 27//27 28//28 
f 28//28 27//27 29//29 
f 30//30 29//29 31//31 
f 31//31 29//29 27//27 
f 31//31 27//27 25//25 
f 31//31 25//25 32//32 
f 32//32 25//25 23//23 
f 32//32 23//23 33//33 
f 33//33 23//23 21//21 
f 33//33 21//21 34//34 
f 34//34 21//21 19//19 
f 34//34 19//19 35//35 
f 35//35 19//19 17//17 
f 35//35 17//17 36//36 
f 36//36 17//17 15//15 
f 36//36 15//15 37//37 
f 37//37 15//15 13//13 
f 37//37 13//13 38//38 
f 38//38 13//13 11//11 
f 38//38 11//11 39//39 
f 39//39 11//11 9//9 
f 39//39 9//9 40//40 
f 40//40 9//9 7//7 
f 40//40 7//7 41//41 
f 41//41 7//7 5//5 
f 41//41 5//5 42//42 
f 42//42 5//5 4//4 
f 4//4 5//5 3//3 
f 2//2 1//1 43//43 
f 43//43 1//1 6//6 
f 43//43 6//6 44//44 
f 44//44 6//6 8//8 
f 44//44 8//8 45//45 
f 45//45 8//8 10//10 
f 45//45 10//10 46//46 
f 46//46 10//10 12//12 
f 46//46 12//12 47//47 
f 47//47 12//12 14//14 
f 47//47 14//14 48//48 
f 48//48 14//14 16//16 
f 48//48 16//16 49//49 
f 49//49 16//16 18//18 
f 49//49 18//18 50//50 
f 50//50 18//18 20//20 
f 50//50 20//20 51//51 
f 51//51 20//20 22//22 
f 51//51 22//22 52//52 
f 52//52 22//22 24//24 
f 52//52 24//24 53//53 
f 53//53 24//24 26//26 
f 53//53 26//26 54//54 
f 54//54 26//26 28//28 
f 4//4 2//2 42//42 
f 42//42 2//2 43//43 
f 42//42 43//43 41//41 
f 41//41 43//43 44//44 
f 41//41 44//44 40//40 
f 40//40 44//44 45//45 
f 40//40 45//45 39//39 
f 39//39 45//45 46//46 
f 39//39 46//46 38//38 
f 38//38 46//46 47//47 
f 38//38 47//47 37//37 
f 37//37 47//47 48//48 
f 37//37 48//48 36//36 
f 36//36 48//48 49//49 
f 36//36 49//49 35//35 
f 35//35 49//49 50//50 
f 35//35 50//50 34//34 
f 34//34 50//50 51//51 
f 34//34 51//51 33//33 
f 33//33 51//51 52//52 
f 33//33 52//52 32//32 
f 32//32 52//52 53//53 
f 32//32 53//53 31//31 
f 31//31 53//53 54//54 
f 31//31 54//54 30//30 
f 29//29 30//30 28//28 
f 28//28 30//30 54//54 
