v -11.25471592 18.66666603 -137.2112274
v -11.25471592 0.1666666716 -137.2112274
v -10.85196304 18.66666603 -137.2644043
v -10.85196304 0.1666666716 -137.2644043
v -12.04747677 18.66666603 -146.3170929
v -12.04747677 0.1666666716 -146.3170929
v -12.45725441 0.1666666716 -146.3170929
v -12.45725441 18.66666603 -146.3170929
vn -0.9880185127 0.0218846947 0.1527758092
vn -0.9750722647 -0.04357872531 0.217566058
vn 0.99885571 0.02186777256 -0.04253301397
vn 0.9939988852 -0.01097631361 -0.1088381112
vn 0.9880072474 0.02194872312 -0.1528394371
vn 0.9751936197 -0.04332812876 -0.2170716822
vn -0.9939914346 -0.0110085262 0.1089029089
vn -0.9988721013 0.02212516032 0.04201151803
f 1//1 2//2 3//3 
f 3//3 2//2 4//4 
f 3//3 4//4 5//5 
f 5//5 4//4 6//6 
f 2//2 1//1 7//7 
f 7//7 1//1 8//8 
f 3//3 5//5 1//1 
f 1//1 5//5 8//8 
f 4//4 2//2 6//6 
f 6//6 2//2 7//7 
f 5//5 6//6 8//8 
f 8//8 6//6 7//7 
