v -9.826381683 0.1666666716 -129.4984894
v -9.826381683 18.66666603 -129.4984894
v -9.879570007 0.1666666716 -129.9012451
v -9.879570007 18.66666603 -129.9012451
v -8.628454208 0.1666666716 -130.0664673
v -8.628454208 18.66666603 -130.0664673
v -8.575265884 0.1666666716 -129.6637115
v -8.575265884 18.66666603 -129.6637115
vn -0.02828428335 -0.01083963644 0.9995411634
vn -0.4265256524 0.01846057363 0.9042870402
vn -0.6463199258 -0.03690232709 -0.7621737123
vn -0.2867375314 0.02167546004 -0.9577639699
vn 0.02828428335 -0.01083963644 -0.9995411634
vn 0.4265256524 0.01846057363 -0.9042870402
vn 0.6463199258 -0.03690232709 0.7621737123
vn 0.2867375314 0.02167546004 0.9577639699
f 1//1 2//2 3//3 
f 3//3 2//2 4//4 
f 3//3 4//4 5//5 
f 5//5 4//4 6//6 
f 7//7 8//8 1//1 
f 1//1 8//8 2//2 
f 5//5 7//7 3//3 
f 3//3 7//7 1//1 
f 6//6 4//4 8//8 
f 8//8 4//4 2//2 
f 5//5 6//6 7//7 
f 7//7 6//6 8//8 
