v 21.06826782 7.020833492 -63.76961136
v 21.12213135 7.020833492 -63.36694717
v 18.05345535 7.020833492 -63.36632156
v 18.10731888 7.020833492 -62.96365738
v 9.522301674 7.020833492 -62.22511292
v 9.576166153 7.020833492 -61.82244873
v 6.507489681 7.020833492 -61.82182312
v 6.561353683 7.020833492 -61.41915894
v 2.526684284 7.020833492 -60.87944412
v 2.472820282 7.020833492 -61.28210831
v 5.541496754 7.020833492 -61.28273392
v 5.487632275 7.020833492 -61.6853981
v 2.526684284 0.1666666716 -60.87944412
v 2.472820282 0.1666666716 -61.28210831
v -0.9094953537 0.1666666716 -60.41978836
v 1.932642221 10.16666698 -60.79998016
v -0.9633594155 0.1666666716 -60.82245255
v 1.878778219 10.16666698 -61.20264435
v 18.05345535 0.1666666716 -63.36632156
v 18.10731888 0.1666666716 -62.96365738
v 9.522301674 0.1666666716 -62.22511292
v 9.576166153 0.1666666716 -61.82244873
v 5.487632275 0.1666666716 -61.6853981
v 5.541496754 0.1666666716 -61.28273392
v 6.561353683 0.1666666716 -61.41915894
v 6.507489681 0.1666666716 -61.82182312
v 22.11781883 0.1666666716 -63.91001129
v 22.11781883 10.16666698 -63.91001129
v 22.17105865 0.1666666716 -63.50726318
v 22.17105865 10.16666698 -63.50726318
v 21.12213135 0.1666666716 -63.36694717
v 21.06826782 0.1666666716 -63.76961136
vn -0.2318332195 -0.04479686916 -0.9717234969
vn -0.0671890825 -0.08803016692 0.9938492179
vn -0.07472214848 -0.02578815632 -0.9968708754
vn 0.1504073739 -0.007989312522 0.9885918498
vn -0.1451843083 -0.005645428784 -0.9893885255
vn 0.09799104929 -0.01544665452 0.9950674176
vn 0.1389837563 -0.1189776435 -0.9831214547
vn 0.2336550206 -0.04562656954 0.9712484479
vn 0.1893017292 -0.02550925501 0.9815875292
vn -0.01826601848 -0.05071879178 -0.9985459447
vn -0.1389837414 -0.1189774871 0.9831215143
vn -0.2336549908 -0.0456266664 -0.9712484479
vn 0.3529173732 -0.1146528348 0.9286032915
vn -0.01629936509 -0.05876610056 -0.9981387258
vn 0.02858705819 -0.006244801451 0.9995718002
vn 0.05288458243 0.1036600694 0.9932058454
vn -0.3330186605 -0.01229052711 -0.9428401589
vn -0.1695103198 0.171976164 -0.9704073668
vn -0.1091189831 -0.02961407416 -0.9935874939
vn 0.2236009091 -0.1172032356 0.9676083922
vn -0.223600924 -0.1172032505 -0.9676083922
vn 0.1091189906 -0.02961408347 0.9935874939
vn -0.7152260542 -0.09263315797 -0.6927270293
vn -0.0618608743 -0.02906191908 0.9976615906
vn 0.7152258754 -0.09263313562 0.6927272677
vn 0.06186085939 -0.02906192094 -0.9976615906
vn 0.09076209366 -0.02350409329 -0.9955952168
vn -0.06000946835 0.07402525097 -0.9954491854
vn 0.5308125615 -0.04381564632 0.8463558555
vn 0.1667658687 0.147119537 0.9749589562
vn -0.2310824692 -0.05524911731 0.9713642001
vn -0.7054568529 -0.09360516816 -0.7025444508
f 1//1 2//2 3//3 
f 3//3 2//2 4//4 
f 5//5 6//6 7//7 
f 7//7 6//6 8//8 
f 9//9 10//10 11//11 
f 11//11 10//10 12//12 
f 9//9 13//13 10//10 
f 10//10 13//13 14//14 
f 15//15 16//16 17//17 
f 17//17 16//16 18//18 
f 19//19 20//20 21//21 
f 21//21 20//20 22//22 
f 12//12 23//23 11//11 
f 11//11 23//23 24//24 
f 8//8 25//25 7//7 
f 7//7 25//25 26//26 
f 27//27 28//28 29//29 
f 29//29 28//28 30//30 
f 31//31 32//32 29//29 
f 29//29 32//32 27//27 
f 32//32 1//1 27//27 
f 27//27 1//1 28//28 
f 28//28 1//1 3//3 
f 28//28 3//3 5//5 
f 5//5 3//3 19//19 
f 5//5 19//19 21//21 
f 28//28 5//5 18//18 
f 18//18 5//5 7//7 
f 18//18 7//7 12//12 
f 12//12 7//7 26//26 
f 12//12 26//26 23//23 
f 12//12 10//10 18//18 
f 18//18 10//10 17//17 
f 17//17 10//10 14//14 
f 31//31 29//29 2//2 
f 2//2 29//29 30//30 
f 2//2 30//30 4//4 
f 4//4 30//30 6//6 
f 4//4 6//6 22//22 
f 30//30 16//16 6//6 
f 6//6 16//16 8//8 
f 8//8 16//16 11//11 
f 8//8 11//11 24//24 
f 11//11 16//16 9//9 
f 9//9 16//16 15//15 
f 9//9 15//15 13//13 
f 24//24 25//25 8//8 
f 22//22 20//20 4//4 
f 16//16 30//30 18//18 
f 18//18 30//30 28//28 
f 1//1 32//32 2//2 
f 2//2 32//32 31//31 
f 26//26 25//25 23//23 
f 23//23 25//25 24//24 
f 4//4 20//20 3//3 
f 3//3 20//20 19//19 
f 5//5 21//21 6//6 
f 6//6 21//21 22//22 
f 15//15 17//17 13//13 
f 13//13 17//17 14//14 
