v -2.328558922 18.66666603 -117.1301346
v -2.328558922 0.1666666716 -117.1301346
v -2.489556313 18.66666603 -117.2997894
v -2.489556313 0.1666666716 -117.2997894
v -2.648786783 18.66666603 -117.4711075
v -2.648786783 0.1666666716 -117.4711075
v -2.806233883 18.66666603 -117.6440582
v -2.806233883 0.1666666716 -117.6440582
v -2.20010066 0.1666666716 -116.1577759
v -2.20010066 18.66666603 -116.1577759
v -2.359065294 0.1666666716 -116.3141174
v -2.516517878 0.1666666716 -116.4719772
v -2.672443867 0.1666666716 -116.6313477
v -2.359065294 18.66666603 -116.3141174
v -2.516517878 18.66666603 -116.4719772
v -2.672443867 18.66666603 -116.6313477
vn 0.9809700251 0.01017278619 -0.1938925534
vn 0.9456643462 -0.01580806077 -0.3247599602
vn 0.7273876071 0.03149233758 -0.6855038404
vn 0.7297539711 -0.03149221465 -0.6829841733
vn 0.734652698 0.02110969275 -0.6781148911
vn 0.7369850874 -0.02110986412 -0.6755793095
vn -0.964985013 0.01066283509 -0.2620882392
vn -0.9982295632 -0.00397038646 0.05934666842
vn 0.9984951615 -0.004058790859 -0.05468900129
vn 0.9610872269 0.01059111953 0.2760419846
vn -0.7033156753 -0.02163559571 0.7105484009
vn -0.7099040151 -0.03267353028 0.7035401464
vn -0.9481760263 -0.01568440907 0.3173582256
vn -0.7055882812 0.02163569815 0.7082916498
vn -0.712159276 0.0326734446 0.7012571692
vn -0.9816778302 0.00989608746 0.1902911365
f 1//1 2//2 3//3 
f 3//3 2//2 4//4 
f 3//3 4//4 5//5 
f 5//5 4//4 6//6 
f 5//5 6//6 7//7 
f 7//7 6//6 8//8 
f 2//2 1//1 9//9 
f 9//9 1//1 10//10 
f 9//9 11//11 2//2 
f 2//2 11//11 12//12 
f 2//2 12//12 4//4 
f 4//4 12//12 13//13 
f 4//4 13//13 6//6 
f 6//6 13//13 8//8 
f 10//10 1//1 14//14 
f 14//14 1//1 15//15 
f 15//15 1//1 3//3 
f 15//15 3//3 16//16 
f 16//16 3//3 5//5 
f 16//16 5//5 7//7 
f 13//13 16//16 8//8 
f 8//8 16//16 7//7 
f 9//9 10//10 11//11 
f 11//11 10//10 14//14 
f 11//11 14//14 12//12 
f 12//12 14//14 15//15 
f 12//12 15//15 13//13 
f 13//13 15//15 16//16 
