v -14.61121941 0.1666666716 -77.31896973
v -14.61121941 10.16666698 -77.31896973
v -14.55802155 0.1666666716 -76.91622162
v -14.55802155 10.16666698 -76.91622162
v -21.59062958 0.1666666716 -75.98722076
v -21.64383698 0.1666666716 -76.3899765
v -17.88334274 0.1666666716 -76.4769516
v -17.93654442 0.1666666716 -76.87969971
v -17.88334274 7.020833492 -76.4769516
v -17.93654442 7.020833492 -76.87969971
v -14.86787224 0.1666666716 -76.87528992
v -14.92107487 0.1666666716 -77.27803802
v -14.86787224 7.020833492 -76.87528992
v -14.92107487 7.020833492 -77.27803802
v -21.64383698 10.16666698 -76.3899765
v -21.59062958 10.16666698 -75.98722076
vn 0.5013638735 -0.03814604133 -0.8643952608
vn 0.09624308348 0.07992646098 -0.992143631
vn 0.9030187726 -0.01311124396 0.4294009507
vn 0.2411573082 0.1613888741 0.9569727182
vn 0.06690047681 -0.0240472462 0.9974698424
vn -0.2563492358 -0.04775758833 -0.965403676
vn 0.3362188041 -0.115069136 0.934727788
vn -0.02308241464 -0.05882134289 -0.9980016351
vn 0.1599645913 -0.01301272307 0.987037003
vn -0.07263956219 -0.02598529309 -0.9970197082
vn -0.704062283 -0.07209420204 0.7064691782
vn -0.9720870256 -0.02127484046 -0.2336540371
vn -0.223089695 -0.1540872157 0.9625425339
vn -0.3105462492 -0.08158475906 -0.947050631
vn -0.1970419586 0.09586003423 -0.9756973386
vn -0.003900636919 0.04776814207 0.9988508224
f 1//1 2//2 3//3 
f 3//3 2//2 4//4 
f 5//5 6//6 7//7 
f 7//7 6//6 8//8 
f 9//9 7//7 10//10 
f 10//10 7//7 8//8 
f 3//3 11//11 1//1 
f 1//1 11//11 12//12 
f 9//9 10//10 13//13 
f 13//13 10//10 14//14 
f 6//6 15//15 10//10 
f 10//10 15//15 2//2 
f 10//10 2//2 14//14 
f 14//14 2//2 1//1 
f 14//14 1//1 12//12 
f 10//10 8//8 6//6 
f 16//16 9//9 4//4 
f 4//4 9//9 13//13 
f 4//4 13//13 3//3 
f 3//3 13//13 11//11 
f 16//16 5//5 9//9 
f 9//9 5//5 7//7 
f 14//14 12//12 13//13 
f 13//13 12//12 11//11 
f 2//2 15//15 4//4 
f 4//4 15//15 16//16 
f 15//15 6//6 16//16 
f 16//16 6//6 5//5 
