v -31.73479843 7.020833492 -82.68806458
v -31.33205223 7.020833492 -82.74130249
v -31.33620262 7.020833492 -79.67263031
v -30.93345451 7.020833492 -79.72586823
v -30.93345451 0.1666666716 -79.72586823
v -31.33620262 0.1666666716 -79.67263031
v -28.31995201 10.16666698 -59.9543457
v -28.31995201 18.66666603 -59.9543457
v -28.72270393 10.16666698 -59.90113831
v -28.72270393 18.66666603 -59.90113831
v -34.27260971 18.66666603 -101.8869858
v -34.27260971 0.1666666716 -101.8869858
v -31.73479843 0.1666666716 -82.68806458
v -28.17275047 0.1666666716 -55.74066925
v -28.17275047 10.16666698 -55.74066925
v -33.86986542 0.1666666716 -101.9402237
v -31.33205223 0.1666666716 -82.74130249
v -33.86986542 18.66666603 -101.9402237
v -27.77000046 0.1666666716 -55.79387665
v -27.77000046 10.16666698 -55.79387665
vn -0.9906666279 -0.002347223461 0.1362867057
vn 0.9926962256 -0.004694317468 -0.1205496565
vn -0.992038548 -0.002296198392 0.1259134114
vn 0.9910333753 -0.00114813901 -0.1336096972
vn 0.9795565009 -0.1176512092 -0.1631784737
vn -0.9917011261 -0.05915855616 0.114145115
vn 0.9923783541 0.00803905353 -0.1229655892
vn 0.992353797 0.02595087327 -0.1206670776
vn -0.9891033769 0.004019204527 0.1471678317
vn -0.9893475175 0.05185118318 0.136025697
vn -0.9932678342 0.01939255185 0.1142056137
vn -0.9931384325 -0.0160189867 0.1158422753
vn -0.9781752229 -0.1176144406 0.1712895632
vn -0.9875811934 -0.04663311318 0.1500292867
vn -0.9709673524 0.08060829341 0.2252215743
vn 0.9863964915 -0.0320144929 -0.1612359732
vn 0.9921662807 -0.05915365741 -0.1100313738
vn 0.9894859791 0.03876748309 -0.1393363625
vn 0.9923269749 -0.02333885804 -0.1214187443
vn 0.9974182844 0.03985318169 0.05973650515
f 1//1 2//2 3//3 
f 3//3 2//2 4//4 
f 4//4 5//5 3//3 
f 3//3 5//5 6//6 
f 7//7 8//8 9//9 
f 9//9 8//8 10//10 
f 9//9 10//10 3//3 
f 3//3 10//10 11//11 
f 3//3 11//11 1//1 
f 1//1 11//11 12//12 
f 1//1 12//12 13//13 
f 6//6 14//14 3//3 
f 3//3 14//14 9//9 
f 14//14 15//15 9//9 
f 12//12 16//16 13//13 
f 13//13 16//16 17//17 
f 8//8 18//18 10//10 
f 10//10 18//18 11//11 
f 8//8 4//4 18//18 
f 18//18 4//4 2//2 
f 18//18 2//2 16//16 
f 16//16 2//2 17//17 
f 8//8 7//7 4//4 
f 4//4 7//7 19//19 
f 4//4 19//19 5//5 
f 7//7 20//20 19//19 
f 18//18 16//16 11//11 
f 11//11 16//16 12//12 
f 20//20 7//7 15//15 
f 15//15 7//7 9//9 
f 19//19 20//20 14//14 
f 14//14 20//20 15//15 
f 1//1 13//13 2//2 
f 2//2 13//13 17//17 
f 19//19 14//14 5//5 
f 5//5 14//14 6//6 
