v -14.25534248 7.020833492 -72.32372284
v -14.25534248 0.1666666716 -72.32372284
v -14.20213509 7.020833492 -71.92097473
v -14.20213509 0.1666666716 -71.92097473
v -17.21760178 7.020833492 -71.5226059
v -17.27080917 7.020833492 -71.925354
v -20.93591118 10.16666698 -71.0313797
v -13.90343666 10.16666698 -71.96043396
v -13.90343666 0.1666666716 -71.96043396
v -20.93591118 0.1666666716 -71.0313797
v -17.21760178 0.1666666716 -71.5226059
v -13.95663452 10.16666698 -72.3631897
v -20.98911858 10.16666698 -71.43412781
v -20.98911858 0.1666666716 -71.43412781
v -13.95663452 0.1666666716 -72.3631897
v -17.27080917 0.1666666716 -71.925354
vn -0.3127542436 -0.0825977996 -0.9462358952
vn -0.9748619795 -0.02060375176 -0.2218550146
vn -0.2271118313 -0.1557896584 0.961327076
vn -0.7164859176 -0.07044048607 0.6940360665
vn 0.159917891 -0.01298737805 0.9870448709
vn -0.07276639342 -0.02593444474 -0.9970117807
vn -0.00364084309 0.04767957702 0.9988560677
vn 0.2415025681 0.1618869454 0.9568015337
vn 0.9100308418 -0.01277375408 0.4143436849
vn 0.06710188836 -0.0240471065 0.9974563122
vn 0.335653156 -0.1150833517 0.9349293113
vn 0.09693966806 0.08017031103 -0.9920561314
vn -0.1969337612 0.09568344057 -0.9757364988
vn -0.2559960186 -0.04775947705 -0.9654973149
vn 0.5166721344 -0.03761751577 -0.8553565741
vn -0.02341248654 -0.0588234663 -0.9979938269
f 1//1 2//2 3//3 
f 3//3 2//2 4//4 
f 5//5 6//6 3//3 
f 3//3 6//6 1//1 
f 7//7 5//5 8//8 
f 8//8 5//5 3//3 
f 8//8 3//3 9//9 
f 9//9 3//3 4//4 
f 7//7 10//10 5//5 
f 5//5 10//10 11//11 
f 12//12 13//13 8//8 
f 8//8 13//13 7//7 
f 14//14 13//13 6//6 
f 6//6 13//13 12//12 
f 6//6 12//12 1//1 
f 1//1 12//12 15//15 
f 1//1 15//15 2//2 
f 6//6 16//16 14//14 
f 10//10 14//14 11//11 
f 11//11 14//14 16//16 
f 13//13 14//14 7//7 
f 7//7 14//14 10//10 
f 9//9 4//4 15//15 
f 15//15 4//4 2//2 
f 5//5 11//11 6//6 
f 6//6 11//11 16//16 
f 15//15 12//12 9//9 
f 9//9 12//12 8//8 
