v 0.7400863767 18.66666603 -85.67376709
v 0.7400863767 10.16666698 -85.67376709
v 0.7932937741 18.66666603 -85.27101135
v 0.7932937741 10.16666698 -85.27101135
v 2.996408701 18.66666603 -85.97201538
v 2.996408701 0.1666666716 -85.97201538
v -6.696532726 0.1666666716 -84.69075012
v -6.696532726 10.16666698 -84.69075012
v -6.643335342 10.16666698 -84.28800201
v 3.049616098 18.66666603 -85.56926727
v -6.643335342 0.1666666716 -84.28800201
v 3.049616098 0.1666666716 -85.56926727
vn -0.3018751442 0.09368613362 -0.9487329721
vn -0.1601921469 0.01300316397 -0.987000227
vn -0.2096944749 0.04496791959 0.9767323732
vn 0.116378434 0.02600823343 0.9928643703
vn 0.1082534418 0.0146140065 -0.9940159321
vn -0.07763510942 -0.02834428847 -0.9965788722
vn -0.1772802025 -0.04587677494 -0.9830905795
vn -0.183861047 0.08086515963 -0.9796202779
vn 0.02350773662 0.04035591707 0.9989088178
vn 0.2503160834 0.02985653281 0.9677037001
vn 0.1076781005 -0.02297569066 0.9939202666
vn 0.2358418852 -0.05637709051 0.9701547623
f 1//1 2//2 3//3 
f 3//3 2//2 4//4 
f 5//5 6//6 2//2 
f 2//2 6//6 7//7 
f 2//2 7//7 8//8 
f 2//2 1//1 5//5 
f 2//2 8//8 4//4 
f 4//4 8//8 9//9 
f 5//5 1//1 10//10 
f 10//10 1//1 3//3 
f 11//11 12//12 4//4 
f 4//4 12//12 10//10 
f 4//4 10//10 3//3 
f 4//4 9//9 11//11 
f 8//8 7//7 9//9 
f 9//9 7//7 11//11 
f 6//6 5//5 12//12 
f 12//12 5//5 10//10 
f 6//6 12//12 7//7 
f 7//7 12//12 11//11 
