v -10.3176403 18.66666603 11.93893242
v -10.3176403 10.16666698 11.93893242
v -10.3708477 18.66666603 11.5361824
v -10.3708477 10.16666698 11.5361824
v -52.18233109 10.16666698 17.472826
v -52.18233109 18.66666603 17.472826
v -52.235569 10.16666698 17.0700798
v -52.235569 18.66666603 17.0700798
vn 0.1356575042 0.04773902521 0.9896050096
vn 0.1494111717 -0.09513685852 0.984187603
vn -0.1118225232 0.04773081467 -0.9925812483
vn -0.1262391955 -0.02388994023 -0.991712153
vn 0.1262391955 -0.02388994396 0.991712153
vn 0.1118225381 0.04773077369 0.9925812483
vn -0.1494111866 -0.09513693303 -0.984187603
vn -0.1356575042 0.04773900658 -0.9896050096
f 1//1 2//2 3//3 
f 3//3 2//2 4//4 
f 2//2 1//1 5//5 
f 5//5 1//1 6//6 
f 5//5 7//7 2//2 
f 2//2 7//7 4//4 
f 6//6 1//1 8//8 
f 8//8 1//1 3//3 
f 7//7 8//8 4//4 
f 4//4 8//8 3//3 
f 5//5 6//6 7//7 
f 7//7 6//6 8//8 
