v 27.24690819 10.16666698 -70.18421936
v 27.24690819 18.66666603 -70.18421936
v 27.3001461 10.16666698 -69.78147125
v 27.3001461 18.66666603 -69.78147125
v 3.259207249 18.66666603 -66.60542297
v 3.205999851 18.66666603 -67.00817108
v 5.46234417 10.16666698 -67.30625916
v 5.515551567 10.16666698 -66.90350342
v 3.259207249 10.16666698 -66.60542297
v 3.205999851 10.16666698 -67.00817108
v 5.112801075 10.16666698 -66.85029602
v 5.059593678 10.16666698 -67.25305176
v 5.112801075 10.33333302 -66.85029602
v 5.059593678 10.33333302 -67.25305176
v 5.515551567 10.33333302 -66.90350342
v 5.46234417 10.33333302 -67.30625916
vn -0.1128534228 -0.04681602865 -0.9925081134
vn -0.113310568 0.02532237582 -0.9932368994
vn 0.1660877466 -0.09328088164 0.9816890955
vn 0.139591217 0.05060196295 0.9889154434
vn 0.09989409894 0.04443915933 0.9940052032
vn -0.1458431333 0.08864784986 -0.9853280187
vn -0.03368289024 -0.9795761704 -0.1982322037
vn 0.0427528657 -0.9251480103 0.3771913648
vn -0.07845049351 -0.04579718038 0.9958655238
vn -0.5073031783 -0.08592495322 -0.8574732542
vn 0.1124603599 -0.9758893251 0.1870632917
vn 0.03194037452 -0.9220406413 -0.3857730627
vn 0.1343764961 -0.01684738137 0.9907871485
vn -0.124112457 -0.00842444133 -0.9922323823
vn 0.1306329966 -0.0004165471764 0.9914306998
vn -0.1311416328 -0.0008336089086 -0.991363287
f 1//1 2//2 3//3 
f 3//3 2//2 4//4 
f 5//5 4//4 6//6 
f 6//6 4//4 2//2 
f 1//1 3//3 7//7 
f 7//7 3//3 8//8 
f 9//9 10//10 11//11 
f 11//11 10//10 12//12 
f 13//13 11//11 14//14 
f 14//14 11//11 12//12 
f 3//3 4//4 15//15 
f 15//15 4//4 5//5 
f 15//15 5//5 13//13 
f 13//13 5//5 9//9 
f 13//13 9//9 11//11 
f 15//15 8//8 3//3 
f 16//16 7//7 15//15 
f 15//15 7//7 8//8 
f 12//12 10//10 14//14 
f 14//14 10//10 6//6 
f 14//14 6//6 16//16 
f 16//16 6//6 2//2 
f 16//16 2//2 1//1 
f 1//1 7//7 16//16 
f 15//15 13//13 16//16 
f 16//16 13//13 14//14 
f 6//6 10//10 5//5 
f 5//5 10//10 9//9 
