v -75.46056366 18.66666603 59.60063171
v -75.46056366 12 59.60063171
v -75.46056366 18.66666603 60.01041412
v -75.46056366 12 60.01041412
v -75.43973541 12 59.5978775
v -75.43973541 12 60.00765991
v -47.9284935 18.66666603 56.37108231
v -47.94218445 18.66666603 56.23580933
v -47.94916916 18.66666603 56.10002899
v -47.94943619 18.66666603 55.96406555
v -46.552742 16.66666603 55.77944565
v -46.76346588 16.96285629 55.80729675
v -46.57068634 16.66666603 55.91594315
v -47.03787231 17.35294914 55.84357071
v -47.41102982 17.88837242 55.89289856
v -47.65332794 18.23799324 55.92492676
v -46.57488632 16.66666603 56.05355072
v -46.5653038 16.66666603 56.19088745
v -46.90610123 17.16666603 56.23593521
v -47.24689865 17.66666603 56.28098679
v -62.34500504 10.33333302 57.86694717
v -62.29177856 10.33333302 58.26969528
v -62.74775314 10.33333302 57.92018509
v -62.69452286 10.33333302 58.3229332
v -46.552742 10.16666698 55.77944565
v -62.34500504 10.16666698 57.86694717
v -62.74775314 10.16666698 57.92018509
v -75.43973541 10.16666698 59.5978775
v -75.43973541 10.16666698 60.00765991
v -62.69452286 10.16666698 58.3229332
v -46.5653038 10.16666698 56.19088745
v -62.29177856 10.16666698 58.26969528
v -46.57068634 10.16666698 55.91594315
v -46.57488632 10.16666698 56.05355072
vn -0.1411907375 0.08971852809 -0.9859085679
vn -0.9996745586 -0.003112759907 -0.02532042563
vn 0.1093619317 0.04520975426 0.9929733276
vn -0.9986883998 -0.003141252324 0.05110439286
vn -0.133307308 -2.599829168e-05 -0.9910747409
vn 0.1265185475 -5.224812776e-05 0.991964221
vn 0.1193124726 0.4786965847 0.8698356748
vn 0.1004258618 0.9949167371 -0.007440672256
vn 0.06884843856 0.9976254106 -0.001837285701
vn -0.09356321394 0.3204687536 -0.9426270127
vn -0.1268360317 6.775926158e-05 -0.9919236898
vn -0.1262839437 0.003420073539 -0.9919882417
vn 0.9882583022 0.1325399578 0.07601796836
vn -0.1262859851 0.003390239784 -0.9919880629
vn -0.1262875944 0.003366851946 -0.9919879436
vn -0.1137468293 0.01214754116 -0.9934355021
vn 0.9860340357 0.1653832048 -0.01962710917
vn 0.1339450777 0.0005592691014 0.9909886122
vn 0.1358934641 0.003361277282 0.9907177687
vn 0.1358934641 0.003362537129 0.9907177687
vn -0.1316621453 -0.0015172282 -0.9912934899
vn 0.129805401 -0.003047161736 0.9915348291
vn -0.1300612539 -0.002418174408 -0.9915030003
vn 0.1315357238 -0.001205976354 0.9913107157
vn -0.1229304671 -0.01998432912 -0.9922140241
vn -0.03658536077 -0.9794450402 -0.1983655393
vn -0.03779577091 -0.9251022935 -0.3778322935
vn -0.174321875 -0.3740461767 -0.9108794332
vn 0.1001165807 -0.199712947 0.9747263193
vn 0.03899778053 -0.9794406295 0.1979273558
vn 0.1472640336 -0.08121547103 0.9857572317
vn 0.04010061175 -0.9251255393 0.3775376678
vn 0.6389271617 -0.7675335407 0.05161745474
vn 0.3803291023 -0.9248212576 -0.007445638534
f 1//1 2//2 3//3 
f 3//3 2//2 4//4 
f 5//5 6//6 2//2 
f 2//2 6//6 4//4 
f 3//3 7//7 1//1 
f 1//1 7//7 8//8 
f 1//1 8//8 9//9 
f 9//9 10//10 1//1 
f 11//11 12//12 13//13 
f 13//13 12//12 14//14 
f 13//13 14//14 15//15 
f 15//15 16//16 13//13 
f 13//13 16//16 17//17 
f 17//17 16//16 10//10 
f 17//17 10//10 9//9 
f 9//9 8//8 17//17 
f 17//17 8//8 18//18 
f 18//18 8//8 19//19 
f 19//19 8//8 20//20 
f 20//20 8//8 7//7 
f 21//21 22//22 23//23 
f 23//23 22//22 24//24 
f 2//2 1//1 5//5 
f 5//5 1//1 11//11 
f 5//5 11//11 23//23 
f 23//23 11//11 21//21 
f 21//21 11//11 25//25 
f 21//21 25//25 26//26 
f 10//10 16//16 1//1 
f 1//1 16//16 15//15 
f 1//1 15//15 14//14 
f 14//14 12//12 1//1 
f 1//1 12//12 11//11 
f 27//27 28//28 23//23 
f 23//23 28//28 5//5 
f 4//4 6//6 3//3 
f 3//3 6//6 18//18 
f 3//3 18//18 19//19 
f 18//18 6//6 24//24 
f 24//24 6//6 29//29 
f 24//24 29//29 30//30 
f 24//24 22//22 18//18 
f 18//18 22//22 31//31 
f 31//31 22//22 32//32 
f 19//19 20//20 3//3 
f 3//3 20//20 7//7 
f 21//21 26//26 22//22 
f 22//22 26//26 32//32 
f 24//24 30//30 23//23 
f 23//23 30//30 27//27 
f 29//29 28//28 30//30 
f 30//30 28//28 27//27 
f 25//25 33//33 26//26 
f 26//26 33//33 34//34 
f 26//26 34//34 31//31 
f 31//31 32//32 26//26 
f 25//25 11//11 33//33 
f 33//33 11//11 13//13 
f 33//33 13//13 17//17 
f 18//18 31//31 17//17 
f 17//17 31//31 34//34 
f 17//17 34//34 33//33 
f 5//5 28//28 6//6 
f 6//6 28//28 29//29 
