v -75.43973541 12 76.25191498
v -75.43973541 10.16666698 76.25191498
v -75.43973541 12 76.66169739
v -75.43973541 10.16666698 76.66169739
v -3.252981901 10.16666698 66.70980835
v -3.199774504 10.16666698 67.11255646
v -3.199774504 18.66666603 67.11255646
v -75.46056366 18.66666603 76.6644516
v -75.46056366 12 76.6644516
v -75.46056366 12 76.25466919
v -3.252981901 18.66666603 66.70980835
v -75.46056366 18.66666603 76.25466919
vn -0.1316427439 -6.834621217e-06 -0.991297245
vn -0.1299233437 -0.4047774673 -0.9051381946
vn 0.1298543513 -1.383735798e-05 0.9915331006
vn 0.1225368008 -0.2164912224 0.9685640335
vn -0.126397714 -0.03928353637 -0.99120152
vn 0.1397025436 -0.07835470885 0.9870885015
vn 0.1339509785 0.05348310992 0.9895436764
vn 0.1197524071 0.0608924441 0.99093467
vn -0.9986883998 -0.003141252324 0.05110439286
vn -0.9996745586 -0.003112759907 -0.02532042563
vn -0.1248003468 0.02677983232 -0.991820395
vn -0.1355664283 0.1208992824 -0.9833641648
f 1//1 2//2 3//3 
f 3//3 2//2 4//4 
f 5//5 6//6 2//2 
f 2//2 6//6 4//4 
f 4//4 6//6 3//3 
f 3//3 6//6 7//7 
f 3//3 7//7 8//8 
f 8//8 9//9 3//3 
f 9//9 10//10 3//3 
f 3//3 10//10 1//1 
f 2//2 1//1 5//5 
f 5//5 1//1 11//11 
f 11//11 1//1 12//12 
f 12//12 1//1 10//10 
f 11//11 12//12 7//7 
f 7//7 12//12 8//8 
f 12//12 10//10 8//8 
f 8//8 10//10 9//9 
f 5//5 11//11 6//6 
f 6//6 11//11 7//7 
