v 30.52033234 18.66666603 2.859553576
v 30.52033234 10.16666698 2.859553576
v 30.46709442 18.66666603 2.456806898
v 30.46709442 10.16666698 2.456806898
v 12.40860939 10.16666698 5.252295017
v 12.35540199 10.16666698 4.849544048
v 22.16749763 10.16666698 3.963047266
v 22.11425972 10.16666698 3.560300589
v 22.51700974 10.16666698 3.507093191
v 22.57024765 10.16666698 3.909839869
v 22.51700974 10.33333302 3.507093191
v 22.57024765 10.33333302 3.909839869
v 22.16749763 10.33333302 3.963047266
v 22.11425972 10.33333302 3.560300589
v 12.35540199 18.66666603 4.849544048
v 12.40860939 18.66666603 5.252295017
vn 0.145931378 0.06617499888 0.9870789647
vn 0.2273761779 -0.09288792312 0.9693667293
vn -0.1002748013 0.03313004225 -0.994408071
vn -0.08152458817 -0.04676587135 -0.9955735803
vn 0.09067054093 -0.04678541422 0.9947813749
vn -0.2096260637 -0.09303920716 -0.9733450413
vn 0.042755045 -0.9794683456 0.1970120817
vn -0.03417765349 -0.9250552654 -0.3782917559
vn -0.04649232328 -0.9794002175 -0.1965037137
vn 0.03064302355 -0.9249976873 0.3787351549
vn -0.1318916529 -0.004528705496 -0.9912537932
vn 0.1291296035 -0.00226437673 0.9916251302
vn 0.1312505752 -0.00136996794 0.9913482666
vn -0.1304148436 -0.0006849808269 -0.9914592505
vn -0.1451806724 0.06278901547 -0.9874107838
vn 0.1018557698 0.0314309001 0.9943025112
f 1//1 2//2 3//3 
f 3//3 2//2 4//4 
f 5//5 6//6 7//7 
f 7//7 6//6 8//8 
f 4//4 2//2 9//9 
f 9//9 2//2 10//10 
f 11//11 9//9 12//12 
f 12//12 9//9 10//10 
f 13//13 7//7 14//14 
f 14//14 7//7 8//8 
f 6//6 15//15 14//14 
f 14//14 15//15 3//3 
f 14//14 3//3 11//11 
f 11//11 3//3 4//4 
f 11//11 4//4 9//9 
f 14//14 8//8 6//6 
f 1//1 16//16 13//13 
f 13//13 16//16 5//5 
f 13//13 5//5 7//7 
f 13//13 12//12 1//1 
f 1//1 12//12 2//2 
f 2//2 12//12 10//10 
f 14//14 11//11 13//13 
f 13//13 11//11 12//12 
f 3//3 15//15 1//1 
f 1//1 15//15 16//16 
f 5//5 16//16 6//6 
f 6//6 16//16 15//15 
