v 29.45017052 10.16666698 -53.51670837
v 29.45017052 18.66666603 -53.51670837
v 29.0474205 10.16666698 -53.46350098
v 29.0474205 18.66666603 -53.46350098
v 27.3001461 10.16666698 -69.78147125
v 27.3001461 18.66666603 -69.78147125
v 26.89739609 10.16666698 -69.72826385
v 26.89739609 18.66666603 -69.72826385
vn 0.9926389456 -0.02388839982 -0.1187319234
vn 0.9955109358 0.04768144339 -0.08175884932
vn -0.9792277813 -0.09503860027 0.1791106164
vn -0.9885492921 0.04773586616 0.1431488693
vn 0.9792277813 -0.09503860027 -0.1791106164
vn 0.9885492921 0.04773586616 -0.1431488693
vn -0.9926389456 -0.02388839982 0.1187319234
vn -0.9955109358 0.04768144339 0.08175884932
f 1//1 2//2 3//3 
f 3//3 2//2 4//4 
f 5//5 6//6 1//1 
f 1//1 6//6 2//2 
f 1//1 3//3 5//5 
f 5//5 3//3 7//7 
f 2//2 6//6 4//4 
f 4//4 6//6 8//8 
f 3//3 4//4 7//7 
f 7//7 4//4 8//8 
f 6//6 5//5 8//8 
f 8//8 5//5 7//7 
