v 5.407966137 18.66666603 -50.34049225
v 5.407966137 10.16666698 -50.34049225
v 5.005215168 18.66666603 -50.28728485
v 5.005215168 10.16666698 -50.28728485
v 10.5332098 18.66666603 -11.54524422
v 10.5332098 10.16666698 -11.54524422
v 10.13045883 10.16666698 -11.49203682
v 10.13045883 18.66666603 -11.49203682
vn 0.9895633459 0.04773903266 -0.1359610856
vn 0.9839704633 -0.09513428807 -0.1508362442
vn -0.9927584529 0.04772941023 0.1102384776
vn -0.9917693734 -0.02388994209 0.12578848
vn 0.9927584529 0.04772941023 -0.1102384776
vn 0.9917693734 -0.02388994209 -0.12578848
vn -0.9839704633 -0.09513428807 0.1508362442
vn -0.9895633459 0.04773903266 0.1359610856
f 1//1 2//2 3//3 
f 3//3 2//2 4//4 
f 5//5 6//6 1//1 
f 1//1 6//6 2//2 
f 6//6 7//7 2//2 
f 2//2 7//7 4//4 
f 3//3 8//8 1//1 
f 1//1 8//8 5//5 
f 3//3 4//4 8//8 
f 8//8 4//4 7//7 
f 6//6 5//5 7//7 
f 7//7 5//5 8//8 
