v 28.25159836 10.16666698 -14.30374146
v 28.25159836 18.66666603 -14.30374146
v 28.30483437 10.16666698 -13.9009943
v 28.30483437 18.66666603 -13.9009943
v 10.47897148 10.16666698 -11.95579815
v 10.47897148 18.66666603 -11.95579815
v 10.53217888 10.16666698 -11.55304718
v 10.53217888 18.66666603 -11.55304718
vn -0.1196972057 -0.02388870902 -0.9925230145
vn -0.08585400879 0.04769067094 -0.9951656461
vn 0.1749282628 -0.09505812824 0.9799816608
vn 0.1420339048 0.04773661494 0.9887100458
vn -0.1749281883 -0.09505797923 -0.9799816608
vn -0.1420339197 0.0477366522 -0.9887100458
vn 0.1196972132 -0.02388873138 0.9925230145
vn 0.08585393429 0.0476908274 0.9951656461
f 1//1 2//2 3//3 
f 3//3 2//2 4//4 
f 5//5 6//6 1//1 
f 1//1 6//6 2//2 
f 7//7 5//5 3//3 
f 3//3 5//5 1//1 
f 8//8 4//4 6//6 
f 6//6 4//4 2//2 
f 8//8 7//7 4//4 
f 4//4 7//7 3//3 
f 6//6 5//5 8//8 
f 8//8 5//5 7//7 
