v -43.83959198 10.16666698 55.82787323
v -43.83959198 16.66666603 55.82787323
v -43.86583328 10.16666698 55.69464874
v -43.86583328 16.66666603 55.69464874
v -43.90508652 16.66666603 55.56465912
v -43.95697021 16.66666603 55.43917465
v -43.95697021 10.16666698 55.43917465
v -43.90508652 10.16666698 55.56465912
v -11.3057909 10.16666698 51.52821732
v -43.95769119 10.16666698 55.43370056
v -11.3589983 10.16666698 51.12546539
v -4.844662189 10.16666698 50.264534
v -4.791454315 10.16666698 50.6672821
v -10.95625019 10.16666698 51.07223892
v -10.90304279 10.16666698 51.47499084
v -10.95625019 10.52083302 51.07223892
v -10.90304279 10.52083302 51.47499084
v -4.844662189 18.66666603 50.264534
v -11.3589983 10.52083302 51.12546539
v -43.95769119 16.66913223 55.43370056
v -43.74691391 16.96526146 55.40584183
v -43.47257233 17.35511971 55.36958694
v -43.0997467 17.88991928 55.3203125
v -42.85781479 18.23894119 55.28834152
v -42.56230927 18.66666603 55.24928665
v -4.791454315 18.66666603 50.6672821
v -11.3057909 10.52083302 51.52821732
v -42.47638321 18.66666603 55.64771271
v -43.15798569 17.66666603 55.73779297
v -42.52710724 18.66666603 55.38062286
v -43.95745087 16.66830826 55.43552399
v -43.95721054 16.66748619 55.43734741
v -42.4984436 18.66666603 55.51354218
vn 0.1271132529 -0.01976217143 0.9916913509
vn 0.1269334704 0.0006686088745 0.9919109941
vn -0.3594225049 -0.9288794994 0.0894336924
vn -0.9348060489 0.2677836418 0.2333015651
vn -0.9405257106 0.05986090377 0.3344069719
vn -0.924942553 0.03043561056 0.3788865209
vn -0.9267088175 -0.0001068393613 0.3757801354
vn -0.1834678054 -0.9808444977 0.06544966251
vn 0.06212058663 -0.9167581201 0.394582808
vn -0.1308744103 -0.07888073474 -0.988255918
vn -0.07804658264 -0.7537497282 -0.6525105834
vn -0.06809511781 -0.04574275389 -0.9966296554
vn 0.2533786893 -0.09066331387 0.9631092548
vn -0.1044200882 -0.9154264927 -0.3887040019
vn 0.04312626645 -0.7530696392 0.6565258503
vn -0.1334831566 -0.002850817982 -0.9910469651
vn 0.1260894686 -0.005701314192 0.9920024872
vn -0.1153724343 0.03510568291 -0.9927017689
vn -0.1304892004 -0.000614552584 -0.9914495349
vn -0.1310437024 6.528200629e-07 -0.9913765788
vn -0.1345991492 0.00257384521 -0.9908967614
vn -0.1345854998 0.002539773006 -0.9908987284
vn -0.1408030093 0.006905473303 -0.9900135398
vn -0.1380784363 0.004974461626 -0.9904087782
vn -0.09491466731 0.7891564369 -0.6068140864
vn 0.1384647042 0.07013029605 0.9878811836
vn 0.1312865466 -0.0003077667498 0.9913443923
vn 0.1227198467 0.1394101381 0.982600987
vn 0.1310204864 -3.97259015e-07 0.9913796782
vn -0.0495762378 0.998698473 0.01198165771
vn -0.9890171289 0.03125451505 0.1444586664
vn -0.9905939102 0.01284899469 0.1362298429
vn -0.07339675725 0.9972029924 0.01411142573
f 1//1 2//2 3//3 
f 3//3 2//2 4//4 
f 3//3 4//4 5//5 
f 6//6 7//7 5//5 
f 5//5 7//7 8//8 
f 5//5 8//8 3//3 
f 1//1 3//3 9//9 
f 9//9 3//3 8//8 
f 9//9 8//8 10//10 
f 10//10 8//8 7//7 
f 10//10 11//11 9//9 
f 12//12 13//13 14//14 
f 14//14 13//13 15//15 
f 16//16 14//14 17//17 
f 17//17 14//14 15//15 
f 12//12 16//16 18//18 
f 18//18 16//16 19//19 
f 18//18 19//19 20//20 
f 20//20 19//19 10//10 
f 10//10 19//19 11//11 
f 12//12 14//14 16//16 
f 20//20 21//21 18//18 
f 18//18 21//21 22//22 
f 18//18 22//22 23//23 
f 23//23 24//24 18//18 
f 18//18 24//24 25//25 
f 15//15 13//13 17//17 
f 17//17 13//13 26//26 
f 17//17 26//26 27//27 
f 27//27 26//26 2//2 
f 27//27 2//2 1//1 
f 28//28 29//29 26//26 
f 26//26 29//29 2//2 
f 1//1 9//9 27//27 
f 27//27 9//9 19//19 
f 19//19 9//9 11//11 
f 27//27 19//19 17//17 
f 17//17 19//19 16//16 
f 30//30 25//25 4//4 
f 4//4 25//25 24//24 
f 4//4 24//24 23//23 
f 4//4 23//23 5//5 
f 5//5 23//23 22//22 
f 5//5 22//22 21//21 
f 20//20 31//31 21//21 
f 21//21 31//31 32//32 
f 21//21 32//32 6//6 
f 6//6 5//5 21//21 
f 30//30 4//4 33//33 
f 33//33 4//4 2//2 
f 33//33 2//2 28//28 
f 28//28 2//2 29//29 
f 20//20 10//10 31//31 
f 31//31 10//10 32//32 
f 32//32 10//10 7//7 
f 32//32 7//7 6//6 
f 18//18 25//25 26//26 
f 26//26 25//25 30//30 
f 26//26 30//30 33//33 
f 33//33 28//28 26//26 
f 12//12 18//18 13//13 
f 13//13 18//18 26//26 
