v -52.26181412 10.52083302 -44.56285095
v -52.26181412 10.16666698 -44.56285095
v -52.26181412 10.52083302 -40.24302673
v -52.26181412 10.16666698 -40.24302673
v -17.47467995 10.52083302 -44.83856201
v -17.47467995 10.16666698 -44.83856201
v -52.25650406 10.52083302 0.9305487871
v -52.25650406 10.16666698 0.9305487871
v -52.25650406 10.52083302 6.483293056
v -52.25650406 10.16666698 6.483293056
v -12.12867355 10.52083302 -4.370513439
v -12.12867355 10.16666698 -4.370513439
v -16.96390152 10.16666698 -49.18688583
v -16.96390152 10.52083302 -49.18688583
v -15.6197052 10.16666698 -47.34255219
v -15.6197052 10.52083302 -47.34255219
v -13.93095207 10.16666698 -45.80744553
v -13.93095207 10.52083302 -45.80744553
v -11.96713829 10.16666698 -44.64474487
v -11.96713829 10.52083302 -44.64474487
v -9.809082031 10.16666698 -43.90229416
v -9.809082031 10.52083302 -43.90229416
v -11.20617771 10.16666698 0.9920111299
v -11.18666744 10.16666698 -1.192046642
v -10.74550056 10.16666698 -3.331172943
v -9.899306297 10.16666698 -5.344738007
v -8.679980278 10.16666698 -7.15684557
v -7.133481979 10.16666698 -8.699191093
v -5.318102837 10.16666698 -9.913640976
v -11.20617771 10.52083302 0.9920111299
v -11.18666744 10.52083302 -1.192046642
v -10.74550056 10.52083302 -3.331172943
v -9.899306297 10.52083302 -5.344738007
v -8.679980278 10.52083302 -7.15684557
v -7.133481979 10.52083302 -8.699191093
v -5.318102837 10.52083302 -9.913640976
vn -0.01588668302 0.9964510798 -0.08266083896
vn -0.01557051763 -0.9990198016 -0.04143696278
vn -0.009498853236 0.9966109991 0.08170836419
vn 0.01132851746 -0.9867583513 0.1618011594
vn -0.01486535091 0.99925524 0.03560817614
vn -0.03627786413 -0.9991080165 0.02161218598
vn -0.01274402719 0.9979124665 -0.0633109659
vn -0.01296203583 -0.9994132519 -0.03170309216
vn -0.008705084212 0.9979342818 0.0636504069
vn 0.00836850144 -0.9919269085 0.1265344769
vn -0.07873093337 0.9965336323 -0.02687367424
vn -0.04662656784 -0.9965683818 -0.06839177758
vn -0.01639093831 -0.9870995879 -0.159266144
vn -0.002090272261 0.9963882565 -0.08488824964
vn 0.1314744502 -0.9851791263 -0.1101661026
vn 0.123691678 0.9851791263 -0.1188380718
vn 0.1125513911 -0.983443737 -0.1420234293
vn 0.1026492715 0.983443737 -0.1493371874
vn 0.003921750002 -0.9999620318 -0.007779557258
vn 0.003384528682 0.9999620318 -0.00802786462
vn 0.08864251524 -0.9958203435 -0.02200745791
vn 0.1698675454 0.9850820899 -0.02753686905
vn 0.007753033657 -0.999447763 0.03231100738
vn 0.3814789951 -0.9228432178 0.0532370843
vn 0.2931616306 -0.950666666 0.1014353856
vn 0.2887853384 -0.9424921274 0.1682604551
vn 0.00756797241 -0.9999491572 0.00666466821
vn 0.003430267097 -0.9999841452 0.004471990746
vn 0.3425756097 -0.9388200045 -0.03548248112
vn 0.01033731364 0.9978658557 0.06447377801
vn 0.384131372 0.9228432178 0.02834611945
vn 0.2991311848 0.950666666 0.08217921108
vn 0.2991046309 0.9424921274 0.149147436
vn 0.007984887809 0.9999491572 0.00615902571
vn 0.003713495331 0.9999841452 0.004239737988
vn 0.188608259 0.9820423126 -0.004455125425
f 1//1 2//2 3//3 
f 3//3 2//2 4//4 
f 3//3 4//4 5//5 
f 5//5 4//4 6//6 
f 7//7 8//8 9//9 
f 9//9 8//8 10//10 
f 5//5 6//6 11//11 
f 11//11 6//6 12//12 
f 13//13 14//14 15//15 
f 15//15 14//14 16//16 
f 15//15 16//16 17//17 
f 17//17 16//16 18//18 
f 17//17 18//18 19//19 
f 19//19 18//18 20//20 
f 19//19 20//20 21//21 
f 21//21 20//20 22//22 
f 10//10 8//8 23//23 
f 23//23 8//8 12//12 
f 23//23 12//12 24//24 
f 24//24 12//12 25//25 
f 25//25 12//12 26//26 
f 26//26 12//12 27//27 
f 27//27 12//12 6//6 
f 27//27 6//6 28//28 
f 28//28 6//6 19//19 
f 28//28 19//19 21//21 
f 4//4 2//2 6//6 
f 6//6 2//2 13//13 
f 6//6 13//13 15//15 
f 15//15 17//17 6//6 
f 6//6 17//17 19//19 
f 21//21 29//29 28//28 
f 9//9 10//10 30//30 
f 30//30 10//10 23//23 
f 9//9 30//30 7//7 
f 7//7 30//30 11//11 
f 11//11 30//30 31//31 
f 11//11 31//31 32//32 
f 32//32 33//33 11//11 
f 11//11 33//33 34//34 
f 11//11 34//34 5//5 
f 5//5 34//34 35//35 
f 5//5 35//35 20//20 
f 20//20 35//35 22//22 
f 22//22 35//35 36//36 
f 20//20 18//18 5//5 
f 5//5 18//18 16//16 
f 5//5 16//16 14//14 
f 14//14 1//1 5//5 
f 5//5 1//1 3//3 
f 36//36 29//29 22//22 
f 22//22 29//29 21//21 
f 29//29 36//36 28//28 
f 28//28 36//36 35//35 
f 28//28 35//35 27//27 
f 27//27 35//35 34//34 
f 27//27 34//34 26//26 
f 26//26 34//34 33//33 
f 26//26 33//33 25//25 
f 25//25 33//33 32//32 
f 25//25 32//32 24//24 
f 24//24 32//32 31//31 
f 24//24 31//31 23//23 
f 23//23 31//31 30//30 
f 14//14 13//13 1//1 
f 1//1 13//13 2//2 
f 11//11 12//12 7//7 
f 7//7 12//12 8//8 
