v 36.98477554 10.52083302 96.71554565
v 36.98477554 10.16666698 96.71554565
v 24.64001083 10.52083302 98.34570312
v 24.64001083 10.16666698 98.34570312
v 19.50334358 10.52083302 59.4469986
v 19.50334358 10.16666698 59.4469986
v 37.18151855 10.52083302 57.11255264
v 37.18151855 10.16666698 57.11255264
v 35.08686447 10.52083302 41.25025558
v 35.08686447 10.16666698 41.25025558
v 17.47051048 10.52083302 43.57653809
v 17.47051048 10.16666698 43.57653809
v 12.35643196 10.52083302 4.848885536
v 12.35643196 10.16666698 4.848885536
v 30.46716309 10.52083302 2.457320452
v 30.46716309 10.16666698 2.457320452
v 29.68148232 10.52083302 -3.486456633
v 29.68148232 10.16666698 -3.486456633
v 30.36441803 10.52083302 47.41479492
v 30.36441803 10.16666698 47.41479492
v 31.02105331 10.52083302 52.36411285
v 31.02105331 10.16666698 52.36411285
v 38.2947998 10.52083302 106.6360321
v 38.2947998 10.16666698 106.6360321
v 11.20148373 10.52083302 -1.043674231
v 11.20148373 10.16666698 -1.043674231
v 16.89814377 10.16666698 49.20460892
v 16.89814377 10.52083302 49.20460892
v 15.06641865 10.16666698 46.91254807
v 15.06641865 10.52083302 46.91254807
v 12.70430946 10.16666698 45.17208481
v 12.70430946 10.52083302 45.17208481
v 9.972488403 10.16666698 44.10160446
v 9.972488403 10.52083302 44.10160446
v 18.47468948 10.52083302 54.02161407
v 18.47468948 10.16666698 54.02161407
v 29.45345116 10.16666698 107.8035507
v 29.45345116 10.52083302 107.8035507
v 28.10023117 10.16666698 104.565918
v 28.10023117 10.52083302 104.565918
v 26.04279709 10.16666698 101.7233124
v 26.04279709 10.52083302 101.7233124
v 23.39008331 10.16666698 99.42623138
v 23.39008331 10.52083302 99.42623138
v 20.28254318 10.16666698 97.7963028
v 20.28254318 10.52083302 97.7963028
v 16.88471031 10.16666698 96.91983032
v 16.88471031 10.52083302 96.91983032
v 16.50585556 10.52083302 61.43744659
v 17.73484993 10.52083302 59.14161301
v 18.40306091 10.52083302 56.62471771
v 9.271791458 10.52083302 6.371529579
v 7.561234474 10.52083302 8.330080032
v 11.14187241 10.52083302 1.556012034
v 10.48697853 10.52083302 4.072564602
v 5.446700096 10.52083302 9.843574524
v 14.78193283 10.52083302 63.38920593
v 12.65544701 10.52083302 64.89231873
v 12.65544701 10.16666698 64.89231873
v 16.50585556 10.16666698 61.43744659
v 14.78193283 10.16666698 63.38920593
v 17.73484993 10.16666698 59.14161301
v 18.40306091 10.16666698 56.62471771
v 9.271791458 10.16666698 6.371529579
v 7.561234474 10.16666698 8.330080032
v 5.446700096 10.16666698 9.843574524
v 10.48697853 10.16666698 4.072564602
v 11.14187241 10.16666698 1.556012034
vn 0.03011318855 0.99924016 -0.02474563755
vn 0.01101070084 -0.9990151525 -0.04298287258
vn 0.05675247312 0.9972578287 -0.04749682546
vn 0.1206590384 -0.9920471907 -0.03583007306
vn 0.06112269312 0.9981142879 0.005648238119
vn 0.03326782212 -0.9991800785 0.02307547629
vn 0.0389656052 0.9972445965 0.06312649697
vn 0.06466140598 -0.9975786209 0.02560874075
vn 0.0488364622 0.998149693 -0.03622355685
vn 0.01861699671 -0.9979029298 -0.06199286506
vn 0.03100350127 0.9988449216 -0.03670985624
vn 0.06825426966 -0.9973471761 -0.02529657073
vn 0.04313181341 0.9990603328 0.004258021712
vn 0.02351600118 -0.9995821118 0.01681241207
vn 0.03444111347 0.9929094315 0.1137744337
vn 0.0460588485 -0.9975131154 0.05334952846
vn 0.01510983333 0.9993711114 -0.03207835183
vn 0.001690916717 -0.9981780052 -0.06031379476
vn -0.002425054088 0.9988033175 0.04884701595
vn -0.01436756365 -0.9995537996 0.02618704177
vn -0.0144443009 0.9997971058 -0.01404052041
vn -0.01032650564 -0.9994803667 -0.0305336006
vn 0.04847899079 0.996722281 0.06476514041
vn 0.08306282759 -0.9962406754 0.02459761314
vn -0.02288432792 0.9933111072 -0.1131784171
vn -0.02347643673 -0.9980903268 -0.05713616684
vn 0.005242397077 -0.9931045175 0.1171152443
vn -0.01142727304 0.9974778891 0.07005170733
vn -0.09377511591 -0.9915766716 0.08934143931
vn -0.08559653908 0.9915766716 0.09720548987
vn -0.005123716313 -0.9999516606 0.008393586613
vn -0.00436948752 0.9999516606 0.008809788153
vn -0.03459121287 -0.9993564487 0.00949329976
vn -0.0660245344 0.9977553487 0.01118022762
vn -0.02855058387 0.9921929836 -0.1213998273
vn -0.03329116851 -0.9975486994 -0.06154869497
vn -0.002481801668 -0.9986261725 0.0523416847
vn -0.01460546535 0.9993882775 0.03177634999
vn -0.04080208391 -0.9989494681 0.02086055838
vn -0.03907229751 0.9989494681 0.02394424565
vn -0.0309976507 -0.9991738796 0.02628056332
vn -0.02887921408 0.9991738796 0.02859221399
vn -0.1878712326 -0.9487982392 0.2539414465
vn -0.1677335501 0.9487982392 0.2676701844
vn -0.00358332647 -0.9999589324 0.008327722549
vn -0.00293060299 0.9999589324 0.00857920479
vn -0.04656822607 -0.9987995028 0.01519847382
vn -0.0892496556 0.9958759546 0.01629680581
vn -0.007646110374 0.9999588132 -0.004886637907
vn -0.2733221948 0.9571537375 -0.09566455334
vn -0.3337035775 0.9420257807 -0.03506230935
vn -0.01231066883 0.9998939633 -0.007775151636
vn -0.01324360073 0.9998211861 -0.0134997936
vn -0.3037626445 0.9522601962 -0.03047562949
vn -0.2402434498 0.9671805501 -0.08273361623
vn -0.1642797887 0.9864129424 0.001307362225
vn -0.01403854135 0.9997966886 -0.01447398029
vn -0.164363429 0.9863998294 -0.0001112294922
vn -0.2975533009 -0.9542725086 0.02873967588
vn -0.007244053297 -0.9999588132 -0.0054649706
vn -0.01287361141 -0.9997966886 -0.01551925205
vn -0.265078783 -0.9571537375 -0.1165762022
vn -0.3299786747 -0.9420257807 -0.0608397387
vn -0.01167149469 -0.9998939633 -0.008705275133
vn -0.01215824205 -0.9998211861 -0.01448497362
vn -0.2984088957 -0.953980267 0.02956002206
vn -0.2331139594 -0.9671805501 -0.1010922492
vn -0.3004898131 -0.9522601962 -0.05391087383
f 1//1 2//2 3//3 
f 3//3 2//2 4//4 
f 3//3 4//4 5//5 
f 5//5 4//4 6//6 
f 5//5 6//6 7//7 
f 7//7 6//6 8//8 
f 7//7 8//8 9//9 
f 9//9 8//8 10//10 
f 9//9 10//10 11//11 
f 11//11 10//10 12//12 
f 11//11 12//12 13//13 
f 13//13 12//12 14//14 
f 13//13 14//14 15//15 
f 15//15 14//14 16//16 
f 15//15 16//16 17//17 
f 17//17 16//16 18//18 
f 19//19 20//20 21//21 
f 21//21 20//20 22//22 
f 23//23 24//24 1//1 
f 1//1 24//24 2//2 
f 17//17 18//18 25//25 
f 25//25 18//18 26//26 
f 27//27 28//28 29//29 
f 29//29 28//28 30//30 
f 29//29 30//30 31//31 
f 31//31 30//30 32//32 
f 31//31 32//32 33//33 
f 33//33 32//32 34//34 
f 28//28 27//27 19//19 
f 19//19 27//27 20//20 
f 21//21 22//22 35//35 
f 35//35 22//22 36//36 
f 37//37 38//38 39//39 
f 39//39 38//38 40//40 
f 39//39 40//40 41//41 
f 41//41 40//40 42//42 
f 41//41 42//42 43//43 
f 43//43 42//42 44//44 
f 43//43 44//44 45//45 
f 45//45 44//44 46//46 
f 45//45 46//46 47//47 
f 47//47 46//46 48//48 
f 23//23 1//1 38//38 
f 38//38 1//1 40//40 
f 40//40 1//1 42//42 
f 42//42 1//1 3//3 
f 42//42 3//3 44//44 
f 44//44 3//3 46//46 
f 46//46 3//3 5//5 
f 46//46 5//5 49//49 
f 49//49 5//5 50//50 
f 50//50 5//5 51//51 
f 51//51 5//5 35//35 
f 35//35 5//5 21//21 
f 21//21 5//5 7//7 
f 21//21 7//7 9//9 
f 21//21 9//9 19//19 
f 19//19 9//9 11//11 
f 19//19 11//11 28//28 
f 28//28 11//11 30//30 
f 30//30 11//11 32//32 
f 32//32 11//11 13//13 
f 32//32 13//13 34//34 
f 34//34 13//13 52//52 
f 34//34 52//52 53//53 
f 15//15 17//17 13//13 
f 13//13 17//17 25//25 
f 13//13 25//25 54//54 
f 54//54 55//55 13//13 
f 13//13 55//55 52//52 
f 53//53 56//56 34//34 
f 46//46 49//49 48//48 
f 48//48 49//49 57//57 
f 48//48 57//57 58//58 
f 58//58 59//59 48//48 
f 48//48 59//59 47//47 
f 38//38 37//37 23//23 
f 23//23 37//37 24//24 
f 24//24 37//37 2//2 
f 2//2 37//37 39//39 
f 2//2 39//39 41//41 
f 2//2 41//41 4//4 
f 4//4 41//41 43//43 
f 4//4 43//43 45//45 
f 47//47 60//60 45//45 
f 45//45 60//60 6//6 
f 45//45 6//6 4//4 
f 59//59 61//61 47//47 
f 47//47 61//61 60//60 
f 60//60 62//62 6//6 
f 6//6 62//62 63//63 
f 6//6 63//63 36//36 
f 36//36 22//22 6//6 
f 6//6 22//22 8//8 
f 8//8 22//22 10//10 
f 10//10 22//22 20//20 
f 10//10 20//20 12//12 
f 12//12 20//20 27//27 
f 12//12 27//27 29//29 
f 29//29 31//31 12//12 
f 12//12 31//31 14//14 
f 14//14 31//31 33//33 
f 14//14 33//33 64//64 
f 64//64 33//33 65//65 
f 65//65 33//33 66//66 
f 64//64 67//67 14//14 
f 14//14 67//67 68//68 
f 14//14 68//68 26//26 
f 26//26 18//18 14//14 
f 14//14 18//18 16//16 
f 59//59 58//58 61//61 
f 61//61 58//58 57//57 
f 61//61 57//57 60//60 
f 60//60 57//57 49//49 
f 60//60 49//49 62//62 
f 62//62 49//49 50//50 
f 62//62 50//50 63//63 
f 63//63 50//50 51//51 
f 63//63 51//51 36//36 
f 36//36 51//51 35//35 
f 56//56 66//66 34//34 
f 34//34 66//66 33//33 
f 66//66 56//56 65//65 
f 65//65 56//56 53//53 
f 65//65 53//53 64//64 
f 64//64 53//53 52//52 
f 64//64 52//52 67//67 
f 67//67 52//52 55//55 
f 67//67 55//55 68//68 
f 68//68 55//55 54//54 
f 68//68 54//54 26//26 
f 26//26 54//54 25//25 
