v -52.26422119 10.52083302 -56.38199615
v -52.26422119 10.16666698 -56.38199615
v -52.26422119 10.52083302 -52.14816284
v -52.26422119 10.16666698 -52.14816284
v -12.49725723 10.16666698 -64.70359039
v -12.49725723 10.52083302 -64.70359039
v -14.21090031 10.16666698 -63.5761528
v -14.21090031 10.52083302 -63.5761528
v -15.68918514 10.16666698 -62.15405273
v -15.68918514 10.52083302 -62.15405273
v -16.88214493 10.16666698 -60.48535919
v -16.88214493 10.52083302 -60.48535919
v -17.74945831 10.16666698 -58.62647247
v -17.74945831 10.52083302 -58.62647247
v -18.26181221 10.16666698 -56.64022446
v -18.26181221 10.52083302 -56.64022446
v -19.57101822 10.16666698 -60.70071411
v -25.22379494 10.16666698 -103.4928894
v -17.81666183 10.16666698 -104.4720001
v -17.81666183 10.52083302 -104.4720001
v -25.22379494 10.52083302 -103.4928894
v -19.57101822 10.52083302 -60.70071411
vn -0.03246486187 0.9857720733 -0.1649224013
vn -0.03258506209 -0.9959902763 -0.08331596851
vn -0.004981948063 0.9990794063 0.0426094234
vn 0.005936552305 -0.9963643551 0.08498726785
vn 0.07484918833 -0.9971604943 -0.008281752467
vn 0.03907494619 0.999234736 -0.001759368111
vn 0.003948350437 -0.9999783039 0.005267621018
vn 0.004264759831 0.9999783039 0.005014892668
vn 0.1902493685 -0.9660249949 0.1749310791
vn 0.2006449699 0.9660249949 0.1629026681
vn 0.1810730696 -0.9769140482 0.1133644804
vn 0.1877006739 0.9769140482 0.1020167768
vn 0.1999771893 -0.9766285419 0.07877685875
vn 0.2044423521 0.9766285419 0.06633234024
vn 0.0200962238 -0.9963335395 0.08316002041
vn 0.02579108626 0.9866039157 0.1610822678
vn -0.03331829607 -0.9986953139 -0.03869799525
vn -0.04889806733 -0.9988013506 0.002202144125
vn 0.0446128808 -0.998721838 -0.02375605889
vn 0.09239222109 0.9954964519 -0.02122394741
vn -0.02530055121 0.9996664524 -0.005179635249
vn -0.05821462721 0.998208046 -0.01384907216
f 1//1 2//2 3//3 
f 3//3 2//2 4//4 
f 5//5 6//6 7//7 
f 7//7 6//6 8//8 
f 7//7 8//8 9//9 
f 9//9 8//8 10//10 
f 9//9 10//10 11//11 
f 11//11 10//10 12//12 
f 11//11 12//12 13//13 
f 13//13 12//12 14//14 
f 13//13 14//14 15//15 
f 15//15 14//14 16//16 
f 2//2 17//17 4//4 
f 4//4 17//17 15//15 
f 15//15 17//17 13//13 
f 13//13 17//17 11//11 
f 11//11 17//17 9//9 
f 9//9 17//17 7//7 
f 7//7 17//17 18//18 
f 7//7 18//18 5//5 
f 5//5 18//18 19//19 
f 6//6 5//5 20//20 
f 20//20 5//5 19//19 
f 21//21 18//18 22//22 
f 22//22 18//18 17//17 
f 1//1 3//3 22//22 
f 22//22 3//3 16//16 
f 22//22 16//16 14//14 
f 14//14 12//12 22//22 
f 22//22 12//12 10//10 
f 22//22 10//10 8//8 
f 22//22 8//8 21//21 
f 21//21 8//8 6//6 
f 21//21 6//6 20//20 
f 20//20 19//19 21//21 
f 21//21 19//19 18//18 
f 3//3 4//4 16//16 
f 16//16 4//4 15//15 
f 22//22 17//17 1//1 
f 1//1 17//17 2//2 
