v -36.43942261 23.75 87.29906464
v -36.43942261 30.75 87.29906464
v -33.79058075 23.75 88.70748138
v -33.79058075 30.75 88.70748138
v -33.57540894 23.75 88.30279541
v -33.57540894 30.75 88.30279541
v -36.22425079 23.75 86.89437866
v -36.37140656 23.75 86.81613922
v -36.65504837 23.75 87.34958649
v -33.71188736 23.75 88.91448975
v -33.42824936 23.75 88.38104248
v -33.42824936 30.91666603 88.38104248
v -33.71188736 30.91666603 88.91448975
v -36.37140656 30.91666603 86.81613922
v -36.65504837 30.91666603 87.34958649
v -36.22425079 30.75 86.89437866
vn 0.7067168951 -0.02797806635 -0.7069430351
vn 0.5342226028 -0.06514728814 -0.8428298235
vn 0.4007201493 -0.02612236887 -0.9158280492
vn 0.1905928999 -0.06249601394 -0.9796777964
vn -0.7846726775 -0.01171211433 -0.6197996736
vn -0.2261185646 -0.5060611963 -0.8323295116
vn 0.9899791479 -0.02237001248 0.1394303739
vn -0.7282181978 -0.01972473226 -0.6850614548
vn -0.54712075 -0.02134692669 0.8367814422
vn -0.1404213458 -0.02308730781 0.9898226261
vn 0.9993003607 -0.03588338569 -0.01054140646
vn 0.8720920086 0.4148246944 0.2595688999
vn -0.3875229955 0.04194214568 0.9209054112
vn -0.5241239071 0.3815049231 -0.7614119053
vn -0.73312217 0.1565569043 0.6618321538
vn 0.979028523 -0.1920679361 0.06791957468
f 1//1 2//2 3//3 
f 3//3 2//2 4//4 
f 3//3 4//4 5//5 
f 5//5 4//4 6//6 
f 7//7 1//1 8//8 
f 8//8 1//1 9//9 
f 9//9 1//1 3//3 
f 9//9 3//3 10//10 
f 10//10 3//3 11//11 
f 11//11 3//3 5//5 
f 11//11 12//12 10//10 
f 10//10 12//12 13//13 
f 14//14 8//8 15//15 
f 15//15 8//8 9//9 
f 4//4 2//2 6//6 
f 6//6 2//2 16//16 
f 7//7 8//8 16//16 
f 16//16 8//8 14//14 
f 16//16 14//14 6//6 
f 6//6 14//14 12//12 
f 6//6 12//12 11//11 
f 11//11 5//5 6//6 
f 2//2 1//1 16//16 
f 16//16 1//1 7//7 
f 10//10 13//13 9//9 
f 9//9 13//13 15//15 
f 14//14 15//15 12//12 
f 12//12 15//15 13//13 
