v -26.38434982 37.25 50.51092911
v -26.38434982 23.75 50.51092911
v -26.38434982 37.25 51.11509323
v -26.38434982 23.75 51.11509323
v 7.904017925 23.75 50.51092911
v 7.904017925 37.25 50.51092911
v 7.904017925 23.75 51.11509323
v 7.904017925 37.25 51.11509323
vn -0.008807498962 0.02236998081 -0.9997109771
vn -0.03507826105 -0.08909454197 -0.9954052567
vn -0.03507826105 0.08909454197 0.9954052567
vn -0.008807498962 -0.02236998081 0.9997109771
vn 0.008807498962 -0.02236998081 -0.9997109771
vn 0.03507826105 0.08909454197 -0.9954052567
vn 0.03507826105 -0.08909454197 0.9954052567
vn 0.008807498962 0.02236998081 0.9997109771
f 1//1 2//2 3//3 
f 3//3 2//2 4//4 
f 2//2 1//1 5//5 
f 5//5 1//1 6//6 
f 5//5 7//7 2//2 
f 2//2 7//7 4//4 
f 1//1 3//3 6//6 
f 6//6 3//3 8//8 
f 7//7 8//8 4//4 
f 4//4 8//8 3//3 
f 5//5 6//6 7//7 
f 7//7 6//6 8//8 
