v -10.5022316 23.75 26.52665138
v -10.5022316 37.25 26.52665138
v -9.898065567 23.75 26.52665138
v -9.898065567 37.25 26.52665138
v -10.5022316 23.75 50.51092911
v -10.5022316 37.25 50.51092911
v -9.898065567 23.75 50.51092911
v -9.898065567 37.25 50.51092911
vn -0.9989210367 -0.04470475018 -0.01258145366
vn -0.9977372289 0.04465177283 -0.05026617274
vn 0.9977372289 -0.04465177283 -0.05026617274
vn 0.9989210367 0.04470475018 -0.01258145366
vn -0.9977372289 -0.04465177283 0.05026617274
vn -0.9989210367 0.04470475018 0.01258145366
vn 0.9989210367 -0.04470475018 0.01258145366
vn 0.9977372289 0.04465177283 0.05026617274
f 1//1 2//2 3//3 
f 3//3 2//2 4//4 
f 5//5 6//6 1//1 
f 1//1 6//6 2//2 
f 5//5 1//1 7//7 
f 7//7 1//1 3//3 
f 2//2 6//6 4//4 
f 4//4 6//6 8//8 
f 3//3 4//4 7//7 
f 7//7 4//4 8//8 
f 6//6 5//5 8//8 
f 8//8 5//5 7//7 
