v 14.4040184 23.75 -55.67126465
v 14.4040184 37.25 -55.67126465
v 14.4040184 23.75 -56.27543259
v 14.4040184 37.25 -56.27543259
v 50.98735046 23.75 -55.67126465
v 50.98735046 37.25 -55.67126465
v 50.98735046 23.75 -56.27543259
v 50.98735046 37.25 -56.27543259
vn -0.008255072869 -0.02237022854 0.9997156858
vn -0.03288037702 0.08910176158 0.9954796433
vn -0.03288037702 -0.08910176158 -0.9954796433
vn -0.008255072869 0.02237022854 -0.9997156858
vn 0.03288037702 -0.08910176158 0.9954796433
vn 0.008255072869 0.02237022854 0.9997156858
vn 0.008255072869 -0.02237022854 -0.9997156858
vn 0.03288037702 0.08910176158 -0.9954796433
f 1//1 2//2 3//3 
f 3//3 2//2 4//4 
f 5//5 6//6 1//1 
f 1//1 6//6 2//2 
f 1//1 3//3 5//5 
f 5//5 3//3 7//7 
f 6//6 8//8 2//2 
f 2//2 8//8 4//4 
f 3//3 4//4 7//7 
f 7//7 4//4 8//8 
f 7//7 8//8 5//5 
f 5//5 8//8 6//6 
