v -26.98851776 23.75 27.13081932
v -26.98851776 37.25 27.13081932
v -26.98851776 23.75 26.52665138
v -26.98851776 37.25 26.52665138
v -10.5022316 23.75 27.13081932
v -10.5022316 37.25 27.13081932
v -10.5022316 23.75 26.52665138
v -10.5022316 37.25 26.52665138
vn -0.01831568964 -0.02236723714 0.9995820522
vn -0.0728078112 0.08891335875 0.9933747649
vn -0.0728078112 -0.08891335875 -0.9933747649
vn -0.01831568964 0.02236723714 -0.9995820522
vn 0.0728078112 -0.08891335875 0.9933747649
vn 0.01831568964 0.02236723714 0.9995820522
vn 0.01831568964 -0.02236723714 -0.9995820522
vn 0.0728078112 0.08891335875 -0.9933747649
f 1//1 2//2 3//3 
f 3//3 2//2 4//4 
f 5//5 6//6 1//1 
f 1//1 6//6 2//2 
f 1//1 3//3 5//5 
f 5//5 3//3 7//7 
f 6//6 8//8 2//2 
f 2//2 8//8 4//4 
f 3//3 4//4 7//7 
f 7//7 4//4 8//8 
f 6//6 5//5 8//8 
f 8//8 5//5 7//7 
