v -26.38434982 30.77083397 78.06832123
v -26.38434982 23.75 78.06832123
v -26.98851776 30.77083397 78.06832123
v -26.98851776 23.75 78.06832123
v -26.38434982 23.75 79.31832123
v -26.98851776 23.75 79.31832123
v -26.98851776 23.75 122.1308212
v -26.98851776 23.75 85.31832123
v -26.38434982 23.75 122.1308212
v -26.38434982 23.75 85.31832123
v -26.98851776 33.75 79.31832123
v -26.38434982 33.75 79.31832123
v -26.98851776 33.75 85.31832123
v -26.38434982 33.75 85.31832123
v -26.98851776 23.75 27.13081932
v -26.98851776 37.25 27.13081932
v -26.38434982 23.75 27.13081932
v -26.38434982 37.25 27.13081932
v -26.98851776 23.75 75.02664948
v -26.98851776 23.75 30.48498535
v -26.38434982 23.75 75.02664948
v -26.38434982 23.75 30.48498535
v -26.38434982 30.77083397 30.48498535
v -26.98851776 30.77083397 30.48498535
v -26.38434982 23.75 27.44331932
v -26.98851776 23.75 27.44331932
v -26.38434982 37.25 122.1308212
v -26.38434982 30.77083397 27.44331932
v -26.38434982 30.77083397 75.02664948
v -26.98851776 30.77083397 27.44331932
v -26.98851776 37.25 122.1308212
v -26.98851776 30.77083397 75.02664948
vn 0.9833140969 -0.1191268861 -0.1374852657
vn 0.7176154256 -0.06175338104 -0.6936963797
vn -0.9614203572 -0.05823724717 -0.2688482404
vn -0.8897300959 -0.153128922 -0.430037111
vn 0.9597315192 -0.068132855 0.27253142
vn -0.8691357374 -0.03085065819 0.4936105311
vn -0.9994921088 -0.02569621615 0.01884680055
vn -0.992646873 -0.1199450791 -0.01629135199
vn 0.9986364245 -0.0513484329 0.009415332228
vn 0.9976445436 -0.0602744855 -0.03274674714
vn -0.9999359846 -0.008690938354 0.007242448628
vn 0.9998856783 -0.004345250316 0.01448416803
vn -0.9998986721 -0.004090583418 -0.01363527775
vn 0.999943316 -0.008181531914 -0.006817942951
vn -0.6176667809 -0.03637029976 -0.7855985165
vn -0.9962035418 0.08373833448 -0.02379931696
vn 0.3658419251 -0.01077100355 -0.9306146502
vn 0.9860929251 0.1657769233 -0.01177888643
vn -0.9959540963 -0.08570542186 0.02701845765
vn -0.9962950945 -0.08573476225 -0.006756926887
vn 0.9962950945 -0.08573476225 0.006756926887
vn 0.9959540963 -0.08570542186 -0.02701845765
vn 0.9999870658 -0.003328371793 -0.003841307014
vn -0.9999398589 -0.002321578562 -0.01071742736
vn 0.4579927027 -0.07882382721 0.8854544163
vn -0.2503242195 -0.02154129744 0.9679223895
vn 0.9975478053 0.06732194126 0.01913360506
vn 0.9489712715 -0.06676447392 0.3082141876
vn 0.9998176694 -0.004042757209 0.01866311021
vn -0.9776844382 -0.1375691593 0.1587699205
vn -0.9909687638 0.1337558776 0.00950370729
vn -0.9999732375 -0.004790501669 0.00552875502
f 1//1 2//2 3//3 
f 3//3 2//2 4//4 
f 2//2 5//5 4//4 
f 4//4 5//5 6//6 
f 7//7 8//8 9//9 
f 9//9 8//8 10//10 
f 11//11 6//6 12//12 
f 12//12 6//6 5//5 
f 8//8 13//13 10//10 
f 10//10 13//13 14//14 
f 15//15 16//16 17//17 
f 17//17 16//16 18//18 
f 19//19 20//20 21//21 
f 21//21 20//20 22//22 
f 23//23 22//22 24//24 
f 24//24 22//22 20//20 
f 17//17 25//25 15//15 
f 15//15 25//25 26//26 
f 27//27 12//12 18//18 
f 18//18 12//12 23//23 
f 18//18 23//23 28//28 
f 12//12 27//27 14//14 
f 14//14 27//27 9//9 
f 14//14 9//9 10//10 
f 5//5 1//1 12//12 
f 12//12 1//1 29//29 
f 12//12 29//29 23//23 
f 23//23 29//29 21//21 
f 23//23 21//21 22//22 
f 5//5 2//2 1//1 
f 25//25 17//17 28//28 
f 28//28 17//17 18//18 
f 24//24 30//30 23//23 
f 23//23 30//30 28//28 
f 16//16 11//11 31//31 
f 31//31 11//11 13//13 
f 31//31 13//13 7//7 
f 7//7 13//13 8//8 
f 15//15 30//30 16//16 
f 16//16 30//30 24//24 
f 16//16 24//24 11//11 
f 11//11 24//24 32//32 
f 11//11 32//32 3//3 
f 15//15 26//26 30//30 
f 24//24 20//20 32//32 
f 32//32 20//20 19//19 
f 4//4 6//6 3//3 
f 3//3 6//6 11//11 
f 30//30 26//26 28//28 
f 28//28 26//26 25//25 
f 16//16 31//31 18//18 
f 18//18 31//31 27//27 
f 13//13 11//11 14//14 
f 14//14 11//11 12//12 
f 29//29 1//1 32//32 
f 32//32 1//1 3//3 
f 32//32 19//19 29//29 
f 29//29 19//19 21//21 
f 31//31 7//7 27//27 
f 27//27 7//7 9//9 
