v -1.605579376 23.75 5.667276859
v -1.605579376 37.25 5.667276859
v -2.209746122 23.75 5.667276859
v -2.209746122 37.25 5.667276859
v -1.605579376 23.75 -19.86918068
v -1.605579376 37.25 -19.86918068
v -2.209746122 23.75 -19.86918068
v -2.209746122 37.25 -19.86918068
vn 0.998930335 -0.04470521957 0.01181684062
vn 0.9978858232 0.04465847462 0.04721793532
vn -0.9978858232 -0.04465847462 0.04721793532
vn -0.998930335 0.04470521957 0.01181684062
vn 0.9978858232 -0.04465847462 -0.04721793532
vn 0.998930335 0.04470521957 -0.01181684062
vn -0.998930335 -0.04470521957 -0.01181684062
vn -0.9978858232 0.04465847462 -0.04721793532
f 1//1 2//2 3//3 
f 3//3 2//2 4//4 
f 5//5 6//6 1//1 
f 1//1 6//6 2//2 
f 5//5 1//1 7//7 
f 7//7 1//1 3//3 
f 2//2 6//6 4//4 
f 4//4 6//6 8//8 
f 3//3 4//4 7//7 
f 7//7 4//4 8//8 
f 6//6 5//5 8//8 
f 8//8 5//5 7//7 
