v -29.27070236 37.25 19.92248535
v -29.27070236 23.75 19.92248535
v -29.04836845 37.25 20.52665138
v -29.04836845 23.75 20.52665138
v -2.422480106 30.77083397 19.92248535
v -2.422480106 23.75 19.92248535
v -2.422480106 30.77083397 20.52665138
v -2.422480106 23.75 20.52665138
v -5.464146614 30.77083397 19.92248535
v -5.464146614 30.77083397 20.52665138
v -15.14806557 30.77083397 19.92248535
v -15.14806557 23.75 19.92248535
v -15.14806557 30.77083397 20.52665138
v -15.14806557 23.75 20.52665138
v 7.195684433 23.75 19.92248535
v 7.195684433 23.75 20.52665138
v 5.665254116 23.75 19.92248535
v 5.665254116 23.75 20.52665138
v 5.665254116 30.77083397 19.92248535
v 5.665254116 30.77083397 20.52665138
v 2.62358737 23.75 20.52665138
v 2.62358737 23.75 19.92248535
v 2.62358737 30.77083397 19.92248535
v 2.62358737 30.77083397 20.52665138
v -13.91889858 30.77083397 20.52665138
v -13.91889858 23.75 20.52665138
v -13.91889858 30.77083397 19.92248535
v -13.91889858 23.75 19.92248535
v -10.8772316 30.77083397 20.52665138
v 7.195684433 37.25 20.52665138
v -18.1897316 30.77083397 20.52665138
v -18.1897316 23.75 20.52665138
v -10.8772316 23.75 20.52665138
v -5.464146614 23.75 20.52665138
v 7.195684433 37.25 19.92248535
v -10.8772316 30.77083397 19.92248535
v -5.464146614 23.75 19.92248535
v -10.8772316 23.75 19.92248535
v -18.1897316 30.77083397 19.92248535
v -18.1897316 23.75 19.92248535
vn -0.01892912388 0.05113160983 -0.9985125065
vn -0.07345025986 -0.03014445119 -0.9968432188
vn -0.03730080277 0.1004502848 0.9942426085
vn -0.03603129834 -0.05855648592 0.997633636
vn -0.03438968956 -0.01489879563 -0.9992974401
vn -0.2296815366 -0.1650784761 -0.9591639638
vn -0.0960599333 -0.04161646217 0.994505167
vn -0.05970301107 -0.04291020334 0.9972934723
vn 0.09098210186 -0.03941657394 -0.9950721264
vn 0.03241189197 -0.01404194627 0.9993759394
vn -0.09391015023 -0.04068509862 -0.9947490096
vn -0.6958159208 -0.1218194291 -0.7078136802
vn -0.2264678478 -0.09811363369 0.9690645337
vn -0.2384525388 -0.04174689204 0.9702564478
vn 0.251265049 -0.02848471329 -0.9674990773
vn 0.4603135288 -0.05218353868 0.8862214088
vn -0.6140978932 -0.1338635981 -0.7777945399
vn -0.3660215735 -0.07978688926 0.9271797538
vn -0.08265007287 -0.03580685332 -0.995935142
vn -0.1633244753 -0.07075778395 0.9840317369
vn 0.2296815366 -0.1650784761 0.9591639638
vn 0.05970301107 -0.04291020334 -0.9972934723
vn 0.09605992585 -0.0416164659 -0.994505167
vn 0.03438968956 -0.01489879657 0.9992974401
vn 0.09391013533 -0.04068510234 0.9947490096
vn 0.6958159208 -0.1218194291 0.7078136802
vn 0.2264678031 -0.09811364859 -0.9690645337
vn 0.2384525388 -0.04174689204 -0.9702564478
vn -0.02588438801 -0.01121400762 0.9996020198
vn 0.02244267426 0.06025285274 0.9979308248
vn 0.01748599671 -0.007575533353 0.9998183846
vn 0.1101935133 -0.08521433175 0.9902504086
vn -0.05566802993 -0.04292022809 0.9975264072
vn 0.2148524076 -0.1656518877 0.9624956846
vn 0.04443400726 0.1196598634 -0.991820097
vn -0.01155508682 -0.005006061401 -0.9999207258
vn 0.05566802993 -0.04292022809 -0.9975264072
vn -0.2148524076 -0.1656518877 -0.9624956846
vn 0.03430848941 -0.01486361399 -0.9993007779
vn 0.05367081612 -0.1677174866 -0.984373033
f 1//1 2//2 3//3 
f 3//3 2//2 4//4 
f 5//5 6//6 7//7 
f 7//7 6//6 8//8 
f 5//5 7//7 9//9 
f 9//9 7//7 10//10 
f 11//11 12//12 13//13 
f 13//13 12//12 14//14 
f 15//15 16//16 17//17 
f 17//17 16//16 18//18 
f 19//19 17//17 20//20 
f 20//20 17//17 18//18 
f 8//8 6//6 21//21 
f 21//21 6//6 22//22 
f 19//19 20//20 23//23 
f 23//23 20//20 24//24 
f 25//25 26//26 27//27 
f 27//27 26//26 28//28 
f 3//3 29//29 30//30 
f 30//30 29//29 10//10 
f 30//30 10//10 7//7 
f 4//4 31//31 3//3 
f 3//3 31//31 13//13 
f 3//3 13//13 25//25 
f 25//25 13//13 14//14 
f 25//25 14//14 26//26 
f 4//4 32//32 31//31 
f 25//25 29//29 3//3 
f 29//29 33//33 10//10 
f 10//10 33//33 34//34 
f 30//30 7//7 24//24 
f 24//24 7//7 8//8 
f 24//24 8//8 21//21 
f 24//24 20//20 30//30 
f 30//30 20//20 16//16 
f 16//16 20//20 18//18 
f 35//35 36//36 1//1 
f 1//1 36//36 27//27 
f 1//1 27//27 11//11 
f 11//11 27//27 28//28 
f 11//11 28//28 12//12 
f 15//15 19//19 35//35 
f 35//35 19//19 23//23 
f 35//35 23//23 5//5 
f 5//5 23//23 22//22 
f 5//5 22//22 6//6 
f 15//15 17//17 19//19 
f 5//5 9//9 35//35 
f 35//35 9//9 36//36 
f 9//9 37//37 36//36 
f 36//36 37//37 38//38 
f 11//11 39//39 1//1 
f 1//1 39//39 2//2 
f 2//2 39//39 40//40 
f 36//36 29//29 27//27 
f 27//27 29//29 25//25 
f 14//14 12//12 26//26 
f 26//26 12//12 28//28 
f 36//36 38//38 29//29 
f 29//29 38//38 33//33 
f 37//37 34//34 38//38 
f 38//38 34//34 33//33 
f 24//24 21//21 23//23 
f 23//23 21//21 22//22 
f 31//31 39//39 13//13 
f 13//13 39//39 11//11 
f 31//31 32//32 39//39 
f 39//39 32//32 40//40 
f 2//2 40//40 4//4 
f 4//4 40//40 32//32 
f 10//10 34//34 9//9 
f 9//9 34//34 37//37 
f 1//1 3//3 35//35 
f 35//35 3//3 30//30 
f 15//15 35//35 16//16 
f 16//16 35//35 30//30 
