v -18.95014954 37.25 -19.86918068
v -18.95014954 23.75 -19.86918068
v -19.55431557 37.25 -19.86918068
v -19.55431557 23.75 -19.86918068
v -19.55431557 23.75 -15.39522266
v -19.55431557 23.75 -16.51501465
v -18.95014954 23.75 -15.39522266
v -18.95014954 23.75 -16.51501465
v -18.95014954 30.77083397 -16.51501465
v -19.55431557 30.77083397 -16.51501465
v -18.95014954 23.75 -19.55668068
v -19.55431557 23.75 -19.55668068
v -19.55431557 30.77083397 -19.55668068
v -18.95014954 30.77083397 -19.55668068
v -19.55431557 37.25 -15.39522266
v -18.95014954 37.25 -15.39522266
vn 0.9833274484 0.1004634351 -0.1515723169
vn 0.3658429384 -0.0107709989 -0.9306142926
vn -0.954483211 0.04875825346 -0.2942523956
vn -0.617667973 -0.03637025505 -0.7855975628
vn -0.8151925206 -0.02400056645 0.5786925554
vn -0.8701516986 -0.1497588754 -0.4694765806
vn 0.9409493804 -0.05540609732 0.3339827061
vn 0.6785638332 -0.05839267001 -0.7322167754
vn 0.9969480634 -0.05112207681 -0.05900049582
vn -0.9927461743 -0.02545330487 -0.117503643
vn 0.4579938352 -0.07882377505 0.8854538202
vn -0.2503249645 -0.02154129371 0.9679222107
vn -0.9776845574 -0.137568742 0.1587694436
vn 0.9489715695 -0.06676428765 0.3082132936
vn -0.9762614369 0.119662866 0.1805391014
vn 0.9363595247 0.05738599226 0.3463201523
f 1//1 2//2 3//3 
f 3//3 2//2 4//4 
f 5//5 6//6 7//7 
f 7//7 6//6 8//8 
f 9//9 8//8 10//10 
f 10//10 8//8 6//6 
f 2//2 11//11 4//4 
f 4//4 11//11 12//12 
f 10//10 13//13 9//9 
f 9//9 13//13 14//14 
f 5//5 15//15 10//10 
f 10//10 15//15 3//3 
f 10//10 3//3 13//13 
f 13//13 3//3 4//4 
f 13//13 4//4 12//12 
f 10//10 6//6 5//5 
f 16//16 9//9 1//1 
f 1//1 9//9 14//14 
f 1//1 14//14 2//2 
f 2//2 14//14 11//11 
f 16//16 7//7 9//9 
f 9//9 7//7 8//8 
f 13//13 12//12 14//14 
f 14//14 12//12 11//11 
f 16//16 1//1 15//15 
f 15//15 1//1 3//3 
f 7//7 16//16 5//5 
f 5//5 16//16 15//15 
