v 7.195684433 23.75 -76.28585052
v 7.195684433 37.25 -76.28585052
v 7.799851418 23.75 -76.28585052
v 7.799851418 37.25 -76.28585052
v 7.195684433 23.75 -34.47334671
v 7.195684433 37.25 -34.47334671
v 7.799851418 23.75 -34.47334671
v 7.799851418 37.25 -34.47334671
vn -0.9989740849 -0.0447071977 -0.007217304315
vn -0.9985840321 0.04468974099 -0.0288579464
vn 0.9985840321 -0.04468974099 -0.0288579464
vn 0.9989740849 0.0447071977 -0.007217304315
vn -0.9985840321 -0.04468974099 0.0288579464
vn -0.9989740849 0.0447071977 0.007217304315
vn 0.9989740849 -0.0447071977 0.007217304315
vn 0.9985840321 0.04468974099 0.0288579464
f 1//1 2//2 3//3 
f 3//3 2//2 4//4 
f 5//5 6//6 1//1 
f 1//1 6//6 2//2 
f 5//5 1//1 7//7 
f 7//7 1//1 3//3 
f 2//2 6//6 4//4 
f 4//4 6//6 8//8 
f 3//3 4//4 7//7 
f 7//7 4//4 8//8 
f 6//6 5//5 8//8 
f 8//8 5//5 7//7 
