v 7.799851418 23.75 -76.89001465
v 7.799851418 37.25 -76.89001465
v 7.799851418 23.75 -76.28585052
v 7.799851418 37.25 -76.28585052
v 4.446504116 23.75 -76.28585052
v 4.446504116 37.25 -76.28585052
v 4.446504116 23.75 -76.89001465
v 4.446504116 37.25 -76.89001465
vn 0.0896981582 -0.02228067257 -0.9957197309
vn 0.3378029168 0.08390892297 -0.9374691844
vn 0.3378029168 -0.08390892297 0.9374691844
vn 0.0896981582 0.02228067257 0.9957197309
vn -0.0896981582 -0.02228067257 0.9957197309
vn -0.3378029168 0.08390892297 0.9374691844
vn -0.3378029168 -0.08390892297 -0.9374691844
vn -0.0896981582 0.02228067257 -0.9957197309
f 1//1 2//2 3//3 
f 3//3 2//2 4//4 
f 3//3 4//4 5//5 
f 5//5 4//4 6//6 
f 7//7 8//8 1//1 
f 1//1 8//8 2//2 
f 5//5 7//7 3//3 
f 3//3 7//7 1//1 
f 4//4 2//2 6//6 
f 6//6 2//2 8//8 
f 5//5 6//6 7//7 
f 7//7 6//6 8//8 
