v -45.80126953 23.75 -26.47334862
v -45.80126953 37.25 -26.47334862
v -45.80126953 23.75 -27.07751465
v -45.80126953 37.25 -27.07751465
v 7.799851418 23.75 -27.07751465
v 7.799851418 37.25 -27.07751465
v 7.799851418 23.75 -26.47334862
v 7.799851418 37.25 -26.47334862
vn -0.005634259433 -0.02237056382 0.9997338653
vn -0.02244761772 0.08912722021 0.9957672358
vn -0.02244761772 -0.08912722021 -0.9957672358
vn -0.005634259433 0.02237056382 -0.9997338653
vn 0.005634259433 -0.02237056382 -0.9997338653
vn 0.02244761772 0.08912722021 -0.9957672358
vn 0.02244761772 -0.08912722021 0.9957672358
vn 0.005634259433 0.02237056382 0.9997338653
f 1//1 2//2 3//3 
f 3//3 2//2 4//4 
f 3//3 4//4 5//5 
f 5//5 4//4 6//6 
f 7//7 8//8 1//1 
f 1//1 8//8 2//2 
f 5//5 7//7 3//3 
f 3//3 7//7 1//1 
f 4//4 2//2 6//6 
f 6//6 2//2 8//8 
f 5//5 6//6 7//7 
f 7//7 6//6 8//8 
