v -43.52582932 33.58333206 -19.14592743
v -43.17390442 33.58333206 -19.27543831
v -42.59048462 33.58333206 -16.6042366
v -42.23855972 33.58333206 -16.73374557
v -42.59048462 33.75 -16.6042366
v -42.23855972 33.75 -16.73374557
v -43.52582932 33.75 -19.14592743
v -43.17390442 33.75 -19.27543831
vn -0.6386992931 -0.7466164231 0.1860835999
vn 0.1825090051 -0.9744299054 -0.1310603917
vn -0.1825091541 -0.9744299054 0.1310603917
vn 0.6386998296 -0.7466159463 -0.1860836893
vn -0.3712953031 0.9134488702 0.1665860862
vn 0.4173640609 0.9080843329 -0.03449754789
vn -0.4173639119 0.9080843925 0.03449751437
vn 0.3712954521 0.9134488106 -0.1665860862
f 1//1 2//2 3//3 
f 3//3 2//2 4//4 
f 5//5 3//3 6//6 
f 6//6 3//3 4//4 
f 7//7 1//1 5//5 
f 5//5 1//1 3//3 
f 2//2 8//8 4//4 
f 4//4 8//8 6//6 
f 8//8 2//2 7//7 
f 7//7 2//2 1//1 
f 7//7 5//5 8//8 
f 8//8 5//5 6//6 
