v 31.71986771 8.166666985 107.9613266
v 31.71986771 0.1666666716 107.9613266
v 32.09164047 8.166666985 107.9122314
v 32.09164047 0.1666666716 107.9122314
v 32.0698204 0.1666666716 107.7470016
v 31.69804955 0.1666666716 107.7960968
v 32.0698204 8.166666985 107.7470016
v 31.69804955 8.166666985 107.7960968
vn -0.5607231855 0.01556908526 0.8278569579
vn -0.08725307137 -0.01016796008 0.9961342812
vn 0.3427921832 0.02033269778 0.9391912222
vn 0.7561257482 -0.03112666495 0.6536857486
vn 0.08725328743 -0.0101679489 -0.9961342812
vn -0.7561238408 -0.03112658858 -0.6536878943
vn 0.5607213974 0.01556898095 -0.82785815
vn -0.3427929878 0.02033274435 -0.9391909242
f 1//1 2//2 3//3 
f 3//3 2//2 4//4 
f 5//5 4//4 6//6 
f 6//6 4//4 2//2 
f 3//3 4//4 7//7 
f 7//7 4//4 5//5 
f 8//8 6//6 1//1 
f 1//1 6//6 2//2 
f 1//1 3//3 8//8 
f 8//8 3//3 7//7 
f 7//7 5//5 8//8 
f 8//8 5//5 6//6 
