v -31.53888702 33.58333206 13.00491238
v -31.53888702 23.91666603 13.00491238
v -31.46068192 33.58333206 12.97613239
v -31.46068192 23.91666603 12.97613239
v -32.43919754 23.91666603 10.317132
v -32.43919754 33.58333206 10.317132
v -32.51740265 33.58333206 10.34591198
v -32.51740265 23.91666603 10.34591198
vn -0.9332565069 0.008619365282 0.3591072559
vn -0.9164357185 -0.01720893756 0.3998118043
vn 0.957095921 0.008605420589 -0.2896433771
vn 0.943438828 -0.004309802316 -0.3315186501
vn 0.9164357185 -0.01720893756 -0.3998118043
vn 0.9332565069 0.008619365282 -0.3591072559
vn -0.957095921 0.008605420589 0.2896433771
vn -0.943438828 -0.004309802316 0.3315186501
f 1//1 2//2 3//3 
f 3//3 2//2 4//4 
f 5//5 6//6 4//4 
f 4//4 6//6 3//3 
f 7//7 1//1 6//6 
f 6//6 1//1 3//3 
f 8//8 5//5 2//2 
f 2//2 5//5 4//4 
f 2//2 1//1 8//8 
f 8//8 1//1 7//7 
f 8//8 7//7 5//5 
f 5//5 7//7 6//6 
