v -30.28774643 33.58333206 15.74118042
v -30.63967323 33.58333206 15.87068939
v -31.26626205 33.58333206 13.08218002
v -31.61818886 33.58333206 13.211689
v -31.26626205 33.75 13.08218002
v -31.61818886 33.75 13.211689
v -30.28774643 33.75 15.74118042
v -30.63967323 33.75 15.87068939
vn 0.6380560994 -0.7466855645 -0.1880027354
vn -0.1834506243 -0.9745812416 0.128597483
vn 0.1834506243 -0.9745812416 -0.128597483
vn -0.6380560994 -0.7466855645 0.1880027354
vn 0.3717350662 0.9134805202 -0.1654277742
vn -0.4158836603 0.9085749388 0.03914555535
vn 0.4158836603 0.9085749388 -0.03914555535
vn -0.3717350662 0.9134805202 0.1654277742
f 1//1 2//2 3//3 
f 3//3 2//2 4//4 
f 5//5 3//3 6//6 
f 6//6 3//3 4//4 
f 7//7 1//1 5//5 
f 5//5 1//1 3//3 
f 2//2 8//8 4//4 
f 4//4 8//8 6//6 
f 8//8 2//2 7//7 
f 7//7 2//2 1//1 
f 7//7 5//5 8//8 
f 8//8 5//5 6//6 
