v -34.62628174 33.58333206 3.951716423
v -34.97821045 33.58333206 4.081225872
v -35.57601929 33.58333206 1.370921493
v -35.92794418 33.58333206 1.500430942
v -35.57601929 33.75 1.370921493
v -35.92794418 33.75 1.500430942
v -34.62628174 33.75 3.951716423
v -34.97821045 33.75 4.081225872
vn 0.6384760141 -0.7466430068 -0.1867421418
vn -0.1828320324 -0.9744827151 0.1302147359
vn 0.1828320473 -0.9744827747 -0.1302144378
vn -0.6384795904 -0.7466397882 0.1867427379
vn 0.371445477 0.9134603143 -0.1661881953
vn -0.4168575406 0.908254981 0.03609341383
vn 0.4168540835 0.9082565904 -0.03609255329
vn -0.3714455068 0.9134603739 0.1661879271
f 1//1 2//2 3//3 
f 3//3 2//2 4//4 
f 5//5 3//3 6//6 
f 6//6 3//3 4//4 
f 7//7 1//1 5//5 
f 5//5 1//1 3//3 
f 2//2 8//8 4//4 
f 4//4 8//8 6//6 
f 8//8 2//2 7//7 
f 7//7 2//2 1//1 
f 7//7 5//5 8//8 
f 8//8 5//5 6//6 
