v -33.66156006 23.91666603 7.659069538
v -32.71182251 23.91666603 10.23986435
v -33.30963135 23.91666603 7.529560566
v -32.35989761 23.91666603 10.11035538
v -32.35989761 23.75 10.11035538
v -32.71182251 23.75 10.23986435
v -33.30963135 23.75 7.529560566
v -33.66156006 23.75 7.659069538
vn -0.4168501794 0.9082583785 0.03609222919
vn -0.3714421093 0.9134619832 0.1661866754
vn 0.3714421093 0.9134619832 -0.1661864072
vn 0.4168536365 0.9082567692 -0.03609308973
vn 0.6384756565 -0.746643424 -0.1867416054
vn -0.1828301996 -0.9744833112 0.1302130818
vn 0.1828301996 -0.9744832516 -0.1302133799
vn -0.6384720206 -0.7466467023 0.1867410094
f 1//1 2//2 3//3 
f 3//3 2//2 4//4 
f 5//5 4//4 6//6 
f 6//6 4//4 2//2 
f 7//7 3//3 5//5 
f 5//5 3//3 4//4 
f 1//1 8//8 2//2 
f 2//2 8//8 6//6 
f 8//8 1//1 7//7 
f 7//7 1//1 3//3 
f 8//8 7//7 6//6 
f 6//6 7//7 5//5 
