v -31.54664421 37.25 -91.26501465
v -31.54664421 23.75 -91.26501465
v -31.54664421 37.25 -91.86917877
v -31.54664421 23.75 -91.86917877
v -36.4084816 23.75 -91.26501465
v -36.4084816 37.25 -91.26501465
v -36.4084816 23.75 -91.86917877
v -36.4084816 37.25 -91.86917877
vn 0.061998263 0.02232781425 0.997826457
vn 0.2402908653 -0.0865374133 0.9668358564
vn 0.2402908653 0.0865374133 -0.9668358564
vn 0.061998263 -0.02232781425 -0.997826457
vn -0.061998263 -0.02232781425 0.997826457
vn -0.2402908653 0.0865374133 0.9668358564
vn -0.2402908653 -0.0865374133 -0.9668358564
vn -0.061998263 0.02232781425 -0.997826457
f 1//1 2//2 3//3 
f 3//3 2//2 4//4 
f 2//2 1//1 5//5 
f 5//5 1//1 6//6 
f 5//5 7//7 2//2 
f 2//2 7//7 4//4 
f 1//1 3//3 6//6 
f 6//6 3//3 8//8 
f 7//7 8//8 4//4 
f 4//4 8//8 3//3 
f 5//5 6//6 7//7 
f 7//7 6//6 8//8 
