v -31.61818886 23.91666603 13.211689
v -30.63967323 23.91666603 15.87068939
v -31.26626205 23.91666603 13.08218002
v -30.28774643 23.91666603 15.74118042
v -30.28774643 23.75 15.74118042
v -30.63967323 23.75 15.87068939
v -31.26626205 23.75 13.08218002
v -31.61818886 23.75 13.211689
vn -0.4158797264 0.9085767269 0.03914518654
vn -0.3717315197 0.9134822488 0.1654261947
vn 0.3717315197 0.9134822488 -0.1654261947
vn 0.4158797264 0.9085767269 -0.03914518654
vn 0.6380520463 -0.7466893792 -0.1880015284
vn -0.1834486425 -0.974581778 0.1285960823
vn 0.1834486425 -0.974581778 -0.1285960823
vn -0.6380520463 -0.7466893792 0.1880015284
f 1//1 2//2 3//3 
f 3//3 2//2 4//4 
f 5//5 4//4 6//6 
f 6//6 4//4 2//2 
f 7//7 3//3 5//5 
f 5//5 3//3 4//4 
f 1//1 8//8 2//2 
f 2//2 8//8 6//6 
f 8//8 1//1 7//7 
f 7//7 1//1 3//3 
f 8//8 7//7 6//6 
f 6//6 7//7 5//5 
