v -28.74181557 -0.3333333433 -48.64001465
v -28.74181557 -11 -48.64001465
v -28.74181557 -0.3333333433 -49.30668259
v -28.74181557 -11 -49.30668259
v -35.49181366 -11 -49.30668259
v -35.49181366 -0.3333333433 -49.30668259
v -35.49181366 -0.3333333433 -48.64001465
v -35.49181366 -11 -48.64001465
vn 0.04929871112 0.03119683266 0.9982967377
vn 0.192345947 -0.1217188835 0.9737492204
vn 0.192345947 0.1217188835 -0.9737492204
vn 0.04929871112 -0.03119683266 -0.9982967377
vn -0.192345947 -0.1217188835 -0.9737492204
vn -0.04929871112 0.03119683266 -0.9982967377
vn -0.192345947 0.1217188835 0.9737492204
vn -0.04929871112 -0.03119683266 0.9982967377
f 1//1 2//2 3//3 
f 3//3 2//2 4//4 
f 5//5 6//6 4//4 
f 4//4 6//6 3//3 
f 1//1 3//3 7//7 
f 7//7 3//3 6//6 
f 8//8 5//5 2//2 
f 2//2 5//5 4//4 
f 2//2 1//1 8//8 
f 8//8 1//1 7//7 
f 8//8 7//7 5//5 
f 5//5 7//7 6//6 
