v -31.32382202 33.58333206 12.9257679
v -31.67574883 33.58333206 13.05527687
v -32.30233765 33.58333206 10.2667675
v -32.65426254 33.58333206 10.39627647
v -32.30233765 33.75 10.2667675
v -32.65426254 33.75 10.39627647
v -31.32382202 33.75 12.9257679
v -31.67574883 33.75 13.05527687
vn 0.6380560994 -0.7466855645 -0.1880027354
vn -0.1834510714 -0.9745811224 0.128597647
vn 0.1834510714 -0.9745811224 -0.1285974979
vn -0.6380579472 -0.7466839552 0.1880030483
vn 0.3717358708 0.9134801626 -0.1654279977
vn -0.4158853889 0.9085741043 0.03914598748
vn 0.4158836603 0.9085749388 -0.03914555535
vn -0.3717358708 0.9134802222 0.1654278636
f 1//1 2//2 3//3 
f 3//3 2//2 4//4 
f 5//5 3//3 6//6 
f 6//6 3//3 4//4 
f 7//7 1//1 5//5 
f 5//5 1//1 3//3 
f 2//2 8//8 4//4 
f 4//4 8//8 6//6 
f 8//8 2//2 7//7 
f 7//7 2//2 1//1 
f 7//7 5//5 8//8 
f 8//8 5//5 6//6 
