v -26.99181557 -11.5 -46.64001465
v -26.99181557 -25.75 -46.64001465
v -27.6584816 -11.5 -46.64001465
v -27.6584816 -25.75 -46.64001465
v -27.6584816 -25.75 -31.30668068
v -27.6584816 -11.5 -31.30668068
v -26.99181557 -11.5 -31.30668068
v -26.99181557 -25.75 -31.30668068
vn 0.9986720085 0.04672145098 -0.02171023935
vn 0.9951602817 -0.04655716196 -0.08653559536
vn -0.9951602817 0.04655716196 -0.08653559536
vn -0.9986720085 -0.04672145098 -0.02171023935
vn -0.9951602817 -0.04655716196 0.08653559536
vn -0.9986720085 0.04672145098 0.02171023935
vn 0.9951602817 0.04655716196 0.08653559536
vn 0.9986720085 -0.04672145098 0.02171023935
f 1//1 2//2 3//3 
f 3//3 2//2 4//4 
f 5//5 6//6 4//4 
f 4//4 6//6 3//3 
f 7//7 1//1 6//6 
f 6//6 1//1 3//3 
f 2//2 8//8 4//4 
f 4//4 8//8 5//5 
f 2//2 1//1 8//8 
f 8//8 1//1 7//7 
f 8//8 7//7 5//5 
f 5//5 7//7 6//6 
