v -32.35989761 33.58333206 10.11035538
v -32.71182251 33.58333206 10.23986435
v -33.30963135 33.58333206 7.529560566
v -33.66156006 33.58333206 7.659069538
v -33.30963135 33.75 7.529560566
v -33.66156006 33.75 7.659069538
v -32.35989761 33.75 10.11035538
v -32.71182251 33.75 10.23986435
vn 0.6384797096 -0.7466396689 -0.1867427975
vn -0.1828321964 -0.9744827151 0.1302144974
vn 0.1828321815 -0.9744826555 -0.1302147806
vn -0.6384761333 -0.7466428876 0.1867422014
vn 0.3714456558 0.9134602547 -0.1661879867
vn -0.4168541133 0.9082565308 0.03609257191
vn 0.4168575704 0.9082549214 -0.03609342873
vn -0.3714456558 0.9134602547 0.166188255
f 1//1 2//2 3//3 
f 3//3 2//2 4//4 
f 5//5 3//3 6//6 
f 6//6 3//3 4//4 
f 7//7 1//1 5//5 
f 5//5 1//1 3//3 
f 2//2 8//8 4//4 
f 4//4 8//8 6//6 
f 8//8 2//2 7//7 
f 7//7 2//2 1//1 
f 7//7 5//5 8//8 
f 8//8 5//5 6//6 
