v 15.24985123 51.75 -0.4025146067
v 15.24985123 37.75 -0.4025146067
v 15.16735172 51.75 -0.4025146067
v 15.16735172 37.75 -0.4025146067
v 15.16735172 51.75 0.001443719491
v 15.16735172 37.75 0.001443719491
v 14.43235111 51.75 0.001443719491
v 14.43235111 37.75 0.001443719491
v 14.43235111 51.75 -0.4025146067
v 14.43235111 37.75 -0.4025146067
v 14.34985161 51.75 -0.4025146067
v 14.34985161 37.75 -0.4025146067
v 14.34985161 51.75 0.4558187127
v 14.34985161 37.75 0.4558187127
v 14.43235111 51.75 0.4558187127
v 14.43235111 37.75 0.4558187127
v 14.43235111 51.75 0.05186038464
v 14.43235111 37.75 0.05186038464
v 15.16735172 51.75 0.05186038464
v 15.16735172 37.75 0.05186038464
v 15.16735172 37.75 0.4558187127
v 15.24985123 37.75 0.4558187127
v 15.16735172 51.75 0.4558187127
v 15.24985123 51.75 0.4558187127
vn 0.9988371134 0.004500908777 -0.04800207913
vn 0.9819846749 -0.008510042913 -0.1887687445
vn -0.9257391691 0.005455215927 -0.3781232834
vn -0.9948225021 -0.002931155963 -0.101585187
vn -0.7396783829 0.007298032288 -0.6729210019
vn -0.2649722695 -0.006810248829 -0.9642319679
vn 0.2649722695 0.006810248829 -0.9642319679
vn 0.7396783829 -0.007298032288 -0.6729210019
vn 0.9948225021 0.002931155963 -0.101585187
vn 0.9257391691 -0.005455215927 -0.3781232834
vn -0.9819846749 0.008510042913 -0.1887687445
vn -0.9988371134 -0.004500908777 -0.04800207913
vn -0.9988371134 0.004500908777 0.04800207913
vn -0.9819846749 -0.008510042913 0.1887687445
vn 0.9257391691 0.005455215927 0.3781232834
vn 0.9948225021 -0.002931155963 0.101585187
vn 0.7396783829 0.007298032288 0.6729209423
vn 0.2649722695 -0.006810248829 0.9642319679
vn -0.2649722695 0.006810248829 0.9642319679
vn -0.7396783829 -0.007298032288 0.6729209423
vn -0.9257391691 -0.005455215927 0.3781232834
vn 0.9988371134 -0.004500908777 0.04800207913
vn -0.9948225021 0.002931155963 0.101585187
vn 0.9819846749 0.008510042913 0.1887687445
f 1//1 2//2 3//3 
f 3//3 2//2 4//4 
f 3//3 4//4 5//5 
f 5//5 4//4 6//6 
f 5//5 6//6 7//7 
f 7//7 6//6 8//8 
f 7//7 8//8 9//9 
f 9//9 8//8 10//10 
f 9//9 10//10 11//11 
f 11//11 10//10 12//12 
f 11//11 12//12 13//13 
f 13//13 12//12 14//14 
f 13//13 14//14 15//15 
f 15//15 14//14 16//16 
f 15//15 16//16 17//17 
f 17//17 16//16 18//18 
f 17//17 18//18 19//19 
f 19//19 18//18 20//20 
f 21//21 20//20 22//22 
f 22//22 20//20 6//6 
f 22//22 6//6 2//2 
f 2//2 6//6 4//4 
f 6//6 20//20 8//8 
f 8//8 20//20 18//18 
f 8//8 18//18 12//12 
f 12//12 18//18 14//14 
f 14//14 18//18 16//16 
f 12//12 10//10 8//8 
f 19//19 20//20 23//23 
f 23//23 20//20 21//21 
f 24//24 22//22 1//1 
f 1//1 22//22 2//2 
f 23//23 24//24 19//19 
f 19//19 24//24 1//1 
f 19//19 1//1 5//5 
f 5//5 1//1 3//3 
f 19//19 5//5 17//17 
f 17//17 5//5 7//7 
f 17//17 7//7 13//13 
f 13//13 7//7 11//11 
f 11//11 7//7 9//9 
f 13//13 15//15 17//17 
f 23//23 21//21 24//24 
f 24//24 21//21 22//22 
