v -28.17275047 9.1875 -55.74066925
v -28.17275047 9 -55.74066925
v -30.99590492 9.1875 -77.09823608
v -30.99590492 9 -77.09823608
v -52.25640488 9 -52.55897522
v -52.25640488 9 -74.28791809
v -52.25640488 9.1875 -74.28791809
v -52.25640488 9.1875 -52.55897522
vn 0.005274854135 0.9999488592 0.008628266864
vn 0.008733491413 -0.9999557137 0.003508355934
vn 0.01619181968 0.9998093247 -0.01091773435
vn 0.006385440007 -0.999810338 -0.01839891076
vn -0.00550449267 -0.999835968 0.01725525595
vn -0.008804135956 -0.9999530315 -0.00404554978
vn -0.005204212386 0.9999537468 -0.008091105148
vn -0.01442870311 0.9998586774 0.008627824485
f 1//1 2//2 3//3 
f 3//3 2//2 4//4 
f 5//5 6//6 2//2 
f 2//2 6//6 4//4 
f 3//3 4//4 7//7 
f 7//7 4//4 6//6 
f 8//8 5//5 1//1 
f 1//1 5//5 2//2 
f 8//8 1//1 7//7 
f 7//7 1//1 3//3 
f 7//7 6//6 8//8 
f 8//8 6//6 5//5 
