v 49.8711853 10.1875 -2.619165897
v 49.8711853 10 -2.619165897
v 48.2986412 10.1875 -14.51568222
v 48.2986412 10 -14.51568222
v 32.02640915 10 -0.2603505254
v 30.45386505 10 -12.15686703
v 30.45386505 10.1875 -12.15686703
v 32.02640915 10.1875 -0.2603505254
vn 0.007210023236 0.9998643994 0.01480572019
vn 0.01134966593 -0.9999152422 0.006379531696
vn 0.018599784 0.999661088 -0.01821419224
vn 0.006228293292 -0.9994578958 -0.03232803196
vn -0.006228293292 -0.9994578958 0.03232803196
vn -0.01134966593 -0.9999152422 -0.006379531696
vn -0.00721002277 0.9998643994 -0.01480572019
vn -0.018599784 0.999661088 0.01821419224
f 1//1 2//2 3//3 
f 3//3 2//2 4//4 
f 5//5 6//6 2//2 
f 2//2 6//6 4//4 
f 3//3 4//4 7//7 
f 7//7 4//4 6//6 
f 8//8 5//5 1//1 
f 1//1 5//5 2//2 
f 8//8 1//1 7//7 
f 7//7 1//1 3//3 
f 7//7 6//6 8//8 
f 8//8 6//6 5//5 
