v -21.67020226 26.13516998 35.71927261
v -21.97060966 26.13516998 36.00262451
v -22.29937172 26.13516998 35.75445175
v -21.991642 26.13516998 36.00664139
v -22.01091576 26.13516998 36.01596451
v -21.66166115 26.13516998 35.71991348
v -21.6535778 26.13516998 35.72274399
v -21.64650345 26.13516998 35.72756958
v -21.64091873 26.13516998 35.73406601
v -21.63720322 26.13516998 35.74178314
v -21.63561249 26.13516998 35.75019836
v -21.91131973 26.13516998 36.02325058
v -21.89732361 26.13516998 36.03945541
v -21.88800049 26.13516998 36.05873108
v -21.8839817 26.13516998 36.07976151
v -21.60046005 26.13516998 36.37887955
v -21.88554382 26.13516998 36.10111618
v -21.89257812 26.13516998 36.12133789
v -21.90460968 26.13516998 36.13904953
v -21.6313858 26.13516998 36.41346741
v -21.92081451 26.13516998 36.15304565
v -21.94008827 26.13516998 36.16237259
v -21.96112061 26.13516998 36.16638947
v -22.26055527 26.13516998 36.44865036
v -21.98247528 26.13516998 36.16482925
v -22.00269699 26.13516998 36.15779114
v -22.02041054 26.13516998 36.1457634
v -22.29514503 26.13516998 36.41772461
v -22.03440475 26.13516998 36.12955856
v -22.04372978 26.13516998 36.1102829
v -22.04774857 26.13516998 36.08925247
v -22.33029747 26.13516998 35.78903961
v -22.04618645 26.13516998 36.0678978
v -22.03915024 26.13516998 36.04767227
v -22.02712059 26.13516998 36.02996063
v -21.60110283 26.13516998 36.38742065
v -21.60393333 26.13516998 36.395504
v -21.60875893 26.13516998 36.40258026
v -21.61525154 26.13516998 36.40816498
v -21.62297058 26.13516998 36.41187668
v -22.26909637 26.13516998 36.44800568
v -22.27717972 26.13516998 36.44517517
v -22.28425407 26.13516998 36.44034958
v -22.2898407 26.13516998 36.43385696
v -22.29355431 26.13516998 36.42613983
v -22.32965469 26.13516998 35.78050232
v -22.32682419 26.13516998 35.77241898
v -22.3219986 26.13516998 35.76534271
v -22.31550598 26.13516998 35.759758
v -22.30778885 26.13516998 35.75604248
v -21.92903328 26.13516998 36.01121902
v -21.94925499 26.13516998 36.00418472
v -21.63561249 26.15157509 35.75019836
v -21.63720322 26.15157509 35.74178314
v -21.64091873 26.15157509 35.73406601
v -21.64650345 26.15157509 35.72756958
v -21.6535778 26.15157509 35.72274399
v -21.66166115 26.15157509 35.71991348
v -21.67020226 26.15157509 35.71927261
v -21.60046005 26.15157509 36.37887955
v -21.6313858 26.15157509 36.41346741
v -21.62297058 26.15157509 36.41187668
v -21.61525154 26.15157509 36.40816498
v -21.60875893 26.15157509 36.40258026
v -21.60393333 26.15157509 36.395504
v -21.60110283 26.15157509 36.38742065
v -22.26055527 26.15157509 36.44865036
v -22.29514503 26.15157509 36.41772461
v -22.29355431 26.15157509 36.42613983
v -22.2898407 26.15157509 36.43385696
v -22.28425407 26.15157509 36.44034958
v -22.27717972 26.15157509 36.44517517
v -22.26909637 26.15157509 36.44800568
v -22.33029747 26.15157509 35.78903961
v -22.29937172 26.15157509 35.75445175
v -22.30778885 26.15157509 35.75604248
v -22.31550598 26.15157509 35.759758
v -22.3219986 26.15157509 35.76534271
v -22.32682419 26.15157509 35.77241898
v -22.32965469 26.15157509 35.78050232
v -22.03440475 24.32414627 36.12955856
v -22.02712059 24.32414627 36.02996063
v -22.02041054 24.32414627 36.1457634
v -22.01091576 24.32414627 36.01596451
v -22.00269699 24.32414627 36.15779114
v -21.991642 24.32414627 36.00664139
v -21.98247528 24.32414627 36.16482925
v -21.97060966 24.32414627 36.00262451
v -21.96112061 24.32414627 36.16638947
v -21.94925499 24.32414627 36.00418472
v -21.94008827 24.32414627 36.16237259
v -21.92903328 24.32414627 36.01121902
v -21.92081451 24.32414627 36.15304565
v -21.91131973 24.32414627 36.02325058
v -21.90460968 24.32414627 36.13904953
v -21.89732361 24.32414627 36.03945541
v -21.89257812 24.32414627 36.12133789
v -21.88800049 24.32414627 36.05873108
v -21.88554382 24.32414627 36.10111618
v -21.8839817 24.32414627 36.07976151
v -22.03915024 24.32414627 36.04767227
v -22.04372978 24.32414627 36.1102829
v -22.04618645 24.32414627 36.0678978
v -22.04774857 24.32414627 36.08925247
vn -0.005450468045 -0.9950681329 -0.09904397279
vn -0.007569142152 -0.8427842855 -0.5381982327
vn -0.003010259941 -0.9987097383 -0.0506936647
vn -0.270221591 -0.1226719096 -0.9549512267
vn -0.5072309971 -0.1373241842 -0.8507989049
vn 0.1611026824 -0.04536184669 -0.9858946204
vn 0.4048830271 -0.1757137775 -0.897326231
vn 0.5899328589 -0.3636348248 -0.7209361196
vn 0.6758606434 -0.5542982221 -0.4857631624
vn 0.6656556129 -0.7024938464 -0.2518034875
vn 0.05071895942 -0.998708427 -0.003011960071
vn 0.6678611636 -0.2866667211 -0.6868650913
vn 0.8507890105 -0.1375379413 -0.5071897507
vn 0.9549138546 -0.1228367984 -0.2702788115
vn 0.5381204486 -0.842834115 -0.007552172057
vn 0.09914819896 -0.9950577021 -0.00545608066
vn 0.9621769786 -0.1224282682 0.2433654517
vn 0.8646759987 -0.1372101158 0.4832274616
vn 0.6869577169 -0.2861697376 0.6679790616
vn 0.003020477481 -0.9987012148 0.05086037144
vn 0.5073279142 -0.137190327 0.8507627249
vn 0.2702851892 -0.1224161386 0.9549660683
vn 0.007589925546 -0.8418385983 0.5396760106
vn 0.005471677054 -0.9950301051 0.0994239375
vn -0.2434618622 -0.1220085621 0.9622059464
vn -0.4831806421 -0.1368604749 0.8647575974
vn -0.6680640578 -0.2856883109 0.6870753765
vn -0.05091445521 -0.9986984134 0.003023551544
vn -0.8508362174 -0.1370317489 0.5072475076
vn -0.9549597502 -0.1223855391 0.2703214884
vn -0.5395885706 -0.8418948054 0.007572776172
vn -0.09947122633 -0.9950253963 0.00547384005
vn -0.9622016549 -0.122163415 -0.2434010357
vn -0.8647185564 -0.1370794773 -0.4831884503
vn -0.6869714856 -0.2861721516 -0.6679638028
vn 0.7023184896 -0.7025336027 0.1148706451
vn 0.7586301565 -0.5543726087 0.3422738016
vn 0.7210804224 -0.3635682464 0.5897975564
vn 0.5745600462 -0.1756548733 0.7993910909
vn 0.3531371057 -0.04526729882 0.9344758391
vn -0.1613943428 -0.04528617486 0.9858503938
vn -0.4048927128 -0.1755818874 0.8973476887
vn -0.5898861289 -0.3633477688 0.7211191058
vn -0.6757679582 -0.5542581081 0.4859378338
vn -0.6656392813 -0.702549696 0.2516908646
vn -0.7023186684 -0.7025277019 -0.1149055138
vn -0.7586545944 -0.5543323159 -0.3422848284
vn -0.7211056352 -0.3634847999 -0.5898181796
vn -0.574688375 -0.1756901592 -0.7992910743
vn -0.3534217477 -0.04536629841 -0.9343634248
vn 0.4831920862 -0.1373599023 -0.8646720052
vn 0.2433366328 -0.1224580631 -0.9621804953
vn 0.04111235216 0.9991518259 -0.002335163066
vn 0.6851500273 0.7025043964 -0.1925021261
vn 0.7157359719 0.5543278456 -0.4247853756
vn 0.6508969069 0.3635913134 -0.6664342284
vn 0.4819332957 0.1757213771 -0.8584068418
vn 0.24688977 0.04536278546 -0.9679812193
vn -0.001152958022 0.9997577071 -0.02198106796
vn 0.02415999584 0.9997072816 -0.001267064246
vn 0.03966686875 0.7146937251 0.6983118653
vn 0.2700546682 0.04526875168 0.9617802501
vn 0.5022236705 0.175648123 0.8467108011
vn 0.6666105986 0.3635804057 0.6507223248
vn 0.7257510424 0.5543658137 0.40738675
vn 0.6895524859 0.7025430202 0.1759279668
vn 0.001152834622 0.9997577071 0.02198118903
vn -0.04111240432 0.9991518259 0.002335152123
vn -0.6851218939 0.7025485635 0.1924409866
vn -0.7157609463 0.5542753339 0.4248118699
vn -0.6507571936 0.363324821 0.6667159796
vn -0.4819447994 0.175589487 0.8584273458
vn -0.2470309138 0.04528762773 0.9679487348
vn -0.02415972203 0.9997072816 0.001267057378
vn -0.03966265172 0.7146931291 -0.6983126998
vn -0.2701725662 0.04536428303 -0.9617426395
vn -0.5025028586 0.175683856 -0.8465376496
vn -0.666633904 0.3634969592 -0.6507450938
vn -0.7257744074 0.5543255806 -0.4073998928
vn -0.6896027923 0.702483654 -0.1759679765
vn -0.8104679585 -0.02816679142 0.5851053596
vn -0.7746602893 -0.03939464688 -0.6311493516
vn -0.6307669878 -0.05100396648 0.7742942572
vn -0.5842382312 -0.06219431385 -0.8091956377
vn -0.408425957 -0.07220680267 0.909931004
vn -0.3543798029 -0.08037073165 -0.9316412807
vn -0.1587681621 -0.08613148332 0.9835517406
vn -0.1011435762 -0.0891070962 -0.9908732772
vn 0.1011435762 -0.0891070962 0.9908732772
vn 0.1587100327 -0.0861326009 -0.983561039
vn 0.3544840813 -0.08036790788 0.931601882
vn 0.4083762169 -0.07220886648 -0.909953177
vn 0.5842775702 -0.06219160929 0.8091674447
vn 0.6308243275 -0.05099958181 -0.7742478251
vn 0.7746310234 -0.03939502686 0.6311852336
vn 0.8104537725 -0.02816704288 -0.5851250291
vn 0.9121804237 -0.01809269376 0.4093891978
vn 0.9346132874 -0.00986051932 -0.3555288315
vn 0.9872124195 -0.004040847998 0.1593590826
vn 0.9948264956 -0.001027957769 -0.1015831307
vn -0.9121893048 -0.01809198409 -0.4093694091
vn -0.9345933795 -0.0098627517 0.3555811048
vn -0.9872092009 -0.004041371401 -0.1593788266
vn -0.9948264956 -0.001027957769 0.1015831307
f 1//1 2//2 3//3 
f 3//3 2//2 4//4 
f 3//3 4//4 5//5 
f 6//6 7//7 1//1 
f 1//1 7//7 8//8 
f 1//1 8//8 9//9 
f 9//9 10//10 1//1 
f 1//1 10//10 11//11 
f 1//1 11//11 12//12 
f 12//12 11//11 13//13 
f 13//13 11//11 14//14 
f 14//14 11//11 15//15 
f 15//15 11//11 16//16 
f 15//15 16//16 17//17 
f 17//17 16//16 18//18 
f 18//18 16//16 19//19 
f 19//19 16//16 20//20 
f 19//19 20//20 21//21 
f 21//21 20//20 22//22 
f 22//22 20//20 23//23 
f 23//23 20//20 24//24 
f 23//23 24//24 25//25 
f 25//25 24//24 26//26 
f 26//26 24//24 27//27 
f 27//27 24//24 28//28 
f 27//27 28//28 29//29 
f 29//29 28//28 30//30 
f 30//30 28//28 31//31 
f 31//31 28//28 32//32 
f 31//31 32//32 33//33 
f 33//33 32//32 34//34 
f 34//34 32//32 35//35 
f 35//35 32//32 3//3 
f 35//35 3//3 5//5 
f 16//16 36//36 20//20 
f 20//20 36//36 37//37 
f 20//20 37//37 38//38 
f 38//38 39//39 20//20 
f 20//20 39//39 40//40 
f 41//41 42//42 24//24 
f 24//24 42//42 43//43 
f 24//24 43//43 44//44 
f 44//44 45//45 24//24 
f 24//24 45//45 28//28 
f 32//32 46//46 3//3 
f 3//3 46//46 47//47 
f 3//3 47//47 48//48 
f 48//48 49//49 3//3 
f 3//3 49//49 50//50 
f 12//12 51//51 1//1 
f 1//1 51//51 52//52 
f 1//1 52//52 2//2 
f 53//53 11//11 54//54 
f 54//54 11//11 10//10 
f 54//54 10//10 55//55 
f 55//55 10//10 9//9 
f 55//55 9//9 56//56 
f 56//56 9//9 8//8 
f 56//56 8//8 57//57 
f 57//57 8//8 7//7 
f 57//57 7//7 58//58 
f 58//58 7//7 6//6 
f 58//58 6//6 59//59 
f 59//59 6//6 1//1 
f 60//60 16//16 53//53 
f 53//53 16//16 11//11 
f 61//61 20//20 62//62 
f 62//62 20//20 40//40 
f 62//62 40//40 63//63 
f 63//63 40//40 39//39 
f 63//63 39//39 64//64 
f 64//64 39//39 38//38 
f 64//64 38//38 65//65 
f 65//65 38//38 37//37 
f 65//65 37//37 66//66 
f 66//66 37//37 36//36 
f 66//66 36//36 60//60 
f 60//60 36//36 16//16 
f 67//67 24//24 61//61 
f 61//61 24//24 20//20 
f 68//68 28//28 69//69 
f 69//69 28//28 45//45 
f 69//69 45//45 70//70 
f 70//70 45//45 44//44 
f 70//70 44//44 71//71 
f 71//71 44//44 43//43 
f 71//71 43//43 72//72 
f 72//72 43//43 42//42 
f 72//72 42//42 73//73 
f 73//73 42//42 41//41 
f 73//73 41//41 67//67 
f 67//67 41//41 24//24 
f 74//74 32//32 68//68 
f 68//68 32//32 28//28 
f 59//59 1//1 75//75 
f 75//75 1//1 3//3 
f 76//76 77//77 75//75 
f 75//75 77//77 78//78 
f 75//75 78//78 79//79 
f 79//79 80//80 75//75 
f 75//75 80//80 74//74 
f 75//75 74//74 59//59 
f 59//59 74//74 68//68 
f 59//59 68//68 53//53 
f 53//53 68//68 67//67 
f 53//53 67//67 60//60 
f 60//60 67//67 61//61 
f 60//60 61//61 66//66 
f 66//66 61//61 65//65 
f 65//65 61//61 64//64 
f 64//64 61//61 63//63 
f 63//63 61//61 62//62 
f 68//68 69//69 67//67 
f 67//67 69//69 70//70 
f 67//67 70//70 71//71 
f 71//71 72//72 67//67 
f 67//67 72//72 73//73 
f 53//53 54//54 59//59 
f 59//59 54//54 55//55 
f 59//59 55//55 56//56 
f 56//56 57//57 59//59 
f 59//59 57//57 58//58 
f 75//75 3//3 76//76 
f 76//76 3//3 50//50 
f 76//76 50//50 77//77 
f 77//77 50//50 49//49 
f 77//77 49//49 78//78 
f 78//78 49//49 48//48 
f 78//78 48//48 79//79 
f 79//79 48//48 47//47 
f 79//79 47//47 80//80 
f 80//80 47//47 46//46 
f 80//80 46//46 74//74 
f 74//74 46//46 32//32 
f 81//81 82//82 83//83 
f 83//83 82//82 84//84 
f 83//83 84//84 85//85 
f 85//85 84//84 86//86 
f 85//85 86//86 87//87 
f 87//87 86//86 88//88 
f 87//87 88//88 89//89 
f 89//89 88//88 90//90 
f 89//89 90//90 91//91 
f 91//91 90//90 92//92 
f 91//91 92//92 93//93 
f 93//93 92//92 94//94 
f 93//93 94//94 95//95 
f 95//95 94//94 96//96 
f 95//95 96//96 97//97 
f 97//97 96//96 98//98 
f 97//97 98//98 99//99 
f 99//99 98//98 100//100 
f 82//82 81//81 101//101 
f 101//101 81//81 102//102 
f 101//101 102//102 103//103 
f 103//103 102//102 104//104 
f 27//27 83//83 26//26 
f 26//26 83//83 85//85 
f 26//26 85//85 25//25 
f 25//25 85//85 87//87 
f 25//25 87//87 23//23 
f 23//23 87//87 89//89 
f 23//23 89//89 22//22 
f 22//22 89//89 91//91 
f 22//22 91//91 21//21 
f 21//21 91//91 93//93 
f 21//21 93//93 19//19 
f 19//19 93//93 95//95 
f 19//19 95//95 18//18 
f 18//18 95//95 97//97 
f 18//18 97//97 17//17 
f 17//17 97//97 99//99 
f 17//17 99//99 15//15 
f 15//15 99//99 100//100 
f 15//15 100//100 14//14 
f 14//14 100//100 98//98 
f 14//14 98//98 13//13 
f 13//13 98//98 96//96 
f 13//13 96//96 12//12 
f 12//12 96//96 94//94 
f 12//12 94//94 51//51 
f 51//51 94//94 92//92 
f 51//51 92//92 52//52 
f 52//52 92//92 90//90 
f 52//52 90//90 2//2 
f 2//2 90//90 88//88 
f 2//2 88//88 4//4 
f 4//4 88//88 86//86 
f 4//4 86//86 5//5 
f 5//5 86//86 84//84 
f 5//5 84//84 35//35 
f 35//35 84//84 82//82 
f 35//35 82//82 34//34 
f 34//34 82//82 101//101 
f 34//34 101//101 33//33 
f 33//33 101//101 103//103 
f 33//33 103//103 31//31 
f 31//31 103//103 104//104 
f 31//31 104//104 30//30 
f 30//30 104//104 102//102 
f 30//30 102//102 29//29 
f 29//29 102//102 81//81 
f 29//29 81//81 27//27 
f 27//27 81//81 83//83 
