v -3.861848116 24.7818222 92.77908325
v -2.701762438 24.7818222 91.98722076
v -4.012813568 24.7818222 92.78116608
v -2.701794624 24.7818222 91.83625031
v -4.012813568 24.7818222 91.04232788
v -3.711003065 24.7818222 91.05079651
v -2.712673187 24.7818222 91.68572998
v -3.560395002 24.7818222 91.06137848
v -2.732789993 24.7818222 91.53596497
v -3.26036644 24.7818222 91.09494019
v -2.748767138 24.7818222 91.46229553
v -2.772984028 24.7818222 91.39074707
v -2.712662935 24.7818222 92.13773346
v -3.560415983 24.7818222 92.76190948
v -3.410123587 24.7818222 92.74736023
v -3.110940933 24.7818222 92.7050705
v -2.807050943 24.7818222 92.49977875
v -2.772957563 24.7818222 92.43274689
v -2.748692513 24.7818222 92.3611908
v -3.038389444 24.7818222 92.68525696
v -2.969949961 24.7818222 92.65380859
v -2.907389641 24.7818222 92.61169434
v -2.852475882 24.7818222 92.55989075
v -2.732753515 24.7818222 92.2875061
v -2.807022095 24.7818222 91.3237381
v -2.852462292 24.7818222 91.26365662
v -2.907416582 24.7818222 91.21185303
v -3.111002445 24.7818222 91.11871338
v -2.969997644 24.7818222 91.16965485
v -3.038445711 24.7818222 91.13822174
v -5.312953949 24.7818222 91.68572998
v -4.314623833 24.7818222 91.05079651
v -4.615484715 24.7818222 91.07621765
v -4.914624691 24.7818222 91.11871338
v -5.218605042 24.7818222 91.3237381
v -5.252643108 24.7818222 91.39074707
v -5.27685976 24.7818222 91.46229553
v -4.987181187 24.7818222 91.13822174
v -5.05562973 24.7818222 91.16965485
v -5.118210316 24.7818222 91.21185303
v -5.173164845 24.7818222 91.26365662
v -5.292837143 24.7818222 91.53596497
v -5.323832512 24.7818222 91.83625031
v -5.312963963 24.7818222 92.13773346
v -5.292873859 24.7818222 92.2875061
v -4.163778782 24.7818222 92.77908325
v -4.465210915 24.7818222 92.76190948
v -4.615503788 24.7818222 92.74736023
v -5.276934624 24.7818222 92.3611908
v -5.252669811 24.7818222 92.43274689
v -5.323864937 24.7818222 91.98722076
v -5.218575954 24.7818222 92.49977875
v -4.914686203 24.7818222 92.7050705
v -5.173151493 24.7818222 92.55989075
v -5.118237495 24.7818222 92.61169434
v -5.055676937 24.7818222 92.65380859
v -4.98723793 24.7818222 92.68525696
v -4.314626217 24.74245644 92.77274323
v -4.163778305 24.74245644 91.04444122
v -4.012813568 24.74245644 92.78116608
v -4.012813568 24.74245644 91.04232788
v -2.701794624 24.74245644 91.83625031
v -3.711003065 24.74245644 91.05079651
v -2.712673187 24.74245644 91.68572998
v -3.410142183 24.74245644 91.07621765
v -2.732789993 24.74245644 91.53596497
v -2.748767138 24.74245644 91.46229553
v -3.26036644 24.74245644 91.09494019
v -2.772984028 24.74245644 91.39074707
v -2.807022095 24.74245644 91.3237381
v -2.852462292 24.74245644 91.26365662
v -2.907416582 24.74245644 91.21185303
v -3.111002445 24.74245644 91.11871338
v -2.969997644 24.74245644 91.16965485
v -3.038445711 24.74245644 91.13822174
v -4.615503788 24.74245644 92.74736023
v -5.292873859 24.74245644 92.2875061
v -5.312953949 24.74245644 91.68572998
v -5.292837143 24.74245644 91.53596497
v -4.465231895 24.74245644 91.06137848
v -4.615484715 24.74245644 91.07621765
v -5.27685976 24.74245644 91.46229553
v -5.252643108 24.74245644 91.39074707
v -4.914686203 24.74245644 92.7050705
v -5.218575954 24.74245644 92.49977875
v -5.252669811 24.74245644 92.43274689
v -5.276934624 24.74245644 92.3611908
v -4.98723793 24.74245644 92.68525696
v -5.055676937 24.74245644 92.65380859
v -5.118237495 24.74245644 92.61169434
v -5.173151493 24.74245644 92.55989075
v -5.312963963 24.74245644 92.13773346
v -5.323832512 24.74245644 91.83625031
v -5.323864937 24.74245644 91.98722076
v -5.218605042 24.74245644 91.3237381
v -4.914624691 24.74245644 91.11871338
v -5.173164845 24.74245644 91.26365662
v -5.118210316 24.74245644 91.21185303
v -5.05562973 24.74245644 91.16965485
v -4.987181187 24.74245644 91.13822174
v -2.701762438 24.74245644 91.98722076
v -3.711000919 24.74245644 92.77274323
v -2.712662935 24.74245644 92.13773346
v -3.560415983 24.74245644 92.76190948
v -2.732753515 24.74245644 92.2875061
v -3.260292768 24.74245644 92.72922516
v -2.748692513 24.74245644 92.3611908
v -2.772957563 24.74245644 92.43274689
v -2.807050943 24.74245644 92.49977875
v -2.852475882 24.74245644 92.55989075
v -2.907389641 24.74245644 92.61169434
v -2.969949961 24.74245644 92.65380859
v -3.110940933 24.74245644 92.7050705
v -3.038389444 24.74245644 92.68525696
v -4.163778305 24.76214027 91.04444122
v -4.314623833 24.76214027 91.05079651
v -4.465231895 24.76214027 91.06137848
v -4.615484715 24.76214027 91.07621765
v -4.765260696 24.76214027 91.09494019
v -4.914624691 24.76214027 91.11871338
v -4.987181187 24.76214027 91.13822174
v -5.05562973 24.76214027 91.16965485
v -5.118210316 24.76214027 91.21185303
v -5.173164845 24.76214027 91.26365662
v -5.218605042 24.76214027 91.3237381
v -5.252643108 24.76214027 91.39074707
v -5.27685976 24.76214027 91.46229553
v -5.292837143 24.76214027 91.53596497
v -5.312953949 24.76214027 91.68572998
v -5.323832512 24.76214027 91.83625031
v -5.323864937 24.76214027 91.98722076
v -5.312963963 24.76214027 92.13773346
v -5.292873859 24.76214027 92.2875061
v -5.276934624 24.76214027 92.3611908
v -5.252669811 24.76214027 92.43274689
v -5.218575954 24.76214027 92.49977875
v -5.173151493 24.76214027 92.55989075
v -5.118237495 24.76214027 92.61169434
v -5.055676937 24.76214027 92.65380859
v -4.98723793 24.76214027 92.68525696
v -4.914686203 24.76214027 92.7050705
v -4.765334606 24.76214027 92.72922516
v -4.615503788 24.76214027 92.74736023
v -4.465210915 24.76214027 92.76190948
v -4.163778782 24.76214027 92.77908325
v -4.314626217 24.76214027 92.77274323
v -3.861848831 24.76214027 91.04444122
v -3.711003065 24.76214027 91.05079651
v -3.560395002 24.76214027 91.06137848
v -3.410142183 24.76214027 91.07621765
v -3.26036644 24.76214027 91.09494019
v -3.111002445 24.76214027 91.11871338
v -3.038445711 24.76214027 91.13822174
v -2.969997644 24.76214027 91.16965485
v -2.907416582 24.76214027 91.21185303
v -2.852462292 24.76214027 91.26365662
v -2.807022095 24.76214027 91.3237381
v -2.772984028 24.76214027 91.39074707
v -2.748767138 24.76214027 91.46229553
v -2.732789993 24.76214027 91.53596497
v -2.712673187 24.76214027 91.68572998
v -2.701794624 24.76214027 91.83625031
v -2.701762438 24.76214027 91.98722076
v -2.712662935 24.76214027 92.13773346
v -2.732753515 24.76214027 92.2875061
v -2.748692513 24.76214027 92.3611908
v -2.772957563 24.76214027 92.43274689
v -2.807050943 24.76214027 92.49977875
v -2.852475882 24.76214027 92.55989075
v -2.907389641 24.76214027 92.61169434
v -2.969949961 24.76214027 92.65380859
v -3.038389444 24.76214027 92.68525696
v -3.110940933 24.76214027 92.7050705
v -3.260292768 24.76214027 92.72922516
v -3.410123587 24.76214027 92.74736023
v -3.560415983 24.76214027 92.76190948
v -3.711000919 24.76214027 92.77274323
v -3.861848116 24.76214027 92.77908325
vn 0.001101122005 0.9996626377 0.02595053986
vn 0.01850840077 0.999828577 0.0004432704882
vn -1.350347389e-20 0.9999936819 0.003552756272
vn 0.003122117603 0.9999951124 -0.0001505024848
vn 1.31328015e-19 0.9999884963 -0.004797930364
vn 0.001092427294 0.9996629357 -0.02593975514
vn 0.02582928911 0.9996620417 -0.002933429787
vn 0.004346356727 0.9988876581 -0.04695298895
vn 0.02241307683 0.9997410774 -0.003928166348
vn 0.006359347608 0.9987240434 -0.05009792373
vn 0.07147079706 0.9972165823 -0.02123715356
vn 0.0801281929 0.9961351752 -0.03597510606
vn 0.01728440449 0.9998493195 0.001606198144
vn 0.004387491848 0.9983172417 0.0578228794
vn 0.004393047187 0.9993736148 0.03511586413
vn 0.03046388552 0.9848877788 0.170493573
vn 0.04265157133 0.9987782836 0.02495532297
vn 0.0590152666 0.9979873896 0.02320335433
vn 0.05341762304 0.9984782934 0.01369885355
vn 0.3595632315 0.2044420838 0.9104492068
vn 0.3959350884 0.635856986 0.6625113487
vn 0.3090487719 0.8779652715 0.3656033874
vn 0.2252827734 0.9554105997 0.1908881962
vn 0.05441417918 0.9984849095 0.008181904443
vn 0.0928421393 0.9937509298 -0.06196279824
vn 0.1109333411 0.9882355928 -0.1052813232
vn 0.1112016514 0.9828571677 -0.1470576376
vn 0.08929271996 0.8646261692 -0.4944172502
vn 0.3576140404 0.6411773562 -0.6789726019
vn 0.3063648939 0.2088790685 -0.9287142158
vn -0.002500756178 0.999996841 -0.0002322874352
vn -0.002853630576 0.998706758 -0.05076114461
vn -0.004749151412 0.9991012216 -0.04212098196
vn -0.03034054115 0.9847925305 -0.1710647345
vn -0.04270377383 0.9987756014 -0.02497470379
vn -0.05899035558 0.9979899526 -0.02315506339
vn -0.0534187369 0.9984781146 -0.01370845083
vn -0.357935816 0.2087085098 -0.910122335
vn -0.394091785 0.6409137249 -0.6587269902
vn -0.307949394 0.8788895011 -0.3643081486
vn -0.2249722481 0.955504179 -0.1907860041
vn -0.05442797393 0.9984840751 -0.008197896183
vn -0.8047117591 0.5933465958 -0.01946308836
vn -0.4918445647 0.8688915968 0.05582391843
vn -0.006431546528 0.9999786615 0.001124843606
vn -0.0005238024169 0.9999236465 0.01234464161
vn -0.004429462831 0.9980231524 0.0626905933
vn -0.00794549007 0.9977528453 0.06652938575
vn -0.05289814994 0.9984760284 0.01573031582
vn -0.05774514005 0.9979936481 0.0259638615
vn -0.9821186662 0.1822237968 0.04730188474
vn -0.04113157839 0.9987767339 0.02744423598
vn -0.02486038208 0.9883457422 0.1501820087
vn -0.2143891901 0.9553562403 0.2033020705
vn -0.2885233164 0.8780331612 0.3818534613
vn -0.3595202863 0.6360189319 0.6828067303
vn -0.3091294467 0.2045423388 0.9287633896
vn -0.0003222828964 -0.9999836087 0.005715680309
vn -0.0001687368349 -0.9999919534 -0.004006663803
vn 2.871175442e-19 -0.9999768734 0.006804391742
vn 4.513861859e-05 -0.9999718666 -0.007504569832
vn 0.003125529736 -0.9999951124 -7.559204823e-05
vn 0.001855811337 -0.9994532466 -0.03301168606
vn 0.02211189456 -0.9997534156 -0.002053905046
vn 0.004410395864 -0.9990822077 -0.04260619357
vn 0.05443320796 -0.998483777 -0.008198650554
vn 0.03720977902 -0.9992618561 -0.009548827074
vn 0.0097483024 -0.9977735877 -0.06597587466
vn 0.08190446347 -0.9961215258 -0.03214956075
vn 0.09628848732 -0.9937592149 -0.05631297082
vn 0.116556704 -0.9882531166 -0.09884486347
vn 0.1190544367 -0.9828475714 -0.1408429593
vn 0.08773774654 -0.9071859717 -0.4114798903
vn 0.3941078186 -0.6408746243 -0.6587554216
vn 0.357938081 -0.2086932957 -0.9101249576
vn -0.006948520895 -0.9980316162 0.06232690811
vn -0.009771886282 -0.9999511838 0.001469316077
vn -0.003353610402 -0.999994278 -0.0003808692272
vn -0.01499982458 -0.999884069 -0.002628927119
vn -0.004409450106 -0.9980226755 -0.06270009279
vn -0.008087892085 -0.9977414608 -0.0666828081
vn -0.05290612206 -0.9984757304 -0.01572070457
vn -0.0577217862 -0.9979962707 -0.02591524832
vn -0.03046674095 -0.9848849177 0.170509547
vn -0.04265574738 -0.9987780452 0.0249578692
vn -0.0590210259 -0.9979869723 0.02320561931
vn -0.05342280865 -0.9984779954 0.01370024122
vn -0.3595654368 -0.2044272572 0.9104516506
vn -0.395950824 -0.6358197331 0.662537694
vn -0.3090729713 -0.8779441714 0.3656335473
vn -0.2253018618 -0.9554030299 0.1909034252
vn -0.4927445948 -0.8689683676 0.04579008743
vn -0.804004848 -0.5933582187 -0.03875768557
vn -0.9829829335 -0.1821819842 0.02354213782
vn -0.04118356109 -0.9987734556 -0.02748588845
vn -0.02480839007 -0.988268137 -0.1507004052
vn -0.2141458392 -0.9554249048 -0.203235805
vn -0.2876964509 -0.8789089322 -0.3804601133
vn -0.3576271832 -0.6411418319 -0.6789991856
vn -0.3063664138 -0.2088561654 -0.9287188649
vn 0.01561028138 -0.9998778701 0.0007518149214
vn 0.001101228641 -0.9996625781 0.02595305443
vn 0.02585067041 -0.9996615052 0.002934055636
vn 0.004299225751 -0.9988905191 0.04689674452
vn 0.0223533418 -0.9997425079 0.003909481689
vn 0.006183912046 -0.9987583756 0.04943116009
vn 0.07151052356 -0.9972131252 0.0212651547
vn 0.08025370538 -0.9961211085 0.0360840708
vn 0.09300765395 -0.9937295318 0.06205775961
vn 0.1111538112 -0.9881976247 0.1054055095
vn 0.1349571049 -0.9746201634 0.1786116809
vn 0.1538072973 -0.9439345598 0.292114377
vn 0.1480864584 -0.5716267824 0.8070397973
vn 0.3091309369 -0.2045197487 0.9287678599
vn -0.02602882683 0.03078546375 -0.9991870522
vn -0.05606080592 -0.03582270071 -0.9977844954
vn -0.08616726846 0.03099107184 -0.9957985282
vn -0.1111682504 2.684471079e-17 -0.9938015938
vn -0.1406475604 8.203911803e-17 -0.9900597334
vn -0.2012062669 0 -0.9795488715
vn -0.3397813439 3.676808228e-17 -0.9405044317
vn -0.4898954332 7.350142958e-17 -0.87178123
vn -0.6245894432 1.10409891e-16 -0.7809532881
vn -0.7442926168 3.631162106e-19 -0.6678536534
vn -0.8478589058 -7.356756433e-17 -0.5302218795
vn -0.9218385816 3.687782598e-17 -0.3875740767
vn -0.9637646675 7.342874357e-17 -0.2667539716
vn -0.9872020483 2.439394338e-17 -0.1594746262
vn -0.9947150946 0 -0.1026737168
vn -0.9993457794 6.994489333e-20 -0.03616586328
vn -0.9993507862 1.796142795e-17 0.03602745384
vn -0.9947164655 1.787954865e-17 0.1026606336
vn -0.9872494936 0 0.1591806114
vn -0.9637578726 -3.680208602e-17 0.2667784095
vn -0.9216210246 -3.688247805e-17 0.3880910873
vn -0.8478374481 -3.678161826e-17 0.5302562118
vn -0.7445673943 7.381208553e-17 0.6675472856
vn -0.6244434118 7.370044262e-17 0.7810700536
vn -0.4896298051 -7.346833574e-17 0.8719304204
vn -0.3416979313 -1.842327762e-17 0.9398098588
vn -0.2042723 1.563074234e-17 0.9789140821
vn -0.1399597079 -5.4690373e-17 0.990157187
vn -0.108262755 -2.684899228e-17 0.9941223264
vn -0.08578998595 -0.02703917958 0.9959462881
vn -0.02587012574 -0.03089531139 0.9991877675
vn -0.05684038997 0.03808883578 0.9976564646
vn 0.02804838121 1.118748279e-16 -0.9996065497
vn 0.05889622122 -3.220882817e-17 -0.9982641339
vn 0.0841396302 -0.03614929691 -0.9957980514
vn 0.1111073866 0.03311036527 -0.9932566881
vn 0.1406474113 3.574420804e-17 -0.9900597334
vn 0.191424191 0 -0.9815074205
vn 0.3397792876 -1.847196713e-17 -0.9405052066
vn 0.4898931086 -3.667580531e-17 -0.8717824817
vn 0.6245865822 3.681667748e-17 -0.7809555531
vn 0.7442916036 7.353918872e-17 -0.6678547859
vn 0.8478574157 7.356756433e-17 -0.5302243233
vn 0.9218370914 0 -0.3875775933
vn 0.9637641907 0 -0.2667557299
vn 0.9872019887 0 -0.1594747454
vn 0.9947149754 0 -0.1026747003
vn 0.9993457794 0 -0.0361662358
vn 0.9993508458 3.49735388e-20 0.03602549434
vn 0.9947165251 0 0.1026596501
vn 0.9872494936 1.219839775e-17 0.1591805071
vn 0.963758409 1.832113405e-17 0.2667766511
vn 0.9216224551 3.344869467e-19 0.3880876005
vn 0.8478389382 -1.102117118e-16 0.530253768
vn 0.7445684075 -1.46926388e-16 0.6675461531
vn 0.6244470477 -7.334867693e-20 0.7810671329
vn 0.4896314144 3.668867955e-17 0.8719295263
vn 0.3416998982 3.674280364e-17 0.9398091435
vn 0.204273209 0 0.9789139032
vn 0.1426439583 0.04369708523 0.9888089895
vn 0.1065258533 -0.026225226 0.9939640164
vn 0.08406464756 7.346859873e-21 0.9964603186
vn 0.05897660553 0.03265338391 0.9977251887
vn 0.02587011829 -0.03089540079 0.9991877675
f 1//1 2//2 3//3 
f 3//3 2//2 4//4 
f 3//3 4//4 5//5 
f 5//5 4//4 6//6 
f 6//6 4//4 7//7 
f 6//6 7//7 8//8 
f 8//8 7//7 9//9 
f 8//8 9//9 10//10 
f 10//10 9//9 11//11 
f 10//10 11//11 12//12 
f 2//2 1//1 13//13 
f 13//13 1//1 14//14 
f 13//13 14//14 15//15 
f 16//16 17//17 15//15 
f 15//15 17//17 18//18 
f 15//15 18//18 19//19 
f 20//20 21//21 16//16 
f 16//16 21//21 22//22 
f 16//16 22//22 23//23 
f 23//23 17//17 16//16 
f 19//19 24//24 15//15 
f 15//15 24//24 13//13 
f 12//12 25//25 10//10 
f 10//10 25//25 26//26 
f 10//10 26//26 27//27 
f 10//10 27//27 28//28 
f 28//28 27//27 29//29 
f 28//28 29//29 30//30 
f 3//3 5//5 31//31 
f 31//31 5//5 32//32 
f 31//31 32//32 33//33 
f 34//34 35//35 33//33 
f 33//33 35//35 36//36 
f 33//33 36//36 37//37 
f 38//38 39//39 34//34 
f 34//34 39//39 40//40 
f 34//34 40//40 41//41 
f 41//41 35//35 34//34 
f 37//37 42//42 33//33 
f 33//33 42//42 31//31 
f 43//43 44//44 31//31 
f 31//31 44//44 45//45 
f 31//31 45//45 46//46 
f 46//46 45//45 47//47 
f 47//47 45//45 48//48 
f 48//48 45//45 49//49 
f 48//48 49//49 50//50 
f 43//43 51//51 44//44 
f 50//50 52//52 48//48 
f 48//48 52//52 53//53 
f 53//53 52//52 54//54 
f 53//53 54//54 55//55 
f 55//55 56//56 53//53 
f 53//53 56//56 57//57 
f 46//46 3//3 31//31 
f 58//58 59//59 60//60 
f 60//60 59//59 61//61 
f 60//60 61//61 62//62 
f 62//62 61//61 63//63 
f 62//62 63//63 64//64 
f 64//64 63//63 65//65 
f 64//64 65//65 66//66 
f 66//66 65//65 67//67 
f 67//67 65//65 68//68 
f 67//67 68//68 69//69 
f 69//69 68//68 70//70 
f 70//70 68//68 71//71 
f 71//71 68//68 72//72 
f 72//72 68//68 73//73 
f 72//72 73//73 74//74 
f 74//74 73//73 75//75 
f 76//76 77//77 58//58 
f 58//58 77//77 78//78 
f 58//58 78//78 59//59 
f 59//59 78//78 79//79 
f 59//59 79//79 80//80 
f 80//80 79//79 81//81 
f 81//81 79//79 82//82 
f 81//81 82//82 83//83 
f 84//84 85//85 76//76 
f 76//76 85//85 86//86 
f 76//76 86//86 87//87 
f 88//88 89//89 84//84 
f 84//84 89//89 90//90 
f 84//84 90//90 91//91 
f 91//91 85//85 84//84 
f 87//87 77//77 76//76 
f 77//77 92//92 78//78 
f 78//78 92//92 93//93 
f 93//93 92//92 94//94 
f 83//83 95//95 81//81 
f 81//81 95//95 96//96 
f 96//96 95//95 97//97 
f 96//96 97//97 98//98 
f 98//98 99//99 96//96 
f 96//96 99//99 100//100 
f 62//62 101//101 60//60 
f 60//60 101//101 102//102 
f 102//102 101//101 103//103 
f 102//102 103//103 104//104 
f 104//104 103//103 105//105 
f 104//104 105//105 106//106 
f 106//106 105//105 107//107 
f 106//106 107//107 108//108 
f 108//108 109//109 106//106 
f 106//106 109//109 110//110 
f 106//106 110//110 111//111 
f 111//111 112//112 106//106 
f 106//106 112//112 113//113 
f 113//113 112//112 114//114 
f 5//5 61//61 115//115 
f 115//115 61//61 59//59 
f 115//115 59//59 116//116 
f 116//116 59//59 80//80 
f 116//116 80//80 117//117 
f 117//117 80//80 81//81 
f 117//117 81//81 118//118 
f 118//118 81//81 119//119 
f 118//118 119//119 33//33 
f 33//33 119//119 34//34 
f 34//34 119//119 120//120 
f 34//34 120//120 121//121 
f 121//121 120//120 100//100 
f 121//121 100//100 99//99 
f 81//81 96//96 119//119 
f 119//119 96//96 120//120 
f 96//96 100//100 120//120 
f 121//121 99//99 122//122 
f 122//122 99//99 98//98 
f 122//122 98//98 123//123 
f 123//123 98//98 97//97 
f 123//123 97//97 124//124 
f 124//124 97//97 95//95 
f 124//124 95//95 125//125 
f 125//125 95//95 83//83 
f 125//125 83//83 126//126 
f 126//126 83//83 82//82 
f 126//126 82//82 127//127 
f 127//127 82//82 79//79 
f 127//127 79//79 128//128 
f 128//128 79//79 78//78 
f 128//128 78//78 129//129 
f 129//129 78//78 93//93 
f 129//129 93//93 130//130 
f 130//130 93//93 94//94 
f 130//130 94//94 131//131 
f 131//131 94//94 92//92 
f 131//131 92//92 132//132 
f 132//132 92//92 77//77 
f 132//132 77//77 133//133 
f 133//133 77//77 87//87 
f 133//133 87//87 134//134 
f 134//134 87//87 86//86 
f 134//134 86//86 135//135 
f 135//135 86//86 85//85 
f 135//135 85//85 136//136 
f 136//136 85//85 91//91 
f 136//136 91//91 137//137 
f 137//137 91//91 90//90 
f 137//137 90//90 138//138 
f 138//138 90//90 89//89 
f 138//138 89//89 139//139 
f 139//139 89//89 88//88 
f 139//139 88//88 140//140 
f 140//140 88//88 84//84 
f 140//140 84//84 141//141 
f 141//141 84//84 142//142 
f 141//141 142//142 53//53 
f 53//53 142//142 48//48 
f 48//48 142//142 143//143 
f 48//48 143//143 144//144 
f 144//144 143//143 76//76 
f 144//144 76//76 58//58 
f 84//84 76//76 142//142 
f 142//142 76//76 143//143 
f 60//60 145//145 58//58 
f 58//58 145//145 146//146 
f 58//58 146//146 144//144 
f 144//144 146//146 47//47 
f 144//144 47//47 48//48 
f 60//60 3//3 145//145 
f 145//145 3//3 46//46 
f 145//145 46//46 146//146 
f 146//146 46//46 47//47 
f 53//53 57//57 141//141 
f 141//141 57//57 140//140 
f 57//57 56//56 140//140 
f 140//140 56//56 139//139 
f 56//56 55//55 139//139 
f 139//139 55//55 138//138 
f 55//55 54//54 138//138 
f 138//138 54//54 137//137 
f 54//54 52//52 137//137 
f 137//137 52//52 136//136 
f 52//52 50//50 136//136 
f 136//136 50//50 135//135 
f 50//50 49//49 135//135 
f 135//135 49//49 134//134 
f 49//49 45//45 134//134 
f 134//134 45//45 133//133 
f 45//45 44//44 133//133 
f 133//133 44//44 132//132 
f 44//44 51//51 132//132 
f 132//132 51//51 131//131 
f 51//51 43//43 131//131 
f 131//131 43//43 130//130 
f 43//43 31//31 130//130 
f 130//130 31//31 129//129 
f 31//31 42//42 129//129 
f 129//129 42//42 128//128 
f 42//42 37//37 128//128 
f 128//128 37//37 127//127 
f 37//37 36//36 127//127 
f 127//127 36//36 126//126 
f 36//36 35//35 126//126 
f 126//126 35//35 125//125 
f 35//35 41//41 125//125 
f 125//125 41//41 124//124 
f 41//41 40//40 124//124 
f 124//124 40//40 123//123 
f 40//40 39//39 123//123 
f 123//123 39//39 122//122 
f 39//39 38//38 122//122 
f 122//122 38//38 121//121 
f 38//38 34//34 121//121 
f 118//118 33//33 117//117 
f 117//117 33//33 32//32 
f 117//117 32//32 116//116 
f 116//116 32//32 115//115 
f 32//32 5//5 115//115 
f 63//63 61//61 147//147 
f 147//147 61//61 5//5 
f 147//147 5//5 6//6 
f 147//147 6//6 148//148 
f 148//148 6//6 8//8 
f 148//148 8//8 149//149 
f 149//149 8//8 150//150 
f 149//149 150//150 65//65 
f 65//65 150//150 151//151 
f 65//65 151//151 68//68 
f 68//68 151//151 152//152 
f 68//68 152//152 73//73 
f 73//73 152//152 153//153 
f 73//73 153//153 75//75 
f 75//75 153//153 154//154 
f 75//75 154//154 74//74 
f 74//74 154//154 155//155 
f 74//74 155//155 72//72 
f 72//72 155//155 156//156 
f 72//72 156//156 71//71 
f 71//71 156//156 157//157 
f 71//71 157//157 70//70 
f 70//70 157//157 158//158 
f 70//70 158//158 69//69 
f 69//69 158//158 159//159 
f 69//69 159//159 67//67 
f 67//67 159//159 160//160 
f 67//67 160//160 66//66 
f 66//66 160//160 161//161 
f 66//66 161//161 64//64 
f 64//64 161//161 162//162 
f 64//64 162//162 62//62 
f 62//62 162//162 163//163 
f 62//62 163//163 101//101 
f 101//101 163//163 164//164 
f 101//101 164//164 103//103 
f 103//103 164//164 165//165 
f 103//103 165//165 105//105 
f 105//105 165//165 166//166 
f 105//105 166//166 107//107 
f 107//107 166//166 167//167 
f 107//107 167//167 108//108 
f 108//108 167//167 168//168 
f 108//108 168//168 109//109 
f 109//109 168//168 169//169 
f 109//109 169//169 110//110 
f 110//110 169//169 170//170 
f 110//110 170//170 111//111 
f 111//111 170//170 171//171 
f 111//111 171//171 112//112 
f 112//112 171//171 172//172 
f 112//112 172//172 114//114 
f 114//114 172//172 173//173 
f 114//114 173//173 113//113 
f 113//113 173//173 174//174 
f 113//113 174//174 106//106 
f 106//106 174//174 175//175 
f 106//106 175//175 104//104 
f 104//104 175//175 176//176 
f 104//104 176//176 177//177 
f 177//177 176//176 14//14 
f 177//177 14//14 1//1 
f 8//8 10//10 150//150 
f 150//150 10//10 151//151 
f 10//10 28//28 151//151 
f 151//151 28//28 152//152 
f 28//28 30//30 152//152 
f 152//152 30//30 153//153 
f 30//30 29//29 153//153 
f 153//153 29//29 154//154 
f 29//29 27//27 154//154 
f 154//154 27//27 155//155 
f 27//27 26//26 155//155 
f 155//155 26//26 156//156 
f 26//26 25//25 156//156 
f 156//156 25//25 157//157 
f 25//25 12//12 157//157 
f 157//157 12//12 158//158 
f 12//12 11//11 158//158 
f 158//158 11//11 159//159 
f 11//11 9//9 159//159 
f 159//159 9//9 160//160 
f 9//9 7//7 160//160 
f 160//160 7//7 161//161 
f 7//7 4//4 161//161 
f 161//161 4//4 162//162 
f 4//4 2//2 162//162 
f 162//162 2//2 163//163 
f 2//2 13//13 163//163 
f 163//163 13//13 164//164 
f 13//13 24//24 164//164 
f 164//164 24//24 165//165 
f 24//24 19//19 165//165 
f 165//165 19//19 166//166 
f 19//19 18//18 166//166 
f 166//166 18//18 167//167 
f 18//18 17//17 167//167 
f 167//167 17//17 168//168 
f 17//17 23//23 168//168 
f 168//168 23//23 169//169 
f 23//23 22//22 169//169 
f 169//169 22//22 170//170 
f 22//22 21//21 170//170 
f 170//170 21//21 171//171 
f 21//21 20//20 171//171 
f 171//171 20//20 172//172 
f 20//20 16//16 172//172 
f 172//172 16//16 173//173 
f 173//173 16//16 174//174 
f 174//174 16//16 15//15 
f 174//174 15//15 175//175 
f 175//175 15//15 14//14 
f 175//175 14//14 176//176 
f 177//177 1//1 178//178 
f 178//178 1//1 3//3 
f 178//178 3//3 60//60 
f 60//60 102//102 178//178 
f 178//178 102//102 177//177 
f 102//102 104//104 177//177 
f 65//65 63//63 149//149 
f 149//149 63//63 148//148 
f 148//148 63//63 147//147 
