v 63.67485046 1.833333373 242.9433136
v 63.67485046 1.833333373 248.3599854
v 63.7165184 1.833333373 242.9433136
v 63.7165184 1.833333373 248.3599854
v 63.7165184 -4.605911732 242.9433136
v 63.7165184 -4.605911732 248.3599854
v 62.42485046 1.833333373 248.3599854
v 62.42485046 1.833333373 242.9433136
v 62.38318634 1.833333373 248.3599854
v 62.38318634 1.833333373 242.9433136
v 62.38318634 -4.605911732 248.3599854
v 62.38318634 -4.605911732 242.9433136
v 62.38318634 2.125 242.9433136
v 62.38318634 2.125 248.3599854
v 62.4665184 2.208333254 242.9433136
v 62.4665184 2.208333254 248.3599854
v 63.63318634 2.208333254 242.9433136
v 63.63318634 2.208333254 248.3599854
v 63.7165184 2.125 242.9433136
v 63.7165184 2.125 248.3599854
v 63.7165184 1.875 242.9433136
v 63.7165184 1.875 248.3599854
v 63.67485046 1.875 242.9433136
v 63.67485046 1.875 248.3599854
v 62.42485046 1.875 242.9433136
v 62.42485046 1.875 248.3599854
v 62.38318634 1.875 242.9433136
v 62.38318634 1.875 248.3599854
vn 0.01266959496 0.01266999356 -0.9998394847
vn 0.02532699518 0.02532779239 0.9993582964
vn 0.9999716878 0.006470751949 -0.003846158739
vn 0.9999494553 0.006470608525 0.007692146581
vn 0.950308919 -0.1967741996 -0.2412320375
vn 0.9717513919 -0.2012141496 0.1233375594
vn -0.02566569671 0.02566415444 0.9993410707
vn -0.05123025924 0.05122718215 -0.9973721504
vn -0.9999716878 0.006470159627 0.003845806466
vn -0.9999495149 0.006470016204 -0.007691442501
vn -0.8846696019 -0.1831827015 0.4287234545
vn -0.9527751207 -0.1972848624 -0.2308641821
vn -0.9699745774 0.2424900085 -0.01865271665
vn -0.9701011777 0.2425216436 0.009327575564
vn -0.1230295673 0.9842365384 -0.1270516515
vn -0.03437525779 0.9968839288 0.07099810988
vn 0.03444066271 0.9987807274 -0.03536791354
vn 0.1237839535 0.9902716279 0.06355830282
vn 0.9701011777 0.2425216436 -0.009327916428
vn 0.9699745774 0.2424899936 0.01865339838
vn 0.9863647223 -0.1643991321 -0.007587645203
vn 0.9863860011 -0.1644026786 0.003793904558
vn 0.705945313 -0.7059674859 -0.05701865256
vn 0.7025275826 -0.702549696 0.1134852096
vn -0.7025595903 -0.7025173903 -0.1134869233
vn -0.7059775591 -0.7059351802 0.05701951683
vn -0.9863884449 -0.1643880457 -0.003793566721
vn -0.986367166 -0.1643844992 0.007586969528
f 1//1 2//2 3//3 
f 3//3 2//2 4//4 
f 5//5 3//3 6//6 
f 6//6 3//3 4//4 
f 7//7 8//8 9//9 
f 9//9 8//8 10//10 
f 11//11 12//12 6//6 
f 6//6 12//12 5//5 
f 11//11 9//9 12//12 
f 12//12 9//9 10//10 
f 13//13 14//14 15//15 
f 15//15 14//14 16//16 
f 15//15 16//16 17//17 
f 17//17 16//16 18//18 
f 17//17 18//18 19//19 
f 19//19 18//18 20//20 
f 21//21 19//19 22//22 
f 22//22 19//19 20//20 
f 1//1 23//23 2//2 
f 2//2 23//23 24//24 
f 25//25 26//26 27//27 
f 27//27 26//26 28//28 
f 25//25 8//8 26//26 
f 26//26 8//8 7//7 
f 25//25 15//15 8//8 
f 8//8 15//15 1//1 
f 8//8 1//1 12//12 
f 12//12 1//1 5//5 
f 5//5 1//1 3//3 
f 27//27 13//13 25//25 
f 25//25 13//13 15//15 
f 15//15 17//17 1//1 
f 1//1 17//17 23//23 
f 23//23 17//17 19//19 
f 23//23 19//19 21//21 
f 12//12 10//10 8//8 
f 13//13 27//27 14//14 
f 14//14 27//27 28//28 
f 24//24 18//18 2//2 
f 2//2 18//18 16//16 
f 2//2 16//16 7//7 
f 7//7 16//16 26//26 
f 26//26 16//16 14//14 
f 26//26 14//14 28//28 
f 22//22 20//20 24//24 
f 24//24 20//20 18//18 
f 9//9 11//11 7//7 
f 7//7 11//11 2//2 
f 11//11 6//6 2//2 
f 2//2 6//6 4//4 
f 21//21 22//22 23//23 
f 23//23 22//22 24//24 
