v -66.37963104 46.45819855 -95.56860352
v -66.37963104 39.04166794 -95.56860352
v -66.2984314 46.45819855 -95.58734894
v -66.2984314 39.04166794 -95.58734894
v -67.06695557 39.04166794 -98.91618347
v -67.06695557 46.45819855 -98.91618347
v -67.14815521 46.45819855 -98.89743805
v -67.14815521 39.04166794 -98.89743805
vn -0.9714927673 0.01123488043 0.236802876
vn -0.9620088339 -0.02244049311 0.2720945179
vn 0.9841118455 0.01122237928 -0.1771945953
vn 0.9770254493 -0.005617707968 -0.2130486667
vn 0.9620088339 -0.02244049311 -0.2720945179
vn 0.9714927673 0.01123488043 -0.236802876
vn -0.9841118455 0.01122237928 0.1771945953
vn -0.9770254493 -0.005617707968 0.2130486667
f 1//1 2//2 3//3 
f 3//3 2//2 4//4 
f 5//5 6//6 4//4 
f 4//4 6//6 3//3 
f 7//7 1//1 6//6 
f 6//6 1//1 3//3 
f 8//8 5//5 2//2 
f 2//2 5//5 4//4 
f 2//2 1//1 8//8 
f 8//8 1//1 7//7 
f 8//8 7//7 5//5 
f 5//5 7//7 6//6 
