v -20.86681557 37.25 -118.0566788
v -20.86681557 23.75 -118.0566788
v -20.74181557 37.25 -118.0566788
v -20.74181557 23.75 -118.0566788
v -20.86681557 23.75 -127.3900146
v -20.86681557 37.25 -127.3900146
v -20.74181557 23.75 -127.3900146
v -20.74181557 37.25 -127.3900146
vn -0.9999347329 0.0092586549 0.006695989519
vn -0.9995986223 -0.009255543351 0.02677495591
vn 0.9995986223 0.009255543351 0.02677495591
vn 0.9999347329 -0.0092586549 0.006695989519
vn -0.9999347329 -0.0092586549 -0.006695989519
vn -0.9995986223 0.009255543351 -0.02677495591
vn 0.9995986223 -0.009255543351 -0.02677495591
vn 0.9999347329 0.0092586549 -0.006695989519
f 1//1 2//2 3//3 
f 3//3 2//2 4//4 
f 2//2 1//1 5//5 
f 5//5 1//1 6//6 
f 2//2 5//5 4//4 
f 4//4 5//5 7//7 
f 6//6 1//1 8//8 
f 8//8 1//1 3//3 
f 7//7 8//8 4//4 
f 4//4 8//8 3//3 
f 5//5 6//6 7//7 
f 7//7 6//6 8//8 
