v -60.65939713 19.578125 -149.9864197
v -60.65939713 19.5 -149.9864197
v -59.23680115 19.578125 -152.7784271
v -59.23680115 19.5 -152.7784271
v -60.54801941 19.578125 -149.9296722
v -59.12542725 19.578125 -152.7216644
v -60.54801941 19.5 -149.9296722
v -59.12542725 19.5 -152.7216644
v -59.95401764 19.5 -149.6270142
v -58.53142166 19.5 -152.4190063
v -59.95401764 19.75 -149.6270142
v -58.53142166 19.75 -152.4190063
v -60.70580292 19.75 -150.0100708
v -59.28320694 19.75 -152.802063
v -60.70580292 19.70833397 -150.0100708
v -59.28320694 19.70833397 -152.802063
v -59.29249191 19.5 -152.8067932
v -59.29249191 19.70833397 -152.8067932
v -60.71508408 19.70833397 -150.014801
v -60.71508408 19.5 -150.014801
vn 0.4360114038 -0.8455029726 0.3082511723
vn 0.6922010183 -0.6246788502 0.3614333868
vn 0.4893279672 -0.847376287 0.2061834335
vn 0.7027496099 -0.6246128678 0.3405903578
vn -0.602989018 -0.7923522592 0.09263948351
vn -0.1001812369 -0.674298346 -0.7316320539
vn -0.1149123609 -0.9928990602 -0.03076770157
vn -0.09807690978 -0.9931272864 -0.06386750191
vn 0.2902491391 -0.935205698 0.2028440833
vn 0.3556597233 -0.9318609834 0.07170263678
vn 0.1032941118 0.9874460697 0.1195014045
vn 0.4986901581 0.855692029 0.1382001042
vn -0.09357246011 0.9950711131 -0.03282786533
vn -0.01897527836 0.9996732473 -0.01712768525
vn -0.8635618091 0.2913797498 0.4115322828
vn -0.4962160289 0.1042129993 -0.8619218469
vn -0.8473930955 -0.2873246968 -0.4465080202
vn -0.8764235377 0.0994990468 -0.4711494148
vn -0.8956716061 0.02499148995 -0.4440133572
vn -0.8650547862 -0.2872569263 -0.4112951458
f 1//1 2//2 3//3 
f 3//3 2//2 4//4 
f 1//1 3//3 5//5 
f 5//5 3//3 6//6 
f 7//7 5//5 8//8 
f 8//8 5//5 6//6 
f 7//7 8//8 9//9 
f 9//9 8//8 10//10 
f 11//11 9//9 12//12 
f 12//12 9//9 10//10 
f 13//13 11//11 14//14 
f 14//14 11//11 12//12 
f 15//15 13//13 16//16 
f 16//16 13//13 14//14 
f 4//4 17//17 3//3 
f 3//3 17//17 18//18 
f 3//3 18//18 16//16 
f 14//14 12//12 16//16 
f 16//16 12//12 6//6 
f 16//16 6//6 3//3 
f 12//12 10//10 6//6 
f 6//6 10//10 8//8 
f 19//19 15//15 18//18 
f 18//18 15//15 16//16 
f 20//20 17//17 2//2 
f 2//2 17//17 4//4 
f 2//2 1//1 20//20 
f 20//20 1//1 19//19 
f 19//19 1//1 15//15 
f 15//15 1//1 5//5 
f 15//15 5//5 11//11 
f 11//11 5//5 9//9 
f 9//9 5//5 7//7 
f 11//11 13//13 15//15 
f 20//20 19//19 17//17 
f 17//17 19//19 18//18 
