v -33.90122223 17.75 142.6099854
v -33.90122223 0.1666666716 142.6099854
v -33.23455429 17.75 142.6099854
v -33.23455429 0.1666666716 142.6099854
v -33.90122223 0.1666666716 140.5266571
v -33.90122223 17.75 140.5266571
v -33.23455429 0.1666666716 140.5266571
v -33.23455429 17.75 140.5266571
vn -0.9867492318 0.03741236404 0.1578805596
vn -0.8418411613 -0.03191820905 0.5387806892
vn 0.8418411613 0.03191820905 0.5387806892
vn 0.9867492318 -0.03741236404 0.1578805596
vn -0.9867492318 -0.03741236404 -0.1578805596
vn -0.8418411613 0.03191820905 -0.5387806892
vn 0.8418411613 -0.03191820905 -0.5387806892
vn 0.9867492318 0.03741236404 -0.1578805596
f 1//1 2//2 3//3 
f 3//3 2//2 4//4 
f 2//2 1//1 5//5 
f 5//5 1//1 6//6 
f 2//2 5//5 4//4 
f 4//4 5//5 7//7 
f 6//6 1//1 8//8 
f 8//8 1//1 3//3 
f 7//7 8//8 4//4 
f 4//4 8//8 3//3 
f 5//5 6//6 7//7 
f 7//7 6//6 8//8 
