v -62.28853226 38.75 -79.79276276
v -62.28853226 46.75 -79.79276276
v -62.79644012 38.75 -79.67550659
v -62.79644012 46.75 -79.67550659
v -62.81437302 46.75 -79.75511932
v -62.81437302 38.75 -79.75511932
v -62.80409622 46.75 -79.72967529
v -62.80409622 38.75 -79.72967529
v -62.79806519 38.75 -79.70290375
v -62.79806519 46.75 -79.70290375
v -62.35417175 46.75 -80.0770874
v -62.86165619 46.75 -79.95992279
v -62.86165619 38.75 -79.95992279
v -62.35417175 38.75 -80.0770874
vn 0.8755213618 -0.04842676222 0.4807464778
vn 0.4789560437 0.03502254188 0.8771399856
vn 0.199473545 -0.001698167296 0.979901731
vn 0.1212938204 0.003423977643 0.9926107526
vn -0.9715928435 0.03440383449 0.234144628
vn -0.9649266005 -0.05813539401 0.2560018301
vn -0.9540432692 0.03191675991 0.2979642749
vn -0.9525888562 -0.06373620033 0.2975100279
vn -0.9896422625 -0.03230151907 0.1398740858
vn -0.988097012 0.06450216472 0.1396556944
vn 0.5770187974 0.02427985705 -0.8163698912
vn -0.4130425751 0.03074013814 -0.9101927876
vn -0.786088109 -0.04877032712 -0.6161873937
vn 0.04620943218 -0.01755899191 -0.9987774491
f 1//1 2//2 3//3 
f 3//3 2//2 4//4 
f 5//5 6//6 7//7 
f 7//7 6//6 8//8 
f 7//7 8//8 9//9 
f 3//3 4//4 9//9 
f 9//9 4//4 10//10 
f 9//9 10//10 7//7 
f 11//11 12//12 2//2 
f 2//2 12//12 5//5 
f 2//2 5//5 7//7 
f 7//7 10//10 2//2 
f 2//2 10//10 4//4 
f 6//6 5//5 13//13 
f 13//13 5//5 12//12 
f 14//14 11//11 1//1 
f 1//1 11//11 2//2 
f 14//14 1//1 13//13 
f 13//13 1//1 6//6 
f 6//6 1//1 8//8 
f 8//8 1//1 9//9 
f 9//9 1//1 3//3 
f 13//13 12//12 14//14 
f 14//14 12//12 11//11 
