v -20.74181557 37.25 -127.3900146
v -20.74181557 23.75 -127.3900146
v -20.74181557 37.25 -127.5150146
v -20.74181557 23.75 -127.5150146
v -36.8459816 23.75 -127.3900146
v -36.8459816 37.25 -127.3900146
v -36.8459816 23.75 -127.5150146
v -36.8459816 37.25 -127.5150146
vn 0.003880912438 0.004629545379 0.999981761
vn 0.01551940292 -0.01851311326 0.9997081757
vn 0.01551940292 0.01851311326 -0.9997081757
vn 0.003880912438 -0.004629545379 -0.999981761
vn -0.003880912438 -0.004629545379 0.999981761
vn -0.01551940292 0.01851311326 0.9997081757
vn -0.01551940292 -0.01851311326 -0.9997081757
vn -0.003880912438 0.004629545379 -0.999981761
f 1//1 2//2 3//3 
f 3//3 2//2 4//4 
f 2//2 1//1 5//5 
f 5//5 1//1 6//6 
f 5//5 7//7 2//2 
f 2//2 7//7 4//4 
f 1//1 3//3 6//6 
f 6//6 3//3 8//8 
f 7//7 8//8 4//4 
f 4//4 8//8 3//3 
f 5//5 6//6 7//7 
f 7//7 6//6 8//8 
