v -17.19273376 51.75 131.5265656
v -17.19273376 37.58333206 131.5265656
v -17.19273376 51.75 130.8599091
v -17.19273376 37.58333206 130.8599091
v -34.55675888 37.58333206 130.8599091
v -34.55675888 51.75 130.8599091
v -34.55675888 51.75 131.5265656
v -34.55675888 37.58333206 131.5265656
vn 0.0191876404 0.02351821028 0.9995392561
vn 0.07622568309 -0.09342949837 0.9927036762
vn 0.07622568309 0.09342949837 -0.9927036762
vn 0.0191876404 -0.02351821028 -0.9995392561
vn -0.07622568309 -0.09342949837 -0.9927036762
vn -0.0191876404 0.02351821028 -0.9995392561
vn -0.07622568309 0.09342949837 0.9927036762
vn -0.0191876404 -0.02351821028 0.9995392561
f 1//1 2//2 3//3 
f 3//3 2//2 4//4 
f 5//5 6//6 4//4 
f 4//4 6//6 3//3 
f 1//1 3//3 7//7 
f 7//7 3//3 6//6 
f 8//8 5//5 2//2 
f 2//2 5//5 4//4 
f 2//2 1//1 8//8 
f 8//8 1//1 7//7 
f 8//8 7//7 5//5 
f 5//5 7//7 6//6 
