v 51.19568634 17.64583397 145.0474854
v 51.19568634 0.1666666716 145.0474854
v 51.19568634 17.64583397 144.6933136
v 51.19568634 0.1666666716 144.6933136
v 45.63318634 17.64583397 144.6933136
v 45.63318634 0.1666666716 144.6933136
v 45.62427902 17.64583397 144.8148193
v 45.59775543 17.64583397 144.9337158
v 45.55418015 17.64583397 145.0474854
v 45.55418015 0.1666666716 145.0474854
v 45.62427902 0.1666666716 144.8148193
v 45.59775543 0.1666666716 144.9337158
v 16.66719246 17.64583397 144.6933136
v 16.66719246 0.1666666716 144.6933136
v 16.66719246 17.64583397 145.0474854
v 16.66719246 0.1666666716 145.0474854
v 43.9665184 0.1666666716 144.6933136
v 43.9665184 17.64583397 144.6933136
v 43.97542191 17.64583397 144.8148193
v 44.0019455 17.64583397 144.9337158
v 44.0455246 17.64583397 145.0474854
v 43.97542191 0.1666666716 144.8148193
v 44.0019455 0.1666666716 144.9337158
v 44.0455246 0.1666666716 145.0474854
vn 0.03137002513 0.01663942076 0.9993693233
vn 0.1245131642 -0.03302239627 0.9916682839
vn 0.1262764186 0.02701828256 -0.9916270971
vn 0.0318165943 -0.01361504663 -0.9994009733
vn -0.01091241091 0.00347272167 -0.9999344349
vn -0.04350570962 -0.006922541652 -0.9990292192
vn -0.9215248823 0.3637938201 -0.1358159781
vn -0.9149313569 0.2948128879 -0.2756554782
vn -0.04093065485 0.006605307572 0.9991401434
vn -0.01012177859 -0.003266864922 0.9999434352
vn -0.7796559334 -0.6155753732 -0.1149070784
vn -0.9462935925 -0.1524592787 -0.2851044536
vn -0.006486085244 0.01360874157 -0.9998863339
vn -0.02592896111 -0.02720134892 -0.9992936254
vn -0.02584925108 0.03348714486 0.9991047978
vn -0.00646705972 -0.01675587147 0.9998387098
vn 0.002225053031 -0.003475133795 -0.9999914765
vn 0.008895369247 0.006946486421 -0.9999362826
vn 0.2502990663 0.9674656987 -0.03688555211
vn 0.7661267519 0.5998039842 -0.2308353782
vn 0.002079368802 0.00325700012 0.9999925494
vn 0.4585065544 -0.8861186504 -0.0675682351
vn 0.5313034654 -0.8319195509 -0.1600826979
vn 0.008336992003 -0.006529285572 0.999943912
f 1//1 2//2 3//3 
f 3//3 2//2 4//4 
f 3//3 4//4 5//5 
f 5//5 4//4 6//6 
f 3//3 7//7 1//1 
f 1//1 7//7 8//8 
f 1//1 8//8 9//9 
f 3//3 5//5 7//7 
f 2//2 1//1 10//10 
f 10//10 1//1 9//9 
f 6//6 4//4 11//11 
f 11//11 4//4 2//2 
f 11//11 2//2 12//12 
f 12//12 2//2 10//10 
f 5//5 6//6 7//7 
f 7//7 6//6 11//11 
f 7//7 11//11 12//12 
f 10//10 9//9 12//12 
f 12//12 9//9 8//8 
f 12//12 8//8 7//7 
f 13//13 14//14 15//15 
f 15//15 14//14 16//16 
f 14//14 13//13 17//17 
f 17//17 13//13 18//18 
f 18//18 13//13 19//19 
f 19//19 13//13 15//15 
f 19//19 15//15 20//20 
f 20//20 15//15 21//21 
f 14//14 22//22 16//16 
f 16//16 22//22 23//23 
f 16//16 23//23 24//24 
f 14//14 17//17 22//22 
f 15//15 16//16 21//21 
f 21//21 16//16 24//24 
f 17//17 18//18 22//22 
f 22//22 18//18 19//19 
f 22//22 19//19 20//20 
f 21//21 24//24 20//20 
f 20//20 24//24 23//23 
f 20//20 23//23 22//22 
