v 64.38318634 5.666666508 146.2349854
v 64.38318634 5 146.2349854
v 64.38318634 5.666666508 143.4433136
v 64.38318634 5 143.4433136
v 52.44568634 5 143.4433136
v 52.44568634 5.666666508 143.4433136
v 52.44568634 5.666666508 146.2349854
v 52.44568634 5 146.2349854
vn 0.0503298305 0.9012187719 0.430431962
vn 0.05536745116 -0.9914236665 0.1183787063
vn 0.05536745116 0.9914236665 -0.1183787063
vn 0.0503298305 -0.9012187719 -0.430431962
vn -0.05536745116 -0.9914236665 -0.1183787063
vn -0.0503298305 0.9012187719 -0.430431962
vn -0.05536745116 0.9914236665 0.1183787063
vn -0.0503298305 -0.9012187719 0.430431962
f 1//1 2//2 3//3 
f 3//3 2//2 4//4 
f 5//5 6//6 4//4 
f 4//4 6//6 3//3 
f 1//1 3//3 7//7 
f 7//7 3//3 6//6 
f 8//8 5//5 2//2 
f 2//2 5//5 4//4 
f 2//2 1//1 8//8 
f 8//8 1//1 7//7 
f 8//8 7//7 5//5 
f 5//5 7//7 6//6 
