v -66.20186615 0.4166666567 -139.1087189
v -66.2575531 0.4166666567 -139.137085
v -67.927948 0.4166666567 -135.7210846
v -67.98363495 0.4166666567 -135.7494507
v -66.20186615 0.3385416567 -139.1087189
v -67.927948 0.3385416567 -135.7210846
v -66.09048462 0.3385416567 -139.0519714
v -67.8165741 0.3385416567 -135.6643372
v -66.09048462 0.4166666567 -139.0519714
v -67.8165741 0.4166666567 -135.6643372
v -65.49648285 0.4166666567 -138.7493134
v -67.22257233 0.4166666567 -135.3616791
v -65.49648285 0.1666666716 -138.7493134
v -67.22257233 0.1666666716 -135.3616791
v -66.24826813 0.1666666716 -139.13237
v -67.9743576 0.1666666716 -135.7447357
v -67.98363495 0.2083333284 -135.7494507
v -67.9743576 0.2083333284 -135.7447357
v -66.2575531 0.2083333284 -139.137085
v -66.24826813 0.2083333284 -139.13237
vn 0.8307276964 0.3713564575 0.4147117734
vn -0.7551071048 0.514370203 -0.4064929783
vn 0.4682854712 0.8479480743 0.2483804226
vn -0.8861688972 0.1483206302 -0.4389825463
vn 0.281779319 0.9538750648 0.1035508364
vn 0.6738279462 0.6240046024 0.3956945539
vn -0.4405977726 0.5668906569 -0.6960664988
vn -0.4019500315 0.8998408914 0.1694772691
vn -0.04745941237 0.9982352853 -0.03569239005
vn -0.2123608887 0.9734212756 -0.0857546404
vn 0.5646056533 0.798098743 0.2103779912
vn 0.1448181272 0.9819892049 0.1213462278
vn 0.2950795889 -0.9544678926 0.04380683228
vn 0.2312149853 -0.9577100873 0.1712630838
vn -0.04146149755 -0.9987679124 -0.02726797201
vn -0.04891310632 -0.9987230897 -0.01263859775
vn -0.8979786634 -0.04988281056 -0.4372024834
vn -0.9763910174 -0.2150074542 0.02079502307
vn -0.8857457042 -0.04990367964 -0.4614804387
vn -0.2713159621 -0.167929858 -0.9477273822
f 1//1 2//2 3//3 
f 3//3 2//2 4//4 
f 5//5 1//1 6//6 
f 6//6 1//1 3//3 
f 7//7 5//5 8//8 
f 8//8 5//5 6//6 
f 9//9 7//7 10//10 
f 10//10 7//7 8//8 
f 11//11 9//9 12//12 
f 12//12 9//9 10//10 
f 13//13 11//11 14//14 
f 14//14 11//11 12//12 
f 13//13 14//14 15//15 
f 15//15 14//14 16//16 
f 4//4 17//17 6//6 
f 6//6 17//17 18//18 
f 6//6 18//18 8//8 
f 8//8 18//18 14//14 
f 8//8 14//14 12//12 
f 18//18 16//16 14//14 
f 12//12 10//10 8//8 
f 6//6 3//3 4//4 
f 2//2 19//19 4//4 
f 4//4 19//19 17//17 
f 20//20 15//15 18//18 
f 18//18 15//15 16//16 
f 20//20 19//19 5//5 
f 5//5 19//19 2//2 
f 5//5 2//2 1//1 
f 5//5 7//7 20//20 
f 20//20 7//7 13//13 
f 20//20 13//13 15//15 
f 9//9 11//11 7//7 
f 7//7 11//11 13//13 
f 20//20 18//18 19//19 
f 19//19 18//18 17//17 
