v -72.69386292 46.75 -122.5478821
v -72.69386292 38.75 -122.5478821
v -72.64657593 46.75 -122.3430786
v -72.64657593 38.75 -122.3430786
v -72.62864685 38.75 -122.2634659
v -72.62864685 46.75 -122.2634659
v -72.63027191 38.75 -122.290863
v -72.63027191 46.75 -122.290863
v -72.63629913 46.75 -122.3176346
v -72.63629913 38.75 -122.3176346
v -72.18637848 38.75 -122.6650467
v -72.12073517 38.75 -122.380722
v -72.12073517 46.75 -122.380722
v -72.18637848 46.75 -122.6650467
vn -0.4130439162 0.03074030764 -0.910192132
vn -0.7860935926 -0.04877077788 -0.6161803603
vn -0.9715889692 0.03440373763 0.2341607362
vn -0.9649230242 -0.058135245 0.2560152709
vn 0.1994720995 -0.001698167645 0.979902029
vn 0.1212929338 0.003423977876 0.9926108718
vn -0.9896519184 -0.03230167553 0.139805764
vn -0.988106668 0.06450247765 0.1395874619
vn -0.9540631175 0.03191714734 0.2979007661
vn -0.9526085854 -0.06373697519 0.2974466085
vn 0.04620926827 -0.0175589826 -0.9987774491
vn 0.875523448 -0.04842694849 0.4807427227
vn 0.4789545536 0.035022486 0.8771407604
vn 0.5770142078 0.02427973598 -0.8163731694
f 1//1 2//2 3//3 
f 3//3 2//2 4//4 
f 5//5 6//6 7//7 
f 7//7 6//6 8//8 
f 7//7 8//8 9//9 
f 3//3 4//4 9//9 
f 9//9 4//4 10//10 
f 9//9 10//10 7//7 
f 11//11 12//12 2//2 
f 2//2 12//12 4//4 
f 4//4 12//12 10//10 
f 10//10 12//12 7//7 
f 7//7 12//12 5//5 
f 6//6 5//5 13//13 
f 13//13 5//5 12//12 
f 14//14 11//11 1//1 
f 1//1 11//11 2//2 
f 14//14 1//1 13//13 
f 13//13 1//1 3//3 
f 13//13 3//3 9//9 
f 9//9 8//8 13//13 
f 13//13 8//8 6//6 
f 13//13 12//12 14//14 
f 14//14 12//12 11//11 
