v -21.5334816 23.75 -126.7233505
v -21.5334816 19.79166603 -126.7233505
v -21.5334816 23.75 -127.3578339
v -21.5334816 19.79166603 -127.3900146
v -21.5334816 23.75 -127.3900146
v -21.59274673 23.75 -127.3900146
v -21.5334816 37.25 -126.7233505
v -21.5334816 37.25 -127.3578339
v -21.5334816 51.75 -126.7233505
v -21.5334816 51.75 -127.3900146
v -21.5334816 37.25 -127.3900146
v -37.2834816 19.79166603 -126.7233505
v -37.2834816 19.79166603 -127.3900146
v -37.2834816 51.75 -126.7233505
v -37.2834816 51.75 -127.3900146
v -21.59274673 37.25 -127.3900146
vn 0.07125398517 0 0.9974582195
vn 0.07805152982 -0.318243891 0.9447903633
vn 0.9941371083 0.0001288741041 -0.1081266552
vn 0.04355398566 -0.1653188318 -0.9852780104
vn 0.4771745503 0.007144373376 -0.8787794709
vn 0.001578614814 6.930134987e-06 -0.9999987483
vn 0.01880924217 0 0.9998230934
vn 0.9997649789 -5.16752043e-05 -0.02167800628
vn 0.08224576712 0.0457727164 0.9955604076
vn 0.04397784919 0.09113869816 -0.9948666692
vn 0.4771858156 -0.00195037818 -0.8788002729
vn -0.02736119553 -0.01348439511 0.9995346665
vn -0.05483527854 -0.02702442557 -0.9981296659
vn -0.05811171606 0.02863915078 0.9978992343
vn -0.02917714231 0.01437934767 -0.99947083
vn 0.0009203181835 -2.020103238e-06 -0.9999995828
f 1//1 2//2 3//3 
f 3//3 2//2 4//4 
f 3//3 4//4 5//5 
f 6//6 3//3 5//5 
f 7//7 8//8 9//9 
f 9//9 8//8 10//10 
f 10//10 8//8 11//11 
f 12//12 13//13 2//2 
f 2//2 13//13 4//4 
f 9//9 10//10 14//14 
f 14//14 10//10 15//15 
f 15//15 16//16 13//13 
f 13//13 16//16 6//6 
f 13//13 6//6 4//4 
f 4//4 6//6 5//5 
f 15//15 10//10 16//16 
f 16//16 10//10 11//11 
f 9//9 14//14 7//7 
f 7//7 14//14 12//12 
f 7//7 12//12 1//1 
f 1//1 12//12 2//2 
f 15//15 13//13 14//14 
f 14//14 13//13 12//12 
f 7//7 1//1 8//8 
f 8//8 1//1 3//3 
f 11//11 8//8 16//16 
f 6//6 16//16 3//3 
f 3//3 16//16 8//8 
