v -43.5334816 18.66666603 -127.3900146
v -43.5334816 0.1666666716 -127.3900146
v -44.20014954 18.66666603 -127.3900146
v -44.20014954 0.1666666716 -127.3900146
v -43.5334816 0.1666666716 -122.4733505
v -43.5334816 18.66666603 -122.4733505
v -44.20014954 0.1666666716 -122.4733505
v -44.20014954 18.66666603 -122.4733505
vn 0.9970654845 0.03593035787 -0.06759782135
vn 0.9645569324 -0.03475887701 -0.2615754008
vn -0.9645569324 0.03475887701 -0.2615754008
vn -0.9970654845 -0.03593035787 -0.06759782135
vn 0.9970654845 -0.03593035787 0.06759782135
vn 0.9645569324 0.03475887701 0.2615754008
vn -0.9645569324 -0.03475887701 0.2615754008
vn -0.9970654845 0.03593035787 0.06759782135
f 1//1 2//2 3//3 
f 3//3 2//2 4//4 
f 2//2 1//1 5//5 
f 5//5 1//1 6//6 
f 2//2 5//5 4//4 
f 4//4 5//5 7//7 
f 6//6 1//1 8//8 
f 8//8 1//1 3//3 
f 7//7 8//8 4//4 
f 4//4 8//8 3//3 
f 5//5 6//6 7//7 
f 7//7 6//6 8//8 
