v -57.33152771 39.04166794 -56.00640106
v -56.52076721 39.04166794 -52.49460983
v -56.82404327 39.04166794 -56.12356567
v -56.01328278 39.04166794 -52.61177063
v -56.82404327 38.84370804 -56.12356567
v -56.01328278 38.84370804 -52.61177063
v -56.85199356 38.84370804 -56.11711121
v -56.04123306 38.84370804 -52.60531998
v -56.04123306 38.75 -52.60531998
v -56.85199356 38.75 -56.11711121
v -56.0463028 38.7810936 -52.60414886
v -56.85706329 38.7810936 -56.11594009
v -56.85706329 38.81261826 -56.11594009
v -56.0463028 38.81261826 -52.60414886
v -57.16027069 38.75 -56.0459404
v -56.34951019 38.75 -52.53414917
v -56.52076721 38.83333206 -52.49460983
v -56.34951019 38.83333206 -52.53414917
v -57.33152771 38.83333206 -56.00640106
v -57.16027069 38.83333206 -56.0459404
vn -0.3770528436 0.9260923266 0.01356909331
vn -0.353574276 0.9278777838 0.1184400171
vn 0.335968554 0.9338563681 -0.1226272136
vn 0.3645474315 0.9311673641 0.005703906994
vn 0.9341139793 -0.2783484459 -0.2235022336
vn 0.9727079868 -0.07226159424 -0.2204935998
vn 0.5007050633 -0.6670710444 -0.55164361
vn 0.6926662326 -0.7173941135 0.07455966622
vn 0.09883689135 -0.9950070977 -0.0138611272
vn 0.09589475393 -0.9950355291 -0.02661774494
vn 0.9886673689 0.08239263296 -0.1254919469
vn 0.9075505137 0.08118216693 -0.4120212495
vn 0.9603936076 -0.08273728192 -0.2660802007
vn 0.9867992997 -0.08250509202 -0.1393560022
vn -0.4601849914 -0.8844102621 0.077770181
vn -0.1237070858 -0.991319716 0.04451680928
vn -0.4910357296 -0.8599987626 0.138874054
vn -0.5813347697 -0.6969638467 0.4198705554
vn -0.9025921822 -0.3885624707 0.1853283793
vn -0.263533324 -0.9551708102 -0.1349031329
f 1//1 2//2 3//3 
f 3//3 2//2 4//4 
f 5//5 3//3 6//6 
f 6//6 3//3 4//4 
f 7//7 5//5 8//8 
f 8//8 5//5 6//6 
f 9//9 10//10 11//11 
f 11//11 10//10 12//12 
f 11//11 12//12 13//13 
f 7//7 8//8 13//13 
f 13//13 8//8 14//14 
f 13//13 14//14 11//11 
f 15//15 10//10 16//16 
f 16//16 10//10 9//9 
f 17//17 18//18 2//2 
f 2//2 18//18 4//4 
f 4//4 18//18 8//8 
f 4//4 8//8 6//6 
f 16//16 11//11 18//18 
f 18//18 11//11 14//14 
f 18//18 14//14 8//8 
f 16//16 9//9 11//11 
f 1//1 19//19 2//2 
f 2//2 19//19 17//17 
f 20//20 15//15 18//18 
f 18//18 15//15 16//16 
f 19//19 1//1 20//20 
f 20//20 1//1 3//3 
f 20//20 3//3 7//7 
f 7//7 3//3 5//5 
f 7//7 13//13 20//20 
f 20//20 13//13 12//12 
f 20//20 12//12 15//15 
f 15//15 12//12 10//10 
f 19//19 20//20 17//17 
f 17//17 20//20 18//18 
