v -5.574267387 23.21875 143.4433136
v -5.574267387 22.75 143.4433136
v 51.03943634 23.21875 143.4433136
v 51.03943634 22.75 143.4433136
v 32.74437332 22.75 72.86916351
v 51.03943634 22.75 72.86916351
v 32.74437332 23.21875 72.86916351
v 51.03943634 23.21875 72.86916351
vn -0.01655727997 0.9998601675 -0.002348848386
vn -0.008279194124 -0.9999271035 0.00878769625
vn 0.006257174071 0.9999300241 0.01003885455
vn 0.01251408644 -0.9999091029 0.005019322038
vn -0.01251380052 -0.9998862743 -0.008416427299
vn 0.025611002 -0.9995837808 -0.01327837165
vn -0.006257351488 0.9999583364 -0.006641673855
vn 0.05117505789 0.9986676574 -0.006633101031
f 1//1 2//2 3//3 
f 3//3 2//2 4//4 
f 2//2 5//5 4//4 
f 4//4 5//5 6//6 
f 7//7 5//5 1//1 
f 1//1 5//5 2//2 
f 3//3 4//4 8//8 
f 8//8 4//4 6//6 
f 1//1 3//3 7//7 
f 7//7 3//3 8//8 
f 8//8 6//6 7//7 
f 7//7 6//6 5//5 
