v -64.30822754 9.390625 -142.7792969
v -63.91334915 9.390625 -143.5542908
v -64.23397827 9.390625 -142.7414703
v -63.83909607 9.390625 -143.5164642
v -64.30822754 13.80729198 -142.7792969
v -64.23397827 13.80729198 -142.7414703
v -63.91334915 13.80729198 -143.5542908
v -63.83909607 13.80729198 -143.5164642
v -62.44165802 9.390625 -146.2590942
v -62.44165802 13.80729198 -146.2590942
v -62.51590729 13.80729198 -146.2969208
v -62.51590729 9.390625 -146.2969208
vn -0.9603571892 -0.01852698065 -0.2781561315
vn -0.8908479214 -0.01886432804 -0.4539098144
vn 0.8681083918 -0.01884240471 0.4960168898
vn 0.890847981 -0.01886412874 0.4539096653
vn -0.911667943 0.009422327392 -0.4108196199
vn 0.7891119123 0.03703481704 0.6131319404
vn -0.8909317851 0.01293637231 -0.4539529085
vn 0.8906690478 0.02750547975 0.4538194537
vn 0.9140859246 -0.01883617043 0.4050828218
vn 0.8970297575 0.00943224784 0.4418694675
vn -0.8645452261 0.03765283152 -0.5011425018
vn -0.8846226931 -0.01886232942 -0.4659258723
f 1//1 2//2 3//3 
f 3//3 2//2 4//4 
f 5//5 1//1 6//6 
f 6//6 1//1 3//3 
f 5//5 6//6 7//7 
f 7//7 6//6 8//8 
f 9//9 10//10 4//4 
f 4//4 10//10 8//8 
f 4//4 8//8 3//3 
f 3//3 8//8 6//6 
f 7//7 8//8 11//11 
f 11//11 8//8 10//10 
f 2//2 12//12 4//4 
f 4//4 12//12 9//9 
f 11//11 12//12 7//7 
f 7//7 12//12 2//2 
f 7//7 2//2 5//5 
f 5//5 2//2 1//1 
f 12//12 11//11 9//9 
f 9//9 11//11 10//10 
