v -83.44827271 8.25 -105.2148438
v -83.44827271 0.3385416567 -105.2148438
v -83.37402344 8.25 -105.1770096
v -83.37402344 0.3385416567 -105.1770096
v -83.44827271 9.338541985 -105.2148438
v -83.37402344 9.338541985 -105.1770096
v -82.49149323 9.338541985 -107.0926361
v -82.41724396 9.338541985 -107.0548019
v -82.41724396 0.3385416567 -107.0548019
v -82.41724396 8.25 -107.0548019
v -82.49149323 8.25 -107.0926361
v -82.49149323 0.3385416567 -107.0926361
vn -0.9014652967 7.783868826e-18 -0.4328513741
vn -0.9239738584 -0.0104998108 -0.3823114932
vn 0.8590303063 1.302320932e-17 0.511924684
vn 0.8818103075 -0.01053055841 0.4714866579
vn -0.8991488218 0.038241826 -0.4359690249
vn 0.8426836729 0.150885582 0.5168344378
vn -0.8426836729 0.150885582 -0.5168344378
vn 0.8991488218 0.038241826 0.4359690249
vn 0.9239738584 -0.0104998108 0.3823114932
vn 0.9014652967 7.783868826e-18 0.4328513741
vn -0.8590303063 1.302320932e-17 -0.511924684
vn -0.8818103075 -0.01053055841 -0.4714866579
f 1//1 2//2 3//3 
f 3//3 2//2 4//4 
f 5//5 1//1 6//6 
f 6//6 1//1 3//3 
f 5//5 6//6 7//7 
f 7//7 6//6 8//8 
f 9//9 10//10 4//4 
f 4//4 10//10 3//3 
f 3//3 10//10 8//8 
f 3//3 8//8 6//6 
f 11//11 7//7 10//10 
f 10//10 7//7 8//8 
f 2//2 12//12 4//4 
f 4//4 12//12 9//9 
f 2//2 1//1 12//12 
f 12//12 1//1 11//11 
f 11//11 1//1 5//5 
f 11//11 5//5 7//7 
f 12//12 11//11 9//9 
f 9//9 11//11 10//10 
