v -66.12419128 13.80729198 -139.215271
v -66.12419128 9.390625 -139.215271
v -66.04993439 13.80729198 -139.1774445
v -66.04993439 9.390625 -139.1774445
v -64.25762177 9.390625 -142.6950684
v -64.25762177 13.80729198 -142.6950684
v -64.33187103 13.80729198 -142.7328949
v -64.33187103 9.390625 -142.7328949
vn -0.8957082629 0.009433358908 -0.4445421398
vn -0.9092013836 -0.01884852536 -0.4159298241
vn 0.8704464436 0.03767514601 0.4908192456
vn 0.8860085607 -0.01886339858 0.4632850587
vn 0.9092006683 -0.01884695701 0.4159314334
vn 0.8957086802 0.009432584979 0.4445413649
vn -0.870447278 0.03767518327 -0.4908177853
vn -0.8860081434 -0.01886339113 -0.4632858336
f 1//1 2//2 3//3 
f 3//3 2//2 4//4 
f 5//5 6//6 4//4 
f 4//4 6//6 3//3 
f 1//1 3//3 7//7 
f 7//7 3//3 6//6 
f 2//2 8//8 4//4 
f 4//4 8//8 5//5 
f 2//2 1//1 8//8 
f 8//8 1//1 7//7 
f 8//8 7//7 5//5 
f 5//5 7//7 6//6 
