v -83.44827271 13.80729198 -105.2148438
v -83.44827271 9.390625 -105.2148438
v -83.37402344 13.80729198 -105.1770096
v -83.37402344 9.390625 -105.1770096
v -82.41724396 9.390625 -107.0548019
v -82.41724396 13.80729198 -107.0548019
v -82.49149323 13.80729198 -107.0926361
v -82.49149323 9.390625 -107.0926361
vn -0.8997669816 0.009431648999 -0.4362687469
vn -0.9238613844 -0.01880574413 -0.3822649419
vn 0.8518405557 0.03759170324 0.5224505067
vn 0.8817023635 -0.01886080019 0.4714289308
vn 0.9238613844 -0.01880574413 0.3822649419
vn 0.8997669816 0.009431648999 0.4362687469
vn -0.8518405557 0.03759170324 -0.5224505067
vn -0.8817023635 -0.01886080019 -0.4714289308
f 1//1 2//2 3//3 
f 3//3 2//2 4//4 
f 5//5 6//6 4//4 
f 4//4 6//6 3//3 
f 1//1 3//3 7//7 
f 7//7 3//3 6//6 
f 2//2 8//8 4//4 
f 4//4 8//8 5//5 
f 2//2 1//1 8//8 
f 8//8 1//1 7//7 
f 8//8 7//7 5//5 
f 5//5 7//7 6//6 
