v -41.24565506 23.91666603 -14.03564167
v -42.18099976 23.91666603 -16.57733345
v -41.59757996 23.91666603 -13.9061327
v -42.53292465 23.91666603 -16.44782448
v -42.53292465 23.75 -16.44782448
v -42.18099976 23.75 -16.57733345
v -41.59757996 23.75 -13.9061327
v -41.24565506 23.75 -14.03564167
vn 0.417360127 0.9080861807 -0.03449723497
vn 0.3712921739 0.9134504199 -0.1665846109
vn -0.3712921739 0.9134504199 0.1665846109
vn -0.417360127 0.9080861807 0.03449723497
vn -0.6386957169 -0.746619761 0.1860825717
vn 0.1825073957 -0.9744303823 -0.1310590804
vn -0.1825073957 -0.9744303823 0.1310590804
vn 0.6386957169 -0.746619761 -0.1860825717
f 1//1 2//2 3//3 
f 3//3 2//2 4//4 
f 5//5 4//4 6//6 
f 6//6 4//4 2//2 
f 7//7 3//3 5//5 
f 5//5 3//3 4//4 
f 1//1 8//8 2//2 
f 2//2 8//8 6//6 
f 8//8 1//1 7//7 
f 7//7 1//1 3//3 
f 8//8 7//7 6//6 
f 6//6 7//7 5//5 
