v -31.67574883 23.75 13.05527687
v -31.67574883 33.75 13.05527687
v -31.32382202 23.75 12.9257679
v -31.32382202 33.75 12.9257679
v -31.61818886 33.75 13.211689
v -31.26626205 33.75 13.08218002
v -31.26626205 23.75 13.08218002
v -31.61818886 23.75 13.211689
vn -0.881336987 -0.02490597218 -0.4718312919
vn -0.5406451225 0.01626767218 -0.8410934806
vn -0.1335454583 -0.008134637028 -0.991009295
vn 0.3653350174 0.01245586015 -0.9307927489
vn -0.3653350174 0.01245586015 0.9307927489
vn 0.5406451225 0.01626767218 0.8410934806
vn 0.881336987 -0.02490597218 0.4718312919
vn 0.1335454583 -0.008134637028 0.991009295
f 1//1 2//2 3//3 
f 3//3 2//2 4//4 
f 5//5 6//6 2//2 
f 2//2 6//6 4//4 
f 3//3 4//4 7//7 
f 7//7 4//4 6//6 
f 8//8 5//5 1//1 
f 1//1 5//5 2//2 
f 8//8 1//1 7//7 
f 7//7 1//1 3//3 
f 7//7 6//6 8//8 
f 8//8 6//6 5//5 
