v -30.58211327 23.91666603 16.02710152
v -29.63237762 23.91666603 18.6078968
v -30.23018646 23.91666603 15.89759254
v -29.28045082 23.91666603 18.47838783
v -29.28045082 23.75 18.47838783
v -29.63237762 23.75 18.6078968
v -30.23018646 23.75 15.89759254
v -30.58211327 23.75 16.02710152
vn -0.416851908 0.908257544 0.03609265387
vn -0.3714421093 0.9134619832 0.1661865115
vn 0.3714421093 0.9134619832 -0.1661865115
vn 0.416851908 0.908257544 -0.03609265387
vn 0.6384738684 -0.7466450334 -0.1867412776
vn -0.1828302145 -0.9744832516 0.130213201
vn 0.1828302145 -0.9744832516 -0.130213201
vn -0.6384738684 -0.7466450334 0.1867412776
f 1//1 2//2 3//3 
f 3//3 2//2 4//4 
f 5//5 4//4 6//6 
f 6//6 4//4 2//2 
f 7//7 3//3 5//5 
f 5//5 3//3 4//4 
f 1//1 8//8 2//2 
f 2//2 8//8 6//6 
f 8//8 1//1 7//7 
f 7//7 1//1 3//3 
f 8//8 7//7 6//6 
f 6//6 7//7 5//5 
