v -34.97821045 23.75 4.081225872
v -34.97821045 33.75 4.081225872
v -34.62628174 23.75 3.951716423
v -34.62628174 33.75 3.951716423
v -34.92065048 33.75 4.23763752
v -34.56872177 33.75 4.108128071
v -34.56872177 23.75 4.108128071
v -34.92065048 23.75 4.23763752
vn -0.8813351989 -0.0249060113 -0.4718346596
vn -0.5406433344 0.01626764052 -0.8410946131
vn -0.1335466206 -0.008134615608 -0.9910091162
vn 0.3653312624 0.01245586015 -0.930794239
vn -0.3653312624 0.01245586015 0.930794239
vn 0.5406433344 0.01626764052 0.8410946131
vn 0.8813351989 -0.0249060113 0.4718346596
vn 0.1335466206 -0.008134615608 0.9910091162
f 1//1 2//2 3//3 
f 3//3 2//2 4//4 
f 5//5 6//6 2//2 
f 2//2 6//6 4//4 
f 3//3 4//4 7//7 
f 7//7 4//4 6//6 
f 8//8 5//5 1//1 
f 1//1 5//5 2//2 
f 8//8 1//1 7//7 
f 7//7 1//1 3//3 
f 7//7 6//6 8//8 
f 8//8 6//6 5//5 
