v -35.92794418 23.91666603 1.500430942
v -34.97821045 23.91666603 4.081225872
v -35.57601929 23.91666603 1.370921493
v -34.62628174 23.91666603 3.951716423
v -34.62628174 23.75 3.951716423
v -34.97821045 23.75 4.081225872
v -35.57601929 23.75 1.370921493
v -35.92794418 23.75 1.500430942
vn -0.4168536067 0.9082567692 0.0360930711
vn -0.3714419603 0.9134621024 0.1661863327
vn 0.3714419305 0.9134620428 -0.1661866158
vn 0.4168501496 0.9082583785 -0.03609221429
vn 0.6384719014 -0.7466468215 -0.1867409497
vn -0.1828300506 -0.9744832516 0.1302133203
vn 0.1828300506 -0.9744833112 -0.1302130222
vn -0.6384755373 -0.7466435432 0.1867415458
f 1//1 2//2 3//3 
f 3//3 2//2 4//4 
f 5//5 4//4 6//6 
f 6//6 4//4 2//2 
f 7//7 3//3 5//5 
f 5//5 3//3 4//4 
f 1//1 8//8 2//2 
f 2//2 8//8 6//6 
f 8//8 1//1 7//7 
f 7//7 1//1 3//3 
f 8//8 7//7 6//6 
f 6//6 7//7 5//5 
