v -37.97131729 23.91666603 -4.052188396
v -37.02157974 23.91666603 -1.471393466
v -37.61938858 23.91666603 -4.181697845
v -36.66965485 23.91666603 -1.600902915
v -36.66965485 23.75 -1.600902915
v -37.02157974 23.75 -1.471393466
v -37.61938858 23.75 -4.181697845
v -37.97131729 23.75 -4.052188396
vn -0.4168501496 0.9082583785 0.03609221429
vn -0.3714419305 0.9134620428 0.1661866158
vn 0.3714419603 0.9134621024 -0.1661863327
vn 0.4168536067 0.9082567692 -0.0360930711
vn 0.6384755373 -0.7466435432 -0.1867415458
vn -0.1828300506 -0.9744833112 0.1302130222
vn 0.1828300506 -0.9744832516 -0.1302133203
vn -0.6384719014 -0.7466468215 0.1867409497
f 1//1 2//2 3//3 
f 3//3 2//2 4//4 
f 5//5 4//4 6//6 
f 6//6 4//4 2//2 
f 7//7 3//3 5//5 
f 5//5 3//3 4//4 
f 1//1 8//8 2//2 
f 2//2 8//8 6//6 
f 8//8 1//1 7//7 
f 7//7 1//1 3//3 
f 8//8 7//7 6//6 
f 6//6 7//7 5//5 
