v -29.28045082 33.58333206 18.47838783
v -29.63237762 33.58333206 18.6078968
v -30.23018646 33.58333206 15.89759254
v -30.58211327 33.58333206 16.02710152
v -30.23018646 33.75 15.89759254
v -30.58211327 33.75 16.02710152
v -29.28045082 33.75 18.47838783
v -29.63237762 33.75 18.6078968
vn 0.6384779215 -0.7466412783 -0.1867424697
vn -0.1828321964 -0.9744827151 0.1302146167
vn 0.1828321964 -0.9744827151 -0.1302146167
vn -0.6384779215 -0.7466412783 0.1867424697
vn 0.3714456558 0.9134602547 -0.166188091
vn -0.4168558419 0.9082557559 0.03609299287
vn 0.4168558419 0.9082557559 -0.03609299287
vn -0.3714456558 0.9134602547 0.166188091
f 1//1 2//2 3//3 
f 3//3 2//2 4//4 
f 5//5 3//3 6//6 
f 6//6 3//3 4//4 
f 7//7 1//1 5//5 
f 5//5 1//1 3//3 
f 2//2 8//8 4//4 
f 4//4 8//8 6//6 
f 8//8 2//2 7//7 
f 7//7 2//2 1//1 
f 7//7 5//5 8//8 
f 8//8 5//5 6//6 
