v -34.82514954 8.958333015 -28.97334862
v -34.82514954 6.958333492 -28.97334862
v -34.82514954 8.958333015 -28.30668068
v -34.82514954 6.958333492 -28.30668068
v -28.99181557 6.958333492 -28.97334862
v -28.99181557 8.958333015 -28.97334862
v -28.99181557 6.958333492 -28.30668068
v -28.99181557 8.958333015 -28.30668068
vn -0.05627613887 0.1641387939 -0.9848306775
vn -0.1868342906 -0.5449335575 -0.8173985481
vn -0.1868342906 0.5449335575 0.8173985481
vn -0.05627613887 -0.1641387939 0.9848306775
vn 0.05627613887 -0.1641387939 -0.9848306775
vn 0.1868342906 0.5449335575 -0.8173985481
vn 0.1868342906 -0.5449335575 0.8173985481
vn 0.05627613887 0.1641387939 0.9848306775
f 1//1 2//2 3//3 
f 3//3 2//2 4//4 
f 2//2 1//1 5//5 
f 5//5 1//1 6//6 
f 5//5 7//7 2//2 
f 2//2 7//7 4//4 
f 1//1 3//3 6//6 
f 6//6 3//3 8//8 
f 7//7 8//8 4//4 
f 4//4 8//8 3//3 
f 5//5 6//6 7//7 
f 7//7 6//6 8//8 
