v 32.75167465 8 112.9105072
v 32.37990189 8 112.9596024
v 32.43577194 8 110.5182495
v 32.06399918 8 110.567337
v 32.43577194 8.166666985 110.5182495
v 32.06399918 8.166666985 110.567337
v 32.75167465 8.166666985 112.9105072
v 32.37990189 8.166666985 112.9596024
vn 0.6645198464 -0.746415019 -0.03574902192
vn -0.2057697326 -0.9739755988 0.09502844512
vn 0.2057703882 -0.97397542 -0.09502843767
vn -0.6645202637 -0.7464146614 0.03574898839
vn 0.3983138502 0.9133566022 -0.08441457152
vn -0.4158681631 0.9066169262 -0.071410276
vn 0.415869385 0.9066163898 0.07141026855
vn -0.3983143866 0.9133563638 0.08441454917
f 1//1 2//2 3//3 
f 3//3 2//2 4//4 
f 5//5 3//3 6//6 
f 6//6 3//3 4//4 
f 7//7 1//1 5//5 
f 5//5 1//1 3//3 
f 2//2 8//8 4//4 
f 4//4 8//8 6//6 
f 8//8 2//2 7//7 
f 7//7 2//2 1//1 
f 7//7 5//5 8//8 
f 8//8 5//5 6//6 
