v 21.56641006 8 108.460289
v 21.56641006 0 108.460289
v 21.91975021 8 108.0919495
v 21.91975021 0 108.0919495
v 18.44678116 0 105.4677124
v 18.80012131 0 105.0993652
v 18.72491646 0 105.73452
v 19.07825851 0 105.3661728
v 18.72491646 7.020833492 105.73452
v 19.07825851 7.020833492 105.3661728
v 20.91993332 0 107.8401413
v 21.27327347 0 107.4717941
v 21.27327347 7.020833492 107.4717941
v 20.91993332 7.020833492 107.8401413
v 18.80012131 8 105.0993652
v 18.44678116 8 105.4677124
vn -0.4017407894 0.1792695224 0.8980349302
vn -0.2172908187 -0.02903681807 0.9756749272
vn 0.9376866817 0.3001843989 -0.1750228703
vn 0.8701460958 -0.06489565223 -0.4885021746
vn -0.9812675714 -0.02775763348 0.1906396002
vn -0.1882443726 -0.03927320614 -0.9813366532
vn 0.4300577939 -0.05129015073 0.9013432264
vn 0.9921115041 -0.0437675938 0.1174699515
vn -0.3494637311 -0.3115148246 0.8836479187
vn 0.9835023284 -0.135826692 -0.1194752157
vn -0.951171875 -0.1253370494 0.2820685208
vn -0.08570765704 -0.04789794236 -0.9951683283
vn 0.5527718067 -0.1464343518 -0.8203659654
vn -0.888256669 -0.07079526037 0.4538590908
vn 0.3701311648 0.1953992844 -0.9081971645
vn -0.9392768741 0.3183576465 0.1280910522
f 1//1 2//2 3//3 
f 3//3 2//2 4//4 
f 5//5 6//6 7//7 
f 7//7 6//6 8//8 
f 9//9 7//7 10//10 
f 10//10 7//7 8//8 
f 2//2 11//11 4//4 
f 4//4 11//11 12//12 
f 10//10 13//13 9//9 
f 9//9 13//13 14//14 
f 3//3 13//13 15//15 
f 15//15 13//13 10//10 
f 15//15 10//10 6//6 
f 6//6 10//10 8//8 
f 3//3 4//4 13//13 
f 13//13 4//4 12//12 
f 2//2 1//1 14//14 
f 14//14 1//1 16//16 
f 14//14 16//16 9//9 
f 9//9 16//16 5//5 
f 9//9 5//5 7//7 
f 14//14 11//11 2//2 
f 13//13 12//12 14//14 
f 14//14 12//12 11//11 
f 1//1 3//3 16//16 
f 16//16 3//3 15//15 
f 5//5 16//16 6//6 
f 6//6 16//16 15//15 
