v 22.78506851 8.354166985 99.72650909
v 22.78506851 8 99.72650909
v 17.60718918 8.354166985 105.1242142
v 17.60718918 8 105.1242142
v 26.75407791 8 103.5338898
v 21.57620811 8 108.9315872
v 26.07992935 8 102.6567612
v 25.34158516 8 101.8329315
v 24.54324722 8 101.0671082
v 23.68945503 8 100.3636322
v 21.57620811 8.354166985 108.9315872
v 23.68945503 8.354166985 100.3636322
v 24.54324722 8.354166985 101.0671082
v 25.34158516 8.354166985 101.8329315
v 26.07992935 8.354166985 102.6567612
v 26.75407791 8.354166985 103.5338898
vn -0.1684328616 0.9434959292 -0.285387069
vn -0.3676341176 -0.8359305859 -0.4075109959
vn -0.08720870316 0.9954596162 -0.03814199567
vn -0.07781819254 -0.9968308806 0.01650653966
vn 0.2921409011 -0.9434953928 0.1564292312
vn 0.03649218008 -0.9965302348 0.07480537891
vn 0.0539794825 -0.9974826574 -0.04598448053
vn 0.04926137254 -0.9975913763 -0.0488335602
vn 0.0129513694 -0.9998045564 -0.01493717544
vn 0.04228320345 -0.9974826574 -0.05692497641
vn -0.01158984751 0.9975793362 0.0685647428
vn 0.04370181262 0.9974826574 -0.05584328249
vn 0.01332300622 0.9998045564 -0.01460662577
vn 0.05047449097 0.9975913763 -0.04757887498
vn 0.0551190041 0.9974826574 -0.04461199045
vn 0.4224372208 0.8359293938 0.3503839076
f 1//1 2//2 3//3 
f 3//3 2//2 4//4 
f 5//5 6//6 7//7 
f 7//7 6//6 8//8 
f 8//8 6//6 9//9 
f 9//9 6//6 4//4 
f 9//9 4//4 10//10 
f 10//10 4//4 2//2 
f 3//3 4//4 11//11 
f 11//11 4//4 6//6 
f 2//2 1//1 10//10 
f 10//10 1//1 12//12 
f 10//10 12//12 9//9 
f 9//9 12//12 13//13 
f 9//9 13//13 8//8 
f 8//8 13//13 14//14 
f 8//8 14//14 7//7 
f 7//7 14//14 15//15 
f 7//7 15//15 5//5 
f 5//5 15//15 16//16 
f 16//16 15//15 11//11 
f 11//11 15//15 14//14 
f 11//11 14//14 13//13 
f 11//11 13//13 3//3 
f 3//3 13//13 12//12 
f 3//3 12//12 1//1 
f 11//11 6//6 16//16 
f 16//16 6//6 5//5 
