v 38.93364716 8.166666985 109.3255463
v 38.93364716 0.1666666716 109.3255463
v 39.01626587 8.166666985 109.3146362
v 39.01626587 0.1666666716 109.3146362
v 38.65624619 0.1666666716 106.5883026
v 38.65624619 8.166666985 106.5883026
v 38.57363129 8.166666985 106.5992126
v 38.57363129 0.1666666716 106.5992126
vn -0.9892427921 0.01041499805 0.1459117234
vn -0.9814456105 -0.02079086378 0.190610081
vn 0.997443676 0.01039735135 -0.07069631666
vn 0.9932495952 -0.005207828246 -0.1158797219
vn 0.9814459085 -0.02079086937 -0.1906087548
vn 0.9892426729 0.01041499712 -0.1459124088
vn -0.9974436164 0.01039687637 0.07069769502
vn -0.9932496548 -0.005207591224 0.1158790365
f 1//1 2//2 3//3 
f 3//3 2//2 4//4 
f 5//5 6//6 4//4 
f 4//4 6//6 3//3 
f 7//7 1//1 6//6 
f 6//6 1//1 3//3 
f 8//8 5//5 2//2 
f 2//2 5//5 4//4 
f 2//2 1//1 8//8 
f 8//8 1//1 7//7 
f 8//8 7//7 5//5 
f 5//5 7//7 6//6 
