v 29.66587067 12.02083302 -32.66347122
v 29.66587067 11.83333302 -32.66347122
v 32.06663132 12.02083302 -32.9825592
v 32.06663132 11.83333302 -32.9825592
v 51.48735046 12.02083302 -32.9825592
v 51.48735046 11.83333302 -32.9825592
v 50.54985046 12.02083302 -68.55553436
v 50.54985046 11.83333302 -68.55553436
v 47.72724915 12.02083302 -66.92590332
v 47.72724915 11.83333302 -66.92590332
v 51.48735046 12.02083302 -68.55553436
v 51.48735046 11.83333302 -68.55553436
v 29.45017052 12.02083302 -53.51670837
v 29.45017052 11.83333302 -53.51670837
v 26.93835449 12.02083302 -53.18487167
v 26.93835449 11.83333302 -53.18487167
v 28.02599525 12.02083302 -64.29047394
v 28.02599525 11.83333302 -64.29047394
vn -0.07422098517 0.9971390367 0.01431757212
vn -0.03631472588 -0.9992457628 0.01375103556
vn 0.0002665324719 0.9999487996 0.01011635363
vn 0.0001332532993 -0.999851644 0.01722302102
vn 0.005542612169 0.9999663234 0.006051870529
vn 0.01108486578 -0.9999339581 0.003025837243
vn -0.1707233638 0.8536167741 -0.4921299815
vn -0.2970990837 -0.7427476645 -0.6000483632
vn -0.001081343391 0.9999886155 -0.004649645183
vn -0.001265826169 -0.9999691844 -0.00774577586
vn 0.09812910855 0.9951728582 -0.001293060835
vn 0.04924256727 -0.9987834692 -0.002595504513
vn -0.002955196192 0.9999956489 4.545494448e-05
vn -0.001544833416 -0.9999986887 -0.0004861718626
vn -0.07551278919 0.9971112609 -0.008184351958
vn -0.1463047862 -0.9891847968 0.01040750276
vn -0.01391807105 0.9993602633 -0.03294468671
vn -0.02098431438 -0.9996728301 -0.01462379284
f 1//1 2//2 3//3 
f 3//3 2//2 4//4 
f 3//3 4//4 5//5 
f 5//5 4//4 6//6 
f 7//7 8//8 9//9 
f 9//9 8//8 10//10 
f 5//5 6//6 11//11 
f 11//11 6//6 12//12 
f 13//13 14//14 15//15 
f 15//15 14//14 16//16 
f 15//15 16//16 1//1 
f 1//1 16//16 2//2 
f 7//7 9//9 11//11 
f 11//11 9//9 5//5 
f 5//5 9//9 13//13 
f 5//5 13//13 3//3 
f 3//3 13//13 1//1 
f 1//1 13//13 15//15 
f 9//9 17//17 13//13 
f 17//17 18//18 13//13 
f 13//13 18//18 14//14 
f 8//8 12//12 10//10 
f 10//10 12//12 6//6 
f 10//10 6//6 14//14 
f 14//14 6//6 4//4 
f 14//14 4//4 2//2 
f 2//2 16//16 14//14 
f 14//14 18//18 10//10 
f 9//9 10//10 17//17 
f 17//17 10//10 18//18 
f 11//11 12//12 7//7 
f 7//7 12//12 8//8 
