v -44.74665833 9 -82.53868103
v -44.74665833 9.1875 -82.53868103
v -44.39184189 9 -82.69520569
v -44.39184189 9.1875 -82.69520569
v -44.0891037 9 -82.93756866
v -44.0891037 9.1875 -82.93756866
v -43.85873032 9 -83.24953461
v -43.85873032 9.1875 -83.24953461
v -43.71616364 9 -83.61018372
v -43.71616364 9.1875 -83.61018372
v -43.6709671 9 -83.99534607
v -43.6709671 9.1875 -83.99534607
v -43.72616577 9 -84.3792038
v -43.72616577 9.1875 -84.3792038
v -43.87805939 9 -84.73602295
v -43.87805939 9.1875 -84.73602295
v -44.11646652 9 -85.04189301
v -44.11646652 9.1875 -85.04189301
v -44.42540741 9 -85.27629852
v -44.42540741 9.1875 -85.27629852
v -44.78417587 9 -85.42354584
v -44.78417587 9.1875 -85.42354584
v -45.16871643 9 -85.47374725
v -45.16871643 9.1875 -85.47374725
v -43.86699677 9.1875 -75.80665588
v -43.86699677 9 -75.80665588
v -36.5334816 9.1875 -92.97335052
v -36.5334816 9 -92.97335052
v -46.15710068 9.1875 -92.97335052
v -46.15710068 9 -92.97335052
v -34.27260971 9.1875 -101.8869858
v -31.04914284 9.1875 -77.50098419
v -36.5334816 9.1875 -101.5881271
v -36.5334816 9 -101.5881271
v -31.04914284 9 -77.50098419
v -34.27260971 9 -101.8869858
vn -0.7090263963 -0.7013816237 0.07311235368
vn -0.4633283019 0.886116147 0.0111821536
vn -0.02195238322 -0.9989579916 -0.04001343995
vn -0.02534509823 0.9989579916 -0.0379550755
vn -0.03800372779 -0.9984818101 -0.03987163305
vn -0.04132392257 0.9984818101 -0.03641969338
vn -0.06643869728 -0.9969596267 -0.04071108624
vn -0.06972379982 0.9969596267 -0.03478596359
vn -0.001957510598 -0.9999979138 -0.0005844078842
vn -0.002000878565 0.9999979138 -0.000412144087
vn -0.001287669642 -0.9999991655 -3.92648144e-05
vn -0.001286214101 0.9999991655 7.274161908e-05
vn -0.02965322323 -0.9995363355 0.006916436832
vn -0.02894023433 0.9995363355 0.009466217831
vn -0.02364320122 -0.9996413589 0.0125739146
vn -0.02246165276 0.9996413589 0.01458023116
vn -0.001922779717 -0.9999965429 0.00178554852
vn -0.001760383835 0.9999965429 0.001945829368
vn -0.02576231025 -0.9988334775 0.04084153101
vn -0.02211752906 0.9988334179 0.04292521626
vn -0.0120914476 -0.9991793036 0.03865931183
vn -0.008687214926 0.9991793036 0.03956336156
vn -0.446790576 -0.8886526823 0.1033181995
vn -0.7012560964 0.7043673396 0.1100297347
vn -0.02056003548 0.9994642735 0.02546426095
vn -0.005837156437 -0.9989108443 0.04629294202
vn -0.009212167934 0.9999443293 -0.005145484582
vn -0.004606047645 -0.9999364614 -0.01029088814
vn -0.0167953819 0.9990224242 -0.04089075327
vn -0.03359971195 -0.999288559 -0.01712970436
vn 0.08759777993 0.996031642 -0.01573622786
vn 0.01494217571 0.9998156428 0.01205730904
vn -0.08825704455 0.9951553345 -0.04331897199
vn -0.1663516909 -0.9858329892 -0.0214565862
vn 0.02714465372 -0.9996256232 0.003426768351
vn 0.0431156531 -0.9989714622 -0.0140379956
f 1//1 2//2 3//3 
f 3//3 2//2 4//4 
f 3//3 4//4 5//5 
f 5//5 4//4 6//6 
f 5//5 6//6 7//7 
f 7//7 6//6 8//8 
f 7//7 8//8 9//9 
f 9//9 8//8 10//10 
f 9//9 10//10 11//11 
f 11//11 10//10 12//12 
f 11//11 12//12 13//13 
f 13//13 12//12 14//14 
f 13//13 14//14 15//15 
f 15//15 14//14 16//16 
f 15//15 16//16 17//17 
f 17//17 16//16 18//18 
f 17//17 18//18 19//19 
f 19//19 18//18 20//20 
f 19//19 20//20 21//21 
f 21//21 20//20 22//22 
f 21//21 22//22 23//23 
f 23//23 22//22 24//24 
f 2//2 1//1 25//25 
f 25//25 1//1 26//26 
f 27//27 28//28 29//29 
f 29//29 28//28 30//30 
f 31//31 27//27 32//32 
f 32//32 27//27 12//12 
f 32//32 12//12 10//10 
f 31//31 33//33 27//27 
f 29//29 18//18 27//27 
f 27//27 18//18 16//16 
f 27//27 16//16 14//14 
f 24//24 22//22 29//29 
f 29//29 22//22 20//20 
f 29//29 20//20 18//18 
f 14//14 12//12 27//27 
f 32//32 10//10 25//25 
f 25//25 10//10 8//8 
f 25//25 8//8 6//6 
f 6//6 4//4 25//25 
f 25//25 4//4 2//2 
f 33//33 34//34 27//27 
f 27//27 34//34 28//28 
f 29//29 30//30 24//24 
f 24//24 30//30 23//23 
f 26//26 9//9 35//35 
f 35//35 9//9 11//11 
f 35//35 11//11 28//28 
f 28//28 11//11 13//13 
f 28//28 13//13 15//15 
f 1//1 3//3 26//26 
f 26//26 3//3 5//5 
f 26//26 5//5 7//7 
f 7//7 9//9 26//26 
f 15//15 17//17 28//28 
f 28//28 17//17 30//30 
f 30//30 17//17 19//19 
f 30//30 19//19 21//21 
f 21//21 23//23 30//30 
f 34//34 36//36 28//28 
f 28//28 36//36 35//35 
f 31//31 36//36 33//33 
f 33//33 36//36 34//34 
f 32//32 35//35 31//31 
f 31//31 35//35 36//36 
f 25//25 26//26 32//32 
f 32//32 26//26 35//35 
