v -6.16435051 14.23539352 -127.9958496
v 20.15307617 14.23539352 -127.9958496
v -6.16435051 14.51883221 -130.6733704
v 20.15307617 14.51883221 -130.6733704
v -6.16435051 14.56535339 -133.3654633
v 20.15307617 14.56535339 -133.3654633
v -6.16435051 14.37459564 -136.051178
v 20.15307617 14.37459564 -136.051178
v -6.16435051 13.94804287 -138.7096558
v 20.15307617 13.94804287 -138.7096558
v -6.16435051 13.28900909 -141.3202515
v 20.15307617 13.28900909 -141.3202515
v -6.16435051 12.40261745 -143.8626404
v 20.15307617 12.40261745 -143.8626404
v -6.16435051 11.29575443 -146.3170929
v 20.15307617 11.29575443 -146.3170929
v -6.16435051 10.6875 -146.3170929
v -6.16435051 11.81595421 -143.8691559
v -6.16435051 12.7201252 -141.3297882
v -6.16435051 13.39271355 -138.7195282
v -6.16435051 13.82828999 -136.059433
v -6.16435051 14.02333641 -133.3709717
v -6.16435051 13.97628021 -130.6758575
v -6.16435051 13.6875 -127.9958496
v 20.15307617 13.6875 -127.9958496
v 20.15307617 10.6875 -146.3170929
v 20.15307617 11.81595421 -143.8691559
v 20.15307617 12.7201252 -141.3297882
v 20.15307617 13.39271355 -138.7195282
v 20.15307617 13.82828999 -136.059433
v 20.15307617 14.02333641 -133.3709717
v 20.15307617 13.97628021 -130.6758575
vn -0.03956789523 0.9542781115 0.2962898314
vn 0.01979557425 0.954838872 0.2964639366
vn -0.02059492841 0.9968959093 0.07598910481
vn 0.02059489302 0.9986994863 0.0466391854
vn -0.0137187792 0.9998325706 -0.01210659556
vn 0.01371880248 0.9990441203 -0.04150470346
vn -0.02057337947 0.9947640896 -0.1001054272
vn 0.02057337947 0.9913899302 -0.1293162853
vn -0.02054698579 0.982082665 -0.1873271763
vn 0.02054694667 0.9761490226 -0.2161270231
vn -0.02052174881 0.9617686868 -0.2730930448
vn 0.02052179724 0.9533213973 -0.3012593389
vn -0.02049751021 0.9339795113 -0.3567380905
vn 0.020497486 0.9230846763 -0.3840502203
vn -0.01853481121 0.8195614219 -0.5726915002
vn 0.03705053404 0.819139421 -0.572396636
vn -0.0226016324 -0.977907896 0.207810685
vn -0.02071523666 -0.9200843573 0.3911721706
vn -0.02069024742 -0.9514828324 0.3070053458
vn -0.02066414244 -0.9751992226 0.2203621268
vn -0.02063675784 -0.9910430908 0.1319384873
vn -0.02747220173 -0.9987211227 0.04244256765
vn -0.02061444707 -0.9986641407 -0.04738165066
vn -0.0103604598 -0.9953052402 0.0962298736
vn 0.0207175836 -0.9951450229 0.09621438384
vn 0.01130298153 -0.978095293 0.2078505158
vn 0.02071518451 -0.931396246 0.3634170294
vn 0.02069028653 -0.9602572918 0.2783484161
vn 0.02066414244 -0.9813661575 0.1910327077
vn 0.02063674107 -0.9945524931 0.1021736488
vn 0.02747220919 -0.9995445609 0.01248817146
vn 0.02061445639 -0.9967951775 -0.07729420066
f 1//1 2//2 3//3 
f 3//3 2//2 4//4 
f 3//3 4//4 5//5 
f 5//5 4//4 6//6 
f 5//5 6//6 7//7 
f 7//7 6//6 8//8 
f 7//7 8//8 9//9 
f 9//9 8//8 10//10 
f 9//9 10//10 11//11 
f 11//11 10//10 12//12 
f 11//11 12//12 13//13 
f 13//13 12//12 14//14 
f 13//13 14//14 15//15 
f 15//15 14//14 16//16 
f 17//17 18//18 15//15 
f 15//15 18//18 13//13 
f 13//13 18//18 19//19 
f 13//13 19//19 11//11 
f 11//11 19//19 20//20 
f 11//11 20//20 9//9 
f 9//9 20//20 21//21 
f 9//9 21//21 7//7 
f 7//7 21//21 22//22 
f 7//7 22//22 5//5 
f 5//5 22//22 3//3 
f 3//3 22//22 23//23 
f 3//3 23//23 1//1 
f 1//1 23//23 24//24 
f 25//25 2//2 24//24 
f 24//24 2//2 1//1 
f 16//16 26//26 15//15 
f 15//15 26//26 17//17 
f 26//26 16//16 27//27 
f 27//27 16//16 14//14 
f 27//27 14//14 28//28 
f 28//28 14//14 12//12 
f 28//28 12//12 29//29 
f 29//29 12//12 10//10 
f 29//29 10//10 30//30 
f 30//30 10//10 8//8 
f 30//30 8//8 31//31 
f 31//31 8//8 6//6 
f 31//31 6//6 4//4 
f 31//31 4//4 32//32 
f 32//32 4//4 2//2 
f 32//32 2//2 25//25 
f 17//17 26//26 18//18 
f 18//18 26//26 27//27 
f 18//18 27//27 19//19 
f 19//19 27//27 28//28 
f 19//19 28//28 20//20 
f 20//20 28//28 29//29 
f 20//20 29//29 21//21 
f 21//21 29//29 30//30 
f 21//21 30//30 22//22 
f 22//22 30//30 31//31 
f 22//22 31//31 23//23 
f 23//23 31//31 32//32 
f 23//23 32//32 24//24 
f 24//24 32//32 25//25 
