v -33.90122223 37.3125 130.8599091
v -33.90122223 0 130.8599091
v -33.90122223 37.3125 131.5265656
v -33.90122223 0 131.5265656
v -13.06788921 22.25 131.5265656
v -13.06788921 22.25 130.8599091
v -17.19273376 22.25 131.5265656
v -17.19273376 22.25 130.8599091
v -17.19273376 37.3125 131.5265656
v -17.19273376 37.3125 130.8599091
v -13.06788921 0 131.5265656
v -13.06788921 0 130.8599091
vn -0.02841088362 0.01272235624 -0.9995153546
vn -0.04570568353 -0.02551964298 -0.9986289144
vn -0.05673935264 0.0254078079 0.9980656505
vn -0.02287636138 -0.01277295407 0.9996566772
vn 0.1594796777 0.02956534363 0.9867584109
vn 0.3070718348 0.05692690611 -0.9499822259
vn 0.01403839979 0.003844396211 0.9998940825
vn 0.007019757759 0.001922350843 -0.9999735355
vn 0.03982862085 0.04418098181 0.9982292652
vn 0.07923780382 0.08789668977 -0.9929730892
vn 0.05327939987 -0.04988707602 0.9973327518
vn 0.02669307962 -0.02499352023 -0.9993311763
f 1//1 2//2 3//3 
f 3//3 2//2 4//4 
f 5//5 6//6 7//7 
f 7//7 6//6 8//8 
f 9//9 7//7 10//10 
f 10//10 7//7 8//8 
f 5//5 11//11 6//6 
f 6//6 11//11 12//12 
f 9//9 3//3 7//7 
f 7//7 3//3 4//4 
f 7//7 4//4 11//11 
f 11//11 5//5 7//7 
f 12//12 2//2 8//8 
f 8//8 2//2 1//1 
f 8//8 1//1 10//10 
f 8//8 6//6 12//12 
f 4//4 2//2 11//11 
f 11//11 2//2 12//12 
f 9//9 10//10 3//3 
f 3//3 10//10 1//1 
