v -44.75014877 37.33333206 83.5974884
v -44.75014877 18.66666603 83.5974884
v -44.83264923 37.33333206 83.5974884
v -44.83264923 18.66666603 83.5974884
v -44.83264923 37.33333206 84.00144196
v -44.83264923 18.66666603 84.00144196
v -45.56764984 37.33333206 84.00144196
v -45.56764984 18.66666603 84.00144196
v -45.56764984 37.33333206 83.5974884
v -45.56764984 18.66666603 83.5974884
v -45.6501503 37.33333206 83.5974884
v -45.6501503 18.66666603 83.5974884
v -45.6501503 37.33333206 84.45581818
v -45.6501503 18.66666603 84.45581818
v -45.56764984 37.33333206 84.45581818
v -45.56764984 18.66666603 84.45581818
v -45.56764984 37.33333206 84.05185699
v -45.56764984 18.66666603 84.05185699
v -44.83264923 37.33333206 84.05185699
v -44.83264923 18.66666603 84.05185699
v -44.83264923 18.66666603 84.45581818
v -44.75014877 18.66666603 84.45581818
v -44.83264923 37.33333206 84.45581818
v -44.75014877 37.33333206 84.45581818
vn 0.9988414645 0.003375724191 -0.04800304025
vn 0.9819996953 -0.006382687949 -0.1887745857
vn -0.9257420897 0.004091472365 -0.3781333268
vn -0.9948241711 -0.002198396018 -0.1015877277
vn -0.739683032 0.00547350198 -0.6729331613
vn -0.2649720311 -0.005107716192 -0.9642425776
vn 0.2649720311 0.005107716192 -0.9642425776
vn 0.739683032 -0.00547350198 -0.6729331613
vn 0.9948241711 0.002198396018 -0.1015877277
vn 0.9257420897 -0.004091472365 -0.3781333268
vn -0.9819996953 0.006382687949 -0.1887745857
vn -0.9988414645 -0.003375724191 -0.04800304025
vn -0.9988414645 0.003375743749 0.04800304025
vn -0.9819996953 -0.006382726599 0.1887745857
vn 0.9257445931 0.004091483541 0.3781271875
vn 0.9948243499 -0.002198396483 0.1015858278
vn 0.7396893501 0.005473476369 0.6729261875
vn 0.2649766803 -0.005107731558 0.9642412663
vn -0.2649766803 0.005107731558 0.9642412663
vn -0.7396893501 -0.005473476369 0.6729261875
vn -0.9257445931 -0.004091483541 0.3781271875
vn 0.9988414645 -0.003375743749 0.04800304025
vn -0.9948243499 0.002198396483 0.1015858278
vn 0.9819996953 0.006382726599 0.1887745857
f 1//1 2//2 3//3 
f 3//3 2//2 4//4 
f 3//3 4//4 5//5 
f 5//5 4//4 6//6 
f 5//5 6//6 7//7 
f 7//7 6//6 8//8 
f 7//7 8//8 9//9 
f 9//9 8//8 10//10 
f 9//9 10//10 11//11 
f 11//11 10//10 12//12 
f 11//11 12//12 13//13 
f 13//13 12//12 14//14 
f 13//13 14//14 15//15 
f 15//15 14//14 16//16 
f 15//15 16//16 17//17 
f 17//17 16//16 18//18 
f 17//17 18//18 19//19 
f 19//19 18//18 20//20 
f 21//21 20//20 22//22 
f 22//22 20//20 6//6 
f 22//22 6//6 2//2 
f 2//2 6//6 4//4 
f 6//6 20//20 8//8 
f 8//8 20//20 18//18 
f 8//8 18//18 12//12 
f 12//12 18//18 14//14 
f 14//14 18//18 16//16 
f 12//12 10//10 8//8 
f 19//19 20//20 23//23 
f 23//23 20//20 21//21 
f 24//24 22//22 1//1 
f 1//1 22//22 2//2 
f 23//23 24//24 19//19 
f 19//19 24//24 1//1 
f 19//19 1//1 5//5 
f 5//5 1//1 3//3 
f 19//19 5//5 17//17 
f 17//17 5//5 7//7 
f 17//17 7//7 13//13 
f 13//13 7//7 11//11 
f 11//11 7//7 9//9 
f 13//13 15//15 17//17 
f 23//23 21//21 24//24 
f 24//24 21//21 22//22 
