v -44.75014877 37.25 -0.4025146067
v -44.75014877 18.66666603 -0.4025146067
v -44.83264923 37.25 -0.4025146067
v -44.83264923 18.66666603 -0.4025146067
v -44.83264923 37.25 0.001443719491
v -44.83264923 18.66666603 0.001443719491
v -45.56764984 37.25 0.001443719491
v -45.56764984 18.66666603 0.001443719491
v -45.56764984 37.25 -0.4025146067
v -45.56764984 18.66666603 -0.4025146067
v -45.6501503 37.25 -0.4025146067
v -45.6501503 18.66666603 -0.4025146067
v -45.6501503 37.25 0.4558187127
v -45.6501503 18.66666603 0.4558187127
v -45.56764984 37.25 0.4558187127
v -45.56764984 18.66666603 0.4558187127
v -45.56764984 37.25 0.05186038464
v -45.56764984 18.66666603 0.05186038464
v -44.83264923 37.25 0.05186038464
v -44.83264923 18.66666603 0.05186038464
v -44.83264923 18.66666603 0.4558187127
v -44.75014877 18.66666603 0.4558187127
v -44.83264923 37.25 0.4558187127
v -44.75014877 37.25 0.4558187127
vn 0.9988414645 0.003390873084 -0.04800284281
vn 0.9819996953 -0.006411325186 -0.188773796
vn -0.9257435799 0.004109825939 -0.3781294525
vn -0.9948242307 -0.0022082543 -0.1015865356
vn -0.7396869063 0.005498153623 -0.6729287505
vn -0.2649749219 -0.005130686332 -0.9642416835
vn 0.2649749219 0.005130686332 -0.9642416835
vn 0.7396869063 -0.005498153623 -0.6729287505
vn 0.9948242307 0.0022082543 -0.1015865356
vn 0.9257435799 -0.004109825939 -0.3781294525
vn -0.9819996953 0.006411325186 -0.188773796
vn -0.9988414645 -0.003390873084 -0.04800284281
vn -0.9988414645 0.003390873084 0.04800284281
vn -0.9819996953 -0.006411325186 0.188773796
vn 0.9257435799 0.004109825939 0.3781294525
vn 0.9948242307 -0.0022082543 0.1015865356
vn 0.7396869063 0.005498153623 0.6729286909
vn 0.2649749219 -0.005130686332 0.9642416835
vn -0.2649749219 0.005130686332 0.9642416835
vn -0.7396869063 -0.005498153623 0.6729286909
vn -0.9257435799 -0.004109825939 0.3781294525
vn 0.9988414645 -0.003390873084 0.04800284281
vn -0.9948242307 0.0022082543 0.1015865356
vn 0.9819996953 0.006411325186 0.188773796
f 1//1 2//2 3//3 
f 3//3 2//2 4//4 
f 3//3 4//4 5//5 
f 5//5 4//4 6//6 
f 5//5 6//6 7//7 
f 7//7 6//6 8//8 
f 7//7 8//8 9//9 
f 9//9 8//8 10//10 
f 9//9 10//10 11//11 
f 11//11 10//10 12//12 
f 11//11 12//12 13//13 
f 13//13 12//12 14//14 
f 13//13 14//14 15//15 
f 15//15 14//14 16//16 
f 15//15 16//16 17//17 
f 17//17 16//16 18//18 
f 17//17 18//18 19//19 
f 19//19 18//18 20//20 
f 21//21 20//20 22//22 
f 22//22 20//20 6//6 
f 22//22 6//6 2//2 
f 2//2 6//6 4//4 
f 6//6 20//20 8//8 
f 8//8 20//20 18//18 
f 8//8 18//18 12//12 
f 12//12 18//18 14//14 
f 14//14 18//18 16//16 
f 12//12 10//10 8//8 
f 19//19 20//20 23//23 
f 23//23 20//20 21//21 
f 24//24 22//22 1//1 
f 1//1 22//22 2//2 
f 23//23 24//24 19//19 
f 19//19 24//24 1//1 
f 19//19 1//1 5//5 
f 5//5 1//1 3//3 
f 19//19 5//5 17//17 
f 17//17 5//5 7//7 
f 17//17 7//7 13//13 
f 13//13 7//7 11//11 
f 11//11 7//7 9//9 
f 13//13 15//15 17//17 
f 23//23 21//21 24//24 
f 24//24 21//21 22//22 
