v 13.5290184 19.79166603 143.6412354
v 13.5290184 19.79166603 143.2766571
v 13.44568443 19.79166603 143.6412354
v 13.44568443 19.79166603 143.2766571
v 13.44568443 -1.333333373 143.2766571
v 13.5290184 -1.333333373 143.2766571
v 13.5290184 20.5 146.0267334
v 13.5290184 -1.333333373 146.0267334
v 13.5290184 20.5 143.6412354
v 13.44568443 20.5 143.6412354
v 13.44568443 -1.333333373 146.0267334
v 13.44568443 20.5 146.0267334
vn 0.9999994636 0.0002540912537 -0.0009873406962
vn 0.9748286009 0.007691014558 -0.2228227854
vn -0.9999997616 0.0005081826239 -0.0004936704645
vn -0.9094652534 0.003587661544 -0.4157645106
vn -0.9996180534 -0.006963447202 -0.02674522623
vn 0.9985653162 -0.003478056984 -0.05343411863
vn 0.9977113008 0.003688424826 0.06751681119
vn 0.9998550415 -0.004159451462 0.0165113043
vn 0.972854495 0.2289084792 -0.03398528323
vn -0.9907681942 0.1165617481 -0.06922214478
vn -0.999452889 -0.002078889171 0.03300932422
vn -0.9994007945 0.007389341015 0.03381557018
f 1//1 2//2 3//3 
f 3//3 2//2 4//4 
f 5//5 4//4 6//6 
f 6//6 4//4 2//2 
f 7//7 8//8 1//1 
f 1//1 8//8 6//6 
f 1//1 6//6 2//2 
f 1//1 9//9 7//7 
f 9//9 1//1 10//10 
f 10//10 1//1 3//3 
f 4//4 5//5 3//3 
f 3//3 5//5 11//11 
f 3//3 11//11 12//12 
f 12//12 10//10 3//3 
f 10//10 12//12 9//9 
f 9//9 12//12 7//7 
f 11//11 5//5 8//8 
f 8//8 5//5 6//6 
f 8//8 7//7 11//11 
f 11//11 7//7 12//12 
