v 23.93109703 0.1666666716 127.7530899
v 23.93109703 0 127.7530899
v 24.18630409 0.1666666716 128.1951294
v 24.18630409 0 128.1951294
v 25.22266388 0 126.9330139
v 25.51416016 0 127.352005
v 24.79987526 0 127.2184296
v 25.07949257 0 127.6454391
v 24.36923981 0 127.4918594
v 24.6367588 0 127.9265518
v 25.51416016 0.1666666716 127.352005
v 25.07949257 0.1666666716 127.6454391
v 24.6367588 0.1666666716 127.9265518
v 24.36923981 0.1666666716 127.4918594
v 24.79987526 0.1666666716 127.2184296
v 25.22266388 0.1666666716 126.9330139
vn -0.286259383 0.9402536154 -0.1843332946
vn -0.3399083316 -0.9402139187 0.02144890465
vn -0.3124231696 0.8151763678 0.4877286553
vn 0.04801132903 -0.810642004 0.5835704207
vn -0.07834726572 -0.80599612 -0.5867128372
vn 0.3360074162 -0.940828681 -0.04404946789
vn -0.1674128622 -0.951451242 -0.2582896054
vn 0.1726825386 -0.9497592449 0.2610327005
vn -0.1600943357 -0.9514511824 -0.2628886402
vn 0.165285036 -0.9497597814 0.2657765746
vn 0.2981475592 0.9390271306 0.171277687
vn 0.170231238 0.9497593641 0.2626374662
vn 0.1627911627 0.9497594833 0.2673125267
vn -0.1625482589 0.9514511824 -0.2613785267
vn -0.1698237956 0.9514511228 -0.256711185
vn 0.2850805819 0.8058959246 -0.5189034343
f 1//1 2//2 3//3 
f 3//3 2//2 4//4 
f 5//5 6//6 7//7 
f 7//7 6//6 8//8 
f 7//7 8//8 9//9 
f 9//9 8//8 10//10 
f 9//9 10//10 2//2 
f 2//2 10//10 4//4 
f 6//6 11//11 8//8 
f 8//8 11//11 12//12 
f 8//8 12//12 10//10 
f 10//10 12//12 13//13 
f 10//10 13//13 4//4 
f 4//4 13//13 3//3 
f 2//2 1//1 9//9 
f 9//9 1//1 14//14 
f 9//9 14//14 7//7 
f 7//7 14//14 15//15 
f 7//7 15//15 5//5 
f 5//5 15//15 16//16 
f 16//16 15//15 11//11 
f 11//11 15//15 12//12 
f 12//12 15//15 14//14 
f 12//12 14//14 13//13 
f 13//13 14//14 1//1 
f 13//13 1//1 3//3 
f 11//11 6//6 16//16 
f 16//16 6//6 5//5 
