v 51.19568634 5.666666508 140.3599854
v 51.19568634 5.333333492 140.3599854
v 16.66719246 5.666666508 140.3599854
v 16.66719246 5.333333492 140.3599854
v 16.66719246 5.333333492 144.6933136
v 51.19568634 5.333333492 144.6933136
v 16.66719246 5.666666508 144.6933136
v 51.19568634 5.666666508 144.6933136
vn 0.009646272287 0.9992147088 -0.03843134269
vn 0.009541161358 -0.9883267283 -0.1520503014
vn -0.009541161358 0.9883267283 -0.1520503014
vn -0.009646272287 -0.9992147088 -0.03843134269
vn -0.009541161358 -0.9883267283 0.1520503014
vn 0.009646272287 -0.9992147088 0.03843134269
vn -0.009646272287 0.9992147088 0.03843134269
vn 0.009541161358 0.9883267283 0.1520503014
f 1//1 2//2 3//3 
f 3//3 2//2 4//4 
f 5//5 4//4 6//6 
f 6//6 4//4 2//2 
f 3//3 4//4 7//7 
f 7//7 4//4 5//5 
f 8//8 6//6 1//1 
f 1//1 6//6 2//2 
f 8//8 1//1 7//7 
f 7//7 1//1 3//3 
f 7//7 5//5 8//8 
f 8//8 5//5 6//6 
