v -0.7834820747 17.64583397 142.6099854
v -0.7834820747 0 142.6099854
v -0.4293153882 17.64583397 142.6099854
v -0.4293153882 0 142.6099854
v -0.4293153882 17.64583397 140.9641571
v -0.4293153882 0 140.9641571
v -0.7834820747 0 140.9641571
v -0.7834820747 17.64583397 140.9641571
vn -0.9940634966 0.01995168813 0.1069565341
vn -0.9183860421 -0.01843277737 0.3952559829
vn 0.9183860421 0.01843277737 0.3952559829
vn 0.9940634966 -0.01995168813 0.1069565341
vn 0.9940634966 0.01995168813 -0.1069565341
vn 0.9183860421 -0.01843277737 -0.3952559829
vn -0.9940634966 -0.01995168813 -0.1069565341
vn -0.9183860421 0.01843277737 -0.3952559829
f 1//1 2//2 3//3 
f 3//3 2//2 4//4 
f 3//3 4//4 5//5 
f 5//5 4//4 6//6 
f 2//2 1//1 7//7 
f 7//7 1//1 8//8 
f 3//3 5//5 1//1 
f 1//1 5//5 8//8 
f 6//6 4//4 7//7 
f 7//7 4//4 2//2 
f 7//7 8//8 6//6 
f 6//6 8//8 5//5 
