v 63.7165184 -4.166666508 248.3599854
v 63.7165184 -4.166666508 249.6933136
v 62.38318634 -4.166666508 248.3599854
v 62.38318634 -4.166666508 249.6933136
v 62.38318634 1.833333373 249.6933136
v 62.42485046 1.833333373 248.4016571
v 62.38318634 1.833333373 248.3599854
v 63.67485046 1.833333373 248.4016571
v 63.7165184 1.833333373 248.3599854
v 63.67485046 1.833333373 249.6516571
v 63.7165184 1.833333373 249.6933136
v 62.42485046 1.833333373 249.6516571
v 62.42485046 1.875 248.4016571
v 62.42485046 1.875 249.6516571
v 63.67485046 1.875 248.4016571
v 63.67485046 1.875 249.6516571
v 63.7165184 2.333333254 249.6933136
v 63.63318634 2.416666746 249.6099854
v 62.38318634 2.333333254 249.6933136
v 62.4665184 2.416666746 249.6099854
v 63.63318634 2.416666746 248.4433136
v 62.4665184 2.416666746 248.4433136
v 63.7165184 1.875 249.6933136
v 62.38318634 1.875 249.6933136
v 63.7165184 1.875 248.3599854
v 63.7165184 2.333333254 248.3599854
v 62.38318634 2.333333254 248.3599854
v 62.38318634 1.875 248.3599854
vn 0.4450203478 -0.09889332205 -0.8900432587
vn 0.8772658706 -0.1949477941 0.438634187
vn -0.8772658706 -0.1949477941 -0.438634187
vn -0.4450203478 -0.09889332205 0.8900432587
vn -0.8943619132 0.01203171071 0.4471822381
vn -0.5269655585 0.8080124855 -0.2634827793
vn -0.4471939504 0.009123011492 -0.8943904638
vn 0.2634665072 0.80803895 -0.5269330144
vn 0.8943894506 0.00912304502 -0.4471960068
vn 0.4256207049 0.8795219064 0.2128103524
vn 0.4472039342 0.00621051155 0.8944104314
vn -0.3333557844 0.6666104794 0.6667115688
vn -0.3333286643 -0.6666783094 -0.6666573286
vn -0.5270066261 -0.8079789877 0.2635033131
vn 0.4255604148 -0.8795583844 -0.2127802074
vn 0.2635089755 -0.807969749 0.527017951
vn 0.4712490141 0.1449943632 0.8700005412
vn 0.1156113371 0.9865434766 0.1156113371
vn -0.8412731886 0.2450224459 0.4818956852
vn -0.03329647705 0.9988907576 0.03329636529
vn 0.03201811388 0.9971296191 -0.06860994548
vn -0.1238278151 0.990619719 -0.05778637901
vn 0.8881164193 -0.1185765415 0.4440594912
vn -0.4440582097 -0.118562445 0.8881189227
vn 0.445741266 -0.0810501799 -0.8914850354
vn 0.8754635453 0.195486322 -0.4419826269
vn -0.4419810474 0.1954832524 -0.8754650354
vn -0.8835289478 -0.155626744 -0.4417657256
f 1//1 2//2 3//3 
f 3//3 2//2 4//4 
f 5//5 6//6 7//7 
f 7//7 6//6 8//8 
f 7//7 8//8 9//9 
f 9//9 8//8 10//10 
f 9//9 10//10 11//11 
f 11//11 10//10 5//5 
f 5//5 10//10 12//12 
f 5//5 12//12 6//6 
f 2//2 11//11 4//4 
f 4//4 11//11 5//5 
f 4//4 5//5 3//3 
f 3//3 5//5 7//7 
f 3//3 7//7 1//1 
f 1//1 7//7 9//9 
f 1//1 9//9 2//2 
f 2//2 9//9 11//11 
f 13//13 6//6 14//14 
f 14//14 6//6 12//12 
f 8//8 15//15 10//10 
f 10//10 15//15 16//16 
f 15//15 8//8 13//13 
f 13//13 8//8 6//6 
f 10//10 16//16 12//12 
f 12//12 16//16 14//14 
f 17//17 18//18 19//19 
f 19//19 18//18 20//20 
f 18//18 21//21 20//20 
f 20//20 21//21 22//22 
f 23//23 17//17 24//24 
f 24//24 17//17 19//19 
f 25//25 26//26 23//23 
f 23//23 26//26 17//17 
f 21//21 18//18 26//26 
f 26//26 18//18 17//17 
f 27//27 19//19 22//22 
f 22//22 19//19 20//20 
f 24//24 19//19 28//28 
f 28//28 19//19 27//27 
f 28//28 27//27 25//25 
f 25//25 27//27 26//26 
f 26//26 27//27 21//21 
f 21//21 27//27 22//22 
f 28//28 14//14 24//24 
f 24//24 14//14 16//16 
f 24//24 16//16 23//23 
f 23//23 16//16 15//15 
f 23//23 15//15 25//25 
f 25//25 15//15 28//28 
f 28//28 15//15 13//13 
f 28//28 13//13 14//14 
