v 51.58110046 46.45819855 -105.7338638
v 51.58110046 39.04166794 -105.7338638
v 51.66443634 46.45819855 -105.7338638
v 51.66443634 39.04166794 -105.7338638
v 51.66443634 39.04166794 -109.4420624
v 51.66443634 46.45819855 -109.4420624
v 51.58110046 46.45819855 -109.4420624
v 51.58110046 39.04166794 -109.4420624
vn -0.9998737574 0.01123508532 0.01123528741
vn -0.9989284873 -0.01122446358 0.04489866272
vn 0.9989284873 0.01122446358 0.04489866272
vn 0.9998737574 -0.01123508532 0.01123528741
vn 0.9989284873 -0.01122446358 -0.04489866272
vn 0.9998737574 0.01123508532 -0.01123528741
vn -0.9989284873 0.01122446358 -0.04489866272
vn -0.9998737574 -0.01123508532 -0.01123528741
f 1//1 2//2 3//3 
f 3//3 2//2 4//4 
f 5//5 6//6 4//4 
f 4//4 6//6 3//3 
f 7//7 1//1 6//6 
f 6//6 1//1 3//3 
f 2//2 8//8 4//4 
f 4//4 8//8 5//5 
f 2//2 1//1 8//8 
f 8//8 1//1 7//7 
f 8//8 7//7 5//5 
f 5//5 7//7 6//6 
