v 51.74781418 38.75 -97.73386383
v 51.74781418 46.75 -97.73386383
v 51.74781418 38.75 -97.52367401
v 51.74781418 46.75 -97.52367401
v 51.74824905 46.75 -97.44206238
v 51.74824905 38.75 -97.44206238
v 51.74367142 46.75 -97.46912384
v 51.74367142 38.75 -97.46912384
v 51.74352264 38.75 -97.49656677
v 51.74352264 46.75 -97.49656677
v 51.2269783 46.75 -97.73386383
v 51.2269783 46.75 -97.44206238
v 51.2269783 38.75 -97.44206238
v 51.2269783 38.75 -97.73386383
vn 0.1977783442 -0.0128762573 -0.9801622033
vn 0.6279386878 0.02044081129 -0.7779943347
vn 0.997012198 -0.07665055245 0.009561647661
vn 0.9911276698 0.1289603561 0.03217389807
vn 0.02606278658 0.00169822108 0.9996588826
vn 0.1050990671 -0.003424066817 0.994455874
vn 0.9957413673 0.03230183572 -0.08634682745
vn 0.9941865206 -0.06450279802 -0.08621200174
vn 0.9966206551 -0.03191709146 0.0756874159
vn 0.9951012135 0.06373686343 0.07557202131
vn -0.2696212232 0.03019768745 -0.9624928832
vn -0.7454547286 0.03098149784 0.6658358574
vn -0.2694679499 -0.02239846438 0.9627488256
vn -0.7454385161 -0.04174471274 -0.6652659178
f 1//1 2//2 3//3 
f 3//3 2//2 4//4 
f 5//5 6//6 7//7 
f 7//7 6//6 8//8 
f 7//7 8//8 9//9 
f 3//3 4//4 9//9 
f 9//9 4//4 10//10 
f 9//9 10//10 7//7 
f 2//2 11//11 4//4 
f 4//4 11//11 12//12 
f 4//4 12//12 10//10 
f 10//10 12//12 7//7 
f 7//7 12//12 5//5 
f 6//6 5//5 13//13 
f 13//13 5//5 12//12 
f 14//14 11//11 1//1 
f 1//1 11//11 2//2 
f 1//1 3//3 14//14 
f 14//14 3//3 13//13 
f 13//13 3//3 9//9 
f 13//13 9//9 8//8 
f 8//8 6//6 13//13 
f 13//13 12//12 14//14 
f 14//14 12//12 11//11 
