v 51.74781418 46.66838837 -105.7338638
v 51.74781418 46.45819855 -105.7338638
v 51.74781418 46.66838837 -109.4420624
v 51.74781418 46.45819855 -109.4420624
v 51.74824905 46.75 -109.4420624
v 51.74824905 46.75 -105.7338638
v 51.74367142 46.72293854 -109.4420624
v 51.74367142 46.72293854 -105.7338638
v 51.74352264 46.69549561 -105.7338638
v 51.74352264 46.69549561 -109.4420624
v 51.2269783 46.45819855 -109.4420624
v 51.2269783 46.75 -109.4420624
v 51.2269783 46.75 -105.7338638
v 51.2269783 46.45819855 -105.7338638
vn 0.9542635083 0.01725792512 0.2984682322
vn 0.3741076887 -0.9270130396 0.02627268992
vn 0.9878337383 0.017865045 -0.1544840485
vn 0.3737209439 -0.9260547161 -0.05249106139
vn 0.02606264874 0.9996535778 -0.003663691925
vn 0.105096817 0.9944345355 0.007386861369
vn 0.9938483834 -0.08618268371 -0.06955491006
vn 0.9867137671 -0.08556399494 0.138111189
vn 0.9947707653 0.07554692775 0.0687295422
vn 0.987796247 0.07501725107 -0.1364953369
vn -0.4879234731 -0.8708937168 -0.05894789845
vn -0.486599803 0.8692563176 -0.08725897223
vn -0.4879951775 0.8717489839 0.04375459626
vn -0.4853999913 -0.866389513 0.1172860563
f 1//1 2//2 3//3 
f 3//3 2//2 4//4 
f 5//5 6//6 7//7 
f 7//7 6//6 8//8 
f 7//7 8//8 9//9 
f 1//1 3//3 9//9 
f 9//9 3//3 10//10 
f 9//9 10//10 7//7 
f 4//4 11//11 3//3 
f 3//3 11//11 12//12 
f 3//3 12//12 10//10 
f 10//10 12//12 7//7 
f 7//7 12//12 5//5 
f 6//6 5//5 13//13 
f 13//13 5//5 12//12 
f 14//14 11//11 2//2 
f 2//2 11//11 4//4 
f 2//2 1//1 14//14 
f 14//14 1//1 13//13 
f 13//13 1//1 9//9 
f 13//13 9//9 8//8 
f 8//8 6//6 13//13 
f 14//14 13//13 11//11 
f 11//11 13//13 12//12 
