v 51.57202911 2.5 -125.3377991
v 51.57202911 2.583333254 -125.3377991
v 51.57202911 2.5 -121.921402
v 51.57202911 2.583333254 -121.921402
v 51.25564575 2.5 -125.3377991
v 51.25564575 2.5 -121.921402
v 51.25564575 2.593708515 -121.921402
v 51.25564575 2.593708515 -125.3377991
v 51.260849 2.562616348 -121.921402
v 51.260849 2.562616348 -125.3377991
v 51.260849 2.531091928 -125.3377991
v 51.260849 2.531091928 -121.921402
v 51.22695541 2.593708515 -125.3377991
v 51.22695541 2.593708515 -121.921402
v 51.22695541 2.791666746 -125.3377991
v 51.22695541 2.791666746 -121.921402
v 51.74779129 2.583333254 -121.921402
v 51.74779129 2.791666746 -121.921402
v 51.74779129 2.583333254 -125.3377991
v 51.74779129 2.791666746 -125.3377991
vn 0.2545758784 -0.9665237665 -0.03198399767
vn 0.4208556712 -0.8876469731 -0.1869848818
vn 0.2546735704 -0.9668947458 0.01599813625
vn 0.4003811777 -0.8444632292 0.3557762504
vn -0.04948266596 -0.9987644553 -0.004582456779
vn -0.1991508156 -0.9799254537 0.00922141131
vn -0.4230324924 -0.8515017033 0.3098198473
vn -0.8086134791 -0.5083953142 -0.296105504
vn -0.9955290556 -0.08272542059 0.04558935389
vn -0.9924398661 -0.08246871829 -0.09089577198
vn -0.990996182 0.08234906942 -0.1055710614
vn -0.9748330116 0.08100595325 0.2076984048
vn -0.9896515012 -0.1434314549 -0.004155464936
vn -0.9896258712 -0.1434277445 0.008310714737
vn -0.3537636697 0.9307661057 -0.09233479947
vn -0.3549001515 0.9337562323 0.04631571472
vn 0.7641785145 -0.6447051764 0.01965721138
vn 0.370329082 0.9258264899 0.07550951838
vn 0.7637360096 -0.6443318129 -0.03929165751
vn 0.3711234331 0.9278123975 -0.037835747
f 1//1 2//2 3//3 
f 3//3 2//2 4//4 
f 1//1 3//3 5//5 
f 5//5 3//3 6//6 
f 7//7 8//8 9//9 
f 9//9 8//8 10//10 
f 9//9 10//10 11//11 
f 5//5 6//6 11//11 
f 11//11 6//6 12//12 
f 11//11 12//12 9//9 
f 8//8 7//7 13//13 
f 13//13 7//7 14//14 
f 15//15 13//13 16//16 
f 16//16 13//13 14//14 
f 17//17 18//18 4//4 
f 4//4 18//18 16//16 
f 4//4 16//16 7//7 
f 7//7 16//16 14//14 
f 7//7 9//9 4//4 
f 4//4 9//9 12//12 
f 4//4 12//12 3//3 
f 3//3 12//12 6//6 
f 19//19 17//17 2//2 
f 2//2 17//17 4//4 
f 15//15 16//16 20//20 
f 20//20 16//16 18//18 
f 19//19 2//2 20//20 
f 20//20 2//2 15//15 
f 15//15 2//2 8//8 
f 15//15 8//8 13//13 
f 1//1 11//11 2//2 
f 2//2 11//11 10//10 
f 2//2 10//10 8//8 
f 1//1 5//5 11//11 
f 19//19 20//20 17//17 
f 17//17 20//20 18//18 
