v 51.74781418 13.75172234 -121.921402
v 51.74781418 13.54153156 -121.921402
v 51.74781418 13.75172234 -125.3377991
v 51.74781418 13.54153156 -125.3377991
v 51.74824905 13.83333302 -125.3377991
v 51.74824905 13.83333302 -121.921402
v 51.74367142 13.80627346 -125.3377991
v 51.74367142 13.80627346 -121.921402
v 51.74352264 13.77882957 -121.921402
v 51.74352264 13.77882957 -125.3377991
v 51.2269783 13.54153156 -125.3377991
v 51.2269783 13.83333302 -125.3377991
v 51.2269783 13.83333302 -121.921402
v 51.2269783 13.54153156 -121.921402
vn 0.9467818141 0.01712254807 0.3214203417
vn 0.3740861416 -0.9269554615 0.02851505205
vn 0.9857409 0.0178271234 -0.1673232317
vn 0.3736307323 -0.9258269668 -0.05696067587
vn 0.02606078237 0.9996524453 -0.003976330627
vn 0.105088979 0.9944304824 0.008017190732
vn 0.9934203625 -0.08614706993 -0.07546320558
vn 0.9850417376 -0.08542049676 0.1496534795
vn 0.9943526387 0.07551385462 0.07456853986
vn 0.9861614108 0.0748917833 -0.1479085237
vn -0.4877725244 -0.8706243038 -0.06396309286
vn -0.4862701893 0.8686674833 -0.09464753419
vn -0.4879119992 0.8716003895 0.04748354852
vn -0.4848063886 -0.8653300405 0.1271482557
f 1//1 2//2 3//3 
f 3//3 2//2 4//4 
f 5//5 6//6 7//7 
f 7//7 6//6 8//8 
f 7//7 8//8 9//9 
f 1//1 3//3 9//9 
f 9//9 3//3 10//10 
f 9//9 10//10 7//7 
f 4//4 11//11 3//3 
f 3//3 11//11 12//12 
f 3//3 12//12 10//10 
f 10//10 12//12 7//7 
f 7//7 12//12 5//5 
f 6//6 5//5 13//13 
f 13//13 5//5 12//12 
f 14//14 11//11 2//2 
f 2//2 11//11 4//4 
f 2//2 1//1 14//14 
f 14//14 1//1 13//13 
f 13//13 1//1 9//9 
f 13//13 9//9 8//8 
f 8//8 6//6 13//13 
f 14//14 13//13 11//11 
f 11//11 13//13 12//12 
