v -76.36681366 19.75 143.2766571
v -76.36681366 0.1666666716 143.2766571
v -76.36681366 19.75 143.6412354
v -76.36681366 0.1666666716 143.6412354
v -67.03348541 7.625 143.2766571
v -67.03348541 0.1666666716 143.2766571
v -67.03348541 7.625 143.6412354
v -67.03348541 0.1666666716 143.6412354
v -70.36681366 0.1666666716 143.6412354
v -70.36681366 0.1666666716 143.2766571
v -70.36681366 7.625 143.2766571
v -70.36681366 7.625 143.6412354
v -48.2834816 7.625 143.2766571
v -48.2834816 0.1666666716 143.2766571
v -48.2834816 7.625 143.6412354
v -48.2834816 0.1666666716 143.6412354
v -54.61681366 0.1666666716 143.6412354
v -54.61681366 0.1666666716 143.2766571
v -54.61681366 7.625 143.2766571
v -54.61681366 7.625 143.6412354
v -33.95132446 19.75 143.2766571
v -33.95132446 0.1666666716 143.2766571
v -33.95132446 19.75 143.6412354
v -33.95132446 0.1666666716 143.6412354
vn -0.008675868623 0.01879104041 -0.9997857809
vn -0.08763763309 -0.02685067803 -0.9957904816
vn -0.01734059863 0.03755795583 0.9991439581
vn -0.043957524 -0.01346783619 0.9989426136
vn -0.007228005677 -0.003230388742 -0.999968648
vn -0.0583457835 -0.09713435918 -0.9935595989
vn -0.01917328872 -0.008569054306 0.9997794628
vn -0.01467503421 -0.02443107218 0.9995937943
vn 0.120074369 -0.09659614414 0.9880543351
vn 0.06057910994 -0.04873403534 -0.9969729781
vn 0.02682210319 -0.01198751386 -0.9995683432
vn 0.01341539435 -0.005995697808 0.999892056
vn -0.005855549593 -0.00497230934 -0.9999704957
vn -0.05056937411 -0.09717562795 -0.993981719
vn -0.01171006262 -0.00994373858 0.9998819828
vn -0.02539924532 -0.04880795255 0.9984852076
vn 0.0583457835 -0.09713435918 0.9935595989
vn 0.01467503421 -0.02443107218 -0.9995937943
vn 0.006518625189 -0.005535367876 -0.9999634624
vn 0.002933737822 -0.002491218271 0.999992609
vn 0.01636754908 0.03545043245 -0.9992374182
vn 0.01841701381 -0.01347858086 -0.9997395277
vn 0.008188457228 0.01773535833 0.9998092055
vn 0.03680528328 -0.02693612501 0.9989593625
f 1//1 2//2 3//3 
f 3//3 2//2 4//4 
f 5//5 6//6 7//7 
f 7//7 6//6 8//8 
f 4//4 2//2 9//9 
f 9//9 2//2 10//10 
f 5//5 7//7 11//11 
f 11//11 7//7 12//12 
f 13//13 14//14 15//15 
f 15//15 14//14 16//16 
f 8//8 6//6 17//17 
f 17//17 6//6 18//18 
f 13//13 15//15 19//19 
f 19//19 15//15 20//20 
f 10//10 2//2 11//11 
f 11//11 2//2 1//1 
f 11//11 1//1 5//5 
f 5//5 1//1 19//19 
f 5//5 19//19 18//18 
f 1//1 21//21 19//19 
f 19//19 21//21 13//13 
f 13//13 21//21 22//22 
f 13//13 22//22 14//14 
f 18//18 6//6 5//5 
f 4//4 12//12 3//3 
f 3//3 12//12 7//7 
f 3//3 7//7 20//20 
f 20//20 7//7 8//8 
f 20//20 8//8 17//17 
f 4//4 9//9 12//12 
f 3//3 20//20 23//23 
f 23//23 20//20 15//15 
f 23//23 15//15 24//24 
f 24//24 15//15 16//16 
f 20//20 17//17 19//19 
f 19//19 17//17 18//18 
f 22//22 24//24 14//14 
f 14//14 24//24 16//16 
f 12//12 9//9 11//11 
f 11//11 9//9 10//10 
f 1//1 3//3 21//21 
f 21//21 3//3 23//23 
f 22//22 21//21 24//24 
f 24//24 21//21 23//23 
