v -62.35417175 46.75 -80.0770874
v -63.14614868 46.75 -83.50751495
v -62.86207962 46.75 -79.95982361
v -63.65405655 46.75 -83.39025879
v -63.65363312 46.66838837 -83.39035797
v -62.86165619 46.66838837 -79.95992279
v -63.64945602 46.69549561 -83.39131927
v -62.8574791 46.69549561 -79.96089172
v -62.85762024 46.72293854 -79.96085358
v -63.64959717 46.72293854 -83.39128876
v -63.65363312 46.45819855 -83.39035797
v -63.14614868 46.45819855 -83.50751495
v -62.86165619 46.45819855 -79.95992279
v -62.35417175 46.45819855 -80.0770874
vn 0.4945987165 0.8688935637 -0.01990180276
vn 0.4650740325 0.8716567159 -0.1546633095
vn -0.02452671342 0.9996528625 0.009622774087
vn -0.1041533947 0.9944315553 0.01606073417
vn -0.9956845641 0.01715523563 -0.09120281786
vn -0.9247077703 0.01782486774 0.3802601695
vn -0.9853058457 0.0755128935 0.1531996876
vn -0.9291935563 0.07492274046 0.3619198203
vn -0.9516506195 -0.08608847111 0.2948726714
vn -0.9931197166 -0.0853850469 0.08014090359
vn -0.6217548847 -0.7773166299 0.09591537714
vn 0.2468087226 -0.9606705308 -0.1272699237
vn -0.1860643774 -0.9798238873 0.07297426462
vn 0.7449748516 -0.662864089 -0.07499091327
f 1//1 2//2 3//3 
f 3//3 2//2 4//4 
f 5//5 6//6 7//7 
f 7//7 6//6 8//8 
f 7//7 8//8 9//9 
f 3//3 4//4 9//9 
f 9//9 4//4 10//10 
f 9//9 10//10 7//7 
f 11//11 5//5 12//12 
f 12//12 5//5 2//2 
f 2//2 5//5 7//7 
f 2//2 7//7 10//10 
f 10//10 4//4 2//2 
f 13//13 6//6 11//11 
f 11//11 6//6 5//5 
f 1//1 14//14 2//2 
f 2//2 14//14 12//12 
f 13//13 14//14 6//6 
f 6//6 14//14 1//1 
f 6//6 1//1 8//8 
f 8//8 1//1 9//9 
f 9//9 1//1 3//3 
f 14//14 13//13 12//12 
f 12//12 13//13 11//11 
