v -69.95223999 39.04166794 -110.6727219
v -69.16026306 39.04166794 -107.2422943
v -69.44475555 39.04166794 -110.7898865
v -68.65277863 39.04166794 -107.3594513
v -69.44475555 38.84370804 -110.7898865
v -68.65277863 38.84370804 -107.3594513
v -69.47270966 38.84370804 -110.783432
v -68.68073273 38.84370804 -107.3530045
v -68.68073273 38.75 -107.3530045
v -69.47270966 38.75 -110.783432
v -68.68579865 38.7810936 -107.3518295
v -69.47777557 38.7810936 -110.7822571
v -69.47777557 38.81261826 -110.7822571
v -68.68579865 38.81261826 -107.3518295
v -69.78098297 38.75 -110.7122574
v -68.98900604 38.75 -107.2818298
v -69.16026306 38.83333206 -107.2422943
v -68.98900604 38.83333206 -107.2818298
v -69.95223999 38.83333206 -110.6727219
v -69.78098297 38.83333206 -110.7122574
vn -0.3773883879 0.9259784222 0.01191308443
vn -0.3533723354 0.9278489947 0.1192652881
vn 0.3357191384 0.9338129759 -0.1236363426
vn 0.3649476767 0.9309960008 0.007726009469
vn 0.9340634346 -0.2783772945 -0.2236775309
vn 0.9727283716 -0.0722687766 -0.2204012275
vn 0.4962819517 -0.6642141342 -0.559038341
vn 0.6930128932 -0.716501832 0.07973867655
vn 0.09888324887 -0.9950053096 -0.01365951356
vn 0.09587143362 -0.9950350523 -0.02671856806
vn 0.9889675975 0.08232465386 -0.1231492981
vn 0.9056549072 0.08106849343 -0.4161936343
vn 0.9601233006 -0.08269164711 -0.2670680285
vn 0.9870873094 -0.08243894577 -0.1373405457
vn -0.4603282809 -0.8843919039 0.07712842524
vn -0.123624377 -0.9913138747 0.04487620294
vn -0.4908979833 -0.8599846959 0.1394469589
vn -0.578777194 -0.6956691742 0.4255130887
vn -0.9027016163 -0.3885563314 0.1848074645
vn -0.2643209398 -0.9543378949 -0.1391890496
f 1//1 2//2 3//3 
f 3//3 2//2 4//4 
f 5//5 3//3 6//6 
f 6//6 3//3 4//4 
f 7//7 5//5 8//8 
f 8//8 5//5 6//6 
f 9//9 10//10 11//11 
f 11//11 10//10 12//12 
f 11//11 12//12 13//13 
f 7//7 8//8 13//13 
f 13//13 8//8 14//14 
f 13//13 14//14 11//11 
f 15//15 10//10 16//16 
f 16//16 10//10 9//9 
f 17//17 18//18 2//2 
f 2//2 18//18 4//4 
f 4//4 18//18 8//8 
f 4//4 8//8 6//6 
f 16//16 11//11 18//18 
f 18//18 11//11 14//14 
f 18//18 14//14 8//8 
f 16//16 9//9 11//11 
f 1//1 19//19 2//2 
f 2//2 19//19 17//17 
f 20//20 15//15 18//18 
f 18//18 15//15 16//16 
f 19//19 1//1 20//20 
f 20//20 1//1 3//3 
f 20//20 3//3 7//7 
f 7//7 3//3 5//5 
f 7//7 13//13 20//20 
f 20//20 13//13 12//12 
f 20//20 12//12 15//15 
f 15//15 12//12 10//10 
f 19//19 20//20 17//17 
f 17//17 20//20 18//18 
