v -55.15573883 46.75 -48.8972435
v -55.94771576 46.75 -52.32767487
v -55.6636467 46.75 -48.77998352
v -56.45562363 46.75 -52.21041489
v -56.4552002 46.66838837 -52.21051407
v -55.66322327 46.66838837 -48.7800827
v -56.45101929 46.69549561 -52.21147537
v -55.65904236 46.69549561 -48.78104782
v -55.65918732 46.72293854 -48.78101349
v -56.45116425 46.72293854 -52.21144485
v -56.4552002 46.45819855 -52.21051407
v -55.94771576 46.45819855 -52.32767487
v -55.66322327 46.45819855 -48.7800827
v -55.15573883 46.45819855 -48.8972435
vn 0.4945988953 0.8688934445 -0.0199019108
vn 0.4650741816 0.8716566563 -0.1546632499
vn -0.02452671342 0.9996528625 0.009622774087
vn -0.1041532755 0.9944315553 0.01606072485
vn -0.9956843257 0.01717059128 -0.09120232612
vn -0.9247076511 0.01783712767 0.3802599311
vn -0.9853057861 0.0755128935 0.1532002091
vn -0.9291939139 0.07492275536 0.3619188666
vn -0.9516461492 -0.08614183962 0.2948715389
vn -0.9931138754 -0.08545403928 0.08013989776
vn -0.6217544675 -0.7773169875 0.09591536224
vn 0.2468085289 -0.9606705308 -0.1272699386
vn -0.1860643774 -0.9798238873 0.07297426462
vn 0.74497509 -0.6628638506 -0.07499092817
f 1//1 2//2 3//3 
f 3//3 2//2 4//4 
f 5//5 6//6 7//7 
f 7//7 6//6 8//8 
f 7//7 8//8 9//9 
f 3//3 4//4 9//9 
f 9//9 4//4 10//10 
f 9//9 10//10 7//7 
f 11//11 5//5 12//12 
f 12//12 5//5 2//2 
f 2//2 5//5 7//7 
f 2//2 7//7 10//10 
f 10//10 4//4 2//2 
f 13//13 6//6 11//11 
f 11//11 6//6 5//5 
f 1//1 14//14 2//2 
f 2//2 14//14 12//12 
f 13//13 14//14 6//6 
f 6//6 14//14 1//1 
f 6//6 1//1 8//8 
f 8//8 1//1 9//9 
f 9//9 1//1 3//3 
f 14//14 13//13 12//12 
f 12//12 13//13 11//11 
