v -55.09009552 38.75 -48.61292267
v -55.09009552 46.75 -48.61292267
v -55.5980072 38.75 -48.49566269
v -55.5980072 46.75 -48.49566269
v -55.61594009 46.75 -48.57527924
v -55.61594009 38.75 -48.57527924
v -55.6056633 46.75 -48.54983139
v -55.6056633 38.75 -48.54983139
v -55.59963226 38.75 -48.52305984
v -55.59963226 46.75 -48.52305984
v -55.15573883 46.75 -48.8972435
v -55.66322327 46.75 -48.7800827
v -55.66322327 38.75 -48.7800827
v -55.15573883 38.75 -48.8972435
vn 0.8755222559 -0.04842730239 0.4807447791
vn 0.4789572656 0.03502253443 0.8771393299
vn 0.1994791627 -0.001698165899 0.9799005985
vn 0.1213002279 0.003423976246 0.9926099777
vn -0.9715933204 0.03440435231 0.234142676
vn -0.9649285078 -0.05813513324 0.2559946775
vn -0.954049468 0.03191718087 0.2979444563
vn -0.9525949359 -0.0637370348 0.2974902093
vn -0.9896422625 -0.03230178729 0.1398740858
vn -0.988097012 0.06450270116 0.1396556795
vn 0.5770109296 0.02427945472 -0.8163754344
vn -0.4130366445 0.03074011579 -0.9101954699
vn -0.7860859632 -0.0487703681 -0.6161901951
vn 0.04621278867 -0.01755872741 -0.9987772703
f 1//1 2//2 3//3 
f 3//3 2//2 4//4 
f 5//5 6//6 7//7 
f 7//7 6//6 8//8 
f 7//7 8//8 9//9 
f 3//3 4//4 9//9 
f 9//9 4//4 10//10 
f 9//9 10//10 7//7 
f 11//11 12//12 2//2 
f 2//2 12//12 5//5 
f 2//2 5//5 7//7 
f 7//7 10//10 2//2 
f 2//2 10//10 4//4 
f 6//6 5//5 13//13 
f 13//13 5//5 12//12 
f 14//14 11//11 1//1 
f 1//1 11//11 2//2 
f 14//14 1//1 13//13 
f 13//13 1//1 6//6 
f 6//6 1//1 8//8 
f 8//8 1//1 9//9 
f 9//9 1//1 3//3 
f 13//13 12//12 14//14 
f 14//14 12//12 11//11 
