v 51.5758934 24.75 143.6412354
v 51.5758934 19.79166603 143.6412354
v 51.5758934 24.75 142.7349854
v 51.5758934 19.79166603 142.7349854
v -5.98876667 24.75 142.7349854
v -5.98876667 19.79166603 142.7349854
v -5.98876667 24.75 143.6412354
v -5.98876667 19.79166603 143.6412354
vn 0.007838676684 0.0910045132 0.9958196282
vn 0.02955954522 -0.3431767821 0.9388055801
vn 0.02955954522 0.3431767821 -0.9388055801
vn 0.007838676684 -0.0910045132 -0.9958196282
vn -0.007838676684 0.0910045132 -0.9958196282
vn -0.02955954522 -0.3431767821 -0.9388055801
vn -0.02955954522 0.3431767821 0.9388055801
vn -0.007838676684 -0.0910045132 0.9958196282
f 1//1 2//2 3//3 
f 3//3 2//2 4//4 
f 3//3 4//4 5//5 
f 5//5 4//4 6//6 
f 1//1 3//3 7//7 
f 7//7 3//3 5//5 
f 4//4 2//2 6//6 
f 6//6 2//2 8//8 
f 2//2 1//1 8//8 
f 8//8 1//1 7//7 
f 8//8 7//7 6//6 
f 6//6 7//7 5//5 
