v -71.55987549 19.578125 -128.5930328
v -71.55987549 19.5 -128.5930328
v -69.83378601 19.578125 -131.9806671
v -69.83378601 19.5 -131.9806671
v -71.44849396 19.578125 -128.5362854
v -69.72241211 19.578125 -131.9239197
v -71.44849396 19.5 -128.5362854
v -69.72241211 19.5 -131.9239197
v -70.85449219 19.5 -128.2336273
v -69.12841034 19.5 -131.6212616
v -70.85449219 19.75 -128.2336273
v -69.12841034 19.75 -131.6212616
v -71.60627747 19.75 -128.616684
v -69.88019562 19.75 -132.0043182
v -71.60627747 19.70833397 -128.616684
v -69.88019562 19.70833397 -132.0043182
v -69.88947296 19.5 -132.0090332
v -69.88947296 19.70833397 -132.0090332
v -71.61556244 19.70833397 -128.6213989
v -71.61556244 19.5 -128.6213989
vn 0.442553252 -0.8463029861 0.2965095341
vn 0.692851305 -0.6246536374 0.3602289557
vn 0.4863747954 -0.8475761414 0.2122599483
vn 0.7015480399 -0.6246160865 0.3430525661
vn -0.5866209269 -0.8089885116 0.03759583458
vn -0.158218205 -0.7179484367 -0.6778768897
vn -0.1129474863 -0.9929966331 -0.03464917839
vn -0.09906793386 -0.9931516647 -0.06192945689
vn 0.2942717969 -0.9355652928 0.1952478737
vn 0.3484049141 -0.9332864285 0.08712297678
vn 0.1081119031 0.9880087376 0.1102296039
vn 0.4912882745 0.8571591377 0.1546415389
vn -0.09251897782 0.9950990677 -0.03490149602
vn -0.01950597577 0.9996803403 -0.01608652622
vn -0.8893539906 0.3224532306 0.3241502345
vn -0.5670002699 0.1093683764 -0.8164246678
vn -0.8484708667 -0.2873103917 -0.4444659054
vn -0.8782485127 0.09942416847 -0.4677546322
vn -0.8948096633 0.02498411201 -0.4457481802
vn -0.8630602956 -0.2872609198 -0.415461272
f 1//1 2//2 3//3 
f 3//3 2//2 4//4 
f 1//1 3//3 5//5 
f 5//5 3//3 6//6 
f 7//7 5//5 8//8 
f 8//8 5//5 6//6 
f 7//7 8//8 9//9 
f 9//9 8//8 10//10 
f 11//11 9//9 12//12 
f 12//12 9//9 10//10 
f 13//13 11//11 14//14 
f 14//14 11//11 12//12 
f 15//15 13//13 16//16 
f 16//16 13//13 14//14 
f 4//4 17//17 3//3 
f 3//3 17//17 18//18 
f 3//3 18//18 16//16 
f 14//14 12//12 16//16 
f 16//16 12//12 6//6 
f 16//16 6//6 3//3 
f 12//12 10//10 6//6 
f 6//6 10//10 8//8 
f 19//19 15//15 18//18 
f 18//18 15//15 16//16 
f 20//20 17//17 2//2 
f 2//2 17//17 4//4 
f 2//2 1//1 20//20 
f 20//20 1//1 19//19 
f 19//19 1//1 15//15 
f 15//15 1//1 5//5 
f 15//15 5//5 11//11 
f 11//11 5//5 9//9 
f 9//9 5//5 7//7 
f 11//11 13//13 15//15 
f 20//20 19//19 17//17 
f 17//17 19//19 18//18 
