v -64.3859024 0.4166666567 -142.6727448
v -64.44158936 0.4166666567 -142.7011108
v -66.10728455 0.4166666567 -139.294342
v -66.1629715 0.4166666567 -139.3227234
v -64.3859024 0.3385416567 -142.6727448
v -66.10728455 0.3385416567 -139.294342
v -64.2745285 0.3385416567 -142.6159973
v -65.99590302 0.3385416567 -139.2375946
v -64.2745285 0.4166666567 -142.6159973
v -65.99590302 0.4166666567 -139.2375946
v -63.68052292 0.4166666567 -142.3133392
v -65.40190125 0.4166666567 -138.9349365
v -63.68052292 0.1666666716 -142.3133392
v -65.40190125 0.1666666716 -138.9349365
v -64.43231201 0.1666666716 -142.6963959
v -66.15368652 0.1666666716 -139.3179932
v -66.1629715 0.2083333284 -139.3227234
v -66.15368652 0.2083333284 -139.3179932
v -64.44158936 0.2083333284 -142.7011108
v -64.43231201 0.2083333284 -142.6963959
vn 0.8307366371 0.3713563979 0.4146939218
vn -0.7550697327 0.5143913031 -0.4065357149
vn 0.4682546258 0.8479614854 0.2483926862
vn -0.8861796856 0.1483363062 -0.4389554858
vn 0.2818228304 0.953871429 0.1034660563
vn 0.6737462282 0.6240243912 0.3958024979
vn -0.4398724139 0.5665957928 -0.6967650056
vn -0.4022415578 0.89956671 0.1702392846
vn -0.04744660854 0.9982349873 -0.03571718186
vn -0.2123857439 0.9734202027 -0.0857052803
vn 0.5646824241 0.7980898619 0.2102055103
vn 0.1447646618 0.9819844961 0.1214482784
vn 0.2951892912 -0.9544447064 0.04357347637
vn 0.2311543077 -0.9577043056 0.1713773012
vn -0.04145466909 -0.9987678528 -0.02728114836
vn -0.04892673343 -0.9987227321 -0.01261181571
vn -0.8979979753 -0.04994750768 -0.4371553957
vn -0.9763793945 -0.2149489969 0.02191409282
vn -0.8857324719 -0.04992042109 -0.4615040123
vn -0.2700439394 -0.1675880253 -0.9481511116
f 1//1 2//2 3//3 
f 3//3 2//2 4//4 
f 5//5 1//1 6//6 
f 6//6 1//1 3//3 
f 7//7 5//5 8//8 
f 8//8 5//5 6//6 
f 9//9 7//7 10//10 
f 10//10 7//7 8//8 
f 11//11 9//9 12//12 
f 12//12 9//9 10//10 
f 13//13 11//11 14//14 
f 14//14 11//11 12//12 
f 13//13 14//14 15//15 
f 15//15 14//14 16//16 
f 4//4 17//17 6//6 
f 6//6 17//17 18//18 
f 6//6 18//18 8//8 
f 8//8 18//18 14//14 
f 8//8 14//14 12//12 
f 18//18 16//16 14//14 
f 12//12 10//10 8//8 
f 6//6 3//3 4//4 
f 2//2 19//19 4//4 
f 4//4 19//19 17//17 
f 20//20 15//15 18//18 
f 18//18 15//15 16//16 
f 20//20 19//19 5//5 
f 5//5 19//19 2//2 
f 5//5 2//2 1//1 
f 5//5 7//7 20//20 
f 20//20 7//7 13//13 
f 20//20 13//13 15//15 
f 9//9 11//11 7//7 
f 7//7 11//11 13//13 
f 20//20 18//18 19//19 
f 19//19 18//18 17//17 
