v -59.23680115 0.4166666567 -152.7784271
v -59.29249191 0.4166666567 -152.8067932
v -60.65939713 0.4166666567 -149.9864197
v -60.71508408 0.4166666567 -150.014801
v -59.23680115 0.3385416567 -152.7784271
v -60.65939713 0.3385416567 -149.9864197
v -59.12542725 0.3385416567 -152.7216644
v -60.54801941 0.3385416567 -149.9296722
v -59.12542725 0.4166666567 -152.7216644
v -60.54801941 0.4166666567 -149.9296722
v -58.53142166 0.4166666567 -152.4190063
v -59.95401764 0.4166666567 -149.6270142
v -58.53142166 0.1666666716 -152.4190063
v -59.95401764 0.1666666716 -149.6270142
v -59.28320694 0.1666666716 -152.802063
v -60.70580292 0.1666666716 -150.0100708
v -60.71508408 0.2083333284 -150.014801
v -60.70580292 0.2083333284 -150.0100708
v -59.29249191 0.2083333284 -152.8067932
v -59.28320694 0.2083333284 -152.802063
vn 0.8314492106 0.371368885 0.4132521749
vn -0.7531458139 0.5143562555 -0.4101329148
vn 0.4674044847 0.8479529023 0.2500179112
vn -0.8872230649 0.1483319402 -0.4368442297
vn 0.2851493359 0.9535883665 0.09674221277
vn 0.6689527035 0.6236979961 0.4043551087
vn -0.3842064142 0.5446437001 -0.7454855442
vn -0.4232726097 0.8771083355 0.2269829959
vn -0.04646480829 0.9982104897 -0.03764092177
vn -0.2142779827 0.9733293653 -0.0819446519
vn 0.5706359744 0.7972078919 0.1970638186
vn 0.1406540722 0.9815732837 0.1293459535
vn 0.3036288917 -0.9524435401 0.0257068947
vn 0.226480782 -0.9571976066 0.1802199483
vn -0.04093113169 -0.998760879 -0.02830809355
vn -0.04997175932 -0.9986948371 -0.01055781916
vn -0.8996632099 -0.049927257 -0.4337203503
vn -0.9732544422 -0.2050988972 0.1034901589
vn -0.8848477602 -0.04994453862 -0.4631954432
vn -0.1804872304 -0.1505691856 -0.9719842076
f 1//1 2//2 3//3 
f 3//3 2//2 4//4 
f 5//5 1//1 6//6 
f 6//6 1//1 3//3 
f 7//7 5//5 8//8 
f 8//8 5//5 6//6 
f 9//9 7//7 10//10 
f 10//10 7//7 8//8 
f 11//11 9//9 12//12 
f 12//12 9//9 10//10 
f 13//13 11//11 14//14 
f 14//14 11//11 12//12 
f 13//13 14//14 15//15 
f 15//15 14//14 16//16 
f 4//4 17//17 6//6 
f 6//6 17//17 18//18 
f 6//6 18//18 8//8 
f 8//8 18//18 14//14 
f 8//8 14//14 12//12 
f 18//18 16//16 14//14 
f 12//12 10//10 8//8 
f 6//6 3//3 4//4 
f 2//2 19//19 4//4 
f 4//4 19//19 17//17 
f 20//20 15//15 18//18 
f 18//18 15//15 16//16 
f 20//20 19//19 5//5 
f 5//5 19//19 2//2 
f 5//5 2//2 1//1 
f 5//5 7//7 20//20 
f 20//20 7//7 13//13 
f 20//20 13//13 15//15 
f 9//9 11//11 7//7 
f 7//7 11//11 13//13 
f 20//20 18//18 19//19 
f 19//19 18//18 17//17 
