v -78.91359711 0.4166666567 -114.1605377
v -78.96928406 0.4166666567 -114.1889114
v -80.63497925 0.4166666567 -110.782135
v -80.6906662 0.4166666567 -110.8105087
v -78.91359711 0.3385416567 -114.1605377
v -80.63497925 0.3385416567 -110.782135
v -78.80222321 0.3385416567 -114.1037827
v -80.52360535 0.3385416567 -110.7253876
v -78.80222321 0.4166666567 -114.1037827
v -80.52360535 0.4166666567 -110.7253876
v -78.20821381 0.4166666567 -113.8011246
v -79.92959595 0.4166666567 -110.4227295
v -78.20821381 0.1666666716 -113.8011246
v -79.92959595 0.1666666716 -110.4227295
v -78.96000671 0.1666666716 -114.1841812
v -80.68138123 0.1666666716 -110.8057785
v -80.6906662 0.2083333284 -110.8105087
v -80.68138123 0.2083333284 -110.8057785
v -78.96928406 0.2083333284 -114.1889114
v -78.96000671 0.2083333284 -114.1841812
vn 0.830730617 0.3713738322 0.4146904051
vn -0.7550698519 0.5143915415 -0.4065352082
vn 0.4682548344 0.8479614854 0.2483922392
vn -0.8861812353 0.1483284384 -0.4389549792
vn 0.2818316817 0.9538686275 0.1034674048
vn 0.673761785 0.6240036488 0.3958086371
vn -0.4398657084 0.5666046739 -0.6967620254
vn -0.4022435844 0.8995653987 0.1702414751
vn -0.04744618386 0.9982349873 -0.03571712598
vn -0.2123834342 0.9734207392 -0.08570476621
vn 0.5646802187 0.7980914712 0.2102053463
vn 0.1447633654 0.9819846749 0.1214481816
vn 0.2951880693 -0.9544450641 0.0435731858
vn 0.2311541736 -0.9577041864 0.1713779718
vn -0.04145469889 -0.9987678528 -0.02728119306
vn -0.04892683402 -0.9987227321 -0.01261186786
vn -0.8979983926 -0.04994750768 -0.4371546209
vn -0.9763656855 -0.2150114626 0.02191031724
vn -0.8857321143 -0.04993748665 -0.4615028799
vn -0.2700261176 -0.1677035093 -0.9481357336
f 1//1 2//2 3//3 
f 3//3 2//2 4//4 
f 5//5 1//1 6//6 
f 6//6 1//1 3//3 
f 7//7 5//5 8//8 
f 8//8 5//5 6//6 
f 9//9 7//7 10//10 
f 10//10 7//7 8//8 
f 11//11 9//9 12//12 
f 12//12 9//9 10//10 
f 13//13 11//11 14//14 
f 14//14 11//11 12//12 
f 13//13 14//14 15//15 
f 15//15 14//14 16//16 
f 4//4 17//17 6//6 
f 6//6 17//17 18//18 
f 6//6 18//18 8//8 
f 8//8 18//18 14//14 
f 8//8 14//14 12//12 
f 18//18 16//16 14//14 
f 12//12 10//10 8//8 
f 6//6 3//3 4//4 
f 2//2 19//19 4//4 
f 4//4 19//19 17//17 
f 20//20 15//15 18//18 
f 18//18 15//15 16//16 
f 20//20 19//19 5//5 
f 5//5 19//19 2//2 
f 5//5 2//2 1//1 
f 5//5 7//7 20//20 
f 20//20 7//7 13//13 
f 20//20 13//13 15//15 
f 9//9 11//11 7//7 
f 7//7 11//11 13//13 
f 20//20 18//18 19//19 
f 19//19 18//18 17//17 
