v 47.03943634 23.8125 138.7349854
v 47.03943634 23.75 138.7349854
v 47.03943634 23.8125 72.93289948
v 47.03943634 23.75 72.93289948
v 33.94047546 23.75 72.93289948
v 1.039434671 23.75 138.7349854
v 33.94047546 23.8125 72.93289948
v 1.039434671 23.8125 138.7349854
vn 0.001057546469 0.9999983311 0.001478589489
vn 0.002115091076 -0.9999974966 0.0007392941043
vn 0.00954230316 0.9999540448 -0.0009497742285
vn 0.004771308042 -0.9999868274 -0.001899610739
vn -0.002115089912 -0.9999969602 -0.001268066233
vn -0.001358693349 -0.9999983311 0.001220286009
vn -0.001057547051 0.9999989867 -0.0009498169529
vn -0.002717380878 0.9999962449 -0.000408876047
f 1//1 2//2 3//3 
f 3//3 2//2 4//4 
f 4//4 2//2 5//5 
f 5//5 2//2 6//6 
f 3//3 7//7 1//1 
f 1//1 7//7 8//8 
f 8//8 6//6 1//1 
f 1//1 6//6 2//2 
f 3//3 4//4 7//7 
f 7//7 4//4 5//5 
f 7//7 5//5 8//8 
f 8//8 5//5 6//6 
