v -103.2001495 -4.583333492 93.99983978
v -103.2001495 -3.583333254 93.99983978
v -103.2001495 -4.583333492 26.85998535
v -103.2001495 -3.583333254 26.85998535
v -103.0068207 -3.583333254 95.27333069
v -103.0068207 -4.583333492 95.27333069
v -102.7590027 -3.583333254 96.53734589
v -102.7590027 -4.583333492 96.53734589
v -102.4571609 -3.583333254 97.78955841
v -102.4571609 -4.583333492 97.78955841
v -81.72098541 -4.583333492 175.2766571
v -81.72098541 -3.583333254 175.2766571
v -93.39438629 -4.583333492 175.2766571
v -93.39438629 -3.583333254 175.2766571
v -81.72098541 -4.583333492 141.0266571
v -81.72098541 -3.583333254 141.0266571
v -89.15848541 -4.583333492 26.85998535
v -89.15848541 -3.583333254 26.85998535
v -89.15848541 -4.583333492 111.6933212
v -89.15848541 -3.583333254 111.6933212
v -88.11681366 -4.583333492 111.6933212
v -88.11681366 -3.583333254 111.6933212
v -88.11681366 -4.583333492 125.6933212
v -88.11681366 -3.583333254 125.6933212
v -89.15848541 -3.583333254 141.0266571
v -95.23091125 -3.583333254 173.4312439
v -97.20014954 -3.583333254 120.8717194
v -96.52882385 -3.583333254 171.1743011
v -97.20014954 -3.583333254 168.6587982
v -89.15848541 -3.583333254 125.6933212
v -97.38126373 -3.583333254 118.4325409
v -97.74114227 -3.583333254 116.0132599
v -98.27783966 -3.583333254 113.6269684
v -89.15848541 -4.583333492 141.0266571
v -89.15848541 -4.583333492 125.6933212
v -95.23091125 -4.583333492 173.4312439
v -97.20014954 -4.583333492 120.8717194
v -96.52882385 -4.583333492 171.1743011
v -97.20014954 -4.583333492 168.6587982
v -97.38126373 -4.583333492 118.4325409
v -97.74114227 -4.583333492 116.0132599
v -98.27783966 -4.583333492 113.6269684
vn -0.8115572929 -0.5842554569 0.004502929281
vn -0.9378290772 0.3470949233 0.001337551745
vn -0.1273358762 -0.9917702675 -0.0133155454
vn -0.06404139102 0.9975876808 -0.02678729966
vn -0.9862552881 0.018432023 0.1641972065
vn -0.9838037491 -0.01843203604 0.1782986671
vn -0.9758176208 0.07350143045 0.2058578879
vn -0.972771287 -0.0735014528 0.2198034525
vn -0.01180878654 0.9999255538 0.003079380142
vn -0.02119547129 -0.9997597933 0.005574843381
vn 0.1040675491 -0.9944121242 0.0177346319
vn 0.05222156271 0.9980008602 0.03559726849
vn -0.003916338086 -0.9985631704 0.05344408378
vn -0.007839536294 0.999437809 0.03259678185
vn 0.1330321282 -0.9894262552 -0.05777673051
vn 0.2595793307 0.9653104544 -0.02818425186
vn 0.03723371401 -0.9992305636 -0.01232589316
vn 0.07431726903 0.9972156882 -0.006150519475
vn 0.1702927351 -0.9853929877 -0.001045515528
vn 0.08737576008 0.9961730838 -0.002145780716
vn 0.6888816953 -0.7175884247 -0.1025126576
vn 0.6923004389 0.7211496234 -0.02575534955
vn 0.6923004389 -0.7211496234 0.02575534955
vn 0.6888816953 0.7175884247 0.1025126576
vn 0.01244858745 0.9998495579 -0.01207648125
vn -0.01228789985 0.9998878241 0.008564509451
vn -0.07137417048 0.9974495173 0.0004909054842
vn -0.07578445971 0.9967460632 0.0274581667
vn -0.950438261 0.3108453155 0.006504799705
vn 0.1149314493 0.9933657646 0.003903939854
vn -0.1107489765 0.9937719107 0.01233197283
vn -0.2081915885 0.9773164988 0.03884231672
vn -0.0261214152 0.9996355176 0.006821822841
vn 0.02489274926 -0.9996718764 -0.006037167273
vn 0.061101228 -0.9980970621 0.008301836438
vn -0.01149271242 -0.9998878241 0.009605255909
vn -0.1320056021 -0.9912489653 0.000243926901
vn -0.07309579104 -0.9967461228 0.03397379443
vn -0.8544956446 -0.5190041661 0.02172153257
vn -0.2174841017 -0.9757633805 0.02421700209
vn -0.1058921069 -0.994181335 0.01975629665
vn -0.01580943167 -0.9998669028 0.004029232543
f 1//1 2//2 3//3 
f 3//3 2//2 4//4 
f 2//2 1//1 5//5 
f 5//5 1//1 6//6 
f 5//5 6//6 7//7 
f 7//7 6//6 8//8 
f 7//7 8//8 9//9 
f 9//9 8//8 10//10 
f 11//11 12//12 13//13 
f 13//13 12//12 14//14 
f 15//15 16//16 11//11 
f 11//11 16//16 12//12 
f 17//17 18//18 19//19 
f 19//19 18//18 20//20 
f 19//19 20//20 21//21 
f 21//21 20//20 22//22 
f 21//21 22//22 23//23 
f 23//23 22//22 24//24 
f 16//16 25//25 12//12 
f 12//12 25//25 14//14 
f 14//14 25//25 26//26 
f 26//26 25//25 27//27 
f 26//26 27//27 28//28 
f 28//28 27//27 29//29 
f 25//25 30//30 27//27 
f 27//27 30//30 20//20 
f 27//27 20//20 31//31 
f 31//31 20//20 32//32 
f 32//32 20//20 33//33 
f 33//33 20//20 18//18 
f 33//33 18//18 9//9 
f 9//9 18//18 4//4 
f 9//9 4//4 2//2 
f 24//24 22//22 30//30 
f 30//30 22//22 20//20 
f 5//5 7//7 2//2 
f 2//2 7//7 9//9 
f 34//34 25//25 15//15 
f 15//15 25//25 16//16 
f 23//23 24//24 35//35 
f 35//35 24//24 30//30 
f 15//15 11//11 34//34 
f 34//34 11//11 13//13 
f 34//34 13//13 36//36 
f 34//34 36//36 37//37 
f 37//37 36//36 38//38 
f 37//37 38//38 39//39 
f 40//40 19//19 37//37 
f 37//37 19//19 35//35 
f 37//37 35//35 34//34 
f 40//40 41//41 19//19 
f 19//19 41//41 42//42 
f 19//19 42//42 17//17 
f 17//17 42//42 10//10 
f 17//17 10//10 3//3 
f 3//3 10//10 1//1 
f 1//1 10//10 8//8 
f 1//1 8//8 6//6 
f 21//21 23//23 19//19 
f 19//19 23//23 35//35 
f 35//35 30//30 34//34 
f 34//34 30//30 25//25 
f 3//3 4//4 17//17 
f 17//17 4//4 18//18 
f 42//42 33//33 10//10 
f 10//10 33//33 9//9 
f 33//33 42//42 32//32 
f 32//32 42//42 41//41 
f 32//32 41//41 40//40 
f 37//37 27//27 40//40 
f 40//40 27//27 31//31 
f 40//40 31//31 32//32 
f 39//39 29//29 37//37 
f 37//37 29//29 27//27 
f 29//29 39//39 28//28 
f 28//28 39//39 38//38 
f 28//28 38//38 26//26 
f 26//26 38//38 36//36 
f 26//26 36//36 14//14 
f 14//14 36//36 13//13 
