v -64.30822754 13.859375 -142.7792969
v -63.91334915 13.859375 -143.5542908
v -64.23397827 13.859375 -142.7414703
v -63.83909607 13.859375 -143.5164642
v -64.30822754 19.578125 -142.7792969
v -64.23397827 19.578125 -142.7414703
v -63.91334915 19.578125 -143.5542908
v -63.83909607 19.578125 -143.5164642
v -62.44165802 13.859375 -146.2590942
v -62.44165802 19.578125 -146.2590942
v -62.51590729 19.578125 -146.2969208
v -62.51590729 13.859375 -146.2969208
vn -0.960423708 -0.01430962514 -0.2781753838
vn -0.8909118772 -0.01457021944 -0.4539424181
vn 0.868170619 -0.01455328334 0.496052444
vn 0.8909119964 -0.01457006391 0.4539422691
vn -0.9116842747 0.007277119439 -0.4108269811
vn 0.7893303633 0.02861040272 0.6133016944
vn -0.8909618258 0.00999127049 -0.4539682269
vn 0.890805006 0.02124609239 0.4538887441
vn 0.9141513705 -0.01454846747 0.4051118195
vn 0.8970458508 0.007284781896 0.4418773949
vn -0.864792645 0.02908810601 -0.5012859106
vn -0.884686172 -0.01456867438 -0.4659593105
f 1//1 2//2 3//3 
f 3//3 2//2 4//4 
f 5//5 1//1 6//6 
f 6//6 1//1 3//3 
f 5//5 6//6 7//7 
f 7//7 6//6 8//8 
f 9//9 10//10 4//4 
f 4//4 10//10 8//8 
f 4//4 8//8 3//3 
f 3//3 8//8 6//6 
f 7//7 8//8 11//11 
f 11//11 8//8 10//10 
f 2//2 12//12 4//4 
f 4//4 12//12 9//9 
f 11//11 12//12 7//7 
f 7//7 12//12 2//2 
f 7//7 2//2 5//5 
f 5//5 2//2 1//1 
f 12//12 11//11 9//9 
f 9//9 11//11 10//10 
