v -78.83592224 19.578125 -114.2670898
v -78.83592224 13.859375 -114.2670898
v -78.76167297 19.578125 -114.2292633
v -78.76167297 13.859375 -114.2292633
v -76.96935272 13.859375 -117.7468796
v -76.96935272 19.578125 -117.7468796
v -77.04360199 19.578125 -117.7847137
v -77.04360199 13.859375 -117.7847137
vn -0.8957239389 0.0072850422 -0.4445509017
vn -0.909265101 -0.01455680002 -0.4159628451
vn 0.8706962466 0.02910483815 0.4909592271
vn 0.8860713243 -0.014569222 0.4633198977
vn 0.909265399 -0.01455735415 0.4159621
vn 0.8957237601 0.007285338826 0.4445512891
vn -0.8706957698 0.02910488658 -0.4909600616
vn -0.8860715628 -0.01456920989 -0.4633194804
f 1//1 2//2 3//3 
f 3//3 2//2 4//4 
f 5//5 6//6 4//4 
f 4//4 6//6 3//3 
f 1//1 3//3 7//7 
f 7//7 3//3 6//6 
f 2//2 8//8 4//4 
f 4//4 8//8 5//5 
f 2//2 1//1 8//8 
f 8//8 1//1 7//7 
f 8//8 7//7 5//5 
f 5//5 7//7 6//6 
