v -77.0199585 19.578125 -117.8311157
v -77.0199585 13.859375 -117.8311157
v -76.94570923 19.578125 -117.7932892
v -76.94570923 13.859375 -117.7932892
v -75.15338898 13.859375 -121.3109055
v -75.15338898 19.578125 -121.3109055
v -75.22764587 19.578125 -121.3487396
v -75.22764587 13.859375 -121.3487396
vn -0.8957247138 0.0072850422 -0.4445493519
vn -0.9092658162 -0.01455679908 -0.4159612358
vn 0.870696187 0.02910601161 0.4909592271
vn 0.8860713243 -0.01456980966 0.4633198977
vn 0.9092668891 -0.01455856487 0.4159589112
vn 0.8957241774 0.00728593627 0.4445505142
vn -0.8706949353 0.02910603397 -0.4909615219
vn -0.8860719204 -0.01456980407 -0.4633187354
f 1//1 2//2 3//3 
f 3//3 2//2 4//4 
f 5//5 6//6 4//4 
f 4//4 6//6 3//3 
f 1//1 3//3 7//7 
f 7//7 3//3 6//6 
f 2//2 8//8 4//4 
f 4//4 8//8 5//5 
f 2//2 1//1 8//8 
f 8//8 1//1 7//7 
f 8//8 7//7 5//5 
f 5//5 7//7 6//6 
