v -80.65188599 19.578125 -110.703064
v -80.65188599 13.859375 -110.703064
v -80.57763672 19.578125 -110.6652374
v -80.57763672 13.859375 -110.6652374
v -78.78531647 13.859375 -114.1828537
v -78.78531647 19.578125 -114.1828537
v -78.85956573 19.578125 -114.2206879
v -78.85956573 13.859375 -114.2206879
vn -0.8957239389 0.0072850422 -0.4445509017
vn -0.909265101 -0.01455680002 -0.4159628451
vn 0.8706962466 0.02910483815 0.4909592271
vn 0.8860713243 -0.014569222 0.4633198977
vn 0.909265399 -0.01455735415 0.4159621
vn 0.8957237601 0.007285338826 0.4445512891
vn -0.8706957698 0.02910488658 -0.4909600616
vn -0.8860715628 -0.01456920989 -0.4633194804
f 1//1 2//2 3//3 
f 3//3 2//2 4//4 
f 5//5 6//6 4//4 
f 4//4 6//6 3//3 
f 1//1 3//3 7//7 
f 7//7 3//3 6//6 
f 2//2 8//8 4//4 
f 4//4 8//8 5//5 
f 2//2 1//1 8//8 
f 8//8 1//1 7//7 
f 8//8 7//7 5//5 
f 5//5 7//7 6//6 
