v -67.927948 9.338541985 -135.7210846
v -67.927948 9.260416985 -135.7210846
v -66.20186615 9.338541985 -139.1087189
v -66.20186615 9.260416985 -139.1087189
v -67.8165741 9.338541985 -135.6643372
v -66.09048462 9.338541985 -139.0519714
v -67.8165741 9.260416985 -135.6643372
v -66.09048462 9.260416985 -139.0519714
v -67.22257233 9.260416985 -135.3616791
v -65.49648285 9.260416985 -138.7493134
v -67.22257233 9.46875 -135.3616791
v -65.49648285 9.46875 -138.7493134
v -67.8165741 9.46875 -135.6643372
v -66.09048462 9.46875 -139.0519714
v -67.8165741 9.390625 -135.6643372
v -66.09048462 9.390625 -139.0519714
v -67.927948 9.390625 -135.7210846
v -66.20186615 9.390625 -139.1087189
v -67.927948 9.46875 -135.7210846
v -66.20186615 9.46875 -139.1087189
v -66.2575531 9.260416985 -139.137085
v -66.2575531 9.46875 -139.137085
v -67.98363495 9.46875 -135.7494507
v -67.98363495 9.260416985 -135.7494507
vn 0.4547768235 -0.8473894596 0.2740604579
vn 0.6928519607 -0.6246536374 0.360227704
vn 0.483287245 -0.8477432728 0.2185516953
vn 0.7015486956 -0.6246160865 0.3430512846
vn -0.5545045733 -0.8303698897 -0.05486799404
vn -0.3852938712 -0.8348665833 -0.3931238651
vn -0.112947382 -0.9929966331 -0.03464937955
vn -0.099067837 -0.9931516647 -0.06192963198
vn 0.249280557 -0.9538632631 0.1673443466
vn 0.3032565117 -0.951051116 0.05947455019
vn 0.1174678355 0.987057507 0.1091734543
vn 0.5002194047 0.8462720513 0.183314383
vn -0.2123608887 0.9734212756 -0.0857546404
vn -0.04745941237 0.9982352853 -0.03569239005
vn -0.3097194135 0.9497210383 -0.04586718976
vn -0.5329155326 0.5974977016 -0.5991640687
vn 0.6788064241 0.6242737174 0.3866576552
vn 0.2753455937 0.9542657137 0.116454713
vn 0.4682854712 0.8479480743 0.2483804226
vn 0.8307276964 0.3713564575 0.4147117734
vn -0.8484713435 -0.2873116136 -0.4444642365
vn -0.7534513474 0.5143322945 -0.4096014798
vn -0.8861688375 0.1483208537 -0.4389825463
vn -0.8647668958 -0.287235558 -0.4119150043
f 1//1 2//2 3//3 
f 3//3 2//2 4//4 
f 1//1 3//3 5//5 
f 5//5 3//3 6//6 
f 7//7 5//5 8//8 
f 8//8 5//5 6//6 
f 7//7 8//8 9//9 
f 9//9 8//8 10//10 
f 11//11 9//9 12//12 
f 12//12 9//9 10//10 
f 13//13 11//11 14//14 
f 14//14 11//11 12//12 
f 15//15 13//13 16//16 
f 16//16 13//13 14//14 
f 17//17 15//15 18//18 
f 18//18 15//15 16//16 
f 19//19 17//17 20//20 
f 20//20 17//17 18//18 
f 4//4 21//21 3//3 
f 3//3 21//21 22//22 
f 3//3 22//22 18//18 
f 18//18 22//22 20//20 
f 3//3 18//18 6//6 
f 6//6 18//18 16//16 
f 6//6 16//16 10//10 
f 10//10 16//16 12//12 
f 12//12 16//16 14//14 
f 10//10 8//8 6//6 
f 23//23 19//19 22//22 
f 22//22 19//19 20//20 
f 24//24 21//21 2//2 
f 2//2 21//21 4//4 
f 2//2 1//1 24//24 
f 24//24 1//1 17//17 
f 24//24 17//17 23//23 
f 23//23 17//17 19//19 
f 17//17 1//1 15//15 
f 15//15 1//1 5//5 
f 15//15 5//5 11//11 
f 11//11 5//5 9//9 
f 9//9 5//5 7//7 
f 11//11 13//13 15//15 
f 24//24 23//23 21//21 
f 21//21 23//23 22//22 
