v 50.98735046 0.1666666716 111.0179825
v 50.98735046 0.1666666716 110.0474854
v 51.94568634 0.1666666716 111.0179825
v 51.94568634 0.1666666716 110.0474854
v 51.94568634 2.354166746 111.0179825
v 50.98735046 2.354166746 111.0179825
v 51.94568634 2.354166746 110.0474854
v 50.98735046 2.354166746 110.0474854
v 50.98735046 0.5625 95.01798248
v 50.98735046 2.354166746 95.01798248
v 51.94568634 0.5625 95.01798248
v 51.94568634 2.354166746 95.01798248
v 51.94568634 0.5625 105.8391495
v 50.98735046 0.5625 105.8391495
v 51.94568634 2.354166746 105.8391495
v 50.98735046 2.354166746 105.8391495
vn -0.4431416988 -0.1941387802 0.875177443
vn -0.8345797062 -0.3656263351 -0.4120607972
vn 0.8345797062 -0.3656263351 0.4120607972
vn 0.4431416988 -0.1941387802 -0.875177443
vn 0.4431416988 0.1941387802 0.875177443
vn -0.8345797062 0.3656263351 0.4120607972
vn 0.8345797062 0.3656263351 -0.4120607972
vn -0.4431416988 0.1941387802 -0.875177443
vn -0.8811126947 -0.4712940753 -0.03901621327
vn -0.8712221384 0.4660037458 -0.154313013
vn 0.8712221384 -0.4660037458 -0.154313013
vn 0.8811126947 0.4712940753 -0.03901621327
vn 0.8811126947 -0.4712940753 0.03901621327
vn -0.8712221384 -0.4660037458 0.154313013
vn 0.8712221384 0.4660037458 0.154313013
vn -0.8811126947 0.4712940753 0.03901621327
f 1//1 2//2 3//3 
f 3//3 2//2 4//4 
f 3//3 5//5 1//1 
f 1//1 5//5 6//6 
f 7//7 4//4 8//8 
f 8//8 4//4 2//2 
f 5//5 3//3 7//7 
f 7//7 3//3 4//4 
f 1//1 6//6 2//2 
f 2//2 6//6 8//8 
f 8//8 6//6 7//7 
f 7//7 6//6 5//5 
f 9//9 10//10 11//11 
f 11//11 10//10 12//12 
f 11//11 13//13 9//9 
f 9//9 13//13 14//14 
f 15//15 12//12 16//16 
f 16//16 12//12 10//10 
f 11//11 12//12 13//13 
f 13//13 12//12 15//15 
f 10//10 9//9 16//16 
f 16//16 9//9 14//14 
f 16//16 14//14 15//15 
f 15//15 14//14 13//13 
