v -36.4084816 11 -111.3066788
v -36.4084816 0.1666666716 -111.3066788
v -36.4084816 11 -111.4316788
v -36.4084816 0.1666666716 -111.4316788
v -37.77306366 0.1666666716 -111.3066788
v -37.77306366 11 -111.3066788
v -37.77306366 0.1666666716 -111.4316788
v -37.77306366 11 -111.4316788
vn 0.0457528457 0.005763093475 0.9989361763
vn 0.1801605523 -0.02269327827 0.9833754301
vn 0.1801605523 0.02269327827 -0.9833754301
vn 0.0457528457 -0.005763093475 -0.9989361763
vn -0.0457528457 -0.005763093475 0.9989361763
vn -0.1801605523 0.02269327827 0.9833754301
vn -0.1801605523 -0.02269327827 -0.9833754301
vn -0.0457528457 0.005763093475 -0.9989361763
f 1//1 2//2 3//3 
f 3//3 2//2 4//4 
f 2//2 1//1 5//5 
f 5//5 1//1 6//6 
f 5//5 7//7 2//2 
f 2//2 7//7 4//4 
f 1//1 3//3 6//6 
f 6//6 3//3 8//8 
f 7//7 8//8 4//4 
f 4//4 8//8 3//3 
f 5//5 6//6 7//7 
f 7//7 6//6 8//8 
