v -70.87824249 13.578125 -44.90232849
v -70.87824249 9.390625 -44.90232849
v -70.95871735 13.578125 -44.9239769
v -70.95871735 9.390625 -44.9239769
v -71.99287415 9.390625 -41.07932281
v -71.99287415 13.578125 -41.07932281
v -71.91239929 13.578125 -41.05767822
v -71.91239929 9.390625 -41.05767822
vn 0.9682926536 0.009949503466 0.2496203333
vn 0.9755018353 -0.01987972297 0.2190912366
vn -0.9532120228 0.03973571584 -0.2996797562
vn -0.9627133012 -0.01989593543 -0.2697912157
vn -0.9755017757 -0.01987952366 -0.2190914452
vn -0.9682927132 0.009949389845 -0.249620229
vn 0.9532120824 0.03973567858 0.2996794879
vn 0.9627132416 -0.01989594288 0.2697913349
f 1//1 2//2 3//3 
f 3//3 2//2 4//4 
f 5//5 6//6 4//4 
f 4//4 6//6 3//3 
f 1//1 3//3 7//7 
f 7//7 3//3 6//6 
f 2//2 8//8 4//4 
f 4//4 8//8 5//5 
f 2//2 1//1 8//8 
f 8//8 1//1 7//7 
f 8//8 7//7 5//5 
f 5//5 7//7 6//6 
