v -77.89002991 0.1666666716 -26.26174164
v -77.86134338 0.1666666716 -26.16589165
v -77.96807098 0.1666666716 -26.06857681
v -77.88085175 0.1666666716 -26.11760139
v -77.9101181 0.1666666716 -26.04516411
v -77.83207703 0.1666666716 -26.23832703
v -77.74544525 0.1666666716 -26.11906624
v -77.76495361 0.1666666716 -26.07077408
v -77.09806061 0.1666666716 -25.94176483
v -77.79421997 0.1666666716 -25.9983387
v -77.17610168 0.1666666716 -25.74860191
v -77.71617889 0.1666666716 -26.19150162
v -77.86134338 2.275906324 -26.16589165
v -77.74544525 2.275906324 -26.11906624
v -77.17610168 2.245486021 -25.74860191
v -77.79421997 2.245486021 -25.9983387
v -77.76495361 2.263738155 -26.07077408
v -77.88085175 2.263738155 -26.11760139
v -77.9101181 2.245486021 -26.04516411
v -77.96807098 2.245486021 -26.06857681
v -77.71617889 2.294158697 -26.19150162
v -77.73389435 2.283110142 -26.14765358
v -77.84979248 2.283110142 -26.1944809
v -77.83207703 2.294158697 -26.23832703
v -77.90774536 2.283110142 -26.2178936
v -77.89002991 2.294158697 -26.26174164
v -77.11577606 2.283110142 -25.89791679
v -77.09806061 2.294158697 -25.94176483
vn -0.8106899858 -0.03209213912 -0.5845954418
vn 0.8893964887 -0.07878343761 -0.4502965808
vn -0.9978244305 -0.02585715242 -0.06064476073
vn 0.1717077345 -0.03424668312 0.9845525026
vn 0.4898510873 -0.02347112261 0.8714901209
vn 0.9204288721 -0.01298187021 -0.3906944394
vn -0.02751695365 -0.1709235162 -0.9848999977
vn -0.9344642758 -0.2176280767 0.2818057835
vn 0.5393392444 -0.09574469924 -0.836627841
vn -0.4271909297 -0.06861869991 0.9015538692
vn 0.1254885644 -0.08711793274 0.9882626534
vn 0.1971782893 -0.03606871888 -0.9797039032
vn 0.4857177734 0.02211504988 -0.8738359213
vn 0.1225860268 0.2576839924 -0.9584214091
vn -0.2615669072 0.03808664158 0.9644336104
vn -0.5689290166 0.1085589677 0.8151899576
vn -0.6170434952 0.1615271717 0.770172894
vn 0.1608631313 0.09854079038 0.9820451736
vn 0.489952594 0.01168668829 0.871670723
vn -0.9991297722 0.04144496471 -0.004697208293
vn 0.341398865 0.01113559026 -0.9398525357
vn -0.9188762903 0.2445118427 -0.3096454144
vn 0.9257839322 0.01475110371 0.3777652085
vn 0.860186398 0.03566548973 -0.5087311268
vn -0.9290158153 0.0241390802 -0.3692518473
vn 0.02144292183 0.01041850075 -0.9997158051
vn 0.8672081232 0.2699878514 0.418397665
vn 0.4395003319 0.04476421699 -0.897126317
f 1//1 2//2 3//3 
f 3//3 2//2 4//4 
f 3//3 4//4 5//5 
f 1//1 6//6 2//2 
f 2//2 7//7 4//4 
f 4//4 7//7 8//8 
f 8//8 7//7 9//9 
f 8//8 9//9 10//10 
f 10//10 9//9 11//11 
f 7//7 12//12 9//9 
f 2//2 13//13 7//7 
f 7//7 13//13 14//14 
f 11//11 15//15 10//10 
f 10//10 15//15 16//16 
f 10//10 16//16 8//8 
f 8//8 16//16 17//17 
f 8//8 17//17 4//4 
f 4//4 17//17 18//18 
f 5//5 4//4 19//19 
f 19//19 4//4 18//18 
f 5//5 19//19 3//3 
f 3//3 19//19 20//20 
f 21//21 12//12 22//22 
f 22//22 12//12 7//7 
f 22//22 7//7 14//14 
f 23//23 24//24 25//25 
f 25//25 24//24 26//26 
f 1//1 26//26 6//6 
f 6//6 26//26 24//24 
f 13//13 2//2 23//23 
f 23//23 2//2 6//6 
f 23//23 6//6 24//24 
f 19//19 18//18 20//20 
f 20//20 18//18 25//25 
f 25//25 18//18 13//13 
f 25//25 13//13 23//23 
f 13//13 18//18 14//14 
f 14//14 18//18 17//17 
f 14//14 17//17 27//27 
f 27//27 17//17 16//16 
f 27//27 16//16 15//15 
f 27//27 22//22 14//14 
f 26//26 1//1 25//25 
f 25//25 1//1 3//3 
f 25//25 3//3 20//20 
f 15//15 11//11 27//27 
f 27//27 11//11 9//9 
f 27//27 9//9 28//28 
f 12//12 21//21 9//9 
f 9//9 21//21 28//28 
f 27//27 28//28 22//22 
f 22//22 28//28 21//21 
