v -71.46855164 0.2083333284 -68.77682495
v -71.47862244 0.2083333284 -68.77413177
v -71.41819763 0.3385416567 -68.79030609
v -71.47862244 0.4166666567 -68.77413177
v -71.41819763 0.4166666567 -68.79030609
v -71.29735565 0.3385416567 -68.82265472
v -70.65283966 0.1666666716 -68.99518585
v -71.46855164 0.1666666716 -68.77682495
v -71.29735565 0.4166666567 -68.82265472
v -70.65283966 0.4166666567 -68.99518585
v -70.63117981 0.2083333284 -65.05367279
v -70.64143372 0.2083333284 -65.05179596
v -70.57991028 0.4166666567 -65.06304932
v -70.64143372 0.4166666567 -65.05179596
v -70.57991028 0.3385416567 -65.06304932
v -70.45684814 0.3385416567 -65.08555603
v -70.45684814 0.4166666567 -65.08555603
v -69.80052185 0.4166666567 -65.20558929
v -69.80052185 0.1666666716 -65.20558929
v -70.63117981 0.1666666716 -65.05367279
vn -0.79500705 -0.3173562288 -0.5169611573
vn -0.9772673845 -0.02498133481 0.2105334699
vn 0.500444293 0.8474422693 -0.1771923602
vn -0.939063251 0.2870472372 0.189114064
vn 0.7605314851 0.6245400906 -0.1775991619
vn -0.5677009225 0.8042122126 -0.1759500057
vn 0.1315278262 -0.9881340265 -0.07931919396
vn -0.09869412333 -0.9950563312 0.01106132846
vn -0.1187612563 0.9929049611 0.005953555461
vn 0.3342846334 0.935311377 -0.1159585789
vn -0.758208096 -0.1077692509 0.6430445313
vn -0.9666910172 -0.09942116588 0.2358473092
vn 0.7644154429 0.6248548031 -0.1588253826
vn -0.9320503473 0.2873742282 0.2206766605
vn 0.522364378 0.8484582901 -0.08517032862
vn -0.3400686383 0.7124907374 0.6137672663
vn -0.1109508798 0.9932000637 0.03526302427
vn 0.3560903072 0.9344511628 0.0008218982257
vn 0.5115435719 -0.8587556481 -0.02935874276
vn -0.02289505303 -0.9996806979 0.01069367398
f 1//1 2//2 3//3 
f 3//3 2//2 4//4 
f 3//3 4//4 5//5 
f 3//3 6//6 1//1 
f 1//1 6//6 7//7 
f 1//1 7//7 8//8 
f 9//9 10//10 6//6 
f 6//6 10//10 7//7 
f 11//11 12//12 1//1 
f 1//1 12//12 2//2 
f 13//13 5//5 14//14 
f 14//14 5//5 4//4 
f 12//12 14//14 2//2 
f 2//2 14//14 4//4 
f 13//13 15//15 5//5 
f 5//5 15//15 3//3 
f 16//16 6//6 15//15 
f 15//15 6//6 3//3 
f 16//16 17//17 6//6 
f 6//6 17//17 9//9 
f 18//18 10//10 17//17 
f 17//17 10//10 9//9 
f 18//18 19//19 10//10 
f 10//10 19//19 7//7 
f 19//19 20//20 7//7 
f 7//7 20//20 8//8 
f 20//20 11//11 8//8 
f 8//8 11//11 1//1 
f 14//14 12//12 15//15 
f 15//15 12//12 11//11 
f 15//15 11//11 16//16 
f 16//16 11//11 19//19 
f 16//16 19//19 18//18 
f 11//11 20//20 19//19 
f 18//18 17//17 16//16 
f 15//15 13//13 14//14 
