v -70.45059967 13.578125 -64.95264435
v -70.45059967 9.390625 -64.95264435
v -70.53311157 13.578125 -64.94097137
v -70.53311157 9.390625 -64.94097137
v -69.97525787 9.390625 -60.99842072
v -69.97525787 13.578125 -60.99842072
v -69.89274597 13.578125 -61.0100975
v -69.89274597 9.390625 -61.0100975
vn 0.9884214997 0.0198955778 -0.1504232734
vn 0.9826354384 -0.03973495215 -0.181242317
vn -0.994933486 0.01987921819 0.09855013341
vn -0.99150002 -0.009949234314 0.1297255456
vn -0.9826353788 -0.03973499313 0.1812424809
vn -0.9884214997 0.01989556849 0.1504231989
vn 0.9949335456 0.01987930946 -0.09855003655
vn 0.99150002 -0.009949292988 -0.1297256052
f 1//1 2//2 3//3 
f 3//3 2//2 4//4 
f 5//5 6//6 4//4 
f 4//4 6//6 3//3 
f 7//7 1//1 6//6 
f 6//6 1//1 3//3 
f 8//8 5//5 2//2 
f 2//2 5//5 4//4 
f 2//2 1//1 8//8 
f 8//8 1//1 7//7 
f 8//8 7//7 5//5 
f 5//5 7//7 6//6 
