v -77.83289337 9.338541985 -87.89568329
v -77.83289337 0.3385416567 -87.89568329
v -77.75409698 9.338541985 -87.92281342
v -77.75409698 0.3385416567 -87.92281342
v -79.03941345 0.3385416567 -91.65563965
v -79.03941345 9.338541985 -91.65563965
v -79.11820221 9.338541985 -91.62850952
v -79.11820221 0.3385416567 -91.62850952
vn -0.9419900179 0.009258260019 0.3355130851
vn -0.9307857752 -0.01849868894 0.3650967181
vn 0.9583685398 0.009250942618 -0.2853842676
vn 0.9488916397 -0.004629479721 -0.3155680597
vn 0.9307864308 -0.01849870197 -0.3650950193
vn 0.9419897199 0.009258257225 -0.3355139494
vn -0.9583680034 0.009250131436 0.2853860557
vn -0.9488919377 -0.00462907739 0.3155671954
f 1//1 2//2 3//3 
f 3//3 2//2 4//4 
f 5//5 6//6 4//4 
f 4//4 6//6 3//3 
f 7//7 1//1 6//6 
f 6//6 1//1 3//3 
f 8//8 5//5 2//2 
f 2//2 5//5 4//4 
f 2//2 1//1 8//8 
f 8//8 1//1 7//7 
f 8//8 7//7 5//5 
f 5//5 7//7 6//6 
