v -72.63023376 9.338541985 -72.78607941
v -72.63023376 0.3385416567 -72.78607941
v -72.55144501 9.338541985 -72.81320953
v -72.55144501 0.3385416567 -72.81320953
v -73.8303299 0.3385416567 -76.52736664
v -73.8303299 9.338541985 -76.52736664
v -73.90912628 9.338541985 -76.50023651
v -73.90912628 0.3385416567 -76.50023651
vn -0.9419716001 0.009258251637 0.3355649114
vn -0.9307087064 -0.01849853434 0.3652931452
vn 0.9584281445 0.009250048548 -0.2851840556
vn 0.948908329 -0.004629074596 -0.3155178428
vn 0.9307080507 -0.0184985213 -0.3652948141
vn 0.9419718981 0.009258254431 -0.3355640471
vn -0.9584286809 0.009250860661 0.2851822674
vn -0.948908031 -0.004629476927 0.3155187368
f 1//1 2//2 3//3 
f 3//3 2//2 4//4 
f 5//5 6//6 4//4 
f 4//4 6//6 3//3 
f 7//7 1//1 6//6 
f 6//6 1//1 3//3 
f 8//8 5//5 2//2 
f 2//2 5//5 4//4 
f 2//2 1//1 8//8 
f 8//8 1//1 7//7 
f 8//8 7//7 5//5 
f 5//5 7//7 6//6 
