v -81.77610016 0.4166666567 -99.09164429
v -80.54165649 0.4166666567 -95.50655365
v -81.7170105 0.4166666567 -99.11199188
v -80.4825592 0.4166666567 -95.52690125
v -81.7170105 0.3385416567 -99.11199188
v -80.4825592 0.3385416567 -95.52690125
v -81.59881592 0.3385416567 -99.15268707
v -80.36437225 0.3385416567 -95.56759644
v -81.59881592 0.4166666567 -99.15268707
v -80.36437225 0.4166666567 -95.56759644
v -80.96847534 0.4166666567 -99.36973572
v -79.73402405 0.4166666567 -95.78464508
v -80.96847534 0.1666666716 -99.36973572
v -79.73402405 0.1666666716 -95.78464508
v -81.76625824 0.1666666716 -99.09503937
v -80.53180695 0.1666666716 -95.5099411
v -80.54165649 0.2083333284 -95.50655365
v -80.53180695 0.2083333284 -95.5099411
v -81.77610016 0.2083333284 -99.09164429
v -81.76625824 0.2083333284 -99.09503937
vn -0.9125010967 0.2872585952 0.2912460864
vn -0.9020573497 0.2873246968 0.3220824003
vn 0.7362221479 0.6246729493 -0.2603087127
vn 0.7424449325 0.6246563196 -0.2420331538
vn 0.4794434905 0.8462988138 -0.232190147
vn 0.5112128854 0.8475717306 -0.1424204856
vn -0.5758028626 0.8087911606 -0.1196158454
vn -0.2503509521 0.7173893452 0.6501360536
vn -0.116688773 0.992995441 0.01854010113
vn -0.1067129895 0.9931514859 0.04756542295
vn 0.3185421228 0.9355617166 -0.1524967104
vn 0.3572019041 0.9332709908 -0.03757752478
vn 0.1223557666 -0.9880022407 -0.0942370221
vn 0.5080930591 -0.8571431041 -0.08454083651
vn -0.09648679197 -0.9950985909 0.02165793069
vn -0.02155032754 -0.9996802211 0.01322963648
vn -0.9347797036 -0.09945638478 0.3410210311
vn -0.6742737293 -0.1093992367 0.7303333282
vn -0.9481459856 -0.02497744374 0.3168522716
vn -0.835098207 -0.3220800757 -0.445954442
f 1//1 2//2 3//3 
f 3//3 2//2 4//4 
f 5//5 3//3 6//6 
f 6//6 3//3 4//4 
f 5//5 6//6 7//7 
f 7//7 6//6 8//8 
f 9//9 7//7 10//10 
f 10//10 7//7 8//8 
f 9//9 10//10 11//11 
f 11//11 10//10 12//12 
f 13//13 11//11 14//14 
f 14//14 11//11 12//12 
f 15//15 13//13 16//16 
f 16//16 13//13 14//14 
f 2//2 17//17 6//6 
f 6//6 17//17 18//18 
f 6//6 18//18 8//8 
f 8//8 18//18 14//14 
f 8//8 14//14 12//12 
f 18//18 16//16 14//14 
f 12//12 10//10 8//8 
f 6//6 4//4 2//2 
f 1//1 19//19 2//2 
f 2//2 19//19 17//17 
f 20//20 15//15 18//18 
f 18//18 15//15 16//16 
f 20//20 19//19 5//5 
f 5//5 19//19 1//1 
f 5//5 1//1 3//3 
f 5//5 7//7 20//20 
f 20//20 7//7 13//13 
f 20//20 13//13 15//15 
f 9//9 11//11 7//7 
f 7//7 11//11 13//13 
f 19//19 20//20 17//17 
f 17//17 20//20 18//18 
