v -83.04197693 9.338541985 -103.0239639
v -83.04197693 0.3385416567 -103.0239639
v -82.96318054 9.338541985 -103.0510941
v -82.96318054 0.3385416567 -103.0510941
v -83.42823792 0.3385416567 -104.4017105
v -83.42823792 9.338541985 -104.4017105
v -83.50702667 9.338541985 -104.3745804
v -83.50702667 0.3385416567 -104.3745804
vn -0.9355847239 0.009254842065 0.3529810309
vn -0.9012643695 -0.01839042827 0.4328791201
vn 0.9768372178 0.009196809493 -0.2137859315
vn 0.9545986652 -0.004627770744 -0.2978589535
vn 0.9012664557 -0.01839047112 -0.4328747988
vn 0.9355838299 0.009254833683 -0.3529833555
vn -0.9768361449 0.009195986204 0.2137909979
vn -0.9545994401 -0.004627366085 0.2978565395
f 1//1 2//2 3//3 
f 3//3 2//2 4//4 
f 5//5 6//6 4//4 
f 4//4 6//6 3//3 
f 7//7 1//1 6//6 
f 6//6 1//1 3//3 
f 8//8 5//5 2//2 
f 2//2 5//5 4//4 
f 2//2 1//1 8//8 
f 8//8 1//1 7//7 
f 8//8 7//7 5//5 
f 5//5 7//7 6//6 
