v -83.56038666 0.4166666567 -104.2735825
v -83.14620209 0.4166666567 -103.0707016
v -83.50128937 0.4166666567 -104.2939301
v -83.0871048 0.4166666567 -103.0910492
v -83.50128937 0.3385416567 -104.2939301
v -83.0871048 0.3385416567 -103.0910492
v -83.38310242 0.3385416567 -104.3346252
v -82.96891785 0.3385416567 -103.1317444
v -83.38310242 0.4166666567 -104.3346252
v -82.96891785 0.4166666567 -103.1317444
v -82.75275421 0.4166666567 -104.5516739
v -82.33856964 0.4166666567 -103.348793
v -82.75275421 0.1666666716 -104.5516739
v -82.33856964 0.1666666716 -103.348793
v -83.55053711 0.1666666716 -104.2769775
v -83.13635254 0.1666666716 -103.0740967
v -83.14620209 0.2083333284 -103.0707016
v -83.13635254 0.2083333284 -103.0740967
v -83.56038666 0.2083333284 -104.2735825
v -83.55053711 0.2083333284 -104.2769775
vn -0.9247717857 0.286757499 0.2501345873
vn -0.8946393728 0.2872063816 0.3422468305
vn 0.731936872 0.6245928407 -0.2723088861
vn 0.7502539754 0.6242491007 -0.2177889645
vn 0.4317507148 0.8331663013 -0.3455796242
vn 0.529609561 0.8442107439 -0.08259499818
vn -0.5881633162 0.6181049943 -0.521545887
vn 0.05190208182 0.3984661102 0.9157133698
vn -0.1296657622 0.9913612604 -0.01973972842
vn -0.1000741273 0.992742002 0.06669666618
vn 0.290569067 0.929577589 -0.2268371284
vn 0.399142921 0.9101643562 0.1108412594
vn 0.08973569423 -0.9786832929 -0.1847337037
vn 0.5476568341 -0.8334732652 0.0734462142
vn -0.1034885868 -0.9946299195 0.001180890249
vn -0.01800676435 -0.9995613694 0.02351214923
vn -0.9219090343 -0.09937504679 0.3744440973
vn -0.2235111147 -0.06602282822 0.9724627137
vn -0.9537006617 -0.02498639561 0.2997177839
vn -0.5857756734 -0.1471925825 -0.7969951034
f 1//1 2//2 3//3 
f 3//3 2//2 4//4 
f 5//5 3//3 6//6 
f 6//6 3//3 4//4 
f 5//5 6//6 7//7 
f 7//7 6//6 8//8 
f 9//9 7//7 10//10 
f 10//10 7//7 8//8 
f 9//9 10//10 11//11 
f 11//11 10//10 12//12 
f 13//13 11//11 14//14 
f 14//14 11//11 12//12 
f 15//15 13//13 16//16 
f 16//16 13//13 14//14 
f 2//2 17//17 6//6 
f 6//6 17//17 18//18 
f 6//6 18//18 8//8 
f 8//8 18//18 14//14 
f 8//8 14//14 12//12 
f 18//18 16//16 14//14 
f 12//12 10//10 8//8 
f 6//6 4//4 2//2 
f 1//1 19//19 2//2 
f 2//2 19//19 17//17 
f 20//20 15//15 18//18 
f 18//18 15//15 16//16 
f 20//20 19//19 5//5 
f 5//5 19//19 1//1 
f 5//5 1//1 3//3 
f 5//5 7//7 20//20 
f 20//20 7//7 13//13 
f 20//20 13//13 15//15 
f 9//9 11//11 7//7 
f 7//7 11//11 13//13 
f 19//19 20//20 17//17 
f 17//17 20//20 18//18 
