v -72.10414124 0.2083333284 -40.97947311
v -72.11408997 0.2083333284 -40.98258591
v -72.05438232 0.3385416567 -40.96391678
v -72.11408997 0.4166666567 -40.98258591
v -72.05438232 0.4166666567 -40.96391678
v -71.93497467 0.3385416567 -40.92657089
v -71.29813385 0.1666666716 -40.72741318
v -72.10414124 0.1666666716 -40.97947311
v -71.93497467 0.4166666567 -40.92657089
v -71.29813385 0.4166666567 -40.72741318
v -73.41598511 0.2083333284 -37.36230469
v -73.41598511 0.4166666567 -37.36230469
v -73.40633392 0.2083333284 -37.35836792
v -73.35807037 0.4166666567 -37.33867645
v -73.35807037 0.3385416567 -37.33867645
v -73.24222565 0.3385416567 -37.29141998
v -73.24222565 0.4166666567 -37.29141998
v -72.62439728 0.4166666567 -37.03938675
v -72.62439728 0.1666666716 -37.03938675
v -73.40633392 0.1666666716 -37.35836792
vn -0.4135339856 -0.1656059772 -0.8953012228
vn -0.9367631674 -0.0499124974 -0.346386373
vn 0.2907819748 0.9544267058 0.06719739735
vn -0.8003423214 0.5142933726 -0.308146894
vn 0.8761775494 0.3715034127 0.3070799112
vn -0.5380346179 0.5614364743 -0.6287351251
vn 0.2940303087 -0.9557647705 0.007738469634
vn -0.04438709468 -0.9987796545 -0.02165581658
vn -0.05164880678 0.9982376695 -0.02922299691
vn 0.5842889547 0.7995565534 0.1389812678
vn -0.9457378387 -0.04987922683 -0.3210794926
vn -0.9342831969 0.1482484639 -0.3242487907
vn -0.9685922861 -0.2120784074 0.1298140436
vn 0.495811373 0.8479599357 0.1874433309
vn 0.7176944017 0.6249832511 0.3071004748
vn -0.3882499039 0.8975928426 0.2087800354
vn -0.2220876366 0.9732430577 -0.05894931778
vn 0.1588777304 0.9821042418 0.1011391431
vn 0.2518093288 -0.9575829506 0.140096128
vn -0.05049729347 -0.99870193 -0.00666775275
f 1//1 2//2 3//3 
f 3//3 2//2 4//4 
f 3//3 4//4 5//5 
f 3//3 6//6 1//1 
f 1//1 6//6 7//7 
f 1//1 7//7 8//8 
f 9//9 10//10 6//6 
f 6//6 10//10 7//7 
f 11//11 12//12 2//2 
f 2//2 12//12 4//4 
f 11//11 2//2 13//13 
f 13//13 2//2 1//1 
f 12//12 14//14 4//4 
f 4//4 14//14 5//5 
f 14//14 15//15 5//5 
f 5//5 15//15 3//3 
f 15//15 16//16 3//3 
f 3//3 16//16 6//6 
f 16//16 17//17 6//6 
f 6//6 17//17 9//9 
f 17//17 18//18 9//9 
f 9//9 18//18 10//10 
f 18//18 19//19 10//10 
f 10//10 19//19 7//7 
f 20//20 8//8 19//19 
f 19//19 8//8 7//7 
f 20//20 13//13 8//8 
f 8//8 13//13 1//1 
f 12//12 11//11 15//15 
f 15//15 11//11 13//13 
f 15//15 13//13 16//16 
f 16//16 13//13 19//19 
f 16//16 19//19 18//18 
f 13//13 20//20 19//19 
f 18//18 17//17 16//16 
f 15//15 14//14 12//12 
