v -71.33428955 13.578125 -68.891922
v -71.33428955 9.390625 -68.891922
v -71.41558838 13.578125 -68.87364197
v -71.41558838 9.390625 -68.87364197
v -70.54186249 9.390625 -64.98885345
v -70.54186249 13.578125 -64.98885345
v -70.46056366 13.578125 -65.00714111
v -70.46056366 9.390625 -65.00714111
vn 0.9730866551 0.01989455149 -0.2295791656
vn 0.9648365974 -0.03973286971 -0.2598299086
vn -0.9837568402 0.01987808384 0.1784022152
vn -0.977822721 -0.009948655032 0.2091977596
vn -0.9648364782 -0.03973294422 0.2598304152
vn -0.9730867147 0.01989453286 0.229578957
vn 0.9837568998 0.01987840794 -0.1784018725
vn 0.977822721 -0.009948845021 -0.2091979533
f 1//1 2//2 3//3 
f 3//3 2//2 4//4 
f 5//5 6//6 4//4 
f 4//4 6//6 3//3 
f 7//7 1//1 6//6 
f 6//6 1//1 3//3 
f 8//8 5//5 2//2 
f 2//2 5//5 4//4 
f 2//2 1//1 8//8 
f 8//8 1//1 7//7 
f 8//8 7//7 5//5 
f 5//5 7//7 6//6 
