v -70.03821564 0.2083333284 -60.86293411
v -70.04858398 0.2083333284 -60.8618927
v -69.98635101 0.3385416567 -60.86815262
v -70.04858398 0.4166666567 -60.8618927
v -69.98635101 0.4166666567 -60.86815262
v -69.86187744 0.3385416567 -60.88066864
v -69.19801331 0.1666666716 -60.94742966
v -70.03821564 0.1666666716 -60.86293411
v -69.86187744 0.4166666567 -60.88066864
v -69.19801331 0.4166666567 -60.94742966
v -69.80978394 0.2083333284 -57.05363846
v -69.82020569 0.2083333284 -57.05343628
v -69.82020569 0.4166666567 -57.05343628
v -69.75766754 0.4166666567 -57.05465698
v -69.75766754 0.3385416567 -57.05465698
v -69.63259125 0.3385416567 -57.05710602
v -69.63259125 0.4166666567 -57.05710602
v -68.96550751 0.4166666567 -57.0701561
v -68.96550751 0.1666666716 -57.0701561
v -69.80978394 0.1666666716 -57.05363846
vn -0.7016552091 -0.3172855079 -0.637973249
vn -0.998395741 -0.02497115545 0.05081713572
vn 0.5223947167 0.8474512696 -0.09449926019
vn -0.9572533369 0.2870251834 0.03581375629
vn 0.7791824937 0.6245416403 -0.05312654749
vn -0.5320627093 0.8042131066 -0.2648595572
vn 0.142560184 -0.9881342053 -0.05716142058
vn -0.09918851405 -0.9950563908 -0.004936049692
vn -0.1181748137 0.9929050803 -0.0132010011
vn 0.3485696912 0.9353116751 -0.06075517833
vn -0.8516557813 -0.1077612266 0.5129033923
vn -0.9920249581 -0.09939774126 0.07750185579
vn -0.9553945661 0.2873754501 0.06809207797
vn 0.7799732089 0.6248902082 -0.0339707844
vn 0.5292593241 0.8484600782 -0.000154589492
vn -0.4342458844 0.7124829292 0.5511792898
vn -0.1151742488 0.9932001233 0.01698262058
vn 0.3513348401 0.9344508648 0.05801222846
vn 0.5096158981 -0.8587560654 0.05319481343
vn -0.02431534044 -0.9996806979 0.006877087057
f 1//1 2//2 3//3 
f 3//3 2//2 4//4 
f 3//3 4//4 5//5 
f 3//3 6//6 1//1 
f 1//1 6//6 7//7 
f 1//1 7//7 8//8 
f 9//9 10//10 6//6 
f 6//6 10//10 7//7 
f 11//11 12//12 1//1 
f 1//1 12//12 2//2 
f 12//12 13//13 2//2 
f 2//2 13//13 4//4 
f 14//14 5//5 13//13 
f 13//13 5//5 4//4 
f 14//14 15//15 5//5 
f 5//5 15//15 3//3 
f 16//16 6//6 15//15 
f 15//15 6//6 3//3 
f 16//16 17//17 6//6 
f 6//6 17//17 9//9 
f 18//18 10//10 17//17 
f 17//17 10//10 9//9 
f 18//18 19//19 10//10 
f 10//10 19//19 7//7 
f 19//19 20//20 7//7 
f 7//7 20//20 8//8 
f 20//20 11//11 8//8 
f 8//8 11//11 1//1 
f 13//13 12//12 15//15 
f 15//15 12//12 11//11 
f 15//15 11//11 16//16 
f 16//16 11//11 19//19 
f 16//16 19//19 18//18 
f 11//11 20//20 19//19 
f 18//18 17//17 16//16 
f 15//15 14//14 13//13 
