v -72.60456085 9.260416985 -72.61245728
v -72.66343689 9.260416985 -72.59132385
v -72.60456085 9.338541985 -72.61245728
v -72.66343689 9.364583015 -72.59132385
v -72.48680878 9.338541985 -72.65472412
v -71.85879517 9.364583015 -72.88014221
v -71.85879517 9.260416985 -72.88014221
v -72.48680878 9.260416985 -72.65472412
v -71.53262329 9.364583015 -68.9753418
v -70.70679474 9.364583015 -69.19641113
v -71.35134125 9.390625 -69.02387238
v -70.70679474 9.46875 -69.19641113
v -71.35134125 9.46875 -69.02387238
v -71.47219849 9.390625 -68.99151611
v -71.53262329 9.46875 -68.9753418
v -71.47219849 9.46875 -68.99151611
v -71.47219849 9.260416985 -68.99151611
v -71.47219849 9.338541985 -68.99151611
v -71.53262329 9.260416985 -68.9753418
v -71.35134125 9.338541985 -69.02387238
v -70.70679474 9.260416985 -69.19641113
v -71.35134125 9.260416985 -69.02387238
v -71.85879517 9.46875 -72.88014221
v -72.48680878 9.46875 -72.65472412
v -72.48680878 9.390625 -72.65472412
v -72.60456085 9.390625 -72.61245728
v -72.60456085 9.46875 -72.61245728
v -72.66343689 9.46875 -72.59132385
vn 0.5032189488 -0.8479625583 -0.1665238291
vn -0.9182483554 -0.2871644795 0.2726839483
vn 0.7390756011 -0.6249705553 -0.2513544261
vn -0.9691118002 1.323993431e-19 0.246621877
vn -0.3307848871 -0.9424120188 -0.0494062528
vn 0.8982977867 2.082340338e-17 -0.4393871725
vn 0.06683961302 -0.9967146516 -0.04574229941
vn -0.2244624346 -0.9732371569 0.04925446212
vn -0.9369530678 1.650452693e-18 0.3494552672
vn 0.9885809422 2.238002495e-17 -0.150690794
vn -0.4213557839 0.8158451915 0.3960503936
vn 0.1592919528 0.9872310758 -0.0009610060952
vn -0.107662037 0.993201077 0.04427696392
vn 0.5088236928 0.8485010862 -0.1454112232
vn -0.814637959 0.5144822598 0.2677181065
vn 0.7488641739 0.6248928308 -0.2207066715
vn 0.8883744478 -0.3714798689 -0.269802779
vn 0.2881499231 -0.9546684027 -0.07468541712
vn -0.6055776477 -0.7679260373 0.2087232023
vn -0.6785495877 -0.6096868515 0.4096979797
vn 0.2962093353 -0.9540424347 -0.04542130977
vn -0.05278711021 -0.9982361197 0.02716983669
vn 0.140417695 0.9877179861 -0.06852803379
vn -0.1179457977 0.9928987622 0.01552071236
vn -0.5444638133 0.8380812407 0.03433723003
vn 0.4970992208 0.8481965661 -0.1829068363
vn 0.7434433103 0.6245462298 -0.239236325
vn -0.8257964849 0.513884604 0.2323420942
f 1//1 2//2 3//3 
f 3//3 2//2 4//4 
f 3//3 4//4 5//5 
f 5//5 4//4 6//6 
f 5//5 6//6 7//7 
f 7//7 8//8 5//5 
f 9//9 10//10 11//11 
f 11//11 10//10 12//12 
f 11//11 12//12 13//13 
f 11//11 14//14 9//9 
f 9//9 14//14 15//15 
f 15//15 14//14 16//16 
f 17//17 18//18 19//19 
f 19//19 18//18 9//9 
f 9//9 18//18 20//20 
f 9//9 20//20 10//10 
f 10//10 20//20 21//21 
f 21//21 20//20 22//22 
f 7//7 6//6 21//21 
f 21//21 6//6 10//10 
f 10//10 6//6 23//23 
f 10//10 23//23 12//12 
f 24//24 13//13 23//23 
f 23//23 13//13 12//12 
f 24//24 25//25 13//13 
f 13//13 25//25 11//11 
f 26//26 14//14 25//25 
f 25//25 14//14 11//11 
f 26//26 27//27 14//14 
f 14//14 27//27 16//16 
f 28//28 15//15 27//27 
f 27//27 15//15 16//16 
f 28//28 4//4 15//15 
f 15//15 4//4 9//9 
f 9//9 4//4 2//2 
f 9//9 2//2 19//19 
f 2//2 1//1 19//19 
f 19//19 1//1 17//17 
f 1//1 3//3 17//17 
f 17//17 3//3 18//18 
f 3//3 5//5 18//18 
f 18//18 5//5 20//20 
f 5//5 8//8 20//20 
f 20//20 8//8 22//22 
f 8//8 7//7 22//22 
f 22//22 7//7 21//21 
f 28//28 26//26 4//4 
f 4//4 26//26 25//25 
f 4//4 25//25 6//6 
f 6//6 25//25 23//23 
f 23//23 25//25 24//24 
f 28//28 27//27 26//26 
