v -75.22834778 13.80729198 -80.3315506
v -75.22834778 9.390625 -80.3315506
v -75.14955902 13.80729198 -80.35868073
v -75.14955902 9.390625 -80.35868073
v -76.43486786 9.390625 -84.09150696
v -76.43486786 13.80729198 -84.09150696
v -76.51366425 13.80729198 -84.0643692
v -76.51366425 9.390625 -84.0643692
vn -0.9418622851 0.01886363141 0.3354692459
vn -0.9302845597 -0.03767574579 0.3648989201
vn 0.9582387805 0.01884678192 -0.2853475511
vn 0.9488598704 -0.009432517923 -0.3155565262
vn 0.9302836061 -0.03767578676 -0.3649012446
vn 0.9418627024 0.01886362024 -0.3354680836
vn -0.9582394361 0.01884892769 0.2853452563
vn -0.9488595128 -0.009433610365 0.3155576885
f 1//1 2//2 3//3 
f 3//3 2//2 4//4 
f 5//5 6//6 4//4 
f 4//4 6//6 3//3 
f 7//7 1//1 6//6 
f 6//6 1//1 3//3 
f 8//8 5//5 2//2 
f 2//2 5//5 4//4 
f 2//2 1//1 8//8 
f 8//8 1//1 7//7 
f 8//8 7//7 5//5 
f 5//5 7//7 6//6 
