v -74.89305878 0.1666666716 -33.67948914
v -74.86437988 0.1666666716 -33.58364105
v -74.97110748 0.1666666716 -33.48632812
v -74.88388824 0.1666666716 -33.5353508
v -74.9131546 0.1666666716 -33.46291351
v -74.83511353 0.1666666716 -33.65607834
v -74.74848175 0.1666666716 -33.53681564
v -74.76799011 0.1666666716 -33.48852539
v -74.10108948 0.1666666716 -33.35951233
v -74.79725647 0.1666666716 -33.4160881
v -74.17913818 0.1666666716 -33.16635132
v -74.71921539 0.1666666716 -33.60925293
v -74.86437988 4.145004749 -33.58364105
v -74.74848175 4.145004749 -33.53681564
v -74.17913818 4.114584446 -33.16635132
v -74.79725647 4.114584446 -33.4160881
v -74.76799011 4.132836819 -33.48852539
v -74.88388824 4.132836819 -33.5353508
v -74.9131546 4.114584446 -33.46291351
v -74.97110748 4.114584446 -33.48632812
v -74.71921539 4.163257122 -33.60925293
v -74.73693085 4.152208805 -33.56540298
v -74.85282898 4.152208805 -33.61222839
v -74.83511353 4.163257122 -33.65607834
v -74.91077423 4.152208805 -33.63564301
v -74.89305878 4.163257122 -33.67948914
v -74.11880493 4.152208805 -33.3156662
v -74.10108948 4.163257122 -33.35951233
vn -0.8112559915 -0.01705621928 -0.5844422579
vn 0.8911299109 -0.04188158363 -0.4518113136
vn -0.9981492162 -0.01367674861 -0.05925419554
vn 0.1727024019 -0.0181046389 0.9848076701
vn 0.4899341464 -0.01236169413 0.8716717958
vn 0.920809865 -0.006905399263 -0.389950633
vn -0.02739829011 -0.09160466492 -0.995418489
vn -0.9511313438 -0.1169390306 0.2857872844
vn 0.5414263606 -0.0511325337 -0.839191854
vn -0.4279208183 -0.0361940451 0.9030912519
vn 0.1238057762 -0.04605099186 0.9912373424
vn 0.1969986111 -0.01920877025 -0.9802155495
vn 0.4855369627 0.01169822272 -0.8741378784
vn 0.1327886581 0.136214152 -0.9817396998
vn -0.2612167299 0.02015001513 0.9650698304
vn -0.5732096434 0.05809665099 0.8173466325
vn -0.6269273162 0.08772267401 0.7741232514
vn 0.1670688242 0.05277328938 0.9845318794
vn 0.4899622798 0.006166946143 0.8717218041
vn -0.9997201562 0.02187324315 -0.009012578055
vn 0.3414547443 0.005921060685 -0.9398795366
vn -0.9301385283 0.1329399347 -0.3423000276
vn 0.9264689088 0.007836341858 0.3762896657
vn 0.8594182134 0.01893470436 -0.5109224916
vn -0.9282118082 0.01278271247 -0.3718326092
vn 0.02180668153 0.005540041719 -0.9997468591
vn 0.9036638737 0.1470745504 0.4021948278
vn 0.4395024776 0.02373049967 -0.8979278803
f 1//1 2//2 3//3 
f 3//3 2//2 4//4 
f 3//3 4//4 5//5 
f 1//1 6//6 2//2 
f 2//2 7//7 4//4 
f 4//4 7//7 8//8 
f 8//8 7//7 9//9 
f 8//8 9//9 10//10 
f 10//10 9//9 11//11 
f 7//7 12//12 9//9 
f 2//2 13//13 7//7 
f 7//7 13//13 14//14 
f 11//11 15//15 10//10 
f 10//10 15//15 16//16 
f 10//10 16//16 8//8 
f 8//8 16//16 17//17 
f 8//8 17//17 4//4 
f 4//4 17//17 18//18 
f 5//5 4//4 19//19 
f 19//19 4//4 18//18 
f 5//5 19//19 3//3 
f 3//3 19//19 20//20 
f 21//21 12//12 22//22 
f 22//22 12//12 7//7 
f 22//22 7//7 14//14 
f 23//23 24//24 25//25 
f 25//25 24//24 26//26 
f 1//1 26//26 6//6 
f 6//6 26//26 24//24 
f 13//13 2//2 23//23 
f 23//23 2//2 6//6 
f 23//23 6//6 24//24 
f 19//19 18//18 20//20 
f 20//20 18//18 25//25 
f 25//25 18//18 13//13 
f 25//25 13//13 23//23 
f 13//13 18//18 14//14 
f 14//14 18//18 17//17 
f 14//14 17//17 27//27 
f 27//27 17//17 16//16 
f 27//27 16//16 15//15 
f 27//27 22//22 14//14 
f 26//26 1//1 25//25 
f 25//25 1//1 3//3 
f 25//25 3//3 20//20 
f 15//15 11//11 27//27 
f 27//27 11//11 9//9 
f 27//27 9//9 28//28 
f 12//12 21//21 9//9 
f 9//9 21//21 28//28 
f 27//27 28//28 22//22 
f 22//22 28//28 21//21 
