v -69.80570984 0.2083333284 -56.84534454
v -69.81613159 0.2083333284 -56.84514236
v -69.75359344 0.3385416567 -56.84636307
v -69.81613159 0.4166666567 -56.84514236
v -69.75359344 0.4166666567 -56.84636307
v -69.62850952 0.3385416567 -56.8488121
v -68.96143341 0.1666666716 -56.86186218
v -69.80570984 0.1666666716 -56.84534454
v -69.62850952 0.4166666567 -56.8488121
v -68.96143341 0.4166666567 -56.86186218
v -69.89537048 0.2083333284 -53.03065491
v -69.88496399 0.2083333284 -53.03001785
v -69.89537048 0.4166666567 -53.03065491
v -69.83293915 0.4166666567 -53.02683258
v -69.83293915 0.3385416567 -53.02683258
v -69.70806885 0.3385416567 -53.01919556
v -69.70806885 0.4166666567 -53.01919556
v -69.04210663 0.4166666567 -52.97845078
v -69.04210663 0.1666666716 -52.97845078
v -69.88496399 0.1666666716 -53.03001785
vn -0.6739014983 -0.1650362015 -0.7201526165
vn -0.9983093739 -0.04992165416 -0.02976871282
vn 0.2970893979 0.9544000626 -0.02929885499
vn -0.8568098545 0.5142962933 -0.03709736466
vn 0.9283666015 0.3714819849 0.01168726664
vn -0.7090034485 0.5608881116 -0.4274559319
vn 0.2812744677 -0.955655992 -0.08721431345
vn -0.04898153991 -0.9987790585 -0.006423020735
vn -0.05826816708 0.9982367754 -0.01132158563
vn 0.5981615186 0.7994773388 -0.05512495339
vn -0.9987507463 -0.04989701137 -0.00269479258
vn -0.8751019239 -0.2118687332 0.4350956678
vn -0.9889038205 0.1482589245 -0.00940877106
vn 0.5296946764 0.8479599953 0.01968141831
vn 0.7781524062 0.6249402165 0.06267823279
vn -0.3007735014 0.8969060779 0.324183315
vn -0.2292691469 0.973246038 0.01509141922
vn 0.1828336716 0.9820868373 0.04557786509
vn 0.2832984328 -0.9575706124 0.05291954428
vn -0.04997459799 -0.9987017512 0.009868582711
f 1//1 2//2 3//3 
f 3//3 2//2 4//4 
f 3//3 4//4 5//5 
f 3//3 6//6 1//1 
f 1//1 6//6 7//7 
f 1//1 7//7 8//8 
f 9//9 10//10 6//6 
f 6//6 10//10 7//7 
f 11//11 2//2 12//12 
f 12//12 2//2 1//1 
f 11//11 13//13 2//2 
f 2//2 13//13 4//4 
f 13//13 14//14 4//4 
f 4//4 14//14 5//5 
f 14//14 15//15 5//5 
f 5//5 15//15 3//3 
f 15//15 16//16 3//3 
f 3//3 16//16 6//6 
f 16//16 17//17 6//6 
f 6//6 17//17 9//9 
f 17//17 18//18 9//9 
f 9//9 18//18 10//10 
f 18//18 19//19 10//10 
f 10//10 19//19 7//7 
f 20//20 8//8 19//19 
f 19//19 8//8 7//7 
f 20//20 12//12 8//8 
f 8//8 12//12 1//1 
f 13//13 11//11 15//15 
f 15//15 11//11 12//12 
f 15//15 12//12 16//16 
f 16//16 12//12 19//19 
f 16//16 19//19 18//18 
f 12//12 20//20 19//19 
f 18//18 17//17 16//16 
f 15//15 14//14 13//13 
