v -71.41819763 9.260416985 -68.79030609
v -71.47862244 9.260416985 -68.77413177
v -71.41819763 9.338541985 -68.79030609
v -71.47862244 9.364583015 -68.77413177
v -71.29735565 9.338541985 -68.82265472
v -70.65283966 9.364583015 -68.99518585
v -70.65283966 9.260416985 -68.99518585
v -71.29735565 9.260416985 -68.82265472
v -70.64143372 9.364583015 -65.05179596
v -69.80052185 9.364583015 -65.20558929
v -70.45684814 9.390625 -65.08555603
v -69.80052185 9.46875 -65.20558929
v -70.45684814 9.46875 -65.08555603
v -70.57991028 9.390625 -65.06304932
v -70.64143372 9.46875 -65.05179596
v -70.57991028 9.46875 -65.06304932
v -71.29735565 9.46875 -68.82265472
v -70.65283966 9.46875 -68.99518585
v -69.80052185 9.260416985 -65.20558929
v -70.57991028 9.260416985 -65.06304932
v -70.57991028 9.338541985 -65.06304932
v -70.64143372 9.260416985 -65.05179596
v -70.45684814 9.338541985 -65.08555603
v -70.45684814 9.260416985 -65.08555603
v -71.29735565 9.390625 -68.82265472
v -71.41819763 9.390625 -68.79030609
v -71.41819763 9.46875 -68.79030609
v -71.47862244 9.46875 -68.77413177
vn 0.5151751041 -0.847956121 -0.1247598603
vn -0.9374480844 -0.2871754766 0.1967773736
vn 0.7572088838 -0.6249426007 -0.1899511963
vn -0.985970974 7.718166697e-18 0.1669166982
vn -0.3252732158 -0.9426109791 -0.07537809759
vn 0.9315756559 7.313538065e-18 -0.3635475039
vn 0.07040502131 -0.9967172146 -0.03997449577
vn -0.2276826054 -0.9732462168 0.03086192906
vn -0.9624919295 1.173484015e-18 0.27131024
vn 0.9975240827 1.34886016e-18 -0.07032578439
vn -0.4526411593 0.8163472414 0.3587382436
vn 0.1588378251 0.9872345924 0.01176501065
vn -0.1109508798 0.9932000637 0.03526302427
vn 0.5190364718 0.8484730124 -0.1034152433
vn -0.8338286281 0.5144706964 0.2001243085
vn 0.7644154429 0.6248548031 -0.1588253826
vn -0.1187612563 0.9929049611 0.005953555461
vn 0.1455806792 0.9877223372 -0.05666452274
vn 0.2989289463 -0.9540367126 -0.0213400349
vn 0.9074616432 -0.3714514673 -0.1963089705
vn 0.2933124006 -0.9546563625 -0.05098149925
vn -0.6206508279 -0.7679246664 0.1583801508
vn -0.7101240754 -0.6099514365 0.3516859412
vn -0.05484671518 -0.9982367754 0.02269696631
vn -0.5451802611 0.8382652402 -0.009477790445
vn 0.5104760528 0.8481733799 -0.1414783001
vn 0.7605314851 0.6245400906 -0.1775991619
vn -0.8419821858 0.5139101148 0.1642023474
f 1//1 2//2 3//3 
f 3//3 2//2 4//4 
f 3//3 4//4 5//5 
f 5//5 4//4 6//6 
f 5//5 6//6 7//7 
f 7//7 8//8 5//5 
f 9//9 10//10 11//11 
f 11//11 10//10 12//12 
f 11//11 12//12 13//13 
f 11//11 14//14 9//9 
f 9//9 14//14 15//15 
f 15//15 14//14 16//16 
f 17//17 13//13 18//18 
f 18//18 13//13 12//12 
f 7//7 6//6 19//19 
f 19//19 6//6 10//10 
f 10//10 6//6 18//18 
f 10//10 18//18 12//12 
f 20//20 21//21 22//22 
f 22//22 21//21 9//9 
f 9//9 21//21 23//23 
f 9//9 23//23 10//10 
f 10//10 23//23 19//19 
f 19//19 23//23 24//24 
f 17//17 25//25 13//13 
f 13//13 25//25 11//11 
f 26//26 14//14 25//25 
f 25//25 14//14 11//11 
f 26//26 27//27 14//14 
f 14//14 27//27 16//16 
f 28//28 15//15 27//27 
f 27//27 15//15 16//16 
f 28//28 4//4 15//15 
f 15//15 4//4 9//9 
f 9//9 4//4 2//2 
f 9//9 2//2 22//22 
f 2//2 1//1 22//22 
f 22//22 1//1 20//20 
f 1//1 3//3 20//20 
f 20//20 3//3 21//21 
f 3//3 5//5 21//21 
f 21//21 5//5 23//23 
f 5//5 8//8 23//23 
f 23//23 8//8 24//24 
f 8//8 7//7 24//24 
f 24//24 7//7 19//19 
f 28//28 26//26 4//4 
f 4//4 26//26 25//25 
f 4//4 25//25 6//6 
f 6//6 25//25 18//18 
f 18//18 25//25 17//17 
f 28//28 27//27 26//26 
