v -76.39157104 0.1666666716 -29.97056007
v -76.36288452 0.1666666716 -29.87471008
v -76.46961212 0.1666666716 -29.77739525
v -76.38239288 0.1666666716 -29.82641983
v -76.41165924 0.1666666716 -29.75398254
v -76.33361816 0.1666666716 -29.94714546
v -76.24698639 0.1666666716 -29.82788467
v -76.26649475 0.1666666716 -29.77959251
v -75.59960175 0.1666666716 -29.65058327
v -76.29576111 0.1666666716 -29.70715714
v -75.67764282 0.1666666716 -29.45741844
v -76.21772003 0.1666666716 -29.90032005
v -76.36288452 3.210441589 -29.87471008
v -76.24698639 3.210441589 -29.82788467
v -75.67764282 3.180021048 -29.45741844
v -76.29576111 3.180021048 -29.70715714
v -76.26649475 3.19827342 -29.77959251
v -76.38239288 3.19827342 -29.82641983
v -76.41165924 3.180021048 -29.75398254
v -76.46961212 3.180021048 -29.77739525
v -76.21772003 3.228693724 -29.90032005
v -76.23543549 3.217645168 -29.85647202
v -76.35133362 3.217645168 -29.90329933
v -76.33361816 3.228693724 -29.94714546
v -76.4092865 3.217645168 -29.92671204
v -76.39157104 3.228693724 -29.97056007
v -75.6173172 3.217645168 -29.60673523
v -75.59960175 3.228693724 -29.65058327
vn -0.8110819459 -0.022276273 -0.5845081806
vn 0.8906661272 -0.05470041558 -0.4513554573
vn -0.9980553985 -0.01789155789 -0.05971060693
vn 0.1723552793 -0.02368800156 0.9847499728
vn 0.4899218082 -0.01619433425 0.8716159463
vn 0.9206623435 -0.009015711956 -0.390255779
vn -0.02745510079 -0.119368434 -0.992470324
vn -0.9464282393 -0.1523136348 0.2847352028
vn 0.5408239365 -0.06667879224 -0.8384887576
vn -0.4277213216 -0.04739668965 0.9026671648
vn 0.1244173273 -0.0602652058 0.990398109
vn 0.1970688254 -0.0250680875 -0.9800691009
vn 0.485609293 0.01530288532 -0.8740420341
vn 0.1294862181 0.1785332114 -0.9753764272
vn -0.261349678 0.02635730989 0.9648842812
vn -0.571883738 0.07570990175 0.8168335557
vn -0.6238472462 0.1137696728 0.7732212543
vn 0.1649362296 0.0687539801 0.9839049578
vn 0.489970088 0.008073513396 0.8717018366
vn -0.9995617867 0.02863619104 -0.00749316439
vn 0.3414363265 0.007731105667 -0.9398730993
vn -0.9276143909 0.1725066453 -0.3313200772
vn 0.9262342453 0.01023619715 0.376809448
vn 0.8596845865 0.02473847754 -0.5102258921
vn -0.928514421 0.01671544835 -0.3709198833
vn 0.02170673944 0.007233938202 -0.9997382164
vn 0.8925222754 0.1907833368 0.4086633623
vn 0.4395252168 0.03101948462 -0.8976944685
f 1//1 2//2 3//3 
f 3//3 2//2 4//4 
f 3//3 4//4 5//5 
f 1//1 6//6 2//2 
f 2//2 7//7 4//4 
f 4//4 7//7 8//8 
f 8//8 7//7 9//9 
f 8//8 9//9 10//10 
f 10//10 9//9 11//11 
f 7//7 12//12 9//9 
f 2//2 13//13 7//7 
f 7//7 13//13 14//14 
f 11//11 15//15 10//10 
f 10//10 15//15 16//16 
f 10//10 16//16 8//8 
f 8//8 16//16 17//17 
f 8//8 17//17 4//4 
f 4//4 17//17 18//18 
f 5//5 4//4 19//19 
f 19//19 4//4 18//18 
f 5//5 19//19 3//3 
f 3//3 19//19 20//20 
f 21//21 12//12 22//22 
f 22//22 12//12 7//7 
f 22//22 7//7 14//14 
f 23//23 24//24 25//25 
f 25//25 24//24 26//26 
f 1//1 26//26 6//6 
f 6//6 26//26 24//24 
f 13//13 2//2 23//23 
f 23//23 2//2 6//6 
f 23//23 6//6 24//24 
f 19//19 18//18 20//20 
f 20//20 18//18 25//25 
f 25//25 18//18 13//13 
f 25//25 13//13 23//23 
f 13//13 18//18 14//14 
f 14//14 18//18 17//17 
f 14//14 17//17 27//27 
f 27//27 17//17 16//16 
f 27//27 16//16 15//15 
f 27//27 22//22 14//14 
f 26//26 1//1 25//25 
f 25//25 1//1 3//3 
f 25//25 3//3 20//20 
f 15//15 11//11 27//27 
f 27//27 11//11 9//9 
f 27//27 9//9 28//28 
f 12//12 21//21 9//9 
f 9//9 21//21 28//28 
f 27//27 28//28 22//22 
f 22//22 28//28 21//21 
