v -83.14793396 19.45833397 -104.6800079
v -83.02128601 19.45833397 -104.7236176
v -83.66822052 19.45833397 -103.6588821
v -72.93869781 19.45833397 -72.49808502
v -72.03257751 19.45833397 -72.81008911
v -83.14793396 0.1666666716 -104.6800079
v -83.02128601 0.1666666716 -104.7236176
v -83.06339264 0.1666666716 -104.8459167
v -83.06339264 23.75 -104.8459167
v -71.90221405 23.75 -72.43149567
v -71.90221405 13.41666698 -72.43149567
v -72.03257751 13.41666698 -72.81008911
v -72.80833435 13.95707512 -72.11949158
v -72.93869781 13.95707512 -72.49808502
v -72.42421722 13.95707512 -72.25175476
v -72.55458069 13.95707512 -72.63034821
v -72.80833435 23.75 -72.11949158
v -83.66822052 23.75 -103.6588821
v -72.42421722 13.41666698 -72.25175476
v -72.55458069 13.41666698 -72.63034821
vn -0.9342604876 -0.006325413473 -0.3565351963
vn 0.8798021078 -0.3915459216 -0.2695181072
vn -0.9311763644 -0.2136547714 0.2954018414
vn -0.9313691258 -0.21470128 0.2940321267
vn 0.9303026199 -0.1076741219 -0.3506327271
vn -0.4226046205 -0.004823090974 0.9063013196
vn 0.8909819126 -0.004822895397 0.4540131688
vn -0.3255749047 -0.003016773146 -0.9455114603
vn 0.9141479731 0.2195042819 -0.3408098817
vn 0.951205194 0.211242348 -0.2249117792
vn 0.9160923362 -0.0496718213 0.3978787363
vn 0.2526323795 -0.05057341233 -0.9662397504
vn -0.6153725386 -0.02226912975 0.7879217863
vn -0.8908236027 -0.1031237617 -0.4424915612
vn 0.3043221235 -0.01679224521 0.9524211884
vn -0.3438329399 -0.01459668949 -0.9389173985
vn -0.8352649212 0.4019088745 0.375235647
vn -0.9480609298 0.1087959334 0.2989045084
vn -0.2500442266 -0.5143648386 0.8203089237
vn -0.7371639609 -0.6436852217 -0.2055691183
f 1//1 2//2 3//3 
f 3//3 2//2 4//4 
f 4//4 2//2 5//5 
f 1//1 6//6 2//2 
f 2//2 6//6 7//7 
f 8//8 7//7 6//6 
f 9//9 10//10 5//5 
f 5//5 10//10 11//11 
f 5//5 11//11 12//12 
f 5//5 2//2 9//9 
f 9//9 2//2 8//8 
f 8//8 2//2 7//7 
f 13//13 14//14 15//15 
f 15//15 14//14 16//16 
f 14//14 13//13 4//4 
f 4//4 13//13 17//17 
f 4//4 17//17 18//18 
f 18//18 3//3 4//4 
f 19//19 15//15 20//20 
f 20//20 15//15 16//16 
f 13//13 15//15 17//17 
f 17//17 15//15 10//10 
f 10//10 15//15 11//11 
f 11//11 15//15 19//19 
f 14//14 4//4 16//16 
f 16//16 4//4 5//5 
f 16//16 5//5 12//12 
f 12//12 20//20 16//16 
f 19//19 20//20 11//11 
f 11//11 20//20 12//12 
f 18//18 17//17 9//9 
f 9//9 17//17 10//10 
f 3//3 18//18 1//1 
f 1//1 18//18 9//9 
f 1//1 9//9 8//8 
f 8//8 6//6 1//1 
