v -69.84565735 9.260416985 -52.81888962
v -69.90809631 9.260416985 -52.82270813
v -69.84565735 9.338541985 -52.81888962
v -69.90809631 9.364583015 -52.82270813
v -69.72078705 9.338541985 -52.81124878
v -69.05482483 9.364583015 -52.77050781
v -69.05482483 9.260416985 -52.77050781
v -69.72078705 9.260416985 -52.81124878
v -70.29451752 9.364583015 -49.02649307
v -69.44823456 9.364583015 -48.90569687
v -70.10874939 9.390625 -48.99997711
v -69.44823456 9.46875 -48.90569687
v -70.10874939 9.46875 -48.99997711
v -70.23258972 9.390625 -49.01765442
v -70.29451752 9.46875 -49.02649307
v -70.23258972 9.46875 -49.01765442
v -69.44823456 9.260416985 -48.90569687
v -69.05482483 9.46875 -52.77050781
v -69.72078705 9.46875 -52.81124878
v -70.23258972 9.260416985 -49.01765442
v -70.23258972 9.338541985 -49.01765442
v -70.29451752 9.260416985 -49.02649307
v -70.10874939 9.338541985 -48.99997711
v -70.10874939 9.260416985 -48.99997711
v -69.72078705 9.390625 -52.81124878
v -69.84565735 9.390625 -52.81888962
v -69.84565735 9.46875 -52.81888962
v -69.90809631 9.46875 -52.82270813
vn 0.7778620124 -0.6249241829 0.06633575261
vn -0.8517400622 -0.5145182014 -0.09904484451
vn 0.5276761055 -0.8484724164 0.04065043479
vn -0.9880173206 -1.694853503e-16 -0.1543430388
vn -0.4922735393 -0.8163557053 -0.3020431995
vn 0.9987809658 -5.401341024e-19 -0.04936130345
vn 0.1562930495 -0.9872348905 -0.03065527976
vn -0.1143702492 -0.9932000637 -0.02175062895
vn -0.9988519549 -1.681764594e-16 -0.04790318757
vn 0.9683489203 6.558078665e-19 0.2496004254
vn -0.313934803 0.9426131248 0.1136901975
vn 0.07467866689 0.9967172146 0.03127187863
vn -0.2297386676 0.9732462764 -0.003435883205
vn 0.7744850516 0.6249388456 0.09810378402
vn -0.954241991 0.2871866822 -0.08334288001
vn 0.5263482332 0.8479838371 0.06229748204
vn 0.1513082683 -0.9877225161 0.0388584882
vn 0.299341172 0.9540355206 -0.01452834439
vn -0.05716627836 0.9982367754 -0.01597890444
vn 0.7762694955 -0.6245843768 0.08544004709
vn 0.5237286687 -0.8481711149 0.07946132123
vn -0.8555570245 -0.5139331222 -0.06240952015
vn -0.5401416421 -0.8382666111 0.07453947514
vn -0.1186213642 -0.9929050803 0.00827809982
vn -0.7470665574 0.6099550128 -0.2642847896
vn 0.2973032892 0.9546561837 0.0155656077
vn 0.9243945479 0.3715096712 0.0864597857
vn -0.6350898743 0.7679582238 -0.08307283372
f 1//1 2//2 3//3 
f 3//3 2//2 4//4 
f 3//3 4//4 5//5 
f 5//5 4//4 6//6 
f 5//5 6//6 7//7 
f 7//7 8//8 5//5 
f 9//9 10//10 11//11 
f 11//11 10//10 12//12 
f 11//11 12//12 13//13 
f 11//11 14//14 9//9 
f 9//9 14//14 15//15 
f 15//15 14//14 16//16 
f 7//7 6//6 17//17 
f 17//17 6//6 10//10 
f 10//10 6//6 18//18 
f 10//10 18//18 12//12 
f 18//18 19//19 12//12 
f 12//12 19//19 13//13 
f 20//20 21//21 22//22 
f 22//22 21//21 9//9 
f 9//9 21//21 23//23 
f 9//9 23//23 10//10 
f 10//10 23//23 17//17 
f 17//17 23//23 24//24 
f 19//19 25//25 13//13 
f 13//13 25//25 11//11 
f 25//25 26//26 11//11 
f 11//11 26//26 14//14 
f 26//26 27//27 14//14 
f 14//14 27//27 16//16 
f 27//27 28//28 16//16 
f 16//16 28//28 15//15 
f 28//28 4//4 15//15 
f 15//15 4//4 9//9 
f 9//9 4//4 2//2 
f 9//9 2//2 22//22 
f 1//1 3//3 20//20 
f 20//20 3//3 21//21 
f 1//1 20//20 2//2 
f 2//2 20//20 22//22 
f 5//5 23//23 3//3 
f 3//3 23//23 21//21 
f 5//5 8//8 23//23 
f 23//23 8//8 24//24 
f 7//7 17//17 8//8 
f 8//8 17//17 24//24 
f 28//28 26//26 4//4 
f 4//4 26//26 25//25 
f 4//4 25//25 6//6 
f 6//6 25//25 18//18 
f 18//18 25//25 19//19 
f 28//28 27//27 26//26 
