v -59.15459061 39.04166794 -63.90295792
v -58.36261368 39.04166794 -60.47252655
v -58.64710617 39.04166794 -64.02011871
v -57.85512924 39.04166794 -60.58969116
v -58.64710617 38.84370804 -64.02011871
v -57.85512924 38.84370804 -60.58969116
v -58.67505646 38.84370804 -64.01366425
v -57.88307953 38.84370804 -60.58323669
v -57.88307953 38.75 -60.58323669
v -58.67505646 38.75 -64.01366425
v -57.88814926 38.7810936 -60.58206558
v -58.68012619 38.7810936 -64.01249695
v -58.68012619 38.81261826 -64.01249695
v -57.88814926 38.81261826 -60.58206558
v -58.98333359 38.75 -63.94249725
v -58.19135666 38.75 -60.51206589
v -58.36261368 38.83333206 -60.47252655
v -58.19135666 38.83333206 -60.51206589
v -59.15459061 38.83333206 -63.90295792
v -58.98333359 38.83333206 -63.94249725
vn -0.3773884773 0.9259784222 0.01191307418
vn -0.353372097 0.9278491139 0.1192652881
vn 0.3357187212 0.9338131547 -0.1236362681
vn 0.3649472594 0.93099612 0.007726012729
vn 0.9340706468 -0.2783520222 -0.223678723
vn 0.97272861 -0.0722636804 -0.2204020619
vn 0.4963036478 -0.6641855836 -0.5590530038
vn 0.693020761 -0.7164940834 0.07973968983
vn 0.09888327122 -0.9950053096 -0.01365942415
vn 0.09587143362 -0.9950350523 -0.02671857551
vn 0.9889642596 0.08236604184 -0.1231485456
vn 0.9056535959 0.0810880363 -0.4161925912
vn 0.9601207376 -0.08272417635 -0.2670671642
vn 0.9870831966 -0.08249036223 -0.1373395175
vn -0.4603250325 -0.884393692 0.07712773979
vn -0.1236236468 -0.9913139343 0.04487592354
vn -0.4908958375 -0.8599860668 0.139446348
vn -0.5787749887 -0.6956709623 0.4255131185
vn -0.9027010798 -0.3885577619 0.1848070472
vn -0.2643194199 -0.9543382525 -0.1391894817
f 1//1 2//2 3//3 
f 3//3 2//2 4//4 
f 5//5 3//3 6//6 
f 6//6 3//3 4//4 
f 7//7 5//5 8//8 
f 8//8 5//5 6//6 
f 9//9 10//10 11//11 
f 11//11 10//10 12//12 
f 11//11 12//12 13//13 
f 7//7 8//8 13//13 
f 13//13 8//8 14//14 
f 13//13 14//14 11//11 
f 15//15 10//10 16//16 
f 16//16 10//10 9//9 
f 17//17 18//18 2//2 
f 2//2 18//18 4//4 
f 4//4 18//18 8//8 
f 4//4 8//8 6//6 
f 16//16 11//11 18//18 
f 18//18 11//11 14//14 
f 18//18 14//14 8//8 
f 16//16 9//9 11//11 
f 1//1 19//19 2//2 
f 2//2 19//19 17//17 
f 20//20 15//15 18//18 
f 18//18 15//15 16//16 
f 19//19 1//1 20//20 
f 20//20 1//1 3//3 
f 20//20 3//3 7//7 
f 7//7 3//3 5//5 
f 7//7 13//13 20//20 
f 20//20 13//13 12//12 
f 20//20 12//12 15//15 
f 15//15 12//12 10//10 
f 19//19 20//20 17//17 
f 17//17 20//20 18//18 
