v -70.83646393 46.45819855 -114.8732758
v -70.83646393 39.04166794 -114.8732758
v -70.75527191 46.45819855 -114.8920212
v -70.75527191 39.04166794 -114.8920212
v -71.58943176 39.04166794 -118.5051804
v -71.58943176 46.45819855 -118.5051804
v -71.67063141 46.45819855 -118.4864349
v -71.67063141 39.04166794 -118.4864349
vn -0.9717196822 0.01123450603 0.2358699441
vn -0.9630449414 -0.02244354039 0.2684040666
vn 0.9834254384 0.01122338325 -0.1809654236
vn 0.9768206477 -0.005617268849 -0.2139855772
vn 0.963044405 -0.02244352736 -0.2684059739
vn 0.9717199206 0.01123450883 -0.2358689755
vn -0.983425796 0.01122439373 0.1809634268
vn -0.9768204689 -0.005617771298 0.2139865607
f 1//1 2//2 3//3 
f 3//3 2//2 4//4 
f 5//5 6//6 4//4 
f 4//4 6//6 3//3 
f 7//7 1//1 6//6 
f 6//6 1//1 3//3 
f 8//8 5//5 2//2 
f 2//2 5//5 4//4 
f 2//2 1//1 8//8 
f 8//8 1//1 7//7 
f 8//8 7//7 5//5 
f 5//5 7//7 6//6 
