v -70.85205078 39.04166794 -114.5701981
v -70.0178833 39.04166794 -110.9570465
v -70.34455872 39.04166794 -114.6873627
v -69.51039886 39.04166794 -111.0742035
v -70.34455872 38.84370804 -114.6873627
v -69.51039886 38.84370804 -111.0742035
v -70.37251282 38.84370804 -114.6809082
v -69.53835297 38.84370804 -111.0677567
v -69.53835297 38.75 -111.0677567
v -70.37251282 38.75 -114.6809082
v -69.54341888 38.7810936 -111.0665817
v -70.37758636 38.7810936 -114.6797409
v -70.37758636 38.81261826 -114.6797409
v -69.54341888 38.81261826 -111.0665817
v -70.68078613 38.75 -114.6097412
v -69.84662628 38.75 -110.996582
v -70.0178833 38.83333206 -110.9570465
v -69.84662628 38.83333206 -110.996582
v -70.85205078 38.83333206 -114.5701981
v -70.68078613 38.83333206 -114.6097412
vn -0.376649797 0.9262256026 0.01552721951
vn -0.3538113236 0.9279115796 0.1174636409
vn 0.3362618983 0.9339068532 -0.1214329302
vn 0.3640723526 0.9313647747 0.003311275505
vn 0.9341554046 -0.278378129 -0.2232920229
vn 0.9726830721 -0.07226882875 -0.2206010818
vn 0.5058811903 -0.6704925299 -0.5427005887
vn 0.6921901703 -0.7184656858 0.06840935349
vn 0.09878201038 -0.9950091839 -0.01409976371
vn 0.09592349082 -0.9950359464 -0.02649875917
vn 0.988309741 0.08241241425 -0.1282655448
vn 0.9097743034 0.08130815625 -0.4070622325
vn 0.9607162476 -0.08273844421 -0.2649124265
vn 0.9864620566 -0.08247097582 -0.1417434514
vn -0.4600244761 -0.8844265342 0.0785311982
vn -0.1238074899 -0.9913261533 0.04409245402
vn -0.4911932051 -0.8600181341 0.1381955147
vn -0.5843477845 -0.6984599233 0.4131481349
vn -0.902456522 -0.3885833621 0.1859440506
vn -0.2625896335 -0.9561347365 -0.1298191249
f 1//1 2//2 3//3 
f 3//3 2//2 4//4 
f 5//5 3//3 6//6 
f 6//6 3//3 4//4 
f 7//7 5//5 8//8 
f 8//8 5//5 6//6 
f 9//9 10//10 11//11 
f 11//11 10//10 12//12 
f 11//11 12//12 13//13 
f 7//7 8//8 13//13 
f 13//13 8//8 14//14 
f 13//13 14//14 11//11 
f 15//15 10//10 16//16 
f 16//16 10//10 9//9 
f 17//17 18//18 2//2 
f 2//2 18//18 4//4 
f 4//4 18//18 8//8 
f 4//4 8//8 6//6 
f 16//16 11//11 18//18 
f 18//18 11//11 14//14 
f 18//18 14//14 8//8 
f 16//16 9//9 11//11 
f 1//1 19//19 2//2 
f 2//2 19//19 17//17 
f 20//20 15//15 18//18 
f 18//18 15//15 16//16 
f 19//19 1//1 20//20 
f 20//20 1//1 3//3 
f 20//20 3//3 7//7 
f 7//7 3//3 5//5 
f 7//7 13//13 20//20 
f 20//20 13//13 12//12 
f 20//20 12//12 15//15 
f 15//15 12//12 10//10 
f 19//19 20//20 17//17 
f 17//17 20//20 18//18 
