v -58.71276855 46.75 -64.30443573
v -59.54693222 46.75 -67.91759491
v -59.22067642 46.75 -64.18717957
v -60.05484009 46.75 -67.80033875
v -60.05441666 46.66838837 -67.8004303
v -59.22025299 46.66838837 -64.18727875
v -60.05023956 46.69549561 -67.80139923
v -59.2160759 46.69549561 -64.18824005
v -59.21621704 46.72293854 -64.18820953
v -60.05038071 46.72293854 -67.80136871
v -60.05441666 46.45819855 -67.8004303
v -59.54693222 46.45819855 -67.91759491
v -59.22025299 46.45819855 -64.18727875
v -58.71276855 46.45819855 -64.30443573
vn 0.4937594235 0.8692550659 -0.02443910204
vn 0.4656479955 0.8717473745 -0.1524089575
vn -0.02457069606 0.9996535778 0.009432651103
vn -0.1040651873 0.9944345355 0.0164442081
vn -0.9969469309 0.01724118739 -0.07615486532
vn -0.9277647138 0.01784588955 0.3727386892
vn -0.9847362638 0.0755385384 0.1568067968
vn -0.9317753911 0.07499916852 0.3552038074
vn -0.9527379274 -0.08608586341 0.2913411856
vn -0.9925002456 -0.08547385782 0.08739291131
vn -0.621291995 -0.777399838 0.09821277857
vn 0.2476447076 -0.9608927965 -0.1239238903
vn -0.1864049584 -0.9798651934 0.07153610885
vn 0.7442278862 -0.6631556153 -0.07968359441
f 1//1 2//2 3//3 
f 3//3 2//2 4//4 
f 5//5 6//6 7//7 
f 7//7 6//6 8//8 
f 7//7 8//8 9//9 
f 3//3 4//4 9//9 
f 9//9 4//4 10//10 
f 9//9 10//10 7//7 
f 11//11 5//5 12//12 
f 12//12 5//5 2//2 
f 2//2 5//5 7//7 
f 2//2 7//7 10//10 
f 10//10 4//4 2//2 
f 13//13 6//6 11//11 
f 11//11 6//6 5//5 
f 1//1 14//14 2//2 
f 2//2 14//14 12//12 
f 13//13 14//14 6//6 
f 6//6 14//14 1//1 
f 6//6 1//1 8//8 
f 8//8 1//1 9//9 
f 9//9 1//1 3//3 
f 14//14 13//13 12//12 
f 12//12 13//13 11//11 
