v -64.55342102 39.04166794 -87.2878418
v -63.71925354 39.04166794 -83.67468262
v -64.04592896 39.04166794 -87.40499878
v -63.2117691 39.04166794 -83.79184723
v -64.04592896 38.84370804 -87.40499878
v -63.2117691 38.84370804 -83.79184723
v -64.07388306 38.84370804 -87.39855194
v -63.23971939 38.84370804 -83.78539276
v -63.23971939 38.75 -83.78539276
v -64.07388306 38.75 -87.39855194
v -63.24478912 38.7810936 -83.78421783
v -64.0789566 38.7810936 -87.39737701
v -64.0789566 38.81261826 -87.39737701
v -63.24478912 38.81261826 -83.78421783
v -64.38215637 38.75 -87.32737732
v -63.54799652 38.75 -83.71421814
v -63.71925354 38.83333206 -83.67468262
v -63.54799652 38.83333206 -83.71421814
v -64.55342102 38.83333206 -87.2878418
v -64.38215637 38.83333206 -87.32737732
vn -0.3766499758 0.9262254834 0.01552725863
vn -0.3538115323 0.9279114604 0.1174635887
vn 0.3362615705 0.9339069724 -0.1214329451
vn 0.3640719354 0.9313649535 0.003311284119
vn 0.9341600537 -0.2783615291 -0.2232931405
vn 0.9726832509 -0.07226374 -0.2206018716
vn 0.5058810115 -0.6704924107 -0.5427010059
vn 0.692186892 -0.7184689045 0.06840855628
vn 0.09878201783 -0.9950091839 -0.01409973577
vn 0.09592347592 -0.9950359464 -0.02649880759
vn 0.9883061647 0.08245576918 -0.1282650232
vn 0.9097714424 0.08134453744 -0.407061398
vn 0.9607123733 -0.08278634399 -0.2649115622
vn 0.9864571691 -0.08253066242 -0.1417424232
vn -0.4600233734 -0.8844271302 0.07853098214
vn -0.1238063201 -0.9913263321 0.04409208894
vn -0.4911954105 -0.8600168228 0.1381958425
vn -0.5843480825 -0.6984583139 0.4131504595
vn -0.9024577737 -0.3885804713 0.1859441102
vn -0.2625891566 -0.9561348557 -0.1298194081
f 1//1 2//2 3//3 
f 3//3 2//2 4//4 
f 5//5 3//3 6//6 
f 6//6 3//3 4//4 
f 7//7 5//5 8//8 
f 8//8 5//5 6//6 
f 9//9 10//10 11//11 
f 11//11 10//10 12//12 
f 11//11 12//12 13//13 
f 7//7 8//8 13//13 
f 13//13 8//8 14//14 
f 13//13 14//14 11//11 
f 15//15 10//10 16//16 
f 16//16 10//10 9//9 
f 17//17 18//18 2//2 
f 2//2 18//18 4//4 
f 4//4 18//18 8//8 
f 4//4 8//8 6//6 
f 16//16 11//11 18//18 
f 18//18 11//11 14//14 
f 18//18 14//14 8//8 
f 16//16 9//9 11//11 
f 1//1 19//19 2//2 
f 2//2 19//19 17//17 
f 20//20 15//15 18//18 
f 18//18 15//15 16//16 
f 19//19 1//1 20//20 
f 20//20 1//1 3//3 
f 20//20 3//3 7//7 
f 7//7 3//3 5//5 
f 7//7 13//13 20//20 
f 20//20 13//13 12//12 
f 20//20 12//12 15//15 
f 15//15 12//12 10//10 
f 19//19 20//20 17//17 
f 17//17 20//20 18//18 
