v -55.58198166 46.45819855 -48.79883957
v -55.58198166 39.04166794 -48.79883957
v -55.50078201 46.45819855 -48.81758499
v -55.50078201 39.04166794 -48.81758499
v -56.29275894 39.04166794 -52.24801254
v -56.29275894 46.45819855 -52.24801254
v -56.37395859 46.45819855 -52.22926712
v -56.37395859 39.04166794 -52.22926712
vn -0.9715783596 0.01123492979 0.2364514917
vn -0.9624001384 -0.02244204842 0.270707041
vn 0.9838554859 0.01122315694 -0.1786124557
vn 0.9769485593 -0.005617732182 -0.2134009898
vn 0.9624001384 -0.02244204842 -0.270707041
vn 0.9715783596 0.01123492979 -0.2364514917
vn -0.9838554859 0.01122315694 0.1786124557
vn -0.9769485593 -0.005617732182 0.2134009898
f 1//1 2//2 3//3 
f 3//3 2//2 4//4 
f 5//5 6//6 4//4 
f 4//4 6//6 3//3 
f 7//7 1//1 6//6 
f 6//6 1//1 3//3 
f 8//8 5//5 2//2 
f 2//2 5//5 4//4 
f 2//2 1//1 8//8 
f 8//8 1//1 7//7 
f 8//8 7//7 5//5 
f 5//5 7//7 6//6 
