v -41.20071411 46.75 13.86392403
v -41.20071411 38.75 13.86392403
v -41.15343094 46.75 14.06872749
v -41.15343094 38.75 14.06872749
v -41.13549805 38.75 14.14834595
v -41.13549805 46.75 14.14834595
v -41.13712311 38.75 14.12094975
v -41.13712311 46.75 14.12094975
v -41.14315414 46.75 14.09417534
v -41.14315414 38.75 14.09417534
v -40.69322968 38.75 13.74676228
v -40.62758636 38.75 14.03108501
v -40.62758636 46.75 14.03108501
v -40.69322968 46.75 13.74676228
vn -0.4130381048 0.03074020892 -0.9101948142
vn -0.7860864997 -0.04877049476 -0.6161894798
vn -0.9715933204 0.03440433741 0.234142676
vn -0.9649285078 -0.05813510716 0.2559946775
vn 0.1994818002 -0.001698106877 0.9799000621
vn 0.1213057041 0.003423856804 0.9926092625
vn -0.9896429777 -0.03230179846 0.1398692578
vn -0.9880976677 0.06450272352 0.1396508664
vn -0.9540541172 0.03191725165 0.297929585
vn -0.9525995851 -0.06373718381 0.2974753678
vn 0.04621278867 -0.01755884662 -0.9987772703
vn 0.8755236864 -0.04842735454 0.4807422161
vn 0.4789599776 0.03502270207 0.8771378398
vn 0.5770133734 0.02427956834 -0.8163737059
f 1//1 2//2 3//3 
f 3//3 2//2 4//4 
f 5//5 6//6 7//7 
f 7//7 6//6 8//8 
f 7//7 8//8 9//9 
f 3//3 4//4 9//9 
f 9//9 4//4 10//10 
f 9//9 10//10 7//7 
f 11//11 12//12 2//2 
f 2//2 12//12 4//4 
f 4//4 12//12 10//10 
f 10//10 12//12 7//7 
f 7//7 12//12 5//5 
f 6//6 5//5 13//13 
f 13//13 5//5 12//12 
f 14//14 11//11 1//1 
f 1//1 11//11 2//2 
f 14//14 1//1 13//13 
f 13//13 1//1 3//3 
f 13//13 3//3 9//9 
f 9//9 8//8 13//13 
f 13//13 8//8 6//6 
f 13//13 12//12 14//14 
f 14//14 12//12 11//11 
