v -37.95162964 38.75 25.62193108
v -37.95162964 46.75 25.62193108
v -38.45954132 38.75 25.73919106
v -38.45954132 46.75 25.73919106
v -38.47747421 46.75 25.6595726
v -38.47747421 38.75 25.6595726
v -38.46719742 46.75 25.68502045
v -38.46719742 38.75 25.68502045
v -38.46116638 38.75 25.71179581
v -38.46116638 46.75 25.71179581
v -38.01727295 46.75 25.33760834
v -38.52475739 46.75 25.45476913
v -38.52475739 38.75 25.45476913
v -38.01727295 38.75 25.33760834
vn 0.8755233884 -0.04842738807 0.4807427227
vn 0.4789586365 0.03502271697 0.877138555
vn 0.199480921 -0.001698048669 0.9799002409
vn 0.1213075295 0.003423738061 0.9926090837
vn -0.9715933204 0.0344043225 0.234142676
vn -0.9649285078 -0.05813508108 0.2559946775
vn -0.9540556669 0.03191726655 0.297924608
vn -0.9526011348 -0.06373720616 0.2974704206
vn -0.9896429777 -0.03230179846 0.1398692578
vn -0.9880976677 0.06450272352 0.1396508664
vn 0.5770142078 0.0242795404 -0.8163731694
vn -0.4130366147 0.03074021824 -0.9101954699
vn -0.7860859632 -0.04877053201 -0.6161901951
vn 0.04621454701 -0.01755883731 -0.9987772107
f 1//1 2//2 3//3 
f 3//3 2//2 4//4 
f 5//5 6//6 7//7 
f 7//7 6//6 8//8 
f 7//7 8//8 9//9 
f 3//3 4//4 9//9 
f 9//9 4//4 10//10 
f 9//9 10//10 7//7 
f 11//11 12//12 2//2 
f 2//2 12//12 5//5 
f 2//2 5//5 7//7 
f 7//7 10//10 2//2 
f 2//2 10//10 4//4 
f 6//6 5//5 13//13 
f 13//13 5//5 12//12 
f 14//14 11//11 1//1 
f 1//1 11//11 2//2 
f 14//14 1//1 13//13 
f 13//13 1//1 6//6 
f 6//6 1//1 8//8 
f 8//8 1//1 9//9 
f 9//9 1//1 3//3 
f 13//13 12//12 14//14 
f 14//14 12//12 11//11 
