v -37.55929184 39.04166794 29.63656807
v -36.72512817 39.04166794 33.24972534
v -37.05180359 39.04166794 29.51940536
v -36.21763992 39.04166794 33.13256454
v -37.05180359 38.84370804 29.51940536
v -36.21763992 38.84370804 33.13256454
v -37.07975769 38.84370804 29.52585983
v -36.24559402 38.84370804 33.1390152
v -36.24559402 38.75 33.1390152
v -37.07975769 38.75 29.52585983
v -36.25066376 38.7810936 33.14018631
v -37.08482742 38.7810936 29.52702904
v -37.08482742 38.81261826 29.52702904
v -36.25066376 38.81261826 33.14018631
v -37.38803101 38.75 29.59703064
v -36.55387115 38.75 33.210186
v -36.72512817 38.83333206 33.24972534
v -36.55387115 38.83333206 33.210186
v -37.55929184 38.83333206 29.63656807
v -37.38803101 38.83333206 29.59703064
vn -0.3766521513 0.9262245893 0.01552770659
vn -0.3538112342 0.9279116392 0.1174633652
vn 0.3362616301 0.9339069128 -0.121433042
vn 0.3640698195 0.931365788 0.003311632667
vn 0.9341540337 -0.2783820927 -0.2232926935
vn 0.9726827145 -0.07227094471 -0.2206019163
vn 0.5058985353 -0.670460403 -0.5427241921
vn 0.6921873093 -0.7184682488 0.06841146946
vn 0.09878201038 -0.9950091839 -0.01409976371
vn 0.09592285007 -0.995036006 -0.02649859153
vn 0.9883098602 0.08241212368 -0.1282648444
vn 0.9097772241 0.08126071095 -0.4070652425
vn 0.9607164264 -0.08273690939 -0.2649123967
vn 0.9864580035 -0.08252207935 -0.1417416483
vn -0.4600239098 -0.8844268918 0.07853090763
vn -0.1238067523 -0.9913262725 0.04409227148
vn -0.4911976755 -0.8600155115 0.1381961703
vn -0.5843446255 -0.6984622478 0.4131486714
vn -0.9024604559 -0.388574183 0.1859442294
vn -0.2625913322 -0.9561342597 -0.1298194528
f 1//1 2//2 3//3 
f 3//3 2//2 4//4 
f 5//5 3//3 6//6 
f 6//6 3//3 4//4 
f 7//7 5//5 8//8 
f 8//8 5//5 6//6 
f 9//9 10//10 11//11 
f 11//11 10//10 12//12 
f 11//11 12//12 13//13 
f 7//7 8//8 13//13 
f 13//13 8//8 14//14 
f 13//13 14//14 11//11 
f 15//15 10//10 16//16 
f 16//16 10//10 9//9 
f 17//17 18//18 2//2 
f 2//2 18//18 4//4 
f 4//4 18//18 8//8 
f 4//4 8//8 6//6 
f 16//16 11//11 18//18 
f 18//18 11//11 14//14 
f 18//18 14//14 8//8 
f 16//16 9//9 11//11 
f 1//1 19//19 2//2 
f 2//2 19//19 17//17 
f 20//20 15//15 18//18 
f 18//18 15//15 16//16 
f 19//19 1//1 20//20 
f 20//20 1//1 3//3 
f 20//20 3//3 7//7 
f 7//7 3//3 5//5 
f 7//7 13//13 20//20 
f 20//20 13//13 12//12 
f 20//20 12//12 15//15 
f 15//15 12//12 10//10 
f 19//19 20//20 17//17 
f 17//17 20//20 18//18 
