v -40.25870514 39.04166794 17.94412804
v -39.42454147 39.04166794 21.55728531
v -39.75121689 39.04166794 17.82696533
v -38.91705322 39.04166794 21.4401226
v -39.75121689 38.84370804 17.82696533
v -38.91705322 38.84370804 21.4401226
v -39.77917099 38.84370804 17.83341789
v -38.94500732 38.84370804 21.44657516
v -38.94500732 38.75 21.44657516
v -39.77917099 38.75 17.83341789
v -38.95007706 38.7810936 21.44774628
v -39.78424072 38.7810936 17.834589
v -39.78424072 38.81261826 17.834589
v -38.95007706 38.81261826 21.44774628
v -40.08744431 38.75 17.90459061
v -39.25328064 38.75 21.51774597
v -39.42454147 38.83333206 21.55728531
v -39.25328064 38.83333206 21.51774597
v -40.25870514 38.83333206 17.94412804
v -40.08744431 38.83333206 17.90459061
vn -0.3766521513 0.9262245893 0.01552770659
vn -0.3538110554 0.9279116988 0.1174635217
vn 0.3362613618 0.933907032 -0.1214330122
vn 0.3640696704 0.9313658476 0.00331126526
vn 0.9341540337 -0.2783820927 -0.2232926935
vn 0.9726826549 -0.0722720027 -0.220601961
vn 0.5058985353 -0.670460403 -0.5427241921
vn 0.6921865344 -0.7184692025 0.0684087798
vn 0.09878318012 -0.9950090647 -0.01410002634
vn 0.09592340887 -0.9950359464 -0.02649874426
vn 0.988309443 0.08241550624 -0.128265962
vn 0.9097765088 0.08126980811 -0.4070650339
vn 0.9607160687 -0.08274154365 -0.2649123073
vn 0.9864578843 -0.0825220868 -0.1417426467
vn -0.4600235522 -0.884427011 0.07853131741
vn -0.1238073409 -0.9913261533 0.04409243166
vn -0.4911937714 -0.8600178361 0.1381955892
vn -0.5843387842 -0.6984692812 0.4131449759
vn -0.9024604559 -0.388574183 0.1859442294
vn -0.262589097 -0.9561350942 -0.1298179477
f 1//1 2//2 3//3 
f 3//3 2//2 4//4 
f 5//5 3//3 6//6 
f 6//6 3//3 4//4 
f 7//7 5//5 8//8 
f 8//8 5//5 6//6 
f 9//9 10//10 11//11 
f 11//11 10//10 12//12 
f 11//11 12//12 13//13 
f 7//7 8//8 13//13 
f 13//13 8//8 14//14 
f 13//13 14//14 11//11 
f 15//15 10//10 16//16 
f 16//16 10//10 9//9 
f 17//17 18//18 2//2 
f 2//2 18//18 4//4 
f 4//4 18//18 8//8 
f 4//4 8//8 6//6 
f 16//16 11//11 18//18 
f 18//18 11//11 14//14 
f 18//18 14//14 8//8 
f 16//16 9//9 11//11 
f 1//1 19//19 2//2 
f 2//2 19//19 17//17 
f 20//20 15//15 18//18 
f 18//18 15//15 16//16 
f 19//19 1//1 20//20 
f 20//20 1//1 3//3 
f 20//20 3//3 7//7 
f 7//7 3//3 5//5 
f 7//7 13//13 20//20 
f 20//20 13//13 12//12 
f 20//20 12//12 15//15 
f 15//15 12//12 10//10 
f 19//19 20//20 17//17 
f 17//17 20//20 18//18 
