v -51.93270493 39.04166794 -32.621521
v -51.12194061 39.04166794 -29.10972786
v -51.42521667 39.04166794 -32.73868179
v -50.61445618 39.04166794 -29.22689056
v -51.42521667 38.84370804 -32.73868179
v -50.61445618 38.84370804 -29.22689056
v -51.45317078 38.84370804 -32.73223114
v -50.64240646 38.84370804 -29.220438
v -50.64240646 38.75 -29.220438
v -51.45317078 38.75 -32.73223114
v -50.6474762 38.7810936 -29.21926689
v -51.45824051 38.7810936 -32.73106003
v -51.45824051 38.81261826 -32.73106003
v -50.6474762 38.81261826 -29.21926689
v -51.76144409 38.75 -32.66105652
v -50.95068359 38.75 -29.1492672
v -51.12194061 38.83333206 -29.10972786
v -50.95068359 38.83333206 -29.1492672
v -51.93270493 38.83333206 -32.621521
v -51.76144409 38.83333206 -32.66105652
vn -0.3770505786 0.9260932803 0.01356864162
vn -0.3535734117 0.9278781414 0.1184400842
vn 0.3359675109 0.9338567257 -0.1226270869
vn 0.3645473421 0.9311673641 0.005703905597
vn 0.9341096282 -0.278363049 -0.2235022038
vn 0.9727078676 -0.07226265222 -0.2204937488
vn 0.5006886721 -0.6670979261 -0.551625967
vn 0.6926505566 -0.7174094915 0.07455713302
vn 0.098836869 -0.9950070977 -0.01386122219
vn 0.09589517862 -0.9950354695 -0.0266179163
vn 0.9886672497 0.08239264041 -0.1254929155
vn 0.9075506926 0.08118231595 -0.4120208323
vn 0.9603934884 -0.08273728192 -0.2660806775
vn 0.9867991209 -0.08250509948 -0.1393569559
vn -0.460188508 -0.8844084144 0.07777108997
vn -0.1237075552 -0.9913196564 0.04451699927
vn -0.4910328984 -0.8600004911 0.1388737112
vn -0.5813348293 -0.6969634891 0.4198711514
vn -0.9025897384 -0.3885680437 0.1853283644
vn -0.263531059 -0.9551715851 -0.1349023134
f 1//1 2//2 3//3 
f 3//3 2//2 4//4 
f 5//5 3//3 6//6 
f 6//6 3//3 4//4 
f 7//7 5//5 8//8 
f 8//8 5//5 6//6 
f 9//9 10//10 11//11 
f 11//11 10//10 12//12 
f 11//11 12//12 13//13 
f 7//7 8//8 13//13 
f 13//13 8//8 14//14 
f 13//13 14//14 11//11 
f 15//15 10//10 16//16 
f 16//16 10//10 9//9 
f 17//17 18//18 2//2 
f 2//2 18//18 4//4 
f 4//4 18//18 8//8 
f 4//4 8//8 6//6 
f 16//16 11//11 18//18 
f 18//18 11//11 14//14 
f 18//18 14//14 8//8 
f 16//16 9//9 11//11 
f 1//1 19//19 2//2 
f 2//2 19//19 17//17 
f 20//20 15//15 18//18 
f 18//18 15//15 16//16 
f 19//19 1//1 20//20 
f 20//20 1//1 3//3 
f 20//20 3//3 7//7 
f 7//7 3//3 5//5 
f 7//7 13//13 20//20 
f 20//20 13//13 12//12 
f 20//20 12//12 15//15 
f 15//15 12//12 10//10 
f 19//19 20//20 17//17 
f 17//17 20//20 18//18 
