v -43.83446503 39.04166794 2.455802202
v -43.06594467 39.04166794 5.784636021
v -43.32698059 39.04166794 2.338639736
v -42.55845642 39.04166794 5.667473793
v -43.32698059 38.84370804 2.338639736
v -42.55845642 38.84370804 5.667473793
v -43.35493088 38.84370804 2.345093012
v -42.58641052 38.84370804 5.67392683
v -42.58641052 38.75 5.67392683
v -43.35493088 38.75 2.345093012
v -42.59148026 38.7810936 5.675097466
v -43.36000061 38.7810936 2.346263409
v -43.36000061 38.81261826 2.346263409
v -42.59148026 38.81261826 5.675097466
v -43.66320801 38.75 2.416263819
v -42.89468384 38.75 5.745097637
v -43.06594467 38.83333206 5.784636021
v -42.89468384 38.83333206 5.745097637
v -43.83446503 38.83333206 2.455802202
v -43.66320801 38.83333206 2.416263819
vn -0.377828747 0.9258243442 0.009731950238
vn -0.3531041443 0.9278107882 0.1203520298
vn 0.335388124 0.9337550998 -0.124964945
vn 0.3654693663 0.9307653904 0.01038869563
vn 0.9340111613 -0.2783653736 -0.2239105254
vn 0.9727553725 -0.07227217406 -0.2202810347
vn 0.4904821217 -0.6603662968 -0.5686331391
vn 0.6934316754 -0.7153068185 0.08653717488
vn 0.09894552082 -0.995002687 -0.01339391805
vn 0.09584121406 -0.9950343966 -0.02685152739
vn 0.9893454313 0.08234421909 -0.1200629175
vn 0.9031280875 0.08100087196 -0.4216615558
vn 0.9597583413 -0.08272595704 -0.268366158
vn 0.9874507189 -0.08246943355 -0.1346841604
vn -0.4605078697 -0.8843718767 0.0762815401
vn -0.1235138699 -0.9913061261 0.04534898326
vn -0.4907079637 -0.859970808 0.1401996613
vn -0.5753763914 -0.6939408183 0.4328834713
vn -0.9028443098 -0.3885510266 0.1841200739
vn -0.2653443217 -0.9532155991 -0.1448185891
f 1//1 2//2 3//3 
f 3//3 2//2 4//4 
f 5//5 3//3 6//6 
f 6//6 3//3 4//4 
f 7//7 5//5 8//8 
f 8//8 5//5 6//6 
f 9//9 10//10 11//11 
f 11//11 10//10 12//12 
f 11//11 12//12 13//13 
f 7//7 8//8 13//13 
f 13//13 8//8 14//14 
f 13//13 14//14 11//11 
f 15//15 10//10 16//16 
f 16//16 10//10 9//9 
f 17//17 18//18 2//2 
f 2//2 18//18 4//4 
f 4//4 18//18 8//8 
f 4//4 8//8 6//6 
f 16//16 11//11 18//18 
f 18//18 11//11 14//14 
f 18//18 14//14 8//8 
f 16//16 9//9 11//11 
f 1//1 19//19 2//2 
f 2//2 19//19 17//17 
f 20//20 15//15 18//18 
f 18//18 15//15 16//16 
f 19//19 1//1 20//20 
f 20//20 1//1 3//3 
f 20//20 3//3 7//7 
f 7//7 3//3 5//5 
f 7//7 13//13 20//20 
f 20//20 13//13 12//12 
f 20//20 12//12 15//15 
f 15//15 12//12 10//10 
f 19//19 20//20 17//17 
f 17//17 20//20 18//18 
