v -50.15655136 39.04166794 -24.9281559
v -49.36457443 39.04166794 -21.49772644
v -49.64906311 39.04166794 -25.0453167
v -48.85708618 39.04166794 -21.61488914
v -49.64906311 38.84370804 -25.0453167
v -48.85708618 38.84370804 -21.61488914
v -49.67701721 38.84370804 -25.03886414
v -48.88504028 38.84370804 -21.60843468
v -48.88504028 38.75 -21.60843468
v -49.67701721 38.75 -25.03886414
v -48.89011002 38.7810936 -21.60726547
v -49.68208694 38.7810936 -25.03769302
v -49.68208694 38.81261826 -25.03769302
v -48.89011002 38.81261826 -21.60726547
v -49.98529053 38.75 -24.96769333
v -49.1933136 38.75 -21.53726387
v -49.36457443 38.83333206 -21.49772644
v -49.1933136 38.83333206 -21.53726387
v -50.15655136 38.83333206 -24.9281559
v -49.98529053 38.83333206 -24.96769333
vn -0.3773862123 0.9259793162 0.01191221271
vn -0.3533700407 0.9278498888 0.1192649901
vn 0.3357167542 0.9338139296 -0.1236357689
vn 0.3649449944 0.930997014 0.007726352196
vn 0.9340616465 -0.278383255 -0.2236774862
vn 0.972728014 -0.07227300107 -0.2204013914
vn 0.4962749481 -0.6642327309 -0.559022367
vn 0.6929802895 -0.7165337801 0.07973457873
vn 0.098884359 -0.9950051904 -0.01365967467
vn 0.09587246925 -0.9950349331 -0.02671883255
vn 0.9889637232 0.08237071335 -0.1231497526
vn 0.9056528807 0.08110650629 -0.4161905348
vn 0.9601203203 -0.08273020387 -0.267066747
vn 0.9870833755 -0.08248621225 -0.1373407096
vn -0.460328728 -0.8843916655 0.07712872326
vn -0.1236248091 -0.9913138151 0.04487619922
vn -0.4908891916 -0.8599900603 0.1394450217
vn -0.5787700415 -0.6956772804 0.4255095422
vn -0.9026985168 -0.3885640502 0.184806183
vn -0.2643149793 -0.9543398619 -0.1391872019
f 1//1 2//2 3//3 
f 3//3 2//2 4//4 
f 5//5 3//3 6//6 
f 6//6 3//3 4//4 
f 7//7 5//5 8//8 
f 8//8 5//5 6//6 
f 9//9 10//10 11//11 
f 11//11 10//10 12//12 
f 11//11 12//12 13//13 
f 7//7 8//8 13//13 
f 13//13 8//8 14//14 
f 13//13 14//14 11//11 
f 15//15 10//10 16//16 
f 16//16 10//10 9//9 
f 17//17 18//18 2//2 
f 2//2 18//18 4//4 
f 4//4 18//18 8//8 
f 4//4 8//8 6//6 
f 16//16 11//11 18//18 
f 18//18 11//11 14//14 
f 18//18 14//14 8//8 
f 16//16 9//9 11//11 
f 1//1 19//19 2//2 
f 2//2 19//19 17//17 
f 20//20 15//15 18//18 
f 18//18 15//15 16//16 
f 19//19 1//1 20//20 
f 20//20 1//1 3//3 
f 20//20 3//3 7//7 
f 7//7 3//3 5//5 
f 7//7 13//13 20//20 
f 20//20 13//13 12//12 
f 20//20 12//12 15//15 
f 15//15 12//12 10//10 
f 19//19 20//20 17//17 
f 17//17 20//20 18//18 
