v -44.78433228 46.45819855 -2.029075861
v -44.78433228 39.04166794 -2.029075861
v -44.70313263 46.45819855 -2.04782176
v -44.70313263 39.04166794 -2.04782176
v -45.49510956 39.04166794 -5.47825098
v -45.49510956 46.45819855 -5.47825098
v -45.5763092 46.45819855 -5.459505081
v -45.5763092 39.04166794 -5.459505081
vn -0.9715783596 0.01123494469 0.2364514023
vn -0.962400198 -0.02244208381 0.2707069814
vn 0.9838555455 0.01122316811 -0.1786123216
vn 0.9769485593 -0.005617739167 -0.2134008706
vn 0.962400198 -0.02244208381 -0.2707069814
vn 0.9715783596 0.01123494469 -0.2364514023
vn -0.9838555455 0.01122316811 0.1786123216
vn -0.9769485593 -0.005617739167 0.2134008706
f 1//1 2//2 3//3 
f 3//3 2//2 4//4 
f 5//5 6//6 4//4 
f 4//4 6//6 3//3 
f 7//7 1//1 6//6 
f 6//6 1//1 3//3 
f 8//8 5//5 2//2 
f 2//2 5//5 4//4 
f 2//2 1//1 8//8 
f 8//8 1//1 7//7 
f 8//8 7//7 5//5 
f 5//5 7//7 6//6 
