v -46.5573349 39.04166794 -9.338233948
v -45.72317123 39.04166794 -5.725076675
v -46.04984665 39.04166794 -9.455396652
v -45.21568298 39.04166794 -5.84223938
v -46.04984665 38.84370804 -9.455396652
v -45.21568298 38.84370804 -5.84223938
v -46.07780075 38.84370804 -9.448943138
v -45.24363708 38.84370804 -5.835785866
v -45.24363708 38.75 -5.835785866
v -46.07780075 38.75 -9.448943138
v -45.24870682 38.7810936 -5.834615707
v -46.08287048 38.7810936 -9.44777298
v -46.08287048 38.81261826 -9.44777298
v -45.24870682 38.81261826 -5.834615707
v -46.38607407 38.75 -9.377772331
v -45.5519104 38.75 -5.764615059
v -45.72317123 38.83333206 -5.725076675
v -45.5519104 38.83333206 -5.764615059
v -46.5573349 38.83333206 -9.338233948
v -46.38607407 38.83333206 -9.377772331
vn -0.3766521811 0.9262245893 0.01552770287
vn -0.3538110554 0.9279116988 0.1174635068
vn 0.3362614214 0.933907032 -0.1214330122
vn 0.3640696108 0.9313658476 0.003311264096
vn 0.9341534972 -0.2783840895 -0.223292619
vn 0.9726825953 -0.07227253169 -0.2206019163
vn 0.5058993697 -0.6704601049 -0.5427237153
vn 0.6921868324 -0.7184689641 0.06840875745
vn 0.09878313541 -0.9950090647 -0.01410001982
vn 0.09592340142 -0.9950359464 -0.02649873495
vn 0.9883096814 0.08241273463 -0.128265962
vn 0.9097769856 0.08126524091 -0.4070649147
vn 0.9607163668 -0.08273753524 -0.2649123371
vn 0.9864580631 -0.08251994103 -0.1417426467
vn -0.46002388 -0.8844268322 0.07853134722
vn -0.1238074377 -0.9913261533 0.04409245402
vn -0.4911937714 -0.8600178361 0.1381955594
vn -0.5843394995 -0.6984686255 0.4131451845
vn -0.9024602771 -0.3885745406 0.1859441847
vn -0.2625889778 -0.9561350942 -0.1298179626
f 1//1 2//2 3//3 
f 3//3 2//2 4//4 
f 5//5 3//3 6//6 
f 6//6 3//3 4//4 
f 7//7 5//5 8//8 
f 8//8 5//5 6//6 
f 9//9 10//10 11//11 
f 11//11 10//10 12//12 
f 11//11 12//12 13//13 
f 7//7 8//8 13//13 
f 13//13 8//8 14//14 
f 13//13 14//14 11//11 
f 15//15 10//10 16//16 
f 16//16 10//10 9//9 
f 17//17 18//18 2//2 
f 2//2 18//18 4//4 
f 4//4 18//18 8//8 
f 4//4 8//8 6//6 
f 16//16 11//11 18//18 
f 18//18 11//11 14//14 
f 18//18 14//14 8//8 
f 16//16 9//9 11//11 
f 1//1 19//19 2//2 
f 2//2 19//19 17//17 
f 20//20 15//15 18//18 
f 18//18 15//15 16//16 
f 19//19 1//1 20//20 
f 20//20 1//1 3//3 
f 20//20 3//3 7//7 
f 7//7 3//3 5//5 
f 7//7 13//13 20//20 
f 20//20 13//13 12//12 
f 20//20 12//12 15//15 
f 15//15 12//12 10//10 
f 19//19 20//20 17//17 
f 17//17 20//20 18//18 
