v -49.71472549 46.75 -25.32963562
v -50.54888916 46.75 -28.94279289
v -50.22263718 46.75 -25.21237564
v -51.05680084 46.75 -28.82553291
v -51.0563736 46.66838837 -28.82563019
v -50.22220993 46.66838837 -25.21247292
v -51.0521965 46.69549561 -28.82659531
v -50.21803284 46.69549561 -25.21343803
v -50.21817398 46.72293854 -25.21340561
v -51.05233765 46.72293854 -28.82656288
v -51.0563736 46.45819855 -28.82563019
v -50.54888916 46.45819855 -28.94279289
v -50.22220993 46.45819855 -25.21247292
v -49.71472549 46.45819855 -25.32963562
vn 0.4937564731 0.8692567348 -0.02443888225
vn 0.4656446576 0.8717493415 -0.1524079591
vn -0.02457053773 0.9996535778 0.009432632476
vn -0.1040658355 0.9944344759 0.01644425653
vn -0.9969469309 0.0172398407 -0.07615481317
vn -0.9277647138 0.01784697361 0.372738719
vn -0.984736383 0.07553778589 0.1568066478
vn -0.9317744374 0.07501151413 0.3552036583
vn -0.9527314305 -0.08616216481 0.2913398147
vn -0.9924941063 -0.08554584533 0.08739180118
vn -0.6212922335 -0.7773996592 0.09821268916
vn 0.2476444989 -0.9608928561 -0.1239237413
vn -0.1864047199 -0.979865253 0.07153601944
vn 0.7442275286 -0.6631560922 -0.0796834901
f 1//1 2//2 3//3 
f 3//3 2//2 4//4 
f 5//5 6//6 7//7 
f 7//7 6//6 8//8 
f 7//7 8//8 9//9 
f 3//3 4//4 9//9 
f 9//9 4//4 10//10 
f 9//9 10//10 7//7 
f 11//11 5//5 12//12 
f 12//12 5//5 2//2 
f 2//2 5//5 7//7 
f 2//2 7//7 10//10 
f 10//10 4//4 2//2 
f 13//13 6//6 11//11 
f 11//11 6//6 5//5 
f 1//1 14//14 2//2 
f 2//2 14//14 12//12 
f 13//13 14//14 6//6 
f 6//6 14//14 1//1 
f 6//6 1//1 8//8 
f 8//8 1//1 9//9 
f 9//9 1//1 3//3 
f 14//14 13//13 12//12 
f 12//12 13//13 11//11 
