v -44.29244614 38.75 -1.843158722
v -44.29244614 46.75 -1.843158722
v -44.800354 38.75 -1.725898623
v -44.800354 46.75 -1.725898623
v -44.81829071 46.75 -1.805516481
v -44.81829071 38.75 -1.805516481
v -44.80801392 46.75 -1.780068517
v -44.80801392 38.75 -1.780068517
v -44.80198288 38.75 -1.753294826
v -44.80198288 46.75 -1.753294826
v -44.35808563 46.75 -2.127481937
v -44.86557007 46.75 -2.010319948
v -44.86557007 38.75 -2.010319948
v -44.35808563 38.75 -2.127481937
vn 0.8755216599 -0.04842718691 0.4807458818
vn 0.4789606035 0.03502279148 0.8771374822
vn 0.1994809806 -0.001698154607 0.9799002409
vn 0.1213032156 0.003423915012 0.9926096201
vn -0.9715971947 0.03440444171 0.2341265231
vn -0.9649321437 -0.05813522637 0.2559809983
vn -0.9540531635 0.03191722929 0.2979326844
vn -0.9525986314 -0.06373713911 0.2974784374
vn -0.9896330237 -0.03230186924 0.1399393976
vn -0.9880877733 0.06450286508 0.1397208869
vn 0.5770186186 0.02427971736 -0.81637007
vn -0.4130371511 0.03074006177 -0.9101952314
vn -0.7860810757 -0.04877007753 -0.616196394
vn 0.04621295258 -0.01755888574 -0.9987772703
f 1//1 2//2 3//3 
f 3//3 2//2 4//4 
f 5//5 6//6 7//7 
f 7//7 6//6 8//8 
f 7//7 8//8 9//9 
f 3//3 4//4 9//9 
f 9//9 4//4 10//10 
f 9//9 10//10 7//7 
f 11//11 12//12 2//2 
f 2//2 12//12 5//5 
f 2//2 5//5 7//7 
f 7//7 10//10 2//2 
f 2//2 10//10 4//4 
f 6//6 5//5 13//13 
f 13//13 5//5 12//12 
f 14//14 11//11 1//1 
f 1//1 11//11 2//2 
f 14//14 1//1 13//13 
f 13//13 1//1 6//6 
f 6//6 1//1 8//8 
f 8//8 1//1 9//9 
f 9//9 1//1 3//3 
f 13//13 12//12 14//14 
f 14//14 12//12 11//11 
