v -38.91707611 46.75 21.44012833
v -39.75123978 46.75 17.82697105
v -39.42498398 46.75 21.55738831
v -40.25914764 46.75 17.94423103
v -40.25872421 46.66838837 17.94413185
v -39.42456055 46.66838837 21.55728912
v -40.2545433 46.69549561 17.94316864
v -39.42038345 46.69549561 21.55632401
v -39.4205246 46.72293854 21.55635834
v -40.25468826 46.72293854 17.94320107
v -40.25872421 46.45819855 17.94413185
v -39.75123978 46.45819855 17.82697105
v -39.42456055 46.45819855 21.55728912
v -38.91707611 46.45819855 21.44012833
vn 0.4937592149 0.8692551851 -0.02443907782
vn 0.4656471312 0.8717478514 -0.1524086744
vn -0.024570629 0.9996535778 0.009432639927
vn -0.1040650681 0.9944345355 0.01644418947
vn -0.9969466925 0.0172546003 -0.07615453005
vn -0.9277646542 0.01785380393 0.372738421
vn -0.9847368002 0.07553233206 0.1568067074
vn -0.9317755699 0.07499917597 0.3552032709
vn -0.9527337551 -0.08613586426 0.2913400829
vn -0.9924941063 -0.08554584533 0.08739180118
vn -0.6212924123 -0.7773994803 0.09821274877
vn 0.2476449013 -0.9608927369 -0.1239238232
vn -0.1864049733 -0.9798651934 0.07153607905
vn 0.7442276478 -0.6631559134 -0.07968354225
f 1//1 2//2 3//3 
f 3//3 2//2 4//4 
f 5//5 6//6 7//7 
f 7//7 6//6 8//8 
f 7//7 8//8 9//9 
f 3//3 4//4 9//9 
f 9//9 4//4 10//10 
f 9//9 10//10 7//7 
f 11//11 5//5 12//12 
f 12//12 5//5 2//2 
f 2//2 5//5 7//7 
f 2//2 7//7 10//10 
f 10//10 4//4 2//2 
f 13//13 6//6 11//11 
f 11//11 6//6 5//5 
f 1//1 14//14 2//2 
f 2//2 14//14 12//12 
f 13//13 14//14 6//6 
f 6//6 14//14 1//1 
f 6//6 1//1 8//8 
f 8//8 1//1 9//9 
f 9//9 1//1 3//3 
f 14//14 13//13 12//12 
f 12//12 13//13 11//11 
