v -42.492836 38.75 5.951801777
v -42.492836 46.75 5.951801777
v -43.00074768 38.75 6.069061756
v -43.00074768 46.75 6.069061756
v -43.01868057 46.75 5.989444256
v -43.01868057 38.75 5.989444256
v -43.00840378 46.75 6.014892101
v -43.00840378 38.75 6.014892101
v -43.00237274 38.75 6.041665554
v -43.00237274 46.75 6.041665554
v -42.55847931 46.75 5.667478561
v -43.06596375 46.75 5.784640789
v -43.06596375 38.75 5.784640789
v -42.55847931 38.75 5.667478561
vn 0.8755236864 -0.04842732102 0.4807422161
vn 0.4789589643 0.03502269834 0.8771383762
vn 0.1994800419 -0.001698107342 0.9799004197
vn 0.1213038787 0.003423857037 0.9926095009
vn -0.9715933204 0.03440433741 0.234142676
vn -0.9649285078 -0.05813510716 0.2559946775
vn -0.9540525675 0.03191722184 0.2979345322
vn -0.9525980353 -0.0637371242 0.297480315
vn -0.9896426201 -0.03230179101 0.1398716718
vn -0.9880973697 0.06450270861 0.1396532655
vn 0.5770137906 0.02427960373 -0.8163734078
vn -0.4130388498 0.03074022941 -0.9101944566
vn -0.7860867381 -0.04877052084 -0.6161891222
vn 0.04621234909 -0.01755887829 -0.9987773299
f 1//1 2//2 3//3 
f 3//3 2//2 4//4 
f 5//5 6//6 7//7 
f 7//7 6//6 8//8 
f 7//7 8//8 9//9 
f 3//3 4//4 9//9 
f 9//9 4//4 10//10 
f 9//9 10//10 7//7 
f 11//11 12//12 2//2 
f 2//2 12//12 5//5 
f 2//2 5//5 7//7 
f 7//7 10//10 2//2 
f 2//2 10//10 4//4 
f 6//6 5//5 13//13 
f 13//13 5//5 12//12 
f 14//14 11//11 1//1 
f 1//1 11//11 2//2 
f 14//14 1//1 13//13 
f 13//13 1//1 6//6 
f 6//6 1//1 8//8 
f 8//8 1//1 9//9 
f 9//9 1//1 3//3 
f 13//13 12//12 14//14 
f 14//14 12//12 11//11 
