v -57.96385956 24.04166603 104.7698288
v -58.42372894 24.04166603 104.5253067
v -59.65591049 24.04166603 107.9521179
v -60.11577988 24.04166603 107.7075958
v -57.96385956 23.84370804 104.7698288
v -59.65591049 23.84370804 107.9521179
v -57.98918533 23.84370804 104.7563553
v -59.68124008 23.84370804 107.938652
v -59.68124008 23.75 107.938652
v -57.98918533 23.75 104.7563553
v -59.68583679 23.78109169 107.936203
v -57.99378204 23.78109169 104.7539139
v -57.99378204 23.81261635 104.7539139
v -59.68583679 23.81261635 107.936203
v -58.26853943 23.75 104.6078262
v -59.96059036 23.75 107.7901154
v -60.11577988 23.83333397 107.7075958
v -59.96059036 23.83333397 107.7901154
v -58.42372894 23.83333397 104.5253067
v -58.26853943 23.83333397 104.6078262
vn 0.567881465 0.7938817739 0.217399016
vn -0.1552514285 0.9798775911 -0.1254469603
vn 0.1430059075 0.9813712835 0.1282956004
vn -0.5788567662 0.7794533968 -0.2395353168
vn 0.8774912953 -0.143410638 0.4576487839
vn 0.8719647527 -0.1434138417 0.4680918455
vn 0.5139313936 -0.8556593657 -0.06100509316
vn 0.5847834349 -0.5107088089 0.6302419305
vn 0.0416512005 -0.9987655282 0.02706587873
vn 0.179945454 -0.9799293876 0.08577871323
vn 0.8284820318 0.08245165646 0.5539126992
vn 0.9552464485 0.08121160418 0.284444958
vn 0.8993785381 -0.08278933913 0.4292599857
vn 0.8361670971 -0.08259082586 0.5422207713
vn -0.2177474201 -0.9669071436 -0.132953465
vn -0.2390235215 -0.9665737152 -0.09275241941
vn -0.6918728352 -0.6443901062 -0.3256891072
vn -0.4556116462 -0.889226675 -0.04115784913
vn -0.6659888625 -0.6447261572 -0.3752159476
vn -0.196456939 -0.8499416709 -0.4888801575
f 1//1 2//2 3//3 
f 3//3 2//2 4//4 
f 5//5 1//1 6//6 
f 6//6 1//1 3//3 
f 5//5 6//6 7//7 
f 7//7 6//6 8//8 
f 9//9 10//10 11//11 
f 11//11 10//10 12//12 
f 11//11 12//12 13//13 
f 7//7 8//8 13//13 
f 13//13 8//8 14//14 
f 13//13 14//14 11//11 
f 10//10 9//9 15//15 
f 15//15 9//9 16//16 
f 17//17 18//18 4//4 
f 4//4 18//18 3//3 
f 3//3 18//18 8//8 
f 3//3 8//8 6//6 
f 16//16 11//11 18//18 
f 18//18 11//11 14//14 
f 18//18 14//14 8//8 
f 16//16 9//9 11//11 
f 2//2 19//19 4//4 
f 4//4 19//19 17//17 
f 19//19 2//2 20//20 
f 20//20 2//2 1//1 
f 20//20 1//1 7//7 
f 7//7 1//1 5//5 
f 7//7 13//13 20//20 
f 20//20 13//13 12//12 
f 20//20 12//12 15//15 
f 15//15 12//12 10//10 
f 20//20 15//15 18//18 
f 18//18 15//15 16//16 
f 20//20 18//18 19//19 
f 19//19 18//18 17//17 
