v -71.29534912 32.75 128.7323303
v -70.83509064 32.75 128.9770508
v -69.6424942 32.75 125.6237717
v -69.18224335 32.75 125.8684921
v -69.64211273 32.66838837 125.6239777
v -71.29496002 32.66838837 128.7325439
v -69.63832092 32.69549561 125.6259918
v -71.29117584 32.69549561 128.7345428
v -71.29130554 32.72293854 128.7344818
v -69.63845062 32.72293854 125.6259232
v -69.64211273 32.45819855 125.6239777
v -69.18224335 32.45819855 125.8684921
v -71.29496002 32.45819855 128.7325439
v -70.83509064 32.45819855 128.9770508
vn -0.04981451109 0.9986013174 -0.01771657169
vn 0.2138093561 0.9617448449 0.1712671667
vn -0.0443626903 0.9986237884 -0.02797338367
vn 0.6898733974 0.6645063162 0.2872385681
vn -0.6916199923 0.01718153991 -0.7220571637
vn -0.9473593235 0.01782487892 -0.3196757138
vn -0.8441286087 0.07550527155 -0.5307973623
vn -0.9387179613 0.07484021783 -0.3364633024
vn -0.9116687179 -0.08614735305 -0.401794523
vn -0.8020865321 -0.08548977971 -0.591057241
vn -0.317317307 -0.9269768 -0.2000594288
vn 0.4862141013 -0.865737617 0.1187189892
vn -0.3558810651 -0.9259139299 -0.1266176552
vn 0.401589632 -0.8707262278 0.2838337421
f 1//1 2//2 3//3 
f 3//3 2//2 4//4 
f 5//5 6//6 7//7 
f 7//7 6//6 8//8 
f 7//7 8//8 9//9 
f 1//1 3//3 9//9 
f 9//9 3//3 10//10 
f 9//9 10//10 7//7 
f 11//11 5//5 12//12 
f 12//12 5//5 4//4 
f 4//4 5//5 7//7 
f 4//4 7//7 10//10 
f 10//10 3//3 4//4 
f 13//13 6//6 11//11 
f 11//11 6//6 5//5 
f 2//2 14//14 4//4 
f 4//4 14//14 12//12 
f 13//13 14//14 6//6 
f 6//6 14//14 2//2 
f 6//6 2//2 8//8 
f 8//8 2//2 9//9 
f 9//9 2//2 1//1 
f 13//13 11//11 14//14 
f 14//14 11//11 12//12 
