v -61.83191299 32.45819855 111.1127319
v -61.83191299 24.04166603 111.1127319
v -61.75833511 32.45819855 111.1518555
v -61.75833511 24.04166603 111.1518555
v -60.10548401 24.04166603 108.0432968
v -60.10548401 32.45819855 108.0432968
v -60.17906189 32.45819855 108.0041733
v -60.17906189 24.04166603 108.0041733
vn -0.8884304762 0.004950134084 -0.458984524
vn -0.9041151404 -0.009889517911 -0.427174449
vn 0.8595920205 0.01977616362 0.5105981827
vn 0.877286911 -0.009899907745 0.4798642099
vn 0.9041151404 -0.009889517911 0.427174449
vn 0.8884304762 0.004950134084 0.458984524
vn -0.8595920205 0.01977616362 -0.5105981827
vn -0.877286911 -0.009899907745 -0.4798642099
f 1//1 2//2 3//3 
f 3//3 2//2 4//4 
f 5//5 6//6 4//4 
f 4//4 6//6 3//3 
f 1//1 3//3 7//7 
f 7//7 3//3 6//6 
f 2//2 8//8 4//4 
f 4//4 8//8 5//5 
f 2//2 1//1 8//8 
f 8//8 1//1 7//7 
f 8//8 7//7 5//5 
f 5//5 7//7 6//6 
