v -67.30433655 24.04166603 122.3367157
v -67.76420593 24.04166603 122.0921936
v -69.04522705 24.04166603 125.6108551
v -69.50510406 24.04166603 125.3663406
v -67.30433655 23.84370804 122.3367157
v -69.04522705 23.84370804 125.6108551
v -67.32966614 23.84370804 122.3232422
v -69.07055664 23.84370804 125.5973892
v -69.07055664 23.75 125.5973892
v -67.32966614 23.75 122.3232422
v -69.07515717 23.78109169 125.5949478
v -67.33425903 23.78109169 122.3208008
v -67.33425903 23.81261635 122.3208008
v -69.07515717 23.81261635 125.5949478
v -67.60901642 23.75 122.1747131
v -69.34991455 23.75 125.4488525
v -69.50510406 23.83333397 125.3663406
v -69.34991455 23.83333397 125.4488525
v -67.76420593 23.83333397 122.0921936
v -67.60901642 23.83333397 122.1747131
vn 0.5669856668 0.7940040827 0.2192822397
vn -0.1557561606 0.979916513 -0.1245136335
vn 0.1436218619 0.9814290404 0.1271605492
vn -0.5781182051 0.7795340419 -0.2410518378
vn 0.877387166 -0.1434274614 0.4578431547
vn 0.8720157146 -0.1434221119 0.4679943621
vn 0.5112774968 -0.8577285409 -0.05382421613
vn 0.5898095369 -0.5117917657 0.6246550083
vn 0.04170812294 -0.9987660646 0.02695818059
vn 0.1798307598 -0.9799314737 0.08599554002
vn 0.830031991 0.08244059235 0.5515890121
vn 0.953679204 0.08124451339 0.2896469235
vn 0.898857832 -0.08276403695 0.430354178
vn 0.8374743462 -0.08259291947 0.5401991606
vn -0.2179472893 -0.9669135809 -0.1325785369
vn -0.2386252284 -0.9665997028 -0.09350380301
vn -0.691413343 -0.6444078684 -0.326628387
vn -0.4536709189 -0.8900021911 -0.04559448734
vn -0.6662432551 -0.6447281837 -0.3747605681
vn -0.2015704066 -0.852663517 -0.4820106626
f 1//1 2//2 3//3 
f 3//3 2//2 4//4 
f 5//5 1//1 6//6 
f 6//6 1//1 3//3 
f 5//5 6//6 7//7 
f 7//7 6//6 8//8 
f 9//9 10//10 11//11 
f 11//11 10//10 12//12 
f 11//11 12//12 13//13 
f 7//7 8//8 13//13 
f 13//13 8//8 14//14 
f 13//13 14//14 11//11 
f 10//10 9//9 15//15 
f 15//15 9//9 16//16 
f 17//17 18//18 4//4 
f 4//4 18//18 3//3 
f 3//3 18//18 8//8 
f 3//3 8//8 6//6 
f 16//16 11//11 18//18 
f 18//18 11//11 14//14 
f 18//18 14//14 8//8 
f 16//16 9//9 11//11 
f 2//2 19//19 4//4 
f 4//4 19//19 17//17 
f 19//19 2//2 20//20 
f 20//20 2//2 1//1 
f 20//20 1//1 7//7 
f 7//7 1//1 5//5 
f 7//7 13//13 20//20 
f 20//20 13//13 12//12 
f 20//20 12//12 15//15 
f 15//15 12//12 10//10 
f 20//20 15//15 18//18 
f 18//18 15//15 16//16 
f 20//20 18//18 19//19 
f 19//19 18//18 17//17 
