v -65.47540283 24.04166603 118.8969879
v -65.93527222 24.04166603 118.6524658
v -67.16745758 24.04166603 122.079277
v -67.62732697 24.04166603 121.8347626
v -65.47540283 23.84370804 118.8969879
v -67.16745758 23.84370804 122.079277
v -65.50073242 23.84370804 118.8835144
v -67.19278717 23.84370804 122.0658112
v -67.19278717 23.75 122.0658112
v -65.50073242 23.75 118.8835144
v -67.19738007 23.78109169 122.0633621
v -65.50532532 23.78109169 118.881073
v -65.50532532 23.81261635 118.881073
v -67.19738007 23.81261635 122.0633621
v -65.7800827 23.75 118.7349854
v -67.47213745 23.75 121.9172745
v -67.62732697 23.83333397 121.8347626
v -67.47213745 23.83333397 121.9172745
v -65.93527222 23.83333397 118.6524658
v -65.7800827 23.83333397 118.7349854
vn 0.5678813457 0.7938817143 0.2173996121
vn -0.1552521288 0.9798774123 -0.1254473925
vn 0.1430066675 0.9813711047 0.1282961071
vn -0.5788587332 0.7794515491 -0.2395367771
vn 0.8774891496 -0.1434272081 0.4576476514
vn 0.8719632626 -0.1434220523 0.4680921137
vn 0.5139312148 -0.8556594849 -0.06100462377
vn 0.5848090053 -0.5106452703 0.6302696466
vn 0.0416512005 -0.9987655282 0.02706587873
vn 0.1799434721 -0.9799298644 0.08577787131
vn 0.8284851313 0.08239987493 0.5539157391
vn 0.9552505612 0.08115699142 0.2844467163
vn 0.8993825912 -0.08273492008 0.4292620718
vn 0.8361703157 -0.08254022896 0.5422235131
vn -0.2177484035 -0.9669068456 -0.1329542845
vn -0.2390235215 -0.9665737152 -0.09275241941
vn -0.6918777823 -0.6443831325 -0.3256922662
vn -0.4556122124 -0.889226377 -0.04115821049
vn -0.665991962 -0.6447219849 -0.3752176166
vn -0.1964569241 -0.8499421477 -0.4888793826
f 1//1 2//2 3//3 
f 3//3 2//2 4//4 
f 5//5 1//1 6//6 
f 6//6 1//1 3//3 
f 5//5 6//6 7//7 
f 7//7 6//6 8//8 
f 9//9 10//10 11//11 
f 11//11 10//10 12//12 
f 11//11 12//12 13//13 
f 7//7 8//8 13//13 
f 13//13 8//8 14//14 
f 13//13 14//14 11//11 
f 10//10 9//9 15//15 
f 15//15 9//9 16//16 
f 17//17 18//18 4//4 
f 4//4 18//18 3//3 
f 3//3 18//18 8//8 
f 3//3 8//8 6//6 
f 16//16 11//11 18//18 
f 18//18 11//11 14//14 
f 18//18 14//14 8//8 
f 16//16 9//9 11//11 
f 2//2 19//19 4//4 
f 4//4 19//19 17//17 
f 19//19 2//2 20//20 
f 20//20 2//2 1//1 
f 20//20 1//1 7//7 
f 7//7 1//1 5//5 
f 7//7 13//13 20//20 
f 20//20 13//13 12//12 
f 20//20 12//12 15//15 
f 15//15 12//12 10//10 
f 20//20 15//15 18//18 
f 18//18 15//15 16//16 
f 20//20 18//18 19//19 
f 19//19 18//18 17//17 
