v -48.89349365 32.75 -4.872560501
v -50.06681061 32.75 -8.280145645
v -49.38636398 32.75 -4.702852726
v -50.55968094 32.75 -8.110438347
v -50.55926895 32.66838837 -8.110580444
v -49.38594818 32.66838837 -4.702994823
v -50.55521393 32.69549561 -8.111976624
v -49.38189697 32.69549561 -4.704391003
v -49.3820343 32.72293854 -4.704343319
v -50.55535126 32.72293854 -8.11192894
v -50.55926895 32.45819855 -8.110580444
v -50.06681061 32.45819855 -8.280145645
v -49.38594818 32.45819855 -4.702994823
v -48.89349365 32.45819855 -4.872560501
vn 0.4892113507 0.8690616488 -0.07351267338
vn 0.4467275441 0.8716994524 -0.2014313042
vn -0.02341554128 0.9996532202 0.01204945985
vn -0.1018462405 0.9944328666 0.02702965401
vn -0.9996469021 0.01720146835 0.02025255375
vn -0.8816492558 0.01783340983 0.471568197
vn -0.9634664059 0.07551373541 0.2569633126
vn -0.8877743483 0.07492272556 0.4541401863
vn -0.9162759185 -0.08613529056 0.391176641
vn -0.9786772132 -0.0854806155 0.1867725551
vn -0.6080032587 -0.7773554325 0.161401853
vn 0.2326939404 -0.9607733488 -0.1508911401
vn -0.1776412129 -0.9798429012 0.09138620645
vn 0.7324960828 -0.662996769 -0.1545468271
f 1//1 2//2 3//3 
f 3//3 2//2 4//4 
f 5//5 6//6 7//7 
f 7//7 6//6 8//8 
f 7//7 8//8 9//9 
f 3//3 4//4 9//9 
f 9//9 4//4 10//10 
f 9//9 10//10 7//7 
f 11//11 5//5 12//12 
f 12//12 5//5 2//2 
f 2//2 5//5 7//7 
f 2//2 7//7 10//10 
f 10//10 4//4 2//2 
f 13//13 6//6 11//11 
f 11//11 6//6 5//5 
f 1//1 14//14 2//2 
f 2//2 14//14 12//12 
f 13//13 14//14 6//6 
f 6//6 14//14 1//1 
f 6//6 1//1 8//8 
f 8//8 1//1 9//9 
f 9//9 1//1 3//3 
f 14//14 13//13 12//12 
f 12//12 13//13 11//11 
