v -45.35018921 24.04166603 7.017721176
v -44.23792648 24.04166603 10.2479887
v -44.85773087 24.04166603 6.848154545
v -43.74546814 24.04166603 10.07842255
v -44.85773087 23.84370804 6.848154545
v -43.74546814 23.84370804 10.07842255
v -44.88485336 23.84370804 6.857494354
v -43.77259064 23.84370804 10.08776283
v -43.77259064 23.75 10.08776283
v -44.88485336 23.75 6.857494354
v -43.7775116 23.78109169 10.08945656
v -44.88977432 23.78109169 6.85918808
v -44.88977432 23.81261635 6.85918808
v -43.7775116 23.81261635 10.08945656
v -45.18400192 23.75 6.960498333
v -44.0717392 23.75 10.19076633
v -44.23792648 23.83333397 10.2479887
v -44.0717392 23.83333397 10.19076633
v -45.35018921 23.83333397 7.017721176
v -45.18400192 23.83333397 6.960498333
vn -0.3747356236 0.9258269072 0.04917086661
vn -0.3385853767 0.9278128147 0.1565991789
vn 0.320486933 0.9337559938 -0.1593358815
vn 0.3645520508 0.9307658672 -0.02786992863
vn 0.9054940343 -0.2783520222 -0.3203134239
vn 0.9444021583 -0.07226399332 -0.3207529783
vn 0.4283772409 -0.6603646278 -0.6167750955
vn 0.698705256 -0.7152809501 0.01356757712
vn 0.09699705988 -0.9950034022 -0.02366133966
vn 0.09250389785 -0.9950349927 -0.03672016785
vn 0.9713751674 0.08236579597 -0.2228140831
vn 0.8541018963 0.08102101088 -0.5137563348
vn 0.9264482856 -0.08274160326 -0.3672158122
vn 0.967962265 -0.08248624951 -0.23716034
vn -0.4500204027 -0.8843671083 0.1240017638
vn -0.1180994809 -0.9913057685 0.05801178515
vn -0.4733604789 -0.8599739671 0.1907214373
vn -0.5269914269 -0.6939287782 0.4906555414
vn -0.8786498308 -0.3885593116 0.277481705
vn -0.2790334821 -0.9532143474 -0.1162870973
f 1//1 2//2 3//3 
f 3//3 2//2 4//4 
f 5//5 3//3 6//6 
f 6//6 3//3 4//4 
f 7//7 5//5 8//8 
f 8//8 5//5 6//6 
f 9//9 10//10 11//11 
f 11//11 10//10 12//12 
f 11//11 12//12 13//13 
f 7//7 8//8 13//13 
f 13//13 8//8 14//14 
f 13//13 14//14 11//11 
f 15//15 10//10 16//16 
f 16//16 10//10 9//9 
f 17//17 18//18 2//2 
f 2//2 18//18 4//4 
f 4//4 18//18 8//8 
f 4//4 8//8 6//6 
f 16//16 11//11 18//18 
f 18//18 11//11 14//14 
f 18//18 14//14 8//8 
f 16//16 9//9 11//11 
f 1//1 19//19 2//2 
f 2//2 19//19 17//17 
f 20//20 15//15 18//18 
f 18//18 15//15 16//16 
f 19//19 1//1 20//20 
f 20//20 1//1 3//3 
f 20//20 3//3 7//7 
f 7//7 3//3 5//5 
f 7//7 13//13 20//20 
f 20//20 13//13 12//12 
f 20//20 12//12 15//15 
f 15//15 12//12 10//10 
f 19//19 20//20 17//17 
f 17//17 20//20 18//18 
