v -71.03199768 32.75 -69.16786957
v -72.23925781 32.75 -72.67404175
v -71.5248642 32.75 -68.99816132
v -72.73213196 32.75 -72.5043335
v -72.73171997 32.66838837 -72.50447845
v -71.52445221 32.66838837 -68.99830627
v -72.72766113 32.69549561 -72.50587463
v -71.520401 32.69549561 -68.99970245
v -71.52053833 32.72293854 -68.99964905
v -72.72779846 32.72293854 -72.50582123
v -72.73171997 32.45819855 -72.50447845
v -72.23925781 32.45819855 -72.67404175
v -71.52445221 32.45819855 -68.99830627
v -71.03199768 32.45819855 -69.16786957
vn 0.488501519 0.8692542911 -0.07591623068
vn 0.4471645653 0.8717486262 -0.2002454251
vn -0.02344993502 0.9996535778 0.01194918901
vn -0.1017757654 0.9944345951 0.02723146044
vn -0.9994456172 0.01726159081 0.02846855111
vn -0.88372159 0.01785338297 0.4676722884
vn -0.9629520774 0.07553145289 0.2588788271
vn -0.8895485997 0.07491662353 0.4506559372
vn -0.9170594811 -0.08616939187 0.389328599
vn -0.9779177904 -0.08560632914 0.190652445
vn -0.6076205969 -0.7774016261 0.1626157612
vn 0.2333352417 -0.9608926773 -0.1491306573
vn -0.1779065728 -0.9798651338 0.09062847495
vn 0.7318241596 -0.6631532311 -0.157038793
f 1//1 2//2 3//3 
f 3//3 2//2 4//4 
f 5//5 6//6 7//7 
f 7//7 6//6 8//8 
f 7//7 8//8 9//9 
f 3//3 4//4 9//9 
f 9//9 4//4 10//10 
f 9//9 10//10 7//7 
f 11//11 5//5 12//12 
f 12//12 5//5 2//2 
f 2//2 5//5 7//7 
f 2//2 7//7 10//10 
f 10//10 4//4 2//2 
f 13//13 6//6 11//11 
f 11//11 6//6 5//5 
f 1//1 14//14 2//2 
f 2//2 14//14 12//12 
f 13//13 14//14 6//6 
f 6//6 14//14 1//1 
f 6//6 1//1 8//8 
f 8//8 1//1 9//9 
f 9//9 1//1 3//3 
f 14//14 13//13 12//12 
f 12//12 13//13 11//11 
