v -43.65048599 23.75 10.35433483
v -43.65048599 32.75 10.35433483
v -44.14335632 23.75 10.52404213
v -44.14335632 32.75 10.52404213
v -44.1695137 32.75 10.44673538
v -44.1695137 23.75 10.44673538
v -44.15663528 32.75 10.4709692
v -44.15663528 23.75 10.4709692
v -44.14783859 23.75 10.49696636
v -44.14783859 32.75 10.49696636
v -43.74548721 32.75 10.07843018
v -44.23794556 32.75 10.24799538
v -44.23794556 23.75 10.24799538
v -43.74548721 23.75 10.07843018
vn 0.9212041497 -0.04305707291 0.3866898417
vn 0.5680933595 0.03113537841 0.8223749399
vn 0.3008129895 -0.001509444206 0.9536819458
vn 0.2243933082 0.003043440171 0.9744939208
vn -0.9419152141 0.03058529645 0.3344551921
vn -0.9332202673 -0.05169410259 0.3555666506
vn -0.9177960157 0.02837407403 0.3960370719
vn -0.9166896939 -0.05667974055 0.3955596685
vn -0.9696962833 -0.02871590294 0.2426200956
vn -0.9684990644 0.0573608987 0.2423205525
vn 0.488553822 0.02158324979 -0.8722667694
vn -0.5059651136 0.02732735686 -0.8621209264
vn -0.8464004993 -0.04336236045 -0.5307785869
vn -0.05843960494 -0.01560840476 -0.9981689453
f 1//1 2//2 3//3 
f 3//3 2//2 4//4 
f 5//5 6//6 7//7 
f 7//7 6//6 8//8 
f 7//7 8//8 9//9 
f 3//3 4//4 9//9 
f 9//9 4//4 10//10 
f 9//9 10//10 7//7 
f 11//11 12//12 2//2 
f 2//2 12//12 5//5 
f 2//2 5//5 7//7 
f 7//7 10//10 2//2 
f 2//2 10//10 4//4 
f 6//6 5//5 13//13 
f 13//13 5//5 12//12 
f 14//14 11//11 1//1 
f 1//1 11//11 2//2 
f 14//14 1//1 13//13 
f 13//13 1//1 6//6 
f 6//6 1//1 8//8 
f 8//8 1//1 9//9 
f 9//9 1//1 3//3 
f 13//13 12//12 14//14 
f 14//14 12//12 11//11 
