v -69.79078674 32.75 -65.56311035
v -70.93699646 32.75 -68.89196777
v -70.28365326 32.75 -65.3934021
v -71.42986298 32.75 -68.72225952
v -71.42945099 32.66838837 -68.72239685
v -70.28324127 32.66838837 -65.39354706
v -71.42539978 32.69549561 -68.72379303
v -70.27919006 32.69549561 -65.39494324
v -70.27932739 32.72293854 -65.39488983
v -71.42553711 32.72293854 -68.72374725
v -71.42945099 32.45819855 -68.72239685
v -70.93699646 32.45819855 -68.89196777
v -70.28324127 32.45819855 -65.39354706
v -69.79078674 32.45819855 -65.56311035
vn 0.4898107052 0.8688926101 -0.07149221003
vn 0.4463613331 0.8716558814 -0.2024291456
vn -0.02338654734 0.9996528625 0.012133752
vn -0.1019035354 0.9944316149 0.0268594455
vn -0.9997634888 0.01714778133 0.01337424759
vn -0.8798952699 0.0178151615 0.4748336375
vn -0.9638991356 0.07545670122 0.2553522587
vn -0.8862782121 0.0748397857 0.457066685
vn -0.9156178236 -0.08605916798 0.3927313089
vn -0.9793051481 -0.08535540849 0.1835100204
vn -0.6083239913 -0.7773159146 0.1603806019
vn 0.2321539372 -0.960670352 -0.1523711979
vn -0.1774180532 -0.9798237085 0.09202350676
vn 0.733057797 -0.6628611684 -0.1524509341
f 1//1 2//2 3//3 
f 3//3 2//2 4//4 
f 5//5 6//6 7//7 
f 7//7 6//6 8//8 
f 7//7 8//8 9//9 
f 3//3 4//4 9//9 
f 9//9 4//4 10//10 
f 9//9 10//10 7//7 
f 11//11 5//5 12//12 
f 12//12 5//5 2//2 
f 2//2 5//5 7//7 
f 2//2 7//7 10//10 
f 10//10 4//4 2//2 
f 13//13 6//6 11//11 
f 11//11 6//6 5//5 
f 1//1 14//14 2//2 
f 2//2 14//14 12//12 
f 13//13 14//14 6//6 
f 6//6 14//14 1//1 
f 6//6 1//1 8//8 
f 8//8 1//1 9//9 
f 9//9 1//1 3//3 
f 14//14 13//13 12//12 
f 12//12 13//13 11//11 
