v -71.42943573 25.04166603 -68.72240448
v -70.28322601 25.04166603 -65.39354706
v -70.93697357 25.04166603 -68.89196777
v -69.79076385 25.04166603 -65.56311798
v -70.93697357 24.84370804 -68.89196777
v -69.79076385 24.84370804 -65.56311798
v -70.96409607 24.84370804 -68.88262939
v -69.81788635 24.84370804 -65.5537796
v -69.81788635 24.75 -65.5537796
v -70.96409607 24.75 -68.88262939
v -69.82280731 24.78109169 -65.55208588
v -70.96901703 24.78109169 -68.88093567
v -70.96901703 24.81261635 -68.88093567
v -69.82280731 24.81261635 -65.55208588
v -71.26324463 24.75 -68.77962494
v -70.11703491 24.75 -65.45077515
v -70.28322601 24.83333397 -65.39354706
v -70.11703491 24.83333397 -65.45077515
v -71.42943573 24.83333397 -68.72240448
v -71.26324463 24.83333397 -68.77962494
vn -0.3740679026 0.92598176 0.05129292235
vn -0.3389621377 0.9278524518 0.1555458009
vn 0.3209513426 0.9338153005 -0.1580481827
vn 0.3637498319 0.9309984446 -0.03046259098
vn 0.9055746794 -0.2783475518 -0.3200892508
vn 0.9443621039 -0.07226249576 -0.3208712041
vn 0.4351658821 -0.6641839147 -0.6078572273
vn 0.6975691319 -0.7164847255 0.006849939004
vn 0.09690843523 -0.995005846 -0.02391924709
vn 0.09254823625 -0.9950356483 -0.03659133241
vn 0.9706728458 0.08239256591 -0.2258443534
vn 0.857183516 0.08112321049 -0.5085818172
vn 0.9269437194 -0.0827466324 -0.3659622073
vn 0.9673189521 -0.0825061202 -0.2397640347
vn -0.4497492313 -0.8843892813 0.1248246282
vn -0.1182583869 -0.9913135767 0.05755301565
vn -0.4736142457 -0.8599964976 0.1899884194
vn -0.5311246514 -0.6956785321 0.4836713076
vn -0.8784337044 -0.3885711432 0.2781487107
vn -0.2774168849 -0.9543399215 -0.1107935235
f 1//1 2//2 3//3 
f 3//3 2//2 4//4 
f 5//5 3//3 6//6 
f 6//6 3//3 4//4 
f 7//7 5//5 8//8 
f 8//8 5//5 6//6 
f 9//9 10//10 11//11 
f 11//11 10//10 12//12 
f 11//11 12//12 13//13 
f 7//7 8//8 13//13 
f 13//13 8//8 14//14 
f 13//13 14//14 11//11 
f 15//15 10//10 16//16 
f 16//16 10//10 9//9 
f 17//17 18//18 2//2 
f 2//2 18//18 4//4 
f 4//4 18//18 8//8 
f 4//4 8//8 6//6 
f 16//16 11//11 18//18 
f 18//18 11//11 14//14 
f 18//18 14//14 8//8 
f 16//16 9//9 11//11 
f 1//1 19//19 2//2 
f 2//2 19//19 17//17 
f 20//20 15//15 18//18 
f 18//18 15//15 16//16 
f 19//19 1//1 20//20 
f 20//20 1//1 3//3 
f 20//20 3//3 7//7 
f 7//7 3//3 5//5 
f 7//7 13//13 20//20 
f 20//20 13//13 12//12 
f 20//20 12//12 15//15 
f 15//15 12//12 10//10 
f 19//19 20//20 17//17 
f 17//17 20//20 18//18 
