v -55.86332703 32.75 -23.51479149
v -55.86332703 23.75 -23.51479149
v -55.79489899 32.75 -23.31605339
v -55.79489899 23.75 -23.31605339
v -55.76874161 23.75 -23.23874664
v -55.76874161 32.75 -23.23874664
v -55.77322006 23.75 -23.26582146
v -55.77322006 32.75 -23.26582146
v -55.78201675 32.75 -23.29181862
v -55.78201675 23.75 -23.29181862
v -55.37086868 23.75 -23.6843586
v -55.27587128 23.75 -23.40845299
v -55.27587128 32.75 -23.40845299
v -55.37086868 32.75 -23.6843586
vn -0.5059648752 0.02732710168 -0.8621211052
vn -0.8463945389 -0.04336197302 -0.530788064
vn -0.941917181 0.03058542497 0.3344496489
vn -0.9332154989 -0.05169359595 0.3555792272
vn 0.3008131981 -0.001509329886 0.9536818862
vn 0.224398315 0.003043240868 0.9744927883
vn -0.9697116613 -0.02871563472 0.2425586134
vn -0.968514502 0.05736036599 0.2422591448
vn -0.9177734256 0.02837358415 0.3960894942
vn -0.9166671038 -0.05667876452 0.3956120312
vn -0.05844244361 -0.01560845785 -0.9981687665
vn 0.9212008715 -0.04305660725 0.3866977096
vn 0.5680910945 0.0311351195 0.8223764896
vn 0.4885579944 0.02158343419 -0.8722644448
f 1//1 2//2 3//3 
f 3//3 2//2 4//4 
f 5//5 6//6 7//7 
f 7//7 6//6 8//8 
f 7//7 8//8 9//9 
f 3//3 4//4 9//9 
f 9//9 4//4 10//10 
f 9//9 10//10 7//7 
f 11//11 12//12 2//2 
f 2//2 12//12 4//4 
f 4//4 12//12 10//10 
f 10//10 12//12 7//7 
f 7//7 12//12 5//5 
f 6//6 5//5 13//13 
f 13//13 5//5 12//12 
f 14//14 11//11 1//1 
f 1//1 11//11 2//2 
f 14//14 1//1 13//13 
f 13//13 1//1 3//3 
f 13//13 3//3 9//9 
f 9//9 8//8 13//13 
f 13//13 8//8 6//6 
f 13//13 12//12 14//14 
f 14//14 12//12 11//11 
