v -72.23925781 24.75 -72.67404175
v -72.23925781 32.75 -72.67404175
v -72.73213196 24.75 -72.5043335
v -72.73213196 32.75 -72.5043335
v -72.75828552 32.75 -72.58164215
v -72.75828552 24.75 -72.58164215
v -72.7454071 32.75 -72.55740356
v -72.7454071 24.75 -72.55740356
v -72.73661041 24.75 -72.53141022
v -72.73661041 32.75 -72.53141022
v -72.33425903 32.75 -72.94994354
v -72.82672119 32.75 -72.78038025
v -72.82672119 24.75 -72.78038025
v -72.33425903 24.75 -72.94994354
vn 0.9209747314 -0.04842734709 0.3866009712
vn 0.5680163503 0.03502251953 0.8222717643
vn 0.3008126616 -0.001698109438 0.953681767
vn 0.2243928909 0.003423875198 0.9744927287
vn -0.9417930841 0.03440440819 0.3344281316
vn -0.9328881502 -0.05813420191 0.3554435372
vn -0.9177006483 0.03191755712 0.3959883749
vn -0.9163014889 -0.06373778731 0.3953846693
vn -0.9696034193 -0.03230179101 0.2425402552
vn -0.9680894613 0.06450270861 0.2421615422
vn 0.4885178208 0.02427952364 -0.8722160459
vn -0.5059093833 0.03074007109 -0.8620387316
vn -0.8461893201 -0.04877074808 -0.5306458473
vn -0.05843642354 -0.0175587032 -0.9981366992
f 1//1 2//2 3//3 
f 3//3 2//2 4//4 
f 5//5 6//6 7//7 
f 7//7 6//6 8//8 
f 7//7 8//8 9//9 
f 3//3 4//4 9//9 
f 9//9 4//4 10//10 
f 9//9 10//10 7//7 
f 11//11 12//12 2//2 
f 2//2 12//12 5//5 
f 2//2 5//5 7//7 
f 7//7 10//10 2//2 
f 2//2 10//10 4//4 
f 6//6 5//5 13//13 
f 13//13 5//5 12//12 
f 14//14 11//11 1//1 
f 1//1 11//11 2//2 
f 14//14 1//1 13//13 
f 13//13 1//1 6//6 
f 6//6 1//1 8//8 
f 8//8 1//1 9//9 
f 9//9 1//1 3//3 
f 13//13 12//12 14//14 
f 14//14 12//12 11//11 
