v -51.464077 23.75 -12.33812714
v -51.464077 32.75 -12.33812714
v -51.95694733 23.75 -12.16841984
v -51.95694733 32.75 -12.16841984
v -51.98310471 32.75 -12.24572659
v -51.98310471 23.75 -12.24572659
v -51.97022247 32.75 -12.22149277
v -51.97022247 23.75 -12.22149277
v -51.96142578 23.75 -12.19549561
v -51.96142578 32.75 -12.19549561
v -51.55907822 32.75 -12.61403179
v -52.05153656 32.75 -12.44446564
v -52.05153656 23.75 -12.44446564
v -51.55907822 23.75 -12.61403179
vn 0.9212041497 -0.04305695742 0.3866898417
vn 0.5680933595 0.03113529645 0.8223749399
vn 0.3008140326 -0.001509380178 0.9536816478
vn 0.2243965566 0.003043344477 0.9744931459
vn -0.941912055 0.03058529645 0.334464103
vn -0.9332102537 -0.05169368535 0.3555930257
vn -0.9177706838 0.02837354876 0.3960958123
vn -0.9166644216 -0.05667869374 0.3956183791
vn -0.9697126746 -0.02871563099 0.2425545007
vn -0.9685155153 0.05736035854 0.242255047
vn 0.4885528982 0.02158327587 -0.8722673059
vn -0.5059657693 0.02732730284 -0.8621205688
vn -0.8464000821 -0.04336234555 -0.5307792425
vn -0.05844135955 -0.01560841221 -0.9981688261
f 1//1 2//2 3//3 
f 3//3 2//2 4//4 
f 5//5 6//6 7//7 
f 7//7 6//6 8//8 
f 7//7 8//8 9//9 
f 3//3 4//4 9//9 
f 9//9 4//4 10//10 
f 9//9 10//10 7//7 
f 11//11 12//12 2//2 
f 2//2 12//12 5//5 
f 2//2 5//5 7//7 
f 7//7 10//10 2//2 
f 2//2 10//10 4//4 
f 6//6 5//5 13//13 
f 13//13 5//5 12//12 
f 14//14 11//11 1//1 
f 1//1 11//11 2//2 
f 14//14 1//1 13//13 
f 13//13 1//1 6//6 
f 6//6 1//1 8//8 
f 8//8 1//1 9//9 
f 9//9 1//1 3//3 
f 13//13 12//12 14//14 
f 14//14 12//12 11//11 
