v -71.44561768 32.45819855 -69.02545166
v -71.44561768 25.04166603 -69.02545166
v -71.36682129 32.45819855 -69.05258179
v -71.36682129 25.04166603 -69.05258179
v -72.57408905 25.04166603 -72.55875397
v -72.57408905 32.45819855 -72.55875397
v -72.65288544 32.45819855 -72.53162384
v -72.65288544 25.04166603 -72.53162384
vn -0.9417417049 0.01123511791 0.3361492753
vn -0.929712534 -0.02244473808 0.3676014841
vn 0.959123373 0.01122450735 -0.2827655971
vn 0.9491023421 -0.005617827177 -0.3149177432
vn 0.929712534 -0.02244473808 -0.3676014841
vn 0.9417417049 0.01123511791 -0.3361492753
vn -0.959123373 0.01122450735 0.2827655971
vn -0.9491023421 -0.005617827177 0.3149177432
f 1//1 2//2 3//3 
f 3//3 2//2 4//4 
f 5//5 6//6 4//4 
f 4//4 6//6 3//3 
f 7//7 1//1 6//6 
f 6//6 1//1 3//3 
f 8//8 5//5 2//2 
f 2//2 5//5 4//4 
f 2//2 1//1 8//8 
f 8//8 1//1 7//7 
f 8//8 7//7 5//5 
f 5//5 7//7 6//6 
