v -54.51617432 32.45819855 -19.85844803
v -54.51617432 24.04166603 -19.85844803
v -54.43738174 32.45819855 -19.88557816
v -54.43738174 24.04166603 -19.88557816
v -55.6106987 24.04166603 -23.2931633
v -55.6106987 32.45819855 -23.2931633
v -55.68949127 32.45819855 -23.26603317
v -55.68949127 24.04166603 -23.26603317
vn -0.9416462779 0.009899907745 0.3364585042
vn -0.9292882681 -0.01977709681 0.3688254952
vn 0.9595028162 0.009890001267 -0.2815254331
vn 0.9492082596 -0.004950135946 -0.3146096468
vn 0.9292882681 -0.01977709681 -0.3688254952
vn 0.9416462779 0.009899907745 -0.3364585042
vn -0.9595028162 0.009890001267 0.2815254331
vn -0.9492082596 -0.004950135946 0.3146096468
f 1//1 2//2 3//3 
f 3//3 2//2 4//4 
f 5//5 6//6 4//4 
f 4//4 6//6 3//3 
f 7//7 1//1 6//6 
f 6//6 1//1 3//3 
f 8//8 5//5 2//2 
f 2//2 5//5 4//4 
f 2//2 1//1 8//8 
f 8//8 1//1 7//7 
f 8//8 7//7 5//5 
f 5//5 7//7 6//6 
