v -48.79849243 23.75 -4.596655846
v -48.79849243 32.75 -4.596655846
v -49.29136276 23.75 -4.426948071
v -49.29136276 32.75 -4.426948071
v -49.31752014 32.75 -4.504255295
v -49.31752014 23.75 -4.504255295
v -49.30463791 32.75 -4.480021
v -49.30463791 23.75 -4.480021
v -49.29584122 23.75 -4.454024315
v -49.29584122 32.75 -4.454024315
v -48.89349365 32.75 -4.872560501
v -49.38594818 32.75 -4.702994823
v -49.38594818 23.75 -4.702994823
v -48.89349365 23.75 -4.872560501
vn 0.9212042093 -0.04305680096 0.3866896331
vn 0.5680939555 0.03113518283 0.8223745227
vn 0.3008144498 -0.00150940544 0.953681469
vn 0.2243956774 0.003043396166 0.9744933844
vn -0.9419177771 0.0305854138 0.3344479799
vn -0.9332157373 -0.05169374868 0.3555786312
vn -0.9177706838 0.02837355807 0.3960958123
vn -0.9166644216 -0.05667871609 0.3956183791
vn -0.9697126746 -0.02871563099 0.2425545007
vn -0.9685155153 0.05736035854 0.242255047
vn 0.4885554612 0.02158320509 -0.8722658753
vn -0.505967021 0.02732726745 -0.8621198535
vn -0.8463977575 -0.04336199164 -0.5307829976
vn -0.05844089389 -0.01560841035 -0.9981688261
f 1//1 2//2 3//3 
f 3//3 2//2 4//4 
f 5//5 6//6 7//7 
f 7//7 6//6 8//8 
f 7//7 8//8 9//9 
f 3//3 4//4 9//9 
f 9//9 4//4 10//10 
f 9//9 10//10 7//7 
f 11//11 12//12 2//2 
f 2//2 12//12 5//5 
f 2//2 5//5 7//7 
f 7//7 10//10 2//2 
f 2//2 10//10 4//4 
f 6//6 5//5 13//13 
f 13//13 5//5 12//12 
f 14//14 11//11 1//1 
f 1//1 11//11 2//2 
f 14//14 1//1 13//13 
f 13//13 1//1 6//6 
f 6//6 1//1 8//8 
f 8//8 1//1 9//9 
f 9//9 1//1 3//3 
f 13//13 12//12 14//14 
f 14//14 12//12 11//11 
