v -50.65427017 32.75 -8.386484146
v -50.65427017 23.75 -8.386484146
v -50.58583832 32.75 -8.187745094
v -50.58583832 23.75 -8.187745094
v -50.55968094 23.75 -8.110438347
v -50.55968094 32.75 -8.110438347
v -50.56416321 23.75 -8.137514114
v -50.56416321 32.75 -8.137514114
v -50.57295609 32.75 -8.163511276
v -50.57295609 23.75 -8.163511276
v -50.16181183 23.75 -8.556050301
v -50.06681061 23.75 -8.280145645
v -50.06681061 32.75 -8.280145645
v -50.16181183 32.75 -8.556050301
vn -0.5059657693 0.02732730284 -0.8621205688
vn -0.8464000821 -0.04336234555 -0.5307792425
vn -0.941912055 0.03058529645 0.334464103
vn -0.9332102537 -0.05169368535 0.3555930257
vn 0.3008129895 -0.001509444206 0.9536819458
vn 0.2243933082 0.003043440171 0.9744939208
vn -0.9697126746 -0.02871583588 0.2425545007
vn -0.9685154557 0.05736076832 0.242255047
vn -0.9177960157 0.02837388031 0.3960370719
vn -0.9166896939 -0.05667935684 0.3955596685
vn -0.05844135955 -0.01560841221 -0.9981688261
vn 0.9212041497 -0.04305698723 0.3866898417
vn 0.5680933595 0.03113531694 0.8223749399
vn 0.4885528982 0.02158327587 -0.8722673059
f 1//1 2//2 3//3 
f 3//3 2//2 4//4 
f 5//5 6//6 7//7 
f 7//7 6//6 8//8 
f 7//7 8//8 9//9 
f 3//3 4//4 9//9 
f 9//9 4//4 10//10 
f 9//9 10//10 7//7 
f 11//11 12//12 2//2 
f 2//2 12//12 4//4 
f 4//4 12//12 10//10 
f 10//10 12//12 7//7 
f 7//7 12//12 5//5 
f 6//6 5//5 13//13 
f 13//13 5//5 12//12 
f 14//14 11//11 1//1 
f 1//1 11//11 2//2 
f 14//14 1//1 13//13 
f 13//13 1//1 3//3 
f 13//13 3//3 9//9 
f 9//9 8//8 13//13 
f 13//13 8//8 6//6 
f 13//13 12//12 14//14 
f 14//14 12//12 11//11 
