v -51.55907822 32.75 -12.61403179
v -52.70528412 32.75 -15.94288731
v -52.05194855 32.75 -12.44432354
v -53.19815445 32.75 -15.77317905
v -53.19774246 32.66838837 -15.77332115
v -52.05153656 32.66838837 -12.44446564
v -53.19368744 32.69549561 -15.77471733
v -52.04748154 32.69549561 -12.44586182
v -52.04761887 32.72293854 -12.44581413
v -53.19382858 32.72293854 -15.77466965
v -53.19774246 32.45819855 -15.77332115
v -52.70528412 32.45819855 -15.94288731
v -52.05153656 32.45819855 -12.44446564
v -51.55907822 32.45819855 -12.61403179
vn 0.4898082912 0.8688941002 -0.07149084657
vn 0.4463591576 0.8716573119 -0.202427879
vn -0.02338649705 0.9996528625 0.01213373337
vn -0.1019038558 0.9944315553 0.0268594306
vn -0.99976331 0.01716296375 0.01337129343
vn -0.8798952103 0.01782977767 0.4748331606
vn -0.9638959765 0.07550305873 0.2553504407
vn -0.8862722516 0.07494912297 0.4570602775
vn -0.9156127572 -0.08612474799 0.3927286267
vn -0.9792982936 -0.08543936163 0.1835072786
vn -0.6083225608 -0.7773173451 0.1603790522
vn 0.2321529984 -0.9606707096 -0.1523704678
vn -0.1774170995 -0.979823947 0.09202293307
vn 0.7330554724 -0.6628642082 -0.1524489373
f 1//1 2//2 3//3 
f 3//3 2//2 4//4 
f 5//5 6//6 7//7 
f 7//7 6//6 8//8 
f 7//7 8//8 9//9 
f 3//3 4//4 9//9 
f 9//9 4//4 10//10 
f 9//9 10//10 7//7 
f 11//11 5//5 12//12 
f 12//12 5//5 2//2 
f 2//2 5//5 7//7 
f 2//2 7//7 10//10 
f 10//10 4//4 2//2 
f 13//13 6//6 11//11 
f 11//11 6//6 5//5 
f 1//1 14//14 2//2 
f 2//2 14//14 12//12 
f 13//13 14//14 6//6 
f 6//6 14//14 1//1 
f 6//6 1//1 8//8 
f 8//8 1//1 9//9 
f 9//9 1//1 3//3 
f 14//14 13//13 12//12 
f 12//12 13//13 11//11 
