v 32.70820999 55.75 72.93289948
v 51.94568634 55.75 72.93289948
v 33.22854233 55.75 71.97457123
v 51.94568634 55.75 71.97457123
v 51.94568634 23.75 71.97457123
v 51.94568634 23.75 72.52664948
v 33.22854233 23.75 71.97457123
v 32.92878723 23.75 72.52664948
v 51.94568634 23.75 72.93289948
v 32.70820999 23.75 72.93289948
v 40.32694626 24.75 72.93289948
v 40.32694626 24.75 71.97457123
v 36.32694626 24.75 72.93289948
v 36.32694626 24.75 71.97457123
v 48.32694626 46.75 71.97457123
v 48.32694626 46.75 72.93289948
v 40.32694626 46.75 71.97457123
v 40.32694626 46.75 72.93289948
v 40.32694626 38.75 72.93289948
v 40.32694626 38.75 71.97457123
v 48.32694626 38.75 72.93289948
v 48.32694626 38.75 71.97457123
v 40.32694626 32.75 71.97457123
v 36.32694626 32.75 71.97457123
v 36.32694626 32.75 72.93289948
v 40.32694626 32.75 72.93289948
vn -0.1063390225 0.04489589483 0.9933158755
vn 0.1108267084 0.09231556952 0.9895429611
vn -0.1115037948 0.08391213417 -0.9902149439
vn 0.1243649572 0.04615386575 -0.9911625385
vn 0.04778010026 -0.02794709429 -0.9984668493
vn 0.9065470695 -0.4221047461 0
vn -0.1113797575 -0.1313377619 -0.9850608706
vn -0.823371172 -0.3495720029 -0.4470562637
vn 0.03511100262 -0.04197341949 0.9985015988
vn -0.08042477816 -0.04834905639 0.9955873489
vn -0.06580617279 0.03290308639 0.9972897768
vn -0.1311312616 0.06556563079 -0.9891945124
vn 0.4128199518 0.2064099759 0.8871158957
vn 0.2552458048 0.1276229024 -0.9584164023
vn -0.07551057637 -0.07551057637 -0.9942818284
vn -0.1485023052 -0.1485023052 0.9776983857
vn 0.03754395247 -0.03754395247 -0.9985894561
vn 0.01825649664 -0.01825649664 0.9996666312
vn 0.1443311423 0.1443311423 0.9789469242
vn 0.07332019508 0.07332019508 -0.9946095943
vn -0.02291022614 0.02291022614 0.9994750023
vn -0.04574847221 0.04574847221 -0.9979048967
vn -0.02499045804 -0.01249522902 -0.9996095896
vn 0.04855683446 -0.02427841723 -0.9985253215
vn 0.02231792733 -0.01115896367 0.9996886253
vn -0.04992249236 -0.02496124618 0.9984411001
f 1//1 2//2 3//3 
f 3//3 2//2 4//4 
f 5//5 6//6 7//7 
f 7//7 6//6 8//8 
f 9//9 6//6 2//2 
f 2//2 6//6 4//4 
f 4//4 6//6 5//5 
f 10//10 1//1 8//8 
f 8//8 1//1 3//3 
f 8//8 3//3 7//7 
f 11//11 12//12 13//13 
f 13//13 12//12 14//14 
f 15//15 16//16 17//17 
f 17//17 16//16 18//18 
f 18//18 19//19 17//17 
f 17//17 19//19 20//20 
f 21//21 16//16 22//22 
f 22//22 16//16 15//15 
f 7//7 12//12 5//5 
f 5//5 12//12 23//23 
f 5//5 23//23 22//22 
f 22//22 23//23 20//20 
f 20//20 23//23 24//24 
f 20//20 24//24 17//17 
f 17//17 24//24 3//3 
f 17//17 3//3 4//4 
f 3//3 24//24 7//7 
f 7//7 24//24 14//14 
f 7//7 14//14 12//12 
f 5//5 22//22 4//4 
f 4//4 22//22 15//15 
f 4//4 15//15 17//17 
f 1//1 18//18 2//2 
f 2//2 18//18 16//16 
f 2//2 16//16 21//21 
f 18//18 1//1 25//25 
f 25//25 1//1 10//10 
f 25//25 10//10 13//13 
f 13//13 10//10 11//11 
f 11//11 10//10 9//9 
f 11//11 9//9 26//26 
f 26//26 9//9 21//21 
f 26//26 21//21 19//19 
f 9//9 2//2 21//21 
f 18//18 25//25 19//19 
f 19//19 25//25 26//26 
f 21//21 22//22 19//19 
f 19//19 22//22 20//20 
f 11//11 26//26 12//12 
f 12//12 26//26 23//23 
f 25//25 13//13 24//24 
f 24//24 13//13 14//14 
f 23//23 26//26 24//24 
f 24//24 26//26 25//25 
f 10//10 8//8 9//9 
f 9//9 8//8 6//6 
