v 18.05709839 38.75 99.5022049
v 18.05709839 46.75 99.5022049
v 17.95680428 38.75 99.6869278
v 17.95680428 46.75 99.6869278
v 17.91824532 46.75 99.75885773
v 17.91824532 38.75 99.75885773
v 17.92713547 46.75 99.73288727
v 17.92713547 38.75 99.73288727
v 17.94010162 38.75 99.70870209
v 17.94010162 46.75 99.70870209
v 17.59938049 46.75 99.253685
v 17.46014595 46.75 99.51012421
v 17.46014595 38.75 99.51012421
v 17.59938049 38.75 99.253685
vn 0.6412563324 -0.03074021451 -0.7667106986
vn 0.9221670032 0.0487701036 -0.3837049603
vn 0.8736906052 -0.03440426663 0.4852639139
vn 0.8614279628 0.05813572556 0.5045414567
vn -0.4540970922 0.00169846171 0.8909506202
vn -0.3821454048 -0.003424565541 0.9240958691
vn 0.9162604809 0.03230178356 0.3992785513
vn 0.9148297906 -0.06450269371 0.3986550868
vn 0.8397225738 -0.03191712871 0.5420768857
vn 0.8384423256 0.06373693794 0.5412504673
vn 0.2223802954 0.0175587777 -0.974801898
vn -0.972153306 0.04842729121 0.2292875946
vn -0.6959501505 -0.03502272815 0.7172355056
vn -0.3378628194 -0.02427961305 -0.9408821464
f 1//1 2//2 3//3 
f 3//3 2//2 4//4 
f 5//5 6//6 7//7 
f 7//7 6//6 8//8 
f 7//7 8//8 9//9 
f 3//3 4//4 9//9 
f 9//9 4//4 10//10 
f 9//9 10//10 7//7 
f 11//11 12//12 2//2 
f 2//2 12//12 4//4 
f 4//4 12//12 10//10 
f 10//10 12//12 7//7 
f 7//7 12//12 5//5 
f 6//6 5//5 13//13 
f 13//13 5//5 12//12 
f 14//14 11//11 1//1 
f 1//1 11//11 2//2 
f 14//14 1//1 13//13 
f 13//13 1//1 3//3 
f 13//13 3//3 9//9 
f 9//9 8//8 13//13 
f 13//13 8//8 6//6 
f 13//13 12//12 14//14 
f 14//14 12//12 11//11 
