v 28.77272034 46.75 78.67495728
v 28.77272034 38.75 78.67495728
v 29.2308197 46.75 78.92368317
v 29.2308197 38.75 78.92368317
v 29.26937866 38.75 78.85175323
v 29.26937866 46.75 78.85175323
v 29.25267601 38.75 78.87353516
v 29.25267601 46.75 78.87353516
v 29.23970985 46.75 78.89772034
v 29.23970985 38.75 78.89772034
v 28.91195488 38.75 78.41851807
v 29.36967278 38.75 78.66703796
v 29.36967278 46.75 78.66703796
v 28.91195488 46.75 78.41851807
vn -0.9721527696 0.04842704162 0.2292897701
vn -0.6959428787 -0.03502255678 0.7172425389
vn -0.4540912509 0.001698038541 0.8909535408
vn -0.3821580708 -0.00342368125 0.9240906239
vn 0.873686552 -0.03440453112 0.4852711558
vn 0.8614354134 0.05813386664 0.5045289397
vn 0.8397635221 -0.03191757202 0.5420133471
vn 0.8384832144 0.06373781711 0.5411869884
vn 0.9162381887 0.03230184689 0.3993296027
vn 0.9148075581 -0.06450281292 0.3987060487
vn -0.3378628194 -0.02427961305 -0.9408821464
vn 0.6412521005 -0.03073982149 -0.7667142749
vn 0.9221636653 0.04877027869 -0.3837130368
vn 0.2223802954 0.0175587777 -0.974801898
f 1//1 2//2 3//3 
f 3//3 2//2 4//4 
f 5//5 6//6 7//7 
f 7//7 6//6 8//8 
f 7//7 8//8 9//9 
f 3//3 4//4 9//9 
f 9//9 4//4 10//10 
f 9//9 10//10 7//7 
f 11//11 12//12 2//2 
f 2//2 12//12 5//5 
f 2//2 5//5 7//7 
f 7//7 10//10 2//2 
f 2//2 10//10 4//4 
f 6//6 5//5 13//13 
f 13//13 5//5 12//12 
f 14//14 11//11 1//1 
f 1//1 11//11 2//2 
f 14//14 1//1 13//13 
f 13//13 1//1 6//6 
f 6//6 1//1 8//8 
f 8//8 1//1 9//9 
f 9//9 1//1 3//3 
f 13//13 12//12 14//14 
f 14//14 12//12 11//11 
