v 19.72974014 46.45819855 96.07219696
v 19.72974014 39.04166794 96.07219696
v 19.80297661 46.45819855 96.11196136
v 19.80297661 39.04166794 96.11196136
v 21.58228111 39.04166794 92.83489227
v 21.58228111 46.45819855 92.83489227
v 21.50904655 46.45819855 92.79512787
v 21.50904655 39.04166794 92.79512787
vn -0.8840794563 0.005617780145 -0.4673028588
vn -0.8991895914 -0.01122452412 -0.4374151826
vn 0.8564186692 0.0224445872 0.51579386
vn 0.873375535 -0.01123491675 0.4869178534
vn 0.8991894126 -0.01122429315 0.4374155998
vn 0.8840795755 0.005617666058 0.46730268
vn -0.8564189076 0.02244459279 -0.5157935023
vn -0.8733754158 -0.01123491582 -0.486918062
f 1//1 2//2 3//3 
f 3//3 2//2 4//4 
f 5//5 6//6 4//4 
f 4//4 6//6 3//3 
f 1//1 3//3 7//7 
f 7//7 3//3 6//6 
f 2//2 8//8 4//4 
f 4//4 8//8 5//5 
f 2//2 1//1 8//8 
f 8//8 1//1 7//7 
f 8//8 7//7 5//5 
f 5//5 7//7 6//6 
