v 19.58253288 38.75 96.3243103
v 19.58253288 38.83333206 96.3243103
v 17.9026165 38.75 99.41832733
v 17.9026165 38.83333206 99.41832733
v 19.30448723 38.75 96.17334747
v 17.62457275 38.75 99.2673645
v 17.62457275 38.84370804 99.2673645
v 19.30448723 38.84370804 96.17334747
v 17.62914467 38.81261826 99.26984406
v 19.30906105 38.81261826 96.17582703
v 19.30906105 38.7810936 96.17582703
v 17.62914467 38.7810936 99.26984406
v 19.2792778 38.84370804 96.15966034
v 17.59936142 38.84370804 99.25367737
v 19.2792778 39.04166794 96.15966034
v 17.59936142 39.04166794 99.25367737
v 18.05708122 38.83333206 99.50219727
v 18.05708122 39.04166794 99.50219727
v 19.7369957 39.04166794 96.40818024
v 19.7369957 38.83333206 96.40818024
vn 0.2385382354 -0.9665538073 0.09419803321
vn 0.4568925202 -0.8885582089 0.0413942486
vn 0.2164023221 -0.9669028521 0.1351623684
vn 0.1878136694 -0.8476057649 0.4962766171
vn -0.04136657715 -0.9987649322 -0.02752042562
vn -0.1792953908 -0.9799260497 -0.08716682345
vn -0.5167086124 -0.8538729548 0.06255545467
vn -0.5749991536 -0.5096483827 -0.640026927
vn -0.896052599 -0.08271300048 -0.4361746013
vn -0.8302862644 -0.08247798681 -0.5512005687
vn -0.8222922683 0.08234913647 -0.5630755424
vn -0.9540728927 0.081074588 -0.2883953154
vn -0.8678017855 -0.1434102952 -0.4757662416
vn -0.8735515475 -0.1434109807 -0.4651247561
vn -0.1413537264 0.9813205004 -0.1304958761
vn -0.5667359829 0.7937720418 -0.2207629383
vn 0.6624777317 -0.6447136402 0.3814021349
vn 0.1537204385 0.9798429012 0.1275850981
vn 0.5773838162 0.7793785334 0.2433043718
vn 0.6894093752 -0.6443597674 0.3309307992
f 1//1 2//2 3//3 
f 3//3 2//2 4//4 
f 1//1 3//3 5//5 
f 5//5 3//3 6//6 
f 7//7 8//8 9//9 
f 9//9 8//8 10//10 
f 9//9 10//10 11//11 
f 5//5 6//6 11//11 
f 11//11 6//6 12//12 
f 11//11 12//12 9//9 
f 8//8 7//7 13//13 
f 13//13 7//7 14//14 
f 15//15 13//13 16//16 
f 16//16 13//13 14//14 
f 17//17 18//18 4//4 
f 4//4 18//18 16//16 
f 4//4 16//16 7//7 
f 7//7 16//16 14//14 
f 7//7 9//9 4//4 
f 4//4 9//9 12//12 
f 4//4 12//12 3//3 
f 3//3 12//12 6//6 
f 19//19 15//15 18//18 
f 18//18 15//15 16//16 
f 20//20 17//17 2//2 
f 2//2 17//17 4//4 
f 20//20 2//2 19//19 
f 19//19 2//2 15//15 
f 15//15 2//2 8//8 
f 15//15 8//8 13//13 
f 1//1 11//11 2//2 
f 2//2 11//11 10//10 
f 2//2 10//10 8//8 
f 1//1 5//5 11//11 
f 20//20 19//19 17//17 
f 17//17 19//19 18//18 
