v 27.45376396 46.45819855 81.84631348
v 27.45376396 39.04166794 81.84631348
v 27.52700043 46.45819855 81.88607788
v 27.52700043 39.04166794 81.88607788
v 29.15716362 39.04166794 78.88368988
v 29.15716362 46.45819855 78.88368988
v 29.08392715 46.45819855 78.84393311
v 29.08392715 39.04166794 78.84393311
vn -0.8845565319 0.00561771309 -0.4663991332
vn -0.9009668827 -0.01122238301 -0.4337427616
vn 0.8543072343 0.02244002186 0.5192837119
vn 0.8728775382 -0.01123463828 0.4878099859
vn 0.9009664655 -0.01122193784 0.4337436259
vn 0.8845567703 0.005617472809 0.4663986564
vn -0.8543078303 0.02243997902 -0.5192826986
vn -0.8728772998 -0.01123464946 -0.4878104627
f 1//1 2//2 3//3 
f 3//3 2//2 4//4 
f 5//5 6//6 4//4 
f 4//4 6//6 3//3 
f 1//1 3//3 7//7 
f 7//7 3//3 6//6 
f 2//2 8//8 4//4 
f 4//4 8//8 5//5 
f 2//2 1//1 8//8 
f 8//8 1//1 7//7 
f 8//8 7//7 5//5 
f 5//5 7//7 6//6 
