v 51.91443634 0.5625 10.77671242
v 51.91443634 0.5625 7.443378925
v 51.53943634 0.5625 10.77671242
v 51.53943634 0.5625 7.443378925
v 51.91443634 0 10.77671242
v 51.91443634 0 7.443378925
v 51.53943634 0 7.443378925
v 51.53943634 0 10.77671242
vn 0.8178418279 0.5452278852 0.1840143949
vn 0.8311404586 0.5540936589 -0.04675164819
vn -0.8311404586 0.5540936589 0.04675164819
vn -0.8178418279 0.5452278852 -0.1840143949
vn 0.8311404586 -0.5540936589 0.04675164819
vn 0.8178418279 -0.5452278852 -0.1840143949
vn -0.8311404586 -0.5540936589 -0.04675164819
vn -0.8178418279 -0.5452278852 0.1840143949
f 1//1 2//2 3//3 
f 3//3 2//2 4//4 
f 1//1 5//5 2//2 
f 2//2 5//5 6//6 
f 7//7 4//4 6//6 
f 6//6 4//4 2//2 
f 5//5 1//1 8//8 
f 8//8 1//1 3//3 
f 4//4 7//7 3//3 
f 3//3 7//7 8//8 
f 6//6 5//5 7//7 
f 7//7 5//5 8//8 
