v -61.30550385 38.64583206 -38.58486557
v -61.30550385 38.66666794 -38.58486557
v -62.59421158 38.64583206 -42.32754135
v -62.59421158 38.66666794 -42.32754135
v -62.5548172 38.66666794 -42.34110641
v -62.5548172 38.64583206 -42.34110641
v -61.26610947 38.64583206 -38.59843063
v -61.26610947 38.66666794 -38.59843063
vn -0.2276940793 -0.9701198936 0.0838021934
vn -0.4221403003 0.8943934441 0.1478442699
vn -0.6698480248 -0.7070400715 0.2267111987
vn -0.4259545505 0.8943562508 0.1367100924
vn 0.4221403003 0.8943934441 -0.1478442699
vn 0.2276940793 -0.9701198936 -0.0838021934
vn 0.6698480248 -0.7070400715 -0.2267111987
vn 0.4259545505 0.8943562508 -0.1367100924
f 1//1 2//2 3//3 
f 3//3 2//2 4//4 
f 5//5 6//6 4//4 
f 4//4 6//6 3//3 
f 7//7 1//1 6//6 
f 6//6 1//1 3//3 
f 8//8 5//5 2//2 
f 2//2 5//5 4//4 
f 2//2 1//1 8//8 
f 8//8 1//1 7//7 
f 8//8 7//7 5//5 
f 5//5 7//7 6//6 
