v -3.481540918 24.64583397 -153.6712646
v -3.481540918 24.66666603 -153.6712646
v 0.4767923951 24.64583397 -153.6712646
v 0.4767923951 24.66666603 -153.6712646
v 0.4767923951 24.66666603 -153.6295929
v 0.4767923951 24.64583397 -153.6295929
v -3.481540918 24.64583397 -153.6295929
v -3.481540918 24.66666603 -153.6295929
vn -0.005105690099 -0.9701402783 -0.2424906641
vn -0.003721702378 0.7071666121 -0.7070371509
vn 0.003721702378 -0.7071666121 -0.7070371509
vn 0.005105690099 0.9701402783 -0.2424906641
vn 0.003721702378 0.7071666121 0.7070371509
vn 0.005105690099 -0.9701402783 0.2424906641
vn -0.003721702378 -0.7071666121 0.7070371509
vn -0.005105690099 0.9701402783 0.2424906641
f 1//1 2//2 3//3 
f 3//3 2//2 4//4 
f 5//5 6//6 4//4 
f 4//4 6//6 3//3 
f 7//7 1//1 6//6 
f 6//6 1//1 3//3 
f 2//2 8//8 4//4 
f 4//4 8//8 5//5 
f 2//2 1//1 8//8 
f 8//8 1//1 7//7 
f 8//8 7//7 5//5 
f 5//5 7//7 6//6 
