v 52.11235046 2.520833254 -153.6712646
v 52.11235046 2.5 -153.6712646
v 48.51845932 2.520833254 -153.6712646
v 48.51845932 2.5 -153.6712646
v 48.51845932 2.5 -153.6295929
v 48.51845932 2.520833254 -153.6295929
v 52.11235046 2.520833254 -153.6295929
v 52.11235046 2.5 -153.6295929
vn 0.005623724777 0.9701343179 -0.2425030619
vn 0.004099216778 -0.7071453333 -0.7070563436
vn -0.004099216778 0.7071453333 -0.7070563436
vn -0.005623724777 -0.9701343179 -0.2425030619
vn -0.004099216778 -0.7071453333 0.7070563436
vn -0.005623724777 0.9701343179 0.2425030619
vn 0.004099216778 0.7071453333 0.7070563436
vn 0.005623724777 -0.9701343179 0.2425030619
f 1//1 2//2 3//3 
f 3//3 2//2 4//4 
f 5//5 6//6 4//4 
f 4//4 6//6 3//3 
f 7//7 1//1 6//6 
f 6//6 1//1 3//3 
f 2//2 8//8 4//4 
f 4//4 8//8 5//5 
f 2//2 1//1 8//8 
f 8//8 1//1 7//7 
f 8//8 7//7 5//5 
f 5//5 7//7 6//6 
