v 12.51845932 19.75 -153.6712646
v 12.51845932 19.75 -153.6295929
v 16.47679329 19.75 -153.6712646
v 16.47679329 19.75 -153.6295929
v 16.47679329 19.72916603 -153.6712646
v 16.47679329 19.72916603 -153.6295929
v 12.51845932 19.72916603 -153.6712646
v 12.51845932 19.72916603 -153.6295929
vn -0.003721872112 0.7071342468 -0.7070695162
vn -0.005106129218 0.9701350927 0.2425115705
vn 0.005106129218 0.9701350927 -0.2425115705
vn 0.003721872112 0.7071342468 0.7070695162
vn 0.003721872112 -0.7071342468 -0.7070695162
vn 0.005106129218 -0.9701350927 0.2425115705
vn -0.005106129218 -0.9701350927 -0.2425115705
vn -0.003721872112 -0.7071342468 0.7070695162
f 1//1 2//2 3//3 
f 3//3 2//2 4//4 
f 5//5 3//3 6//6 
f 6//6 3//3 4//4 
f 7//7 1//1 5//5 
f 5//5 1//1 3//3 
f 2//2 8//8 4//4 
f 4//4 8//8 6//6 
f 8//8 2//2 7//7 
f 7//7 2//2 1//1 
f 8//8 7//7 6//6 
f 6//6 7//7 5//5 
