v 51.98735046 24.66666603 -45.65043259
v 51.98735046 32.75 -45.65043259
v 51.98735046 24.66666603 -45.62959671
v 51.98735046 32.75 -45.62959671
v 51.94568634 32.75 -45.65043259
v 51.94568634 32.75 -45.62959671
v 51.94568634 24.66666603 -45.62959671
v 51.94568634 24.66666603 -45.65043259
vn 0.2425772399 -0.001250321744 -0.970131278
vn 0.707166791 0.003644966986 -0.7070373297
vn 0.707166791 -0.003644966986 0.7070373297
vn 0.2425772399 0.001250321744 0.970131278
vn -0.2425772399 0.001250321744 -0.970131278
vn -0.707166791 0.003644966986 0.7070373297
vn -0.2425772399 -0.001250321744 0.970131278
vn -0.707166791 -0.003644966986 -0.7070373297
f 1//1 2//2 3//3 
f 3//3 2//2 4//4 
f 5//5 6//6 2//2 
f 2//2 6//6 4//4 
f 3//3 4//4 7//7 
f 7//7 4//4 6//6 
f 8//8 5//5 1//1 
f 1//1 5//5 2//2 
f 1//1 3//3 8//8 
f 8//8 3//3 7//7 
f 7//7 6//6 8//8 
f 8//8 6//6 5//5 
