v 51.94568634 24.6875 -113.6087646
v 51.94568634 24.6875 -109.6504288
v 51.98735046 24.6875 -113.6087646
v 51.98735046 24.6875 -109.6504288
v 51.98735046 24.66666603 -109.6504288
v 51.94568634 24.66666603 -109.6504288
v 51.98735046 24.66666603 -113.6087646
v 51.94568634 24.66666603 -113.6087646
vn -0.4472265244 0.8943711519 -0.009414714761
vn -0.447245121 0.8944083452 0.002353776479
vn 0.447245121 0.8944083452 -0.002353776479
vn 0.4472265244 0.8943711519 0.009414714761
vn 0.447245121 -0.8944083452 0.002353776479
vn -0.4472265244 -0.8943711519 0.009414714761
vn 0.4472265244 -0.8943711519 -0.009414714761
vn -0.447245121 -0.8944083452 -0.002353776479
f 1//1 2//2 3//3 
f 3//3 2//2 4//4 
f 5//5 4//4 6//6 
f 6//6 4//4 2//2 
f 7//7 3//3 5//5 
f 5//5 3//3 4//4 
f 1//1 8//8 2//2 
f 2//2 8//8 6//6 
f 8//8 1//1 7//7 
f 7//7 1//1 3//3 
f 7//7 5//5 8//8 
f 8//8 5//5 6//6 
