v -49.57148743 32.72916794 -4.506799221
v -49.57148743 38.66666794 -4.506799221
v -49.58505249 32.72916794 -4.546195984
v -49.58505249 38.66666794 -4.546195984
v -49.53208923 38.66666794 -4.520364761
v -49.5456543 38.66666794 -4.559761047
v -49.5456543 32.72916794 -4.559761047
v -49.53208923 32.72916794 -4.520364761
vn -0.1316425055 -0.00627656607 0.9912773967
vn -0.7000802755 0.006276702043 0.7140365243
vn -0.9912881851 -0.003138425294 -0.1316736042
vn -0.7140216827 0.003138364293 -0.7001165748
vn 0.7140241861 0.003138330532 0.7001140118
vn 0.7000776529 0.00627672486 -0.7140390873
vn 0.1316475421 -0.006276561879 -0.991276741
vn 0.9912880659 -0.003138419008 0.1316742748
f 1//1 2//2 3//3 
f 3//3 2//2 4//4 
f 5//5 6//6 2//2 
f 2//2 6//6 4//4 
f 3//3 4//4 7//7 
f 7//7 4//4 6//6 
f 8//8 5//5 1//1 
f 1//1 5//5 2//2 
f 8//8 1//1 7//7 
f 7//7 1//1 3//3 
f 7//7 6//6 8//8 
f 8//8 6//6 5//5 
