v -59.98966599 32.72916794 -34.7633934
v -59.98966599 38.66666794 -34.7633934
v -60.00323486 32.72916794 -34.8027916
v -60.00323486 38.66666794 -34.8027916
v -59.95027161 38.66666794 -34.77695847
v -59.96383667 38.66666794 -34.81635666
v -59.96383667 32.72916794 -34.81635666
v -59.95027161 32.72916794 -34.77695847
vn -0.1316730082 -0.006276847329 0.9912733436
vn -0.7000780702 0.006276409142 0.7140387297
vn -0.9912993908 -0.003138559172 -0.1315891445
vn -0.7140496373 0.003138615284 -0.7000880241
vn 0.7140701413 0.003138340078 0.7000671625
vn 0.7000985742 0.006276592612 -0.7140186429
vn 0.1316676587 -0.006276592612 -0.9912740588
vn 0.9912940264 -0.003138177097 0.1316293776
f 1//1 2//2 3//3 
f 3//3 2//2 4//4 
f 5//5 6//6 2//2 
f 2//2 6//6 4//4 
f 3//3 4//4 7//7 
f 7//7 4//4 6//6 
f 8//8 5//5 1//1 
f 1//1 5//5 2//2 
f 8//8 1//1 7//7 
f 7//7 1//1 3//3 
f 7//7 6//6 8//8 
f 8//8 6//6 5//5 
