v -36.59837341 23.75 57.24996567
v -36.59837341 32.75 57.24996567
v -36.5945015 23.75 57.229496
v -36.5945015 32.75 57.229496
v -36.55743027 32.75 57.25771332
v -36.55355835 32.75 57.23723984
v -36.55355835 23.75 57.23723984
v -36.55743027 23.75 57.25771332
vn -0.4186572134 -0.002245778451 0.9081415534
vn -0.8261941671 0.003273838665 0.5633760095
vn -0.5633340478 -0.001636824454 -0.8262276053
vn -0.05799568444 0.001122813555 -0.9983162284
vn 0.05795142427 0.001123037538 0.9983187914
vn 0.8262146711 0.003273663577 -0.5633458495
vn 0.4186205864 -0.00224582036 -0.9081584215
vn 0.5633782744 -0.001637087087 0.8261974454
f 1//1 2//2 3//3 
f 3//3 2//2 4//4 
f 5//5 6//6 2//2 
f 2//2 6//6 4//4 
f 3//3 4//4 7//7 
f 7//7 4//4 6//6 
f 8//8 5//5 1//1 
f 1//1 5//5 2//2 
f 8//8 1//1 7//7 
f 7//7 1//1 3//3 
f 7//7 6//6 8//8 
f 8//8 6//6 5//5 
