v -40.45557785 32.72916794 21.96772003
v -40.45557785 38.66666794 21.96772003
v -40.46914291 32.72916794 21.92832375
v -40.46914291 38.66666794 21.92832375
v -40.41618347 38.66666794 21.95415497
v -40.42974854 38.66666794 21.91475868
v -40.42974854 32.72916794 21.91475868
v -40.41618347 32.72916794 21.95415497
vn -0.1316582263 -0.006276482251 0.9912753105
vn -0.7000981569 0.006276319269 0.7140190601
vn -0.9912933111 -0.003138168482 -0.1316347122
vn -0.7140600681 0.003138249973 -0.7000773549
vn 0.7140600681 0.003138249973 0.7000773549
vn 0.7000981569 0.006276319269 -0.7140190601
vn 0.1316582263 -0.006276482251 -0.9912753105
vn 0.9912933111 -0.003138168482 0.1316347122
f 1//1 2//2 3//3 
f 3//3 2//2 4//4 
f 5//5 6//6 2//2 
f 2//2 6//6 4//4 
f 3//3 4//4 7//7 
f 7//7 4//4 6//6 
f 8//8 5//5 1//1 
f 1//1 5//5 2//2 
f 8//8 1//1 7//7 
f 7//7 1//1 3//3 
f 7//7 6//6 8//8 
f 8//8 6//6 5//5 
