v 51.94568634 32.75 10.34956837
v 51.94568634 38.77083206 10.34956837
v 51.98735046 32.75 10.34956837
v 51.98735046 38.77083206 10.34956837
v 51.98735046 38.77083206 10.39123535
v 51.94568634 38.77083206 10.39123535
v 51.98735046 32.75 10.39123535
v 51.94568634 32.75 10.39123535
vn -0.8944223523 -0.006189397536 -0.44718045
vn -0.4472360313 0.00309487083 -0.8944106102
vn 0.4472360313 -0.00309487083 -0.8944106102
vn 0.8944223523 0.006189397536 -0.44718045
vn 0.4472360313 0.00309487083 0.8944106102
vn -0.8944223523 0.006189397536 0.44718045
vn 0.8944223523 -0.006189397536 0.44718045
vn -0.4472360313 -0.00309487083 0.8944106102
f 1//1 2//2 3//3 
f 3//3 2//2 4//4 
f 5//5 4//4 6//6 
f 6//6 4//4 2//2 
f 3//3 4//4 7//7 
f 7//7 4//4 5//5 
f 8//8 6//6 1//1 
f 1//1 6//6 2//2 
f 8//8 1//1 7//7 
f 7//7 1//1 3//3 
f 7//7 5//5 8//8 
f 8//8 5//5 6//6 
