v -56.63014603 32.75 100.6417999
v -56.63014603 38.66666794 100.6417999
v -56.61058807 32.75 100.605011
v -56.61058807 38.66666794 100.605011
v -56.57379532 38.66666794 100.6245728
v -56.59335709 38.66666794 100.6613617
v -56.57379532 32.75 100.6245728
v -56.59335709 32.75 100.6613617
vn -0.8147600293 -0.00314914505 0.5797897577
vn -0.9996830821 0.003149226075 -0.0249757003
vn -0.5797733068 -0.006298945751 -0.8147534728
vn 0.02505613863 0.006298477761 -0.999666214
vn 0.9996820688 0.003149612807 0.02501661889
vn -0.02505716309 0.006298735738 0.9996661544
vn 0.8147406578 -0.00314946007 -0.5798169374
vn 0.5797539949 -0.006298735738 0.8147672415
f 1//1 2//2 3//3 
f 3//3 2//2 4//4 
f 5//5 4//4 6//6 
f 6//6 4//4 2//2 
f 3//3 4//4 7//7 
f 7//7 4//4 5//5 
f 8//8 6//6 1//1 
f 1//1 6//6 2//2 
f 1//1 3//3 8//8 
f 8//8 3//3 7//7 
f 7//7 5//5 8//8 
f 8//8 5//5 6//6 
