v 51.94568634 32.72916794 -21.65043068
v 51.94568634 38.77083206 -21.65043068
v 51.98735046 32.72916794 -21.65043068
v 51.98735046 38.77083206 -21.65043068
v 51.98735046 38.77083206 -21.60876465
v 51.94568634 38.77083206 -21.60876465
v 51.98735046 32.72916794 -21.60876465
v 51.94568634 32.72916794 -21.60876465
vn -0.8944183588 -0.006168028805 -0.4471887052
vn -0.4472278357 0.003084142925 -0.8944147229
vn 0.4472278357 -0.003084142925 -0.8944147229
vn 0.8944183588 0.006168028805 -0.4471887052
vn 0.4472278357 0.003084142925 0.8944147229
vn -0.8944183588 0.006168028805 0.4471887052
vn 0.8944183588 -0.006168028805 0.4471887052
vn -0.4472278357 -0.003084142925 0.8944147229
f 1//1 2//2 3//3 
f 3//3 2//2 4//4 
f 5//5 4//4 6//6 
f 6//6 4//4 2//2 
f 3//3 4//4 7//7 
f 7//7 4//4 5//5 
f 8//8 6//6 1//1 
f 1//1 6//6 2//2 
f 8//8 1//1 7//7 
f 7//7 1//1 3//3 
f 7//7 5//5 8//8 
f 8//8 5//5 6//6 
