v -67.5331192 55.64583206 -99.12941742
v -67.5331192 55.66666794 -99.12941742
v -68.42355347 55.64583206 -102.9862976
v -68.42355347 55.66666794 -102.9862976
v -68.38295746 55.66666794 -102.9956741
v -68.38295746 55.64583206 -102.9956741
v -67.49252319 55.64583206 -99.13879395
v -67.49252319 55.66666794 -99.13879395
vn -0.2352042943 -0.97012043 0.05954223499
vn -0.4352787733 0.8943949342 0.1029082686
vn -0.6898736954 -0.7070426345 0.1554508507
vn -0.4379090965 0.8943573236 0.09143655002
vn 0.4352787733 0.8943949342 -0.1029082686
vn 0.2352042943 -0.97012043 -0.05954223499
vn 0.6898736954 -0.7070426345 -0.1554508507
vn 0.4379090965 0.8943573236 -0.09143655002
f 1//1 2//2 3//3 
f 3//3 2//2 4//4 
f 5//5 6//6 4//4 
f 4//4 6//6 3//3 
f 7//7 1//1 6//6 
f 6//6 1//1 3//3 
f 8//8 5//5 2//2 
f 2//2 5//5 4//4 
f 2//2 1//1 8//8 
f 8//8 1//1 7//7 
f 8//8 7//7 5//5 
f 5//5 7//7 6//6 
