v 32.72904587 55.64583206 72.97457123
v 32.72904587 55.64583206 72.93289948
v 36.3061142 55.64583206 72.97457123
v 36.3061142 55.64583206 72.93289948
v 36.3061142 55.66666794 72.97457123
v 36.3061142 55.66666794 72.93289948
v 32.72904587 55.66666794 72.97457123
v 32.72904587 55.66666794 72.93289948
vn -0.004118754063 -0.7071008086 0.7071008086
vn -0.005650841631 -0.9701269865 -0.2425317466
vn 0.005650841631 -0.9701269865 0.2425317466
vn 0.004118754063 -0.7071008086 -0.7071008086
vn 0.004118754063 0.7071008086 0.7071008086
vn 0.005650841631 0.9701269865 -0.2425317466
vn -0.005650841631 0.9701269865 0.2425317466
vn -0.004118754063 0.7071008086 -0.7071008086
f 1//1 2//2 3//3 
f 3//3 2//2 4//4 
f 5//5 3//3 6//6 
f 6//6 3//3 4//4 
f 7//7 1//1 5//5 
f 5//5 1//1 3//3 
f 2//2 8//8 4//4 
f 4//4 8//8 6//6 
f 8//8 2//2 7//7 
f 7//7 2//2 1//1 
f 8//8 7//7 6//6 
f 6//6 7//7 5//5 
