v -54.03606033 55.64583206 -40.66721344
v -54.03606033 55.66666794 -40.66721344
v -54.92649078 55.64583206 -44.52409744
v -54.92649078 55.66666794 -44.52409744
v -54.88589096 55.66666794 -44.53347015
v -54.88589096 55.64583206 -44.53347015
v -53.99546051 55.64583206 -40.67658615
v -53.99546051 55.66666794 -40.67658615
vn -0.2351896018 -0.9701242447 0.05953857303
vn -0.4352551401 0.8944070935 0.102902323
vn -0.6898500919 -0.707067132 0.1554444283
vn -0.4378845096 0.8943699598 0.09143021703
vn 0.4352551401 0.8944070935 -0.102902323
vn 0.2351896018 -0.9701242447 -0.05953857303
vn 0.6898500919 -0.707067132 -0.1554444283
vn 0.4378845096 0.8943699598 -0.09143021703
f 1//1 2//2 3//3 
f 3//3 2//2 4//4 
f 5//5 6//6 4//4 
f 4//4 6//6 3//3 
f 7//7 1//1 6//6 
f 6//6 1//1 3//3 
f 8//8 5//5 2//2 
f 2//2 5//5 4//4 
f 2//2 1//1 8//8 
f 8//8 1//1 7//7 
f 8//8 7//7 5//5 
f 5//5 7//7 6//6 
