v 8.59513855 23.77083397 117.4309769
v 8.59513855 23.75 117.4309769
v 10.49382401 23.77083397 113.9340363
v 10.49382401 23.75 113.9340363
v 10.45720673 23.75 113.9141541
v 10.45720673 23.77083397 113.9141541
v 8.558521271 23.77083397 117.4110947
v 8.558521271 23.75 117.4110947
vn 0.2107231319 0.9701285362 0.1201932281
vn 0.3919086754 -0.8944200873 0.2154535949
vn 0.6231877804 0.707092762 0.3341509402
vn 0.3974787593 -0.8943832517 0.2051564902
vn -0.3919086754 -0.8944200873 -0.2154535949
vn -0.2107231319 0.9701285362 -0.1201932281
vn -0.6231877804 0.707092762 -0.3341509402
vn -0.3974787593 -0.8943832517 -0.2051564902
f 1//1 2//2 3//3 
f 3//3 2//2 4//4 
f 5//5 6//6 4//4 
f 4//4 6//6 3//3 
f 7//7 1//1 6//6 
f 6//6 1//1 3//3 
f 8//8 5//5 2//2 
f 2//2 5//5 4//4 
f 2//2 1//1 8//8 
f 8//8 1//1 7//7 
f 8//8 7//7 5//5 
f 5//5 7//7 6//6 
