v 25.72629547 23.75 85.79199219
v 25.72629547 32.75 85.79199219
v 25.76291275 23.75 85.81187439
v 25.76291275 32.75 85.81187439
v 25.75297165 32.75 85.83017731
v 25.71635437 32.75 85.81030273
v 25.75297165 23.75 85.83017731
v 25.71635437 23.75 85.81030273
vn -0.2840614915 -0.00163692818 -0.958804667
vn 0.2497596592 0.001122951158 -0.9683071971
vn 0.6760285497 -0.002245527226 -0.7368720174
vn 0.9588027596 0.003273843322 -0.2840537429
vn -0.2496763766 0.00112251658 0.9683287144
vn -0.9588131905 0.0032734368 0.2840184867
vn 0.283942461 -0.00163631863 0.9588398933
vn -0.6759803295 -0.002245662035 0.736916244
f 1//1 2//2 3//3 
f 3//3 2//2 4//4 
f 5//5 4//4 6//6 
f 6//6 4//4 2//2 
f 3//3 4//4 7//7 
f 7//7 4//4 5//5 
f 8//8 6//6 1//1 
f 1//1 6//6 2//2 
f 1//1 3//3 8//8 
f 8//8 3//3 7//7 
f 7//7 5//5 8//8 
f 8//8 5//5 6//6 
