v 29.57024193 55.64583206 78.79964447
v 29.57024193 55.66666794 78.79964447
v 27.68148994 55.64583206 82.27829742
v 27.68148994 55.66666794 82.27829742
v 27.64487267 55.66666794 82.25841522
v 27.64487267 55.64583206 82.25841522
v 29.53362465 55.64583206 78.77976227
v 29.53362465 55.66666794 78.77976227
vn 0.3975313902 -0.8943665028 0.2051277757
vn 0.6232258081 0.7070603371 0.334148556
vn 0.3919316828 -0.8944036961 0.2154798359
vn 0.2107286155 0.9701231718 0.1202268451
vn -0.6232258081 0.7070603371 -0.334148556
vn -0.3975313902 -0.8943665028 -0.2051277757
vn -0.3919316828 -0.8944036961 -0.2154798359
vn -0.2107286155 0.9701231718 -0.1202268451
f 1//1 2//2 3//3 
f 3//3 2//2 4//4 
f 5//5 6//6 4//4 
f 4//4 6//6 3//3 
f 1//1 3//3 7//7 
f 7//7 3//3 6//6 
f 2//2 8//8 4//4 
f 4//4 8//8 5//5 
f 2//2 1//1 8//8 
f 8//8 1//1 7//7 
f 8//8 7//7 5//5 
f 5//5 7//7 6//6 
