v 31.47887802 55.64583206 75.28437805
v 31.47887802 55.66666794 75.28437805
v 29.59012413 55.64583206 78.76302338
v 29.59012413 55.66666794 78.76302338
v 29.55350685 55.66666794 78.74314117
v 29.55350685 55.64583206 78.74314117
v 31.44226074 55.64583206 75.26449585
v 31.44226074 55.66666794 75.26449585
vn 0.3975310922 -0.8943665028 0.2051282972
vn 0.6232253909 0.7070603371 0.3341493607
vn 0.3919313848 -0.8944036961 0.2154803723
vn 0.2107284665 0.9701231718 0.1202271357
vn -0.6232253909 0.7070603371 -0.3341493607
vn -0.3975310922 -0.8943665028 -0.2051282972
vn -0.3919313848 -0.8944036961 -0.2154803723
vn -0.2107284665 0.9701231718 -0.1202271357
f 1//1 2//2 3//3 
f 3//3 2//2 4//4 
f 5//5 6//6 4//4 
f 4//4 6//6 3//3 
f 1//1 3//3 7//7 
f 7//7 3//3 6//6 
f 2//2 8//8 4//4 
f 4//4 8//8 5//5 
f 2//2 1//1 8//8 
f 8//8 1//1 7//7 
f 8//8 7//7 5//5 
f 5//5 7//7 6//6 
