v -0.9679180384 55.64583206 135.0439453
v -0.9679180384 55.66666794 135.0439453
v -2.856671572 55.64583206 138.522583
v -2.856671572 55.66666794 138.522583
v -2.893288851 55.66666794 138.5027161
v -2.893288851 55.64583206 138.5027161
v -1.004535437 55.64583206 135.0240631
v -1.004535437 55.66666794 135.0240631
vn 0.3975301385 -0.89436692 0.205128178
vn 0.623224318 0.7070612311 0.3341494501
vn 0.3919584155 -0.8943883181 0.2154951841
vn 0.2107468992 0.9701179862 0.1202368289
vn -0.6232793331 0.7069991231 -0.3341782093
vn -0.3975839913 -0.8943364024 -0.2051568627
vn -0.3919591308 -0.89438802 -0.2154951096
vn -0.2107460052 0.970118165 -0.1202368587
f 1//1 2//2 3//3 
f 3//3 2//2 4//4 
f 5//5 6//6 4//4 
f 4//4 6//6 3//3 
f 1//1 3//3 7//7 
f 7//7 3//3 6//6 
f 2//2 8//8 4//4 
f 4//4 8//8 5//5 
f 2//2 1//1 8//8 
f 8//8 1//1 7//7 
f 8//8 7//7 5//5 
f 5//5 7//7 6//6 
