v 23.84433746 55.64583206 89.34545135
v 23.84433746 55.66666794 89.34545135
v 21.95558357 55.64583206 92.82409668
v 21.95558357 55.66666794 92.82409668
v 21.91896629 55.66666794 92.80422211
v 21.91896629 55.64583206 92.80422211
v 23.80772018 55.64583206 89.32556915
v 23.80772018 55.66666794 89.32556915
vn 0.3975310922 -0.8943665028 0.2051282972
vn 0.6232253909 0.7070603371 0.3341493607
vn 0.3919451833 -0.8943958879 0.2154877186
vn 0.2107378542 0.9701205492 0.1202319637
vn -0.623252511 0.7070297599 -0.3341635466
vn -0.3975576162 -0.8943514824 -0.2051424235
vn -0.3919455409 -0.8943957686 -0.2154876739
vn -0.2107374072 0.9701206088 -0.1202319711
f 1//1 2//2 3//3 
f 3//3 2//2 4//4 
f 5//5 6//6 4//4 
f 4//4 6//6 3//3 
f 1//1 3//3 7//7 
f 7//7 3//3 6//6 
f 2//2 8//8 4//4 
f 4//4 8//8 5//5 
f 2//2 1//1 8//8 
f 8//8 1//1 7//7 
f 8//8 7//7 5//5 
f 5//5 7//7 6//6 
