v 6.666622162 55.64583206 120.9828644
v 6.666622162 55.66666794 120.9828644
v 4.777868748 55.64583206 124.4615173
v 4.777868748 55.66666794 124.4615173
v 4.741251469 55.66666794 124.4416351
v 4.741251469 55.64583206 124.4416351
v 6.630004883 55.64583206 120.9629822
v 6.630004883 55.66666794 120.9629822
vn 0.3975313008 -0.8943665028 0.2051279098
vn 0.6232257485 0.7070603371 0.3341487348
vn 0.3919316232 -0.8944036961 0.2154799551
vn 0.2107285857 0.9701231718 0.1202269122
vn -0.6232257485 0.7070603371 -0.3341487348
vn -0.3975313008 -0.8943665028 -0.2051279098
vn -0.3919316232 -0.8944036961 -0.2154799551
vn -0.2107285857 0.9701231718 -0.1202269122
f 1//1 2//2 3//3 
f 3//3 2//2 4//4 
f 5//5 6//6 4//4 
f 4//4 6//6 3//3 
f 1//1 3//3 7//7 
f 7//7 3//3 6//6 
f 2//2 8//8 4//4 
f 4//4 8//8 5//5 
f 2//2 1//1 8//8 
f 8//8 1//1 7//7 
f 8//8 7//7 5//5 
f 5//5 7//7 6//6 
