v -52.18959808 38.64583206 -12.11034489
v -52.18959808 38.66666794 -12.11034489
v -53.47830582 38.64583206 -15.85302258
v -53.47830582 38.66666794 -15.85302258
v -53.43890762 38.66666794 -15.86658764
v -53.43890762 38.64583206 -15.86658764
v -52.15019989 38.64583206 -12.12390995
v -52.15019989 38.66666794 -12.12390995
vn -0.2276755422 -0.9701247811 0.0837957859
vn -0.4221110642 0.8944088817 0.1478341818
vn -0.6698191166 -0.7070707083 0.2267009616
vn -0.4259251356 0.8943718076 0.1366997063
vn 0.4221110642 0.8944088817 -0.1478341818
vn 0.2276755422 -0.9701247811 -0.0837957859
vn 0.6698191166 -0.7070707083 -0.2267009616
vn 0.4259251356 0.8943718076 -0.1366997063
f 1//1 2//2 3//3 
f 3//3 2//2 4//4 
f 5//5 6//6 4//4 
f 4//4 6//6 3//3 
f 7//7 1//1 6//6 
f 6//6 1//1 3//3 
f 8//8 5//5 2//2 
f 2//2 5//5 4//4 
f 2//2 1//1 8//8 
f 8//8 1//1 7//7 
f 8//8 7//7 5//5 
f 5//5 7//7 6//6 
