v -88.6396637 19.77083397 -117.9690247
v -88.6396637 19.75 -117.9690247
v -87.35095978 19.77083397 -114.2263489
v -87.35095978 19.75 -114.2263489
v -87.31156158 19.75 -114.2399139
v -87.31156158 19.77083397 -114.2399139
v -88.6002655 19.77083397 -117.9825974
v -88.6002655 19.75 -117.9825974
vn -0.4258751571 0.8943982124 0.1366827637
vn -0.6697690487 -0.707123816 0.2266832292
vn -0.4220699072 0.8944307566 0.1478193998
vn -0.2276494056 -0.9701317549 0.08378598094
vn 0.6697887778 -0.7071030736 -0.2266896665
vn 0.4258941412 0.8943881989 -0.1366891265
vn 0.422070235 0.8944306374 -0.1478193849
vn 0.2276489586 -0.9701318741 -0.08378598839
f 1//1 2//2 3//3 
f 3//3 2//2 4//4 
f 5//5 6//6 4//4 
f 4//4 6//6 3//3 
f 1//1 3//3 7//7 
f 7//7 3//3 6//6 
f 2//2 8//8 4//4 
f 4//4 8//8 5//5 
f 2//2 1//1 8//8 
f 8//8 1//1 7//7 
f 8//8 7//7 5//5 
f 5//5 7//7 6//6 
