v -44.3759613 38.64583206 10.58210087
v -44.3759613 38.66666794 10.58210087
v -45.66466904 38.64583206 6.839423656
v -45.66466904 38.66666794 6.839423656
v -45.62527084 38.66666794 6.825858116
v -45.62527084 38.64583206 6.825858116
v -44.33656311 38.64583206 10.5685358
v -44.33656311 38.66666794 10.5685358
vn -0.227675125 -0.9701249003 0.08379564434
vn -0.4221104085 0.8944092393 0.1478339732
vn -0.6698178649 -0.7070720196 0.2267005593
vn -0.4259239435 0.8943724632 0.1366993189
vn 0.4221104383 0.8944092393 -0.1478339732
vn 0.2276750952 -0.9701249003 -0.08379564434
vn 0.6698191166 -0.7070707083 -0.2267009616
vn 0.4259251356 0.8943718076 -0.1366997063
f 1//1 2//2 3//3 
f 3//3 2//2 4//4 
f 5//5 6//6 4//4 
f 4//4 6//6 3//3 
f 7//7 1//1 6//6 
f 6//6 1//1 3//3 
f 8//8 5//5 2//2 
f 2//2 5//5 4//4 
f 2//2 1//1 8//8 
f 8//8 1//1 7//7 
f 8//8 7//7 5//5 
f 5//5 7//7 6//6 
