v -69.11914062 38.64583206 -61.27730942
v -69.11914062 38.66666794 -61.27730942
v -70.40785217 38.64583206 -65.01998901
v -70.40785217 38.66666794 -65.01998901
v -70.36845398 38.66666794 -65.03355408
v -70.36845398 38.64583206 -65.03355408
v -69.07974243 38.64583206 -61.29087448
v -69.07974243 38.66666794 -61.29087448
vn -0.2276754826 -0.9701247811 0.08379595727
vn -0.422110945 0.8944088817 0.1478344947
vn -0.6698189378 -0.7070707083 0.2267014682
vn -0.4259250164 0.8943718076 0.1367000341
vn 0.422110945 0.8944088817 -0.1478344947
vn 0.2276754826 -0.9701247811 -0.08379595727
vn 0.6698189378 -0.7070707083 -0.2267014682
vn 0.4259250164 0.8943718076 -0.1367000341
f 1//1 2//2 3//3 
f 3//3 2//2 4//4 
f 5//5 6//6 4//4 
f 4//4 6//6 3//3 
f 7//7 1//1 6//6 
f 6//6 1//1 3//3 
f 8//8 5//5 2//2 
f 2//2 5//5 4//4 
f 2//2 1//1 8//8 
f 8//8 1//1 7//7 
f 8//8 7//7 5//5 
f 5//5 7//7 6//6 
