v -79.537323 38.64583206 -91.53390503
v -79.537323 38.66666794 -91.53390503
v -80.82602692 38.64583206 -95.27658081
v -80.82602692 38.66666794 -95.27658081
v -80.78663635 38.66666794 -95.29014587
v -80.78663635 38.64583206 -95.29014587
v -79.4979248 38.64583206 -91.54747009
v -79.4979248 38.66666794 -91.54747009
vn -0.2276940793 -0.9701198936 0.08380242437
vn -0.4221403003 0.8943935037 0.1478440613
vn -0.6698771715 -0.7070093751 0.2267207354
vn -0.4259841442 0.8943406343 0.1367200166
vn 0.4221402705 0.8943934441 -0.1478444934
vn 0.2276940942 -0.9701198936 -0.08380195498
vn 0.6698188782 -0.7070707083 -0.2267016768
vn 0.4259249866 0.8943718076 -0.1367001683
f 1//1 2//2 3//3 
f 3//3 2//2 4//4 
f 5//5 6//6 4//4 
f 4//4 6//6 3//3 
f 7//7 1//1 6//6 
f 6//6 1//1 3//3 
f 8//8 5//5 2//2 
f 2//2 5//5 4//4 
f 2//2 1//1 8//8 
f 8//8 1//1 7//7 
f 8//8 7//7 5//5 
f 5//5 7//7 6//6 
