v -43.07368851 38.64583206 14.3641758
v -43.07368851 38.66666794 14.3641758
v -44.36239624 38.64583206 10.62149811
v -44.36239624 38.66666794 10.62149811
v -44.32299805 38.66666794 10.60793209
v -44.32299805 38.64583206 10.60793209
v -43.03429413 38.64583206 14.35061073
v -43.03429413 38.66666794 14.35061073
vn -0.2276840359 -0.9701225758 0.08379844576
vn -0.4221244454 0.8944018483 0.1478386521
vn -0.6698166728 -0.7070733309 0.2267001122
vn -0.4259227812 0.8943730593 0.1366988868
vn 0.422124505 0.8944018483 -0.1478384435
vn 0.2276839763 -0.9701225758 -0.08379868418
vn 0.6698482633 -0.7070400715 -0.2267104387
vn 0.4259547293 0.8943562508 -0.1367096007
f 1//1 2//2 3//3 
f 3//3 2//2 4//4 
f 5//5 6//6 4//4 
f 4//4 6//6 3//3 
f 7//7 1//1 6//6 
f 6//6 1//1 3//3 
f 8//8 5//5 2//2 
f 2//2 5//5 4//4 
f 2//2 1//1 8//8 
f 8//8 1//1 7//7 
f 8//8 7//7 5//5 
f 5//5 7//7 6//6 
