v -41.4294281 38.75 13.93810844
v -41.4294281 46.75 13.93810844
v -41.43411255 38.75 13.91780853
v -41.43411255 46.75 13.91780853
v -41.39351273 46.75 13.90843582
v -41.38882828 46.75 13.92873478
v -41.39351273 38.75 13.90843582
v -41.38882828 38.75 13.92873478
vn -0.01807467267 -0.00126324431 0.9998358488
vn -0.5299456716 0.001841552788 0.8480296135
vn -0.8480070829 -0.003682635259 -0.5299720764
vn -0.4545332491 0.002526312601 -0.8907262087
vn 0.5299340487 0.001841477002 -0.8480368853
vn 0.4545420706 0.002526300028 0.8907216787
vn 0.01808577217 -0.001263181213 -0.99983567
vn 0.848002553 -0.003682685783 0.5299793482
f 1//1 2//2 3//3 
f 3//3 2//2 4//4 
f 5//5 4//4 6//6 
f 6//6 4//4 2//2 
f 3//3 4//4 7//7 
f 7//7 4//4 5//5 
f 8//8 6//6 1//1 
f 1//1 6//6 2//2 
f 1//1 3//3 8//8 
f 8//8 3//3 7//7 
f 7//7 5//5 8//8 
f 8//8 5//5 6//6 
