v -73.02596283 38.64583206 -72.62353516
v -73.02596283 38.66666794 -72.62353516
v -74.31466675 38.64583206 -76.36621094
v -74.31466675 38.66666794 -76.36621094
v -74.27526855 38.66666794 -76.379776
v -74.27526855 38.64583206 -76.379776
v -72.98656464 38.64583206 -72.63710022
v -72.98656464 38.66666794 -72.63710022
vn -0.2276756018 -0.9701247811 0.08379562199
vn -0.4221111834 0.8944089413 0.1478338689
vn -0.6698192954 -0.7070707083 0.226700455
vn -0.4259252548 0.8943718076 0.1366993934
vn 0.4221111834 0.8944089413 -0.1478338689
vn 0.2276756018 -0.9701247811 -0.08379562199
vn 0.6698192954 -0.7070707083 -0.226700455
vn 0.4259252548 0.8943718076 -0.1366993934
f 1//1 2//2 3//3 
f 3//3 2//2 4//4 
f 5//5 6//6 4//4 
f 4//4 6//6 3//3 
f 7//7 1//1 6//6 
f 6//6 1//1 3//3 
f 8//8 5//5 2//2 
f 2//2 5//5 4//4 
f 2//2 1//1 8//8 
f 8//8 1//1 7//7 
f 8//8 7//7 5//5 
f 5//5 7//7 6//6 
