v -86.04868317 38.64583206 -110.4442749
v -86.04868317 38.66666794 -110.4442749
v -87.33739471 38.64583206 -114.1869507
v -87.33739471 38.66666794 -114.1869507
v -87.29799652 38.66666794 -114.2005157
v -87.29799652 38.64583206 -114.2005157
v -86.00928497 38.64583206 -110.45784
v -86.00928497 38.66666794 -110.45784
vn -0.2276754528 -0.9701247811 0.08379603177
vn -0.4221109152 0.8944088817 0.1478346288
vn -0.6698188782 -0.7070707083 0.2267016768
vn -0.4259249866 0.8943718076 0.1367001683
vn 0.4221109152 0.8944088817 -0.1478346288
vn 0.2276754528 -0.9701247811 -0.08379603177
vn 0.6698188782 -0.7070707083 -0.2267016768
vn 0.4259249866 0.8943718076 -0.1367001683
f 1//1 2//2 3//3 
f 3//3 2//2 4//4 
f 5//5 6//6 4//4 
f 4//4 6//6 3//3 
f 7//7 1//1 6//6 
f 6//6 1//1 3//3 
f 8//8 5//5 2//2 
f 2//2 5//5 4//4 
f 2//2 1//1 8//8 
f 8//8 1//1 7//7 
f 8//8 7//7 5//5 
f 5//5 7//7 6//6 
