v -50.88732529 38.64583206 -8.328269958
v -50.88732529 38.66666794 -8.328269958
v -52.17603302 38.64583206 -12.07094765
v -52.17603302 38.66666794 -12.07094765
v -52.13663483 38.66666794 -12.08451366
v -52.13663483 38.64583206 -12.08451366
v -50.84792709 38.64583206 -8.341835976
v -50.84792709 38.66666794 -8.341835976
vn -0.2276738286 -0.970125258 0.08379520476
vn -0.4221085012 0.8944102526 0.1478333026
vn -0.6698166728 -0.7070733309 0.2267001122
vn -0.4259227812 0.8943730593 0.1366988868
vn 0.4221085012 0.8944102526 -0.1478333026
vn 0.2276738286 -0.970125258 -0.08379520476
vn 0.6698166728 -0.7070733309 -0.2267001122
vn 0.4259227812 0.8943730593 -0.1366988868
f 1//1 2//2 3//3 
f 3//3 2//2 4//4 
f 5//5 6//6 4//4 
f 4//4 6//6 3//3 
f 7//7 1//1 6//6 
f 6//6 1//1 3//3 
f 8//8 5//5 2//2 
f 2//2 5//5 4//4 
f 2//2 1//1 8//8 
f 8//8 1//1 7//7 
f 8//8 7//7 5//5 
f 5//5 7//7 6//6 
