v -46.9805069 32.72916794 3.017952681
v -46.9805069 32.77083206 3.017952681
v -48.26921463 32.72916794 -0.7247249484
v -48.26921463 32.77083206 -0.7247249484
v -48.22981644 32.77083206 -0.7382903099
v -48.22981644 32.72916794 -0.7382903099
v -46.9411087 32.72916794 3.004387379
v -46.9411087 32.77083206 3.004387379
vn -0.4197323322 -0.8944048285 0.154482156
vn -0.6673339605 0.7071361542 0.2337175608
vn -0.847204268 -0.4472434521 0.286737144
vn -0.6733219028 0.7070629001 0.21610111
vn 0.6673339605 0.7071361542 -0.2337175608
vn 0.4197323322 -0.8944048285 -0.154482156
vn 0.8472043872 -0.4472432733 -0.2867371738
vn 0.673322022 0.7070627213 -0.2161011696
f 1//1 2//2 3//3 
f 3//3 2//2 4//4 
f 5//5 6//6 4//4 
f 4//4 6//6 3//3 
f 7//7 1//1 6//6 
f 6//6 1//1 3//3 
f 8//8 5//5 2//2 
f 2//2 5//5 4//4 
f 2//2 1//1 8//8 
f 8//8 1//1 7//7 
f 8//8 7//7 5//5 
f 5//5 7//7 6//6 
