v -84.74641418 32.72916794 -106.6622009
v -84.74641418 32.77083206 -106.6622009
v -86.0351181 32.72916794 -110.4048767
v -86.0351181 32.77083206 -110.4048767
v -85.99571991 32.77083206 -110.4184418
v -85.99571991 32.72916794 -110.4184418
v -84.70701599 32.72916794 -106.675766
v -84.70701599 32.77083206 -106.675766
vn -0.4197331965 -0.8944044709 0.1544820964
vn -0.667334795 0.7071353793 0.2337173074
vn -0.8472049236 -0.4472426176 0.2867366374
vn -0.6733227968 0.7070621252 0.2161008716
vn 0.667334795 0.7071353793 -0.2337173074
vn 0.4197331965 -0.8944044709 -0.1544820964
vn 0.8472049236 -0.4472426176 -0.2867366374
vn 0.6733227968 0.7070621252 -0.2161008716
f 1//1 2//2 3//3 
f 3//3 2//2 4//4 
f 5//5 6//6 4//4 
f 4//4 6//6 3//3 
f 7//7 1//1 6//6 
f 6//6 1//1 3//3 
f 8//8 5//5 2//2 
f 2//2 5//5 4//4 
f 2//2 1//1 8//8 
f 8//8 1//1 7//7 
f 8//8 7//7 5//5 
f 5//5 7//7 6//6 
