v -69.11914062 32.72916794 -61.27730942
v -69.11914062 32.77083206 -61.27730942
v -70.40785217 32.72916794 -65.01998901
v -70.40785217 32.77083206 -65.01998901
v -70.36845398 32.77083206 -65.03355408
v -70.36845398 32.72916794 -65.03355408
v -69.07974243 32.72916794 -61.29087448
v -69.07974243 32.77083206 -61.29087448
vn -0.4197329879 -0.8944044709 0.1544827223
vn -0.667334497 0.7071353793 0.2337183058
vn -0.8472044468 -0.4472426176 0.2867379189
vn -0.6733224392 0.7070621252 0.2161018997
vn 0.667334497 0.7071353793 -0.2337183058
vn 0.4197329879 -0.8944044709 -0.1544827223
vn 0.8472044468 -0.4472426176 -0.2867379189
vn 0.6733224392 0.7070621252 -0.2161018997
f 1//1 2//2 3//3 
f 3//3 2//2 4//4 
f 5//5 6//6 4//4 
f 4//4 6//6 3//3 
f 7//7 1//1 6//6 
f 6//6 1//1 3//3 
f 8//8 5//5 2//2 
f 2//2 5//5 4//4 
f 2//2 1//1 8//8 
f 8//8 1//1 7//7 
f 8//8 7//7 5//5 
f 5//5 7//7 6//6 
