v -51.33664703 46.72916794 -28.97477341
v -51.33664703 46.77083206 -28.97477341
v -52.22707748 46.72916794 -32.83165359
v -52.22707748 46.77083206 -32.83165359
v -52.18647766 46.77083206 -32.84102631
v -52.18647766 46.72916794 -32.84102631
v -51.29604721 46.72916794 -28.98414612
v -51.29604721 46.77083206 -28.98414612
vn -0.4335850775 -0.8944026828 0.1097627655
vn -0.6881126165 0.707131803 0.1626826376
vn -0.8725376129 -0.4472389817 0.1966097504
vn -0.6922264099 0.7070584893 0.1445368975
vn 0.6881126165 0.707131803 -0.1626826376
vn 0.4335850775 -0.8944026828 -0.1097627655
vn 0.8725376129 -0.4472389817 -0.1966097504
vn 0.6922264099 0.7070584893 -0.1445368975
f 1//1 2//2 3//3 
f 3//3 2//2 4//4 
f 5//5 6//6 4//4 
f 4//4 6//6 3//3 
f 7//7 1//1 6//6 
f 6//6 1//1 3//3 
f 8//8 5//5 2//2 
f 2//2 5//5 4//4 
f 2//2 1//1 8//8 
f 8//8 1//1 7//7 
f 8//8 7//7 5//5 
f 5//5 7//7 6//6 
