v -54.79414368 32.72916794 -19.67449379
v -54.79414368 32.77083206 -19.67449379
v -56.08285141 32.72916794 -23.41717148
v -56.08285141 32.77083206 -23.41717148
v -56.04345322 32.77083206 -23.43073654
v -56.04345322 32.72916794 -23.43073654
v -54.75474548 32.72916794 -19.68805885
v -54.75474548 32.77083206 -19.68805885
vn -0.4197330773 -0.8944044709 0.1544824094
vn -0.6673346162 0.7071353793 0.2337177992
vn -0.8472046852 -0.4472426176 0.286737293
vn -0.673322618 0.7070621252 0.2161013782
vn 0.6673346162 0.7071353793 -0.2337177992
vn 0.4197330773 -0.8944044709 -0.1544824094
vn 0.8472046852 -0.4472426176 -0.286737293
vn 0.673322618 0.7070621252 -0.2161013782
f 1//1 2//2 3//3 
f 3//3 2//2 4//4 
f 5//5 6//6 4//4 
f 4//4 6//6 3//3 
f 7//7 1//1 6//6 
f 6//6 1//1 3//3 
f 8//8 5//5 2//2 
f 2//2 5//5 4//4 
f 2//2 1//1 8//8 
f 8//8 1//1 7//7 
f 8//8 7//7 5//5 
f 5//5 7//7 6//6 
