v -41.43880081 46.72916794 13.89750957
v -41.43880081 46.77083206 13.89750957
v -42.32923126 46.72916794 10.04062748
v -42.32923126 46.77083206 10.04062748
v -42.28863144 46.77083206 10.03125477
v -42.28863144 46.72916794 10.03125477
v -41.39820099 46.72916794 13.88813591
v -41.39820099 46.77083206 13.88813591
vn -0.4335840344 -0.8944031596 0.1097625121
vn -0.6881117225 0.7071326971 0.1626823694
vn -0.8725376725 -0.4472389817 0.196609661
vn -0.6922264099 0.7070584893 0.1445368379
vn 0.6881116629 0.7071327567 -0.1626823843
vn 0.4335841238 -0.8944031596 -0.1097625047
vn 0.8725367785 -0.4472407699 -0.1966094822
vn 0.6922248006 0.7070601583 -0.1445364654
f 1//1 2//2 3//3 
f 3//3 2//2 4//4 
f 5//5 6//6 4//4 
f 4//4 6//6 3//3 
f 7//7 1//1 6//6 
f 6//6 1//1 3//3 
f 8//8 5//5 2//2 
f 2//2 5//5 4//4 
f 2//2 1//1 8//8 
f 8//8 1//1 7//7 
f 8//8 7//7 5//5 
f 5//5 7//7 6//6 
