v -63.92453003 46.72916794 -83.49890137
v -63.92453003 55.66666794 -83.49890137
v -63.93390656 46.72916794 -83.53949738
v -63.93390656 55.66666794 -83.53949738
v -63.88393402 55.66666794 -83.50827026
v -63.89330673 55.66666794 -83.5488739
v -63.89330673 46.72916794 -83.5488739
v -63.88393402 46.72916794 -83.50827026
vn -0.2346064746 -0.004169869237 0.9720814824
vn -0.7708659172 0.00416976586 0.6369838119
vn -0.9721158147 -0.002084979555 -0.2344919294
vn -0.6369879842 0.002084868029 -0.770870924
vn 0.6369594336 0.002085099695 0.7708945274
vn 0.7709192038 0.004169611726 -0.63691926
vn 0.2345197648 -0.004169783089 -0.9721024036
vn 0.9721109867 -0.002084850799 0.2345119566
f 1//1 2//2 3//3 
f 3//3 2//2 4//4 
f 5//5 6//6 2//2 
f 2//2 6//6 4//4 
f 3//3 4//4 7//7 
f 7//7 4//4 6//6 
f 8//8 5//5 1//1 
f 1//1 5//5 2//2 
f 8//8 1//1 7//7 
f 7//7 1//1 3//3 
f 7//7 6//6 8//8 
f 8//8 6//6 5//5 
