v -56.09641647 32.72916794 -23.45656776
v -56.09641647 32.77083206 -23.45656776
v -57.38512421 32.72916794 -27.19924545
v -57.38512421 32.77083206 -27.19924545
v -57.34572601 32.77083206 -27.21281052
v -57.34572601 32.72916794 -27.21281052
v -56.05701828 32.72916794 -23.47013283
v -56.05701828 32.77083206 -23.47013283
vn -0.4197330773 -0.8944044709 0.1544824094
vn -0.6673346162 0.7071353793 0.2337177992
vn -0.8472046852 -0.4472426176 0.286737293
vn -0.673322618 0.7070621252 0.2161013782
vn 0.6673346162 0.7071353793 -0.2337177992
vn 0.4197330773 -0.8944044709 -0.1544824094
vn 0.8472046852 -0.4472426176 -0.286737293
vn 0.673322618 0.7070621252 -0.2161013782
f 1//1 2//2 3//3 
f 3//3 2//2 4//4 
f 5//5 6//6 4//4 
f 4//4 6//6 3//3 
f 7//7 1//1 6//6 
f 6//6 1//1 3//3 
f 8//8 5//5 2//2 
f 2//2 5//5 4//4 
f 2//2 1//1 8//8 
f 8//8 1//1 7//7 
f 8//8 7//7 5//5 
f 5//5 7//7 6//6 
