v -42.33860397 46.72916794 10.00002861
v -42.33860397 46.77083206 10.00002861
v -43.22903442 46.72916794 6.143147469
v -43.22903442 46.77083206 6.143147469
v -43.1884346 46.77083206 6.133774757
v -43.1884346 46.72916794 6.133774757
v -42.29800415 46.72916794 9.990655899
v -42.29800415 46.77083206 9.990655899
vn -0.4335850775 -0.8944026828 0.1097627431
vn -0.6881126165 0.707131803 0.1626825929
vn -0.8725376129 -0.4472389817 0.1966097057
vn -0.6922264099 0.7070584893 0.1445368677
vn 0.6881126165 0.707131803 -0.1626825929
vn 0.4335850775 -0.8944026828 -0.1097627431
vn 0.8725376129 -0.4472389817 -0.1966097057
vn 0.6922264099 0.7070584893 -0.1445368677
f 1//1 2//2 3//3 
f 3//3 2//2 4//4 
f 5//5 6//6 4//4 
f 4//4 6//6 3//3 
f 7//7 1//1 6//6 
f 6//6 1//1 3//3 
f 8//8 5//5 2//2 
f 2//2 5//5 4//4 
f 2//2 1//1 8//8 
f 8//8 1//1 7//7 
f 8//8 7//7 5//5 
f 5//5 7//7 6//6 
