v -75.63050079 32.72916794 -80.18768311
v -75.63050079 32.77083206 -80.18768311
v -76.91921234 32.72916794 -83.93035889
v -76.91921234 32.77083206 -83.93035889
v -76.87981415 32.77083206 -83.94392395
v -76.87981415 32.72916794 -83.94392395
v -75.59111023 32.72916794 -80.20124817
v -75.59111023 32.77083206 -80.20124817
vn -0.419762224 -0.8943891525 0.1544919163
vn -0.6673634648 0.7071048021 0.2337280214
vn -0.8472043872 -0.4472426176 0.2867381871
vn -0.6733223796 0.7070621252 0.2161020935
vn 0.667363584 0.7071049213 -0.2337273806
vn 0.4197621644 -0.8943890333 -0.1544927508
vn 0.8472340107 -0.4471805692 -0.2867473662
vn 0.6733806729 0.707000494 -0.2161221653
f 1//1 2//2 3//3 
f 3//3 2//2 4//4 
f 5//5 6//6 4//4 
f 4//4 6//6 3//3 
f 7//7 1//1 6//6 
f 6//6 1//1 3//3 
f 8//8 5//5 2//2 
f 2//2 5//5 4//4 
f 2//2 1//1 8//8 
f 8//8 1//1 7//7 
f 8//8 7//7 5//5 
f 5//5 7//7 6//6 
