v -63.02472687 46.75 -79.60141754
v -63.02472687 55.66666794 -79.60141754
v -63.03409958 46.75 -79.64201355
v -63.03409958 55.66666794 -79.64201355
v -62.98412704 55.66666794 -79.61079407
v -62.99350357 55.66666794 -79.65139008
v -62.99350357 46.75 -79.65139008
v -62.98412704 46.75 -79.61079407
vn -0.2344423681 -0.004179318435 0.9721210599
vn -0.7708527446 0.004179593641 0.6369996667
vn -0.9721065164 -0.002089601243 -0.2345306128
vn -0.6370080709 0.002089575399 -0.7708542943
vn 0.6369879842 0.002089738846 0.770870924
vn 0.7708326578 0.004179484677 -0.6370239854
vn 0.2344516963 -0.004179484677 -0.9721187949
vn 0.9721158147 -0.002089850837 0.2344919294
f 1//1 2//2 3//3 
f 3//3 2//2 4//4 
f 5//5 6//6 2//2 
f 2//2 6//6 4//4 
f 3//3 4//4 7//7 
f 7//7 4//4 6//6 
f 8//8 5//5 1//1 
f 1//1 5//5 2//2 
f 8//8 1//1 7//7 
f 7//7 1//1 3//3 
f 7//7 6//6 8//8 
f 8//8 6//6 5//5 
