v -69.10557556 32.75 -61.23791504
v -69.10557556 38.66666794 -61.23791504
v -69.11914062 32.75 -61.27730942
v -69.11914062 38.66666794 -61.27730942
v -69.06617737 38.66666794 -61.2514801
v -69.07974243 38.66666794 -61.29087448
v -69.07974243 32.75 -61.29087448
v -69.06617737 32.75 -61.2514801
vn -0.1316274107 -0.006298358552 0.9912792444
vn -0.7000567317 0.006298685446 0.7140594721
vn -0.9912872314 -0.003149464726 -0.13168028
vn -0.7140091062 0.003149301279 -0.7001293302
vn 0.7140091062 0.003149301279 0.7001293302
vn 0.7000567317 0.006298685446 -0.7140594721
vn 0.1316274107 -0.006298358552 -0.9912792444
vn 0.9912872314 -0.003149464726 0.13168028
f 1//1 2//2 3//3 
f 3//3 2//2 4//4 
f 5//5 6//6 2//2 
f 2//2 6//6 4//4 
f 3//3 4//4 7//7 
f 7//7 4//4 6//6 
f 8//8 5//5 1//1 
f 1//1 5//5 2//2 
f 8//8 1//1 7//7 
f 7//7 1//1 3//3 
f 7//7 6//6 8//8 
f 8//8 6//6 5//5 
