v -70.22315979 46.72916794 -110.7812576
v -70.22315979 55.66666794 -110.7812576
v -70.23253632 46.72916794 -110.8218613
v -70.23253632 55.66666794 -110.8218613
v -70.18256378 55.66666794 -110.7906342
v -70.19193268 55.66666794 -110.8312302
v -70.19193268 46.72916794 -110.8312302
v -70.18256378 46.72916794 -110.7906342
vn -0.2345290929 -0.004170092288 0.9721001387
vn -0.770899117 0.004169645719 0.6369436383
vn -0.9721109867 -0.002085265703 -0.2345119566
vn -0.6368991137 0.002085317159 -0.7709443569
vn 0.6369879842 0.002084596083 0.770870924
vn 0.7709060907 0.004170126747 -0.6369351745
vn 0.2345878035 -0.004169680178 -0.9720860124
vn 0.9720878005 -0.002084647771 0.2346080095
f 1//1 2//2 3//3 
f 3//3 2//2 4//4 
f 5//5 6//6 2//2 
f 2//2 6//6 4//4 
f 3//3 4//4 7//7 
f 7//7 4//4 6//6 
f 8//8 5//5 1//1 
f 1//1 5//5 2//2 
f 8//8 1//1 7//7 
f 7//7 1//1 3//3 
f 7//7 6//6 8//8 
f 8//8 6//6 5//5 
