v -45.03801727 46.72916794 -1.692411661
v -45.03801727 46.77083206 -1.692411661
v -45.92844772 46.72916794 -5.549293041
v -45.92844772 46.77083206 -5.549293041
v -45.8878479 46.77083206 -5.558666229
v -45.8878479 46.72916794 -5.558666229
v -44.99741745 46.72916794 -1.701784611
v -44.99741745 46.77083206 -1.701784611
vn -0.4335843623 -0.8944030404 0.1097625643
vn -0.6881119013 0.7071325183 0.162682429
vn -0.8725371957 -0.4472398758 0.1966095865
vn -0.6922256351 0.7070593238 0.1445366591
vn 0.6881119609 0.7071325183 -0.162682429
vn 0.4335843325 -0.8944030404 -0.1097625643
vn 0.8725374341 -0.4472394288 -0.1966096312
vn 0.6922259927 0.7070589066 -0.1445367485
f 1//1 2//2 3//3 
f 3//3 2//2 4//4 
f 5//5 6//6 4//4 
f 4//4 6//6 3//3 
f 7//7 1//1 6//6 
f 6//6 1//1 3//3 
f 8//8 5//5 2//2 
f 2//2 5//5 4//4 
f 2//2 1//1 8//8 
f 8//8 1//1 7//7 
f 8//8 7//7 5//5 
f 5//5 7//7 6//6 
