v -66.51459503 32.72916794 -53.71316147
v -66.51459503 32.77083206 -53.71316147
v -67.80330658 32.72916794 -57.45584106
v -67.80330658 32.77083206 -57.45584106
v -67.76390839 32.77083206 -57.46940613
v -67.76390839 32.72916794 -57.46940613
v -66.47519684 32.72916794 -53.72672653
v -66.47519684 32.77083206 -53.72672653
vn -0.4197329879 -0.8944044709 0.1544827223
vn -0.667334497 0.7071353793 0.2337183058
vn -0.8472044468 -0.4472426176 0.2867379189
vn -0.6733224392 0.7070621252 0.2161018997
vn 0.667334497 0.7071353793 -0.2337183058
vn 0.4197329879 -0.8944044709 -0.1544827223
vn 0.8472044468 -0.4472426176 -0.2867379189
vn 0.6733224392 0.7070621252 -0.2161018997
f 1//1 2//2 3//3 
f 3//3 2//2 4//4 
f 5//5 6//6 4//4 
f 4//4 6//6 3//3 
f 7//7 1//1 6//6 
f 6//6 1//1 3//3 
f 8//8 5//5 2//2 
f 2//2 5//5 4//4 
f 2//2 1//1 8//8 
f 8//8 1//1 7//7 
f 8//8 7//7 5//5 
f 5//5 7//7 6//6 
