v -61.22512054 46.75 -71.80645752
v -61.22512054 55.66666794 -71.80645752
v -61.23449326 46.75 -71.84705353
v -61.23449326 55.66666794 -71.84705353
v -61.18452072 55.66666794 -71.81583405
v -61.19389343 55.66666794 -71.85643005
v -61.19389343 46.75 -71.85643005
v -61.18452072 46.75 -71.81583405
vn -0.2344423681 -0.004179461859 0.9721210599
vn -0.7708527446 0.004179737065 0.6369996667
vn -0.9720971584 -0.002089767484 -0.2345693111
vn -0.6369678974 0.002089629881 -0.7708874941
vn 0.6369678974 0.002089629881 0.7708874941
vn 0.7708527446 0.004179737065 -0.6369996667
vn 0.2344423681 -0.004179461859 -0.9721210599
vn 0.9720971584 -0.002089767484 0.2345693111
f 1//1 2//2 3//3 
f 3//3 2//2 4//4 
f 5//5 6//6 2//2 
f 2//2 6//6 4//4 
f 3//3 4//4 7//7 
f 7//7 4//4 6//6 
f 8//8 5//5 1//1 
f 1//1 5//5 2//2 
f 8//8 1//1 7//7 
f 7//7 1//1 3//3 
f 7//7 6//6 8//8 
f 8//8 6//6 5//5 
