v -67.89746094 32.72916794 121.8325424
v -67.89746094 38.66666794 121.8325424
v -67.87789917 32.72916794 121.7957535
v -67.87789917 38.66666794 121.7957535
v -67.84111023 38.66666794 121.8153152
v -67.860672 38.66666794 121.8521042
v -67.84111023 32.72916794 121.8153152
v -67.860672 32.72916794 121.8521042
vn -0.8147794008 -0.003138305387 0.5797626376
vn -0.9996810555 0.003138305387 -0.02505753748
vn -0.5797540545 -0.006276518106 -0.8147673607
vn 0.02505716681 0.006276518106 -0.9996663332
vn 0.9996810555 0.003138305387 0.02505753748
vn -0.02505716681 0.006276518106 0.9996663332
vn 0.8147794008 -0.003138305387 -0.5797626376
vn 0.5797540545 -0.006276518106 0.8147673607
f 1//1 2//2 3//3 
f 3//3 2//2 4//4 
f 5//5 4//4 6//6 
f 6//6 4//4 2//2 
f 3//3 4//4 7//7 
f 7//7 4//4 5//5 
f 8//8 6//6 1//1 
f 1//1 6//6 2//2 
f 1//1 3//3 8//8 
f 8//8 3//3 7//7 
f 7//7 5//5 8//8 
f 8//8 5//5 6//6 
