v -39.98477173 32.72916794 68.69287872
v -39.98477173 32.77083206 68.69287872
v -38.60966492 32.72916794 64.9810791
v -38.60966492 32.77083206 64.9810791
v -38.57059097 32.77083206 64.99555206
v -38.57059097 32.72916794 64.99555206
v -39.94569778 32.72916794 68.70735168
v -39.94569778 32.77083206 68.70735168
vn -0.6681316495 -0.7070635557 -0.2316488326
vn -0.8403306007 0.4472438395 -0.3062962592
vn -0.6617373228 -0.7071364522 -0.2491219193
vn -0.4160390198 0.8944048882 -0.1641690582
vn 0.8403306007 0.4472438395 0.3062962592
vn 0.6681316495 -0.7070635557 0.2316488326
vn 0.6617373228 -0.7071364522 0.2491219193
vn 0.4160390198 0.8944048882 0.1641690582
f 1//1 2//2 3//3 
f 3//3 2//2 4//4 
f 5//5 6//6 4//4 
f 4//4 6//6 3//3 
f 1//1 3//3 7//7 
f 7//7 3//3 6//6 
f 2//2 8//8 4//4 
f 4//4 8//8 5//5 
f 2//2 1//1 8//8 
f 8//8 1//1 7//7 
f 8//8 7//7 5//5 
f 5//5 7//7 6//6 
