v -37.93133545 32.72916794 29.5141201
v -37.93133545 32.77083206 29.5141201
v -39.1641655 32.72916794 25.75266647
v -39.1641655 32.77083206 25.75266647
v -39.12456894 32.77083206 25.73969078
v -39.12456894 32.72916794 25.73969078
v -37.89174271 32.72916794 29.50114441
v -37.89174271 32.77083206 29.50114441
vn -0.4219993651 -0.8943980336 0.148218289
vn -0.670753181 0.7071227431 0.2237578779
vn -0.8513793945 -0.4472455084 0.2740887105
vn -0.6764631867 0.707065165 0.2060495019
vn 0.6707532406 0.7071228027 -0.2237575501
vn 0.4219993353 -0.894397974 -0.1482187063
vn 0.8513943553 -0.4472143054 -0.2740930915
vn 0.6764926314 0.7070341706 -0.2060591578
f 1//1 2//2 3//3 
f 3//3 2//2 4//4 
f 5//5 6//6 4//4 
f 4//4 6//6 3//3 
f 7//7 1//1 6//6 
f 6//6 1//1 3//3 
f 8//8 5//5 2//2 
f 2//2 5//5 4//4 
f 2//2 1//1 8//8 
f 8//8 1//1 7//7 
f 8//8 7//7 5//5 
f 5//5 7//7 6//6 
