v -43.48493958 32.75 75.91926575
v -43.48493958 38.66666794 75.91926575
v -43.46537781 32.75 75.88246918
v -43.46537781 38.66666794 75.88246918
v -43.42858887 38.66666794 75.90203094
v -43.44815063 38.66666794 75.93881989
v -43.42858887 32.75 75.90203094
v -43.44815063 32.75 75.93881989
vn -0.8147518039 -0.003149803728 0.5798012614
vn -0.9996811152 0.003149335738 -0.02505548485
vn -0.5798627138 -0.006298256572 -0.8146898746
vn 0.02497532777 0.00629886752 -0.9996682405
vn 0.9996810555 0.003149355063 0.02505753562
vn -0.02489349246 0.006298880558 0.9996702671
vn 0.8147793412 -0.003149355063 -0.579762578
vn 0.5798083544 -0.006298555993 0.8147285581
f 1//1 2//2 3//3 
f 3//3 2//2 4//4 
f 5//5 4//4 6//6 
f 6//6 4//4 2//2 
f 3//3 4//4 7//7 
f 7//7 4//4 5//5 
f 8//8 6//6 1//1 
f 1//1 6//6 2//2 
f 1//1 3//3 8//8 
f 8//8 3//3 7//7 
f 7//7 5//5 8//8 
f 8//8 5//5 6//6 
