v -37.88011169 32.77083206 29.54113007
v -37.88011169 32.72916794 29.54113007
v -37.92048645 32.77083206 29.55141449
v -37.92048645 32.72916794 29.55141449
v -36.90306091 32.72916794 33.3769722
v -36.94378662 32.72916794 33.3859024
v -36.90306091 32.77083206 33.3769722
v -36.94378662 32.77083206 33.3859024
vn 0.6843413115 0.7070632577 -0.1781531572
vn 0.4310704768 -0.8943679929 -0.1195160747
vn -0.6888276339 0.7070274353 0.1600898057
vn -0.8679049611 -0.4472076893 0.2162088156
vn 0.867849648 -0.4473209679 -0.2161965817
vn -0.4311930239 -0.8943047523 0.1195472777
vn 0.6885374188 0.7073267698 -0.160015896
vn -0.6842808127 0.7071257234 0.1781375408
f 1//1 2//2 3//3 
f 3//3 2//2 4//4 
f 5//5 6//6 2//2 
f 2//2 6//6 4//4 
f 7//7 5//5 1//1 
f 1//1 5//5 2//2 
f 6//6 8//8 4//4 
f 4//4 8//8 3//3 
f 7//7 1//1 8//8 
f 8//8 1//1 3//3 
f 8//8 6//6 7//7 
f 7//7 6//6 5//5 
