v -37.47409058 32.72916794 61.15006256
v -37.47409058 38.77083206 61.15006256
v -37.46361542 32.72916794 61.10973358
v -37.46361542 38.77083206 61.10973358
v -37.42329025 38.77083206 61.12020874
v -37.4337616 38.77083206 61.16053772
v -37.42329025 32.72916794 61.12020874
v -37.4337616 32.72916794 61.16053772
vn -0.6577069163 -0.003084257711 0.7532676458
vn -0.9781261086 0.003084257711 0.2079899758
vn -0.7532771826 -0.006168249529 -0.657674253
vn -0.20800367 0.006168577354 -0.9781085849
vn 0.978117764 0.003083887277 -0.208029151
vn 0.2079953402 0.006168330088 0.978110373
vn 0.6577271819 -0.003084008582 -0.7532499433
vn 0.7532974482 -0.006168415304 0.6576510668
f 1//1 2//2 3//3 
f 3//3 2//2 4//4 
f 5//5 4//4 6//6 
f 6//6 4//4 2//2 
f 3//3 4//4 7//7 
f 7//7 4//4 5//5 
f 8//8 6//6 1//1 
f 1//1 6//6 2//2 
f 1//1 3//3 8//8 
f 8//8 3//3 7//7 
f 7//7 5//5 8//8 
f 8//8 5//5 6//6 
