v -35.55675888 38.77083206 81.29914093
v -35.55675888 38.75 81.29914093
v -35.55675888 38.77083206 85.29914093
v -35.55675888 38.75 85.29914093
v -35.51509476 38.75 85.29914093
v -35.51509476 38.77083206 85.29914093
v -35.51509476 38.77083206 81.29914093
v -35.51509476 38.75 81.29914093
vn -0.4471941888 0.8943883777 -0.009315976873
vn -0.4472123682 -0.8944247365 -0.00232908898
vn -0.4472123682 0.8944247365 0.00232908898
vn -0.4471941888 -0.8943883777 0.009315976873
vn 0.4472123682 -0.8944247365 0.00232908898
vn 0.4471941888 0.8943883777 0.009315976873
vn 0.4472123682 0.8944247365 -0.00232908898
vn 0.4471941888 -0.8943883777 -0.009315976873
f 1//1 2//2 3//3 
f 3//3 2//2 4//4 
f 5//5 6//6 4//4 
f 4//4 6//6 3//3 
f 1//1 3//3 7//7 
f 7//7 3//3 6//6 
f 8//8 5//5 2//2 
f 2//2 5//5 4//4 
f 2//2 1//1 8//8 
f 8//8 1//1 7//7 
f 8//8 7//7 5//5 
f 5//5 7//7 6//6 
