v -79.1452179 32.75 142.986496
v -79.10842896 32.75 143.0060577
v -77.28689575 32.75 139.4914856
v -77.25010681 32.75 139.5110474
v -77.28689575 32.72916794 139.4914856
v -77.25010681 32.72916794 139.5110474
v -79.1452179 32.72916794 142.986496
v -79.10842896 32.72916794 143.0060577
vn -0.6260645986 0.7071211934 -0.3286682367
vn 0.2117356211 0.9701330066 0.1183638424
vn -0.2117356211 0.9701330066 -0.1183638424
vn 0.6260645986 0.7071211934 0.3286682367
vn -0.3937431872 -0.8944345117 -0.2120217383
vn 0.3992515504 -0.8943972588 0.2016227841
vn -0.3992515504 -0.8943972588 -0.2016227841
vn 0.3937431872 -0.8944345117 0.2120217383
f 1//1 2//2 3//3 
f 3//3 2//2 4//4 
f 5//5 3//3 6//6 
f 6//6 3//3 4//4 
f 7//7 1//1 5//5 
f 5//5 1//1 3//3 
f 2//2 8//8 4//4 
f 4//4 8//8 6//6 
f 8//8 2//2 7//7 
f 7//7 2//2 1//1 
f 7//7 5//5 8//8 
f 8//8 5//5 6//6 
