v -35.9821167 32.72916794 53.25986099
v -35.9821167 32.77083206 53.25986099
v -35.64110565 32.72916794 49.31624603
v -35.64110565 32.77083206 49.31624603
v -35.59959412 32.77083206 49.31983566
v -35.59959412 32.72916794 49.31983566
v -35.94060516 32.72916794 53.26345062
v -35.94060516 32.77083206 53.26345062
vn -0.7056624889 -0.7070481777 -0.046079956
vn -0.8914875984 0.4472286105 -0.07236348838
vn -0.7041327357 -0.7071216106 -0.06462290138
vn -0.4447002411 0.8943975568 -0.04790325463
vn 0.8914875984 0.4472286105 0.07236348838
vn 0.7056624889 -0.7070481777 0.046079956
vn 0.7041327357 -0.7071216106 0.06462290138
vn 0.4447002411 0.8943975568 0.04790325463
f 1//1 2//2 3//3 
f 3//3 2//2 4//4 
f 5//5 6//6 4//4 
f 4//4 6//6 3//3 
f 1//1 3//3 7//7 
f 7//7 3//3 6//6 
f 2//2 8//8 4//4 
f 4//4 8//8 5//5 
f 2//2 1//1 8//8 
f 8//8 1//1 7//7 
f 8//8 7//7 5//5 
f 5//5 7//7 6//6 
