v -58.50803375 32.75 104.1735916
v -58.50803375 38.66666794 104.1735916
v -58.48847198 32.75 104.1368027
v -58.48847198 38.66666794 104.1368027
v -58.45168304 38.66666794 104.1563644
v -58.47124481 38.66666794 104.1931534
v -58.45168304 32.75 104.1563644
v -58.47124481 32.75 104.1931534
vn -0.8147793412 -0.003149355063 0.579762578
vn -0.9996810555 0.003149355063 -0.02505753562
vn -0.5797539949 -0.006298616529 -0.8147672415
vn 0.02505716309 0.006298616529 -0.9996661544
vn 0.9996810555 0.003149355063 0.02505753562
vn -0.02505716309 0.006298616529 0.9996661544
vn 0.8147793412 -0.003149355063 -0.579762578
vn 0.5797539949 -0.006298616529 0.8147672415
f 1//1 2//2 3//3 
f 3//3 2//2 4//4 
f 5//5 4//4 6//6 
f 6//6 4//4 2//2 
f 3//3 4//4 7//7 
f 7//7 4//4 5//5 
f 8//8 6//6 1//1 
f 1//1 6//6 2//2 
f 1//1 3//3 8//8 
f 8//8 3//3 7//7 
f 7//7 5//5 8//8 
f 8//8 5//5 6//6 
