v -84.28993988 32.72916794 152.6623077
v -84.28993988 32.77083206 152.6623077
v -82.92055511 32.72916794 150.0868683
v -82.92055511 32.77083206 150.0868683
v -82.88376617 32.77083206 150.1064301
v -82.88376617 32.72916794 150.1064301
v -84.25315094 32.72916794 152.6818695
v -84.25315094 32.77083206 152.6818695
vn -0.6336758733 -0.7069817185 -0.3140569031
vn -0.792706728 0.4472239912 -0.4142544866
vn -0.6219423413 -0.7071171403 -0.3364121318
vn -0.3888190985 0.894364059 -0.2212072313
vn 0.792706728 0.4472239912 0.4142544866
vn 0.6336758733 -0.7069817185 0.3140569031
vn 0.6219423413 -0.7071171403 0.3364121318
vn 0.3888190985 0.894364059 0.2212072313
f 1//1 2//2 3//3 
f 3//3 2//2 4//4 
f 5//5 6//6 4//4 
f 4//4 6//6 3//3 
f 1//1 3//3 7//7 
f 7//7 3//3 6//6 
f 2//2 8//8 4//4 
f 4//4 8//8 5//5 
f 2//2 1//1 8//8 
f 8//8 1//1 7//7 
f 8//8 7//7 5//5 
f 5//5 7//7 6//6 
