v -36.59155273 32.72916794 57.21028519
v -36.59155273 32.77083206 57.21028519
v -35.98675919 32.72916794 53.29842758
v -35.98675919 32.77083206 53.29842758
v -35.94558334 32.77083206 53.30479431
v -35.94558334 32.72916794 53.30479431
v -36.55037689 32.72916794 57.21665192
v -36.55037689 32.77083206 57.21665192
vn -0.7009926438 -0.7070370913 -0.09331618994
vn -0.8846305013 0.4472174644 -0.1320052892
vn -0.6982222795 -0.707110703 -0.1117144227
vn -0.4404958785 0.8943920732 -0.07762888074
vn 0.8846305013 0.4472174644 0.1320052892
vn 0.7009926438 -0.7070370913 0.09331618994
vn 0.6982222795 -0.707110703 0.1117144227
vn 0.4404958785 0.8943920732 0.07762888074
f 1//1 2//2 3//3 
f 3//3 2//2 4//4 
f 5//5 6//6 4//4 
f 4//4 6//6 3//3 
f 1//1 3//3 7//7 
f 7//7 3//3 6//6 
f 2//2 8//8 4//4 
f 4//4 8//8 5//5 
f 2//2 1//1 8//8 
f 8//8 1//1 7//7 
f 8//8 7//7 5//5 
f 5//5 7//7 6//6 
