v -58.48847198 38.64583206 104.1368027
v -58.48847198 38.66666794 104.1368027
v -56.63014603 38.64583206 100.6417999
v -56.63014603 38.66666794 100.6417999
v -56.59335709 38.66666794 100.6613617
v -56.59335709 38.64583206 100.6613617
v -58.45168304 38.64583206 104.1563644
v -58.45168304 38.66666794 104.1563644
vn -0.399309665 -0.8943644762 -0.2016529888
vn -0.6261212826 0.7070564628 -0.32869941
vn -0.3938004971 -0.8944017291 -0.2120534927
vn -0.2117719054 0.9701225162 -0.118384622
vn 0.6261212826 0.7070564628 0.32869941
vn 0.399309665 -0.8943644762 0.2016529888
vn 0.3938004971 -0.8944017291 0.2120534927
vn 0.2117719054 0.9701225162 0.118384622
f 1//1 2//2 3//3 
f 3//3 2//2 4//4 
f 5//5 6//6 4//4 
f 4//4 6//6 3//3 
f 1//1 3//3 7//7 
f 7//7 3//3 6//6 
f 2//2 8//8 4//4 
f 4//4 8//8 5//5 
f 2//2 1//1 8//8 
f 8//8 1//1 7//7 
f 8//8 7//7 5//5 
f 5//5 7//7 6//6 
