v -81.02310181 38.64583206 146.51828
v -81.02310181 38.66666794 146.51828
v -79.16477966 38.64583206 143.0232849
v -79.16477966 38.66666794 143.0232849
v -79.12799072 38.66666794 143.0428467
v -79.12799072 38.64583206 143.0428467
v -80.98631287 38.64583206 146.5378418
v -80.98631287 38.66666794 146.5378418
vn -0.399309665 -0.8943644762 -0.2016530037
vn -0.6261212826 0.7070564628 -0.3286994398
vn -0.3938004971 -0.8944017291 -0.2120535076
vn -0.2117719054 0.9701225162 -0.1183846444
vn 0.6261212826 0.7070564628 0.3286994398
vn 0.399309665 -0.8943644762 0.2016530037
vn 0.3938004971 -0.8944017291 0.2120535076
vn 0.2117719054 0.9701225162 0.1183846444
f 1//1 2//2 3//3 
f 3//3 2//2 4//4 
f 5//5 6//6 4//4 
f 4//4 6//6 3//3 
f 1//1 3//3 7//7 
f 7//7 3//3 6//6 
f 2//2 8//8 4//4 
f 4//4 8//8 5//5 
f 2//2 1//1 8//8 
f 8//8 1//1 7//7 
f 8//8 7//7 5//5 
f 5//5 7//7 6//6 
