v -43.46537781 38.64583206 75.88246918
v -43.46537781 38.66666794 75.88246918
v -41.62634277 38.64583206 72.42375183
v -41.62634277 38.66666794 72.42375183
v -41.58955383 38.66666794 72.4433136
v -41.58955383 38.64583206 72.4433136
v -43.42858887 38.64583206 75.90203094
v -43.42858887 38.66666794 75.90203094
vn -0.3993555605 -0.8943636417 -0.2015658021
vn -0.6261394024 0.7070563436 -0.3286652267
vn -0.3937887847 -0.8944016695 -0.2120754868
vn -0.2117466331 0.9701222777 -0.1184320077
vn 0.6261394024 0.7070563436 0.3286652267
vn 0.3993555605 -0.8943636417 0.2015658021
vn 0.3937887847 -0.8944016695 0.2120754868
vn 0.2117466331 0.9701222777 0.1184320077
f 1//1 2//2 3//3 
f 3//3 2//2 4//4 
f 5//5 6//6 4//4 
f 4//4 6//6 3//3 
f 1//1 3//3 7//7 
f 7//7 3//3 6//6 
f 2//2 8//8 4//4 
f 4//4 8//8 5//5 
f 2//2 1//1 8//8 
f 8//8 1//1 7//7 
f 8//8 7//7 5//5 
f 5//5 7//7 6//6 
