v -54.73270035 38.64583206 97.0732193
v -54.73270035 38.66666794 97.0732193
v -52.87437439 38.64583206 93.57822418
v -52.87437439 38.66666794 93.57822418
v -52.83758545 38.66666794 93.59778595
v -52.83758545 38.64583206 93.59778595
v -54.69591141 38.64583206 97.09278107
v -54.69591141 38.66666794 97.09278107
vn -0.3993094862 -0.8943645358 -0.2016533315
vn -0.6261209846 0.7070564628 -0.3286999762
vn -0.3938003182 -0.8944017291 -0.2120538503
vn -0.2117718011 0.9701225162 -0.1183848232
vn 0.6261209846 0.7070564628 0.3286999762
vn 0.3993094862 -0.8943645358 0.2016533315
vn 0.3938003182 -0.8944017291 0.2120538503
vn 0.2117718011 0.9701225162 0.1183848232
f 1//1 2//2 3//3 
f 3//3 2//2 4//4 
f 5//5 6//6 4//4 
f 4//4 6//6 3//3 
f 1//1 3//3 7//7 
f 7//7 3//3 6//6 
f 2//2 8//8 4//4 
f 4//4 8//8 5//5 
f 2//2 1//1 8//8 
f 8//8 1//1 7//7 
f 8//8 7//7 5//5 
f 5//5 7//7 6//6 
