v -66.58803558 38.75 -95.2210083
v -66.58803558 46.75 -95.2210083
v -66.62863159 38.75 -95.2116394
v -66.62863159 46.75 -95.2116394
v -66.59272003 46.75 -95.24131012
v -66.63331604 46.75 -95.23194122
v -66.63331604 38.75 -95.23194122
v -66.59272003 38.75 -95.24131012
vn 0.84803617 -0.003682758426 0.5299255252
vn 0.4545163512 0.002526586875 0.8907347918
vn -0.01820947416 -0.001263320912 0.999833405
vn -0.530079484 0.001841464313 0.8479459286
vn 0.530079484 0.001841464313 -0.8479459286
vn -0.4545163512 0.002526586875 -0.8907347918
vn -0.84803617 -0.003682758426 -0.5299255252
vn 0.01820947416 -0.001263320912 -0.999833405
f 1//1 2//2 3//3 
f 3//3 2//2 4//4 
f 5//5 6//6 2//2 
f 2//2 6//6 4//4 
f 3//3 4//4 7//7 
f 7//7 4//4 6//6 
f 8//8 5//5 1//1 
f 1//1 5//5 2//2 
f 8//8 1//1 7//7 
f 7//7 1//1 3//3 
f 7//7 6//6 8//8 
f 8//8 6//6 5//5 
