v -63.03409958 46.72916794 -79.64201355
v -63.03409958 46.77083206 -79.64201355
v -63.92453003 46.72916794 -83.49890137
v -63.92453003 46.77083206 -83.49890137
v -63.88393402 46.77083206 -83.50827026
v -63.88393402 46.72916794 -83.50827026
v -62.99350357 46.72916794 -79.65139008
v -62.99350357 46.77083206 -79.65139008
vn -0.4336157143 -0.8943869472 0.1097696647
vn -0.6881435513 0.707100153 0.1626893729
vn -0.8725566864 -0.4471998215 0.1966141909
vn -0.6922636032 0.7070201635 0.144546032
vn 0.6881431937 0.7071005106 -0.1626894474
vn 0.4336164296 -0.8943866491 -0.1097696275
vn 0.8725496531 -0.447214216 -0.1966127902
vn 0.6922507286 0.7070333958 -0.1445430666
f 1//1 2//2 3//3 
f 3//3 2//2 4//4 
f 5//5 6//6 4//4 
f 4//4 6//6 3//3 
f 7//7 1//1 6//6 
f 6//6 1//1 3//3 
f 8//8 5//5 2//2 
f 2//2 5//5 4//4 
f 2//2 1//1 8//8 
f 8//8 1//1 7//7 
f 8//8 7//7 5//5 
f 5//5 7//7 6//6 
