v -61.22512054 38.75 -71.80645752
v -61.22512054 46.75 -71.80645752
v -61.22980499 38.75 -71.82675934
v -61.22980499 46.75 -71.82675934
v -61.18920517 46.75 -71.83612823
v -61.18452072 46.75 -71.81583405
v -61.18920517 38.75 -71.83612823
v -61.18452072 38.75 -71.81583405
vn -0.01803027838 -0.00126337749 0.9998366237
vn -0.5299572945 0.00184172974 0.8480223417
vn -0.8480070829 -0.003682379378 -0.5299720764
vn -0.4544804096 0.002526213648 -0.89075315
vn 0.529864192 0.001841123216 -0.8480805159
vn 0.4545508623 0.002526111668 0.8907172084
vn 0.01811906882 -0.001262872713 -0.9998350143
vn 0.8479707241 -0.003682783572 0.5300302505
f 1//1 2//2 3//3 
f 3//3 2//2 4//4 
f 5//5 4//4 6//6 
f 6//6 4//4 2//2 
f 3//3 4//4 7//7 
f 7//7 4//4 5//5 
f 8//8 6//6 1//1 
f 1//1 6//6 2//2 
f 1//1 3//3 8//8 
f 8//8 3//3 7//7 
f 7//7 5//5 8//8 
f 8//8 5//5 6//6 
