v -52.2364502 55.64583206 -32.87225342
v -52.2364502 55.66666794 -32.87225342
v -53.12688065 55.64583206 -36.72913361
v -53.12688065 55.66666794 -36.72913361
v -53.08628082 55.66666794 -36.73851013
v -53.08628082 55.64583206 -36.73851013
v -52.19585037 55.64583206 -32.88162613
v -52.19585037 55.66666794 -32.88162613
vn -0.2351872027 -0.9701248407 0.05953802541
vn -0.435251385 0.8944090009 0.1029015332
vn -0.6898431182 -0.7070742249 0.1554429382
vn -0.4378779829 0.8943733573 0.09142876416
vn 0.4352515638 0.8944089413 -0.1029015258
vn 0.2351869941 -0.9701249003 -0.05953802913
vn 0.6898500919 -0.707067132 -0.1554444283
vn 0.4378845096 0.8943699598 -0.09143021703
f 1//1 2//2 3//3 
f 3//3 2//2 4//4 
f 5//5 6//6 4//4 
f 4//4 6//6 3//3 
f 7//7 1//1 6//6 
f 6//6 1//1 3//3 
f 8//8 5//5 2//2 
f 2//2 5//5 4//4 
f 2//2 1//1 8//8 
f 8//8 1//1 7//7 
f 8//8 7//7 5//5 
f 5//5 7//7 6//6 
