v -45.93782043 55.64583206 -5.589891911
v -45.93782043 55.66666794 -5.589891911
v -46.82825089 55.64583206 -9.446773529
v -46.82825089 55.66666794 -9.446773529
v -46.78765488 55.66666794 -9.45614624
v -46.78765488 55.64583206 -9.45614624
v -45.89722061 55.64583206 -5.599265099
v -45.89722061 55.66666794 -5.599265099
vn -0.2351991236 -0.9701217413 0.05954103544
vn -0.4352701902 0.8943993449 0.102905944
vn -0.6898807883 -0.7070355415 0.1554517895
vn -0.4379157126 0.8943539262 0.09143764526
vn 0.4352701604 0.8943993449 -0.1029061601
vn 0.2351991534 -0.9701218009 -0.05954080075
vn 0.6898490191 -0.7070680261 -0.1554449797
vn 0.4378835857 0.8943704367 -0.09143050015
f 1//1 2//2 3//3 
f 3//3 2//2 4//4 
f 5//5 6//6 4//4 
f 4//4 6//6 3//3 
f 7//7 1//1 6//6 
f 6//6 1//1 3//3 
f 8//8 5//5 2//2 
f 2//2 5//5 4//4 
f 2//2 1//1 8//8 
f 8//8 1//1 7//7 
f 8//8 7//7 5//5 
f 5//5 7//7 6//6 
