v -55.79038239 38.75 -48.45124817
v -55.79038239 46.75 -48.45124817
v -55.83098221 38.75 -48.44187546
v -55.83098221 46.75 -48.44187546
v -55.79506683 46.75 -48.47154617
v -55.83566666 46.75 -48.46217346
v -55.83566666 38.75 -48.46217346
v -55.79506683 38.75 -48.47154617
vn 0.8479889035 -0.003682581475 0.5300011635
vn 0.454515636 0.002526162658 0.8907351494
vn -0.01807467267 -0.001263125101 0.9998358488
vn -0.5299107432 0.001841426478 0.8480514288
vn 0.5299107432 0.001841426478 -0.8480514288
vn -0.454515636 0.002526162658 -0.8907351494
vn -0.8479889035 -0.003682581475 -0.5300011635
vn 0.01807467267 -0.001263125101 -0.9998358488
f 1//1 2//2 3//3 
f 3//3 2//2 4//4 
f 5//5 6//6 2//2 
f 2//2 6//6 4//4 
f 3//3 4//4 7//7 
f 7//7 4//4 6//6 
f 8//8 5//5 1//1 
f 1//1 5//5 2//2 
f 8//8 1//1 7//7 
f 7//7 1//1 3//3 
f 7//7 6//6 8//8 
f 8//8 6//6 5//5 
