v -50.42746735 46.72916794 -25.03669357
v -50.42746735 55.66666794 -25.03669357
v -50.43684006 46.72916794 -25.0772934
v -50.43684006 55.66666794 -25.0772934
v -50.38687134 55.66666794 -25.04606819
v -50.39624405 55.66666794 -25.08666611
v -50.39624405 46.72916794 -25.08666611
v -50.38687134 46.72916794 -25.04606819
vn -0.234538421 -0.004169814754 0.9720979333
vn -0.7709143758 0.004169617314 0.6369251013
vn -0.9721087217 -0.002084790729 -0.2345212847
vn -0.6369837523 0.002084902255 -0.7708743811
vn 0.6369959116 0.002084803535 0.7708643675
vn 0.7709060907 0.004169682972 -0.6369351745
vn 0.2345577776 -0.004169794731 -0.9720932245
vn 0.9721076488 -0.002084760694 0.2345259488
f 1//1 2//2 3//3 
f 3//3 2//2 4//4 
f 5//5 6//6 2//2 
f 2//2 6//6 4//4 
f 3//3 4//4 7//7 
f 7//7 4//4 6//6 
f 8//8 5//5 1//1 
f 1//1 5//5 2//2 
f 8//8 1//1 7//7 
f 7//7 1//1 3//3 
f 7//7 6//6 8//8 
f 8//8 6//6 5//5 
