v -66.63331604 55.64583206 -95.23194122
v -66.63331604 55.66666794 -95.23194122
v -67.52375031 55.64583206 -99.08882141
v -67.52375031 55.66666794 -99.08882141
v -67.48314667 55.66666794 -99.09819031
v -67.48314667 55.64583206 -99.09819031
v -66.59272003 55.64583206 -95.24131012
v -66.59272003 55.66666794 -95.24131012
vn -0.2351945937 -0.9701229334 0.05953954533
vn -0.4352624714 0.8944033384 0.1029043198
vn -0.6898260713 -0.7070915699 0.1554396003
vn -0.437859714 0.8943826556 0.09142487496
vn 0.4352624714 0.8944033384 -0.1029038876
vn 0.2351945937 -0.9701229334 -0.05954001099
vn 0.6898878217 -0.7070284486 -0.1554528326
vn 0.4379222989 0.8943505883 -0.09143880755
f 1//1 2//2 3//3 
f 3//3 2//2 4//4 
f 5//5 6//6 4//4 
f 4//4 6//6 3//3 
f 7//7 1//1 6//6 
f 6//6 1//1 3//3 
f 8//8 5//5 2//2 
f 2//2 5//5 4//4 
f 2//2 1//1 8//8 
f 8//8 1//1 7//7 
f 8//8 7//7 5//5 
f 5//5 7//7 6//6 
