v -45.93782043 46.72916794 -5.589891911
v -45.93782043 46.77083206 -5.589891911
v -46.82825089 46.72916794 -9.446773529
v -46.82825089 46.77083206 -9.446773529
v -46.78765488 46.77083206 -9.45614624
v -46.78765488 46.72916794 -9.45614624
v -45.89722061 46.72916794 -5.599265099
v -45.89722061 46.77083206 -5.599265099
vn -0.4335999787 -0.8943949938 0.1097665355
vn -0.6881274581 0.7071165442 0.1626860946
vn -0.8725531101 -0.4472070038 0.1966136098
vn -0.6922571659 0.7070267797 0.1445446312
vn 0.6881273985 0.7071165442 -0.1626864374
vn 0.4336000681 -0.8943949938 -0.1097661033
vn 0.8725370169 -0.4472398758 -0.1966104209
vn 0.6922254562 0.7070593238 -0.1445373148
f 1//1 2//2 3//3 
f 3//3 2//2 4//4 
f 5//5 6//6 4//4 
f 4//4 6//6 3//3 
f 7//7 1//1 6//6 
f 6//6 1//1 3//3 
f 8//8 5//5 2//2 
f 2//2 5//5 4//4 
f 2//2 1//1 8//8 
f 8//8 1//1 7//7 
f 8//8 7//7 5//5 
f 5//5 7//7 6//6 
