v -72.9319458 46.72916794 -122.5142975
v -72.9319458 46.77083206 -122.5142975
v -73.82238007 46.72916794 -126.3711777
v -73.82238007 46.77083206 -126.3711777
v -73.78177643 46.77083206 -126.3805542
v -73.78177643 46.72916794 -126.3805542
v -72.89134979 46.72916794 -122.523674
v -72.89134979 46.77083206 -122.523674
vn -0.4335772395 -0.8944067359 0.109760575
vn -0.6881052852 0.707139194 0.1626813263
vn -0.8725184798 -0.4472781122 0.1966057569
vn -0.6921890974 0.7070967555 0.1445281506
vn 0.6881054044 0.7071393132 -0.1626806706
vn 0.4335772097 -0.8944066167 -0.1097614244
vn 0.8725498319 -0.447214216 -0.1966119707
vn 0.6922508478 0.7070333958 -0.144542411
f 1//1 2//2 3//3 
f 3//3 2//2 4//4 
f 5//5 6//6 4//4 
f 4//4 6//6 3//3 
f 7//7 1//1 6//6 
f 6//6 1//1 3//3 
f 8//8 5//5 2//2 
f 2//2 5//5 4//4 
f 2//2 1//1 8//8 
f 8//8 1//1 7//7 
f 8//8 7//7 5//5 
f 5//5 7//7 6//6 
