v -58.48979568 38.75 -60.1436882
v -58.48979568 46.75 -60.1436882
v -58.53039169 38.75 -60.13431549
v -58.53039169 46.75 -60.13431549
v -58.49448013 46.75 -60.16399002
v -58.53507996 46.75 -60.15461731
v -58.53507996 38.75 -60.15461731
v -58.49448013 38.75 -60.16399002
vn 0.8480543494 -0.003682872048 0.5298964381
vn 0.4545868337 0.002526701661 0.8906988502
vn -0.01811987162 -0.001263344893 0.9998350143
vn -0.5299747586 0.001841439167 0.8480114341
vn 0.5300038457 0.001841628691 -0.8479932547
vn -0.4545688331 0.002526601776 -0.8907080293
vn -0.8480834365 -0.003682998475 -0.5298498869
vn 0.01811906882 -0.00126334955 -0.9998350143
f 1//1 2//2 3//3 
f 3//3 2//2 4//4 
f 5//5 6//6 2//2 
f 2//2 6//6 4//4 
f 3//3 4//4 7//7 
f 7//7 4//4 6//6 
f 8//8 5//5 1//1 
f 1//1 5//5 2//2 
f 8//8 1//1 7//7 
f 7//7 1//1 3//3 
f 7//7 6//6 8//8 
f 8//8 6//6 5//5 
