v -77.42159271 38.77083206 -141.9611053
v -77.42159271 38.75 -141.9611053
v -76.53116608 38.77083206 -138.1042175
v -76.53116608 38.75 -138.1042175
v -76.49056244 38.75 -138.1135864
v -76.49056244 38.77083206 -138.1135864
v -77.3809967 38.77083206 -141.9704742
v -77.3809967 38.75 -141.9704742
vn -0.4378582239 0.8943833709 0.09142524749
vn -0.68982476 -0.7070931792 0.1554383039
vn -0.4351987839 0.894436121 0.1028886288
vn -0.2351540923 -0.9701333642 0.05952963978
vn 0.6897630095 -0.7071563005 -0.1554250717
vn 0.4377956092 0.8944154382 -0.0914113149
vn 0.4351987541 0.8944360614 -0.1028890535
vn 0.2351540923 -0.9701334238 -0.05952917412
f 1//1 2//2 3//3 
f 3//3 2//2 4//4 
f 5//5 6//6 4//4 
f 4//4 6//6 3//3 
f 1//1 3//3 7//7 
f 7//7 3//3 6//6 
f 2//2 8//8 4//4 
f 4//4 8//8 5//5 
f 2//2 1//1 8//8 
f 8//8 1//1 7//7 
f 8//8 7//7 5//5 
f 5//5 7//7 6//6 
