v -47.72805786 38.75 -13.34425354
v -47.72805786 46.75 -13.34425354
v -47.73274231 38.75 -13.36455345
v -47.73274231 46.75 -13.36455345
v -47.69214249 46.75 -13.37392616
v -47.68745804 46.75 -13.35362625
v -47.69214249 38.75 -13.37392616
v -47.68745804 38.75 -13.35362625
vn -0.01809686981 -0.001263237325 0.9998354316
vn -0.5299572945 0.001841527526 0.8480223417
vn -0.8480070829 -0.003682707902 -0.5299720764
vn -0.4545332491 0.002526362427 -0.8907262087
vn 0.5299572945 0.001841527526 -0.8480223417
vn 0.4545332491 0.002526362427 0.8907262087
vn 0.01809686981 -0.001263237325 -0.9998354316
vn 0.8480070829 -0.003682707902 0.5299720764
f 1//1 2//2 3//3 
f 3//3 2//2 4//4 
f 5//5 4//4 6//6 
f 6//6 4//4 2//2 
f 3//3 4//4 7//7 
f 7//7 4//4 5//5 
f 8//8 6//6 1//1 
f 1//1 6//6 2//2 
f 1//1 3//3 8//8 
f 8//8 3//3 7//7 
f 7//7 5//5 8//8 
f 8//8 5//5 6//6 
