v -58.53507996 55.64583206 -60.15461731
v -58.53507996 55.66666794 -60.15461731
v -59.42551041 55.64583206 -64.0114975
v -59.42551041 55.66666794 -64.0114975
v -59.38491058 55.66666794 -64.02086639
v -59.38491058 55.64583206 -64.02086639
v -58.49448013 55.64583206 -60.16399002
v -58.49448013 55.66666794 -60.16399002
vn -0.2351919711 -0.970123589 0.0595392324
vn -0.4352588654 0.8944051862 0.1029033065
vn -0.6898569465 -0.7070599794 0.1554462165
vn -0.4378910065 0.894366622 0.09143184125
vn 0.4352587163 0.8944052458 -0.1029033139
vn 0.2351921946 -0.9701235294 -0.05953922868
vn 0.6898499727 -0.707067132 -0.1554447263
vn 0.4378844798 0.8943699598 -0.09143038839
f 1//1 2//2 3//3 
f 3//3 2//2 4//4 
f 5//5 6//6 4//4 
f 4//4 6//6 3//3 
f 7//7 1//1 6//6 
f 6//6 1//1 3//3 
f 8//8 5//5 2//2 
f 2//2 5//5 4//4 
f 2//2 1//1 8//8 
f 8//8 1//1 7//7 
f 8//8 7//7 5//5 
f 5//5 7//7 6//6 
