v -69.32804108 38.77083206 -106.9040756
v -69.32804108 38.75 -106.9040756
v -68.43292999 38.77083206 -103.0269165
v -68.43292999 38.75 -103.0269165
v -68.39233398 38.75 -103.036293
v -68.39233398 38.77083206 -103.036293
v -69.28744507 38.77083206 -106.9134521
v -69.28744507 38.75 -106.9134521
vn -0.4378342032 0.8943904638 0.09147064388
vn -0.6898064017 -0.7071074247 0.1554547697
vn -0.435217917 0.8944277167 0.1028806791
vn -0.2351698726 -0.9701310396 0.05950567871
vn 0.6898064017 -0.7071074247 -0.1554547697
vn 0.4378342032 0.8943904638 -0.09147064388
vn 0.435217917 0.8944277167 -0.1028806791
vn 0.2351698726 -0.9701310396 -0.05950567871
f 1//1 2//2 3//3 
f 3//3 2//2 4//4 
f 5//5 6//6 4//4 
f 4//4 6//6 3//3 
f 1//1 3//3 7//7 
f 7//7 3//3 6//6 
f 2//2 8//8 4//4 
f 4//4 8//8 5//5 
f 2//2 1//1 8//8 
f 8//8 1//1 7//7 
f 8//8 7//7 5//5 
f 5//5 7//7 6//6 
