v -60.48020554 32.75 152.6412354
v -60.48020554 38.66666794 152.6412354
v -60.52186966 32.75 152.6412354
v -60.52186966 38.66666794 152.6412354
v -60.52186966 38.66666794 152.5995636
v -60.48020554 38.66666794 152.5995636
v -60.52186966 32.75 152.5995636
v -60.48020554 32.75 152.5995636
vn 0.8944422007 -0.006298502907 0.4471392334
vn 0.4472768903 0.003149644239 0.894389987
vn -0.4472768903 -0.003149644239 0.894389987
vn -0.8944422007 0.006298502907 0.4471392334
vn -0.4472768903 0.003149644239 -0.894389987
vn 0.8944422007 0.006298502907 -0.4471392334
vn -0.8944422007 -0.006298502907 -0.4471392334
vn 0.4472768903 -0.003149644239 -0.894389987
f 1//1 2//2 3//3 
f 3//3 2//2 4//4 
f 5//5 4//4 6//6 
f 6//6 4//4 2//2 
f 3//3 4//4 7//7 
f 7//7 4//4 5//5 
f 8//8 6//6 1//1 
f 1//1 6//6 2//2 
f 8//8 1//1 7//7 
f 7//7 1//1 3//3 
f 7//7 5//5 8//8 
f 8//8 5//5 6//6 
