v -41.4294281 46.75 13.93810844
v -41.4294281 55.66666794 13.93810844
v -41.43880081 46.75 13.89750957
v -41.43880081 55.66666794 13.89750957
v -41.38882828 55.66666794 13.92873478
v -41.39820099 55.66666794 13.88813591
v -41.39820099 46.75 13.88813591
v -41.38882828 46.75 13.92873478
vn -0.2345294207 -0.004179586656 0.9721000195
vn -0.7708901167 0.004179655574 0.6369544268
vn -0.9720988274 -0.002089812653 -0.2345623076
vn -0.6369495988 0.002089778427 -0.7709025741
vn 0.6369495988 0.002089778427 0.7709025741
vn 0.7708901167 0.004179655574 -0.6369544268
vn 0.2345294207 -0.004179586656 -0.9721000195
vn 0.9720988274 -0.002089812653 0.2345623076
f 1//1 2//2 3//3 
f 3//3 2//2 4//4 
f 5//5 6//6 2//2 
f 2//2 6//6 4//4 
f 3//3 4//4 7//7 
f 7//7 4//4 6//6 
f 8//8 5//5 1//1 
f 1//1 5//5 2//2 
f 8//8 1//1 7//7 
f 7//7 1//1 3//3 
f 7//7 6//6 8//8 
f 8//8 6//6 5//5 
