v -53.13625336 55.64583206 -36.76973343
v -53.13625336 55.66666794 -36.76973343
v -54.02668381 55.64583206 -40.62661743
v -54.02668381 55.66666794 -40.62661743
v -53.9860878 55.66666794 -40.63599014
v -53.9860878 55.64583206 -40.63599014
v -53.09565735 55.64583206 -36.77910614
v -53.09565735 55.66666794 -36.77910614
vn -0.2352093607 -0.9701191783 0.0595431067
vn -0.4352862239 0.8943911791 0.1029094532
vn -0.6898807883 -0.7070355415 0.1554517001
vn -0.4379157126 0.8943539262 0.0914375931
vn 0.4352862239 0.8943911791 -0.1029094532
vn 0.2352093607 -0.9701191783 -0.0595431067
vn 0.6898807883 -0.7070355415 -0.1554517001
vn 0.4379157126 0.8943539262 -0.0914375931
f 1//1 2//2 3//3 
f 3//3 2//2 4//4 
f 5//5 6//6 4//4 
f 4//4 6//6 3//3 
f 7//7 1//1 6//6 
f 6//6 1//1 3//3 
f 8//8 5//5 2//2 
f 2//2 5//5 4//4 
f 2//2 1//1 8//8 
f 8//8 1//1 7//7 
f 8//8 7//7 5//5 
f 5//5 7//7 6//6 
