v -49.49175262 38.75 -21.16888618
v -49.49175262 46.75 -21.16888618
v -49.53235245 38.75 -21.15951347
v -49.53235245 46.75 -21.15951347
v -49.49643707 46.75 -21.1891861
v -49.5370369 46.75 -21.17981339
v -49.5370369 38.75 -21.17981339
v -49.49643707 38.75 -21.1891861
vn 0.8480070829 -0.003682707902 0.5299720764
vn 0.4545332491 0.002526362427 0.8907262087
vn -0.01809686981 -0.001263237325 0.9998354316
vn -0.5299572945 0.001841527526 0.8480223417
vn 0.5299572945 0.001841527526 -0.8480223417
vn -0.4545332491 0.002526362427 -0.8907262087
vn -0.8480070829 -0.003682707902 -0.5299720764
vn 0.01809686981 -0.001263237325 -0.9998354316
f 1//1 2//2 3//3 
f 3//3 2//2 4//4 
f 5//5 6//6 2//2 
f 2//2 6//6 4//4 
f 3//3 4//4 7//7 
f 7//7 4//4 6//6 
f 8//8 5//5 1//1 
f 1//1 5//5 2//2 
f 8//8 1//1 7//7 
f 7//7 1//1 3//3 
f 7//7 6//6 8//8 
f 8//8 6//6 5//5 
