v -37.83020782 46.72916794 29.52802849
v -37.83020782 55.66666794 29.52802849
v -37.83958435 46.72916794 29.48743057
v -37.83958435 55.66666794 29.48743057
v -37.78961182 55.66666794 29.51865578
v -37.79898453 55.66666794 29.47805786
v -37.79898453 46.72916794 29.47805786
v -37.78961182 46.72916794 29.51865578
vn -0.2345484346 -0.004169743042 0.9720954895
vn -0.7708659172 0.004169580061 0.6369838119
vn -0.9721158147 -0.002085029613 -0.2344919294
vn -0.6369515061 0.002084999578 -0.7709010839
vn 0.6369715929 0.002084836597 0.7708844543
vn 0.770886004 0.004169689026 -0.6369594932
vn 0.2345391065 -0.004169577267 -0.9720977545
vn 0.9721065164 -0.002084780717 0.2345306277
f 1//1 2//2 3//3 
f 3//3 2//2 4//4 
f 5//5 6//6 2//2 
f 2//2 6//6 4//4 
f 3//3 4//4 7//7 
f 7//7 4//4 6//6 
f 8//8 5//5 1//1 
f 1//1 5//5 2//2 
f 8//8 1//1 7//7 
f 7//7 1//1 3//3 
f 7//7 6//6 8//8 
f 8//8 6//6 5//5 
