v -75.62198639 38.75 -134.1661377
v -75.62198639 46.75 -134.1661377
v -75.62667084 38.75 -134.1864471
v -75.62667084 46.75 -134.1864471
v -75.58607483 46.75 -134.195816
v -75.58139038 46.75 -134.1755219
v -75.58607483 38.75 -134.195816
v -75.58139038 38.75 -134.1755219
vn -0.01794308051 -0.001263881801 0.999838233
vn -0.530079484 0.00184227305 0.8479459286
vn -0.8481088877 -0.003682101378 -0.5298091769
vn -0.4545868337 0.002526588971 -0.8906988502
vn 0.5298932791 0.001841060002 -0.8480623364
vn 0.4547277391 0.002526384778 0.8906269073
vn 0.01812067628 -0.001262872247 -0.9998350143
vn 0.84803617 -0.003682909999 0.5299255252
f 1//1 2//2 3//3 
f 3//3 2//2 4//4 
f 5//5 4//4 6//6 
f 6//6 4//4 2//2 
f 3//3 4//4 7//7 
f 7//7 4//4 5//5 
f 8//8 6//6 1//1 
f 1//1 6//6 2//2 
f 1//1 3//3 8//8 
f 8//8 3//3 7//7 
f 7//7 5//5 8//8 
f 8//8 5//5 6//6 
