v -46.82825089 46.72916794 -9.446773529
v -46.82825089 55.66666794 -9.446773529
v -46.8376236 46.72916794 -9.487372398
v -46.8376236 55.66666794 -9.487372398
v -46.78765488 55.66666794 -9.45614624
v -46.79702759 55.66666794 -9.49674511
v -46.79702759 46.72916794 -9.49674511
v -46.78765488 46.72916794 -9.45614624
vn -0.2345674485 -0.004169763066 0.9720908999
vn -0.7709143758 0.004169595893 0.6369251013
vn -0.9721076488 -0.00208478584 -0.2345259488
vn -0.6369776726 0.002084869426 -0.7708794475
vn 0.6369776726 0.002084869426 0.7708794475
vn 0.7709143758 0.004169595893 -0.6369251013
vn 0.2345674485 -0.004169763066 -0.9720908999
vn 0.9721076488 -0.00208478584 0.2345259488
f 1//1 2//2 3//3 
f 3//3 2//2 4//4 
f 5//5 6//6 2//2 
f 2//2 6//6 4//4 
f 3//3 4//4 7//7 
f 7//7 4//4 6//6 
f 8//8 5//5 1//1 
f 1//1 5//5 2//2 
f 8//8 1//1 7//7 
f 7//7 1//1 3//3 
f 7//7 6//6 8//8 
f 8//8 6//6 5//5 
