v -61.23449326 55.64583206 -71.84705353
v -61.23449326 55.66666794 -71.84705353
v -62.12492371 55.64583206 -75.70394135
v -62.12492371 55.66666794 -75.70394135
v -62.08432388 55.66666794 -75.71331024
v -62.08432388 55.64583206 -75.71331024
v -61.19389343 55.64583206 -71.85643005
v -61.19389343 55.66666794 -71.85643005
vn -0.2351893783 -0.9701243043 0.05953857675
vn -0.4352553189 0.8944070339 0.1029023156
vn -0.6898570061 -0.7070599794 0.1554459184
vn -0.4378910363 0.894366622 0.09143166989
vn 0.4352549911 0.8944072127 -0.1029023305
vn 0.2351898253 -0.9701241851 -0.0595385693
vn 0.6898431182 -0.7070742249 -0.1554429382
vn 0.4378779829 0.8943733573 -0.09142876416
f 1//1 2//2 3//3 
f 3//3 2//2 4//4 
f 5//5 6//6 4//4 
f 4//4 6//6 3//3 
f 7//7 1//1 6//6 
f 6//6 1//1 3//3 
f 8//8 5//5 2//2 
f 2//2 5//5 4//4 
f 2//2 1//1 8//8 
f 8//8 1//1 7//7 
f 8//8 7//7 5//5 
f 5//5 7//7 6//6 
