v -74.72686768 38.77083206 -130.2889557
v -74.72686768 38.75 -130.2889557
v -73.83175659 38.77083206 -126.4117966
v -73.83175659 38.75 -126.4117966
v -73.79115295 38.75 -126.4211731
v -73.79115295 38.77083206 -126.4211731
v -74.68627167 38.77083206 -130.2983398
v -74.68627167 38.75 -130.2983398
vn -0.4378211498 0.8943971992 0.09146756679
vn -0.6897925735 -0.7071216702 0.1554514915
vn -0.4351792634 0.8944475055 0.1028719693
vn -0.2351453006 -0.9701372981 0.05950039253
vn 0.6897447109 -0.7071706057 -0.1554412395
vn 0.4377716482 0.8944225311 -0.09145653993
vn 0.4351795912 0.8944473267 -0.1028723791
vn 0.2351448685 -0.9701374173 -0.05949993804
f 1//1 2//2 3//3 
f 3//3 2//2 4//4 
f 5//5 6//6 4//4 
f 4//4 6//6 3//3 
f 1//1 3//3 7//7 
f 7//7 3//3 6//6 
f 2//2 8//8 4//4 
f 4//4 8//8 5//5 
f 2//2 1//1 8//8 
f 8//8 1//1 7//7 
f 8//8 7//7 5//5 
f 5//5 7//7 6//6 
