v -58.53507996 46.72916794 -60.15461731
v -58.53507996 46.77083206 -60.15461731
v -59.42551041 46.72916794 -64.0114975
v -59.42551041 46.77083206 -64.0114975
v -59.38491058 46.77083206 -64.02086639
v -59.38491058 46.72916794 -64.02086639
v -58.49448013 46.72916794 -60.16399002
v -58.49448013 46.77083206 -60.16399002
vn -0.4335888028 -0.8944007158 0.1097637117
vn -0.688116312 0.7071279883 0.1626835167
vn -0.8725411296 -0.4472317696 0.1966106296
vn -0.6922327876 0.7070518732 0.1445385218
vn 0.6881161332 0.7071281672 -0.1626835465
vn 0.4335891604 -0.8944005966 -0.1097636968
vn 0.8725376129 -0.4472389817 -0.1966099292
vn 0.6922263503 0.7070584893 -0.1445370466
f 1//1 2//2 3//3 
f 3//3 2//2 4//4 
f 5//5 6//6 4//4 
f 4//4 6//6 3//3 
f 7//7 1//1 6//6 
f 6//6 1//1 3//3 
f 8//8 5//5 2//2 
f 2//2 5//5 4//4 
f 2//2 1//1 8//8 
f 8//8 1//1 7//7 
f 8//8 7//7 5//5 
f 5//5 7//7 6//6 
