v -71.12296295 46.72916794 -114.6787415
v -71.12296295 55.66666794 -114.6787415
v -71.13233948 46.72916794 -114.7193375
v -71.13233948 55.66666794 -114.7193375
v -71.08236694 55.66666794 -114.6881104
v -71.09174347 55.66666794 -114.728714
v -71.09174347 46.72916794 -114.728714
v -71.08236694 46.72916794 -114.6881104
vn -0.2346064746 -0.004169725813 0.9720814824
vn -0.7708659172 0.004169622902 0.6369838119
vn -0.9721251726 -0.002084813779 -0.2344532311
vn -0.6370282173 0.002084813779 -0.7708376646
vn 0.6369795203 0.002085208427 0.7708778977
vn 0.770899117 0.004169359803 -0.6369436383
vn 0.2345290929 -0.004169805907 -0.9721001387
vn 0.972129643 -0.002084933687 0.2344345748
f 1//1 2//2 3//3 
f 3//3 2//2 4//4 
f 5//5 6//6 2//2 
f 2//2 6//6 4//4 
f 3//3 4//4 7//7 
f 7//7 4//4 6//6 
f 8//8 5//5 1//1 
f 1//1 5//5 2//2 
f 8//8 1//1 7//7 
f 7//7 1//1 3//3 
f 7//7 6//6 8//8 
f 8//8 6//6 5//5 
