v -36.21759033 46.77083206 37.31797028
v -36.21759033 46.72916794 37.31797028
v -36.17661285 46.77083206 37.31041718
v -36.17661285 46.72916794 37.31041718
v -36.93486023 46.72916794 33.42660141
v -36.93486023 46.77083206 33.42660141
v -36.89413834 46.77083206 33.4176712
v -36.89413834 46.72916794 33.4176712
vn -0.6946280599 0.7071880698 0.131821394
vn -0.4379926324 -0.8944311142 0.09030724317
vn 0.6979830265 0.7070593834 -0.1135195121
vn 0.8804377317 -0.4472399354 -0.1574987471
vn -0.8804763556 -0.4471618533 0.1575046182
vn -0.6982434392 0.70679456 0.1135675013
vn 0.6946896315 0.7071254849 -0.1318325698
vn 0.4378679991 -0.8944944143 -0.09028474987
f 1//1 2//2 3//3 
f 3//3 2//2 4//4 
f 2//2 1//1 5//5 
f 5//5 1//1 6//6 
f 3//3 4//4 7//7 
f 7//7 4//4 8//8 
f 4//4 2//2 8//8 
f 8//8 2//2 5//5 
f 3//3 7//7 1//1 
f 1//1 7//7 6//6 
f 7//7 8//8 6//6 
f 6//6 8//8 5//5 
