v -35.55675888 55.64583206 49.27830505
v -35.55675888 55.66666794 49.27830505
v -35.55675888 55.64583206 45.31997299
v -35.55675888 55.66666794 45.31997299
v -35.51509476 55.66666794 45.31997299
v -35.51509476 55.64583206 45.31997299
v -35.51509476 55.64583206 49.27830505
v -35.51509476 55.66666794 49.27830505
vn -0.4472592771 -0.8943547606 0.009415413253
vn -0.4472778738 0.8943919539 0.002353951102
vn -0.4472778738 -0.8943919539 -0.002353951102
vn -0.4472592771 0.8943547606 -0.009415413253
vn 0.4472778738 0.8943919539 -0.002353951102
vn 0.4472592771 -0.8943547606 -0.009415413253
vn 0.4472778738 -0.8943919539 0.002353951102
vn 0.4472592771 0.8943547606 0.009415413253
f 1//1 2//2 3//3 
f 3//3 2//2 4//4 
f 5//5 6//6 4//4 
f 4//4 6//6 3//3 
f 1//1 3//3 7//7 
f 7//7 3//3 6//6 
f 8//8 5//5 2//2 
f 2//2 5//5 4//4 
f 2//2 1//1 8//8 
f 8//8 1//1 7//7 
f 8//8 7//7 5//5 
f 5//5 7//7 6//6 
