v -35.55675888 38.77083206 121.3199692
v -35.55675888 38.75 121.3199692
v -35.55675888 38.77083206 125.299118
v -35.55675888 38.75 125.299118
v -35.51509476 38.75 125.299118
v -35.51509476 38.77083206 125.299118
v -35.51509476 38.77083206 121.3199692
v -35.51509476 38.75 121.3199692
vn -0.4471939802 0.8943879604 -0.009364789352
vn -0.4472123682 -0.8944247365 -0.002341293497
vn -0.4472123682 0.8944247365 0.002341293497
vn -0.4471939802 -0.8943879604 0.009364789352
vn 0.4472123682 -0.8944247365 0.002341293497
vn 0.4471939802 0.8943879604 0.009364789352
vn 0.4472123682 0.8944247365 -0.002341293497
vn 0.4471939802 -0.8943879604 -0.009364789352
f 1//1 2//2 3//3 
f 3//3 2//2 4//4 
f 5//5 6//6 4//4 
f 4//4 6//6 3//3 
f 1//1 3//3 7//7 
f 7//7 3//3 6//6 
f 8//8 5//5 2//2 
f 2//2 5//5 4//4 
f 2//2 1//1 8//8 
f 8//8 1//1 7//7 
f 8//8 7//7 5//5 
f 5//5 7//7 6//6 
