v -87.33739471 19.77083397 -114.1869507
v -87.33739471 19.75 -114.1869507
v -86.04868317 19.77083397 -110.4442749
v -86.04868317 19.75 -110.4442749
v -86.00928497 19.75 -110.45784
v -86.00928497 19.77083397 -110.45784
v -87.29799652 19.77083397 -114.2005157
v -87.29799652 19.75 -114.2005157
vn -0.4258937836 0.8943881989 0.1366901547
vn -0.6697882414 -0.7071030736 0.2266913056
vn -0.4220800102 0.8944252729 0.1478238106
vn -0.2276558429 -0.9701300263 0.08378881216
vn 0.6697882414 -0.7071030736 -0.2266913056
vn 0.4258937836 0.8943881989 -0.1366901547
vn 0.4220800102 0.8944252729 -0.1478238106
vn 0.2276558429 -0.9701300263 -0.08378881216
f 1//1 2//2 3//3 
f 3//3 2//2 4//4 
f 5//5 6//6 4//4 
f 4//4 6//6 3//3 
f 1//1 3//3 7//7 
f 7//7 3//3 6//6 
f 2//2 8//8 4//4 
f 4//4 8//8 5//5 
f 2//2 1//1 8//8 
f 8//8 1//1 7//7 
f 8//8 7//7 5//5 
f 5//5 7//7 6//6 
