v -34.79638672 46.75 129.0056763
v -34.79638672 46.75 125.5892868
v -35.31765747 46.75 129.0056763
v -35.31765747 46.75 125.5892868
v -35.3172226 46.66838837 125.5892868
v -35.3172226 46.66838837 129.0056763
v -35.31293488 46.69549561 125.5892868
v -35.31293488 46.69549561 129.0056763
v -35.31307983 46.72293854 129.0056763
v -35.31307983 46.72293854 125.5892868
v -35.3172226 46.45819855 125.5892868
v -34.79638672 46.45819855 125.5892868
v -35.3172226 46.45819855 129.0056763
v -34.79638672 46.45819855 129.0056763
vn 0.4862701595 0.8686674237 0.09464808553
vn 0.4879119992 0.8716003299 -0.04748382792
vn -0.02606261894 0.9996523857 0.003976619337
vn -0.1050963029 0.9944297075 -0.008017767221
vn -0.9467815161 0.01710739173 -0.3214220405
vn -0.9857410192 0.01781135052 0.1673241854
vn -0.9943525195 0.07551515847 -0.07456922531
vn -0.9861611128 0.07489307225 0.1479098648
vn -0.9934264421 -0.08607656509 0.0754635781
vn -0.9850476384 -0.08535057306 -0.1496542096
vn -0.3740846813 -0.9269560575 -0.02851500548
vn 0.4848063886 -0.8653300405 -0.1271483004
vn -0.373629272 -0.9258275628 0.05696057901
vn 0.4877725244 -0.8706243038 0.06396310776
f 1//1 2//2 3//3 
f 3//3 2//2 4//4 
f 5//5 6//6 7//7 
f 7//7 6//6 8//8 
f 7//7 8//8 9//9 
f 3//3 4//4 9//9 
f 9//9 4//4 10//10 
f 9//9 10//10 7//7 
f 11//11 5//5 12//12 
f 12//12 5//5 2//2 
f 2//2 5//5 7//7 
f 2//2 7//7 10//10 
f 10//10 4//4 2//2 
f 13//13 6//6 11//11 
f 11//11 6//6 5//5 
f 1//1 14//14 2//2 
f 2//2 14//14 12//12 
f 13//13 14//14 6//6 
f 6//6 14//14 1//1 
f 6//6 1//1 8//8 
f 8//8 1//1 9//9 
f 9//9 1//1 3//3 
f 13//13 11//11 14//14 
f 14//14 11//11 12//12 
