v -60.52186966 38.64583206 152.6412354
v -60.52186966 38.66666794 152.6412354
v -65.33437347 38.64583206 152.6412354
v -65.33437347 38.66666794 152.6412354
v -65.33437347 38.66666794 152.5995636
v -65.33437347 38.64583206 152.5995636
v -60.52186966 38.64583206 152.5995636
v -60.52186966 38.66666794 152.5995636
vn 0.004200223368 -0.9701339602 0.2425334901
vn 0.003061425174 0.7071034908 0.7071034908
vn -0.003061425174 -0.7071034908 0.7071034908
vn -0.004200223368 0.9701339602 0.2425334901
vn -0.003061425174 0.7071034908 -0.7071034908
vn -0.004200223368 -0.9701339602 -0.2425334901
vn 0.003061425174 -0.7071034908 -0.7071034908
vn 0.004200223368 0.9701339602 -0.2425334901
f 1//1 2//2 3//3 
f 3//3 2//2 4//4 
f 5//5 6//6 4//4 
f 4//4 6//6 3//3 
f 7//7 1//1 6//6 
f 6//6 1//1 3//3 
f 2//2 8//8 4//4 
f 4//4 8//8 5//5 
f 2//2 1//1 8//8 
f 8//8 1//1 7//7 
f 8//8 7//7 5//5 
f 5//5 7//7 6//6 
