v -78.89321899 24.72916603 -141.6652985
v -78.89321899 24.77083397 -141.6652985
v -77.09617615 24.72916603 -145.1921997
v -77.09617615 24.77083397 -145.1921997
v -77.05905151 24.77083397 -145.1732941
v -77.05905151 24.72916603 -145.1732941
v -78.85609436 24.72916603 -141.6463928
v -78.85609436 24.77083397 -141.6463928
vn -0.6367733479 -0.7069734931 -0.3077468574
vn -0.7990941405 0.4471518099 -0.4018753171
vn -0.6283938885 -0.7070448995 -0.3243587613
vn -0.394231081 0.8943580985 -0.2114366442
vn 0.7990941405 0.4471518099 0.4018753171
vn 0.6367733479 -0.7069734931 0.3077468574
vn 0.6283938885 -0.7070448995 0.3243587613
vn 0.394231081 0.8943580985 0.2114366442
f 1//1 2//2 3//3 
f 3//3 2//2 4//4 
f 5//5 6//6 4//4 
f 4//4 6//6 3//3 
f 1//1 3//3 7//7 
f 7//7 3//3 6//6 
f 2//2 8//8 4//4 
f 4//4 8//8 5//5 
f 2//2 1//1 8//8 
f 8//8 1//1 7//7 
f 8//8 7//7 5//5 
f 5//5 7//7 6//6 
