v -38.31674576 38.64583206 152.6412354
v -38.31674576 38.66666794 152.6412354
v -41.3135376 38.64583206 152.6412354
v -41.3135376 38.66666794 152.6412354
v -41.3135376 38.66666794 152.5995636
v -41.3135376 38.64583206 152.5995636
v -38.31674576 38.64583206 152.5995636
v -38.31674576 38.66666794 152.5995636
vn 0.006744982675 -0.97012043 0.2425301075
vn 0.004916261416 0.7070982456 0.7070982456
vn -0.004916261416 -0.7070982456 0.7070982456
vn -0.006744982675 0.97012043 0.2425301075
vn -0.004916261416 0.7070982456 -0.7070982456
vn -0.006744982675 -0.97012043 -0.2425301075
vn 0.004916261416 -0.7070982456 -0.7070982456
vn 0.006744982675 0.97012043 -0.2425301075
f 1//1 2//2 3//3 
f 3//3 2//2 4//4 
f 5//5 6//6 4//4 
f 4//4 6//6 3//3 
f 7//7 1//1 6//6 
f 6//6 1//1 3//3 
f 2//2 8//8 4//4 
f 4//4 8//8 5//5 
f 2//2 1//1 8//8 
f 8//8 1//1 7//7 
f 8//8 7//7 5//5 
f 5//5 7//7 6//6 
