v -60.5010376 19.8125 152.6412354
v -60.5010376 19.79166603 152.6412354
v -57.35520554 19.8125 152.6412354
v -57.35520554 19.79166603 152.6412354
v -57.35520554 19.79166603 152.5995636
v -57.35520554 19.8125 152.5995636
v -60.5010376 19.8125 152.5995636
v -60.5010376 19.79166603 152.5995636
vn -0.006424885243 0.9701277018 0.2425097227
vn -0.004683134146 -0.7071313858 0.7070666552
vn 0.004683134146 0.7071313858 0.7070666552
vn 0.006424885243 -0.9701277018 0.2425097227
vn 0.004683134146 -0.7071313858 -0.7070666552
vn 0.006424885243 0.9701277018 -0.2425097227
vn -0.004683134146 0.7071313858 -0.7070666552
vn -0.006424885243 -0.9701277018 -0.2425097227
f 1//1 2//2 3//3 
f 3//3 2//2 4//4 
f 5//5 6//6 4//4 
f 4//4 6//6 3//3 
f 7//7 1//1 6//6 
f 6//6 1//1 3//3 
f 2//2 8//8 4//4 
f 4//4 8//8 5//5 
f 2//2 1//1 8//8 
f 8//8 1//1 7//7 
f 8//8 7//7 5//5 
f 5//5 7//7 6//6 
