v 23.86421967 32.72916794 89.30883026
v 23.86421967 38.77083206 89.30883026
v 23.84433746 32.72916794 89.34545135
v 23.84433746 38.77083206 89.34545135
v 23.80772018 38.77083206 89.32556915
v 23.82760239 38.77083206 89.28894806
v 23.80772018 32.72916794 89.32556915
v 23.82760239 32.72916794 89.28894806
vn 0.8198199868 -0.003084377153 -0.5726130009
vn 0.999424696 0.003084228141 0.03377541155
vn 0.5726791024 -0.006168583874 0.8197564483
vn -0.03373679891 0.006168881897 0.9994117022
vn -0.999424696 0.003084228141 -0.03377541155
vn 0.03373679891 0.006168881897 -0.9994117022
vn -0.8198199868 -0.003084377153 0.5726130009
vn -0.5726791024 -0.006168583874 -0.8197564483
f 1//1 2//2 3//3 
f 3//3 2//2 4//4 
f 5//5 4//4 6//6 
f 6//6 4//4 2//2 
f 3//3 4//4 7//7 
f 7//7 4//4 5//5 
f 8//8 6//6 1//1 
f 1//1 6//6 2//2 
f 1//1 3//3 8//8 
f 8//8 3//3 7//7 
f 7//7 5//5 8//8 
f 8//8 5//5 6//6 
