v 8.575257301 32.72916794 117.467598
v 8.575257301 32.77083206 117.467598
v 6.686503887 32.72916794 120.9462509
v 6.686503887 32.77083206 120.9462509
v 6.649886131 32.77083206 120.9263687
v 6.649886131 32.72916794 120.9263687
v 8.538640022 32.72916794 117.4477158
v 8.538640022 32.77083206 117.4477158
vn 0.6284306645 -0.7070515752 0.3242729902
vn 0.7882651687 0.4472320974 0.4226363003
vn 0.6196155548 -0.7071269155 0.3406583071
vn 0.3884872496 0.894400239 0.2216436118
vn -0.7882635593 0.4472357035 -0.4226354957
vn -0.6284275055 -0.7070551515 -0.3242712915
vn -0.6196155548 -0.7071268559 -0.3406583369
vn -0.3884872496 0.894400239 -0.2216435522
f 1//1 2//2 3//3 
f 3//3 2//2 4//4 
f 5//5 6//6 4//4 
f 4//4 6//6 3//3 
f 1//1 3//3 7//7 
f 7//7 3//3 6//6 
f 2//2 8//8 4//4 
f 4//4 8//8 5//5 
f 2//2 1//1 8//8 
f 8//8 1//1 7//7 
f 8//8 7//7 5//5 
f 5//5 7//7 6//6 
