v 10.48389244 32.72916794 113.9523315
v 10.48389244 32.77083206 113.9523315
v 8.59513855 32.72916794 117.4309769
v 8.59513855 32.77083206 117.4309769
v 8.558521271 32.77083206 117.4110947
v 8.558521271 32.72916794 117.4110947
v 10.44727516 32.72916794 113.9324493
v 10.44727516 32.77083206 113.9324493
vn 0.6284303665 -0.7070515752 0.3242736161
vn 0.7882647514 0.4472320974 0.422637105
vn 0.6196168065 -0.7071251273 0.3406597674
vn 0.3884885907 0.8943993449 0.2216448188
vn -0.7882647514 0.4472320974 -0.422637105
vn -0.6284303665 -0.7070515752 -0.3242736161
vn -0.6196168065 -0.7071251273 -0.3406597674
vn -0.3884885907 0.8943993449 -0.2216448188
f 1//1 2//2 3//3 
f 3//3 2//2 4//4 
f 5//5 6//6 4//4 
f 4//4 6//6 3//3 
f 1//1 3//3 7//7 
f 7//7 3//3 6//6 
f 2//2 8//8 4//4 
f 4//4 8//8 5//5 
f 2//2 1//1 8//8 
f 8//8 1//1 7//7 
f 8//8 7//7 5//5 
f 5//5 7//7 6//6 
