v 10.50377369 32.75 113.9157104
v 10.50377369 38.75 113.9157104
v 10.48389244 32.75 113.9523315
v 10.48389244 38.75 113.9523315
v 10.44727516 38.75 113.9324493
v 10.46715641 38.75 113.8958282
v 10.44727516 32.75 113.9324493
v 10.46715641 32.75 113.8958282
vn 0.8198151588 -0.003105742857 -0.5726198554
vn 0.999425292 0.00310561317 0.03375496343
vn 0.57268852 -0.006211453583 0.8197495341
vn -0.03373713419 0.006211712491 0.9994114637
vn -0.999425292 0.00310561317 -0.03375496343
vn 0.03373713419 0.006211712491 -0.9994114637
vn -0.8198151588 -0.003105742857 0.5726198554
vn -0.57268852 -0.006211453583 -0.8197495341
f 1//1 2//2 3//3 
f 3//3 2//2 4//4 
f 5//5 4//4 6//6 
f 6//6 4//4 2//2 
f 3//3 4//4 7//7 
f 7//7 4//4 5//5 
f 8//8 6//6 1//1 
f 1//1 6//6 2//2 
f 1//1 3//3 8//8 
f 8//8 3//3 7//7 
f 7//7 5//5 8//8 
f 8//8 5//5 6//6 
