v 23.84433746 32.75 89.34545135
v 23.80772018 32.75 89.32556915
v 21.95558357 32.75 92.82409668
v 21.91896629 32.75 92.80422211
v 21.95558357 32.72916794 92.82409668
v 21.91896629 32.72916794 92.80422211
v 23.84433746 32.72916794 89.34545135
v 23.80772018 32.72916794 89.32556915
vn 0.6231683493 0.7071250677 0.3341187835
vn -0.2107010931 0.9701310992 -0.1202112585
vn 0.2107015401 0.97013098 0.1202112436
vn -0.6231954694 0.7070944905 -0.3341329694
vn 0.391887784 -0.8944286704 0.2154561579
vn -0.3974994123 -0.8943842053 -0.2051123828
vn 0.3974728882 -0.8943992257 0.2050982565
vn -0.3918881416 -0.8944284916 -0.2154561132
f 1//1 2//2 3//3 
f 3//3 2//2 4//4 
f 5//5 3//3 6//6 
f 6//6 3//3 4//4 
f 7//7 1//1 5//5 
f 5//5 1//1 3//3 
f 2//2 8//8 4//4 
f 4//4 8//8 6//6 
f 8//8 2//2 7//7 
f 7//7 2//2 1//1 
f 7//7 5//5 8//8 
f 8//8 5//5 6//6 
