v 40.34778214 32.75 72.93289948
v 40.34778214 38.75 72.93289948
v 40.34778214 32.75 72.97457123
v 40.34778214 38.75 72.97457123
v 40.3061142 38.75 72.93289948
v 40.3061142 38.75 72.97457123
v 40.3061142 32.75 72.97457123
v 40.3061142 32.75 72.93289948
vn 0.4472441971 -0.003105957294 -0.8944064975
vn 0.8944262862 0.006211483385 -0.4471722245
vn 0.8944262862 -0.006211483385 0.4471722245
vn 0.4472441971 0.003105957294 0.8944064975
vn -0.4472441971 0.003105957294 -0.8944064975
vn -0.8944262862 0.006211483385 0.4471722245
vn -0.4472441971 -0.003105957294 0.8944064975
vn -0.8944262862 -0.006211483385 -0.4471722245
f 1//1 2//2 3//3 
f 3//3 2//2 4//4 
f 5//5 6//6 2//2 
f 2//2 6//6 4//4 
f 3//3 4//4 7//7 
f 7//7 4//4 6//6 
f 8//8 5//5 1//1 
f 1//1 5//5 2//2 
f 1//1 3//3 8//8 
f 8//8 3//3 7//7 
f 7//7 6//6 8//8 
f 8//8 6//6 5//5 
