v 21.95558357 32.72916794 92.82409668
v 21.95558357 38.77083206 92.82409668
v 21.93570328 32.72916794 92.86071777
v 21.93570328 38.77083206 92.86071777
v 21.899086 38.77083206 92.84083557
v 21.91896629 38.77083206 92.80422211
v 21.899086 32.72916794 92.84083557
v 21.91896629 32.72916794 92.80422211
vn 0.8197566867 -0.003084418364 -0.5727036595
vn 0.9994259477 0.003084148047 0.03373727947
vn 0.5726982951 -0.006167890504 0.8197430372
vn -0.03373748809 0.006168107502 0.9994117022
vn -0.9994258881 0.003084173659 -0.03374003991
vn 0.03365569562 0.006168124732 -0.999414444
vn -0.8197835684 -0.003083984368 0.5726652145
vn -0.57264328 -0.00616817968 -0.8197814822
f 1//1 2//2 3//3 
f 3//3 2//2 4//4 
f 5//5 4//4 6//6 
f 6//6 4//4 2//2 
f 3//3 4//4 7//7 
f 7//7 4//4 5//5 
f 8//8 6//6 1//1 
f 1//1 6//6 2//2 
f 1//1 3//3 8//8 
f 8//8 3//3 7//7 
f 7//7 5//5 8//8 
f 8//8 5//5 6//6 
