v -38.31674576 23.4375 152.6412354
v -38.31674576 23.47916603 152.6412354
v -41.3135376 23.4375 152.6412354
v -41.3135376 23.47916603 152.6412354
v -41.3135376 23.47916603 152.5995636
v -41.3135376 23.4375 152.5995636
v -38.31674576 23.4375 152.5995636
v -38.31674576 23.47916603 152.5995636
vn 0.01243508887 -0.894382596 0.4471299052
vn 0.006218417548 0.4472540915 0.8943853378
vn -0.006218417548 -0.4472540915 0.8943853378
vn -0.01243508887 0.894382596 0.4471299052
vn -0.006218417548 0.4472540915 -0.8943853378
vn -0.01243508887 -0.894382596 -0.4471299052
vn 0.006218417548 -0.4472540915 -0.8943853378
vn 0.01243508887 0.894382596 -0.4471299052
f 1//1 2//2 3//3 
f 3//3 2//2 4//4 
f 5//5 6//6 4//4 
f 4//4 6//6 3//3 
f 7//7 1//1 6//6 
f 6//6 1//1 3//3 
f 2//2 8//8 4//4 
f 4//4 8//8 5//5 
f 2//2 1//1 8//8 
f 8//8 1//1 7//7 
f 8//8 7//7 5//5 
f 5//5 7//7 6//6 
