v 51.58110046 32.45819855 -77.73386383
v 51.58110046 25.04166603 -77.73386383
v 51.66443634 32.45819855 -77.73386383
v 51.66443634 25.04166603 -77.73386383
v 51.66443634 25.04166603 -81.33779907
v 51.66443634 32.45819855 -81.33779907
v 51.58110046 32.45819855 -81.33779907
v 51.58110046 25.04166603 -81.33779907
vn -0.9998700619 0.01123504154 0.0115602864
vn -0.9988694191 -0.01122379676 0.0461948663
vn 0.9988694191 0.01122379676 0.0461948663
vn 0.9998700619 -0.01123504154 0.0115602864
vn 0.9988694191 -0.01122379676 -0.0461948663
vn 0.9998700619 0.01123504154 -0.0115602864
vn -0.9988694191 0.01122379676 -0.0461948663
vn -0.9998700619 -0.01123504154 -0.0115602864
f 1//1 2//2 3//3 
f 3//3 2//2 4//4 
f 5//5 6//6 4//4 
f 4//4 6//6 3//3 
f 7//7 1//1 6//6 
f 6//6 1//1 3//3 
f 2//2 8//8 4//4 
f 4//4 8//8 5//5 
f 2//2 1//1 8//8 
f 8//8 1//1 7//7 
f 8//8 7//7 5//5 
f 5//5 7//7 6//6 
