v 51.57202911 24.75 -33.44206238
v 51.57202911 24.83333397 -33.44206238
v 51.57202911 24.75 -29.92140007
v 51.57202911 24.83333397 -29.92140007
v 51.25564575 24.75 -33.44206238
v 51.25564575 24.75 -29.92140007
v 51.25564575 24.84370804 -29.92140007
v 51.25564575 24.84370804 -33.44206238
v 51.260849 24.81261635 -29.92140007
v 51.260849 24.81261635 -33.44206238
v 51.260849 24.78109169 -33.44206238
v 51.260849 24.78109169 -29.92140007
v 51.22695541 24.84370804 -33.44206238
v 51.22695541 24.84370804 -29.92140007
v 51.22695541 25.04166603 -33.44206238
v 51.22695541 25.04166603 -29.92140007
v 51.74779129 24.83333397 -29.92140007
v 51.74779129 25.04166603 -29.92140007
v 51.74779129 24.83333397 -33.44206238
v 51.74779129 25.04166603 -33.44206238
vn 0.2545855045 -0.9665520787 -0.0310378205
vn 0.4212886691 -0.8885526061 -0.1816317737
vn 0.2546775341 -0.9669014215 0.01552451961
vn 0.4018711448 -0.8475984931 0.3465204239
vn -0.04948231578 -0.998765111 -0.004446715117
vn -0.199149847 -0.9799281955 0.008948273957
vn -0.4242170155 -0.8538990617 0.3014901876
vn -0.810685873 -0.5097061396 -0.2880764306
vn -0.9955894351 -0.08273075521 0.04424190521
vn -0.9926791787 -0.08248891681 -0.08822515607
vn -0.9913185239 0.08237585425 -0.1024783775
vn -0.976062119 0.08110808581 0.2018024623
vn -0.989651978 -0.1434316933 -0.004032401834
vn -0.9896278381 -0.1434281915 0.008064607158
vn -0.3538513482 0.9309979081 -0.08962219208
vn -0.3549219966 0.9338148236 0.04494668171
vn 0.7641849518 -0.6447150111 0.01907521859
vn 0.3703885078 0.925981462 0.07328505069
vn 0.7637681961 -0.6443634629 -0.03812963516
vn 0.3711367548 0.9278520346 -0.03671654686
f 1//1 2//2 3//3 
f 3//3 2//2 4//4 
f 1//1 3//3 5//5 
f 5//5 3//3 6//6 
f 7//7 8//8 9//9 
f 9//9 8//8 10//10 
f 9//9 10//10 11//11 
f 5//5 6//6 11//11 
f 11//11 6//6 12//12 
f 11//11 12//12 9//9 
f 8//8 7//7 13//13 
f 13//13 7//7 14//14 
f 15//15 13//13 16//16 
f 16//16 13//13 14//14 
f 17//17 18//18 4//4 
f 4//4 18//18 16//16 
f 4//4 16//16 7//7 
f 7//7 16//16 14//14 
f 7//7 9//9 4//4 
f 4//4 9//9 12//12 
f 4//4 12//12 3//3 
f 3//3 12//12 6//6 
f 19//19 17//17 2//2 
f 2//2 17//17 4//4 
f 15//15 16//16 20//20 
f 20//20 16//16 18//18 
f 19//19 2//2 20//20 
f 20//20 2//2 15//15 
f 15//15 2//2 8//8 
f 15//15 8//8 13//13 
f 1//1 11//11 2//2 
f 2//2 11//11 10//10 
f 2//2 10//10 8//8 
f 1//1 5//5 11//11 
f 19//19 20//20 17//17 
f 17//17 20//20 18//18 
