v 51.57202911 24.75 34.55793762
v 51.57202911 24.83333397 34.55793762
v 51.57202911 24.75 38.26613617
v 51.57202911 24.83333397 38.26613617
v 51.25564575 24.75 34.55793762
v 51.25564575 24.75 38.26613617
v 51.25564575 24.84370804 38.26613617
v 51.25564575 24.84370804 34.55793762
v 51.260849 24.81261635 38.26613617
v 51.260849 24.81261635 34.55793762
v 51.260849 24.78109169 34.55793762
v 51.260849 24.78109169 38.26613617
v 51.22695541 24.84370804 34.55793762
v 51.22695541 24.84370804 38.26613617
v 51.22695541 25.04166603 34.55793762
v 51.22695541 25.04166603 38.26613617
v 51.74779129 24.83333397 38.26613617
v 51.74779129 25.04166603 38.26613617
v 51.74779129 24.83333397 34.55793762
v 51.74779129 25.04166603 34.55793762
vn 0.2545976043 -0.9665979743 -0.02946953103
vn 0.4219754636 -0.8900011182 -0.1727271527
vn 0.2546805441 -0.9669129252 0.01473956648
vn 0.4042711854 -0.8526604772 0.330960542
vn -0.04948236421 -0.9987660646 -0.004221833777
vn -0.1991506368 -0.9799320698 0.008495762013
vn -0.4261306822 -0.8577510118 0.2875340283
vn -0.8140227795 -0.5118041635 -0.274633199
vn -0.9956854582 -0.08273873478 0.0420084931
vn -0.9930602312 -0.08252058923 -0.08379546553
vn -0.9918320775 0.08241853118 -0.09734610468
vn -0.978027463 0.08127140254 0.1919824183
vn -0.9896528125 -0.1434318125 -0.003828472691
vn -0.9896310568 -0.1434286535 0.007656776812
vn -0.3539915383 0.9313667417 -0.08512340486
vn -0.3549573421 0.9339078665 0.04267782718
vn 0.7641986609 -0.6447265744 0.01811084524
vn 0.3704866171 0.9262266755 0.06959720701
vn 0.7638229728 -0.6444095969 -0.03620388359
vn 0.3711614013 0.9279137254 -0.03486198187
f 1//1 2//2 3//3 
f 3//3 2//2 4//4 
f 1//1 3//3 5//5 
f 5//5 3//3 6//6 
f 7//7 8//8 9//9 
f 9//9 8//8 10//10 
f 9//9 10//10 11//11 
f 5//5 6//6 11//11 
f 11//11 6//6 12//12 
f 11//11 12//12 9//9 
f 8//8 7//7 13//13 
f 13//13 7//7 14//14 
f 15//15 13//13 16//16 
f 16//16 13//13 14//14 
f 17//17 18//18 4//4 
f 4//4 18//18 16//16 
f 4//4 16//16 7//7 
f 7//7 16//16 14//14 
f 7//7 9//9 4//4 
f 4//4 9//9 12//12 
f 4//4 12//12 3//3 
f 3//3 12//12 6//6 
f 19//19 17//17 2//2 
f 2//2 17//17 4//4 
f 15//15 16//16 20//20 
f 20//20 16//16 18//18 
f 19//19 2//2 20//20 
f 20//20 2//2 15//15 
f 15//15 2//2 8//8 
f 15//15 8//8 13//13 
f 1//1 11//11 2//2 
f 2//2 11//11 10//10 
f 2//2 10//10 8//8 
f 1//1 5//5 11//11 
f 19//19 20//20 17//17 
f 17//17 20//20 18//18 
