v -35.18296814 32.72916794 146.6036377
v -33.56428528 32.72916794 143.6412354
v -35.14640427 32.72916794 146.6236267
v -33.52772141 32.72916794 143.6612091
v -33.52772141 32.77083206 143.6612091
v -33.56428528 32.77083206 143.6412354
v -35.14640427 32.77083206 146.6236267
v -35.18296814 32.77083206 146.6036377
vn -0.6287409663 -0.7070560455 -0.3236611187
vn -0.618393898 -0.707128346 -0.3428680599
vn 0.6183948517 -0.7071276307 0.342867732
vn 0.6287929416 -0.7069967985 0.3236895502
vn 0.7875353694 0.4472037554 0.4240245223
vn -0.3871083856 0.8943866491 -0.2240972519
vn 0.3871066868 0.8943873644 0.2240974158
vn -0.7875075936 0.4472658932 -0.4240106344
f 1//1 2//2 3//3 
f 3//3 2//2 4//4 
f 5//5 4//4 6//6 
f 6//6 4//4 2//2 
f 7//7 3//3 5//5 
f 5//5 3//3 4//4 
f 1//1 8//8 2//2 
f 2//2 8//8 6//6 
f 8//8 1//1 7//7 
f 7//7 1//1 3//3 
f 8//8 7//7 6//6 
f 6//6 7//7 5//5 
