v -35.16638184 19.8125 146.6601868
v -35.20294571 19.8125 146.640213
v -36.77507401 19.8125 149.6043091
v -36.81163788 19.8125 149.5843353
v -36.77507401 19.79166603 149.6043091
v -36.81163788 19.79166603 149.5843353
v -35.16638184 19.79166603 146.6601868
v -35.20294571 19.79166603 146.640213
vn 0.6226474047 0.7070646286 0.3352160454
vn -0.2099637538 0.9701189995 -0.1215908974
vn 0.2099637538 0.9701189995 0.1215908974
vn -0.6226474047 0.7070646286 -0.3352160454
vn 0.3911480904 -0.8944056034 0.216891095
vn -0.3977820873 -0.8943544626 -0.2046936005
vn 0.3977820873 -0.8943544626 0.2046936005
vn -0.3911480904 -0.8944056034 -0.216891095
f 1//1 2//2 3//3 
f 3//3 2//2 4//4 
f 5//5 3//3 6//6 
f 6//6 3//3 4//4 
f 7//7 1//1 5//5 
f 5//5 1//1 3//3 
f 2//2 8//8 4//4 
f 4//4 8//8 6//6 
f 8//8 2//2 7//7 
f 7//7 2//2 1//1 
f 7//7 5//5 8//8 
f 8//8 5//5 6//6 
