v -82.54405975 19.77083397 -134.5001221
v -82.54405975 19.75 -134.5001221
v -84.34111023 19.77083397 -130.9732208
v -84.34111023 19.75 -130.9732208
v -84.3039856 19.75 -130.9543152
v -84.3039856 19.77083397 -130.9543152
v -82.50693512 19.77083397 -134.4812164
v -82.50693512 19.75 -134.4812164
vn -0.21381329 0.97012043 -0.1146742404
vn -0.3974517286 -0.8943958879 -0.2051539421
vn -0.6317715645 0.7070457339 -0.3177278936
vn -0.4027760327 -0.8943597674 -0.1946589053
vn 0.3974517286 -0.8943958879 0.2051539421
vn 0.21381329 0.97012043 0.1146742404
vn 0.6317715645 0.7070457339 0.3177278936
vn 0.4027760327 -0.8943597674 0.1946589053
f 1//1 2//2 3//3 
f 3//3 2//2 4//4 
f 5//5 6//6 4//4 
f 4//4 6//6 3//3 
f 7//7 1//1 6//6 
f 6//6 1//1 3//3 
f 8//8 5//5 2//2 
f 2//2 5//5 4//4 
f 2//2 1//1 8//8 
f 8//8 1//1 7//7 
f 8//8 7//7 5//5 
f 5//5 7//7 6//6 
