v 21.648283 46.45819855 92.53868866
v 21.648283 39.04166794 92.53868866
v 21.72151756 46.45819855 92.57844543
v 21.72151756 39.04166794 92.57844543
v 23.48101044 39.04166794 89.33786774
v 23.48101044 46.45819855 89.33786774
v 23.40777588 46.45819855 89.29810333
v 23.40777588 39.04166794 89.29810333
vn -0.8841384053 0.005617417861 -0.4671913385
vn -0.8994084597 -0.01122359 -0.4369650483
vn 0.8561608791 0.02244331501 0.5162217617
vn 0.8733144403 -0.01123454329 0.4870274365
vn 0.8994088173 -0.01122403983 0.4369642437
vn 0.8841381669 0.005617658142 0.4671917856
vn -0.8561602831 0.02244335413 -0.5162226558
vn -0.8733146787 -0.01123453304 -0.4870269895
f 1//1 2//2 3//3 
f 3//3 2//2 4//4 
f 5//5 6//6 4//4 
f 4//4 6//6 3//3 
f 1//1 3//3 7//7 
f 7//7 3//3 6//6 
f 2//2 8//8 4//4 
f 4//4 8//8 5//5 
f 2//2 1//1 8//8 
f 8//8 1//1 7//7 
f 8//8 7//7 5//5 
f 5//5 7//7 6//6 
