v -78.91213989 19.77083397 -141.6281738
v -78.91213989 19.75 -141.6281738
v -80.70918274 19.77083397 -138.1012726
v -80.70918274 19.75 -138.1012726
v -80.67205811 19.75 -138.0823669
v -80.67205811 19.77083397 -138.0823669
v -78.87501526 19.77083397 -141.6092682
v -78.87501526 19.75 -141.6092682
vn -0.2138134688 0.97012043 -0.1146738753
vn -0.3974520564 -0.8943958879 -0.2051532716
vn -0.6317721605 0.7070457339 -0.3177267909
vn -0.4027763903 -0.8943597674 -0.1946582049
vn 0.3974520564 -0.8943958879 0.2051532716
vn 0.2138134688 0.97012043 0.1146738753
vn 0.6317721605 0.7070457339 0.3177267909
vn 0.4027763903 -0.8943597674 0.1946582049
f 1//1 2//2 3//3 
f 3//3 2//2 4//4 
f 5//5 6//6 4//4 
f 4//4 6//6 3//3 
f 7//7 1//1 6//6 
f 6//6 1//1 3//3 
f 8//8 5//5 2//2 
f 2//2 5//5 4//4 
f 2//2 1//1 8//8 
f 8//8 1//1 7//7 
f 8//8 7//7 5//5 
f 5//5 7//7 6//6 
