v -73.44533539 50.75 -152.3573914
v -73.40821075 50.75 -152.3384705
v -71.64829254 50.75 -155.8842773
v -71.61116791 50.75 -155.8653717
v -71.64829254 50.72916794 -155.8842773
v -71.61116791 50.72916794 -155.8653717
v -73.44533539 50.72916794 -152.3573914
v -73.40821075 50.72916794 -152.3384705
vn -0.631690979 0.7071362734 -0.3176866472
vn 0.2137768865 0.9701307416 0.1146552563
vn -0.2137777805 0.9701305032 -0.1146552339
vn 0.6317431927 0.7070780993 0.3177122474
vn -0.3973956108 -0.8944274187 -0.205125019
vn 0.402746886 -0.8943761587 0.1946439594
vn -0.4026958644 -0.8944046497 -0.1946184635
vn 0.3973963559 -0.8944271207 0.2051249444
f 1//1 2//2 3//3 
f 3//3 2//2 4//4 
f 5//5 3//3 6//6 
f 6//6 3//3 4//4 
f 7//7 1//1 5//5 
f 5//5 1//1 3//3 
f 2//2 8//8 4//4 
f 4//4 8//8 6//6 
f 8//8 2//2 7//7 
f 7//7 2//2 1//1 
f 7//7 5//5 8//8 
f 8//8 5//5 6//6 
