v 51.94568634 38.75 -113.6296005
v 51.94568634 46.75 -113.6296005
v 51.98735046 38.75 -113.6296005
v 51.98735046 46.75 -113.6296005
v 51.98735046 46.75 -113.6087646
v 51.94568634 46.75 -113.6087646
v 51.98735046 38.75 -113.6087646
v 51.94568634 38.75 -113.6087646
vn -0.7071667314 -0.003682935145 -0.7070372701
vn -0.242577225 0.001263345941 -0.970131278
vn 0.242577225 -0.001263345941 -0.970131278
vn 0.7071667314 0.003682935145 -0.7070372701
vn 0.242577225 0.001263345941 0.970131278
vn -0.7071667314 0.003682935145 0.7070372701
vn 0.7071667314 -0.003682935145 0.7070372701
vn -0.242577225 -0.001263345941 0.970131278
f 1//1 2//2 3//3 
f 3//3 2//2 4//4 
f 5//5 4//4 6//6 
f 6//6 4//4 2//2 
f 3//3 4//4 7//7 
f 7//7 4//4 5//5 
f 8//8 6//6 1//1 
f 1//1 6//6 2//2 
f 8//8 1//1 7//7 
f 7//7 1//1 3//3 
f 7//7 5//5 8//8 
f 8//8 5//5 6//6 
