v 51.98735046 38.75 -89.65042877
v 51.98735046 46.75 -89.65042877
v 51.98735046 38.75 -89.62960052
v 51.98735046 46.75 -89.62960052
v 51.94568634 46.75 -89.65042877
v 51.94568634 46.75 -89.62960052
v 51.94568634 38.75 -89.62960052
v 51.94568634 38.75 -89.65042877
vn 0.2424936295 -0.001262910548 -0.9701521993
vn 0.7070372105 0.003682260867 -0.7071667314
vn 0.7070372105 -0.003682260867 0.7071667314
vn 0.2424936295 0.001262910548 0.9701521993
vn -0.2424936295 0.001262910548 -0.9701521993
vn -0.7070372105 0.003682260867 0.7071667314
vn -0.2424936295 -0.001262910548 0.9701521993
vn -0.7070372105 -0.003682260867 -0.7071667314
f 1//1 2//2 3//3 
f 3//3 2//2 4//4 
f 5//5 6//6 2//2 
f 2//2 6//6 4//4 
f 3//3 4//4 7//7 
f 7//7 4//4 6//6 
f 8//8 5//5 1//1 
f 1//1 5//5 2//2 
f 1//1 3//3 8//8 
f 8//8 3//3 7//7 
f 7//7 6//6 8//8 
f 8//8 6//6 5//5 
