v -77.09617615 50.75 -145.1921997
v -77.09617615 55.66666794 -145.1921997
v -77.07726288 50.75 -145.2293243
v -77.07726288 55.66666794 -145.2293243
v -77.04013824 55.66666794 -145.2104187
v -77.05905151 55.66666794 -145.1732941
v -77.04013824 50.75 -145.2104187
v -77.05905151 50.75 -145.1732941
vn -0.8044341207 -0.003789926181 0.5940297842
vn -0.999964416 0.003789737122 -0.007534539327
vn -0.5939917564 -0.007578321733 -0.804435432
vn 0.007369991858 0.00757869985 -0.9999441504
vn 0.999964416 0.003789737122 0.007534539327
vn -0.007369991858 0.00757869985 0.9999441504
vn 0.8044341207 -0.003789926181 -0.5940297842
vn 0.5939917564 -0.007578321733 0.804435432
f 1//1 2//2 3//3 
f 3//3 2//2 4//4 
f 5//5 4//4 6//6 
f 6//6 4//4 2//2 
f 3//3 4//4 7//7 
f 7//7 4//4 5//5 
f 8//8 6//6 1//1 
f 1//1 6//6 2//2 
f 1//1 3//3 8//8 
f 8//8 3//3 7//7 
f 7//7 5//5 8//8 
f 8//8 5//5 6//6 
