v 51.58110046 32.66653061 -17.73386574
v 51.58110046 25.04166603 -17.73386574
v 51.66443634 32.66653061 -17.73386574
v 51.66443634 25.04166603 -17.73386574
v 51.66443634 25.04166603 -21.44206429
v 51.66443634 32.66653061 -21.44206429
v 51.58110046 32.66653061 -21.44206429
v 51.58110046 25.04166603 -21.44206429
vn -0.9998771548 0.01092814654 0.01123532653
vn -0.9989318848 -0.01091781538 0.04489881545
vn 0.9989318848 0.01091781538 0.04489881545
vn 0.9998771548 -0.01092814654 0.01123532653
vn 0.9989318848 -0.01091781538 -0.04489881545
vn 0.9998771548 0.01092814654 -0.01123532653
vn -0.9989318848 0.01091781538 -0.04489881545
vn -0.9998771548 -0.01092814654 -0.01123532653
f 1//1 2//2 3//3 
f 3//3 2//2 4//4 
f 5//5 6//6 4//4 
f 4//4 6//6 3//3 
f 7//7 1//1 6//6 
f 6//6 1//1 3//3 
f 2//2 8//8 4//4 
f 4//4 8//8 5//5 
f 2//2 1//1 8//8 
f 8//8 1//1 7//7 
f 8//8 7//7 5//5 
f 5//5 7//7 6//6 
