v -64.32839966 55.66666794 -170.1585999
v -64.32839966 50.75 -170.1585999
v -64.36552429 55.66666794 -170.1775208
v -64.36552429 50.75 -170.1775208
v -64.38444519 50.75 -170.1403961
v -64.34732056 50.75 -170.1214752
v -64.38444519 55.66666794 -170.1403961
v -64.34732056 55.66666794 -170.1214752
vn 0.9999632239 0.003790057031 0.007697063498
vn 0.8045887947 -0.003790057031 -0.5938202739
vn 0.007696897723 0.007579950616 -0.9999416471
vn -0.5938074589 -0.007579950616 -0.8045714498
vn -0.8045887947 -0.003790057031 0.5938202739
vn 0.5938074589 -0.007579950616 0.8045714498
vn -0.9999632239 0.003790057031 -0.007697063498
vn -0.007696897723 0.007579950616 0.9999416471
f 1//1 2//2 3//3 
f 3//3 2//2 4//4 
f 5//5 4//4 6//6 
f 6//6 4//4 2//2 
f 3//3 4//4 7//7 
f 7//7 4//4 5//5 
f 8//8 6//6 1//1 
f 1//1 6//6 2//2 
f 1//1 3//3 8//8 
f 8//8 3//3 7//7 
f 7//7 5//5 8//8 
f 8//8 5//5 6//6 
