v -77.04959106 38.66666794 -145.1918488
v -77.04959106 50.75 -145.1918488
v -77.0867157 38.66666794 -145.2107697
v -77.0867157 50.75 -145.2107697
v -77.07726288 50.75 -145.2293243
v -77.04013824 50.75 -145.2104187
v -77.07726288 38.66666794 -145.2293243
v -77.04013824 38.66666794 -145.2104187
vn 0.3092263937 -0.001219591475 0.9509876966
vn -0.2243728638 0.0008365832036 0.9745030403
vn -0.6565207243 -0.001672287239 0.7543061376
vn -0.9509855509 0.002438179217 0.3092257082
vn 0.2242041379 0.0008359316853 -0.9745418429
vn 0.9510102868 0.002437578747 -0.3091495633
vn -0.3089921474 -0.00121869077 -0.9510638118
vn 0.6564196944 -0.001672482234 -0.7543940544
f 1//1 2//2 3//3 
f 3//3 2//2 4//4 
f 5//5 4//4 6//6 
f 6//6 4//4 2//2 
f 3//3 4//4 7//7 
f 7//7 4//4 5//5 
f 8//8 6//6 1//1 
f 1//1 6//6 2//2 
f 1//1 3//3 8//8 
f 8//8 3//3 7//7 
f 7//7 5//5 8//8 
f 8//8 5//5 6//6 
