v -78.89321899 32.72916794 -141.6652985
v -78.89321899 32.77083206 -141.6652985
v -77.09617615 32.72916794 -145.1921997
v -77.09617615 32.77083206 -145.1921997
v -77.05905151 32.77083206 -145.1732941
v -77.05905151 32.72916794 -145.1732941
v -78.85609436 32.72916794 -141.6463928
v -78.85609436 32.77083206 -141.6463928
vn -0.6367442012 -0.707005918 -0.3077327609
vn -0.7990795374 0.4471845627 -0.4018679559
vn -0.628365159 -0.7070772648 -0.3243439198
vn -0.3942022026 0.8943744898 -0.2114211619
vn 0.7990795374 0.4471845627 0.4018679559
vn 0.6367442012 -0.707005918 0.3077327609
vn 0.628365159 -0.7070772648 0.3243439198
vn 0.3942022026 0.8943744898 0.2114211619
f 1//1 2//2 3//3 
f 3//3 2//2 4//4 
f 5//5 6//6 4//4 
f 4//4 6//6 3//3 
f 1//1 3//3 7//7 
f 7//7 3//3 6//6 
f 2//2 8//8 4//4 
f 4//4 8//8 5//5 
f 2//2 1//1 8//8 
f 8//8 1//1 7//7 
f 8//8 7//7 5//5 
f 5//5 7//7 6//6 
