v -77.84979248 2.283110142 -26.1944809
v -77.85645294 2.359186411 -26.1780014
v -77.90774536 2.283110142 -26.2178936
v -77.92549896 2.485980511 -26.17394829
v -77.91584015 2.485980511 -26.17004585
v -77.74055481 2.359186411 -26.13117599
v -77.13707733 2.526554585 -25.84518242
v -77.11577606 2.283110142 -25.89791679
v -77.73389435 2.283110142 -26.14765358
v -77.91938782 2.526554585 -26.16125679
v -76.35133362 3.217645168 -29.90329933
v -76.4092865 3.217645168 -29.92671204
v -76.4270401 3.420515537 -29.88276672
v -76.35799408 3.293721676 -29.88681984
v -76.24209595 3.293721676 -29.83999252
v -76.23543549 3.217645168 -29.85647202
v -75.6173172 3.217645168 -29.60673523
v -75.63861847 3.461089611 -29.55400085
v -76.42092896 3.461089611 -29.87007523
v -76.41738129 3.420515537 -29.87886429
vn 0.5607005954 -0.8275803328 0.02693819441
vn 0.7607753873 -0.6175591946 0.1996032894
vn -0.8707240224 -0.2843233645 -0.4012479484
vn -0.9320551753 0.02243352681 -0.3616212308
vn -0.8907034397 0.1745020151 0.4197576046
vn -0.5043332577 -0.8564459682 -0.1102191657
vn 0.1654310971 0.9227175117 0.3481737971
vn 0.2401294708 -0.9652859569 -0.1027661562
vn -0.03015604988 -0.9712833762 -0.2360067964
vn -0.1796134412 0.9667170644 0.1822008342
vn 0.8950756192 -0.3600318432 0.2630906999
vn -0.859891057 -0.2775280774 -0.4284454882
vn -0.9248352647 0.1006961763 -0.366796881
vn 0.3697502911 -0.9214333892 -0.1193532795
vn -0.1788499951 -0.5993702412 -0.7802358866
vn -0.01982521266 -0.9649674892 -0.2616193295
vn 0.6464787126 -0.7629301548 -0.001679021749
vn 0.2130599767 0.9500424862 0.2280893028
vn -0.106233418 0.9746217728 0.1970452964
vn -0.6734489202 0.2089812905 -0.7090792656
f 1//1 2//2 3//3 
f 3//3 2//2 4//4 
f 4//4 2//2 5//5 
f 5//5 2//2 6//6 
f 5//5 6//6 7//7 
f 7//7 6//6 8//8 
f 8//8 6//6 9//9 
f 7//7 10//10 5//5 
f 11//11 1//1 12//12 
f 12//12 1//1 3//3 
f 13//13 12//12 4//4 
f 4//4 12//12 3//3 
f 14//14 2//2 11//11 
f 11//11 2//2 1//1 
f 15//15 6//6 14//14 
f 14//14 6//6 2//2 
f 15//15 16//16 6//6 
f 6//6 16//16 9//9 
f 17//17 8//8 16//16 
f 16//16 8//8 9//9 
f 18//18 7//7 17//17 
f 17//17 7//7 8//8 
f 18//18 19//19 7//7 
f 7//7 19//19 10//10 
f 19//19 20//20 10//10 
f 10//10 20//20 5//5 
f 20//20 13//13 5//5 
f 5//5 13//13 4//4 
f 11//11 12//12 14//14 
f 14//14 12//12 13//13 
f 14//14 13//13 20//20 
f 19//19 18//18 20//20 
f 20//20 18//18 15//15 
f 20//20 15//15 14//14 
f 18//18 17//17 15//15 
f 15//15 17//17 16//16 
