v -73.52133942 23.72916603 132.4095154
v -73.52133942 23.77083397 132.4095154
v -71.64345551 23.72916603 128.8777313
v -71.64345551 23.77083397 128.8777313
v -71.60666656 23.77083397 128.8972931
v -71.60666656 23.72916603 128.8972931
v -73.48455048 23.72916603 132.4290771
v -73.48455048 23.77083397 132.4290771
vn -0.6311973333 -0.7070168853 -0.3189310133
vn -0.7919165492 0.4471955001 -0.4157937169
vn -0.6226164103 -0.7070889473 -0.3352223039
vn -0.3904865682 0.8943818212 -0.218177408
vn 0.7919165492 0.4471955001 0.4157937169
vn 0.6311973333 -0.7070168853 0.3189310133
vn 0.6226164103 -0.7070889473 0.3352223039
vn 0.3904865682 0.8943818212 0.218177408
f 1//1 2//2 3//3 
f 3//3 2//2 4//4 
f 5//5 6//6 4//4 
f 4//4 6//6 3//3 
f 1//1 3//3 7//7 
f 7//7 3//3 6//6 
f 2//2 8//8 4//4 
f 4//4 8//8 5//5 
f 2//2 1//1 8//8 
f 8//8 1//1 7//7 
f 8//8 7//7 5//5 
f 5//5 7//7 6//6 
