v -64.12213135 23.72916603 114.7321701
v -64.12213135 23.77083397 114.7321701
v -62.25402451 23.72916603 111.2187729
v -62.25402451 23.77083397 111.2187729
v -62.21723557 23.77083397 111.2383347
v -62.21723557 23.72916603 111.2383347
v -64.08534241 23.72916603 114.7517319
v -64.08534241 23.77083397 114.7517319
vn -0.6312328577 -0.7070161104 -0.3188624978
vn -0.7919279337 0.4471954405 -0.4157720208
vn -0.6226073503 -0.7070888877 -0.3352392316
vn -0.390463531 0.8943814039 -0.2182203084
vn 0.7919279337 0.4471954405 0.4157720208
vn 0.6312328577 -0.7070161104 0.3188624978
vn 0.6226073503 -0.7070888877 0.3352392316
vn 0.390463531 0.8943814039 0.2182203084
f 1//1 2//2 3//3 
f 3//3 2//2 4//4 
f 5//5 6//6 4//4 
f 4//4 6//6 3//3 
f 1//1 3//3 7//7 
f 7//7 3//3 6//6 
f 2//2 8//8 4//4 
f 4//4 8//8 5//5 
f 2//2 1//1 8//8 
f 8//8 1//1 7//7 
f 8//8 7//7 5//5 
f 5//5 7//7 6//6 
