v -56.5835762 23.72916603 100.6429672
v -56.5835762 32.75 100.6429672
v -56.62036896 23.72916603 100.6234055
v -56.62036896 32.75 100.6234055
v -56.61058807 32.75 100.605011
v -56.57379532 32.75 100.6245728
v -56.61058807 23.72916603 100.605011
v -56.57379532 23.72916603 100.6245728
vn 0.2923381925 -0.001633059233 0.9563136101
vn -0.2413023561 0.001120242989 0.9704493284
vn -0.6695663929 -0.002240526956 0.7427488565
vn -0.9562861323 0.003266245825 0.2924143374
vn 0.2413023561 0.001120242989 -0.9704493284
vn 0.9562861323 0.003266245825 -0.2924143374
vn -0.2923381925 -0.001633059233 -0.9563136101
vn 0.6695663929 -0.002240526956 -0.7427488565
f 1//1 2//2 3//3 
f 3//3 2//2 4//4 
f 5//5 4//4 6//6 
f 6//6 4//4 2//2 
f 3//3 4//4 7//7 
f 7//7 4//4 5//5 
f 8//8 6//6 1//1 
f 1//1 6//6 2//2 
f 1//1 3//3 8//8 
f 8//8 3//3 7//7 
f 7//7 5//5 8//8 
f 8//8 5//5 6//6 
