v -49.07203293 23.72916603 86.51580811
v -49.07203293 32.75 86.51580811
v -49.10882187 23.72916603 86.49624634
v -49.10882187 32.75 86.49624634
v -49.09904099 32.75 86.47785187
v -49.06225204 32.75 86.49741364
v -49.09904099 23.72916603 86.47785187
v -49.06225204 23.72916603 86.49741364
vn 0.2923563123 -0.001633028267 0.9563080668
vn -0.2413231581 0.001120248926 0.9704441428
vn -0.6696105599 -0.002240493661 0.7427090406
vn -0.9563042521 0.003266043495 0.2923551202
vn 0.2413231581 0.001120248926 -0.9704441428
vn 0.9563042521 0.003266043495 -0.2923551202
vn -0.2923563123 -0.001633028267 -0.9563080668
vn 0.6696105599 -0.002240493661 -0.7427090406
f 1//1 2//2 3//3 
f 3//3 2//2 4//4 
f 5//5 4//4 6//6 
f 6//6 4//4 2//2 
f 3//3 4//4 7//7 
f 7//7 4//4 5//5 
f 8//8 6//6 1//1 
f 1//1 6//6 2//2 
f 1//1 3//3 8//8 
f 8//8 3//3 7//7 
f 7//7 5//5 8//8 
f 8//8 5//5 6//6 
