v -71.60666656 23.72916603 128.8972931
v -71.60666656 32.75 128.8972931
v -71.64345551 23.72916603 128.8777313
v -71.64345551 32.75 128.8777313
v -71.63367462 32.75 128.8593292
v -71.59688568 32.75 128.878891
v -71.63367462 23.72916603 128.8593292
v -71.59688568 23.72916603 128.878891
vn 0.2925930917 -0.001633432694 0.9562356472
vn -0.241239503 0.001120635192 0.9704649448
vn -0.669659555 -0.002241084818 0.7426648736
vn -0.9563263655 0.003266290762 0.2922827601
vn 0.241239503 0.001120635192 -0.9704649448
vn 0.9563263655 0.003266290762 -0.2922827601
vn -0.2925930917 -0.001633432694 -0.9562356472
vn 0.669659555 -0.002241084818 -0.7426648736
f 1//1 2//2 3//3 
f 3//3 2//2 4//4 
f 5//5 4//4 6//6 
f 6//6 4//4 2//2 
f 3//3 4//4 7//7 
f 7//7 4//4 5//5 
f 8//8 6//6 1//1 
f 1//1 6//6 2//2 
f 1//1 3//3 8//8 
f 8//8 3//3 7//7 
f 7//7 5//5 8//8 
f 8//8 5//5 6//6 
