v -40.98490143 23.75 18.09580612
v -40.98490143 32.75 18.09580612
v -41.47777176 23.75 18.26551437
v -41.47777176 32.75 18.26551437
v -41.50392914 32.75 18.18820572
v -41.50392914 23.75 18.18820572
v -41.49105072 32.75 18.21244049
v -41.49105072 23.75 18.21244049
v -41.48225403 23.75 18.23843765
v -41.48225403 32.75 18.23843765
v -41.07990265 32.75 17.81990051
v -41.57236099 32.75 17.98946762
v -41.57236099 23.75 17.98946762
v -41.07990265 23.75 17.81990051
vn 0.9212046862 -0.04305700585 0.3866885602
vn 0.5680951476 0.03113538772 0.8223736882
vn 0.3008138239 -0.001509494497 0.9536817074
vn 0.2243915498 0.00304354378 0.974494338
vn -0.9419144988 0.03058533743 0.3344572186
vn -0.9332202673 -0.05169386044 0.3555666506
vn -0.9177987576 0.02837411128 0.396030724
vn -0.9166923761 -0.05667981505 0.3955533206
vn -0.9696972966 -0.02871589921 0.2426159978
vn -0.9685001373 0.05736089125 0.2423164546
vn 0.488553822 0.02158334292 -0.8722667694
vn -0.5059664249 0.0273272898 -0.8621201515
vn -0.8463996649 -0.0433623977 -0.5307798982
vn -0.05844223872 -0.01560846902 -0.9981687665
f 1//1 2//2 3//3 
f 3//3 2//2 4//4 
f 5//5 6//6 7//7 
f 7//7 6//6 8//8 
f 7//7 8//8 9//9 
f 3//3 4//4 9//9 
f 9//9 4//4 10//10 
f 9//9 10//10 7//7 
f 11//11 12//12 2//2 
f 2//2 12//12 5//5 
f 2//2 5//5 7//7 
f 7//7 10//10 2//2 
f 2//2 10//10 4//4 
f 6//6 5//5 13//13 
f 13//13 5//5 12//12 
f 14//14 11//11 1//1 
f 1//1 11//11 2//2 
f 14//14 1//1 13//13 
f 13//13 1//1 6//6 
f 6//6 1//1 8//8 
f 8//8 1//1 9//9 
f 9//9 1//1 3//3 
f 13//13 12//12 14//14 
f 14//14 12//12 11//11 
