v -41.4773407 24.04166603 18.2653656
v -40.27007675 24.04166603 21.77153778
v -40.98488235 24.04166603 18.09579849
v -39.77761841 24.04166603 21.60197067
v -40.98488235 23.84370804 18.09579849
v -39.77761841 23.84370804 21.60197067
v -41.01200485 23.84370804 18.10513878
v -39.80474091 23.84370804 21.61131096
v -39.80474091 23.75 21.61131096
v -41.01200485 23.75 18.10513878
v -39.80966187 23.78109169 21.61300468
v -41.01692581 23.78109169 18.1068325
v -41.01692581 23.81261635 18.1068325
v -39.80966187 23.81261635 21.61300468
v -41.31115341 23.75 18.20814133
v -40.10388947 23.75 21.71431541
v -40.27007675 23.83333397 21.77153778
v -40.10388947 23.83333397 21.71431541
v -41.4773407 23.83333397 18.2653656
v -41.31115341 23.83333397 18.20814133
vn -0.3729618788 0.9262261987 0.0548126772
vn -0.3395912647 0.9279133081 0.1538006812
vn 0.3217254877 0.9339075089 -0.1559150666
vn 0.3624201119 0.9313663244 -0.03476238251
vn 0.9057048559 -0.2783540785 -0.3197150528
vn 0.9442961216 -0.07226409018 -0.3210650682
vn 0.446438849 -0.6704195142 -0.5926465988
vn 0.6955913901 -0.7184245586 -0.00433091959
vn 0.09676173329 -0.9950097799 -0.02434650064
vn 0.09262198955 -0.995036602 -0.03637772426
vn 0.9694876671 0.08243522793 -0.2308637053
vn 0.8622395396 0.08128657192 -0.4999354482
vn 0.927761972 -0.08275464177 -0.3638810515
vn 0.966237247 -0.08253774047 -0.2440759391
vn -0.4493001699 -0.88442415 0.1261875331
vn -0.1185221151 -0.9913259149 0.05679257959
vn -0.4740563333 -0.8600189686 0.1887801439
vn -0.5379682183 -0.6984564662 0.4719626606
vn -0.878079772 -0.3885766268 0.2792564034
vn -0.2747276127 -0.9561331272 -0.1016573012
f 1//1 2//2 3//3 
f 3//3 2//2 4//4 
f 5//5 3//3 6//6 
f 6//6 3//3 4//4 
f 7//7 5//5 8//8 
f 8//8 5//5 6//6 
f 9//9 10//10 11//11 
f 11//11 10//10 12//12 
f 11//11 12//12 13//13 
f 7//7 8//8 13//13 
f 13//13 8//8 14//14 
f 13//13 14//14 11//11 
f 15//15 10//10 16//16 
f 16//16 10//10 9//9 
f 17//17 18//18 2//2 
f 2//2 18//18 4//4 
f 4//4 18//18 8//8 
f 4//4 8//8 6//6 
f 16//16 11//11 18//18 
f 18//18 11//11 14//14 
f 18//18 14//14 8//8 
f 16//16 9//9 11//11 
f 1//1 19//19 2//2 
f 2//2 19//19 17//17 
f 20//20 15//15 18//18 
f 18//18 15//15 16//16 
f 19//19 1//1 20//20 
f 20//20 1//1 3//3 
f 20//20 3//3 7//7 
f 7//7 3//3 5//5 
f 7//7 13//13 20//20 
f 20//20 13//13 12//12 
f 20//20 12//12 15//15 
f 15//15 12//12 10//10 
f 19//19 20//20 17//17 
f 17//17 20//20 18//18 
