v 31.47887802 46.72916794 75.28437805
v 31.47887802 46.77083206 75.28437805
v 29.59012413 46.72916794 78.76302338
v 29.59012413 46.77083206 78.76302338
v 29.55350685 46.77083206 78.74314117
v 29.55350685 46.72916794 78.74314117
v 31.44226074 46.72916794 75.26449585
v 31.44226074 46.77083206 75.26449585
vn 0.6284303665 -0.7070515752 0.3242736161
vn 0.7882647514 0.4472320974 0.422637105
vn 0.6196168065 -0.7071251273 0.3406597674
vn 0.3884885907 0.8943993449 0.2216448188
vn -0.7882647514 0.4472320974 -0.422637105
vn -0.6284303665 -0.7070515752 -0.3242736161
vn -0.6196168065 -0.7071251273 -0.3406597674
vn -0.3884885907 0.8943993449 -0.2216448188
f 1//1 2//2 3//3 
f 3//3 2//2 4//4 
f 5//5 6//6 4//4 
f 4//4 6//6 3//3 
f 1//1 3//3 7//7 
f 7//7 3//3 6//6 
f 2//2 8//8 4//4 
f 4//4 8//8 5//5 
f 2//2 1//1 8//8 
f 8//8 1//1 7//7 
f 8//8 7//7 5//5 
f 5//5 7//7 6//6 
