v 21.95558357 46.72916794 92.82409668
v 21.95558357 55.66666794 92.82409668
v 21.93570328 46.72916794 92.86071777
v 21.93570328 55.66666794 92.86071777
v 21.899086 55.66666794 92.84083557
v 21.91896629 55.66666794 92.80422211
v 21.899086 46.72916794 92.84083557
v 21.91896629 46.72916794 92.80422211
vn 0.8197588325 -0.002085042419 -0.5727051497
vn 0.9994285703 0.00208485988 0.03373736888
vn 0.572704196 -0.004169478081 0.8197515011
vn -0.03373783827 0.004169624299 0.9994220138
vn -0.9994284511 0.002084877109 -0.03374012932
vn 0.03365604207 0.00416963594 -0.9994247556
vn -0.8197856545 -0.002084749285 0.5726667047
vn -0.5726491809 -0.004169673193 -0.8197899461
f 1//1 2//2 3//3 
f 3//3 2//2 4//4 
f 5//5 4//4 6//6 
f 6//6 4//4 2//2 
f 3//3 4//4 7//7 
f 7//7 4//4 5//5 
f 8//8 6//6 1//1 
f 1//1 6//6 2//2 
f 1//1 3//3 8//8 
f 8//8 3//3 7//7 
f 7//7 5//5 8//8 
f 8//8 5//5 6//6 
