v -37.70026016 32.75 29.45053482
v -37.70026016 23.75 29.45053482
v -37.64847946 32.75 29.65424538
v -37.64847946 23.75 29.65424538
v -37.62879562 23.75 29.73344994
v -37.62879562 32.75 29.73344994
v -37.63102341 23.75 29.70609474
v -37.63102341 32.75 29.70609474
v -37.63764191 32.75 29.67946053
v -37.63764191 23.75 29.67946053
v -37.19548416 23.75 29.32221794
v -37.12359238 23.75 29.60502625
v -37.12359238 32.75 29.60502625
v -37.19548416 32.75 29.32221794
vn -0.4330388904 0.02732725069 -0.9009609222
vn -0.7996692657 -0.04336204752 -0.5988729596
vn -0.9663205743 0.03058546595 0.2555173337
vn -0.9593920708 -0.05169380084 0.2772986889
vn 0.2210237384 -0.001509501017 0.9752672315
vn 0.1431425512 0.003043583827 0.9896973968
vn -0.9864336848 -0.02871570364 0.1616293192
vn -0.9852158427 0.05736050382 0.1614297628
vn -0.9473491907 0.02837359346 0.3189427555
vn -0.9462072253 -0.05667878315 0.3185583055
vn 0.02419329993 -0.01560843177 -0.9995854497
vn 0.8861227632 -0.04305686802 0.4614461362
vn 0.4982362092 0.03113520704 0.8664821386
vn 0.5589227676 0.02158320136 -0.8289387822
f 1//1 2//2 3//3 
f 3//3 2//2 4//4 
f 5//5 6//6 7//7 
f 7//7 6//6 8//8 
f 7//7 8//8 9//9 
f 3//3 4//4 9//9 
f 9//9 4//4 10//10 
f 9//9 10//10 7//7 
f 11//11 12//12 2//2 
f 2//2 12//12 4//4 
f 4//4 12//12 10//10 
f 10//10 12//12 7//7 
f 7//7 12//12 5//5 
f 6//6 5//5 13//13 
f 13//13 5//5 12//12 
f 14//14 11//11 1//1 
f 1//1 11//11 2//2 
f 14//14 1//1 13//13 
f 13//13 1//1 3//3 
f 13//13 3//3 9//9 
f 9//9 8//8 13//13 
f 13//13 8//8 6//6 
f 13//13 12//12 14//14 
f 14//14 12//12 11//11 
