v 4.777868748 46.72916794 124.4615173
v 4.777868748 55.66666794 124.4615173
v 4.757987022 46.72916794 124.4981308
v 4.757987022 55.66666794 124.4981308
v 4.721369743 55.66666794 124.4782486
v 4.741251469 55.66666794 124.4416351
v 4.721369743 46.72916794 124.4782486
v 4.741251469 46.72916794 124.4416351
vn 0.8197928667 -0.002084801672 -0.5726563334
vn 0.9994274378 0.00208490924 0.03377080336
vn 0.5725797415 -0.004169678781 0.8198384643
vn -0.03381911293 0.004169464111 0.9994192719
vn -0.9994274378 0.00208490924 -0.03377080336
vn 0.03381911293 0.004169464111 -0.9994192719
vn -0.8197928667 -0.002084801672 0.5726563334
vn -0.5725797415 -0.004169678781 -0.8198384643
f 1//1 2//2 3//3 
f 3//3 2//2 4//4 
f 5//5 4//4 6//6 
f 6//6 4//4 2//2 
f 3//3 4//4 7//7 
f 7//7 4//4 5//5 
f 8//8 6//6 1//1 
f 1//1 6//6 2//2 
f 1//1 3//3 8//8 
f 8//8 3//3 7//7 
f 7//7 5//5 8//8 
f 8//8 5//5 6//6 
