v -36.71625137 23.83333397 33.32140732
v -36.54442215 23.83333397 33.28394318
v -36.71625137 24.04166603 33.32140732
v -36.20707321 24.04166603 33.21038437
v -36.23511887 23.84370804 33.21649933
v -36.20707321 23.84370804 33.21038437
v -36.54442215 23.75 33.28394318
v -36.24020767 23.78109169 33.21760941
v -36.24020767 23.81261635 33.21760941
v -36.23511887 23.75 33.21649933
v -37.62725449 24.04166603 29.73765373
v -37.62725449 23.83333397 29.73765373
v -37.4583931 23.83333397 29.68851662
v -37.4583931 23.75 29.68851662
v -37.15443039 23.75 29.60006523
v -37.15942764 23.78109169 29.60151863
v -37.15942764 23.81261635 29.60151863
v -37.15443039 23.84370804 29.60006523
v -37.1268692 23.84370804 29.59204483
v -37.1268692 24.04166603 29.59204483
vn -0.4880216718 -0.8600172997 0.1490136832
vn -0.5805687308 -0.6941918135 0.4254851937
vn -0.3506547213 0.9281190634 0.1250450313
vn 0.3614897728 0.9323649406 -0.004561307374
vn 0.6894317865 -0.7223395109 0.05393958092
vn 0.9675784111 -0.07227855921 -0.2420078665
vn -0.1229492128 -0.9913091063 0.04679412022
vn 0.9851790667 0.08269868791 -0.1502769887
vn 0.9830280542 -0.08279260993 -0.1637107283
vn 0.0981521979 -0.9950386882 -0.0162528865
vn -0.3782384992 0.9253917933 0.02420050278
vn -0.8982638717 -0.3883055151 0.2057688087
vn -0.271543324 -0.9546160698 -0.1223617718
vn -0.45888111 -0.8840438724 0.08885116875
vn 0.09545198828 -0.9950223565 -0.02862587199
vn 0.9005001187 0.08178137988 -0.4270963967
vn 0.9546925426 -0.08286096901 -0.285825491
vn 0.4855209589 -0.6769779325 -0.5531457663
vn 0.9290218949 -0.2783714831 -0.2437777817
vn 0.3337329924 0.9338297248 -0.1287802309
f 1//1 2//2 3//3 
f 3//3 2//2 4//4 
f 4//4 2//2 5//5 
f 4//4 5//5 6//6 
f 7//7 8//8 2//2 
f 2//2 8//8 9//9 
f 2//2 9//9 5//5 
f 7//7 10//10 8//8 
f 11//11 12//12 3//3 
f 3//3 12//12 1//1 
f 12//12 13//13 1//1 
f 1//1 13//13 2//2 
f 13//13 14//14 2//2 
f 2//2 14//14 7//7 
f 14//14 15//15 7//7 
f 7//7 15//15 10//10 
f 10//10 15//15 8//8 
f 8//8 15//15 16//16 
f 8//8 16//16 17//17 
f 18//18 5//5 17//17 
f 17//17 5//5 9//9 
f 17//17 9//9 8//8 
f 18//18 19//19 5//5 
f 5//5 19//19 6//6 
f 19//19 20//20 6//6 
f 6//6 20//20 4//4 
f 11//11 3//3 20//20 
f 20//20 3//3 4//4 
f 12//12 11//11 13//13 
f 13//13 11//11 20//20 
f 13//13 20//20 18//18 
f 18//18 20//20 19//19 
f 18//18 17//17 13//13 
f 13//13 17//17 16//16 
f 13//13 16//16 14//14 
f 14//14 16//16 15//15 
