v 4.757987022 46.75 124.4981308
v 4.721369743 46.75 124.4782486
v 2.869233608 46.75 127.9767838
v 2.832616329 46.75 127.9569016
v 2.869233608 46.72916794 127.9767838
v 2.832616329 46.72916794 127.9569016
v 4.757987022 46.72916794 124.4981308
v 4.721369743 46.72916794 124.4782486
vn 0.6231687069 0.7071250677 0.3341181576
vn -0.2106922716 0.9701336026 -0.1202061921
vn 0.2106922716 0.9701336026 0.1202061921
vn -0.6231687069 0.7071250677 -0.3341181576
vn 0.3918741941 -0.8944364786 0.2154483944
vn -0.3974730968 -0.8943992257 -0.205097869
vn 0.3974730968 -0.8943992257 0.205097869
vn -0.3918741941 -0.8944364786 -0.2154483944
f 1//1 2//2 3//3 
f 3//3 2//2 4//4 
f 5//5 3//3 6//6 
f 6//6 3//3 4//4 
f 7//7 1//1 5//5 
f 5//5 1//1 3//3 
f 2//2 8//8 4//4 
f 4//4 8//8 6//6 
f 8//8 2//2 7//7 
f 7//7 2//2 1//1 
f 7//7 5//5 8//8 
f 8//8 5//5 6//6 
