v -35.4744072 32.45819855 40.90769577
v -35.4744072 24.04166603 40.90769577
v -35.39163971 32.45819855 40.89801788
v -35.39163971 24.04166603 40.89801788
v -35.80069733 24.04166603 37.39983368
v -35.80069733 32.45819855 37.39983368
v -35.88346863 32.45819855 37.40951157
v -35.88346863 24.04166603 37.40951157
vn -0.9917404056 0.009899960831 0.1278787702
vn -0.9864394665 -0.01977627166 0.1629297286
vn 0.9975633621 0.009889367968 -0.06906226277
vn 0.9945247173 -0.004950051196 -0.1043843403
vn 0.9864392877 -0.01977626793 -0.1629307866
vn 0.9917404652 0.009899961762 -0.1278782338
vn -0.9975634217 0.009889819659 0.06906118244
vn -0.9945246577 -0.004950276576 0.1043848768
f 1//1 2//2 3//3 
f 3//3 2//2 4//4 
f 5//5 6//6 4//4 
f 4//4 6//6 3//3 
f 7//7 1//1 6//6 
f 6//6 1//1 3//3 
f 8//8 5//5 2//2 
f 2//2 5//5 4//4 
f 2//2 1//1 8//8 
f 8//8 1//1 7//7 
f 8//8 7//7 5//5 
f 5//5 7//7 6//6 
