v 27.68148994 46.75 82.27829742
v 27.68148994 55.66666794 82.27829742
v 27.66160774 46.75 82.31491089
v 27.66160774 55.66666794 82.31491089
v 27.62499046 55.66666794 82.29502869
v 27.64487267 55.66666794 82.25841522
v 27.62499046 46.75 82.29502869
v 27.64487267 46.75 82.25841522
vn 0.8197952509 -0.002089689951 -0.572652936
vn 0.9994270802 0.002089790767 0.03378102928
vn 0.5725749135 -0.004179408308 0.8198417425
vn -0.03381893784 0.004179206211 0.9994192123
vn -0.9994270802 0.002089790767 -0.03378102928
vn 0.03381893784 0.004179206211 -0.9994192123
vn -0.8197952509 -0.002089689951 0.572652936
vn -0.5725749135 -0.004179408308 -0.8198417425
f 1//1 2//2 3//3 
f 3//3 2//2 4//4 
f 5//5 4//4 6//6 
f 6//6 4//4 2//2 
f 3//3 4//4 7//7 
f 7//7 4//4 5//5 
f 8//8 6//6 1//1 
f 1//1 6//6 2//2 
f 1//1 3//3 8//8 
f 8//8 3//3 7//7 
f 7//7 5//5 8//8 
f 8//8 5//5 6//6 
