v 29.57024193 46.75 78.79964447
v 29.53362465 46.75 78.77976227
v 27.68148994 46.75 82.27829742
v 27.64487267 46.75 82.25841522
v 27.68148994 46.72916794 82.27829742
v 27.64487267 46.72916794 82.25841522
v 29.57024193 46.72916794 78.79964447
v 29.53362465 46.72916794 78.77976227
vn 0.6231687665 0.7071250677 0.334117949
vn -0.2106923163 0.9701336026 -0.1202061325
vn 0.2106923163 0.9701336026 0.1202061325
vn -0.6231687665 0.7071250677 -0.334117949
vn 0.3918742836 -0.8944364786 0.2154482752
vn -0.3974731565 -0.8943992257 -0.2050977349
vn 0.3974731565 -0.8943992257 0.2050977349
vn -0.3918742836 -0.8944364786 -0.2154482752
f 1//1 2//2 3//3 
f 3//3 2//2 4//4 
f 5//5 3//3 6//6 
f 6//6 3//3 4//4 
f 7//7 1//1 5//5 
f 5//5 1//1 3//3 
f 2//2 8//8 4//4 
f 4//4 8//8 6//6 
f 8//8 2//2 7//7 
f 7//7 2//2 1//1 
f 7//7 5//5 8//8 
f 8//8 5//5 6//6 
