v -0.9480364323 38.75 135.0073242
v -0.9480364323 46.75 135.0073242
v -0.9579772353 38.75 135.0256348
v -0.9579772353 46.75 135.0256348
v -0.9846538305 46.75 134.987442
v -0.9945946336 46.75 135.0057526
v -0.9945946336 38.75 135.0057526
v -0.9846538305 38.75 134.987442
vn 0.6760731936 -0.002526559168 -0.7368301153
vn 0.9588189721 0.003682879033 -0.2839939594
vn 0.2840636075 -0.001841549878 0.9588036537
vn -0.2497597933 0.001263315207 0.9683070183
vn 0.2497597933 0.001263315207 -0.9683070183
vn -0.9588189721 0.003682879033 0.2839939594
vn -0.6760731936 -0.002526559168 0.7368301153
vn -0.2840636075 -0.001841549878 -0.9588036537
f 1//1 2//2 3//3 
f 3//3 2//2 4//4 
f 5//5 6//6 2//2 
f 2//2 6//6 4//4 
f 3//3 4//4 7//7 
f 7//7 4//4 6//6 
f 8//8 5//5 1//1 
f 1//1 5//5 2//2 
f 8//8 1//1 7//7 
f 7//7 1//1 3//3 
f 7//7 6//6 8//8 
f 8//8 6//6 5//5 
