v 51.57202911 38.75 -49.44206238
v 51.57202911 38.83333206 -49.44206238
v 51.57202911 38.75 -45.73386383
v 51.57202911 38.83333206 -45.73386383
v 51.25564575 38.75 -49.44206238
v 51.25564575 38.75 -45.73386383
v 51.25564575 38.84370804 -45.73386383
v 51.25564575 38.84370804 -49.44206238
v 51.260849 38.81261826 -45.73386383
v 51.260849 38.81261826 -49.44206238
v 51.260849 38.7810936 -49.44206238
v 51.260849 38.7810936 -45.73386383
v 51.22695541 38.84370804 -49.44206238
v 51.22695541 38.84370804 -45.73386383
v 51.22695541 39.04166794 -49.44206238
v 51.22695541 39.04166794 -45.73386383
v 51.74779129 38.83333206 -45.73386383
v 51.74779129 39.04166794 -45.73386383
v 51.74779129 38.83333206 -49.44206238
v 51.74779129 39.04166794 -49.44206238
vn 0.2545921504 -0.9665994048 -0.02946958318
vn 0.4219674468 -0.8900045753 -0.1727291793
vn 0.2546750903 -0.9669143558 0.01473959256
vn 0.404263109 -0.8526629806 0.3309640884
vn -0.04948539287 -0.9987659454 -0.004222091753
vn -0.199162364 -0.9799296856 0.008496263064
vn -0.4261092842 -0.8577606082 0.2875372171
vn -0.814005971 -0.5118249655 -0.274644345
vn -0.9956852794 -0.08274123818 0.04200844839
vn -0.9930600524 -0.08252308518 -0.08379538357
vn -0.9918326139 0.08241606504 -0.09734320641
vn -0.9780287743 0.08126903325 0.1919768602
vn -0.9896529913 -0.1434304565 -0.003828473389
vn -0.9896312356 -0.1434272975 0.007656778675
vn -0.3539944887 0.93136549 -0.0851245448
vn -0.3549603224 0.9339066744 0.04267840087
vn 0.7642045021 -0.6447197199 0.01811098307
vn 0.3704924285 0.9262242913 0.06959829479
vn 0.7638287544 -0.6444027424 -0.03620415926
vn 0.3711672723 0.9279113412 -0.03486253321
f 1//1 2//2 3//3 
f 3//3 2//2 4//4 
f 1//1 3//3 5//5 
f 5//5 3//3 6//6 
f 7//7 8//8 9//9 
f 9//9 8//8 10//10 
f 9//9 10//10 11//11 
f 5//5 6//6 11//11 
f 11//11 6//6 12//12 
f 11//11 12//12 9//9 
f 8//8 7//7 13//13 
f 13//13 7//7 14//14 
f 15//15 13//13 16//16 
f 16//16 13//13 14//14 
f 17//17 18//18 4//4 
f 4//4 18//18 16//16 
f 4//4 16//16 7//7 
f 7//7 16//16 14//14 
f 7//7 9//9 4//4 
f 4//4 9//9 12//12 
f 4//4 12//12 3//3 
f 3//3 12//12 6//6 
f 19//19 17//17 2//2 
f 2//2 17//17 4//4 
f 15//15 16//16 20//20 
f 20//20 16//16 18//18 
f 19//19 2//2 20//20 
f 20//20 2//2 15//15 
f 15//15 2//2 8//8 
f 15//15 8//8 13//13 
f 1//1 11//11 2//2 
f 2//2 11//11 10//10 
f 2//2 10//10 8//8 
f 1//1 5//5 11//11 
f 19//19 20//20 17//17 
f 17//17 20//20 18//18 
