v 51.94568634 46.72916794 -5.650431156
v 51.94568634 55.66666794 -5.650431156
v 51.98735046 46.72916794 -5.650431156
v 51.98735046 55.66666794 -5.650431156
v 51.98735046 55.66666794 -5.608764648
v 51.94568634 55.66666794 -5.608764648
v 51.98735046 46.72916794 -5.608764648
v 51.94568634 46.72916794 -5.608764648
vn -0.8944296241 -0.004169580527 -0.4471892416
vn -0.4472331107 0.002084875479 -0.8944150209
vn 0.4472331107 -0.002084875479 -0.8944150209
vn 0.8944296241 0.004169580527 -0.4471892416
vn 0.4472331107 0.002084875479 0.8944150209
vn -0.8944296241 0.004169580527 0.4471892416
vn 0.8944296241 -0.004169580527 0.4471892416
vn -0.4472331107 -0.002084875479 0.8944150209
f 1//1 2//2 3//3 
f 3//3 2//2 4//4 
f 5//5 4//4 6//6 
f 6//6 4//4 2//2 
f 3//3 4//4 7//7 
f 7//7 4//4 5//5 
f 8//8 6//6 1//1 
f 1//1 6//6 2//2 
f 8//8 1//1 7//7 
f 7//7 1//1 3//3 
f 7//7 5//5 8//8 
f 8//8 5//5 6//6 
