v 23.69351959 38.75 89.12120819
v 23.69351959 46.75 89.12120819
v 23.59322548 38.75 89.30593109
v 23.59322548 46.75 89.30593109
v 23.55466652 46.75 89.37786102
v 23.55466652 38.75 89.37786102
v 23.56355667 46.75 89.35189056
v 23.56355667 38.75 89.35189056
v 23.57652283 38.75 89.32770538
v 23.57652283 46.75 89.32770538
v 23.2358036 46.75 88.87268829
v 23.09656715 46.75 89.1291275
v 23.09656715 38.75 89.1291275
v 23.2358036 38.75 88.87268829
vn 0.6412581205 -0.03074029647 -0.7667092681
vn 0.9221680164 0.04877015203 -0.3837025166
vn 0.8736906052 -0.03440426663 0.4852639139
vn 0.8614279628 0.05813572556 0.5045414567
vn -0.4540970922 0.00169846171 0.8909506202
vn -0.3821454048 -0.003424565541 0.9240958691
vn 0.9162604809 0.03230178356 0.3992785513
vn 0.9148297906 -0.06450269371 0.3986550868
vn 0.8397225738 -0.03191712871 0.5420768857
vn 0.8384423256 0.06373693794 0.5412504673
vn 0.2223806828 0.01755880564 -0.9748017788
vn -0.9721543789 0.04842734337 0.2292829752
vn -0.6959510446 -0.03502276912 0.7172346711
vn -0.3378620446 -0.02427955344 -0.9408824444
f 1//1 2//2 3//3 
f 3//3 2//2 4//4 
f 5//5 6//6 7//7 
f 7//7 6//6 8//8 
f 7//7 8//8 9//9 
f 3//3 4//4 9//9 
f 9//9 4//4 10//10 
f 9//9 10//10 7//7 
f 11//11 12//12 2//2 
f 2//2 12//12 4//4 
f 4//4 12//12 10//10 
f 10//10 12//12 7//7 
f 7//7 12//12 5//5 
f 6//6 5//5 13//13 
f 13//13 5//5 12//12 
f 14//14 11//11 1//1 
f 1//1 11//11 2//2 
f 14//14 1//1 13//13 
f 13//13 1//1 3//3 
f 13//13 3//3 9//9 
f 9//9 8//8 13//13 
f 13//13 8//8 6//6 
f 13//13 12//12 14//14 
f 14//14 12//12 11//11 
