v 51.74781418 46.66838837 -33.92139816
v 51.74781418 46.45819855 -33.92139816
v 51.74781418 46.66838837 -37.33779526
v 51.74781418 46.45819855 -37.33779526
v 51.74824905 46.75 -37.33779526
v 51.74824905 46.75 -33.92139816
v 51.74367142 46.72293854 -37.33779526
v 51.74367142 46.72293854 -33.92139816
v 51.74352264 46.69549561 -33.92139816
v 51.74352264 46.69549561 -37.33779526
v 51.2269783 46.45819855 -37.33779526
v 51.2269783 46.75 -37.33779526
v 51.2269783 46.75 -33.92139816
v 51.2269783 46.45819855 -33.92139816
vn 0.9467815757 0.01712261327 0.3214209676
vn 0.3740846813 -0.9269560575 0.02851494215
vn 0.9857408404 0.01782719418 -0.1673235893
vn 0.373629272 -0.9258275628 -0.05696045235
vn 0.02606261894 0.9996523857 -0.003976610489
vn 0.1050963029 0.9944297075 0.008017749526
vn 0.9934204817 -0.08614557236 -0.07546323538
vn 0.9850418568 -0.0854190141 0.1496535391
vn 0.9943525791 0.07551516593 0.07456851006
vn 0.9861612916 0.07489308715 -0.1479084641
vn -0.4877725542 -0.8706243038 -0.0639629662
vn -0.4862701893 0.8686674237 -0.09464777261
vn -0.4879119992 0.8716003895 0.04748367146
vn -0.4848064184 -0.8653300405 0.1271480173
f 1//1 2//2 3//3 
f 3//3 2//2 4//4 
f 5//5 6//6 7//7 
f 7//7 6//6 8//8 
f 7//7 8//8 9//9 
f 1//1 3//3 9//9 
f 9//9 3//3 10//10 
f 9//9 10//10 7//7 
f 4//4 11//11 3//3 
f 3//3 11//11 12//12 
f 3//3 12//12 10//10 
f 10//10 12//12 7//7 
f 7//7 12//12 5//5 
f 6//6 5//5 13//13 
f 13//13 5//5 12//12 
f 14//14 11//11 2//2 
f 2//2 11//11 4//4 
f 2//2 1//1 14//14 
f 14//14 1//1 13//13 
f 13//13 1//1 9//9 
f 13//13 9//9 8//8 
f 8//8 6//6 13//13 
f 14//14 13//13 11//11 
f 11//11 13//13 12//12 
