v 51.74781418 46.66838837 -17.92140007
v 51.74781418 46.45819855 -17.92140007
v 51.74781418 46.66838837 -21.44206429
v 51.74781418 46.45819855 -21.44206429
v 51.74824905 46.75 -21.44206429
v 51.74824905 46.75 -17.92140007
v 51.74367142 46.72293854 -21.44206429
v 51.74367142 46.72293854 -17.92140007
v 51.74352264 46.69549561 -17.92140007
v 51.74352264 46.69549561 -21.44206429
v 51.2269783 46.45819855 -21.44206429
v 51.2269783 46.75 -21.44206429
v 51.2269783 46.75 -17.92140007
v 51.2269783 46.45819855 -17.92140007
vn 0.9496484995 0.01717446186 0.312846303
vn 0.3740935624 -0.9269780517 0.02767110616
vn 0.9865470529 0.01784177497 -0.1625009775
vn 0.3736646473 -0.9259152412 -0.05527875945
vn 0.02606263012 0.9996528625 -0.003858841956
vn 0.1050965041 0.9944316149 0.007780312095
vn 0.9935855865 -0.08615989238 -0.07324050367
vn 0.9856861234 -0.085474886 0.145316422
vn 0.9945139289 0.07552742213 0.07237184793
vn 0.9867913723 0.07494094223 -0.143619746
vn -0.4878307879 -0.8707282543 -0.06207606941
vn -0.486397326 0.868894577 -0.0918687284
vn -0.4879440963 0.8716577291 0.04608043656
vn -0.4850352407 -0.8657385111 0.1234406829
f 1//1 2//2 3//3 
f 3//3 2//2 4//4 
f 5//5 6//6 7//7 
f 7//7 6//6 8//8 
f 7//7 8//8 9//9 
f 1//1 3//3 9//9 
f 9//9 3//3 10//10 
f 9//9 10//10 7//7 
f 4//4 11//11 3//3 
f 3//3 11//11 12//12 
f 3//3 12//12 10//10 
f 10//10 12//12 7//7 
f 7//7 12//12 5//5 
f 6//6 5//5 13//13 
f 13//13 5//5 12//12 
f 14//14 11//11 2//2 
f 2//2 11//11 4//4 
f 2//2 1//1 14//14 
f 14//14 1//1 13//13 
f 13//13 1//1 9//9 
f 13//13 9//9 8//8 
f 8//8 6//6 13//13 
f 14//14 13//13 11//11 
f 11//11 13//13 12//12 
