v 51.74781418 38.75 -21.73386574
v 51.74781418 46.75 -21.73386574
v 51.74781418 38.75 -21.52367401
v 51.74781418 46.75 -21.52367401
v 51.74824905 46.75 -21.44206429
v 51.74824905 38.75 -21.44206429
v 51.74367142 46.75 -21.46912384
v 51.74367142 38.75 -21.46912384
v 51.74352264 38.75 -21.49656677
v 51.74352264 46.75 -21.49656677
v 51.2269783 46.75 -21.73386574
v 51.2269783 46.75 -21.44206429
v 51.2269783 38.75 -21.44206429
v 51.2269783 38.75 -21.73386574
vn 0.1977800727 -0.01287636906 -0.9801618457
vn 0.6279420853 0.02044092305 -0.7779915929
vn 0.997012198 -0.07665017992 0.009561566636
vn 0.9911277294 0.1289599091 0.0321736671
vn 0.02606095001 0.001698101405 0.9996589422
vn 0.1050917432 -0.003423828166 0.9944566488
vn 0.9957410693 0.03230182081 -0.08634983003
vn 0.9941862822 -0.06450276822 -0.08621499687
vn 0.9966206551 -0.03191709891 0.0756874159
vn 0.9951012135 0.06373687834 0.07557202131
vn -0.2696212232 0.03019780293 -0.9624928236
vn -0.7454547286 0.03098134138 0.6658358574
vn -0.2694679499 -0.02239835076 0.9627488256
vn -0.7454385161 -0.0417448692 -0.6652659178
f 1//1 2//2 3//3 
f 3//3 2//2 4//4 
f 5//5 6//6 7//7 
f 7//7 6//6 8//8 
f 7//7 8//8 9//9 
f 3//3 4//4 9//9 
f 9//9 4//4 10//10 
f 9//9 10//10 7//7 
f 2//2 11//11 4//4 
f 4//4 11//11 12//12 
f 4//4 12//12 10//10 
f 10//10 12//12 7//7 
f 7//7 12//12 5//5 
f 6//6 5//5 13//13 
f 13//13 5//5 12//12 
f 14//14 11//11 1//1 
f 1//1 11//11 2//2 
f 1//1 3//3 14//14 
f 14//14 3//3 13//13 
f 13//13 3//3 9//9 
f 13//13 9//9 8//8 
f 8//8 6//6 13//13 
f 13//13 12//12 14//14 
f 14//14 12//12 11//11 
