v 10.45721531 38.75 113.9141388
v 10.45721531 46.75 113.9141388
v 10.49383259 38.75 113.934021
v 10.49383259 46.75 113.934021
v 10.48389244 46.75 113.9523315
v 10.44727516 46.75 113.9324493
v 10.48389244 38.75 113.9523315
v 10.44727516 38.75 113.9324493
vn -0.2840702236 -0.001841560472 -0.9588016868
vn 0.2497623116 0.001263305778 -0.9683063626
vn 0.6760708094 -0.00252650585 -0.7368323207
vn 0.9588134885 0.003682793118 -0.2840125561
vn -0.2497623116 0.001263305778 0.9683063626
vn -0.9588134885 0.003682793118 0.2840125561
vn 0.2840702236 -0.001841560472 0.9588016868
vn -0.6760708094 -0.00252650585 0.7368323207
f 1//1 2//2 3//3 
f 3//3 2//2 4//4 
f 5//5 4//4 6//6 
f 6//6 4//4 2//2 
f 3//3 4//4 7//7 
f 7//7 4//4 5//5 
f 8//8 6//6 1//1 
f 1//1 6//6 2//2 
f 1//1 3//3 8//8 
f 8//8 3//3 7//7 
f 7//7 5//5 8//8 
f 8//8 5//5 6//6 
