v -6.809565544 38.64583206 -140.9726105
v -6.809565544 38.66666794 -140.9726105
v -3.330914497 38.64583206 -139.083847
v -3.330914497 38.66666794 -139.083847
v -3.350795984 38.66666794 -139.0472412
v -3.350795984 38.64583206 -139.0472412
v -6.829447269 38.64583206 -140.9359894
v -6.829447269 38.66666794 -140.9359894
vn 0.2051157653 -0.8943800926 -0.3975069225
vn 0.3341374397 0.7070869207 -0.6232016087
vn 0.2154955119 -0.89438802 -0.3919588327
vn 0.1202360243 0.9701182842 -0.2107459158
vn -0.3341907561 0.7069718838 0.6233035922
vn -0.2051709592 -0.894321382 0.3976105452
vn -0.2154946774 -0.8943881989 0.3919588923
vn -0.1202369481 0.970118165 0.2107458711
f 1//1 2//2 3//3 
f 3//3 2//2 4//4 
f 5//5 6//6 4//4 
f 4//4 6//6 3//3 
f 1//1 3//3 7//7 
f 7//7 3//3 6//6 
f 2//2 8//8 4//4 
f 4//4 8//8 5//5 
f 2//2 1//1 8//8 
f 8//8 1//1 7//7 
f 8//8 7//7 5//5 
f 5//5 7//7 6//6 
