v 40.34778214 38.75 72.97457123
v 40.34778214 46.75 72.97457123
v 40.32694626 38.75 72.97457123
v 40.32694626 46.75 72.97457123
v 40.32694626 46.75 72.93289948
v 40.34778214 46.75 72.93289948
v 40.32694626 38.75 72.93289948
v 40.34778214 38.75 72.93289948
vn 0.9701393843 -0.00252671307 0.2425348461
vn 0.707105577 0.001841645571 0.707105577
vn -0.707105577 -0.001841645571 0.707105577
vn -0.9701393843 0.00252671307 0.2425348461
vn -0.707105577 0.001841645571 -0.707105577
vn 0.9701393843 0.00252671307 -0.2425348461
vn -0.9701393843 -0.00252671307 -0.2425348461
vn 0.707105577 -0.001841645571 -0.707105577
f 1//1 2//2 3//3 
f 3//3 2//2 4//4 
f 5//5 4//4 6//6 
f 6//6 4//4 2//2 
f 3//3 4//4 7//7 
f 7//7 4//4 5//5 
f 8//8 6//6 1//1 
f 1//1 6//6 2//2 
f 8//8 1//1 7//7 
f 7//7 1//1 3//3 
f 7//7 5//5 8//8 
f 8//8 5//5 6//6 
