v 48.32694626 38.75 72.93289948
v 48.32694626 46.75 72.93289948
v 48.32694626 38.75 72.97457123
v 48.32694626 46.75 72.97457123
v 48.3061142 46.75 72.93289948
v 48.3061142 46.75 72.97457123
v 48.3061142 38.75 72.97457123
v 48.3061142 38.75 72.93289948
vn 0.7071703076 -0.001841477002 -0.7070408463
vn 0.9701498747 0.002526277676 -0.2424930632
vn 0.9701498747 -0.002526277676 0.2424930632
vn 0.7071703076 0.001841477002 0.7070408463
vn -0.7071703076 0.001841477002 -0.7070408463
vn -0.9701498747 0.002526277676 0.2424930632
vn -0.7071703076 -0.001841477002 0.7070408463
vn -0.9701498747 -0.002526277676 -0.2424930632
f 1//1 2//2 3//3 
f 3//3 2//2 4//4 
f 5//5 6//6 2//2 
f 2//2 6//6 4//4 
f 3//3 4//4 7//7 
f 7//7 4//4 6//6 
f 8//8 5//5 1//1 
f 1//1 5//5 2//2 
f 1//1 3//3 8//8 
f 8//8 3//3 7//7 
f 7//7 6//6 8//8 
f 8//8 6//6 5//5 
