v 25.72629547 38.75 85.79199219
v 25.72629547 46.75 85.79199219
v 25.76291275 38.75 85.81187439
v 25.76291275 46.75 85.81187439
v 25.75297165 46.75 85.83017731
v 25.71635437 46.75 85.81030273
v 25.75297165 38.75 85.83017731
v 25.71635437 38.75 85.81030273
vn -0.2840614021 -0.001841543592 -0.9588043094
vn 0.2497596294 0.001263319864 -0.9683070183
vn 0.6760280728 -0.002526216442 -0.7368715405
vn 0.9588013887 0.003683068324 -0.2840533257
vn -0.2496763468 0.00126283092 0.9683285356
vn -0.9588118792 0.003682611277 0.2840180695
vn 0.2839423716 -0.001840857789 0.9588395953
vn -0.6759798527 -0.002526368247 0.7369157672
f 1//1 2//2 3//3 
f 3//3 2//2 4//4 
f 5//5 4//4 6//6 
f 6//6 4//4 2//2 
f 3//3 4//4 7//7 
f 7//7 4//4 5//5 
f 8//8 6//6 1//1 
f 1//1 6//6 2//2 
f 1//1 3//3 8//8 
f 8//8 3//3 7//7 
f 7//7 5//5 8//8 
f 8//8 5//5 6//6 
