v 2.849352121 38.75 128.0133972
v 2.849352121 38.77083206 128.0133972
v 0.960598588 38.75 131.4920502
v 0.960598588 38.77083206 131.4920502
v 0.9239812493 38.77083206 131.472168
v 0.9239812493 38.75 131.472168
v 2.812734604 38.75 127.9935226
v 2.812734604 38.77083206 127.9935226
vn 0.3974978328 -0.894385159 0.2051114738
vn 0.6231939197 0.7070962787 0.3341320455
vn 0.391887188 -0.8944290876 0.215455547
vn 0.2107004821 0.970131278 0.1202108935
vn -0.6231679916 0.7071254849 -0.3341184855
vn -0.3974725008 -0.8943994641 -0.2050979882
vn -0.3918868005 -0.8944292068 -0.2154555768
vn -0.2107009292 0.9701311588 -0.1202108935
f 1//1 2//2 3//3 
f 3//3 2//2 4//4 
f 5//5 6//6 4//4 
f 4//4 6//6 3//3 
f 1//1 3//3 7//7 
f 7//7 3//3 6//6 
f 2//2 8//8 4//4 
f 4//4 8//8 5//5 
f 2//2 1//1 8//8 
f 8//8 1//1 7//7 
f 8//8 7//7 5//5 
f 5//5 7//7 6//6 
