v 51.58110046 32.45819855 -93.73386383
v 51.58110046 25.04166603 -93.73386383
v 51.66443634 32.45819855 -93.73386383
v 51.66443634 25.04166603 -93.73386383
v 51.66443634 25.04166603 -97.42124939
v 51.66443634 32.45819855 -97.42124939
v 51.58110046 32.45819855 -97.42124939
v 51.58110046 25.04166603 -97.42124939
vn -0.9998730421 0.01123507507 0.01129869558
vn -0.9989171028 -0.0112243332 0.04515157267
vn 0.9989171028 0.0112243332 0.04515157267
vn 0.9998730421 -0.01123507507 0.01129869558
vn 0.9989171028 -0.0112243332 -0.04515157267
vn 0.9998730421 0.01123507507 -0.01129869558
vn -0.9989171028 0.0112243332 -0.04515157267
vn -0.9998730421 -0.01123507507 -0.01129869558
f 1//1 2//2 3//3 
f 3//3 2//2 4//4 
f 5//5 6//6 4//4 
f 4//4 6//6 3//3 
f 7//7 1//1 6//6 
f 6//6 1//1 3//3 
f 2//2 8//8 4//4 
f 4//4 8//8 5//5 
f 2//2 1//1 8//8 
f 8//8 1//1 7//7 
f 8//8 7//7 5//5 
f 5//5 7//7 6//6 
