v 51.57202911 24.75 -101.4420624
v 51.57202911 24.83333397 -101.4420624
v 51.57202911 24.75 -97.71310425
v 51.57202911 24.83333397 -97.71310425
v 51.25564575 24.75 -101.4420624
v 51.25564575 24.75 -97.71310425
v 51.25564575 24.84370804 -97.71310425
v 51.25564575 24.84370804 -101.4420624
v 51.260849 24.81261635 -97.71310425
v 51.260849 24.81261635 -101.4420624
v 51.260849 24.78109169 -101.4420624
v 51.260849 24.78109169 -97.71310425
v 51.22695541 24.84370804 -101.4420624
v 51.22695541 24.84370804 -97.71310425
v 51.22695541 25.04166603 -101.4420624
v 51.22695541 25.04166603 -97.71310425
v 51.74779129 24.83333397 -97.71310425
v 51.74779129 25.04166603 -97.71310425
v 51.74779129 24.83333397 -101.4420624
v 51.74779129 25.04166603 -101.4420624
vn 0.2545988262 -0.9666026235 -0.02930561267
vn 0.4220453799 -0.8901485801 -0.1717940271
vn 0.254680872 -0.9669140577 0.01465752721
vn 0.4045172632 -0.8531794548 0.3293183446
vn -0.04948237166 -0.9987661839 -0.004198330455
vn -0.1991507113 -0.9799324274 0.008448468521
vn -0.4263263941 -0.8581449986 0.2860646248
vn -0.8143638372 -0.512018621 -0.2732187212
vn -0.9956952333 -0.0827395469 0.0417750366
vn -0.9930989742 -0.08252380788 -0.08333221823
vn -0.9918842912 0.08242286742 -0.09680926055
vn -0.9782276154 0.08128803968 0.1909527034
vn -0.9896528721 -0.1434318274 -0.003807159374
vn -0.9896313548 -0.1434286982 0.007614152972
vn -0.3540057838 0.931404233 -0.0846529156
vn -0.3549609482 0.933917284 0.04244066402
vn 0.7642000914 -0.6447277665 0.01801005378
vn 0.3704965711 0.9262515903 0.06921160966
vn 0.763828516 -0.6444143057 -0.03600259498
vn 0.3711639047 0.9279199839 -0.03466813639
f 1//1 2//2 3//3 
f 3//3 2//2 4//4 
f 1//1 3//3 5//5 
f 5//5 3//3 6//6 
f 7//7 8//8 9//9 
f 9//9 8//8 10//10 
f 9//9 10//10 11//11 
f 5//5 6//6 11//11 
f 11//11 6//6 12//12 
f 11//11 12//12 9//9 
f 8//8 7//7 13//13 
f 13//13 7//7 14//14 
f 15//15 13//13 16//16 
f 16//16 13//13 14//14 
f 17//17 18//18 4//4 
f 4//4 18//18 16//16 
f 4//4 16//16 7//7 
f 7//7 16//16 14//14 
f 7//7 9//9 4//4 
f 4//4 9//9 12//12 
f 4//4 12//12 3//3 
f 3//3 12//12 6//6 
f 19//19 17//17 2//2 
f 2//2 17//17 4//4 
f 15//15 16//16 20//20 
f 20//20 16//16 18//18 
f 19//19 2//2 20//20 
f 20//20 2//2 15//15 
f 15//15 2//2 8//8 
f 15//15 8//8 13//13 
f 1//1 11//11 2//2 
f 2//2 11//11 10//10 
f 2//2 10//10 8//8 
f 1//1 5//5 11//11 
f 19//19 20//20 17//17 
f 17//17 20//20 18//18 
