v -50.98670959 23.72916603 90.02803802
v -50.98670959 23.77083397 90.02803802
v -49.10882187 23.72916603 86.49624634
v -49.10882187 23.77083397 86.49624634
v -49.07203293 23.77083397 86.51580811
v -49.07203293 23.72916603 86.51580811
v -50.94992065 23.72916603 90.04759979
v -50.94992065 23.77083397 90.04759979
vn -0.6311973333 -0.7070168853 -0.3189310133
vn -0.7919165492 0.4471955001 -0.4157936573
vn -0.6226164103 -0.7070889473 -0.3352222741
vn -0.390486598 0.8943818212 -0.2181773782
vn 0.7919165492 0.4471955001 0.4157936573
vn 0.6311973333 -0.7070168853 0.3189310133
vn 0.6226164103 -0.7070889473 0.3352222741
vn 0.390486598 0.8943818212 0.2181773782
f 1//1 2//2 3//3 
f 3//3 2//2 4//4 
f 5//5 6//6 4//4 
f 4//4 6//6 3//3 
f 1//1 3//3 7//7 
f 7//7 3//3 6//6 
f 2//2 8//8 4//4 
f 4//4 8//8 5//5 
f 2//2 1//1 8//8 
f 8//8 1//1 7//7 
f 8//8 7//7 5//5 
f 5//5 7//7 6//6 
