v -79.16477966 19.75 143.0232849
v -79.16477966 23.75 143.0232849
v -79.1452179 19.75 142.986496
v -79.1452179 23.75 142.986496
v -79.10842896 23.75 143.0060577
v -79.12799072 23.75 143.0428467
v -79.10842896 19.75 143.0060577
v -79.12799072 19.75 143.0428467
vn -0.8147745728 -0.004658394493 0.5797591805
vn -0.9996751547 0.004658394493 -0.02505738847
vn -0.5797402859 -0.009316486306 -0.8147480488
vn 0.02505657263 0.009316486306 -0.9996426105
vn 0.9996751547 0.004658394493 0.02505738847
vn -0.02505657263 0.009316486306 0.9996426105
vn 0.8147745728 -0.004658394493 -0.5797591805
vn 0.5797402859 -0.009316486306 0.8147480488
f 1//1 2//2 3//3 
f 3//3 2//2 4//4 
f 5//5 4//4 6//6 
f 6//6 4//4 2//2 
f 3//3 4//4 7//7 
f 7//7 4//4 5//5 
f 8//8 6//6 1//1 
f 1//1 6//6 2//2 
f 1//1 3//3 8//8 
f 8//8 3//3 7//7 
f 7//7 5//5 8//8 
f 8//8 5//5 6//6 
