v -48.99279022 32.75 -163.876236
v -49.01267242 32.75 -163.8396149
v -45.51414108 32.75 -161.9874725
v -45.53402328 32.75 -161.9508667
v -45.51414108 32.72916794 -161.9874725
v -45.53402328 32.72916794 -161.9508667
v -48.99279022 32.72916794 -163.876236
v -49.01267242 32.72916794 -163.8396149
vn 0.3341060877 0.7071536183 -0.6231427789
vn -0.1202155128 0.9701290131 0.2107081115
vn 0.1202145889 0.9701291323 -0.2107081413
vn -0.334158957 0.7070394754 0.623243928
vn 0.2154628634 -0.8944220543 -0.3918991983
vn -0.2051396668 -0.8943555951 0.397549808
vn 0.205084905 -0.8944138288 -0.3974470198
vn -0.2154620439 -0.8944221735 0.3918992579
f 1//1 2//2 3//3 
f 3//3 2//2 4//4 
f 5//5 3//3 6//6 
f 6//6 3//3 4//4 
f 7//7 1//1 5//5 
f 5//5 1//1 3//3 
f 2//2 8//8 4//4 
f 4//4 8//8 6//6 
f 8//8 2//2 7//7 
f 7//7 2//2 1//1 
f 7//7 5//5 8//8 
f 8//8 5//5 6//6 
