v -38.44142532 23.75 25.48264313
v -38.44142532 32.75 25.48264313
v -38.93429565 23.75 25.65234947
v -38.93429565 32.75 25.65234947
v -38.96045303 32.75 25.57504272
v -38.96045303 23.75 25.57504272
v -38.94757462 32.75 25.5992775
v -38.94757462 23.75 25.5992775
v -38.93877792 23.75 25.62527466
v -38.93877792 32.75 25.62527466
v -38.53642654 32.75 25.20673752
v -39.02888489 32.75 25.37630272
v -39.02888489 23.75 25.37630272
v -38.53642654 23.75 25.20673752
vn 0.9212043285 -0.04305708408 0.3866894245
vn 0.5680927634 0.03113543615 0.8223753572
vn 0.3008121252 -0.001509393915 0.9536822438
vn 0.2243950665 0.003043336561 0.9744935036
vn -0.9419154525 0.03058533743 0.3344545364
vn -0.9332211614 -0.0516939275 0.3555642664
vn -0.9177987576 0.02837411128 0.396030724
vn -0.9166923761 -0.05667981505 0.3955533206
vn -0.9696952701 -0.02871590666 0.2426241934
vn -0.9684980512 0.05736090615 0.2423246503
vn 0.4885556996 0.02158329077 -0.8722657561
vn -0.5059651136 0.0273273997 -0.8621209264
vn -0.8464004993 -0.0433624275 -0.5307785869
vn -0.05843872577 -0.01560845412 -0.9981689453
f 1//1 2//2 3//3 
f 3//3 2//2 4//4 
f 5//5 6//6 7//7 
f 7//7 6//6 8//8 
f 7//7 8//8 9//9 
f 3//3 4//4 9//9 
f 9//9 4//4 10//10 
f 9//9 10//10 7//7 
f 11//11 12//12 2//2 
f 2//2 12//12 5//5 
f 2//2 5//5 7//7 
f 7//7 10//10 2//2 
f 2//2 10//10 4//4 
f 6//6 5//5 13//13 
f 13//13 5//5 12//12 
f 14//14 11//11 1//1 
f 1//1 11//11 2//2 
f 14//14 1//1 13//13 
f 13//13 1//1 6//6 
f 6//6 1//1 8//8 
f 8//8 1//1 9//9 
f 9//9 1//1 3//3 
f 13//13 12//12 14//14 
f 14//14 12//12 11//11 
