v -42.84067917 32.75 14.30597687
v -42.84067917 23.75 14.30597687
v -42.77224731 32.75 14.50471687
v -42.77224731 23.75 14.50471687
v -42.74608994 23.75 14.58202362
v -42.74608994 32.75 14.58202362
v -42.7505722 23.75 14.55494785
v -42.7505722 32.75 14.55494785
v -42.7593689 32.75 14.52895069
v -42.7593689 23.75 14.52895069
v -42.34822083 23.75 14.13641167
v -42.2532196 23.75 14.41231537
v -42.2532196 32.75 14.41231537
v -42.34822083 32.75 14.13641167
vn -0.5059651136 0.02732731402 -0.8621209264
vn -0.8464004993 -0.04336229339 -0.5307785869
vn -0.9419152141 0.03058531508 0.3344551921
vn -0.9332202673 -0.05169413239 0.3555666506
vn 0.3008146584 -0.001509443857 0.9536814094
vn 0.2243950665 0.003043439938 0.9744935036
vn -0.9696962833 -0.02871591598 0.2426200956
vn -0.9684990644 0.05736092478 0.2423205525
vn -0.9177960157 0.02837409638 0.3960370719
vn -0.9166896939 -0.05667978525 0.3955596685
vn -0.05844048411 -0.0156083554 -0.9981688857
vn 0.9212039709 -0.04305706546 0.3866902888
vn 0.5680939555 0.03113532439 0.8223745227
vn 0.4885519743 0.02158320881 -0.8722677827
f 1//1 2//2 3//3 
f 3//3 2//2 4//4 
f 5//5 6//6 7//7 
f 7//7 6//6 8//8 
f 7//7 8//8 9//9 
f 3//3 4//4 9//9 
f 9//9 4//4 10//10 
f 9//9 10//10 7//7 
f 11//11 12//12 2//2 
f 2//2 12//12 4//4 
f 4//4 12//12 10//10 
f 10//10 12//12 7//7 
f 7//7 12//12 5//5 
f 6//6 5//5 13//13 
f 13//13 5//5 12//12 
f 14//14 11//11 1//1 
f 1//1 11//11 2//2 
f 14//14 1//1 13//13 
f 13//13 1//1 3//3 
f 13//13 3//3 9//9 
f 9//9 8//8 13//13 
f 13//13 8//8 6//6 
f 13//13 12//12 14//14 
f 14//14 12//12 11//11 
