v -36.65655518 32.45819855 33.60705185
v -36.65655518 32.66838837 33.60705185
v -36.14741135 32.45819855 33.49603271
v -36.14741135 32.75 33.49603271
v -36.65236282 32.69549561 33.60613632
v -36.65250778 32.72293854 33.60616684
v -36.65698242 32.75 33.6071434
v -35.49121094 32.75 37.0567131
v -35.49121094 32.45819855 37.0567131
v -36.00648117 32.45819855 37.13448715
v -36.00648117 32.66838837 37.13448715
v -36.00223923 32.69549561 37.13384628
v -36.00238419 32.72293854 37.13386917
v -36.00691223 32.75 37.134552
vn -0.6261580586 -0.7766265273 0.06911823899
vn -0.9917448759 0.01703188568 -0.127090469
vn 0.2517231405 -0.9610081315 -0.1144503355
vn 0.4723528028 0.8713462353 -0.1328103095
vn -0.9910106063 0.07532444596 0.1105631664
vn -0.9956060648 -0.08510570228 0.03905806318
vn -0.1049855351 0.9944062829 0.01158266515
vn 0.4924896657 0.8703182936 0.0002238264424
vn 0.7460070848 -0.6644960046 -0.04380033165
vn -0.189261809 -0.9798429608 0.06393530965
vn -0.9420335889 0.01774722524 0.3350488245
vn -0.9454908371 0.07460204512 0.3169882596
vn -0.9642592072 -0.08593458682 0.2506379485
vn -0.02494731173 0.9996532202 0.008430867456
f 1//1 2//2 3//3 
f 3//3 2//2 4//4 
f 4//4 2//2 5//5 
f 4//4 5//5 6//6 
f 6//6 7//7 4//4 
f 8//8 9//9 4//4 
f 4//4 9//9 3//3 
f 10//10 11//11 1//1 
f 1//1 11//11 2//2 
f 9//9 10//10 3//3 
f 3//3 10//10 1//1 
f 2//2 11//11 5//5 
f 5//5 11//11 12//12 
f 5//5 12//12 13//13 
f 14//14 7//7 13//13 
f 13//13 7//7 6//6 
f 13//13 6//6 5//5 
f 8//8 4//4 14//14 
f 14//14 4//4 7//7 
f 10//10 9//9 11//11 
f 11//11 9//9 8//8 
f 11//11 8//8 12//12 
f 12//12 8//8 13//13 
f 13//13 8//8 14//14 
