v -37.62727356 32.45819855 29.73765945
v -37.62727356 32.66838837 29.73765945
v -37.12688828 32.45819855 29.59205055
v -37.12688828 32.75 29.59205055
v -37.62315369 32.69549561 29.73645973
v -37.62329483 32.72293854 29.73650169
v -37.62769318 32.75 29.73778152
v -36.2070961 32.75 33.21038818
v -36.2070961 32.45819855 33.21038818
v -36.71627045 32.45819855 33.32141495
v -36.71627045 32.66838837 33.32141495
v -36.71207809 32.69549561 33.32049942
v -36.71222305 32.72293854 33.32052994
v -36.71669769 32.75 33.3215065
vn -0.6198812723 -0.7766580582 0.1120244339
vn -0.998504281 0.01707367972 -0.05193933845
vn 0.2440458685 -0.9611415267 -0.129029572
vn 0.4628280401 0.8713908792 -0.1626904756
vn -0.9810617566 0.07533557713 0.1784442365
vn -0.990331471 -0.08513745666 0.1095224172
vn -0.1039297283 0.9944074154 0.01877606288
vn 0.4908094704 0.8705553412 -0.03520574421
vn 0.7409018278 -0.6646991372 -0.09612219781
vn -0.1847967356 -0.9798668027 0.07557289302
vn -0.9194790721 0.01775944233 0.3927375972
vn -0.9238480926 0.07463625073 0.3754118979
vn -0.9460890293 -0.08595466614 0.3122937083
vn -0.02435795404 0.9996536374 0.009964514524
f 1//1 2//2 3//3 
f 3//3 2//2 4//4 
f 4//4 2//2 5//5 
f 4//4 5//5 6//6 
f 6//6 7//7 4//4 
f 8//8 9//9 4//4 
f 4//4 9//9 3//3 
f 10//10 11//11 1//1 
f 1//1 11//11 2//2 
f 9//9 10//10 3//3 
f 3//3 10//10 1//1 
f 2//2 11//11 5//5 
f 5//5 11//11 12//12 
f 5//5 12//12 13//13 
f 14//14 7//7 13//13 
f 13//13 7//7 6//6 
f 13//13 6//6 5//5 
f 8//8 4//4 14//14 
f 14//14 4//4 7//7 
f 10//10 9//9 11//11 
f 11//11 9//9 8//8 
f 11//11 8//8 12//12 
f 12//12 8//8 13//13 
f 13//13 8//8 14//14 
