v -36.25938034 32.45819855 57.58737564
v -36.25938034 24.04166603 57.58737564
v -36.34069443 32.45819855 57.56915283
v -36.34069443 24.04166603 57.56915283
v -37.1153183 24.04166603 61.0256691
v -37.1153183 32.45819855 61.0256691
v -37.03400421 32.45819855 61.04389191
v -37.03400421 24.04166603 61.04389191
vn 0.9782889485 0.004950030707 0.2071865946
vn 0.984947443 -0.009889444336 0.172570914
vn -0.9642519951 0.01977598481 -0.2642480731
vn -0.9731091261 -0.009899697267 -0.2301317453
vn -0.984947443 -0.009889444336 -0.172570914
vn -0.9782889485 0.004950030707 -0.2071865946
vn 0.9642519951 0.01977598481 0.2642480731
vn 0.9731091261 -0.009899697267 0.2301317453
f 1//1 2//2 3//3 
f 3//3 2//2 4//4 
f 5//5 6//6 4//4 
f 4//4 6//6 3//3 
f 1//1 3//3 7//7 
f 7//7 3//3 6//6 
f 2//2 8//8 4//4 
f 4//4 8//8 5//5 
f 2//2 1//1 8//8 
f 8//8 1//1 7//7 
f 8//8 7//7 5//5 
f 5//5 7//7 6//6 
