v -41.24440002 32.45819855 72.29084778
v -41.24440002 24.04166603 72.29084778
v -41.16838074 32.45819855 72.32498169
v -41.16838074 24.04166603 72.32498169
v -39.75253677 24.04166603 69.17211914
v -39.75253677 32.45819855 69.17211914
v -39.82855606 32.45819855 69.1379776
v -39.82855606 24.04166603 69.1379776
vn -0.9171010256 0.004950017668 -0.3986240923
vn -0.9308673739 -0.009888915345 -0.3652234674
vn 0.8912756443 0.01977524348 0.4530305266
vn 0.9071910977 -0.009899857454 0.4206023514
vn 0.930867672 -0.009889245965 0.3652227223
vn 0.9171008468 0.004950198345 0.3986244798
vn -0.8912752271 0.01977528259 -0.4530313909
vn -0.9071912766 -0.009899847209 -0.4206019342
f 1//1 2//2 3//3 
f 3//3 2//2 4//4 
f 5//5 6//6 4//4 
f 4//4 6//6 3//3 
f 1//1 3//3 7//7 
f 7//7 3//3 6//6 
f 2//2 8//8 4//4 
f 4//4 8//8 5//5 
f 2//2 1//1 8//8 
f 8//8 1//1 7//7 
f 8//8 7//7 5//5 
f 5//5 7//7 6//6 
