v -38.56335449 23.75 64.97601318
v -38.56335449 32.75 64.97601318
v -38.60289001 23.75 64.96286011
v -38.60289001 32.75 64.96286011
v -38.59631348 32.75 64.94309235
v -38.55677795 32.75 64.95624542
v -38.59631348 23.75 64.94309235
v -38.55677795 23.75 64.95624542
vn 0.4477308393 -0.001636795467 0.8941668868
vn -0.07611910254 0.00112283323 0.9970980883
vn -0.5363855362 -0.002245662035 0.8439700603
vn -0.8941633105 0.003273577662 0.4477290213
vn 0.07611910254 0.00112283323 -0.9970980883
vn 0.8941633105 0.003273577662 -0.4477290213
vn -0.4477308393 -0.001636795467 -0.8941668868
vn 0.5363855362 -0.002245662035 -0.8439700603
f 1//1 2//2 3//3 
f 3//3 2//2 4//4 
f 5//5 4//4 6//6 
f 6//6 4//4 2//2 
f 3//3 4//4 7//7 
f 7//7 4//4 5//5 
f 8//8 6//6 1//1 
f 1//1 6//6 2//2 
f 1//1 3//3 8//8 
f 8//8 3//3 7//7 
f 7//7 5//5 8//8 
f 8//8 5//5 6//6 
