v -39.78507996 32.75 68.83763123
v -39.78507996 23.75 68.83763123
v -39.8711853 32.75 69.02937317
v -39.8711853 23.75 69.02937317
v -39.90501404 23.75 69.10364532
v -39.90501404 32.75 69.10364532
v -39.88975525 23.75 69.08083344
v -39.88975525 32.75 69.08083344
v -39.87837601 32.75 69.05586243
v -39.87837601 23.75 69.05586243
v -39.42949295 23.75 69.31718445
v -39.30995178 23.75 69.05099487
v -39.42949295 32.75 69.31718445
v -39.30995178 32.75 69.05099487
vn 0.2211131901 0.01144567318 -0.9751809835
vn -0.2541270256 -0.01817031018 -0.9670001268
vn -0.9156886935 0.03089618869 -0.4006989896
vn -0.9237889647 -0.05221736804 -0.3793248534
vn -0.4332894683 -0.001509487163 0.9012535214
vn -0.5032564402 0.003043506993 0.8641317487
vn -0.8730823994 -0.02871584333 -0.4867263436
vn -0.8720044494 0.05736077949 -0.4861254394
vn -0.9253100157 0.179742232 -0.3339072764
vn -0.883485496 -0.3432355523 -0.3188144863
vn 0.4073281288 -0.02541085519 0.9129282832
vn 0.6402854323 -0.02825752459 -0.7676171064
vn -0.1485874355 0.01836979575 0.9887286425
vn 0.9526534677 0.03906496987 -0.3015381396
f 1//1 2//2 3//3 
f 3//3 2//2 4//4 
f 5//5 6//6 7//7 
f 7//7 6//6 8//8 
f 7//7 8//8 9//9 
f 3//3 4//4 9//9 
f 9//9 4//4 10//10 
f 9//9 10//10 7//7 
f 11//11 10//10 12//12 
f 12//12 10//10 4//4 
f 12//12 4//4 2//2 
f 5//5 7//7 11//11 
f 11//11 7//7 10//10 
f 6//6 5//5 13//13 
f 13//13 5//5 11//11 
f 14//14 12//12 1//1 
f 1//1 12//12 2//2 
f 1//1 3//3 14//14 
f 14//14 3//3 9//9 
f 14//14 9//9 13//13 
f 13//13 9//9 8//8 
f 13//13 8//8 6//6 
f 13//13 11//11 14//14 
f 14//14 11//11 12//12 
