v -40.96487427 23.75 72.7362442
v -40.96487427 32.75 72.7362442
v -41.44039917 23.75 72.52270508
v -41.44039917 32.75 72.52270508
v -41.40656662 32.75 72.44843292
v -41.40656662 23.75 72.44843292
v -41.41376114 32.75 72.47491455
v -41.41376114 23.75 72.47491455
v -41.42513657 23.75 72.49989319
v -41.42513657 32.75 72.49989319
v -41.32046127 32.75 72.25669098
v -40.84533691 32.75 72.470047
v -41.32046127 23.75 72.25669098
v -40.84533691 23.75 72.470047
vn 0.407346189 -0.02541188151 0.9129202366
vn -0.1485800296 0.01837055758 0.9887297153
vn -0.4332880378 -0.001509578666 0.9012542367
vn -0.5032596588 0.003043720964 0.8641298413
vn -0.9156828523 0.03089514188 -0.4007124305
vn -0.9237704873 -0.0522171706 -0.3793697357
vn -0.9253095984 0.1797447503 -0.3339071274
vn -0.8834840059 -0.3432399631 -0.3188139498
vn -0.8731154203 -0.02871591039 -0.4866670668
vn -0.8720374703 0.0573609136 -0.4860662222
vn 0.2211010903 0.01144564524 -0.9751837254
vn 0.9526529908 0.03906435519 -0.3015397787
vn -0.2541390955 -0.01817012765 -0.9669969678
vn 0.6402830482 -0.02825758606 -0.767619133
f 1//1 2//2 3//3 
f 3//3 2//2 4//4 
f 5//5 6//6 7//7 
f 7//7 6//6 8//8 
f 7//7 8//8 9//9 
f 3//3 4//4 9//9 
f 9//9 4//4 10//10 
f 9//9 10//10 7//7 
f 11//11 5//5 12//12 
f 12//12 5//5 7//7 
f 12//12 7//7 2//2 
f 2//2 7//7 10//10 
f 2//2 10//10 4//4 
f 6//6 5//5 13//13 
f 13//13 5//5 11//11 
f 14//14 12//12 1//1 
f 1//1 12//12 2//2 
f 1//1 8//8 14//14 
f 14//14 8//8 6//6 
f 14//14 6//6 13//13 
f 3//3 9//9 1//1 
f 1//1 9//9 8//8 
f 13//13 11//11 14//14 
f 14//14 11//11 12//12 
