v -43.47515869 23.72916603 75.90087128
v -43.47515869 23.77083397 75.90087128
v -41.60678101 23.72916603 72.38695526
v -41.60678101 23.77083397 72.38695526
v -41.56999207 23.77083397 72.40651703
v -41.56999207 23.72916603 72.40651703
v -43.43836975 23.72916603 75.92042542
v -43.43836975 23.77083397 75.92042542
vn -0.6312577128 -0.7069869041 -0.318877995
vn -0.7919413447 0.4471650124 -0.4157791734
vn -0.6226216555 -0.7070733905 -0.3352454007
vn -0.3904781044 0.8943735957 -0.2182263136
vn 0.7919276953 0.4471954703 0.4157724679
vn 0.6312319636 -0.7070161104 0.3188642859
vn 0.6226212382 -0.7070736885 0.3352455497
vn 0.3904788494 0.8943732977 0.2182262391
f 1//1 2//2 3//3 
f 3//3 2//2 4//4 
f 5//5 6//6 4//4 
f 4//4 6//6 3//3 
f 1//1 3//3 7//7 
f 7//7 3//3 6//6 
f 2//2 8//8 4//4 
f 4//4 8//8 5//5 
f 2//2 1//1 8//8 
f 8//8 1//1 7//7 
f 8//8 7//7 5//5 
f 5//5 7//7 6//6 
