v -4.72568512 55.6328125 142.106781
v -4.72568512 46.78385544 142.106781
v -4.731897831 55.6328125 142.1182251
v -4.731897831 46.78385544 142.1182251
v -4.687879562 55.6328125 142.1421204
v -4.687879562 46.78385544 142.1421204
v -5.327541351 55.6328125 143.7948761
v -5.327541351 46.78385544 143.7948761
v -5.975745678 55.6328125 143.7948761
v -5.975745678 46.78385544 143.7948761
v -5.975745678 55.6328125 143.7323303
v -5.975745678 46.78385544 143.7323303
v -5.98876667 55.6328125 143.7323303
v -5.98876667 46.78385544 143.7323303
v -5.98876667 55.6328125 143.7948761
v -5.98876667 46.78385544 143.7948761
v -5.975745678 46.78385544 143.8079071
v -5.975745678 55.6328125 143.8079071
v -5.979115963 46.78385544 143.8074646
v -5.979115963 55.6328125 143.8074646
v -5.982255936 46.78385544 143.8061523
v -5.982255936 55.6328125 143.8061523
v -5.984952927 46.78385544 143.8040924
v -5.984952927 55.6328125 143.8040924
v -5.987021923 46.78385544 143.8013916
v -5.987021923 55.6328125 143.8013916
v -5.988322735 46.78385544 143.7982483
v -5.988322735 55.6328125 143.7982483
v -5.318764687 55.6328125 143.8079071
v -5.318764687 46.78385544 143.8079071
v -4.679470062 46.78385544 142.1318817
v -4.677321911 46.78385544 142.1334229
v -4.675634384 46.78385544 142.1354675
v -4.674515724 46.78385544 142.1378632
v -4.674038887 46.78385544 142.1404724
v -4.67423439 46.78385544 142.1431122
v -4.675089836 46.78385544 142.1456146
v -4.675089836 55.6328125 142.1456146
v -4.677321911 55.6328125 142.1334229
v -4.679470062 55.6328125 142.1318817
v -4.67423439 55.6328125 142.1431122
v -4.674038887 55.6328125 142.1404724
v -4.674515724 55.6328125 142.1378632
v -4.675634384 55.6328125 142.1354675
vn 0.3656911254 0.001425039722 -0.9307351708
vn 0.03770337254 -0.002573703183 -0.9992856383
vn -0.8287327886 0.001305609592 0.5596429706
vn -0.5863984823 -0.0007296393742 0.8100224137
vn -0.9512057304 0.001575602684 -0.3085532784
vn -0.9375473261 -0.0007932079025 -0.347856909
vn -0.8638555408 0.001871176646 -0.5037361383
vn -0.6492626667 -0.002812704537 -0.7605590224
vn 0.04818934575 0.0009002033621 -0.9988378286
vn 0.1894852221 -0.001769843744 -0.9818819761
vn 0.9946258068 0.0007317819982 -0.1035322919
vn 0.9231743217 -0.001358425128 -0.3843791485
vn -0.9231717587 0.002716842806 -0.3843780756
vn -0.9946250319 -0.001463562832 -0.10353221
vn -0.9999937415 0.000755044457 0.003455703612
vn -0.9999169111 -0.001399742556 0.01281274296
vn -0.0003359094844 -0.001462790766 0.9999988675
vn -0.001333398395 0.002903286368 0.999994874
vn -0.2170799971 -0.0009810203919 0.9761533141
vn -0.302888602 0.0009806355229 0.9530254602
vn -0.4626301527 -0.0009795885999 0.8865508437
vn -0.5369758606 0.0009805121226 0.8435970545
vn -0.6746279597 -0.0009809166659 0.7381572723
vn -0.7373884916 0.0009800827829 0.6754682064
vn -0.8436107039 -0.0009801933775 0.5369544029
vn -0.8873311877 0.0009802303975 0.4611316323
vn -0.9537123442 -0.0009800355183 0.3007188439
vn -0.9763657451 0.0009800893022 0.2161226273
vn 0.6472637057 0.001387775294 0.7622649074
vn 0.8632141352 -0.0009253934841 0.5048370957
vn 0.4799554646 -0.0007539140061 -0.8772925138
vn 0.6506415009 -0.001021372154 -0.7593843341
vn 0.8219479918 -0.001046194928 -0.5695616007
vn 0.9388497472 -0.001056265086 -0.3443255424
vn 0.9953774214 -0.001046566642 -0.09603459388
vn 0.9874136448 -0.001021057018 0.1581555903
vn 0.9325677752 -0.002931959461 0.3609829843
vn 0.9325387478 0.001469241804 0.3610669374
vn 0.7138751149 0.001020416268 -0.7002723217
vn 0.4872417152 0.001405161456 -0.8732660413
vn 0.9702842236 0.00102136808 0.2419658452
vn 0.9999402761 0.001047296915 -0.01087942719
vn 0.964899838 0.001055116183 -0.2626161575
vn 0.8672245741 0.001047154539 -0.4979161024
f 1//1 2//2 3//3 
f 3//3 2//2 4//4 
f 3//3 4//4 5//5 
f 5//5 4//4 6//6 
f 5//5 6//6 7//7 
f 7//7 6//6 8//8 
f 7//7 8//8 9//9 
f 9//9 8//8 10//10 
f 9//9 10//10 11//11 
f 11//11 10//10 12//12 
f 11//11 12//12 13//13 
f 13//13 12//12 14//14 
f 13//13 14//14 15//15 
f 15//15 14//14 16//16 
f 17//17 18//18 19//19 
f 19//19 18//18 20//20 
f 19//19 20//20 21//21 
f 21//21 20//20 22//22 
f 21//21 22//22 23//23 
f 23//23 22//22 24//24 
f 23//23 24//24 25//25 
f 25//25 24//24 26//26 
f 25//25 26//26 27//27 
f 27//27 26//26 28//28 
f 27//27 28//28 16//16 
f 16//16 28//28 15//15 
f 18//18 17//17 29//29 
f 29//29 17//17 30//30 
f 2//2 31//31 6//6 
f 6//6 31//31 32//32 
f 6//6 32//32 33//33 
f 33//33 34//34 6//6 
f 6//6 34//34 35//35 
f 6//6 35//35 36//36 
f 36//36 37//37 6//6 
f 6//6 37//37 8//8 
f 8//8 37//37 30//30 
f 8//8 30//30 17//17 
f 8//8 17//17 10//10 
f 10//10 17//17 19//19 
f 10//10 19//19 21//21 
f 21//21 23//23 10//10 
f 10//10 23//23 25//25 
f 10//10 25//25 27//27 
f 27//27 16//16 10//10 
f 10//10 16//16 14//14 
f 10//10 14//14 12//12 
f 6//6 4//4 2//2 
f 29//29 30//30 38//38 
f 38//38 30//30 37//37 
f 39//39 40//40 5//5 
f 5//5 40//40 1//1 
f 5//5 1//1 3//3 
f 7//7 38//38 5//5 
f 5//5 38//38 41//41 
f 5//5 41//41 42//42 
f 9//9 18//18 7//7 
f 7//7 18//18 29//29 
f 7//7 29//29 38//38 
f 11//11 13//13 9//9 
f 9//9 13//13 15//15 
f 9//9 15//15 28//28 
f 28//28 26//26 9//9 
f 9//9 26//26 24//24 
f 9//9 24//24 22//22 
f 22//22 20//20 9//9 
f 9//9 20//20 18//18 
f 42//42 43//43 5//5 
f 5//5 43//43 44//44 
f 5//5 44//44 39//39 
f 40//40 31//31 1//1 
f 1//1 31//31 2//2 
f 31//31 40//40 32//32 
f 32//32 40//40 39//39 
f 32//32 39//39 33//33 
f 33//33 39//39 44//44 
f 33//33 44//44 34//34 
f 34//34 44//44 43//43 
f 34//34 43//43 35//35 
f 35//35 43//43 42//42 
f 35//35 42//42 36//36 
f 36//36 42//42 41//41 
f 36//36 41//41 37//37 
f 37//37 41//41 38//38 
