v -4.72568512 32.71614456 142.106781
v -4.72568512 23.78385353 142.106781
v -4.731897831 32.71614456 142.1182251
v -4.731897831 23.78385353 142.1182251
v -4.687879562 32.71614456 142.1421204
v -4.687879562 23.78385353 142.1421204
v -5.975745678 23.78385353 143.8079071
v -5.975745678 32.71614456 143.8079071
v -5.979115963 23.78385353 143.8074646
v -5.979115963 32.71614456 143.8074646
v -5.982255936 23.78385353 143.8061523
v -5.982255936 32.71614456 143.8061523
v -5.984952927 23.78385353 143.8040924
v -5.984952927 32.71614456 143.8040924
v -5.987021923 23.78385353 143.8013916
v -5.987021923 32.71614456 143.8013916
v -5.988322735 23.78385353 143.7982483
v -5.988322735 32.71614456 143.7982483
v -5.98876667 23.78385353 143.7948761
v -5.98876667 32.71614456 143.7948761
v -4.677321911 32.71614456 142.1334229
v -4.679470062 32.71614456 142.1318817
v -5.327541351 32.71614456 143.7948761
v -4.675089836 32.71614456 142.1456146
v -4.67423439 32.71614456 142.1431122
v -4.674038887 32.71614456 142.1404724
v -5.975745678 32.71614456 143.7948761
v -5.318764687 32.71614456 143.8079071
v -5.975745678 32.71614456 143.7323303
v -5.98876667 32.71614456 143.7323303
v -4.674515724 32.71614456 142.1378632
v -4.675634384 32.71614456 142.1354675
v -5.98876667 23.78385353 143.7323303
v -5.318764687 23.78385353 143.8079071
v -4.679470062 23.78385353 142.1318817
v -4.677321911 23.78385353 142.1334229
v -4.675634384 23.78385353 142.1354675
v -4.674515724 23.78385353 142.1378632
v -4.674038887 23.78385353 142.1404724
v -4.67423439 23.78385353 142.1431122
v -4.675089836 23.78385353 142.1456146
v -5.327541351 23.78385353 143.7948761
v -5.975745678 23.78385353 143.7948761
v -5.975745678 23.78385353 143.7323303
vn 0.3656911254 0.001411744743 -0.9307351708
vn 0.03770337626 -0.002549692057 -0.9992856979
vn -0.8287327886 0.001293428941 0.5596429706
vn -0.5863984823 -0.0007228322211 0.8100224137
vn -0.95120579 0.001560903154 -0.3085532784
vn -0.9375473261 -0.0007858076715 -0.347856909
vn -0.0003359094844 -0.00144914363 0.9999988675
vn -0.001333398512 0.00287620048 0.9999949932
vn -0.2170799971 -0.0009718678775 0.9761533141
vn -0.302888602 0.0009714866173 0.9530254602
vn -0.4626301527 -0.0009704495315 0.8865508437
vn -0.5369758606 0.0009713643813 0.8435970545
vn -0.6746279597 -0.000971765141 0.7381572723
vn -0.7373884916 0.0009709391161 0.6754682064
vn -0.8436107039 -0.0009710486047 0.5369544625
vn -0.8873311877 0.0009710852755 0.4611316323
vn -0.9537123442 -0.0009708922589 0.3007188439
vn -0.9763657451 0.0009709455771 0.2161226273
vn -0.9999169707 -0.001386683667 0.01281274296
vn -0.9999937415 0.0007480002241 0.003455703612
vn 0.7138751149 0.001010896289 -0.7002723217
vn 0.4872417152 0.001392052043 -0.8732660413
vn -0.8638555408 0.00185371947 -0.5037361979
vn 0.9325387478 0.001455534599 0.3610669374
vn 0.9702842236 0.001011839253 0.2419658452
vn 0.9999402761 0.001037526177 -0.01087942719
vn 0.04818934575 0.0008918048698 -0.9988378286
vn 0.6472637057 0.001374828047 0.7622649074
vn 0.9946258068 0.0007249548216 -0.1035322919
vn -0.9231718183 0.002691496164 -0.3843781054
vn 0.964899838 0.001045272453 -0.2626161575
vn 0.8672245741 0.001037385082 -0.4979161322
vn -0.9946250319 -0.001449908596 -0.10353221
vn 0.8632141352 -0.0009167600656 0.5048370957
vn 0.4799554646 -0.0007468803669 -0.8772925138
vn 0.6506415009 -0.001011843211 -0.7593843341
vn 0.8219479918 -0.001036434434 -0.5695616007
vn 0.9388497472 -0.001046410645 -0.3443255723
vn 0.995377481 -0.001036802656 -0.09603459388
vn 0.9874137044 -0.001011530985 0.1581556052
vn 0.9325678945 -0.002904606052 0.3609830141
vn -0.6492627263 -0.002786463592 -0.760559082
vn 0.1894852221 -0.001753331977 -0.9818820357
vn 0.9231743217 -0.001345751691 -0.3843791485
f 1//1 2//2 3//3 
f 3//3 2//2 4//4 
f 3//3 4//4 5//5 
f 5//5 4//4 6//6 
f 7//7 8//8 9//9 
f 9//9 8//8 10//10 
f 9//9 10//10 11//11 
f 11//11 10//10 12//12 
f 11//11 12//12 13//13 
f 13//13 12//12 14//14 
f 13//13 14//14 15//15 
f 15//15 14//14 16//16 
f 15//15 16//16 17//17 
f 17//17 16//16 18//18 
f 17//17 18//18 19//19 
f 19//19 18//18 20//20 
f 21//21 22//22 5//5 
f 5//5 22//22 1//1 
f 5//5 1//1 3//3 
f 23//23 24//24 5//5 
f 5//5 24//24 25//25 
f 5//5 25//25 26//26 
f 27//27 8//8 23//23 
f 23//23 8//8 28//28 
f 23//23 28//28 24//24 
f 29//29 30//30 27//27 
f 27//27 30//30 20//20 
f 27//27 20//20 18//18 
f 18//18 16//16 27//27 
f 27//27 16//16 14//14 
f 27//27 14//14 12//12 
f 12//12 10//10 27//27 
f 27//27 10//10 8//8 
f 26//26 31//31 5//5 
f 5//5 31//31 32//32 
f 5//5 32//32 21//21 
f 30//30 33//33 20//20 
f 20//20 33//33 19//19 
f 8//8 7//7 28//28 
f 28//28 7//7 34//34 
f 2//2 35//35 6//6 
f 6//6 35//35 36//36 
f 6//6 36//36 37//37 
f 37//37 38//38 6//6 
f 6//6 38//38 39//39 
f 6//6 39//39 40//40 
f 40//40 41//41 6//6 
f 6//6 41//41 42//42 
f 42//42 41//41 34//34 
f 42//42 34//34 7//7 
f 42//42 7//7 43//43 
f 43//43 7//7 9//9 
f 43//43 9//9 11//11 
f 11//11 13//13 43//43 
f 43//43 13//13 15//15 
f 43//43 15//15 17//17 
f 17//17 19//19 43//43 
f 43//43 19//19 33//33 
f 43//43 33//33 44//44 
f 6//6 4//4 2//2 
f 29//29 44//44 30//30 
f 30//30 44//44 33//33 
f 27//27 43//43 29//29 
f 29//29 43//43 44//44 
f 23//23 42//42 27//27 
f 27//27 42//42 43//43 
f 28//28 34//34 24//24 
f 24//24 34//34 41//41 
f 5//5 6//6 23//23 
f 23//23 6//6 42//42 
f 22//22 35//35 1//1 
f 1//1 35//35 2//2 
f 35//35 22//22 36//36 
f 36//36 22//22 21//21 
f 36//36 21//21 37//37 
f 37//37 21//21 32//32 
f 37//37 32//32 38//38 
f 38//38 32//32 31//31 
f 38//38 31//31 39//39 
f 39//39 31//31 26//26 
f 39//39 26//26 40//40 
f 40//40 26//26 25//25 
f 40//40 25//25 41//41 
f 41//41 25//25 24//24 
