v -81.73970032 9.338541985 -99.24188995
v -81.73970032 0.3385416567 -99.24188995
v -81.66091156 9.338541985 -99.26902008
v -81.66091156 0.3385416567 -99.26902008
v -82.94622803 0.3385416567 -103.0018463
v -82.94622803 9.338541985 -103.0018463
v -83.02501678 9.338541985 -102.9747162
v -83.02501678 0.3385416567 -102.9747162
vn -0.9419897199 0.00925785955 0.3355139494
vn -0.9307864904 -0.01849790663 0.3650950491
vn 0.9583674669 0.009250132367 -0.285387814
vn 0.9488913417 -0.00462907739 -0.315568924
vn 0.9307864904 -0.01849790663 -0.3650950491
vn 0.9419897199 0.00925785955 -0.3355139494
vn -0.9583674669 0.009250132367 0.285387814
vn -0.9488913417 -0.00462907739 0.315568924
f 1//1 2//2 3//3 
f 3//3 2//2 4//4 
f 5//5 6//6 4//4 
f 4//4 6//6 3//3 
f 7//7 1//1 6//6 
f 6//6 1//1 3//3 
f 8//8 5//5 2//2 
f 2//2 5//5 4//4 
f 2//2 1//1 8//8 
f 8//8 1//1 7//7 
f 8//8 7//7 5//5 
f 5//5 7//7 6//6 
