v -81.73970032 13.80729198 -99.24188995
v -81.73970032 9.390625 -99.24188995
v -81.66091156 13.80729198 -99.26902008
v -81.66091156 9.390625 -99.26902008
v -82.94622803 9.390625 -103.0018463
v -82.94622803 13.80729198 -103.0018463
v -83.02501678 13.80729198 -102.9747162
v -83.02501678 9.390625 -102.9747162
vn -0.9418625236 0.01886252314 0.3354686499
vn -0.9302848577 -0.03767353296 0.3648982942
vn 0.9582382441 0.01884678379 -0.2853493392
vn 0.948859334 -0.009432517923 -0.3155582845
vn 0.9302848577 -0.03767353296 -0.3648982942
vn 0.9418625236 0.01886252314 -0.3354686499
vn -0.9582382441 0.01884678379 0.2853493392
vn -0.948859334 -0.009432517923 0.3155582845
f 1//1 2//2 3//3 
f 3//3 2//2 4//4 
f 5//5 6//6 4//4 
f 4//4 6//6 3//3 
f 7//7 1//1 6//6 
f 6//6 1//1 3//3 
f 8//8 5//5 2//2 
f 2//2 5//5 4//4 
f 2//2 1//1 8//8 
f 8//8 1//1 7//7 
f 8//8 7//7 5//5 
f 5//5 7//7 6//6 
