v -83.07837677 0.4166666567 -102.8737183
v -81.84393311 0.4166666567 -99.28862762
v -83.01927948 0.4166666567 -102.8940659
v -81.78483582 0.4166666567 -99.30897522
v -83.01927948 0.3385416567 -102.8940659
v -81.78483582 0.3385416567 -99.30897522
v -82.90109253 0.3385416567 -102.934761
v -81.66664886 0.3385416567 -99.34967041
v -82.90109253 0.4166666567 -102.934761
v -81.66664886 0.4166666567 -99.34967041
v -82.27074432 0.4166666567 -103.1518097
v -81.03630066 0.4166666567 -99.56671906
v -82.27074432 0.1666666716 -103.1518097
v -81.03630066 0.1666666716 -99.56671906
v -83.06852722 0.1666666716 -102.8771133
v -81.83408356 0.1666666716 -99.29202271
v -81.84393311 0.2083333284 -99.28862762
v -81.83408356 0.2083333284 -99.29202271
v -83.07837677 0.2083333284 -102.8737183
v -83.06852722 0.2083333284 -102.8771133
vn -0.9124931097 0.287289232 0.291240871
vn -0.9020530581 0.2873398364 0.3220808804
vn 0.7362058163 0.6246949434 -0.2603021562
vn 0.7424453497 0.6246563196 -0.2420317382
vn 0.4794632196 0.8462842107 -0.2322025448
vn 0.5112248063 0.8475641608 -0.1424225122
vn -0.5758146048 0.8087822795 -0.119619295
vn -0.2503543496 0.7173848152 0.6501398087
vn -0.1166875288 0.9929956198 0.01853966899
vn -0.1067124605 0.9931515455 0.04756518453
vn 0.3185406923 0.9355623126 -0.1524957865
vn 0.3572021127 0.9332709312 -0.03757684305
vn 0.1223560944 -0.9880021811 -0.09423722327
vn 0.5080935359 -0.8571429253 -0.08453997225
vn -0.09648683667 -0.9950985909 0.02165778726
vn -0.02155039459 -0.9996802211 0.01322962809
vn -0.9347751737 -0.09950278699 0.341019839
vn -0.6742714047 -0.1094417423 0.7303290963
vn -0.9481460452 -0.02499483526 0.3168506622
vn -0.8350552917 -0.3222221434 -0.4459322095
f 1//1 2//2 3//3 
f 3//3 2//2 4//4 
f 5//5 3//3 6//6 
f 6//6 3//3 4//4 
f 5//5 6//6 7//7 
f 7//7 6//6 8//8 
f 9//9 7//7 10//10 
f 10//10 7//7 8//8 
f 9//9 10//10 11//11 
f 11//11 10//10 12//12 
f 13//13 11//11 14//14 
f 14//14 11//11 12//12 
f 15//15 13//13 16//16 
f 16//16 13//13 14//14 
f 2//2 17//17 6//6 
f 6//6 17//17 18//18 
f 6//6 18//18 8//8 
f 8//8 18//18 14//14 
f 8//8 14//14 12//12 
f 18//18 16//16 14//14 
f 12//12 10//10 8//8 
f 6//6 4//4 2//2 
f 1//1 19//19 2//2 
f 2//2 19//19 17//17 
f 20//20 15//15 18//18 
f 18//18 15//15 16//16 
f 20//20 19//19 5//5 
f 5//5 19//19 1//1 
f 5//5 1//1 3//3 
f 5//5 7//7 20//20 
f 20//20 7//7 13//13 
f 20//20 13//13 15//15 
f 9//9 11//11 7//7 
f 7//7 11//11 13//13 
f 19//19 20//20 17//17 
f 17//17 20//20 18//18 
