v 51.57202911 38.75 -81.33779907
v 51.57202911 38.83333206 -81.33779907
v 51.57202911 38.75 -77.92140198
v 51.57202911 38.83333206 -77.92140198
v 51.25564575 38.75 -81.33779907
v 51.25564575 38.75 -77.92140198
v 51.25564575 38.84370804 -77.92140198
v 51.25564575 38.84370804 -81.33779907
v 51.260849 38.81261826 -77.92140198
v 51.260849 38.81261826 -81.33779907
v 51.260849 38.7810936 -81.33779907
v 51.260849 38.7810936 -77.92140198
v 51.22695541 38.84370804 -81.33779907
v 51.22695541 38.84370804 -77.92140198
v 51.22695541 39.04166794 -81.33779907
v 51.22695541 39.04166794 -77.92140198
v 51.74779129 38.83333206 -77.92140198
v 51.74779129 39.04166794 -77.92140198
v 51.74779129 38.83333206 -81.33779907
v 51.74779129 39.04166794 -81.33779907
vn 0.2545724511 -0.9665246606 -0.03198416531
vn 0.4208506644 -0.8876490593 -0.1869861484
vn 0.2546701729 -0.9668956399 0.01599822193
vn 0.4003761709 -0.8444647193 0.3557784557
vn -0.04948531464 -0.9987643361 -0.004582702182
vn -0.1991610825 -0.9799233675 0.009221887216
vn -0.4230059683 -0.8515136242 0.3098233938
vn -0.8085922003 -0.5084209442 -0.2961196601
vn -0.9955288172 -0.08272823691 0.04558931291
vn -0.9924396276 -0.08247152716 -0.09089569002
vn -0.9909966588 0.08234659582 -0.1055684388
vn -0.9748342633 0.08100359142 0.207693398
vn -0.98965168 -0.1434302777 -0.004155465867
vn -0.98962605 -0.1434265524 0.008310716599
vn -0.3537662625 0.9307650328 -0.09233563393
vn -0.3549027741 0.933755219 0.04631613567
vn 0.7641821504 -0.6447008848 0.01965730451
vn 0.3703327179 0.9258249998 0.07551026344
vn 0.7637396455 -0.6443275213 -0.03929184377
vn 0.3711270988 0.9278109074 -0.03783611953
f 1//1 2//2 3//3 
f 3//3 2//2 4//4 
f 1//1 3//3 5//5 
f 5//5 3//3 6//6 
f 7//7 8//8 9//9 
f 9//9 8//8 10//10 
f 9//9 10//10 11//11 
f 5//5 6//6 11//11 
f 11//11 6//6 12//12 
f 11//11 12//12 9//9 
f 8//8 7//7 13//13 
f 13//13 7//7 14//14 
f 15//15 13//13 16//16 
f 16//16 13//13 14//14 
f 17//17 18//18 4//4 
f 4//4 18//18 16//16 
f 4//4 16//16 7//7 
f 7//7 16//16 14//14 
f 7//7 9//9 4//4 
f 4//4 9//9 12//12 
f 4//4 12//12 3//3 
f 3//3 12//12 6//6 
f 19//19 17//17 2//2 
f 2//2 17//17 4//4 
f 15//15 16//16 20//20 
f 20//20 16//16 18//18 
f 19//19 2//2 20//20 
f 20//20 2//2 15//15 
f 15//15 2//2 8//8 
f 15//15 8//8 13//13 
f 1//1 11//11 2//2 
f 2//2 11//11 10//10 
f 2//2 10//10 8//8 
f 1//1 5//5 11//11 
f 19//19 20//20 17//17 
f 17//17 20//20 18//18 
