v 51.58110046 46.45819855 26.07859993
v 51.58110046 39.04166794 26.07859993
v 51.66443634 46.45819855 26.07859993
v 51.66443634 39.04166794 26.07859993
v 51.66443634 39.04166794 22.66220474
v 51.66443634 46.45819855 22.66220474
v 51.58110046 46.45819855 22.66220474
v 51.58110046 39.04166794 22.66220474
vn -0.9998625517 0.01123495959 0.01219478622
vn -0.9987491965 -0.01122244913 0.04872483015
vn 0.9987491965 0.01122244913 0.04872483015
vn 0.9998625517 -0.01123495959 0.01219478622
vn 0.9987491965 -0.01122244913 -0.04872483015
vn 0.9998625517 0.01123495959 -0.01219478622
vn -0.9987491965 0.01122244913 -0.04872483015
vn -0.9998625517 -0.01123495959 -0.01219478622
f 1//1 2//2 3//3 
f 3//3 2//2 4//4 
f 5//5 6//6 4//4 
f 4//4 6//6 3//3 
f 7//7 1//1 6//6 
f 6//6 1//1 3//3 
f 2//2 8//8 4//4 
f 4//4 8//8 5//5 
f 2//2 1//1 8//8 
f 8//8 1//1 7//7 
f 8//8 7//7 5//5 
f 5//5 7//7 6//6 
