v 51.2269783 46.75 34.66220474
v 51.2269783 46.75 38.18286896
v 51.74824905 46.75 34.66220474
v 51.74824905 46.75 38.18286896
v 51.74781418 46.66838837 38.18286896
v 51.74781418 46.66838837 34.66220474
v 51.74352264 46.69549561 38.18286896
v 51.74352264 46.69549561 34.66220474
v 51.74367142 46.72293854 34.66220474
v 51.74367142 46.72293854 38.18286896
v 51.74781418 46.45819855 38.18286896
v 51.2269783 46.45819855 38.18286896
v 51.74781418 46.45819855 34.66220474
v 51.2269783 46.45819855 34.66220474
vn -0.486397326 0.868894577 -0.0918687284
vn -0.4879440963 0.8716577291 0.04608043656
vn 0.02606263012 0.9996528625 -0.003858841956
vn 0.1050965041 0.9944316149 0.007780312095
vn 0.9496484995 0.01717446186 0.312846303
vn 0.9865470529 0.01784177497 -0.1625009775
vn 0.9945139289 0.07552742213 0.07237184793
vn 0.9867913723 0.07494094223 -0.143619746
vn 0.9935855865 -0.08615989238 -0.07324050367
vn 0.9856861234 -0.085474886 0.145316422
vn 0.3740935624 -0.9269780517 0.02767110616
vn -0.4850352407 -0.8657385111 0.1234406829
vn 0.3736646473 -0.9259152412 -0.05527875945
vn -0.4878307879 -0.8707282543 -0.06207606941
f 1//1 2//2 3//3 
f 3//3 2//2 4//4 
f 5//5 6//6 7//7 
f 7//7 6//6 8//8 
f 7//7 8//8 9//9 
f 3//3 4//4 9//9 
f 9//9 4//4 10//10 
f 9//9 10//10 7//7 
f 11//11 5//5 12//12 
f 12//12 5//5 2//2 
f 2//2 5//5 7//7 
f 2//2 7//7 10//10 
f 10//10 4//4 2//2 
f 13//13 6//6 11//11 
f 11//11 6//6 5//5 
f 1//1 14//14 2//2 
f 2//2 14//14 12//12 
f 13//13 14//14 6//6 
f 6//6 14//14 1//1 
f 6//6 1//1 8//8 
f 8//8 1//1 9//9 
f 9//9 1//1 3//3 
f 13//13 11//11 14//14 
f 14//14 11//11 12//12 
