v 51.57202911 38.75 -21.44206429
v 51.57202911 38.83333206 -21.44206429
v 51.57202911 38.75 -17.92140007
v 51.57202911 38.83333206 -17.92140007
v 51.25564575 38.75 -21.44206429
v 51.25564575 38.75 -17.92140007
v 51.25564575 38.84370804 -17.92140007
v 51.25564575 38.84370804 -21.44206429
v 51.260849 38.81261826 -17.92140007
v 51.260849 38.81261826 -21.44206429
v 51.260849 38.7810936 -21.44206429
v 51.260849 38.7810936 -17.92140007
v 51.22695541 38.84370804 -21.44206429
v 51.22695541 38.84370804 -17.92140007
v 51.22695541 39.04166794 -21.44206429
v 51.22695541 39.04166794 -17.92140007
v 51.74779129 38.83333206 -17.92140007
v 51.74779129 39.04166794 -17.92140007
v 51.74779129 38.83333206 -21.44206429
v 51.74779129 39.04166794 -21.44206429
vn 0.2545800507 -0.9665535092 -0.03103785776
vn 0.4212806523 -0.8885560036 -0.1816338003
vn 0.2546720803 -0.9669028521 0.01552453823
vn 0.4018630683 -0.8476008773 0.3465239406
vn -0.04948534444 -0.9987649322 -0.004446984734
vn -0.1991615891 -0.9799258113 0.008948795497
vn -0.4241957068 -0.8539085388 0.3014933169
vn -0.8106688857 -0.5097267032 -0.2880878448
vn -0.9955891967 -0.08273325861 0.04424183443
vn -0.9926789403 -0.08249141276 -0.08822501451
vn -0.9913190603 0.08237338811 -0.1024752781
vn -0.9760635495 0.08110573888 0.2017965466
vn -0.9896522164 -0.1434303373 -0.004032400437
vn -0.9896280766 -0.1434268504 0.008064604364
vn -0.3538542986 0.9309966564 -0.08962333947
vn -0.3549249768 0.9338136911 0.04494726285
vn 0.764190793 -0.6447081566 0.01907535456
vn 0.3703943193 0.9259790182 0.07328616083
vn 0.7637740374 -0.6443565488 -0.03812990338
vn 0.371142596 0.92784971 -0.03671710566
f 1//1 2//2 3//3 
f 3//3 2//2 4//4 
f 1//1 3//3 5//5 
f 5//5 3//3 6//6 
f 7//7 8//8 9//9 
f 9//9 8//8 10//10 
f 9//9 10//10 11//11 
f 5//5 6//6 11//11 
f 11//11 6//6 12//12 
f 11//11 12//12 9//9 
f 8//8 7//7 13//13 
f 13//13 7//7 14//14 
f 15//15 13//13 16//16 
f 16//16 13//13 14//14 
f 17//17 18//18 4//4 
f 4//4 18//18 16//16 
f 4//4 16//16 7//7 
f 7//7 16//16 14//14 
f 7//7 9//9 4//4 
f 4//4 9//9 12//12 
f 4//4 12//12 3//3 
f 3//3 12//12 6//6 
f 19//19 17//17 2//2 
f 2//2 17//17 4//4 
f 15//15 16//16 20//20 
f 20//20 16//16 18//18 
f 19//19 2//2 20//20 
f 20//20 2//2 15//15 
f 15//15 2//2 8//8 
f 15//15 8//8 13//13 
f 1//1 11//11 2//2 
f 2//2 11//11 10//10 
f 2//2 10//10 8//8 
f 1//1 5//5 11//11 
f 19//19 20//20 17//17 
f 17//17 20//20 18//18 
