v -89.90848541 0.3333333433 142.3547821
v -89.90848541 0.4166666567 142.3547821
v -90.07514954 0.3333333433 142.3547821
v -90.07514954 0.4166666567 142.3547821
v -90.07514954 0.3333333433 175.4433136
v -89.90848541 0.3333333433 175.4433136
v -90.07514954 0.4166666567 27.00388718
v -90.07514954 -3.583333254 27.00388718
v -90.07514954 -3.583333254 175.4433136
v -89.90848541 -3.583333254 175.4433136
v -89.90848541 -3.583333254 26.90766335
v -89.90848541 0.4166666567 26.90766335
vn 0.9999565482 0.00932460092 1.174198314e-05
vn 0.2426341623 0.9701176286 0.0007005529478
vn -0.9999890924 0.004665489309 2.350002615e-05
vn -0.4472188652 0.8944243193 0.0006461617886
vn -0.9963855743 0.08479747921 0.005018709693
vn 0.9990452528 0.04251191765 0.01006421261
vn -0.9966887832 0.08126223832 -0.002816739492
vn -0.9988760948 -0.04739320651 -0.0006383458967
vn -0.9993934631 -0.03477505222 0.001835122705
vn 0.9975878 -0.06941014528 0.0009154182626
vn 0.9997175336 -0.02373318747 -0.001278248616
vn 0.9991657138 0.04081497714 -0.001414153143
f 1//1 2//2 3//3 
f 3//3 2//2 4//4 
f 3//3 5//5 1//1 
f 1//1 5//5 6//6 
f 7//7 8//8 3//3 
f 3//3 8//8 9//9 
f 3//3 9//9 5//5 
f 3//3 4//4 7//7 
f 9//9 8//8 10//10 
f 10//10 8//8 11//11 
f 6//6 10//10 1//1 
f 1//1 10//10 11//11 
f 1//1 11//11 12//12 
f 12//12 2//2 1//1 
f 10//10 6//6 9//9 
f 9//9 6//6 5//5 
f 12//12 7//7 2//2 
f 2//2 7//7 4//4 
f 8//8 7//7 11//11 
f 11//11 7//7 12//12 
