v -63.58189774 24.04166603 -45.93135452
v -62.46963501 24.04166603 -42.70108795
v -63.08943939 24.04166603 -46.10092163
v -61.97717667 24.04166603 -42.87065506
v -63.08943939 23.84370804 -46.10092163
v -61.97717667 23.84370804 -42.87065506
v -63.11656189 23.84370804 -46.09158325
v -62.00429916 23.84370804 -42.86131668
v -62.00429916 23.75 -42.86131668
v -63.11656189 23.75 -46.09158325
v -62.00922012 23.78109169 -42.85961914
v -63.12148285 23.78109169 -46.08988953
v -63.12148285 23.81261635 -46.08988953
v -62.00922012 23.81261635 -42.85961914
v -63.41571045 23.75 -45.9885788
v -62.30344772 23.75 -42.75831223
v -62.46963501 23.83333397 -42.70108795
v -62.30344772 23.83333397 -42.75831223
v -63.58189774 23.83333397 -45.93135452
v -63.41571045 23.83333397 -45.9885788
vn -0.3747355938 0.9258269072 0.04917084798
vn -0.3385851681 0.9278128743 0.1565992087
vn 0.3204866946 0.9337560534 -0.1593358219
vn 0.3645521104 0.9307658076 -0.02786994353
vn 0.9054954052 -0.2783470154 -0.3203139007
vn 0.9444022179 -0.0722624585 -0.3207532167
vn 0.4283810854 -0.6603577137 -0.6167798042
vn 0.6987051368 -0.7152811289 0.0135675855
vn 0.0969972685 -0.9950033426 -0.0236613974
vn 0.09250404686 -0.9950349927 -0.03672023118
vn 0.9713745713 0.08237297088 -0.2228140384
vn 0.8541019559 0.08102103323 -0.5137562156
vn 0.9264475107 -0.08275138587 -0.3672154248
vn 0.9679611325 -0.08250059932 -0.2371600419
vn -0.4500202537 -0.8843671679 0.1240017563
vn -0.1180994287 -0.9913057685 0.05801174045
vn -0.4733591974 -0.8599747419 0.1907210797
vn -0.5269899368 -0.6939303279 0.4906549156
vn -0.8786495328 -0.3885601163 0.2774816155
vn -0.2790333629 -0.953214407 -0.1162868813
f 1//1 2//2 3//3 
f 3//3 2//2 4//4 
f 5//5 3//3 6//6 
f 6//6 3//3 4//4 
f 7//7 5//5 8//8 
f 8//8 5//5 6//6 
f 9//9 10//10 11//11 
f 11//11 10//10 12//12 
f 11//11 12//12 13//13 
f 7//7 8//8 13//13 
f 13//13 8//8 14//14 
f 13//13 14//14 11//11 
f 15//15 10//10 16//16 
f 16//16 10//10 9//9 
f 17//17 18//18 2//2 
f 2//2 18//18 4//4 
f 4//4 18//18 8//8 
f 4//4 8//8 6//6 
f 16//16 11//11 18//18 
f 18//18 11//11 14//14 
f 18//18 14//14 8//8 
f 16//16 9//9 11//11 
f 1//1 19//19 2//2 
f 2//2 19//19 17//17 
f 20//20 15//15 18//18 
f 18//18 15//15 16//16 
f 19//19 1//1 20//20 
f 20//20 1//1 3//3 
f 20//20 3//3 7//7 
f 7//7 3//3 5//5 
f 7//7 13//13 20//20 
f 20//20 13//13 12//12 
f 20//20 12//12 15//15 
f 15//15 12//12 10//10 
f 19//19 20//20 17//17 
f 17//17 20//20 18//18 
