v -48.99279022 38.64583206 -163.876236
v -48.99279022 38.66666794 -163.876236
v -45.51414108 38.64583206 -161.9874725
v -45.51414108 38.66666794 -161.9874725
v -45.53402328 38.66666794 -161.9508667
v -45.53402328 38.64583206 -161.9508667
v -49.01267242 38.64583206 -163.8396149
v -49.01267242 38.66666794 -163.8396149
vn 0.2051149458 -0.8943810463 -0.3975052238
vn 0.3341366649 0.7070888877 -0.6231998205
vn 0.2154944241 -0.8943892717 -0.3919565976
vn 0.120235309 0.9701187015 -0.2107444555
vn -0.3341895342 0.7069747448 0.6233009696
vn -0.2051697075 -0.8943228126 0.397608012
vn -0.2154936045 -0.8943894506 0.391956687
vn -0.1202362329 0.9701185822 0.2107444257
f 1//1 2//2 3//3 
f 3//3 2//2 4//4 
f 5//5 6//6 4//4 
f 4//4 6//6 3//3 
f 1//1 3//3 7//7 
f 7//7 3//3 6//6 
f 2//2 8//8 4//4 
f 4//4 8//8 5//5 
f 2//2 1//1 8//8 
f 8//8 1//1 7//7 
f 8//8 7//7 5//5 
f 5//5 7//7 6//6 
