v -59.53859711 55.64583206 -169.6021423
v -59.53859711 55.66666794 -169.6021423
v -56.05994797 55.64583206 -167.7133789
v -56.05994797 55.66666794 -167.7133789
v -56.07982635 55.66666794 -167.6767578
v -56.07982635 55.64583206 -167.6767578
v -59.55847931 55.64583206 -169.5655212
v -59.55847931 55.66666794 -169.5655212
vn 0.2051149458 -0.8943810463 -0.3975052238
vn 0.3341366649 0.7070888877 -0.6231998205
vn 0.2154710293 -0.8944141269 -0.3919126987
vn 0.1202212498 0.9701263905 -0.2107170075
vn -0.3341437578 0.7070735693 0.6232134104
vn -0.2051220089 -0.8943735361 0.3975184858
vn -0.2154710144 -0.8944140673 0.3919128776
vn -0.1202212572 0.9701264501 0.210716784
f 1//1 2//2 3//3 
f 3//3 2//2 4//4 
f 5//5 6//6 4//4 
f 4//4 6//6 3//3 
f 1//1 3//3 7//7 
f 7//7 3//3 6//6 
f 2//2 8//8 4//4 
f 4//4 8//8 5//5 
f 2//2 1//1 8//8 
f 8//8 1//1 7//7 
f 8//8 7//7 5//5 
f 5//5 7//7 6//6 
