v -57.18175888 32.45819855 -27.59991837
v -57.18175888 24.04166603 -27.59991837
v -57.10296631 32.45819855 -27.62704849
v -57.10296631 24.04166603 -27.62704849
v -58.24917603 24.04166603 -30.95590401
v -58.24917603 32.45819855 -30.95590401
v -58.3279686 32.45819855 -30.92877388
v -58.3279686 24.04166603 -30.92877388
vn -0.9415541291 0.00989987608 0.3367162645
vn -0.9288850427 -0.01977608725 0.3698397577
vn 0.9598093629 0.00988949649 -0.2804784775
vn 0.9492940903 -0.004950120114 -0.314350456
vn 0.9288850427 -0.01977608725 -0.3698397577
vn 0.9415541291 0.00989987608 -0.3367162645
vn -0.9598093629 0.00988949649 0.2804784775
vn -0.9492940903 -0.004950120114 0.314350456
f 1//1 2//2 3//3 
f 3//3 2//2 4//4 
f 5//5 6//6 4//4 
f 4//4 6//6 3//3 
f 7//7 1//1 6//6 
f 6//6 1//1 3//3 
f 8//8 5//5 2//2 
f 2//2 5//5 4//4 
f 2//2 1//1 8//8 
f 8//8 1//1 7//7 
f 8//8 7//7 5//5 
f 5//5 7//7 6//6 
