v 51.33338547 24.77083397 -116.5046005
v 51.33338547 24.75 -116.5046005
v 47.37505341 24.77083397 -116.5046005
v 47.37505341 24.75 -116.5046005
v 47.37505341 24.75 -116.4629288
v 47.37505341 24.77083397 -116.4629288
v 51.33338547 24.77083397 -116.4629288
v 51.33338547 24.75 -116.4629288
vn 0.005106131546 0.9701350927 -0.2425115705
vn 0.003721873974 -0.7071342468 -0.7070695162
vn -0.003721873974 0.7071342468 -0.7070695162
vn -0.005106131546 -0.9701350927 -0.2425115705
vn -0.003721873974 -0.7071342468 0.7070695162
vn -0.005106131546 0.9701350927 0.2425115705
vn 0.003721873974 0.7071342468 0.7070695162
vn 0.005106131546 -0.9701350927 0.2425115705
f 1//1 2//2 3//3 
f 3//3 2//2 4//4 
f 5//5 6//6 4//4 
f 4//4 6//6 3//3 
f 7//7 1//1 6//6 
f 6//6 1//1 3//3 
f 2//2 8//8 4//4 
f 4//4 8//8 5//5 
f 2//2 1//1 8//8 
f 8//8 1//1 7//7 
f 8//8 7//7 5//5 
f 5//5 7//7 6//6 
