v 10.76677227 38.64583206 -131.4294281
v 10.76677227 38.66666794 -131.4294281
v 14.24542332 38.64583206 -129.5406799
v 14.24542332 38.66666794 -129.5406799
v 14.22554111 38.66666794 -129.5040588
v 14.22554111 38.64583206 -129.5040588
v 10.74689007 38.64583206 -131.3928223
v 10.74689007 38.66666794 -131.3928223
vn 0.2051696181 -0.8943228126 -0.3976080716
vn 0.3341893852 0.7069747448 -0.6233010292
vn 0.2154935151 -0.8943894506 -0.3919567168
vn 0.1202361807 0.9701185822 -0.2107444555
vn -0.3341365159 0.7070888877 0.6231998801
vn -0.2051148564 -0.8943810463 0.3975052834
vn -0.2154943347 -0.8943892717 0.3919566572
vn -0.1202352569 0.9701187015 0.2107444853
f 1//1 2//2 3//3 
f 3//3 2//2 4//4 
f 5//5 6//6 4//4 
f 4//4 6//6 3//3 
f 1//1 3//3 7//7 
f 7//7 3//3 6//6 
f 2//2 8//8 4//4 
f 4//4 8//8 5//5 
f 2//2 1//1 8//8 
f 8//8 1//1 7//7 
f 8//8 7//7 5//5 
f 5//5 7//7 6//6 
