v 28.95006943 38.75 -120.4188156
v 29.40734673 38.75 -121.2610168
v -63.12419891 38.75 -170.4110718
v -62.68897629 38.75 -171.2652435
v -52.54624939 32.75 -165.758194
v -34.96990585 32.75 -156.2150116
v -53.00352859 32.75 -164.9159851
v -35.42718506 32.75 -155.372818
v -35.42718506 24.75 -155.372818
v -34.96990585 24.75 -156.2150116
v -52.54624939 24.75 -165.758194
v -53.00352859 24.75 -164.9159851
v -62.68897629 23.75 -171.2652435
v 29.40734673 23.75 -121.2610168
v -62.87347412 23.75 -170.9031372
v 29.21350098 23.75 -120.9039993
v -24.42410088 32.75 -150.4891052
v -17.39356232 32.75 -146.6718445
v -24.88137817 32.75 -149.6469116
v -17.85083961 32.75 -145.8296356
v -17.39356232 24.75 -146.6718445
v -17.85083961 24.75 -145.8296356
v -24.42410088 24.75 -150.4891052
v -24.88137817 24.75 -149.6469116
v -10.36302471 24.75 -142.8545685
v -10.82030201 24.75 -142.0123596
v 24.7896595 24.75 -123.768219
v 24.3323822 24.75 -122.9260178
v 28.95006943 23.75 -120.4188156
v -63.12419891 23.75 -170.4110718
v 24.3323822 32.75 -122.9260178
v -10.82030201 32.75 -142.0123596
v 24.7896595 32.75 -123.768219
v -10.36302471 32.75 -142.8545685
vn -0.4547323287 0.1003308371 0.8849588633
vn 0.4853496253 0.197700873 -0.8516749144
vn -0.4871871769 0.1892202944 0.8525516391
vn 0.457673341 0.09597681463 -0.8839250803
vn 0.5110834241 -0.04962502792 -0.8580973744
vn 0.4572498202 -0.09931307286 -0.8837757111
vn -0.4573001266 -0.09908946604 0.883774817
vn -0.5220547915 -0.06630922109 0.850330472
vn -0.5050969124 0.08520272374 0.8588466644
vn 0.3539289832 0.2850194275 -0.8907851577
vn 0.5282925367 0.1678176224 -0.8323125839
vn -0.3349969983 0.3208085001 0.8859226108
vn 0.4615679681 -0.1032519713 -0.8810755014
vn 0.4741934836 -0.297026962 -0.8288036585
vn -0.1756886244 -0.9803673029 -0.08951790631
vn 0.1570779532 -0.9838967323 0.08528624475
vn 0.5378521085 -0.03538440913 -0.8422963023
vn 0.4691631794 -0.0179770533 -0.8829284906
vn -0.4548779726 -0.04907185584 0.889200747
vn -0.4941292703 -0.009718776681 0.8693341017
vn 0.4014841914 0.082409814 -0.9121508002
vn -0.503764689 0.03078739159 0.8632921576
vn 0.5082754493 0.03611819819 -0.8604368567
vn -0.354847163 0.1299346089 0.9258512259
vn 0.5031781197 0.2126234621 -0.8376174569
vn -0.2926011086 0.5612908602 0.7741686702
vn 0.2265038639 0.6765176654 -0.7007281184
vn -0.5048929453 0.4218321443 0.753087461
vn -0.4406259358 -0.2067353725 0.8735612631
vn -0.476213783 -0.2716044486 0.8363321424
vn -0.5111666918 -0.1055420116 0.8529768586
vn -0.4532538354 -0.1812134385 0.87276721
vn 0.4483803511 -0.2077773064 -0.869358182
vn 0.5119316578 -0.1081612557 -0.8521896005
f 1//1 2//2 3//3 
f 3//3 2//2 4//4 
f 5//5 6//6 7//7 
f 7//7 6//6 8//8 
f 9//9 8//8 10//10 
f 10//10 8//8 6//6 
f 11//11 5//5 12//12 
f 12//12 5//5 7//7 
f 13//13 14//14 15//15 
f 15//15 14//14 16//16 
f 17//17 18//18 19//19 
f 19//19 18//18 20//20 
f 18//18 21//21 20//20 
f 20//20 21//21 22//22 
f 23//23 17//17 24//24 
f 24//24 17//17 19//19 
f 25//25 26//26 27//27 
f 27//27 26//26 28//28 
f 29//29 22//22 30//30 
f 30//30 22//22 24//24 
f 30//30 24//24 9//9 
f 9//9 24//24 19//19 
f 9//9 19//19 8//8 
f 8//8 19//19 3//3 
f 8//8 3//3 7//7 
f 7//7 3//3 30//30 
f 7//7 30//30 12//12 
f 12//12 30//30 9//9 
f 1//1 31//31 29//29 
f 29//29 31//31 28//28 
f 29//29 28//28 26//26 
f 3//3 20//20 1//1 
f 1//1 20//20 32//32 
f 1//1 32//32 31//31 
f 19//19 20//20 3//3 
f 20//20 22//22 32//32 
f 32//32 22//22 26//26 
f 26//26 22//22 29//29 
f 14//14 33//33 2//2 
f 2//2 33//33 34//34 
f 2//2 34//34 18//18 
f 18//18 34//34 25//25 
f 18//18 25//25 21//21 
f 21//21 25//25 14//14 
f 21//21 14//14 13//13 
f 4//4 5//5 13//13 
f 13//13 5//5 11//11 
f 13//13 11//11 10//10 
f 2//2 18//18 4//4 
f 4//4 18//18 17//17 
f 4//4 17//17 6//6 
f 6//6 17//17 23//23 
f 6//6 23//23 10//10 
f 10//10 23//23 13//13 
f 6//6 5//5 4//4 
f 23//23 21//21 13//13 
f 25//25 27//27 14//14 
f 14//14 27//27 33//33 
f 25//25 34//34 26//26 
f 26//26 34//34 32//32 
f 33//33 27//27 31//31 
f 31//31 27//27 28//28 
f 34//34 33//33 32//32 
f 32//32 33//33 31//31 
f 23//23 24//24 21//21 
f 21//21 24//24 22//22 
f 29//29 30//30 16//16 
f 16//16 30//30 15//15 
f 30//30 3//3 15//15 
f 15//15 3//3 4//4 
f 15//15 4//4 13//13 
f 29//29 16//16 1//1 
f 1//1 16//16 2//2 
f 2//2 16//16 14//14 
f 11//11 12//12 10//10 
f 10//10 12//12 9//9 
