v 43.33338547 38.77083206 -116.5046005
v 43.33338547 38.75 -116.5046005
v 39.3542366 38.77083206 -116.5046005
v 39.3542366 38.75 -116.5046005
v 39.3542366 38.75 -116.4629288
v 39.3542366 38.77083206 -116.4629288
v 43.33338547 38.77083206 -116.4629288
v 43.33338547 38.75 -116.4629288
vn 0.005078982096 0.9701404572 -0.2424907088
vn 0.003702233778 -0.7071666718 -0.7070372105
vn -0.003702233778 0.7071666718 -0.7070372105
vn -0.005078982096 -0.9701404572 -0.2424907088
vn -0.003702233778 -0.7071666718 0.7070372105
vn -0.005078982096 0.9701404572 0.2424907088
vn 0.003702233778 0.7071666718 0.7070372105
vn 0.005078982096 -0.9701404572 0.2424907088
f 1//1 2//2 3//3 
f 3//3 2//2 4//4 
f 5//5 6//6 4//4 
f 4//4 6//6 3//3 
f 7//7 1//1 6//6 
f 6//6 1//1 3//3 
f 2//2 8//8 4//4 
f 4//4 8//8 5//5 
f 2//2 1//1 8//8 
f 8//8 1//1 7//7 
f 8//8 7//7 5//5 
f 5//5 7//7 6//6 
