v -31.45306587 19.77083397 -154.3529358
v -31.45306587 19.75 -154.3529358
v -34.93171692 19.77083397 -156.241684
v -34.93171692 19.75 -156.241684
v -34.95159912 19.75 -156.2050781
v -34.95159912 19.77083397 -156.2050781
v -31.47294807 19.77083397 -154.3163147
v -31.47294807 19.75 -154.3163147
vn 0.120225817 0.9701237679 -0.2107263058
vn 0.2154777348 -0.8944058418 -0.3919280171
vn 0.3341740966 0.7070071101 -0.6232725382
vn 0.2051545978 -0.8943392038 -0.3975789547
vn -0.2154785544 -0.894405663 0.3919279575
vn -0.1202249005 0.9701238871 0.2107263207
vn -0.3341212273 0.707121253 0.6231713891
vn -0.205099836 -0.8943974376 0.3974761665
f 1//1 2//2 3//3 
f 3//3 2//2 4//4 
f 5//5 6//6 4//4 
f 4//4 6//6 3//3 
f 7//7 1//1 6//6 
f 6//6 1//1 3//3 
f 8//8 5//5 2//2 
f 2//2 5//5 4//4 
f 2//2 1//1 8//8 
f 8//8 1//1 7//7 
f 8//8 7//7 5//5 
f 5//5 7//7 6//6 
