v -79.52375793 19.77083397 -91.49450684
v -79.52375793 19.75 -91.49450684
v -78.23504639 19.77083397 -87.75183105
v -78.23504639 19.75 -87.75183105
v -78.19565582 19.75 -87.76539612
v -78.19565582 19.77083397 -87.76539612
v -79.48435974 19.77083397 -91.5080719
v -79.48435974 19.75 -91.5080719
vn -0.4258937836 0.8943881989 0.1366901547
vn -0.6697882414 -0.7071030736 0.2266913056
vn -0.4221093655 0.8944097757 0.1478336602
vn -0.2276744694 -0.9701251388 0.08379473537
vn 0.6698465347 -0.7070417404 -0.2267103493
vn 0.4259529412 0.8943570256 -0.136710003
vn 0.4221093953 0.8944098353 -0.147833243
vn 0.2276744694 -0.9701250792 -0.08379520476
f 1//1 2//2 3//3 
f 3//3 2//2 4//4 
f 5//5 6//6 4//4 
f 4//4 6//6 3//3 
f 1//1 3//3 7//7 
f 7//7 3//3 6//6 
f 2//2 8//8 4//4 
f 4//4 8//8 5//5 
f 2//2 1//1 8//8 
f 8//8 1//1 7//7 
f 8//8 7//7 5//5 
f 5//5 7//7 6//6 
