v -41.96225357 32.75 -160.05896
v -41.98213577 32.75 -160.0223389
v -38.48360443 32.75 -158.1702118
v -38.50348663 32.75 -158.1335907
v -38.48360443 32.72916794 -158.1702118
v -38.50348663 32.72916794 -158.1335907
v -41.96225357 32.72916794 -160.05896
v -41.98213577 32.72916794 -160.0223389
vn 0.3341039717 0.7071535587 -0.6231439114
vn -0.1201974079 0.9701381326 0.210676387
vn 0.1201974079 0.9701381326 -0.210676387
vn -0.3341039717 0.7071535587 0.6231439114
vn 0.2154344618 -0.8944508433 -0.3918491006
vn -0.205083549 -0.8944137692 0.3974477351
vn 0.205083549 -0.8944137692 -0.3974477351
vn -0.2154344618 -0.8944508433 0.3918491006
f 1//1 2//2 3//3 
f 3//3 2//2 4//4 
f 5//5 3//3 6//6 
f 6//6 3//3 4//4 
f 7//7 1//1 5//5 
f 5//5 1//1 3//3 
f 2//2 8//8 4//4 
f 4//4 8//8 6//6 
f 8//8 2//2 7//7 
f 7//7 2//2 1//1 
f 7//7 5//5 8//8 
f 8//8 5//5 6//6 
