v 14.24542332 32.72916794 -129.5406799
v 14.24542332 38.66666794 -129.5406799
v 14.2820406 32.72916794 -129.5207977
v 14.2820406 38.66666794 -129.5207977
v 14.22554207 38.66666794 -129.5040588
v 14.26215935 38.66666794 -129.4841766
v 14.26215935 32.72916794 -129.4841766
v 14.22554207 32.72916794 -129.5040588
vn -0.5726882815 -0.006276834756 -0.8197491765
vn 0.03373711929 0.006277096458 -0.9994110465
vn 0.8198150396 -0.003138434608 -0.5726197958
vn 0.9994252324 0.003138303524 0.0337549597
vn -0.9994252324 0.003138303524 -0.0337549597
vn -0.03373711929 0.006277096458 0.9994110465
vn 0.5726882815 -0.006276834756 0.8197491765
vn -0.8198150396 -0.003138434608 0.5726197958
f 1//1 2//2 3//3 
f 3//3 2//2 4//4 
f 5//5 6//6 2//2 
f 2//2 6//6 4//4 
f 3//3 4//4 7//7 
f 7//7 4//4 6//6 
f 8//8 5//5 1//1 
f 1//1 5//5 2//2 
f 8//8 1//1 7//7 
f 7//7 1//1 3//3 
f 7//7 6//6 8//8 
f 8//8 6//6 5//5 
