v 0.184348762 32.72916794 -137.1752167
v 0.184348762 38.66666794 -137.1752167
v 0.2209661454 32.72916794 -137.1553345
v 0.2209661454 38.66666794 -137.1553345
v 0.164467141 38.66666794 -137.1386108
v 0.2010845244 38.66666794 -137.1187286
v 0.2010845244 32.72916794 -137.1187286
v 0.164467141 32.72916794 -137.1386108
vn -0.57246387 -0.00627598539 -0.8199059367
vn 0.03390049562 0.006275043357 -0.9994055033
vn 0.8197621703 -0.003137869295 -0.5726954937
vn 0.9994245768 0.003138340544 0.0337728858
vn -0.9994245768 0.003138340544 -0.0337728858
vn -0.03390049562 0.006275043357 0.9994055033
vn 0.57246387 -0.00627598539 0.8199059367
vn -0.8197621703 -0.003137869295 0.5726954937
f 1//1 2//2 3//3 
f 3//3 2//2 4//4 
f 5//5 6//6 2//2 
f 2//2 6//6 4//4 
f 3//3 4//4 7//7 
f 7//7 4//4 6//6 
f 8//8 5//5 1//1 
f 1//1 5//5 2//2 
f 8//8 1//1 7//7 
f 7//7 1//1 3//3 
f 7//7 6//6 8//8 
f 8//8 6//6 5//5 
