v 7.214885712 32.72916794 -133.3579559
v 7.214885712 38.66666794 -133.3579559
v 7.251502991 32.72916794 -133.3380737
v 7.251502991 38.66666794 -133.3380737
v 7.195003986 38.66666794 -133.3213348
v 7.231621742 38.66666794 -133.3014526
v 7.231621742 32.72916794 -133.3014526
v 7.195003986 32.72916794 -133.3213348
vn -0.5726835132 -0.006276830565 -0.8197525144
vn 0.03373694792 0.006277113222 -0.9994110465
vn 0.8198150396 -0.003138434608 -0.5726197958
vn 0.9994252324 0.003138303524 0.0337549597
vn -0.9994250536 0.00313835172 -0.0337600708
vn -0.03373677656 0.006277081091 0.9994110465
vn 0.5726858974 -0.006276857108 0.8197508454
vn -0.8198126554 -0.003138473956 0.5726231933
f 1//1 2//2 3//3 
f 3//3 2//2 4//4 
f 5//5 6//6 2//2 
f 2//2 6//6 4//4 
f 3//3 4//4 7//7 
f 7//7 4//4 6//6 
f 8//8 5//5 1//1 
f 1//1 5//5 2//2 
f 8//8 1//1 7//7 
f 7//7 1//1 3//3 
f 7//7 6//6 8//8 
f 8//8 6//6 5//5 
