v -30.86000061 46.45819855 -144.9307098
v -30.86000061 39.04166794 -144.9307098
v -30.79955292 46.45819855 -144.9880676
v -30.79955292 39.04166794 -144.9880676
v -33.352108 39.04166794 -147.6779022
v -33.352108 46.45819855 -147.6779022
v -33.41255569 46.45819855 -147.6205444
v -33.41255569 39.04166794 -147.6205444
vn -0.7175499201 0.01123424806 0.6964164972
vn -0.693562746 -0.02244298533 0.7200465798
vn 0.7555015087 0.01122365613 -0.6550507545
vn 0.7330511212 -0.005617395509 -0.6801503301
vn 0.693562746 -0.02244298533 -0.7200465798
vn 0.7175499201 0.01123424806 -0.6964164972
vn -0.7555015087 0.01122365613 0.6550507545
vn -0.7330511212 -0.005617395509 0.6801503301
f 1//1 2//2 3//3 
f 3//3 2//2 4//4 
f 5//5 6//6 4//4 
f 4//4 6//6 3//3 
f 7//7 1//1 6//6 
f 6//6 1//1 3//3 
f 8//8 5//5 2//2 
f 2//2 5//5 4//4 
f 2//2 1//1 8//8 
f 8//8 1//1 7//7 
f 8//8 7//7 5//5 
f 5//5 7//7 6//6 
