v 24.82785034 38.64583206 -123.7948914
v 24.82785034 38.66666794 -123.7948914
v 28.30650139 38.64583206 -121.9061356
v 28.30650139 38.66666794 -121.9061356
v 28.28661919 38.66666794 -121.8695221
v 28.28661919 38.64583206 -121.8695221
v 24.80796814 38.64583206 -123.7582779
v 24.80796814 38.66666794 -123.7582779
vn 0.2051422298 -0.8943518996 -0.3975566626
vn 0.3341629505 0.7070317864 -0.6232504845
vn 0.2154939175 -0.8943893313 -0.391956687
vn 0.1202357188 0.9701186419 -0.2107444704
vn -0.3341629505 0.7070317864 0.6232504845
vn -0.2051422298 -0.8943518996 0.3975566626
vn -0.2154939175 -0.8943893313 0.391956687
vn -0.1202357188 0.9701186419 0.2107444704
f 1//1 2//2 3//3 
f 3//3 2//2 4//4 
f 5//5 6//6 4//4 
f 4//4 6//6 3//3 
f 1//1 3//3 7//7 
f 7//7 3//3 6//6 
f 2//2 8//8 4//4 
f 4//4 8//8 5//5 
f 2//2 1//1 8//8 
f 8//8 1//1 7//7 
f 8//8 7//7 5//5 
f 5//5 7//7 6//6 
