v 14.2820406 32.75 -129.5207977
v 14.26215935 32.75 -129.4841766
v 17.7606926 32.75 -127.6320496
v 17.74081039 32.75 -127.5954285
v 17.7606926 32.72916794 -127.6320496
v 17.74081039 32.72916794 -127.5954285
v 14.2820406 32.72916794 -129.5207977
v 14.26215935 32.72916794 -129.4841766
vn 0.334105581 0.707149744 -0.6231473684
vn -0.1201979667 0.9701378345 0.2106775939
vn 0.1201979667 0.9701378345 -0.2106775343
vn -0.3341038227 0.7071535587 0.623143971
vn 0.2154352814 -0.8944498301 -0.3918509185
vn -0.2050834596 -0.8944137692 0.3974477947
vn 0.2050852329 -0.8944119215 -0.3974511027
vn -0.2154352963 -0.8944498301 0.3918508887
f 1//1 2//2 3//3 
f 3//3 2//2 4//4 
f 5//5 3//3 6//6 
f 6//6 3//3 4//4 
f 7//7 1//1 5//5 
f 5//5 1//1 3//3 
f 2//2 8//8 4//4 
f 4//4 8//8 6//6 
f 8//8 2//2 7//7 
f 7//7 2//2 1//1 
f 7//7 5//5 8//8 
f 8//8 5//5 6//6 
