v -49.02941132 32.72916794 -163.8961182
v -49.02941132 38.66666794 -163.8961182
v -48.99279022 32.72916794 -163.876236
v -48.99279022 38.66666794 -163.876236
v -49.0492897 38.66666794 -163.8594971
v -49.01267242 38.66666794 -163.8396149
v -49.01267242 32.72916794 -163.8396149
v -49.0492897 32.72916794 -163.8594971
vn -0.5726979375 -0.006277123932 -0.8197424412
vn 0.03373539448 0.006276959553 -0.9994111061
vn 0.8197814226 -0.003138592467 -0.5726679564
vn 0.9994258881 0.003138592467 0.03373451531
vn -0.999427259 0.003138207132 -0.03369361907
vn -0.03373677656 0.006277216133 0.9994110465
vn 0.5726786852 -0.006276913453 0.8197559118
vn -0.8198006749 -0.003138276516 0.572640419
f 1//1 2//2 3//3 
f 3//3 2//2 4//4 
f 5//5 6//6 2//2 
f 2//2 6//6 4//4 
f 3//3 4//4 7//7 
f 7//7 4//4 6//6 
f 8//8 5//5 1//1 
f 1//1 5//5 2//2 
f 8//8 1//1 7//7 
f 7//7 1//1 3//3 
f 7//7 6//6 8//8 
f 8//8 6//6 5//5 
