v -42.18648529 24.75 -159.9081421
v -42.18648529 32.75 -159.9081421
v -42.0017662 24.75 -159.8078461
v -42.0017662 32.75 -159.8078461
v -41.92983627 32.75 -159.7692871
v -41.92983627 24.75 -159.7692871
v -41.9557991 32.75 -159.7781677
v -41.9557991 24.75 -159.7781677
v -41.9799881 24.75 -159.7911377
v -41.9799881 32.75 -159.7911377
v -42.43500519 32.75 -159.4504242
v -42.17856216 32.75 -159.3111877
v -42.17856216 24.75 -159.3111877
v -42.43500519 24.75 -159.4504242
vn -0.7667117715 -0.03074031509 -0.6412551403
vn -0.3837041259 0.04877069965 -0.9221673012
vn 0.4852838218 -0.0344042927 -0.8736795783
vn 0.5045727491 0.0581337437 -0.8614097834
vn 0.8909516931 0.001697766827 0.4540949762
vn 0.9240851998 -0.003423222806 0.382171154
vn 0.3992162049 0.03230116516 -0.9162876606
vn 0.3985928893 -0.06450145692 -0.9148569703
vn 0.5421363711 -0.0319162868 -0.8396841884
vn 0.5413098931 0.06373526156 -0.838404119
vn -0.9748027325 0.01755901799 -0.2223765552
vn 0.2292829752 0.04842720926 0.9721543789
vn 0.7172399163 -0.03502292931 0.6959455609
vn -0.9408795834 -0.0242797751 0.3378699124
f 1//1 2//2 3//3 
f 3//3 2//2 4//4 
f 5//5 6//6 7//7 
f 7//7 6//6 8//8 
f 7//7 8//8 9//9 
f 3//3 4//4 9//9 
f 9//9 4//4 10//10 
f 9//9 10//10 7//7 
f 11//11 12//12 2//2 
f 2//2 12//12 4//4 
f 4//4 12//12 10//10 
f 10//10 12//12 7//7 
f 7//7 12//12 5//5 
f 6//6 5//5 13//13 
f 13//13 5//5 12//12 
f 14//14 11//11 1//1 
f 1//1 11//11 2//2 
f 14//14 1//1 13//13 
f 13//13 1//1 3//3 
f 13//13 3//3 9//9 
f 9//9 8//8 13//13 
f 13//13 8//8 6//6 
f 13//13 12//12 14//14 
f 14//14 12//12 11//11 
