v -35.32076263 32.66838837 -156.1803589
v -35.32076263 32.45819855 -156.1803589
v -38.41478348 32.66838837 -157.8602753
v -38.41478348 32.45819855 -157.8602753
v -38.41457367 32.75 -157.8606567
v -35.32055664 32.75 -156.1807404
v -38.41675949 32.72293854 -157.8566284
v -35.32273865 32.72293854 -156.176712
v -35.32281113 32.69549561 -156.17659
v -38.41682816 32.69549561 -157.8565063
v -38.66330338 32.45819855 -157.4025574
v -38.66330338 32.75 -157.4025574
v -35.56928253 32.75 -155.722641
v -35.56928253 32.45819855 -155.722641
vn 0.7280669808 0.01716802642 -0.6852909923
vn 0.2028204948 -0.9269775152 -0.3155574799
vn 0.3279315233 0.01783060096 -0.9445332289
vn 0.1297180802 -0.9259147048 -0.3547607064
vn 0.01815092191 0.9986013174 -0.04965877533
vn 0.02835958451 0.9986237288 -0.04411718622
vn 0.4097365737 -0.08610031754 -0.9081314206
vn 0.5980363488 -0.08541931212 -0.7969040275
vn 0.5381387472 0.07561380416 -0.8394576907
vn 0.3446395397 0.0750407055 -0.9357309937
vn -0.287326932 -0.8707273602 0.3990952969
vn -0.1731271446 0.9617446065 0.2123070359
vn -0.2932480276 0.6645071507 0.6873397231
vn -0.122957848 -0.8657377958 0.4851592481
f 1//1 2//2 3//3 
f 3//3 2//2 4//4 
f 5//5 6//6 7//7 
f 7//7 6//6 8//8 
f 7//7 8//8 9//9 
f 1//1 3//3 9//9 
f 9//9 3//3 10//10 
f 9//9 10//10 7//7 
f 4//4 11//11 3//3 
f 3//3 11//11 12//12 
f 3//3 12//12 10//10 
f 10//10 12//12 7//7 
f 7//7 12//12 5//5 
f 13//13 6//6 12//12 
f 12//12 6//6 5//5 
f 14//14 11//11 2//2 
f 2//2 11//11 4//4 
f 2//2 1//1 14//14 
f 14//14 1//1 13//13 
f 13//13 1//1 9//9 
f 13//13 9//9 8//8 
f 8//8 6//6 13//13 
f 14//14 13//13 11//11 
f 11//11 13//13 12//12 
