v 24.82785034 32.72916794 -123.7948914
v 24.82785034 32.77083206 -123.7948914
v 28.30650139 32.72916794 -121.9061356
v 28.30650139 32.77083206 -121.9061356
v 28.28661919 32.77083206 -121.8695221
v 28.28661919 32.72916794 -121.8695221
v 24.80796814 32.72916794 -123.7582779
v 24.80796814 32.77083206 -123.7582779
vn 0.3242877424 -0.7070227861 -0.6284554601
vn 0.4226440489 0.4472032189 -0.7882773876
vn 0.3406729996 -0.7070967555 -0.6196419001
vn 0.2216581553 0.8943850994 -0.3885137439
vn -0.4226440489 0.4472032189 0.7882773876
vn -0.3242877424 -0.7070227861 0.6284554601
vn -0.3406729996 -0.7070967555 0.6196419001
vn -0.2216581553 0.8943850994 0.3885137439
f 1//1 2//2 3//3 
f 3//3 2//2 4//4 
f 5//5 6//6 4//4 
f 4//4 6//6 3//3 
f 1//1 3//3 7//7 
f 7//7 3//3 6//6 
f 2//2 8//8 4//4 
f 4//4 8//8 5//5 
f 2//2 1//1 8//8 
f 8//8 1//1 7//7 
f 8//8 7//7 5//5 
f 5//5 7//7 6//6 
