v -49.21702576 32.66838837 -163.7254028
v -49.21702576 32.45819855 -163.7254028
v -52.38422012 32.66838837 -165.4450531
v -52.38422012 32.45819855 -165.4450531
v -52.38401413 32.75 -165.4454346
v -49.21681595 32.75 -163.7257996
v -52.38619614 32.72293854 -165.4414215
v -49.21900177 32.72293854 -163.7217712
v -49.21907043 32.69549561 -163.7216339
v -52.38626862 32.69549561 -165.4412842
v -52.63274002 32.45819855 -164.9873352
v -52.63274002 32.75 -164.9873352
v -49.46554565 32.75 -163.2677002
v -49.46554565 32.45819855 -163.2677002
vn 0.7233300805 0.017197337 -0.6902882457
vn 0.202264145 -0.9269920588 -0.3158717155
vn 0.3314318061 0.01784036681 -0.9433104992
vn 0.1308499277 -0.9259793758 -0.3541758358
vn 0.01830751076 0.9986027479 -0.04957217351
vn 0.02828058787 0.998624146 -0.04415939003
vn 0.4112675488 -0.08623217046 -0.9074265957
vn 0.5953637362 -0.08568245918 -0.798874557
vn 0.5367435813 0.07538922876 -0.8403705955
vn 0.3477230966 0.07481586933 -0.9346075058
vn -0.2860932052 -0.870801568 0.3998190463
vn -0.1721045375 0.9618014097 0.2128803879
vn -0.2947066724 0.6645832658 0.6866418719
vn -0.1255123913 -0.8660330772 0.4839766324
f 1//1 2//2 3//3 
f 3//3 2//2 4//4 
f 5//5 6//6 7//7 
f 7//7 6//6 8//8 
f 7//7 8//8 9//9 
f 1//1 3//3 9//9 
f 9//9 3//3 10//10 
f 9//9 10//10 7//7 
f 4//4 11//11 3//3 
f 3//3 11//11 12//12 
f 3//3 12//12 10//10 
f 10//10 12//12 7//7 
f 7//7 12//12 5//5 
f 13//13 6//6 12//12 
f 12//12 6//6 5//5 
f 14//14 11//11 2//2 
f 2//2 11//11 4//4 
f 2//2 1//1 14//14 
f 14//14 1//1 13//13 
f 13//13 1//1 9//9 
f 13//13 9//9 8//8 
f 8//8 6//6 13//13 
f 14//14 13//13 11//11 
f 11//11 13//13 12//12 
