v 10.73015404 32.72916794 -131.4493103
v 10.73015404 38.66666794 -131.4493103
v 10.76677227 32.72916794 -131.4294281
v 10.76677227 38.66666794 -131.4294281
v 10.71027279 38.66666794 -131.4127045
v 10.74689007 38.66666794 -131.3928223
v 10.74689007 32.72916794 -131.3928223
v 10.71027279 32.72916794 -131.4127045
vn -0.5724633336 -0.006276036613 -0.8199062943
vn 0.03390001133 0.006275010761 -0.9994055033
vn 0.8197565675 -0.003137924708 -0.5727035403
vn 0.9994245172 0.003138417145 0.03377623856
vn -0.9994248152 0.003138320986 -0.03376601264
vn -0.03390035778 0.006275075022 0.9994055033
vn 0.5724585056 -0.006275983993 0.8199096322
vn -0.8197613358 -0.003137845779 0.5726966858
f 1//1 2//2 3//3 
f 3//3 2//2 4//4 
f 5//5 6//6 2//2 
f 2//2 6//6 4//4 
f 3//3 4//4 7//7 
f 7//7 4//4 6//6 
f 8//8 5//5 1//1 
f 1//1 5//5 2//2 
f 8//8 1//1 7//7 
f 7//7 1//1 3//3 
f 7//7 6//6 8//8 
f 8//8 6//6 5//5 
