v -52.50806046 46.72916794 -165.7848663
v -52.50806046 46.77083206 -165.7848663
v -49.02941132 46.72916794 -163.8961182
v -49.02941132 46.77083206 -163.8961182
v -49.0492897 46.77083206 -163.8594971
v -49.0492897 46.72916794 -163.8594971
v -52.52794266 46.72916794 -165.7482452
v -52.52794266 46.77083206 -165.7482452
vn 0.3242582679 -0.7070803046 -0.6284059286
vn 0.4226285815 0.4472609758 -0.7882529497
vn 0.3406488597 -0.7071457505 -0.6195992231
vn 0.2216344178 0.8944094181 -0.3884712756
vn -0.4226320684 0.4472454786 0.7882598639
vn -0.3242653608 -0.7070654631 0.628418982
vn -0.3406488001 -0.7071456313 0.6195994616
vn -0.2216344476 0.8944095969 0.3884709179
f 1//1 2//2 3//3 
f 3//3 2//2 4//4 
f 5//5 6//6 4//4 
f 4//4 6//6 3//3 
f 1//1 3//3 7//7 
f 7//7 3//3 6//6 
f 2//2 8//8 4//4 
f 4//4 8//8 5//5 
f 2//2 1//1 8//8 
f 8//8 1//1 7//7 
f 8//8 7//7 5//5 
f 5//5 7//7 6//6 
