v -39.10471725 46.75 -153.1043854
v -39.10471725 38.75 -153.1043854
v -38.72660065 46.75 -153.4631958
v -38.72660065 38.75 -153.4631958
v -38.7830925 38.75 -153.5220947
v -38.7830925 46.75 -153.5220947
v -38.76754379 38.75 -153.4994812
v -38.76754379 46.75 -153.4994812
v -38.7485466 46.75 -153.4796753
v -38.7485466 38.75 -153.4796753
v -38.92778015 38.75 -153.6745605
v -39.30558014 38.75 -153.31604
v -38.92778015 46.75 -153.6745605
v -39.30558014 46.75 -153.31604
vn -0.08238660544 0.03098059632 0.996118784
vn 0.4672424495 -0.02239784598 0.8838455081
vn 0.7070157528 0.001698147622 0.7071957588
vn 0.7607638836 -0.003423900576 0.6490197182
vn 0.7297762036 -0.07664898783 -0.6793758869
vn 0.7410603166 0.1289586425 -0.6589379907
vn 0.7750017643 -0.03191723675 -0.6311525106
vn 0.7738202214 0.06373715401 -0.6301903129
vn 0.6629090309 0.03230166808 -0.7480028272
vn 0.6618739367 -0.06450245529 -0.7468348742
vn -0.531236887 -0.01287631877 -0.8471254706
vn -0.9986608028 -0.04174511507 0.03056130372
vn -0.08004743606 0.02044081129 -0.9965814352
vn -0.8581113219 0.03019743972 -0.5125749707
f 1//1 2//2 3//3 
f 3//3 2//2 4//4 
f 5//5 6//6 7//7 
f 7//7 6//6 8//8 
f 7//7 8//8 9//9 
f 3//3 4//4 9//9 
f 9//9 4//4 10//10 
f 9//9 10//10 7//7 
f 11//11 5//5 12//12 
f 12//12 5//5 2//2 
f 2//2 5//5 7//7 
f 2//2 7//7 10//10 
f 10//10 4//4 2//2 
f 6//6 5//5 13//13 
f 13//13 5//5 11//11 
f 14//14 12//12 1//1 
f 1//1 12//12 2//2 
f 13//13 14//14 6//6 
f 6//6 14//14 1//1 
f 6//6 1//1 8//8 
f 8//8 1//1 9//9 
f 9//9 1//1 3//3 
f 13//13 11//11 14//14 
f 14//14 11//11 12//12 
