v -79.11820984 23.75 143.0244446
v -79.11820984 32.75 143.0244446
v -79.15499878 23.75 143.0048828
v -79.15499878 32.75 143.0048828
v -79.1452179 32.75 142.986496
v -79.10842896 32.75 143.0060577
v -79.1452179 23.75 142.986496
v -79.10842896 23.75 143.0060577
vn 0.2921194434 -0.001636403147 0.9563804269
vn -0.2414067984 0.001122455113 0.9704233408
vn -0.6695615649 -0.002245087642 0.7427532077
vn -0.9562820792 0.003273356007 0.2924275398
vn 0.2414067984 0.001122455113 -0.9704233408
vn 0.9562820792 0.003273356007 -0.2924275398
vn -0.2921194434 -0.001636403147 -0.9563804269
vn 0.6695615649 -0.002245087642 -0.7427532077
f 1//1 2//2 3//3 
f 3//3 2//2 4//4 
f 5//5 4//4 6//6 
f 6//6 4//4 2//2 
f 3//3 4//4 7//7 
f 7//7 4//4 5//5 
f 8//8 6//6 1//1 
f 1//1 6//6 2//2 
f 1//1 3//3 8//8 
f 8//8 3//3 7//7 
f 7//7 5//5 8//8 
f 8//8 5//5 6//6 
