v -33.41913605 38.75 -147.6142883
v -33.41913605 38.83333206 -147.6142883
v -30.86658096 38.75 -144.924469
v -30.86658096 38.83333206 -144.924469
v -33.64863205 38.75 -147.3965149
v -31.09607887 38.75 -144.7066803
v -31.09607887 38.84370804 -144.7066803
v -33.64863205 38.84370804 -147.3965149
v -31.09230423 38.81261826 -144.7102661
v -33.64485931 38.81261826 -147.4000854
v -33.64485931 38.7810936 -147.4000854
v -31.09230423 38.7810936 -144.7102661
v -33.66944122 38.84370804 -147.37677
v -31.11688805 38.84370804 -144.6869354
v -33.66944122 39.04166794 -147.37677
v -31.11688805 39.04166794 -144.6869354
v -30.73908615 38.83333206 -145.0454559
v -30.73908615 39.04166794 -145.0454559
v -33.29164124 39.04166794 -147.7352905
v -33.29164124 38.83333206 -147.7352905
vn 0.08429744095 -0.9913261533 -0.1008287817
vn 0.2937862575 -0.6984894276 -0.6525351405
vn 0.3565072119 -0.8844300508 -0.3011412323
vn 0.2921373844 -0.9561365247 -0.02141827717
vn -0.0779575333 -0.9950091839 0.06228480861
vn -0.06920070946 -0.995036006 0.07151649892
vn -0.1604421884 -0.6704596281 0.7243908644
vn -0.6311784983 -0.7184138298 0.2923957407
vn -0.6933289766 -0.08269813657 0.7158602476
vn -0.7780280709 -0.08239389211 0.6228030324
vn -0.7864583135 0.08237596601 0.6121253967
vn -0.5772832036 0.08132060617 0.8124845028
vn -0.7261286378 -0.07226390392 0.6837508082
vn -0.6915720701 -0.2783531249 0.6665189862
vn -0.315374285 0.9313654304 0.181927219
vn -0.228101179 0.9339068532 0.2752959132
vn 0.68321383 -0.3885703385 -0.6182491183
vn 0.3166536689 0.9262245893 -0.2045446336
vn 0.2452369332 0.9279114604 -0.2807831466
vn 0.3530819118 -0.8600219488 -0.3683685958
f 1//1 2//2 3//3 
f 3//3 2//2 4//4 
f 5//5 1//1 6//6 
f 6//6 1//1 3//3 
f 7//7 8//8 9//9 
f 9//9 8//8 10//10 
f 9//9 10//10 11//11 
f 5//5 6//6 11//11 
f 11//11 6//6 12//12 
f 11//11 12//12 9//9 
f 13//13 8//8 14//14 
f 14//14 8//8 7//7 
f 15//15 13//13 16//16 
f 16//16 13//13 14//14 
f 17//17 18//18 4//4 
f 4//4 18//18 16//16 
f 4//4 16//16 7//7 
f 7//7 16//16 14//14 
f 7//7 9//9 4//4 
f 4//4 9//9 12//12 
f 4//4 12//12 3//3 
f 3//3 12//12 6//6 
f 15//15 16//16 19//19 
f 19//19 16//16 18//18 
f 2//2 20//20 4//4 
f 4//4 20//20 17//17 
f 20//20 2//2 19//19 
f 19//19 2//2 15//15 
f 15//15 2//2 8//8 
f 15//15 8//8 13//13 
f 1//1 11//11 2//2 
f 2//2 11//11 10//10 
f 2//2 10//10 8//8 
f 1//1 5//5 11//11 
f 20//20 19//19 17//17 
f 17//17 19//19 18//18 
