v -38.44698715 32.75 -158.1503296
v -38.46686935 32.75 -158.1137085
v -34.9683342 32.75 -156.2615662
v -34.9882164 32.75 -156.2249603
v -34.9683342 32.72916794 -156.2615662
v -34.9882164 32.72916794 -156.2249603
v -38.44698715 32.72916794 -158.1503296
v -38.46686935 32.72916794 -158.1137085
vn 0.3341057897 0.7071536183 -0.6231429577
vn -0.1202154085 0.9701290131 0.2107081711
vn 0.1202144921 0.9701291323 -0.2107082009
vn -0.334158659 0.7070394754 0.6232440472
vn 0.2154626846 -0.8944220543 -0.3918992877
vn -0.205139488 -0.8943555355 0.3975498974
vn 0.2050847262 -0.8944138288 -0.3974471092
vn -0.2154618651 -0.8944221735 0.3918993771
f 1//1 2//2 3//3 
f 3//3 2//2 4//4 
f 5//5 3//3 6//6 
f 6//6 3//3 4//4 
f 7//7 1//1 5//5 
f 5//5 1//1 3//3 
f 2//2 8//8 4//4 
f 4//4 8//8 6//6 
f 8//8 2//2 7//7 
f 7//7 2//2 1//1 
f 7//7 5//5 8//8 
f 8//8 5//5 6//6 
