v -44.36126328 38.75 -159.1448975
v -44.36126328 38.83333206 -159.1448975
v -42.00957108 38.75 -156.6667328
v -42.00957108 38.83333206 -156.6667328
v -44.59075928 38.75 -158.9271088
v -42.23906708 38.75 -156.4489441
v -42.23906708 38.84370804 -156.4489441
v -44.59075928 38.84370804 -158.9271088
v -42.23529434 38.81261826 -156.4525299
v -44.58698654 38.81261826 -158.9306946
v -44.58698654 38.7810936 -158.9306946
v -42.23529434 38.7810936 -156.4525299
v -44.61156845 38.84370804 -158.9073639
v -42.25987625 38.84370804 -156.4291992
v -44.61156845 39.04166794 -158.9073639
v -42.25987625 39.04166794 -156.4291992
v -41.88207626 38.83333206 -156.7877197
v -41.88207626 39.04166794 -156.7877197
v -44.23376846 39.04166794 -159.2658844
v -44.23376846 38.83333206 -159.2658844
vn 0.08340606093 -0.9913062453 -0.1017613113
vn 0.2760571837 -0.6939358115 -0.6650153995
vn 0.3580712676 -0.8843718767 -0.2994517982
vn 0.3021305203 -0.9532152414 -0.009892505594
vn -0.07845585793 -0.9950028062 0.06175875664
vn -0.06895125657 -0.9950343966 0.07177912444
vn -0.1340035796 -0.66039294 0.738866806
vn -0.6414004564 -0.715308249 0.2773798108
vn -0.690747261 -0.08275820315 0.7183448076
vn -0.7824574709 -0.0824925825 0.617215693
vn -0.7915106416 0.08237055689 0.6055790186
vn -0.5641502738 0.08103580773 0.8216858506
vn -0.7263535857 -0.07226380706 0.6835117936
vn -0.6911309958 -0.2783517241 0.6669769287
vn -0.3201728165 0.9307649136 0.1765391678
vn -0.2255553603 0.933755219 0.27789554
vn 0.6844677925 -0.3885538578 -0.6168709397
vn 0.3206079304 0.9258248806 -0.2001471519
vn 0.2431613058 0.9278109074 -0.2829125822
vn 0.3516521752 -0.859970212 -0.3698539436
f 1//1 2//2 3//3 
f 3//3 2//2 4//4 
f 5//5 1//1 6//6 
f 6//6 1//1 3//3 
f 7//7 8//8 9//9 
f 9//9 8//8 10//10 
f 9//9 10//10 11//11 
f 5//5 6//6 11//11 
f 11//11 6//6 12//12 
f 11//11 12//12 9//9 
f 13//13 8//8 14//14 
f 14//14 8//8 7//7 
f 15//15 13//13 16//16 
f 16//16 13//13 14//14 
f 17//17 18//18 4//4 
f 4//4 18//18 16//16 
f 4//4 16//16 7//7 
f 7//7 16//16 14//14 
f 7//7 9//9 4//4 
f 4//4 9//9 12//12 
f 4//4 12//12 3//3 
f 3//3 12//12 6//6 
f 15//15 16//16 19//19 
f 19//19 16//16 18//18 
f 2//2 20//20 4//4 
f 4//4 20//20 17//17 
f 20//20 2//2 19//19 
f 19//19 2//2 15//15 
f 15//15 2//2 8//8 
f 15//15 8//8 13//13 
f 1//1 11//11 2//2 
f 2//2 11//11 10//10 
f 2//2 10//10 8//8 
f 1//1 5//5 11//11 
f 20//20 19//19 17//17 
f 17//17 19//19 18//18 
