v -56.02333069 46.72916794 -167.6934967
v -56.02333069 46.77083206 -167.6934967
v -52.54467773 46.72916794 -165.8047485
v -52.54467773 46.77083206 -165.8047485
v -52.56455994 46.77083206 -165.7681274
v -52.56455994 46.72916794 -165.7681274
v -56.04320908 46.72916794 -167.6568909
v -56.04320908 46.77083206 -167.6568909
vn 0.3243224025 -0.7069504261 -0.6285189986
vn 0.4226606786 0.4471299946 -0.788310051
vn 0.3406760693 -0.7070890665 -0.6196490526
vn 0.2216628194 0.8943809867 -0.3885206282
vn -0.4226312637 0.4472609758 0.7882515192
vn -0.3242604136 -0.7070803046 0.6284047961
vn -0.340677321 -0.7070888877 0.6196485162
vn -0.2216611505 0.8943811655 0.3885211647
f 1//1 2//2 3//3 
f 3//3 2//2 4//4 
f 5//5 6//6 4//4 
f 4//4 6//6 3//3 
f 1//1 3//3 7//7 
f 7//7 3//3 6//6 
f 2//2 8//8 4//4 
f 4//4 8//8 5//5 
f 2//2 1//1 8//8 
f 8//8 1//1 7//7 
f 8//8 7//7 5//5 
f 5//5 7//7 6//6 
