v -38.4986496 24.75 -157.70578
v -38.4986496 24.83333397 -157.70578
v -35.40462875 24.75 -156.0258636
v -35.40462875 24.83333397 -156.0258636
v -38.64961624 24.75 -157.4277344
v -35.5555954 24.75 -155.747818
v -35.5555954 24.84370804 -155.747818
v -38.64961624 24.84370804 -157.4277344
v -35.55311203 24.81261635 -155.7523956
v -38.64713287 24.81261635 -157.432312
v -38.64713287 24.78109169 -157.432312
v -35.55311203 24.78109169 -155.7523956
v -38.66330338 24.84370804 -157.4025269
v -35.56928635 24.84370804 -155.7226105
v -38.66330338 25.04166603 -157.4025269
v -35.56928635 25.04166603 -155.7226105
v -35.32076263 24.83333397 -156.1803284
v -35.32076263 25.04166603 -156.1803284
v -38.41478348 25.04166603 -157.8602448
v -38.41478348 24.83333397 -157.8602448
vn 0.09420039505 -0.9665526748 -0.2385419458
vn 0.04140006006 -0.888554275 -0.4568997622
vn 0.1351636201 -0.9669020176 -0.2164054066
vn 0.4962826669 -0.8475999236 -0.1878241599
vn -0.02751873806 -0.998765111 0.04136399925
vn -0.08716389537 -0.979927361 0.1792896986
vn 0.06253831834 -0.8538725376 0.5167114139
vn -0.6399799585 -0.5097309947 0.5749782324
vn -0.4361710548 -0.08280497789 0.8960458636
vn -0.5511960983 -0.08255908638 0.830281198
vn -0.5630725622 0.08244723082 0.8222844601
vn -0.2883881629 0.08118209988 0.9540659189
vn -0.47576648 -0.1434039026 0.8678027391
vn -0.4651255608 -0.1434046328 0.8735521436
vn -0.1304943562 0.9813209176 0.1413523257
vn -0.220761776 0.7937751412 0.5667321086
vn 0.3813999891 -0.6447182298 -0.6624745131
vn 0.1275826693 0.9798436165 -0.1537177414
vn 0.2433017641 0.7793839574 -0.5773775578
vn 0.3309282362 -0.6443668008 -0.6894040108
f 1//1 2//2 3//3 
f 3//3 2//2 4//4 
f 1//1 3//3 5//5 
f 5//5 3//3 6//6 
f 7//7 8//8 9//9 
f 9//9 8//8 10//10 
f 9//9 10//10 11//11 
f 5//5 6//6 11//11 
f 11//11 6//6 12//12 
f 11//11 12//12 9//9 
f 8//8 7//7 13//13 
f 13//13 7//7 14//14 
f 15//15 13//13 16//16 
f 16//16 13//13 14//14 
f 17//17 18//18 4//4 
f 4//4 18//18 16//16 
f 4//4 16//16 7//7 
f 7//7 16//16 14//14 
f 7//7 9//9 4//4 
f 4//4 9//9 12//12 
f 4//4 12//12 3//3 
f 3//3 12//12 6//6 
f 19//19 15//15 18//18 
f 18//18 15//15 16//16 
f 20//20 17//17 2//2 
f 2//2 17//17 4//4 
f 20//20 2//2 19//19 
f 19//19 2//2 15//15 
f 15//15 2//2 8//8 
f 15//15 8//8 13//13 
f 1//1 11//11 2//2 
f 2//2 11//11 10//10 
f 2//2 10//10 8//8 
f 1//1 5//5 11//11 
f 20//20 19//19 17//17 
f 17//17 19//19 18//18 
