v -23.36376572 55.98743057 142.8376007
v -23.36376572 55.75 142.8376007
v -34.46793365 55.98743057 142.8376007
v -34.46793365 55.75 142.8376007
v -23.36376572 56.06238556 143.5684052
v -34.46793365 56.06238556 143.5684052
v -23.36376572 56.06238556 143.6809692
v -34.46793365 56.06238556 143.6809692
v -23.36376572 56.08872223 143.6809692
v -34.46793365 56.08872223 143.6809692
v -23.36376572 56.10951996 143.6628876
v -34.46793365 56.10951996 143.6628876
v -34.46793365 56.12488556 143.6698914
v -23.36376572 56.12488556 143.6698914
v -34.46793365 56.12458801 143.667572
v -23.36376572 56.12458801 143.667572
v -34.46793365 56.12371445 143.6653748
v -23.36376572 56.12371445 143.6653748
v -34.46793365 56.12231827 143.6634827
v -23.36376572 56.12231827 143.6634827
v -34.46793365 56.12049484 143.6620026
v -23.36376572 56.12049484 143.6620026
v -34.46793365 56.1183548 143.661026
v -23.36376572 56.1183548 143.661026
v -34.46793365 56.11603928 143.6606293
v -23.36376572 56.11603928 143.6606293
v -34.46793365 56.11369705 143.6608124
v -23.36376572 56.11369705 143.6608124
v -34.46793365 56.11147308 143.6615906
v -23.36376572 56.11147308 143.6615906
v -23.36376572 56.12488556 143.9414825
v -34.46793365 56.12488556 143.9414825
v -34.46793365 56.11408997 143.9522858
v -23.36376572 56.11408997 143.9522858
v -34.46793365 56.11688614 143.9519196
v -23.36376572 56.11688614 143.9519196
v -34.46793365 56.11948776 143.9508362
v -23.36376572 56.11948776 143.9508362
v -34.46793365 56.12172318 143.9491272
v -23.36376572 56.12172318 143.9491272
v -34.46793365 56.12343979 143.9468842
v -23.36376572 56.12343979 143.9468842
v -34.46793365 56.12451935 143.9442902
v -23.36376572 56.12451935 143.9442902
v -23.36376572 55.69295502 143.9522858
v -34.46793365 55.69295502 143.9522858
v -34.46793365 55.75 143.8410187
v -34.46793365 55.68819427 143.9438782
v -34.46793365 55.69166565 143.9521332
v -34.46793365 55.69044495 143.9516907
v -34.46793365 55.68936157 143.9509583
v -34.46793365 55.68847656 143.9500122
v -34.46793365 55.68783569 143.9488831
v -34.46793365 55.68766022 143.9450531
v -34.46793365 55.68747711 143.9476318
v -34.46793365 55.68741608 143.9463348
v -23.36376572 55.68819427 143.9438782
v -23.36376572 55.68766022 143.9450531
v -23.36376572 55.68741608 143.9463348
v -23.36376572 55.68747711 143.9476318
v -23.36376572 55.68783569 143.9488831
v -23.36376572 55.68847656 143.9500122
v -23.36376572 55.68936157 143.9509583
v -23.36376572 55.69044495 143.9516907
v -23.36376572 55.69166565 143.9521332
v -23.36376572 55.75 143.8410187
v -6.325573921 55.98743057 142.8376007
v -6.325573921 55.75 142.8376007
v -8.655433655 55.98743057 142.8376007
v -8.655433655 55.75 142.8376007
v -5.890789986 56.06238556 143.5684052
v -8.655433655 56.06238556 143.5684052
v -5.823824406 56.06238556 143.6809692
v -8.655433655 56.06238556 143.6809692
v -5.823824406 56.08872223 143.6809692
v -8.655433655 56.08872223 143.6809692
v -5.834579468 56.10951996 143.6628876
v -8.655433655 56.10951996 143.6628876
v -5.830413342 56.12488556 143.6698914
v -5.831291199 56.1247673 143.6684265
v -8.655433655 56.12488556 143.6698914
v -8.655433655 56.12458801 143.667572
v -5.832135677 56.12442398 143.6670074
v -8.655433655 56.12371445 143.6653748
v -5.832941532 56.12385559 143.6656494
v -5.833688259 56.12307739 143.6643982
v -8.655433655 56.12231827 143.6634827
v -5.834350586 56.12211227 143.6632843
v -5.834912777 56.12098312 143.6623383
v -8.655433655 56.12049484 143.6620026
v -5.835361481 56.11972046 143.6615753
v -8.655433655 56.1183548 143.661026
v -5.835686207 56.1183548 143.661026
v -5.835850716 56.11721039 143.6607513
v -8.655433655 56.11603928 143.6606293
v -5.835927963 56.11603928 143.6606293
v -5.835915565 56.11486053 143.6606445
v -8.655433655 56.11369705 143.6608124
v -5.83581543 56.11369705 143.6608124
v -5.835628986 56.1125679 143.6611328
v -8.655433655 56.11147308 143.6615906
v -5.835359573 56.11148834 143.6615753
v -5.835008621 56.110466 143.6621704
v -5.668832302 56.12488556 143.9414825
v -8.655433655 56.12488556 143.9414825
v -5.662410259 56.11408997 143.9522858
v -5.662466526 56.11550903 143.9521942
v -8.655433655 56.11408997 143.9522858
v -8.655433655 56.11688614 143.9519196
v -5.662629128 56.11688614 143.9519196
v -5.662899017 56.11822128 143.9514618
v -8.655433655 56.11948776 143.9508362
v -5.66327095 56.11948776 143.9508362
v -5.663737297 56.12066269 143.950058
v -8.655433655 56.12172318 143.9491272
v -5.664291382 56.12172318 143.9491272
v -5.665621281 56.12343979 143.9468842
v -8.655433655 56.12343979 143.9468842
v -5.667159557 56.12451553 143.9443054
v -8.655433655 56.12451935 143.9442902
v -5.662410259 55.69295502 143.9522858
v -8.655433655 55.69295502 143.9522858
v -8.655433655 55.75 143.8410187
v -8.655433655 55.68819427 143.9438782
v -8.655433655 55.69166565 143.9521332
v -8.655433655 55.69044495 143.9516907
v -8.655433655 55.68936157 143.9509583
v -8.655433655 55.68847656 143.9500122
v -8.655433655 55.68783569 143.9488831
v -8.655433655 55.68766022 143.9450531
v -8.655433655 55.68747711 143.9476318
v -8.655433655 55.68741608 143.9463348
v -5.667414188 55.68819427 143.9438782
v -5.666611195 55.68761444 143.9452209
v -5.665755749 55.68740463 143.9466553
v -5.66489315 55.68757629 143.9481049
v -5.664086342 55.6881218 143.9494629
v -5.663393021 55.68900299 143.9506378
v -5.66310358 55.68955231 143.9511108
v -5.662859917 55.69015884 143.9515228
v -5.662666321 55.69081116 143.9518585
v -5.662526131 55.69150162 143.9520874
v -5.6624403 55.69221497 143.95224
v -5.728609085 55.75 143.8410187
vn 0.02899095975 0.9662262201 -0.2560593486
vn 0.01932350919 -0.9037230611 -0.4276811779
vn -0.04789787158 0.7981829643 -0.600507915
vn -0.01061641052 -0.9930179119 -0.1174848452
vn 0.02665332146 0.9965858459 -0.07814262062
vn -0.01616569236 0.9953660369 -0.09478964657
vn 0.09760322422 0.9014158249 -0.4218093455
vn -0.05369457603 0.9917938709 -0.1160252243
vn 0.02409180999 -0.4697724879 -0.8824586868
vn -0.024503842 -0.2389034182 -0.9707341194
vn 0.001377440989 -0.64843297 -0.7612705231
vn -0.0006887210184 -0.6484334469 -0.7612710595
vn -0.003411017125 0.9999935627 -0.001086283475
vn 0.001705516013 0.9999979734 -0.001086288248
vn -1.767533104e-05 0.9776905179 -0.2100506872
vn 1.760887062e-05 0.9566212296 -0.2913346291
vn -6.998876779e-05 0.8944271803 -0.4472135901
vn 7.012041169e-05 0.8526090384 -0.5225493312
vn -0.0001540455996 0.751901269 -0.6592757106
vn 0.0001541103848 0.6933483481 -0.720602572
vn -0.0002635219716 0.5624739528 -0.8268149495
vn 0.0002633777622 0.4902612269 -0.8715755343
vn -0.0003926981299 0.3356114924 -0.9420003891
vn 0.000392871676 0.2529099882 -0.9674897194
vn -0.0005307027604 0.08719398081 -0.9961912036
vn 0.000530694495 0.004359630868 -0.999990344
vn -0.0006714698393 -0.1634271443 -0.9865551591
vn 0.0006708117435 -0.2481657863 -0.9687173367
vn -0.0008032134501 -0.4071481526 -0.9133617878
vn 0.0008045593859 -0.4819813967 -0.876181066
vn 0.004295782186 0.9999898672 0.001334580244
vn -0.002147905994 0.9999967813 0.001334589557
vn -0.03190452605 0.0008634052938 0.9994905591
vn 0.01595835574 0.0008637350402 0.9998722672
vn -0.0004800821771 0.21635288 0.9763151407
vn 0.000480190065 0.3018710017 0.9533486366
vn -0.0003239370417 0.4620685577 0.8868441582
vn 0.0003241060185 0.5369343758 0.8436239958
vn -0.0001902203512 0.675023973 0.7377957702
vn 0.0001899761846 0.7377572656 0.6750660539
vn -8.699505997e-05 0.8432683945 0.5374927521
vn 8.715050353e-05 0.8866497874 0.4624415636
vn -2.235090869e-05 0.9535689354 0.3011749089
vn 2.22926883e-05 0.9764956832 0.2155369222
vn 0.0102065159 -0.0003612006258 0.9999478459
vn -0.005103457253 -0.0003612147411 0.999986887
vn -0.04906714708 -0.9936167598 -0.1015785709
vn -0.0007765572518 -0.857786715 -0.5140052438
vn -0.0006512461114 -0.2306874096 0.9730277061
vn -0.0003565925581 -0.4170610905 0.908878386
vn -0.0002773365122 -0.6198986769 0.7846818566
vn -0.0002044239518 -0.7816385031 0.6237317324
vn -0.0001631395135 -0.9059314132 0.4234244525
vn -6.64029576e-05 -0.9533138275 -0.3019813895
vn -3.596090755e-05 -0.9796622396 0.2006537169
vn -9.170877092e-06 -0.9995043874 -0.03148045391
vn 0.0003882787132 -0.8577868938 -0.514005363
vn 0.0001328059152 -0.9533138275 -0.3019813895
vn 9.155790394e-06 -0.9939315319 -0.1100003272
vn 3.599037882e-05 -0.9922778606 0.1240347326
vn 0.0001630020706 -0.9366522431 0.3502607048
vn 0.0002042712149 -0.8283910751 0.5601501465
vn 0.000278218009 -0.6769712567 0.736009419
vn 0.000355734519 -0.4906338751 0.871365726
vn 0.0003256230848 -0.2306874543 0.9730278254
vn 0.02827923372 -0.9991713762 -0.02927176654
vn 0.1232990623 0.9426733255 -0.3101038635
vn 0.04391124472 -0.9721897244 -0.2300412804
vn -0.2228000611 0.779014051 -0.5860863328
vn -0.09868516773 -0.9683782458 -0.2291394025
vn 0.1054603159 0.9845587015 -0.1397220194
vn -0.06988490373 0.9931162 -0.09400172532
vn 0.3257113695 0.7670792341 -0.5527219176
vn -0.2086599618 0.9712061882 -0.1149763316
vn 0.1321649998 -0.3286001682 -0.9351760745
vn -0.07191500813 -0.3569106162 -0.9313662052
vn 0.002768987324 -0.6542277336 -0.756292522
vn -0.005217359867 -0.6467706561 -0.7626667023
vn 0.00655653514 0.9999700785 -0.00411187578
vn 1.430609882e-05 0.9895236492 -0.1443707198
vn -0.01333532296 0.9999099374 -0.001509478432
vn -9.410154598e-05 0.9689621925 -0.2472089678
vn 8.163585153e-05 0.9412039518 -0.3378388286
vn -0.0002677001758 0.8799657822 -0.4750370085
vn 0.0003651450097 0.8885490894 -0.4587813616
vn 0.0003494691919 0.8047227859 -0.5936506391
vn -0.0005707521923 0.7148564458 -0.6992710233
vn 0.0009809572948 0.7009470463 -0.7132126093
vn 0.0007581874961 0.6031295061 -0.7976429462
vn -0.001195589779 0.5245188475 -0.8513979912
vn 0.001003247569 0.4325018823 -0.9016324878
vn -0.001498929108 0.3008378148 -0.9536741376
vn 0.002261921065 0.311493814 -0.9502454996
vn 0.00135286001 0.1687362939 -0.9856603146
vn -0.002103898209 0.04567984864 -0.9989539385
vn 0.003133286722 0.04532114416 -0.9989675283
vn 0.001757894061 -0.07785403728 -0.996963203
vn -0.00265891524 -0.2067818642 -0.9783834815
vn 0.00396668911 -0.2078304142 -0.978156805
vn 0.002156074857 -0.327993989 -0.9446773529
vn -0.003180661937 -0.4441690147 -0.8959373832
vn 0.004732598085 -0.4415226579 -0.8972375989
vn 0.002551484853 -0.5532507896 -0.8330108523
vn 0.01580778882 0.9998522997 -0.006748332642
vn -0.00824870728 0.9999657273 0.0006892544334
vn 0.06156811491 0.0001114150364 0.9981029034
vn 0.001556736534 0.1299792677 0.9915155172
vn -0.1172180325 0.001068768557 0.9931056499
vn -0.001800709637 0.2598039806 0.965659678
vn 0.002674036194 0.2611002922 0.965307951
vn 0.001096712891 0.3846534789 0.9230604172
vn -0.001221060869 0.4994495213 0.8663421273
vn 0.00181243883 0.4989379346 0.866635859
vn 0.0006942410837 0.6075493097 0.7942816615
vn -0.0006134423893 0.7270412445 0.6865935326
vn 0.0008876292268 0.7528374791 0.6582058668
vn 0.0003237179189 0.8430289626 0.5378680229
vn -0.0003245875996 0.8864396214 0.4628441632
vn 8.304107905e-05 0.9535784721 0.3011445999
vn -8.275648725e-05 0.9764809608 0.2156035453
vn 0.03876021132 -0.000111108493 0.9992485046
vn -0.01894310117 -0.0002349014394 0.9998205304
vn -0.1180210486 -0.9924889207 -0.03219966963
vn -0.001465527457 -0.8574784994 -0.5145177245
vn -0.001553046168 -0.2420877367 0.9702531099
vn -0.001551325433 -0.455006808 0.890486598
vn -0.0009979471797 -0.634311378 0.7730770111
vn -0.000728201936 -0.8036034703 0.595164597
vn -0.0005818491918 -0.9241862893 0.3819415867
vn -0.0003136520972 -0.9416583776 -0.3365700245
vn -0.0001295931725 -0.9892378449 0.1463162899
vn -3.286624633e-05 -0.9952418208 -0.09743586928
vn 0.002847742755 -0.8578434587 -0.5139032602
vn 0.0004301265581 -0.9690022469 -0.2470515966
vn 5.03460069e-05 -0.9999850988 0.005453682505
vn 0.0001803462364 -0.9666500688 0.2561008334
vn 0.0007842225605 -0.8709937334 0.4912934601
vn 0.0008033660124 -0.746250689 0.6656645536
vn 0.001642788644 -0.6084130406 0.7936188579
vn 0.000980596873 -0.5344586372 0.8451941013
vn 0.001117197913 -0.3658762872 0.9306628108
vn 0.002360688988 -0.2625829577 0.9649065137
vn 0.001367618213 -0.1270208806 0.9918990731
vn 0.179882437 -0.9618338346 -0.2061988264
f 1//1 2//2 3//3 
f 3//3 2//2 4//4 
f 5//5 1//1 6//6 
f 6//6 1//1 3//3 
f 7//7 5//5 8//8 
f 8//8 5//5 6//6 
f 9//9 7//7 10//10 
f 10//10 7//7 8//8 
f 11//11 9//9 12//12 
f 12//12 9//9 10//10 
f 13//13 14//14 15//15 
f 15//15 14//14 16//16 
f 15//15 16//16 17//17 
f 17//17 16//16 18//18 
f 17//17 18//18 19//19 
f 19//19 18//18 20//20 
f 19//19 20//20 21//21 
f 21//21 20//20 22//22 
f 21//21 22//22 23//23 
f 23//23 22//22 24//24 
f 23//23 24//24 25//25 
f 25//25 24//24 26//26 
f 25//25 26//26 27//27 
f 27//27 26//26 28//28 
f 27//27 28//28 29//29 
f 29//29 28//28 30//30 
f 29//29 30//30 12//12 
f 12//12 30//30 11//11 
f 31//31 14//14 32//32 
f 32//32 14//14 13//13 
f 33//33 34//34 35//35 
f 35//35 34//34 36//36 
f 35//35 36//36 37//37 
f 37//37 36//36 38//38 
f 37//37 38//38 39//39 
f 39//39 38//38 40//40 
f 39//39 40//40 41//41 
f 41//41 40//40 42//42 
f 41//41 42//42 43//43 
f 43//43 42//42 44//44 
f 43//43 44//44 32//32 
f 32//32 44//44 31//31 
f 45//45 34//34 46//46 
f 46//46 34//34 33//33 
f 4//4 47//47 3//3 
f 3//3 47//47 6//6 
f 6//6 47//47 8//8 
f 8//8 47//47 33//33 
f 8//8 33//33 10//10 
f 10//10 33//33 32//32 
f 10//10 32//32 13//13 
f 33//33 47//47 46//46 
f 46//46 47//47 48//48 
f 46//46 48//48 49//49 
f 49//49 48//48 50//50 
f 50//50 48//48 51//51 
f 51//51 48//48 52//52 
f 52//52 48//48 53//53 
f 53//53 48//48 54//54 
f 53//53 54//54 55//55 
f 55//55 54//54 56//56 
f 33//33 35//35 32//32 
f 32//32 35//35 37//37 
f 32//32 37//37 39//39 
f 39//39 41//41 32//32 
f 32//32 41//41 43//43 
f 15//15 17//17 13//13 
f 13//13 17//17 19//19 
f 13//13 19//19 21//21 
f 21//21 23//23 13//13 
f 13//13 23//23 25//25 
f 13//13 25//25 27//27 
f 27//27 29//29 13//13 
f 13//13 29//29 12//12 
f 13//13 12//12 10//10 
f 48//48 57//57 54//54 
f 54//54 57//57 58//58 
f 54//54 58//58 59//59 
f 54//54 59//59 56//56 
f 56//56 59//59 60//60 
f 56//56 60//60 55//55 
f 55//55 60//60 61//61 
f 55//55 61//61 53//53 
f 53//53 61//61 62//62 
f 53//53 62//62 52//52 
f 52//52 62//62 63//63 
f 52//52 63//63 51//51 
f 51//51 63//63 64//64 
f 51//51 64//64 50//50 
f 50//50 64//64 65//65 
f 50//50 65//65 49//49 
f 49//49 65//65 46//46 
f 46//46 65//65 45//45 
f 2//2 66//66 4//4 
f 4//4 66//66 47//47 
f 2//2 1//1 66//66 
f 66//66 1//1 5//5 
f 66//66 5//5 7//7 
f 66//66 7//7 34//34 
f 34//34 7//7 9//9 
f 34//34 9//9 31//31 
f 31//31 9//9 14//14 
f 14//14 9//9 11//11 
f 14//14 11//11 30//30 
f 30//30 28//28 14//14 
f 14//14 28//28 26//26 
f 14//14 26//26 24//24 
f 24//24 22//22 14//14 
f 14//14 22//22 20//20 
f 14//14 20//20 18//18 
f 18//18 16//16 14//14 
f 44//44 42//42 31//31 
f 31//31 42//42 40//40 
f 31//31 40//40 38//38 
f 38//38 36//36 31//31 
f 31//31 36//36 34//34 
f 34//34 45//45 66//66 
f 66//66 45//45 57//57 
f 57//57 45//45 65//65 
f 57//57 65//65 64//64 
f 64//64 63//63 57//57 
f 57//57 63//63 62//62 
f 57//57 62//62 61//61 
f 57//57 61//61 58//58 
f 58//58 61//61 60//60 
f 58//58 60//60 59//59 
f 66//66 57//57 47//47 
f 47//47 57//57 48//48 
f 67//67 68//68 69//69 
f 69//69 68//68 70//70 
f 71//71 67//67 72//72 
f 72//72 67//67 69//69 
f 73//73 71//71 74//74 
f 74//74 71//71 72//72 
f 75//75 73//73 76//76 
f 76//76 73//73 74//74 
f 75//75 76//76 77//77 
f 77//77 76//76 78//78 
f 79//79 80//80 81//81 
f 81//81 80//80 82//82 
f 82//82 80//80 83//83 
f 82//82 83//83 84//84 
f 84//84 83//83 85//85 
f 84//84 85//85 86//86 
f 84//84 86//86 87//87 
f 87//87 86//86 88//88 
f 87//87 88//88 89//89 
f 87//87 89//89 90//90 
f 90//90 89//89 91//91 
f 90//90 91//91 92//92 
f 92//92 91//91 93//93 
f 92//92 93//93 94//94 
f 92//92 94//94 95//95 
f 95//95 94//94 96//96 
f 95//95 96//96 97//97 
f 95//95 97//97 98//98 
f 98//98 97//97 99//99 
f 98//98 99//99 100//100 
f 98//98 100//100 101//101 
f 101//101 100//100 102//102 
f 101//101 102//102 103//103 
f 77//77 78//78 103//103 
f 103//103 78//78 101//101 
f 104//104 79//79 105//105 
f 105//105 79//79 81//81 
f 106//106 107//107 108//108 
f 108//108 107//107 109//109 
f 109//109 107//107 110//110 
f 109//109 110//110 111//111 
f 109//109 111//111 112//112 
f 112//112 111//111 113//113 
f 112//112 113//113 114//114 
f 112//112 114//114 115//115 
f 115//115 114//114 116//116 
f 115//115 116//116 117//117 
f 115//115 117//117 118//118 
f 118//118 117//117 119//119 
f 118//118 119//119 120//120 
f 120//120 119//119 104//104 
f 120//120 104//104 105//105 
f 121//121 106//106 122//122 
f 122//122 106//106 108//108 
f 70//70 123//123 69//69 
f 69//69 123//123 72//72 
f 72//72 123//123 74//74 
f 74//74 123//123 108//108 
f 74//74 108//108 76//76 
f 76//76 108//108 105//105 
f 76//76 105//105 81//81 
f 108//108 123//123 122//122 
f 122//122 123//123 124//124 
f 122//122 124//124 125//125 
f 125//125 124//124 126//126 
f 126//126 124//124 127//127 
f 127//127 124//124 128//128 
f 128//128 124//124 129//129 
f 129//129 124//124 130//130 
f 129//129 130//130 131//131 
f 131//131 130//130 132//132 
f 108//108 109//109 105//105 
f 105//105 109//109 112//112 
f 105//105 112//112 115//115 
f 115//115 118//118 105//105 
f 105//105 118//118 120//120 
f 82//82 84//84 81//81 
f 81//81 84//84 87//87 
f 81//81 87//87 90//90 
f 90//90 92//92 81//81 
f 81//81 92//92 95//95 
f 81//81 95//95 98//98 
f 98//98 101//101 81//81 
f 81//81 101//101 78//78 
f 81//81 78//78 76//76 
f 124//124 133//133 130//130 
f 130//130 133//133 134//134 
f 130//130 134//134 132//132 
f 132//132 134//134 135//135 
f 132//132 135//135 131//131 
f 131//131 135//135 136//136 
f 131//131 136//136 129//129 
f 129//129 136//136 137//137 
f 129//129 137//137 128//128 
f 128//128 137//137 138//138 
f 128//128 138//138 127//127 
f 127//127 138//138 139//139 
f 127//127 139//139 140//140 
f 127//127 140//140 126//126 
f 126//126 140//140 141//141 
f 126//126 141//141 125//125 
f 125//125 141//141 142//142 
f 125//125 142//142 143//143 
f 121//121 122//122 143//143 
f 143//143 122//122 125//125 
f 144//144 123//123 68//68 
f 68//68 123//123 70//70 
f 68//68 67//67 144//144 
f 144//144 67//67 71//71 
f 144//144 71//71 73//73 
f 144//144 73//73 106//106 
f 106//106 73//73 75//75 
f 106//106 75//75 104//104 
f 104//104 75//75 79//79 
f 79//79 75//75 77//77 
f 79//79 77//77 103//103 
f 103//103 102//102 79//79 
f 79//79 102//102 100//100 
f 79//79 100//100 99//99 
f 99//99 97//97 79//79 
f 79//79 97//97 96//96 
f 79//79 96//96 94//94 
f 94//94 93//93 79//79 
f 79//79 93//93 91//91 
f 79//79 91//91 89//89 
f 89//89 88//88 79//79 
f 79//79 88//88 86//86 
f 79//79 86//86 85//85 
f 85//85 83//83 79//79 
f 79//79 83//83 80//80 
f 119//119 117//117 104//104 
f 104//104 117//117 116//116 
f 104//104 116//116 114//114 
f 114//114 113//113 104//104 
f 104//104 113//113 111//111 
f 104//104 111//111 110//110 
f 110//110 107//107 104//104 
f 104//104 107//107 106//106 
f 106//106 121//121 144//144 
f 144//144 121//121 133//133 
f 133//133 121//121 143//143 
f 133//133 143//143 142//142 
f 142//142 141//141 133//133 
f 133//133 141//141 140//140 
f 133//133 140//140 139//139 
f 139//139 138//138 133//133 
f 133//133 138//138 137//137 
f 133//133 137//137 134//134 
f 134//134 137//137 136//136 
f 134//134 136//136 135//135 
f 133//133 124//124 144//144 
f 144//144 124//124 123//123 
