v -52.4681015 24.75 -165.2905731
v -52.4681015 24.83333397 -165.2905731
v -49.30090714 24.75 -163.5709381
v -49.30090714 24.83333397 -163.5709381
v -52.61906815 24.75 -165.0125275
v -49.45187378 24.75 -163.2928925
v -49.45187378 24.84370804 -163.2928925
v -52.61906815 24.84370804 -165.0125275
v -49.44939041 24.81261635 -163.2974548
v -52.61658478 24.81261635 -165.0171051
v -52.61658478 24.78109169 -165.0171051
v -49.44939041 24.78109169 -163.2974548
v -52.63275909 24.84370804 -164.9873199
v -49.46556091 24.84370804 -163.2676697
v -52.63275909 25.04166603 -164.9873199
v -49.46556091 25.04166603 -163.2676697
v -49.21704102 24.83333397 -163.7254028
v -49.21704102 25.04166603 -163.7254028
v -52.38423538 25.04166603 -165.4450378
v -52.38423538 24.83333397 -165.4450378
vn 0.09483199567 -0.966573894 -0.2382053733
vn 0.04512053356 -0.8892242312 -0.4552410543
vn 0.1348489672 -0.9669073224 -0.2165778577
vn 0.4905969501 -0.8499320745 -0.1921719462
vn -0.02742835134 -0.9987655878 0.0414131023
vn -0.08734182268 -0.9799309373 0.1791837364
vn 0.05654660612 -0.8556525707 0.5144523382
vn -0.6353847384 -0.5105912685 0.5792950988
vn -0.4370917976 -0.08269773424 0.8956069946
vn -0.5495032072 -0.08257381618 0.8314011097
vn -0.5611313581 0.08236154914 0.8236189485
vn -0.2927571237 0.08104009181 0.9527464509
vn -0.4756826758 -0.143436566 0.8678432703
vn -0.465283215 -0.1434620023 0.8734587431
vn -0.1295405328 0.9813713431 0.1418785006
vn -0.2223379314 0.7938874364 0.5659580827
vn 0.3810140193 -0.6447235942 -0.6626912951
vn 0.1267984062 0.9798777103 -0.1541487873
vn 0.2445732802 0.7794524431 -0.5767475963
vn 0.3317115009 -0.6443881392 -0.6890075207
f 1//1 2//2 3//3 
f 3//3 2//2 4//4 
f 1//1 3//3 5//5 
f 5//5 3//3 6//6 
f 7//7 8//8 9//9 
f 9//9 8//8 10//10 
f 9//9 10//10 11//11 
f 5//5 6//6 11//11 
f 11//11 6//6 12//12 
f 11//11 12//12 9//9 
f 8//8 7//7 13//13 
f 13//13 7//7 14//14 
f 15//15 13//13 16//16 
f 16//16 13//13 14//14 
f 17//17 18//18 4//4 
f 4//4 18//18 16//16 
f 4//4 16//16 7//7 
f 7//7 16//16 14//14 
f 7//7 9//9 4//4 
f 4//4 9//9 12//12 
f 4//4 12//12 3//3 
f 3//3 12//12 6//6 
f 19//19 15//15 18//18 
f 18//18 15//15 16//16 
f 20//20 17//17 2//2 
f 2//2 17//17 4//4 
f 20//20 2//2 19//19 
f 19//19 2//2 15//15 
f 15//15 2//2 8//8 
f 15//15 8//8 13//13 
f 1//1 11//11 2//2 
f 2//2 11//11 10//10 
f 2//2 10//10 8//8 
f 1//1 5//5 11//11 
f 20//20 19//19 17//17 
f 17//17 19//19 18//18 
