v -33.49248886 38.75 -147.9469604
v -33.49248886 46.75 -147.9469604
v -33.34780502 38.75 -147.7944946
v -33.34780502 46.75 -147.7944946
v -33.29130936 46.75 -147.7355957
v -33.29130936 38.75 -147.7355957
v -33.31325912 46.75 -147.7520752
v -33.31325912 38.75 -147.7520752
v -33.33225632 38.75 -147.7718811
v -33.33225632 46.75 -147.7718811
v -33.87028885 46.75 -147.5884399
v -33.66942596 46.75 -147.3767853
v -33.66942596 38.75 -147.3767853
v -33.87028885 38.75 -147.5884399
vn -0.5312385559 -0.01287619676 -0.8471244574
vn -0.08004834503 0.02044078708 -0.9965813756
vn 0.7297846675 -0.0766492486 -0.6793667674
vn 0.7410674095 0.1289588213 -0.658929944
vn 0.7070176005 0.001698316773 0.7071939111
vn 0.7607711554 -0.003424265655 0.6490111351
vn 0.6628744602 0.03230145574 -0.748033464
vn 0.6618394256 -0.06450204551 -0.7468655109
vn 0.7750017643 -0.03191705048 -0.6311525106
vn 0.773820281 0.06373678148 -0.6301903129
vn -0.8581113219 0.03019718826 -0.5125749707
vn -0.08238660544 0.03098065965 0.996118784
vn 0.4672424495 -0.02239789255 0.8838454485
vn -0.9986608028 -0.04174476862 0.03056130372
f 1//1 2//2 3//3 
f 3//3 2//2 4//4 
f 5//5 6//6 7//7 
f 7//7 6//6 8//8 
f 7//7 8//8 9//9 
f 3//3 4//4 9//9 
f 9//9 4//4 10//10 
f 9//9 10//10 7//7 
f 2//2 11//11 4//4 
f 4//4 11//11 12//12 
f 4//4 12//12 10//10 
f 10//10 12//12 7//7 
f 7//7 12//12 5//5 
f 6//6 5//5 13//13 
f 13//13 5//5 12//12 
f 14//14 11//11 1//1 
f 1//1 11//11 2//2 
f 1//1 3//3 14//14 
f 14//14 3//3 13//13 
f 13//13 3//3 9//9 
f 13//13 9//9 8//8 
f 8//8 6//6 13//13 
f 13//13 12//12 14//14 
f 14//14 12//12 11//11 
