v -74.81590271 23.75 136.4638672
v -74.81590271 32.75 136.4638672
v -75.27615356 23.75 136.2191467
v -75.27615356 32.75 136.2191467
v -75.23745728 32.75 136.1472931
v -75.23745728 23.75 136.1472931
v -75.2463913 32.75 136.173233
v -75.2463913 23.75 136.173233
v -75.25940704 23.75 136.197403
v -75.25940704 32.75 136.197403
v -75.13877869 32.75 135.9617004
v -74.6789093 32.75 136.2062225
v -75.13877869 23.75 135.9617004
v -74.6789093 23.75 136.2062225
vn 0.3456614614 -0.02541183308 0.9380151033
vn -0.2140743434 0.01837049983 0.9766446352
vn -0.4923242331 -0.001509484951 0.8704105616
vn -0.5596656799 0.003043533303 0.8287128806
vn -0.886988759 0.03089525923 -0.4607563317
vn -0.8964888453 -0.0522194989 -0.4399782717
vn -0.9010592103 0.1797477305 -0.3946935833
vn -0.8603285551 -0.3432451487 -0.3768521845
vn -0.8387786746 -0.02871569432 -0.5437147617
vn -0.8377431035 0.0573604852 -0.5430434942
vn 0.2855384052 0.01144609787 -0.9582989216
vn 0.9706130624 0.03906419873 -0.2374537289
vn -0.1892101616 -0.01817089133 -0.9817684889
vn 0.6899693012 -0.02825717069 -0.7232868671
f 1//1 2//2 3//3 
f 3//3 2//2 4//4 
f 5//5 6//6 7//7 
f 7//7 6//6 8//8 
f 7//7 8//8 9//9 
f 3//3 4//4 9//9 
f 9//9 4//4 10//10 
f 9//9 10//10 7//7 
f 11//11 5//5 12//12 
f 12//12 5//5 7//7 
f 12//12 7//7 2//2 
f 2//2 7//7 10//10 
f 2//2 10//10 4//4 
f 6//6 5//5 13//13 
f 13//13 5//5 11//11 
f 14//14 12//12 1//1 
f 1//1 12//12 2//2 
f 1//1 8//8 14//14 
f 14//14 8//8 6//6 
f 14//14 6//6 13//13 
f 3//3 9//9 1//1 
f 1//1 9//9 8//8 
f 13//13 11//11 14//14 
f 14//14 11//11 12//12 
