v -44.61155319 46.75 -158.9073792
v -44.61155319 38.75 -158.9073792
v -44.23343658 46.75 -159.2661896
v -44.23343658 38.75 -159.2661896
v -44.28993225 38.75 -159.3250885
v -44.28993225 46.75 -159.3250885
v -44.27438354 38.75 -159.302475
v -44.27438354 46.75 -159.302475
v -44.25538635 46.75 -159.2826691
v -44.25538635 38.75 -159.2826691
v -44.43461609 38.75 -159.4775543
v -44.81241608 38.75 -159.1190338
v -44.43461609 46.75 -159.4775543
v -44.81241608 46.75 -159.1190338
vn -0.08238660544 0.03098065965 0.996118784
vn 0.4672424495 -0.02239789255 0.8838454485
vn 0.7070176005 0.001698316773 0.7071939111
vn 0.7607711554 -0.003424265655 0.6490111351
vn 0.7297846675 -0.0766492486 -0.6793667674
vn 0.7410674095 0.1289588213 -0.658929944
vn 0.7750017643 -0.03191705048 -0.6311525106
vn 0.773820281 0.06373678148 -0.6301903129
vn 0.6628744602 0.03230145574 -0.748033464
vn 0.6618394256 -0.06450204551 -0.7468655109
vn -0.5312385559 -0.01287619676 -0.8471244574
vn -0.9986608028 -0.04174476862 0.03056130372
vn -0.08004834503 0.02044078708 -0.9965813756
vn -0.8581113219 0.03019718826 -0.5125749707
f 1//1 2//2 3//3 
f 3//3 2//2 4//4 
f 5//5 6//6 7//7 
f 7//7 6//6 8//8 
f 7//7 8//8 9//9 
f 3//3 4//4 9//9 
f 9//9 4//4 10//10 
f 9//9 10//10 7//7 
f 11//11 5//5 12//12 
f 12//12 5//5 2//2 
f 2//2 5//5 7//7 
f 2//2 7//7 10//10 
f 10//10 4//4 2//2 
f 6//6 5//5 13//13 
f 13//13 5//5 11//11 
f 14//14 12//12 1//1 
f 1//1 12//12 2//2 
f 13//13 14//14 6//6 
f 6//6 14//14 1//1 
f 6//6 1//1 8//8 
f 8//8 1//1 9//9 
f 9//9 1//1 3//3 
f 13//13 11//11 14//14 
f 14//14 11//11 12//12 
