v 15.33019829 38.75 -116.5148544
v 15.33019829 38.77083206 -116.5148544
v 15.3275032 38.75 -116.4732742
v 15.3275032 38.77083206 -116.4732742
v 11.38783264 38.77083206 -116.7704239
v 11.38783264 38.75 -116.7704239
v 11.38332844 38.75 -116.7289658
v 11.38332844 38.77083206 -116.7289658
vn 0.03127758205 -0.894469738 -0.44603315
vn 0.02078991942 0.9701441526 -0.2416362166
vn -0.01951949671 -0.8944017887 0.4468383193
vn -0.04202265292 0.7071301341 0.7058336139
vn 0.04202860594 0.7070084214 -0.7059551477
vn 0.01954047568 -0.8942169547 -0.4472070634
vn -0.0312830545 -0.89442873 0.4461150467
vn -0.02078298666 0.9701703787 0.2415316999
f 1//1 2//2 3//3 
f 3//3 2//2 4//4 
f 2//2 1//1 5//5 
f 5//5 1//1 6//6 
f 3//3 4//4 7//7 
f 7//7 4//4 8//8 
f 4//4 2//2 8//8 
f 8//8 2//2 5//5 
f 3//3 7//7 1//1 
f 1//1 7//7 6//6 
f 7//7 8//8 6//6 
f 6//6 8//8 5//5 
