v -16.7276516 46.72916794 -130.6288147
v -16.7276516 55.66666794 -130.6288147
v -16.69757652 46.72916794 -130.5999756
v -16.69757652 55.66666794 -130.5999756
v -16.75649071 55.66666794 -130.5987396
v -16.72641563 55.66666794 -130.5699005
v -16.72641563 46.72916794 -130.5699005
v -16.75649071 46.72916794 -130.5987396
vn -0.3360533416 -0.004169899505 -0.9418337345
vn 0.2962575555 0.004169899505 -0.9550989866
vn 0.9418398738 -0.002084963256 -0.336055547
vn 0.9551051855 0.002084963256 0.2962594926
vn -0.9551051855 0.002084963256 -0.2962594926
vn -0.2962575555 0.004169899505 0.9550989866
vn 0.3360533416 -0.004169899505 0.9418337345
vn -0.9418398738 -0.002084963256 0.336055547
f 1//1 2//2 3//3 
f 3//3 2//2 4//4 
f 5//5 6//6 2//2 
f 2//2 6//6 4//4 
f 3//3 4//4 7//7 
f 7//7 4//4 6//6 
f 8//8 5//5 1//1 
f 1//1 5//5 2//2 
f 8//8 1//1 7//7 
f 7//7 1//1 3//3 
f 7//7 6//6 8//8 
f 8//8 6//6 5//5 
