v -27.74039268 55.64583206 -142.2042084
v -27.74039268 55.66666794 -142.2042084
v -25.01766968 55.64583206 -139.3310242
v -25.01766968 55.66666794 -139.3310242
v -25.0479126 55.66666794 -139.3023682
v -25.0479126 55.64583206 -139.3023682
v -27.7706356 55.64583206 -142.1755524
v -27.7706356 55.66666794 -142.1755524
vn 0.1725666076 -0.9701176882 -0.1705648899
vn 0.3230480254 0.8943868279 -0.3093738258
vn 0.5158689022 -0.7070272565 -0.4837269485
vn 0.3311296105 0.8943499327 -0.3008178473
vn -0.3230480254 0.8943868279 0.3093738258
vn -0.1725666076 -0.9701176882 0.1705648899
vn -0.5158689022 -0.7070272565 0.4837269485
vn -0.3311296105 0.8943499327 0.3008178473
f 1//1 2//2 3//3 
f 3//3 2//2 4//4 
f 5//5 6//6 4//4 
f 4//4 6//6 3//3 
f 7//7 1//1 6//6 
f 6//6 1//1 3//3 
f 8//8 5//5 2//2 
f 2//2 5//5 4//4 
f 2//2 1//1 8//8 
f 8//8 1//1 7//7 
f 8//8 7//7 5//5 
f 5//5 7//7 6//6 
