v -38.77616501 46.75 -153.7892609
v -36.05344391 46.75 -150.9160767
v -38.74592209 46.75 -153.8179169
v -36.02320099 46.75 -150.9447327
v -36.02320099 46.72916794 -150.9447327
v -36.05344391 46.72916794 -150.9160767
v -38.74592209 46.72916794 -153.8179169
v -38.77616501 46.72916794 -153.7892609
vn -0.3310812414 0.8943827152 0.3007736802
vn -0.3230008185 0.8944196105 0.309328407
vn 0.3230008185 0.8944196105 -0.309328407
vn 0.3310812414 0.8943827152 -0.3007736802
vn 0.5158218741 -0.7070919871 -0.4836824834
vn -0.1725369394 -0.9701281786 0.1705354303
vn 0.1725369394 -0.9701281786 -0.1705354303
vn -0.5158218741 -0.7070919871 0.4836824834
f 1//1 2//2 3//3 
f 3//3 2//2 4//4 
f 5//5 4//4 6//6 
f 6//6 4//4 2//2 
f 7//7 3//3 5//5 
f 5//5 3//3 4//4 
f 1//1 8//8 2//2 
f 2//2 8//8 6//6 
f 8//8 1//1 7//7 
f 7//7 1//1 3//3 
f 8//8 7//7 6//6 
f 6//6 7//7 5//5 
