v -13.85889244 38.75 -127.8764801
v -13.85889244 46.75 -127.8764801
v -13.84323883 38.75 -127.8627319
v -13.84323883 46.75 -127.8627319
v -13.88638878 46.75 -127.8451767
v -13.87073612 46.75 -127.8314285
v -13.87073612 38.75 -127.8314285
v -13.88638878 38.75 -127.8451767
vn -0.5688120127 -0.002526391996 -0.8224636912
vn -0.0646064356 0.003682633862 -0.9979040027
vn 0.9979056716 -0.001841485035 -0.06465929002
vn 0.8889425993 0.001263253391 0.4580168426
vn -0.8889471292 0.001263197279 -0.4580080807
vn 0.06460747868 0.003682693234 0.9979039431
vn 0.5688068271 -0.002526368946 0.8224672675
vn -0.9979067445 -0.001841395744 0.06464317441
f 1//1 2//2 3//3 
f 3//3 2//2 4//4 
f 5//5 6//6 2//2 
f 2//2 6//6 4//4 
f 3//3 4//4 7//7 
f 7//7 4//4 6//6 
f 8//8 5//5 1//1 
f 1//1 5//5 2//2 
f 8//8 1//1 7//7 
f 7//7 1//1 3//3 
f 7//7 6//6 8//8 
f 8//8 6//6 5//5 
