v -41.49730682 46.72916794 -156.721344
v -41.49730682 46.77083206 -156.721344
v -38.77458191 46.72916794 -153.8481598
v -38.77458191 46.77083206 -153.8481598
v -38.80482483 46.77083206 -153.8195038
v -38.80482483 46.72916794 -153.8195038
v -41.52754974 46.72916794 -156.692688
v -41.52754974 46.77083206 -156.692688
vn 0.3181309104 -0.894382298 -0.3144408762
vn 0.510702312 0.7070917487 -0.4890852571
vn 0.6524601579 -0.4471985996 -0.6118081212
vn 0.5234460235 0.7070188522 -0.4755298495
vn -0.510702312 0.7070917487 0.4890852571
vn -0.3181309104 -0.894382298 0.3144408762
vn -0.6524601579 -0.4471985996 0.6118081212
vn -0.5234460235 0.7070188522 0.4755298495
f 1//1 2//2 3//3 
f 3//3 2//2 4//4 
f 5//5 6//6 4//4 
f 4//4 6//6 3//3 
f 7//7 1//1 6//6 
f 6//6 1//1 3//3 
f 8//8 5//5 2//2 
f 2//2 5//5 4//4 
f 2//2 1//1 8//8 
f 8//8 1//1 7//7 
f 8//8 7//7 5//5 
f 5//5 7//7 6//6 
