v -13.85693359 46.72916794 -127.8759232
v -13.85693359 46.75 -127.8759232
v -13.88577271 46.72916794 -127.8458481
v -13.88577271 46.75 -127.8458481
v -16.69623184 46.72916794 -130.5986786
v -16.69623184 46.75 -130.5986786
v -16.72638702 46.72916794 -130.56987
v -16.72638702 46.75 -130.56987
vn 0.3111723661 -0.8944750428 -0.3210703433
vn 0.1715290397 0.970145762 -0.1714497954
vn -0.3026643395 -0.8944029212 0.3292988241
vn -0.4866898656 0.7071329355 0.5129287839
vn 0.3029111326 -0.8942230344 -0.3295603096
vn 0.4867641926 0.7070237398 -0.5130087733
vn -0.3112298846 -0.8944334984 0.3211302459
vn -0.1714556515 0.9701722264 0.1713733524
f 1//1 2//2 3//3 
f 3//3 2//2 4//4 
f 5//5 6//6 1//1 
f 1//1 6//6 2//2 
f 5//5 1//1 7//7 
f 7//7 1//1 3//3 
f 6//6 8//8 2//2 
f 2//2 8//8 4//4 
f 8//8 7//7 4//4 
f 4//4 7//7 3//3 
f 7//7 8//8 5//5 
f 5//5 8//8 6//6 
