v -34.93171692 24.72916603 -156.241684
v -34.93171692 24.77083397 -156.241684
v -31.45306587 24.72916603 -154.3529358
v -31.45306587 24.77083397 -154.3529358
v -31.47294807 24.77083397 -154.3163147
v -31.47294807 24.72916603 -154.3163147
v -34.95159912 24.72916603 -156.2050781
v -34.95159912 24.77083397 -156.2050781
vn 0.3243300319 -0.7069328427 -0.6285347342
vn 0.4226647615 0.4471127391 -0.7883176208
vn 0.3406879902 -0.707064569 -0.6196703911
vn 0.2216752023 0.8943685889 -0.3885421157
vn -0.4226388335 0.4472282231 0.7882660627
vn -0.324275136 -0.7070479393 0.6284336448
vn -0.3406892121 -0.7070642114 0.6196700931
vn -0.2216735631 0.8943688869 0.3885422647
f 1//1 2//2 3//3 
f 3//3 2//2 4//4 
f 5//5 6//6 4//4 
f 4//4 6//6 3//3 
f 1//1 3//3 7//7 
f 7//7 3//3 6//6 
f 2//2 8//8 4//4 
f 4//4 8//8 5//5 
f 2//2 1//1 8//8 
f 8//8 1//1 7//7 
f 8//8 7//7 5//5 
f 5//5 7//7 6//6 
