v -56.02333069 24.72916603 -167.6934967
v -56.02333069 24.77083397 -167.6934967
v -52.54467773 24.72916603 -165.8047485
v -52.54467773 24.77083397 -165.8047485
v -52.56455994 24.77083397 -165.7681274
v -52.56455994 24.72916603 -165.7681274
v -56.04320908 24.72916603 -167.6568909
v -56.04320908 24.77083397 -167.6568909
vn 0.324337244 -0.7069180012 -0.6285477281
vn 0.4226684272 0.4470972419 -0.7883244753
vn 0.3406916559 -0.7070566416 -0.6196773648
vn 0.2216790617 0.8943645954 -0.3885490894
vn -0.4226390123 0.4472282231 0.7882659435
vn -0.3242752552 -0.7070479393 0.6284335852
vn -0.3406929374 -0.7070564628 0.619676888
vn -0.2216773778 0.8943647742 0.3885495961
f 1//1 2//2 3//3 
f 3//3 2//2 4//4 
f 5//5 6//6 4//4 
f 4//4 6//6 3//3 
f 1//1 3//3 7//7 
f 7//7 3//3 6//6 
f 2//2 8//8 4//4 
f 4//4 8//8 5//5 
f 2//2 1//1 8//8 
f 8//8 1//1 7//7 
f 8//8 7//7 5//5 
f 5//5 7//7 6//6 
