v -17.15122223 8.219511986 135.5265656
v -17.15122223 7.88617897 135.5265656
v -17.15122223 8.219511986 136.3599854
v -17.15122223 7.88617897 136.3599854
v -17.31788826 8.219511986 140.3599854
v -17.31788826 7.88617897 140.3599854
v -13.31788921 8.219511986 140.3599854
v -13.31788921 7.88617897 140.3599854
v -17.31788826 8.219511986 136.3599854
v -17.31788826 7.88617897 136.3599854
v -18.15122223 8.219511986 131.5265656
v -18.15122223 7.88617897 131.5265656
v -18.15122223 8.219511986 135.5265656
v -18.15122223 7.88617897 135.5265656
v -13.31788921 8.219511986 131.5265656
v -13.31788921 7.88617897 131.5265656
vn -0.01046827156 0.9996296167 0.02512124553
vn -0.00919994805 -0.9999424219 0.00551939616
vn -0.01034164056 0.9999459982 -0.00103405281
vn -0.01398563664 -0.9998865724 -0.005593652837
vn -0.1574997604 0.9843740463 0.07874985784
vn -0.07874988019 -0.9843740463 0.1574997157
vn 0.05886652693 0.9968412519 0.0533125475
vn 0.110282518 -0.9935865998 0.02496937662
vn -0.8919535279 0.4459754825 -0.07432917506
vn -0.9699445963 -0.2424854487 -0.02020710148
vn -0.05651514232 0.9890158772 -0.136578247
vn -0.1132802516 -0.9912030697 -0.06844014674
vn -0.553371191 0.830057621 0.06917139888
vn -0.3123472631 -0.9370426536 0.1561736315
vn 0.1038264185 0.9941897392 -0.02840506099
vn 0.05516721681 -0.9966503382 -0.06037107483
f 1//1 2//2 3//3 
f 3//3 2//2 4//4 
f 5//5 6//6 7//7 
f 7//7 6//6 8//8 
f 3//3 4//4 9//9 
f 9//9 4//4 10//10 
f 11//11 12//12 13//13 
f 13//13 12//12 14//14 
f 9//9 5//5 3//3 
f 3//3 5//5 7//7 
f 3//3 7//7 15//15 
f 3//3 15//15 1//1 
f 1//1 15//15 11//11 
f 1//1 11//11 13//13 
f 13//13 14//14 1//1 
f 1//1 14//14 2//2 
f 15//15 16//16 11//11 
f 11//11 16//16 12//12 
f 10//10 4//4 6//6 
f 6//6 4//4 8//8 
f 8//8 4//4 2//2 
f 8//8 2//2 16//16 
f 16//16 2//2 12//12 
f 12//12 2//2 14//14 
f 7//7 8//8 15//15 
f 15//15 8//8 16//16 
f 9//9 10//10 5//5 
f 5//5 10//10 6//6 
