v -28.2345562 15.1219511 131.5265656
v -28.2345562 14.78861809 131.5265656
v -33.23455429 15.1219511 131.5265656
v -33.23455429 14.78861809 131.5265656
v -33.23455429 15.1219511 140.3599854
v -33.23455429 14.78861809 140.3599854
v -29.2345562 15.1219511 140.3599854
v -29.2345562 14.78861809 140.3599854
v -29.2345562 15.1219511 136.3599854
v -29.2345562 14.78861809 136.3599854
v -28.2345562 14.78861809 135.5265656
v -29.2345562 14.78861809 135.5265656
v -29.2345562 15.1219511 135.5265656
v -28.2345562 15.1219511 135.5265656
vn 0.1101693586 0.9915248752 -0.06885582209
vn 0.05494419113 -0.9889960885 -0.1373604238
vn -0.05304194987 0.9967852831 -0.06004687771
vn -0.09983675182 -0.994602561 -0.02825539559
vn -0.1070721 0.9939556718 0.02424249053
vn -0.05718846992 -0.9970190525 0.05179280043
vn 0.08192315698 0.9830783606 0.1638462394
vn 0.163846314 -0.983078301 0.08192311227
vn 0.1505614519 0.9886006713 0
vn 0.03453283757 -0.9994035363 0
vn 0.553371191 -0.830057621 0.06917139888
vn 0.01015997492 -0.9996510744 0.02438141033
vn 0.008865591139 0.9999465346 0.005318803247
vn 0.3123472631 0.9370426536 0.1561736315
f 1//1 2//2 3//3 
f 3//3 2//2 4//4 
f 3//3 4//4 5//5 
f 5//5 4//4 6//6 
f 5//5 6//6 7//7 
f 7//7 6//6 8//8 
f 7//7 8//8 9//9 
f 9//9 8//8 10//10 
f 11//11 12//12 2//2 
f 2//2 12//12 4//4 
f 4//4 12//12 10//10 
f 4//4 10//10 6//6 
f 6//6 10//10 8//8 
f 9//9 10//10 13//13 
f 13//13 10//10 12//12 
f 14//14 11//11 1//1 
f 1//1 11//11 2//2 
f 14//14 1//1 13//13 
f 13//13 1//1 3//3 
f 13//13 3//3 5//5 
f 7//7 9//9 5//5 
f 5//5 9//9 13//13 
f 13//13 12//12 14//14 
f 14//14 12//12 11//11 
