v -17.92910385 8.802845955 131.1932373
v -18.45667458 6.969511986 131.1932373
v -17.92910385 8.802845955 131.5265656
v -18.45667458 6.969511986 131.5265656
v -12.98455524 8.802845955 131.1932373
v -13.31788921 8.802845955 131.5265656
v -12.98455524 6.969511986 131.1932373
v -13.31788921 6.969511986 131.5265656
vn -0.03149950132 0.1732472032 -0.9843745232
vn -0.1153408661 -0.3005917072 -0.9467529058
vn -0.06783983856 0.1048376039 0.9921727777
vn -0.06388797611 -0.1606914848 0.9849348068
vn 0.1507636607 0.2033067346 -0.967438221
vn 0.06347305328 0.3308362961 0.9415510893
vn 0.03287980705 -0.09813936055 -0.9946293831
vn 0.06280461699 -0.1817491651 0.9813372493
f 1//1 2//2 3//3 
f 3//3 2//2 4//4 
f 5//5 1//1 6//6 
f 6//6 1//1 3//3 
f 7//7 8//8 2//2 
f 2//2 8//8 4//4 
f 5//5 7//7 1//1 
f 1//1 7//7 2//2 
f 6//6 3//3 8//8 
f 8//8 3//3 4//4 
f 6//6 8//8 5//5 
f 5//5 8//8 7//7 
