v -64.46530151 19.78385353 -170.2283478
v -64.46530151 24.71614647 -170.2283478
v -64.4681015 19.78385353 -170.2302704
v -64.4681015 24.71614647 -170.2302704
v -64.4703064 19.78385353 -170.2328644
v -64.4703064 24.71614647 -170.2328644
v -64.47177124 19.78385353 -170.2359314
v -64.47177124 24.71614647 -170.2359314
v -64.47238922 19.78385353 -170.2392731
v -64.47238922 24.71614647 -170.2392731
v -64.47212219 19.78385353 -170.2426605
v -64.47212219 24.71614647 -170.2426605
v -64.47099304 19.78385353 -170.2458649
v -64.47099304 24.71614647 -170.2458649
v -64.40961456 24.71614647 -170.1999817
v -64.40961456 19.78385353 -170.1999817
v -64.40370178 24.71614647 -170.2115784
v -64.40370178 19.78385353 -170.2115784
v -64.45938873 24.71614647 -170.2399597
v -64.45938873 19.78385353 -170.2399597
v -63.46711731 24.71614647 -172.1873932
v -63.46711731 19.78385353 -172.1873932
v -62.88676071 24.71614647 -171.9331512
v -62.88676071 19.78385353 -171.9331512
v -63.06961823 24.71614647 -171.5963745
v -63.06961823 19.78385353 -171.5963745
v -63.05817413 24.71614647 -171.5901489
v -63.05817413 19.78385353 -171.5901489
v -62.87402344 24.71614647 -171.9293213
v -62.87402344 19.78385353 -171.9293213
v -62.87866592 19.78385353 -171.9436798
v -62.87866592 24.71614647 -171.9436798
v -62.87663269 19.78385353 -171.9423981
v -62.87663269 24.71614647 -171.9423981
v -62.87495041 19.78385353 -171.9406738
v -62.87495041 24.71614647 -171.9406738
v -62.873703 19.78385353 -171.9386139
v -62.873703 24.71614647 -171.9386139
v -62.87296295 19.78385353 -171.9363251
v -62.87296295 24.71614647 -171.9363251
v -62.8727684 19.78385353 -171.9339294
v -62.8727684 24.71614647 -171.9339294
v -62.87312698 19.78385353 -171.9315491
v -62.87312698 24.71614647 -171.9315491
v -63.47764587 19.78385353 -172.1954193
v -63.4761734 19.78385353 -172.1975861
v -63.47420502 19.78385353 -172.1993103
v -63.47187042 19.78385353 -172.2005005
v -63.46931458 19.78385353 -172.2010651
v -63.46669388 19.78385353 -172.2009735
v -63.46418381 19.78385353 -172.2002258
v -63.47764587 24.71614647 -172.1954193
v -63.46418381 24.71614647 -172.2002258
v -63.46669388 24.71614647 -172.2009735
v -63.46931458 24.71614647 -172.2010651
v -63.47187042 24.71614647 -172.2005005
v -63.47420502 24.71614647 -172.1993103
v -63.4761734 24.71614647 -172.1975861
vn -0.4569580853 -0.001355599379 0.8894872069
vn -0.4652362168 0.002513180487 0.8851829767
vn -0.6363931894 -0.00176021806 0.7713628411
vn -0.7021914721 0.001758826664 0.7119860053
vn -0.8147485256 -0.001757781021 0.5798118114
vn -0.8619135022 0.001758758095 0.5070522428
vn -0.9365135431 -0.001758249942 0.3506270349
vn -0.9637106061 0.001758344471 0.2669433057
vn -0.9954019785 -0.001757918042 0.09576973319
vn -0.9999640584 0.00175798405 0.008295327425
vn -0.9863923788 -0.00175767357 -0.1643987298
vn -0.9683405161 0.001757759019 -0.2496267259
vn -0.8911890388 -0.002635766752 -0.4536244571
vn -0.8910523057 0.001320927287 -0.4538986683
vn -0.3591527641 0.002626357134 0.9332751036
vn -0.07639401406 -0.004874525592 0.9970657825
vn 0.7617701888 0.002436393173 -0.6478427649
vn 0.5439226627 -0.001312499866 -0.8391342759
vn 0.915461123 0.005449835677 0.4023694992
vn 0.8974019289 -0.002729134401 0.4412055612
vn 0.8174903989 0.001678714063 0.5759397745
vn 0.5556670427 -0.002886948641 0.8313999176
vn -0.6539459229 0.004185486119 0.7565296888
vn -0.974252224 -0.005680857692 0.2253891677
vn -0.8867960572 0.001320459531 -0.4621590972
vn -0.9091538191 -0.002635102719 -0.4164521992
vn 0.8446725011 0.00525097223 0.5352577567
vn 0.8706418872 -0.002631006762 0.4919103086
vn 0.878991127 0.001324262004 0.4768362343
vn 0.8794905543 -0.002624258166 0.4759090543
vn 0.401575923 -0.001309513114 -0.9158247709
vn 0.4023370147 0.002604519948 -0.9154879451
vn 0.5978692174 -0.001831956324 -0.8015915751
vn 0.65906775 0.001830558409 -0.7520813346
vn 0.7667380571 -0.001883212593 -0.641957283
vn 0.8135525584 0.001883416553 -0.5814883113
vn 0.8927186728 -0.001910336898 -0.4506103694
vn 0.9249513745 0.001911059837 -0.3800806105
vn 0.9723517299 -0.001911139465 -0.2335133553
vn 0.9875183702 0.001911667641 -0.1574921608
vn 0.999989152 -0.0018856104 -0.004255272914
vn 0.9973423481 0.001884629251 0.07283363491
vn 0.9743626714 -0.001832777867 0.2249756604
vn 0.9538702369 0.001834281487 0.300213635
vn -0.8909694552 -0.002638866426 -0.4540555775
vn -0.7766509652 -0.001827594126 -0.6299285293
vn -0.5946649909 -0.001869710512 -0.8039714098
vn -0.3774515092 -0.001882434008 -0.9260274172
vn -0.1329961568 -0.001866211416 -0.9911147952
vn 0.1192220896 -0.001818694291 -0.9928659201
vn 0.4003979564 -0.005181111861 -0.9163267016
vn -0.8908582926 0.005268296227 -0.4542507529
vn 0.4010883272 0.002606350463 -0.9160357118
vn 0.2033487558 0.001819453551 -0.9791046977
vn -0.04886515066 0.001865047263 -0.9988036156
vn -0.2973831296 0.001883166144 -0.9547563791
vn -0.5259497762 0.0018688204 -0.8505135775
vn -0.7201922536 0.001828289591 -0.6937721372
f 1//1 2//2 3//3 
f 3//3 2//2 4//4 
f 3//3 4//4 5//5 
f 5//5 4//4 6//6 
f 5//5 6//6 7//7 
f 7//7 6//6 8//8 
f 7//7 8//8 9//9 
f 9//9 8//8 10//10 
f 9//9 10//10 11//11 
f 11//11 10//10 12//12 
f 11//11 12//12 13//13 
f 13//13 12//12 14//14 
f 2//2 1//1 15//15 
f 15//15 1//1 16//16 
f 15//15 16//16 17//17 
f 17//17 16//16 18//18 
f 17//17 18//18 19//19 
f 19//19 18//18 20//20 
f 19//19 20//20 21//21 
f 21//21 20//20 22//22 
f 21//21 22//22 23//23 
f 23//23 22//22 24//24 
f 23//23 24//24 25//25 
f 25//25 24//24 26//26 
f 25//25 26//26 27//27 
f 27//27 26//26 28//28 
f 27//27 28//28 29//29 
f 29//29 28//28 30//30 
f 31//31 32//32 33//33 
f 33//33 32//32 34//34 
f 33//33 34//34 35//35 
f 35//35 34//34 36//36 
f 35//35 36//36 37//37 
f 37//37 36//36 38//38 
f 37//37 38//38 39//39 
f 39//39 38//38 40//40 
f 39//39 40//40 41//41 
f 41//41 40//40 42//42 
f 41//41 42//42 43//43 
f 43//43 42//42 44//44 
f 43//43 44//44 30//30 
f 30//30 44//44 29//29 
f 16//16 1//1 20//20 
f 20//20 1//1 3//3 
f 20//20 3//3 5//5 
f 5//5 7//7 20//20 
f 20//20 7//7 9//9 
f 20//20 9//9 11//11 
f 11//11 13//13 20//20 
f 20//20 13//13 45//45 
f 20//20 45//45 22//22 
f 22//22 45//45 46//46 
f 22//22 46//46 47//47 
f 47//47 48//48 22//22 
f 22//22 48//48 49//49 
f 22//22 49//49 50//50 
f 50//50 51//51 22//22 
f 22//22 51//51 24//24 
f 24//24 51//51 31//31 
f 24//24 31//31 33//33 
f 33//33 35//35 24//24 
f 24//24 35//35 37//37 
f 24//24 37//37 39//39 
f 39//39 41//41 24//24 
f 24//24 41//41 43//43 
f 24//24 43//43 30//30 
f 30//30 28//28 24//24 
f 24//24 28//28 26//26 
f 20//20 18//18 16//16 
f 52//52 45//45 14//14 
f 14//14 45//45 13//13 
f 32//32 31//31 53//53 
f 53//53 31//31 51//51 
f 4//4 2//2 19//19 
f 19//19 2//2 15//15 
f 19//19 15//15 17//17 
f 21//21 52//52 19//19 
f 19//19 52//52 14//14 
f 19//19 14//14 12//12 
f 23//23 53//53 21//21 
f 21//21 53//53 54//54 
f 21//21 54//54 55//55 
f 25//25 27//27 23//23 
f 23//23 27//27 29//29 
f 23//23 29//29 44//44 
f 44//44 42//42 23//23 
f 23//23 42//42 40//40 
f 23//23 40//40 38//38 
f 38//38 36//36 23//23 
f 23//23 36//36 34//34 
f 23//23 34//34 32//32 
f 32//32 53//53 23//23 
f 55//55 56//56 21//21 
f 21//21 56//56 57//57 
f 21//21 57//57 58//58 
f 58//58 52//52 21//21 
f 12//12 10//10 19//19 
f 19//19 10//10 8//8 
f 19//19 8//8 6//6 
f 6//6 4//4 19//19 
f 45//45 52//52 46//46 
f 46//46 52//52 58//58 
f 46//46 58//58 47//47 
f 47//47 58//58 57//57 
f 47//47 57//57 48//48 
f 48//48 57//57 56//56 
f 48//48 56//56 49//49 
f 49//49 56//56 55//55 
f 49//49 55//55 50//50 
f 50//50 55//55 54//54 
f 50//50 54//54 51//51 
f 51//51 54//54 53//53 
