v -56.76813507 32.75 -27.74234009
v -57.91434479 32.75 -31.0711937
v -57.2610054 32.75 -27.57263184
v -58.40721512 32.75 -30.90148735
v -58.40680313 32.66838837 -30.90162849
v -57.26059341 32.66838837 -27.57277298
v -58.40274811 32.69549561 -30.90302467
v -57.25653839 32.69549561 -27.57416916
v -57.25667953 32.72293854 -27.57412148
v -58.40288544 32.72293854 -30.90297699
v -58.40680313 32.45819855 -30.90162849
v -57.91434479 32.45819855 -31.0711937
v -57.26059341 32.45819855 -27.57277298
v -56.76813507 32.45819855 -27.74234009
vn 0.4898081422 0.8688941002 -0.07149127126
vn 0.4463591874 0.8716571331 -0.2024284601
vn -0.02338642254 0.9996528625 0.01213372312
vn -0.1019038484 0.9944315553 0.02685943805
vn -0.9997632504 0.01716297492 0.01337232906
vn -0.8798946738 0.01782977581 0.4748341143
vn -0.9638955593 0.07550471276 0.255351454
vn -0.8862754703 0.07488746941 0.4570641816
vn -0.9156131148 -0.08611792326 0.392729342
vn -0.9792985916 -0.08543618023 0.1835073978
vn -0.6083225012 -0.7773172259 0.1603797525
vn 0.2321529388 -0.9606707096 -0.1523707509
vn -0.1774170399 -0.979823947 0.09202313423
vn 0.7330551744 -0.662864387 -0.1524497271
f 1//1 2//2 3//3 
f 3//3 2//2 4//4 
f 5//5 6//6 7//7 
f 7//7 6//6 8//8 
f 7//7 8//8 9//9 
f 3//3 4//4 9//9 
f 9//9 4//4 10//10 
f 9//9 10//10 7//7 
f 11//11 5//5 12//12 
f 12//12 5//5 2//2 
f 2//2 5//5 7//7 
f 2//2 7//7 10//10 
f 10//10 4//4 2//2 
f 13//13 6//6 11//11 
f 11//11 6//6 5//5 
f 1//1 14//14 2//2 
f 2//2 14//14 12//12 
f 13//13 14//14 6//6 
f 6//6 14//14 1//1 
f 6//6 1//1 8//8 
f 8//8 1//1 9//9 
f 9//9 1//1 3//3 
f 14//14 13//13 12//12 
f 12//12 13//13 11//11 
