v -87.35095978 24.72916603 -114.2263489
v -87.35095978 24.77083397 -114.2263489
v -88.6396637 24.72916603 -117.9690247
v -88.6396637 24.77083397 -117.9690247
v -88.6002655 24.77083397 -117.9825974
v -88.6002655 24.72916603 -117.9825974
v -87.31156158 24.72916603 -114.2399139
v -87.31156158 24.77083397 -114.2399139
vn -0.4197536111 -0.8943935633 0.1544896066
vn -0.6673551202 0.707113862 0.2337244153
vn -0.8472105265 -0.4472308457 0.2867382765
vn -0.6733350158 0.7070495486 0.2161039114
vn 0.6673554778 0.707113564 -0.233724311
vn 0.4197528958 -0.8943939209 -0.1544896662
vn 0.8472205997 -0.4472098649 -0.2867413759
vn 0.6733537316 0.7070297599 -0.2161103636
f 1//1 2//2 3//3 
f 3//3 2//2 4//4 
f 5//5 6//6 4//4 
f 4//4 6//6 3//3 
f 7//7 1//1 6//6 
f 6//6 1//1 3//3 
f 8//8 5//5 2//2 
f 2//2 5//5 4//4 
f 2//2 1//1 8//8 
f 8//8 1//1 7//7 
f 8//8 7//7 5//5 
f 5//5 7//7 6//6 
