v -80.83959198 24.75 -95.315979
v -80.83959198 24.77083397 -95.315979
v -82.12830353 24.75 -99.05865479
v -82.12830353 24.77083397 -99.05865479
v -82.08890533 24.77083397 -99.07221985
v -82.08890533 24.75 -99.07221985
v -80.80020142 24.75 -95.32954407
v -80.80020142 24.77083397 -95.32954407
vn -0.2276744694 -0.9701251388 0.08379473537
vn -0.4221093655 0.8944097757 0.1478336602
vn -0.6697882414 -0.7071030736 0.2266913056
vn -0.4258937836 0.8943881989 0.1366901547
vn 0.4221093953 0.8944098353 -0.147833243
vn 0.2276744694 -0.9701250792 -0.08379520476
vn 0.6698465347 -0.7070417404 -0.2267103493
vn 0.4259529412 0.8943570256 -0.136710003
f 1//1 2//2 3//3 
f 3//3 2//2 4//4 
f 5//5 6//6 4//4 
f 4//4 6//6 3//3 
f 7//7 1//1 6//6 
f 6//6 1//1 3//3 
f 8//8 5//5 2//2 
f 2//2 5//5 4//4 
f 2//2 1//1 8//8 
f 8//8 1//1 7//7 
f 8//8 7//7 5//5 
f 5//5 7//7 6//6 
