v -76.9327774 24.72916603 -83.96975708
v -76.9327774 24.77083397 -83.96975708
v -78.22148132 24.72916603 -87.71243286
v -78.22148132 24.77083397 -87.71243286
v -78.18209076 24.77083397 -87.72599792
v -78.18209076 24.72916603 -87.72599792
v -76.89337921 24.72916603 -83.98332214
v -76.89337921 24.77083397 -83.98332214
vn -0.4197928905 -0.894372642 0.1545040607
vn -0.6673941612 0.707072556 0.2337380797
vn -0.8472495079 -0.4471478164 0.2867526114
vn -0.6734114885 0.7069681287 0.2161320597
vn 0.667394042 0.7070724368 -0.2337387204
vn 0.4197929502 -0.8943727612 -0.1545032263
vn 0.8472198844 -0.4472098649 -0.2867434323
vn 0.6733531952 0.7070297599 -0.2161119878
f 1//1 2//2 3//3 
f 3//3 2//2 4//4 
f 5//5 6//6 4//4 
f 4//4 6//6 3//3 
f 7//7 1//1 6//6 
f 6//6 1//1 3//3 
f 8//8 5//5 2//2 
f 2//2 5//5 4//4 
f 2//2 1//1 8//8 
f 8//8 1//1 7//7 
f 8//8 7//7 5//5 
f 5//5 7//7 6//6 
