v -33.81136322 14.55487823 -122.1816788
v -33.81136322 14.55487823 -122.5150146
v -34.0334816 14.55487823 -122.1816788
v -34.0334816 14.55487823 -122.5150146
v -26.47802925 9.953251839 -122.1816788
v -26.47802925 9.953251839 -122.5150146
v -34.0334816 12.5298748 -122.5150146
v -34.0334816 12.5298748 -122.1816788
v -27.00559998 8.119918823 -122.1816788
v -27.00559998 8.119918823 -122.5150146
vn 0.1769860983 0.2863235772 0.9416446686
vn 0.09241638333 0.1562002003 -0.983392477
vn -0.9436326623 0.1035050824 0.3143948317
vn -0.8287265897 0.09090128541 -0.5522220135
vn 0.06866305321 0.07261964679 0.994993329
vn 0.1353137493 0.1431109905 -0.9804129004
vn -0.1333688498 -0.1456575692 -0.9803043604
vn -0.06768170744 -0.07391794771 0.9949649572
vn -0.1065931916 -0.312564075 0.9438970089
vn -0.05561979115 -0.1630943716 -0.9850414395
f 1//1 2//2 3//3 
f 3//3 2//2 4//4 
f 5//5 6//6 1//1 
f 1//1 6//6 2//2 
f 4//4 7//7 3//3 
f 3//3 7//7 8//8 
f 9//9 5//5 8//8 
f 8//8 5//5 1//1 
f 8//8 1//1 3//3 
f 10//10 7//7 6//6 
f 6//6 7//7 2//2 
f 2//2 7//7 4//4 
f 5//5 9//9 6//6 
f 6//6 9//9 10//10 
f 10//10 9//9 7//7 
f 7//7 9//9 8//8 
