v -89.74629974 0.6666666865 -168.0570068
v -89.74629974 -3.145833254 -168.0570068
v -88.74629974 0.6666666865 -167.5474854
v -88.74629974 -3.145833254 -167.5474854
v -89.74629974 -3.145833254 -177.0150146
v -89.74629974 0.6666666865 -177.0150146
v -88.74629974 -3.145833254 -177.0150146
v -88.74629974 0.6666666865 -177.0150146
vn -0.9659495354 0.2533638179 0.0524244979
vn -0.8856732845 -0.4290240705 0.1775421053
vn 0.9355863333 0.2749994099 0.2214802355
vn 0.9896094203 -0.133373782 0.05370857939
vn -0.9899946451 -0.1298353672 -0.05525752157
vn -0.9454830885 0.2479955703 -0.2110922635
vn 0.8753059506 -0.4468209445 -0.1849069446
vn 0.9676706791 0.2469853759 -0.05110470951
f 1//1 2//2 3//3 
f 3//3 2//2 4//4 
f 2//2 1//1 5//5 
f 5//5 1//1 6//6 
f 5//5 7//7 2//2 
f 2//2 7//7 4//4 
f 6//6 1//1 8//8 
f 8//8 1//1 3//3 
f 7//7 8//8 4//4 
f 4//4 8//8 3//3 
f 5//5 6//6 7//7 
f 7//7 6//6 8//8 
