v -63.90326691 23.72916603 -46.12931442
v -63.90326691 23.77083397 -46.12931442
v -65.19876099 23.72916603 -49.8916893
v -65.19876099 23.77083397 -49.8916893
v -65.15936279 23.77083397 -49.90525436
v -65.15936279 23.72916603 -49.90525436
v -63.86387253 23.72916603 -46.14287949
v -63.86387253 23.77083397 -46.14287949
vn -0.4197945595 -0.8943808079 0.1544521153
vn -0.6673859358 0.7070877552 0.2337154895
vn -0.8472120166 -0.4472099245 0.2867667079
vn -0.6733286381 0.7070305943 0.2161858529
vn 0.6673859358 0.7070878148 -0.2337151766
vn 0.4197945297 -0.8943807483 -0.1544525325
vn 0.8472267985 -0.4471789002 -0.2867712677
vn 0.6733577847 0.7069997787 -0.2161958963
f 1//1 2//2 3//3 
f 3//3 2//2 4//4 
f 5//5 6//6 4//4 
f 4//4 6//6 3//3 
f 7//7 1//1 6//6 
f 6//6 1//1 3//3 
f 8//8 5//5 2//2 
f 2//2 5//5 4//4 
f 2//2 1//1 8//8 
f 8//8 1//1 7//7 
f 8//8 7//7 5//5 
f 5//5 7//7 6//6 
