v -65.21232605 23.72916603 -49.93108749
v -65.21232605 23.77083397 -49.93108749
v -66.50102997 23.72916603 -53.67376709
v -66.50102997 23.77083397 -53.67376709
v -66.46163177 23.77083397 -53.68733215
v -66.46163177 23.72916603 -53.68733215
v -65.17292786 23.72916603 -49.94465256
v -65.17292786 23.77083397 -49.94465256
vn -0.4197639823 -0.8943880796 0.1544932723
vn -0.6673654318 0.707103014 0.233727783
vn -0.8472204804 -0.4472098649 0.2867416441
vn -0.673353672 0.7070297599 0.2161105573
vn 0.6673654318 0.707103014 -0.233727783
vn 0.4197639823 -0.8943880796 -0.1544932723
vn 0.8472204804 -0.4472098649 -0.2867416441
vn 0.673353672 0.7070297599 -0.2161105573
f 1//1 2//2 3//3 
f 3//3 2//2 4//4 
f 5//5 6//6 4//4 
f 4//4 6//6 3//3 
f 7//7 1//1 6//6 
f 6//6 1//1 3//3 
f 8//8 5//5 2//2 
f 2//2 5//5 4//4 
f 2//2 1//1 8//8 
f 8//8 1//1 7//7 
f 8//8 7//7 5//5 
f 5//5 7//7 6//6 
