v -50.88054276 23.72916603 -8.308571815
v -50.88054276 23.77083397 -8.308571815
v -52.17603302 23.72916603 -12.07094765
v -52.17603302 23.77083397 -12.07094765
v -52.13663483 23.77083397 -12.08451366
v -52.13663483 23.72916603 -12.08451366
v -50.84114456 23.72916603 -8.322136879
v -50.84114456 23.77083397 -8.322136879
vn -0.4197787941 -0.8943891525 0.1544467062
vn -0.6673703194 0.7071044445 0.2337096334
vn -0.8472110629 -0.4472125471 0.2867653966
vn -0.6733265519 0.7070330381 0.2161843479
vn 0.667370379 0.7071043849 -0.2337096184
vn 0.4197787046 -0.8943892121 -0.1544467062
vn 0.8472123146 -0.4472099245 -0.286765784
vn 0.6733288765 0.7070305943 -0.2161851525
f 1//1 2//2 3//3 
f 3//3 2//2 4//4 
f 5//5 6//6 4//4 
f 4//4 6//6 3//3 
f 7//7 1//1 6//6 
f 6//6 1//1 3//3 
f 8//8 5//5 2//2 
f 2//2 5//5 4//4 
f 2//2 1//1 8//8 
f 8//8 1//1 7//7 
f 8//8 7//7 5//5 
f 5//5 7//7 6//6 
