v -73.30983734 32.75 132.5219727
v -73.30983734 23.75 132.5219727
v -73.40851593 32.75 132.7075653
v -73.40851593 23.75 132.7075653
v -73.44721985 23.75 132.7794189
v -73.44721985 32.75 132.7794189
v -73.43047333 23.75 132.7576752
v -73.43047333 32.75 132.7576752
v -73.41745758 32.75 132.7335052
v -73.41745758 23.75 132.7335052
v -72.98696136 23.75 133.0241394
v -72.84997559 23.75 132.7664948
v -72.98696136 32.75 133.0241394
v -72.84997559 32.75 132.7664948
vn 0.2855423391 0.01144610718 -0.9582977295
vn -0.1892122775 -0.01817085966 -0.9817680717
vn -0.8869817853 0.03089472651 -0.4607697725
vn -0.896466136 -0.05221768841 -0.4400247335
vn -0.492317915 -0.001509483438 0.8704141378
vn -0.5596587658 0.003043531673 0.8287175298
vn -0.8387786746 -0.02871605009 -0.5437147617
vn -0.8377431035 0.057361193 -0.5430434942
vn -0.9010103941 0.1797381788 -0.3948093653
vn -0.8602859378 -0.343228519 -0.3769645393
vn 0.3456646204 -0.02541207895 0.9380139709
vn 0.6899728179 -0.02825716883 -0.7232835293
vn -0.2140728682 0.01837038435 0.9766449332
vn 0.9706107974 0.03906390816 -0.2374629229
f 1//1 2//2 3//3 
f 3//3 2//2 4//4 
f 5//5 6//6 7//7 
f 7//7 6//6 8//8 
f 7//7 8//8 9//9 
f 3//3 4//4 9//9 
f 9//9 4//4 10//10 
f 9//9 10//10 7//7 
f 11//11 10//10 12//12 
f 12//12 10//10 4//4 
f 12//12 4//4 2//2 
f 5//5 7//7 11//11 
f 11//11 7//7 10//10 
f 6//6 5//5 13//13 
f 13//13 5//5 11//11 
f 14//14 12//12 1//1 
f 1//1 12//12 2//2 
f 1//1 3//3 14//14 
f 14//14 3//3 9//9 
f 14//14 9//9 13//13 
f 13//13 9//9 8//8 
f 13//13 8//8 6//6 
f 13//13 11//11 14//14 
f 14//14 11//11 12//12 
