v -76.69376373 24.04166603 139.9956665
v -77.15364075 24.04166603 139.7511444
v -78.08441162 24.04166603 142.611084
v -78.54428101 24.04166603 142.3665619
v -76.69376373 23.84370804 139.9956665
v -78.08441162 23.84370804 142.611084
v -76.71909332 23.84370804 139.982193
v -78.10974121 23.84370804 142.5976105
v -78.10974121 23.75 142.5976105
v -76.71909332 23.75 139.982193
v -78.11433411 23.78109169 142.5951691
v -76.72369385 23.78109169 139.9797516
v -76.72369385 23.81261635 139.9797516
v -78.11433411 23.81261635 142.5951691
v -76.9984436 23.75 139.8336639
v -78.38909149 23.75 142.4490814
v -78.54428101 23.83333397 142.3665619
v -78.38909149 23.83333397 142.4490814
v -77.15364075 23.83333397 139.7511444
v -76.9984436 23.83333397 139.8336639
vn 0.5747033954 0.792825222 0.202840209
vn -0.1513439417 0.9795402288 -0.1326498538
vn 0.1382392496 0.9808698893 0.137055248
vn -0.5844788551 0.7787743211 -0.2278047502
vn 0.8782770634 -0.1434250325 0.4561344683
vn 0.8715572357 -0.1434303075 0.4688451588
vn 0.5328614116 -0.8383398056 -0.1150875613
vn 0.545770824 -0.5012301207 0.6714927554
vn 0.04120900482 -0.9987609982 0.02789707109
vn 0.1808315814 -0.979911387 0.08410461992
vn 0.8163318038 0.08222217113 0.5717009306
vn 0.9663226008 0.08051785827 0.2444124669
vn 0.9033726454 -0.08272578567 0.4208019972
vn 0.8259318471 -0.08232762665 0.5577264428
vn -0.2161947042 -0.966852963 -0.1358498186
vn -0.2420569062 -0.9663597941 -0.0869320333
vn -0.6954312325 -0.6441753507 -0.3184548318
vn -0.470123142 -0.8825720549 -0.007125484757
vn -0.6640316844 -0.6446796656 -0.3787480295
vn -0.157610938 -0.8273605108 -0.5391042829
f 1//1 2//2 3//3 
f 3//3 2//2 4//4 
f 5//5 1//1 6//6 
f 6//6 1//1 3//3 
f 5//5 6//6 7//7 
f 7//7 6//6 8//8 
f 9//9 10//10 11//11 
f 11//11 10//10 12//12 
f 11//11 12//12 13//13 
f 7//7 8//8 13//13 
f 13//13 8//8 14//14 
f 13//13 14//14 11//11 
f 10//10 9//9 15//15 
f 15//15 9//9 16//16 
f 17//17 18//18 4//4 
f 4//4 18//18 3//3 
f 3//3 18//18 8//8 
f 3//3 8//8 6//6 
f 16//16 11//11 18//18 
f 18//18 11//11 14//14 
f 18//18 14//14 8//8 
f 16//16 9//9 11//11 
f 2//2 19//19 4//4 
f 4//4 19//19 17//17 
f 19//19 2//2 20//20 
f 20//20 2//2 1//1 
f 20//20 1//1 7//7 
f 7//7 1//1 5//5 
f 7//7 13//13 20//20 
f 20//20 13//13 12//12 
f 20//20 12//12 15//15 
f 15//15 12//12 10//10 
f 20//20 15//15 18//18 
f 18//18 15//15 16//16 
f 20//20 18//18 19//19 
f 19//19 18//18 17//17 
