v -35.62446976 46.71614456 141.3329926
v -35.62446976 38.78385544 141.3329926
v -35.62446976 46.71614456 141.3199768
v -35.62446976 38.78385544 141.3199768
v -36.01040268 46.71614456 141.3199768
v -36.01040268 38.78385544 141.3199768
v -36.02080536 38.78385544 141.3309021
v -36.02080536 46.71614456 141.3309021
v -36.02064514 38.78385544 141.3285065
v -36.02064514 46.71614456 141.3285065
v -36.01993942 38.78385544 141.3262024
v -36.01993942 46.71614456 141.3262024
v -36.01872635 38.78385544 141.3241272
v -36.01872635 46.71614456 141.3241272
v -36.01706696 38.78385544 141.3223877
v -36.01706696 46.71614456 141.3223877
v -36.0150528 38.78385544 141.3210754
v -36.0150528 46.71614456 141.3210754
v -36.01279068 38.78385544 141.3202515
v -36.01279068 46.71614456 141.3202515
v -36.00768661 46.71614456 141.3329926
v -36.00768661 38.78385544 141.3329926
v -35.81110382 46.71614456 143.8079071
v -35.81110382 38.78385544 143.8079071
v -33.48095322 46.71614456 143.8079071
v -33.48095322 38.78385544 143.8079071
v -33.46793365 38.78385544 143.7948761
v -33.46793365 46.71614456 143.7948761
v -33.46837616 38.78385544 143.7982483
v -33.46837616 46.71614456 143.7982483
v -33.46967697 38.78385544 143.8013916
v -33.46967697 46.71614456 143.8013916
v -33.47174835 38.78385544 143.8040924
v -33.47174835 46.71614456 143.8040924
v -33.47444534 38.78385544 143.8061523
v -33.47444534 46.71614456 143.8061523
v -33.47758484 38.78385544 143.8074646
v -33.47758484 46.71614456 143.8074646
v -33.46793365 46.71614456 143.7323761
v -33.46793365 38.78385544 143.7323761
v -33.48095322 46.71614456 143.7323761
v -33.48095322 38.78385544 143.7323761
v -35.79912567 38.78385544 143.7948761
v -33.48095322 38.78385544 143.7948761
v -33.48095322 46.71614456 143.7948761
v -35.79912567 46.71614456 143.7948761
vn 0.01697976701 0.0008203096222 0.9998555183
vn 0.06777261198 -0.001637081499 0.9976994395
vn 0.06729754806 0.003262733808 -0.9977276325
vn 0.01686028764 -0.001634847838 -0.9998565316
vn -0.0003547390806 0.0008230797248 -0.9999995828
vn -0.001405944698 -0.001631064457 -0.9999976754
vn -0.996440351 -0.001629536739 0.08428496867
vn -0.9964547157 0.00325440173 0.08406765759
vn -0.9897025824 -0.001139236614 -0.1431344151
vn -0.9757341743 0.001137839514 -0.2189555913
vn -0.9308025241 -0.001170867938 -0.3655206263
vn -0.8996806145 0.001171851298 -0.4365471601
vn -0.8216739893 -0.001188511495 -0.5699565411
vn -0.7748095989 0.001188460505 -0.6321935654
vn -0.6683172584 -0.001188443624 -0.7438754439
vn -0.6087327003 0.001188464346 -0.7933744788
vn -0.4807135761 -0.001172097865 -0.8768768907
vn -0.4124406874 0.001171509153 -0.9109836817
vn -0.2679727376 -0.001139580854 -0.9634258151
vn -0.1915102303 0.001140182954 -0.9814899564
vn 0.9999757409 0.001077963854 -0.006885826588
vn 0.9752714634 -0.002102665836 0.2210004479
vn -0.8743566871 0.00139657082 0.4852817655
vn -0.4533527195 -0.001448240015 0.8913300037
vn 9.488328215e-05 0.00163855846 0.9999986291
vn 0.0003787110036 -0.003270018147 0.999994576
vn 0.9999927282 -0.001641325303 0.003447021125
vn 0.9999136925 0.003042613156 0.01277985796
vn 0.9764252305 -0.001093356521 0.215853259
vn 0.9537527561 0.001093276194 0.3005903065
vn 0.8872347474 -0.001093581785 0.4613168836
vn 0.8433973193 0.001093382714 0.5372892618
vn 0.7371537089 -0.00109312695 0.6757242084
vn 0.6745104194 0.001094214735 0.7382645011
vn 0.5369971991 -0.001093697734 0.8435833454
vn 0.4626687467 0.001092715538 0.8865305781
vn 0.302970171 -0.001093838364 0.952999413
vn 0.2171698511 0.001094425912 0.9761332273
vn 0.9946191311 0.0008162527229 -0.1035960391
vn 0.9230892062 -0.00151510071 -0.3845829368
vn -0.9230860472 0.003030190943 -0.3845816255
vn -0.9946181178 -0.001632503816 -0.1035959348
vn 0.8741638064 -0.002794059459 -0.4856231511
vn -0.01347921696 -0.0008506012382 -0.9999088049
vn -0.05384348705 0.001698887208 -0.9985479712
vn 0.4530067444 0.002895859536 -0.8915023804
f 1//1 2//2 3//3 
f 3//3 2//2 4//4 
f 3//3 4//4 5//5 
f 5//5 4//4 6//6 
f 7//7 8//8 9//9 
f 9//9 8//8 10//10 
f 9//9 10//10 11//11 
f 11//11 10//10 12//12 
f 11//11 12//12 13//13 
f 13//13 12//12 14//14 
f 13//13 14//14 15//15 
f 15//15 14//14 16//16 
f 15//15 16//16 17//17 
f 17//17 16//16 18//18 
f 17//17 18//18 19//19 
f 19//19 18//18 20//20 
f 19//19 20//20 6//6 
f 6//6 20//20 5//5 
f 21//21 22//22 1//1 
f 1//1 22//22 2//2 
f 8//8 7//7 23//23 
f 23//23 7//7 24//24 
f 23//23 24//24 25//25 
f 25//25 24//24 26//26 
f 27//27 28//28 29//29 
f 29//29 28//28 30//30 
f 29//29 30//30 31//31 
f 31//31 30//30 32//32 
f 31//31 32//32 33//33 
f 33//33 32//32 34//34 
f 33//33 34//34 35//35 
f 35//35 34//34 36//36 
f 35//35 36//36 37//37 
f 37//37 36//36 38//38 
f 37//37 38//38 26//26 
f 26//26 38//38 25//25 
f 28//28 27//27 39//39 
f 39//39 27//27 40//40 
f 39//39 40//40 41//41 
f 41//41 40//40 42//42 
f 43//43 7//7 22//22 
f 22//22 7//7 9//9 
f 22//22 9//9 11//11 
f 44//44 26//26 43//43 
f 43//43 26//26 24//24 
f 43//43 24//24 7//7 
f 42//42 27//27 44//44 
f 44//44 27//27 29//29 
f 44//44 29//29 31//31 
f 42//42 40//40 27//27 
f 31//31 33//33 44//44 
f 44//44 33//33 35//35 
f 44//44 35//35 37//37 
f 37//37 26//26 44//44 
f 11//11 13//13 22//22 
f 22//22 13//13 15//15 
f 22//22 15//15 17//17 
f 17//17 19//19 22//22 
f 22//22 19//19 6//6 
f 22//22 6//6 4//4 
f 4//4 2//2 22//22 
f 41//41 42//42 45//45 
f 45//45 42//42 44//44 
f 46//46 43//43 21//21 
f 21//21 43//43 22//22 
f 1//1 3//3 21//21 
f 21//21 3//3 5//5 
f 21//21 5//5 20//20 
f 20//20 18//18 21//21 
f 21//21 18//18 16//16 
f 21//21 16//16 14//14 
f 14//14 12//12 21//21 
f 21//21 12//12 10//10 
f 21//21 10//10 8//8 
f 21//21 8//8 46//46 
f 46//46 8//8 23//23 
f 46//46 23//23 25//25 
f 46//46 25//25 45//45 
f 45//45 25//25 38//38 
f 45//45 38//38 36//36 
f 36//36 34//34 45//45 
f 45//45 34//34 32//32 
f 45//45 32//32 30//30 
f 30//30 28//28 45//45 
f 45//45 28//28 41//41 
f 41//41 28//28 39//39 
f 45//45 44//44 46//46 
f 46//46 44//44 43//43 
