v 51.00037384 38.71614456 73.09236145
v 51.00037384 32.78385544 73.09236145
v 51.00037384 38.71614456 73.04227448
v 51.00037384 32.78385544 73.04227448
v 50.98735046 38.71614456 73.04227448
v 50.98735046 32.78385544 73.04227448
v 50.98735046 38.71614456 73.09486389
v 50.98735046 32.78385544 73.09486389
v 50.99624252 32.78385544 73.1051712
v 50.99624252 38.71614456 73.1051712
v 50.99386215 32.78385544 73.10452271
v 50.99386215 38.71614456 73.10452271
v 50.99170303 32.78385544 73.10333252
v 50.99170303 38.71614456 73.10333252
v 50.98987961 32.78385544 73.10166931
v 50.98987961 38.71614456 73.10166931
v 50.9885025 32.78385544 73.09962463
v 50.9885025 38.71614456 73.09962463
v 50.9876442 32.78385544 73.09731293
v 50.9876442 38.71614456 73.09731293
v 52.21284866 38.71614456 73.21987915
v 52.21284866 32.78385544 73.21987915
v 52.45139694 38.71614456 70.40216827
v 52.45139694 32.78385544 70.40216827
v 52.44099426 32.78385544 70.39123535
v 52.44099426 38.71614456 70.39123535
v 52.44338226 32.78385544 70.39151001
v 52.44338226 38.71614456 70.39151001
v 52.44564438 32.78385544 70.39233398
v 52.44564438 38.71614456 70.39233398
v 52.44765854 32.78385544 70.39364624
v 52.44765854 38.71614456 70.39364624
v 52.44931793 32.78385544 70.39539337
v 52.44931793 38.71614456 70.39539337
v 52.45053101 32.78385544 70.39746857
v 52.45053101 38.71614456 70.39746857
v 52.45123672 32.78385544 70.39976501
v 52.45123672 38.71614456 70.39976501
v 52.05506134 38.71614456 70.39123535
v 52.05506134 32.78385544 70.39123535
v 52.05506134 38.71614456 70.40425873
v 52.05506134 32.78385544 70.40425873
v 52.4382782 32.78385544 70.40425873
v 52.20095444 32.78385544 73.20565796
v 52.20095444 38.71614456 73.20565796
v 52.4382782 38.71614456 70.40425873
vn 0.1144700721 0.001212176052 -0.9934259653
vn 0.1750597805 -0.002402703045 -0.9845548868
vn 0.9916540384 0.001088507706 -0.1289225817
vn 0.887204051 -0.00194771227 -0.4613731503
vn -0.8961042166 0.003840891644 -0.4438270628
vn -0.9924189448 -0.002126858337 -0.1228825748
vn -0.9999955297 0.001230219845 0.002729129279
vn -0.9999451637 -0.002303097164 0.01021841727
vn -0.09404046834 -0.002192353364 0.9955659509
vn -0.09455316514 0.004371643532 0.9955102205
vn -0.3382413983 -0.00154003012 0.9410580993
vn -0.4120032787 0.00154038833 0.9111810327
vn -0.5499016047 -0.001568803797 0.8352279663
vn -0.6140116453 0.001568246749 0.7892953753
vn -0.7303097248 -0.003061828902 0.6831092834
vn -0.7824824452 0.003063019365 0.6226651073
vn -0.8708816171 -0.0001289708307 0.4914927781
vn -0.9071221948 0.0001289581269 0.4208673239
vn -0.9618950486 -3.262430619e-05 0.2734189332
vn -0.9804807901 3.262125028e-05 0.196614936
vn 0.6957969666 0.002394657582 0.718234539
vn 0.9560198784 -0.001542575192 0.2932978272
vn 0.9964385033 0.002183663193 0.08429451287
vn 0.9964475632 -0.004361788277 0.08410277963
vn 0.0003547389933 -0.001101215952 -0.9999993443
vn 0.001405943185 0.002182234079 -0.9999966025
vn 0.1915101409 -0.001525415224 -0.9814894795
vn 0.2679726183 0.001524609746 -0.9634253383
vn 0.4124404788 -0.001567234751 -0.9109832048
vn 0.4807133377 0.0015680223 -0.8768764138
vn 0.6093979478 -0.003781041363 -0.7928555012
vn 0.6694881916 0.003778047394 -0.7428131104
vn 0.7756587267 -0.0002703103819 -0.631152451
vn 0.822019875 0.0002705314255 -0.5694587827
vn 0.8994782567 -0.0001230568741 -0.4369654655
vn 0.9305183887 0.0001230794151 -0.3662452102
vn 0.9756837487 -3.122169801e-05 -0.2191830426
vn 0.9897249937 3.119475878e-05 -0.1429838985
vn -0.01687014848 0.002187295817 -0.9998552799
vn -0.06733653694 -0.004365252797 -0.997720778
vn -0.06781208515 0.002190278843 0.9976956844
vn -0.01698971353 -0.001097509637 0.9998550415
vn -0.9998658895 -0.001398532302 -0.01631656103
vn -0.6984095573 -0.004798545036 -0.7156822681
vn -0.9564501643 0.003082288895 -0.2918793559
vn -0.9826231599 0.00274882908 0.1855914295
f 1//1 2//2 3//3 
f 3//3 2//2 4//4 
f 3//3 4//4 5//5 
f 5//5 4//4 6//6 
f 5//5 6//6 7//7 
f 7//7 6//6 8//8 
f 9//9 10//10 11//11 
f 11//11 10//10 12//12 
f 11//11 12//12 13//13 
f 13//13 12//12 14//14 
f 13//13 14//14 15//15 
f 15//15 14//14 16//16 
f 15//15 16//16 17//17 
f 17//17 16//16 18//18 
f 17//17 18//18 19//19 
f 19//19 18//18 20//20 
f 19//19 20//20 8//8 
f 8//8 20//20 7//7 
f 10//10 9//9 21//21 
f 21//21 9//9 22//22 
f 21//21 22//22 23//23 
f 23//23 22//22 24//24 
f 25//25 26//26 27//27 
f 27//27 26//26 28//28 
f 27//27 28//28 29//29 
f 29//29 28//28 30//30 
f 29//29 30//30 31//31 
f 31//31 30//30 32//32 
f 31//31 32//32 33//33 
f 33//33 32//32 34//34 
f 33//33 34//34 35//35 
f 35//35 34//34 36//36 
f 35//35 36//36 37//37 
f 37//37 36//36 38//38 
f 37//37 38//38 24//24 
f 24//24 38//38 23//23 
f 26//26 25//25 39//39 
f 39//39 25//25 40//40 
f 39//39 40//40 41//41 
f 41//41 40//40 42//42 
f 43//43 24//24 44//44 
f 44//44 24//24 22//22 
f 44//44 22//22 9//9 
f 42//42 40//40 43//43 
f 43//43 40//40 25//25 
f 43//43 25//25 27//27 
f 27//27 29//29 43//43 
f 43//43 29//29 31//31 
f 43//43 31//31 24//24 
f 24//24 31//31 33//33 
f 24//24 33//33 35//35 
f 35//35 37//37 24//24 
f 44//44 9//9 2//2 
f 2//2 9//9 11//11 
f 2//2 11//11 13//13 
f 13//13 15//15 2//2 
f 2//2 15//15 8//8 
f 2//2 8//8 6//6 
f 15//15 17//17 8//8 
f 8//8 17//17 19//19 
f 6//6 4//4 2//2 
f 45//45 44//44 1//1 
f 1//1 44//44 2//2 
f 41//41 42//42 46//46 
f 46//46 42//42 43//43 
f 1//1 10//10 45//45 
f 45//45 10//10 21//21 
f 45//45 21//21 23//23 
f 3//3 5//5 1//1 
f 1//1 5//5 7//7 
f 1//1 7//7 16//16 
f 16//16 7//7 18//18 
f 18//18 7//7 20//20 
f 16//16 14//14 1//1 
f 1//1 14//14 12//12 
f 1//1 12//12 10//10 
f 38//38 36//36 23//23 
f 23//23 36//36 34//34 
f 23//23 34//34 32//32 
f 23//23 32//32 46//46 
f 46//46 32//32 30//30 
f 46//46 30//30 28//28 
f 28//28 26//26 46//46 
f 46//46 26//26 39//39 
f 46//46 39//39 41//41 
f 46//46 45//45 23//23 
f 46//46 43//43 45//45 
f 45//45 43//43 44//44 
