v -35.62446976 55.64583206 141.3329926
v -35.62446976 46.77083206 141.3329926
v -35.62446976 55.64583206 141.3199768
v -35.62446976 46.77083206 141.3199768
v -36.01040268 55.64583206 141.3199768
v -36.01040268 46.77083206 141.3199768
v -36.02080536 46.77083206 141.3309021
v -36.02080536 55.64583206 141.3309021
v -36.02064514 46.77083206 141.3285065
v -36.02064514 55.64583206 141.3285065
v -36.01993942 46.77083206 141.3262024
v -36.01993942 55.64583206 141.3262024
v -36.01872635 46.77083206 141.3241272
v -36.01872635 55.64583206 141.3241272
v -36.01706696 46.77083206 141.3223877
v -36.01706696 55.64583206 141.3223877
v -36.0150528 46.77083206 141.3210754
v -36.0150528 55.64583206 141.3210754
v -36.01279068 46.77083206 141.3202515
v -36.01279068 55.64583206 141.3202515
v -35.81110382 55.64583206 143.8079071
v -35.81110382 46.77083206 143.8079071
v -33.48095322 55.64583206 143.8079071
v -33.48095322 46.77083206 143.8079071
v -33.46793365 46.77083206 143.7948761
v -33.46793365 55.64583206 143.7948761
v -33.46837616 46.77083206 143.7982483
v -33.46837616 55.64583206 143.7982483
v -33.46967697 46.77083206 143.8013916
v -33.46967697 55.64583206 143.8013916
v -33.47174835 46.77083206 143.8040924
v -33.47174835 55.64583206 143.8040924
v -33.47444534 46.77083206 143.8061523
v -33.47444534 55.64583206 143.8061523
v -33.47758484 46.77083206 143.8074646
v -33.47758484 55.64583206 143.8074646
v -33.46793365 55.64583206 143.7323761
v -33.46793365 46.77083206 143.7323761
v -33.48095322 55.64583206 143.7323761
v -33.48095322 46.77083206 143.7323761
v -33.48095322 55.64583206 143.7948761
v -33.48095322 46.77083206 143.7948761
v -35.79912567 46.77083206 143.7948761
v -36.00768661 46.77083206 141.3329926
v -36.00768661 55.64583206 141.3329926
v -35.79912567 55.64583206 143.7948761
vn 0.01697976887 0.000733175606 0.9998555779
vn 0.06777262688 -0.001463189488 0.9976997375
vn 0.06729762256 0.002916166326 -0.9977287054
vn 0.01686029136 -0.001461193198 -0.99985677
vn -0.0003547391098 0.0007356514689 -0.9999996424
vn -0.001405945048 -0.001457811566 -0.9999979734
vn -0.996440649 -0.001456446247 0.08428499103
vn -0.9964557886 0.002908719005 0.084067747
vn -0.9897027612 -0.001018225914 -0.1431344301
vn -0.9757342935 0.001016977243 -0.2189556211
vn -0.9308026433 -0.001046497375 -0.3655206561
vn -0.8996807337 0.00104737631 -0.4365472198
vn -0.8216741085 -0.001062266878 -0.5699566007
vn -0.7748097181 0.001062221243 -0.632193625
vn -0.6683173776 -0.001062206109 -0.7438755035
vn -0.60873276 0.001062224619 -0.793374598
vn -0.4807136655 -0.001047596685 -0.8768770099
vn -0.412440747 0.001047070487 -0.9109838009
vn -0.2679727674 -0.001018533716 -0.9634259343
vn -0.1915102601 0.001019071788 -0.9814900756
vn -0.8743568659 0.001248226035 0.4852818549
vn -0.453352809 -0.001294406829 0.8913302422
vn 9.488331125e-05 0.001464509638 0.9999989271
vn 0.000378711411 -0.002922676969 0.9999956489
vn 0.9999929667 -0.001466982532 0.003447022056
vn 0.9999146461 0.002719426528 0.01277987007
vn 0.9764253497 -0.0009772193152 0.2158532888
vn 0.9537528157 0.000977147487 0.3005903363
vn 0.8872348666 -0.0009774207138 0.4613169432
vn 0.8433974385 0.0009772427147 0.5372893214
vn 0.7371537685 -0.000977014075 0.6757243276
vn 0.6745105386 0.0009779863758 0.7382645607
vn 0.5369972587 -0.0009775243234 0.8435834646
vn 0.4626688063 0.000976646319 0.8865306973
vn 0.3029702008 -0.0009776499355 0.9529995322
vn 0.217169866 0.000978175085 0.9761333466
vn 0.9946191907 0.000729549618 -0.1035960466
vn 0.923089385 -0.001354165608 -0.3845830262
vn -0.9230868816 0.002708323766 -0.3845819831
vn -0.9946184158 -0.001459098072 -0.1035959646
vn -0.05384350568 0.001518430305 -0.9985482097
vn -0.01347921789 -0.0007602496189 -0.9999088645
vn 0.8741644621 -0.00249727373 -0.4856235385
vn 0.9752718806 -0.001879319432 0.2210005522
vn 0.9999758005 0.0009634616436 -0.006885827053
vn 0.4530071318 0.002588260686 -0.8915031552
f 1//1 2//2 3//3 
f 3//3 2//2 4//4 
f 3//3 4//4 5//5 
f 5//5 4//4 6//6 
f 7//7 8//8 9//9 
f 9//9 8//8 10//10 
f 9//9 10//10 11//11 
f 11//11 10//10 12//12 
f 11//11 12//12 13//13 
f 13//13 12//12 14//14 
f 13//13 14//14 15//15 
f 15//15 14//14 16//16 
f 15//15 16//16 17//17 
f 17//17 16//16 18//18 
f 17//17 18//18 19//19 
f 19//19 18//18 20//20 
f 19//19 20//20 6//6 
f 6//6 20//20 5//5 
f 8//8 7//7 21//21 
f 21//21 7//7 22//22 
f 21//21 22//22 23//23 
f 23//23 22//22 24//24 
f 25//25 26//26 27//27 
f 27//27 26//26 28//28 
f 27//27 28//28 29//29 
f 29//29 28//28 30//30 
f 29//29 30//30 31//31 
f 31//31 30//30 32//32 
f 31//31 32//32 33//33 
f 33//33 32//32 34//34 
f 33//33 34//34 35//35 
f 35//35 34//34 36//36 
f 35//35 36//36 24//24 
f 24//24 36//36 23//23 
f 26//26 25//25 37//37 
f 37//37 25//25 38//38 
f 37//37 38//38 39//39 
f 39//39 38//38 40//40 
f 39//39 40//40 41//41 
f 41//41 40//40 42//42 
f 43//43 7//7 44//44 
f 44//44 7//7 9//9 
f 44//44 9//9 11//11 
f 42//42 24//24 43//43 
f 43//43 24//24 22//22 
f 43//43 22//22 7//7 
f 40//40 25//25 42//42 
f 42//42 25//25 27//27 
f 42//42 27//27 29//29 
f 40//40 38//38 25//25 
f 29//29 31//31 42//42 
f 42//42 31//31 33//33 
f 42//42 33//33 35//35 
f 35//35 24//24 42//42 
f 11//11 13//13 44//44 
f 44//44 13//13 15//15 
f 44//44 15//15 17//17 
f 17//17 19//19 44//44 
f 44//44 19//19 6//6 
f 44//44 6//6 4//4 
f 4//4 2//2 44//44 
f 45//45 44//44 1//1 
f 1//1 44//44 2//2 
f 41//41 42//42 46//46 
f 46//46 42//42 43//43 
f 1//1 3//3 45//45 
f 45//45 3//3 5//5 
f 45//45 5//5 20//20 
f 20//20 18//18 45//45 
f 45//45 18//18 16//16 
f 45//45 16//16 14//14 
f 14//14 12//12 45//45 
f 45//45 12//12 10//10 
f 45//45 10//10 8//8 
f 45//45 8//8 46//46 
f 46//46 8//8 21//21 
f 46//46 21//21 23//23 
f 46//46 23//23 41//41 
f 41//41 23//23 36//36 
f 41//41 36//36 34//34 
f 34//34 32//32 41//41 
f 41//41 32//32 30//30 
f 41//41 30//30 28//28 
f 28//28 26//26 41//41 
f 41//41 26//26 39//39 
f 39//39 26//26 37//37 
f 46//46 43//43 45//45 
f 45//45 43//43 44//44 
