v -78.15904999 -3.145833254 -70.15764618
v -77.21353149 -3.145833254 -70.4832077
v -77.24979401 -3.145833254 -67.17428589
v -76.28341675 -3.145833254 -67.43141937
v -76.5561676 -3.145833254 -64.13356018
v -76.08171844 -3.145833254 -61.05102158
v -75.57388306 -3.145833254 -64.32093811
v -75.82888031 -3.145833254 -57.94244766
v -75.08854675 -3.145833254 -61.16769028
v -74.82991028 -3.145833254 -57.98781204
v -75.79894257 -3.145833254 -54.82375336
v -74.79928589 -3.145833254 -54.7975769
v -74.9968338 -3.145833254 -51.6133194
v -75.9920578 -3.145833254 -51.71089935
v -75.42153931 -3.145833254 -48.45133209
v -76.07123566 -3.145833254 -45.32780457
v -76.94258881 -3.145833254 -42.2587204
v -77.04236603 -3.145833254 -45.56633759
v -76.40724182 -3.145833254 -48.61982346
v -77.8941803 -3.145833254 -42.56607819
v -78.03115082 -3.145833254 -39.25979233
v -78.95832825 -3.145833254 -39.63439941
v -77.21353149 -1.323385715 -70.4832077
v -76.6065979 -1.379897952 -68.58358002
v -76.08518982 -1.43709898 -66.65867615
v -75.65037537 -1.494871616 -64.71242523
v -75.30300903 -1.553102136 -62.74865723
v -75.04377747 -1.611673594 -60.77132797
v -74.87324524 -1.670468926 -58.7843895
v -74.79169464 -1.729370356 -56.79180908
v -74.79928589 -1.788260341 -54.7975769
v -74.89607239 -1.847020745 -52.80568314
v -75.08179474 -1.905534506 -50.82010269
v -75.35608673 -1.96368444 -48.84480667
v -75.71844482 -2.021354198 -46.88375473
v -76.16811371 -2.078428268 -44.94086456
v -76.70419312 -2.134792328 -43.02003479
v -77.32563019 -2.190335512 -41.12505341
v -78.03115082 -2.244943619 -39.25979233
v -78.15904999 -1.332360029 -70.15764618
v -78.95832825 -2.233252287 -39.63439941
v -78.26863098 -2.179868698 -41.45783234
v -77.66113281 -2.125571251 -43.31031799
v -77.13707733 -2.070471048 -45.1880722
v -76.69748688 -2.014676809 -47.08739853
v -76.34326172 -1.958300352 -49.00447464
v -76.07511902 -1.901454449 -50.93547058
v -75.89356232 -1.844252825 -52.87652588
v -75.79894257 -1.78681004 -54.82375336
v -75.79151917 -1.729240656 -56.77326584
v -75.87124634 -1.671660066 -58.72116089
v -76.03795624 -1.614183187 -60.66354752
v -76.29136658 -1.556925178 -62.59653473
v -76.63095093 -1.500000477 -64.51625824
v -77.05601501 -1.443523288 -66.41886902
v -77.56572723 -1.387605071 -68.3006134
vn -0.9450613856 -0.3116758764 0.09857569635
vn 0.6529339552 -0.5441923141 -0.5268130898
vn -0.807339251 -0.5491015911 0.216080457
vn 0.726307869 -0.6593071818 -0.1943989098
vn -0.9341122508 -0.3069450557 0.182260856
vn -0.8706781268 -0.4815875888 0.09996523708
vn 0.8387089968 -0.5194064975 -0.1636584252
vn -0.6874226332 -0.7256034017 0.03081808798
vn 0.9042893648 -0.4140987098 -0.1038410515
vn 0.7821792364 -0.6220654249 -0.03507411852
vn -0.7415933013 -0.6705882549 -0.01872794516
vn 0.9063629508 -0.4218806326 0.02286838181
vn 0.737387836 -0.6717185974 0.07108650357
vn -0.637319684 -0.7681456208 -0.06144867465
vn 0.8480113745 -0.5108746886 0.141009748
vn 0.6368752718 -0.7546090484 0.1579718292
vn 0.6188378334 -0.7595959306 0.2001343817
vn -0.7407425046 -0.6461670995 -0.1837622374
vn -0.9004584551 -0.4083471 -0.1497573256
vn -0.6267156005 -0.7524237037 -0.2026970536
vn 0.5225721002 -0.793535471 0.3118009567
vn -0.862583518 -0.5058987737 0.004012716934
vn 0.4061880112 0.8330956101 -0.3754504323
vn 0.8680414557 0.4306025505 -0.2471547723
vn 0.8736153245 0.445702523 -0.1953088343
vn 0.7188943028 0.6840574741 -0.123516649
vn 0.8752382398 0.4683256447 -0.120951049
vn 0.7076838613 0.7043169737 -0.05586744472
vn 0.9320685863 0.3579232097 -0.05602776632
vn 0.9323933125 0.3614324331 -0.003046879778
vn 0.6734179854 0.7382100821 0.03942187876
vn 0.9135081768 0.4002373815 0.0728893131
vn 0.8170492053 0.5643699765 0.117970556
vn 0.5985141397 0.792057693 0.1201062351
vn 0.7813684344 0.5975656509 0.1799405366
vn 0.5565243959 0.8141018748 0.1658875942
vn 0.7379975915 0.6322373748 0.2358717471
vn 0.7011743188 0.6599927545 0.2697483301
vn 0.155214414 0.9098987579 0.3846982718
vn -0.8333464265 0.3569634259 -0.4220318198
vn -0.7135472894 0.6937709451 0.09763262421
vn -0.8243592381 0.491963923 -0.2800059617
vn -0.752502799 0.6264492273 -0.2032262385
vn -0.5777660012 0.8067714572 -0.1237186268
vn -0.7936181426 0.5902466178 -0.1475775838
vn -0.6180384159 0.7823739648 -0.07693854719
vn -0.8259516358 0.5571346283 -0.08605197817
vn -0.8448793888 0.533400774 -0.04077270627
vn -0.5571030378 0.8303841352 0.009920013137
vn -0.7048671842 0.708648026 0.03130876273
vn -0.8714476228 0.4844683409 0.07661253959
vn -0.718644917 0.6883960366 0.09828735143
vn -0.875736773 0.4593768418 0.148519516
vn -0.7269392014 0.6665352583 0.1651973128
vn -0.8717094064 0.4373209476 0.221072644
vn -0.9138610363 0.2917779982 0.2823536992
f 1//1 2//2 3//3 
f 3//3 2//2 4//4 
f 3//3 4//4 5//5 
f 5//5 4//4 6//6 
f 6//6 4//4 7//7 
f 6//6 7//7 8//8 
f 8//8 7//7 9//9 
f 8//8 9//9 10//10 
f 8//8 10//10 11//11 
f 11//11 10//10 12//12 
f 11//11 12//12 13//13 
f 11//11 13//13 14//14 
f 14//14 13//13 15//15 
f 14//14 15//15 16//16 
f 17//17 18//18 16//16 
f 16//16 18//18 19//19 
f 16//16 19//19 14//14 
f 18//18 17//17 20//20 
f 20//20 17//17 21//21 
f 20//20 21//21 22//22 
f 23//23 24//24 2//2 
f 2//2 24//24 4//4 
f 4//4 24//24 25//25 
f 4//4 25//25 7//7 
f 7//7 25//25 26//26 
f 7//7 26//26 27//27 
f 7//7 27//27 9//9 
f 9//9 27//27 28//28 
f 9//9 28//28 29//29 
f 9//9 29//29 10//10 
f 10//10 29//29 30//30 
f 10//10 30//30 12//12 
f 12//12 30//30 31//31 
f 12//12 31//31 32//32 
f 12//12 32//32 13//13 
f 13//13 32//32 33//33 
f 13//13 33//33 15//15 
f 15//15 33//33 34//34 
f 15//15 34//34 35//35 
f 15//15 35//35 16//16 
f 16//16 35//35 36//36 
f 16//16 36//36 37//37 
f 16//16 37//37 17//17 
f 17//17 37//37 38//38 
f 17//17 38//38 21//21 
f 21//21 38//38 39//39 
f 23//23 2//2 40//40 
f 40//40 2//2 1//1 
f 41//41 22//22 39//39 
f 39//39 22//22 21//21 
f 41//41 42//42 22//22 
f 22//22 42//42 20//20 
f 20//20 42//42 43//43 
f 20//20 43//43 18//18 
f 18//18 43//43 44//44 
f 18//18 44//44 45//45 
f 18//18 45//45 19//19 
f 19//19 45//45 46//46 
f 19//19 46//46 47//47 
f 19//19 47//47 14//14 
f 14//14 47//47 48//48 
f 14//14 48//48 11//11 
f 11//11 48//48 49//49 
f 11//11 49//49 50//50 
f 11//11 50//50 8//8 
f 8//8 50//50 51//51 
f 8//8 51//51 6//6 
f 6//6 51//51 52//52 
f 6//6 52//52 53//53 
f 6//6 53//53 5//5 
f 5//5 53//53 54//54 
f 5//5 54//54 55//55 
f 5//5 55//55 3//3 
f 3//3 55//55 56//56 
f 3//3 56//56 1//1 
f 1//1 56//56 40//40 
f 40//40 56//56 23//23 
f 23//23 56//56 55//55 
f 23//23 55//55 24//24 
f 24//24 55//55 54//54 
f 24//24 54//54 25//25 
f 25//25 54//54 53//53 
f 25//25 53//53 26//26 
f 26//26 53//53 52//52 
f 26//26 52//52 27//27 
f 27//27 52//52 51//51 
f 27//27 51//51 28//28 
f 28//28 51//51 50//50 
f 28//28 50//50 29//29 
f 29//29 50//50 30//30 
f 30//30 50//50 31//31 
f 31//31 50//50 49//49 
f 31//31 49//49 32//32 
f 32//32 49//49 33//33 
f 33//33 49//49 48//48 
f 33//33 48//48 34//34 
f 34//34 48//48 47//47 
f 34//34 47//47 35//35 
f 35//35 47//47 46//46 
f 35//35 46//46 36//36 
f 36//36 46//46 45//45 
f 36//36 45//45 37//37 
f 37//37 45//45 44//44 
f 37//37 44//44 38//38 
f 38//38 44//44 43//43 
f 38//38 43//43 39//39 
f 39//39 43//43 42//42 
f 39//39 42//42 41//41 
