v -89.15848541 4.25 143.2766571
v -89.15848541 0.4166666567 143.2766571
v -89.90848541 4.25 143.2766571
v -89.90848541 0.4166666567 143.2766571
v -89.90848541 0.4166666567 175.2766571
v -89.90848541 4.25 175.2766571
v -89.15848541 4.25 175.2766571
v -89.15848541 0.4166666567 175.2766571
vn 0.9813277721 0.1919989139 -0.01149993483
vn 0.9803558588 -0.1918087602 -0.04595418274
vn -0.9803558588 0.1918087602 -0.04595418274
vn -0.9813277721 -0.1919989139 -0.01149993483
vn -0.9803558588 -0.1918087602 0.04595418274
vn -0.9813277721 0.1919989139 0.01149993483
vn 0.9803558588 0.1918087602 0.04595418274
vn 0.9813277721 -0.1919989139 0.01149993483
f 1//1 2//2 3//3 
f 3//3 2//2 4//4 
f 5//5 6//6 4//4 
f 4//4 6//6 3//3 
f 7//7 1//1 6//6 
f 6//6 1//1 3//3 
f 2//2 8//8 4//4 
f 4//4 8//8 5//5 
f 2//2 1//1 8//8 
f 8//8 1//1 7//7 
f 8//8 7//7 5//5 
f 5//5 7//7 6//6 
