v -89.90848541 -3.583333254 27.8699131
v -89.90848541 0.4166666567 27.8699131
v -89.15848541 -3.583333254 27.43690109
v -89.15848541 0.4166666567 27.43690109
v -89.90848541 -3.583333254 111.6933212
v -89.90848541 0.4166666567 111.6933212
v -89.15848541 -3.583333254 111.6933212
v -89.15848541 0.4166666567 111.6933212
vn -0.982862711 -0.1842867732 -0.004385696258
vn -0.9370832443 0.3487111628 -0.01659740694
vn 0.9823704958 -0.1861073673 -0.01767056994
vn 0.9956020117 0.09357815236 -0.004442540929
vn -0.9827201962 -0.1842600405 0.01758554392
vn -0.9956243634 0.09333978593 0.004454115406
vn 0.982948482 -0.183829248 0.004374808166
vn 0.9364953637 0.3502833545 0.01667223871
f 1//1 2//2 3//3 
f 3//3 2//2 4//4 
f 5//5 6//6 1//1 
f 1//1 6//6 2//2 
f 5//5 1//1 7//7 
f 7//7 1//1 3//3 
f 6//6 8//8 2//2 
f 2//2 8//8 4//4 
f 3//3 4//4 7//7 
f 7//7 4//4 8//8 
f 7//7 8//8 5//5 
f 5//5 8//8 6//6 
