v -89.15848541 -0.3125 125.6933212
v -89.15848541 -3.583333254 125.6933212
v -89.15848541 -0.3125 126.4433212
v -89.15848541 -3.583333254 126.4433212
v -81.62723541 -3.583333254 125.6933212
v -81.62723541 -0.3125 125.6933212
v -81.62723541 -3.583333254 126.4433212
v -81.62723541 -0.3125 126.4433212
vn -0.04940805584 0.1137644127 -0.9922784567
vn -0.1781444848 -0.4101862013 -0.8944337964
vn -0.1781444848 0.4101862013 0.8944337964
vn -0.04940805584 -0.1137644127 0.9922784567
vn 0.04940805584 -0.1137644127 -0.9922784567
vn 0.1781444848 0.4101862013 -0.8944337964
vn 0.1781444848 -0.4101862013 0.8944337964
vn 0.04940805584 0.1137644127 0.9922784567
f 1//1 2//2 3//3 
f 3//3 2//2 4//4 
f 2//2 1//1 5//5 
f 5//5 1//1 6//6 
f 5//5 7//7 2//2 
f 2//2 7//7 4//4 
f 1//1 3//3 6//6 
f 6//6 3//3 8//8 
f 7//7 8//8 4//4 
f 4//4 8//8 3//3 
f 5//5 6//6 7//7 
f 7//7 6//6 8//8 
