v -58.47820282 -0.3125 -152.4316864
v -57.94744873 -0.3125 -153.4733429
v -11.39820766 -0.3125 -152.4316864
v -11.39820766 -0.3125 -153.4733429
v -57.94744873 0.1666666716 -153.4733429
v -11.39820766 0.1666666716 -153.4733429
v -11.39820766 0.1666666716 -152.4316864
v -58.47820282 0.1666666716 -152.4316864
v -58.81723785 0.1666666716 -152.4316864
v -58.81723785 12 -152.4316864
v -58.47839737 0.1666666716 -153.0966949
v -58.47839737 12 -153.0966949
v -58.47839737 12 -152.4316864
v -58.47839737 0.1666666716 -152.4316864
vn -0.007509223185 -0.7378104925 0.6749661565
vn -0.009965884499 -0.9736676812 -0.2277541757
vn 0.009971620515 -0.9742280245 0.2253448516
vn 0.007575245108 -0.735906601 -0.6770406961
vn -0.004649326671 0.9084790945 -0.4179044664
vn 0.01870026067 0.9083300233 -0.4178358912
vn 0.004644717555 0.9075784683 0.4198567867
vn -0.01856190152 0.9118896723 0.4100155234
vn -0.8907157183 -0.02550511807 0.4538446367
vn -0.9689532518 0.01387270167 -0.2468544245
vn -0.7002610564 -0.02005155943 -0.7136052251
vn 0.8907157183 0.02550511807 -0.4538446367
vn 0.7002610564 0.02005155943 0.7136052251
vn 0.9689532518 -0.01387270167 0.2468544245
f 1//1 2//2 3//3 
f 3//3 2//2 4//4 
f 2//2 5//5 4//4 
f 4//4 5//5 6//6 
f 4//4 6//6 3//3 
f 3//3 6//6 7//7 
f 1//1 8//8 2//2 
f 2//2 8//8 5//5 
f 3//3 7//7 1//1 
f 1//1 7//7 8//8 
f 8//8 7//7 5//5 
f 5//5 7//7 6//6 
f 9//9 10//10 11//11 
f 11//11 10//10 12//12 
f 10//10 13//13 12//12 
f 14//14 9//9 11//11 
f 10//10 9//9 13//13 
f 13//13 9//9 14//14 
f 13//13 14//14 12//12 
f 12//12 14//14 11//11 
