v -68.2081604 0.1666666716 -135.6300354
v -68.2081604 -0.3125 -135.6300354
v -67.28002167 0.1666666716 -135.157135
v -67.28002167 -0.3125 -135.157135
v -58.47820282 -0.3125 -152.4316864
v -58.47820282 0.1666666716 -152.4316864
v -59.64729309 0.1666666716 -152.4316864
v -59.64729309 -0.3125 -152.4316864
vn -0.6116436124 0.7358034849 -0.2906635404
vn -0.3928978741 -0.9075242877 -0.1484280229
vn 0.191210717 0.9735819101 0.1248069853
vn 0.3714267313 -0.9062232375 0.2019942552
vn 0.3754830658 -0.9161188006 0.1404949129
vn 0.6069548726 0.740436554 0.2887203395
vn -0.1964675933 0.972192347 -0.1274463832
vn -0.3671648502 -0.908431828 -0.1998538077
f 1//1 2//2 3//3 
f 3//3 2//2 4//4 
f 5//5 6//6 4//4 
f 4//4 6//6 3//3 
f 1//1 3//3 7//7 
f 7//7 3//3 6//6 
f 2//2 8//8 4//4 
f 4//4 8//8 5//5 
f 2//2 1//1 8//8 
f 8//8 1//1 7//7 
f 8//8 7//7 5//5 
f 5//5 7//7 6//6 
