v -44.20014954 57.75 -111.3066788
v -44.20014954 51.75 -111.3066788
v -44.5647316 57.75 -111.3066788
v -44.5647316 51.75 -111.3066788
v -44.20014954 51.75 -92.60876465
v -44.20014954 57.75 -92.60876465
v -44.5647316 51.75 -92.60876465
v -44.5647316 57.75 -92.60876465
vn 0.9981117249 0.06064893678 -0.009730861522
vn 0.9974036217 -0.0606059134 -0.03889583424
vn -0.9974036217 0.0606059134 -0.03889583424
vn -0.9981117249 -0.06064893678 -0.009730861522
vn 0.9981117249 -0.06064893678 0.009730861522
vn 0.9974036217 0.0606059134 0.03889583424
vn -0.9974036217 -0.0606059134 0.03889583424
vn -0.9981117249 0.06064893678 0.009730861522
f 1//1 2//2 3//3 
f 3//3 2//2 4//4 
f 2//2 1//1 5//5 
f 5//5 1//1 6//6 
f 2//2 5//5 4//4 
f 4//4 5//5 7//7 
f 6//6 1//1 8//8 
f 8//8 1//1 3//3 
f 7//7 8//8 4//4 
f 4//4 8//8 3//3 
f 5//5 6//6 7//7 
f 7//7 6//6 8//8 
