v -58.798069 18.66666603 -22.30668068
v -58.798069 9.148206711 -22.30668068
v -58.19390488 18.66666603 -22.30668068
v -58.19390488 9.148206711 -22.30668068
v -58.19390488 18.66666603 -53.16084671
v -58.19390488 9.148206711 -53.16084671
v -58.798069 9.148206711 -53.16084671
v -58.798069 18.66666603 -53.16084671
vn -0.9979439974 0.06334239244 0.00977051165
vn -0.9972302914 -0.06329708546 0.03905409575
vn 0.9972302914 0.06329708546 0.03905409575
vn 0.9979439974 -0.06334239244 0.00977051165
vn 0.9979439974 0.06334239244 -0.00977051165
vn 0.9972302914 -0.06329708546 -0.03905409575
vn -0.9979439974 -0.06334239244 -0.00977051165
vn -0.9972302914 0.06329708546 -0.03905409575
f 1//1 2//2 3//3 
f 3//3 2//2 4//4 
f 3//3 4//4 5//5 
f 5//5 4//4 6//6 
f 2//2 1//1 7//7 
f 7//7 1//1 8//8 
f 3//3 5//5 1//1 
f 1//1 5//5 8//8 
f 6//6 4//4 7//7 
f 7//7 4//4 2//2 
f 5//5 6//6 8//8 
f 8//8 6//6 7//7 
