v -73.90963745 13.8125 143.6829071
v -73.90963745 13.8125 143.6412354
v -69.95130157 13.8125 143.6829071
v -69.95130157 13.8125 143.6412354
v -69.95130157 13.85416698 143.6829071
v -69.95130157 13.85416698 143.6412354
v -73.90963745 13.85416698 143.6829071
v -73.90963745 13.85416698 143.6412354
vn -0.004707923159 -0.4472495914 0.8943967819
vn -0.009414887056 -0.8944079876 -0.4471528232
vn 0.009414887056 -0.8944079876 0.4471528232
vn 0.004707923159 -0.4472495914 -0.8943967819
vn 0.004707923159 0.4472495914 0.8943967819
vn 0.009414887056 0.8944079876 -0.4471528232
vn -0.009414887056 0.8944079876 0.4471528232
vn -0.004707923159 0.4472495914 -0.8943967819
f 1//1 2//2 3//3 
f 3//3 2//2 4//4 
f 5//5 3//3 6//6 
f 6//6 3//3 4//4 
f 7//7 1//1 5//5 
f 5//5 1//1 3//3 
f 2//2 8//8 4//4 
f 4//4 8//8 6//6 
f 8//8 2//2 7//7 
f 7//7 2//2 1//1 
f 8//8 7//7 6//6 
f 6//6 7//7 5//5 
