v -53.90963364 19.8125 143.6829071
v -53.90963364 19.8125 143.6412354
v -49.95130157 19.8125 143.6829071
v -49.95130157 19.8125 143.6412354
v -49.95130157 19.85416603 143.6829071
v -49.95130157 19.85416603 143.6412354
v -53.90963364 19.85416603 143.6829071
v -53.90963364 19.85416603 143.6412354
vn -0.004707906395 -0.4472577572 0.8943927288
vn -0.009414724074 -0.8944121003 -0.4471446574
vn 0.009414724074 -0.8944121003 0.4471446574
vn 0.004707906395 -0.4472577572 -0.8943927288
vn 0.004707906395 0.4472577572 0.8943927288
vn 0.009414724074 0.8944121003 -0.4471446574
vn -0.009414724074 0.8944121003 0.4471446574
vn -0.004707906395 0.4472577572 -0.8943927288
f 1//1 2//2 3//3 
f 3//3 2//2 4//4 
f 5//5 3//3 6//6 
f 6//6 3//3 4//4 
f 7//7 1//1 5//5 
f 5//5 1//1 3//3 
f 2//2 8//8 4//4 
f 4//4 8//8 6//6 
f 8//8 2//2 7//7 
f 7//7 2//2 1//1 
f 8//8 7//7 6//6 
f 6//6 7//7 5//5 
