v -22.03043365 19.8125 143.6829071
v -22.03043365 19.8125 143.6412354
v -25.98876572 19.8125 143.6829071
v -25.98876572 19.8125 143.6412354
v -25.98876572 19.79166603 143.6829071
v -25.98876572 19.79166603 143.6412354
v -22.03043365 19.79166603 143.6829071
v -22.03043365 19.79166603 143.6412354
vn 0.003721873974 0.7071342468 0.7070695162
vn 0.005106131546 0.9701350927 -0.2425115705
vn -0.005106131546 0.9701350927 0.2425115705
vn -0.003721873974 0.7071342468 -0.7070695162
vn -0.003721873974 -0.7071342468 0.7070695162
vn -0.005106131546 -0.9701350927 -0.2425115705
vn 0.005106131546 -0.9701350927 0.2425115705
vn 0.003721873974 -0.7071342468 -0.7070695162
f 1//1 2//2 3//3 
f 3//3 2//2 4//4 
f 5//5 3//3 6//6 
f 6//6 3//3 4//4 
f 7//7 1//1 5//5 
f 5//5 1//1 3//3 
f 2//2 8//8 4//4 
f 4//4 8//8 6//6 
f 8//8 2//2 7//7 
f 7//7 2//2 1//1 
f 8//8 7//7 6//6 
f 6//6 7//7 5//5 
