v -21.98876572 19.79166603 143.6412354
v -21.98876572 23.45833397 143.6412354
v -21.98876572 19.79166603 143.6829071
v -21.98876572 23.45833397 143.6829071
v -22.03043365 23.45833397 143.6412354
v -22.03043365 23.45833397 143.6829071
v -22.03043365 19.79166603 143.6829071
v -22.03043365 19.79166603 143.6412354
vn 0.4472405612 -0.005082432646 -0.8943992853
vn 0.894397378 0.01016391348 -0.4471577406
vn 0.894397378 -0.01016391348 0.4471577406
vn 0.4472405612 0.005082432646 0.8943992853
vn -0.4472405612 0.005082432646 -0.8943992853
vn -0.894397378 0.01016391348 0.4471577406
vn -0.4472405612 -0.005082432646 0.8943992853
vn -0.894397378 -0.01016391348 -0.4471577406
f 1//1 2//2 3//3 
f 3//3 2//2 4//4 
f 5//5 6//6 2//2 
f 2//2 6//6 4//4 
f 3//3 4//4 7//7 
f 7//7 4//4 6//6 
f 8//8 5//5 1//1 
f 1//1 5//5 2//2 
f 1//1 3//3 8//8 
f 8//8 3//3 7//7 
f 7//7 6//6 8//8 
f 8//8 6//6 5//5 
