v 51.98735046 2.354166746 -137.6504364
v 51.98735046 13.6875 -137.6504364
v 51.98735046 2.354166746 -137.6295929
v 51.98735046 13.6875 -137.6295929
v 51.94568634 13.6875 -137.6504364
v 51.94568634 13.6875 -137.6295929
v 51.94568634 2.354166746 -137.6295929
v 51.94568634 2.354166746 -137.6504364
vn 0.2426609248 -0.0008920812979 -0.970110774
vn 0.7072985172 0.002600203501 -0.706910193
vn 0.7072985172 -0.002600203501 0.706910193
vn 0.2426609248 0.0008920812979 0.970110774
vn -0.2426609248 0.0008920812979 -0.970110774
vn -0.7072985172 0.002600203501 0.706910193
vn -0.2426609248 -0.0008920812979 0.970110774
vn -0.7072985172 -0.002600203501 -0.706910193
f 1//1 2//2 3//3 
f 3//3 2//2 4//4 
f 5//5 6//6 2//2 
f 2//2 6//6 4//4 
f 3//3 4//4 7//7 
f 7//7 4//4 6//6 
f 8//8 5//5 1//1 
f 1//1 5//5 2//2 
f 1//1 3//3 8//8 
f 8//8 3//3 7//7 
f 7//7 6//6 8//8 
f 8//8 6//6 5//5 
