v 51.94568634 13.66666698 -129.6504364
v 51.94568634 13.66666698 -133.6087646
v 51.98735046 13.66666698 -129.6504364
v 51.98735046 13.66666698 -133.6087646
v 51.98735046 13.70833302 -133.6087646
v 51.94568634 13.70833302 -133.6087646
v 51.98735046 13.70833302 -129.6504364
v 51.94568634 13.70833302 -129.6504364
vn -0.707044661 -0.7070122957 0.01488426048
vn -0.707118094 -0.7070857286 -0.00372145162
vn 0.707118094 -0.7070857286 0.00372145162
vn 0.707044661 -0.7070122957 -0.01488426048
vn 0.707118094 0.7070857286 -0.00372145162
vn -0.707044661 0.7070122957 -0.01488426048
vn 0.707044661 0.7070122957 0.01488426048
vn -0.707118094 0.7070857286 0.00372145162
f 1//1 2//2 3//3 
f 3//3 2//2 4//4 
f 5//5 4//4 6//6 
f 6//6 4//4 2//2 
f 7//7 3//3 5//5 
f 5//5 3//3 4//4 
f 1//1 8//8 2//2 
f 2//2 8//8 6//6 
f 8//8 1//1 7//7 
f 7//7 1//1 3//3 
f 7//7 5//5 8//8 
f 8//8 5//5 6//6 
