v 51.94568634 2.375 -45.60876465
v 51.94568634 2.375 -41.67126465
v 51.98735046 2.375 -45.60876465
v 51.98735046 2.375 -41.67126465
v 51.98735046 2.354166746 -41.67126465
v 51.94568634 2.354166746 -41.67126465
v 51.98735046 2.354166746 -45.60876465
v 51.94568634 2.354166746 -45.60876465
vn -0.4472140372 0.894376874 -0.009464269504
vn -0.4472328126 0.8944144249 0.002366166795
vn 0.4472328126 0.8944144249 -0.002366166795
vn 0.4472140372 0.894376874 0.009464269504
vn 0.4472328126 -0.8944144249 0.002366166795
vn -0.4472140372 -0.894376874 0.009464269504
vn 0.4472140372 -0.894376874 -0.009464269504
vn -0.4472328126 -0.8944144249 -0.002366166795
f 1//1 2//2 3//3 
f 3//3 2//2 4//4 
f 5//5 4//4 6//6 
f 6//6 4//4 2//2 
f 7//7 3//3 5//5 
f 5//5 3//3 4//4 
f 1//1 8//8 2//2 
f 2//2 8//8 6//6 
f 8//8 1//1 7//7 
f 7//7 1//1 3//3 
f 7//7 5//5 8//8 
f 8//8 5//5 6//6 
