v 51.94568634 13.66666698 -141.6504364
v 51.94568634 24.66666603 -141.6504364
v 51.98735046 13.66666698 -141.6504364
v 51.98735046 24.66666603 -141.6504364
v 51.98735046 24.66666603 -141.6087646
v 51.94568634 24.66666603 -141.6087646
v 51.98735046 13.66666698 -141.6087646
v 51.94568634 13.66666698 -141.6087646
vn -0.8944548368 -0.003387879813 -0.4471455216
vn -0.4472784698 0.001694133389 -0.894393146
vn 0.4472784698 -0.001694133389 -0.894393146
vn 0.8944548368 0.003387879813 -0.4471455216
vn 0.4472784698 0.001694133389 0.894393146
vn -0.8944548368 0.003387879813 0.4471455216
vn 0.8944548368 -0.003387879813 0.4471455216
vn -0.4472784698 -0.001694133389 0.894393146
f 1//1 2//2 3//3 
f 3//3 2//2 4//4 
f 5//5 4//4 6//6 
f 6//6 4//4 2//2 
f 3//3 4//4 7//7 
f 7//7 4//4 5//5 
f 8//8 6//6 1//1 
f 1//1 6//6 2//2 
f 8//8 1//1 7//7 
f 7//7 1//1 3//3 
f 7//7 5//5 8//8 
f 8//8 5//5 6//6 
