v -80.60636139 32.75 -95.37425232
v -80.60636139 24.75 -95.37425232
v -80.53793335 32.75 -95.17551422
v -80.53793335 24.75 -95.17551422
v -80.51177216 24.75 -95.09820557
v -80.51177216 32.75 -95.09820557
v -80.51625824 24.75 -95.12528229
v -80.51625824 32.75 -95.12528229
v -80.5250473 32.75 -95.15128326
v -80.5250473 24.75 -95.15128326
v -80.11390686 24.75 -95.54382324
v -80.01890564 24.75 -95.26791382
v -80.01890564 32.75 -95.26791382
v -80.11390686 32.75 -95.54382324
vn -0.505923152 0.03074023314 -0.8620306253
vn -0.8461874127 -0.04877029359 -0.5306489468
vn -0.9417965412 0.03440405428 0.3344183564
vn -0.9328712225 -0.05813486874 0.3554878235
vn 0.3008147776 -0.001698252279 0.9536810517
vn 0.2243896574 0.003424089868 0.9744935036
vn -0.9696116447 -0.03230175376 0.2425074428
vn -0.9680976272 0.06450263411 0.2421287745
vn -0.9177006483 0.03191693127 0.3959884048
vn -0.9163016081 -0.06373654306 0.3953846991
vn -0.05844427273 -0.01755921729 -0.9981362224
vn 0.9209811687 -0.04842701182 0.386585772
vn 0.5680276752 0.03502304107 0.8222638965
vn 0.4885293841 0.02427999303 -0.872209549
f 1//1 2//2 3//3 
f 3//3 2//2 4//4 
f 5//5 6//6 7//7 
f 7//7 6//6 8//8 
f 7//7 8//8 9//9 
f 3//3 4//4 9//9 
f 9//9 4//4 10//10 
f 9//9 10//10 7//7 
f 11//11 12//12 2//2 
f 2//2 12//12 4//4 
f 4//4 12//12 10//10 
f 10//10 12//12 7//7 
f 7//7 12//12 5//5 
f 6//6 5//5 13//13 
f 13//13 5//5 12//12 
f 14//14 11//11 1//1 
f 1//1 11//11 2//2 
f 14//14 1//1 13//13 
f 13//13 1//1 3//3 
f 13//13 3//3 9//9 
f 9//9 8//8 13//13 
f 13//13 8//8 6//6 
f 13//13 12//12 14//14 
f 14//14 12//12 11//11 
