v -81.92478943 32.45819855 -99.4593811
v -81.92478943 25.04166603 -99.4593811
v -81.84600067 32.45819855 -99.48651123
v -81.84600067 25.04166603 -99.48651123
v -82.95825958 25.04166603 -102.7167816
v -82.95825958 32.45819855 -102.7167816
v -83.03705597 32.45819855 -102.6896515
v -83.03705597 25.04166603 -102.6896515
vn -0.9414191246 0.0112345051 0.3370516002
vn -0.9282993078 -0.02243976668 0.3711560667
vn 0.9601989985 0.01122150663 -0.2790913582
vn 0.9494045377 -0.005617275368 -0.3140055835
vn 0.928298533 -0.02243974805 -0.371157974
vn 0.9414194822 0.01123450976 -0.3370505869
vn -0.9601995945 0.0112224929 0.2790893018
vn -0.94940418 -0.005617763847 0.3140065968
f 1//1 2//2 3//3 
f 3//3 2//2 4//4 
f 5//5 6//6 4//4 
f 4//4 6//6 3//3 
f 7//7 1//1 6//6 
f 6//6 1//1 3//3 
f 8//8 5//5 2//2 
f 2//2 5//5 4//4 
f 2//2 1//1 8//8 
f 8//8 1//1 7//7 
f 8//8 7//7 5//5 
f 5//5 7//7 6//6 
