v -25.7834816 9.369918823 -122.1816788
v -25.7834816 9.036585808 -122.1816788
v -26.70014954 9.369918823 -122.1816788
v -26.70014954 9.036585808 -122.1816788
v -26.70014954 9.369918823 -118.8483505
v -26.70014954 9.036585808 -118.8483505
v -21.6584816 9.369918823 -118.8483505
v -21.6584816 9.036585808 -118.8483505
v -21.6584816 9.369918823 -126.5983505
v -21.6584816 9.036585808 -126.5983505
v -25.7834816 9.036585808 -123.3900146
v -25.7834816 9.036585808 -126.5983505
v -25.7834816 9.369918823 -126.5983505
v -25.7834816 9.369918823 -123.3900146
vn -0.01417715196 0.9998850226 -0.005377536174
vn -0.007088802755 -0.9999170303 -0.01075541694
vn -0.3358611166 0.923620224 -0.1847241521
vn -0.5862566829 -0.8061048388 -0.08061052859
vn -0.1108030379 0.9903035164 0.08379495144
vn -0.05507596955 -0.9844843149 0.1666051
vn 0.05276609212 0.9962441921 0.06865267456
vn 0.1052788794 -0.993852973 0.03424394503
vn 0.1023679078 0.9943735003 -0.02724307217
vn 0.05132871866 -0.9971859455 -0.05464025214
vn -0.1023751423 -0.9947458506 0
vn -0.1587131768 -0.9820387363 -0.1020298153
vn -0.07887152582 0.9760360718 -0.2028123438
vn -0.1381700486 0.9904085398 0
f 1//1 2//2 3//3 
f 3//3 2//2 4//4 
f 3//3 4//4 5//5 
f 5//5 4//4 6//6 
f 5//5 6//6 7//7 
f 7//7 6//6 8//8 
f 7//7 8//8 9//9 
f 9//9 8//8 10//10 
f 4//4 2//2 6//6 
f 6//6 2//2 8//8 
f 8//8 2//2 10//10 
f 10//10 2//2 11//11 
f 10//10 11//11 12//12 
f 9//9 10//10 13//13 
f 13//13 10//10 12//12 
f 14//14 11//11 1//1 
f 1//1 11//11 2//2 
f 3//3 5//5 1//1 
f 1//1 5//5 7//7 
f 1//1 7//7 9//9 
f 13//13 14//14 9//9 
f 9//9 14//14 1//1 
f 13//13 12//12 14//14 
f 14//14 12//12 11//11 
