v -56.579319 7.1875 -21.70251465
v -56.579319 0.1666666716 -21.70251465
v -56.579319 7.1875 -22.30668068
v -56.579319 0.1666666716 -22.30668068
v -53.53765488 7.1875 -21.70251465
v -53.53765488 7.1875 -22.30668068
v -79.02428436 0.1666666716 -21.70251465
v -79.02428436 18.66666603 -21.70251465
v -78.78018951 0.1666666716 -22.30668068
v -78.78018951 18.66666603 -22.30668068
v -52.860569 18.66666603 -22.30668068
v -52.860569 0.1666666716 -22.30668068
v -53.53765488 0.1666666716 -22.30668068
v -52.860569 18.66666603 -21.70251465
v -52.860569 0.1666666716 -21.70251465
v -53.53765488 0.1666666716 -21.70251465
vn 0.004671121482 -0.002023688983 0.9999870658
vn 0.05298902467 -0.1684799492 0.9842797518
vn 0.009435716085 -0.004087873735 -0.9999471307
vn 0.02710345387 -0.08570496738 -0.9959518313
vn -0.1600416601 -0.06933549792 0.9846721292
vn -0.08094961196 -0.03507012874 -0.9961010218
vn -0.01965821162 -0.02385015599 0.9995222688
vn -0.03161525354 0.0223560147 0.9992500544
vn -0.03876342624 -0.04677366465 -0.9981530905
vn -0.01566405036 0.0440992415 -0.9989043474
vn 0.06459698826 0.04525214806 -0.9968848825
vn 0.5430079103 -0.01987367682 -0.8394923806
vn -0.8693056107 -0.08383543044 -0.4871132672
vn 0.03199125454 0.09006547183 0.9954218864
vn 0.7908483744 -0.02894444764 0.6113272905
vn -0.6644176841 -0.06407612562 0.7446095943
f 1//1 2//2 3//3 
f 3//3 2//2 4//4 
f 1//1 3//3 5//5 
f 5//5 3//3 6//6 
f 7//7 8//8 9//9 
f 9//9 8//8 10//10 
f 7//7 9//9 2//2 
f 2//2 9//9 4//4 
f 9//9 10//10 3//3 
f 3//3 10//10 11//11 
f 3//3 11//11 6//6 
f 6//6 11//11 12//12 
f 6//6 12//12 13//13 
f 3//3 4//4 9//9 
f 8//8 14//14 10//10 
f 10//10 14//14 11//11 
f 12//12 15//15 13//13 
f 13//13 15//15 16//16 
f 8//8 1//1 14//14 
f 14//14 1//1 5//5 
f 14//14 5//5 15//15 
f 15//15 5//5 16//16 
f 8//8 7//7 1//1 
f 1//1 7//7 2//2 
f 14//14 15//15 11//11 
f 11//11 15//15 12//12 
f 6//6 13//13 5//5 
f 5//5 13//13 16//16 
