v 52.03422546 1.520833373 134.0995636
v 52.03422546 16.26041603 134.0995636
v 52.0290184 1.520833373 134.0995636
v 52.0290184 16.26041603 134.0995636
v 52.0290184 1.520833373 134.0214386
v 52.0290184 16.26041603 134.0214386
v 51.61756134 1.520833373 134.0214386
v 51.61756134 16.26041603 134.0214386
v 52.03422546 16.26041603 134.0162354
v 51.61756134 16.26041603 134.0162354
v 51.61756134 1.520833373 134.0162354
v 52.03422546 1.520833373 134.0162354
vn 0.9995121956 -0.0003420740832 0.03122903593
vn 0.9922804236 0.0006791981868 0.1240123436
vn -0.9912320375 -0.0003501731844 0.1321320087
vn -0.9994451404 0.0001765373163 0.0333067067
vn -0.355011791 -0.0007938024355 0.9348614812
vn -0.09451203048 0.0004226556921 0.9955236316
vn -0.006322826259 -0.0001765023917 0.9999799728
vn -0.02528372407 0.0003528989619 0.9996802807
vn 0.3713730574 0.000393363327 -0.928483665
vn -0.006243812386 0.0003507991787 -0.9999804497
vn -0.02496794611 -0.0007013931754 -0.9996880293
vn 0.09949830174 -0.0002107798646 -0.9950377345
f 1//1 2//2 3//3 
f 3//3 2//2 4//4 
f 3//3 4//4 5//5 
f 5//5 4//4 6//6 
f 5//5 6//6 7//7 
f 7//7 6//6 8//8 
f 2//2 9//9 6//6 
f 6//6 9//9 10//10 
f 6//6 10//10 8//8 
f 6//6 4//4 2//2 
f 7//7 8//8 11//11 
f 11//11 8//8 10//10 
f 12//12 9//9 1//1 
f 1//1 9//9 2//2 
f 11//11 12//12 5//5 
f 5//5 12//12 1//1 
f 5//5 1//1 3//3 
f 5//5 7//7 11//11 
f 11//11 10//10 12//12 
f 12//12 10//10 9//9 
