v -77.96432495 13.8671875 143.7948761
v -77.96432495 19.78385353 143.7948761
v -77.96432495 13.8671875 143.7323761
v -77.96432495 19.78385353 143.7323761
v -80.36681366 19.78385353 143.7948761
v -81.89661407 13.8671875 143.7948761
v -81.89661407 24.71614647 143.7948761
v -80.36681366 24.71614647 143.7948761
v -81.89661407 24.71614647 143.7323761
v -81.89661407 13.8671875 143.7323761
v -81.90963745 24.71614647 143.7323761
v -81.90963745 13.8671875 143.7323761
v -81.90963745 24.71614647 143.7948761
v -81.90963745 13.8671875 143.7948761
v -81.90918732 24.71614647 143.7982483
v -81.90789032 24.71614647 143.8013916
v -81.90582275 24.71614647 143.8040924
v -80.36681366 24.71614647 143.8079071
v -81.89661407 24.71614647 143.8079071
v -81.90312195 24.71614647 143.8061523
v -81.89998627 24.71614647 143.8074646
v -80.36681366 19.78385353 143.8079071
v -81.89661407 13.8671875 143.8079071
v -81.89998627 13.8671875 143.8074646
v -81.90312195 13.8671875 143.8061523
v -81.90582275 13.8671875 143.8040924
v -81.90789032 13.8671875 143.8013916
v -81.90918732 13.8671875 143.7982483
v -77.96432495 13.8671875 143.8079071
v -77.96432495 19.78385353 143.8079071
v -77.95304871 19.78385353 143.8013916
v -77.95511627 19.78385353 143.8040924
v -77.95780945 19.78385353 143.8061523
v -77.96095276 19.78385353 143.8074646
v -77.95174408 19.78385353 143.7982483
v -77.95130157 19.78385353 143.7948761
v -77.95130157 19.78385353 143.7323761
v -77.96095276 13.8671875 143.8074646
v -77.95780945 13.8671875 143.8061523
v -77.95511627 13.8671875 143.8040924
v -77.95304871 13.8671875 143.8013916
v -77.95174408 13.8671875 143.7982483
v -77.95130157 13.8671875 143.7948761
v -77.95130157 13.8671875 143.7323761
v -81.96432495 24.71614647 143.7323761
v -81.96432495 13.8671875 143.7323761
v -81.96432495 24.71614647 143.7948761
v -81.96432495 13.8671875 143.7948761
v -82.26839447 24.71614647 143.7948761
v -82.26839447 13.8671875 143.7948761
v -82.59899139 24.71614647 139.8925171
v -82.59899139 13.8671875 139.8925171
v -82.21577454 24.71614647 139.8925171
v -82.21577454 13.8671875 139.8925171
v -82.21577454 24.71614647 139.8794861
v -82.21577454 13.8671875 139.8794861
v -82.60170746 24.71614647 139.8794861
v -82.60170746 13.8671875 139.8794861
v -82.61211395 13.8671875 139.8904266
v -82.61211395 24.71614647 139.8904266
v -82.61195374 13.8671875 139.8880157
v -82.61195374 24.71614647 139.8880157
v -82.6112442 13.8671875 139.8857269
v -82.6112442 24.71614647 139.8857269
v -82.61003113 13.8671875 139.8836517
v -82.61003113 24.71614647 139.8836517
v -82.60837555 13.8671875 139.881897
v -82.60837555 24.71614647 139.881897
v -82.60636139 13.8671875 139.8805847
v -82.60636139 24.71614647 139.8805847
v -82.60409546 13.8671875 139.8797607
v -82.60409546 24.71614647 139.8797607
v -82.28045654 24.71614647 143.8079071
v -82.28045654 13.8671875 143.8079071
v -81.96432495 24.71614647 143.8079071
v -81.96432495 13.8671875 143.8079071
v -81.95130157 13.8671875 143.7948761
v -81.95304871 13.8671875 143.8013916
v -81.95130157 13.8671875 143.7323761
v -81.95511627 13.8671875 143.8040924
v -81.95780945 13.8671875 143.8061523
v -81.95174408 13.8671875 143.7982483
v -81.96095276 13.8671875 143.8074646
v -81.95130157 24.71614647 143.7948761
v -81.95174408 24.71614647 143.7982483
v -81.95304871 24.71614647 143.8013916
v -81.95511627 24.71614647 143.8040924
v -81.95780945 24.71614647 143.8061523
v -81.96095276 24.71614647 143.8074646
v -81.95130157 24.71614647 143.7323761
v -77.96432495 13.79947948 143.7323761
v -77.96432495 0.2005208284 143.7323761
v -77.96432495 13.79947948 143.7948761
v -77.96432495 0.2005208284 143.7948761
v -77.95130157 13.79947948 143.7323761
v -77.95130157 0.2005208284 143.7323761
v -77.95130157 0.2005208284 143.7948761
v -77.95130157 13.79947948 143.7948761
v -77.95174408 0.2005208284 143.7982483
v -77.95174408 13.79947948 143.7982483
v -77.95304871 0.2005208284 143.8013916
v -77.95304871 13.79947948 143.8013916
v -77.95511627 0.2005208284 143.8040924
v -77.95511627 13.79947948 143.8040924
v -77.95780945 0.2005208284 143.8061523
v -77.95780945 13.79947948 143.8061523
v -77.96095276 0.2005208284 143.8074646
v -77.96095276 13.79947948 143.8074646
v -77.96432495 0.2005208284 143.8079071
v -77.96432495 13.79947948 143.8079071
v -81.89661407 0.2005208284 143.8079071
v -81.89661407 13.79947948 143.8079071
v -81.89998627 0.2005208284 143.8074646
v -81.89998627 13.79947948 143.8074646
v -81.90312195 0.2005208284 143.8061523
v -81.90312195 13.79947948 143.8061523
v -81.90582275 0.2005208284 143.8040924
v -81.90582275 13.79947948 143.8040924
v -81.90789032 0.2005208284 143.8013916
v -81.90789032 13.79947948 143.8013916
v -81.90918732 0.2005208284 143.7982483
v -81.90918732 13.79947948 143.7982483
v -81.90963745 0.2005208284 143.7948761
v -81.90963745 13.79947948 143.7948761
v -81.89661407 13.79947948 143.7948761
v -81.90963745 13.79947948 143.7323761
v -81.89661407 13.79947948 143.7323761
v -81.90963745 0.2005208284 143.7323761
v -81.89661407 0.2005208284 143.7948761
v -81.89661407 0.2005208284 143.7323761
v -81.96432495 13.79947948 143.7323761
v -81.96432495 0.2005208284 143.7323761
v -81.96432495 13.79947948 143.7948761
v -81.96432495 0.2005208284 143.7948761
v -81.95130157 0.2005208284 143.7948761
v -81.95130157 13.79947948 143.7948761
v -81.95174408 0.2005208284 143.7982483
v -81.95174408 13.79947948 143.7982483
v -81.95304871 0.2005208284 143.8013916
v -81.95304871 13.79947948 143.8013916
v -81.95511627 0.2005208284 143.8040924
v -81.95511627 13.79947948 143.8040924
v -81.95780945 0.2005208284 143.8061523
v -81.95780945 13.79947948 143.8061523
v -81.96095276 0.2005208284 143.8074646
v -81.96095276 13.79947948 143.8074646
v -81.96432495 0.2005208284 143.8079071
v -81.96432495 13.79947948 143.8079071
v -81.95130157 13.79947948 143.7323761
v -81.95130157 0.2005208284 143.7323761
v -82.61211395 13.79947948 139.8904266
v -82.61211395 0.2005208284 139.8904266
v -82.28045654 13.79947948 143.8079071
v -82.28045654 0.2005208284 143.8079071
v -82.26839447 13.79947948 143.7948761
v -82.59899139 13.79947948 139.8925171
v -82.60837555 13.79947948 139.881897
v -82.61003113 13.79947948 139.8836517
v -82.21577454 13.79947948 139.8925171
v -82.21577454 13.79947948 139.8794861
v -82.60170746 13.79947948 139.8794861
v -82.60409546 13.79947948 139.8797607
v -82.60636139 13.79947948 139.8805847
v -82.6112442 13.79947948 139.8857269
v -82.61195374 13.79947948 139.8880157
v -82.61195374 0.2005208284 139.8880157
v -82.6112442 0.2005208284 139.8857269
v -82.61003113 0.2005208284 139.8836517
v -82.60837555 0.2005208284 139.881897
v -82.60636139 0.2005208284 139.8805847
v -82.60409546 0.2005208284 139.8797607
v -82.60170746 0.2005208284 139.8794861
v -82.26839447 0.2005208284 143.7948761
v -82.59899139 0.2005208284 139.8925171
v -82.21577454 0.2005208284 139.8794861
v -82.21577454 0.2005208284 139.8925171
vn -0.009865690023 -0.000376663229 -0.9999512434
vn -0.05195906386 0.0011630808 -0.9986485243
vn -0.9946139455 -0.002189278835 -0.1036258563
vn -0.923042655 0.004063481465 -0.384676218
vn 0.001042999444 0.0007644422003 -0.9999991655
vn 0.03400002047 -0.0007089615101 -0.9994215965
vn 0.02807505243 0.000483740645 -0.9996057153
vn 0.01703356951 0.004531562794 -0.9998446703
vn 0.9946161509 0.0005969817284 -0.1036260873
vn 0.9230496883 -0.00110805314 -0.3846791387
vn -0.9230479598 0.002216102323 -0.3846784532
vn -0.9946156144 -0.001193962758 -0.1036260277
vn -0.9999936819 0.000615976227 0.003506455803
vn -0.999914825 -0.001141868532 0.0130002154
vn -0.9761867523 0.0007991106249 0.2169303894
vn -0.8803843856 0.1280965507 0.4566340148
vn -0.7111414075 0.2642058432 0.6515160799
vn 0.008517749608 0.003431148594 0.9999578595
vn -0.0003965022042 0.0002414762712 0.9999998808
vn -0.5368267298 0.0001066145196 0.8436925411
vn -0.3030791879 2.766852958e-05 0.9529653788
vn 0.002085995628 0.000764716533 0.9999975562
vn -0.0001203206266 -0.0003465303744 0.9999999404
vn -0.2170900851 -2.766326907e-05 0.9761515856
vn -0.4585350156 -0.1358173192 0.8782364726
vn -0.6378856301 -0.3242703378 0.6985346675
vn -0.825828433 -0.2058930099 0.5249909163
vn -0.9007034898 -0.3288624883 0.283870995
vn 0.0001395579311 -0.0001839855395 1
vn 0.0001839278266 0.0006446578191 0.9999997616
vn 0.6284917593 0.6670204401 0.4001023471
vn 0.6529880762 0.253700763 0.7136122584
vn 0.4625145197 0.0001957419299 0.8866117001
vn 0.2169304639 5.063048957e-05 0.9761870503
vn 0.9535360932 0.001466017682 0.3012752235
vn 0.999909997 0.004080316518 0.01277981047
vn 0.9946157336 0.001094641397 -0.1036260426
vn 0.3026442528 -5.060465628e-05 0.9531036019
vn 0.479893893 -0.4493077695 0.7535412312
vn 0.7037765384 -0.2998321652 0.644049108
vn 0.7024927139 -0.6106315255 0.3655585945
vn 0.8177284002 -0.5463770628 0.1810864657
vn 0.9999916553 -0.002201115945 0.0034470174
vn 0.9230483174 -0.002031753305 -0.3846786022
vn -0.9230485559 0.001922207302 -0.3846786916
vn -0.9946157932 -0.001035621506 -0.1036260501
vn -0.3802160621 0.001182332868 -0.9248969555
vn -0.1022340432 -0.0006358209648 -0.9947601557
vn 0.9722635746 0.001365515054 -0.2338838577
vn 0.9924383759 -0.0006969250389 -0.1227417067
vn 0.999365449 0.001325835357 -0.03559393063
vn 0.9938174486 -0.002636949765 0.1109949723
vn 0.01699966937 0.0006004779134 0.9998553395
vn 0.06785173714 -0.001198360696 0.9976946712
vn 0.06737625599 0.002388359746 -0.9977247715
vn 0.01688005775 -0.001196731697 -0.9998568296
vn -0.0003547391389 0.0006025057519 -0.9999997616
vn -0.001405945513 -0.001193962293 -0.9999982715
vn -0.9964391589 -0.0005958736292 0.08431310952
vn -0.9964502454 0.001190661802 0.08417525887
vn -0.9896715283 -1.724104004e-05 -0.1433537006
vn -0.9754040837 1.728929965e-05 -0.2204242796
vn -0.9298674464 -6.750949251e-05 -0.3678947985
vn -0.8990651369 6.743867561e-05 -0.4378148913
vn -0.8226128221 -0.000147120867 -0.5686019063
vn -0.7770223618 0.0001469407289 -0.6294730306
vn -0.6711899042 -0.002065902576 -0.7412825227
vn -0.6103258729 0.002068385249 -0.792147696
vn -0.4804896712 -0.0008581152651 -0.8769999743
vn -0.4120417833 0.0008572540246 -0.9111645222
vn -0.2676985562 -0.0008338948828 -0.9635023475
vn -0.1914103478 0.0008347544353 -0.9815097451
vn -0.9922759533 0.001239885576 0.1240441501
vn -0.9710339904 -0.002426685998 0.2389290035
vn 0.0006961608306 0.001178335398 0.9999990463
vn 0.002741003176 -0.00231973757 0.9999935627
vn 0.9999940395 -8.056522347e-05 0.003447025781
vn 0.8870788217 -0.002276097191 0.4616123438
vn 0.9230486155 -0.001896674861 -0.3846786916
vn 0.7377142906 -0.002945953747 0.6751066446
vn 0.5371254683 -0.01263730414 0.8434076905
vn 0.976346314 -2.738254625e-05 0.2162124962
vn 0.3026411831 -0.004503669683 0.953093946
vn 0.9999183416 0.0001493485906 0.01277991664
vn 0.9535371065 2.737655632e-05 0.3012755513
vn 0.8435662389 0.002276538638 0.5370203257
vn 0.6750717163 0.002949096728 0.7377461791
vn 0.4624777138 0.01261772588 0.8865411282
vn 0.2169282585 0.004505969118 0.976177156
vn 0.9946157932 0.001021865406 -0.1036260501
vn -0.9230487943 0.001767960726 -0.384678781
vn -0.9946158528 -0.0009525183123 -0.1036260575
vn -0.03177204728 0.0005133181112 -0.9994950294
vn -0.007946774364 -0.0001320042793 -0.9999684095
vn 0.9946162105 0.0004762593016 -0.1036260873
vn 0.9230498672 -0.0008839813527 -0.3846792281
vn 0.9999936223 -0.0009576684097 0.003447024152
vn 0.9999167323 0.001775285462 0.01277989708
vn 0.9392463565 -0.273045063 0.2079966962
vn 0.9187569022 0.2676181197 0.290286541
vn 0.8410148025 -0.3180624843 0.4376418293
vn 0.8319393396 0.1654725075 0.5296185017
vn 0.7309155464 -0.1354821473 0.668884933
vn 0.6511136293 0.2640606165 0.711563766
vn 0.5247524977 -0.2137590945 0.8239793181
vn 0.4597766995 0.108645536 0.8813634515
vn 0.3026442528 -2.201718962e-05 0.9531036019
vn 0.2169304639 2.202842916e-05 0.9761870503
vn 0.0002246768709 -0.0001288721105 0.9999999404
vn 5.624144251e-05 0.0001292230445 1
vn -5.624144251e-05 -0.0001292230736 1
vn -0.0002246768709 0.0001288721687 0.9999999404
vn -0.2170900851 -2.206916542e-05 0.9761515856
vn -0.3030791879 2.207336183e-05 0.9529653788
vn -0.4600802958 -0.1087173074 0.8811961412
vn -0.5244339705 0.213629365 0.8242157102
vn -0.6504391432 -0.263787061 0.7122817636
vn -0.7305502892 0.1354144365 0.669297576
vn -0.8322665691 -0.1655375957 0.5290837884
vn -0.841539979 0.3182611167 0.4364863634
vn -0.9189502597 -0.2676744461 0.2896217704
vn -0.9391046166 0.2730038464 0.2086899132
vn -0.9999150634 -0.0009109585662 0.0130002182
vn -0.9999937415 0.0004914127057 0.003506456036
vn 0.007946774364 0.0001396147127 -0.9999684095
vn -0.9230487943 0.001767960726 -0.384678781
vn 0.9946162105 0.0004762593016 -0.1036260873
vn -0.9946158528 -0.0009525183123 -0.1036260575
vn 0.03177204728 -0.0005285317311 -0.9994950294
vn 0.9230498672 -0.0008839813527 -0.3846792281
vn -0.9230491519 0.001533497008 -0.38467893
vn -0.994615972 -0.0008261968615 -0.103626065
vn -0.3802161515 0.0009432401857 -0.9248971939
vn -0.1022340506 -0.0005072444328 -0.9947602153
vn 0.9999940395 -6.427321932e-05 0.003447025781
vn 0.9999183416 0.0001191471165 0.01277991664
vn 0.976346314 -2.184521145e-05 0.2162124962
vn 0.9535371065 2.184043296e-05 0.3012755513
vn 0.8870796561 -0.001815823489 0.461612761
vn 0.8435670137 0.001816175762 0.5370208025
vn 0.7377154231 -0.002350222785 0.6751077175
vn 0.6750727892 0.002352730138 0.7377473712
vn 0.5371410847 -0.0100820642 0.843432188
vn 0.4624910951 0.01006644405 0.8865667582
vn 0.3026423156 -0.003592944937 0.9530974627
vn 0.2169290632 0.003594779177 0.9761807323
vn 0.002741005737 -0.001850638888 0.9999945164
vn 0.0006961610052 0.0009400510462 0.9999993443
vn 0.994615972 0.0008152225637 -0.103626065
vn 0.9230492115 -0.001513127703 -0.3846789598
vn -0.9964504838 0.0009498848231 0.08417528123
vn -0.9964392185 -0.0004753753019 0.08431311697
vn -0.9922761917 0.0009891545633 0.1240441874
vn -0.9710350633 -0.001935960376 0.2389292568
vn 0.9722639322 0.001089379191 -0.2338839471
vn 0.999365747 0.001057723421 -0.03559394181
vn -0.6103263497 0.001650114777 -0.7921483517
vn -0.7770223618 0.0001172261764 -0.6294730306
vn 0.01699967124 0.0004790484963 0.9998553991
vn 0.06737632304 0.001905384357 -0.9977257848
vn -0.000354739168 0.0004806662619 -0.9999998212
vn -0.1914103776 0.0006659493665 -0.9815098643
vn -0.4120418429 0.0006838990375 -0.911164701
vn -0.8990651369 5.380113362e-05 -0.4378148913
vn -0.9754040837 1.379303467e-05 -0.2204242796
vn -0.9896715283 -1.375453485e-05 -0.1433537006
vn -0.9298674464 -5.385763507e-05 -0.3678947985
vn -0.8226128221 -0.0001173698911 -0.5686019063
vn -0.6711904407 -0.001648134319 -0.7412831187
vn -0.4804897308 -0.0006845861208 -0.8770000935
vn -0.267698586 -0.0006652636221 -0.9635024667
vn -0.001405945863 -0.0009525179048 -0.9999985695
vn 0.9924384952 -0.0005559919518 -0.1227417216
vn 0.9938187003 -0.002103704959 0.1109951064
vn 0.01688006148 -0.0009547272348 -0.9998570681
vn 0.06785175949 -0.000956026779 0.9976949692
f 1//1 2//2 3//3 
f 3//3 2//2 4//4 
f 2//2 1//1 5//5 
f 5//5 1//1 6//6 
f 5//5 6//6 7//7 
f 7//7 8//8 5//5 
f 7//7 6//6 9//9 
f 9//9 6//6 10//10 
f 9//9 10//10 11//11 
f 11//11 10//10 12//12 
f 11//11 12//12 13//13 
f 13//13 12//12 14//14 
f 9//9 11//11 7//7 
f 7//7 11//11 13//13 
f 7//7 13//13 15//15 
f 15//15 16//16 7//7 
f 7//7 16//16 8//8 
f 8//8 16//16 17//17 
f 8//8 17//17 18//18 
f 18//18 17//17 19//19 
f 19//19 17//17 20//20 
f 19//19 20//20 21//21 
f 5//5 8//8 22//22 
f 22//22 8//8 18//18 
f 23//23 19//19 24//24 
f 24//24 19//19 21//21 
f 24//24 21//21 25//25 
f 25//25 21//21 20//20 
f 25//25 20//20 26//26 
f 26//26 20//20 17//17 
f 26//26 17//17 27//27 
f 27//27 17//17 16//16 
f 27//27 16//16 28//28 
f 28//28 16//16 15//15 
f 28//28 15//15 14//14 
f 14//14 15//15 13//13 
f 19//19 23//23 22//22 
f 22//22 23//23 29//29 
f 22//22 29//29 30//30 
f 22//22 18//18 19//19 
f 2//2 5//5 31//31 
f 31//31 5//5 22//22 
f 31//31 22//22 32//32 
f 32//32 22//22 30//30 
f 32//32 30//30 33//33 
f 33//33 30//30 34//34 
f 31//31 35//35 2//2 
f 2//2 35//35 36//36 
f 2//2 36//36 4//4 
f 4//4 36//36 37//37 
f 30//30 29//29 34//34 
f 34//34 29//29 38//38 
f 34//34 38//38 33//33 
f 33//33 38//38 39//39 
f 33//33 39//39 32//32 
f 32//32 39//39 40//40 
f 32//32 40//40 31//31 
f 31//31 40//40 41//41 
f 31//31 41//41 35//35 
f 35//35 41//41 42//42 
f 35//35 42//42 36//36 
f 36//36 42//42 43//43 
f 3//3 4//4 44//44 
f 44//44 4//4 37//37 
f 44//44 43//43 3//3 
f 3//3 43//43 1//1 
f 1//1 43//43 42//42 
f 1//1 42//42 6//6 
f 6//6 42//42 28//28 
f 6//6 28//28 14//14 
f 42//42 41//41 28//28 
f 28//28 41//41 27//27 
f 27//27 41//41 26//26 
f 26//26 41//41 40//40 
f 26//26 40//40 39//39 
f 38//38 29//29 39//39 
f 39//39 29//29 23//23 
f 39//39 23//23 25//25 
f 25//25 23//23 24//24 
f 25//25 26//26 39//39 
f 14//14 12//12 6//6 
f 6//6 12//12 10//10 
f 44//44 37//37 43//43 
f 43//43 37//37 36//36 
f 45//45 46//46 47//47 
f 47//47 46//46 48//48 
f 47//47 48//48 49//49 
f 49//49 48//48 50//50 
f 49//49 50//50 51//51 
f 51//51 50//50 52//52 
f 51//51 52//52 53//53 
f 53//53 52//52 54//54 
f 53//53 54//54 55//55 
f 55//55 54//54 56//56 
f 55//55 56//56 57//57 
f 57//57 56//56 58//58 
f 59//59 60//60 61//61 
f 61//61 60//60 62//62 
f 61//61 62//62 63//63 
f 63//63 62//62 64//64 
f 63//63 64//64 65//65 
f 65//65 64//64 66//66 
f 65//65 66//66 67//67 
f 67//67 66//66 68//68 
f 67//67 68//68 69//69 
f 69//69 68//68 70//70 
f 69//69 70//70 71//71 
f 71//71 70//70 72//72 
f 71//71 72//72 58//58 
f 58//58 72//72 57//57 
f 60//60 59//59 73//73 
f 73//73 59//59 74//74 
f 73//73 74//74 75//75 
f 75//75 74//74 76//76 
f 77//77 78//78 79//79 
f 79//79 78//78 80//80 
f 79//79 80//80 81//81 
f 77//77 82//82 78//78 
f 79//79 81//81 46//46 
f 46//46 81//81 83//83 
f 46//46 83//83 48//48 
f 48//48 83//83 76//76 
f 48//48 76//76 50//50 
f 50//50 76//76 74//74 
f 50//50 74//74 52//52 
f 52//52 74//74 59//59 
f 52//52 59//59 67//67 
f 67//67 59//59 65//65 
f 65//65 59//59 63//63 
f 63//63 59//59 61//61 
f 67//67 69//69 52//52 
f 52//52 69//69 71//71 
f 52//52 71//71 58//58 
f 58//58 56//56 52//52 
f 52//52 56//56 54//54 
f 77//77 84//84 82//82 
f 82//82 84//84 85//85 
f 82//82 85//85 78//78 
f 78//78 85//85 86//86 
f 78//78 86//86 80//80 
f 80//80 86//86 87//87 
f 80//80 87//87 81//81 
f 81//81 87//87 88//88 
f 81//81 88//88 83//83 
f 83//83 88//88 89//89 
f 83//83 89//89 76//76 
f 76//76 89//89 75//75 
f 90//90 79//79 45//45 
f 45//45 79//79 46//46 
f 45//45 88//88 90//90 
f 90//90 88//88 87//87 
f 90//90 87//87 86//86 
f 88//88 45//45 89//89 
f 89//89 45//45 47//47 
f 89//89 47//47 75//75 
f 75//75 47//47 49//49 
f 75//75 49//49 73//73 
f 73//73 49//49 51//51 
f 73//73 51//51 60//60 
f 60//60 51//51 68//68 
f 60//60 68//68 66//66 
f 53//53 55//55 51//51 
f 51//51 55//55 57//57 
f 51//51 57//57 72//72 
f 72//72 70//70 51//51 
f 51//51 70//70 68//68 
f 66//66 64//64 60//60 
f 60//60 64//64 62//62 
f 85//85 84//84 86//86 
f 86//86 84//84 90//90 
f 84//84 77//77 90//90 
f 90//90 77//77 79//79 
f 91//91 92//92 93//93 
f 93//93 92//92 94//94 
f 95//95 96//96 91//91 
f 91//91 96//96 92//92 
f 97//97 98//98 99//99 
f 99//99 98//98 100//100 
f 99//99 100//100 101//101 
f 101//101 100//100 102//102 
f 101//101 102//102 103//103 
f 103//103 102//102 104//104 
f 103//103 104//104 105//105 
f 105//105 104//104 106//106 
f 105//105 106//106 107//107 
f 107//107 106//106 108//108 
f 107//107 108//108 109//109 
f 109//109 108//108 110//110 
f 111//111 112//112 113//113 
f 113//113 112//112 114//114 
f 113//113 114//114 115//115 
f 115//115 114//114 116//116 
f 115//115 116//116 117//117 
f 117//117 116//116 118//118 
f 117//117 118//118 119//119 
f 119//119 118//118 120//120 
f 119//119 120//120 121//121 
f 121//121 120//120 122//122 
f 121//121 122//122 123//123 
f 123//123 122//122 124//124 
f 112//112 111//111 110//110 
f 110//110 111//111 109//109 
f 95//95 91//91 98//98 
f 98//98 91//91 93//93 
f 98//98 93//93 100//100 
f 100//100 93//93 122//122 
f 100//100 122//122 120//120 
f 93//93 125//125 122//122 
f 122//122 125//125 124//124 
f 124//124 125//125 126//126 
f 126//126 125//125 127//127 
f 118//118 104//104 120//120 
f 120//120 104//104 102//102 
f 120//120 102//102 100//100 
f 118//118 116//116 104//104 
f 104//104 116//116 106//106 
f 106//106 116//116 110//110 
f 106//106 110//110 108//108 
f 114//114 112//112 116//116 
f 116//116 112//112 110//110 
f 126//126 128//128 124//124 
f 124//124 128//128 123//123 
f 96//96 97//97 92//92 
f 92//92 97//97 94//94 
f 94//94 97//97 99//99 
f 94//94 99//99 129//129 
f 129//129 99//99 121//121 
f 129//129 121//121 123//123 
f 99//99 101//101 121//121 
f 121//121 101//101 119//119 
f 119//119 101//101 117//117 
f 117//117 101//101 103//103 
f 117//117 103//103 105//105 
f 107//107 109//109 105//105 
f 105//105 109//109 111//111 
f 105//105 111//111 115//115 
f 115//115 111//111 113//113 
f 115//115 117//117 105//105 
f 123//123 128//128 129//129 
f 129//129 128//128 130//130 
f 127//127 130//130 126//126 
f 126//126 130//130 128//128 
f 125//125 129//129 127//127 
f 127//127 129//129 130//130 
f 93//93 94//94 125//125 
f 125//125 94//94 129//129 
f 98//98 97//97 95//95 
f 95//95 97//97 96//96 
f 131//131 132//132 133//133 
f 133//133 132//132 134//134 
f 135//135 136//136 137//137 
f 137//137 136//136 138//138 
f 137//137 138//138 139//139 
f 139//139 138//138 140//140 
f 139//139 140//140 141//141 
f 141//141 140//140 142//142 
f 141//141 142//142 143//143 
f 143//143 142//142 144//144 
f 143//143 144//144 145//145 
f 145//145 144//144 146//146 
f 145//145 146//146 147//147 
f 147//147 146//146 148//148 
f 149//149 150//150 131//131 
f 131//131 150//150 132//132 
f 151//151 152//152 153//153 
f 153//153 152//152 154//154 
f 131//131 144//144 149//149 
f 149//149 144//144 142//142 
f 149//149 142//142 140//140 
f 144//144 131//131 146//146 
f 146//146 131//131 133//133 
f 146//146 133//133 148//148 
f 148//148 133//133 155//155 
f 148//148 155//155 153//153 
f 153//153 155//155 156//156 
f 153//153 156//156 151//151 
f 151//151 156//156 157//157 
f 151//151 157//157 158//158 
f 159//159 160//160 156//156 
f 156//156 160//160 161//161 
f 156//156 161//161 162//162 
f 162//162 163//163 156//156 
f 156//156 163//163 157//157 
f 158//158 164//164 151//151 
f 151//151 164//164 165//165 
f 138//138 136//136 140//140 
f 140//140 136//136 149//149 
f 152//152 151//151 166//166 
f 166//166 151//151 165//165 
f 166//166 165//165 167//167 
f 167//167 165//165 164//164 
f 167//167 164//164 168//168 
f 168//168 164//164 158//158 
f 168//168 158//158 169//169 
f 169//169 158//158 157//157 
f 169//169 157//157 170//170 
f 170//170 157//157 163//163 
f 170//170 163//163 171//171 
f 171//171 163//163 162//162 
f 171//171 162//162 172//172 
f 172//172 162//162 161//161 
f 153//153 154//154 148//148 
f 148//148 154//154 147//147 
f 135//135 139//139 150//150 
f 150//150 139//139 141//141 
f 150//150 141//141 143//143 
f 135//135 137//137 139//139 
f 150//150 143//143 132//132 
f 132//132 143//143 145//145 
f 132//132 145//145 134//134 
f 134//134 145//145 147//147 
f 134//134 147//147 173//173 
f 173//173 147//147 154//154 
f 173//173 154//154 174//174 
f 174//174 154//154 152//152 
f 174//174 152//152 169//169 
f 169//169 152//152 168//168 
f 168//168 152//152 167//167 
f 167//167 152//152 166//166 
f 169//169 170//170 174//174 
f 174//174 170//170 171//171 
f 174//174 171//171 172//172 
f 172//172 175//175 174//174 
f 174//174 175//175 176//176 
f 160//160 175//175 161//161 
f 161//161 175//175 172//172 
f 159//159 176//176 160//160 
f 160//160 176//176 175//175 
f 156//156 174//174 159//159 
f 159//159 174//174 176//176 
f 155//155 173//173 156//156 
f 156//156 173//173 174//174 
f 133//133 134//134 155//155 
f 155//155 134//134 173//173 
f 136//136 135//135 149//149 
f 149//149 135//135 150//150 
