v -82.14806366 13.8125 15.87948895
v -82.14806366 24.66666603 15.87948895
v -82.14806366 13.8125 15.83782196
v -82.14806366 24.66666603 15.83782196
v -82.10639954 24.66666603 15.87948895
v -82.10639954 24.66666603 15.83782196
v -82.10639954 13.8125 15.83782196
v -82.10639954 13.8125 15.87948895
vn -0.4472374916 -0.001716737985 0.8944135904
vn -0.8944342136 0.003433319274 0.4471863806
vn -0.8944342136 -0.003433319274 -0.4471863806
vn -0.4472374916 0.001716737985 -0.8944135904
vn 0.4472374916 0.001716737985 0.8944135904
vn 0.8944342136 0.003433319274 -0.4471863806
vn 0.4472374916 -0.001716737985 -0.8944135904
vn 0.8944342136 -0.003433319274 0.4471863806
f 1//1 2//2 3//3 
f 3//3 2//2 4//4 
f 5//5 6//6 2//2 
f 2//2 6//6 4//4 
f 3//3 4//4 7//7 
f 7//7 4//4 6//6 
f 8//8 5//5 1//1 
f 1//1 5//5 2//2 
f 1//1 3//3 8//8 
f 8//8 3//3 7//7 
f 7//7 6//6 8//8 
f 8//8 6//6 5//5 
