v -82.14806366 24.64583397 3.837822437
v -82.14806366 24.66666603 3.837822437
v -82.14806366 24.64583397 -0.1205109358
v -82.14806366 24.66666603 -0.1205109358
v -82.10639954 24.66666603 -0.1205109358
v -82.10639954 24.64583397 -0.1205109358
v -82.10639954 24.64583397 3.837822437
v -82.10639954 24.66666603 3.837822437
vn -0.4471937716 -0.8943875432 0.00941403117
vn -0.4472123682 0.8944247365 0.002353605581
vn -0.4472123682 -0.8944247365 -0.002353605581
vn -0.4471937716 0.8943875432 -0.00941403117
vn 0.4472123682 0.8944247365 -0.002353605581
vn 0.4471937716 -0.8943875432 -0.00941403117
vn 0.4472123682 -0.8944247365 0.002353605581
vn 0.4471937716 0.8943875432 0.00941403117
f 1//1 2//2 3//3 
f 3//3 2//2 4//4 
f 5//5 6//6 4//4 
f 4//4 6//6 3//3 
f 1//1 3//3 7//7 
f 7//7 3//3 6//6 
f 8//8 5//5 2//2 
f 2//2 5//5 4//4 
f 2//2 1//1 8//8 
f 8//8 1//1 7//7 
f 8//8 7//7 5//5 
f 5//5 7//7 6//6 
