v -82.14806366 0.1666666716 7.879488945
v -82.14806366 13.83333302 7.879488945
v -82.14806366 0.1666666716 7.85865593
v -82.14806366 13.83333302 7.85865593
v -82.10639954 13.83333302 7.879488945
v -82.10639954 13.83333302 7.85865593
v -82.10639954 0.1666666716 7.85865593
v -82.10639954 0.1666666716 7.879488945
vn -0.242546007 -0.0007394244312 0.9701396227
vn -0.7071213126 0.002155726077 0.7070889473
vn -0.7071213126 -0.002155726077 -0.7070889473
vn -0.242546007 0.0007394244312 -0.9701396227
vn 0.242546007 0.0007394244312 0.9701396227
vn 0.7071213126 0.002155726077 -0.7070889473
vn 0.242546007 -0.0007394244312 -0.9701396227
vn 0.7071213126 -0.002155726077 0.7070889473
f 1//1 2//2 3//3 
f 3//3 2//2 4//4 
f 5//5 6//6 2//2 
f 2//2 6//6 4//4 
f 3//3 4//4 7//7 
f 7//7 4//4 6//6 
f 8//8 5//5 1//1 
f 1//1 5//5 2//2 
f 1//1 3//3 8//8 
f 8//8 3//3 7//7 
f 7//7 6//6 8//8 
f 8//8 6//6 5//5 
