v -82.14806366 0.1875 3.879489183
v -82.14806366 0.1666666716 3.879489183
v -82.14806366 0.1875 7.858637333
v -82.14806366 0.1666666716 7.858637333
v -82.10639954 0.1666666716 7.858637333
v -82.10639954 0.1875 7.858637333
v -82.10639954 0.1875 3.879489183
v -82.10639954 0.1666666716 3.879489183
vn -0.4472157359 0.8943771124 -0.009365246631
vn -0.4472341239 -0.8944138885 -0.002341407817
vn -0.4472341239 0.8944138885 0.002341407817
vn -0.4472157359 -0.8943771124 0.009365246631
vn 0.4472341239 -0.8944138885 0.002341407817
vn 0.4472157359 0.8943771124 0.009365246631
vn 0.4472341239 0.8944138885 -0.002341407817
vn 0.4472157359 -0.8943771124 -0.009365246631
f 1//1 2//2 3//3 
f 3//3 2//2 4//4 
f 5//5 6//6 4//4 
f 4//4 6//6 3//3 
f 1//1 3//3 7//7 
f 7//7 3//3 6//6 
f 8//8 5//5 2//2 
f 2//2 5//5 4//4 
f 2//2 1//1 8//8 
f 8//8 1//1 7//7 
f 8//8 7//7 5//5 
f 5//5 7//7 6//6 
