v -82.14806366 0.1875 -12.12051105
v -82.14806366 0.1666666716 -12.12051105
v -82.14806366 0.1875 -8.16217804
v -82.14806366 0.1666666716 -8.16217804
v -82.10639954 0.1666666716 -8.16217804
v -82.10639954 0.1875 -8.16217804
v -82.10639954 0.1875 -12.12051105
v -82.10639954 0.1666666716 -12.12051105
vn -0.4472155273 0.8943766952 -0.009414489381
vn -0.4472340941 -0.8944138288 -0.002353720367
vn -0.4472340941 0.8944138288 0.002353720367
vn -0.4472155273 -0.8943766952 0.009414489381
vn 0.4472340941 -0.8944138288 0.002353720367
vn 0.4472155273 0.8943766952 0.009414489381
vn 0.4472340941 0.8944138288 -0.002353720367
vn 0.4472155273 -0.8943766952 -0.009414489381
f 1//1 2//2 3//3 
f 3//3 2//2 4//4 
f 5//5 6//6 4//4 
f 4//4 6//6 3//3 
f 1//1 3//3 7//7 
f 7//7 3//3 6//6 
f 8//8 5//5 2//2 
f 2//2 5//5 4//4 
f 2//2 1//1 8//8 
f 8//8 1//1 7//7 
f 8//8 7//7 5//5 
f 5//5 7//7 6//6 
