v -76.72262573 50.578125 -145.3058319
v -76.72262573 50.5 -145.3058319
v -75.06745148 50.578125 -148.5542908
v -75.06745148 50.5 -148.5542908
v -76.61125183 50.578125 -145.2490845
v -74.95607758 50.578125 -148.4975433
v -76.61125183 50.5 -145.2490845
v -74.95607758 50.5 -148.4975433
v -76.01724243 50.5 -144.9464264
v -74.36206818 50.5 -148.1948853
v -76.01724243 50.75 -144.9464264
v -74.36206818 50.75 -148.1948853
v -76.76903534 50.75 -145.329483
v -75.11386108 50.75 -148.5779419
v -76.76903534 50.70833206 -145.329483
v -75.11386108 50.70833206 -148.5779419
v -75.12313843 50.5 -148.5826721
v -75.12313843 50.70833206 -148.5826721
v -76.77831268 50.70833206 -145.3342133
v -76.77831268 50.5 -145.3342133
vn 0.4412529767 -0.8461476564 0.2988811433
vn 0.6926946044 -0.6246954203 0.3604578376
vn 0.4869836569 -0.8475299478 0.2110447586
vn 0.7017641068 -0.6246523857 0.3425442278
vn -0.5901456475 -0.8058174849 0.04885037988
vn -0.1460686177 -0.7092115879 -0.6896976829
vn -0.1133410782 -0.9929786921 -0.03386922181
vn -0.09886794537 -0.9931473136 -0.06231831759
vn 0.2934627831 -0.9354996085 0.1967740655
vn 0.3498689234 -0.9330229759 0.08402319998
vn 0.107143946 0.987904489 0.1120931953
vn 0.4927867651 0.8568885922 0.1513378322
vn -0.09273400903 0.9950935245 -0.0344863385
vn -0.01940012351 0.9996789694 -0.01629630104
vn -0.8844339252 0.3159765899 0.3434172273
vn -0.5525472164 0.1083934233 -0.8264033198
vn -0.8482469916 -0.2873412073 -0.4448731244
vn -0.8778803349 0.09945852309 -0.4684379399
vn -0.8949834704 0.02498389408 -0.4453990757
vn -0.8634566069 -0.2872853279 -0.4146200716
f 1//1 2//2 3//3 
f 3//3 2//2 4//4 
f 1//1 3//3 5//5 
f 5//5 3//3 6//6 
f 7//7 5//5 8//8 
f 8//8 5//5 6//6 
f 7//7 8//8 9//9 
f 9//9 8//8 10//10 
f 11//11 9//9 12//12 
f 12//12 9//9 10//10 
f 13//13 11//11 14//14 
f 14//14 11//11 12//12 
f 15//15 13//13 16//16 
f 16//16 13//13 14//14 
f 4//4 17//17 3//3 
f 3//3 17//17 18//18 
f 3//3 18//18 16//16 
f 14//14 12//12 16//16 
f 16//16 12//12 6//6 
f 16//16 6//6 3//3 
f 12//12 10//10 6//6 
f 6//6 10//10 8//8 
f 19//19 15//15 18//18 
f 18//18 15//15 16//16 
f 20//20 17//17 2//2 
f 2//2 17//17 4//4 
f 2//2 1//1 20//20 
f 20//20 1//1 19//19 
f 19//19 1//1 15//15 
f 15//15 1//1 5//5 
f 15//15 5//5 11//11 
f 11//11 5//5 9//9 
f 9//9 5//5 7//7 
f 11//11 13//13 15//15 
f 20//20 19//19 17//17 
f 17//17 19//19 18//18 
