v -54.40841293 32.45819855 97.15115356
v -54.40841293 24.04166603 97.15115356
v -54.33483124 32.45819855 97.1902771
v -54.33483124 24.04166603 97.1902771
v -52.59394073 24.04166603 93.91613007
v -52.59394073 32.45819855 93.91613007
v -52.66751862 32.45819855 93.87701416
v -52.66751862 24.04166603 93.87701416
vn -0.8881555796 0.004950369708 -0.4595161974
vn -0.9030926228 -0.00989101734 -0.4293319583
vn 0.8608091474 0.01977828518 0.5085434914
vn 0.8775743246 -0.009899954312 0.4793383479
vn 0.9030918479 -0.009890219197 0.4293335974
vn 0.8881559968 0.004949959926 0.459515363
vn -0.860810101 0.0197782591 -0.5085418224
vn -0.8775739074 -0.009899960831 -0.4793391824
f 1//1 2//2 3//3 
f 3//3 2//2 4//4 
f 5//5 6//6 4//4 
f 4//4 6//6 3//3 
f 1//1 3//3 7//7 
f 7//7 3//3 6//6 
f 2//2 8//8 4//4 
f 4//4 8//8 5//5 
f 2//2 1//1 8//8 
f 8//8 1//1 7//7 
f 8//8 7//7 5//5 
f 5//5 7//7 6//6 
