v -54.15915298 23.75 97.61417389
v -54.15915298 32.75 97.61417389
v -54.61940765 23.75 97.36945343
v -54.61940765 32.75 97.36945343
v -54.58070755 32.75 97.29759979
v -54.58070755 23.75 97.29759979
v -54.5896492 32.75 97.32354736
v -54.5896492 23.75 97.32354736
v -54.60266113 23.75 97.34770966
v -54.60266113 32.75 97.34770966
v -54.48202896 32.75 97.11201477
v -54.02216339 32.75 97.35652924
v -54.48202896 23.75 97.11201477
v -54.02216339 23.75 97.35652924
vn 0.3456630707 -0.02541132271 0.9380145669
vn -0.2140736133 0.01836998388 0.9766447544
vn -0.492321074 -0.001509484136 0.8704123497
vn -0.5596622229 0.003043532372 0.8287152052
vn -0.8869781494 0.0308953952 -0.4607767463
vn -0.8964717984 -0.05221667886 -0.4400133491
vn -0.901034832 0.179742977 -0.3947514594
vn -0.8603072166 -0.3432368636 -0.3769083619
vn -0.8387692571 -0.02871585637 -0.5437293053
vn -0.837733686 0.05736080557 -0.5430580378
vn 0.2855337858 0.01144568063 -0.9583002925
vn 0.9706113935 0.0390644446 -0.2374605685
vn -0.1892002374 -0.01817020774 -0.9817703962
vn 0.6899636388 -0.02825746126 -0.7232922316
f 1//1 2//2 3//3 
f 3//3 2//2 4//4 
f 5//5 6//6 7//7 
f 7//7 6//6 8//8 
f 7//7 8//8 9//9 
f 3//3 4//4 9//9 
f 9//9 4//4 10//10 
f 9//9 10//10 7//7 
f 11//11 5//5 12//12 
f 12//12 5//5 7//7 
f 12//12 7//7 2//2 
f 2//2 7//7 10//10 
f 2//2 10//10 4//4 
f 6//6 5//5 13//13 
f 13//13 5//5 11//11 
f 14//14 12//12 1//1 
f 1//1 12//12 2//2 
f 1//1 8//8 14//14 
f 14//14 8//8 6//6 
f 14//14 6//6 13//13 
f 3//3 9//9 1//1 
f 1//1 9//9 8//8 
f 13//13 11//11 14//14 
f 14//14 11//11 12//12 
