v 52.05506134 38.71614456 -116.9556198
v 52.05506134 32.78385544 -116.9556198
v 52.05506134 38.71614456 -116.9686432
v 52.05506134 32.78385544 -116.9686432
v 51.38546753 38.71614456 -116.9686432
v 51.38546753 32.78385544 -116.9686432
v 51.37505341 32.78385544 -116.9582291
v 51.37505341 38.71614456 -116.9582291
v 51.37540817 32.78385544 -116.9609222
v 51.37540817 38.71614456 -116.9609222
v 51.37644958 32.78385544 -116.9634323
v 51.37644958 38.71614456 -116.9634323
v 51.37810516 32.78385544 -116.9655914
v 51.37810516 38.71614456 -116.9655914
v 51.38026047 32.78385544 -116.967247
v 51.38026047 38.71614456 -116.967247
v 51.38277435 32.78385544 -116.9682922
v 51.38277435 38.71614456 -116.9682922
v 51.37505341 38.71614456 -116.5723038
v 51.37505341 32.78385544 -116.5723038
v 51.38807297 32.78385544 -116.9556198
v 51.38807297 32.78385544 -116.5723038
v 51.38807297 38.71614456 -116.9556198
v 51.38807297 38.71614456 -116.5723038
vn 0.00976235047 0.001097615808 0.9999517202
vn 0.0390214473 -0.002193660242 0.9992359877
vn 0.03886956349 0.00437877886 -0.9992346764
vn 0.009724350646 -0.002190957544 -0.9999502897
vn -0.0002615373232 0.001109456411 -0.9999993443
vn -0.001039885683 -0.002205627505 -0.9999970198
vn -0.9999992847 -0.00110136345 -0.0004580329987
vn -0.9999960065 0.00217997958 -0.001813211711
vn -0.976285696 -0.001527690096 -0.2164807469
vn -0.9535173774 0.001527482178 -0.3013341427
vn -0.8869532347 -0.001569046988 -0.4618566036
vn -0.8432528377 0.001568410196 -0.5375148058
vn -0.7377370596 -0.003070073668 -0.6750811934
vn -0.6758068204 0.003071230371 -0.7370724082
vn -0.5380639434 -0.0001570727036 -0.8429040313
vn -0.4624050558 0.0001569798915 -0.8866688013
vn -0.3014920652 -4.023315341e-05 -0.9534686804
vn -0.2159319371 4.026610259e-05 -0.976408422
vn -0.9998553991 0.002186958911 0.01686554216
vn -0.9977220297 -0.004364585038 0.06731823087
vn 0.276171267 -0.003356546396 0.9611026049
vn 0.9998552203 -0.001097188331 0.01698034443
vn 0.7544261813 0.004584594164 0.6563689113
vn 0.9976982474 0.00218964275 0.0677748546
f 1//1 2//2 3//3 
f 3//3 2//2 4//4 
f 3//3 4//4 5//5 
f 5//5 4//4 6//6 
f 7//7 8//8 9//9 
f 9//9 8//8 10//10 
f 9//9 10//10 11//11 
f 11//11 10//10 12//12 
f 11//11 12//12 13//13 
f 13//13 12//12 14//14 
f 13//13 14//14 15//15 
f 15//15 14//14 16//16 
f 15//15 16//16 17//17 
f 17//17 16//16 18//18 
f 17//17 18//18 6//6 
f 6//6 18//18 5//5 
f 8//8 7//7 19//19 
f 19//19 7//7 20//20 
f 2//2 21//21 4//4 
f 4//4 21//21 6//6 
f 6//6 21//21 13//13 
f 6//6 13//13 15//15 
f 22//22 20//20 21//21 
f 21//21 20//20 7//7 
f 21//21 7//7 9//9 
f 9//9 11//11 21//21 
f 21//21 11//11 13//13 
f 15//15 17//17 6//6 
f 23//23 21//21 1//1 
f 1//1 21//21 2//2 
f 19//19 20//20 24//24 
f 24//24 20//20 22//22 
f 1//1 3//3 23//23 
f 23//23 3//3 5//5 
f 23//23 5//5 14//14 
f 14//14 5//5 16//16 
f 16//16 5//5 18//18 
f 14//14 12//12 23//23 
f 23//23 12//12 10//10 
f 23//23 10//10 8//8 
f 8//8 19//19 23//23 
f 23//23 19//19 24//24 
f 24//24 22//22 23//23 
f 23//23 22//22 21//21 
