v -82.11681366 4.25 142.5214386
v -82.11681366 0.1666666716 142.5214386
v -82.11681366 4.25 142.3547821
v -82.11681366 0.1666666716 142.3547821
v -89.90848541 0.1666666716 142.3547821
v -89.90848541 4.25 142.3547821
v -89.90848541 4.25 142.5214386
v -89.90848541 0.1666666716 142.5214386
vn 0.01069169026 0.02040150389 0.9997346997
vn 0.04259759933 -0.08128322661 0.9957803488
vn 0.04259759933 0.08128322661 -0.9957803488
vn 0.01069169026 -0.02040150389 -0.9997346997
vn -0.04259759933 -0.08128322661 -0.9957803488
vn -0.01069169026 0.02040150389 -0.9997346997
vn -0.04259759933 0.08128322661 0.9957803488
vn -0.01069169026 -0.02040150389 0.9997346997
f 1//1 2//2 3//3 
f 3//3 2//2 4//4 
f 5//5 6//6 4//4 
f 4//4 6//6 3//3 
f 1//1 3//3 7//7 
f 7//7 3//3 6//6 
f 8//8 5//5 2//2 
f 2//2 5//5 4//4 
f 2//2 1//1 8//8 
f 8//8 1//1 7//7 
f 8//8 7//7 5//5 
f 5//5 7//7 6//6 
