v -21.17440796 32.45819855 -148.3098145
v -21.17440796 25.04166603 -148.3098145
v -21.13464546 32.45819855 -148.3830414
v -21.13464546 25.04166603 -148.3830414
v -24.30186081 25.04166603 -150.1027069
v -24.30186081 32.45819855 -150.1027069
v -24.34162521 32.45819855 -150.0294647
v -24.34162521 25.04166603 -150.0294647
vn -0.4669589102 0.00561712496 0.8842611909
vn -0.4360257387 -0.0112224631 0.8998641968
vn 0.5171152949 0.02244267426 -0.8556214571
vn 0.4872565866 -0.01123468485 -0.8731865883
vn 0.4360221028 -0.01122442447 -0.8998659849
vn 0.4669606984 0.005618094932 -0.8842602372
vn -0.5171186328 0.02244263515 0.8556194901
vn -0.487254858 -0.01123469323 0.873187542
f 1//1 2//2 3//3 
f 3//3 2//2 4//4 
f 5//5 6//6 4//4 
f 4//4 6//6 3//3 
f 1//1 3//3 7//7 
f 7//7 3//3 6//6 
f 2//2 8//8 4//4 
f 4//4 8//8 5//5 
f 2//2 1//1 8//8 
f 8//8 1//1 7//7 
f 8//8 7//7 5//5 
f 5//5 7//7 6//6 
