v -33.70014954 14.55487823 -122.9316788
v -33.70014954 12.72154427 -122.9316788
v -34.0334816 14.55487823 -123.2650146
v -34.0334816 12.72154427 -123.2650146
v -33.70014954 14.55487823 -122.5150146
v -34.0334816 14.55487823 -122.5150146
v -33.70014954 12.72154427 -122.5150146
v -34.0334816 12.72154427 -122.5150146
vn 0.9471591115 0.1722100377 -0.270616442
vn 0.8400596976 -0.1644857824 -0.5169566274
vn -0.1215493903 0.1989103109 -0.9724507332
vn -0.955508709 -0.1116826162 -0.2730020285
vn 0.5275543332 0.09591857344 0.844088912
vn -0.9670166969 0.1367489696 0.2148917764
vn 0.9251865149 -0.0841075182 0.3700754642
vn -0.7312512398 -0.2068172246 0.6499986649
f 1//1 2//2 3//3 
f 3//3 2//2 4//4 
f 5//5 1//1 6//6 
f 6//6 1//1 3//3 
f 7//7 8//8 2//2 
f 2//2 8//8 4//4 
f 5//5 7//7 1//1 
f 1//1 7//7 2//2 
f 8//8 6//6 4//4 
f 4//4 6//6 3//3 
f 6//6 8//8 5//5 
f 5//5 8//8 7//7 
