v -81.92931366 12.97916698 103.962822
v -81.92931366 12.97916698 107.7544861
v -81.91889954 12.97916698 103.962822
v -81.91889954 12.97916698 107.7544861
v -81.91889954 13.02083302 103.962822
v -81.91889954 13.02083302 107.7544861
v -81.32514954 13.02083302 103.962822
v -81.32514954 13.02083302 107.7544861
v -81.32514954 12.77083302 103.962822
v -81.32514954 12.77083302 107.7544861
v -81.74181366 12.77083302 103.962822
v -81.74181366 12.77083302 107.7544861
v -81.74181366 12.84895802 103.962822
v -81.74181366 12.84895802 107.7544861
v -81.86681366 12.84895802 103.962822
v -81.86681366 12.84895802 107.7544861
v -81.86681366 12.77083302 107.7544861
v -81.92931366 12.77083302 107.7544861
v -81.92931366 12.77083302 103.962822
v -81.86681366 12.77083302 103.962822
vn -0.998587966 0.04991705716 -0.01817444712
vn -0.9987117052 0.04992324114 0.009088349529
vn -0.9038090706 0.2259005457 -0.3634530306
vn -0.7648710608 0.1911739856 0.6151624322
vn -0.06999801099 0.9974868894 -0.01096123457
vn -0.07000117004 0.9975318313 0.005480864085
vn 0.38768664 0.9207558036 -0.04367899522
vn 0.3865818977 0.9181320667 0.0871090591
vn 0.5130873322 -0.8551403284 -0.07400257885
vn 0.5141443014 -0.8569019437 0.03707751259
vn -0.184280172 -0.9828215837 -0.01012522914
vn -0.1842518449 -0.982670486 0.02024734579
vn -0.4877286255 -0.7803658247 -0.3913438022
vn -0.518409431 -0.8294550776 0.2079807222
vn 0.5297313333 -0.8475701213 -0.03177401423
vn 0.5289309621 -0.8462895155 0.06345201284
vn 0.7808526158 -0.6246821284 0.006435602903
vn -0.9576008916 -0.2872793972 0.02170386352
vn -0.9577701092 -0.2873301506 -0.01085384935
vn 0.7808041573 -0.6246433258 -0.01287040673
f 1//1 2//2 3//3 
f 3//3 2//2 4//4 
f 5//5 3//3 6//6 
f 6//6 3//3 4//4 
f 5//5 6//6 7//7 
f 7//7 6//6 8//8 
f 9//9 7//7 10//10 
f 10//10 7//7 8//8 
f 9//9 10//10 11//11 
f 11//11 10//10 12//12 
f 13//13 11//11 14//14 
f 14//14 11//11 12//12 
f 13//13 14//14 15//15 
f 15//15 14//14 16//16 
f 17//17 16//16 18//18 
f 18//18 16//16 2//2 
f 2//2 16//16 4//4 
f 4//4 16//16 14//14 
f 4//4 14//14 8//8 
f 8//8 14//14 10//10 
f 10//10 14//14 12//12 
f 8//8 6//6 4//4 
f 1//1 19//19 2//2 
f 2//2 19//19 18//18 
f 20//20 15//15 17//17 
f 17//17 15//15 16//16 
f 20//20 19//19 15//15 
f 15//15 19//19 1//1 
f 15//15 1//1 3//3 
f 5//5 7//7 3//3 
f 3//3 7//7 13//13 
f 3//3 13//13 15//15 
f 7//7 9//9 13//13 
f 13//13 9//9 11//11 
f 20//20 17//17 19//19 
f 19//19 17//17 18//18 
