v -81.92931366 12.97916698 119.962822
v -81.92931366 12.97916698 122.7974854
v -81.91889954 12.97916698 119.962822
v -81.91889954 12.97916698 122.7974854
v -81.91889954 13.02083302 119.962822
v -81.91889954 13.02083302 122.7974854
v -81.32514954 13.02083302 119.962822
v -81.32514954 13.02083302 122.7974854
v -81.32514954 12.77083302 119.962822
v -81.32514954 12.77083302 122.7974854
v -81.74181366 12.77083302 119.962822
v -81.74181366 12.77083302 122.7974854
v -81.74181366 12.84895802 119.962822
v -81.74181366 12.84895802 122.7974854
v -81.86681366 12.84895802 119.962822
v -81.86681366 12.84895802 122.7974854
v -81.86681366 12.77083302 122.7974854
v -81.92931366 12.77083302 122.7974854
v -81.92931366 12.77083302 119.962822
v -81.86681366 12.77083302 119.962822
vn -0.998457849 0.0499105528 -0.02430709079
vn -0.9986791611 0.04992161319 0.01215623878
vn -0.8600879312 0.2149727792 -0.4626396
vn -0.6711850166 0.167757839 0.722058177
vn -0.06999469548 0.9974396229 -0.01466112304
vn -0.07000033557 0.9975200295 0.007331152912
vn 0.3873951137 0.9200633764 -0.0583813712
vn 0.3854295909 0.9153952599 0.1161703244
vn 0.5119821429 -0.8532983661 -0.09877311438
vn 0.5138655901 -0.8564374447 0.0495682396
vn -0.1842727214 -0.9827818274 -0.01354302466
vn -0.1842220426 -0.98251158 0.0270786006
vn -0.4606824517 -0.7370919585 -0.4944361746
vn -0.5097811818 -0.8156498671 0.2735661566
vn 0.529520452 -0.8472326994 -0.04248420894
vn 0.5280926228 -0.8449481726 0.08473930508
vn 0.7808398604 -0.6246718764 0.008608163334
vn -0.9574229717 -0.2872260213 0.02902583405
vn -0.9577255845 -0.2873167992 -0.01451750379
vn 0.7807530761 -0.6246024966 -0.01721441373
f 1//1 2//2 3//3 
f 3//3 2//2 4//4 
f 5//5 3//3 6//6 
f 6//6 3//3 4//4 
f 5//5 6//6 7//7 
f 7//7 6//6 8//8 
f 9//9 7//7 10//10 
f 10//10 7//7 8//8 
f 9//9 10//10 11//11 
f 11//11 10//10 12//12 
f 13//13 11//11 14//14 
f 14//14 11//11 12//12 
f 13//13 14//14 15//15 
f 15//15 14//14 16//16 
f 17//17 16//16 18//18 
f 18//18 16//16 2//2 
f 2//2 16//16 4//4 
f 4//4 16//16 14//14 
f 4//4 14//14 8//8 
f 8//8 14//14 10//10 
f 10//10 14//14 12//12 
f 8//8 6//6 4//4 
f 1//1 19//19 2//2 
f 2//2 19//19 18//18 
f 20//20 15//15 17//17 
f 17//17 15//15 16//16 
f 20//20 19//19 15//15 
f 15//15 19//19 1//1 
f 15//15 1//1 3//3 
f 5//5 7//7 3//3 
f 3//3 7//7 13//13 
f 3//3 13//13 15//15 
f 7//7 9//9 13//13 
f 13//13 9//9 11//11 
f 20//20 17//17 19//19 
f 19//19 17//17 18//18 
