v -81.91889954 0.1666666716 122.7974854
v -81.91889954 0.2083333284 122.7974854
v -81.91889954 0.1666666716 119.962822
v -81.91889954 0.2083333284 119.962822
v -81.32514954 0.1666666716 122.7974854
v -81.32514954 0.1666666716 119.962822
v -81.32514954 0.4166666567 122.7974854
v -81.32514954 0.4166666567 119.962822
v -81.74181366 0.4166666567 122.7974854
v -81.74181366 0.4166666567 119.962822
v -81.74181366 0.3385416567 122.7974854
v -81.74181366 0.3385416567 119.962822
v -81.86681366 0.3385416567 122.7974854
v -81.86681366 0.3385416567 119.962822
v -81.86681366 0.4166666567 122.7974854
v -81.86681366 0.4166666567 119.962822
v -81.92931366 0.2083333284 119.962822
v -81.92931366 0.4166666567 119.962822
v -81.92931366 0.2083333284 122.7974854
v -81.92931366 0.4166666567 122.7974854
vn -0.06999573857 -0.9974395633 0.01466134284
vn -0.860091269 -0.2149703801 0.4626345038
vn -0.07000138611 -0.9975199699 -0.007331262343
vn -0.6711905003 -0.1677566916 -0.722053349
vn 0.3873950839 -0.9200633764 0.05838139728
vn 0.3854295611 -0.9153952599 -0.1161703765
vn 0.5119821429 0.8532984257 0.09877311438
vn 0.5138655901 0.8564374447 -0.04956823587
vn -0.1842727214 0.9827818274 0.01354302466
vn -0.1842220426 0.98251158 -0.0270786006
vn -0.4606826305 0.7370921969 0.4944356084
vn -0.5097812414 0.8156499863 -0.2735657692
vn 0.529520452 0.8472326994 0.0424840562
vn 0.5280926228 0.8449482322 -0.08473900706
vn 0.7807530761 0.6246024966 0.01721441373
vn 0.7808398604 0.6246718764 -0.008608163334
vn -0.9986791611 -0.04992176592 -0.01215623599
vn -0.9574227333 0.287226826 -0.02902585082
vn -0.998457849 -0.04991070554 0.0243070852
vn -0.9577253461 0.2873176038 0.01451751217
f 1//1 2//2 3//3 
f 3//3 2//2 4//4 
f 1//1 3//3 5//5 
f 5//5 3//3 6//6 
f 7//7 5//5 8//8 
f 8//8 5//5 6//6 
f 7//7 8//8 9//9 
f 9//9 8//8 10//10 
f 11//11 9//9 12//12 
f 12//12 9//9 10//10 
f 11//11 12//12 13//13 
f 13//13 12//12 14//14 
f 15//15 13//13 16//16 
f 16//16 13//13 14//14 
f 4//4 17//17 14//14 
f 14//14 17//17 18//18 
f 14//14 18//18 16//16 
f 14//14 12//12 4//4 
f 4//4 12//12 6//6 
f 4//4 6//6 3//3 
f 10//10 8//8 12//12 
f 12//12 8//8 6//6 
f 19//19 17//17 2//2 
f 2//2 17//17 4//4 
f 15//15 16//16 20//20 
f 20//20 16//16 18//18 
f 20//20 19//19 13//13 
f 13//13 19//19 2//2 
f 13//13 2//2 11//11 
f 11//11 2//2 5//5 
f 11//11 5//5 7//7 
f 2//2 1//1 5//5 
f 7//7 9//9 11//11 
f 13//13 15//15 20//20 
f 19//19 20//20 17//17 
f 17//17 20//20 18//18 
