v -81.91889954 0.1666666716 115.7544861
v -81.91889954 0.2083333284 115.7544861
v -81.91889954 0.1666666716 111.962822
v -81.91889954 0.2083333284 111.962822
v -81.32514954 0.1666666716 115.7544861
v -81.32514954 0.1666666716 111.962822
v -81.32514954 0.4166666567 115.7544861
v -81.32514954 0.4166666567 111.962822
v -81.74181366 0.4166666567 115.7544861
v -81.74181366 0.4166666567 111.962822
v -81.74181366 0.3385416567 115.7544861
v -81.74181366 0.3385416567 111.962822
v -81.86681366 0.3385416567 115.7544861
v -81.86681366 0.3385416567 111.962822
v -81.86681366 0.4166666567 115.7544861
v -81.86681366 0.4166666567 111.962822
v -81.92931366 0.2083333284 111.962822
v -81.92931366 0.4166666567 111.962822
v -81.92931366 0.2083333284 115.7544861
v -81.92931366 0.4166666567 115.7544861
vn -0.06999906152 -0.9974868298 0.01096139848
vn -0.903811574 -0.2258977741 0.36344859
vn -0.07000221312 -0.9975317717 -0.005480946042
vn -0.7648757696 -0.1911723018 -0.6151570678
vn 0.38768664 -0.9207558036 0.04367901385
vn 0.3865818977 -0.9181320667 -0.08710909635
vn 0.5130873322 0.8551403284 0.07400257885
vn 0.5141442418 0.8569019437 -0.03707751259
vn -0.184280172 0.9828215837 0.01012522914
vn -0.1842518449 0.982670486 -0.02024734579
vn -0.4877287447 0.7803660035 0.3913432956
vn -0.518409431 0.8294551373 -0.2079804242
vn 0.5297313333 0.8475701213 0.03177390248
vn 0.5289309621 0.8462895155 -0.06345178932
vn 0.7808041573 0.6246433258 0.01287040673
vn 0.7808526158 0.6246821284 -0.006435602903
vn -0.9987117052 -0.04992339388 -0.009088347666
vn -0.9576006532 0.2872802019 -0.02170387655
vn -0.998587966 -0.04991720989 0.01817444339
vn -0.9577698708 0.2873309553 0.01085385494
f 1//1 2//2 3//3 
f 3//3 2//2 4//4 
f 1//1 3//3 5//5 
f 5//5 3//3 6//6 
f 7//7 5//5 8//8 
f 8//8 5//5 6//6 
f 7//7 8//8 9//9 
f 9//9 8//8 10//10 
f 11//11 9//9 12//12 
f 12//12 9//9 10//10 
f 11//11 12//12 13//13 
f 13//13 12//12 14//14 
f 15//15 13//13 16//16 
f 16//16 13//13 14//14 
f 4//4 17//17 14//14 
f 14//14 17//17 18//18 
f 14//14 18//18 16//16 
f 14//14 12//12 4//4 
f 4//4 12//12 6//6 
f 4//4 6//6 3//3 
f 10//10 8//8 12//12 
f 12//12 8//8 6//6 
f 19//19 17//17 2//2 
f 2//2 17//17 4//4 
f 15//15 16//16 20//20 
f 20//20 16//16 18//18 
f 20//20 19//19 13//13 
f 13//13 19//19 2//2 
f 13//13 2//2 11//11 
f 11//11 2//2 5//5 
f 11//11 5//5 7//7 
f 2//2 1//1 5//5 
f 7//7 9//9 11//11 
f 13//13 15//15 20//20 
f 19//19 20//20 17//17 
f 17//17 20//20 18//18 
