v -81.76264954 9.390625 8.865193367
v -81.76264954 0.3385416567 8.865193367
v -81.84598541 9.390625 8.865193367
v -81.84598541 0.3385416567 8.865193367
v -81.84598541 0.3385416567 11.83261395
v -81.84598541 9.390625 11.83261395
v -81.76264954 9.390625 11.83261395
v -81.76264954 0.3385416567 11.83261395
vn 0.9998590946 0.009204966947 -0.01403982472
vn 0.9983841777 -0.009191389196 -0.05607645959
vn -0.9983841777 0.009191389196 -0.05607645959
vn -0.9998590946 -0.009204966947 -0.01403982472
vn -0.9983841777 -0.009191389196 0.05607645959
vn -0.9998590946 0.009204966947 0.01403982472
vn 0.9983841777 0.009191389196 0.05607645959
vn 0.9998590946 -0.009204966947 0.01403982472
f 1//1 2//2 3//3 
f 3//3 2//2 4//4 
f 5//5 6//6 4//4 
f 4//4 6//6 3//3 
f 7//7 1//1 6//6 
f 6//6 1//1 3//3 
f 2//2 8//8 4//4 
f 4//4 8//8 5//5 
f 2//2 1//1 8//8 
f 8//8 1//1 7//7 
f 8//8 7//7 5//5 
f 5//5 7//7 6//6 
