v -36.2834816 -11 -205.7233429
v -36.2834816 -6.0625 -205.7233429
v -36.2834816 -11 -206.2233429
v -36.2834816 -6.0625 -206.2233429
v -33.78222275 -11 -205.7233429
v -33.78222275 -6.0625 -205.7233429
v -33.78222275 -11 -206.2233429
v -33.78222275 -6.0625 -206.2233429
vn -0.09932815284 -0.05031805858 0.9937816858
vn -0.3648341894 0.1848191917 0.9125447273
vn -0.3648341894 -0.1848191917 -0.9125447273
vn -0.09932815284 0.05031805858 -0.9937816858
vn 0.3648341894 -0.1848191917 0.9125447273
vn 0.09932815284 0.05031805858 0.9937816858
vn 0.09932815284 -0.05031805858 -0.9937816858
vn 0.3648341894 0.1848191917 -0.9125447273
f 1//1 2//2 3//3 
f 3//3 2//2 4//4 
f 5//5 6//6 1//1 
f 1//1 6//6 2//2 
f 1//1 3//3 5//5 
f 5//5 3//3 7//7 
f 6//6 8//8 2//2 
f 2//2 8//8 4//4 
f 3//3 4//4 7//7 
f 7//7 4//4 8//8 
f 6//6 5//5 8//8 
f 8//8 5//5 7//7 
