v -73.17381287 24.72395897 -152.224884
v -73.17381287 19.921875 -152.224884
v -73.0995636 24.72395897 -152.1870422
v -73.0995636 19.921875 -152.1870422
v -71.30724335 19.921875 -155.7046661
v -71.30724335 24.72395897 -155.7046661
v -71.38150024 24.72395897 -155.7425079
v -71.38150024 19.921875 -155.7425079
vn -0.8957151771 0.008676287718 -0.4445436299
vn -0.9092268348 -0.01733608544 -0.4159398973
vn 0.8705405593 0.03465826064 0.4908747077
vn 0.8860319853 -0.0173513554 0.4632993042
vn 0.90922755 -0.01733752899 0.415938288
vn 0.8957147598 0.008676999249 0.4445444047
vn -0.8705397248 0.03465822712 -0.490876168
vn -0.8860324025 -0.01735136285 -0.4632985592
f 1//1 2//2 3//3 
f 3//3 2//2 4//4 
f 5//5 6//6 4//4 
f 4//4 6//6 3//3 
f 1//1 3//3 7//7 
f 7//7 3//3 6//6 
f 2//2 8//8 4//4 
f 4//4 8//8 5//5 
f 2//2 1//1 8//8 
f 8//8 1//1 7//7 
f 8//8 7//7 5//5 
f 5//5 7//7 6//6 
