v -45.04330063 32.45819855 79.71544647
v -45.04330063 24.04166603 79.71544647
v -45.11687851 32.45819855 79.67632294
v -45.11687851 24.04166603 79.67632294
v -46.85777664 24.04166603 82.95046997
v -46.85777664 32.45819855 82.95046997
v -46.78419495 32.45819855 82.98959351
v -46.78419495 24.04166603 82.98959351
vn 0.888155818 0.004950168077 0.4595157504
vn 0.9030922055 -0.00989060849 0.4293328226
vn -0.8608091474 0.0197787378 -0.5085434318
vn -0.877573669 -0.009900174104 -0.47933954
vn -0.9030925632 -0.00989101734 -0.4293319881
vn -0.8881555796 0.004950369708 -0.4595161676
vn 0.8608086705 0.01977872662 0.5085442066
vn 0.8775739074 -0.009900175966 0.4793391526
f 1//1 2//2 3//3 
f 3//3 2//2 4//4 
f 5//5 6//6 4//4 
f 4//4 6//6 3//3 
f 1//1 3//3 7//7 
f 7//7 3//3 6//6 
f 2//2 8//8 4//4 
f 4//4 8//8 5//5 
f 2//2 1//1 8//8 
f 8//8 1//1 7//7 
f 8//8 7//7 5//5 
f 5//5 7//7 6//6 
