v -71.34094238 24.72395897 -155.867981
v -71.34094238 24.64583397 -155.867981
v -69.61956787 24.72395897 -159.2463684
v -69.61956787 24.64583397 -159.2463684
v -71.22956848 24.72395897 -155.8112335
v -69.50818634 24.72395897 -159.189621
v -71.22956848 24.64583397 -155.8112335
v -69.50818634 24.64583397 -159.189621
v -70.63556671 24.64583397 -155.5085602
v -68.91418457 24.64583397 -158.8869629
v -70.63556671 24.85416603 -155.5085602
v -68.91418457 24.85416603 -158.8869629
v -71.22956848 24.85416603 -155.8112335
v -69.50818634 24.85416603 -159.189621
v -71.22956848 24.77604103 -155.8112335
v -69.50818634 24.77604103 -159.189621
v -71.34094238 24.77604103 -155.867981
v -69.61956787 24.77604103 -159.2463684
v -71.34094238 24.85416603 -155.867981
v -69.61956787 24.85416603 -159.2463684
v -69.67525482 24.64583397 -159.2747498
v -69.67525482 24.85416603 -159.2747498
v -71.39663696 24.85416603 -155.896347
v -71.39663696 24.64583397 -155.896347
vn 0.4547279775 -0.8473857641 0.274153024
vn 0.6928130984 -0.6246960759 0.3602289259
vn 0.4833202958 -0.8477399349 0.2184913307
vn 0.7015352249 -0.6246566176 0.3430049419
vn -0.5546965599 -0.8302745223 -0.05436867103
vn -0.3850441277 -0.8347964287 -0.3935174346
vn -0.1129718572 -0.9929956198 -0.034599334
vn -0.0990544036 -0.9931514859 -0.06195416674
vn 0.2492326051 -0.9538607597 0.1674298793
vn 0.3033544421 -0.951032877 0.0592667833
vn 0.1174108684 0.9870525599 0.1092788875
vn 0.5002915859 0.8462637067 0.1831560135
vn -0.2123837471 0.9734206796 -0.08570512384
vn -0.04744630307 0.9982349873 -0.03571718931
vn -0.309836179 0.9496946931 -0.04562376067
vn -0.5324291587 0.597358346 -0.5997350812
vn 0.6787577271 0.624270618 0.3867481649
vn 0.2753732204 0.9542640448 0.116403237
vn 0.4682364464 0.84797436 0.2483830601
vn 0.8307245374 0.3713912964 0.4146869183
vn -0.8484485745 -0.2873417139 -0.444488138
vn -0.7533966899 0.5143761635 -0.4096468985
vn -0.8861803412 0.1483373344 -0.4389538169
vn -0.8647896647 -0.2872653008 -0.4118463993
f 1//1 2//2 3//3 
f 3//3 2//2 4//4 
f 1//1 3//3 5//5 
f 5//5 3//3 6//6 
f 7//7 5//5 8//8 
f 8//8 5//5 6//6 
f 7//7 8//8 9//9 
f 9//9 8//8 10//10 
f 11//11 9//9 12//12 
f 12//12 9//9 10//10 
f 13//13 11//11 14//14 
f 14//14 11//11 12//12 
f 15//15 13//13 16//16 
f 16//16 13//13 14//14 
f 17//17 15//15 18//18 
f 18//18 15//15 16//16 
f 19//19 17//17 20//20 
f 20//20 17//17 18//18 
f 4//4 21//21 3//3 
f 3//3 21//21 22//22 
f 3//3 22//22 18//18 
f 18//18 22//22 20//20 
f 3//3 18//18 6//6 
f 6//6 18//18 16//16 
f 6//6 16//16 10//10 
f 10//10 16//16 12//12 
f 12//12 16//16 14//14 
f 10//10 8//8 6//6 
f 23//23 19//19 22//22 
f 22//22 19//19 20//20 
f 24//24 21//21 2//2 
f 2//2 21//21 4//4 
f 2//2 1//1 24//24 
f 24//24 1//1 17//17 
f 24//24 17//17 23//23 
f 23//23 17//17 19//19 
f 17//17 1//1 15//15 
f 15//15 1//1 5//5 
f 15//15 5//5 11//11 
f 11//11 5//5 9//9 
f 9//9 5//5 7//7 
f 11//11 13//13 15//15 
f 24//24 23//23 21//21 
f 21//21 23//23 22//22 
