v 51.6852684 10.47395802 -2.030639648
v 51.6852684 0 -2.030639648
v 51.60193634 10.47395802 -2.030639648
v 51.60193634 0 -2.030639648
v 51.6852684 10.47395802 1.917277098
v 51.60193634 10.47395802 1.917277098
v 51.6852684 2.526041746 1.917277098
v 51.60193634 2.526041746 1.917277098
v 51.60193634 0 -1.952514648
v 51.60193634 2.526041746 -1.952514648
v 51.6852684 0 -1.952514648
v 51.6852684 2.526041746 -1.952514648
vn 0.9994242191 0.02042481862 -0.02709387057
vn 0.5028850436 -0.003223572858 -0.8643472791
vn -0.9984813929 0.01020277478 -0.0541366227
vn -0.7583785653 -0.009722653776 -0.6517418623
vn 0.9997588396 0.005293495953 0.0213136524
vn -0.9998871088 0.01058835071 0.01065819431
vn 0.999548614 -0.02096007019 0.021524271
vn -0.9990190268 -0.01047448348 0.04302573577
vn -0.4243975878 -0.01400053129 0.9053676724
vn -0.9999423027 -0.01021246333 0.003333139
vn 0.6832513809 -0.04507981241 0.7287903428
vn 0.9999647141 -0.005106346216 0.006666427478
f 1//1 2//2 3//3 
f 3//3 2//2 4//4 
f 5//5 1//1 6//6 
f 6//6 1//1 3//3 
f 7//7 5//5 8//8 
f 8//8 5//5 6//6 
f 9//9 10//10 4//4 
f 4//4 10//10 3//3 
f 3//3 10//10 6//6 
f 6//6 10//10 8//8 
f 2//2 11//11 4//4 
f 4//4 11//11 9//9 
f 12//12 7//7 10//10 
f 10//10 7//7 8//8 
f 11//11 2//2 12//12 
f 12//12 2//2 1//1 
f 12//12 1//1 5//5 
f 5//5 7//7 12//12 
f 11//11 12//12 9//9 
f 9//9 12//12 10//10 
