v -65.90996552 24.72395897 -166.4809875
v -65.90996552 19.921875 -166.4809875
v -65.83571625 24.72395897 -166.4431458
v -65.83571625 19.921875 -166.4431458
v -64.10960388 19.921875 -169.8308411
v -64.10960388 24.72395897 -169.8308411
v -64.18385315 24.72395897 -169.8686676
v -64.18385315 19.921875 -169.8686676
vn -0.8958941102 0.008676249534 -0.4441829622
vn -0.909897089 -0.01733487844 -0.4144717157
vn 0.8697468638 0.03465296328 0.4922799468
vn 0.8858450651 -0.0173498299 0.4636566937
vn 0.9098964334 -0.01733356342 0.4144732356
vn 0.8958944678 0.008675544523 0.4441821575
vn -0.8697478771 0.03465284407 -0.4922782481
vn -0.8858446479 -0.0173498597 -0.4636574984
f 1//1 2//2 3//3 
f 3//3 2//2 4//4 
f 5//5 6//6 4//4 
f 4//4 6//6 3//3 
f 1//1 3//3 7//7 
f 7//7 3//3 6//6 
f 2//2 8//8 4//4 
f 4//4 8//8 5//5 
f 2//2 1//1 8//8 
f 8//8 1//1 7//7 
f 8//8 7//7 5//5 
f 5//5 7//7 6//6 
