v 51.6852684 10.47395802 41.96936035
v 51.6852684 2.526041746 41.96936035
v 51.60193634 10.47395802 41.96936035
v 51.60193634 2.526041746 41.96936035
v 51.60193634 2.526041746 45.91727829
v 51.60193634 10.47395802 45.91727829
v 51.6852684 10.47395802 45.91727829
v 51.6852684 2.526041746 45.91727829
vn 0.9998893738 0.01048360858 -0.01055275742
vn 0.9990552664 -0.01047486346 -0.04217581823
vn -0.9990552664 0.01047486346 -0.04217581823
vn -0.9998893738 -0.01048360858 -0.01055275742
vn -0.9990552664 -0.01047486346 0.04217581823
vn -0.9998893738 0.01048360858 0.01055275742
vn 0.9990552664 0.01047486346 0.04217581823
vn 0.9998893738 -0.01048360858 0.01055275742
f 1//1 2//2 3//3 
f 3//3 2//2 4//4 
f 5//5 6//6 4//4 
f 4//4 6//6 3//3 
f 7//7 1//1 6//6 
f 6//6 1//1 3//3 
f 2//2 8//8 4//4 
f 4//4 8//8 5//5 
f 2//2 1//1 8//8 
f 8//8 1//1 7//7 
f 8//8 7//7 5//5 
f 5//5 7//7 6//6 
