v -33.70014954 34.25 -122.5150146
v -33.70014954 32.41666794 -122.5150146
v -34.0334816 34.25 -122.1816788
v -34.0334816 32.41666794 -122.1816788
v -32.42541504 34.25 -122.5150146
v -32.42541504 34.25 -122.1816788
v -31.89154816 32.41666794 -122.5150146
v -31.89154816 32.41666794 -122.1816788
vn -0.1933649778 0.3040544391 -0.9328241348
vn -0.1720027477 -0.1853190809 -0.9675080776
vn -0.5602135658 0.2456894517 0.7910736203
vn -0.09648179263 -0.1127223969 0.988931179
vn 0.2094339877 0.133798033 -0.9686255455
vn 0.08735916764 0.1628058851 0.9827830791
vn 0.1798306406 -0.1250380874 -0.9757184386
vn 0.2893909216 -0.2275246531 0.9297770858
f 1//1 2//2 3//3 
f 3//3 2//2 4//4 
f 5//5 1//1 6//6 
f 6//6 1//1 3//3 
f 7//7 8//8 2//2 
f 2//2 8//8 4//4 
f 7//7 2//2 5//5 
f 5//5 2//2 1//1 
f 8//8 6//6 4//4 
f 4//4 6//6 3//3 
f 6//6 8//8 5//5 
f 5//5 8//8 7//7 
