v -47.06838608 23.75 83.16897583
v -47.06838608 32.75 83.16897583
v -46.96970749 23.75 82.98338318
v -46.96970749 32.75 82.98338318
v -46.93177795 32.75 82.91112518
v -46.93177795 23.75 82.91112518
v -46.94044113 32.75 82.93716431
v -46.94044113 23.75 82.93716431
v -46.95319366 23.75 82.96146393
v -46.95319366 32.75 82.96146393
v -46.60851669 32.75 83.4134903
v -46.47152328 32.75 83.15584564
v -46.47152328 23.75 83.15584564
v -46.60851669 23.75 83.4134903
vn -0.6346030831 -0.02732753381 0.7723549604
vn -0.9190134406 0.04336220399 0.3918342292
vn -0.8780004382 -0.03058547899 -0.4776816666
vn -0.8661004305 0.05169451982 -0.4971898198
vn 0.4463002384 0.00150935119 -0.8948820233
vn 0.3740822077 -0.003043242032 -0.9273905754
vn -0.9198083282 0.0287159998 -0.3913158476
vn -0.9186726809 -0.05736109242 -0.3908327222
vn -0.8445251584 -0.0283739455 -0.5347636938
vn -0.8435071111 0.05667948723 -0.5341190696
vn -0.2138685286 0.01560832467 0.9767377377
vn 0.9703543186 0.04305725172 -0.2378203869
vn 0.6897466779 -0.03113539517 -0.7233810425
vn 0.3460825384 -0.0215831399 0.9379557967
f 1//1 2//2 3//3 
f 3//3 2//2 4//4 
f 5//5 6//6 7//7 
f 7//7 6//6 8//8 
f 7//7 8//8 9//9 
f 3//3 4//4 9//9 
f 9//9 4//4 10//10 
f 9//9 10//10 7//7 
f 11//11 12//12 2//2 
f 2//2 12//12 4//4 
f 4//4 12//12 10//10 
f 10//10 12//12 7//7 
f 7//7 12//12 5//5 
f 6//6 5//5 13//13 
f 13//13 5//5 12//12 
f 14//14 11//11 1//1 
f 1//1 11//11 2//2 
f 14//14 1//1 13//13 
f 13//13 1//1 3//3 
f 13//13 3//3 9//9 
f 9//9 8//8 13//13 
f 13//13 8//8 6//6 
f 13//13 12//12 14//14 
f 14//14 12//12 11//11 
