v -69.52498627 33.72395706 -159.4320068
v -69.52498627 33.64583206 -159.4320068
v -67.80360413 33.72395706 -162.8103943
v -67.80360413 33.64583206 -162.8103943
v -69.41360474 33.72395706 -159.3752594
v -67.69223022 33.72395706 -162.7536469
v -69.41360474 33.64583206 -159.3752594
v -67.69223022 33.64583206 -162.7536469
v -68.81960297 33.64583206 -159.0725861
v -67.09822083 33.64583206 -162.4509888
v -68.81960297 33.85416794 -159.0725861
v -67.09822083 33.85416794 -162.4509888
v -69.41360474 33.85416794 -159.3752594
v -67.69223022 33.85416794 -162.7536469
v -69.41360474 33.77604294 -159.3752594
v -67.69223022 33.77604294 -162.7536469
v -69.52498627 33.77604294 -159.4320068
v -67.80360413 33.77604294 -162.8103943
v -69.52498627 33.85416794 -159.4320068
v -67.80360413 33.85416794 -162.8103943
v -67.85929108 33.64583206 -162.8387756
v -67.85929108 33.85416794 -162.8387756
v -69.58067322 33.85416794 -159.4603729
v -69.58067322 33.64583206 -159.4603729
vn 0.4547088444 -0.8473986983 0.2741446495
vn 0.6928274632 -0.6246753335 0.3602371812
vn 0.4833205342 -0.8477396965 0.2184919119
vn 0.7015346289 -0.6246566772 0.3430061936
vn -0.5546982884 -0.8302737474 -0.05436288565
vn -0.38505584 -0.8347817659 -0.3935370743
vn -0.1129719615 -0.9929955602 -0.03459913284
vn -0.09905394912 -0.9931515455 -0.06195376813
vn 0.249235779 -0.9538595676 0.1674318016
vn 0.3033568263 -0.9510321617 0.05926593021
vn 0.1174123436 0.9870522618 0.1092805117
vn 0.5002943873 0.8462618589 0.1831566542
vn -0.2123839408 0.97342062 -0.08570473641
vn -0.04744608328 0.9982350469 -0.03571702167
vn -0.3098376989 0.9496943951 -0.04561923444
vn -0.5324349999 0.5973354578 -0.5997527242
vn 0.678742826 0.624292016 0.3867398202
vn 0.2753736973 0.9542638659 0.1164035425
vn 0.4682546258 0.8479614854 0.2483926862
vn 0.8307237625 0.3713912964 0.4146884084
vn -0.8484537005 -0.2873226702 -0.4444907308
vn -0.7534110546 0.514348805 -0.4096547961
vn -0.8861822486 0.1483188123 -0.4389562011
vn -0.8647977114 -0.2872314155 -0.411853224
f 1//1 2//2 3//3 
f 3//3 2//2 4//4 
f 1//1 3//3 5//5 
f 5//5 3//3 6//6 
f 7//7 5//5 8//8 
f 8//8 5//5 6//6 
f 7//7 8//8 9//9 
f 9//9 8//8 10//10 
f 11//11 9//9 12//12 
f 12//12 9//9 10//10 
f 13//13 11//11 14//14 
f 14//14 11//11 12//12 
f 15//15 13//13 16//16 
f 16//16 13//13 14//14 
f 17//17 15//15 18//18 
f 18//18 15//15 16//16 
f 19//19 17//17 20//20 
f 20//20 17//17 18//18 
f 4//4 21//21 3//3 
f 3//3 21//21 22//22 
f 3//3 22//22 18//18 
f 18//18 22//22 20//20 
f 3//3 18//18 6//6 
f 6//6 18//18 16//16 
f 6//6 16//16 10//10 
f 10//10 16//16 12//12 
f 12//12 16//16 14//14 
f 10//10 8//8 6//6 
f 23//23 19//19 22//22 
f 22//22 19//19 20//20 
f 24//24 21//21 2//2 
f 2//2 21//21 4//4 
f 2//2 1//1 24//24 
f 24//24 1//1 17//17 
f 24//24 17//17 23//23 
f 23//23 17//17 19//19 
f 17//17 1//1 15//15 
f 15//15 1//1 5//5 
f 15//15 5//5 11//11 
f 11//11 5//5 9//9 
f 9//9 5//5 7//7 
f 11//11 13//13 15//15 
f 24//24 23//23 21//21 
f 21//21 23//23 22//22 
