v -45.19049835 32.66838837 79.63718414
v -45.19049835 32.45819855 79.63718414
v -46.93139267 32.66838837 82.91132355
v -46.93139267 32.45819855 82.91132355
v -46.93177795 32.75 82.91111755
v -45.19088364 32.75 79.63697815
v -46.92773438 32.72293854 82.91326904
v -45.18684006 32.72293854 79.63912201
v -45.18671036 32.69549561 79.63919067
v -46.92760468 32.69549561 82.91333771
v -46.47152328 32.45819855 83.15583801
v -46.47152328 32.75 83.15583801
v -44.73062897 32.75 79.88169861
v -44.73062897 32.45819855 79.88169861
vn -0.7024427056 0.0172343459 -0.7115315795
vn -0.3179846108 -0.9270123243 -0.1988314539
vn -0.9447311163 0.01785201393 -0.3273597658
vn -0.3546202481 -0.9260541201 -0.1291054487
vn -0.04963114113 0.9986042976 -0.01806255616
vn -0.04445450008 0.9986245036 -0.02780038491
vn -0.910171628 -0.08616114408 -0.405171454
vn -0.8063821793 -0.08549745381 -0.5851819515
vn -0.8460652232 0.07551861554 -0.5277030468
vn -0.9362520576 0.07502867281 -0.3432241082
vn 0.4031381607 -0.8708924651 0.2811154425
vn 0.2150435895 0.9618673921 0.1690188199
vn 0.6883704066 0.6646706462 0.2904464602
vn 0.4836464524 -0.8663886786 0.124325119
f 1//1 2//2 3//3 
f 3//3 2//2 4//4 
f 5//5 6//6 7//7 
f 7//7 6//6 8//8 
f 7//7 8//8 9//9 
f 1//1 3//3 9//9 
f 9//9 3//3 10//10 
f 9//9 10//10 7//7 
f 4//4 11//11 3//3 
f 3//3 11//11 12//12 
f 3//3 12//12 10//10 
f 10//10 12//12 7//7 
f 7//7 12//12 5//5 
f 13//13 6//6 12//12 
f 12//12 6//6 5//5 
f 14//14 11//11 2//2 
f 2//2 11//11 4//4 
f 2//2 1//1 14//14 
f 14//14 1//1 13//13 
f 13//13 1//1 9//9 
f 13//13 9//9 8//8 
f 8//8 6//6 13//13 
f 14//14 13//13 11//11 
f 11//11 13//13 12//12 
