v 51.6852684 10.47395802 -13.80147266
v 51.6852684 2.526041746 -13.80147266
v 51.60193634 10.47395802 -13.80147266
v 51.60193634 2.526041746 -13.80147266
v 51.60193634 2.526041746 -10.08272266
v 51.60193634 10.47395802 -10.08272266
v 51.6852684 10.47395802 -10.08272266
v 51.6852684 2.526041746 -10.08272266
vn 0.9998822808 0.01048353408 -0.01120299194
vn 0.9989424348 -0.01047367975 -0.0447698459
vn -0.9989424348 0.01047367975 -0.0447698459
vn -0.9998822808 -0.01048353408 -0.01120299194
vn -0.9989424348 -0.01047367975 0.0447698459
vn -0.9998822808 0.01048353408 0.01120299194
vn 0.9989424348 0.01047367975 0.0447698459
vn 0.9998822808 -0.01048353408 0.01120299194
f 1//1 2//2 3//3 
f 3//3 2//2 4//4 
f 5//5 6//6 4//4 
f 4//4 6//6 3//3 
f 7//7 1//1 6//6 
f 6//6 1//1 3//3 
f 2//2 8//8 4//4 
f 4//4 8//8 5//5 
f 2//2 1//1 8//8 
f 8//8 1//1 7//7 
f 8//8 7//7 5//5 
f 5//5 7//7 6//6 
