v -26.70014954 28.08333397 -118.8483505
v -26.70014954 28.41666603 -118.8483505
v -26.70014954 28.08333397 -122.1816788
v -26.70014954 28.41666603 -122.1816788
v -25.7834816 28.41666603 -122.1816788
v -25.7834816 28.08333397 -122.1816788
v -25.7834816 28.41666603 -118.8483505
v -25.7834816 28.08333397 -118.8483505
v -27.61681557 27.5 -118.8483505
v -27.61681557 27.83333397 -118.8483505
v -27.61681557 27.5 -122.1816788
v -27.61681557 27.83333397 -122.1816788
v -26.70014954 27.83333397 -122.1816788
v -26.70014954 27.5 -122.1816788
v -26.70014954 27.5 -118.8483505
v -26.70014954 27.83333397 -118.8483505
v -28.5334816 26.91666603 -118.8483505
v -28.5334816 27.25 -118.8483505
v -28.5334816 26.91666603 -122.1816788
v -28.5334816 27.25 -122.1816788
v -27.61681557 27.25 -122.1816788
v -27.61681557 26.91666603 -122.1816788
v -27.61681557 27.25 -118.8483505
v -27.61681557 26.91666603 -118.8483505
v -29.45014954 26.33333397 -118.8483505
v -29.45014954 26.66666603 -118.8483505
v -29.45014954 26.33333397 -122.1816788
v -29.45014954 26.66666603 -122.1816788
v -28.5334816 26.66666603 -122.1816788
v -28.5334816 26.33333397 -122.1816788
v -28.5334816 26.66666603 -118.8483505
v -28.5334816 26.33333397 -118.8483505
v -30.36681557 25.75 -118.8483505
v -30.36681557 26.08333397 -118.8483505
v -30.36681557 25.75 -122.1816788
v -30.36681557 26.08333397 -122.1816788
v -29.45014954 26.08333397 -122.1816788
v -29.45014954 25.75 -122.1816788
v -29.45014954 26.08333397 -118.8483505
v -29.45014954 25.75 -118.8483505
v -31.2834816 25.16666603 -118.8483505
v -31.2834816 25.5 -118.8483505
v -31.2834816 25.16666603 -122.1816788
v -31.2834816 25.5 -122.1816788
v -30.36681557 25.5 -122.1816788
v -30.36681557 25.16666603 -122.1816788
v -30.36681557 25.5 -118.8483505
v -30.36681557 25.16666603 -118.8483505
v -32.20014954 24.58333397 -118.8483505
v -32.20014954 24.91666603 -118.8483505
v -32.20014954 24.58333397 -122.1816788
v -32.20014954 24.91666603 -122.1816788
v -31.2834816 24.91666603 -122.1816788
v -31.2834816 24.58333397 -122.1816788
v -31.2834816 24.58333397 -118.8483505
v -31.2834816 24.91666603 -118.8483505
v -33.11681366 24 -118.8483505
v -33.11681366 24.33333397 -118.8483505
v -33.11681366 24 -122.1816788
v -33.11681366 24.33333397 -122.1816788
v -32.20014954 24.33333397 -122.1816788
v -32.20014954 24 -122.1816788
v -32.20014954 24 -118.8483505
v -32.20014954 24.33333397 -118.8483505
vn -0.3358602822 -0.9236205816 0.1847237051
vn -0.3413648307 0.9387581944 0.04693780094
vn -0.3413648307 -0.9387581944 -0.04693780094
vn -0.3358602822 0.9236205816 -0.1847237051
vn 0.3413648307 0.9387581944 -0.04693780094
vn 0.3358602822 -0.9236205816 -0.1847237051
vn 0.3358602822 0.9236205816 0.1847237051
vn 0.3413648307 -0.9387581944 0.04693780094
vn -0.3358625472 -0.923619628 0.1847245544
vn -0.3413671851 0.9387573004 0.04693802446
vn -0.3413671851 -0.9387573004 -0.04693802446
vn -0.3358625472 0.923619628 -0.1847245544
vn 0.3413671851 0.9387573004 -0.04693802446
vn 0.3358625472 -0.923619628 -0.1847245544
vn 0.3413671851 -0.9387573004 0.04693802446
vn 0.3358625472 0.923619628 0.1847245544
vn -0.3358625472 -0.923619628 0.1847245544
vn -0.3413671851 0.9387573004 0.04693802446
vn -0.3413671851 -0.9387573004 -0.04693802446
vn -0.3358625472 0.923619628 -0.1847245544
vn 0.3413671851 0.9387573004 -0.04693802446
vn 0.3358625472 -0.923619628 -0.1847245544
vn 0.3358625472 0.923619628 0.1847245544
vn 0.3413671851 -0.9387573004 0.04693802446
vn -0.3358602822 -0.9236205816 0.1847237051
vn -0.3413648307 0.9387581944 0.04693780094
vn -0.3413648307 -0.9387581944 -0.04693780094
vn -0.3358602822 0.9236205816 -0.1847237051
vn 0.3413648307 0.9387581944 -0.04693780094
vn 0.3358602822 -0.9236205816 -0.1847237051
vn 0.3358602822 0.9236205816 0.1847237051
vn 0.3413648307 -0.9387581944 0.04693780094
vn -0.3358625472 -0.923619628 0.1847245544
vn -0.3413671851 0.9387573004 0.04693802446
vn -0.3413671851 -0.9387573004 -0.04693802446
vn -0.3358625472 0.923619628 -0.1847245544
vn 0.3413671851 0.9387573004 -0.04693802446
vn 0.3358625472 -0.923619628 -0.1847245544
vn 0.3358625472 0.923619628 0.1847245544
vn 0.3413671851 -0.9387573004 0.04693802446
vn -0.3358625472 -0.923619628 0.1847245544
vn -0.3413671851 0.9387573004 0.04693802446
vn -0.3413671851 -0.9387573004 -0.04693802446
vn -0.3358625472 0.923619628 -0.1847245544
vn 0.3413671851 0.9387573004 -0.04693802446
vn 0.3358625472 -0.923619628 -0.1847245544
vn 0.3358625472 0.923619628 0.1847245544
vn 0.3413671851 -0.9387573004 0.04693802446
vn -0.3358602822 -0.9236205816 0.1847237051
vn -0.3413648307 0.9387581944 0.04693780094
vn -0.3413648307 -0.9387581944 -0.04693780094
vn -0.3358602822 0.9236205816 -0.1847237051
vn 0.3413648307 0.9387581944 -0.04693780094
vn 0.3358602822 -0.9236205816 -0.1847237051
vn 0.3413648307 -0.9387581944 0.04693780094
vn 0.3358602822 0.9236205816 0.1847237051
vn -0.335863173 -0.9236193895 0.1847245097
vn -0.341367811 0.938757062 0.04693801329
vn -0.341367811 -0.938757062 -0.04693801329
vn -0.335863173 0.9236193895 -0.1847245097
vn 0.341367811 0.938757062 -0.04693801329
vn 0.335863173 -0.9236193895 -0.1847245097
vn 0.341367811 -0.938757062 0.04693801329
vn 0.335863173 0.9236193895 0.1847245097
f 1//1 2//2 3//3 
f 3//3 2//2 4//4 
f 5//5 6//6 4//4 
f 4//4 6//6 3//3 
f 2//2 1//1 7//7 
f 7//7 1//1 8//8 
f 7//7 5//5 2//2 
f 2//2 5//5 4//4 
f 1//1 3//3 8//8 
f 8//8 3//3 6//6 
f 7//7 8//8 5//5 
f 5//5 8//8 6//6 
f 9//9 10//10 11//11 
f 11//11 10//10 12//12 
f 13//13 14//14 12//12 
f 12//12 14//14 11//11 
f 9//9 11//11 15//15 
f 15//15 11//11 14//14 
f 16//16 13//13 10//10 
f 10//10 13//13 12//12 
f 10//10 9//9 16//16 
f 16//16 9//9 15//15 
f 16//16 15//15 13//13 
f 13//13 15//15 14//14 
f 17//17 18//18 19//19 
f 19//19 18//18 20//20 
f 21//21 22//22 20//20 
f 20//20 22//22 19//19 
f 18//18 17//17 23//23 
f 23//23 17//17 24//24 
f 23//23 21//21 18//18 
f 18//18 21//21 20//20 
f 17//17 19//19 24//24 
f 24//24 19//19 22//22 
f 23//23 24//24 21//21 
f 21//21 24//24 22//22 
f 25//25 26//26 27//27 
f 27//27 26//26 28//28 
f 29//29 30//30 28//28 
f 28//28 30//30 27//27 
f 31//31 29//29 26//26 
f 26//26 29//29 28//28 
f 25//25 27//27 32//32 
f 32//32 27//27 30//30 
f 26//26 25//25 31//31 
f 31//31 25//25 32//32 
f 31//31 32//32 29//29 
f 29//29 32//32 30//30 
f 33//33 34//34 35//35 
f 35//35 34//34 36//36 
f 37//37 38//38 36//36 
f 36//36 38//38 35//35 
f 39//39 37//37 34//34 
f 34//34 37//37 36//36 
f 33//33 35//35 40//40 
f 40//40 35//35 38//38 
f 34//34 33//33 39//39 
f 39//39 33//33 40//40 
f 39//39 40//40 37//37 
f 37//37 40//40 38//38 
f 41//41 42//42 43//43 
f 43//43 42//42 44//44 
f 45//45 46//46 44//44 
f 44//44 46//46 43//43 
f 47//47 45//45 42//42 
f 42//42 45//45 44//44 
f 41//41 43//43 48//48 
f 48//48 43//43 46//46 
f 42//42 41//41 47//47 
f 47//47 41//41 48//48 
f 47//47 48//48 45//45 
f 45//45 48//48 46//46 
f 49//49 50//50 51//51 
f 51//51 50//50 52//52 
f 53//53 54//54 52//52 
f 52//52 54//54 51//51 
f 49//49 51//51 55//55 
f 55//55 51//51 54//54 
f 56//56 53//53 50//50 
f 50//50 53//53 52//52 
f 50//50 49//49 56//56 
f 56//56 49//49 55//55 
f 56//56 55//55 53//53 
f 53//53 55//55 54//54 
f 57//57 58//58 59//59 
f 59//59 58//58 60//60 
f 61//61 62//62 60//60 
f 60//60 62//62 59//59 
f 57//57 59//59 63//63 
f 63//63 59//59 62//62 
f 64//64 61//61 58//58 
f 58//58 61//61 60//60 
f 58//58 57//57 64//64 
f 64//64 57//57 63//63 
f 64//64 63//63 61//61 
f 61//61 63//63 62//62 
