v -65.89305878 50.578125 -166.5600586
v -65.89305878 50.5 -166.5600586
v -64.23788452 50.578125 -169.8085175
v -64.23788452 50.5 -169.8085175
v -65.78168488 50.578125 -166.5033112
v -64.12651062 50.578125 -169.75177
v -65.78168488 50.5 -166.5033112
v -64.12651062 50.5 -169.75177
v -65.18768311 50.5 -166.2006378
v -63.53250504 50.5 -169.4491119
v -65.18768311 50.75 -166.2006378
v -63.53250504 50.75 -169.4491119
v -65.93946838 50.75 -166.5836945
v -64.28429413 50.75 -169.8321533
v -65.93946838 50.70833206 -166.5836945
v -64.28429413 50.70833206 -169.8321533
v -64.29357147 50.5 -169.8368835
v -64.29357147 50.70833206 -169.8368835
v -65.94874573 50.70833206 -166.5884247
v -65.94874573 50.5 -166.5884247
vn 0.4412582219 -0.8461456299 0.2988792062
vn 0.69272542 -0.6246525049 0.360473007
vn 0.4869812727 -0.8475311399 0.2110454887
vn 0.7017927766 -0.6246116161 0.3425598443
vn -0.5901424289 -0.8058199883 0.04884670675
vn -0.1460746825 -0.7092039585 -0.6897042394
vn -0.1133415401 -0.9929786325 -0.0338694565
vn -0.09886798263 -0.9931473136 -0.06231828034
vn 0.2934633493 -0.9354994893 0.1967739761
vn 0.3498704731 -0.9330223203 0.08402406424
vn 0.1071451008 0.9879043102 0.1120939329
vn 0.4927894175 0.8568868041 0.1513392478
vn -0.09273474663 0.9950934052 -0.03448671475
vn -0.01940038241 0.9996789694 -0.01629640721
vn -0.8844512105 0.3159257472 0.343419522
vn -0.5525526404 0.1084246635 -0.8263956308
vn -0.8482555151 -0.2873113155 -0.4448761344
vn -0.8778812885 0.09945834428 -0.4684362411
vn -0.8949831128 0.02498384751 -0.4453999102
vn -0.8634631038 -0.2872574627 -0.4146258533
f 1//1 2//2 3//3 
f 3//3 2//2 4//4 
f 1//1 3//3 5//5 
f 5//5 3//3 6//6 
f 7//7 5//5 8//8 
f 8//8 5//5 6//6 
f 7//7 8//8 9//9 
f 9//9 8//8 10//10 
f 11//11 9//9 12//12 
f 12//12 9//9 10//10 
f 13//13 11//11 14//14 
f 14//14 11//11 12//12 
f 15//15 13//13 16//16 
f 16//16 13//13 14//14 
f 4//4 17//17 3//3 
f 3//3 17//17 18//18 
f 3//3 18//18 16//16 
f 14//14 12//12 16//16 
f 16//16 12//12 6//6 
f 16//16 6//6 3//3 
f 12//12 10//10 6//6 
f 6//6 10//10 8//8 
f 19//19 15//15 18//18 
f 18//18 15//15 16//16 
f 20//20 17//17 2//2 
f 2//2 17//17 4//4 
f 2//2 1//1 20//20 
f 20//20 1//1 19//19 
f 19//19 1//1 15//15 
f 15//15 1//1 5//5 
f 15//15 5//5 11//11 
f 11//11 5//5 9//9 
f 9//9 5//5 7//7 
f 11//11 13//13 15//15 
f 20//20 19//19 17//17 
f 17//17 19//19 18//18 
