v -73.17381287 33.72395706 -152.224884
v -73.17381287 24.77604103 -152.224884
v -73.0995636 33.72395706 -152.1870422
v -73.0995636 24.77604103 -152.1870422
v -71.30724335 24.77604103 -155.7046661
v -71.30724335 33.72395706 -155.7046661
v -71.38150024 33.72395706 -155.7425079
v -71.38150024 24.77604103 -155.7425079
vn -0.8957391977 0.004656434059 -0.4445555508
vn -0.9093241692 -0.009304764681 -0.4159843922
vn 0.8709130287 0.01860802993 0.4910847545
vn 0.8861269355 -0.009312961251 0.4633489847
vn 0.9093248844 -0.00930553861 0.4159827828
vn 0.8957387805 0.004656815901 0.4445563257
vn -0.8709121943 0.01860801131 -0.4910862148
vn -0.8861273527 -0.009312965907 -0.4633482099
f 1//1 2//2 3//3 
f 3//3 2//2 4//4 
f 5//5 6//6 4//4 
f 4//4 6//6 3//3 
f 1//1 3//3 7//7 
f 7//7 3//3 6//6 
f 2//2 8//8 4//4 
f 4//4 8//8 5//5 
f 2//2 1//1 8//8 
f 8//8 1//1 7//7 
f 8//8 7//7 5//5 
f 5//5 7//7 6//6 
