v -76.73953247 33.72395706 -145.2267609
v -76.73953247 24.77604103 -145.2267609
v -76.6652832 33.72395706 -145.1889343
v -76.6652832 24.77604103 -145.1889343
v -74.93917084 24.77604103 -148.5766144
v -74.93917084 33.72395706 -148.5766144
v -75.0134201 33.72395706 -148.6144562
v -75.0134201 24.77604103 -148.6144562
vn -0.8959184885 0.004656034522 -0.4441940784
vn -0.9099937677 -0.009303410538 -0.4145175517
vn 0.8701198697 0.01860511862 0.4924888015
vn 0.8859395385 -0.00931215845 0.4637072086
vn 0.9099944234 -0.00930411648 0.4145160615
vn 0.8959180713 0.00465641357 0.4441948831
vn -0.870118916 0.01860518381 -0.49249053
vn -0.8859400153 -0.009312142618 -0.4637063742
f 1//1 2//2 3//3 
f 3//3 2//2 4//4 
f 5//5 6//6 4//4 
f 4//4 6//6 3//3 
f 1//1 3//3 7//7 
f 7//7 3//3 6//6 
f 2//2 8//8 4//4 
f 4//4 8//8 5//5 
f 2//2 1//1 8//8 
f 8//8 1//1 7//7 
f 8//8 7//7 5//5 
f 5//5 7//7 6//6 
