v -71.35784912 50.578125 -155.7889099
v -71.35784912 38.77604294 -155.7889099
v -71.28359985 50.578125 -155.7510681
v -71.28359985 38.77604294 -155.7510681
v -69.49128723 38.77604294 -159.268692
v -69.49128723 50.578125 -159.268692
v -69.5655365 50.578125 -159.3065338
v -69.5655365 38.77604294 -159.3065338
vn -0.8957433105 0.003530357732 -0.4445576072
vn -0.9093408585 -0.007054668851 -0.4159920514
vn 0.8709779978 0.01410841197 0.4911194444
vn 0.8861441016 -0.007060599513 0.4633559883
vn 0.9093408585 -0.007054668851 0.4159920514
vn 0.8957433105 0.003530357732 0.4445576072
vn -0.8709779978 0.01410841197 -0.4911194444
vn -0.8861441016 -0.007060599513 -0.4633559883
f 1//1 2//2 3//3 
f 3//3 2//2 4//4 
f 5//5 6//6 4//4 
f 4//4 6//6 3//3 
f 1//1 3//3 7//7 
f 7//7 3//3 6//6 
f 2//2 8//8 4//4 
f 4//4 8//8 5//5 
f 2//2 1//1 8//8 
f 8//8 1//1 7//7 
f 8//8 7//7 5//5 
f 5//5 7//7 6//6 
