v -67.72592926 24.72395897 -162.9169617
v -67.72592926 19.921875 -162.9169617
v -67.65167999 24.72395897 -162.8791199
v -67.65167999 19.921875 -162.8791199
v -65.85935974 19.921875 -166.3967438
v -65.85935974 24.72395897 -166.3967438
v -65.93360901 24.72395897 -166.4345856
v -65.93360901 19.921875 -166.4345856
vn -0.8957144022 0.008676287718 -0.4445451796
vn -0.9092261195 -0.0173360873 -0.4159414768
vn 0.8705405593 0.03465686366 0.4908747375
vn 0.8860319853 -0.01735065505 0.4632993042
vn 0.9092261195 -0.0173360873 0.4159414768
vn 0.8957144022 0.008676287718 0.4445451796
vn -0.8705405593 0.03465686366 -0.4908747375
vn -0.8860319853 -0.01735065505 -0.4632993042
f 1//1 2//2 3//3 
f 3//3 2//2 4//4 
f 5//5 6//6 4//4 
f 4//4 6//6 3//3 
f 1//1 3//3 7//7 
f 7//7 3//3 6//6 
f 2//2 8//8 4//4 
f 4//4 8//8 5//5 
f 2//2 1//1 8//8 
f 8//8 1//1 7//7 
f 8//8 7//7 5//5 
f 5//5 7//7 6//6 
