v -74.97286987 50.578125 -148.7399292
v -74.97286987 50.5 -148.7399292
v -73.25148773 50.578125 -152.1183167
v -73.25148773 50.5 -152.1183167
v -74.86149597 50.578125 -148.6831818
v -73.14011383 50.578125 -152.0615692
v -74.86149597 50.5 -148.6831818
v -73.14011383 50.5 -152.0615692
v -74.26748657 50.5 -148.3805084
v -72.54611206 50.5 -151.7589111
v -74.26748657 50.75 -148.3805084
v -72.54611206 50.75 -151.7589111
v -75.01927948 50.75 -148.7635651
v -73.29789734 50.75 -152.1419678
v -75.01927948 50.70833206 -148.7635651
v -73.29789734 50.70833206 -152.1419678
v -73.30717468 50.5 -152.146698
v -73.30717468 50.70833206 -152.146698
v -75.02855682 50.70833206 -148.7682953
v -75.02855682 50.5 -148.7682953
vn 0.4424824417 -0.8462845683 0.296667695
vn 0.6928274632 -0.6246753335 0.3602371812
vn 0.4864263833 -0.8475649357 0.2121864706
vn 0.7015346289 -0.6246566772 0.3430061936
vn -0.5868557096 -0.8087843657 0.0383172296
vn -0.157435745 -0.7173925042 -0.6786471605
vn -0.1129707247 -0.992995739 -0.03459875286
vn -0.09905394912 -0.9931515455 -0.06195388362
vn 0.2942173481 -0.9355623126 0.195344016
vn 0.3484987915 -0.9332698584 0.08692503721
vn 0.1080494747 0.9880022407 0.1103486568
vn 0.4913845062 0.8571420908 0.1544303894
vn -0.09253589064 0.9950983524 -0.03487622365
vn -0.01949999109 0.9996802211 -0.01610055752
vn -0.8890439272 0.3220692575 0.3253802657
vn -0.5660820007 0.109372586 -0.8170610666
vn -0.8484523892 -0.2873274982 -0.4444901347
vn -0.8782211542 0.09945984185 -0.4677984416
vn -0.8948211074 0.02498393878 -0.4457252324
vn -0.8630858064 -0.2872629762 -0.4154069424
f 1//1 2//2 3//3 
f 3//3 2//2 4//4 
f 1//1 3//3 5//5 
f 5//5 3//3 6//6 
f 7//7 5//5 8//8 
f 8//8 5//5 6//6 
f 7//7 8//8 9//9 
f 9//9 8//8 10//10 
f 11//11 9//9 12//12 
f 12//12 9//9 10//10 
f 13//13 11//11 14//14 
f 14//14 11//11 12//12 
f 15//15 13//13 16//16 
f 16//16 13//13 14//14 
f 4//4 17//17 3//3 
f 3//3 17//17 18//18 
f 3//3 18//18 16//16 
f 14//14 12//12 16//16 
f 16//16 12//12 6//6 
f 16//16 6//6 3//3 
f 12//12 10//10 6//6 
f 6//6 10//10 8//8 
f 19//19 15//15 18//18 
f 18//18 15//15 16//16 
f 20//20 17//17 2//2 
f 2//2 17//17 4//4 
f 2//2 1//1 20//20 
f 20//20 1//1 19//19 
f 19//19 1//1 15//15 
f 15//15 1//1 5//5 
f 15//15 5//5 11//11 
f 11//11 5//5 9//9 
f 9//9 5//5 7//7 
f 11//11 13//13 15//15 
f 20//20 19//19 17//17 
f 17//17 19//19 18//18 
