v -85.3568573 32.75 -110.7705612
v -86.53017426 32.75 -114.1781464
v -85.84972382 32.75 -110.600853
v -87.0230484 32.75 -114.0084381
v -87.02263641 32.66838837 -114.0085831
v -85.84931183 32.66838837 -110.6009979
v -87.01857758 32.69549561 -114.0099792
v -85.84526062 32.69549561 -110.6023941
v -85.84539795 32.72293854 -110.6023483
v -87.0187149 32.72293854 -114.0099335
v -87.02263641 32.45819855 -114.0085831
v -86.53017426 32.45819855 -114.1781464
v -85.84931183 32.45819855 -110.6009979
v -85.3568573 32.45819855 -110.7705612
vn 0.4892138839 0.8690601587 -0.07351316512
vn 0.4467272758 0.8716995716 -0.201431334
vn -0.02341549098 0.9996532202 0.01204946451
vn -0.1018459275 0.9944329262 0.02702962793
vn -0.9996466637 0.01721666008 0.02025168203
vn -0.8816488385 0.01784089766 0.471568644
vn -0.9634630084 0.07555697858 0.2569633722
vn -0.8877735138 0.07493852079 0.4541392028
vn -0.9162741303 -0.08615730703 0.3911760151
vn -0.9786707163 -0.08555833995 0.1867709458
vn -0.6080008745 -0.7773573399 0.1614016145
vn 0.2326936722 -0.9607733488 -0.150891304
vn -0.1776409298 -0.9798429608 0.0913862139
vn 0.7324963808 -0.6629964709 -0.1545469761
f 1//1 2//2 3//3 
f 3//3 2//2 4//4 
f 5//5 6//6 7//7 
f 7//7 6//6 8//8 
f 7//7 8//8 9//9 
f 3//3 4//4 9//9 
f 9//9 4//4 10//10 
f 9//9 10//10 7//7 
f 11//11 5//5 12//12 
f 12//12 5//5 2//2 
f 2//2 5//5 7//7 
f 2//2 7//7 10//10 
f 10//10 4//4 2//2 
f 13//13 6//6 11//11 
f 11//11 6//6 5//5 
f 1//1 14//14 2//2 
f 2//2 14//14 12//12 
f 13//13 14//14 6//6 
f 6//6 14//14 1//1 
f 6//6 1//1 8//8 
f 8//8 1//1 9//9 
f 9//9 1//1 3//3 
f 14//14 13//13 12//12 
f 12//12 13//13 11//11 
