v -33.11681366 33.66666794 -123.2650146
v -33.11681366 33.33333206 -123.2650146
v -33.11681366 33.66666794 -126.5983505
v -33.11681366 33.33333206 -126.5983505
v -37.1584816 33.66666794 -126.5983505
v -37.1584816 33.33333206 -126.5983505
v -37.1584816 33.66666794 -118.8483505
v -37.1584816 33.33333206 -118.8483505
v -34.0334816 33.33333206 -123.2650146
v -34.0334816 33.33333206 -122.1816788
v -32.20014954 33.33333206 -118.8483505
v -32.20014954 33.33333206 -122.1816788
v -32.20014954 33.66666794 -118.8483505
v -34.0334816 33.66666794 -123.2650146
v -34.0334816 33.66666794 -122.1816788
v -32.20014954 33.66666794 -122.1816788
vn 0.3358635902 0.9236191511 0.1847250909
vn 0.5862599611 -0.8061024547 0.08061079681
vn 0.132822901 0.9878633618 -0.08052384853
vn 0.06620584428 -0.9848049283 -0.1605491042
vn -0.06820666045 0.9951316118 -0.07114030421
vn -0.1247334033 -0.9916570783 -0.032524582
vn -0.1161995828 0.9925300479 0.03717136383
vn -0.06306720525 -0.994741261 0.08069887757
vn 0.01812290773 -0.9993652701 0.03066950664
vn 0.0143721737 -0.9998227358 -0.01216103323
vn 0.09743393213 -0.9926002622 0.07246658206
vn 0.1755210012 -0.9653574824 -0.1930732727
vn 0.04850800335 0.9883426428 0.1443114877
vn 0.01636263542 0.9998421669 0.006922647357
vn 0.01385946479 0.9988030195 -0.04690881446
vn 0.3402463198 0.9356695414 -0.09356781095
f 1//1 2//2 3//3 
f 3//3 2//2 4//4 
f 5//5 6//6 7//7 
f 7//7 6//6 8//8 
f 2//2 9//9 4//4 
f 4//4 9//9 6//6 
f 6//6 9//9 10//10 
f 6//6 10//10 8//8 
f 8//8 10//10 11//11 
f 11//11 10//10 12//12 
f 7//7 8//8 13//13 
f 13//13 8//8 11//11 
f 1//1 3//3 14//14 
f 14//14 3//3 5//5 
f 14//14 5//5 7//7 
f 14//14 7//7 15//15 
f 15//15 7//7 13//13 
f 15//15 13//13 16//16 
f 16//16 12//12 15//15 
f 15//15 12//12 10//10 
f 13//13 11//11 16//16 
f 16//16 11//11 12//12 
f 14//14 9//9 1//1 
f 1//1 9//9 2//2 
f 3//3 4//4 5//5 
f 5//5 4//4 6//6 
f 15//15 10//10 14//14 
f 14//14 10//10 9//9 
