v -73.15690613 38.72395706 -152.3039551
v -73.15690613 38.64583206 -152.3039551
v -71.43552399 38.72395706 -155.6823425
v -71.43552399 38.64583206 -155.6823425
v -73.04553223 38.72395706 -152.2472076
v -71.32415009 38.72395706 -155.6255951
v -73.04553223 38.64583206 -152.2472076
v -71.32415009 38.64583206 -155.6255951
v -72.45153046 38.64583206 -151.9445343
v -70.73014832 38.64583206 -155.322937
v -72.45153046 38.85416794 -151.9445343
v -70.73014832 38.85416794 -155.322937
v -73.04553223 38.85416794 -152.2472076
v -71.32415009 38.85416794 -155.6255951
v -73.04553223 38.77604294 -152.2472076
v -71.32415009 38.77604294 -155.6255951
v -73.15690613 38.77604294 -152.3039551
v -71.43552399 38.77604294 -155.6823425
v -73.15690613 38.85416794 -152.3039551
v -71.43552399 38.85416794 -155.6823425
v -71.49121857 38.64583206 -155.7107239
v -71.49121857 38.85416794 -155.7107239
v -73.21259308 38.85416794 -152.3323212
v -73.21259308 38.64583206 -152.3323212
vn 0.4547267556 -0.8473860621 0.2741540372
vn 0.69281286 -0.6246958971 0.3602296114
vn 0.4833300412 -0.847733736 0.2184939086
vn 0.7015052438 -0.6246984005 0.3429902494
vn -0.5547084808 -0.8302667737 -0.05436527729
vn -0.3850557208 -0.8347821832 -0.3935362399
vn -0.1129718572 -0.9929956198 -0.034599334
vn -0.0990544036 -0.9931514859 -0.06195416674
vn 0.249236837 -0.95385921 0.1674325168
vn 0.3033595979 -0.951031208 0.05926744267
vn 0.1174128726 0.9870521426 0.1092810035
vn 0.5002979636 0.8462592959 0.1831586957
vn -0.2123837471 0.9734206796 -0.08570512384
vn -0.04744630307 0.9982349873 -0.03571718931
vn -0.3098451495 0.9496918917 -0.04562172294
vn -0.5324353576 0.5973364115 -0.5997514129
vn 0.6787573099 0.6242713928 0.3867475688
vn 0.2753804326 0.9542617202 0.1164053902
vn 0.4682364464 0.84797436 0.2483830601
vn 0.8307116628 0.3714262545 0.4146814346
vn -0.8484501243 -0.2873369753 -0.444488287
vn -0.7533999681 0.5143690109 -0.4096498489
vn -0.8861830235 0.1483188123 -0.4389545918
vn -0.8647984266 -0.2872314155 -0.4118516445
f 1//1 2//2 3//3 
f 3//3 2//2 4//4 
f 1//1 3//3 5//5 
f 5//5 3//3 6//6 
f 7//7 5//5 8//8 
f 8//8 5//5 6//6 
f 7//7 8//8 9//9 
f 9//9 8//8 10//10 
f 11//11 9//9 12//12 
f 12//12 9//9 10//10 
f 13//13 11//11 14//14 
f 14//14 11//11 12//12 
f 15//15 13//13 16//16 
f 16//16 13//13 14//14 
f 17//17 15//15 18//18 
f 18//18 15//15 16//16 
f 19//19 17//17 20//20 
f 20//20 17//17 18//18 
f 4//4 21//21 3//3 
f 3//3 21//21 22//22 
f 3//3 22//22 18//18 
f 18//18 22//22 20//20 
f 3//3 18//18 6//6 
f 6//6 18//18 16//16 
f 6//6 16//16 10//10 
f 10//10 16//16 12//12 
f 12//12 16//16 14//14 
f 10//10 8//8 6//6 
f 23//23 19//19 22//22 
f 22//22 19//19 20//20 
f 24//24 21//21 2//2 
f 2//2 21//21 4//4 
f 2//2 1//1 24//24 
f 24//24 1//1 17//17 
f 24//24 17//17 23//23 
f 23//23 17//17 19//19 
f 17//17 1//1 15//15 
f 15//15 1//1 5//5 
f 15//15 5//5 11//11 
f 11//11 5//5 9//9 
f 9//9 5//5 7//7 
f 11//11 13//13 15//15 
f 24//24 23//23 21//21 
f 21//21 23//23 22//22 
