v -37.49181366 34.25 -126.9316788
v -37.49181366 32.41666794 -126.9316788
v -37.1584816 34.25 -126.5983505
v -37.1584816 32.41666794 -126.5983505
v -33.80821609 34.25 -126.5983505
v -33.80821609 34.25 -126.9316788
v -34.34208298 32.41666794 -126.5983505
v -34.34208298 32.41666794 -126.9316788
vn -0.05094499514 0.1023605391 -0.9934419394
vn -0.2530958056 -0.2174138576 -0.942694962
vn -0.0954567343 0.1831172854 0.9784457684
vn -0.09956281632 -0.3240027726 0.9408025742
vn 0.09787867963 0.150363043 0.9837737083
vn 0.1710502207 0.2783204913 -0.9451346397
vn 0.106790334 -0.1131240278 0.9878252745
vn 0.04801080376 -0.1702201366 -0.9842357635
f 1//1 2//2 3//3 
f 3//3 2//2 4//4 
f 5//5 6//6 3//3 
f 3//3 6//6 1//1 
f 7//7 4//4 8//8 
f 8//8 4//4 2//2 
f 6//6 8//8 1//1 
f 1//1 8//8 2//2 
f 5//5 3//3 7//7 
f 7//7 3//3 4//4 
f 5//5 7//7 6//6 
f 6//6 7//7 8//8 
