v -33.26264954 27.19791603 -122.2337646
v -33.26442337 27.21139717 -122.2337646
v -33.26442337 27.1844368 -122.2337646
v -33.26962662 27.171875 -122.2337646
v -33.26962662 27.22395897 -122.2337646
v -33.27790451 27.16108894 -122.2337646
v -33.27790451 27.23474503 -122.2337646
v -33.28868866 27.15281105 -122.2337646
v -33.28868866 27.24302292 -122.2337646
v -33.30125046 27.1476078 -122.2337646
v -33.30125046 27.24822617 -122.2337646
v -33.3147316 27.14583397 -122.2337646
v -33.3147316 27.25 -122.2337646
v -33.32821274 27.1476078 -122.2337646
v -33.32821274 27.24822617 -122.2337646
v -33.34077454 27.15281105 -122.2337646
v -33.34077454 27.24302292 -122.2337646
v -33.35155869 27.16108894 -122.2337646
v -33.35155869 27.23474503 -122.2337646
v -33.35983658 27.171875 -122.2337646
v -33.35983658 27.22395897 -122.2337646
v -33.36503983 27.1844368 -122.2337646
v -33.36503983 27.21139717 -122.2337646
v -33.36681366 27.19791603 -122.2337646
v -33.26264954 27.19791603 -126.7233505
v -33.26442337 27.21139717 -126.7233505
v -33.26962662 27.22395897 -126.7233505
v -33.27790451 27.23474503 -126.7233505
v -33.28868866 27.24302292 -126.7233505
v -33.30125046 27.24822617 -126.7233505
v -33.3147316 27.25 -126.7233505
v -33.32821274 27.24822617 -126.7233505
v -33.34077454 27.24302292 -126.7233505
v -33.35155869 27.23474503 -126.7233505
v -33.35983658 27.22395897 -126.7233505
v -33.36503983 27.21139717 -126.7233505
v -33.36681366 27.19791603 -126.7233505
v -33.26442337 27.1844368 -126.7233505
v -33.26962662 27.171875 -126.7233505
v -33.27790451 27.16108894 -126.7233505
v -33.28868866 27.15281105 -126.7233505
v -33.30125046 27.1476078 -126.7233505
v -33.3147316 27.14583397 -126.7233505
v -33.32821274 27.1476078 -126.7233505
v -33.34077454 27.15281105 -126.7233505
v -33.35155869 27.16108894 -126.7233505
v -33.35983658 27.171875 -126.7233505
v -33.36503983 27.1844368 -126.7233505
vn 0.9990393519 -0.04382164776 0.0002631529933
vn 0.9763521552 0.2161713988 0.002526129829
vn 0.9536533356 -0.3009056747 0.001035058289
vn 0.8432331085 -0.5375280976 0.004635435529
vn 0.8870787024 0.4615617394 0.007218300365
vn 0.6754596829 -0.7373277545 0.01009820681
vn 0.7373687625 0.6753638387 0.01307807304
vn 0.4615342915 -0.8869788051 0.01595793478
vn 0.537484169 0.8430699706 0.01854186691
vn 0.2161259949 -0.9761471152 0.02064893581
vn 0.3008185625 0.9534243941 0.02213962004
vn -0.0438060239 -0.9987773299 0.02291025594
vn 0.0438060239 0.9987773299 0.02291025594
vn -0.3008185625 -0.9534243941 0.02213962004
vn -0.2161259949 0.9761471152 0.02064893581
vn -0.537484169 -0.8430699706 0.01854186691
vn -0.4615342915 0.8869788051 0.01595793478
vn -0.7373687625 -0.6753638387 0.01307807304
vn -0.6754596829 0.7373277545 0.01009820681
vn -0.8870787024 -0.4615617394 0.007218300365
vn -0.8432331085 0.5375280976 0.004635435529
vn -0.9763477445 -0.2161912918 0.002526362194
vn -0.9536576271 0.3008921742 0.001035011723
vn -0.9990394115 0.04381958395 0.0002631405951
vn 0.9990394115 0.04381958395 -0.0002631405951
vn 0.9536576271 0.3008921742 -0.001035011723
vn 0.8432331085 0.5375280976 -0.004635435529
vn 0.6754596829 0.7373277545 -0.01009820681
vn 0.4615342915 0.8869788051 -0.01595793478
vn 0.2161259949 0.9761471152 -0.02064893581
vn -0.0438060239 0.9987773299 -0.02291025594
vn -0.3008185625 0.9534243941 -0.02213962004
vn -0.537484169 0.8430699706 -0.01854186691
vn -0.7373687625 0.6753638387 -0.01307807304
vn -0.8870787024 0.4615617394 -0.007218300365
vn -0.9763521552 0.2161713988 -0.002526129829
vn -0.9990393519 -0.04382164776 -0.0002631529933
vn 0.9763477445 -0.2161912918 -0.002526362194
vn 0.8870787024 -0.4615617394 -0.007218300365
vn 0.7373687625 -0.6753638387 -0.01307807304
vn 0.537484169 -0.8430699706 -0.01854186691
vn 0.3008185625 -0.9534243941 -0.02213962004
vn 0.0438060239 -0.9987773299 -0.02291025594
vn -0.2161259949 -0.9761471152 -0.02064893581
vn -0.4615342915 -0.8869788051 -0.01595793478
vn -0.6754596829 -0.7373277545 -0.01009820681
vn -0.8432331085 -0.5375280976 -0.004635435529
vn -0.9536533356 -0.3009056747 -0.001035058289
f 1//1 2//2 3//3 
f 3//3 2//2 4//4 
f 4//4 2//2 5//5 
f 4//4 5//5 6//6 
f 6//6 5//5 7//7 
f 6//6 7//7 8//8 
f 8//8 7//7 9//9 
f 8//8 9//9 10//10 
f 10//10 9//9 11//11 
f 10//10 11//11 12//12 
f 12//12 11//11 13//13 
f 12//12 13//13 14//14 
f 14//14 13//13 15//15 
f 14//14 15//15 16//16 
f 16//16 15//15 17//17 
f 16//16 17//17 18//18 
f 18//18 17//17 19//19 
f 18//18 19//19 20//20 
f 20//20 19//19 21//21 
f 20//20 21//21 22//22 
f 22//22 21//21 23//23 
f 22//22 23//23 24//24 
f 1//1 25//25 2//2 
f 2//2 25//25 26//26 
f 2//2 26//26 5//5 
f 5//5 26//26 27//27 
f 5//5 27//27 7//7 
f 7//7 27//27 28//28 
f 7//7 28//28 9//9 
f 9//9 28//28 29//29 
f 9//9 29//29 11//11 
f 11//11 29//29 30//30 
f 11//11 30//30 13//13 
f 13//13 30//30 31//31 
f 13//13 31//31 15//15 
f 15//15 31//31 32//32 
f 15//15 32//32 17//17 
f 17//17 32//32 33//33 
f 17//17 33//33 19//19 
f 19//19 33//33 34//34 
f 19//19 34//34 21//21 
f 21//21 34//34 35//35 
f 21//21 35//35 23//23 
f 23//23 35//35 36//36 
f 23//23 36//36 24//24 
f 24//24 36//36 37//37 
f 25//25 38//38 26//26 
f 26//26 38//38 27//27 
f 27//27 38//38 39//39 
f 27//27 39//39 28//28 
f 28//28 39//39 40//40 
f 28//28 40//40 29//29 
f 29//29 40//40 41//41 
f 29//29 41//41 30//30 
f 30//30 41//41 42//42 
f 30//30 42//42 31//31 
f 31//31 42//42 43//43 
f 31//31 43//43 32//32 
f 32//32 43//43 44//44 
f 32//32 44//44 33//33 
f 33//33 44//44 45//45 
f 33//33 45//45 34//34 
f 34//34 45//45 46//46 
f 34//34 46//46 35//35 
f 35//35 46//46 47//47 
f 35//35 47//47 36//36 
f 36//36 47//47 48//48 
f 36//36 48//48 37//37 
f 24//24 37//37 22//22 
f 22//22 37//37 48//48 
f 22//22 48//48 20//20 
f 20//20 48//48 47//47 
f 20//20 47//47 18//18 
f 18//18 47//47 46//46 
f 18//18 46//46 16//16 
f 16//16 46//46 45//45 
f 16//16 45//45 14//14 
f 14//14 45//45 44//44 
f 14//14 44//44 12//12 
f 12//12 44//44 43//43 
f 12//12 43//43 10//10 
f 10//10 43//43 42//42 
f 10//10 42//42 8//8 
f 8//8 42//42 41//41 
f 8//8 41//41 6//6 
f 6//6 41//41 40//40 
f 6//6 40//40 4//4 
f 4//4 40//40 39//39 
f 4//4 39//39 3//3 
f 3//3 39//39 38//38 
f 3//3 38//38 1//1 
f 1//1 38//38 25//25 
