v -40.2834816 -3.895833254 -216.7233429
v -40.2834816 -25.75 -216.7233429
v -40.7834816 -3.895833254 -216.7233429
v -40.7834816 -25.75 -216.7233429
v -40.7834816 -25.75 -205.9733429
v -40.7834816 -3.895833254 -205.9733429
v -40.2834816 -3.895833254 -205.9733429
v -40.2834816 -25.75 -205.9733429
vn 0.999468267 0.0228667669 -0.02324344777
vn 0.9954429269 -0.02277467214 -0.09259934723
vn -0.9954429269 0.02277467214 -0.09259934723
vn -0.999468267 -0.0228667669 -0.02324344777
vn -0.9954429269 -0.02277467214 0.09259934723
vn -0.999468267 0.0228667669 0.02324344777
vn 0.9954429269 0.02277467214 0.09259934723
vn 0.999468267 -0.0228667669 0.02324344777
f 1//1 2//2 3//3 
f 3//3 2//2 4//4 
f 5//5 6//6 4//4 
f 4//4 6//6 3//3 
f 7//7 1//1 6//6 
f 6//6 1//1 3//3 
f 2//2 8//8 4//4 
f 4//4 8//8 5//5 
f 2//2 1//1 8//8 
f 8//8 1//1 7//7 
f 8//8 7//7 5//5 
f 5//5 7//7 6//6 
