v 44.43121719 46.45819855 72.56832123
v 44.43121719 39.04166794 72.56832123
v 44.43121719 46.45819855 72.65164948
v 44.43121719 39.04166794 72.65164948
v 48.03514481 39.04166794 72.65164948
v 48.03514481 46.45819855 72.65164948
v 48.03514481 46.45819855 72.56832123
v 48.03514481 39.04166794 72.56832123
vn -0.01155980024 0.005617273506 -0.999917388
vn -0.0461820215 -0.02244131081 -0.9986809492
vn -0.0461820215 0.02244131081 0.9986809492
vn -0.01155980024 -0.005617273506 0.999917388
vn 0.0461820215 -0.02244131081 0.9986809492
vn 0.01155980024 0.005617273506 0.999917388
vn 0.0461820215 0.02244131081 -0.9986809492
vn 0.01155980024 -0.005617273506 -0.999917388
f 1//1 2//2 3//3 
f 3//3 2//2 4//4 
f 5//5 6//6 4//4 
f 4//4 6//6 3//3 
f 1//1 3//3 7//7 
f 7//7 3//3 6//6 
f 8//8 5//5 2//2 
f 2//2 5//5 4//4 
f 2//2 1//1 8//8 
f 8//8 1//1 7//7 
f 8//8 7//7 5//5 
f 5//5 7//7 6//6 
