v 21.08834076 32.66838837 -125.5527115
v 21.08834076 32.45819855 -125.5527115
v 17.82951355 32.66838837 -127.322113
v 17.82951355 32.45819855 -127.322113
v 17.82972145 32.75 -127.3224945
v 21.08854866 32.75 -125.553093
v 17.82753754 32.72293854 -127.3184738
v 21.08636475 32.72293854 -125.5490723
v 21.08629417 32.69549561 -125.5489426
v 17.82746696 32.69549561 -127.3183441
v 17.58099365 32.45819855 -126.8643951
v 17.58099365 32.75 -126.8643951
v 20.83982086 32.75 -125.0949936
v 20.83982086 32.45819855 -125.0949936
vn 0.7176340222 0.01724679582 -0.6962068081
vn 0.2015984803 -0.9270125031 -0.3162370622
vn 0.3355914056 0.01785335504 -0.9418384433
vn 0.1321950108 -0.9260542393 -0.353479892
vn 0.01849490404 0.9986042976 -0.04947135225
vn 0.02818719111 0.9986245036 -0.04421009496
vn 0.4131003916 -0.08612314612 -0.9066040516
vn 0.5921965241 -0.0855082199 -0.801243782
vn 0.5350663066 0.07551655918 -0.8414281011
vn 0.3513819873 0.07498684525 -0.9332243204
vn -0.2846223414 -0.8708928227 0.4006692171
vn -0.1708894521 0.9618671536 0.2135610431
vn -0.2964428663 0.6646693945 0.6858106256
vn -0.1285409033 -0.8663887978 0.482542932
f 1//1 2//2 3//3 
f 3//3 2//2 4//4 
f 5//5 6//6 7//7 
f 7//7 6//6 8//8 
f 7//7 8//8 9//9 
f 1//1 3//3 9//9 
f 9//9 3//3 10//10 
f 9//9 10//10 7//7 
f 4//4 11//11 3//3 
f 3//3 11//11 12//12 
f 3//3 12//12 10//10 
f 10//10 12//12 7//7 
f 7//7 12//12 5//5 
f 13//13 6//6 12//12 
f 12//12 6//6 5//5 
f 14//14 11//11 2//2 
f 2//2 11//11 4//4 
f 2//2 1//1 14//14 
f 14//14 1//1 13//13 
f 13//13 1//1 9//9 
f 13//13 9//9 8//8 
f 8//8 6//6 13//13 
f 14//14 13//13 11//11 
f 11//11 13//13 12//12 
