v -14.30953598 46.66838837 -127.7323456
v -14.30953598 46.45819855 -127.7323456
v -16.77393723 46.66838837 -130.3292847
v -16.77393723 46.45819855 -130.3292847
v -16.77362061 46.75 -130.3295898
v -14.30922031 46.75 -127.7326508
v -16.7769413 46.72293854 -130.3264313
v -14.31254101 46.72293854 -127.7294998
v -14.31264687 46.69549561 -127.729393
v -16.77704811 46.69549561 -130.3263397
v -17.15173721 46.45819855 -129.9707642
v -17.15173721 46.75 -129.9707642
v -14.68733597 46.75 -127.3738327
v -14.68733597 46.45819855 -127.3738327
vn 0.9020776153 0.01719180867 -0.4312312603
vn 0.4865289927 -0.7773430943 -0.3987821937
vn 0.605879724 0.0178264305 -0.7953565121
vn 0.1236173809 -0.979837656 -0.1569614708
vn 0.01629305631 0.999653101 -0.02069300413
vn 0.08150201291 0.9944324493 -0.06679467112
vn 0.6712040305 -0.0861530304 -0.7362491488
vn 0.8136404157 -0.08552210033 -0.5750436783
vn 0.7704535127 0.07550659031 -0.6330087781
vn 0.6187837124 0.0749796778 -0.7819749117
vn -0.6028381586 -0.6629630327 0.4439213872
vn -0.4150632322 0.8690169454 0.2693177164
vn -0.3227595687 0.8716890216 0.368760854
vn -0.1488577724 -0.9607447386 0.2341173142
f 1//1 2//2 3//3 
f 3//3 2//2 4//4 
f 5//5 6//6 7//7 
f 7//7 6//6 8//8 
f 7//7 8//8 9//9 
f 1//1 3//3 9//9 
f 9//9 3//3 10//10 
f 9//9 10//10 7//7 
f 4//4 11//11 3//3 
f 3//3 11//11 12//12 
f 3//3 12//12 10//10 
f 10//10 12//12 7//7 
f 7//7 12//12 5//5 
f 6//6 5//5 13//13 
f 13//13 5//5 12//12 
f 2//2 14//14 4//4 
f 4//4 14//14 11//11 
f 2//2 1//1 14//14 
f 14//14 1//1 13//13 
f 13//13 1//1 9//9 
f 13//13 9//9 8//8 
f 8//8 6//6 13//13 
f 14//14 13//13 11//11 
f 11//11 13//13 12//12 
