v 3.684617281 24.75 -134.8021393
v 3.684617281 24.83333397 -134.8021393
v 6.943445206 24.75 -133.0327454
v 6.943445206 24.83333397 -133.0327454
v 3.53365159 24.75 -134.5240936
v 6.792479515 24.75 -132.7546997
v 6.792479515 24.84370804 -132.7546997
v 3.53365159 24.84370804 -134.5240936
v 6.794961929 24.81261635 -132.7592621
v 3.536134243 24.81261635 -134.5286713
v 3.536134243 24.78109169 -134.5286713
v 6.794961929 24.78109169 -132.7592621
v 3.519963264 24.84370804 -134.4988861
v 6.778790951 24.84370804 -132.7294769
v 3.519963264 25.04166603 -134.4988861
v 6.778790951 25.04166603 -132.7294769
v 7.027312279 24.83333397 -133.1872101
v 7.027312279 25.04166603 -133.1872101
v 3.768484354 25.04166603 -134.956604
v 3.768484354 24.83333397 -134.956604
vn 0.09558416903 -0.9665984511 -0.2378046811
vn 0.04955241084 -0.8900030255 -0.4532539546
vn 0.134475559 -0.9669134021 -0.2167828679
vn 0.4837559164 -0.8526608348 -0.197356835
vn -0.02732110396 -0.9987660646 0.04147142172
vn -0.08755820245 -0.9799330235 0.1790665239
vn 0.049371887 -0.8577228785 0.5117361546
vn -0.6298161149 -0.5116973519 0.5843778253
vn -0.4381841123 -0.08269640058 0.8950731754
vn -0.5474871993 -0.08258467913 0.832728982
vn -0.5588136911 0.0823777914 0.825191617
vn -0.2979568541 0.08112198114 0.9511261582
vn -0.4755871594 -0.1434352696 0.8678958416
vn -0.4654800296 -0.1434655339 0.8733533025
vn -0.1284081191 0.9814292192 0.1425061077
vn -0.2242182642 0.7940105796 0.5650427938
vn 0.3805578053 -0.6447308064 -0.662946403
vn 0.1258677244 0.9799166322 -0.154663071
vn 0.2460884154 0.7795304656 -0.5759972334
vn 0.3326454163 -0.6444138885 -0.6885330677
f 1//1 2//2 3//3 
f 3//3 2//2 4//4 
f 1//1 3//3 5//5 
f 5//5 3//3 6//6 
f 7//7 8//8 9//9 
f 9//9 8//8 10//10 
f 9//9 10//10 11//11 
f 5//5 6//6 11//11 
f 11//11 6//6 12//12 
f 11//11 12//12 9//9 
f 8//8 7//7 13//13 
f 13//13 7//7 14//14 
f 15//15 13//13 16//16 
f 16//16 13//13 14//14 
f 17//17 18//18 4//4 
f 4//4 18//18 16//16 
f 4//4 16//16 7//7 
f 7//7 16//16 14//14 
f 7//7 9//9 4//4 
f 4//4 9//9 12//12 
f 4//4 12//12 3//3 
f 3//3 12//12 6//6 
f 19//19 15//15 18//18 
f 18//18 15//15 16//16 
f 20//20 17//17 2//2 
f 2//2 17//17 4//4 
f 20//20 2//2 19//19 
f 19//19 2//2 15//15 
f 15//15 2//2 8//8 
f 15//15 8//8 13//13 
f 1//1 11//11 2//2 
f 2//2 11//11 10//10 
f 2//2 10//10 8//8 
f 1//1 5//5 11//11 
f 20//20 19//19 17//17 
f 17//17 19//19 18//18 
