v 40.03514481 24.75 72.55924988
v 40.03514481 24.83333397 72.55924988
v 36.61875153 24.75 72.55924988
v 36.61875153 24.83333397 72.55924988
v 40.03514481 24.75 72.24285889
v 36.61875153 24.75 72.24285889
v 36.61875153 24.84370804 72.24285889
v 40.03514481 24.84370804 72.24285889
v 36.61875153 24.81261635 72.24806213
v 40.03514481 24.81261635 72.24806213
v 40.03514481 24.78109169 72.24806213
v 36.61875153 24.78109169 72.24806213
v 40.03514481 24.84370804 72.21417236
v 36.61875153 24.84370804 72.21417236
v 40.03514481 25.04166603 72.21417236
v 36.61875153 25.04166603 72.21417236
v 36.61875153 24.83333397 72.73500824
v 36.61875153 25.04166603 72.73500824
v 40.03514481 24.83333397 72.73500824
v 40.03514481 25.04166603 72.73500824
vn 0.01640213467 -0.9913060665 0.1305496544
vn 0.2923592031 -0.693919301 0.6580289602
vn -0.02926556207 -0.8843705058 0.465867281
vn -0.2008016407 -0.953211844 0.2259776592
vn 0.00920667313 -0.995003581 -0.09941376001
vn -0.004603483249 -0.9950352311 -0.09941691905
vn -0.4437152147 -0.6603607535 -0.6058386564
vn 0.2403081506 -0.7152789235 -0.6562225223
vn -0.04559051991 -0.08272573352 -0.995528996
vn 0.09089808911 -0.08246901631 -0.9924396276
vn 0.1055742353 0.08234903961 -0.9909958243
vn -0.2077044398 0.08100584894 -0.9748317599
vn 0.004187349696 -0.07226600498 -0.9973766208
vn -0.008064578287 -0.2783597708 -0.9604430199
vn 0.04867168516 0.9812531471 -0.1864761114
vn -0.0787307322 0.7936316133 -0.6032829881
vn -0.02369385213 -0.3885504305 0.9211227894
vn -0.03995524719 0.9797980785 0.195957467
vn 0.02622047439 -0.8599680066 0.5096739531
vn 0.06355770677 0.7792933583 0.6234278679
f 1//1 2//2 3//3 
f 3//3 2//2 4//4 
f 5//5 1//1 6//6 
f 6//6 1//1 3//3 
f 7//7 8//8 9//9 
f 9//9 8//8 10//10 
f 9//9 10//10 11//11 
f 5//5 6//6 11//11 
f 11//11 6//6 12//12 
f 11//11 12//12 9//9 
f 13//13 8//8 14//14 
f 14//14 8//8 7//7 
f 15//15 13//13 16//16 
f 16//16 13//13 14//14 
f 17//17 18//18 4//4 
f 4//4 18//18 16//16 
f 4//4 16//16 7//7 
f 7//7 16//16 14//14 
f 7//7 9//9 4//4 
f 4//4 9//9 12//12 
f 4//4 12//12 3//3 
f 3//3 12//12 6//6 
f 2//2 19//19 4//4 
f 4//4 19//19 17//17 
f 20//20 15//15 18//18 
f 18//18 15//15 16//16 
f 19//19 2//2 20//20 
f 20//20 2//2 15//15 
f 15//15 2//2 8//8 
f 15//15 8//8 13//13 
f 1//1 11//11 2//2 
f 2//2 11//11 10//10 
f 2//2 10//10 8//8 
f 1//1 5//5 11//11 
f 19//19 20//20 17//17 
f 17//17 20//20 18//18 
