v 19.72974014 32.45819855 96.07219696
v 19.72974014 24.04166603 96.07219696
v 19.80297661 32.45819855 96.11196136
v 19.80297661 24.04166603 96.11196136
v 21.57237434 24.04166603 92.85313416
v 21.57237434 32.45819855 92.85313416
v 21.49913979 32.45819855 92.81336975
v 21.49913979 24.04166603 92.81336975
vn -0.8841120601 0.004950323142 -0.4672487676
vn -0.8993117213 -0.009890921414 -0.4371963143
vn 0.8563383222 0.01977874897 0.5160363317
vn 0.8733576536 -0.009900184348 0.4869788885
vn 0.8993114829 -0.009890717454 0.4371967316
vn 0.8841121197 0.004950223025 0.467248559
vn -0.8563385606 0.01977875456 -0.516035974
vn -0.8733575344 -0.009900183417 -0.4869790673
f 1//1 2//2 3//3 
f 3//3 2//2 4//4 
f 5//5 6//6 4//4 
f 4//4 6//6 3//3 
f 1//1 3//3 7//7 
f 7//7 3//3 6//6 
f 2//2 8//8 4//4 
f 4//4 8//8 5//5 
f 2//2 1//1 8//8 
f 8//8 1//1 7//7 
f 8//8 7//7 5//5 
f 5//5 7//7 6//6 
