v -10.25959969 20.08333397 143.4016571
v -10.25959969 24.25 143.4016571
v -10.18147469 20.08333397 143.4016571
v -10.18147469 24.25 143.4016571
v -10.18147469 20.08333397 143.2766571
v -10.18147469 24.25 143.2766571
v -10.25959969 20.08333397 143.2766571
v -10.25959969 24.25 143.2766571
v -10.25959969 20.08333397 142.9433136
v -10.25959969 24.25 142.9433136
v -10.00959969 20.08333397 142.9433136
v -10.00959969 24.25 142.9433136
v -10.00959969 20.08333397 143.4537354
v -10.00959969 24.25 143.4537354
v -10.05126667 20.08333397 143.4537354
v -10.05126667 24.25 143.4537354
v -10.25959969 24.25 143.4641571
v -10.05126667 24.25 143.4641571
v -10.25959969 20.08333397 143.4641571
v -10.05126667 20.08333397 143.4641571
vn -0.847971499 -0.007949734107 -0.5299822092
vn -0.3713816702 0.006963407621 -0.9284541607
vn -0.6241283417 -0.04258448258 -0.7801604867
vn -0.9539743662 0.03254499286 -0.298116982
vn -0.9389221072 -0.1798166782 0.2934131622
vn -0.6075452566 0.2327067703 0.7594316006
vn -0.9053334594 -0.01697500423 0.4243620932
vn -0.9931608438 0.009310884401 0.1163824797
vn -0.9356970191 -0.03684307635 -0.3508756757
vn -0.5541834235 0.04364195094 -0.8312497139
vn 0.7130823135 -0.05983029678 -0.698522687
vn 0.9704924822 0.04071399197 -0.2376692593
vn 0.999155581 -0.004995816853 0.04078176618
vn 0.986884892 0.009868925437 0.1611236781
vn 0.1181146353 -0.3066567183 0.9444631338
vn 0.3868738711 0.5022132397 0.773375988
vn -0.5144158602 0.01768302917 0.8573585153
vn 0.02500356734 0.008278759196 0.999653101
vn -0.1483329535 -0.01019788161 0.9888848662
vn 0.09953845292 -0.01647874527 0.9948972464
f 1//1 2//2 3//3 
f 3//3 2//2 4//4 
f 3//3 4//4 5//5 
f 5//5 4//4 6//6 
f 5//5 6//6 7//7 
f 7//7 6//6 8//8 
f 7//7 8//8 9//9 
f 9//9 8//8 10//10 
f 9//9 10//10 11//11 
f 11//11 10//10 12//12 
f 11//11 12//12 13//13 
f 13//13 12//12 14//14 
f 13//13 14//14 15//15 
f 15//15 14//14 16//16 
f 2//2 17//17 4//4 
f 4//4 17//17 18//18 
f 4//4 18//18 16//16 
f 14//14 12//12 16//16 
f 16//16 12//12 6//6 
f 16//16 6//6 4//4 
f 12//12 10//10 6//6 
f 6//6 10//10 8//8 
f 19//19 17//17 1//1 
f 1//1 17//17 2//2 
f 15//15 16//16 20//20 
f 20//20 16//16 18//18 
f 1//1 3//3 19//19 
f 19//19 3//3 20//20 
f 20//20 3//3 15//15 
f 15//15 3//3 5//5 
f 15//15 5//5 11//11 
f 11//11 5//5 9//9 
f 9//9 5//5 7//7 
f 11//11 13//13 15//15 
f 20//20 18//18 19//19 
f 19//19 18//18 17//17 
