v 9.686368942 46.75 113.8276443
v 9.686368942 38.75 113.8276443
v 10.14447021 46.75 114.0763702
v 10.14447021 38.75 114.0763702
v 10.18302822 38.75 114.0044403
v 10.18302822 46.75 114.0044403
v 10.16632462 38.75 114.0262146
v 10.16632462 46.75 114.0262146
v 10.15335846 46.75 114.0504074
v 10.15335846 38.75 114.0504074
v 9.825605392 38.75 113.5712051
v 10.28332233 38.75 113.819725
v 10.28332233 46.75 113.819725
v 9.825605392 46.75 113.5712051
vn -0.972153306 0.04842706025 0.2292874604
vn -0.6959420443 -0.03502250835 0.717243433
vn -0.4540905058 0.001697984524 0.890953958
vn -0.3821593523 -0.00342358998 0.9240900874
vn 0.8736816645 -0.03440405056 0.4852800369
vn 0.861417532 0.05813492835 0.5045593381
vn 0.8397555947 -0.03191722557 0.5420256853
vn 0.8384753466 0.06373713166 0.5411993265
vn 0.9162732363 0.03230175003 0.3992492557
vn 0.914842546 -0.06450261921 0.3986258507
vn -0.3378616571 -0.02427956462 -0.9408825636
vn 0.6412529945 -0.0307399109 -0.7667135
vn 0.9221641421 0.04877037928 -0.3837118149
vn 0.2223802954 0.01755880378 -0.974801898
f 1//1 2//2 3//3 
f 3//3 2//2 4//4 
f 5//5 6//6 7//7 
f 7//7 6//6 8//8 
f 7//7 8//8 9//9 
f 3//3 4//4 9//9 
f 9//9 4//4 10//10 
f 9//9 10//10 7//7 
f 11//11 12//12 2//2 
f 2//2 12//12 5//5 
f 2//2 5//5 7//7 
f 7//7 10//10 2//2 
f 2//2 10//10 4//4 
f 6//6 5//5 13//13 
f 13//13 5//5 12//12 
f 14//14 11//11 1//1 
f 1//1 11//11 2//2 
f 14//14 1//1 13//13 
f 13//13 1//1 6//6 
f 6//6 1//1 8//8 
f 8//8 1//1 9//9 
f 9//9 1//1 3//3 
f 13//13 12//12 14//14 
f 14//14 12//12 11//11 
