v 14.15034485 32.66838837 106.6975555
v 14.15034485 32.45819855 106.6975555
v 15.91974354 32.66838837 103.4387283
v 15.91974354 32.45819855 103.4387283
v 15.92012691 32.75 103.4389343
v 14.15072823 32.75 106.6977615
v 15.91610432 32.72293854 103.4367523
v 14.14670467 32.72293854 106.6955795
v 14.14657593 32.69549561 106.6955032
v 15.91597557 32.69549561 103.436676
v 15.4620266 32.45819855 103.1902084
v 15.4620266 32.75 103.1902084
v 13.69262791 32.75 106.4490356
v 13.69262791 32.45819855 106.4490356
vn 0.696207583 0.01726061292 0.7176329494
vn 0.3162375987 -0.9270123243 0.2015984952
vn 0.9418384433 0.01786137372 0.3355909884
vn 0.3534805179 -0.9260540009 0.1321950555
vn 0.04947146028 0.9986042976 0.01849490032
vn 0.04421021044 0.9986245036 0.02818723209
vn 0.9066001773 -0.08617516607 0.4130980074
vn 0.8012391925 -0.08557719737 0.5921927691
vn 0.8414282799 0.07552359253 0.5350651145
vn 0.9332243204 0.07498684525 0.3513820469
vn -0.4006698728 -0.8708925247 -0.2846223116
vn -0.2135613114 0.9618671536 -0.1708893329
vn -0.6858106256 0.6646695733 -0.2964424491
vn -0.4825436473 -0.8663883805 -0.1285409331
f 1//1 2//2 3//3 
f 3//3 2//2 4//4 
f 5//5 6//6 7//7 
f 7//7 6//6 8//8 
f 7//7 8//8 9//9 
f 1//1 3//3 9//9 
f 9//9 3//3 10//10 
f 9//9 10//10 7//7 
f 4//4 11//11 3//3 
f 3//3 11//11 12//12 
f 3//3 12//12 10//10 
f 10//10 12//12 7//7 
f 7//7 12//12 5//5 
f 13//13 6//6 12//12 
f 12//12 6//6 5//5 
f 14//14 11//11 2//2 
f 2//2 11//11 4//4 
f 2//2 1//1 14//14 
f 14//14 1//1 13//13 
f 13//13 1//1 9//9 
f 13//13 9//9 8//8 
f 8//8 6//6 13//13 
f 14//14 13//13 11//11 
f 11//11 13//13 12//12 
