v 24.43880272 32.66838837 -123.7335587
v 24.43880272 32.45819855 -123.7335587
v 21.34478378 32.66838837 -125.413475
v 21.34478378 32.45819855 -125.413475
v 21.34499168 32.75 -125.4138565
v 24.43901062 32.75 -123.7339401
v 21.34280777 32.72293854 -125.4098358
v 24.43682671 32.72293854 -123.7299194
v 24.43675613 32.69549561 -123.7297897
v 21.3427372 32.69549561 -125.4097061
v 21.09626389 32.45819855 -124.9557571
v 21.09626389 32.75 -124.9557571
v 24.19028282 32.75 -123.2758408
v 24.19028282 32.45819855 -123.2758408
vn 0.7280673981 0.01716339402 -0.6852906346
vn 0.2028205842 -0.9269775152 -0.3155574501
vn 0.3279317021 0.01783009619 -0.9445331693
vn 0.1297181547 -0.9259147048 -0.3547606766
vn 0.01815066859 0.9986013174 -0.04965808243
vn 0.02835923992 0.9986237884 -0.04411663488
vn 0.4097356796 -0.08610031009 -0.9081318378
vn 0.5980380177 -0.08541928232 -0.7969028354
vn 0.5381444097 0.07549706101 -0.8394646049
vn 0.3446410596 0.07491055131 -0.9357408881
vn -0.2873270512 -0.8707273602 0.3990952075
vn -0.1731272936 0.9617446065 0.2123069763
vn -0.2932478786 0.6645076275 0.6873393059
vn -0.1229579076 -0.8657377958 0.4851592183
f 1//1 2//2 3//3 
f 3//3 2//2 4//4 
f 5//5 6//6 7//7 
f 7//7 6//6 8//8 
f 7//7 8//8 9//9 
f 1//1 3//3 9//9 
f 9//9 3//3 10//10 
f 9//9 10//10 7//7 
f 4//4 11//11 3//3 
f 3//3 11//11 12//12 
f 3//3 12//12 10//10 
f 10//10 12//12 7//7 
f 7//7 12//12 5//5 
f 13//13 6//6 12//12 
f 12//12 6//6 5//5 
f 14//14 11//11 2//2 
f 2//2 11//11 4//4 
f 2//2 1//1 14//14 
f 14//14 1//1 13//13 
f 13//13 1//1 9//9 
f 13//13 9//9 8//8 
f 8//8 6//6 13//13 
f 14//14 13//13 11//11 
f 11//11 13//13 12//12 
