v -17.09572983 46.45819855 -130.4261932
v -17.09572983 39.04166794 -130.4261932
v -17.03528214 46.45819855 -130.483551
v -17.03528214 39.04166794 -130.483551
v -19.58872986 39.04166794 -133.1743317
v -19.58872986 46.45819855 -133.1743317
v -19.64917755 46.45819855 -133.1169739
v -19.64917755 39.04166794 -133.1169739
vn -0.7175533175 0.01123424899 0.6964129806
vn -0.6935747862 -0.02244300209 0.7200349569
vn 0.7554919124 0.01122366264 -0.655061841
vn 0.7330491543 -0.005617395509 -0.6801524758
vn 0.6935747862 -0.02244300209 -0.7200349569
vn 0.7175533175 0.01123424899 -0.6964129806
vn -0.7554919124 0.01122366264 0.655061841
vn -0.7330491543 -0.005617395509 0.6801524758
f 1//1 2//2 3//3 
f 3//3 2//2 4//4 
f 5//5 6//6 4//4 
f 4//4 6//6 3//3 
f 7//7 1//1 6//6 
f 6//6 1//1 3//3 
f 8//8 5//5 2//2 
f 2//2 5//5 4//4 
f 2//2 1//1 8//8 
f 8//8 1//1 7//7 
f 8//8 7//7 5//5 
f 5//5 7//7 6//6 
