v 44.13941193 38.75 72.55924988
v 44.13941193 38.83333206 72.55924988
v 40.61875153 38.75 72.55924988
v 40.61875153 38.83333206 72.55924988
v 44.13941193 38.75 72.24285889
v 40.61875153 38.75 72.24285889
v 40.61875153 38.84370804 72.24285889
v 44.13941193 38.84370804 72.24285889
v 40.61875153 38.81261826 72.24806213
v 44.13941193 38.81261826 72.24806213
v 44.13941193 38.7810936 72.24806213
v 40.61875153 38.7810936 72.24806213
v 44.13941193 38.84370804 72.21417236
v 40.61875153 38.84370804 72.21417236
v 44.13941193 39.04166794 72.21417236
v 40.61875153 39.04166794 72.21417236
v 40.61875153 38.83333206 72.73500824
v 40.61875153 39.04166794 72.73500824
v 44.13941193 38.83333206 72.73500824
v 44.13941193 39.04166794 72.73500824
vn 0.01591650769 -0.9913142323 0.130547747
vn 0.2844158411 -0.6956627965 0.6596672535
vn -0.02839969844 -0.8843970299 0.4658705592
vn -0.1950860918 -0.9543360472 0.2262389958
vn 0.008934575133 -0.9950054288 -0.09942004085
vn -0.004467421211 -0.9950352311 -0.09942302108
vn -0.4330790341 -0.6642023921 -0.6093256474
vn 0.2335913032 -0.7165061831 -0.6573081613
vn -0.04424295947 -0.08273325115 -0.9955891371
vn 0.08822724968 -0.08249139786 -0.9926787615
vn 0.1024778634 0.08237336576 -0.9913187623
vn -0.2018014789 0.08110564947 -0.9760625362
vn 0.00406334037 -0.07226534933 -0.9973771572
vn -0.007825760171 -0.2783578336 -0.9604455829
vn 0.04723417759 0.9813206196 -0.1864907295
vn -0.0764137283 0.7937722802 -0.6033957601
vn -0.02299257927 -0.3885507584 0.9211404324
vn -0.03877443075 0.9798430204 0.1959700286
vn 0.02544479072 -0.8599811792 0.5096910596
vn 0.06168335304 0.7793796062 0.6235082746
f 1//1 2//2 3//3 
f 3//3 2//2 4//4 
f 5//5 1//1 6//6 
f 6//6 1//1 3//3 
f 7//7 8//8 9//9 
f 9//9 8//8 10//10 
f 9//9 10//10 11//11 
f 5//5 6//6 11//11 
f 11//11 6//6 12//12 
f 11//11 12//12 9//9 
f 13//13 8//8 14//14 
f 14//14 8//8 7//7 
f 15//15 13//13 16//16 
f 16//16 13//13 14//14 
f 17//17 18//18 4//4 
f 4//4 18//18 16//16 
f 4//4 16//16 7//7 
f 7//7 16//16 14//14 
f 7//7 9//9 4//4 
f 4//4 9//9 12//12 
f 4//4 12//12 3//3 
f 3//3 12//12 6//6 
f 2//2 19//19 4//4 
f 4//4 19//19 17//17 
f 20//20 15//15 18//18 
f 18//18 15//15 16//16 
f 19//19 2//2 20//20 
f 20//20 2//2 15//15 
f 15//15 2//2 8//8 
f 15//15 8//8 13//13 
f 1//1 11//11 2//2 
f 2//2 11//11 10//10 
f 2//2 10//10 8//8 
f 1//1 5//5 11//11 
f 19//19 20//20 17//17 
f 17//17 20//20 18//18 
