v 10.71509743 24.75 -130.9848938
v 10.71509743 24.83333397 -130.9848938
v 13.97392464 24.75 -129.2154999
v 13.97392464 24.83333397 -129.2154999
v 10.56413174 24.75 -130.7068481
v 13.82295895 24.75 -128.9374542
v 13.82295895 24.84370804 -128.9374542
v 10.56413174 24.84370804 -130.7068481
v 13.82544231 24.81261635 -128.9420319
v 10.56661415 24.81261635 -130.7114258
v 10.56661415 24.78109169 -130.7114258
v 13.82544231 24.78109169 -128.9420319
v 10.5504427 24.84370804 -130.6816406
v 13.80927086 24.84370804 -128.9122467
v 10.5504427 25.04166603 -130.6816406
v 13.80927086 25.04166603 -128.9122467
v 14.05779171 24.83333397 -129.3699646
v 14.05779171 25.04166603 -129.3699646
v 10.7989645 25.04166603 -131.1393585
v 10.7989645 24.83333397 -131.1393585
vn 0.09558418393 -0.9665984511 -0.2378046662
vn 0.04955241084 -0.8900030255 -0.4532539546
vn 0.1344751716 -0.9669134021 -0.2167830765
vn 0.483751744 -0.852662921 -0.1973579675
vn -0.02732110396 -0.9987660646 0.04147141054
vn -0.08756173402 -0.9799312353 0.1790745854
vn 0.04936048761 -0.8577252626 0.5117332935
vn -0.6297557354 -0.5118344426 0.5843228698
vn -0.4381786287 -0.08280930668 0.8950654268
vn -0.5474843979 -0.08258263767 0.8327310085
vn -0.5588065386 0.08248587698 0.8251855969
vn -0.2979545593 0.08134543896 0.9511078
vn -0.4755862653 -0.1434028447 0.8679016829
vn -0.4654845893 -0.1433985084 0.8733618855
vn -0.1284090877 0.9814288616 0.1425079703
vn -0.2242219746 0.794002831 0.5650521517
vn 0.3805578649 -0.6447308064 -0.6629463434
vn 0.1258685589 0.9799162149 -0.1546650678
vn 0.2460883558 0.7795305848 -0.575996995
vn 0.3326454759 -0.6444138885 -0.6885330677
f 1//1 2//2 3//3 
f 3//3 2//2 4//4 
f 1//1 3//3 5//5 
f 5//5 3//3 6//6 
f 7//7 8//8 9//9 
f 9//9 8//8 10//10 
f 9//9 10//10 11//11 
f 5//5 6//6 11//11 
f 11//11 6//6 12//12 
f 11//11 12//12 9//9 
f 8//8 7//7 13//13 
f 13//13 7//7 14//14 
f 15//15 13//13 16//16 
f 16//16 13//13 14//14 
f 17//17 18//18 4//4 
f 4//4 18//18 16//16 
f 4//4 16//16 7//7 
f 7//7 16//16 14//14 
f 7//7 9//9 4//4 
f 4//4 9//9 12//12 
f 4//4 12//12 3//3 
f 3//3 12//12 6//6 
f 19//19 15//15 18//18 
f 18//18 15//15 16//16 
f 20//20 17//17 2//2 
f 2//2 17//17 4//4 
f 20//20 2//2 19//19 
f 19//19 2//2 15//15 
f 15//15 2//2 8//8 
f 15//15 8//8 13//13 
f 1//1 11//11 2//2 
f 2//2 11//11 10//10 
f 2//2 10//10 8//8 
f 1//1 5//5 11//11 
f 20//20 19//19 17//17 
f 17//17 19//19 18//18 
