v 10.27604961 32.45819855 113.4837341
v 10.27604961 24.04166603 113.4837341
v 10.34928417 32.45819855 113.5234985
v 10.34928417 24.04166603 113.5234985
v 12.0291996 24.04166603 110.4294739
v 12.0291996 32.45819855 110.4294739
v 11.95596504 32.45819855 110.3897171
v 11.95596504 24.04166603 110.3897171
vn -0.8843913674 0.004950188566 -0.4667198658
vn -0.9003531933 -0.009889627807 -0.4350475371
vn 0.8551038504 0.01977592893 0.5180794597
vn 0.8730663657 -0.00989979133 0.4875008464
vn 0.9003527761 -0.009889233857 0.4350483716
vn 0.8843916059 0.004949977156 0.4667194188
vn -0.8551044464 0.01977589354 -0.518078506
vn -0.8730661273 -0.009899800643 -0.4875012934
f 1//1 2//2 3//3 
f 3//3 2//2 4//4 
f 5//5 6//6 4//4 
f 4//4 6//6 3//3 
f 1//1 3//3 7//7 
f 7//7 3//3 6//6 
f 2//2 8//8 4//4 
f 4//4 8//8 5//5 
f 2//2 1//1 8//8 
f 8//8 1//1 7//7 
f 8//8 7//7 5//5 
f 5//5 7//7 6//6 
