v -77.35980225 37.91145706 152.3391571
v -77.35980225 32.75520706 152.3391571
v -77.35980225 37.91145706 152.2558136
v -77.35980225 32.75520706 152.2558136
v -81.16201019 32.75520706 152.2558136
v -81.16201019 37.91145706 152.2558136
v -81.16201019 37.91145706 152.3391571
v -81.16201019 32.75520706 152.3391571
vn 0.01095886622 0.008081045002 0.9999073148
vn 0.04377463832 -0.03227932751 0.9985198379
vn 0.04377463832 0.03227932751 -0.9985198379
vn 0.01095886622 -0.008081045002 -0.9999073148
vn -0.04377463832 -0.03227932751 -0.9985198379
vn -0.01095886622 0.008081045002 -0.9999073148
vn -0.04377463832 0.03227932751 0.9985198379
vn -0.01095886622 -0.008081045002 0.9999073148
f 1//1 2//2 3//3 
f 3//3 2//2 4//4 
f 5//5 6//6 4//4 
f 4//4 6//6 3//3 
f 1//1 3//3 7//7 
f 7//7 3//3 6//6 
f 8//8 5//5 2//2 
f 2//2 5//5 4//4 
f 2//2 1//1 8//8 
f 8//8 1//1 7//7 
f 8//8 7//7 5//5 
f 5//5 7//7 6//6 
