v -14.03564167 24.22395897 143.3808136
v -14.03564167 20.25520897 143.3808136
v -14.03564167 24.22395897 143.2974854
v -14.03564167 20.25520897 143.2974854
v -17.98355865 20.25520897 143.2974854
v -17.98355865 24.22395897 143.2974854
v -17.98355865 24.22395897 143.3808136
v -17.98355865 20.25520897 143.3808136
vn 0.01055227593 0.01049688365 0.9998892546
vn 0.04213914648 -0.04191794619 0.998232007
vn 0.04213914648 0.04191794619 -0.998232007
vn 0.01055227593 -0.01049688365 -0.9998892546
vn -0.04213914648 -0.04191794619 -0.998232007
vn -0.01055227593 0.01049688365 -0.9998892546
vn -0.04213914648 0.04191794619 0.998232007
vn -0.01055227593 -0.01049688365 0.9998892546
f 1//1 2//2 3//3 
f 3//3 2//2 4//4 
f 5//5 6//6 4//4 
f 4//4 6//6 3//3 
f 1//1 3//3 7//7 
f 7//7 3//3 6//6 
f 8//8 5//5 2//2 
f 2//2 5//5 4//4 
f 2//2 1//1 8//8 
f 8//8 1//1 7//7 
f 8//8 7//7 5//5 
f 5//5 7//7 6//6 
