v -18.11376572 55.578125 143.4016571
v -18.11376572 55.5 143.4016571
v -21.75972176 55.578125 143.4016571
v -21.75972176 55.5 143.4016571
v -18.11376572 55.578125 143.2766571
v -21.75972176 55.578125 143.2766571
v -18.11376572 55.5 143.2766571
v -21.75972176 55.5 143.2766571
v -18.11376572 55.5 142.8599854
v -21.75972176 55.5 142.8599854
v -18.11376572 55.75 142.8599854
v -21.75972176 55.75 142.8599854
v -18.11376572 55.75 143.4537354
v -21.75972176 55.75 143.4537354
v -18.11376572 55.70833206 143.4537354
v -21.75972176 55.70833206 143.4537354
v -21.75972176 55.5 143.4641571
v -21.75972176 55.70833206 143.4641571
v -18.11376572 55.5 143.4641571
v -18.11376572 55.70833206 143.4641571
vn 0.03718679398 -0.9538198113 -0.2980686724
vn 0.007957851514 -0.3713789284 -0.9284473062
vn -0.04865257815 -0.6239552498 -0.7799440622
vn -0.009085015394 -0.8479633331 -0.5299770832
vn 0.3097725213 -0.5939667225 0.7424584031
vn -0.2415270209 -0.9262217283 0.2894442976
vn 0.01066654455 -0.995577693 0.0933342725
vn -0.02005951479 -0.9361422062 0.3510490358
vn 0.05751968175 -0.6391291022 -0.7669455409
vn -0.0430607982 -0.9569388032 -0.2870781422
vn 0.04822008312 0.977411449 -0.2057708353
vn -0.07525894791 0.7627419233 -0.64230901
vn 0.01131687872 0.9902299643 0.1389838904
vn -0.005710660014 0.9993686676 0.03506663814
vn 0.5989801288 0.3582436144 0.7161594033
vn -0.3832693696 0.1146146581 0.9164977074
vn -0.01165415533 -0.1483312696 0.988869071
vn -0.01883142814 0.09953477234 0.9948558807
vn 0.02020752616 -0.5143930316 0.8573164344
vn 0.009461017326 0.02500342019 0.9996426105
f 1//1 2//2 3//3 
f 3//3 2//2 4//4 
f 5//5 1//1 6//6 
f 6//6 1//1 3//3 
f 7//7 5//5 8//8 
f 8//8 5//5 6//6 
f 9//9 7//7 10//10 
f 10//10 7//7 8//8 
f 11//11 9//9 12//12 
f 12//12 9//9 10//10 
f 13//13 11//11 14//14 
f 14//14 11//11 12//12 
f 15//15 13//13 16//16 
f 16//16 13//13 14//14 
f 4//4 17//17 3//3 
f 3//3 17//17 18//18 
f 3//3 18//18 16//16 
f 14//14 12//12 16//16 
f 16//16 12//12 6//6 
f 16//16 6//6 3//3 
f 12//12 10//10 6//6 
f 6//6 10//10 8//8 
f 2//2 19//19 4//4 
f 4//4 19//19 17//17 
f 20//20 15//15 18//18 
f 18//18 15//15 16//16 
f 2//2 1//1 19//19 
f 19//19 1//1 20//20 
f 20//20 1//1 15//15 
f 15//15 1//1 5//5 
f 15//15 5//5 11//11 
f 11//11 5//5 9//9 
f 9//9 5//5 7//7 
f 11//11 13//13 15//15 
f 19//19 20//20 17//17 
f 17//17 20//20 18//18 
