v 39.06241608 39.04166794 -115.7442017
v 39.06241608 39.04166794 -116.2650375
v 35.45825195 39.04166794 -115.7442017
v 35.45825195 39.04166794 -116.2650375
v 39.06241608 38.84370804 -115.7442017
v 35.45825195 38.84370804 -115.7442017
v 39.06241608 38.84370804 -115.7728882
v 35.45825195 38.84370804 -115.7728882
v 35.45825195 38.75 -115.7728882
v 39.06241608 38.75 -115.7728882
v 35.45825195 38.7810936 -115.7780914
v 39.06241608 38.7810936 -115.7780914
v 39.06241608 38.81261826 -115.7780914
v 35.45825195 38.81261826 -115.7780914
v 39.06241608 38.75 -116.0892792
v 35.45825195 38.75 -116.0892792
v 35.45825195 38.83333206 -116.2650375
v 35.45825195 38.83333206 -116.0892792
v 39.06241608 38.83333206 -116.2650375
v 39.06241608 38.83333206 -116.0892792
vn 0.07465330511 0.7938784361 0.6034764647
vn 0.03787738085 0.9798767567 -0.1959767789
vn -0.04614218324 0.9813707471 0.1865002662
vn -0.06025948003 0.7794475555 -0.6235625744
vn 0.007644458208 -0.2783582211 0.9604468942
vn -0.00396919949 -0.07226537913 0.9973775148
vn 0.4248739779 -0.6670737267 0.6119597554
vn -0.2284649611 -0.7174031734 0.6581310034
vn -0.008727588691 -0.9950072765 0.09942022711
vn 0.004363919143 -0.995035708 0.09942306578
vn -0.1001276672 0.0823931843 0.9915572405
vn 0.197310105 0.08118139207 0.9769740701
vn 0.04321984574 -0.08273696154 0.995633781
vn -0.08619850874 -0.0825061053 0.9928557873
vn 0.02774222568 -0.8844133615 -0.4658791721
vn -0.01554783434 -0.991320014 -0.130548507
vn -0.02485563606 -0.8599939346 -0.5096986294
vn -0.278342396 -0.6969550848 -0.6608926654
vn 0.02246014401 -0.3885554671 -0.9211515784
vn 0.1907325089 -0.9551689029 -0.2264364362
f 1//1 2//2 3//3 
f 3//3 2//2 4//4 
f 5//5 1//1 6//6 
f 6//6 1//1 3//3 
f 7//7 5//5 8//8 
f 8//8 5//5 6//6 
f 9//9 10//10 11//11 
f 11//11 10//10 12//12 
f 11//11 12//12 13//13 
f 7//7 8//8 13//13 
f 13//13 8//8 14//14 
f 13//13 14//14 11//11 
f 15//15 10//10 16//16 
f 16//16 10//10 9//9 
f 17//17 18//18 4//4 
f 4//4 18//18 3//3 
f 3//3 18//18 8//8 
f 3//3 8//8 6//6 
f 16//16 11//11 18//18 
f 18//18 11//11 14//14 
f 18//18 14//14 8//8 
f 16//16 9//9 11//11 
f 2//2 19//19 4//4 
f 4//4 19//19 17//17 
f 20//20 15//15 18//18 
f 18//18 15//15 16//16 
f 19//19 2//2 20//20 
f 20//20 2//2 1//1 
f 20//20 1//1 7//7 
f 7//7 1//1 5//5 
f 7//7 13//13 20//20 
f 20//20 13//13 12//12 
f 20//20 12//12 15//15 
f 15//15 12//12 10//10 
f 19//19 20//20 17//17 
f 17//17 20//20 18//18 
