v 14.15034485 23.75 106.6975555
v 14.15034485 32.75 106.6975555
v 14.05005074 23.75 106.8822708
v 14.05005074 32.75 106.8822708
v 14.01149178 32.75 106.9542007
v 14.01149178 23.75 106.9542007
v 14.02038097 32.75 106.9282379
v 14.02038097 23.75 106.9282379
v 14.03334713 23.75 106.9040451
v 14.03334713 32.75 106.9040451
v 13.69262791 32.75 106.4490356
v 13.55339146 32.75 106.7054749
v 13.55339146 23.75 106.7054749
v 13.69262791 23.75 106.4490356
vn 0.6413165927 -0.0273270756 -0.7667895555
vn 0.9223943949 0.04336227477 -0.3838076293
vn 0.8737902045 -0.03058517911 0.4853402972
vn 0.8617231846 0.05169383064 0.5047383904
vn -0.4540910125 0.001509344089 0.8909540176
vn -0.3821591735 -0.003043235512 0.9240915179
vn 0.9163671732 0.02871582471 0.3993076384
vn 0.9152358174 -0.05736074597 0.3988146484
vn 0.8398454189 -0.02837390266 0.542083621
vn 0.838833034 0.05667939782 0.5414301753
vn 0.2223874927 0.01560833119 -0.9748334289
vn -0.9723929167 0.04305691272 0.2293427587
vn -0.6960325241 -0.03113518655 0.7173349261
vn -0.3378825486 -0.02158317156 -0.9409407973
f 1//1 2//2 3//3 
f 3//3 2//2 4//4 
f 5//5 6//6 7//7 
f 7//7 6//6 8//8 
f 7//7 8//8 9//9 
f 3//3 4//4 9//9 
f 9//9 4//4 10//10 
f 9//9 10//10 7//7 
f 11//11 12//12 2//2 
f 2//2 12//12 4//4 
f 4//4 12//12 10//10 
f 10//10 12//12 7//7 
f 7//7 12//12 5//5 
f 6//6 5//5 13//13 
f 13//13 5//5 12//12 
f 14//14 11//11 1//1 
f 1//1 11//11 2//2 
f 14//14 1//1 13//13 
f 13//13 1//1 3//3 
f 13//13 3//3 9//9 
f 9//9 8//8 13//13 
f 13//13 8//8 6//6 
f 13//13 12//12 14//14 
f 14//14 12//12 11//11 
