v -3.518493414 32.66838837 -138.9131317
v -3.518493414 32.45819855 -138.9131317
v -6.777321339 32.66838837 -140.6825256
v -6.777321339 32.45819855 -140.6825256
v -6.777112961 32.75 -140.6829071
v -3.518285275 32.75 -138.9135132
v -6.779297352 32.72293854 -140.678894
v -3.520469666 32.72293854 -138.9094849
v -3.520539761 32.69549561 -138.9093628
v -6.779367447 32.69549561 -140.6787567
v -7.025841236 32.45819855 -140.2248077
v -7.025841236 32.75 -140.2248077
v -3.76701355 32.75 -138.4554138
v -3.76701355 32.45819855 -138.4554138
vn 0.7176330686 0.01724622771 -0.6962078214
vn 0.2015978694 -0.9270125628 -0.3162373602
vn 0.3355895281 0.01785276085 -0.9418390989
vn 0.1321943551 -0.9260541797 -0.3534802496
vn 0.01849455386 0.9986042976 -0.04947071522
vn 0.02818720415 0.9986245036 -0.04421011731
vn 0.4130994976 -0.08612313867 -0.9066044092
vn 0.5921964645 -0.0855082199 -0.8012438416
vn 0.5350649357 0.07551325858 -0.8414292932
vn 0.3513817787 0.07485701889 -0.9332348704
vn -0.2846215665 -0.8708928823 0.4006696045
vn -0.1708890796 0.9618672132 0.2135611624
vn -0.2964416444 0.6646693945 0.685811162
vn -0.1285399795 -0.8663887382 0.4825433195
f 1//1 2//2 3//3 
f 3//3 2//2 4//4 
f 5//5 6//6 7//7 
f 7//7 6//6 8//8 
f 7//7 8//8 9//9 
f 1//1 3//3 9//9 
f 9//9 3//3 10//10 
f 9//9 10//10 7//7 
f 4//4 11//11 3//3 
f 3//3 11//11 12//12 
f 3//3 12//12 10//10 
f 10//10 12//12 7//7 
f 7//7 12//12 5//5 
f 13//13 6//6 12//12 
f 12//12 6//6 5//5 
f 14//14 11//11 2//2 
f 2//2 11//11 4//4 
f 2//2 1//1 14//14 
f 14//14 1//1 13//13 
f 13//13 1//1 9//9 
f 13//13 9//9 8//8 
f 8//8 6//6 13//13 
f 14//14 13//13 11//11 
f 11//11 13//13 12//12 
