v -73.35988617 32.703125 152.3391571
v -73.35988617 23.77604103 152.3391571
v -73.35988617 32.703125 152.2558136
v -73.35988617 23.77604103 152.2558136
v -77.30771637 23.77604103 152.2558136
v -77.30771637 32.703125 152.2558136
v -77.30771637 32.703125 152.3391571
v -77.30771637 23.77604103 152.3391571
vn 0.01055490598 0.004667703062 0.9999334216
vn 0.04217751324 -0.01865218952 0.9989359975
vn 0.04217751324 0.01865218952 -0.9989359975
vn 0.01055490598 -0.004667703062 -0.9999334216
vn -0.04217751324 -0.01865218952 -0.9989359975
vn -0.01055490598 0.004667703062 -0.9999334216
vn -0.04217751324 0.01865218952 0.9989359975
vn -0.01055490598 -0.004667703062 0.9999334216
f 1//1 2//2 3//3 
f 3//3 2//2 4//4 
f 5//5 6//6 4//4 
f 4//4 6//6 3//3 
f 1//1 3//3 7//7 
f 7//7 3//3 6//6 
f 8//8 5//5 2//2 
f 2//2 5//5 4//4 
f 2//2 1//1 8//8 
f 8//8 1//1 7//7 
f 8//8 7//7 5//5 
f 5//5 7//7 6//6 
