v 39.35421753 46.75 -116.2650604
v 39.35421753 38.75 -116.2650604
v 39.14402771 46.75 -116.2650604
v 39.14402771 38.75 -116.2650604
v 39.06241608 38.75 -116.2654953
v 39.06241608 46.75 -116.2654953
v 39.08947754 38.75 -116.2609177
v 39.08947754 46.75 -116.2609177
v 39.11692047 46.75 -116.2607727
v 39.11692047 38.75 -116.2607727
v 39.35421753 38.75 -115.7442245
v 39.06241608 38.75 -115.7442245
v 39.06241608 46.75 -115.7442245
v 39.35421753 46.75 -115.7442245
vn 0.9801622033 0.0128762573 -0.1977783442
vn 0.7779943347 -0.02044081129 -0.6279386878
vn -0.009553149343 0.07665064186 -0.9970122576
vn -0.03214532882 -0.1289606243 -0.9911285639
vn -0.9996588826 -0.00169822108 -0.02606278658
vn -0.994455874 0.003424066817 -0.1050990671
vn 0.08627765626 -0.03230191022 -0.9957473278
vn 0.08614294231 0.06450294703 -0.9941925406
vn -0.0756874159 0.03191732988 -0.9966206551
vn -0.07557202131 -0.06373733282 -0.9951012135
vn 0.9624928832 -0.03019768745 0.2696212232
vn -0.6658358574 -0.03098153137 0.7454547286
vn -0.9627488256 0.0223984886 0.2694679499
vn 0.6652659178 0.04174471274 0.7454385161
f 1//1 2//2 3//3 
f 3//3 2//2 4//4 
f 5//5 6//6 7//7 
f 7//7 6//6 8//8 
f 7//7 8//8 9//9 
f 3//3 4//4 9//9 
f 9//9 4//4 10//10 
f 9//9 10//10 7//7 
f 2//2 11//11 4//4 
f 4//4 11//11 12//12 
f 4//4 12//12 10//10 
f 10//10 12//12 7//7 
f 7//7 12//12 5//5 
f 6//6 5//5 13//13 
f 13//13 5//5 12//12 
f 14//14 11//11 1//1 
f 1//1 11//11 2//2 
f 1//1 3//3 14//14 
f 14//14 3//3 13//13 
f 13//13 3//3 9//9 
f 13//13 9//9 8//8 
f 8//8 6//6 13//13 
f 13//13 12//12 14//14 
f 14//14 12//12 11//11 
