v -10.25959969 55.578125 143.4016571
v -10.25959969 55.5 143.4016571
v -13.90543365 55.578125 143.4016571
v -13.90543365 55.5 143.4016571
v -10.25959969 55.578125 143.2766571
v -13.90543365 55.578125 143.2766571
v -10.25959969 55.5 143.2766571
v -13.90543365 55.5 143.2766571
v -10.25959969 55.5 142.9433136
v -13.90543365 55.5 142.9433136
v -10.25959969 55.75 142.9433136
v -13.90543365 55.75 142.9433136
v -10.25959969 55.75 143.4537354
v -13.90543365 55.75 143.4537354
v -10.25959969 55.70833206 143.4537354
v -13.90543365 55.70833206 143.4537354
v -13.90543365 55.5 143.4641571
v -13.90543365 55.70833206 143.4641571
v -10.25959969 55.5 143.4641571
v -10.25959969 55.70833206 143.4641571
vn 0.03718803823 -0.9538197517 -0.2980686724
vn 0.007958117872 -0.3713789284 -0.9284473062
vn -0.04865420237 -0.6239551902 -0.7799440026
vn -0.009085319936 -0.8479633331 -0.5299770832
vn 0.2637726367 -0.6025713682 0.7532142401
vn -0.2044946998 -0.9343096018 0.2919717431
vn 0.01064086612 -0.9931476712 0.1163809374
vn -0.01939914376 -0.9052935243 0.4243433774
vn 0.04986196384 -0.5540218949 -0.8310075402
vn -0.04209761322 -0.9355026484 -0.3508027792
vn 0.04651850089 0.9702463746 -0.2376089841
vn -0.0683400929 0.7126919627 -0.6981402636
vn 0.01127885189 0.9868695736 0.1611248702
vn -0.005709611811 0.9991517067 0.04078254104
vn 0.5529991984 0.3727466464 0.745152235
vn -0.3455198705 0.1164480746 0.9311583638
vn -0.01165454555 -0.1483312696 0.988869071
vn -0.01883205771 0.09953477234 0.9948558807
vn 0.0202082023 -0.514392972 0.8573164344
vn 0.009461333975 0.02500342019 0.9996426105
f 1//1 2//2 3//3 
f 3//3 2//2 4//4 
f 5//5 1//1 6//6 
f 6//6 1//1 3//3 
f 7//7 5//5 8//8 
f 8//8 5//5 6//6 
f 9//9 7//7 10//10 
f 10//10 7//7 8//8 
f 11//11 9//9 12//12 
f 12//12 9//9 10//10 
f 13//13 11//11 14//14 
f 14//14 11//11 12//12 
f 15//15 13//13 16//16 
f 16//16 13//13 14//14 
f 4//4 17//17 3//3 
f 3//3 17//17 18//18 
f 3//3 18//18 16//16 
f 14//14 12//12 16//16 
f 16//16 12//12 6//6 
f 16//16 6//6 3//3 
f 12//12 10//10 6//6 
f 6//6 10//10 8//8 
f 2//2 19//19 4//4 
f 4//4 19//19 17//17 
f 20//20 15//15 18//18 
f 18//18 15//15 16//16 
f 2//2 1//1 19//19 
f 19//19 1//1 20//20 
f 20//20 1//1 15//15 
f 15//15 1//1 5//5 
f 15//15 5//5 11//11 
f 11//11 5//5 9//9 
f 9//9 5//5 7//7 
f 11//11 13//13 15//15 
f 19//19 20//20 17//17 
f 17//17 20//20 18//18 
