v -74.05162811 46.75 -130.7443237
v -74.82014465 46.75 -134.0731659
v -74.55953217 46.75 -130.6270752
v -75.32805634 46.75 -133.9559021
v -75.32762909 46.66838837 -133.9560089
v -74.55911255 46.66838837 -130.6271667
v -75.32345581 46.69549561 -133.9569702
v -74.55493164 46.69549561 -130.6281281
v -74.5550766 46.72293854 -130.6280975
v -75.32360077 46.72293854 -133.9569397
v -75.32762909 46.45819855 -133.9560089
v -74.82014465 46.45819855 -134.0731659
v -74.55911255 46.45819855 -130.6271667
v -74.05162811 46.45819855 -130.7443237
vn 0.4951035678 0.8686643839 -0.01716488414
vn 0.4647286236 0.8715986013 -0.1560228467
vn -0.02450012788 0.9996523857 0.00973747205
vn -0.1042040884 0.9944299459 0.01582897641
vn -0.994820118 0.01708814315 -0.1002044454
vn -0.9228384495 0.01780416816 0.3847754896
vn -0.9856482744 0.07543095946 0.1510220319
vn -0.9276153445 0.07487484068 0.3659555912
vn -0.9509927034 -0.08603831381 0.2970021665
vn -0.9934667945 -0.08533987403 0.07576827705
vn -0.6220321655 -0.7772647142 0.09452802688
vn 0.2463035434 -0.9605307579 -0.1292874068
vn -0.1858592629 -0.9797977805 0.07384179533
vn 0.7454180717 -0.6626800895 -0.07215917856
f 1//1 2//2 3//3 
f 3//3 2//2 4//4 
f 5//5 6//6 7//7 
f 7//7 6//6 8//8 
f 7//7 8//8 9//9 
f 3//3 4//4 9//9 
f 9//9 4//4 10//10 
f 9//9 10//10 7//7 
f 11//11 5//5 12//12 
f 12//12 5//5 2//2 
f 2//2 5//5 7//7 
f 2//2 7//7 10//10 
f 10//10 4//4 2//2 
f 13//13 6//6 11//11 
f 11//11 6//6 5//5 
f 1//1 14//14 2//2 
f 2//2 14//14 12//12 
f 13//13 14//14 6//6 
f 6//6 14//14 1//1 
f 6//6 1//1 8//8 
f 8//8 1//1 9//9 
f 9//9 1//1 3//3 
f 14//14 13//13 12//12 
f 12//12 13//13 11//11 
