v -19.72911263 38.75 -133.4433899
v -19.72911263 46.75 -133.4433899
v -19.58442688 38.75 -133.2909241
v -19.58442688 46.75 -133.2909241
v -19.52793312 46.75 -133.2320251
v -19.52793312 38.75 -133.2320251
v -19.54987907 46.75 -133.2485046
v -19.54987907 38.75 -133.2485046
v -19.56887817 38.75 -133.2683105
v -19.56887817 46.75 -133.2683105
v -20.10691071 46.75 -133.0848694
v -19.90604782 46.75 -132.8731995
v -19.90604782 38.75 -132.8731995
v -20.10691071 38.75 -133.0848694
vn -0.5312393308 -0.01287626289 -0.8471239209
vn -0.08004811406 0.02044080198 -0.9965813756
vn 0.7297803164 -0.07665118575 -0.6793712378
vn 0.7410635352 0.1289621741 -0.6589336991
vn 0.7070322633 0.00169815321 0.7071792483
vn 0.7607781887 -0.003423905233 0.6490029693
vn 0.6628917456 0.0323022753 -0.7480181456
vn 0.6618566513 -0.06450366974 -0.7468500733
vn 0.7749847174 -0.03191781044 -0.6311734915
vn 0.7738031745 0.06373829395 -0.6302111745
vn -0.8581165671 0.03019784391 -0.5125661492
vn -0.08240616322 0.03098199144 0.996117115
vn 0.4672549069 -0.02239876054 0.883838892
vn -0.9986607432 -0.04174447432 0.03056254797
f 1//1 2//2 3//3 
f 3//3 2//2 4//4 
f 5//5 6//6 7//7 
f 7//7 6//6 8//8 
f 7//7 8//8 9//9 
f 3//3 4//4 9//9 
f 9//9 4//4 10//10 
f 9//9 10//10 7//7 
f 2//2 11//11 4//4 
f 4//4 11//11 12//12 
f 4//4 12//12 10//10 
f 10//10 12//12 7//7 
f 7//7 12//12 5//5 
f 6//6 5//5 13//13 
f 13//13 5//5 12//12 
f 14//14 11//11 1//1 
f 1//1 11//11 2//2 
f 1//1 3//3 14//14 
f 14//14 3//3 13//13 
f 13//13 3//3 9//9 
f 13//13 9//9 8//8 
f 8//8 6//6 13//13 
f 13//13 12//12 14//14 
f 14//14 12//12 11//11 
