v 17.74563408 24.75 -127.1676254
v 17.74563408 24.83333397 -127.1676254
v 21.0044632 24.75 -125.3982315
v 21.0044632 24.83333397 -125.3982315
v 17.59466934 24.75 -126.8895874
v 20.85349655 24.75 -125.1201859
v 20.85349655 24.84370804 -125.1201859
v 17.59466934 24.84370804 -126.8895874
v 20.85597992 24.81261635 -125.1247559
v 17.59715271 24.81261635 -126.8941574
v 17.59715271 24.78109169 -126.8941574
v 20.85597992 24.78109169 -125.1247559
v 17.5809803 24.84370804 -126.8643723
v 20.83980942 24.84370804 -125.0949783
v 17.5809803 25.04166603 -126.8643723
v 20.83980942 25.04166603 -125.0949783
v 21.08832932 24.83333397 -125.5526962
v 21.08832932 25.04166603 -125.5526962
v 17.82950211 25.04166603 -127.3220901
v 17.82950211 24.83333397 -127.3220901
vn 0.09558646381 -0.966596961 -0.2378098369
vn 0.04955359548 -0.8900029659 -0.4532539546
vn 0.134476617 -0.9669127464 -0.2167850584
vn 0.4837540388 -0.8526614904 -0.1973586828
vn -0.02732111886 -0.9987660646 0.0414714478
vn -0.08755829185 -0.9799329638 0.1790666878
vn 0.04936027527 -0.8577228785 0.511737287
vn -0.629782021 -0.5117743611 0.5843471885
vn -0.4381835759 -0.08270459622 0.8950726986
vn -0.5474895239 -0.08249013871 0.8327368498
vn -0.5588120222 0.08238692582 0.8251917958
vn -0.2979555726 0.08123668283 0.9511167407
vn -0.4755858779 -0.1434181333 0.8678993583
vn -0.4654847383 -0.1433963031 0.873362124
vn -0.128409043 0.9814288616 0.1425080448
vn -0.224222064 0.7940026522 0.5650524497
vn 0.3805578053 -0.644730866 -0.6629463434
vn 0.1258685887 0.9799162149 -0.1546652019
vn 0.2460883111 0.7795306444 -0.575996995
vn 0.3326450586 -0.6444147229 -0.6885324121
f 1//1 2//2 3//3 
f 3//3 2//2 4//4 
f 1//1 3//3 5//5 
f 5//5 3//3 6//6 
f 7//7 8//8 9//9 
f 9//9 8//8 10//10 
f 9//9 10//10 11//11 
f 5//5 6//6 11//11 
f 11//11 6//6 12//12 
f 11//11 12//12 9//9 
f 8//8 7//7 13//13 
f 13//13 7//7 14//14 
f 15//15 13//13 16//16 
f 16//16 13//13 14//14 
f 17//17 18//18 4//4 
f 4//4 18//18 16//16 
f 4//4 16//16 7//7 
f 7//7 16//16 14//14 
f 7//7 9//9 4//4 
f 4//4 9//9 12//12 
f 4//4 12//12 3//3 
f 3//3 12//12 6//6 
f 19//19 15//15 18//18 
f 18//18 15//15 16//16 
f 20//20 17//17 2//2 
f 2//2 17//17 4//4 
f 20//20 2//2 19//19 
f 19//19 2//2 15//15 
f 15//15 2//2 8//8 
f 15//15 8//8 13//13 
f 1//1 11//11 2//2 
f 2//2 11//11 10//10 
f 2//2 10//10 8//8 
f 1//1 5//5 11//11 
f 20//20 19//19 17//17 
f 17//17 19//19 18//18 
