v -14.30953598 38.75 -127.7323456
v -14.30953598 46.75 -127.7323456
v -14.16485023 38.75 -127.5798798
v -14.16485023 46.75 -127.5798798
v -14.10835648 46.75 -127.5209808
v -14.10835648 38.75 -127.5209808
v -14.13030434 46.75 -127.5374603
v -14.13030434 38.75 -127.5374603
v -14.14930153 38.75 -127.5572662
v -14.14930153 46.75 -127.5572662
v -14.68733597 46.75 -127.3738327
v -14.48647213 46.75 -127.1621628
v -14.48647213 38.75 -127.1621628
v -14.68733597 38.75 -127.3738327
vn -0.5312274098 -0.01287622657 -0.8471314311
vn -0.08003656566 0.02044061199 -0.9965823293
vn 0.729780376 -0.07665067166 -0.6793712378
vn 0.7410636544 0.1289613247 -0.6589337587
vn 0.7070249319 0.00169823505 0.7071865797
vn 0.760774672 -0.003424085444 0.649007082
vn 0.6628917456 0.03230188042 -0.7480181456
vn 0.6618566513 -0.06450287998 -0.7468501329
vn 0.7750017643 -0.03191739693 -0.6311525106
vn 0.7738202214 0.06373747438 -0.6301903129
vn -0.8581116796 0.03019796684 -0.5125743151
vn -0.0824155435 0.03098163381 0.9961163402
vn 0.4672428071 -0.02239869721 0.8838452697
vn -0.9986607432 -0.04174460471 0.03056284413
f 1//1 2//2 3//3 
f 3//3 2//2 4//4 
f 5//5 6//6 7//7 
f 7//7 6//6 8//8 
f 7//7 8//8 9//9 
f 3//3 4//4 9//9 
f 9//9 4//4 10//10 
f 9//9 10//10 7//7 
f 2//2 11//11 4//4 
f 4//4 11//11 12//12 
f 4//4 12//12 10//10 
f 10//10 12//12 7//7 
f 7//7 12//12 5//5 
f 6//6 5//5 13//13 
f 13//13 5//5 12//12 
f 14//14 11//11 1//1 
f 1//1 11//11 2//2 
f 1//1 3//3 14//14 
f 14//14 3//3 13//13 
f 13//13 3//3 9//9 
f 13//13 9//9 8//8 
f 8//8 6//6 13//13 
f 13//13 12//12 14//14 
f 14//14 12//12 11//11 
