v -19.6557579 38.75 -133.1107178
v -19.6557579 38.83333206 -133.1107178
v -17.10231018 38.75 -130.4199524
v -17.10231018 38.83333206 -130.4199524
v -19.88525581 38.75 -132.8929291
v -17.33180809 38.75 -130.2021637
v -17.33180809 38.84370804 -130.2021637
v -19.88525581 38.84370804 -132.8929291
v -17.32803345 38.81261826 -130.2057495
v -19.88148117 38.81261826 -132.8965149
v -19.88148117 38.7810936 -132.8965149
v -17.32803345 38.7810936 -130.2057495
v -19.90606308 38.84370804 -132.8731842
v -17.35261536 38.84370804 -130.1824188
v -19.90606308 39.04166794 -132.8731842
v -17.35261536 39.04166794 -130.1824188
v -16.97481537 38.83333206 -130.5409393
v -16.97481537 39.04166794 -130.5409393
v -19.52826309 39.04166794 -133.2317047
v -19.52826309 38.83333206 -133.2317047
vn 0.0842994377 -0.9913265705 -0.100823015
vn 0.2938700616 -0.6984811425 -0.6525063515
vn 0.3565011024 -0.8844302893 -0.3011478186
vn 0.2921045125 -0.9561454654 -0.0214664489
vn -0.0779555589 -0.9950091839 0.06228689477
vn -0.06920168549 -0.995036006 0.07151546329
vn -0.1605531424 -0.6704865098 0.7243413925
vn -0.6311020851 -0.7184640169 0.292437315
vn -0.6933342814 -0.08279199898 0.7158443332
vn -0.7779996991 -0.08256836236 0.622815311
vn -0.7864323854 0.08246318996 0.6121469736
vn -0.5773378015 0.08132167161 0.812445581
vn -0.7261262536 -0.07226042449 0.6837536693
vn -0.6915752292 -0.2783408165 0.6665208936
vn -0.3153546453 0.9313677549 0.1819491833
vn -0.2281113416 0.9339072704 0.2752861083
vn 0.6832075715 -0.3885704279 -0.6182559729
vn 0.3166378438 0.9262257814 -0.2045636922
vn 0.2452455461 0.9279116988 -0.2807748318
vn 0.3530963659 -0.8600150943 -0.3683707118
f 1//1 2//2 3//3 
f 3//3 2//2 4//4 
f 5//5 1//1 6//6 
f 6//6 1//1 3//3 
f 7//7 8//8 9//9 
f 9//9 8//8 10//10 
f 9//9 10//10 11//11 
f 5//5 6//6 11//11 
f 11//11 6//6 12//12 
f 11//11 12//12 9//9 
f 13//13 8//8 14//14 
f 14//14 8//8 7//7 
f 15//15 13//13 16//16 
f 16//16 13//13 14//14 
f 17//17 18//18 4//4 
f 4//4 18//18 16//16 
f 4//4 16//16 7//7 
f 7//7 16//16 14//14 
f 7//7 9//9 4//4 
f 4//4 9//9 12//12 
f 4//4 12//12 3//3 
f 3//3 12//12 6//6 
f 15//15 16//16 19//19 
f 19//19 16//16 18//18 
f 2//2 20//20 4//4 
f 4//4 20//20 17//17 
f 20//20 2//2 19//19 
f 19//19 2//2 15//15 
f 15//15 2//2 8//8 
f 15//15 8//8 13//13 
f 1//1 11//11 2//2 
f 2//2 11//11 10//10 
f 2//2 10//10 8//8 
f 1//1 5//5 11//11 
f 20//20 19//19 17//17 
f 17//17 19//19 18//18 
