v -16.97480202 46.66838837 -130.5409546
v -16.97480202 46.45819855 -130.5409546
v -19.52824783 46.66838837 -133.23172
v -19.52824783 46.45819855 -133.23172
v -19.52793312 46.75 -133.2320251
v -16.9744854 46.75 -130.5412445
v -19.53125381 46.72293854 -133.2288666
v -16.97780609 46.72293854 -130.5381012
v -16.977911 46.69549561 -130.5379944
v -19.53135872 46.69549561 -133.228775
v -19.90604782 46.45819855 -132.8731995
v -19.90604782 46.75 -132.8731995
v -17.3526001 46.75 -130.1824341
v -17.3526001 46.45819855 -130.1824341
vn 0.8976057172 0.01725967973 -0.4404612482
vn 0.485465914 -0.7774006128 -0.399963975
vn 0.610250771 0.01785017736 -0.7920071483
vn 0.1243105903 -0.9798656106 -0.1562378407
vn 0.0163843073 0.9996535778 -0.02059714869
vn 0.08131858706 0.9944344163 -0.06698848307
vn 0.6730567217 -0.08610382676 -0.7345616221
vn 0.8107826114 -0.08548791707 -0.5790711045
vn 0.7688750625 0.07556560636 -0.6349180937
vn 0.6226001382 0.07505248487 -0.7789327502
vn -0.6007844806 -0.66315943 0.4464051425
vn -0.4130106568 0.8692595363 0.2716800869
vn -0.323871702 0.8717488647 0.3676426113
vn -0.1504966617 -0.9608945251 0.2324488908
f 1//1 2//2 3//3 
f 3//3 2//2 4//4 
f 5//5 6//6 7//7 
f 7//7 6//6 8//8 
f 7//7 8//8 9//9 
f 1//1 3//3 9//9 
f 9//9 3//3 10//10 
f 9//9 10//10 7//7 
f 4//4 11//11 3//3 
f 3//3 11//11 12//12 
f 3//3 12//12 10//10 
f 10//10 12//12 7//7 
f 7//7 12//12 5//5 
f 6//6 5//5 13//13 
f 13//13 5//5 12//12 
f 2//2 14//14 4//4 
f 4//4 14//14 11//11 
f 2//2 1//1 14//14 
f 14//14 1//1 13//13 
f 13//13 1//1 9//9 
f 13//13 9//9 8//8 
f 8//8 6//6 13//13 
f 14//14 13//13 11//11 
f 11//11 13//13 12//12 
