v 14.0578022 24.75 -129.3699799
v 14.0578022 32.75 -129.3699799
v 14.24252129 24.75 -129.2696838
v 14.24252129 32.75 -129.2696838
v 14.31445026 32.75 -129.2311249
v 14.31445026 24.75 -129.2311249
v 14.28848553 32.75 -129.2400208
v 14.28848553 24.75 -129.2400208
v 14.26429749 24.75 -129.2529907
v 14.26429749 32.75 -129.2529907
v 13.80928135 32.75 -128.912262
v 14.06572247 32.75 -128.7730255
v 14.06572247 24.75 -128.7730255
v 13.80928135 24.75 -128.912262
vn -0.7667108774 -0.03074022755 -0.6412561536
vn -0.3837036192 0.04877055436 -0.9221675396
vn 0.4852595925 -0.03440406919 -0.873693049
vn 0.5044931769 0.05813628435 -0.8614562154
vn 0.890953958 0.001698307344 0.454090476
vn 0.9240952134 -0.003424177645 0.3821470439
vn 0.3994440734 0.03230230883 -0.9161882997
vn 0.3988203704 -0.06450373679 -0.914757669
vn 0.5419633389 -0.0319183208 -0.8397957683
vn 0.5411370397 0.06373931468 -0.8385153413
vn -0.9748019576 0.0175589174 -0.222379908
vn 0.2292835265 0.04842741415 0.9721542597
vn 0.7172390819 -0.03502295166 0.6959465146
vn -0.9408815503 -0.02427970618 0.3378645182
f 1//1 2//2 3//3 
f 3//3 2//2 4//4 
f 5//5 6//6 7//7 
f 7//7 6//6 8//8 
f 7//7 8//8 9//9 
f 3//3 4//4 9//9 
f 9//9 4//4 10//10 
f 9//9 10//10 7//7 
f 11//11 12//12 2//2 
f 2//2 12//12 4//4 
f 4//4 12//12 10//10 
f 10//10 12//12 7//7 
f 7//7 12//12 5//5 
f 6//6 5//5 13//13 
f 13//13 5//5 12//12 
f 14//14 11//11 1//1 
f 1//1 11//11 2//2 
f 14//14 1//1 13//13 
f 13//13 1//1 3//3 
f 13//13 3//3 9//9 
f 9//9 8//8 13//13 
f 13//13 8//8 6//6 
f 13//13 12//12 14//14 
f 14//14 12//12 11//11 
