v 0.7898994684 38.75 131.3044281
v 0.7898994684 46.75 131.3044281
v 0.6896051168 38.75 131.489151
v 0.6896051168 46.75 131.489151
v 0.6510468125 46.75 131.5610809
v 0.6510468125 38.75 131.5610809
v 0.6599355936 46.75 131.5351105
v 0.6599355936 38.75 131.5351105
v 0.6729019284 38.75 131.5109253
v 0.6729019284 46.75 131.5109253
v 0.3321821988 46.75 131.0559082
v 0.1929463148 46.75 131.3123474
v 0.1929463148 38.75 131.3123474
v 0.3321821988 38.75 131.0559082
vn 0.6412570477 -0.03074028343 -0.7667101622
vn 0.9221675992 0.04877018929 -0.3837035596
vn 0.8736896515 -0.0344042927 0.4852656424
vn 0.861425817 0.05813569203 0.5045450926
vn -0.4540967345 0.001698422944 0.890950799
vn -0.3821465075 -0.003424499882 0.9240953922
vn 0.9162684679 0.03230175003 0.3992602527
vn 0.914837718 -0.06450261921 0.3986368179
vn 0.8397166133 -0.03191706166 0.5420861244
vn 0.8384364247 0.06373680383 0.5412596464
vn 0.2223802805 0.01755879633 -0.974801898
vn -0.9721537232 0.04842733219 0.229285717
vn -0.6959497333 -0.03502272069 0.7172359228
vn -0.337861985 -0.02427957952 -0.9408824444
f 1//1 2//2 3//3 
f 3//3 2//2 4//4 
f 5//5 6//6 7//7 
f 7//7 6//6 8//8 
f 7//7 8//8 9//9 
f 3//3 4//4 9//9 
f 9//9 4//4 10//10 
f 9//9 10//10 7//7 
f 11//11 12//12 2//2 
f 2//2 12//12 4//4 
f 4//4 12//12 10//10 
f 10//10 12//12 7//7 
f 7//7 12//12 5//5 
f 6//6 5//5 13//13 
f 13//13 5//5 12//12 
f 14//14 11//11 1//1 
f 1//1 11//11 2//2 
f 14//14 1//1 13//13 
f 13//13 1//1 3//3 
f 13//13 3//3 9//9 
f 9//9 8//8 13//13 
f 13//13 8//8 6//6 
f 13//13 12//12 14//14 
f 14//14 12//12 11//11 
