v 13.97825432 32.45819855 -129.2234802
v 13.97825432 25.04166603 -129.2234802
v 14.01801682 32.45819855 -129.2967072
v 14.01801682 25.04166603 -129.2967072
v 10.75918865 25.04166603 -131.0661011
v 10.75918865 32.45819855 -131.0661011
v 10.71942616 32.45819855 -130.9928741
v 10.71942616 25.04166603 -130.9928741
vn -0.4672469199 0.005617145915 0.8841090202
vn -0.4371933937 -0.01122312807 0.8992974758
vn 0.5160022378 0.02244209312 -0.8562932014
vn 0.4869700372 -0.01123377029 -0.8733464479
vn 0.4371933937 -0.01122312807 -0.8992974758
vn 0.4672469199 0.005617145915 -0.8841090202
vn -0.5160022378 0.02244209312 0.8562932014
vn -0.4869700372 -0.01123377029 0.8733464479
f 1//1 2//2 3//3 
f 3//3 2//2 4//4 
f 5//5 6//6 4//4 
f 4//4 6//6 3//3 
f 1//1 3//3 7//7 
f 7//7 3//3 6//6 
f 2//2 8//8 4//4 
f 4//4 8//8 5//5 
f 2//2 1//1 8//8 
f 8//8 1//1 7//7 
f 8//8 7//7 5//5 
f 5//5 7//7 6//6 
