v -21.75959969 20.33333397 143.4016571
v -21.75959969 20.33333397 143.4641571
v -18.11376572 20.33333397 143.4016571
v -18.11376572 20.33333397 143.4641571
v -21.75959969 20.25520897 143.4016571
v -18.11376572 20.25520897 143.4016571
v -21.75959969 20.25520897 143.2766571
v -18.11376572 20.25520897 143.2766571
v -21.75959969 20.33333397 143.2766571
v -18.11376572 20.33333397 143.2766571
v -21.75959969 20.33333397 142.9433136
v -18.11376572 20.33333397 142.9433136
v -21.75959969 20.08333397 142.9433136
v -18.11376572 20.08333397 142.9433136
v -21.75959969 20.08333397 143.4537354
v -18.11376572 20.08333397 143.4537354
v -18.11376572 20.125 143.4641571
v -18.11376572 20.125 143.4537354
v -21.75959969 20.125 143.4537354
v -21.75959969 20.125 143.4641571
vn -0.007958117872 0.3713789284 -0.9284473062
vn -0.0202082023 0.5143895149 0.8573185205
vn 0.009085319936 0.8479633331 -0.5299770832
vn 0.01165451854 0.1483299285 0.9888692498
vn -0.03718843311 0.9538197517 -0.2980686724
vn 0.04865472019 0.6239551902 -0.7799440026
vn -0.2637737095 0.6025711894 0.7532140017
vn 0.2044955641 0.934309423 0.2919716835
vn -0.01064086612 0.9931476712 0.1163809374
vn 0.01939914376 0.9052935243 0.4243433774
vn -0.04986196384 0.5540218949 -0.8310075402
vn 0.04209761322 0.9355026484 -0.3508027792
vn -0.04651841521 -0.9702463746 -0.2376089841
vn 0.06833995879 -0.7126919627 -0.6981402636
vn -0.01127834897 -0.9868707657 0.1611176878
vn 0.005709350575 -0.9991518259 0.04078067839
vn 0.01883206889 -0.09953387082 0.9948559403
vn 0.345533371 -0.1164527014 0.931152761
vn -0.5530129671 -0.3727562129 0.7451372147
vn -0.009461338632 -0.02500319108 0.9996426105
f 1//1 2//2 3//3 
f 3//3 2//2 4//4 
f 5//5 1//1 6//6 
f 6//6 1//1 3//3 
f 7//7 5//5 8//8 
f 8//8 5//5 6//6 
f 9//9 7//7 10//10 
f 10//10 7//7 8//8 
f 11//11 9//9 12//12 
f 12//12 9//9 10//10 
f 13//13 11//11 14//14 
f 14//14 11//11 12//12 
f 15//15 13//13 16//16 
f 16//16 13//13 14//14 
f 4//4 17//17 6//6 
f 6//6 17//17 18//18 
f 6//6 18//18 8//8 
f 8//8 18//18 14//14 
f 8//8 14//14 12//12 
f 18//18 16//16 14//14 
f 12//12 10//10 8//8 
f 6//6 3//3 4//4 
f 19//19 15//15 18//18 
f 18//18 15//15 16//16 
f 2//2 20//20 4//4 
f 4//4 20//20 17//17 
f 19//19 20//20 5//5 
f 5//5 20//20 2//2 
f 5//5 2//2 1//1 
f 5//5 7//7 19//19 
f 19//19 7//7 13//13 
f 19//19 13//13 15//15 
f 9//9 11//11 7//7 
f 7//7 11//11 13//13 
f 20//20 19//19 17//17 
f 17//17 19//19 18//18 
