v -73.35988617 23.72395897 152.3391571
v -73.35988617 21.00520897 152.3391571
v -73.35988617 23.72395897 152.2558136
v -73.35988617 21.00520897 152.2558136
v -77.30771637 21.00520897 152.2558136
v -77.30771637 23.72395897 152.2558136
v -77.30771637 23.72395897 152.3391571
v -77.30771637 21.00520897 152.3391571
vn 0.01055378187 0.01532488782 0.9998268485
vn 0.04210592806 -0.06114098802 0.997240603
vn 0.04210592806 0.06114098802 -0.997240603
vn 0.01055378187 -0.01532488782 -0.9998268485
vn -0.04210592806 -0.06114098802 -0.997240603
vn -0.01055378187 0.01532488782 -0.9998268485
vn -0.04210592806 0.06114098802 0.997240603
vn -0.01055378187 -0.01532488782 0.9998268485
f 1//1 2//2 3//3 
f 3//3 2//2 4//4 
f 5//5 6//6 4//4 
f 4//4 6//6 3//3 
f 1//1 3//3 7//7 
f 7//7 3//3 6//6 
f 8//8 5//5 2//2 
f 2//2 5//5 4//4 
f 2//2 1//1 8//8 
f 8//8 1//1 7//7 
f 8//8 7//7 5//5 
f 5//5 7//7 6//6 
