v 14.00383568 32.45819855 106.6180038
v 14.00383568 24.04166603 106.6180038
v 14.07707024 32.45819855 106.6577682
v 14.07707024 24.04166603 106.6577682
v 15.84646988 24.04166603 103.398941
v 15.84646988 32.45819855 103.398941
v 15.77323532 32.45819855 103.3591766
v 15.77323532 24.04166603 103.3591766
vn -0.8841119409 0.004950223025 -0.4672489464
vn -0.8993113041 -0.009890718386 -0.4371971488
vn 0.8563385606 0.01977855712 0.516035974
vn 0.8733575344 -0.009900084697 0.4869790673
vn 0.8993113041 -0.009890718386 0.4371971488
vn 0.8841119409 0.004950223025 0.4672489464
vn -0.8563385606 0.01977855712 -0.516035974
vn -0.8733575344 -0.009900084697 -0.4869790673
f 1//1 2//2 3//3 
f 3//3 2//2 4//4 
f 5//5 6//6 4//4 
f 4//4 6//6 3//3 
f 1//1 3//3 7//7 
f 7//7 3//3 6//6 
f 2//2 8//8 4//4 
f 4//4 8//8 5//5 
f 2//2 1//1 8//8 
f 8//8 1//1 7//7 
f 8//8 7//7 5//5 
f 5//5 7//7 6//6 
