v 31.45848656 46.75 -116.2654953
v 31.45848656 46.75 -115.7442245
v 35.1666832 46.75 -116.2654953
v 35.1666832 46.75 -115.7442245
v 35.1666832 46.66838837 -116.2650604
v 31.45848656 46.66838837 -116.2650604
v 35.1666832 46.69549561 -116.2607727
v 31.45848656 46.69549561 -116.2607727
v 31.45848656 46.72293854 -116.2609177
v 35.1666832 46.72293854 -116.2609177
v 35.1666832 46.45819855 -116.2650604
v 35.1666832 46.45819855 -115.7442245
v 31.45848656 46.45819855 -116.2650604
v 31.45848656 46.45819855 -115.7442245
vn -0.007352120709 0.9986042976 -0.05230124295
vn -0.048277881 0.9618675113 0.269221276
vn 0.00367613486 0.9986245036 -0.05230230466
vn 0.06672210991 0.6646711826 0.7441507578
vn 0.2984687686 0.01724258624 -0.9542636275
vn -0.1544843465 0.01784916967 -0.9878339767
vn 0.06873008609 0.07554692775 -0.9947707653
vn -0.1364963949 0.07501724362 -0.9877961278
vn -0.06955511123 -0.08611363918 -0.9938544035
vn 0.1381115764 -0.0854954496 -0.9867196679
vn 0.04406502843 -0.7774010897 -0.6274598241
vn 0.06503970176 -0.9608931541 0.2691731155
vn -0.02777060494 -0.9798653722 -0.1977184564
vn -0.08977393806 -0.6631577611 0.7430763245
f 1//1 2//2 3//3 
f 3//3 2//2 4//4 
f 5//5 6//6 7//7 
f 7//7 6//6 8//8 
f 7//7 8//8 9//9 
f 1//1 3//3 9//9 
f 9//9 3//3 10//10 
f 9//9 10//10 7//7 
f 11//11 5//5 12//12 
f 12//12 5//5 4//4 
f 4//4 5//5 7//7 
f 4//4 7//7 10//10 
f 10//10 3//3 4//4 
f 13//13 6//6 11//11 
f 11//11 6//6 5//5 
f 2//2 14//14 4//4 
f 4//4 14//14 12//12 
f 13//13 14//14 6//6 
f 6//6 14//14 2//2 
f 6//6 2//2 8//8 
f 8//8 2//2 9//9 
f 9//9 2//2 1//1 
f 14//14 13//13 12//12 
f 12//12 13//13 11//11 
