v -81.08388519 21.08333397 152.3599854
v -81.08388519 21.08333397 152.4224854
v -77.43792725 21.08333397 152.3599854
v -77.43792725 21.08333397 152.4224854
v -81.08388519 21.00520897 152.3599854
v -77.43792725 21.00520897 152.3599854
v -81.08388519 21.00520897 152.2349854
v -77.43792725 21.00520897 152.2349854
v -81.08388519 21.08333397 152.2349854
v -77.43792725 21.08333397 152.2349854
v -81.08388519 21.08333397 151.8183136
v -77.43792725 21.08333397 151.8183136
v -81.08388519 20.83333397 151.8183136
v -77.43792725 20.83333397 151.8183136
v -81.08388519 20.83333397 152.4120636
v -77.43792725 20.83333397 152.4120636
v -77.43792725 20.875 152.4224854
v -77.43792725 20.875 152.4120636
v -81.08388519 20.875 152.4120636
v -81.08388519 20.875 152.4224854
vn -0.007957847789 0.3713789284 -0.9284473062
vn -0.02020751499 0.5143895745 0.8573185205
vn 0.009085010737 0.8479633331 -0.5299770832
vn 0.01165412273 0.1483299434 0.9888692498
vn -0.03718717024 0.9538197517 -0.2980686724
vn 0.04865306988 0.6239552498 -0.7799440622
vn -0.3097735941 0.5939665437 0.7424581647
vn 0.2415278852 0.9262215495 0.2894442379
vn -0.01066653896 0.995577693 0.0933342725
vn 0.02005950361 0.9361422062 0.3510490358
vn -0.05751965195 0.6391291022 -0.7669455409
vn 0.04306077585 0.9569388032 -0.2870781422
vn -0.04821998253 -0.977411449 -0.2057708353
vn 0.07525879145 -0.7627419233 -0.64230901
vn -0.01131636463 -0.9902308583 0.1389776468
vn 0.005710395984 -0.9993687272 0.03506503254
vn 0.01883143 -0.09953387082 0.9948559403
vn 0.3832837343 -0.1146190837 0.9164911509
vn -0.5989937782 -0.3582521677 0.7161437273
vn -0.009461017326 -0.02500319108 0.9996426105
f 1//1 2//2 3//3 
f 3//3 2//2 4//4 
f 5//5 1//1 6//6 
f 6//6 1//1 3//3 
f 7//7 5//5 8//8 
f 8//8 5//5 6//6 
f 9//9 7//7 10//10 
f 10//10 7//7 8//8 
f 11//11 9//9 12//12 
f 12//12 9//9 10//10 
f 13//13 11//11 14//14 
f 14//14 11//11 12//12 
f 15//15 13//13 16//16 
f 16//16 13//13 14//14 
f 4//4 17//17 6//6 
f 6//6 17//17 18//18 
f 6//6 18//18 8//8 
f 8//8 18//18 14//14 
f 8//8 14//14 12//12 
f 18//18 16//16 14//14 
f 12//12 10//10 8//8 
f 6//6 3//3 4//4 
f 19//19 15//15 18//18 
f 18//18 15//15 16//16 
f 2//2 20//20 4//4 
f 4//4 20//20 17//17 
f 19//19 20//20 5//5 
f 5//5 20//20 2//2 
f 5//5 2//2 1//1 
f 5//5 7//7 19//19 
f 19//19 7//7 13//13 
f 19//19 13//13 15//15 
f 9//9 11//11 7//7 
f 7//7 11//11 13//13 
f 20//20 19//19 17//17 
f 17//17 19//19 18//18 
