v -10.18147469 55.578125 143.3808136
v -10.18147469 51.109375 143.3808136
v -10.18147469 55.578125 143.2974854
v -10.18147469 51.109375 143.2974854
v -13.98355865 51.109375 143.2974854
v -13.98355865 55.578125 143.2974854
v -13.98355865 55.578125 143.3808136
v -13.98355865 51.109375 143.3808136
vn 0.0109570995 0.009322475642 0.9998965263
vn 0.0437605232 -0.03723215312 0.9983479977
vn 0.0437605232 0.03723215312 -0.9983479977
vn 0.0109570995 -0.009322475642 -0.9998965263
vn -0.0437605232 -0.03723215312 -0.9983479977
vn -0.0109570995 0.009322475642 -0.9998965263
vn -0.0437605232 0.03723215312 0.9983479977
vn -0.0109570995 -0.009322475642 0.9998965263
f 1//1 2//2 3//3 
f 3//3 2//2 4//4 
f 5//5 6//6 4//4 
f 4//4 6//6 3//3 
f 1//1 3//3 7//7 
f 7//7 3//3 6//6 
f 8//8 5//5 2//2 
f 2//2 5//5 4//4 
f 2//2 1//1 8//8 
f 8//8 1//1 7//7 
f 8//8 7//7 5//5 
f 5//5 7//7 6//6 
