v 47.20610046 24.14583397 139.0683136
v 47.20610046 24.14583397 138.7349854
v -2.710565329 24.14583397 139.0683136
v -2.710565329 24.14583397 138.7349854
v 47.20610046 24.12641716 138.7543945
v 47.20610046 24.12641716 139.0489044
v -2.710565329 24.12641716 138.7543945
v -2.710565329 24.12641716 139.0489044
v 47.20610046 23.99858284 138.7543945
v 47.20610046 23.97916603 138.7349854
v 47.20610046 23.99858284 139.0489044
v 47.20610046 23.97916603 139.0683136
v -2.710565329 23.99858284 138.7543945
v -2.710565329 23.99858284 139.0489044
v -2.710565329 23.97916603 139.0683136
v -2.710565329 23.97916603 138.7349854
vn 0.0004125247069 0.7070986032 0.7071148157
vn 0.0005220376188 0.9701410532 -0.2425408214
vn -0.0003553263959 0.9701411128 0.2425408363
vn -0.0006555435248 0.7070985436 -0.7071146965
vn 0.0004211908381 -0.7551472187 0.6555551291
vn 0.0005951750209 -0.9772496223 -0.212091431
vn -0.0003800553968 -0.9772497416 0.2120914459
vn -0.0007536482299 -0.7551470399 -0.6555550098
vn 0.0003800553968 0.9772497416 0.2120914459
vn 0.0006555435248 -0.7070985436 -0.7071146965
vn 0.0007536482299 0.7551470399 -0.6555550098
vn 0.0003553263959 -0.9701411128 0.2425408363
vn -0.0004211908381 0.7551472187 0.6555551291
vn -0.0005951750209 0.9772496223 -0.212091431
vn -0.0004125247069 -0.7070986032 0.7071148157
vn -0.0005220376188 -0.9701410532 -0.2425408214
f 1//1 2//2 3//3 
f 3//3 2//2 4//4 
f 5//5 6//6 7//7 
f 7//7 6//6 8//8 
f 2//2 9//9 10//10 
f 10//10 9//9 11//11 
f 10//10 11//11 12//12 
f 12//12 11//11 6//6 
f 12//12 6//6 1//1 
f 1//1 6//6 2//2 
f 2//2 6//6 5//5 
f 2//2 5//5 9//9 
f 9//9 5//5 13//13 
f 13//13 5//5 7//7 
f 6//6 11//11 8//8 
f 8//8 11//11 14//14 
f 15//15 14//14 16//16 
f 16//16 14//14 13//13 
f 16//16 13//13 7//7 
f 15//15 3//3 14//14 
f 14//14 3//3 8//8 
f 8//8 3//3 4//4 
f 8//8 4//4 7//7 
f 7//7 4//4 16//16 
f 11//11 9//9 14//14 
f 14//14 9//9 13//13 
f 2//2 10//10 4//4 
f 4//4 10//10 16//16 
f 12//12 1//1 15//15 
f 15//15 1//1 3//3 
f 10//10 12//12 16//16 
f 16//16 12//12 15//15 
