v 47.03943634 24.14583397 73.15164948
v 47.03943634 24.14583397 138.9016571
v 47.3727684 24.14583397 73.15164948
v 47.3727684 24.14583397 138.9016571
v 47.35335159 24.12641716 73.15164948
v 47.35335159 24.12641716 138.9016571
v 47.05885315 24.12641716 73.15164948
v 47.05885315 24.12641716 138.9016571
v 47.05885315 23.99858284 73.15164948
v 47.03943634 23.97916603 73.15164948
v 47.35335159 23.99858284 73.15164948
v 47.3727684 23.97916603 73.15164948
v 47.05885315 23.99858284 138.9016571
v 47.35335159 23.99858284 138.9016571
v 47.3727684 23.97916603 138.9016571
v 47.03943634 23.97916603 138.9016571
vn -0.4472175837 0.8944249153 -0.0007308638305
vn -0.4472176731 0.8944250941 0.0003147835378
vn 0.4472176731 0.8944251537 -0.0001981020469
vn 0.4472176433 0.8944250345 0.0004975009942
vn -0.3981797695 -0.9173070192 -0.0008484014543
vn -0.3981798887 -0.9173073173 0.000347546651
vn 0.3981798887 -0.9173073173 -0.0001942400122
vn 0.3981798291 -0.917307198 0.0005417883513
vn 0.3981798291 0.917307198 -0.0005417883513
vn -0.4472176731 -0.8944250941 -0.0003147835378
vn -0.3981798887 0.9173073173 -0.000347546651
vn 0.4472176433 -0.8944250345 -0.0004975009942
vn 0.3981798887 0.9173073173 0.0001942400122
vn -0.3981797695 0.9173070192 0.0008484014543
vn 0.4472176731 -0.8944251537 0.0001981020469
vn -0.4472175837 -0.8944249153 0.0007308638305
f 1//1 2//2 3//3 
f 3//3 2//2 4//4 
f 5//5 6//6 7//7 
f 7//7 6//6 8//8 
f 1//1 9//9 10//10 
f 10//10 9//9 11//11 
f 10//10 11//11 12//12 
f 12//12 11//11 5//5 
f 12//12 5//5 3//3 
f 3//3 5//5 1//1 
f 1//1 5//5 7//7 
f 1//1 7//7 9//9 
f 9//9 7//7 13//13 
f 13//13 7//7 8//8 
f 5//5 11//11 6//6 
f 6//6 11//11 14//14 
f 15//15 14//14 16//16 
f 16//16 14//14 13//13 
f 16//16 13//13 8//8 
f 15//15 4//4 14//14 
f 14//14 4//4 6//6 
f 6//6 4//4 2//2 
f 6//6 2//2 8//8 
f 8//8 2//2 16//16 
f 9//9 13//13 11//11 
f 11//11 13//13 14//14 
f 1//1 10//10 2//2 
f 2//2 10//10 16//16 
f 12//12 3//3 15//15 
f 15//15 3//3 4//4 
f 12//12 15//15 10//10 
f 10//10 15//15 16//16 
