v -73.20014954 23.8125 130.5266571
v -73.20014954 23.75 130.5266571
v -72.47301483 23.8125 130.5266571
v -72.47301483 23.75 130.5266571
v -39.20014954 23.8125 62.52665329
v -39.20014954 23.75 62.52665329
v -42.49068451 23.75 74.13809204
v -40.74493408 23.75 70.57323456
v -39.2403717 23.75 66.90007019
v -37.98366547 23.75 63.13489151
v -37.98366547 23.8125 63.13489151
v -42.49068451 23.8125 74.13809204
v -40.74493408 23.8125 70.57323456
v -39.2403717 23.8125 66.90007019
vn -0.04004776478 0.9990013838 -0.01980976202
vn -0.02003895119 -0.9997531772 -0.009590916336
vn 0.08554060757 0.9951927066 0.047688853
vn 0.1687225997 -0.9814724326 0.09079923481
vn -0.02180655673 0.9996914268 -0.01189631037
vn -0.04416813329 -0.9987689257 -0.02258012258
vn 0.01799420267 -0.9997931123 0.009482859634
vn 0.030196812 -0.9994519949 0.01356020849
vn 0.07867146283 -0.9964727163 0.02920449339
vn 0.0581510067 -0.9982133508 -0.01373053994
vn 0.09473319352 0.9953882098 0.01509623695
vn 0.03294261545 0.9993044734 0.01747350395
vn 0.06029460579 0.997813344 0.02707595192
vn 0.03944002464 0.9991146922 0.01464096177
f 1//1 2//2 3//3 
f 3//3 2//2 4//4 
f 5//5 6//6 1//1 
f 1//1 6//6 2//2 
f 4//4 2//2 7//7 
f 7//7 2//2 6//6 
f 7//7 6//6 8//8 
f 8//8 6//6 9//9 
f 9//9 6//6 10//10 
f 11//11 10//10 5//5 
f 5//5 10//10 6//6 
f 3//3 4//4 12//12 
f 12//12 4//4 7//7 
f 3//3 12//12 1//1 
f 1//1 12//12 5//5 
f 5//5 12//12 13//13 
f 5//5 13//13 14//14 
f 14//14 11//11 5//5 
f 10//10 11//11 9//9 
f 9//9 11//11 14//14 
f 9//9 14//14 13//13 
f 12//12 7//7 13//13 
f 13//13 7//7 8//8 
f 13//13 8//8 9//9 
