v -80.48256683 19.28645897 -95.52690887
v -80.48256683 19.20833397 -95.52690887
v -81.7170105 19.28645897 -99.11199951
v -81.7170105 19.20833397 -99.11199951
v -80.36437225 19.28645897 -95.56760406
v -81.59882355 19.28645897 -99.1526947
v -80.36437225 19.20833397 -95.56760406
v -81.59882355 19.20833397 -99.1526947
v -79.73403168 19.20833397 -95.78465271
v -80.96847534 19.20833397 -99.36974335
v -79.73403168 19.45833397 -95.78465271
v -80.96847534 19.45833397 -99.36974335
v -80.53181458 19.45833397 -95.50994873
v -81.76625824 19.45833397 -99.09503937
v -80.53181458 19.41666603 -95.50994873
v -81.76625824 19.41666603 -99.09503937
v -81.77610779 19.20833397 -99.09165192
v -81.77610779 19.41666603 -99.09165192
v -80.54165649 19.20833397 -95.50656128
v -80.54165649 19.41666603 -95.50656128
vn 0.2934839129 -0.9538701177 -0.06323734671
vn 0.8803673983 -0.3713536263 -0.295041889
vn 0.7222929001 -0.6240009069 -0.2981876135
vn 0.4982691109 -0.8479602337 -0.1808072925
vn -0.5325527191 -0.5666142702 0.6287574172
vn -0.3746363819 -0.8995659947 -0.2245631516
vn -0.05195550621 -0.9982349873 0.02876633033
vn -0.2222444862 -0.9734207392 0.05531282723
vn 0.5884444118 -0.7980878353 -0.1295724362
vn 0.1602573991 -0.9819845557 -0.1001191959
vn 0.2983809412 0.9544446468 -0.002067424124
vn 0.2527549565 0.9577044845 -0.1375391334
vn -0.04484926537 0.9987677932 0.02124693617
vn -0.05020714924 0.9987226725 0.005679963622
vn -0.3993751109 0.1676305681 0.9013320804
vn -0.9638380408 0.2149124444 -0.1575717032
vn -0.9386462569 -0.1483369619 0.3113508224
vn -0.9500999451 0.04992575198 0.3079245985
vn -0.8043000698 -0.5143919587 0.2974933684
vn -0.9413419366 0.04991428182 0.3337423205
f 1//1 2//2 3//3 
f 3//3 2//2 4//4 
f 5//5 1//1 6//6 
f 6//6 1//1 3//3 
f 7//7 5//5 8//8 
f 8//8 5//5 6//6 
f 9//9 7//7 10//10 
f 10//10 7//7 8//8 
f 11//11 9//9 12//12 
f 12//12 9//9 10//10 
f 11//11 12//12 13//13 
f 13//13 12//12 14//14 
f 15//15 13//13 16//16 
f 16//16 13//13 14//14 
f 4//4 17//17 3//3 
f 3//3 17//17 18//18 
f 3//3 18//18 16//16 
f 14//14 12//12 16//16 
f 16//16 12//12 6//6 
f 16//16 6//6 3//3 
f 12//12 10//10 6//6 
f 6//6 10//10 8//8 
f 2//2 19//19 4//4 
f 4//4 19//19 17//17 
f 15//15 16//16 20//20 
f 20//20 16//16 18//18 
f 2//2 1//1 19//19 
f 19//19 1//1 20//20 
f 20//20 1//1 15//15 
f 15//15 1//1 5//5 
f 15//15 5//5 11//11 
f 11//11 5//5 9//9 
f 9//9 5//5 7//7 
f 11//11 13//13 15//15 
f 19//19 20//20 17//17 
f 17//17 20//20 18//18 
