v 14.4040184 23.75 -75.67126465
v 14.4040184 37.25 -75.67126465
v 14.4040184 23.75 -76.27542877
v 14.4040184 37.25 -76.27542877
v 26.42485046 23.75 -75.67126465
v 26.42485046 37.25 -75.67126465
v 26.42485046 23.75 -76.27542877
v 26.42485046 37.25 -76.27542877
vn -0.02511566505 -0.0223637931 0.9994343519
vn -0.09962122887 0.08870592713 0.9910634756
vn -0.09962122887 -0.08870592713 -0.9910634756
vn -0.02511566505 0.0223637931 -0.9994343519
vn 0.09962122887 -0.08870592713 0.9910634756
vn 0.02511566505 0.0223637931 0.9994343519
vn 0.02511566505 -0.0223637931 -0.9994343519
vn 0.09962122887 0.08870592713 -0.9910634756
f 1//1 2//2 3//3 
f 3//3 2//2 4//4 
f 5//5 6//6 1//1 
f 1//1 6//6 2//2 
f 1//1 3//3 5//5 
f 5//5 3//3 7//7 
f 6//6 8//8 2//2 
f 2//2 8//8 4//4 
f 3//3 4//4 7//7 
f 7//7 4//4 8//8 
f 6//6 5//5 8//8 
f 8//8 5//5 7//7 
