v -24.80431557 8.666666985 -122.3483505
v -24.80431557 0.1666666716 -122.3483505
v -24.80431557 8.666666985 -122.4733505
v -24.80431557 0.1666666716 -122.4733505
v -37.63764954 0.1666666716 -122.4733505
v -37.63764954 8.666666985 -122.4733505
v -37.63764954 8.666666985 -122.3483505
v -37.63764954 0.1666666716 -122.3483505
vn 0.004869940225 0.007352654822 0.9999611378
vn 0.01946840808 -0.02939347923 0.9993783236
vn 0.01946840808 0.02939347923 -0.9993783236
vn 0.004869940225 -0.007352654822 -0.9999611378
vn -0.01946840808 -0.02939347923 -0.9993783236
vn -0.004869940225 0.007352654822 -0.9999611378
vn -0.01946840808 0.02939347923 0.9993783236
vn -0.004869940225 -0.007352654822 0.9999611378
f 1//1 2//2 3//3 
f 3//3 2//2 4//4 
f 5//5 6//6 4//4 
f 4//4 6//6 3//3 
f 1//1 3//3 7//7 
f 7//7 3//3 6//6 
f 8//8 5//5 2//2 
f 2//2 5//5 4//4 
f 2//2 1//1 8//8 
f 8//8 1//1 7//7 
f 8//8 7//7 5//5 
f 5//5 7//7 6//6 
