v -54.95740891 7.166666508 62.74961853
v -54.95740891 3.25 62.74961853
v -54.96845627 7.166666508 62.66702271
v -54.96845627 3.25 62.66702271
v -57.51245499 3.25 63.00733185
v -57.51245499 7.166666508 63.00733185
v -57.50140762 7.166666508 63.08992767
v -57.50140762 3.25 63.08992767
vn 0.1486252546 0.02126847021 0.9886648655
vn 0.1963578761 -0.04242448136 0.979614079
vn -0.06806914508 0.02122661844 -0.9974547625
vn -0.1164763123 -0.0106360456 -0.9931365252
vn -0.1963578761 -0.04242448136 -0.979614079
vn -0.1486252546 0.02126847021 -0.9886648655
vn 0.06806914508 0.02122661844 0.9974547625
vn 0.1164763123 -0.0106360456 0.9931365252
f 1//1 2//2 3//3 
f 3//3 2//2 4//4 
f 5//5 6//6 4//4 
f 4//4 6//6 3//3 
f 7//7 1//1 6//6 
f 6//6 1//1 3//3 
f 8//8 5//5 2//2 
f 2//2 5//5 4//4 
f 2//2 1//1 8//8 
f 8//8 1//1 7//7 
f 8//8 7//7 5//5 
f 5//5 7//7 6//6 
