v -54.98779297 7.166666508 62.5224762
v -54.9380722 7.166666508 62.89416504
v -57.53179169 7.166666508 62.86278534
v -57.48207092 7.166666508 63.23447418
v -57.53179169 7.333333492 62.86278534
v -57.48207092 7.333333492 63.23447418
v -54.98779297 7.333333492 62.5224762
v -54.9380722 7.333333492 62.89416504
vn -0.03993529081 -0.7465296984 -0.6641525626
vn 0.09140847623 -0.9742316008 0.2061972618
vn -0.09140847623 -0.9742316008 -0.2061972618
vn 0.03993529081 -0.7465296984 0.6641525626
vn -0.08322012424 0.9134091735 -0.3984445333
vn -0.06333573163 0.9074431062 0.4153740704
vn 0.06333573163 0.9074431062 -0.4153740704
vn 0.08322012424 0.9134091735 0.3984445333
f 1//1 2//2 3//3 
f 3//3 2//2 4//4 
f 5//5 3//3 6//6 
f 6//6 3//3 4//4 
f 7//7 1//1 5//5 
f 5//5 1//1 3//3 
f 2//2 8//8 4//4 
f 4//4 8//8 6//6 
f 8//8 2//2 7//7 
f 7//7 2//2 1//1 
f 7//7 5//5 8//8 
f 8//8 5//5 6//6 
