v -68.60894775 7.166666508 64.49170685
v -68.60894775 3.25 64.49170685
v -68.59790039 7.166666508 64.57430267
v -68.59790039 3.25 64.57430267
v -66.05390167 3.25 64.23399353
v -66.05390167 7.166666508 64.23399353
v -66.06494904 7.166666508 64.15139008
v -66.06494904 3.25 64.15139008
vn -0.1486281455 0.02126942948 -0.9886643887
vn -0.1963607073 -0.04242638499 -0.9796134233
vn 0.06806914508 0.02122661844 0.9974547625
vn 0.1164763123 -0.0106360456 0.9931365252
vn 0.1963635534 -0.04242635891 0.9796128869
vn 0.1486267 0.02126943506 0.9886646271
vn -0.0680661872 0.02122855559 -0.9974549413
vn -0.11647778 -0.01063701324 -0.9931363463
f 1//1 2//2 3//3 
f 3//3 2//2 4//4 
f 5//5 6//6 4//4 
f 4//4 6//6 3//3 
f 7//7 1//1 6//6 
f 6//6 1//1 3//3 
f 8//8 5//5 2//2 
f 2//2 5//5 4//4 
f 2//2 1//1 8//8 
f 8//8 1//1 7//7 
f 8//8 7//7 5//5 
f 5//5 7//7 6//6 
