v -51.99775314 3.083333254 62.12250137
v -51.94803238 3.083333254 62.49419022
v -54.8225975 3.083333254 62.50037766
v -54.77287674 3.083333254 62.8720665
v -54.8225975 3.25 62.50037766
v -54.77287674 3.25 62.8720665
v -51.99775314 3.25 62.12250137
v -51.94803238 3.25 62.49419022
vn -0.04472180456 -0.7466959357 -0.6636604071
vn 0.08520650864 -0.9746002555 0.2071092427
vn -0.08520650864 -0.9746002555 -0.2071092427
vn 0.04472180456 -0.7466959357 0.6636604071
vn -0.08030411601 0.9134853482 -0.3988681734
vn -0.05179065838 0.9086363912 0.4143641591
vn 0.05179065838 0.9086363912 -0.4143641591
vn 0.08030411601 0.9134853482 0.3988681734
f 1//1 2//2 3//3 
f 3//3 2//2 4//4 
f 5//5 3//3 6//6 
f 6//6 3//3 4//4 
f 7//7 1//1 5//5 
f 5//5 1//1 3//3 
f 2//2 8//8 4//4 
f 4//4 8//8 6//6 
f 8//8 2//2 7//7 
f 7//7 2//2 1//1 
f 7//7 5//5 8//8 
f 8//8 5//5 6//6 
