v -36.4084816 23.75 -111.3066788
v -36.4084816 0.1666666716 -111.3066788
v -36.5334816 23.75 -111.3066788
v -36.5334816 0.1666666716 -111.3066788
v -36.5334816 0.1666666716 -92.97335052
v -36.5334816 36.75 -92.97335052
v -36.5334816 36.75 -111.4316788
v -36.5334816 23.75 -111.4316788
v -36.4084816 23.75 -111.4316788
v -36.4084816 0.1666666716 -92.97335052
v -36.4084816 36.75 -92.97335052
v -36.4084816 36.75 -111.4316788
vn 0.9999976158 -2.324039087e-05 -0.002192343585
vn 0.9998930097 -0.005299786106 -0.01363490801
vn -0.9999904037 -1.162011176e-05 -0.004384655505
vn -0.9999206066 -0.01059986465 -0.006817642134
vn -0.9999634624 -0.002077486366 0.008291061968
vn -0.9999745488 0.005067206919 0.005021454766
vn -0.9998639226 0.009549407288 -0.01345108822
vn -0.7070414424 -0.0135969501 -0.7070414424
vn 0.4472094476 -0.00430009095 -0.8944188952
vn 0.9999827743 -0.004155053291 0.004145611078
vn 0.9999463558 0.002533531981 0.01004262641
vn 0.9997950196 0.01909749769 -0.006725080311
f 1//1 2//2 3//3 
f 3//3 2//2 4//4 
f 4//4 5//5 3//3 
f 3//3 5//5 6//6 
f 3//3 6//6 7//7 
f 7//7 8//8 3//3 
f 9//9 1//1 8//8 
f 8//8 1//1 3//3 
f 2//2 1//1 10//10 
f 10//10 1//1 11//11 
f 11//11 1//1 12//12 
f 12//12 1//1 9//9 
f 11//11 12//12 6//6 
f 6//6 12//12 7//7 
f 12//12 9//9 7//7 
f 7//7 9//9 8//8 
f 2//2 10//10 4//4 
f 4//4 10//10 5//5 
f 10//10 11//11 5//5 
f 5//5 11//11 6//6 
