v -1.543898702 30.91666603 -91.60876465
v -1.543898702 23.91666603 -91.60876465
v -1.543898702 30.91666603 -91.52542877
v -1.543898702 23.91666603 -91.52542877
v -7.877232075 30.91666603 -91.60876465
v -7.877232075 30.91666603 -91.52542877
v -7.877232075 23.91666603 -91.60876465
v -7.877232075 23.91666603 -91.52542877
v -15.0334816 23.91666603 -91.60876465
v -15.0334816 23.91666603 -91.52542877
v -15.0334816 33.58333206 -91.60876465
v -15.0334816 33.58333206 -91.52542877
v 7.024963379 23.91666603 -91.52542877
v 7.024963379 33.58333206 -91.52542877
v 7.024963379 23.91666603 -91.60876465
v 7.024963379 33.58333206 -91.60876465
vn -0.002669467358 -0.00241523236 -0.9999935031
vn -0.01944167539 -0.02379900403 -0.9995276928
vn -0.005338830873 -0.004830370657 0.999974072
vn -0.009724281728 -0.01190371905 0.9998818636
vn 0.008568058722 -0.00775205344 -0.9999332428
vn 0.004284244031 -0.003876220668 0.9999833107
vn 0.01164357457 -0.01190347504 -0.9998613596
vn 0.02327746898 -0.02379705384 0.999445796
vn -0.01350651123 -0.009998893365 -0.9998587966
vn -0.006753970869 -0.00499997614 0.9999647141
vn -0.005559468176 0.01268619671 -0.9999040961
vn -0.01111573819 0.02536509372 0.9996164441
vn 0.01128021814 -0.009999169037 0.9998863935
vn 0.005686352029 0.01297573373 0.9998996258
vn 0.005640589632 -0.005000010598 -0.9999715686
vn 0.01136928145 0.02594365738 -0.9995987415
f 1//1 2//2 3//3 
f 3//3 2//2 4//4 
f 1//1 3//3 5//5 
f 5//5 3//3 6//6 
f 7//7 5//5 8//8 
f 8//8 5//5 6//6 
f 7//7 8//8 9//9 
f 9//9 8//8 10//10 
f 11//11 9//9 12//12 
f 12//12 9//9 10//10 
f 4//4 13//13 3//3 
f 3//3 13//13 14//14 
f 3//3 14//14 12//12 
f 3//3 12//12 6//6 
f 6//6 12//12 10//10 
f 6//6 10//10 8//8 
f 15//15 13//13 2//2 
f 2//2 13//13 4//4 
f 11//11 12//12 16//16 
f 16//16 12//12 14//14 
f 2//2 1//1 15//15 
f 15//15 1//1 16//16 
f 16//16 1//1 11//11 
f 11//11 1//1 5//5 
f 11//11 5//5 9//9 
f 9//9 5//5 7//7 
f 15//15 16//16 13//13 
f 13//13 16//16 14//14 
