v -36.96056366 37.25 -91.26501465
v -36.96056366 23.75 -91.26501465
v -36.4084816 37.25 -91.26501465
v -36.4084816 23.75 -91.26501465
v -36.96056366 23.75 -92.97335052
v -36.96056366 37.25 -92.97335052
v -36.4084816 23.75 -92.97335052
v -36.4084816 37.25 -92.97335052
vn -0.986391902 0.04033846408 0.1593858898
vn -0.8393508792 -0.03432522714 0.5425052047
vn 0.8393508792 0.03432522714 0.5425052047
vn 0.986391902 -0.04033846408 0.1593858898
vn -0.986391902 -0.04033846408 -0.1593858898
vn -0.8393508792 0.03432522714 -0.5425052047
vn 0.8393508792 -0.03432522714 -0.5425052047
vn 0.986391902 0.04033846408 -0.1593858898
f 1//1 2//2 3//3 
f 3//3 2//2 4//4 
f 2//2 1//1 5//5 
f 5//5 1//1 6//6 
f 2//2 5//5 4//4 
f 4//4 5//5 7//7 
f 6//6 1//1 8//8 
f 8//8 1//1 3//3 
f 7//7 8//8 4//4 
f 4//4 8//8 3//3 
f 5//5 6//6 7//7 
f 7//7 6//6 8//8 
