v 11.816679 0.1666666716 114.0711823
v 11.816679 8.168657303 114.0711823
v 11.64368916 0.1666666716 113.738472
v 11.64368916 8.168657303 113.738472
v 11.96455288 8.168657303 113.9943008
v 11.79156303 8.168657303 113.6615829
v 11.79156303 0.1666666716 113.6615829
v 11.96455288 0.1666666716 113.9943008
vn -0.356485188 -0.03111920878 0.9337825775
vn -0.765879333 0.02032813802 0.6426628828
vn -0.9661342502 -0.01016566157 0.2578396201
vn -0.9694900513 0.01556518022 -0.244636029
vn 0.9694891572 0.01556536183 0.2446396351
vn 0.7658834457 0.02032798342 -0.6426579952
vn 0.356471926 -0.03111937642 -0.9337876439
vn 0.9661349058 -0.01016553305 -0.2578371465
f 1//1 2//2 3//3 
f 3//3 2//2 4//4 
f 5//5 6//6 2//2 
f 2//2 6//6 4//4 
f 3//3 4//4 7//7 
f 7//7 4//4 6//6 
f 8//8 5//5 1//1 
f 1//1 5//5 2//2 
f 8//8 1//1 7//7 
f 7//7 1//1 3//3 
f 7//7 6//6 8//8 
f 8//8 6//6 5//5 
