v 18.12289429 8.126990318 113.0873718
v 18.12289429 7.960324287 113.0873718
v 24.47348976 8.126990318 114.2621155
v 24.47348976 7.960324287 114.2621155
v 18.12478828 8.126990318 113.0771332
v 24.47538376 8.126990318 114.2518692
v 18.12478828 8.168657303 113.0771332
v 24.47538376 8.168657303 114.2518692
v 24.54170036 7.960324287 113.8933716
v 24.54170036 8.168657303 113.8933716
v 18.19110489 8.168657303 112.7186279
v 18.19110489 7.960324287 112.7186279
vn -0.1820641458 0.1240284517 0.9754330516
vn -0.08578469604 -0.9137448668 0.3971287608
vn -0.1810140312 0.03124442138 0.982984066
vn -0.05002690479 -0.9135437012 0.4036523402
vn -0.4443187118 0.1191887707 0.8879047632
vn 0.3066663146 0.3973312378 0.8649182916
vn -0.01354393456 0.9983661175 0.0555123724
vn -0.03434609249 0.974838376 0.2202509344
vn 0.1128712073 -0.8738846183 -0.4728485346
vn 0.06825818121 0.9613576531 -0.2667063773
vn 0.1117880195 0.658295393 -0.744412899
vn 0.03914675117 -0.8730678558 -0.4860247076
f 1//1 2//2 3//3 
f 3//3 2//2 4//4 
f 5//5 1//1 6//6 
f 6//6 1//1 3//3 
f 7//7 5//5 8//8 
f 8//8 5//5 6//6 
f 4//4 9//9 6//6 
f 6//6 9//9 10//10 
f 6//6 10//10 8//8 
f 6//6 3//3 4//4 
f 11//11 7//7 10//10 
f 10//10 7//7 8//8 
f 12//12 9//9 2//2 
f 2//2 9//9 4//4 
f 11//11 12//12 5//5 
f 5//5 12//12 2//2 
f 5//5 2//2 1//1 
f 5//5 7//7 11//11 
f 12//12 11//11 9//9 
f 9//9 11//11 10//10 
