v -58.00139999 18.66666603 126.726738
v -58.00139999 0 126.726738
v -58.00139999 18.66666603 127.2371521
v -58.00139999 0 127.2371521
v -55.26746368 18.66666603 127.2371521
v -55.26746368 0 127.2371521
v -55.26746368 0 126.726738
v -55.26746368 18.66666603 126.726738
vn -0.09293516725 0.01361136604 -0.9955791235
vn -0.3493437171 -0.05116518959 -0.9355966449
vn -0.3493437171 0.05116518959 0.9355966449
vn -0.09293516725 -0.01361136604 0.9955791235
vn 0.09293516725 0.01361136604 0.9955791235
vn 0.3493437171 -0.05116518959 0.9355966449
vn 0.09293516725 -0.01361136604 -0.9955791235
vn 0.3493437171 0.05116518959 -0.9355966449
f 1//1 2//2 3//3 
f 3//3 2//2 4//4 
f 3//3 4//4 5//5 
f 5//5 4//4 6//6 
f 2//2 1//1 7//7 
f 7//7 1//1 8//8 
f 5//5 8//8 3//3 
f 3//3 8//8 1//1 
f 4//4 2//2 6//6 
f 6//6 2//2 7//7 
f 5//5 6//6 8//8 
f 8//8 6//6 7//7 
