v -9.747660637 8.168657303 62.95114517
v -8.634397507 8.168657303 71.37792969
v -9.386218071 8.168657303 62.90339661
v -8.272954941 8.168657303 71.33017731
v -9.386218071 8.126990318 62.90339661
v -8.272954941 8.126990318 71.33017731
v -9.375890732 8.126990318 62.90203094
v -8.262627602 8.126990318 71.32881165
v -8.634397507 7.960324287 71.37792969
v -8.262627602 7.960324287 71.32881165
v -9.375890732 7.960324287 62.90203094
v -9.747660637 7.960324287 62.95114517
vn -0.4950482547 0.8679602742 0.03965081647
vn -0.4901526868 0.8681725264 0.07763229311
vn 0.1122501418 0.9935296178 -0.01728567854
vn 0.1132059097 0.9935207963 -0.01004309393
vn 0.8336686492 0.2231741846 -0.5051631927
vn 0.9679791927 0.2372330576 0.0820780471
vn 0.989374876 0.06238195673 -0.1313233525
vn 0.9896146655 0.0623819083 -0.129504323
vn -0.2625394762 -0.9633072019 0.05578733236
vn 0.6605368853 -0.7473263144 -0.07207230479
vn 0.2137621939 -0.9761400819 -0.03816141561
vn -0.7403841019 -0.6686831117 0.06851446629
f 1//1 2//2 3//3 
f 3//3 2//2 4//4 
f 5//5 3//3 6//6 
f 6//6 3//3 4//4 
f 5//5 6//6 7//7 
f 7//7 6//6 8//8 
f 2//2 9//9 6//6 
f 6//6 9//9 10//10 
f 6//6 10//10 8//8 
f 6//6 4//4 2//2 
f 11//11 7//7 10//10 
f 10//10 7//7 8//8 
f 1//1 12//12 2//2 
f 2//2 12//12 9//9 
f 11//11 12//12 5//5 
f 5//5 12//12 1//1 
f 5//5 1//1 3//3 
f 5//5 7//7 11//11 
f 12//12 11//11 9//9 
f 9//9 11//11 10//10 
