v -55.26746368 18.66666603 120.1319809
v -55.26746368 0 120.1319809
v -54.75704956 18.66666603 120.1319809
v -54.75704956 0 120.1319809
v -55.26746368 0 118.8918762
v -55.26746368 18.66666603 118.8918762
v -54.75704956 0 118.8244476
v -54.75704956 18.66666603 118.8244476
vn -0.9793861508 0.01338997949 0.201552555
vn -0.7718909383 -0.0211062897 0.6354045272
vn 0.787529707 0.04195732996 0.614846766
vn 0.9811441898 -0.02613627724 0.1915017664
vn -0.9801627994 -0.02680119313 -0.1963736415
vn -0.8022402525 0.04064502567 -0.5956161618
vn 0.7540525794 -0.02298964374 -0.6564115882
vn 0.9804221988 0.01375891175 -0.1964256018
f 1//1 2//2 3//3 
f 3//3 2//2 4//4 
f 2//2 1//1 5//5 
f 5//5 1//1 6//6 
f 2//2 5//5 4//4 
f 4//4 5//5 7//7 
f 1//1 3//3 6//6 
f 6//6 3//3 8//8 
f 7//7 8//8 4//4 
f 4//4 8//8 3//3 
f 5//5 6//6 7//7 
f 7//7 6//6 8//8 
