v -45.47618866 18.66666603 -122.4837646
v -45.47618866 0.1666666716 -122.4837646
v -45.47618866 18.66666603 -121.9316788
v -45.47618866 0.1666666716 -121.9316788
v -37.95014954 9.405470848 -122.4837646
v -37.95014954 8.858333588 -122.4837646
v -38.58761215 8.858333588 -122.4837646
v -43.5334816 18.66666603 -122.4733505
v -43.5334816 0.1666666716 -122.4733505
v -43.5334816 18.66666603 -122.4837646
v -43.5334816 0.1666666716 -122.4837646
v -37.95014954 18.66666603 -121.9316788
v -37.95014954 18.66666603 -122.4733505
v -43.38764954 0.1666666716 -121.9316788
v -43.38764954 0.1666666716 -122.4733505
v -43.38764954 7.1875 -121.9316788
v -43.38764954 7.1875 -122.4733505
v -40.3459816 7.1875 -122.4733505
v -38.58761215 8.858333588 -122.4733505
v -37.95014954 9.405470848 -122.4733505
v -37.95014954 8.858333588 -122.4733505
v -37.95014954 0.1666666716 -122.4733505
v -40.3459816 0.1666666716 -122.4733505
v -40.3459816 7.1875 -121.9316788
v -40.3459816 0.1666666716 -121.9316788
v -37.95014954 0.1666666716 -121.9316788
vn -0.1406629086 0.01504981238 -0.9899431467
vn -0.49395895 -0.02642484009 -0.8690835834
vn -0.1266191006 0.03191753104 0.9914377928
vn -0.1880410761 -0.04057468846 0.9813227057
vn -1.215188512e-15 0.03804012761 -0.9992762208
vn 0.01633170061 -0.01902785525 -0.9996855855
vn -0.01633170061 -0.01902785525 -0.9996855855
vn 0.001888180617 0.08030299842 -0.996768713
vn 0.08770009875 -0.5241824389 -0.8470782042
vn 0.01072063204 0.0005628931685 -0.9999423623
vn 0.002680302598 -0.0002814617765 -0.9999963641
vn 0.114119716 0.05388952792 0.9920043349
vn 0.05807773769 0.0350135453 -0.9976978898
vn 0.4592192769 -0.07307296991 0.8853123784
vn 0.9654227495 -0.0200531166 -0.2599168122
vn 0.04306192696 -0.01865591668 0.9988982081
vn 0.1924748719 -0.08338677138 -0.9777525663
vn -0.02562379092 -0.0111011127 -0.9996100068
vn -0.0002591504308 0.0001509664144 -0.9999999404
vn 0.9332222939 0.0004040285712 -0.3592993319
vn 0.6711226702 -0.001776517718 -0.7413442135
vn 0.1206678376 -0.03326172754 -0.9921355247
vn -0.4080017209 -0.1392289996 -0.9023025632
vn -0.04164455831 -0.01804186404 0.9989695549
vn -0.2199015021 -0.07504053414 0.9726316333
vn 0.2384359539 -0.04118797183 0.9702844024
f 1//1 2//2 3//3 
f 3//3 2//2 4//4 
f 5//5 6//6 7//7 
f 8//8 9//9 10//10 
f 10//10 9//9 11//11 
f 1//1 3//3 8//8 
f 8//8 3//3 12//12 
f 8//8 12//12 13//13 
f 8//8 10//10 1//1 
f 14//14 4//4 9//9 
f 9//9 4//4 2//2 
f 9//9 2//2 11//11 
f 9//9 15//15 14//14 
f 16//16 14//14 17//17 
f 17//17 14//14 15//15 
f 15//15 9//9 17//17 
f 17//17 9//9 8//8 
f 17//17 8//8 18//18 
f 18//18 8//8 13//13 
f 18//18 13//13 19//19 
f 19//19 13//13 20//20 
f 21//21 22//22 19//19 
f 19//19 22//22 18//18 
f 22//22 23//23 18//18 
f 16//16 17//17 24//24 
f 24//24 17//17 18//18 
f 25//25 23//23 26//26 
f 26//26 23//23 22//22 
f 4//4 16//16 3//3 
f 3//3 16//16 24//24 
f 3//3 24//24 12//12 
f 12//12 24//24 26//26 
f 26//26 24//24 25//25 
f 4//4 14//14 16//16 
f 25//25 24//24 23//23 
f 23//23 24//24 18//18 
f 2//2 1//1 11//11 
f 11//11 1//1 10//10 
f 20//20 5//5 19//19 
f 19//19 5//5 7//7 
f 13//13 12//12 20//20 
f 20//20 12//12 26//26 
f 20//20 26//26 21//21 
f 21//21 26//26 22//22 
f 6//6 5//5 21//21 
f 21//21 5//5 20//20 
f 19//19 7//7 21//21 
f 21//21 7//7 6//6 
