v 50.98735046 0.1666666716 104.4443665
v 50.98735046 10 104.4443665
v 50.98735046 0.1666666716 104.9592209
v 50.98735046 10 104.9592209
v 38.8008194 10 106.5691833
v 38.73399734 10 106.0631561
v 39.97058487 7.020833492 106.4146423
v 39.97058487 0 106.4146423
v 39.90373611 7.020833492 105.9086227
v 39.90373611 0 105.9086227
v 42.49036026 7.020833492 106.0817566
v 38.8008194 0 106.5691833
v 42.49036026 0 106.0817566
v 51.53943634 0 104.8862839
v 51.53943634 0.1666666716 104.8862839
v 42.42350769 7.020833492 105.575737
v 38.73399734 0 106.0631561
v 42.42350769 0 105.575737
v 51.53943634 0 104.3714294
v 51.53943634 0.1666666716 104.3714294
vn -0.09696169943 0.003876812523 -0.9952805638
vn -0.04811006412 0.05212882534 -0.9974808097
vn 0.1980308443 0.001923938515 0.980193913
vn 0.1708465815 0.1028722674 0.9799126387
vn -0.04867412522 0.1095756292 0.9927859902
vn -0.214838773 0.2176582515 -0.9520867467
vn 0.2570069432 -0.04647086561 0.9652916193
vn 0.7432136536 -0.1092993543 0.660065949
vn 0.121429652 -0.09044842422 -0.9884704947
vn 0.2728021443 -0.06657654047 -0.9597638249
vn 0.0932309553 -0.01374274399 0.9955496788
vn -0.1172126755 -0.02905213833 0.9926818013
vn 0.07305698842 -0.07517456263 0.9944905639
vn 0.04033505172 -0.9848737717 0.1685132235
vn 0.167702958 0.9731723666 0.157515794
vn -0.1496418267 -0.00682724081 -0.9887167215
vn -0.5651656985 -0.05338810012 -0.8232480884
vn -0.240954712 -0.1477765739 -0.9592199326
vn -0.02559784427 -0.9455010891 -0.3246111274
vn 0.4708641768 0.8393238783 -0.2717026472
f 1//1 2//2 3//3 
f 3//3 2//2 4//4 
f 5//5 4//4 6//6 
f 6//6 4//4 2//2 
f 7//7 8//8 9//9 
f 9//9 8//8 10//10 
f 3//3 4//4 11//11 
f 11//11 4//4 5//5 
f 11//11 5//5 7//7 
f 7//7 5//5 12//12 
f 7//7 12//12 8//8 
f 11//11 13//13 3//3 
f 3//3 13//13 14//14 
f 3//3 14//14 15//15 
f 16//16 11//11 9//9 
f 9//9 11//11 7//7 
f 2//2 16//16 6//6 
f 6//6 16//16 9//9 
f 6//6 9//9 17//17 
f 17//17 9//9 10//10 
f 2//2 1//1 16//16 
f 16//16 1//1 18//18 
f 18//18 1//1 19//19 
f 19//19 1//1 20//20 
f 12//12 17//17 8//8 
f 8//8 17//17 10//10 
f 16//16 18//18 11//11 
f 11//11 18//18 13//13 
f 19//19 14//14 18//18 
f 18//18 14//14 13//13 
f 12//12 5//5 17//17 
f 17//17 5//5 6//6 
f 3//3 15//15 1//1 
f 1//1 15//15 20//20 
f 15//15 14//14 20//20 
f 20//20 14//14 19//19 
