v -46.36681366 18.66666603 -126.3902588
v -46.36681366 0.1666666716 -126.3902588
v -46.91889954 18.66666603 -126.3902588
v -46.91889954 0.1666666716 -126.3902588
v -46.91889954 0.1666666716 -123.3743896
v -46.91889954 18.66666603 -123.3743896
v -46.36681366 18.66666603 -123.3743896
v -46.36681366 0.1666666716 -123.3743896
vn 0.9953978062 0.02970513888 -0.09110890329
vn 0.9386734366 -0.02801234461 -0.3436676562
vn -0.9386734366 0.02801234461 -0.3436676562
vn -0.9953978062 -0.02970513888 -0.09110890329
vn -0.9386734366 -0.02801234461 0.3436676562
vn -0.9953978062 0.02970513888 0.09110890329
vn 0.9386734366 0.02801234461 0.3436676562
vn 0.9953978062 -0.02970513888 0.09110890329
f 1//1 2//2 3//3 
f 3//3 2//2 4//4 
f 5//5 6//6 4//4 
f 4//4 6//6 3//3 
f 7//7 1//1 6//6 
f 6//6 1//1 3//3 
f 2//2 8//8 4//4 
f 4//4 8//8 5//5 
f 2//2 1//1 8//8 
f 8//8 1//1 7//7 
f 8//8 7//7 5//5 
f 5//5 7//7 6//6 
