v 13.78006268 9.916666985 113.1266632
v 13.78006268 10.20833302 113.1266632
v 14.09167767 9.916666985 113.3489532
v 14.09167767 10.20833302 113.3489532
v 14.44940662 9.916666985 113.4851379
v 14.44940662 10.20833302 113.4851379
v 14.82995701 9.916666985 113.5263519
v 14.82995701 10.20833302 113.5263519
v 15.20854664 9.916666985 113.469902
v 15.20854664 10.20833302 113.469902
v 15.56052208 9.916666985 113.3194733
v 15.56052208 10.20833302 113.3194733
v 15.86296463 9.916666985 113.0848541
v 15.86296463 10.20833302 113.0848541
v 16.09617805 9.916666985 112.7813263
v 16.09617805 10.20833302 112.7813263
v 4.201926231 10.20833302 118.1066742
v 4.201926231 9.916666985 118.1066742
v 26.6724205 10.20833302 114.7377319
v 26.6724205 9.916666985 114.7377319
v 1.226556182 10.20833302 118.5046844
v 1.226556182 9.916666985 118.5046844
v 29.60904694 9.916666985 114.3497696
v 29.19384193 9.916666985 116.2358932
v 28.53951645 9.916666985 118.052948
v 27.65694046 9.916666985 119.7707672
v 26.56077194 9.916666985 121.360817
v 25.26921654 9.916666985 122.7966919
v 4.543778896 9.916666985 123.0261917
v 23.80372429 9.916666985 124.0545349
v 5.995688915 9.916666985 124.219017
v 7.585031986 9.916666985 125.2214508
v 22.18863487 9.916666985 125.1134644
v 9.286988258 9.916666985 126.0178375
v 20.45077324 9.916666985 125.9558868
v 11.07498074 9.916666985 126.5957336
v 18.6190033 9.916666985 126.5678177
v 12.92108727 9.916666985 126.9461212
v 16.72374725 9.916666985 126.9390869
v 14.79648018 9.916666985 127.06353
v 3.251973867 9.916666985 121.6615982
v 2.14044714 9.916666985 120.1465378
v 14.79648018 10.20833302 127.06353
v 12.92108727 10.20833302 126.9461212
v 11.07498074 10.20833302 126.5957336
v 9.286988258 10.20833302 126.0178375
v 7.585031986 10.20833302 125.2214508
v 5.995688915 10.20833302 124.219017
v 4.543778896 10.20833302 123.0261917
v 3.251973867 10.20833302 121.6615982
v 2.14044714 10.20833302 120.1465378
v 29.60904694 10.20833302 114.3497696
v 27.65694046 10.20833302 119.7707672
v 28.53951645 10.20833302 118.052948
v 29.19384193 10.20833302 116.2358932
v 26.56077194 10.20833302 121.360817
v 23.80372429 10.20833302 124.0545349
v 25.26921654 10.20833302 122.7966919
v 22.18863487 10.20833302 125.1134644
v 20.45077324 10.20833302 125.9558868
v 18.6190033 10.20833302 126.5678177
v 16.72374725 10.20833302 126.9390869
vn -0.3870098293 -0.5015804768 -0.7737185359
vn -0.2691686153 0.7490009069 -0.6054303646
vn 0.0251394622 -0.9987817407 -0.04246259481
vn 0.02141223475 0.9987817407 -0.04445872456
vn 0.01745306514 -0.9979851246 -0.06100037694
vn 0.01216729451 0.9979851246 -0.06227054447
vn 4.470008207e-05 -0.9999980927 -0.001961047063
vn -0.0001233485964 0.9999980927 -0.001957673114
vn -0.001132086734 -0.9999880195 -0.004768413492
vn -0.001536115305 0.9999880195 -0.004653994925
vn -0.02993478999 -0.9979672432 -0.05626048148
vn -0.03464128822 0.9979672432 -0.05349143967
vn -0.03358664364 -0.9987717867 -0.03642617911
vn -0.03658161312 0.9987717867 -0.03341728076
vn 0.08038347214 -0.7488612533 -0.6578338146
vn 0.1439805478 0.5014666319 -0.8531124592
vn -0.01004136167 0.9997193813 -0.02145502344
vn -0.005600292701 -0.9998709559 -0.01505640242
vn 0.006185983308 0.9962587357 -0.08619902283
vn 0.01839018799 -0.9919003844 -0.1256800741
vn -0.1293572634 0.9549016953 -0.2672628164
vn -0.2000423223 -0.9778012037 -0.06235302612
vn 0.05763982236 -0.9572758675 -0.2833734453
vn 0.1472786814 -0.9883210063 0.03912293538
vn 0.02289967239 -0.9996938109 0.009375755675
vn 0.02558219619 -0.9995666146 0.0145649435
vn 0.006713125855 -0.9999646544 0.00506671099
vn 0.007340399548 -0.9999471903 0.007196438964
vn -0.007050138433 -0.9999440312 0.007887416519
vn 0.01292996667 -0.9997811913 0.01644388959
vn -0.02353564277 -0.9991418719 0.03408208862
vn -0.01672920212 -0.9993418455 0.0321874842
vn 0.02369430847 -0.9989281297 0.03976455703
vn -0.02053924464 -0.9982457161 0.05553022027
vn 0.03268711641 -0.996607244 0.07553486526
vn -0.02679291926 -0.9930236936 0.1148306951
vn 0.05274058506 -0.9815490246 0.1837931573
vn -0.03526674584 -0.9407397509 0.3372906148
vn 0.1007632241 -0.7404299378 0.6645376682
vn 0.02211874351 -0.2651295364 0.9639590383
vn -0.1086071059 -0.9895775318 0.09455577284
vn -0.126578033 -0.9883090854 0.08498939872
vn -0.01872740872 0.2673977613 0.9634042382
vn -0.04930696264 0.9407397509 0.3355257213
vn -0.03156007081 0.9930236936 0.1136129871
vn -0.02283802629 0.9982457161 0.05462501943
vn -0.01805742271 0.9993418455 0.03146155551
vn -0.02493696101 0.9991418719 0.03307055682
vn -0.007373047527 0.9999440312 0.007586432621
vn -0.1124574393 0.9895775318 0.0899425894
vn -0.1300132424 0.9883090854 0.07963484526
vn 0.1794041097 0.9774190187 -0.1116525084
vn 0.02493181266 0.9995666146 0.01565219089
vn 0.02247506566 0.9996938109 0.01035238709
vn 0.1454587132 0.9883210063 0.04542378336
vn 0.006488905754 0.9999646544 0.005350866821
vn 0.01221046411 0.9997811913 0.01698500663
vn 0.007023945451 0.9999471903 0.007505613845
vn 0.02196137048 0.9989281297 0.04074723646
vn 0.02940681949 0.996607244 0.07687134296
vn 0.04478347674 0.9815490246 0.1858922392
vn 0.07207632065 0.7404298186 0.6682579517
f 1//1 2//2 3//3 
f 3//3 2//2 4//4 
f 3//3 4//4 5//5 
f 5//5 4//4 6//6 
f 5//5 6//6 7//7 
f 7//7 6//6 8//8 
f 7//7 8//8 9//9 
f 9//9 8//8 10//10 
f 9//9 10//10 11//11 
f 11//11 10//10 12//12 
f 11//11 12//12 13//13 
f 13//13 12//12 14//14 
f 13//13 14//14 15//15 
f 15//15 14//14 16//16 
f 2//2 1//1 17//17 
f 17//17 1//1 18//18 
f 19//19 20//20 16//16 
f 16//16 20//20 15//15 
f 17//17 18//18 21//21 
f 21//21 18//18 22//22 
f 23//23 24//24 20//20 
f 20//20 24//24 25//25 
f 20//20 25//25 9//9 
f 9//9 25//25 26//26 
f 9//9 26//26 7//7 
f 7//7 26//26 27//27 
f 7//7 27//27 18//18 
f 18//18 27//27 28//28 
f 18//18 28//28 29//29 
f 29//29 28//28 30//30 
f 29//29 30//30 31//31 
f 31//31 30//30 32//32 
f 32//32 30//30 33//33 
f 32//32 33//33 34//34 
f 34//34 33//33 35//35 
f 34//34 35//35 36//36 
f 36//36 35//35 37//37 
f 36//36 37//37 38//38 
f 38//38 37//37 39//39 
f 38//38 39//39 40//40 
f 29//29 41//41 18//18 
f 18//18 41//41 42//42 
f 18//18 42//42 22//22 
f 1//1 3//3 18//18 
f 18//18 3//3 5//5 
f 18//18 5//5 7//7 
f 9//9 11//11 20//20 
f 20//20 11//11 13//13 
f 20//20 13//13 15//15 
f 40//40 43//43 38//38 
f 38//38 43//43 44//44 
f 38//38 44//44 36//36 
f 36//36 44//44 45//45 
f 36//36 45//45 34//34 
f 34//34 45//45 46//46 
f 34//34 46//46 32//32 
f 32//32 46//46 47//47 
f 32//32 47//47 31//31 
f 31//31 47//47 48//48 
f 31//31 48//48 29//29 
f 29//29 48//48 49//49 
f 29//29 49//49 41//41 
f 41//41 49//49 50//50 
f 41//41 50//50 42//42 
f 42//42 50//50 51//51 
f 42//42 51//51 22//22 
f 22//22 51//51 21//21 
f 52//52 23//23 19//19 
f 19//19 23//23 20//20 
f 16//16 14//14 19//19 
f 19//19 14//14 12//12 
f 19//19 12//12 10//10 
f 8//8 53//53 10//10 
f 10//10 53//53 54//54 
f 10//10 54//54 19//19 
f 19//19 54//54 55//55 
f 19//19 55//55 52//52 
f 6//6 17//17 8//8 
f 8//8 17//17 56//56 
f 8//8 56//56 53//53 
f 6//6 4//4 17//17 
f 17//17 4//4 2//2 
f 21//21 51//51 17//17 
f 17//17 51//51 50//50 
f 17//17 50//50 49//49 
f 48//48 57//57 49//49 
f 49//49 57//57 58//58 
f 49//49 58//58 17//17 
f 17//17 58//58 56//56 
f 48//48 47//47 57//57 
f 57//57 47//47 59//59 
f 59//59 47//47 46//46 
f 59//59 46//46 60//60 
f 60//60 46//46 45//45 
f 60//60 45//45 61//61 
f 61//61 45//45 44//44 
f 61//61 44//44 62//62 
f 62//62 44//44 43//43 
f 23//23 52//52 24//24 
f 24//24 52//52 55//55 
f 24//24 55//55 25//25 
f 25//25 55//55 54//54 
f 25//25 54//54 26//26 
f 26//26 54//54 53//53 
f 26//26 53//53 27//27 
f 27//27 53//53 56//56 
f 27//27 56//56 28//28 
f 28//28 56//56 58//58 
f 28//28 58//58 30//30 
f 30//30 58//58 57//57 
f 30//30 57//57 33//33 
f 33//33 57//57 59//59 
f 33//33 59//59 35//35 
f 35//35 59//59 60//60 
f 35//35 60//60 37//37 
f 37//37 60//60 61//61 
f 37//37 61//61 39//39 
f 39//39 61//61 62//62 
f 39//39 62//62 40//40 
f 40//40 62//62 43//43 
