v -10.49980831 8.168657303 57.509758
v -10.49980831 0.1666666716 57.509758
v -10.12803841 8.168657303 57.46063995
v -10.12803841 0.1666666716 57.46063995
v -10.14986706 0.1666666716 57.29541016
v -10.52163696 0.1666666716 57.34452438
v -10.14986706 8.168657303 57.29541016
v -10.52163696 8.168657303 57.34452438
vn -0.560685575 0.01556550153 0.8278824687
vn -0.0871983394 -0.01016573515 0.9961391091
vn 0.3428507745 0.02032801136 0.9391698837
vn 0.7561651468 -0.03111932613 0.6536405087
vn 0.08720326424 -0.01016548648 -0.9961386919
vn -0.7561683655 -0.03111914732 -0.6536367536
vn 0.5606803894 0.01556519419 -0.8278859854
vn -0.3428463936 0.02032804675 -0.9391714931
f 1//1 2//2 3//3 
f 3//3 2//2 4//4 
f 5//5 4//4 6//6 
f 6//6 4//4 2//2 
f 3//3 4//4 7//7 
f 7//7 4//4 5//5 
f 8//8 6//6 1//1 
f 1//1 6//6 2//2 
f 1//1 3//3 8//8 
f 8//8 3//3 7//7 
f 7//7 5//5 8//8 
f 8//8 5//5 6//6 
