v -49.27900314 8 -147.6791229
v -49.27900314 0.2083333284 -147.6791229
v -49.35325241 8 -147.7169495
v -49.35325241 0.2083333284 -147.7169495
v -51.19112778 0.2083333284 -144.1099243
v -51.19112778 8 -144.1099243
v -51.11687851 8 -144.0720825
v -51.11687851 0.2083333284 -144.0720825
vn 0.8956190944 0.005346989259 0.4447896779
vn 0.908874929 -0.01068505552 0.4169318676
vn -0.8713789582 0.02136727422 -0.4901450276
vn -0.886236012 -0.01069396921 -0.4631105661
vn -0.9088755846 -0.01068587042 -0.4169304371
vn -0.8956187367 0.005347424652 -0.4447904229
vn 0.8713780642 0.02136734501 0.490146637
vn 0.8862364292 -0.01069395151 0.4631097913
f 1//1 2//2 3//3 
f 3//3 2//2 4//4 
f 5//5 6//6 4//4 
f 4//4 6//6 3//3 
f 1//1 3//3 7//7 
f 7//7 3//3 6//6 
f 2//2 8//8 4//4 
f 4//4 8//8 5//5 
f 2//2 1//1 8//8 
f 8//8 1//1 7//7 
f 8//8 7//7 5//5 
f 5//5 7//7 6//6 
