v -47.63549423 9.260416985 -150.9046783
v -47.63549423 8.166666985 -150.9046783
v -47.70974731 9.260416985 -150.9425201
v -47.70974731 8.166666985 -150.9425201
v -49.27758789 8.166666985 -147.865448
v -49.27758789 9.260416985 -147.865448
v -49.20333481 9.260416985 -147.8276215
v -49.20333481 8.166666985 -147.8276215
vn 0.8957691789 0.03806776926 0.4428864121
vn 0.909226954 -0.07588801533 0.4093255103
vn -0.8582007885 0.1504764706 -0.4907628894
vn -0.8829061985 -0.07596744597 -0.463363409
vn -0.9092265964 -0.07588234544 -0.4093273282
vn -0.8957697153 0.03806468099 -0.4428855777
vn 0.858201921 0.1504759043 0.4907610714
vn 0.8829056621 -0.07596758753 0.4633643031
f 1//1 2//2 3//3 
f 3//3 2//2 4//4 
f 5//5 6//6 4//4 
f 4//4 6//6 3//3 
f 1//1 3//3 7//7 
f 7//7 3//3 6//6 
f 2//2 8//8 4//4 
f 4//4 8//8 5//5 
f 2//2 1//1 8//8 
f 8//8 1//1 7//7 
f 8//8 7//7 5//5 
f 5//5 7//7 6//6 
