v -49.14906311 8 -147.612915
v -50.98693848 8 -144.0058746
v -49.48318863 8 -147.7831573
v -51.321064 8 -144.1761169
v -51.321064 8.166666985 -144.1761169
v -50.98693848 8.166666985 -144.0058746
v -49.48318863 8.166666985 -147.7831573
v -49.14906311 8.166666985 -147.612915
vn 0.3949184418 -0.9112342 0.1170115992
vn 0.3532733619 -0.9136481285 0.2011094391
vn -0.3532733619 -0.9136481285 -0.2011094391
vn -0.3949184418 -0.9112342 -0.1170115992
vn -0.6056393385 0.7470520735 -0.2740697563
vn 0.1749020666 0.9753990769 0.1341861933
vn -0.1749020666 0.9753990769 -0.1341861933
vn 0.6056393385 0.7470520735 0.2740697563
f 1//1 2//2 3//3 
f 3//3 2//2 4//4 
f 5//5 4//4 6//6 
f 6//6 4//4 2//2 
f 7//7 3//3 5//5 
f 5//5 3//3 4//4 
f 1//1 8//8 2//2 
f 2//2 8//8 6//6 
f 8//8 1//1 7//7 
f 7//7 1//1 3//3 
f 8//8 7//7 6//6 
f 6//6 7//7 5//5 
