v 27.82068443 0.1666666716 -153.2233429
v 27.82068443 0.1666666716 -153.6295929
v 50.98735046 0.1666666716 -153.2233429
v 50.98735046 0.1666666716 -153.6295929
v 27.82068443 0.5625 -153.2233429
v 50.98735046 0.5625 -153.2233429
v 27.82068443 0.5625 -152.6712646
v 50.98735046 0.5625 -152.6712646
v 36.49762726 2.666666746 -152.6712646
v 36.49762726 2.666666746 -153.6295929
v 27.82068443 2.666666746 -152.6712646
v 27.82068443 2.666666746 -153.6295929
v 50.98735046 13 -152.6712646
v 36.49762726 13 -152.6712646
v 50.98735046 13 -153.6295929
v 36.49762726 13 -153.6295929
vn -0.007800600491 -0.4565404058 0.8896684647
vn -0.01437961776 -0.2300738841 -0.973066926
vn 0.007679992821 -0.8989633322 0.437956512
vn 0.02201620117 -0.0385543555 -0.9990139604
vn -0.1582311094 -0.9294795394 0.3332127035
vn 0.7339264154 -0.3885252476 0.5571356416
vn -0.01702724025 -0.1874682158 0.9821230769
vn 0.02979086712 -0.110979706 0.9933760762
vn -0.02493397519 0.02093716338 0.9994698167
vn -0.04759871587 0.03996884078 -0.9980665445
vn -0.1276347488 0.667891562 0.7332327366
vn -0.129419297 0.3549241126 -0.9258939028
vn 0.05679395422 0.04198068753 0.997502923
vn -0.1289723814 0.18084912 0.975017786
vn 0.05079969019 0.08234521747 -0.9953083396
vn -0.06571352482 0.09214556217 -0.9935747981
f 1//1 2//2 3//3 
f 3//3 2//2 4//4 
f 5//5 1//1 6//6 
f 6//6 1//1 3//3 
f 7//7 5//5 8//8 
f 8//8 5//5 6//6 
f 9//9 10//10 11//11 
f 11//11 10//10 12//12 
f 11//11 7//7 9//9 
f 9//9 7//7 8//8 
f 9//9 8//8 13//13 
f 13//13 14//14 9//9 
f 15//15 4//4 10//10 
f 10//10 4//4 2//2 
f 10//10 2//2 12//12 
f 10//10 16//16 15//15 
f 9//9 14//14 10//10 
f 10//10 14//14 16//16 
f 7//7 11//11 5//5 
f 5//5 11//11 12//12 
f 5//5 12//12 2//2 
f 2//2 1//1 5//5 
f 13//13 15//15 14//14 
f 14//14 15//15 16//16 
f 8//8 6//6 13//13 
f 13//13 6//6 15//15 
f 15//15 6//6 4//4 
f 4//4 6//6 3//3 
