v -23.39820671 0.1666666716 -153.4420929
v -23.39820671 0.2083333284 -153.4420929
v -19.60654068 0.1666666716 -153.4420929
v -19.60654068 0.2083333284 -153.4420929
v -23.39820671 0.1666666716 -152.5983429
v -19.60654068 0.1666666716 -152.5983429
v -23.39820671 0.4166666567 -152.5983429
v -19.60654068 0.4166666567 -152.5983429
v -23.39820671 0.4166666567 -153.2650146
v -19.60654068 0.4166666567 -153.2650146
v -23.39820671 0.3385416567 -153.2650146
v -19.60654068 0.3385416567 -153.2650146
v -23.39820671 0.3385416567 -153.3900146
v -19.60654068 0.3385416567 -153.3900146
v -23.39820671 0.4166666567 -153.3900146
v -19.60654068 0.4166666567 -153.3900146
v -19.60654068 0.2083333284 -153.4525146
v -19.60654068 0.4166666567 -153.4525146
v -23.39820671 0.2083333284 -153.4525146
v -23.39820671 0.4166666567 -153.4525146
vn -0.005492748227 -0.9996802211 -0.02468345687
vn -0.4710187614 -0.1094665453 -0.8753047585
vn 0.01093514822 -0.9950985909 -0.09828131646
vn 0.6934775114 -0.3223336041 -0.6443524361
vn -0.08548486978 -0.8571424484 0.5079362392
vn 0.04926791415 -0.9880021811 0.1463706791
vn -0.04248973355 0.9819847941 0.1841207445
vn 0.06906565279 0.7980918884 0.5985643268
vn -0.02005675249 0.9734208584 -0.2281437665
vn 0.01028401684 0.9982350469 -0.05848988891
vn -0.3343007565 0.8995653391 -0.281114161
vn 0.4211251736 0.5665999651 -0.7082499862
vn -0.04678741097 0.6240109205 0.7800136805
vn 0.03575985879 0.9538695216 0.2980842292
vn -0.008735914715 0.8479659557 0.5299786925
vn 0.0076520578 0.3713797927 0.9284495115
vn 0.009097473696 -0.02500335313 -0.9996459484
vn 0.0194312688 0.5143986344 -0.8573310375
vn -0.01810800284 -0.09953550249 -0.9948692322
vn -0.01120633818 0.1483311355 -0.9888742566
f 1//1 2//2 3//3 
f 3//3 2//2 4//4 
f 5//5 1//1 6//6 
f 6//6 1//1 3//3 
f 7//7 5//5 8//8 
f 8//8 5//5 6//6 
f 9//9 7//7 10//10 
f 10//10 7//7 8//8 
f 11//11 9//9 12//12 
f 12//12 9//9 10//10 
f 13//13 11//11 14//14 
f 14//14 11//11 12//12 
f 15//15 13//13 16//16 
f 16//16 13//13 14//14 
f 4//4 17//17 14//14 
f 14//14 17//17 18//18 
f 14//14 18//18 16//16 
f 14//14 12//12 4//4 
f 4//4 12//12 6//6 
f 4//4 6//6 3//3 
f 10//10 8//8 12//12 
f 12//12 8//8 6//6 
f 2//2 19//19 4//4 
f 4//4 19//19 17//17 
f 20//20 15//15 18//18 
f 18//18 15//15 16//16 
f 20//20 19//19 13//13 
f 13//13 19//19 2//2 
f 13//13 2//2 11//11 
f 11//11 2//2 5//5 
f 11//11 5//5 7//7 
f 2//2 1//1 5//5 
f 7//7 9//9 11//11 
f 13//13 15//15 20//20 
f 19//19 20//20 17//17 
f 17//17 20//20 18//18 
