v -55.60654068 9.4375 -153.3900146
v -55.60654068 9.4375 -153.4525146
v -58.22839737 9.4375 -153.3900146
v -58.22839737 9.4375 -153.4525146
v -55.60654068 9.359375 -153.3900146
v -58.22839737 9.359375 -153.3900146
v -55.60654068 9.359375 -153.2650146
v -58.22839737 9.359375 -153.2650146
v -55.60654068 9.4375 -153.2650146
v -58.22839737 9.4375 -153.2650146
v -55.60654068 9.4375 -152.5983429
v -58.22839737 9.4375 -152.5983429
v -55.60654068 9.229166985 -152.5983429
v -58.22839737 9.229166985 -152.5983429
v -55.60654068 9.229166985 -153.2650146
v -58.22839737 9.229166985 -153.2650146
v -55.60654068 9.307291985 -153.2650146
v -58.22839737 9.307291985 -153.2650146
v -55.60654068 9.307291985 -153.3900146
v -58.22839737 9.307291985 -153.3900146
v -58.22839737 9.229166985 -153.3900146
v -58.22839737 9.229166985 -153.4525146
v -55.60654068 9.229166985 -153.4525146
v -55.60654068 9.229166985 -153.3900146
vn 0.01106586773 0.3713679314 0.9284198284
vn 0.03319824859 0.5142127275 -0.8570199013
vn -0.01263314299 0.8479306102 0.5299566388
vn -0.01620523259 0.1483211964 -0.9888064861
vn 0.03079653904 0.9540272355 0.2981335223
vn -0.05266746134 0.6238280535 0.779785037
vn 0.4047383964 0.5712414384 -0.7140518427
vn -0.1438546777 0.9445522428 -0.2951725721
vn 0.01487163827 0.9981774092 -0.05848651379
vn -0.02899922617 0.9732072353 -0.2280936986
vn 0.09225545824 0.8443840742 0.5277352333
vn -0.06365799159 0.9860083461 0.1540623903
vn 0.06365799159 -0.9860083461 0.1540623903
vn -0.09225545824 -0.8443840742 0.5277352333
vn 0.02899922617 -0.9732072353 -0.2280936986
vn -0.01487163827 -0.9981774092 -0.05848651379
vn 0.1438546777 -0.9445522428 -0.2951725721
vn -0.4047383964 -0.5712414384 -0.7140518427
vn 0.05266746134 -0.6238280535 0.779785037
vn -0.03079653904 -0.9540272355 0.2981335223
vn -0.01106586773 -0.3713679314 0.9284198284
vn -0.03319824859 -0.5142127275 -0.8570199013
vn 0.01620523259 -0.1483211964 -0.9888064861
vn 0.01263314299 -0.8479306102 0.5299566388
f 1//1 2//2 3//3 
f 3//3 2//2 4//4 
f 5//5 1//1 6//6 
f 6//6 1//1 3//3 
f 7//7 5//5 8//8 
f 8//8 5//5 6//6 
f 9//9 7//7 10//10 
f 10//10 7//7 8//8 
f 11//11 9//9 12//12 
f 12//12 9//9 10//10 
f 13//13 11//11 14//14 
f 14//14 11//11 12//12 
f 15//15 13//13 16//16 
f 16//16 13//13 14//14 
f 17//17 15//15 18//18 
f 18//18 15//15 16//16 
f 19//19 17//17 20//20 
f 20//20 17//17 18//18 
f 21//21 20//20 22//22 
f 22//22 20//20 6//6 
f 22//22 6//6 4//4 
f 4//4 6//6 3//3 
f 6//6 20//20 8//8 
f 8//8 20//20 18//18 
f 8//8 18//18 12//12 
f 12//12 18//18 14//14 
f 14//14 18//18 16//16 
f 12//12 10//10 8//8 
f 2//2 23//23 4//4 
f 4//4 23//23 22//22 
f 24//24 23//23 19//19 
f 19//19 23//23 2//2 
f 19//19 2//2 5//5 
f 5//5 2//2 1//1 
f 19//19 5//5 17//17 
f 17//17 5//5 7//7 
f 17//17 7//7 13//13 
f 13//13 7//7 11//11 
f 11//11 7//7 9//9 
f 13//13 15//15 17//17 
f 24//24 19//19 21//21 
f 21//21 19//19 20//20 
f 23//23 24//24 22//22 
f 22//22 24//24 21//21 
