v 36.32575226 19.578125 -153.2858429
v 36.32575226 13.859375 -153.2858429
v 36.32575226 19.578125 -153.3691864
v 36.32575226 13.859375 -153.3691864
v 32.52366638 13.859375 -153.3691864
v 32.52366638 19.578125 -153.3691864
v 32.52366638 19.578125 -153.2858429
v 32.52366638 13.859375 -153.2858429
vn 0.01095928531 0.007286232896 0.9999133945
vn 0.04378030822 -0.02910714597 0.998617053
vn 0.04378030822 0.02910714597 -0.998617053
vn 0.01095928531 -0.007286232896 -0.9999133945
vn -0.04378030822 -0.02910714597 -0.998617053
vn -0.01095928531 0.007286232896 -0.9999133945
vn -0.04378030822 0.02910714597 0.998617053
vn -0.01095928531 -0.007286232896 0.9999133945
f 1//1 2//2 3//3 
f 3//3 2//2 4//4 
f 5//5 6//6 4//4 
f 4//4 6//6 3//3 
f 1//1 3//3 7//7 
f 7//7 3//3 6//6 
f 8//8 5//5 2//2 
f 2//2 5//5 4//4 
f 2//2 1//1 8//8 
f 8//8 1//1 7//7 
f 8//8 7//7 5//5 
f 5//5 7//7 6//6 
