v -55.52841568 9.307291985 -153.2858429
v -55.52841568 0.3385416567 -153.2858429
v -55.52841568 9.307291985 -153.3691864
v -55.52841568 0.3385416567 -153.3691864
v -58.30652237 0.3385416567 -153.3691864
v -58.30652237 9.307291985 -153.3691864
v -58.30652237 9.307291985 -153.2858429
v -58.30652237 0.3385416567 -153.2858429
vn 0.01499820594 0.004645755049 0.9998767376
vn 0.05988220498 -0.01854875498 0.9980331063
vn 0.05988220498 0.01854875498 -0.9980331063
vn 0.01499820594 -0.004645755049 -0.9998767376
vn -0.05988220498 -0.01854875498 -0.9980331063
vn -0.01499820594 0.004645755049 -0.9998767376
vn -0.05988220498 0.01854875498 0.9980331063
vn -0.01499820594 -0.004645755049 0.9998767376
f 1//1 2//2 3//3 
f 3//3 2//2 4//4 
f 5//5 6//6 4//4 
f 4//4 6//6 3//3 
f 1//1 3//3 7//7 
f 7//7 3//3 6//6 
f 8//8 5//5 2//2 
f 2//2 5//5 4//4 
f 2//2 1//1 8//8 
f 8//8 1//1 7//7 
f 8//8 7//7 5//5 
f 5//5 7//7 6//6 
