v 36.24762726 9.4375 -153.3900146
v 36.24762726 9.4375 -153.4525146
v 32.60179138 9.4375 -153.3900146
v 32.60179138 9.4375 -153.4525146
v 36.24762726 9.359375 -153.3900146
v 32.60179138 9.359375 -153.3900146
v 36.24762726 9.359375 -153.2650146
v 32.60179138 9.359375 -153.2650146
v 36.24762726 9.4375 -153.2650146
v 32.60179138 9.4375 -153.2650146
v 36.24762726 9.4375 -152.5983429
v 32.60179138 9.4375 -152.5983429
v 36.24762726 9.229166985 -152.5983429
v 32.60179138 9.229166985 -152.5983429
v 36.24762726 9.229166985 -153.2650146
v 32.60179138 9.229166985 -153.2650146
v 36.24762726 9.307291985 -153.2650146
v 32.60179138 9.307291985 -153.2650146
v 36.24762726 9.307291985 -153.3900146
v 32.60179138 9.307291985 -153.3900146
v 32.60179138 9.229166985 -153.3900146
v 32.60179138 9.229166985 -153.4525146
v 36.24762726 9.229166985 -153.4525146
v 36.24762726 9.229166985 -153.3900146
vn 0.007958114147 0.3713789284 0.9284473062
vn 0.02388045564 0.5143495798 -0.8572480679
vn -0.009085314348 0.8479633331 0.5299770832
vn -0.011654526 0.1483305991 -0.9888691306
vn 0.02215201408 0.9542457461 0.2982017994
vn -0.03790052608 0.6242462397 0.7803077698
vn 0.3033046126 0.5952679515 -0.7440849543
vn -0.1039720252 0.9493069053 -0.2966583967
vn 0.01069532149 0.9982306957 -0.05848963559
vn -0.0208586622 0.9734048843 -0.2281400263
vn 0.06648108363 0.8461244702 0.5288229585
vn -0.04582369328 0.9869743586 0.1542133391
vn 0.04582369328 -0.9869743586 0.1542133391
vn -0.06648108363 -0.8461244702 0.5288229585
vn 0.0208586622 -0.9734048843 -0.2281400263
vn -0.01069532149 -0.9982306957 -0.05848963559
vn 0.1039720252 -0.9493069053 -0.2966583967
vn -0.3033046126 -0.5952679515 -0.7440849543
vn 0.03790052608 -0.6242462397 0.7803077698
vn -0.02215201408 -0.9542457461 0.2982017994
vn -0.007958114147 -0.3713789284 0.9284473062
vn -0.02388045564 -0.5143495798 -0.8572480679
vn 0.011654526 -0.1483305991 -0.9888691306
vn 0.009085314348 -0.8479633331 0.5299770832
f 1//1 2//2 3//3 
f 3//3 2//2 4//4 
f 5//5 1//1 6//6 
f 6//6 1//1 3//3 
f 7//7 5//5 8//8 
f 8//8 5//5 6//6 
f 9//9 7//7 10//10 
f 10//10 7//7 8//8 
f 11//11 9//9 12//12 
f 12//12 9//9 10//10 
f 13//13 11//11 14//14 
f 14//14 11//11 12//12 
f 15//15 13//13 16//16 
f 16//16 13//13 14//14 
f 17//17 15//15 18//18 
f 18//18 15//15 16//16 
f 19//19 17//17 20//20 
f 20//20 17//17 18//18 
f 21//21 20//20 22//22 
f 22//22 20//20 6//6 
f 22//22 6//6 4//4 
f 4//4 6//6 3//3 
f 6//6 20//20 8//8 
f 8//8 20//20 18//18 
f 8//8 18//18 12//12 
f 12//12 18//18 14//14 
f 14//14 18//18 16//16 
f 12//12 10//10 8//8 
f 2//2 23//23 4//4 
f 4//4 23//23 22//22 
f 24//24 23//23 19//19 
f 19//19 23//23 2//2 
f 19//19 2//2 5//5 
f 5//5 2//2 1//1 
f 19//19 5//5 17//17 
f 17//17 5//5 7//7 
f 17//17 7//7 13//13 
f 13//13 7//7 11//11 
f 11//11 7//7 9//9 
f 13//13 15//15 17//17 
f 24//24 19//19 21//21 
f 21//21 19//19 20//20 
f 23//23 24//24 22//22 
f 22//22 24//24 21//21 
