v -58.22839737 0.1666666716 -153.4420929
v -58.22839737 0.2083333284 -153.4420929
v -55.60654068 0.1666666716 -153.4420929
v -55.60654068 0.2083333284 -153.4420929
v -58.22839737 0.1666666716 -152.5983429
v -55.60654068 0.1666666716 -152.5983429
v -58.22839737 0.4166666567 -152.5983429
v -55.60654068 0.4166666567 -152.5983429
v -58.22839737 0.4166666567 -153.2650146
v -55.60654068 0.4166666567 -153.2650146
v -58.22839737 0.3385416567 -153.2650146
v -55.60654068 0.3385416567 -153.2650146
v -58.22839737 0.3385416567 -153.3900146
v -55.60654068 0.3385416567 -153.3900146
v -58.22839737 0.4166666567 -153.3900146
v -55.60654068 0.4166666567 -153.3900146
v -55.60654068 0.2083333284 -153.4525146
v -55.60654068 0.4166666567 -153.4525146
v -58.22839737 0.2083333284 -153.4525146
v -58.22839737 0.4166666567 -153.4525146
vn -0.007943348959 -0.9996637702 -0.02468305081
vn -0.6111864448 -0.09821905941 -0.7853688002
vn 0.01581311598 -0.9950336814 -0.09827490896
vn 0.8121493459 -0.2610285282 -0.521802187
vn -0.1231360808 -0.8537445664 0.5059226751
vn 0.07115587592 -0.9866960645 0.1461771876
vn -0.06138717756 0.9810187817 0.183939606
vn 0.09962210059 0.7960224748 0.5970122814
vn -0.02899922617 0.9732072353 -0.2280936986
vn 0.01487163827 0.9981774092 -0.05848651379
vn -0.456422478 0.8492611647 -0.2653941214
vn 0.5574554205 0.5186260939 -0.6482826471
vn -0.06758214533 0.6232668161 0.7790834904
vn 0.05167899653 0.9532045722 0.2978764176
vn -0.01263314299 0.8479306102 0.5299566388
vn 0.01106586773 0.3713679314 0.9284198284
vn 0.01315595303 -0.02500222251 -0.9996008277
vn 0.02809524536 0.5142926574 -0.857154429
vn -0.02618267387 -0.09951769561 -0.9946912527
vn -0.01620522514 0.1483209729 -0.9888064861
f 1//1 2//2 3//3 
f 3//3 2//2 4//4 
f 5//5 1//1 6//6 
f 6//6 1//1 3//3 
f 7//7 5//5 8//8 
f 8//8 5//5 6//6 
f 9//9 7//7 10//10 
f 10//10 7//7 8//8 
f 11//11 9//9 12//12 
f 12//12 9//9 10//10 
f 13//13 11//11 14//14 
f 14//14 11//11 12//12 
f 15//15 13//13 16//16 
f 16//16 13//13 14//14 
f 4//4 17//17 14//14 
f 14//14 17//17 18//18 
f 14//14 18//18 16//16 
f 14//14 12//12 4//4 
f 4//4 12//12 6//6 
f 4//4 6//6 3//3 
f 10//10 8//8 12//12 
f 12//12 8//8 6//6 
f 2//2 19//19 4//4 
f 4//4 19//19 17//17 
f 20//20 15//15 18//18 
f 18//18 15//15 16//16 
f 20//20 19//19 13//13 
f 13//13 19//19 2//2 
f 13//13 2//2 11//11 
f 11//11 2//2 5//5 
f 11//11 5//5 7//7 
f 2//2 1//1 5//5 
f 7//7 9//9 11//11 
f 13//13 15//15 20//20 
f 19//19 20//20 17//17 
f 17//17 20//20 18//18 
