v 28.39345932 19.70833397 -153.4420929
v 28.39345932 19.70833397 -153.4525146
v 24.60179329 19.70833397 -153.4420929
v 24.60179329 19.70833397 -153.4525146
v 28.39345932 19.75 -153.4420929
v 24.60179329 19.75 -153.4420929
v 28.39345932 19.75 -152.5983429
v 24.60179329 19.75 -152.5983429
v 28.39345932 19.5 -152.5983429
v 24.60179329 19.5 -152.5983429
v 28.39345932 19.5 -153.2650146
v 24.60179329 19.5 -153.2650146
v 28.39345932 19.578125 -153.2650146
v 24.60179329 19.578125 -153.2650146
v 28.39345932 19.578125 -153.3900146
v 24.60179329 19.578125 -153.3900146
v 24.60179329 19.5 -153.3900146
v 24.60179329 19.5 -153.4525146
v 28.39345932 19.5 -153.3900146
v 28.39345932 19.5 -153.4525146
vn 0.4710241556 0.1094678044 -0.8753017187
vn 0.01810800657 0.09953519702 -0.9948692322
vn -0.6934818029 0.3223356009 -0.6443467736
vn -0.009097475559 0.0250032749 -0.9996459484
vn 0.005492665805 0.9996802211 -0.0246830862
vn -0.01093498617 0.9950987101 -0.09827985615
vn 0.08548484743 0.8571423888 0.5079362392
vn -0.04926789925 0.9880021811 0.146370694
vn 0.04248973355 -0.9819847941 0.1841207445
vn -0.06906565279 -0.7980918884 0.5985643268
vn 0.02005675249 -0.9734208584 -0.2281437665
vn -0.01028401684 -0.9982350469 -0.05848988891
vn 0.3343012035 -0.8995652199 -0.2811141312
vn -0.4211256802 -0.5665998459 -0.7082498074
vn 0.04678757861 -0.6240109205 0.7800136209
vn -0.03575998545 -0.9538695216 0.2980842292
vn -0.0076520578 -0.3713797927 0.9284495115
vn -0.0194312688 -0.5143974423 -0.8573316932
vn 0.008735914715 -0.8479659557 0.5299786925
vn 0.01120632887 -0.1483306885 -0.9888743162
f 1//1 2//2 3//3 
f 3//3 2//2 4//4 
f 5//5 1//1 6//6 
f 6//6 1//1 3//3 
f 7//7 5//5 8//8 
f 8//8 5//5 6//6 
f 9//9 7//7 10//10 
f 10//10 7//7 8//8 
f 11//11 9//9 12//12 
f 12//12 9//9 10//10 
f 13//13 11//11 14//14 
f 14//14 11//11 12//12 
f 15//15 13//13 16//16 
f 16//16 13//13 14//14 
f 17//17 16//16 18//18 
f 18//18 16//16 4//4 
f 4//4 16//16 3//3 
f 3//3 16//16 14//14 
f 3//3 14//14 8//8 
f 8//8 14//14 10//10 
f 10//10 14//14 12//12 
f 8//8 6//6 3//3 
f 19//19 15//15 17//17 
f 17//17 15//15 16//16 
f 2//2 20//20 4//4 
f 4//4 20//20 18//18 
f 19//19 20//20 15//15 
f 15//15 20//20 2//2 
f 15//15 2//2 1//1 
f 5//5 7//7 1//1 
f 1//1 7//7 13//13 
f 1//1 13//13 15//15 
f 7//7 9//9 13//13 
f 13//13 9//9 11//11 
f 20//20 19//19 18//18 
f 18//18 19//19 17//17 
