v -55.60654068 19.70833397 -153.4420929
v -55.60654068 19.70833397 -153.4525146
v -58.22839737 19.70833397 -153.4420929
v -58.22839737 19.70833397 -153.4525146
v -55.60654068 19.75 -153.4420929
v -58.22839737 19.75 -153.4420929
v -55.60654068 19.75 -152.5983429
v -58.22839737 19.75 -152.5983429
v -55.60654068 19.5 -152.5983429
v -58.22839737 19.5 -152.5983429
v -55.60654068 19.5 -153.2650146
v -58.22839737 19.5 -153.2650146
v -55.60654068 19.578125 -153.2650146
v -58.22839737 19.578125 -153.2650146
v -55.60654068 19.578125 -153.3900146
v -58.22839737 19.578125 -153.3900146
v -58.22839737 19.5 -153.3900146
v -58.22839737 19.5 -153.4525146
v -55.60654068 19.5 -153.3900146
v -55.60654068 19.5 -153.4525146
vn 0.6111920476 0.09821997583 -0.7853643298
vn 0.02618267946 0.09951739758 -0.9946913123
vn -0.8121526837 0.2610296309 -0.5217964649
vn -0.01315595582 0.02500214614 -0.9996008277
vn 0.00794322975 0.9996637702 -0.02468268014
vn -0.01581288129 0.9950338006 -0.0982734412
vn 0.123136051 0.8537445664 0.5059226751
vn -0.07115586102 0.9866960645 0.1461771876
vn 0.06138718128 -0.9810187817 0.1839396209
vn -0.09962210059 -0.7960224748 0.5970122814
vn 0.02899922617 -0.9732072353 -0.2280936986
vn -0.01487163827 -0.9981774092 -0.05848651379
vn 0.4564230144 -0.8492608666 -0.265394032
vn -0.5574560165 -0.5186258554 -0.6482823491
vn 0.06758238375 -0.6232668161 0.7790834904
vn -0.05167917907 -0.9532045722 0.2978764176
vn -0.01106586773 -0.3713679314 0.9284198284
vn -0.02809524536 -0.5142915249 -0.8571551442
vn 0.01263314299 -0.8479306102 0.5299566388
vn 0.01620521396 -0.1483205259 -0.9888065457
f 1//1 2//2 3//3 
f 3//3 2//2 4//4 
f 5//5 1//1 6//6 
f 6//6 1//1 3//3 
f 7//7 5//5 8//8 
f 8//8 5//5 6//6 
f 9//9 7//7 10//10 
f 10//10 7//7 8//8 
f 11//11 9//9 12//12 
f 12//12 9//9 10//10 
f 13//13 11//11 14//14 
f 14//14 11//11 12//12 
f 15//15 13//13 16//16 
f 16//16 13//13 14//14 
f 17//17 16//16 18//18 
f 18//18 16//16 4//4 
f 4//4 16//16 3//3 
f 3//3 16//16 14//14 
f 3//3 14//14 8//8 
f 8//8 14//14 10//10 
f 10//10 14//14 12//12 
f 8//8 6//6 3//3 
f 19//19 15//15 17//17 
f 17//17 15//15 16//16 
f 2//2 20//20 4//4 
f 4//4 20//20 18//18 
f 19//19 20//20 15//15 
f 15//15 20//20 2//2 
f 15//15 2//2 1//1 
f 5//5 7//7 1//1 
f 1//1 7//7 13//13 
f 1//1 13//13 15//15 
f 7//7 9//9 13//13 
f 13//13 9//9 11//11 
f 20//20 19//19 18//18 
f 18//18 19//19 17//17 
