v -46.40543747 37.41666794 -74.47335052
v -46.40543747 23.75 -74.47335052
v -46.40543747 37.41666794 -74.53585052
v -46.40543747 23.75 -74.53585052
v -49.9709816 23.75 -74.47335052
v -49.9709816 37.41666794 -74.47335052
v -49.9709816 23.75 -74.53585052
v -49.9709816 37.41666794 -74.53585052
vn 0.008764080703 0.00228649145 0.999958992
vn 0.03503477573 -0.009140343405 0.9993442893
vn 0.03503477573 0.009140343405 -0.9993442893
vn 0.008764080703 -0.00228649145 -0.999958992
vn -0.008764080703 -0.00228649145 0.999958992
vn -0.03503477573 0.009140343405 0.9993442893
vn -0.03503477573 -0.009140343405 -0.9993442893
vn -0.008764080703 0.00228649145 -0.999958992
f 1//1 2//2 3//3 
f 3//3 2//2 4//4 
f 2//2 1//1 5//5 
f 5//5 1//1 6//6 
f 5//5 7//7 2//2 
f 2//2 7//7 4//4 
f 1//1 3//3 6//6 
f 6//6 3//3 8//8 
f 7//7 8//8 4//4 
f 4//4 8//8 3//3 
f 5//5 6//6 7//7 
f 7//7 6//6 8//8 
