v -35.51509476 39.25 49.27830505
v -35.51509476 39.25 45.31997299
v -35.55675888 39.25 49.27830505
v -35.55675888 39.25 45.31997299
v -35.55675888 39.22916794 45.31997299
v -35.51509476 39.22916794 45.31997299
v -35.55675888 39.22916794 49.27830505
v -35.51509476 39.22916794 49.27830505
vn 0.4471937716 0.8943875432 0.009414033964
vn 0.4472123682 0.8944247365 -0.00235360628
vn -0.4472123682 0.8944247365 0.00235360628
vn -0.4471937716 0.8943875432 -0.009414033964
vn -0.4472123682 -0.8944247365 -0.00235360628
vn 0.4471937716 -0.8943875432 -0.009414033964
vn -0.4471937716 -0.8943875432 0.009414033964
vn 0.4472123682 -0.8944247365 0.00235360628
f 1//1 2//2 3//3 
f 3//3 2//2 4//4 
f 5//5 4//4 6//6 
f 6//6 4//4 2//2 
f 7//7 3//3 5//5 
f 5//5 3//3 4//4 
f 1//1 8//8 2//2 
f 2//2 8//8 6//6 
f 8//8 1//1 7//7 
f 7//7 1//1 3//3 
f 7//7 5//5 8//8 
f 8//8 5//5 6//6 
