v -58.735569 0.1666666716 -53.06709671
v -58.735569 0.1666666716 -52.70251465
v -64.77723694 0.1666666716 -53.06709671
v -64.77723694 0.1666666716 -52.70251465
v -58.735569 0.2083333284 -53.06709671
v -64.77723694 0.2083333284 -53.06709671
v -58.735569 0.2083333284 -53.07751465
v -64.77723694 0.2083333284 -53.07751465
v -64.77723694 0.375 -52.70251465
v -64.77723694 0.375 -53.07751465
v -58.735569 0.375 -53.07751465
v -58.735569 0.375 -52.70251465
vn 0.006723006256 -0.9748362899 -0.2228204608
vn 0.01988965273 -0.9613335133 0.2746676505
vn -0.003442637855 -0.9983654022 -0.0570496358
vn -0.02723829634 -0.6582589746 0.7522985935
vn 0.4833051562 -0.3915523291 -0.7830088735
vn -0.2928141654 -0.118612498 -0.9487839341
vn 0.0008617528947 -0.03123854846 -0.9995115995
vn -0.001711026649 -0.1240494549 -0.9922745824
vn -0.02942801267 0.9631006122 0.2675279379
vn -0.02118622512 0.7472415566 -0.6642147303
vn 0.01383738499 0.9760935903 -0.2169096917
vn 0.04084697366 0.6684064269 0.7426738143
f 1//1 2//2 3//3 
f 3//3 2//2 4//4 
f 5//5 1//1 6//6 
f 6//6 1//1 3//3 
f 7//7 5//5 8//8 
f 8//8 5//5 6//6 
f 4//4 9//9 6//6 
f 6//6 9//9 10//10 
f 6//6 10//10 8//8 
f 6//6 3//3 4//4 
f 11//11 7//7 10//10 
f 10//10 7//7 8//8 
f 2//2 12//12 4//4 
f 4//4 12//12 9//9 
f 11//11 12//12 5//5 
f 5//5 12//12 2//2 
f 5//5 2//2 1//1 
f 5//5 7//7 11//11 
f 12//12 11//11 9//9 
f 9//9 11//11 10//10 
