v -68.76682281 8.166666985 -52.93168259
v -68.76682281 0.375 -52.93168259
v -68.76682281 8.166666985 -52.84834671
v -68.76682281 0.375 -52.84834671
v -68.76682281 8.981539726 -52.93168259
v -68.76682281 8.981539726 -52.84834671
v -67.02723694 8.981539726 -52.93168259
v -67.02723694 8.981539726 -52.84834671
v -67.02723694 0.375 -52.84834671
v -67.02723694 8.166666985 -52.84834671
v -67.02723694 8.166666985 -52.93168259
v -67.02723694 0.375 -52.93168259
vn -0.02751321532 0 -0.9996214509
vn -0.09535279125 -0.02128868923 -0.9952158928
vn -0.08309253305 0 0.9965418577
vn -0.02394558117 -0.005346146878 0.9996989965
vn -0.02391469665 0.05105296522 -0.9984095693
vn -0.09345695376 0.1995113939 0.9754286408
vn 0.09345695376 0.1995113939 -0.9754286408
vn 0.02391469665 0.05105296522 0.9984095693
vn 0.09535279125 -0.02128868923 0.9952158928
vn 0.02751321532 0 0.9996214509
vn 0.08309253305 0 -0.9965418577
vn 0.02394558117 -0.005346146878 -0.9996989965
f 1//1 2//2 3//3 
f 3//3 2//2 4//4 
f 5//5 1//1 6//6 
f 6//6 1//1 3//3 
f 5//5 6//6 7//7 
f 7//7 6//6 8//8 
f 9//9 10//10 4//4 
f 4//4 10//10 3//3 
f 3//3 10//10 8//8 
f 3//3 8//8 6//6 
f 11//11 7//7 10//10 
f 10//10 7//7 8//8 
f 12//12 9//9 2//2 
f 2//2 9//9 4//4 
f 2//2 1//1 12//12 
f 12//12 1//1 11//11 
f 11//11 1//1 5//5 
f 11//11 5//5 7//7 
f 12//12 11//11 9//9 
f 9//9 11//11 10//10 
