v -68.76682281 8.981539726 -53.07751465
v -68.76682281 9.148206711 -53.07751465
v -67.02723694 8.981539726 -53.07751465
v -67.02723694 9.148206711 -53.07751465
v -68.76682281 8.981539726 -53.06709671
v -67.02723694 8.981539726 -53.06709671
v -68.76682281 8.939873695 -53.06709671
v -67.02723694 8.939873695 -53.06709671
v -67.02723694 9.148206711 -52.70251465
v -67.02723694 8.939873695 -52.70251465
v -68.76682281 8.939873695 -52.70251465
v -68.76682281 9.148206711 -52.70251465
vn -0.005942384247 -0.1240472198 -0.9922585487
vn -0.07339888811 0.7453926802 -0.6625725031
vn 0.002992898226 -0.03123836219 -0.9995074868
vn 0.04800719395 0.9750614166 -0.2166807353
vn -0.7285504341 -0.08497431129 -0.6797011495
vn 0.8866539001 -0.2068293393 -0.4136018753
vn -0.0119554894 -0.9983000159 -0.05704504251
vn 0.02334316447 -0.9745934606 -0.2227615863
vn 0.1405723542 0.6623227596 0.7359130383
vn 0.06892684847 -0.9592370391 0.2740682662
vn -0.0942138508 -0.6555748582 0.7492298484
vn -0.1017188951 0.9585204124 0.2662552595
f 1//1 2//2 3//3 
f 3//3 2//2 4//4 
f 5//5 1//1 6//6 
f 6//6 1//1 3//3 
f 7//7 5//5 8//8 
f 8//8 5//5 6//6 
f 4//4 9//9 6//6 
f 6//6 9//9 10//10 
f 6//6 10//10 8//8 
f 6//6 3//3 4//4 
f 11//11 7//7 10//10 
f 10//10 7//7 8//8 
f 2//2 12//12 4//4 
f 4//4 12//12 9//9 
f 11//11 12//12 5//5 
f 5//5 12//12 2//2 
f 5//5 2//2 1//1 
f 5//5 7//7 11//11 
f 12//12 11//11 9//9 
f 9//9 11//11 10//10 
