v -67.02723694 0.1666666716 -53.06709671
v -67.02723694 0.1666666716 -52.70251465
v -68.76682281 0.1666666716 -53.06709671
v -68.76682281 0.1666666716 -52.70251465
v -67.02723694 0.2083333284 -53.06709671
v -68.76682281 0.2083333284 -53.06709671
v -67.02723694 0.2083333284 -53.07751465
v -68.76682281 0.2083333284 -53.07751465
v -68.76682281 0.375 -52.70251465
v -68.76682281 0.375 -53.07751465
v -67.02723694 0.375 -53.07751465
v -67.02723694 0.375 -52.70251465
vn 0.02334349789 -0.9745926857 -0.2227647752
vn 0.06892709434 -0.9592369199 0.2740686238
vn -0.01195566822 -0.9982999563 -0.05704589933
vn -0.09421411902 -0.6555742621 0.7492303252
vn 0.8866518736 -0.2068285793 -0.4136065543
vn -0.7285458446 -0.08497365564 -0.6797060966
vn 0.002992898226 -0.03123841994 -0.9995074868
vn -0.005942384247 -0.1240474507 -0.9922584891
vn -0.1017188802 0.9585202932 0.2662556469
vn -0.07339881361 0.7453932762 -0.6625718474
vn 0.04800710827 0.9750615358 -0.2166803479
vn 0.140572235 0.6623222232 0.7359135151
f 1//1 2//2 3//3 
f 3//3 2//2 4//4 
f 5//5 1//1 6//6 
f 6//6 1//1 3//3 
f 7//7 5//5 8//8 
f 8//8 5//5 6//6 
f 4//4 9//9 6//6 
f 6//6 9//9 10//10 
f 6//6 10//10 8//8 
f 6//6 3//3 4//4 
f 11//11 7//7 10//10 
f 10//10 7//7 8//8 
f 2//2 12//12 4//4 
f 4//4 12//12 9//9 
f 11//11 12//12 5//5 
f 5//5 12//12 2//2 
f 5//5 2//2 1//1 
f 5//5 7//7 11//11 
f 12//12 11//11 9//9 
f 9//9 11//11 10//10 
