v 25.82068443 37.25 -56.27543259
v 25.82068443 23.75 -56.27543259
v 26.42485046 37.25 -56.27543259
v 26.42485046 23.75 -56.27543259
v 25.82068443 30.75 -64.89001465
v 25.82068443 23.75 -64.89001465
v 26.42485046 30.75 -64.89001465
v 26.42485046 23.75 -64.89001465
v 25.82068443 23.75 -61.89001465
v 26.42485046 23.75 -61.89001465
v 26.42485046 30.75 -61.89001465
v 25.82068443 30.75 -61.89001465
v 25.82068443 30.75 -70.05667877
v 25.82068443 23.75 -70.05667877
v 26.42485046 30.75 -70.05667877
v 26.42485046 23.75 -70.05667877
v 25.82068443 37.25 -75.67126465
v 25.82068443 23.75 -75.67126465
v 25.82068443 30.75 -67.05667877
v 25.82068443 23.75 -67.05667877
v 26.42485046 37.25 -75.67126465
v 26.42485046 30.75 -67.05667877
v 26.42485046 23.75 -67.05667877
v 26.42485046 23.75 -75.67126465
vn -0.9937755466 0.1052118614 0.03661508486
vn -0.9896844625 -0.02916749939 0.140263781
vn 0.9959091544 0.05271887407 0.07338739932
vn 0.9957789779 -0.05869422853 0.07056376338
vn -0.9995704889 -0.01907178387 0.02225041576
vn -0.8708931208 -0.07516629249 0.4856904447
vn 0.9987781048 -0.01035495754 0.0483231321
vn 0.986821115 -0.08517196774 0.1375856549
vn -0.9799324274 -0.1691548228 -0.105447188
vn 0.9741546512 -0.0840787366 -0.2096509188
vn 0.9991447926 -0.02690880373 -0.03139360249
vn -0.997941196 -0.01343819406 -0.06271157414
vn -0.9991447926 -0.02690878697 0.03139358386
vn -0.9741546512 -0.0840787366 0.2096507847
vn 0.997941196 -0.01343818661 0.06271153688
vn 0.9799324274 -0.1691548228 0.1054471135
vn -0.9963812828 0.0495890528 -0.0690305233
vn -0.9957789779 -0.05869422853 -0.07056371123
vn -0.9846192598 -0.03660762683 -0.1708355844
vn -0.986821115 -0.08517196774 -0.1375856549
vn 0.9944919348 0.09899003804 -0.03444981202
vn 0.9962242246 -0.05650031567 -0.06591703743
vn 0.8708931208 -0.07516629249 -0.4856904447
vn 0.9896844625 -0.02916749939 -0.1402636766
f 1//1 2//2 3//3 
f 3//3 2//2 4//4 
f 5//5 6//6 7//7 
f 7//7 6//6 8//8 
f 2//2 9//9 4//4 
f 4//4 9//9 10//10 
f 7//7 11//11 5//5 
f 5//5 11//11 12//12 
f 13//13 14//14 15//15 
f 15//15 14//14 16//16 
f 17//17 5//5 1//1 
f 1//1 5//5 12//12 
f 1//1 12//12 2//2 
f 2//2 12//12 9//9 
f 18//18 13//13 17//17 
f 17//17 13//13 19//19 
f 17//17 19//19 5//5 
f 5//5 19//19 20//20 
f 5//5 20//20 6//6 
f 18//18 14//14 13//13 
f 3//3 7//7 21//21 
f 21//21 7//7 22//22 
f 21//21 22//22 15//15 
f 7//7 3//3 11//11 
f 11//11 3//3 4//4 
f 11//11 4//4 10//10 
f 7//7 8//8 22//22 
f 22//22 8//8 23//23 
f 16//16 24//24 15//15 
f 15//15 24//24 21//21 
f 19//19 13//13 22//22 
f 22//22 13//13 15//15 
f 24//24 16//16 18//18 
f 18//18 16//16 14//14 
f 22//22 23//23 19//19 
f 19//19 23//23 20//20 
f 6//6 20//20 8//8 
f 8//8 20//20 23//23 
f 11//11 10//10 12//12 
f 12//12 10//10 9//9 
f 17//17 1//1 21//21 
f 21//21 1//1 3//3 
f 18//18 17//17 24//24 
f 24//24 17//17 21//21 
