v 25.82068443 37.25 68.4490509
v 25.82068443 23.75 68.4490509
v 26.42485046 37.25 68.77029419
v 26.42485046 23.75 68.77029419
v 25.82068443 30.75 47.87873459
v 25.82068443 23.75 47.87873459
v 26.42485046 30.75 47.87873459
v 26.42485046 23.75 47.87873459
v 26.42485046 30.75 50.87873459
v 25.82068443 30.75 50.87873459
v 26.42485046 30.75 60.87873459
v 26.42485046 23.75 60.87873459
v 25.82068443 30.75 60.87873459
v 25.82068443 23.75 60.87873459
v 25.82068443 23.75 45.71207047
v 26.42485046 23.75 45.71207047
v 26.42485046 30.75 45.71207047
v 25.82068443 30.75 45.71207047
v 26.42485046 23.75 37.09748459
v 26.42485046 23.75 42.71207047
v 25.82068443 23.75 37.09748459
v 25.82068443 23.75 42.71207047
v 25.82068443 30.75 42.71207047
v 26.42485046 30.75 42.71207047
v 26.42485046 37.25 37.09748459
v 26.42485046 30.75 57.87873459
v 26.42485046 23.75 57.87873459
v 26.42485046 23.75 50.87873459
v 25.82068443 37.25 37.09748459
v 25.82068443 30.75 57.87873459
v 25.82068443 23.75 50.87873459
v 25.82068443 23.75 57.87873459
vn -0.9946606755 0.1009105742 0.02161533013
vn -0.9934843779 -0.05663608015 0.09889965504
vn 0.9976829886 0.05177501217 0.04413644969
vn 0.9982044101 -0.03022894822 0.0517123118
vn -0.9962242246 -0.05650031567 0.06591703743
vn -0.8708931208 -0.07516629249 0.4856904447
vn 0.9846192598 -0.03660762683 0.1708355844
vn 0.986821115 -0.08517196774 0.1375856549
vn 0.9998860359 -0.009826092981 -0.0114637753
vn -0.9996297359 -0.005701420363 -0.02660662867
vn 0.9995282292 -0.01998757012 -0.02331883088
vn 0.9749527574 -0.16486983 -0.1492818594
vn -0.998776257 -0.01036272664 -0.04835939035
vn -0.9931615591 -0.08571920544 -0.07926148176
vn -0.986821115 -0.08517196774 -0.1375856549
vn 0.8708931208 -0.07516629249 -0.4856904447
vn 0.9962242246 -0.05650031567 -0.06591703743
vn -0.9846192598 -0.03660762683 -0.1708355844
vn 0.9896844625 -0.02916749939 -0.1402636766
vn 0.9799324274 -0.1691548228 0.1054471135
vn -0.9957789779 -0.05869422853 -0.07056371123
vn -0.9741546512 -0.0840787366 0.2096507847
vn -0.9991447926 -0.02690878697 0.03139358386
vn 0.997941196 -0.01343818661 0.06271153688
vn 0.9933018684 0.1129850596 -0.02420171909
vn 0.9971334934 -0.01585353166 0.07398314029
vn 0.9953764677 -0.08591037989 0.04295518994
vn 0.9818813205 -0.08474561572 -0.1694912314
vn -0.9971886277 0.05677867308 -0.04889784753
vn -0.9994166493 -0.02222626656 0.02593064494
vn -0.9953764677 -0.08591037989 -0.04295518994
vn -0.9818813205 -0.08474561572 0.1694912314
f 1//1 2//2 3//3 
f 3//3 2//2 4//4 
f 5//5 6//6 7//7 
f 7//7 6//6 8//8 
f 7//7 9//9 5//5 
f 5//5 9//9 10//10 
f 11//11 12//12 13//13 
f 13//13 12//12 14//14 
f 6//6 15//15 8//8 
f 8//8 15//15 16//16 
f 17//17 16//16 18//18 
f 18//18 16//16 15//15 
f 19//19 20//20 21//21 
f 21//21 20//20 22//22 
f 18//18 23//23 17//17 
f 17//17 23//23 24//24 
f 3//3 9//9 25//25 
f 25//25 9//9 7//7 
f 25//25 7//7 17//17 
f 17//17 7//7 8//8 
f 17//17 8//8 16//16 
f 4//4 11//11 3//3 
f 3//3 11//11 26//26 
f 3//3 26//26 9//9 
f 9//9 26//26 27//27 
f 9//9 27//27 28//28 
f 4//4 12//12 11//11 
f 17//17 24//24 25//25 
f 25//25 24//24 19//19 
f 19//19 24//24 20//20 
f 29//29 10//10 1//1 
f 1//1 10//10 30//30 
f 1//1 30//30 13//13 
f 21//21 23//23 29//29 
f 29//29 23//23 18//18 
f 29//29 18//18 5//5 
f 5//5 18//18 15//15 
f 5//5 15//15 6//6 
f 21//21 22//22 23//23 
f 5//5 10//10 29//29 
f 10//10 31//31 30//30 
f 30//30 31//31 32//32 
f 14//14 2//2 13//13 
f 13//13 2//2 1//1 
f 23//23 22//22 24//24 
f 24//24 22//22 20//20 
f 26//26 11//11 30//30 
f 30//30 11//11 13//13 
f 4//4 2//2 12//12 
f 12//12 2//2 14//14 
f 30//30 32//32 26//26 
f 26//26 32//32 27//27 
f 28//28 27//27 31//31 
f 31//31 27//27 32//32 
f 9//9 28//28 10//10 
f 10//10 28//28 31//31 
f 29//29 1//1 25//25 
f 25//25 1//1 3//3 
f 21//21 29//29 19//19 
f 19//19 29//29 25//25 
