v 14.4040184 37.25 -102.0818863
v 14.4040184 23.75 -102.0818863
v 14.4040184 37.25 -101.4777222
v 14.4040184 23.75 -101.4777222
v 25.82068443 23.75 -102.0818863
v 25.82068443 37.25 -102.0818863
v 25.82068443 23.75 -101.4777222
v 25.82068443 37.25 -101.4777222
vn -0.02644387074 0.0223630257 -0.9994001389
vn -0.1048366427 -0.08865814656 -0.9905296564
vn -0.1048366427 0.08865814656 0.9905296564
vn -0.02644387074 -0.0223630257 0.9994001389
vn 0.02644387074 -0.0223630257 -0.9994001389
vn 0.1048366427 0.08865814656 -0.9905296564
vn 0.1048366427 -0.08865814656 0.9905296564
vn 0.02644387074 0.0223630257 0.9994001389
f 1//1 2//2 3//3 
f 3//3 2//2 4//4 
f 2//2 1//1 5//5 
f 5//5 1//1 6//6 
f 5//5 7//7 2//2 
f 2//2 7//7 4//4 
f 1//1 3//3 6//6 
f 6//6 3//3 8//8 
f 7//7 8//8 4//4 
f 4//4 8//8 3//3 
f 5//5 6//6 7//7 
f 7//7 6//6 8//8 
