v -21.3459816 37.25 -106.0554276
v -21.3459816 23.75 -106.0554276
v -21.3459816 37.25 -106.6595917
v -21.3459816 23.75 -106.6595917
v -36.4084816 37.25 -106.0554276
v -36.4084816 23.75 -106.0554276
v -36.4084816 23.75 -106.6595917
v -36.4084816 37.25 -106.6595917
v -20.74181557 23.75 -106.0554276
v -20.74181557 37.25 -106.0554276
v -20.74181557 23.75 -106.6595917
v -20.74181557 37.25 -106.6595917
v 7.191629887 23.75 -106.0554276
v 7.191629887 37.25 -106.0554276
v 7.191629887 23.75 -106.6595917
v 7.191629887 37.25 -106.6595917
vn 0.02004619315 0.02236635424 0.9995488524
vn 0.07964770496 -0.08886618912 0.9928539991
vn 0.07964770496 0.08886618912 -0.9928539991
vn 0.02004619315 -0.02236635424 -0.9995488524
vn -0.07964770496 0.08886618912 0.9928539991
vn -0.02004619315 -0.02236635424 0.9995488524
vn -0.07964770496 -0.08886618912 -0.9928539991
vn -0.02004619315 0.02236635424 -0.9995488524
vn -0.01081101224 -0.02236954123 0.9996913075
vn -0.04304522648 0.08906677365 0.9950950742
vn -0.04304522648 -0.08906677365 -0.9950950742
vn -0.01081101224 0.02236954123 -0.9996913075
vn 0.04304522648 -0.08906677365 0.9950950742
vn 0.01081101224 0.02236954123 0.9996913075
vn 0.01081101224 -0.02236954123 -0.9996913075
vn 0.04304522648 0.08906677365 -0.9950950742
f 1//1 2//2 3//3 
f 3//3 2//2 4//4 
f 5//5 6//6 1//1 
f 1//1 6//6 2//2 
f 6//6 7//7 2//2 
f 2//2 7//7 4//4 
f 8//8 5//5 3//3 
f 3//3 5//5 1//1 
f 7//7 8//8 4//4 
f 4//4 8//8 3//3 
f 6//6 5//5 7//7 
f 7//7 5//5 8//8 
f 9//9 10//10 11//11 
f 11//11 10//10 12//12 
f 13//13 14//14 9//9 
f 9//9 14//14 10//10 
f 15//15 13//13 11//11 
f 11//11 13//13 9//9 
f 14//14 16//16 10//10 
f 10//10 16//16 12//12 
f 16//16 15//15 12//12 
f 12//12 15//15 11//11 
f 14//14 13//13 16//16 
f 16//16 13//13 15//15 
