v -44.3772316 24.75 -111.5241699
v -44.3772316 23.75 -111.5241699
v -43.82514954 24.75 -111.5241699
v -43.82514954 23.75 -111.5241699
v -43.82514954 23.75 -116.6296005
v -43.82514954 37.25 -116.6296005
v -43.82514954 37.25 -111.4316788
v -43.82514954 24.75 -111.4316788
v -44.3772316 24.75 -111.4316788
v -44.3772316 37.25 -116.6296005
v -44.3772316 37.25 -111.4316788
v -44.3772316 23.75 -116.6296005
vn -0.9999919534 -0.0007286343607 0.003938940819
vn -0.8601634502 -0.4748808146 0.1860296875
vn 0.9999688864 -0.0003643087693 0.007877700031
vn 0.6695186496 -0.7392584682 0.07239922881
vn 0.9796417952 -0.03729949519 -0.1972578615
vn 0.9975412488 0.04275848344 -0.05552599579
vn 0.9780246615 0.04244080186 0.2041238993
vn 0.1652112454 -0.0145936273 0.9861502051
vn -0.08347285539 -0.003686709097 0.9965032339
vn -0.9936349392 0.02129552141 -0.1106171086
vn -0.990914166 0.08600027114 0.1034070402
vn -0.9921265244 -0.07554969192 -0.09988588095
f 1//1 2//2 3//3 
f 3//3 2//2 4//4 
f 4//4 5//5 3//3 
f 3//3 5//5 6//6 
f 3//3 6//6 7//7 
f 7//7 8//8 3//3 
f 9//9 1//1 8//8 
f 8//8 1//1 3//3 
f 10//10 11//11 6//6 
f 6//6 11//11 7//7 
f 2//2 1//1 12//12 
f 12//12 1//1 10//10 
f 10//10 1//1 11//11 
f 11//11 1//1 9//9 
f 11//11 9//9 7//7 
f 7//7 9//9 8//8 
f 2//2 12//12 4//4 
f 4//4 12//12 5//5 
f 12//12 10//10 5//5 
f 5//5 10//10 6//6 
