v 13.79985142 34.75 20.54748535
v 13.79985142 33.75 20.54748535
v 7.799851418 34.75 20.54748535
v 7.799851418 33.75 20.54748535
v 7.799851418 33.75 32.88081741
v 13.79985142 33.75 32.88081741
v 7.799851418 34.75 32.88081741
v 13.79985142 34.75 32.88081741
vn 0.1642677039 0.9856061935 -0.03995701298
vn 0.162335366 -0.9740121365 -0.1579479277
vn -0.162335366 0.9740121365 -0.1579479277
vn -0.1642677039 -0.9856061935 -0.03995701298
vn -0.162335366 -0.9740121365 0.1579479277
vn 0.1642677039 -0.9856061935 0.03995701298
vn -0.1642677039 0.9856061935 0.03995701298
vn 0.162335366 0.9740121365 0.1579479277
f 1//1 2//2 3//3 
f 3//3 2//2 4//4 
f 5//5 4//4 6//6 
f 6//6 4//4 2//2 
f 3//3 4//4 7//7 
f 7//7 4//4 5//5 
f 8//8 6//6 1//1 
f 1//1 6//6 2//2 
f 8//8 1//1 7//7 
f 7//7 1//1 3//3 
f 7//7 5//5 8//8 
f 8//8 5//5 6//6 
