v 7.306213379 23.91666603 -105.8887634
v 7.306213379 23.91666603 -92.03585052
v 7.681213379 23.91666603 -105.8887634
v 7.681213379 23.91666603 -92.03585052
v 7.681213379 23.75 -92.03585052
v 7.306213379 23.75 -92.03585052
v 7.681213379 23.75 -105.8887634
v 7.306213379 23.75 -105.8887634
vn -0.4060390294 0.9135912657 -0.02198304981
vn -0.4061310291 0.9137983322 0.005497007631
vn 0.4061310291 0.9137983322 -0.005497007631
vn 0.4060390294 0.9135912657 0.02198304981
vn 0.4061310291 -0.9137983322 0.005497007631
vn -0.4060390294 -0.9135912657 0.02198304981
vn 0.4060390294 -0.9135912657 -0.02198304981
vn -0.4061310291 -0.9137983322 -0.005497007631
f 1//1 2//2 3//3 
f 3//3 2//2 4//4 
f 5//5 4//4 6//6 
f 6//6 4//4 2//2 
f 7//7 3//3 5//5 
f 5//5 3//3 4//4 
f 1//1 8//8 2//2 
f 2//2 8//8 6//6 
f 8//8 1//1 7//7 
f 7//7 1//1 3//3 
f 7//7 5//5 8//8 
f 8//8 5//5 6//6 
