v 7.452046871 33.58333206 -92.03585052
v 7.452046871 23.91666603 -92.03585052
v 7.535379887 33.58333206 -92.03585052
v 7.535379887 23.91666603 -92.03585052
v 7.535379887 23.91666603 -105.8887634
v 7.535379887 33.58333206 -105.8887634
v 7.452046871 33.58333206 -105.8887634
v 7.452046871 23.91666603 -105.8887634
vn -0.9999583364 0.008620298468 0.003007654101
vn -0.9998905063 -0.008619713597 0.01202980056
vn 0.9998905063 0.008619713597 0.01202980056
vn 0.9999583364 -0.008620298468 0.003007654101
vn 0.9998905063 -0.008619713597 -0.01202980056
vn 0.9999583364 0.008620298468 -0.003007654101
vn -0.9998905063 0.008619713597 -0.01202980056
vn -0.9999583364 -0.008620298468 -0.003007654101
f 1//1 2//2 3//3 
f 3//3 2//2 4//4 
f 5//5 6//6 4//4 
f 4//4 6//6 3//3 
f 7//7 1//1 6//6 
f 6//6 1//1 3//3 
f 2//2 8//8 4//4 
f 4//4 8//8 5//5 
f 2//2 1//1 8//8 
f 8//8 1//1 7//7 
f 8//8 7//7 5//5 
f 5//5 7//7 6//6 
