v -20.74181557 23.75 -108.1595917
v -20.74181557 37.25 -108.1595917
v -20.74181557 23.75 -108.7637634
v -20.74181557 37.25 -108.7637634
v -14.6584816 23.75 -108.1595917
v -14.6584816 37.25 -108.1595917
v -14.6584816 23.75 -108.7637634
v -14.6584816 37.25 -108.7637634
vn -0.04958445206 -0.02234361321 0.9985199571
vn -0.1940791011 0.08745540679 0.9770797491
vn -0.1940791011 -0.08745540679 -0.9770797491
vn -0.04958445206 0.02234361321 -0.9985199571
vn 0.1940791011 -0.08745540679 0.9770797491
vn 0.04958445206 0.02234361321 0.9985199571
vn 0.04958445206 -0.02234361321 -0.9985199571
vn 0.1940791011 0.08745540679 -0.9770797491
f 1//1 2//2 3//3 
f 3//3 2//2 4//4 
f 5//5 6//6 1//1 
f 1//1 6//6 2//2 
f 1//1 3//3 5//5 
f 5//5 3//3 7//7 
f 6//6 8//8 2//2 
f 2//2 8//8 4//4 
f 3//3 4//4 7//7 
f 7//7 4//4 8//8 
f 6//6 5//5 8//8 
f 8//8 5//5 7//7 
