v -20.74181557 23.75 -115.0566788
v -20.74181557 37.25 -115.0566788
v -21.3459816 23.75 -115.0566788
v -21.3459816 37.25 -115.0566788
v -20.74181557 23.75 -117.9316788
v -20.74181557 37.25 -117.9316788
v -21.3459816 23.75 -117.9316788
v -21.3459816 37.25 -117.9316788
vn 0.9935415983 -0.04446400702 0.1043937504
vn 0.9211032391 0.04122217 0.3871299326
vn -0.9211032391 -0.04122217 0.3871299326
vn -0.9935415983 0.04446400702 0.1043937504
vn 0.9211032391 -0.04122217 -0.3871299326
vn 0.9935415983 0.04446400702 -0.1043937504
vn -0.9935415983 -0.04446400702 -0.1043937504
vn -0.9211032391 0.04122217 -0.3871299326
f 1//1 2//2 3//3 
f 3//3 2//2 4//4 
f 5//5 6//6 1//1 
f 1//1 6//6 2//2 
f 5//5 1//1 7//7 
f 7//7 1//1 3//3 
f 2//2 6//6 4//4 
f 4//4 6//6 8//8 
f 3//3 4//4 7//7 
f 7//7 4//4 8//8 
f 6//6 5//5 8//8 
f 8//8 5//5 7//7 
