v -62.97768021 24.75 -170.3315125
v -62.97768021 23.75 -170.3315125
v -63.12419891 24.75 -170.4110718
v -63.12419891 23.75 -170.4110718
v -63.33547592 23.75 -169.629303
v -63.33547592 24.75 -169.629303
v -63.48397827 23.75 -169.7049561
v -63.48397827 24.75 -169.7049561
vn 0.9305285215 0.08236477524 0.3568370342
vn 0.9858515263 -0.1503426731 0.07412049919
vn -0.6135696769 0.2954920828 -0.7322682142
vn -0.8272041678 -0.1635145396 -0.5375837088
vn 0.8269854784 -0.1639518738 0.5377869606
vn 0.6152929068 0.2942208946 0.7313334942
vn -0.9857653975 -0.1518484354 -0.07217110693
vn -0.9304094315 0.08259166777 -0.3570950627
f 1//1 2//2 3//3 
f 3//3 2//2 4//4 
f 2//2 1//1 5//5 
f 5//5 1//1 6//6 
f 2//2 5//5 4//4 
f 4//4 5//5 7//7 
f 1//1 3//3 6//6 
f 6//6 3//3 8//8 
f 7//7 8//8 4//4 
f 4//4 8//8 3//3 
f 5//5 6//6 7//7 
f 7//7 6//6 8//8 
