v -45.39426422 23.75 -145.4989014
v -45.39426422 23.75 -146.9477997
v -45.20014954 23.75 -145.4733429
v -45.20014954 23.75 -146.9733429
v -45.00603485 23.75 -145.4989014
v -45.00603485 23.75 -146.9477997
v -44.82514954 23.75 -145.573822
v -44.82514954 23.75 -146.8728638
v -44.66981888 23.75 -145.6930237
v -44.66981888 23.75 -146.7536774
v -44.55062866 23.75 -145.8483429
v -44.55062866 23.75 -146.5983429
v -44.47570419 23.75 -146.0292358
v -44.47570419 23.75 -146.4174652
v -44.45014954 23.75 -146.2233429
v -45.57514954 23.75 -146.8728638
v -45.57514954 23.75 -145.573822
v -45.73048019 23.75 -146.7536774
v -45.73048019 23.75 -145.6930237
v -45.8496666 23.75 -146.5983429
v -45.8496666 23.75 -145.8483429
v -45.92459488 23.75 -146.4174652
v -45.92459488 23.75 -146.0292358
v -45.95014954 23.75 -146.2233429
v -45.20014954 37.41666794 -145.4733429
v -45.39426422 37.41666794 -145.4989014
v -45.57514954 37.41666794 -145.573822
v -45.73048019 37.41666794 -145.6930237
v -45.8496666 37.41666794 -145.8483429
v -45.92459488 37.41666794 -146.0292358
v -45.95014954 37.41666794 -146.2233429
v -45.92459488 37.41666794 -146.4174652
v -45.8496666 37.41666794 -146.5983429
v -45.73048019 37.41666794 -146.7536774
v -45.57514954 37.41666794 -146.8728638
v -45.39426422 37.41666794 -146.9477997
v -45.20014954 37.41666794 -146.9733429
v -45.00603485 37.41666794 -145.4989014
v -45.00603485 37.41666794 -146.9477997
v -44.82514954 37.41666794 -146.8728638
v -44.82514954 37.41666794 -145.573822
v -44.66981888 37.41666794 -146.7536774
v -44.66981888 37.41666794 -145.6930237
v -44.55062866 37.41666794 -146.5983429
v -44.55062866 37.41666794 -145.8483429
v -44.47570419 37.41666794 -146.4174652
v -44.47570419 37.41666794 -146.0292358
v -44.45014954 37.41666794 -146.2233429
vn -0.2151989788 -0.0972372219 0.9717171788
vn -0.2992945015 -0.1041838154 -0.9484558702
vn 0.04359135777 -0.1077739298 0.993219316
vn -0.04356538132 -0.1077740565 -0.9932204485
vn 0.2992708087 -0.1041846275 0.9484632611
vn 0.2151741385 -0.09723776579 -0.9717226624
vn 0.5354559422 -0.08738704771 0.8400300145
vn 0.4602661431 -0.07529105991 -0.8845825791
vn 0.736010313 -0.06176173687 0.6741470695
vn 0.6746538281 -0.04771697149 -0.7365903258
vn 0.8865986466 -0.03412427008 0.4612790644
vn 0.8430681825 -0.02192115039 -0.5373597741
vn 0.9762749076 -0.01194986422 0.2162047029
vn 0.9536385536 -0.004896730185 -0.3009144664
vn 0.9990378022 -0.001245352789 -0.04383960739
vn -0.5354372859 -0.0873882696 -0.8400417566
vn -0.4602455795 -0.07529196888 0.8845931888
vn -0.7360287905 -0.06176058948 -0.6741269827
vn -0.6746713519 -0.04771549627 0.7365744114
vn -0.8865904212 -0.03412445262 -0.4612949193
vn -0.8430635333 -0.02192189544 0.5373669863
vn -0.9762747884 -0.0119500868 -0.2162054181
vn -0.9536371827 -0.004896774422 0.3009188473
vn -0.9990377426 -0.001245385385 0.04384075105
vn -0.04359135777 0.1077739298 0.993219316
vn -0.2992708087 0.1041846275 0.9484632611
vn -0.5354559422 0.08738704771 0.8400300145
vn -0.7360168695 0.06176177785 0.6741399765
vn -0.8865959644 0.03412365913 0.4612842202
vn -0.9762735367 0.01195039228 0.2162109464
vn -0.9990378022 0.001245352789 -0.04383960739
vn -0.9536347985 0.004896896426 -0.3009263575
vn -0.8430711031 0.02192141302 -0.537355125
vn -0.6746571064 0.04771633819 -0.7365874052
vn -0.4602661431 0.07529105991 -0.8845825791
vn -0.2151741385 0.09723776579 -0.9717226624
vn 0.04356538132 0.1077740565 -0.9932204485
vn 0.2151989788 0.0972372219 0.9717171788
vn 0.2992945015 0.1041838154 -0.9484558702
vn 0.5354372859 0.0873882696 -0.8400417566
vn 0.4602455795 0.07529196888 0.8845931888
vn 0.7360222936 0.0617605485 -0.6741340756
vn 0.6746680737 0.04771612957 0.736577332
vn 0.8865930438 0.03412506357 -0.4612897635
vn 0.8430606127 0.02192163281 0.5373716354
vn 0.9762761593 0.01194955874 -0.2161991745
vn 0.9536409378 0.004896607716 0.3009069562
vn 0.9990377426 0.001245385385 0.04384075105
f 1//1 2//2 3//3 
f 3//3 2//2 4//4 
f 3//3 4//4 5//5 
f 5//5 4//4 6//6 
f 5//5 6//6 7//7 
f 7//7 6//6 8//8 
f 7//7 8//8 9//9 
f 9//9 8//8 10//10 
f 9//9 10//10 11//11 
f 11//11 10//10 12//12 
f 11//11 12//12 13//13 
f 13//13 12//12 14//14 
f 13//13 14//14 15//15 
f 2//2 1//1 16//16 
f 16//16 1//1 17//17 
f 16//16 17//17 18//18 
f 18//18 17//17 19//19 
f 18//18 19//19 20//20 
f 20//20 19//19 21//21 
f 20//20 21//21 22//22 
f 22//22 21//21 23//23 
f 22//22 23//23 24//24 
f 3//3 25//25 1//1 
f 1//1 25//25 26//26 
f 1//1 26//26 17//17 
f 17//17 26//26 27//27 
f 17//17 27//27 19//19 
f 19//19 27//27 28//28 
f 19//19 28//28 21//21 
f 21//21 28//28 29//29 
f 21//21 29//29 23//23 
f 23//23 29//29 30//30 
f 23//23 30//30 24//24 
f 24//24 30//30 31//31 
f 24//24 31//31 22//22 
f 22//22 31//31 32//32 
f 22//22 32//32 20//20 
f 20//20 32//32 33//33 
f 20//20 33//33 18//18 
f 18//18 33//33 34//34 
f 18//18 34//34 16//16 
f 16//16 34//34 35//35 
f 16//16 35//35 2//2 
f 2//2 35//35 36//36 
f 2//2 36//36 4//4 
f 4//4 36//36 37//37 
f 38//38 39//39 25//25 
f 25//25 39//39 37//37 
f 25//25 37//37 26//26 
f 26//26 37//37 36//36 
f 26//26 36//36 27//27 
f 27//27 36//36 35//35 
f 27//27 35//35 28//28 
f 28//28 35//35 34//34 
f 28//28 34//34 29//29 
f 29//29 34//34 33//33 
f 29//29 33//33 30//30 
f 30//30 33//33 32//32 
f 30//30 32//32 31//31 
f 39//39 38//38 40//40 
f 40//40 38//38 41//41 
f 40//40 41//41 42//42 
f 42//42 41//41 43//43 
f 42//42 43//43 44//44 
f 44//44 43//43 45//45 
f 44//44 45//45 46//46 
f 46//46 45//45 47//47 
f 46//46 47//47 48//48 
f 4//4 37//37 6//6 
f 6//6 37//37 39//39 
f 6//6 39//39 8//8 
f 8//8 39//39 40//40 
f 8//8 40//40 10//10 
f 10//10 40//40 42//42 
f 10//10 42//42 12//12 
f 12//12 42//42 44//44 
f 12//12 44//44 14//14 
f 14//14 44//44 46//46 
f 14//14 46//46 15//15 
f 15//15 46//46 48//48 
f 15//15 48//48 13//13 
f 13//13 48//48 47//47 
f 13//13 47//47 11//11 
f 11//11 47//47 45//45 
f 11//11 45//45 9//9 
f 9//9 45//45 43//43 
f 9//9 43//43 7//7 
f 7//7 43//43 41//41 
f 7//7 41//41 5//5 
f 5//5 41//41 38//38 
f 5//5 38//38 3//3 
f 3//3 38//38 25//25 
