v -45.80126953 37.25 -38.39001465
v -45.80126953 23.75 -38.39001465
v -45.80126953 37.25 -38.99418259
v -45.80126953 23.75 -38.99418259
v -49.30431366 23.75 -38.39001465
v -49.30431366 37.25 -38.39001465
v -49.30431366 23.75 -38.99418259
v -49.30431366 37.25 -38.99418259
vn 0.08589449525 0.02228831314 0.9960548878
vn 0.3249235749 -0.08431271464 0.9419745207
vn 0.3249235749 0.08431271464 -0.9419745207
vn 0.08589449525 -0.02228831314 -0.9960548878
vn -0.08589449525 -0.02228831314 0.9960548878
vn -0.3249235749 0.08431271464 0.9419745207
vn -0.3249235749 -0.08431271464 -0.9419745207
vn -0.08589449525 0.02228831314 -0.9960548878
f 1//1 2//2 3//3 
f 3//3 2//2 4//4 
f 2//2 1//1 5//5 
f 5//5 1//1 6//6 
f 5//5 7//7 2//2 
f 2//2 7//7 4//4 
f 1//1 3//3 6//6 
f 6//6 3//3 8//8 
f 7//7 8//8 4//4 
f 4//4 8//8 3//3 
f 5//5 6//6 7//7 
f 7//7 6//6 8//8 
