v 5.258184433 24.987463 -74.24808502
v 5.258184433 24.987463 -72.37308502
v 7.133184433 24.987463 -74.24808502
v 7.133184433 24.987463 -72.37308502
v 5.258184433 26.21662903 -74.24808502
v 5.258184433 26.21662903 -72.37308502
v 7.133184433 26.21662903 -74.24808502
v 7.195684433 26.21662903 -72.31058502
v 7.133184433 26.21662903 -72.37308502
v 5.195684433 26.21662903 -72.31058502
v 7.195684433 26.21662903 -74.31058502
v 5.195684433 26.21662903 -74.31058502
v 7.195684433 24.924963 -74.31058502
v 7.195684433 24.924963 -72.31058502
v 5.154017925 26.21662903 -72.31058502
v 5.154017925 24.924963 -72.31058502
v 5.195684433 24.924963 -72.31058502
v 5.195684433 24.924963 -74.31058502
v 5.258184433 24.924963 -74.24808502
v 5.154017925 24.924963 -74.31058502
v 5.258184433 24.924963 -72.37308502
v 7.133184433 24.924963 -74.24808502
v 7.133184433 24.924963 -72.37308502
v 5.154017925 26.21662903 -74.31058502
vn 0.3694360554 0.5635468364 0.7388721108
vn 0.5287439227 0.8065589666 -0.2643719614
vn -0.5287439227 0.8065589666 0.2643719614
vn -0.3694360554 0.5635468364 -0.7388721108
vn 0.892260313 0.06956609339 0.4461301565
vn 0.4467518032 0.04543241113 -0.8935036063
vn -0.4461301565 0.06956609339 0.892260313
vn 0.4467953444 0.0432382822 0.8935906887
vn -0.8905023932 0.09357826412 -0.4452511966
vn 0 0.2064240724 0.9784626365
vn 0.8926256299 0.06343764067 -0.446312815
vn 0 0.1017307863 -0.9948119521
vn 0.4467953444 -0.0432382822 -0.8935906887
vn 0.8926256299 -0.06343764067 0.446312815
vn -0.9994259477 0.03223944083 0.01041064691
vn -0.995824635 -0.08131220937 0.04149253294
vn 0 -0.04683914781 0.9989024401
vn 0 -0.09059373289 -0.9958879352
vn 0 -1 0
vn -0.996869266 -0.07838278264 -0.01038401481
vn 0 -1 0
vn 0 -1 0
vn 0 -1 0
vn -0.9986145496 0.03221326694 -0.04160878062
f 1//1 2//2 3//3 
f 3//3 2//2 4//4 
f 1//1 5//5 2//2 
f 2//2 5//5 6//6 
f 3//3 7//7 1//1 
f 1//1 7//7 5//5 
f 8//8 9//9 10//10 
f 10//10 9//9 6//6 
f 2//2 6//6 4//4 
f 4//4 6//6 9//9 
f 8//8 11//11 9//9 
f 9//9 11//11 7//7 
f 11//11 12//12 7//7 
f 7//7 12//12 5//5 
f 13//13 11//11 14//14 
f 14//14 11//11 8//8 
f 4//4 9//9 3//3 
f 3//3 9//9 7//7 
f 15//15 16//16 10//10 
f 10//10 16//16 17//17 
f 10//10 17//17 8//8 
f 8//8 17//17 14//14 
f 18//18 19//19 20//20 
f 20//20 19//19 21//21 
f 20//20 21//21 16//16 
f 16//16 21//21 17//17 
f 18//18 22//22 19//19 
f 19//19 22//22 23//23 
f 19//19 23//23 21//21 
f 21//21 23//23 17//17 
f 17//17 23//23 14//14 
f 18//18 13//13 22//22 
f 13//13 14//14 22//22 
f 22//22 14//14 23//23 
f 24//24 15//15 12//12 
f 12//12 15//15 10//10 
f 12//12 10//10 5//5 
f 5//5 10//10 6//6 
f 24//24 20//20 15//15 
f 15//15 20//20 16//16 
f 20//20 24//24 18//18 
f 18//18 24//24 12//12 
f 18//18 12//12 13//13 
f 13//13 12//12 11//11 
