v 7.133184433 24.987463 -37.11527634
v 7.133184433 24.987463 -38.99027634
v 5.258184433 24.987463 -37.11527634
v 5.258184433 24.987463 -38.99027634
v 5.258184433 26.21662903 -38.99027634
v 5.258184433 26.21662903 -37.11527634
v 7.133184433 26.21662903 -38.99027634
v 5.195684433 26.21662903 -39.05277634
v 7.195684433 26.21662903 -39.05277634
v 7.195684433 26.21662903 -37.05277634
v 7.133184433 26.21662903 -37.11527634
v 5.195684433 26.21662903 -37.05277634
v 7.195684433 24.924963 -39.05277634
v 7.195684433 24.924963 -37.05277634
v 5.195684433 24.924963 -37.05277634
v 7.133184433 24.924963 -37.11527634
v 5.258184433 24.924963 -37.11527634
v 5.258184433 24.924963 -38.99027634
v 5.154017925 24.924963 -39.05277634
v 5.195684433 24.924963 -39.05277634
v 5.154017925 24.924963 -37.05277634
v 7.133184433 24.924963 -38.99027634
v 5.154017925 26.21662903 -39.05277634
v 5.154017925 26.21662903 -37.05277634
vn -0.3694360554 0.5635468364 -0.7388721108
vn -0.5287439227 0.8065589666 0.2643719614
vn 0.5287439227 0.8065589666 -0.2643719614
vn 0.3694360554 0.5635468364 0.7388721108
vn 0.892260313 0.06956609339 0.4461301565
vn 0.4467518032 0.04543241113 -0.8935036063
vn -0.4461301565 0.06956609339 0.892260313
vn 0 0.1017307863 -0.9948119521
vn 0.8926256299 0.06343764067 -0.446312815
vn 0.4467953444 0.0432382822 0.8935906887
vn -0.8905023932 0.09357826412 -0.4452511966
vn 0 0.2064240724 0.9784626365
vn 0.4467953444 -0.0432382822 -0.8935906887
vn 0.8926256299 -0.06343764067 0.446312815
vn 0 -0.04683914781 0.9989024401
vn 0 -1 0
vn 0 -1 0
vn 0 -1 0
vn -0.996869266 -0.07838278264 -0.01038401481
vn 0 -0.09059373289 -0.9958879352
vn -0.995824635 -0.08131220937 0.04149253294
vn 0 -1 0
vn -0.9986145496 0.03221326694 -0.04160878062
vn -0.9994259477 0.03223944083 0.01041064691
f 1//1 2//2 3//3 
f 3//3 2//2 4//4 
f 4//4 5//5 3//3 
f 3//3 5//5 6//6 
f 2//2 7//7 4//4 
f 4//4 7//7 5//5 
f 5//5 7//7 8//8 
f 8//8 7//7 9//9 
f 10//10 11//11 12//12 
f 12//12 11//11 6//6 
f 7//7 11//11 9//9 
f 9//9 11//11 10//10 
f 3//3 6//6 1//1 
f 1//1 6//6 11//11 
f 13//13 9//9 14//14 
f 14//14 9//9 10//10 
f 1//1 11//11 2//2 
f 2//2 11//11 7//7 
f 14//14 15//15 16//16 
f 16//16 15//15 17//17 
f 16//16 17//17 18//18 
f 18//18 17//17 19//19 
f 18//18 19//19 20//20 
f 15//15 21//21 17//17 
f 17//17 21//21 19//19 
f 16//16 18//18 22//22 
f 22//22 18//18 20//20 
f 22//22 20//20 13//13 
f 13//13 14//14 22//22 
f 22//22 14//14 16//16 
f 19//19 23//23 20//20 
f 20//20 23//23 8//8 
f 20//20 8//8 13//13 
f 13//13 8//8 9//9 
f 23//23 24//24 8//8 
f 8//8 24//24 12//12 
f 8//8 12//12 5//5 
f 5//5 12//12 6//6 
f 23//23 19//19 24//24 
f 24//24 19//19 21//21 
f 24//24 21//21 12//12 
f 12//12 21//21 15//15 
f 12//12 15//15 10//10 
f 10//10 15//15 14//14 
