v 7.008184433 32.94791794 -45.80147171
v 7.008184433 28.8125 -45.80147171
v 7.008184433 32.94791794 -37.96813965
v 7.008184433 28.8125 -37.96813965
v 6.966517925 28.8125 -37.96813965
v 6.966517925 28.8125 -45.80147171
v 6.966517925 32.94791794 -37.96813965
v 6.966517925 32.94791794 -45.80147171
v 7.133184433 28.52083397 -37.80147171
v 7.133184433 33.11458206 -37.80147171
v 6.966517925 28.52083397 -37.80147171
v 6.966517925 33.11458206 -37.80147171
v 7.133184433 28.52083397 -45.96813965
v 6.966517925 28.52083397 -45.96813965
v 7.133184433 33.11458206 -45.96813965
v 6.966517925 33.11458206 -45.96813965
vn -0.999892652 -0.01007444412 0.01063711755
vn -0.9999457002 0.01007497776 0.00265942025
vn -0.9999457002 -0.01007497776 -0.00265942025
vn -0.999892652 0.01007444412 -0.01063711755
vn -0.9939731359 0.1059933007 -0.02797829732
vn -0.9920410514 0.08658435196 0.0914202258
vn -0.9901452661 -0.09630032629 -0.1016788483
vn -0.9472190738 -0.3099700511 0.08182058483
vn 0.9992905259 -0.03625541925 0.01019683108
vn 0.9985122085 0.03622718155 0.04075555503
vn -0.8381002545 -0.3624213636 0.4077238142
vn -0.7056174874 0.6821277142 0.1918483078
vn 0.9985122085 -0.03622718155 -0.04075555503
vn -0.8870130181 -0.4444987178 -0.1250151992
vn 0.9992905259 0.03625541925 -0.01019683108
vn -0.8954682946 0.2957252264 -0.332690686
f 1//1 2//2 3//3 
f 3//3 2//2 4//4 
f 4//4 2//2 5//5 
f 5//5 2//2 6//6 
f 3//3 4//4 7//7 
f 7//7 4//4 5//5 
f 2//2 1//1 6//6 
f 6//6 1//1 8//8 
f 1//1 3//3 8//8 
f 8//8 3//3 7//7 
f 9//9 10//10 11//11 
f 11//11 10//10 12//12 
f 13//13 9//9 14//14 
f 14//14 9//9 11//11 
f 10//10 9//9 15//15 
f 15//15 9//9 13//13 
f 14//14 6//6 16//16 
f 16//16 6//6 8//8 
f 16//16 8//8 7//7 
f 6//6 14//14 5//5 
f 5//5 14//14 11//11 
f 5//5 11//11 12//12 
f 5//5 12//12 7//7 
f 7//7 12//12 16//16 
f 10//10 15//15 12//12 
f 12//12 15//15 16//16 
f 15//15 13//13 16//16 
f 16//16 13//13 14//14 
