v -53.99214935 9.260416985 -138.4290466
v -53.99214935 8.166666985 -138.4290466
v -54.06640244 9.260416985 -138.4668732
v -54.06640244 8.166666985 -138.4668732
v -54.43518448 8.166666985 -137.7430878
v -54.43518448 9.260416985 -137.7430878
v -54.36093521 9.260416985 -137.7052612
v -54.36093521 8.166666985 -137.7052612
vn 0.912433207 0.03801765665 0.4074559212
vn 0.9613973498 -0.07442944497 0.2649063468
vn -0.7730204463 0.1476300955 -0.6169641018
vn -0.8640859127 -0.0758689642 -0.4975936413
vn -0.9613963962 -0.07442618161 -0.2649106681
vn -0.9124341011 0.03801606223 -0.407453984
vn 0.7730226517 0.1476305127 0.6169613004
vn 0.8640848994 -0.07586888224 0.4975953996
f 1//1 2//2 3//3 
f 3//3 2//2 4//4 
f 5//5 6//6 4//4 
f 4//4 6//6 3//3 
f 1//1 3//3 7//7 
f 7//7 3//3 6//6 
f 2//2 8//8 4//4 
f 4//4 8//8 5//5 
f 2//2 1//1 8//8 
f 8//8 1//1 7//7 
f 8//8 7//7 5//5 
f 5//5 7//7 6//6 
