v -53.86221313 8 -138.3628387
v -54.15533066 8 -137.7875519
v -54.19633865 8 -138.5330811
v -54.48945999 8 -137.9578094
v -54.48945999 8.166666985 -137.9578094
v -54.15533066 8.166666985 -137.7875519
v -54.19633865 8.166666985 -138.5330811
v -53.86221313 8.166666985 -138.3628387
vn 0.5209867358 -0.8264543414 -0.2134152204
vn 0.3062045574 -0.9075213075 0.287478447
vn -0.3062001467 -0.9075223207 -0.2874799669
vn -0.5209895372 -0.8264526129 0.2134149969
vn -0.6672341228 0.7338786125 -0.127361089
vn 0.07648902386 0.9465959668 0.3132179677
vn -0.0764939934 0.9465959668 -0.3132167459
vn 0.6672418118 0.7338719368 0.1273591667
f 1//1 2//2 3//3 
f 3//3 2//2 4//4 
f 5//5 4//4 6//6 
f 6//6 4//4 2//2 
f 7//7 3//3 5//5 
f 5//5 3//3 4//4 
f 1//1 8//8 2//2 
f 2//2 8//8 6//6 
f 8//8 1//1 7//7 
f 7//7 1//1 3//3 
f 8//8 7//7 6//6 
f 6//6 7//7 5//5 
