v -63.88462067 0.1666666716 -143.6565704
v -63.88462067 8.354166985 -143.6565704
v -63.92008972 0.1666666716 -143.5869598
v -63.92008972 8.354166985 -143.5869598
v -63.80871201 0.1666666716 -143.5301971
v -63.80871201 8.354166985 -143.5301971
v -63.77324295 0.1666666716 -143.5998077
v -63.77324295 8.354166985 -143.5998077
v -63.17924118 0.1666666716 -143.2971497
v -63.17924118 8.354166985 -143.2971497
v -63.27382278 0.1666666716 -143.1115265
v -63.27382278 8.354166985 -143.1115265
v -63.86782455 0.1666666716 -143.4141846
v -63.86782455 8.354166985 -143.4141846
v -63.83235931 0.1666666716 -143.4837952
v -63.83235931 8.354166985 -143.4837952
v -63.94373322 0.1666666716 -143.5405426
v -63.94373322 8.354166985 -143.5405426
v -63.97920227 0.1666666716 -143.470932
v -63.97920227 8.354166985 -143.470932
v -63.94030762 8.354166985 -143.6849365
v -64.03488922 8.354166985 -143.4993134
v -63.94030762 0.1666666716 -143.6849365
v -64.03488922 0.1666666716 -143.4993134
vn 0.8571888804 -0.004045934416 -0.5149862766
vn 0.9958783984 0.003543708473 0.09062919766
vn 0.9792284966 -0.01688612625 -0.2020554543
vn 0.6990819573 0.01290092152 -0.7149251699
vn 0.1674758643 -0.04649759457 -0.9847790599
vn -0.4113315046 0.0608198978 -0.9094544053
vn 0.2386773974 -0.0092899343 -0.9710544944
vn 0.4010884464 0.004762833938 -0.9160269499
vn 0.5859119296 -0.02513206564 -0.8099849224
vn 0.8564174175 0.04311478138 -0.5144806504
vn 0.08722405881 -0.02157221921 0.9959551096
vn -0.3109728992 0.01256895438 0.9503356814
vn -0.5052528381 -0.01746084914 0.8627946973
vn -0.6449555755 0.03404391184 0.7634613514
vn -0.9777765274 -0.05686478689 0.201790601
vn -0.6984269619 0.04347204044 0.7143598199
vn -0.1675406247 -0.009867376648 0.9858157635
vn 0.412130475 0.01291544829 0.9110332727
vn 0.6586449146 -0.003544020932 0.7524455786
vn 0.08716046065 0.004046021495 0.9961860776
vn -0.5304769874 0.0089991102 -0.8476516008
vn -0.9484751225 0.006133631337 -0.3167921603
vn -0.8137946725 -0.00518952962 -0.5811293125
vn -0.9975523949 -0.0106359357 0.06910962611
f 1//1 2//2 3//3 
f 3//3 2//2 4//4 
f 3//3 4//4 5//5 
f 5//5 4//4 6//6 
f 5//5 6//6 7//7 
f 7//7 6//6 8//8 
f 7//7 8//8 9//9 
f 9//9 8//8 10//10 
f 9//9 10//10 11//11 
f 11//11 10//10 12//12 
f 11//11 12//12 13//13 
f 13//13 12//12 14//14 
f 13//13 14//14 15//15 
f 15//15 14//14 16//16 
f 15//15 16//16 17//17 
f 17//17 16//16 18//18 
f 17//17 18//18 19//19 
f 19//19 18//18 20//20 
f 2//2 21//21 4//4 
f 4//4 21//21 22//22 
f 4//4 22//22 18//18 
f 18//18 22//22 20//20 
f 4//4 18//18 6//6 
f 6//6 18//18 16//16 
f 6//6 16//16 10//10 
f 10//10 16//16 14//14 
f 10//10 14//14 12//12 
f 10//10 8//8 6//6 
f 23//23 21//21 1//1 
f 1//1 21//21 2//2 
f 19//19 20//20 24//24 
f 24//24 20//20 22//22 
f 1//1 3//3 23//23 
f 23//23 3//3 24//24 
f 24//24 3//3 17//17 
f 24//24 17//17 19//19 
f 3//3 5//5 17//17 
f 17//17 5//5 15//15 
f 15//15 5//5 9//9 
f 15//15 9//9 13//13 
f 13//13 9//9 11//11 
f 5//5 7//7 9//9 
f 24//24 22//22 23//23 
f 23//23 22//22 21//21 
