v -61.06609726 8.223958015 -149.1882324
v -61.06609726 8.145833015 -149.1882324
v -60.75397873 8.223958015 -149.8007965
v -60.75397873 8.145833015 -149.8007965
v -60.95471954 8.223958015 -149.131485
v -60.64260101 8.223958015 -149.7440491
v -60.95471954 8.145833015 -149.131485
v -60.64260101 8.145833015 -149.7440491
v -60.36071777 8.145833015 -148.8288269
v -60.04859924 8.145833015 -149.441391
v -60.36071777 8.354166985 -148.8288269
v -60.04859924 8.354166985 -149.441391
v -60.95471954 8.354166985 -149.131485
v -60.64260101 8.354166985 -149.7440491
v -60.95471954 8.276041985 -149.131485
v -60.64260101 8.276041985 -149.7440491
v -61.06609726 8.276041985 -149.1882324
v -60.75397873 8.276041985 -149.8007965
v -61.06609726 8.354166985 -149.1882324
v -60.75397873 8.354166985 -149.8007965
v -60.80966568 8.145833015 -149.8291779
v -60.80966568 8.354166985 -149.8291779
v -61.12178421 8.145833015 -149.2165985
v -61.12178421 8.354166985 -149.2165985
vn 0.3694836795 -0.830096066 0.4176389575
vn 0.6792217493 -0.6242966652 0.3858905435
vn 0.5293045044 -0.8402023315 0.1178848967
vn 0.7261523604 -0.6231372952 0.2905214429
vn -0.6525585055 -0.5576402545 0.5130348802
vn -0.01783111691 -0.6041251421 -0.7966899276
vn -0.1539672911 -0.9869373441 0.04742105305
vn -0.07796189934 -0.9916256666 -0.1029585823
vn 0.1721203774 -0.936150074 0.3065903783
vn 0.4336377084 -0.863822639 -0.256454289
vn 0.0263449382 0.9600147605 0.278706938
vn 0.5965045094 0.7995542288 -0.06996715814
vn -0.2520117462 0.9677113295 -0.004987378605
vn -0.02632513456 0.9966857433 -0.07697088271
vn -0.4525513649 0.8347870111 0.313572824
vn 0.0359592028 0.318411082 -0.947270453
vn 0.5925893784 0.6124260426 0.52323246
vn 0.3169312179 0.9479577541 0.03050731309
vn 0.4498440623 0.8470113277 0.2832175195
vn 0.8456820846 0.3710705936 0.3835732043
vn -0.8247799277 -0.2868279219 -0.4873066843
vn -0.7009252906 0.5104109645 -0.4981810749
vn -0.9086205959 -0.2844980657 -0.3057277501
vn -0.9074799418 0.1480477303 -0.3931437135
f 1//1 2//2 3//3 
f 3//3 2//2 4//4 
f 1//1 3//3 5//5 
f 5//5 3//3 6//6 
f 7//7 5//5 8//8 
f 8//8 5//5 6//6 
f 7//7 8//8 9//9 
f 9//9 8//8 10//10 
f 11//11 9//9 12//12 
f 12//12 9//9 10//10 
f 13//13 11//11 14//14 
f 14//14 11//11 12//12 
f 15//15 13//13 16//16 
f 16//16 13//13 14//14 
f 17//17 15//15 18//18 
f 18//18 15//15 16//16 
f 19//19 17//17 20//20 
f 20//20 17//17 18//18 
f 4//4 21//21 3//3 
f 3//3 21//21 22//22 
f 3//3 22//22 18//18 
f 18//18 22//22 20//20 
f 3//3 18//18 6//6 
f 6//6 18//18 16//16 
f 6//6 16//16 10//10 
f 10//10 16//16 12//12 
f 12//12 16//16 14//14 
f 10//10 8//8 6//6 
f 23//23 21//21 2//2 
f 2//2 21//21 4//4 
f 24//24 19//19 22//22 
f 22//22 19//19 20//20 
f 2//2 1//1 23//23 
f 23//23 1//1 17//17 
f 23//23 17//17 24//24 
f 24//24 17//17 19//19 
f 17//17 1//1 15//15 
f 15//15 1//1 5//5 
f 15//15 5//5 11//11 
f 11//11 5//5 9//9 
f 9//9 5//5 7//7 
f 11//11 13//13 15//15 
f 23//23 24//24 21//21 
f 21//21 24//24 22//22 
