v -47.54404068 9.427083015 -151.6327209
v -47.54404068 0.375 -151.6327209
v -47.46070862 9.427083015 -151.6327209
v -47.46070862 0.375 -151.6327209
v -47.46070862 0.375 -152.2233429
v -47.46070862 9.427083015 -152.2233429
v -47.54404068 9.427083015 -152.2233429
v -47.54404068 0.375 -152.2233429
vn -0.9974788427 0.009182633832 0.07036816329
vn -0.9623785019 -0.008859505877 0.2715679109
vn 0.9623785019 0.008859505877 0.2715679109
vn 0.9974788427 -0.009182633832 0.07036816329
vn 0.9623785019 -0.008859505877 -0.2715679109
vn 0.9974788427 0.009182633832 -0.07036816329
vn -0.9623785019 0.008859505877 -0.2715679109
vn -0.9974788427 -0.009182633832 -0.07036816329
f 1//1 2//2 3//3 
f 3//3 2//2 4//4 
f 5//5 6//6 4//4 
f 4//4 6//6 3//3 
f 7//7 1//1 6//6 
f 6//6 1//1 3//3 
f 2//2 8//8 4//4 
f 4//4 8//8 5//5 
f 2//2 1//1 8//8 
f 8//8 1//1 7//7 
f 8//8 7//7 5//5 
f 5//5 7//7 6//6 
