v -62.50408554 8.276041985 -146.3201294
v -61.09482574 8.276041985 -149.0859528
v -62.42983627 8.276041985 -146.2822876
v -61.02057266 8.276041985 -149.0481262
v -63.91334915 8.276041985 -143.5542908
v -63.83909607 8.276041985 -143.5164642
v -64.30822754 8.276041985 -142.7792969
v -64.23397827 8.276041985 -142.7414703
v -64.30822754 9.338541985 -142.7792969
v -64.23397827 9.338541985 -142.7414703
v -63.91334915 9.338541985 -143.5542908
v -63.83909607 9.338541985 -143.5164642
v -62.50408554 9.338541985 -146.3201294
v -62.42983627 9.338541985 -146.2822876
v -61.09482574 9.338541985 -149.0859528
v -61.02057266 9.338541985 -149.0481262
v -60.62569809 8.276041985 -149.8231201
v -60.62569809 9.338541985 -149.8231201
v -60.69994736 9.338541985 -149.8609467
v -60.69994736 8.276041985 -149.8609467
vn -0.8882785439 -0.07819288224 -0.4526004195
vn -0.8882783055 -0.07819242775 -0.452600956
vn 0.8882785439 -0.07819288224 0.4526004195
vn 0.8882795572 -0.07819027454 0.45259884
vn -0.8882789016 -0.07819027454 -0.4526000917
vn 0.8882780671 -0.07819242775 0.452601403
vn -0.9576851726 -0.07679983974 -0.277382195
vn 0.8656104803 -0.07809992135 0.4945896268
vn -0.9110098481 0.03913905099 -0.410523057
vn 0.780446887 0.1522581875 0.6063992977
vn -0.889726162 0.05359490588 -0.45333758
vn 0.8852106929 0.1138670444 0.4510391355
vn -0.8882783055 0.0781930089 -0.4526007771
vn 0.8882783055 0.0781930089 0.4526007771
vn -0.8852113485 0.1138670966 -0.4510378838
vn 0.8897264004 0.05359487981 0.4533371627
vn 0.957686305 -0.07679978013 0.2773782313
vn 0.911011517 0.03913904354 0.4105194211
vn -0.7804489136 0.1522582918 -0.6063966751
vn -0.8656123281 -0.07809993625 -0.4945863485
f 1//1 2//2 3//3 
f 3//3 2//2 4//4 
f 5//5 1//1 6//6 
f 6//6 1//1 3//3 
f 7//7 5//5 8//8 
f 8//8 5//5 6//6 
f 9//9 7//7 10//10 
f 10//10 7//7 8//8 
f 9//9 10//10 11//11 
f 11//11 10//10 12//12 
f 11//11 12//12 13//13 
f 13//13 12//12 14//14 
f 13//13 14//14 15//15 
f 15//15 14//14 16//16 
f 17//17 18//18 4//4 
f 4//4 18//18 16//16 
f 4//4 16//16 3//3 
f 3//3 16//16 14//14 
f 3//3 14//14 6//6 
f 6//6 14//14 12//12 
f 6//6 12//12 8//8 
f 8//8 12//12 10//10 
f 15//15 16//16 19//19 
f 19//19 16//16 18//18 
f 2//2 20//20 4//4 
f 4//4 20//20 17//17 
f 19//19 20//20 15//15 
f 15//15 20//20 2//2 
f 15//15 2//2 13//13 
f 13//13 2//2 1//1 
f 13//13 1//1 11//11 
f 11//11 1//1 5//5 
f 11//11 5//5 9//9 
f 9//9 5//5 7//7 
f 20//20 19//19 17//17 
f 17//17 19//19 18//18 
