v -64.30822754 8.223958015 -142.7792969
v -64.30822754 0.3385416567 -142.7792969
v -64.23397827 8.223958015 -142.7414703
v -64.23397827 0.3385416567 -142.7414703
v -63.85092163 0.3385416567 -143.4932556
v -63.85092163 8.223958015 -143.4932556
v -63.9251709 8.223958015 -143.5310822
v -63.9251709 0.3385416567 -143.5310822
vn -0.9122992754 0.005277283024 -0.4094901979
vn -0.9620392919 -0.01036680117 -0.2727141082
vn 0.7859751582 0.02072978579 0.6179104447
vn 0.8674814105 -0.0105540622 0.4973575771
vn 0.9620392919 -0.01036680117 0.2727141082
vn 0.9122992754 0.005277283024 0.4094901979
vn -0.7859751582 0.02072978579 -0.6179104447
vn -0.8674814105 -0.0105540622 -0.4973575771
f 1//1 2//2 3//3 
f 3//3 2//2 4//4 
f 5//5 6//6 4//4 
f 4//4 6//6 3//3 
f 1//1 3//3 7//7 
f 7//7 3//3 6//6 
f 2//2 8//8 4//4 
f 4//4 8//8 5//5 
f 2//2 1//1 8//8 
f 8//8 1//1 7//7 
f 8//8 7//7 5//5 
f 5//5 7//7 6//6 
