v -47.85824585 0.1666666716 -151.0181732
v -47.85824585 9.635416985 -151.0181732
v -47.71070862 0.1666666716 -151.3077393
v -47.71070862 9.635416985 -151.3077393
v -47.71070862 0.1666666716 -151.6327209
v -47.71070862 9.635416985 -151.6327209
v -47.29404068 0.1666666716 -151.6327209
v -47.29404068 9.635416985 -151.6327209
v -47.4869957 9.635416985 -150.82901
v -47.29404068 9.635416985 -151.2077026
v -47.29404068 0.1666666716 -151.2077026
v -47.4869957 0.1666666716 -150.82901
vn -0.746602416 -0.01598604769 0.6650784016
vn -0.9949499965 0.01851958781 0.09864827245
vn -0.9483694434 -0.06923786551 -0.3095181286
vn -0.9855229855 0.06923816353 -0.1547597349
vn -0.8417201638 -0.01851975173 -0.5395962596
vn -0.3632801175 0.01598597132 -0.9315428138
vn 0.4540580213 -0.03525838256 -0.8902742267
vn 0.8973824978 0.03484164551 -0.4398757815
vn 0.0003912353714 0.03525871783 0.9993781447
vn 0.9502187371 0.0300602857 0.3101301193
vn 0.9874468446 -0.03006026149 0.1550649405
vn 0.5998734236 -0.03484185413 0.799335897
f 1//1 2//2 3//3 
f 3//3 2//2 4//4 
f 3//3 4//4 5//5 
f 5//5 4//4 6//6 
f 5//5 6//6 7//7 
f 7//7 6//6 8//8 
f 2//2 9//9 4//4 
f 4//4 9//9 10//10 
f 4//4 10//10 8//8 
f 8//8 6//6 4//4 
f 7//7 8//8 11//11 
f 11//11 8//8 10//10 
f 12//12 9//9 1//1 
f 1//1 9//9 2//2 
f 1//1 3//3 12//12 
f 12//12 3//3 11//11 
f 11//11 3//3 7//7 
f 7//7 3//3 5//5 
f 11//11 10//10 12//12 
f 12//12 10//10 9//9 
