v -51.321064 0.04166666791 -144.1761169
v -51.321064 0.2083333284 -144.1761169
v -49.48318863 0.04166666791 -147.7831573
v -49.48318863 0.2083333284 -147.7831573
v -51.31178284 0.04166666791 -144.171402
v -49.47390747 0.04166666791 -147.7784271
v -51.31178284 0 -144.171402
v -49.47390747 0 -147.7784271
v -49.14906311 0.2083333284 -147.612915
v -49.14906311 0 -147.612915
v -50.98693848 0 -144.0058746
v -50.98693848 0.2083333284 -144.0058746
vn -0.8904361129 -0.06233923882 -0.4508185387
vn -0.6060106754 0.7470322847 -0.2733016312
vn -0.8886890411 -0.06235976517 -0.4542499781
vn -0.1838729531 0.9759784937 -0.1168621331
vn -0.9744213223 -0.2213848829 -0.03862418234
vn -0.3420179784 -0.1808513701 -0.9221260548
vn -0.1058070809 -0.9934808016 -0.04243529961
vn -0.09884822369 -0.9935196638 -0.05610407889
vn 0.688700676 0.6677197814 0.2825627625
vn 0.4657394886 -0.8669956923 0.1772151589
vn 0.4297381639 -0.8679309487 0.2490401119
vn 0.2183164507 0.9625885487 0.1605029106
f 1//1 2//2 3//3 
f 3//3 2//2 4//4 
f 1//1 3//3 5//5 
f 5//5 3//3 6//6 
f 7//7 5//5 8//8 
f 8//8 5//5 6//6 
f 4//4 9//9 6//6 
f 6//6 9//9 10//10 
f 6//6 10//10 8//8 
f 6//6 3//3 4//4 
f 7//7 8//8 11//11 
f 11//11 8//8 10//10 
f 2//2 12//12 4//4 
f 4//4 12//12 9//9 
f 11//11 12//12 5//5 
f 5//5 12//12 2//2 
f 5//5 2//2 1//1 
f 5//5 7//7 11//11 
f 12//12 11//11 9//9 
f 9//9 11//11 10//10 
