v -54.59349823 7.916666508 -137.7536163
v -54.59349823 0.2083333284 -137.7536163
v -54.55566406 7.916666508 -137.8278656
v -54.55566406 0.2083333284 -137.8278656
v -63.42941666 0.2083333284 -142.3492737
v -63.42941666 7.916666508 -142.3492737
v -63.46725082 7.916666508 -142.2750244
v -63.46725082 0.2083333284 -142.2750244
vn -0.4502527118 0.005405252799 0.8928847909
vn -0.4389930069 -0.01080861036 0.8984254599
vn 0.4687265754 0.02161345072 -0.8830788732
vn 0.4576878846 -0.01081003435 -0.8890472054
vn 0.4389930069 -0.01080861036 -0.8984254599
vn 0.4502527118 0.005405252799 -0.8928847909
vn -0.4687265754 0.02161345072 0.8830788732
vn -0.4576878846 -0.01081003435 0.8890472054
f 1//1 2//2 3//3 
f 3//3 2//2 4//4 
f 5//5 6//6 4//4 
f 4//4 6//6 3//3 
f 1//1 3//3 7//7 
f 7//7 3//3 6//6 
f 2//2 8//8 4//4 
f 4//4 8//8 5//5 
f 2//2 1//1 8//8 
f 8//8 1//1 7//7 
f 8//8 7//7 5//5 
f 5//5 7//7 6//6 
