v -72.48593903 -1.665967703 -72.11105347
v -83.74629974 -0.69508183 -104.8134995
v -72.48593903 -1.353332043 -72.11105347
v -83.74629974 -0.3824462295 -104.8134995
v -73.39522552 -2.688229322 -37.38676071
v -72.29490662 -2.600661516 -40.38460922
v -73.39522552 -2.375593662 -37.38676071
v -71.57385254 -2.218491554 -42.76160431
v -71.3897934 -2.511058569 -43.44709015
v -70.68364716 -2.419792891 -46.56147385
v -70.37844086 -2.05587554 -48.30934143
v -70.17941284 -2.327244043 -49.71481323
v -69.82465363 -1.889875412 -53.95732117
v -69.78749847 -2.160736322 -55.37632751
v -69.91973877 -1.722664595 -59.6315918
v -70.0449295 -1.993564963 -61.0455513
v -70.25824738 -1.628899097 -62.80699921
v -70.94835663 -1.827919126 -66.64824677
v -70.80042267 -1.535831332 -65.95407104
v -71.54402161 -1.443848133 -69.0597229
v -77.21353149 -1.398105025 -70.4832077
v -77.21353149 -1.710740566 -70.4832077
v -75.7856369 -1.549881697 -65.36331177
v -75.7856369 -1.862517357 -65.36331177
v -74.97705841 -1.7051754 -60.10988998
v -74.97705841 -2.01781106 -60.10988998
v -74.79928589 -1.861779571 -54.7975769
v -74.79928589 -2.174415112 -54.7975769
v -75.25483704 -2.017469406 -49.50185013
v -75.25483704 -2.330105066 -49.50185013
v -76.33724976 -2.170032978 -44.29794312
v -76.33724976 -2.482668638 -44.29794312
v -78.03115082 -2.317302942 -39.25979233
v -78.03115082 -2.629938602 -39.25979233
v -88.78348541 -0.7131611109 -104.0847855
v -88.78348541 -0.4005255103 -104.0847855
v -77.72821045 -0.03857123107 -116.624649
v -82.1832428 0.03128986061 -118.8946075
v -88.78348541 -0.3458495438 -105.9409103
v -73.89481354 -2.41168189 -36.15024185
v -78.54445648 -2.354382515 -37.98931503
v -88.78348541 -0.6584851742 -105.9409103
v -82.1832428 -0.2813457549 -118.8946075
v -77.72821045 -0.3512068391 -116.624649
v -73.89481354 -2.724317551 -36.15024185
v -78.54445648 -2.667017937 -37.98931503
vn 0.04979064688 -0.9976900816 -0.04621063173
vn 0.04761908576 -0.9980754852 -0.0397208631
vn 0.08906265348 0.9960255623 -0.0009558557067
vn 0.03592580184 0.9989067316 0.02991037257
vn 0.06195747852 -0.9980643392 -0.005365794059
vn 0.05975921452 -0.9981706142 -0.009179976769
vn 0.0738665536 0.9957286119 0.05539237708
vn 0.06138594449 0.9970625639 0.04580342025
vn 0.04838169739 -0.9986906052 -0.01662272587
vn 0.1032355428 -0.9946236014 -0.008142270148
vn 0.07335063815 0.9964726567 0.04076715559
vn 0.09851100296 -0.9949475527 -0.01936512068
vn 0.09327241033 0.995061636 0.03394947201
vn 0.09207483381 -0.9953266382 -0.02910445817
vn 0.1002045944 0.9946635962 0.02456239425
vn 0.07252386957 -0.9966818094 -0.03695542365
vn 0.1055063084 0.9943255782 0.01360517275
vn 0.06083278358 -0.99723804 -0.0426107496
vn 0.03369616717 0.9991756082 0.02264175564
vn 0.10154704 0.9948298335 0.001323071308
vn -0.05910212547 0.9970152974 0.04967347533
vn -0.03698312864 -0.9991629124 -0.01748427935
vn -0.09694414586 0.9939113855 0.05236436799
vn -0.09923178703 -0.9950130582 -0.01010399405
vn -0.05932087451 0.9975826144 0.03619275242
vn -0.0646385327 -0.9976031184 -0.02469646931
vn -0.02848821133 0.999166131 0.02924924716
vn -0.02711607516 -0.9991622567 -0.03065166995
vn -0.05765309185 0.9980933666 0.02203978971
vn -0.07197456062 -0.9965529442 -0.04125370458
vn -0.1001918316 0.9949596524 0.004111370072
vn -0.100274235 -0.9932445884 -0.05839778855
vn -0.1063521281 0.9943001866 -0.00750535354
vn -0.07226672024 -0.9958657622 -0.0550349541
vn -0.1153257266 -0.9932854772 0.0091595985
vn -0.0615080148 0.9969204068 0.04864596948
vn 0.0775546208 0.9968634248 0.01576620527
vn -0.02335568517 0.9997166991 0.004585261922
vn -0.1045281887 0.9943059087 -0.0207277108
vn -0.00530593982 0.9967460632 0.08043082803
vn -0.1918881387 0.9633128047 0.1876363009
vn -0.06395494193 -0.9964681268 -0.0544158183
vn -0.04853207618 -0.9957038164 -0.07885757089
vn 0.1205704957 -0.9926850796 0.00625644112
vn -0.003670089645 -0.9999858737 -0.003838727716
vn -0.2076827437 -0.916975677 0.3406222165
f 1//1 2//2 3//3 
f 3//3 2//2 4//4 
f 5//5 6//6 7//7 
f 7//7 6//6 8//8 
f 8//8 6//6 9//9 
f 8//8 9//9 10//10 
f 8//8 10//10 11//11 
f 11//11 10//10 12//12 
f 11//11 12//12 13//13 
f 13//13 12//12 14//14 
f 13//13 14//14 15//15 
f 15//15 14//14 16//16 
f 15//15 16//16 17//17 
f 17//17 16//16 18//18 
f 17//17 18//18 19//19 
f 19//19 18//18 20//20 
f 20//20 18//18 1//1 
f 20//20 1//1 3//3 
f 21//21 22//22 23//23 
f 23//23 22//22 24//24 
f 23//23 24//24 25//25 
f 25//25 24//24 26//26 
f 25//25 26//26 27//27 
f 27//27 26//26 28//28 
f 27//27 28//28 29//29 
f 29//29 28//28 30//30 
f 29//29 30//30 31//31 
f 31//31 30//30 32//32 
f 31//31 32//32 33//33 
f 33//33 32//32 34//34 
f 22//22 21//21 35//35 
f 35//35 21//21 36//36 
f 37//37 38//38 4//4 
f 4//4 38//38 39//39 
f 4//4 39//39 36//36 
f 36//36 21//21 4//4 
f 4//4 21//21 3//3 
f 3//3 21//21 23//23 
f 3//3 23//23 25//25 
f 27//27 19//19 25//25 
f 25//25 19//19 20//20 
f 25//25 20//20 3//3 
f 29//29 8//8 27//27 
f 27//27 8//8 11//11 
f 27//27 11//11 13//13 
f 31//31 40//40 29//29 
f 29//29 40//40 7//7 
f 29//29 7//7 8//8 
f 31//31 33//33 40//40 
f 40//40 33//33 41//41 
f 13//13 15//15 27//27 
f 27//27 15//15 17//17 
f 27//27 17//17 19//19 
f 42//42 39//39 43//43 
f 43//43 39//39 38//38 
f 2//2 44//44 4//4 
f 4//4 44//44 37//37 
f 1//1 22//22 2//2 
f 2//2 22//22 35//35 
f 2//2 35//35 42//42 
f 18//18 26//26 1//1 
f 1//1 26//26 24//24 
f 1//1 24//24 22//22 
f 26//26 18//18 28//28 
f 28//28 18//18 16//16 
f 28//28 16//16 14//14 
f 14//14 12//12 28//28 
f 28//28 12//12 10//10 
f 28//28 10//10 9//9 
f 9//9 6//6 28//28 
f 28//28 6//6 30//30 
f 30//30 6//6 5//5 
f 30//30 5//5 45//45 
f 46//46 34//34 45//45 
f 45//45 34//34 32//32 
f 45//45 32//32 30//30 
f 42//42 43//43 2//2 
f 2//2 43//43 44//44 
f 44//44 43//43 37//37 
f 37//37 43//43 38//38 
f 46//46 41//41 34//34 
f 34//34 41//41 33//33 
f 45//45 40//40 46//46 
f 46//46 40//40 41//41 
f 35//35 36//36 42//42 
f 42//42 36//36 39//39 
f 45//45 5//5 40//40 
f 40//40 5//5 7//7 
