v -63.54802322 -0.1662570834 -142.5733795
v -54.48945999 0.04619507492 -137.9578094
v -63.54802322 0.0004459680349 -142.5733795
v -54.48945999 0.2128981352 -137.9578094
v -58.4400444 -0.1668846905 -152.5983429
v -58.4400444 -0.0001816329459 -152.5983429
v -47.68987274 0.2120626867 -151.3027344
v -47.68987274 0.1997068375 -152.5983429
v -47.68987274 0.03300378844 -152.5983429
v -47.68987274 0.04535963386 -151.3027344
vn -0.01734906994 -0.9998186827 0.007848571055
vn 0.02948288247 -0.9991346002 0.02933898196
vn -0.04660405219 0.9988691211 0.009411472827
vn -0.01313562691 0.9999136329 0.0003770832845
vn 0.0126368897 -0.9999201298 0.0001149879463
vn -0.03047969565 0.99913311 -0.02835556306
vn 0.009476044215 0.9999466538 0.004103573505
vn 0.0123021733 0.9905094504 -0.1368928403
vn 0.03308177739 -0.9701118469 -0.2403925657
vn 0.03455329314 -0.9992691875 0.01634502225
f 1//1 2//2 3//3 
f 3//3 2//2 4//4 
f 5//5 1//1 6//6 
f 6//6 1//1 3//3 
f 3//3 4//4 6//6 
f 6//6 4//4 7//7 
f 6//6 7//7 8//8 
f 5//5 6//6 9//9 
f 9//9 6//6 8//8 
f 10//10 7//7 2//2 
f 2//2 7//7 4//4 
f 9//9 10//10 5//5 
f 5//5 10//10 2//2 
f 5//5 2//2 1//1 
f 9//9 8//8 10//10 
f 10//10 8//8 7//7 
