v 4.056213379 37.25 -111.4350662
v 4.056213379 23.75 -111.4350662
v 3.452046633 37.25 -111.1496124
v 3.452046633 23.75 -111.1496124
v 4.056213379 23.75 -106.6595917
v 4.056213379 37.25 -106.6595917
v 3.452046633 23.75 -106.6595917
v 3.452046633 37.25 -106.6595917
vn 0.9976165891 0.02301095426 -0.06505068392
vn 0.9599536061 -0.04879423976 -0.2758771777
vn -0.9695868492 0.07944164425 -0.2314959168
vn -0.9968872666 -0.04461378604 -0.06500311941
vn 0.9970697165 -0.04328831658 0.06307188421
vn 0.9660310745 0.08388151228 0.244433865
vn -0.9647432566 -0.04317524657 0.259627223
vn -0.9974958897 0.02232051268 0.06711035967
f 1//1 2//2 3//3 
f 3//3 2//2 4//4 
f 2//2 1//1 5//5 
f 5//5 1//1 6//6 
f 2//2 5//5 4//4 
f 4//4 5//5 7//7 
f 1//1 3//3 6//6 
f 6//6 3//3 8//8 
f 7//7 8//8 4//4 
f 4//4 8//8 3//3 
f 5//5 6//6 7//7 
f 7//7 6//6 8//8 
