v -75.39426422 23.75 -83.24890137
v -75.39426422 23.75 -84.69779205
v -75.20014954 23.75 -83.22335052
v -75.20014954 23.75 -84.72335052
v -75.00603485 23.75 -83.24890137
v -75.00603485 23.75 -84.69779205
v -74.82514954 23.75 -83.32382965
v -74.82514954 23.75 -84.62286377
v -74.66981506 23.75 -83.44301605
v -74.66981506 23.75 -84.50367737
v -74.55062866 23.75 -83.59835052
v -74.55062866 23.75 -84.34835052
v -74.47570801 23.75 -83.77923584
v -74.47570801 23.75 -84.16746521
v -74.45014954 23.75 -83.97335052
v -75.57514954 23.75 -84.62286377
v -75.57514954 23.75 -83.32382965
v -75.73047638 23.75 -84.50367737
v -75.73047638 23.75 -83.44301605
v -75.84967041 23.75 -84.34835052
v -75.84967041 23.75 -83.59835052
v -75.92459106 23.75 -84.16746521
v -75.92459106 23.75 -83.77923584
v -75.95014954 23.75 -83.97335052
v -75.20014954 37.41666794 -83.22335052
v -75.39426422 37.41666794 -83.24890137
v -75.57514954 37.41666794 -83.32382965
v -75.73047638 37.41666794 -83.44301605
v -75.84967041 37.41666794 -83.59835052
v -75.92459106 37.41666794 -83.77923584
v -75.95014954 37.41666794 -83.97335052
v -75.92459106 37.41666794 -84.16746521
v -75.84967041 37.41666794 -84.34835052
v -75.73047638 37.41666794 -84.50367737
v -75.57514954 37.41666794 -84.62286377
v -75.39426422 37.41666794 -84.69779205
v -75.20014954 37.41666794 -84.72335052
v -75.00603485 37.41666794 -83.24890137
v -75.00603485 37.41666794 -84.69779205
v -74.82514954 37.41666794 -84.62286377
v -74.82514954 37.41666794 -83.32382965
v -74.66981506 37.41666794 -84.50367737
v -74.66981506 37.41666794 -83.44301605
v -74.55062866 37.41666794 -84.34835052
v -74.55062866 37.41666794 -83.59835052
v -74.47570801 37.41666794 -84.16746521
v -74.47570801 37.41666794 -83.77923584
v -74.45014954 37.41666794 -83.97335052
vn -0.2151865661 -0.09723696858 0.9717199802
vn -0.2992945313 -0.1041834578 -0.9484559298
vn 0.04357837141 -0.1077738106 0.9932198524
vn -0.04359135777 -0.107773751 -0.993219316
vn 0.29928267 -0.1041838676 0.9484596252
vn 0.2152114213 -0.09723642468 -0.9717145562
vn 0.5354221463 -0.08738804609 0.8400514722
vn 0.4602428973 -0.07529248297 -0.8845945597
vn 0.7360255122 -0.06176155433 0.6741304994
vn 0.6746434569 -0.04771706834 -0.736599803
vn 0.8866066933 -0.03412346914 0.4612636268
vn 0.8430733085 -0.02192071825 -0.5373517275
vn 0.9762741327 -0.01194933522 0.2162081748
vn 0.9536416531 -0.004896678496 -0.3009047508
vn 0.9990375042 -0.001245554537 -0.04384671152
vn -0.535433948 -0.08738873154 -0.8400439024
vn -0.4602482915 -0.07529110461 0.8845918775
vn -0.7360070944 -0.06176096201 -0.6741506457
vn -0.6746570468 -0.04771782085 0.7365873456
vn -0.8865985274 -0.03412539139 -0.4612792432
vn -0.8430690169 -0.02192064561 0.5373585224
vn -0.9762741327 -0.01194933522 -0.2162081748
vn -0.9536416531 -0.004896678496 0.3009047508
vn -0.9990375042 -0.001245554537 0.04384671152
vn -0.04357837141 0.1077738106 0.9932198524
vn -0.29928267 0.1041838676 0.9484596252
vn -0.535433948 0.08738873154 0.8400439024
vn -0.7360190749 0.06175977364 0.6741377115
vn -0.8866013288 0.03412499279 0.4612738788
vn -0.9762741327 0.01194933522 0.2162081748
vn -0.9990375042 0.001245554537 -0.04384671152
vn -0.9536416531 0.004896678496 -0.3009047508
vn -0.8430614471 0.02192112803 -0.5373703837
vn -0.6746498942 0.04771824181 -0.7365938425
vn -0.4602482915 0.07529110461 -0.8845918775
vn -0.2152114213 0.09723642468 -0.9717145562
vn 0.04359135777 0.107773751 -0.993219316
vn 0.2151865661 0.09723696858 0.9717199802
vn 0.2992945313 0.1041834578 -0.9484559298
vn 0.5354221463 0.08738804609 -0.8400514722
vn 0.4602428973 0.07529248297 0.8845945597
vn 0.7360135317 0.0617627427 -0.6741434932
vn 0.6746505499 0.04771664739 0.7365933061
vn 0.8866038918 0.03412386402 -0.4612689614
vn 0.8430808783 0.02192023583 0.5373399258
vn 0.9762741327 0.01194933522 -0.2162081748
vn 0.9536416531 0.004896678496 0.3009047508
vn 0.9990375042 0.001245554537 0.04384671152
f 1//1 2//2 3//3 
f 3//3 2//2 4//4 
f 3//3 4//4 5//5 
f 5//5 4//4 6//6 
f 5//5 6//6 7//7 
f 7//7 6//6 8//8 
f 7//7 8//8 9//9 
f 9//9 8//8 10//10 
f 9//9 10//10 11//11 
f 11//11 10//10 12//12 
f 11//11 12//12 13//13 
f 13//13 12//12 14//14 
f 13//13 14//14 15//15 
f 2//2 1//1 16//16 
f 16//16 1//1 17//17 
f 16//16 17//17 18//18 
f 18//18 17//17 19//19 
f 18//18 19//19 20//20 
f 20//20 19//19 21//21 
f 20//20 21//21 22//22 
f 22//22 21//21 23//23 
f 22//22 23//23 24//24 
f 3//3 25//25 1//1 
f 1//1 25//25 26//26 
f 1//1 26//26 17//17 
f 17//17 26//26 27//27 
f 17//17 27//27 19//19 
f 19//19 27//27 28//28 
f 19//19 28//28 21//21 
f 21//21 28//28 29//29 
f 21//21 29//29 23//23 
f 23//23 29//29 30//30 
f 23//23 30//30 24//24 
f 24//24 30//30 31//31 
f 24//24 31//31 22//22 
f 22//22 31//31 32//32 
f 22//22 32//32 20//20 
f 20//20 32//32 33//33 
f 20//20 33//33 18//18 
f 18//18 33//33 34//34 
f 18//18 34//34 16//16 
f 16//16 34//34 35//35 
f 16//16 35//35 2//2 
f 2//2 35//35 36//36 
f 2//2 36//36 4//4 
f 4//4 36//36 37//37 
f 38//38 39//39 25//25 
f 25//25 39//39 37//37 
f 25//25 37//37 26//26 
f 26//26 37//37 36//36 
f 26//26 36//36 27//27 
f 27//27 36//36 35//35 
f 27//27 35//35 28//28 
f 28//28 35//35 34//34 
f 28//28 34//34 29//29 
f 29//29 34//34 33//33 
f 29//29 33//33 30//30 
f 30//30 33//33 32//32 
f 30//30 32//32 31//31 
f 39//39 38//38 40//40 
f 40//40 38//38 41//41 
f 40//40 41//41 42//42 
f 42//42 41//41 43//43 
f 42//42 43//43 44//44 
f 44//44 43//43 45//45 
f 44//44 45//45 46//46 
f 46//46 45//45 47//47 
f 46//46 47//47 48//48 
f 4//4 37//37 6//6 
f 6//6 37//37 39//39 
f 6//6 39//39 8//8 
f 8//8 39//39 40//40 
f 8//8 40//40 10//10 
f 10//10 40//40 42//42 
f 10//10 42//42 12//12 
f 12//12 42//42 44//44 
f 12//12 44//44 14//14 
f 14//14 44//44 46//46 
f 14//14 46//46 15//15 
f 15//15 46//46 48//48 
f 15//15 48//48 13//13 
f 13//13 48//48 47//47 
f 13//13 47//47 11//11 
f 11//11 47//47 45//45 
f 11//11 45//45 9//9 
f 9//9 45//45 43//43 
f 9//9 43//43 7//7 
f 7//7 43//43 41//41 
f 7//7 41//41 5//5 
f 5//5 41//41 38//38 
f 5//5 38//38 3//3 
f 3//3 38//38 25//25 
