v -14.93891239 37.25 -14.79105663
v -14.93891239 23.75 -14.79105663
v -15.54307938 37.25 -14.79105663
v -15.54307938 23.75 -14.79105663
v -14.93891239 23.75 5.667276859
v -14.93891239 37.25 5.667276859
v -15.54307938 23.75 5.667276859
v -15.54307938 37.25 5.667276859
vn 0.9988914132 0.04470349848 -0.01474942267
vn 0.9972655773 -0.04463073611 -0.05890166387
vn -0.9972655773 0.04463073611 -0.05890166387
vn -0.9988914132 -0.04470349848 -0.01474942267
vn 0.9988914132 -0.04470349848 0.01474942267
vn 0.9972655773 0.04463073611 0.05890166387
vn -0.9972655773 -0.04463073611 0.05890166387
vn -0.9988914132 0.04470349848 0.01474942267
f 1//1 2//2 3//3 
f 3//3 2//2 4//4 
f 2//2 1//1 5//5 
f 5//5 1//1 6//6 
f 2//2 5//5 4//4 
f 4//4 5//5 7//7 
f 6//6 1//1 8//8 
f 8//8 1//1 3//3 
f 7//7 8//8 4//4 
f 4//4 8//8 3//3 
f 5//5 6//6 7//7 
f 7//7 6//6 8//8 
