v -27.08474541 37.25 -14.79105663
v -27.08474541 23.75 -14.79105663
v -27.08474541 37.25 -15.39522266
v -27.08474541 23.75 -15.39522266
v -29.16807938 23.75 -15.39522266
v -29.16807938 37.25 -15.39522266
v -29.16807938 37.25 -14.79105663
v -29.16807938 23.75 -14.79105663
vn 0.1434639394 0.02213950455 0.989407897
vn 0.5002204776 -0.07719454169 0.8624503016
vn 0.5002204776 0.07719454169 -0.8624503016
vn 0.1434639394 -0.02213950455 -0.989407897
vn -0.5002204776 -0.07719454169 -0.8624503016
vn -0.1434639394 0.02213950455 -0.989407897
vn -0.5002204776 0.07719454169 0.8624503016
vn -0.1434639394 -0.02213950455 0.989407897
f 1//1 2//2 3//3 
f 3//3 2//2 4//4 
f 5//5 6//6 4//4 
f 4//4 6//6 3//3 
f 1//1 3//3 7//7 
f 7//7 3//3 6//6 
f 8//8 5//5 2//2 
f 2//2 5//5 4//4 
f 2//2 1//1 8//8 
f 8//8 1//1 7//7 
f 8//8 7//7 5//5 
f 5//5 7//7 6//6 
