v 13.79724693 24.75 -124.623558
v 13.79724693 23.75 -124.623558
v 13.96391392 24.75 -124.623558
v 13.96391392 23.75 -124.623558
v 13.96391392 23.75 -128.5556335
v 13.96391392 24.75 -128.5556335
v 13.79724693 23.75 -128.6461334
v 13.79724693 24.75 -128.6461334
v 13.79724693 24.75 39.08477783
v 13.79724693 24.75 47.91810989
v 13.96391392 24.75 39.08477783
v 13.96391392 24.75 47.91810989
v 13.96391392 23.75 39.08477783
v 13.96391392 23.75 47.91810989
v 13.79724693 23.75 47.91810989
v 13.79724693 23.75 39.08477783
v 13.79724693 23.75 17.90769386
v 13.79724693 23.75 9.105610847
v 13.96391392 23.75 17.90769386
v 13.96391392 23.75 9.105610847
v 13.96391392 24.75 17.90769386
v 13.96391392 24.75 9.105610847
v 13.79724693 24.75 9.105610847
v 13.79724693 24.75 17.90769386
v 13.79724693 24.75 -73.51938629
v 13.79724693 24.75 -64.74855804
v 13.96391392 24.75 -73.51938629
v 13.96391392 24.75 -64.74855804
v 13.96391392 23.75 -73.51938629
v 13.96391392 23.75 -64.74855804
v 13.79724693 23.75 -64.74855804
v 13.79724693 23.75 -73.51938629
v 13.79724693 24.75 19.58864784
v 13.79724693 24.75 23.75144386
v 13.96391392 24.75 19.58864784
v 13.96391392 24.75 23.75144386
v 13.96391392 23.75 19.58864784
v 13.96391392 23.75 23.75144386
v 13.79724693 23.75 19.58864784
v 13.79724693 23.75 23.75144386
v 13.79724693 23.75 37.41810989
v 13.79724693 23.75 33.27227783
v 13.96391392 23.75 37.41810989
v 13.96391392 23.75 33.27227783
v 13.96391392 24.75 33.27227783
v 13.96391392 24.75 37.41810989
v 13.79724693 24.75 37.41810989
v 13.79724693 24.75 33.27227783
v 13.79724693 23.75 -75.08188629
v 13.79724693 23.75 -79.38010406
v 13.96391392 23.75 -75.08188629
v 13.96391392 23.75 -79.38010406
v 13.96391392 24.75 -75.08188629
v 13.96391392 24.75 -79.38010406
v 13.79724693 24.75 -75.08188629
v 13.79724693 24.75 -79.38010406
v 13.79724693 24.75 -92.97772217
v 13.79724693 24.75 -88.83188629
v 13.96391392 24.75 -92.97772217
v 13.96391392 24.75 -88.83188629
v 13.96391392 23.75 -88.83188629
v 13.96391392 23.75 -92.97772217
v 13.79724693 23.75 -88.83188629
v 13.79724693 23.75 -92.97772217
v 13.79724693 23.75 -94.69656372
v 13.79724693 23.75 -101.9568863
v 13.96391392 23.75 -94.69656372
v 13.96391392 23.75 -101.9568863
v 13.96391392 24.75 -94.69656372
v 13.96391392 24.75 -101.9568863
v 13.79724693 24.75 -101.9568863
v 13.79724693 24.75 -94.69656372
v 13.79724693 24.75 -122.9777222
v 13.79724693 24.75 -103.623558
v 13.96391392 24.75 -122.9777222
v 13.96391392 24.75 -103.623558
v 13.96391392 23.75 -122.9777222
v 13.96391392 23.75 -103.623558
v 13.79724693 23.75 -122.9777222
v 13.79724693 23.75 -103.623558
v 13.79724693 24.75 88.07445526
v 13.79724693 23.75 88.07445526
v 13.96391392 24.75 88.16494751
v 13.96391392 23.75 88.16494751
v 13.79724693 24.75 49.58477783
v 13.79724693 23.75 49.58477783
v 13.96391392 24.75 49.58477783
v 13.96391392 23.75 49.58477783
v 13.79724693 23.75 7.418110371
v 13.79724693 23.75 -7.352723122
v 13.96391392 23.75 7.418110371
v 13.96391392 23.75 -7.352723122
v 13.96391392 24.75 7.418110371
v 13.96391392 24.75 -7.352723122
v 13.79724693 24.75 7.418110371
v 13.79724693 24.75 -7.352723122
v 13.79724693 23.75 -9.248556137
v 13.79724693 23.75 -17.93605614
v 13.96391392 23.75 -9.248556137
v 13.96391392 23.75 -17.93605614
v 13.96391392 24.75 -9.248556137
v 13.96391392 24.75 -17.93605614
v 13.79724693 24.75 -9.248556137
v 13.79724693 24.75 -17.93605614
v 13.79724693 23.75 -37.66522217
v 13.79724693 23.75 -46.41522217
v 13.96391392 23.75 -37.66522217
v 13.96391392 23.75 -46.41522217
v 13.96391392 24.75 -37.66522217
v 13.96391392 24.75 -46.41522217
v 13.79724693 24.75 -46.41522217
v 13.79724693 24.75 -37.66522217
v 13.79724693 23.75 -48.24855804
v 13.79724693 23.75 -62.85272217
v 13.96391392 23.75 -48.24855804
v 13.96391392 23.75 -62.85272217
v 13.79724693 24.75 -62.85272217
v 13.79724693 24.75 -48.24855804
v 13.96391392 24.75 -48.24855804
v 13.96391392 24.75 -62.85272217
v 13.79724693 23.75 -19.66522217
v 13.79724693 23.75 -22.26939011
v 13.96391392 23.75 -19.66522217
v 13.96391392 23.75 -22.26939011
v 13.96391392 24.75 -19.66522217
v 13.96391392 24.75 -22.26939011
v 13.79724693 24.75 -19.66522217
v 13.79724693 24.75 -22.26939011
v 13.79724693 24.75 -35.93605804
v 13.79724693 24.75 -33.33189011
v 13.96391392 24.75 -35.93605804
v 13.96391392 24.75 -33.33189011
v 13.96391392 23.75 -33.33189011
v 13.96391392 23.75 -35.93605804
v 13.79724693 23.75 -33.33189011
v 13.79724693 23.75 -35.93605804
v 13.79724693 23.75 29.75144386
v 13.79724693 23.75 27.27227783
v 13.96391392 23.75 29.75144386
v 13.96391392 23.75 27.27227783
v 13.96391392 24.75 29.75144386
v 13.96391392 24.75 27.27227783
v 13.79724693 24.75 27.27227783
v 13.79724693 24.75 29.75144386
v 13.79724693 23.75 -25.83189011
v 13.79724693 23.75 -29.76939011
v 13.96391392 23.75 -25.83189011
v 13.96391392 23.75 -29.76939011
v 13.96391392 24.75 -25.83189011
v 13.96391392 24.75 -29.76939011
v 13.79724693 24.75 -29.76939011
v 13.79724693 24.75 -25.83189011
v 13.79724693 23.75 -82.94260406
v 13.79724693 23.75 -85.26938629
v 13.96391392 23.75 -82.94260406
v 13.96391392 23.75 -85.26938629
v 13.96391392 24.75 -82.94260406
v 13.96391392 24.75 -85.26938629
v 13.79724693 24.75 -82.94260406
v 13.79724693 24.75 -85.26938629
vn -0.9864861369 0.1625651717 0.02043649368
vn -0.9468183517 -0.312056452 0.07845886797
vn 0.9829633236 0.1638275236 0.08332878351
vn 0.9963235855 -0.0830271244 0.02111534216
vn 0.9489587545 -0.3058802187 -0.07690601051
vn 0.9861832857 0.1643641889 -0.02066265419
vn -0.9962500334 -0.08396551758 -0.02087357268
vn -0.9815314412 0.1712965369 -0.0851676017
vn -0.9857112765 0.1642855257 -0.03719672561
vn -0.986351192 0.1643921733 0.009305219166
vn 0.986351192 0.1643921733 -0.009305219166
vn 0.9857112765 0.1642855257 0.03719672561
vn 0.9857112765 -0.1642855257 -0.03719672561
vn 0.986351192 -0.1643921733 0.009305219166
vn -0.9857112765 -0.1642855257 0.03719672561
vn -0.986351192 -0.1643921733 -0.009305219166
vn -0.985706389 -0.1642847061 0.03732859716
vn -0.9863508344 -0.1643921286 -0.009338251315
vn 0.9863508344 -0.1643921286 0.009338251315
vn 0.985706389 -0.1642847061 -0.03732859716
vn 0.985706389 0.1642847061 0.03732859716
vn 0.9863508344 0.1643921286 -0.009338251315
vn -0.985706389 0.1642847061 -0.03732859716
vn -0.9863508344 0.1643921286 0.009338251315
vn -0.9857015014 0.1642839015 -0.03746143356
vn -0.9863505363 0.164392069 0.009371524677
vn 0.9863505363 0.164392069 -0.009371524677
vn 0.9857015014 0.1642839015 0.03746143356
vn 0.9857015014 -0.1642839015 -0.03746143356
vn 0.9863505363 -0.164392069 0.009371524677
vn -0.9857015014 -0.1642839015 0.03746143356
vn -0.9863505363 -0.164392069 -0.009371524677
vn -0.9833313227 0.1638888717 -0.07873979956
vn -0.9862016439 0.1643672436 0.01974241063
vn 0.9862016439 0.1643672436 -0.01974241063
vn 0.9833313227 0.1638888717 0.07873979956
vn 0.9833313227 -0.1638888717 -0.07873979956
vn 0.9862016439 -0.1643672436 0.01974241063
vn -0.9862016439 -0.1643672436 -0.01974241063
vn -0.9833313227 -0.1638888717 0.07873979956
vn -0.9833063483 -0.1638846993 0.07905998081
vn -0.9862000346 -0.1643669903 -0.01982316002
vn 0.9862000346 -0.1643669903 0.01982316002
vn 0.9833063483 -0.1638846993 -0.07905998081
vn 0.9862000346 0.1643669903 -0.01982316002
vn 0.9833063483 0.1638846993 0.07905998081
vn -0.9862000346 0.1643669903 0.01982316002
vn -0.9833063483 0.1638846993 -0.07905998081
vn -0.9835204482 -0.1639203876 0.07627364993
vn -0.9862135649 -0.1643692404 -0.01912062615
vn 0.9862135649 -0.1643692404 0.01912062615
vn 0.9835204482 -0.1639203876 -0.07627364993
vn 0.9835204482 0.1639203876 0.07627364993
vn 0.9862135649 0.1643692404 -0.01912062615
vn -0.9862135649 0.1643692404 0.01912062615
vn -0.9835204482 0.1639203876 -0.07627364993
vn -0.9833063483 0.1638846993 -0.0790599063
vn -0.9862000346 0.1643669903 0.0198231414
vn 0.9862000346 0.1643669903 -0.0198231414
vn 0.9833063483 0.1638846993 0.0790599063
vn 0.9862000346 -0.1643669903 0.0198231414
vn 0.9833063483 -0.1638846993 -0.0790599063
vn -0.9833063483 -0.1638846993 0.0790599063
vn -0.9862000346 -0.1643669903 -0.0198231414
vn -0.9853839278 -0.1642309725 0.04524068162
vn -0.986330688 -0.1643887609 -0.01132103708
vn 0.986330688 -0.1643887609 0.01132103708
vn 0.9853839278 -0.1642309725 -0.04524068162
vn 0.9853839278 0.1642309725 0.04524068162
vn 0.986330688 0.1643887609 -0.01132103708
vn -0.9853839278 0.1642309725 -0.04524068162
vn -0.986330688 0.1643887609 0.01132103708
vn -0.986251533 0.1643755734 -0.01698606834
vn -0.9863849878 0.1643978059 0.004247091245
vn 0.9863849878 0.1643978059 -0.004247091245
vn 0.986251533 0.1643755734 0.01698606834
vn 0.986251533 -0.1643755734 -0.01698606834
vn 0.9863849878 -0.1643978059 0.004247091245
vn -0.9863849878 -0.1643978059 -0.004247091245
vn -0.986251533 -0.1643755734 0.01698606834
vn -0.9863916039 0.1643989235 0.002133115893
vn -0.9489839673 -0.31521824 0.008180066943
vn 0.9862318039 0.1651470065 0.008561237715
vn 0.9965353608 -0.08314228058 0.002155052265
vn -0.9863578677 0.1643932909 -0.008542201482
vn -0.9965434074 -0.08304544538 -0.002157602925
vn 0.9864228964 0.1642113179 -0.002130681649
vn 0.9487624764 -0.3158838451 -0.008197339252
vn -0.9861496091 -0.1643585712 0.02225447632
vn -0.9863786101 -0.1643967479 -0.005564910825
vn 0.9863786101 -0.1643967479 0.005564910825
vn 0.9861496091 -0.1643585712 -0.02225447632
vn 0.9861496091 0.1643585712 0.02225447632
vn 0.9863786101 0.1643967479 -0.005564910825
vn -0.9863786101 0.1643967479 0.005564910825
vn -0.9861496091 0.1643585712 -0.02225447632
vn -0.9856881499 -0.1642816812 0.03782024235
vn -0.9863497019 -0.1643919349 -0.009461406618
vn 0.9863497019 -0.1643919349 0.009461406618
vn 0.9856881499 -0.1642816812 -0.03782024235
vn 0.9856881499 0.1642816812 0.03782024235
vn 0.9863497019 0.1643919349 -0.009461406618
vn -0.9863497019 0.1643919349 0.009461406618
vn -0.9856881499 0.1642816812 -0.03782024235
vn -0.9856982231 -0.1642833501 0.03755047917
vn -0.9863503575 -0.1643920392 -0.009393830784
vn 0.9863503575 -0.1643920392 0.009393830784
vn 0.9856982231 -0.1642833501 -0.03755047917
vn 0.9856982231 0.1642833501 0.03755047917
vn 0.9863503575 0.1643920392 -0.009393830784
vn -0.9856982231 0.1642833501 -0.03755047917
vn -0.9863503575 0.1643920392 0.009393830784
vn -0.9861439466 -0.1643576473 0.02250832506
vn -0.9863782525 -0.1643966883 -0.005628418177
vn 0.9863782525 -0.1643966883 0.005628418177
vn 0.9861439466 -0.1643576473 -0.02250832506
vn -0.9861439466 0.1643576473 -0.02250832506
vn -0.9863782525 0.1643966883 0.005628418177
vn 0.9861439466 0.1643576473 0.02250832506
vn 0.9863782525 0.1643966883 -0.005628418177
vn -0.9786244631 -0.1631043851 0.1252641082
vn -0.9859028459 -0.1643174589 -0.03154893592
vn 0.9859028459 -0.1643174589 0.03154893592
vn 0.9786244631 -0.1631043851 -0.1252641082
vn 0.9786244631 0.1631043851 0.1252641082
vn 0.9859028459 0.1643174589 -0.03154893592
vn -0.9859028459 0.1643174589 0.03154893592
vn -0.9786244631 0.1631043851 -0.1252641082
vn -0.9786244631 0.1631043851 -0.1252641082
vn -0.9859028459 0.1643174589 0.03154893592
vn 0.9859028459 0.1643174589 -0.03154893592
vn 0.9786244631 0.1631043851 0.1252641082
vn 0.9859028459 -0.1643174589 0.03154893592
vn 0.9786244631 -0.1631043851 -0.1252641082
vn -0.9786244631 -0.1631043851 0.1252641082
vn -0.9859028459 -0.1643174589 -0.03154893592
vn -0.9778316617 -0.1629722565 0.1314734519
vn -0.9858521223 -0.164308995 -0.0331379585
vn 0.9858521223 -0.164308995 0.0331379585
vn 0.9778316617 -0.1629722565 -0.1314734519
vn 0.9778316617 0.1629722565 0.1314734519
vn 0.9858521223 0.164308995 -0.0331379585
vn -0.9778316617 0.1629722565 -0.1314734519
vn -0.9858521223 0.164308995 0.0331379585
vn -0.9829726815 -0.1638291031 0.08321478218
vn -0.9861789942 -0.1643634737 -0.02087155357
vn 0.9861789942 -0.1643634737 0.02087155357
vn 0.9829726815 -0.1638291031 -0.08321478218
vn 0.9829726815 0.1638291031 0.08321478218
vn 0.9861789942 0.1643634737 -0.02087155357
vn -0.9829726815 0.1638291031 -0.08321478218
vn -0.9861789942 0.1643634737 0.02087155357
vn -0.9766904712 -0.1627820581 0.1399203241
vn -0.9857789278 -0.1642968059 -0.03530558199
vn 0.9857789278 -0.1642968059 0.03530558199
vn 0.9766904712 -0.1627820581 -0.1399203241
vn 0.9766904712 0.1627820581 0.1399203241
vn 0.9857789278 0.1642968059 -0.03530558199
vn -0.9857789278 0.1642968059 0.03530558199
vn -0.9766904712 0.1627820581 -0.1399203241
f 1//1 2//2 3//3 
f 3//3 2//2 4//4 
f 5//5 6//6 4//4 
f 4//4 6//6 3//3 
f 7//7 5//5 2//2 
f 2//2 5//5 4//4 
f 8//8 1//1 6//6 
f 6//6 1//1 3//3 
f 2//2 1//1 7//7 
f 7//7 1//1 8//8 
f 7//7 8//8 5//5 
f 5//5 8//8 6//6 
f 9//9 10//10 11//11 
f 11//11 10//10 12//12 
f 13//13 11//11 14//14 
f 14//14 11//11 12//12 
f 10//10 15//15 12//12 
f 12//12 15//15 14//14 
f 16//16 9//9 13//13 
f 13//13 9//9 11//11 
f 15//15 10//10 16//16 
f 16//16 10//10 9//9 
f 15//15 16//16 14//14 
f 14//14 16//16 13//13 
f 17//17 18//18 19//19 
f 19//19 18//18 20//20 
f 21//21 19//19 22//22 
f 22//22 19//19 20//20 
f 18//18 23//23 20//20 
f 20//20 23//23 22//22 
f 24//24 17//17 21//21 
f 21//21 17//17 19//19 
f 23//23 18//18 24//24 
f 24//24 18//18 17//17 
f 23//23 24//24 22//22 
f 22//22 24//24 21//21 
f 25//25 26//26 27//27 
f 27//27 26//26 28//28 
f 29//29 27//27 30//30 
f 30//30 27//27 28//28 
f 26//26 31//31 28//28 
f 28//28 31//31 30//30 
f 32//32 25//25 29//29 
f 29//29 25//25 27//27 
f 31//31 26//26 32//32 
f 32//32 26//26 25//25 
f 31//31 32//32 30//30 
f 30//30 32//32 29//29 
f 33//33 34//34 35//35 
f 35//35 34//34 36//36 
f 37//37 35//35 38//38 
f 38//38 35//35 36//36 
f 39//39 33//33 37//37 
f 37//37 33//33 35//35 
f 34//34 40//40 36//36 
f 36//36 40//40 38//38 
f 40//40 34//34 39//39 
f 39//39 34//34 33//33 
f 40//40 39//39 38//38 
f 38//38 39//39 37//37 
f 41//41 42//42 43//43 
f 43//43 42//42 44//44 
f 44//44 45//45 43//43 
f 43//43 45//45 46//46 
f 47//47 41//41 46//46 
f 46//46 41//41 43//43 
f 42//42 48//48 44//44 
f 44//44 48//48 45//45 
f 41//41 47//47 42//42 
f 42//42 47//47 48//48 
f 48//48 47//47 45//45 
f 45//45 47//47 46//46 
f 49//49 50//50 51//51 
f 51//51 50//50 52//52 
f 53//53 51//51 54//54 
f 54//54 51//51 52//52 
f 55//55 49//49 53//53 
f 53//53 49//49 51//51 
f 50//50 56//56 52//52 
f 52//52 56//56 54//54 
f 56//56 50//50 55//55 
f 55//55 50//50 49//49 
f 56//56 55//55 54//54 
f 54//54 55//55 53//53 
f 57//57 58//58 59//59 
f 59//59 58//58 60//60 
f 60//60 61//61 59//59 
f 59//59 61//61 62//62 
f 58//58 63//63 60//60 
f 60//60 63//63 61//61 
f 64//64 57//57 62//62 
f 62//62 57//57 59//59 
f 57//57 64//64 58//58 
f 58//58 64//64 63//63 
f 63//63 64//64 61//61 
f 61//61 64//64 62//62 
f 65//65 66//66 67//67 
f 67//67 66//66 68//68 
f 69//69 67//67 70//70 
f 70//70 67//67 68//68 
f 66//66 71//71 68//68 
f 68//68 71//71 70//70 
f 72//72 65//65 69//69 
f 69//69 65//65 67//67 
f 71//71 66//66 72//72 
f 72//72 66//66 65//65 
f 71//71 72//72 70//70 
f 70//70 72//72 69//69 
f 73//73 74//74 75//75 
f 75//75 74//74 76//76 
f 77//77 75//75 78//78 
f 78//78 75//75 76//76 
f 79//79 73//73 77//77 
f 77//77 73//73 75//75 
f 74//74 80//80 76//76 
f 76//76 80//80 78//78 
f 80//80 74//74 79//79 
f 79//79 74//74 73//73 
f 80//80 79//79 78//78 
f 78//78 79//79 77//77 
f 81//81 82//82 83//83 
f 83//83 82//82 84//84 
f 85//85 86//86 81//81 
f 81//81 86//86 82//82 
f 85//85 81//81 87//87 
f 87//87 81//81 83//83 
f 86//86 88//88 82//82 
f 82//82 88//88 84//84 
f 83//83 84//84 87//87 
f 87//87 84//84 88//88 
f 86//86 85//85 88//88 
f 88//88 85//85 87//87 
f 89//89 90//90 91//91 
f 91//91 90//90 92//92 
f 93//93 91//91 94//94 
f 94//94 91//91 92//92 
f 95//95 89//89 93//93 
f 93//93 89//89 91//91 
f 90//90 96//96 92//92 
f 92//92 96//96 94//94 
f 96//96 90//90 95//95 
f 95//95 90//90 89//89 
f 96//96 95//95 94//94 
f 94//94 95//95 93//93 
f 97//97 98//98 99//99 
f 99//99 98//98 100//100 
f 101//101 99//99 102//102 
f 102//102 99//99 100//100 
f 103//103 97//97 101//101 
f 101//101 97//97 99//99 
f 98//98 104//104 100//100 
f 100//100 104//104 102//102 
f 104//104 98//98 103//103 
f 103//103 98//98 97//97 
f 104//104 103//103 102//102 
f 102//102 103//103 101//101 
f 105//105 106//106 107//107 
f 107//107 106//106 108//108 
f 109//109 107//107 110//110 
f 110//110 107//107 108//108 
f 106//106 111//111 108//108 
f 108//108 111//111 110//110 
f 112//112 105//105 109//109 
f 109//109 105//105 107//107 
f 111//111 106//106 112//112 
f 112//112 106//106 105//105 
f 111//111 112//112 110//110 
f 110//110 112//112 109//109 
f 113//113 114//114 115//115 
f 115//115 114//114 116//116 
f 117//117 114//114 118//118 
f 118//118 114//114 113//113 
f 118//118 113//113 119//119 
f 119//119 113//113 115//115 
f 114//114 117//117 116//116 
f 116//116 117//117 120//120 
f 119//119 115//115 120//120 
f 120//120 115//115 116//116 
f 117//117 118//118 120//120 
f 120//120 118//118 119//119 
f 121//121 122//122 123//123 
f 123//123 122//122 124//124 
f 125//125 123//123 126//126 
f 126//126 123//123 124//124 
f 127//127 121//121 125//125 
f 125//125 121//121 123//123 
f 122//122 128//128 124//124 
f 124//124 128//128 126//126 
f 128//128 122//122 127//127 
f 127//127 122//122 121//121 
f 128//128 127//127 126//126 
f 126//126 127//127 125//125 
f 129//129 130//130 131//131 
f 131//131 130//130 132//132 
f 132//132 133//133 131//131 
f 131//131 133//133 134//134 
f 130//130 135//135 132//132 
f 132//132 135//135 133//133 
f 136//136 129//129 134//134 
f 134//134 129//129 131//131 
f 129//129 136//136 130//130 
f 130//130 136//136 135//135 
f 135//135 136//136 133//133 
f 133//133 136//136 134//134 
f 137//137 138//138 139//139 
f 139//139 138//138 140//140 
f 141//141 139//139 142//142 
f 142//142 139//139 140//140 
f 138//138 143//143 140//140 
f 140//140 143//143 142//142 
f 144//144 137//137 141//141 
f 141//141 137//137 139//139 
f 143//143 138//138 144//144 
f 144//144 138//138 137//137 
f 143//143 144//144 142//142 
f 142//142 144//144 141//141 
f 145//145 146//146 147//147 
f 147//147 146//146 148//148 
f 149//149 147//147 150//150 
f 150//150 147//147 148//148 
f 146//146 151//151 148//148 
f 148//148 151//151 150//150 
f 152//152 145//145 149//149 
f 149//149 145//145 147//147 
f 151//151 146//146 152//152 
f 152//152 146//146 145//145 
f 151//151 152//152 150//150 
f 150//150 152//152 149//149 
f 153//153 154//154 155//155 
f 155//155 154//154 156//156 
f 157//157 155//155 158//158 
f 158//158 155//155 156//156 
f 159//159 153//153 157//157 
f 157//157 153//153 155//155 
f 154//154 160//160 156//156 
f 156//156 160//160 158//158 
f 160//160 154//154 159//159 
f 159//159 154//154 153//153 
f 160//160 159//159 158//158 
f 158//158 159//159 157//157 
