v -87.46816254 32.25259399 -121.1649323
v -87.46816254 30.25259399 -121.1649323
v -87.46138763 32.25259399 -121.1628799
v -87.46138763 30.25259399 -121.1628799
v -86.85094452 32.25259399 -123.176239
v -86.85094452 30.25259399 -123.176239
v -86.85772705 32.25259399 -123.178299
v -86.85772705 30.25259399 -123.178299
v -88.40616608 32.25259399 -120.7924118
v -88.40616608 30.25259399 -120.7924118
v -87.04418945 30.25259399 -123.4654388
v -87.04418945 32.25259399 -123.4654388
vn 0.3100528121 0.5353053212 0.7856942415
vn 0.2247659713 -0.7826008201 0.5805310011
vn 0.9549821615 0.007083347067 0.2965787053
vn 0.9564847946 -0.003541819751 0.2917606831
vn 0.9574662447 0.001772104762 0.2885399163
vn 0.9589076638 -0.003544108942 0.283696115
vn 0.6369633675 0.6347593069 -0.4374451339
vn 0.7697600722 -0.387660861 -0.5071375966
vn -0.9247490168 0.1859288663 -0.3320687711
vn -0.8638382554 -0.4480397403 0.2303124368
vn -0.846811235 -0.2134758979 -0.4871742427
vn -0.6979917884 0.4241404533 -0.5769855976
f 1//1 2//2 3//3 
f 3//3 2//2 4//4 
f 3//3 4//4 5//5 
f 5//5 4//4 6//6 
f 5//5 6//6 7//7 
f 7//7 6//6 8//8 
f 9//9 10//10 1//1 
f 1//1 10//10 2//2 
f 10//10 11//11 2//2 
f 2//2 11//11 8//8 
f 2//2 8//8 4//4 
f 4//4 8//8 6//6 
f 12//12 11//11 9//9 
f 9//9 11//11 10//10 
f 9//9 1//1 12//12 
f 12//12 1//1 7//7 
f 7//7 1//1 3//3 
f 7//7 3//3 5//5 
f 7//7 8//8 12//12 
f 12//12 8//8 11//11 
