v -14.75014877 37.25 -27.07751465
v -14.75014877 23.75 -27.07751465
v -14.14598179 37.25 -27.07751465
v -14.14598179 23.75 -27.07751465
v -14.75014877 23.75 -28.40251541
v -14.75014877 37.25 -28.40251541
v -14.14598179 23.75 -28.40251541
v -14.14598179 37.25 -28.40251541
vn -0.9740552306 0.04359200224 0.2220723331
vn -0.7384841442 -0.03304946423 0.6734603643
vn 0.7384841442 0.03304946423 0.6734603643
vn 0.9740552306 -0.04359200224 0.2220723331
vn -0.9740552306 -0.04359200224 -0.2220723331
vn -0.7384841442 0.03304946423 -0.6734603643
vn 0.7384841442 -0.03304946423 -0.6734603643
vn 0.9740552306 0.04359200224 -0.2220723331
f 1//1 2//2 3//3 
f 3//3 2//2 4//4 
f 2//2 1//1 5//5 
f 5//5 1//1 6//6 
f 2//2 5//5 4//4 
f 4//4 5//5 7//7 
f 6//6 1//1 8//8 
f 8//8 1//1 3//3 
f 7//7 8//8 4//4 
f 4//4 8//8 3//3 
f 5//5 6//6 7//7 
f 7//7 6//6 8//8 
