v -58.98308182 24.08333397 -128.0110474
v -58.98308182 23.75 -128.0110474
v -59.77465439 24.08333397 -126.5443497
v -59.77465439 23.75 -126.5443497
v -59.79444122 24.10416603 -126.5076752
v -59.79444122 26.64583397 -126.5076752
v -58.98308182 24.10416603 -128.0110474
v -58.98308182 26.64583397 -128.0110474
v -60.46811295 24.08333397 -128.8125
v -60.46811295 23.75 -128.8125
v -61.48114014 24.10416603 -127.417984
v -61.48114014 26.64583397 -127.417984
v -58.95485306 23.75 -128.0194855
v -59.78600311 23.75 -126.4794464
v -61.28936386 23.75 -127.2908096
v -61.2596817 23.75 -127.3458099
v -60.45821762 23.75 -128.8308411
v -60.67822266 26.64583397 -128.9495697
v -60.66978455 26.64583397 -128.9213409
v -58.95485306 26.64583397 -128.0194855
v -60.66978455 24.10416603 -128.9213409
v -59.78600311 26.64583397 -126.4794464
v -61.28936386 24.08333397 -127.2908096
v -61.2596817 24.08333397 -127.3458099
v -61.5093689 26.64583397 -127.4095459
v -60.45821762 24.08333397 -128.8308411
v -60.9296608 26.39583397 -128.6591492
v -60.9296608 26.4375 -128.6591492
v -60.89299393 26.39583397 -128.6393585
v -60.89299393 26.4375 -128.6393585
v -61.40460205 26.39583397 -127.779129
v -61.36793518 26.39583397 -127.7593384
v -61.40460205 26.4375 -127.779129
v -61.36793518 26.4375 -127.7593384
v -60.71488953 24.08333397 -128.9693604
v -60.71488953 26.64583397 -128.9693604
v -60.67822266 24.08333397 -128.9495697
v -61.5093689 24.08333397 -127.4095459
v -61.54603577 24.08333397 -127.4293365
v -61.48114014 24.08333397 -127.417984
v -60.66978455 24.08333397 -128.9213409
v -61.54603577 26.64583397 -127.4293365
vn -0.1775401086 -0.9760141373 0.1259997785
vn -0.9960887432 -0.08439517766 -0.02616713196
vn -0.2310371101 -0.9143673778 -0.3324968517
vn 0.03530057892 -0.2203482687 -0.9747822881
vn 0.07226483524 0.2934502065 -0.9532390833
vn -0.5351013541 0.01168116461 -0.8447070718
vn -0.8353879452 0.5494913459 0.01364587061
vn -0.7919864655 0.01049729623 0.61044842
vn -0.08600741625 -0.9848831296 0.1503595263
vn -0.4801262617 -0.03124429099 0.8766427636
vn 0.8353869319 0.549492836 -0.01364672091
vn 0.7918021679 0.02408119664 -0.6103026867
vn 0.9450105429 -0.01425313205 -0.3267290592
vn 0.5458561182 -0.01241278648 0.8377869725
vn -0.474924624 -0.3490490615 0.8078436255
vn 0.401674211 -0.1837977171 -0.8971489668
vn 0.4498763978 -0.1232716367 -0.8845424652
vn 0.4749235213 0.007228598464 -0.8799973726
vn 0.5350398421 0.01891447604 0.8446151018
vn 0.9604581594 0.008245149627 -0.2783021629
vn -0.07226138562 0.2934470773 0.953240335
vn -0.02444062196 0.01009347569 0.9996502995
vn -0.4782210588 -0.00174769829 0.8782377243
vn 0.07925011218 -0.9849531054 -0.1535799354
vn -0.4748992026 0.01389367785 0.8799304962
vn 0.4743902087 -0.0008925564471 -0.8803142309
vn -0.6151969433 -0.7070375681 -0.3487558067
vn -0.3755881488 0.8938109279 -0.2450215071
vn -0.8794441223 -0.01266854629 -0.4758334756
vn -0.8615244627 0.1829202771 -0.4736199081
vn -0.6491212845 -0.7058885098 -0.2834836543
vn -0.8800728917 -0.01135961991 -0.4747027159
vn -0.7958208323 0.4471430182 -0.4083286822
vn -0.8740845919 0.1402006745 -0.4651020765
vn -0.8728975654 -0.01505710185 -0.4876711369
vn -0.7992747426 0.1374325007 -0.5850403309
vn 0.4749208689 -0.007114037871 -0.8799997568
vn -0.4749316871 -0.008129617199 0.8799850941
vn -0.8986102343 -0.04325557128 -0.4366103411
vn 0 -1 0
vn 0 -1 0
vn -0.9118772745 0.08166982979 -0.402256012
f 1//1 2//2 3//3 
f 3//3 2//2 4//4 
f 5//5 6//6 7//7 
f 7//7 6//6 8//8 
f 9//9 10//10 1//1 
f 1//1 10//10 2//2 
f 11//11 12//12 5//5 
f 5//5 12//12 6//6 
f 13//13 14//14 4//4 
f 4//4 14//14 15//15 
f 4//4 15//15 16//16 
f 4//4 2//2 13//13 
f 13//13 2//2 17//17 
f 17//17 2//2 10//10 
f 18//18 19//19 20//20 
f 20//20 19//19 8//8 
f 7//7 8//8 21//21 
f 21//21 8//8 19//19 
f 20//20 8//8 22//22 
f 22//22 8//8 6//6 
f 13//13 20//20 14//14 
f 14//14 20//20 22//22 
f 21//21 19//19 11//11 
f 11//11 19//19 12//12 
f 15//15 23//23 16//16 
f 16//16 23//23 24//24 
f 12//12 25//25 6//6 
f 6//6 25//25 22//22 
f 26//26 17//17 9//9 
f 9//9 17//17 10//10 
f 3//3 4//4 24//24 
f 24//24 4//4 16//16 
f 5//5 7//7 11//11 
f 11//11 7//7 21//21 
f 27//27 28//28 29//29 
f 29//29 28//28 30//30 
f 31//31 27//27 32//32 
f 32//32 27//27 29//29 
f 33//33 34//34 28//28 
f 28//28 34//34 30//30 
f 28//28 27//27 33//33 
f 33//33 27//27 31//31 
f 33//33 31//31 34//34 
f 34//34 31//31 32//32 
f 35//35 36//36 37//37 
f 37//37 36//36 18//18 
f 37//37 18//18 26//26 
f 26//26 18//18 20//20 
f 26//26 20//20 13//13 
f 13//13 17//17 26//26 
f 38//38 39//39 40//40 
f 40//40 39//39 41//41 
f 40//40 41//41 24//24 
f 24//24 41//41 9//9 
f 24//24 9//9 1//1 
f 39//39 35//35 41//41 
f 41//41 35//35 37//37 
f 37//37 26//26 41//41 
f 41//41 26//26 9//9 
f 1//1 3//3 24//24 
f 24//24 23//23 40//40 
f 40//40 23//23 38//38 
f 30//30 36//36 29//29 
f 29//29 36//36 35//35 
f 29//29 35//35 32//32 
f 32//32 35//35 39//39 
f 32//32 39//39 42//42 
f 30//30 34//34 36//36 
f 36//36 34//34 42//42 
f 42//42 34//34 32//32 
f 18//18 36//36 19//19 
f 19//19 36//36 12//12 
f 12//12 36//36 42//42 
f 12//12 42//42 25//25 
f 42//42 39//39 25//25 
f 25//25 39//39 38//38 
f 25//25 38//38 23//23 
f 15//15 14//14 23//23 
f 23//23 14//14 22//22 
f 23//23 22//22 25//25 
