v -62.00152588 30.20833397 -124.3321381
v -60.77459335 30.20833397 -126.6055222
v -61.29567719 30.20833397 -123.9511948
v -60.06874466 30.20833397 -126.2245789
v -62.04735947 28.79166603 -124.3568802
v -61.29567719 28.79166603 -123.9511948
v -60.82042694 28.79166603 -126.6302567
v -60.06874466 28.79166603 -126.2245789
v -61.25202942 30.25 -123.8566208
v -61.25202942 28.75 -123.8566208
v -59.96572495 30.25 -126.2399979
v -59.96572495 28.75 -126.2399979
v -62.04735947 28.91666603 -124.3568802
v -60.82042694 28.91666603 -126.6302567
v -60.96447754 28.8125 -126.4949341
v -62.01330948 28.8125 -124.5515671
v -61.00114822 28.8125 -126.5147247
v -62.04997635 28.8125 -124.5713577
v -61.00114822 28.85416603 -126.5147247
v -62.04997635 28.85416603 -124.5713577
v -60.96447754 28.85416603 -126.4949341
v -62.01330948 28.85416603 -124.5515671
v -60.87542725 28.91666603 -126.6599426
v -62.10235977 28.91666603 -124.3865585
v -62.13204575 28.75 -124.3315582
v -60.84574509 28.75 -126.7149429
v -62.13204575 30.25 -124.3315582
v -60.84574509 30.25 -126.7149429
v -62.10235977 30.20833397 -124.3865585
v -60.87542725 30.20833397 -126.6599426
v -62.03819275 30.20833397 -124.3519287
v -60.81126022 30.20833397 -126.6253052
v -60.81126022 28.91666603 -126.6253052
v -60.77459335 28.91666603 -126.6055222
v -62.03819275 28.91666603 -124.3519287
v -62.00152588 28.91666603 -124.3321381
vn 0.8440121412 -0.5100879073 0.1656921059
vn 0.6790880561 -0.5230050683 0.5150777698
vn -0.6227031946 -0.4770375788 -0.6202224493
vn -0.8983525634 -0.4377429783 0.0366577208
vn 0.270267576 0.9585749507 0.08994197845
vn -0.4483543634 0.7522794008 -0.4827567339
vn 0.05204400793 0.997007072 0.0571689941
vn -0.9078649879 0.2848975956 -0.307594806
vn 0.2903513014 0.7314199805 0.6170258522
vn 0.6516194344 -0.5482697487 0.5242063999
vn 0.9042746425 0.3114876151 0.2919979095
vn 0.8725007772 -0.4726157784 -0.1240029186
vn 0.7568467259 0.6530181766 -0.02739045769
vn 0.6909166574 0.233258307 0.6842694879
vn -0.7786050439 -0.4479795098 -0.4394184053
vn -0.7823444009 -0.4624100924 -0.4172698557
vn -0.6190648079 -0.7071126103 -0.3416876495
vn -0.6347071528 -0.7068619728 -0.312238723
vn -0.3854661286 0.8943107128 -0.227209568
vn -0.7910874486 0.4472048879 -0.4173589051
vn -0.7394376397 0.5335829854 -0.4105133414
vn -0.7595445514 0.5137748122 -0.3989078701
vn -0.8031317592 0.5233458877 -0.2847603858
vn -0.7046238184 0.3825426996 -0.5976339579
vn -0.416869998 -0.6682565212 0.6161595583
vn 0.05787271634 -0.960806191 -0.2711128592
vn -0.3104445636 0.8710489869 0.3806544244
vn 0.1736250818 0.8730165362 -0.4557372928
vn -0.4596191347 -0.4756974876 -0.7499747872
vn -0.5456181765 -0.8260288239 0.1413407326
vn -0.8708571196 -0.05635487288 -0.4882949591
vn -0.8934519887 -0.05633414909 -0.4456119835
vn -0.8809760213 -0.03223993629 -0.4720612168
vn 0.4577120841 -0.02660645731 0.8887022734
vn -0.8767033219 -0.03224086389 -0.4799498022
vn 0.9859412909 -0.03050365672 0.164284274
f 1//1 2//2 3//3 
f 3//3 2//2 4//4 
f 5//5 6//6 7//7 
f 7//7 6//6 8//8 
f 4//4 8//8 3//3 
f 3//3 8//8 6//6 
f 9//9 10//10 11//11 
f 11//11 10//10 12//12 
f 13//13 5//5 14//14 
f 14//14 5//5 7//7 
f 15//15 16//16 17//17 
f 17//17 16//16 18//18 
f 19//19 17//17 20//20 
f 20//20 17//17 18//18 
f 21//21 15//15 19//19 
f 19//19 15//15 17//17 
f 16//16 22//22 18//18 
f 18//18 22//22 20//20 
f 21//21 19//19 22//22 
f 22//22 19//19 20//20 
f 14//14 23//23 13//13 
f 13//13 23//23 24//24 
f 25//25 26//26 10//10 
f 10//10 26//26 12//12 
f 27//27 25//25 9//9 
f 9//9 25//25 10//10 
f 26//26 28//28 12//12 
f 12//12 28//28 11//11 
f 29//29 30//30 31//31 
f 31//31 30//30 32//32 
f 33//33 32//32 14//14 
f 14//14 32//32 30//30 
f 14//14 30//30 23//23 
f 14//14 7//7 33//33 
f 33//33 7//7 34//34 
f 34//34 7//7 8//8 
f 34//34 8//8 4//4 
f 4//4 2//2 34//34 
f 24//24 29//29 13//13 
f 13//13 29//29 31//31 
f 13//13 31//31 35//35 
f 13//13 35//35 5//5 
f 5//5 35//35 36//36 
f 5//5 36//36 6//6 
f 6//6 36//36 3//3 
f 3//3 36//36 1//1 
f 15//15 26//26 16//16 
f 16//16 26//26 25//25 
f 16//16 25//25 24//24 
f 24//24 25//25 27//27 
f 24//24 27//27 29//29 
f 29//29 27//27 28//28 
f 29//29 28//28 30//30 
f 30//30 28//28 23//23 
f 23//23 28//28 26//26 
f 23//23 26//26 15//15 
f 15//15 21//21 23//23 
f 23//23 21//21 22//22 
f 23//23 22//22 24//24 
f 24//24 22//22 16//16 
f 11//11 28//28 9//9 
f 9//9 28//28 27//27 
f 34//34 36//36 33//33 
f 33//33 36//36 35//35 
f 32//32 33//33 31//31 
f 31//31 33//33 35//35 
f 1//1 36//36 2//2 
f 2//2 36//36 34//34 
