v -56.38740158 0.6666666865 -91.57161713
v -56.36146927 0.6666666865 -92.00324249
v -56.32500076 0.6666666865 -91.57512665
v -56.2999382 0.6666666865 -91.99228668
v -56.23681259 0.6666666865 -92.41729736
v -56.17946243 0.6666666865 -92.39246368
v -56.02013779 0.6666666865 -92.79150391
v -55.970047 0.6666666865 -92.75411987
v -55.72309113 0.6666666865 -93.10573578
v -55.6829567 0.6666666865 -93.05782318
v -55.36164856 0.6666666865 -93.34309387
v -55.33363342 0.6666666865 -93.28722382
v -54.95525742 0.6666666865 -93.49081421
v -54.94086075 0.6666666865 -93.42999268
v -54.52576447 0.6666666865 -93.54095459
v -54.52576447 0.6666666865 -93.47845459
v -54.52576447 11.14583302 -93.54095459
v -54.52576447 11.14583302 -93.47845459
v -56.38740158 11.14583302 -91.57161713
v -56.36146927 11.14583302 -92.00324249
v -56.23681259 11.14583302 -92.41729736
v -56.02013779 11.14583302 -92.79150391
v -55.72309113 11.14583302 -93.10573578
v -55.36164856 11.14583302 -93.34309387
v -54.95525742 11.14583302 -93.49081421
v -56.32500076 11.14583302 -91.57512665
v -56.2999382 11.14583302 -91.99228668
v -56.17946243 11.14583302 -92.39246368
v -55.970047 11.14583302 -92.75411987
v -55.6829567 11.14583302 -93.05782318
v -55.33363342 11.14583302 -93.28722382
v -54.94086075 11.14583302 -93.42999268
v -56.38740158 18.66666603 -91.57161713
v -56.32500076 18.66666603 -91.57512665
v -56.36146927 18.66666603 -92.00324249
v -56.2999382 18.66666603 -91.99228668
v -56.23681259 18.66666603 -92.41729736
v -56.17946243 18.66666603 -92.39246368
v -56.02013779 18.66666603 -92.79150391
v -55.970047 18.66666603 -92.75411987
v -55.72309113 18.66666603 -93.10573578
v -55.6829567 18.66666603 -93.05782318
v -55.36164856 18.66666603 -93.34309387
v -55.33363342 18.66666603 -93.28722382
v -54.95525742 18.66666603 -93.49081421
v -54.94086075 18.66666603 -93.42999268
v -54.52576447 18.66666603 -93.54095459
v -54.52576447 18.66666603 -93.47845459
v -54.52576447 11.1875 -93.47845459
v -54.52576447 11.1875 -93.54095459
v -56.32500076 11.1875 -91.57512665
v -56.2999382 11.1875 -91.99228668
v -56.17946243 11.1875 -92.39246368
v -55.970047 11.1875 -92.75411987
v -55.6829567 11.1875 -93.05782318
v -55.33363342 11.1875 -93.28722382
v -54.94086075 11.1875 -93.42999268
v -56.38740158 11.1875 -91.57161713
v -54.95525742 11.1875 -93.49081421
v -55.36164856 11.1875 -93.34309387
v -55.72309113 11.1875 -93.10573578
v -56.02013779 11.1875 -92.79150391
v -56.23681259 11.1875 -92.41729736
v -56.36146927 11.1875 -92.00324249
vn -0.9739285707 -0.005875450559 0.226778686
vn -0.9905681014 -0.005892938003 -0.1368947029
vn 0.9910835028 -0.005958592519 0.1331089288
vn 0.9769353271 -0.006028285716 0.2134501636
vn -0.9324015975 -0.005892723333 -0.3613758683
vn 0.901496768 -0.006028350443 0.432743907
vn -0.8240899444 -0.00589307351 -0.5664283037
vn 0.777577281 -0.006028715987 0.6287584901
vn -0.6714513302 -0.005893216468 -0.7410252094
vn 0.6118376255 -0.006028586067 0.7909603715
vn -0.4827047884 -0.005893059075 -0.8757632971
vn 0.4131895006 -0.006028578617 0.9106251001
vn -0.2680024803 -0.005893196445 -0.9634001851
vn 0.1923302859 -0.006028630305 0.9813117385
vn -0.04393974692 -0.00585859688 -0.9990170002
vn 0.3855660558 -0.005502965301 0.9226638079
vn 0.1716974825 0.01155375317 -0.9850819707
vn 0.1885858178 0.002928585513 0.9820523262
vn -0.9999204874 0.002979190322 0.01225410122
vn -0.976935029 0.005892896559 -0.2134553045
vn -0.9015008211 0.005892734975 -0.4327372015
vn -0.7775791883 0.005893073976 -0.6287574172
vn -0.6118344665 0.005893209949 -0.7909638882
vn -0.4131916463 0.005893083289 -0.9106250405
vn -0.1923274398 0.005893179681 -0.9813131094
vn 0.9428237677 0.01119619422 0.333103478
vn 0.9905677438 0.006028316915 0.1368911713
vn 0.9324007034 0.006028315052 0.3613758981
vn 0.8240839243 0.006028753705 0.5664356351
vn 0.6714551449 0.006028556265 0.7410206795
vn 0.4827042222 0.006028589793 0.875762701
vn 0.2680025697 0.006028631236 0.9633993506
vn -0.9999161959 0.004174168222 0.01225404907
vn 0.9427669048 0.01568620093 0.3330833912
vn -0.9769186974 0.008256483823 -0.2134517282
vn 0.9905503988 0.008446213789 0.1368887722
vn -0.9014858007 0.008256257512 -0.4327299893
vn 0.9323844314 0.008446210995 0.36136958
vn -0.7775661349 0.008256732486 -0.6287469268
vn 0.8240695 0.008446824737 0.5664257407
vn -0.6118242145 0.008256922476 -0.7909506559
vn 0.6714434028 0.008446548134 0.7410076857
vn -0.4131847322 0.008256745525 -0.9106097817
vn 0.4826957881 0.0084465947 0.8757473826
vn -0.1923242211 0.008256879635 -0.9812967181
vn 0.2679978609 0.008446653374 0.9633824825
vn 0.1716864556 0.01618708856 -0.9850186706
vn 0.188585043 0.004103266168 0.9820482731
vn 0.3855604231 -0.007710170932 0.9226503968
vn -0.04393902048 -0.008208427578 -0.9990004897
vn 0.9910665751 -0.008348526433 0.1331066638
vn 0.9769182801 -0.008446169086 0.2134464383
vn 0.9014809728 -0.008446259424 0.4327363372
vn 0.7775636911 -0.008446771652 0.6287474632
vn 0.6118269563 -0.008446590044 0.7909465432
vn 0.4131822586 -0.008446579799 0.9106091857
vn 0.1923269182 -0.008446652442 0.9812945724
vn -0.9739124179 -0.008232041262 0.2267749161
vn -0.2679980099 -0.00825690385 -0.9633840919
vn -0.482696712 -0.008256711066 -0.8757486343
vn -0.6714400649 -0.008256931789 -0.7410128713
vn -0.8240761757 -0.008256731555 -0.5664188862
vn -0.9323860407 -0.008256240748 -0.3613698483
vn -0.9905515313 -0.008256541565 -0.1368924081
f 1//1 2//2 3//3 
f 3//3 2//2 4//4 
f 4//4 2//2 5//5 
f 4//4 5//5 6//6 
f 6//6 5//5 7//7 
f 6//6 7//7 8//8 
f 8//8 7//7 9//9 
f 8//8 9//9 10//10 
f 10//10 9//9 11//11 
f 10//10 11//11 12//12 
f 12//12 11//11 13//13 
f 12//12 13//13 14//14 
f 14//14 13//13 15//15 
f 14//14 15//15 16//16 
f 15//15 17//17 16//16 
f 16//16 17//17 18//18 
f 1//1 19//19 2//2 
f 2//2 19//19 20//20 
f 2//2 20//20 5//5 
f 5//5 20//20 21//21 
f 5//5 21//21 7//7 
f 7//7 21//21 22//22 
f 7//7 22//22 9//9 
f 9//9 22//22 23//23 
f 9//9 23//23 11//11 
f 11//11 23//23 24//24 
f 11//11 24//24 13//13 
f 13//13 24//24 25//25 
f 13//13 25//25 15//15 
f 15//15 25//25 17//17 
f 26//26 3//3 27//27 
f 27//27 3//3 4//4 
f 27//27 4//4 28//28 
f 28//28 4//4 6//6 
f 28//28 6//6 29//29 
f 29//29 6//6 8//8 
f 29//29 8//8 30//30 
f 30//30 8//8 10//10 
f 30//30 10//10 31//31 
f 31//31 10//10 12//12 
f 31//31 12//12 32//32 
f 32//32 12//12 14//14 
f 32//32 14//14 18//18 
f 18//18 14//14 16//16 
f 3//3 26//26 1//1 
f 1//1 26//26 19//19 
f 19//19 26//26 20//20 
f 20//20 26//26 27//27 
f 20//20 27//27 21//21 
f 21//21 27//27 28//28 
f 21//21 28//28 22//22 
f 22//22 28//28 29//29 
f 22//22 29//29 23//23 
f 23//23 29//29 30//30 
f 23//23 30//30 24//24 
f 24//24 30//30 31//31 
f 24//24 31//31 25//25 
f 25//25 31//31 32//32 
f 25//25 32//32 17//17 
f 17//17 32//32 18//18 
f 33//33 34//34 35//35 
f 35//35 34//34 36//36 
f 35//35 36//36 37//37 
f 37//37 36//36 38//38 
f 37//37 38//38 39//39 
f 39//39 38//38 40//40 
f 39//39 40//40 41//41 
f 41//41 40//40 42//42 
f 41//41 42//42 43//43 
f 43//43 42//42 44//44 
f 43//43 44//44 45//45 
f 45//45 44//44 46//46 
f 45//45 46//46 47//47 
f 47//47 46//46 48//48 
f 48//48 49//49 47//47 
f 47//47 49//49 50//50 
f 34//34 51//51 36//36 
f 36//36 51//51 52//52 
f 36//36 52//52 38//38 
f 38//38 52//52 53//53 
f 38//38 53//53 40//40 
f 40//40 53//53 54//54 
f 40//40 54//54 42//42 
f 42//42 54//54 55//55 
f 42//42 55//55 44//44 
f 44//44 55//55 56//56 
f 44//44 56//56 46//46 
f 46//46 56//56 57//57 
f 46//46 57//57 48//48 
f 48//48 57//57 49//49 
f 33//33 58//58 34//34 
f 34//34 58//58 51//51 
f 47//47 50//50 45//45 
f 45//45 50//50 59//59 
f 45//45 59//59 43//43 
f 43//43 59//59 60//60 
f 43//43 60//60 41//41 
f 41//41 60//60 61//61 
f 41//41 61//61 39//39 
f 39//39 61//61 62//62 
f 39//39 62//62 37//37 
f 37//37 62//62 63//63 
f 37//37 63//63 35//35 
f 35//35 63//63 64//64 
f 35//35 64//64 33//33 
f 33//33 64//64 58//58 
f 58//58 64//64 51//51 
f 51//51 64//64 52//52 
f 52//52 64//64 63//63 
f 52//52 63//63 53//53 
f 53//53 63//63 62//62 
f 53//53 62//62 54//54 
f 54//54 62//62 61//61 
f 54//54 61//61 55//55 
f 55//55 61//61 60//60 
f 55//55 60//60 56//56 
f 56//56 60//60 59//59 
f 56//56 59//59 57//57 
f 57//57 59//59 50//50 
f 57//57 50//50 49//49 
