v -38.07514954 18.66666603 -121.8691788
v -38.07514954 0.6666666865 -121.8691788
v -38.13764954 18.66666603 -121.8691788
v -38.13764954 0.6666666865 -121.8691788
v -38.07514954 0.6666666865 -116.872139
v -38.07514954 18.66666603 -116.872139
v -38.13764954 0.6666666865 -116.872139
v -38.13764954 18.66666603 -116.872139
vn 0.9999744296 0.00347213354 -0.006253542379
vn 0.9996812344 -0.003471115604 -0.02500683628
vn -0.9996812344 0.003471115604 -0.02500683628
vn -0.9999744296 -0.00347213354 -0.006253542379
vn 0.9999744296 -0.00347213354 0.006253542379
vn 0.9996812344 0.003471115604 0.02500683628
vn -0.9996812344 -0.003471115604 0.02500683628
vn -0.9999744296 0.00347213354 0.006253542379
f 1//1 2//2 3//3 
f 3//3 2//2 4//4 
f 2//2 1//1 5//5 
f 5//5 1//1 6//6 
f 2//2 5//5 4//4 
f 4//4 5//5 7//7 
f 6//6 1//1 8//8 
f 8//8 1//1 3//3 
f 7//7 8//8 4//4 
f 4//4 8//8 3//3 
f 5//5 6//6 7//7 
f 7//7 6//6 8//8 
