v -45.47618866 0.6666666865 -122.0150146
v -45.47618866 0.1666666716 -122.0150146
v -45.47618866 0.6666666865 -121.8483505
v -45.47618866 0.1666666716 -121.8483505
v -38.0803566 0.1666666716 -121.8483505
v -38.0803566 0.6666666865 -121.8483505
v -38.0803566 0.6666666865 -122.0150146
v -38.0803566 0.1666666716 -122.0150146
vn -0.01111344807 0.1643863916 -0.9863334298
vn -0.03747412935 -0.554304719 -0.8314697742
vn -0.03747412935 0.554304719 0.8314697742
vn -0.01111344807 -0.1643863916 0.9863334298
vn 0.03747412935 -0.554304719 0.8314697742
vn 0.01111344807 0.1643863916 0.9863334298
vn 0.03747412935 0.554304719 -0.8314697742
vn 0.01111344807 -0.1643863916 -0.9863334298
f 1//1 2//2 3//3 
f 3//3 2//2 4//4 
f 5//5 6//6 4//4 
f 4//4 6//6 3//3 
f 1//1 3//3 7//7 
f 7//7 3//3 6//6 
f 8//8 5//5 2//2 
f 2//2 5//5 4//4 
f 2//2 1//1 8//8 
f 8//8 1//1 7//7 
f 8//8 7//7 5//5 
f 5//5 7//7 6//6 
