v -24.95863914 11.39583302 -140.6674957
v -24.38742638 11.39583302 -136.3437195
v -24.89667702 11.39583302 -140.6756897
v -24.32546425 11.39583302 -136.3519135
v -24.95863914 0.6666666865 -140.6674957
v -24.89667702 0.6666666865 -140.6756897
v -23.94215393 3.666666746 -132.9732666
v -24.32193947 3.666666746 -135.8480377
v -23.94215393 0.6666666865 -132.9732666
v -24.33888817 3.683703661 -135.9763336
v -24.35468292 3.733654022 -136.0958862
v -24.36824608 3.813113213 -136.1985474
v -24.37865257 3.916666746 -136.2773132
v -24.38519478 4.037257195 -136.3268433
v -24.38742638 4.166666508 -136.3437195
v -23.88019371 0.6666666865 -132.9814606
v -24.25997734 3.666666746 -135.8562164
v -23.88019371 3.666666746 -132.9814606
v -24.32323265 4.037257195 -136.335022
v -24.32546425 4.166666508 -136.3519135
v -24.31669044 3.916666746 -136.2855072
v -24.30628395 3.813113213 -136.2067261
v -24.29272079 3.733654022 -136.1040649
v -24.27692795 3.683703661 -135.9845123
v -24.95863914 11.4375 -140.6674957
v -24.89667702 11.4375 -140.6756897
v -24.38742638 11.4375 -136.3437195
v -24.32546425 11.4375 -136.3519135
v -24.89667702 18.66666603 -140.6756897
v -24.95863914 18.66666603 -140.6674957
v -24.38742638 12.66666698 -136.3437195
v -24.38519478 12.79607582 -136.3268433
v -24.37865257 12.91666698 -136.2773132
v -24.36824608 13.0202198 -136.1985474
v -24.35468292 13.09967899 -136.0958862
v -24.33888817 13.14962959 -135.9763336
v -23.94215393 18.66666603 -132.9732666
v -24.32193947 13.16666698 -135.8480377
v -23.94215393 13.16666698 -132.9732666
v -24.25997734 13.16666698 -135.8562164
v -23.88019371 13.16666698 -132.9814606
v -23.88019371 18.66666603 -132.9814606
v -24.27692795 13.14962959 -135.9845123
v -24.29272079 13.09967899 -136.1040649
v -24.30628395 13.0202198 -136.2067261
v -24.31669044 12.91666698 -136.2855072
v -24.32323265 12.79607582 -136.335022
v -24.32546425 12.66666698 -136.3519135
vn -0.9934771657 0.003479826963 0.1139780432
vn -0.9892597198 0.01728717424 0.1451425105
vn 0.9902044535 0.006960316096 -0.1394513994
vn 0.9946942925 0.008641846478 -0.102511175
vn -0.9925176501 -0.006596617866 0.1219229251
vn 0.9887467027 -0.01319036819 -0.1490166783
vn -0.9874772429 0.04162065312 0.1521723866
vn -0.9911532402 0.0209423285 0.1310597509
vn -0.9893647432 -0.02987780608 0.1423542947
vn -0.9913573265 0.0009738471126 0.1311858147
vn -0.9900653958 0.01677015424 0.1396039277
vn -0.9897031784 0.01277925633 0.1425634623
vn -0.9893419147 0.009238124825 0.1453178525
vn -0.988920927 0.005531121511 0.1483402401
vn -0.9897928834 2.6849817e-05 0.14251329
vn 0.9920154214 -0.01494428888 -0.1252282262
vn 0.990547955 0.0418570675 -0.13062419
vn 0.9958911538 0.02080927044 -0.08813531697
vn 0.9935699701 0.00397873437 -0.1131500155
vn 0.9921323061 1.349268041e-05 -0.125194028
vn 0.9932364225 0.00793054048 -0.1158383712
vn 0.9929116368 0.01170663349 -0.1182771251
vn 0.9925401807 0.01594344527 -0.1208710596
vn 0.9914249182 0.0009511118405 -0.1306743026
vn -0.9928342104 -0.00710209785 0.1192886159
vn 0.9879286289 -0.01420052908 -0.1542575806
vn -0.9821650386 -0.101134859 0.1585042328
vn 0.9918798208 -0.05077781901 -0.1166017801
vn 0.9905291796 0.01250203419 -0.1367318332
vn -0.9928246737 0.006251174025 0.119415544
vn -0.9894002676 -0.0001786577777 0.1452140063
vn -0.9880023003 -0.005227300804 0.1543506235
vn -0.9913012981 -0.0003358004906 0.131611824
vn -0.9900386333 -0.008823706768 0.1405190527
vn -0.9903728366 -0.01109946985 0.1379799992
vn -0.9913643599 -0.0005219736486 0.1311353445
vn -0.9904799461 0.01632183045 0.1366858333
vn -0.9912993312 -0.01188333984 0.1310895532
vn -0.9845718741 -0.0227002725 0.1735018492
vn 0.9911478162 -0.02230207622 -0.1308762431
vn 0.9939140081 -0.01136017591 -0.1095715016
vn 0.9928017259 0.008161121979 -0.1194913313
vn 0.9914014339 -0.0005343368393 -0.130854547
vn 0.9920963049 -0.01167811919 -0.1249342635
vn 0.9924576879 -0.009635434486 -0.1222081855
vn 0.9914661646 -0.0003909089428 -0.1303634942
vn 0.994117856 -0.007284586318 -0.1080585942
vn 0.9947417974 -0.0003604624944 -0.1024139747
f 1//1 2//2 3//3 
f 3//3 2//2 4//4 
f 5//5 1//1 6//6 
f 6//6 1//1 3//3 
f 7//7 8//8 9//9 
f 9//9 8//8 10//10 
f 9//9 10//10 5//5 
f 5//5 10//10 11//11 
f 5//5 11//11 12//12 
f 12//12 13//13 5//5 
f 5//5 13//13 14//14 
f 5//5 14//14 15//15 
f 2//2 1//1 15//15 
f 15//15 1//1 5//5 
f 5//5 6//6 9//9 
f 9//9 6//6 16//16 
f 8//8 7//7 17//17 
f 17//17 7//7 18//18 
f 19//19 6//6 20//20 
f 20//20 6//6 3//3 
f 20//20 3//3 4//4 
f 19//19 21//21 6//6 
f 6//6 21//21 22//22 
f 6//6 22//22 23//23 
f 23//23 24//24 6//6 
f 6//6 24//24 16//16 
f 16//16 24//24 17//17 
f 16//16 17//17 18//18 
f 16//16 18//18 9//9 
f 9//9 18//18 7//7 
f 20//20 4//4 15//15 
f 15//15 4//4 2//2 
f 8//8 17//17 10//10 
f 10//10 17//17 24//24 
f 10//10 24//24 11//11 
f 11//11 24//24 23//23 
f 11//11 23//23 12//12 
f 12//12 23//23 22//22 
f 12//12 22//22 13//13 
f 13//13 22//22 21//21 
f 13//13 21//21 14//14 
f 14//14 21//21 19//19 
f 14//14 19//19 15//15 
f 15//15 19//19 20//20 
f 25//25 26//26 27//27 
f 27//27 26//26 28//28 
f 29//29 26//26 30//30 
f 30//30 26//26 25//25 
f 27//27 31//31 25//25 
f 25//25 31//31 32//32 
f 25//25 32//32 33//33 
f 25//25 33//33 30//30 
f 30//30 33//33 34//34 
f 30//30 34//34 35//35 
f 35//35 36//36 30//30 
f 30//30 36//36 37//37 
f 37//37 36//36 38//38 
f 37//37 38//38 39//39 
f 38//38 40//40 39//39 
f 39//39 40//40 41//41 
f 30//30 37//37 29//29 
f 29//29 37//37 42//42 
f 41//41 40//40 42//42 
f 42//42 40//40 43//43 
f 42//42 43//43 29//29 
f 29//29 43//43 44//44 
f 29//29 44//44 45//45 
f 45//45 46//46 29//29 
f 29//29 46//46 26//26 
f 26//26 46//46 47//47 
f 26//26 47//47 48//48 
f 48//48 28//28 26//26 
f 41//41 42//42 39//39 
f 39//39 42//42 37//37 
f 31//31 27//27 48//48 
f 48//48 27//27 28//28 
f 31//31 48//48 32//32 
f 32//32 48//48 47//47 
f 32//32 47//47 33//33 
f 33//33 47//47 46//46 
f 33//33 46//46 34//34 
f 34//34 46//46 45//45 
f 34//34 45//45 35//35 
f 35//35 45//45 44//44 
f 35//35 44//44 36//36 
f 36//36 44//44 43//43 
f 36//36 43//43 38//38 
f 38//38 43//43 40//40 
