v -37.99181366 0.1666666716 -116.872139
v -37.99181366 0.6666666865 -116.872139
v -38.1584816 0.1666666716 -116.872139
v -38.1584816 0.6666666865 -116.872139
v -37.99181366 0.1666666716 -121.9316788
v -37.99181366 0.6666666865 -121.9316788
v -38.1584816 0.1666666716 -121.9316788
v -38.1584816 0.6666666865 -121.9316788
vn 0.9485667944 -0.3161913455 0.01562352292
vn 0.9468349814 0.3156140745 0.06237999722
vn -0.9468349814 -0.3156140745 0.06237999722
vn -0.9485667944 0.3161913455 0.01562352292
vn 0.9468349814 -0.3156140745 -0.06237999722
vn 0.9485667944 0.3161913455 -0.01562352292
vn -0.9485667944 -0.3161913455 -0.01562352292
vn -0.9468349814 0.3156140745 -0.06237999722
f 1//1 2//2 3//3 
f 3//3 2//2 4//4 
f 5//5 6//6 1//1 
f 1//1 6//6 2//2 
f 5//5 1//1 7//7 
f 7//7 1//1 3//3 
f 2//2 6//6 4//4 
f 4//4 6//6 8//8 
f 3//3 4//4 7//7 
f 7//7 4//4 8//8 
f 6//6 5//5 8//8 
f 8//8 5//5 7//7 
