v -23.49173737 0.1666666716 -141.8909912
v -23.49173737 18.66666603 -141.8909912
v -23.56408501 0.1666666716 -142.4383087
v -23.56408501 18.66666603 -142.4383087
v -23.36570168 0.1666666716 -142.4645386
v -23.36570168 18.66666603 -142.4645386
v -23.29335403 0.1666666716 -141.9172211
v -23.29335403 18.66666603 -141.9172211
vn -0.7256204486 -0.01751284301 0.687872231
vn -0.9520621896 0.01064282469 0.3057193756
vn -0.9988406897 -0.005321579054 -0.0478432402
vn -0.879540801 0.008757165633 -0.4757429063
vn 0.7256204486 -0.01751284301 -0.687872231
vn 0.9520621896 0.01064282469 -0.3057193756
vn 0.9988406897 -0.005321579054 0.0478432402
vn 0.879540801 0.008757165633 0.4757429063
f 1//1 2//2 3//3 
f 3//3 2//2 4//4 
f 3//3 4//4 5//5 
f 5//5 4//4 6//6 
f 7//7 8//8 1//1 
f 1//1 8//8 2//2 
f 3//3 5//5 1//1 
f 1//1 5//5 7//7 
f 4//4 2//2 6//6 
f 6//6 2//2 8//8 
f 5//5 6//6 7//7 
f 7//7 6//6 8//8 
