v -27.01517677 3.666666746 -129.1961365
v -27.01517677 0.6666666865 -129.1961365
v -27.01097488 3.666666746 -129.1337738
v -27.01097488 0.6666666865 -129.1337738
v -23.93942642 0.6666666865 -132.9526215
v -23.87746429 0.6666666865 -132.9608002
v -23.91111183 0.6666666865 -132.5652313
v -23.84861755 0.6666666865 -132.5661316
v -23.86595154 0.6666666865 -132.1707916
v -23.92812538 0.6666666865 -132.1771698
v -23.92922783 0.6666666865 -131.7801666
v -23.99023628 0.6666666865 -131.7937469
v -24.03758812 0.6666666865 -131.3995667
v -24.09659767 0.6666666865 -131.4201508
v -24.18955421 0.6666666865 -131.0341797
v -24.24576187 0.6666666865 -131.0615082
v -24.38305473 0.6666666865 -130.6889954
v -24.43569756 0.6666666865 -130.7226868
v -24.61545753 0.6666666865 -130.3687134
v -24.66381454 0.6666666865 -130.4083099
v -24.88359261 0.6666666865 -130.0776825
v -24.92700958 0.6666666865 -130.1226349
v -25.1838131 0.6666666865 -129.81987
v -25.22169304 0.6666666865 -129.8695831
v -25.51202393 0.6666666865 -129.5988007
v -25.54385567 0.6666666865 -129.6525879
v -25.86375809 0.6666666865 -129.4174805
v -25.88910675 0.6666666865 -129.4746094
v -26.23422241 0.6666666865 -129.2783661
v -26.25274277 0.6666666865 -129.3380585
v -26.61837196 0.6666666865 -129.1833649
v -26.62981033 0.6666666865 -129.244812
v -23.87746429 3.666666746 -132.9608002
v -23.84861755 3.666666746 -132.5661316
v -23.86595154 3.666666746 -132.1707916
v -23.92922783 3.666666746 -131.7801666
v -24.03758812 3.666666746 -131.3995667
v -24.18955421 3.666666746 -131.0341797
v -24.38305473 3.666666746 -130.6889954
v -24.61545753 3.666666746 -130.3687134
v -24.88359261 3.666666746 -130.0776825
v -25.1838131 3.666666746 -129.81987
v -25.51202393 3.666666746 -129.5988007
v -25.86375809 3.666666746 -129.4174805
v -26.23422241 3.666666746 -129.2783661
v -26.61837196 3.666666746 -129.1833649
v -26.62981033 3.666666746 -129.244812
v -26.25274277 3.666666746 -129.3380585
v -25.88910675 3.666666746 -129.4746094
v -25.54385567 3.666666746 -129.6525879
v -25.22169304 3.666666746 -129.8695831
v -24.92700958 3.666666746 -130.1226349
v -24.66381454 3.666666746 -130.4083099
v -24.43569756 3.666666746 -130.7226868
v -24.24576187 3.666666746 -131.0615082
v -24.09659767 3.666666746 -131.4201508
v -23.99023628 3.666666746 -131.7937469
v -23.92812538 3.666666746 -132.1771698
v -23.91111183 3.666666746 -132.5652313
v -23.93942642 3.666666746 -132.9526215
vn -0.203967616 0.01031755283 -0.9789232612
vn -0.4178225398 -0.01946697012 -0.9083200693
vn -0.184012562 0.03994392231 0.9821119308
vn 0.04658130556 -0.02063362859 0.9987013936
vn -0.9999235868 -0.01031694841 -0.006810751744
vn 0.9265092015 -0.03994067386 -0.3741463423
vn -0.9995952249 -0.02802221663 -0.004907720257
vn 0.9993238449 -0.01388507336 -0.03404489532
vn 0.9963669181 -0.02069729753 0.08261069655
vn -0.9923872948 -0.02095539123 -0.1213605404
vn 0.9799559712 -0.02069732733 0.198135972
vn -0.9714899063 -0.02095500566 -0.2361529768
vn 0.9501971602 -0.0206966158 0.3109613955
vn -0.9373581409 -0.02095448039 -0.3477365077
vn 0.9074962735 -0.02069620974 0.4195500314
vn -0.8904554248 -0.02095508017 -0.454587698
vn 0.8524288535 -0.02069712058 0.5224334598
vn -0.8314232826 -0.02095545642 -0.555244267
vn 0.7857509255 -0.0206970945 0.6181966662
vn -0.76107651 -0.02095466666 -0.6483235359
vn 0.7083808184 -0.02069627121 0.705526948
vn -0.6803542376 -0.02095443755 -0.7325838208
vn 0.6213534474 -0.02069641463 0.7832570076
vn -0.5903594494 -0.02095526271 -0.8068683743
vn 0.5258530378 -0.02069717459 0.8503236175
vn -0.4923246205 -0.020955313 -0.8701593876
vn 0.4232008457 -0.02069706284 0.9057994485
vn -0.3876007199 -0.02095512301 -0.9215891361
vn 0.3147962987 -0.02069687285 0.9489336014
vn -0.2775835097 -0.02095538378 -0.9604729414
vn 0.2020824552 -0.0206974633 0.9791497588
vn -0.1637755036 -0.02095622756 -0.9862750173
vn 0.988260448 0.02063227445 -0.1513788998
vn 0.9998915195 0.01388509292 0.004910451826
vn 0.9923926592 0.02069735155 0.1213608608
vn 0.971493721 0.02069718204 0.2361601889
vn 0.9373630285 0.02069654875 0.347738713
vn 0.8904630542 0.02069635689 0.4545846581
vn 0.831427753 0.02069718763 0.5552472472
vn 0.7610760927 0.02069701254 0.6483322978
vn 0.6803601384 0.02069617808 0.7325856686
vn 0.5903665423 0.02069653943 0.8068698645
vn 0.4923268557 0.02069717646 0.8701642752
vn 0.3876015842 0.02069700323 0.9215946198
vn 0.2775897384 0.02069688402 0.9604767561
vn 0.1637817323 0.02069745958 0.986279428
vn -0.2020745277 0.02095626853 -0.9791459441
vn -0.3147931099 0.02095532604 -0.9489289522
vn -0.4231995344 0.02095518261 -0.9057941437
vn -0.5258501768 0.02095528878 -0.8503190279
vn -0.6213434339 0.020955313 -0.7832580805
vn -0.7083800435 0.02095424384 -0.7055200934
vn -0.7857492566 0.02095493861 -0.6181901097
vn -0.8524230719 0.02095533349 -0.5224325061
vn -0.9074883461 0.02095510438 -0.4195542336
vn -0.95019418 0.02095419168 -0.3109531999
vn -0.9799509048 0.02095537819 -0.1981339157
vn -0.9963617325 0.02095515095 -0.08260839432
vn -0.999027729 0.0280224774 0.03403482214
vn -0.9729038477 0.01946630329 -0.2303890437
f 1//1 2//2 3//3 
f 3//3 2//2 4//4 
f 5//5 6//6 7//7 
f 7//7 6//6 8//8 
f 7//7 8//8 9//9 
f 7//7 9//9 10//10 
f 10//10 9//9 11//11 
f 10//10 11//11 12//12 
f 12//12 11//11 13//13 
f 12//12 13//13 14//14 
f 14//14 13//13 15//15 
f 14//14 15//15 16//16 
f 16//16 15//15 17//17 
f 16//16 17//17 18//18 
f 18//18 17//17 19//19 
f 18//18 19//19 20//20 
f 20//20 19//19 21//21 
f 20//20 21//21 22//22 
f 22//22 21//21 23//23 
f 22//22 23//23 24//24 
f 24//24 23//23 25//25 
f 24//24 25//25 26//26 
f 26//26 25//25 27//27 
f 26//26 27//27 28//28 
f 28//28 27//27 29//29 
f 28//28 29//29 30//30 
f 30//30 29//29 31//31 
f 30//30 31//31 32//32 
f 32//32 31//31 4//4 
f 32//32 4//4 2//2 
f 6//6 33//33 8//8 
f 8//8 33//33 34//34 
f 8//8 34//34 9//9 
f 9//9 34//34 35//35 
f 9//9 35//35 11//11 
f 11//11 35//35 36//36 
f 11//11 36//36 13//13 
f 13//13 36//36 37//37 
f 13//13 37//37 15//15 
f 15//15 37//37 38//38 
f 15//15 38//38 17//17 
f 17//17 38//38 39//39 
f 17//17 39//39 19//19 
f 19//19 39//39 40//40 
f 19//19 40//40 21//21 
f 21//21 40//40 41//41 
f 21//21 41//41 23//23 
f 23//23 41//41 42//42 
f 23//23 42//42 25//25 
f 25//25 42//42 43//43 
f 25//25 43//43 27//27 
f 27//27 43//43 44//44 
f 27//27 44//44 29//29 
f 29//29 44//44 45//45 
f 29//29 45//45 31//31 
f 31//31 45//45 46//46 
f 31//31 46//46 4//4 
f 4//4 46//46 3//3 
f 2//2 1//1 32//32 
f 32//32 1//1 47//47 
f 32//32 47//47 30//30 
f 30//30 47//47 48//48 
f 30//30 48//48 28//28 
f 28//28 48//48 49//49 
f 28//28 49//49 26//26 
f 26//26 49//49 50//50 
f 26//26 50//50 24//24 
f 24//24 50//50 51//51 
f 24//24 51//51 22//22 
f 22//22 51//51 52//52 
f 22//22 52//52 20//20 
f 20//20 52//52 53//53 
f 20//20 53//53 18//18 
f 18//18 53//53 54//54 
f 18//18 54//54 16//16 
f 16//16 54//54 55//55 
f 16//16 55//55 14//14 
f 14//14 55//55 56//56 
f 14//14 56//56 12//12 
f 12//12 56//56 57//57 
f 12//12 57//57 10//10 
f 10//10 57//57 58//58 
f 10//10 58//58 7//7 
f 7//7 58//58 59//59 
f 7//7 59//59 5//5 
f 5//5 59//59 60//60 
f 60//60 59//59 33//33 
f 33//33 59//59 34//34 
f 34//34 59//59 35//35 
f 35//35 59//59 58//58 
f 35//35 58//58 36//36 
f 36//36 58//58 57//57 
f 36//36 57//57 37//37 
f 37//37 57//57 56//56 
f 37//37 56//56 38//38 
f 38//38 56//56 55//55 
f 38//38 55//55 39//39 
f 39//39 55//55 54//54 
f 39//39 54//54 40//40 
f 40//40 54//54 53//53 
f 40//40 53//53 41//41 
f 41//41 53//53 52//52 
f 41//41 52//52 42//42 
f 42//42 52//52 51//51 
f 42//42 51//51 43//43 
f 43//43 51//51 50//50 
f 43//43 50//50 44//44 
f 44//44 50//50 49//49 
f 44//44 49//49 45//45 
f 45//45 49//49 48//48 
f 45//45 48//48 46//46 
f 46//46 48//48 47//47 
f 46//46 47//47 3//3 
f 3//3 47//47 1//1 
f 33//33 6//6 60//60 
f 60//60 6//6 5//5 
