v -45.47618866 0.6666666865 -121.8483505
v -45.47618866 0.1666666716 -121.8483505
v -45.47618866 0.6666666865 -122.0150146
v -45.47618866 0.1666666716 -122.0150146
v -47.0022316 0.1666666716 -123.3743896
v -46.83556366 0.1666666716 -123.3743896
v -46.9938736 0.1666666716 -123.2148743
v -46.82701874 0.1666666716 -123.2221909
v -46.96888351 0.1666666716 -123.057106
v -46.80148315 0.1666666716 -123.0718994
v -46.92754364 0.1666666716 -122.9028168
v -46.75928116 0.1666666716 -122.925415
v -46.87030029 0.1666666716 -122.7536926
v -46.70094681 0.1666666716 -122.7845764
v -46.7977829 0.1666666716 -122.6113663
v -46.6272049 0.1666666716 -122.6511612
v -46.71078491 0.1666666716 -122.4774017
v -46.53899384 0.1666666716 -122.5268326
v -46.61026001 0.1666666716 -122.3532715
v -46.43741226 0.1666666716 -122.4131699
v -46.49731064 0.1666666716 -122.2403183
v -46.32374573 0.1666666716 -122.3115845
v -46.37317657 0.1666666716 -122.1397934
v -46.19942093 0.1666666716 -122.2233734
v -46.23921204 0.1666666716 -122.0527954
v -46.06600189 0.1666666716 -122.1496353
v -46.09688568 0.1666666716 -121.980278
v -45.92516327 0.1666666716 -122.091301
v -45.94776154 0.1666666716 -121.9230347
v -45.77867889 0.1666666716 -122.0490952
v -45.79347229 0.1666666716 -121.8816986
v -45.62839127 0.1666666716 -122.0235596
v -45.63570404 0.1666666716 -121.8567047
v -46.83556366 0.6666666865 -123.3743896
v -46.82701874 0.6666666865 -123.2221909
v -46.80148315 0.6666666865 -123.0718994
v -46.75928116 0.6666666865 -122.925415
v -46.70094681 0.6666666865 -122.7845764
v -46.6272049 0.6666666865 -122.6511612
v -46.53899384 0.6666666865 -122.5268326
v -46.43741226 0.6666666865 -122.4131699
v -46.32374573 0.6666666865 -122.3115845
v -46.19942093 0.6666666865 -122.2233734
v -46.06600189 0.6666666865 -122.1496353
v -45.92516327 0.6666666865 -122.091301
v -45.77867889 0.6666666865 -122.0490952
v -45.62839127 0.6666666865 -122.0235596
v -45.63570404 0.6666666865 -121.8567047
v -45.79347229 0.6666666865 -121.8816986
v -45.94776154 0.6666666865 -121.9230347
v -46.09688568 0.6666666865 -121.980278
v -46.23921204 0.6666666865 -122.0527954
v -46.37317657 0.6666666865 -122.1397934
v -46.49731064 0.6666666865 -122.2403183
v -46.61026001 0.6666666865 -122.3532715
v -46.71078491 0.6666666865 -122.4774017
v -46.7977829 0.6666666865 -122.6113663
v -46.87030029 0.6666666865 -122.7536926
v -46.92754364 0.6666666865 -122.9028168
v -46.96888351 0.6666666865 -123.057106
v -46.9938736 0.6666666865 -123.2148743
v -47.0022316 0.6666666865 -123.3743896
vn 0.4206295013 0.1491458863 0.8948889971
vn 0.8881577849 -0.1453168839 0.4359573424
vn 0.8801432252 0.2679703236 -0.391841501
vn 0.4959765673 -0.2809459567 -0.8216304779
vn -0.8948925734 -0.1491498947 -0.4206204712
vn 0.391826421 -0.2679667473 -0.8801510334
vn -0.9430410862 -0.3118681908 0.1158090085
vn 0.9428088665 -0.3214024007 -0.08838487417
vn -0.9258477092 -0.3116296828 0.2137591094
vn 0.9268907905 -0.3216791153 -0.1933803856
vn -0.8984949589 -0.3114262521 0.3093873262
vn 0.89933604 -0.3219154179 -0.2959141433
vn -0.8612829447 -0.311260879 0.4016321003
vn 0.8604918122 -0.3220981359 -0.3947235346
vn -0.8146140575 -0.3111429513 0.4894834459
vn 0.8108391762 -0.3222329617 -0.4885752797
vn -0.7589938641 -0.311067313 0.5719837546
vn 0.7510324717 -0.322299391 -0.5762580633
vn -0.6950726509 -0.3110168576 0.6481840014
vn 0.6817700267 -0.3223318458 -0.6567280889
vn -0.6235212088 -0.3110252023 0.7172758579
vn 0.6039815545 -0.3223009408 -0.7289227843
vn -0.5451149344 -0.3110614121 0.7785181403
vn 0.5185621977 -0.3222307265 -0.7919978499
vn -0.4607290328 -0.3111436963 0.8312149644
vn 0.426646769 -0.3221027255 -0.8451167941
vn -0.3713057041 -0.3112681806 0.8747823834
vn 0.3293653429 -0.3219216168 -0.8876288533
vn -0.2777985334 -0.3114308119 0.9087567329
vn 0.2279526889 -0.321677655 -0.9190000296
vn -0.1813060343 -0.3116202056 0.9327491522
vn 0.1236147881 -0.3213979304 -0.9388411641
vn -0.08278475702 -0.3118687272 0.9465118051
vn 0.8216195703 0.2809492946 -0.4959927201
vn 0.9388412833 0.3213980496 -0.1236137599
vn 0.9190030694 0.3216809928 -0.2279356718
vn 0.8876332045 0.3219159544 -0.3293590546
vn 0.8451080322 0.3221000433 -0.4266661406
vn 0.7919967175 0.3222302496 -0.5185642242
vn 0.7289273143 0.3223009706 -0.6039760113
vn 0.6567290425 0.3223284185 -0.6817707419
vn 0.5762657523 0.3223047256 -0.7510242462
vn 0.4885605872 0.3222305179 -0.8108489513
vn 0.3947134912 0.3221017718 -0.8604950309
vn 0.2959278822 0.3219204247 -0.8993297219
vn 0.1933911443 0.3216788471 -0.9268886447
vn 0.08838429302 0.3213974833 -0.942810595
vn -0.1158164889 0.3118676841 0.9430403709
vn -0.213752389 0.3116232753 0.9258514047
vn -0.3093802631 0.3114290237 0.8984963894
vn -0.4016312957 0.3112667799 0.8612812161
vn -0.4894832075 0.3111444712 0.8146135807
vn -0.5719774365 0.3110625446 0.7590005994
vn -0.6481946707 0.3110225201 0.6950601935
vn -0.7172772884 0.3110212684 0.6235214472
vn -0.7785148621 0.3110644221 0.5451179147
vn -0.8312154412 0.3111421764 0.4607292712
vn -0.8747841716 0.3112622499 0.3713064492
vn -0.9087535739 0.3114274442 0.2778127193
vn -0.9327481985 0.311627537 0.1812982857
vn -0.9465111494 0.3118687868 0.08279227465
vn -0.4359530807 0.1453187913 -0.8881595135
f 1//1 2//2 3//3 
f 3//3 2//2 4//4 
f 5//5 6//6 7//7 
f 7//7 6//6 8//8 
f 7//7 8//8 9//9 
f 9//9 8//8 10//10 
f 9//9 10//10 11//11 
f 11//11 10//10 12//12 
f 11//11 12//12 13//13 
f 13//13 12//12 14//14 
f 13//13 14//14 15//15 
f 15//15 14//14 16//16 
f 15//15 16//16 17//17 
f 17//17 16//16 18//18 
f 17//17 18//18 19//19 
f 19//19 18//18 20//20 
f 19//19 20//20 21//21 
f 21//21 20//20 22//22 
f 21//21 22//22 23//23 
f 23//23 22//22 24//24 
f 23//23 24//24 25//25 
f 25//25 24//24 26//26 
f 25//25 26//26 27//27 
f 27//27 26//26 28//28 
f 27//27 28//28 29//29 
f 29//29 28//28 30//30 
f 29//29 30//30 31//31 
f 31//31 30//30 32//32 
f 31//31 32//32 33//33 
f 33//33 32//32 4//4 
f 33//33 4//4 2//2 
f 6//6 34//34 8//8 
f 8//8 34//34 35//35 
f 8//8 35//35 10//10 
f 10//10 35//35 36//36 
f 10//10 36//36 12//12 
f 12//12 36//36 37//37 
f 12//12 37//37 14//14 
f 14//14 37//37 38//38 
f 14//14 38//38 16//16 
f 16//16 38//38 39//39 
f 16//16 39//39 18//18 
f 18//18 39//39 40//40 
f 18//18 40//40 20//20 
f 20//20 40//40 41//41 
f 20//20 41//41 22//22 
f 22//22 41//41 42//42 
f 22//22 42//42 24//24 
f 24//24 42//42 43//43 
f 24//24 43//43 26//26 
f 26//26 43//43 44//44 
f 26//26 44//44 28//28 
f 28//28 44//44 45//45 
f 28//28 45//45 30//30 
f 30//30 45//45 46//46 
f 30//30 46//46 32//32 
f 32//32 46//46 47//47 
f 32//32 47//47 4//4 
f 4//4 47//47 3//3 
f 2//2 1//1 33//33 
f 33//33 1//1 48//48 
f 33//33 48//48 31//31 
f 31//31 48//48 49//49 
f 31//31 49//49 29//29 
f 29//29 49//49 50//50 
f 29//29 50//50 27//27 
f 27//27 50//50 51//51 
f 27//27 51//51 25//25 
f 25//25 51//51 52//52 
f 25//25 52//52 23//23 
f 23//23 52//52 53//53 
f 23//23 53//53 21//21 
f 21//21 53//53 54//54 
f 21//21 54//54 19//19 
f 19//19 54//54 55//55 
f 19//19 55//55 17//17 
f 17//17 55//55 56//56 
f 17//17 56//56 15//15 
f 15//15 56//56 57//57 
f 15//15 57//57 13//13 
f 13//13 57//57 58//58 
f 13//13 58//58 11//11 
f 11//11 58//58 59//59 
f 11//11 59//59 9//9 
f 9//9 59//59 60//60 
f 9//9 60//60 7//7 
f 7//7 60//60 61//61 
f 7//7 61//61 5//5 
f 5//5 61//61 62//62 
f 62//62 61//61 34//34 
f 34//34 61//61 35//35 
f 35//35 61//61 60//60 
f 35//35 60//60 36//36 
f 36//36 60//60 59//59 
f 36//36 59//59 37//37 
f 37//37 59//59 58//58 
f 37//37 58//58 38//38 
f 38//38 58//58 57//57 
f 38//38 57//57 39//39 
f 39//39 57//57 56//56 
f 39//39 56//56 40//40 
f 40//40 56//56 55//55 
f 40//40 55//55 41//41 
f 41//41 55//55 54//54 
f 41//41 54//54 42//42 
f 42//42 54//54 53//53 
f 42//42 53//53 43//43 
f 43//43 53//53 52//52 
f 43//43 52//52 44//44 
f 44//44 52//52 51//51 
f 44//44 51//51 45//45 
f 45//45 51//51 50//50 
f 45//45 50//50 46//46 
f 46//46 50//50 49//49 
f 46//46 49//49 47//47 
f 47//47 49//49 48//48 
f 47//47 48//48 3//3 
f 3//3 48//48 1//1 
f 34//34 6//6 62//62 
f 62//62 6//6 5//5 
