v -56.40820312 0.6666666865 -91.5704422
v -56.40820312 0.1666666716 -91.5704422
v -56.2417984 0.6666666865 -91.57980347
v -56.2417984 0.1666666716 -91.57980347
v -54.52576447 0.1666666716 -93.39511871
v -54.71182632 0.1666666716 -93.3850174
v -54.52576447 0.1666666716 -93.56178284
v -54.72986603 0.1666666716 -93.55070496
v -54.89570236 0.1666666716 -93.35483551
v -54.93157578 0.1666666716 -93.51759338
v -55.07522964 0.1666666716 -93.30492401
v -55.12850952 0.1666666716 -93.46284485
v -55.24829865 0.1666666716 -93.23587036
v -55.31836319 0.1666666716 -93.38709259
v -55.41287613 0.1666666716 -93.14849091
v -55.49889755 0.1666666716 -93.29123688
v -55.56702423 0.1666666716 -93.04380035
v -55.66799545 0.1666666716 -93.17639923
v -55.7089386 0.1666666716 -92.9230423
v -55.82366943 0.1666666716 -93.04393768
v -55.83694077 0.1666666716 -92.7876358
v -55.96408844 0.1666666716 -92.89539337
v -55.94953537 0.1666666716 -92.63916016
v -56.08760071 0.1666666716 -92.73252106
v -56.0453949 0.1666666716 -92.47937775
v -56.19275284 0.1666666716 -92.55724335
v -56.12339401 0.1666666716 -92.31015015
v -56.2783165 0.1666666716 -92.37160492
v -56.18261337 0.1666666716 -92.13347626
v -56.34328079 0.1666666716 -92.17779541
v -56.22236252 0.1666666716 -91.95142365
v -56.38687897 0.1666666716 -91.97809601
v -56.24216843 0.1666666716 -91.7661438
v -56.40860748 0.1666666716 -91.77484894
v -54.52576447 0.6666666865 -93.39511871
v -54.71182632 0.6666666865 -93.3850174
v -54.89570236 0.6666666865 -93.35483551
v -55.07522964 0.6666666865 -93.30492401
v -55.24829865 0.6666666865 -93.23587036
v -55.41287613 0.6666666865 -93.14849091
v -55.56702423 0.6666666865 -93.04380035
v -55.7089386 0.6666666865 -92.9230423
v -55.83694077 0.6666666865 -92.7876358
v -55.94953537 0.6666666865 -92.63916016
v -56.0453949 0.6666666865 -92.47937775
v -56.12339401 0.6666666865 -92.31015015
v -56.18261337 0.6666666865 -92.13347626
v -56.22236252 0.6666666865 -91.95142365
v -56.24216843 0.6666666865 -91.7661438
v -56.40860748 0.6666666865 -91.77484894
v -56.38687897 0.6666666865 -91.97809601
v -56.34328079 0.6666666865 -92.17779541
v -56.2783165 0.6666666865 -92.37160492
v -56.19275284 0.6666666865 -92.55724335
v -56.08760071 0.6666666865 -92.73252106
v -55.96408844 0.6666666865 -92.89539337
v -55.82366943 0.6666666865 -93.04393768
v -55.66799545 0.6666666865 -93.17639923
v -55.49889755 0.6666666865 -93.29123688
v -55.31836319 0.6666666865 -93.38709259
v -55.12850952 0.6666666865 -93.46284485
v -54.93157578 0.6666666865 -93.51759338
v -54.72986603 0.6666666865 -93.55070496
v -54.52576447 0.6666666865 -93.56178284
vn -0.8834551573 0.2876454592 0.3698203862
vn -0.460731864 -0.3227090538 0.8267920017
vn 0.5185012221 0.1568244547 0.8405727744
vn 0.9074460268 -0.1473196894 0.3934954107
vn 0.868373096 -0.1568188071 0.4704636037
vn 0.08534027636 -0.3253317475 0.9417411089
vn 0.3196130395 -0.287642926 -0.902833879
vn -0.120096229 -0.3077562451 -0.9438554049
vn 0.1867815554 -0.3253339529 0.9269684553
vn -0.2215614766 -0.3077578545 -0.9253084064
vn 0.2860396206 -0.3253317475 0.901299417
vn -0.3204391897 -0.307756722 -0.8958820105
vn 0.3819244206 -0.3253339827 0.8650384545
vn -0.4155392647 -0.3077546358 -0.8559288383
vn 0.4733268619 -0.325327754 0.8186107278
vn -0.5057550669 -0.3077536225 -0.8059152961
vn 0.5591768622 -0.3253305554 0.7625491619
vn -0.5900101662 -0.3077628016 -0.7464382648
vn 0.6384219527 -0.325335592 0.6975486875
vn -0.6673569679 -0.3077597618 -0.6781730056
vn 0.7101869583 -0.3253421783 0.6243292093
vn -0.7368570566 -0.3077619672 -0.6019337177
vn 0.7736003399 -0.3253367841 0.5437816381
vn -0.7976859808 -0.3077605069 -0.5186333656
vn 0.827917099 -0.3253341913 0.4568489194
vn -0.849142313 -0.3077569604 -0.4292353988
vn 0.8725112081 -0.3253343105 0.3645295203
vn -0.8906180263 -0.3077574372 -0.3347907364
vn 0.9068443775 -0.3253379762 0.2679336369
vn -0.9216269851 -0.3077628911 -0.236401543
vn 0.9305217266 -0.325329423 0.1681966186
vn -0.9418030977 -0.3077561557 -0.1352519542
vn 0.9042012095 -0.4223276079 0.06371426582
vn -0.9756249785 -0.2168961465 -0.03334617615
vn 0.4438631833 0.1473148465 0.8839026093
vn 0.1193521842 0.3253313303 0.9380376339
vn 0.2201992273 0.3253341615 0.919603169
vn 0.3184620738 0.3253316283 0.8903601766
vn 0.4129649103 0.3253344893 0.8506570458
vn 0.502646327 0.3253265917 0.800942719
vn 0.5863902569 0.3253299296 0.7418267131
vn 0.66324085 0.3253394067 0.673992455
vn 0.7323135734 0.325337857 0.5982241035
vn 0.7927619219 0.3253411353 0.5154432058
vn 0.8439067602 0.3253308535 0.4265925586
vn 0.8851282597 0.3253360689 0.3327226937
vn 0.9159446359 0.3253343999 0.2349530309
vn 0.9359969497 0.3253325522 0.1344190389
vn 0.9059160352 0.4223243296 0.03095571324
vn -0.9737793803 0.2168967873 -0.06862619519
vn -0.936294198 0.3077571094 -0.1692299247
vn -0.9124702215 0.3077608347 -0.2695948184
vn -0.8779224753 0.3077571392 -0.3667937219
vn -0.8330562115 0.3077608943 -0.4596744478
vn -0.7784026861 0.3077566922 -0.547151804
vn -0.7145963907 0.307761699 -0.6281995773
vn -0.6423762441 0.3077625036 -0.7018796206
vn -0.5626263022 0.3077613413 -0.7672904134
vn -0.4762655795 0.3077545166 -0.8236857653
vn -0.384303391 0.3077525795 -0.8704017997
vn -0.287809968 0.3077595234 -0.9068900347
vn -0.1879436076 0.307754606 -0.9327187538
vn -0.08586524427 0.3077596426 -0.947581768
vn 0.7996098399 0.3227058649 -0.5064435601
f 1//1 2//2 3//3 
f 3//3 2//2 4//4 
f 5//5 6//6 7//7 
f 7//7 6//6 8//8 
f 8//8 6//6 9//9 
f 8//8 9//9 10//10 
f 10//10 9//9 11//11 
f 10//10 11//11 12//12 
f 12//12 11//11 13//13 
f 12//12 13//13 14//14 
f 14//14 13//13 15//15 
f 14//14 15//15 16//16 
f 16//16 15//15 17//17 
f 16//16 17//17 18//18 
f 18//18 17//17 19//19 
f 18//18 19//19 20//20 
f 20//20 19//19 21//21 
f 20//20 21//21 22//22 
f 22//22 21//21 23//23 
f 22//22 23//23 24//24 
f 24//24 23//23 25//25 
f 24//24 25//25 26//26 
f 26//26 25//25 27//27 
f 26//26 27//27 28//28 
f 28//28 27//27 29//29 
f 28//28 29//29 30//30 
f 30//30 29//29 31//31 
f 30//30 31//31 32//32 
f 32//32 31//31 33//33 
f 32//32 33//33 34//34 
f 34//34 33//33 2//2 
f 2//2 33//33 4//4 
f 5//5 35//35 6//6 
f 6//6 35//35 36//36 
f 6//6 36//36 9//9 
f 9//9 36//36 37//37 
f 9//9 37//37 11//11 
f 11//11 37//37 38//38 
f 11//11 38//38 13//13 
f 13//13 38//38 39//39 
f 13//13 39//39 15//15 
f 15//15 39//39 40//40 
f 15//15 40//40 17//17 
f 17//17 40//40 41//41 
f 17//17 41//41 19//19 
f 19//19 41//41 42//42 
f 19//19 42//42 21//21 
f 21//21 42//42 43//43 
f 21//21 43//43 23//23 
f 23//23 43//43 44//44 
f 23//23 44//44 25//25 
f 25//25 44//44 45//45 
f 25//25 45//45 27//27 
f 27//27 45//45 46//46 
f 27//27 46//46 29//29 
f 29//29 46//46 47//47 
f 29//29 47//47 31//31 
f 31//31 47//47 48//48 
f 31//31 48//48 33//33 
f 33//33 48//48 49//49 
f 33//33 49//49 4//4 
f 4//4 49//49 3//3 
f 2//2 1//1 34//34 
f 34//34 1//1 50//50 
f 34//34 50//50 32//32 
f 32//32 50//50 51//51 
f 32//32 51//51 30//30 
f 30//30 51//51 52//52 
f 30//30 52//52 28//28 
f 28//28 52//52 53//53 
f 28//28 53//53 26//26 
f 26//26 53//53 54//54 
f 26//26 54//54 24//24 
f 24//24 54//54 55//55 
f 24//24 55//55 22//22 
f 22//22 55//55 56//56 
f 22//22 56//56 20//20 
f 20//20 56//56 57//57 
f 20//20 57//57 18//18 
f 18//18 57//57 58//58 
f 18//18 58//58 16//16 
f 16//16 58//58 59//59 
f 16//16 59//59 14//14 
f 14//14 59//59 60//60 
f 14//14 60//60 12//12 
f 12//12 60//60 61//61 
f 12//12 61//61 10//10 
f 10//10 61//61 62//62 
f 10//10 62//62 8//8 
f 8//8 62//62 63//63 
f 8//8 63//63 7//7 
f 7//7 63//63 64//64 
f 35//35 64//64 36//36 
f 36//36 64//64 63//63 
f 36//36 63//63 37//37 
f 37//37 63//63 62//62 
f 37//37 62//62 38//38 
f 38//38 62//62 61//61 
f 38//38 61//61 39//39 
f 39//39 61//61 60//60 
f 39//39 60//60 40//40 
f 40//40 60//60 59//59 
f 40//40 59//59 41//41 
f 41//41 59//59 58//58 
f 41//41 58//58 42//42 
f 42//42 58//58 57//57 
f 42//42 57//57 43//43 
f 43//43 57//57 56//56 
f 43//43 56//56 44//44 
f 44//44 56//56 55//55 
f 44//44 55//55 45//45 
f 45//45 55//55 54//54 
f 45//45 54//54 46//46 
f 46//46 54//54 53//53 
f 46//46 53//53 47//47 
f 47//47 53//53 52//52 
f 47//47 52//52 48//48 
f 48//48 52//52 51//51 
f 48//48 51//51 49//49 
f 49//49 51//51 50//50 
f 49//49 50//50 1//1 
f 1//1 3//3 49//49 
f 35//35 5//5 64//64 
f 64//64 5//5 7//7 
