v -44.4709816 0.6666666865 -102.8900146
v -44.4709816 0.1666666716 -102.8900146
v -44.63764954 0.6666666865 -102.8900146
v -44.63764954 0.1666666716 -102.8900146
v -44.63764954 0.1666666716 -98.72335052
v -44.63764954 0.6666666865 -98.72335052
v -44.4709816 0.6666666865 -98.72335052
v -44.4709816 0.1666666716 -98.72335052
vn 0.9485118389 0.316173017 -0.01897039264
vn 0.9459620714 -0.3153230846 -0.07567758858
vn -0.9459620714 0.3153230846 -0.07567758858
vn -0.9485118389 -0.316173017 -0.01897039264
vn -0.9459620714 -0.3153230846 0.07567758858
vn -0.9485118389 0.316173017 0.01897039264
vn 0.9459620714 0.3153230846 0.07567758858
vn 0.9485118389 -0.316173017 0.01897039264
f 1//1 2//2 3//3 
f 3//3 2//2 4//4 
f 5//5 6//6 4//4 
f 4//4 6//6 3//3 
f 7//7 1//1 6//6 
f 6//6 1//1 3//3 
f 2//2 8//8 4//4 
f 4//4 8//8 5//5 
f 2//2 1//1 8//8 
f 8//8 1//1 7//7 
f 8//8 7//7 5//5 
f 5//5 7//7 6//6 
