v -44.4709816 0.6666666865 -108.9983749
v -44.4709816 0.1666666716 -108.9983749
v -44.63764954 0.6666666865 -108.98423
v -44.63764954 0.1666666716 -108.98423
v -44.4709816 0.1666666716 -107.2233505
v -44.4709816 0.6666666865 -107.2233505
v -44.63764954 0.1666666716 -107.2233505
v -44.63764954 0.6666666865 -107.2233505
vn 0.9852227569 0.1648619175 -0.0464393422
vn 0.9320354462 -0.3157125711 -0.1778637916
vn -0.8251558542 0.543584466 -0.1537328213
vn -0.9477354884 -0.3159142435 -0.04467234388
vn 0.9481194019 -0.3147829473 0.04451237246
vn 0.8230571151 0.5465226173 0.1545637697
vn -0.9337448478 -0.3112506568 0.1767586321
vn -0.9853207469 0.1642213762 0.04663049802
f 1//1 2//2 3//3 
f 3//3 2//2 4//4 
f 2//2 1//1 5//5 
f 5//5 1//1 6//6 
f 2//2 5//5 4//4 
f 4//4 5//5 7//7 
f 1//1 3//3 6//6 
f 6//6 3//3 8//8 
f 7//7 8//8 4//4 
f 4//4 8//8 3//3 
f 5//5 6//6 7//7 
f 7//7 6//6 8//8 
