v 4.446504116 37.41666794 -76.89001465
v 4.446504116 23.75 -76.89001465
v 4.509004116 37.41666794 -76.89001465
v 4.509004116 23.75 -76.89001465
v 4.446504116 37.41666794 -84.59835052
v 4.509004116 37.41666794 -84.59835052
v 4.446504116 23.75 -77.97335052
v 4.509004116 23.75 -77.97335052
v 4.509004116 31.75 -77.97335052
v 4.446504116 31.75 -77.97335052
v 4.509004116 23.75 -84.59835052
v 4.509004116 23.75 -83.97335052
v 4.446504116 23.75 -84.59835052
v 4.446504116 23.75 -83.97335052
v 4.509004116 31.75 -83.97335052
v 4.446504116 31.75 -83.97335052
vn -0.9997577071 0.01647070609 0.0146010546
vn -0.9973578453 -0.002876993502 0.07258859277
vn 0.9995397925 0.008233558387 0.02919574454
vn 0.9993219376 -0.005765318405 0.03636577353
vn -0.9997881651 0.005586364307 -0.01980894245
vn 0.9998884797 0.01117384993 -0.009905464947
vn -0.9982185364 -0.01559716463 -0.05758939311
vn 0.9933790565 -0.007760773879 -0.1146203876
vn 0.9999603033 -0.007414225955 -0.004942817613
vn -0.9999442697 -0.003707053605 -0.009885475971
vn 0.9921323061 -0.002861919813 -0.1251613051
vn 0.9949169755 -0.01554557774 0.09949169308
vn -0.9980000257 -0.00575769227 -0.06295077503
vn -0.9805518985 -0.007660561707 0.1961103827
vn 0.9997477531 -0.007885826752 0.02102887072
vn -0.999820292 -0.01577279717 0.01051519904
f 1//1 2//2 3//3 
f 3//3 2//2 4//4 
f 5//5 1//1 6//6 
f 6//6 1//1 3//3 
f 2//2 7//7 4//4 
f 4//4 7//7 8//8 
f 9//9 8//8 10//10 
f 10//10 8//8 7//7 
f 11//11 12//12 13//13 
f 13//13 12//12 14//14 
f 3//3 9//9 6//6 
f 6//6 9//9 15//15 
f 6//6 15//15 11//11 
f 11//11 15//15 12//12 
f 3//3 4//4 9//9 
f 9//9 4//4 8//8 
f 10//10 16//16 9//9 
f 9//9 16//16 15//15 
f 2//2 1//1 10//10 
f 10//10 1//1 5//5 
f 10//10 5//5 16//16 
f 16//16 5//5 13//13 
f 16//16 13//13 14//14 
f 10//10 7//7 2//2 
f 16//16 14//14 15//15 
f 15//15 14//14 12//12 
f 13//13 5//5 11//11 
f 11//11 5//5 6//6 
