v 0.4428435564 26.0720005 -128.0124664
v 0.4428435564 25.79166603 -128.0124664
v 0.8732898235 26.0720005 -128.809967
v 0.8732898235 25.79166603 -128.809967
v 0.8755631447 26.07458305 -128.8087311
v 0.4451169074 26.07458305 -128.0112305
v 0.8749747276 26.07449532 -128.8090515
v 0.4445285201 26.07449532 -128.0115509
v 0.8744264841 26.07423782 -128.8093414
v 0.4439802468 26.07423782 -128.0118561
v 0.873955667 26.07382584 -128.8096008
v 0.4435093999 26.07382584 -128.0121002
v 0.8735943437 26.07329178 -128.8097992
v 0.4431481361 26.07329178 -128.0122986
v 0.87336725 26.07266808 -128.8099213
v 0.4429210424 26.07266808 -128.0124207
v 0.8655897975 26.0720005 -128.8141174
v 0.4351435602 26.0720005 -128.0166168
v 0.8659296632 26.07493401 -128.8139343
v 0.4354833961 26.07493401 -128.0164337
v 0.8669259548 26.07766724 -128.8134003
v 0.4364797473 26.07766724 -128.0158997
v 0.8685109019 26.08001328 -128.8125458
v 0.4380646944 26.08001328 -128.0150452
v 0.8705765009 26.08181572 -128.8114319
v 0.4401302338 26.08181572 -128.0139313
v 0.8729818463 26.08294678 -128.8101349
v 0.442535609 26.08294678 -128.0126343
v 0.8755631447 26.08333397 -128.8087311
v 0.4451169074 26.08333397 -128.0112305
v 0.8655897975 25.79166603 -128.8141174
v 0.4351435602 25.79166603 -128.0166168
v 0.9214352965 26.07458305 -128.2157898
v 0.9214352965 26.08333397 -128.2157898
v 0.8790923357 26.07458305 -128.2031403
v 0.8790923357 26.08333397 -128.2031403
v 0.723259151 26.07458305 -128.2872467
v 0.723259151 26.08333397 -128.2872467
v 1.021422982 26.07458305 -128.730011
v 1.084707975 26.07458305 -128.5182953
v 0.5451434851 26.07458305 -127.9572449
v 1.084707975 26.08333397 -128.5182953
v 0.5451434851 26.08333397 -127.9572449
v 1.021422982 26.08333397 -128.730011
v 0.6605677605 25.81249046 -127.5350952
v 0.6605677605 26.05207253 -127.5350952
v 0.7705676556 25.81249046 -127.4757233
v 0.7705676556 26.05207253 -127.4757233
v 0.630881846 25.81249046 -127.4800949
v 0.630881846 26.05207253 -127.4800949
v 0.740881741 25.81249046 -127.420723
v 0.740881741 26.05207253 -127.420723
v 2.532963514 26.05208397 -126.4534607
v 2.532963514 26.08333397 -126.4534607
v 2.367963552 26.05208397 -126.5425186
v 2.367963552 26.08333397 -126.5425186
v 2.46254468 26.08333397 -126.5861664
v 2.46254468 25.8125 -126.5861664
v 2.407544851 26.08333397 -126.6158524
v 2.407544851 25.8125 -126.6158524
v 2.523893356 26.08333397 -126.6998291
v 2.523893356 25.8125 -126.6998291
v 2.642486572 26.08333397 -126.7660294
v 2.642486572 25.8125 -126.7660294
v 2.688319921 26.08333397 -126.7412949
v 2.688319921 25.8125 -126.7412949
v 2.532963514 25.8125 -126.4534607
v 2.367963552 25.8125 -126.5425186
v 1.080048084 25.8125 -127.2376633
v 0.5942152143 25.72500038 -127.4998856
v 0.5942152143 26.05208397 -127.4998856
v 1.080048084 26.05208397 -127.2376633
v 1.245047927 26.05208397 -127.1486053
v 1.245047927 25.8125 -127.1486053
v 4.27004528 25.72500038 -125.5158768
v 4.105045319 25.8125 -125.6049347
v 4.105045319 26.05208397 -125.6049347
v 4.27004528 25.8125 -125.5158768
v 1.245047927 26.08333397 -127.1486053
v 1.080048084 26.08333397 -127.2376633
v 1.174629331 26.08333397 -127.281311
v 1.174629331 25.8125 -127.281311
v 1.119629383 26.08333397 -127.310997
v 1.119629383 25.8125 -127.310997
v 1.235977769 26.08333397 -127.3949738
v 1.235977769 25.8125 -127.3949738
v 1.354571104 26.08333397 -127.461174
v 1.354571104 25.8125 -127.461174
v 1.400404334 26.08333397 -127.4364395
v 1.400404334 25.8125 -127.4364395
v 4.27004528 26.05208397 -125.5158768
v 4.27004528 26.08333397 -125.5158768
v 4.105045319 26.08333397 -125.6049347
v 4.199626446 26.08333397 -125.6485825
v 4.199626446 25.8125 -125.6485825
v 4.144626617 26.08333397 -125.6782684
v 4.144626617 25.8125 -125.6782684
v 4.260974884 26.08333397 -125.7622452
v 4.260974884 25.8125 -125.7622452
v 4.379568577 26.08333397 -125.8284531
v 4.379568577 25.8125 -125.8284531
v 4.425401688 26.08333397 -125.8037109
v 4.425401688 25.8125 -125.8037109
v 0.5912466049 26.05208397 -127.4943924
v 0.5912466049 25.71875 -127.4943924
v 4.267076492 26.05208397 -125.510376
v 4.267076492 25.71875 -125.510376
v 0.6624928713 25.72500038 -127.6263885
v 4.338322639 25.72500038 -125.6423798
v 0.6624928713 25.78125 -127.6263885
v 4.338322639 25.78125 -125.6423798
v 0.6654614806 25.78125 -127.6318893
v 4.341291428 25.78125 -125.6478806
v 0.6654614806 25.71875 -127.6318893
v 4.341291428 25.71875 -125.6478806
vn 0.8704817295 -0.0003198908526 0.4922006726
vn 0.8772701025 -0.03118758462 0.478982836
vn 0.8845844865 -0.0003199215862 0.4663798213
vn 0.8841126561 -0.03118680045 0.4662319422
vn 0.003973660059 -0.9999710321 -0.006489082705
vn -0.00549981324 -0.999907136 0.01246981137
vn 0.1995532215 -0.9762496352 0.08435115218
vn 0.260894388 -0.9539818764 0.1478266865
vn 0.4084497094 -0.88746351 0.2134884298
vn 0.4635412991 -0.8429070115 0.2731980979
vn 0.6044749022 -0.7366509438 0.3032416105
vn 0.6466477513 -0.6751179099 0.355052799
vn 0.7438450456 -0.5388152003 0.3954399824
vn 0.7709890604 -0.4618159235 0.4385224581
vn 0.8549906611 -0.3013065159 0.4221437275
vn 0.8569179773 -0.2180436552 0.4670637548
vn -0.8753734231 0.001362776384 -0.4834454954
vn -0.882304728 0.001362835173 -0.4706766605
vn -0.8561261892 0.2159824818 -0.4694673121
vn -0.8394513726 0.3005386889 -0.4527669847
vn -0.77733922 0.4612475634 -0.427778393
vn -0.7467910051 0.5373782516 -0.3918262422
vn -0.6457692981 0.6753817797 -0.3561480641
vn -0.597827971 0.7372533083 -0.3147367239
vn -0.4694033563 0.8431141376 -0.2623337805
vn -0.4099027812 0.8870867491 -0.212266013
vn -0.2608166039 0.9537030458 -0.1497503221
vn -0.1939049214 0.9763419032 -0.09569386393
vn 0.003947156016 0.9998821616 -0.01483568363
vn -0.005388774909 0.9999729991 0.005000285804
vn -0.874948442 -0.03118641116 -0.4832107723
vn -0.8885707855 -0.03118252382 -0.4576784968
vn 0.06982847303 -0.9966868758 0.04170398787
vn 0.03714218736 0.998914957 0.02809516899
vn -0.08661131561 -0.9311366677 0.3542357981
vn -0.2099087685 0.8530880213 0.477681011
vn 0.003521835897 -0.9999369383 0.01066161878
vn 0.0125352079 0.999859333 0.01114580035
vn 0.01802150905 -0.9996873736 -0.01733067259
vn 0.03900014982 -0.9992372394 0.001971811289
vn 0.1229347438 -0.9880893826 0.09255491197
vn 0.04386456311 0.998937428 0.01413912512
vn 0.04539967328 0.9959716797 0.07732599974
vn 0.0245122388 0.9996110797 -0.01329850685
vn -0.2816470265 -0.1814038903 -0.942214191
vn 0.2454045713 0.1255405396 -0.9612575769
vn 0.6536180973 -0.2453474849 -0.7159525156
vn 0.8988898993 0.3461236656 -0.2686920166
vn 0.07928277552 -0.3832858205 -0.9202207327
vn -0.6135671139 0.4435974956 -0.6532661915
vn 0.6509391665 -0.05562277511 -0.7570893764
vn 0.5440467 0.04212307557 -0.8379969001
vn 0.644454658 0.01420691423 -0.7645105124
vn 0.04614578933 0.9778549075 0.2041331828
vn 0.3335927427 0.1176941842 -0.9353416562
vn -0.2328092456 0.9557564855 0.1798037142
vn -0.6614497304 0.4569537342 -0.5947079062
vn -0.2405215651 -0.604890883 -0.7591155171
vn -0.1428667158 0.1225258261 -0.9821285605
vn -0.6378962994 -0.113041468 -0.7617807388
vn -0.545090735 0.5152865648 -0.6613288522
vn -0.6588427424 -0.5221104026 -0.5415966511
vn -0.07889414579 0.103897959 -0.9914539456
vn -0.3546220958 -0.07257351279 -0.9321889281
vn 0.8493632078 0.4249411821 0.3130609393
vn 0.9125435352 -0.2666992843 0.3100576997
vn 0.580655098 -0.1190771684 -0.8053944707
vn 0.4589177072 -0.01886339299 -0.8882784843
vn 0.3971531987 -0.08806532621 -0.9135172963
vn 0.1943249851 0.9086487889 -0.3695878983
vn 0.393268913 0.1438661516 -0.908098042
vn -0.01542926766 0.04991468042 -0.9986342788
vn 0.7028903365 0.01448743604 -0.7111507058
vn 0.6155458093 -0.1626410782 -0.7711363435
vn 0.3248842359 0.7345828414 -0.5956830382
vn 0.4577175081 -0.02024313994 -0.8888671994
vn 0.3771802187 0.02945357561 -0.9256713986
vn 0.7232564092 -0.6537092924 0.2226305455
vn 0.04614582285 0.9778549075 0.2041332424
vn -0.2328090966 0.9557566047 0.179803431
vn -0.661450386 0.456953615 -0.5947073102
vn -0.2405216694 -0.6048904061 -0.7591158748
vn -0.1428664923 0.1225258484 -0.9821286201
vn -0.6378959417 -0.1130415946 -0.7617810369
vn -0.5450908542 0.5152861476 -0.661329031
vn -0.6588432193 -0.5221102834 -0.5415962338
vn -0.07889419049 0.1038979366 -0.9914539456
vn -0.3546219766 -0.07257342339 -0.9321889877
vn 0.8493631482 0.4249410927 0.3130612075
vn 0.912543416 -0.2666992247 0.3100580275
vn 0.863940537 0.00655610254 0.5035511851
vn 0.04614576697 0.9778549075 0.2041330934
vn -0.2328092456 0.9557564855 0.1798037142
vn -0.6614505053 0.4569538534 -0.5947070122
vn -0.2405218333 -0.6048910618 -0.7591153383
vn -0.1428667158 0.1225258261 -0.9821285605
vn -0.6378962994 -0.113041468 -0.7617807388
vn -0.5451109409 0.5152842402 -0.6613140106
vn -0.6588487625 -0.5221123099 -0.5415875316
vn -0.07885821164 0.1039197966 -0.9914545417
vn -0.3546428978 -0.07258783281 -0.9321799278
vn 0.8493639231 0.4249441326 0.3130548894
vn 0.9125454426 -0.2667004764 0.3100510836
vn -0.4773959816 0.02778270841 0.87824893
vn -0.4309459925 -0.4244346321 0.7963295579
vn -0.4737961888 0.01422626898 0.8805196285
vn -0.428004086 -0.4244413376 0.7979110479
vn -0.2946192026 0.7875108719 0.5413188934
vn -0.09001842886 0.9813926816 0.1696026772
vn -0.4649464786 0.2169564813 0.8583441377
vn -0.4735857546 0.05547741055 0.8789987564
vn 0.4731321335 0.04994322732 -0.8795747161
vn 0.4682005942 0.1961380392 -0.8615788221
vn 0.173566401 -0.9284696579 -0.3283577263
vn 0.1778184026 -0.9284762144 -0.3260561228
f 1//1 2//2 3//3 
f 3//3 2//2 4//4 
f 5//5 6//6 7//7 
f 7//7 6//6 8//8 
f 7//7 8//8 9//9 
f 9//9 8//8 10//10 
f 9//9 10//10 11//11 
f 11//11 10//10 12//12 
f 11//11 12//12 13//13 
f 13//13 12//12 14//14 
f 13//13 14//14 15//15 
f 15//15 14//14 16//16 
f 15//15 16//16 3//3 
f 3//3 16//16 1//1 
f 17//17 18//18 19//19 
f 19//19 18//18 20//20 
f 19//19 20//20 21//21 
f 21//21 20//20 22//22 
f 21//21 22//22 23//23 
f 23//23 22//22 24//24 
f 23//23 24//24 25//25 
f 25//25 24//24 26//26 
f 25//25 26//26 27//27 
f 27//27 26//26 28//28 
f 27//27 28//28 29//29 
f 29//29 28//28 30//30 
f 4//4 2//2 31//31 
f 31//31 2//2 32//32 
f 33//33 34//34 35//35 
f 35//35 34//34 36//36 
f 35//35 36//36 37//37 
f 37//37 36//36 38//38 
f 6//6 5//5 37//37 
f 37//37 5//5 39//39 
f 37//37 39//39 40//40 
f 40//40 33//33 37//37 
f 37//37 33//33 35//35 
f 37//37 41//41 6//6 
f 40//40 42//42 33//33 
f 33//33 42//42 34//34 
f 43//43 38//38 30//30 
f 30//30 38//38 29//29 
f 29//29 38//38 44//44 
f 44//44 38//38 42//42 
f 42//42 38//38 34//34 
f 34//34 38//38 36//36 
f 4//4 31//31 3//3 
f 3//3 31//31 17//17 
f 3//3 17//17 19//19 
f 19//19 21//21 3//3 
f 3//3 21//21 15//15 
f 15//15 21//21 23//23 
f 15//15 23//23 25//25 
f 27//27 11//11 25//25 
f 25//25 11//11 13//13 
f 25//25 13//13 15//15 
f 29//29 7//7 27//27 
f 27//27 7//7 9//9 
f 27//27 9//9 11//11 
f 44//44 39//39 29//29 
f 29//29 39//39 5//5 
f 29//29 5//5 7//7 
f 42//42 40//40 44//44 
f 44//44 40//40 39//39 
f 43//43 41//41 38//38 
f 38//38 41//41 37//37 
f 2//2 1//1 32//32 
f 32//32 1//1 18//18 
f 18//18 1//1 22//22 
f 18//18 22//22 20//20 
f 16//16 26//26 1//1 
f 1//1 26//26 24//24 
f 1//1 24//24 22//22 
f 16//16 14//14 26//26 
f 26//26 14//14 28//28 
f 28//28 14//14 12//12 
f 28//28 12//12 10//10 
f 28//28 10//10 30//30 
f 30//30 10//10 8//8 
f 30//30 8//8 6//6 
f 41//41 43//43 6//6 
f 6//6 43//43 30//30 
f 32//32 18//18 31//31 
f 31//31 18//18 17//17 
f 45//45 46//46 47//47 
f 47//47 46//46 48//48 
f 49//49 50//50 45//45 
f 45//45 50//50 46//46 
f 47//47 48//48 51//51 
f 51//51 48//48 52//52 
f 52//52 48//48 50//50 
f 50//50 48//48 46//46 
f 51//51 49//49 47//47 
f 47//47 49//49 45//45 
f 53//53 54//54 55//55 
f 55//55 54//54 56//56 
f 57//57 58//58 59//59 
f 59//59 58//58 60//60 
f 61//61 62//62 57//57 
f 57//57 62//62 58//58 
f 63//63 64//64 61//61 
f 61//61 64//64 62//62 
f 65//65 66//66 63//63 
f 63//63 66//66 64//64 
f 67//67 66//66 53//53 
f 53//53 66//66 65//65 
f 53//53 65//65 54//54 
f 60//60 58//58 68//68 
f 68//68 58//58 67//67 
f 67//67 58//58 62//62 
f 67//67 62//62 66//66 
f 66//66 62//62 64//64 
f 56//56 59//59 55//55 
f 55//55 59//59 60//60 
f 55//55 60//60 68//68 
f 59//59 56//56 57//57 
f 57//57 56//56 54//54 
f 57//57 54//54 61//61 
f 61//61 54//54 65//65 
f 61//61 65//65 63//63 
f 52//52 69//69 51//51 
f 51//51 69//69 70//70 
f 51//51 70//70 49//49 
f 49//49 70//70 71//71 
f 49//49 71//71 50//50 
f 50//50 71//71 52//52 
f 52//52 71//71 72//72 
f 52//52 72//72 69//69 
f 55//55 68//68 73//73 
f 73//73 68//68 74//74 
f 74//74 68//68 70//70 
f 74//74 70//70 69//69 
f 70//70 68//68 75//75 
f 75//75 68//68 67//67 
f 75//75 67//67 76//76 
f 76//76 67//67 53//53 
f 76//76 53//53 77//77 
f 76//76 78//78 75//75 
f 73//73 79//79 72//72 
f 72//72 79//79 80//80 
f 81//81 82//82 83//83 
f 83//83 82//82 84//84 
f 85//85 86//86 81//81 
f 81//81 86//86 82//82 
f 87//87 88//88 85//85 
f 85//85 88//88 86//86 
f 89//89 90//90 87//87 
f 87//87 90//90 88//88 
f 74//74 90//90 73//73 
f 73//73 90//90 89//89 
f 73//73 89//89 79//79 
f 84//84 82//82 69//69 
f 69//69 82//82 74//74 
f 74//74 82//82 86//86 
f 74//74 86//86 90//90 
f 90//90 86//86 88//88 
f 80//80 83//83 72//72 
f 72//72 83//83 84//84 
f 72//72 84//84 69//69 
f 83//83 80//80 81//81 
f 81//81 80//80 79//79 
f 81//81 79//79 85//85 
f 85//85 79//79 89//89 
f 85//85 89//89 87//87 
f 91//91 92//92 77//77 
f 77//77 92//92 93//93 
f 94//94 95//95 96//96 
f 96//96 95//95 97//97 
f 98//98 99//99 94//94 
f 94//94 99//99 95//95 
f 100//100 101//101 98//98 
f 98//98 101//101 99//99 
f 102//102 103//103 100//100 
f 100//100 103//103 101//101 
f 97//97 95//95 76//76 
f 76//76 95//95 78//78 
f 78//78 95//95 99//99 
f 78//78 99//99 103//103 
f 103//103 99//99 101//101 
f 93//93 96//96 77//77 
f 77//77 96//96 97//97 
f 77//77 97//97 76//76 
f 96//96 93//93 94//94 
f 94//94 93//93 92//92 
f 94//94 92//92 98//98 
f 98//98 92//92 102//102 
f 98//98 102//102 100//100 
f 104//104 105//105 106//106 
f 106//106 105//105 107//107 
f 71//71 104//104 72//72 
f 72//72 104//104 73//73 
f 73//73 104//104 55//55 
f 55//55 104//104 106//106 
f 55//55 106//106 53//53 
f 53//53 106//106 77//77 
f 77//77 106//106 91//91 
f 108//108 70//70 109//109 
f 109//109 70//70 75//75 
f 110//110 108//108 111//111 
f 111//111 108//108 109//109 
f 112//112 110//110 113//113 
f 113//113 110//110 111//111 
f 105//105 70//70 114//114 
f 114//114 70//70 108//108 
f 114//114 108//108 112//112 
f 112//112 108//108 110//110 
f 105//105 104//104 70//70 
f 70//70 104//104 71//71 
f 107//107 105//105 115//115 
f 115//115 105//105 114//114 
f 113//113 109//109 115//115 
f 115//115 109//109 75//75 
f 115//115 75//75 107//107 
f 107//107 75//75 78//78 
f 107//107 78//78 106//106 
f 106//106 78//78 91//91 
f 91//91 78//78 103//103 
f 91//91 103//103 102//102 
f 113//113 111//111 109//109 
f 102//102 92//92 91//91 
f 114//114 112//112 115//115 
f 115//115 112//112 113//113 
