v -82.38317871 20.91666603 -104.7101593
v -82.38317871 14.16666698 -104.7101593
v -82.63957214 20.91666603 -104.2069626
v -82.63957214 14.16666698 -104.2069626
v -72.63930511 14.16666698 -76.41190338
v -73.02342224 14.16666698 -76.2796402
v -71.06896973 23.41666603 -71.85131073
v -77.67321014 23.41666603 -91.03141022
v -71.45308685 23.41666603 -71.71904755
v -78.05732727 23.41666603 -90.89914703
v -71.06896973 13.2017889 -71.85131073
v -77.67321014 20.91666603 -91.03141022
v -78.05732727 20.91666603 -90.89914703
v -71.45308685 13.2017889 -71.71904755
vn 0.9288451076 0.1210993081 -0.3501166999
vn 0.9361441731 -0.08177527785 -0.3419749439
vn -0.960329175 0.05683011934 0.2730167806
vn -0.9477109313 -0.04036394134 0.3165671825
vn 0.9442495704 -0.03763678297 -0.327072233
vn -0.9440315962 -0.06144922599 0.324080795
vn 0.9544649124 0.02987894043 -0.2968232334
vn 0.8928574324 0.3090304136 -0.327575624
vn -0.938831687 0.05969757959 0.3391625583
vn -0.9454094768 0.1602710634 0.2837501466
vn 0.9667797685 -0.03962415457 -0.2525209188
vn 0.9441952109 0.01117366552 -0.3291967511
vn -0.9459173083 0.02226354368 0.3236429989
vn -0.8828876019 -0.07838948071 0.4629951715
f 1//1 2//2 3//3 
f 3//3 2//2 4//4 
f 5//5 6//6 2//2 
f 2//2 6//6 4//4 
f 7//7 8//8 9//9 
f 9//9 8//8 10//10 
f 11//11 5//5 7//7 
f 7//7 5//5 12//12 
f 7//7 12//12 8//8 
f 5//5 2//2 12//12 
f 12//12 2//2 1//1 
f 8//8 12//12 10//10 
f 10//10 12//12 13//13 
f 11//11 7//7 14//14 
f 14//14 7//7 9//9 
f 14//14 9//9 6//6 
f 6//6 9//9 13//13 
f 6//6 13//13 4//4 
f 4//4 13//13 3//3 
f 9//9 10//10 13//13 
f 12//12 1//1 13//13 
f 13//13 1//1 3//3 
f 11//11 14//14 5//5 
f 5//5 14//14 6//6 
