v -57.99245453 13.5 -152.3731537
v -57.99245453 14.16666698 -152.3731537
v -82.33381653 13.5 -104.6005325
v -82.33381653 14.16666698 -104.6005325
v -58.43795776 13.5 -152.6001434
v -82.77931976 13.5 -104.8275299
v -58.43795776 14.16666698 -152.6001434
v -82.77931976 14.16666698 -104.8275299
v -58.02698135 14.12791634 -152.3907471
v -58.02698135 13.53874969 -152.3907471
v -82.36834717 14.12791634 -104.6181259
v -82.36834717 13.53874969 -104.6181259
v -58.40343094 14.12791634 -152.58255
v -58.40343094 13.53874969 -152.58255
v -82.74479675 13.53874969 -104.8099365
v -82.74479675 14.12791634 -104.8099365
vn 0.7134971619 -0.5999971628 0.3618358374
vn 0.8345446587 0.3511216938 0.4245571196
vn 0.7125760317 -0.5999991298 0.363643378
vn 0.4937625825 0.8320493102 0.2527696788
vn -0.7124927044 -0.5999990702 -0.3638065755
vn -0.7136612535 -0.5999994278 -0.3615083396
vn -0.4936470389 0.8320490718 -0.2529959083
vn -0.8346411586 0.35112378 -0.4243656993
vn -0.7230866551 -0.5827541947 -0.3708682358
vn -0.8383261561 0.3375138342 -0.4281280339
vn -0.7244151235 -0.5827569366 -0.3682622612
vn -0.5102986097 0.8202921152 -0.2582947612
vn 0.7243019938 -0.5827570558 0.3684844375
vn 0.5101395249 0.8202925324 0.2586075366
vn 0.8384566307 0.3375163376 0.4278705716
vn 0.7233116627 -0.5827578902 0.3704233766
f 1//1 2//2 3//3 
f 3//3 2//2 4//4 
f 1//1 3//3 5//5 
f 5//5 3//3 6//6 
f 2//2 7//7 4//4 
f 4//4 7//7 8//8 
f 9//9 10//10 11//11 
f 11//11 10//10 12//12 
f 2//2 9//9 7//7 
f 7//7 9//9 13//13 
f 7//7 13//13 14//14 
f 2//2 1//1 9//9 
f 9//9 1//1 10//10 
f 10//10 1//1 5//5 
f 10//10 5//5 14//14 
f 14//14 5//5 7//7 
f 10//10 14//14 12//12 
f 12//12 14//14 15//15 
f 9//9 11//11 13//13 
f 13//13 11//11 16//16 
f 6//6 16//16 8//8 
f 8//8 16//16 11//11 
f 8//8 11//11 4//4 
f 4//4 11//11 12//12 
f 4//4 12//12 3//3 
f 3//3 12//12 6//6 
f 6//6 12//12 15//15 
f 6//6 15//15 16//16 
f 14//14 13//13 15//15 
f 15//15 13//13 16//16 
f 7//7 5//5 8//8 
f 8//8 5//5 6//6 
