v -79.44444275 0.8893783689 -100.4469223
v -79.44444275 0.1666666716 -100.4469223
v -79.75961304 0.8893783689 -100.3384018
v -79.75961304 0.1666666716 -100.3384018
v -79.0116272 0.1666666716 -98.16606903
v -78.69644928 0.1666666716 -98.27458954
v -73.37628174 10.42073154 -82.82359314
v -73.5480423 12.25406551 -83.32242584
v -73.69145203 10.42073154 -82.71507263
v -73.86321259 12.25406551 -83.21389771
vn 0.8963147998 0.1556467563 -0.4152034223
vn 0.6117889285 -0.6631172299 -0.4312653244
vn -0.9592534304 0.07882633805 0.2713287771
vn -0.8937656879 -0.4152328074 0.1696013063
vn -0.8959510922 -0.1844486445 0.4040424824
vn 0.9446589351 -0.295796901 -0.1418578029
vn 0.9593204856 -0.07041023672 -0.2733982801
vn 0.9102743268 0.1605234742 -0.3816187084
vn -0.8962567449 -0.1391932368 0.4211283922
vn -0.9442115426 0.2940757871 0.1482699364
f 1//1 2//2 3//3 
f 3//3 2//2 4//4 
f 4//4 2//2 5//5 
f 5//5 2//2 6//6 
f 2//2 1//1 6//6 
f 6//6 1//1 7//7 
f 7//7 1//1 8//8 
f 7//7 9//9 6//6 
f 6//6 9//9 5//5 
f 4//4 5//5 3//3 
f 3//3 5//5 9//9 
f 3//3 9//9 10//10 
f 3//3 10//10 1//1 
f 1//1 10//10 8//8 
f 10//10 9//9 8//8 
f 8//8 9//9 7//7 
