v -86.61019897 1.100000024 -150.91008
v -86.61019897 1.016666651 -150.91008
v -86.61508942 1.098580241 -150.9004822
v -86.61508942 1.018086433 -150.9004822
v -86.61965179 1.094417691 -150.8915253
v -86.61965179 1.022248983 -150.8915253
v -86.6235733 1.087796092 -150.8838348
v -86.6235733 1.028870583 -150.8838348
v -86.62657928 1.079166651 -150.8779297
v -86.62657928 1.037500024 -150.8779297
v -86.62847137 1.069117427 -150.8742218
v -86.62847137 1.047549248 -150.8742218
v -86.62911224 1.058333278 -150.8729553
v -85.74998474 1.100000024 -150.4717865
v -85.75487518 1.098580241 -150.4621735
v -85.75943756 1.094417691 -150.4532166
v -85.76335907 1.087796092 -150.4455261
v -85.76636505 1.079166651 -150.4396362
v -85.76825714 1.069117427 -150.4359283
v -85.76889801 1.058333278 -150.4346619
v -85.76825714 1.047549248 -150.4359283
v -85.76636505 1.037500024 -150.4396362
v -85.76335907 1.028870583 -150.4455261
v -85.75943756 1.022248983 -150.4532166
v -85.75487518 1.018086433 -150.4621735
v -85.74998474 1.016666651 -150.4717865
v -85.69094086 1.113740683 -150.4416962
v -85.70999908 1.106154561 -150.451416
v -85.69532776 1.112437963 -150.431839
v -85.72447205 1.10208118 -150.4466858
v -85.72827911 1.098005295 -150.4373474
v -85.72980499 1.101545811 -150.4615021
v -85.73100281 1.091521621 -150.4290466
v -85.73244476 1.083071947 -150.422348
v -85.73251343 1.073232055 -150.4177094
v -85.7312088 1.062672496 -150.415451
v -85.72861481 1.052112937 -150.4157257
v -85.72490692 1.042273045 -150.4185028
v -85.72033691 1.033823371 -150.4236145
v -85.71522522 1.027339697 -150.4306946
v -85.70990753 1.023263812 -150.4392548
v -85.7197113 1.018985391 -150.4563599
v -85.69001007 1.025898457 -150.4412231
v -85.6614151 1.037277818 -150.426651
v -85.66681671 1.038580418 -150.4172974
v -85.67285156 1.042399764 -150.4091034
v -85.6791153 1.048475504 -150.4026031
v -85.68518066 1.056393504 -150.3982697
v -85.69062805 1.065614223 -150.3963776
v -85.69509125 1.075509191 -150.397049
v -85.69826508 1.085404277 -150.4002686
v -85.69993591 1.094624996 -150.4057922
v -85.69998932 1.102542996 -150.4132385
v -85.69841766 1.108618736 -150.4221344
v -82.15389252 2.74312973 -148.6394806
v -82.18341827 2.819592714 -148.6545258
v -82.18781281 2.818289995 -148.6446686
v -82.19089508 2.81447053 -148.634964
v -82.19246674 2.808394909 -148.6260681
v -82.19242096 2.800476789 -148.6186218
v -82.19075012 2.791256189 -148.6130981
v -82.18757629 2.781361103 -148.6098785
v -82.18310547 2.771466017 -148.6092072
v -82.17765808 2.762245417 -148.6110992
v -82.17159271 2.754327297 -148.6154327
v -82.16532898 2.748251677 -148.621933
v -82.15929413 2.744432449 -148.630127
v -81.26416016 2.75 -148.186142
v -81.26416016 2.833333254 -148.186142
v -81.2690506 2.751419783 -148.1765289
v -81.2690506 2.831913471 -148.1765289
v -81.27361298 2.755582333 -148.167572
v -81.27361298 2.82775116 -148.167572
v -81.27753448 2.762203932 -148.1598969
v -81.27753448 2.82112956 -148.1598969
v -81.28054047 2.770833254 -148.1539917
v -81.28054047 2.8125 -148.1539917
v -81.28243256 2.780882597 -148.1502838
v -81.28243256 2.802450895 -148.1502838
v -81.28307343 2.791666746 -148.1490173
v -82.12437439 2.75 -148.6244354
v -82.12437439 2.833333254 -148.6244354
v -82.13446045 2.749227047 -148.6295776
v -82.14455414 2.831787586 -148.6347198
v -82.1443634 2.746922731 -148.6346283
v -82.16435242 2.827178717 -148.6448212
v -82.12926483 2.831913471 -148.6148376
v -82.15916443 2.828471899 -148.6300659
v -82.1629715 2.824395895 -148.6207275
v -82.16568756 2.81791234 -148.6124268
v -82.16713715 2.809462547 -148.6057281
v -82.16720581 2.799622774 -148.6011047
v -82.16590118 2.789063215 -148.5988464
v -82.16330719 2.778503656 -148.5991058
v -82.1595993 2.768663645 -148.6018982
v -82.1550293 2.76021409 -148.6069946
v -82.1499176 2.753730297 -148.6140747
v -82.14459991 2.749654531 -148.6226501
v -82.12926483 2.751419783 -148.6148376
v -82.13382721 2.755582333 -148.6058807
v -82.13774872 2.762203932 -148.5981903
v -82.1407547 2.770833254 -148.5922852
v -82.14264679 2.780882597 -148.5885773
v -82.14328766 2.791666746 -148.5873108
v -82.14264679 2.802450895 -148.5885773
v -82.1407547 2.8125 -148.5922852
v -82.13774872 2.82112956 -148.5981903
v -82.13382721 2.82775116 -148.6058807
vn 0.4450833797 0.1304599345 -0.8859350681
vn 0.43029055 -0.1303487122 -0.8932296634
vn -0.2093035579 0.9504128098 0.230016306
vn -0.1661623269 -0.9734613299 0.1573630571
vn -0.304710269 0.8413510323 0.4464080036
vn -0.2619431019 -0.8856123686 0.3835055828
vn -0.3777271509 0.6746090651 0.6342119575
vn -0.339810729 -0.7370585799 0.5841860771
vn -0.4264906347 0.4615050256 0.7778938413
vn -0.39817366 -0.5373171568 0.7434702516
vn -0.4516008198 0.2161976099 0.865629971
vn -0.4363696873 -0.3009185493 0.8479560614
vn -0.4544202089 -0.04383074492 0.8897084594
vn 0.4501818717 0.1262019575 -0.8839735985
vn -0.1004576012 0.9764292836 0.1910342872
vn -0.2123126388 0.8871528506 0.4097355306
vn -0.3090801835 0.7373604178 0.6006405354
vn -0.3847066164 0.5373496413 0.7505039573
vn -0.4340284467 0.3008642197 0.8491761088
vn -0.4537146091 0.04376768693 0.8900716305
vn -0.4423806965 -0.2162741721 0.8703590035
vn -0.4008625448 -0.4613883793 0.7914732695
vn -0.3318657279 -0.6754404902 0.6585174799
vn -0.2402046025 -0.8433631063 0.4806666374
vn -0.1315463781 -0.9537332058 0.2703489661
vn 0.4502419829 -0.1304633915 -0.8833240867
vn 0.4039298892 0.1196741387 -0.9069281816
vn 0.4171820581 0.1252845228 -0.9001460671
vn -0.4736268818 0.8754713535 0.09605950117
vn -0.2722994983 0.9521930814 0.1384964287
vn -0.3851704895 0.8470996022 0.3661501706
vn 0.4359771311 0.1296965182 -0.89056319
vn -0.4511995912 0.6906984448 0.565114677
vn -0.4864358902 0.4870521724 0.7253690958
vn -0.4885787368 0.2505097389 0.8357844949
vn -0.4575440586 -0.003096012166 0.8891815543
vn -0.3952198625 -0.2564227283 0.8820706606
vn -0.3060218394 -0.4919376969 0.8150753975
vn -0.1958339214 -0.6942299008 0.6925993562
vn -0.07241421193 -0.8490157127 0.5233817697
vn 0.05325673893 -0.9321264625 0.3581953943
vn 0.4658873081 -0.1704706997 -0.8682676554
vn 0.4905988574 -0.1647714525 -0.8556653261
vn 0.4961035252 -0.1192025319 -0.8600419164
vn 0.2466345876 -0.8961040378 0.3690107763
vn 0.1037890166 -0.8143215775 0.5710588694
vn -0.04601756111 -0.6770400405 0.7345060706
vn -0.1931844056 -0.4930227101 0.8482973576
vn -0.3265672028 -0.2763047218 0.9038858414
vn -0.4379159808 -0.0405976586 0.8980987668
vn -0.5197988153 0.198902756 0.8308109641
vn -0.5658798814 0.423440069 0.7074450254
vn -0.5735928416 0.6198758483 0.5354858637
vn -0.5421324968 0.7741561532 0.3267638683
vn 0.4962470531 -0.1194895878 -0.85991925
vn 0.4039388895 0.1196992621 -0.9069208503
vn -0.443683207 0.8960216045 0.01704243384
vn -0.5232421756 0.8142669797 0.2513700128
vn -0.5674046874 0.6770175695 0.4687206745
vn -0.5729174614 0.4930317402 0.6547406316
vn -0.5394434333 0.2764262855 0.7953548431
vn -0.4691098034 0.04037228972 0.8822165728
vn -0.3665295541 -0.1988889724 0.9089000225
vn -0.239641428 -0.4232537448 0.8737438321
vn -0.0959103778 -0.6196926236 0.7789623141
vn 0.05447910726 -0.7739394307 0.6309118271
vn 0.2008572221 -0.8752049208 0.4400826097
vn 0.455116868 -0.1304596812 -0.8808228374
vn 0.4697216451 0.1305087954 -0.8731145263
vn -0.0629587844 -0.9504598379 0.3044047654
vn -0.02959570289 0.9734665751 0.2269074023
vn -0.1821497381 -0.8412234783 0.5090820789
vn -0.1564232111 0.8855125308 0.4374921322
vn -0.2911221087 -0.674593389 0.6783595681
vn -0.2729933858 0.7368625402 0.6184725165
vn -0.3786324859 -0.4615072906 0.8022770286
vn -0.3673503399 0.5376121402 0.7589643598
vn -0.4348530471 -0.2161958069 0.8741637468
vn -0.4295070171 0.3009201586 0.8514521718
vn -0.452675283 0.04383065924 0.8905975223
vn 0.4502035379 -0.130380854 -0.8833558559
vn 0.4500598013 0.1297097355 -0.8835279346
vn 0.4635712206 -0.1139762253 -0.8786985278
vn 0.4269124568 0.1811533868 -0.8859623075
vn 0.4802819192 -0.1101908535 -0.87016505
vn 0.4003140926 0.1750474721 -0.8995037675
vn -0.139724955 0.953800261 0.265973717
vn -0.317109853 0.9350723624 0.1583699286
vn -0.3803909421 0.8493756652 0.3658739626
vn -0.44469136 0.6948132515 0.5652292967
vn -0.479139626 0.4928767383 0.7262904048
vn -0.4811894894 0.257414192 0.8379705548
vn -0.4509110451 0.004754404072 0.8925562501
vn -0.3900467157 -0.2488454431 0.8865323067
vn -0.3022788763 -0.4857768118 0.8201514482
vn -0.1936203688 -0.6896897554 0.6977386475
vn -0.07115321606 -0.8466137052 0.5274301171
vn 0.04249420762 -0.9495298862 0.310784936
vn -0.09691024572 -0.976337254 0.1933235824
vn -0.2080375552 -0.8871569037 0.411913842
vn -0.3053688109 -0.7373661995 0.6025288105
vn -0.3817703426 -0.5376471877 0.7517891526
vn -0.4323311746 -0.3008663952 0.8500406742
vn -0.4534640312 -0.04375825077 0.8901997209
vn -0.4437911808 0.2162697315 0.8696417809
vn -0.4039307237 0.4617190659 0.7897186279
vn -0.3365912437 0.6756658554 0.655882597
vn -0.2465182692 0.8432542682 0.4776515365
f 1//1 2//2 3//3 
f 3//3 2//2 4//4 
f 3//3 4//4 5//5 
f 5//5 4//4 6//6 
f 5//5 6//6 7//7 
f 7//7 6//6 8//8 
f 7//7 8//8 9//9 
f 9//9 8//8 10//10 
f 9//9 10//10 11//11 
f 11//11 10//10 12//12 
f 11//11 12//12 13//13 
f 14//14 1//1 15//15 
f 15//15 1//1 3//3 
f 15//15 3//3 16//16 
f 16//16 3//3 5//5 
f 16//16 5//5 17//17 
f 17//17 5//5 7//7 
f 17//17 7//7 18//18 
f 18//18 7//7 9//9 
f 18//18 9//9 19//19 
f 19//19 9//9 11//11 
f 19//19 11//11 20//20 
f 20//20 11//11 13//13 
f 20//20 13//13 21//21 
f 21//21 13//13 12//12 
f 21//21 12//12 22//22 
f 22//22 12//12 10//10 
f 22//22 10//10 23//23 
f 23//23 10//10 8//8 
f 23//23 8//8 24//24 
f 24//24 8//8 6//6 
f 24//24 6//6 25//25 
f 25//25 6//6 4//4 
f 25//25 4//4 26//26 
f 26//26 4//4 2//2 
f 2//2 1//1 26//26 
f 26//26 1//1 14//14 
f 27//27 28//28 29//29 
f 29//29 28//28 30//30 
f 29//29 30//30 31//31 
f 31//31 30//30 16//16 
f 31//31 16//16 17//17 
f 28//28 32//32 30//30 
f 30//30 32//32 15//15 
f 30//30 15//15 16//16 
f 32//32 14//14 15//15 
f 31//31 17//17 33//33 
f 33//33 17//17 18//18 
f 33//33 18//18 34//34 
f 34//34 18//18 19//19 
f 34//34 19//19 35//35 
f 35//35 19//19 20//20 
f 35//35 20//20 36//36 
f 36//36 20//20 21//21 
f 36//36 21//21 37//37 
f 37//37 21//21 22//22 
f 37//37 22//22 38//38 
f 38//38 22//22 23//23 
f 38//38 23//23 39//39 
f 39//39 23//23 24//24 
f 39//39 24//24 40//40 
f 40//40 24//24 25//25 
f 40//40 25//25 41//41 
f 41//41 25//25 42//42 
f 41//41 42//42 43//43 
f 25//25 26//26 42//42 
f 44//44 45//45 43//43 
f 43//43 45//45 41//41 
f 45//45 46//46 41//41 
f 41//41 46//46 40//40 
f 46//46 47//47 40//40 
f 40//40 47//47 39//39 
f 47//47 48//48 39//39 
f 39//39 48//48 38//38 
f 48//48 49//49 38//38 
f 38//38 49//49 37//37 
f 49//49 50//50 37//37 
f 37//37 50//50 36//36 
f 50//50 51//51 36//36 
f 36//36 51//51 35//35 
f 51//51 52//52 35//35 
f 35//35 52//52 34//34 
f 52//52 53//53 34//34 
f 34//34 53//53 33//33 
f 53//53 54//54 33//33 
f 33//33 54//54 31//31 
f 54//54 29//29 31//31 
f 27//27 44//44 28//28 
f 28//28 44//44 43//43 
f 28//28 43//43 32//32 
f 32//32 43//43 42//42 
f 32//32 42//42 14//14 
f 14//14 42//42 26//26 
f 44//44 27//27 55//55 
f 55//55 27//27 56//56 
f 56//56 27//27 57//57 
f 57//57 27//27 29//29 
f 57//57 29//29 58//58 
f 58//58 29//29 54//54 
f 58//58 54//54 59//59 
f 59//59 54//54 53//53 
f 59//59 53//53 60//60 
f 60//60 53//53 52//52 
f 60//60 52//52 61//61 
f 61//61 52//52 51//51 
f 61//61 51//51 62//62 
f 62//62 51//51 50//50 
f 62//62 50//50 63//63 
f 63//63 50//50 49//49 
f 63//63 49//49 64//64 
f 64//64 49//49 48//48 
f 64//64 48//48 65//65 
f 65//65 48//48 47//47 
f 65//65 47//47 66//66 
f 66//66 47//47 46//46 
f 66//66 46//46 67//67 
f 67//67 46//46 45//45 
f 67//67 45//45 55//55 
f 55//55 45//45 44//44 
f 68//68 69//69 70//70 
f 70//70 69//69 71//71 
f 70//70 71//71 72//72 
f 72//72 71//71 73//73 
f 72//72 73//73 74//74 
f 74//74 73//73 75//75 
f 74//74 75//75 76//76 
f 76//76 75//75 77//77 
f 76//76 77//77 78//78 
f 78//78 77//77 79//79 
f 78//78 79//79 80//80 
f 81//81 82//82 68//68 
f 68//68 82//82 69//69 
f 81//81 83//83 82//82 
f 82//82 83//83 84//84 
f 84//84 83//83 85//85 
f 84//84 85//85 86//86 
f 86//86 85//85 55//55 
f 86//86 55//55 56//56 
f 82//82 84//84 87//87 
f 87//87 84//84 88//88 
f 87//87 88//88 89//89 
f 89//89 88//88 58//58 
f 89//89 58//58 59//59 
f 84//84 86//86 88//88 
f 88//88 86//86 57//57 
f 88//88 57//57 58//58 
f 86//86 56//56 57//57 
f 89//89 59//59 90//90 
f 90//90 59//59 60//60 
f 90//90 60//60 91//91 
f 91//91 60//60 61//61 
f 91//91 61//61 92//92 
f 92//92 61//61 62//62 
f 92//92 62//62 93//93 
f 93//93 62//62 63//63 
f 93//93 63//63 94//94 
f 94//94 63//63 64//64 
f 94//94 64//64 95//95 
f 95//95 64//64 65//65 
f 95//95 65//65 96//96 
f 96//96 65//65 66//66 
f 96//96 66//66 97//97 
f 97//97 66//66 67//67 
f 97//97 67//67 98//98 
f 98//98 67//67 85//85 
f 98//98 85//85 83//83 
f 67//67 55//55 85//85 
f 81//81 99//99 83//83 
f 83//83 99//99 98//98 
f 99//99 100//100 98//98 
f 98//98 100//100 97//97 
f 100//100 101//101 97//97 
f 97//97 101//101 96//96 
f 101//101 102//102 96//96 
f 96//96 102//102 95//95 
f 102//102 103//103 95//95 
f 95//95 103//103 94//94 
f 103//103 104//104 94//94 
f 94//94 104//104 93//93 
f 104//104 105//105 93//93 
f 93//93 105//105 92//92 
f 105//105 106//106 92//92 
f 92//92 106//106 91//91 
f 106//106 107//107 91//91 
f 91//91 107//107 90//90 
f 107//107 108//108 90//90 
f 90//90 108//108 89//89 
f 108//108 87//87 89//89 
f 69//69 82//82 71//71 
f 71//71 82//82 87//87 
f 71//71 87//87 73//73 
f 73//73 87//87 108//108 
f 73//73 108//108 75//75 
f 75//75 108//108 107//107 
f 75//75 107//107 77//77 
f 77//77 107//107 106//106 
f 77//77 106//106 79//79 
f 79//79 106//106 105//105 
f 79//79 105//105 80//80 
f 80//80 105//105 104//104 
f 80//80 104//104 78//78 
f 78//78 104//104 103//103 
f 78//78 103//103 76//76 
f 76//76 103//103 102//102 
f 76//76 102//102 74//74 
f 74//74 102//102 101//101 
f 74//74 101//101 72//72 
f 72//72 101//101 100//100 
f 72//72 100//100 70//70 
f 70//70 100//100 99//99 
f 70//70 99//99 68//68 
f 68//68 99//99 81//81 
