v -19.5022316 37.25 -81.94210052
v -19.5022316 23.75 -81.94210052
v -18.89806557 37.25 -81.94210052
v -18.89806557 23.75 -81.94210052
v -18.89806557 23.75 -84.66085052
v -18.89806557 37.25 -84.66085052
v -19.5022316 37.25 -84.66085052
v -19.5022316 23.75 -84.66085052
vn -0.9929020405 0.04443538561 0.1103223339
vn -0.9130485058 -0.040861696 0.405798912
vn 0.9130485058 0.040861696 0.405798912
vn 0.9929020405 -0.04443538561 0.1103223339
vn 0.9130485058 -0.040861696 -0.405798912
vn 0.9929020405 0.04443538561 -0.1103223339
vn -0.9130485058 0.040861696 -0.405798912
vn -0.9929020405 -0.04443538561 -0.1103223339
f 1//1 2//2 3//3 
f 3//3 2//2 4//4 
f 5//5 6//6 4//4 
f 4//4 6//6 3//3 
f 7//7 1//1 6//6 
f 6//6 1//1 3//3 
f 2//2 8//8 4//4 
f 4//4 8//8 5//5 
f 2//2 1//1 8//8 
f 8//8 1//1 7//7 
f 8//8 7//7 5//5 
f 5//5 7//7 6//6 
