v -16.70014954 34.9375 -81.66085052
v -16.70014954 34.75 -81.66085052
v -45.80126953 34.9375 -81.66085052
v -45.80126953 34.75 -81.66085052
v -45.80126953 34.75 -30.07751465
v -16.70014954 34.75 -30.07751465
v -45.80126953 34.9375 -30.07751465
v -16.70014954 34.9375 -30.07751465
v 3.84233737 34.9375 -81.66085052
v 3.84233737 34.75 -81.66085052
v -13.70014858 34.9375 -81.66085052
v -13.70014858 34.75 -81.66085052
v -13.70014858 34.75 -30.07751465
v 3.84233737 34.75 -30.07751465
v -13.70014858 34.9375 -30.07751465
v 3.84233737 34.9375 -30.07751465
vn 0.006442906801 0.9999775887 -0.001817406737
vn 0.006442747079 -0.9999527931 -0.007269446738
vn -0.006442747079 0.9999527931 -0.007269446738
vn -0.006442906801 -0.9999775887 -0.001817406737
vn -0.006442747079 -0.9999527931 0.007269446738
vn 0.006442906801 -0.9999775887 0.001817406737
vn -0.006442906801 0.9999775887 0.001817406737
vn 0.006442747079 0.9999527931 0.007269446738
vn 0.01068770885 0.9999412298 -0.001817340613
vn 0.01068744436 -0.9999164939 -0.007269182242
vn -0.01068744436 0.9999164939 -0.007269182242
vn -0.01068770885 -0.9999412298 -0.001817340613
vn -0.01068744436 -0.9999164939 0.007269182242
vn 0.01068770885 -0.9999412298 0.001817340613
vn -0.01068770885 0.9999412298 0.001817340613
vn 0.01068744436 0.9999164939 0.007269182242
f 1//1 2//2 3//3 
f 3//3 2//2 4//4 
f 5//5 4//4 6//6 
f 6//6 4//4 2//2 
f 3//3 4//4 7//7 
f 7//7 4//4 5//5 
f 8//8 1//1 7//7 
f 7//7 1//1 3//3 
f 8//8 6//6 1//1 
f 1//1 6//6 2//2 
f 7//7 5//5 8//8 
f 8//8 5//5 6//6 
f 9//9 10//10 11//11 
f 11//11 10//10 12//12 
f 13//13 12//12 14//14 
f 14//14 12//12 10//10 
f 11//11 12//12 15//15 
f 15//15 12//12 13//13 
f 16//16 14//14 9//9 
f 9//9 14//14 10//10 
f 16//16 9//9 15//15 
f 15//15 9//9 11//11 
f 15//15 13//13 16//16 
f 16//16 13//13 14//14 
