v -9.132392883 35.54166794 -28.86421585
v -9.132392883 35.54166794 -28.29081345
v -9.185986519 35.54166794 -28.86918068
v -9.185986519 35.54166794 -28.28584862
v -9.239580154 35.54166794 -28.86421585
v -9.239580154 35.54166794 -28.29081345
v -9.291348457 35.54166794 -28.8494854
v -9.291348457 35.54166794 -28.3055439
v -9.339529037 35.54166794 -28.82549477
v -9.339529037 35.54166794 -28.32953453
v -9.382481575 35.54166794 -28.7930584
v -9.382481575 35.54166794 -28.3619709
v -9.41874218 35.54166794 -28.75328255
v -9.41874218 35.54166794 -28.40174675
v -9.447075844 35.54166794 -28.70752144
v -9.447075844 35.54166794 -28.44750786
v -9.466519356 35.54166794 -28.65733337
v -9.466519356 35.54166794 -28.49769592
v -9.476408958 35.54166794 -28.60442543
v -9.476408958 35.54166794 -28.55060387
v -9.08062458 35.54166794 -28.3055439
v -9.08062458 35.54166794 -28.8494854
v -9.032444 35.54166794 -28.32953453
v -9.032444 35.54166794 -28.82549477
v -8.989492416 35.54166794 -28.3619709
v -8.989492416 35.54166794 -28.7930584
v -8.953231812 35.54166794 -28.40174675
v -8.953231812 35.54166794 -28.75328255
v -8.924897194 35.54166794 -28.44750786
v -8.924897194 35.54166794 -28.70752144
v -8.905454636 35.54166794 -28.49769592
v -8.905454636 35.54166794 -28.65733337
v -8.895564079 35.54166794 -28.55060387
v -8.895564079 35.54166794 -28.60442543
v -9.185986519 34.77083206 -28.86918068
v -9.132392883 34.77083206 -28.86421585
v -9.08062458 34.77083206 -28.8494854
v -9.032444 34.77083206 -28.82549477
v -8.989492416 34.77083206 -28.7930584
v -8.953231812 34.77083206 -28.75328255
v -8.924897194 34.77083206 -28.70752144
v -8.905454636 34.77083206 -28.65733337
v -8.895564079 34.77083206 -28.60442543
v -8.895564079 34.77083206 -28.55060387
v -8.905454636 34.77083206 -28.49769592
v -8.924897194 34.77083206 -28.44750786
v -8.953231812 34.77083206 -28.40174675
v -8.989492416 34.77083206 -28.3619709
v -9.032444 34.77083206 -28.32953453
v -9.08062458 34.77083206 -28.3055439
v -9.132392883 34.77083206 -28.29081345
v -9.185986519 34.77083206 -28.28584862
v -9.239580154 34.77083206 -28.29081345
v -9.291348457 34.77083206 -28.3055439
v -9.339529037 34.77083206 -28.32953453
v -9.382481575 34.77083206 -28.3619709
v -9.41874218 34.77083206 -28.40174675
v -9.447075844 34.77083206 -28.44750786
v -9.466519356 34.77083206 -28.49769592
v -9.476408958 34.77083206 -28.55060387
v -9.476408958 34.77083206 -28.60442543
v -9.466519356 34.77083206 -28.65733337
v -9.447075844 34.77083206 -28.70752144
v -9.41874218 34.77083206 -28.75328255
v -9.382481575 34.77083206 -28.7930584
v -9.339529037 34.77083206 -28.82549477
v -9.291348457 34.77083206 -28.8494854
v -9.239580154 34.77083206 -28.86421585
v -9.240851402 34.75 -28.2487278
v -9.240851402 34.75 -28.9063015
v -9.185986519 34.75 -28.24418068
v -9.185986519 34.75 -28.91084862
v -9.131121635 34.75 -28.2487278
v -9.131121635 34.75 -28.9063015
v -9.077754021 34.75 -28.26224136
v -9.077754021 34.75 -28.89278793
v -9.027338028 34.75 -28.28435707
v -9.027338028 34.75 -28.87067223
v -8.981248856 34.75 -28.31446838
v -8.981248856 34.75 -28.84056091
v -8.940745354 34.75 -28.35175323
v -8.940745354 34.75 -28.80327606
v -8.906930923 34.75 -28.39519882
v -8.906930923 34.75 -28.75983047
v -8.880728722 34.75 -28.44361687
v -8.880728722 34.75 -28.71141243
v -8.86285305 34.75 -28.49568558
v -8.86285305 34.75 -28.65934372
v -8.853792191 34.75 -28.54998779
v -8.853792191 34.75 -28.6050415
v -9.294219971 34.75 -28.89278793
v -9.294219971 34.75 -28.26224136
v -9.344635963 34.75 -28.87067223
v -9.344635963 34.75 -28.28435707
v -9.390724182 34.75 -28.84056091
v -9.390724182 34.75 -28.31446838
v -9.431227684 34.75 -28.80327606
v -9.431227684 34.75 -28.35175323
v -9.465042114 34.75 -28.75983047
v -9.465042114 34.75 -28.39519882
v -9.491244316 34.75 -28.71141243
v -9.491244316 34.75 -28.44361687
v -9.509119987 34.75 -28.65934372
v -9.509119987 34.75 -28.49568558
v -9.518181801 34.75 -28.6050415
v -9.518181801 34.75 -28.54998779
v -9.185986519 35.58333206 -28.91084862
v -9.240851402 35.58333206 -28.9063015
v -9.294219971 35.58333206 -28.89278793
v -9.344635963 35.58333206 -28.87067223
v -9.390724182 35.58333206 -28.84056091
v -9.431227684 35.58333206 -28.80327606
v -9.465042114 35.58333206 -28.75983047
v -9.491244316 35.58333206 -28.71141243
v -9.509119987 35.58333206 -28.65934372
v -9.518181801 35.58333206 -28.6050415
v -9.518181801 35.58333206 -28.54998779
v -9.509119987 35.58333206 -28.49568558
v -9.491244316 35.58333206 -28.44361687
v -9.465042114 35.58333206 -28.39519882
v -9.431227684 35.58333206 -28.35175323
v -9.390724182 35.58333206 -28.31446838
v -9.344635963 35.58333206 -28.28435707
v -9.294219971 35.58333206 -28.26224136
v -9.240851402 35.58333206 -28.2487278
v -9.185986519 35.58333206 -28.24418068
v -9.131121635 35.58333206 -28.2487278
v -9.077754021 35.58333206 -28.26224136
v -9.027338028 35.58333206 -28.28435707
v -8.981248856 35.58333206 -28.31446838
v -8.940745354 35.58333206 -28.35175323
v -8.906930923 35.58333206 -28.39519882
v -8.880728722 35.58333206 -28.44361687
v -8.86285305 35.58333206 -28.49568558
v -8.853792191 35.58333206 -28.54998779
v -8.853792191 35.58333206 -28.6050415
v -8.86285305 35.58333206 -28.65934372
v -8.880728722 35.58333206 -28.71141243
v -8.906930923 35.58333206 -28.75983047
v -8.940745354 35.58333206 -28.80327606
v -8.981248856 35.58333206 -28.84056091
v -9.027338028 35.58333206 -28.87067223
v -9.077754021 35.58333206 -28.89278793
v -9.131121635 35.58333206 -28.9063015
vn -0.1247460023 -0.5812655091 0.8040950298
vn -0.1720855385 -0.5945150256 -0.7854543328
vn 0.02466691472 -0.6010736823 0.7988128662
vn -0.02466691472 -0.6010736823 -0.7988128662
vn 0.1720855385 -0.5945150256 0.7854543328
vn 0.1247460023 -0.5812655091 -0.8040950298
vn 0.3227063119 -0.5610954165 0.7622548938
vn 0.2810000479 -0.5337466598 -0.7975922823
vn 0.4787243307 -0.4990389049 0.7223455906
vn 0.4446600676 -0.4570403993 -0.7703191042
vn 0.6355346441 -0.4082360864 0.6553159356
vn 0.6084958911 -0.3537415564 -0.7103518248
vn 0.7798179984 -0.2953998744 0.551926434
vn 0.757081151 -0.235711664 -0.6093177795
vn 0.8940460682 -0.1776460707 0.4112462699
vn 0.8741490245 -0.1242508367 -0.4694946408
vn 0.966840148 -0.07829565555 0.2430842072
vn 0.9520761967 -0.04202056304 -0.3029607832
vn 0.9979636073 -0.01702287607 0.06147242337
vn 0.9924024343 -0.004292657599 -0.122959435
vn -0.3227063119 -0.5610954165 -0.7622548938
vn -0.2810000479 -0.5337466598 0.7975922823
vn -0.4787286818 -0.4990401268 -0.7223418951
vn -0.444663167 -0.4570372403 0.7703191638
vn -0.635538578 -0.4082320929 -0.6553146243
vn -0.6085013747 -0.353741616 0.7103470564
vn -0.7798125148 -0.2954003811 -0.5519338846
vn -0.7570776343 -0.2357151657 0.6093207598
vn -0.8940477967 -0.1776490808 -0.4112412035
vn -0.8741467595 -0.1242492944 0.46949929
vn -0.9668388963 -0.07829356194 -0.24308981
vn -0.9520778656 -0.04202105105 0.3029554188
vn -0.9979631901 -0.01702450961 -0.06147832796
vn -0.9924009442 -0.004293065518 0.1229711175
vn -0.02466691472 0.6010736823 0.7988128662
vn -0.1720855385 0.5945150256 0.7854543328
vn -0.3227063119 0.5610954165 0.7622548938
vn -0.4787286818 0.4990401268 0.7223418951
vn -0.635538578 0.4082320929 0.6553146243
vn -0.7798125148 0.2954003811 0.5519338846
vn -0.8940477967 0.1776490808 0.4112412035
vn -0.9668388963 0.07829356194 0.24308981
vn -0.9979631901 0.01702450961 0.06147832796
vn -0.9924009442 0.004293065518 -0.1229711175
vn -0.9520778656 0.04202105105 -0.3029554188
vn -0.8741467595 0.1242492944 -0.46949929
vn -0.7570776343 0.2357151657 -0.6093207598
vn -0.6085013747 0.353741616 -0.7103470564
vn -0.444663167 0.4570372403 -0.7703191638
vn -0.2810000479 0.5337466598 -0.7975922823
vn -0.1247460023 0.5812655091 -0.8040950298
vn 0.02466691472 0.6010736823 -0.7988128662
vn 0.1720855385 0.5945150256 -0.7854543328
vn 0.3227063119 0.5610954165 -0.7622548938
vn 0.4787243307 0.4990389049 -0.7223455906
vn 0.6355346441 0.4082360864 -0.6553159356
vn 0.7798179984 0.2953998744 -0.551926434
vn 0.8940460682 0.1776460707 -0.4112462699
vn 0.966840148 0.07829565555 -0.2430842072
vn 0.9979636073 0.01702287607 -0.06147242337
vn 0.9924024343 0.004292657599 0.122959435
vn 0.9520761967 0.04202056304 0.3029607832
vn 0.8741490245 0.1242508367 0.4694946408
vn 0.757081151 0.235711664 0.6093177795
vn 0.6084958911 0.3537415564 0.7103518248
vn 0.4446600676 0.4570403993 0.7703191042
vn 0.2810000479 0.5337466598 0.7975922823
vn 0.1247460023 0.5812655091 0.8040950298
vn -0.1427987665 -0.4972766638 0.8557595611
vn -0.1065001264 -0.7624433041 -0.6382303238
vn 0.0216056332 -0.6228142977 0.782071352
vn -0.0216056332 -0.6228142977 -0.782071352
vn 0.106500864 -0.7624441981 0.6382291317
vn 0.1428000927 -0.4972755015 -0.8557600379
vn 0.2407527268 -0.591022253 0.7698901296
vn 0.2883357108 -0.5692328811 -0.7699587345
vn 0.3795835078 -0.5414592624 0.7501587868
vn 0.430855155 -0.5075532198 -0.7461591959
vn 0.5234655738 -0.4675632119 0.712297976
vn 0.5764151812 -0.4218611717 -0.6998419166
vn 0.6655094028 -0.3712717295 0.6474986672
vn 0.7152130008 -0.3171467483 -0.6228067875
vn 0.7931906581 -0.2613447011 0.5500432253
vn 0.8336610794 -0.2061011046 -0.5123782754
vn 0.8935731053 -0.1538027525 0.4217485487
vn 0.921220839 -0.1067337319 -0.3741124272
vn 0.9600989819 -0.06686595827 0.2715491652
vn 0.9751862884 -0.03574056551 -0.2184818238
vn 0.9938216805 -0.0144409081 0.110044986
vn 0.9984782338 -0.003635375062 -0.055027619
vn -0.2407499701 -0.5910227299 -0.7698906064
vn -0.2883340716 -0.5692332387 0.7699590921
vn -0.3795856237 -0.5414588451 -0.7501580715
vn -0.4308598042 -0.5075520873 0.7461572886
vn -0.5234710574 -0.4675613046 -0.7122952342
vn -0.5764181018 -0.4218600094 0.699840188
vn -0.6655094028 -0.3712717295 -0.6474986672
vn -0.7152130008 -0.3171467483 0.6228067875
vn -0.7931906581 -0.2613447011 -0.5500432253
vn -0.8336610794 -0.2061011046 0.5123782754
vn -0.8935731053 -0.1538027525 -0.4217485487
vn -0.921220839 -0.1067337319 0.3741124272
vn -0.9600973725 -0.06686698645 -0.2715544701
vn -0.975183785 -0.03574199229 0.2184928358
vn -0.9938204288 -0.01444240846 -0.1100564227
vn -0.9984778762 -0.003635756671 0.0550333932
vn 0.0216056332 0.6228142977 -0.782071352
vn -0.1427987665 0.4972766638 -0.8557595611
vn -0.2883340716 0.5692332387 -0.7699590921
vn -0.4308598042 0.5075520873 -0.7461572886
vn -0.5764181018 0.4218600094 -0.699840188
vn -0.7152130008 0.3171467483 -0.6228067875
vn -0.8336610794 0.2061011046 -0.5123782754
vn -0.921220839 0.1067337319 -0.3741124272
vn -0.975183785 0.03574199229 -0.2184928358
vn -0.9984778762 0.003635756671 -0.0550333932
vn -0.9938204288 0.01444240846 0.1100564227
vn -0.9600973725 0.06686698645 0.2715544701
vn -0.8935731053 0.1538027525 0.4217485487
vn -0.7931906581 0.2613447011 0.5500432253
vn -0.6655094028 0.3712717295 0.6474986672
vn -0.5234710574 0.4675613046 0.7122952342
vn -0.3795856237 0.5414588451 0.7501580715
vn -0.2407499701 0.5910227299 0.7698906064
vn -0.1065001264 0.7624433041 0.6382303238
vn -0.0216056332 0.6228142977 0.782071352
vn 0.1428000927 0.4972755015 0.8557600379
vn 0.2883357108 0.5692328811 0.7699587345
vn 0.430855155 0.5075532198 0.7461591959
vn 0.5764151812 0.4218611717 0.6998419166
vn 0.7152130008 0.3171467483 0.6228067875
vn 0.8336610794 0.2061011046 0.5123782754
vn 0.921220839 0.1067337319 0.3741124272
vn 0.9751862884 0.03574056551 0.2184818238
vn 0.9984782338 0.003635375062 0.055027619
vn 0.9938216805 0.0144409081 -0.110044986
vn 0.9600989819 0.06686595827 -0.2715491652
vn 0.8935731053 0.1538027525 -0.4217485487
vn 0.7931906581 0.2613447011 -0.5500432253
vn 0.6655094028 0.3712717295 -0.6474986672
vn 0.5234655738 0.4675632119 -0.712297976
vn 0.3795835078 0.5414592624 -0.7501587868
vn 0.2407527268 0.591022253 -0.7698901296
vn 0.106500864 0.7624441981 -0.6382291317
f 1//1 2//2 3//3 
f 3//3 2//2 4//4 
f 3//3 4//4 5//5 
f 5//5 4//4 6//6 
f 5//5 6//6 7//7 
f 7//7 6//6 8//8 
f 7//7 8//8 9//9 
f 9//9 8//8 10//10 
f 9//9 10//10 11//11 
f 11//11 10//10 12//12 
f 11//11 12//12 13//13 
f 13//13 12//12 14//14 
f 13//13 14//14 15//15 
f 15//15 14//14 16//16 
f 15//15 16//16 17//17 
f 17//17 16//16 18//18 
f 17//17 18//18 19//19 
f 19//19 18//18 20//20 
f 2//2 1//1 21//21 
f 21//21 1//1 22//22 
f 21//21 22//22 23//23 
f 23//23 22//22 24//24 
f 23//23 24//24 25//25 
f 25//25 24//24 26//26 
f 25//25 26//26 27//27 
f 27//27 26//26 28//28 
f 27//27 28//28 29//29 
f 29//29 28//28 30//30 
f 29//29 30//30 31//31 
f 31//31 30//30 32//32 
f 31//31 32//32 33//33 
f 33//33 32//32 34//34 
f 3//3 35//35 1//1 
f 1//1 35//35 36//36 
f 1//1 36//36 22//22 
f 22//22 36//36 37//37 
f 22//22 37//37 24//24 
f 24//24 37//37 38//38 
f 24//24 38//38 26//26 
f 26//26 38//38 39//39 
f 26//26 39//39 28//28 
f 28//28 39//39 40//40 
f 28//28 40//40 30//30 
f 30//30 40//40 41//41 
f 30//30 41//41 32//32 
f 32//32 41//41 42//42 
f 32//32 42//42 34//34 
f 34//34 42//42 43//43 
f 34//34 43//43 33//33 
f 33//33 43//43 44//44 
f 33//33 44//44 31//31 
f 31//31 44//44 45//45 
f 31//31 45//45 29//29 
f 29//29 45//45 46//46 
f 29//29 46//46 27//27 
f 27//27 46//46 47//47 
f 27//27 47//47 25//25 
f 25//25 47//47 48//48 
f 25//25 48//48 23//23 
f 23//23 48//48 49//49 
f 23//23 49//49 21//21 
f 21//21 49//49 50//50 
f 21//21 50//50 2//2 
f 2//2 50//50 51//51 
f 2//2 51//51 4//4 
f 4//4 51//51 52//52 
f 4//4 52//52 6//6 
f 6//6 52//52 53//53 
f 6//6 53//53 8//8 
f 8//8 53//53 54//54 
f 8//8 54//54 10//10 
f 10//10 54//54 55//55 
f 10//10 55//55 12//12 
f 12//12 55//55 56//56 
f 12//12 56//56 14//14 
f 14//14 56//56 57//57 
f 14//14 57//57 16//16 
f 16//16 57//57 58//58 
f 16//16 58//58 18//18 
f 18//18 58//58 59//59 
f 18//18 59//59 20//20 
f 20//20 59//59 60//60 
f 20//20 60//60 19//19 
f 19//19 60//60 61//61 
f 19//19 61//61 17//17 
f 17//17 61//61 62//62 
f 17//17 62//62 15//15 
f 15//15 62//62 63//63 
f 15//15 63//63 13//13 
f 13//13 63//63 64//64 
f 13//13 64//64 11//11 
f 11//11 64//64 65//65 
f 11//11 65//65 9//9 
f 9//9 65//65 66//66 
f 9//9 66//66 7//7 
f 7//7 66//66 67//67 
f 7//7 67//67 5//5 
f 5//5 67//67 68//68 
f 5//5 68//68 3//3 
f 3//3 68//68 35//35 
f 68//68 53//53 35//35 
f 35//35 53//53 52//52 
f 35//35 52//52 36//36 
f 36//36 52//52 51//51 
f 36//36 51//51 37//37 
f 37//37 51//51 50//50 
f 37//37 50//50 38//38 
f 38//38 50//50 49//49 
f 38//38 49//49 39//39 
f 39//39 49//49 48//48 
f 39//39 48//48 40//40 
f 40//40 48//48 47//47 
f 40//40 47//47 41//41 
f 41//41 47//47 46//46 
f 41//41 46//46 42//42 
f 42//42 46//46 45//45 
f 42//42 45//45 43//43 
f 43//43 45//45 44//44 
f 53//53 68//68 54//54 
f 54//54 68//68 67//67 
f 54//54 67//67 55//55 
f 55//55 67//67 66//66 
f 55//55 66//66 56//56 
f 56//56 66//66 65//65 
f 56//56 65//65 57//57 
f 57//57 65//65 64//64 
f 57//57 64//64 58//58 
f 58//58 64//64 63//63 
f 58//58 63//63 59//59 
f 59//59 63//63 62//62 
f 59//59 62//62 60//60 
f 60//60 62//62 61//61 
f 69//69 70//70 71//71 
f 71//71 70//70 72//72 
f 71//71 72//72 73//73 
f 73//73 72//72 74//74 
f 73//73 74//74 75//75 
f 75//75 74//74 76//76 
f 75//75 76//76 77//77 
f 77//77 76//76 78//78 
f 77//77 78//78 79//79 
f 79//79 78//78 80//80 
f 79//79 80//80 81//81 
f 81//81 80//80 82//82 
f 81//81 82//82 83//83 
f 83//83 82//82 84//84 
f 83//83 84//84 85//85 
f 85//85 84//84 86//86 
f 85//85 86//86 87//87 
f 87//87 86//86 88//88 
f 87//87 88//88 89//89 
f 89//89 88//88 90//90 
f 70//70 69//69 91//91 
f 91//91 69//69 92//92 
f 91//91 92//92 93//93 
f 93//93 92//92 94//94 
f 93//93 94//94 95//95 
f 95//95 94//94 96//96 
f 95//95 96//96 97//97 
f 97//97 96//96 98//98 
f 97//97 98//98 99//99 
f 99//99 98//98 100//100 
f 99//99 100//100 101//101 
f 101//101 100//100 102//102 
f 101//101 102//102 103//103 
f 103//103 102//102 104//104 
f 103//103 104//104 105//105 
f 105//105 104//104 106//106 
f 107//107 72//72 108//108 
f 108//108 72//72 70//70 
f 108//108 70//70 91//91 
f 108//108 91//91 109//109 
f 109//109 91//91 93//93 
f 109//109 93//93 110//110 
f 110//110 93//93 95//95 
f 110//110 95//95 111//111 
f 111//111 95//95 97//97 
f 111//111 97//97 112//112 
f 112//112 97//97 99//99 
f 112//112 99//99 113//113 
f 113//113 99//99 101//101 
f 113//113 101//101 114//114 
f 114//114 101//101 103//103 
f 114//114 103//103 115//115 
f 115//115 103//103 105//105 
f 115//115 105//105 116//116 
f 116//116 105//105 106//106 
f 116//116 106//106 117//117 
f 117//117 106//106 104//104 
f 117//117 104//104 118//118 
f 118//118 104//104 102//102 
f 118//118 102//102 119//119 
f 119//119 102//102 100//100 
f 119//119 100//100 120//120 
f 120//120 100//100 98//98 
f 120//120 98//98 121//121 
f 121//121 98//98 96//96 
f 121//121 96//96 122//122 
f 122//122 96//96 94//94 
f 122//122 94//94 123//123 
f 123//123 94//94 92//92 
f 123//123 92//92 124//124 
f 124//124 92//92 69//69 
f 124//124 69//69 125//125 
f 125//125 69//69 126//126 
f 126//126 69//69 71//71 
f 126//126 71//71 127//127 
f 127//127 71//71 73//73 
f 127//127 73//73 75//75 
f 127//127 75//75 128//128 
f 128//128 75//75 77//77 
f 128//128 77//77 129//129 
f 129//129 77//77 79//79 
f 129//129 79//79 130//130 
f 130//130 79//79 81//81 
f 130//130 81//81 131//131 
f 131//131 81//81 83//83 
f 131//131 83//83 132//132 
f 132//132 83//83 85//85 
f 132//132 85//85 133//133 
f 133//133 85//85 87//87 
f 133//133 87//87 134//134 
f 134//134 87//87 89//89 
f 134//134 89//89 135//135 
f 135//135 89//89 90//90 
f 135//135 90//90 136//136 
f 136//136 90//90 88//88 
f 136//136 88//88 137//137 
f 137//137 88//88 86//86 
f 137//137 86//86 138//138 
f 138//138 86//86 84//84 
f 138//138 84//84 139//139 
f 139//139 84//84 82//82 
f 139//139 82//82 140//140 
f 140//140 82//82 80//80 
f 140//140 80//80 141//141 
f 141//141 80//80 78//78 
f 141//141 78//78 142//142 
f 142//142 78//78 76//76 
f 142//142 76//76 143//143 
f 143//143 76//76 74//74 
f 143//143 74//74 144//144 
f 144//144 74//74 107//107 
f 107//107 74//74 72//72 
f 127//127 144//144 126//126 
f 126//126 144//144 107//107 
f 126//126 107//107 125//125 
f 125//125 107//107 108//108 
f 125//125 108//108 124//124 
f 124//124 108//108 109//109 
f 124//124 109//109 123//123 
f 123//123 109//109 110//110 
f 123//123 110//110 122//122 
f 122//122 110//110 111//111 
f 122//122 111//111 121//121 
f 121//121 111//111 112//112 
f 121//121 112//112 120//120 
f 120//120 112//112 113//113 
f 120//120 113//113 119//119 
f 119//119 113//113 114//114 
f 119//119 114//114 118//118 
f 118//118 114//114 115//115 
f 118//118 115//115 117//117 
f 117//117 115//115 116//116 
f 144//144 127//127 143//143 
f 143//143 127//127 128//128 
f 143//143 128//128 142//142 
f 142//142 128//128 129//129 
f 142//142 129//129 141//141 
f 141//141 129//129 130//130 
f 141//141 130//130 140//140 
f 140//140 130//130 131//131 
f 140//140 131//131 139//139 
f 139//139 131//131 132//132 
f 139//139 132//132 138//138 
f 138//138 132//132 133//133 
f 138//138 133//133 137//137 
f 137//137 133//133 134//134 
f 137//137 134//134 136//136 
f 136//136 134//134 135//135 
