v 5.572604656 35.54166794 -52.42493057
v 5.572604656 35.54166794 -51.85152817
v 5.519011021 35.54166794 -52.42989731
v 5.519011021 35.54166794 -51.84656143
v 5.465417385 35.54166794 -52.42493057
v 5.465417385 35.54166794 -51.85152817
v 5.413648605 35.54166794 -52.41019821
v 5.413648605 35.54166794 -51.86625671
v 5.365468025 35.54166794 -52.38620758
v 5.365468025 35.54166794 -51.89024734
v 5.322516441 35.54166794 -52.35377502
v 5.322516441 35.54166794 -51.92268372
v 5.286255836 35.54166794 -52.31399918
v 5.286255836 35.54166794 -51.96245956
v 5.257921696 35.54166794 -52.26823425
v 5.257921696 35.54166794 -52.00822067
v 5.238478661 35.54166794 -52.2180481
v 5.238478661 35.54166794 -52.05841064
v 5.228588581 35.54166794 -52.16514206
v 5.228588581 35.54166794 -52.11131668
v 5.624372959 35.54166794 -51.86625671
v 5.624372959 35.54166794 -52.41019821
v 5.672553539 35.54166794 -51.89024734
v 5.672553539 35.54166794 -52.38620758
v 5.7155056 35.54166794 -51.92268372
v 5.7155056 35.54166794 -52.35377502
v 5.751765728 35.54166794 -51.96245956
v 5.751765728 35.54166794 -52.31399918
v 5.780100346 35.54166794 -52.00822067
v 5.780100346 35.54166794 -52.26823425
v 5.799543381 35.54166794 -52.05841064
v 5.799543381 35.54166794 -52.2180481
v 5.80943346 35.54166794 -52.11131668
v 5.80943346 35.54166794 -52.16514206
v 5.519011021 34.77083206 -52.42989731
v 5.572604656 34.77083206 -52.42493057
v 5.624372959 34.77083206 -52.41019821
v 5.672553539 34.77083206 -52.38620758
v 5.7155056 34.77083206 -52.35377502
v 5.751765728 34.77083206 -52.31399918
v 5.780100346 34.77083206 -52.26823425
v 5.799543381 34.77083206 -52.2180481
v 5.80943346 34.77083206 -52.16514206
v 5.80943346 34.77083206 -52.11131668
v 5.799543381 34.77083206 -52.05841064
v 5.780100346 34.77083206 -52.00822067
v 5.751765728 34.77083206 -51.96245956
v 5.7155056 34.77083206 -51.92268372
v 5.672553539 34.77083206 -51.89024734
v 5.624372959 34.77083206 -51.86625671
v 5.572604656 34.77083206 -51.85152817
v 5.519011021 34.77083206 -51.84656143
v 5.465417385 34.77083206 -51.85152817
v 5.413648605 34.77083206 -51.86625671
v 5.365468025 34.77083206 -51.89024734
v 5.322516441 34.77083206 -51.92268372
v 5.286255836 34.77083206 -51.96245956
v 5.257921696 34.77083206 -52.00822067
v 5.238478661 34.77083206 -52.05841064
v 5.228588581 34.77083206 -52.11131668
v 5.228588581 34.77083206 -52.16514206
v 5.238478661 34.77083206 -52.2180481
v 5.257921696 34.77083206 -52.26823425
v 5.286255836 34.77083206 -52.31399918
v 5.322516441 34.77083206 -52.35377502
v 5.365468025 34.77083206 -52.38620758
v 5.413648605 34.77083206 -52.41019821
v 5.465417385 34.77083206 -52.42493057
v 5.464146137 34.75 -51.80944061
v 5.464146137 34.75 -52.46701431
v 5.519011021 34.75 -51.80489731
v 5.519011021 34.75 -52.47156143
v 5.573875904 34.75 -51.80944061
v 5.573875904 34.75 -52.46701431
v 5.627243996 34.75 -51.82295609
v 5.627243996 34.75 -52.45350266
v 5.677659988 34.75 -51.84506989
v 5.677659988 34.75 -52.43138504
v 5.723748684 34.75 -51.87518311
v 5.723748684 34.75 -52.40127563
v 5.764252186 34.75 -51.91246796
v 5.764252186 34.75 -52.36399078
v 5.798066616 34.75 -51.95591354
v 5.798066616 34.75 -52.3205452
v 5.824268818 34.75 -52.00432968
v 5.824268818 34.75 -52.27212906
v 5.842144489 34.75 -52.0564003
v 5.842144489 34.75 -52.22005844
v 5.851205826 34.75 -52.11070251
v 5.851205826 34.75 -52.16575623
v 5.410777569 34.75 -52.45350266
v 5.410777569 34.75 -51.82295609
v 5.360361576 34.75 -52.43138504
v 5.360361576 34.75 -51.84506989
v 5.314273357 34.75 -52.40127563
v 5.314273357 34.75 -51.87518311
v 5.273769855 34.75 -52.36399078
v 5.273769855 34.75 -51.91246796
v 5.239955425 34.75 -52.3205452
v 5.239955425 34.75 -51.95591354
v 5.213753223 34.75 -52.27212906
v 5.213753223 34.75 -52.00432968
v 5.195877552 34.75 -52.22005844
v 5.195877552 34.75 -52.0564003
v 5.186816216 34.75 -52.16575623
v 5.186816216 34.75 -52.11070251
v 5.519011021 35.58333206 -52.47156143
v 5.464146137 35.58333206 -52.46701431
v 5.410777569 35.58333206 -52.45350266
v 5.360361576 35.58333206 -52.43138504
v 5.314273357 35.58333206 -52.40127563
v 5.273769855 35.58333206 -52.36399078
v 5.239955425 35.58333206 -52.3205452
v 5.213753223 35.58333206 -52.27212906
v 5.195877552 35.58333206 -52.22005844
v 5.186816216 35.58333206 -52.16575623
v 5.186816216 35.58333206 -52.11070251
v 5.195877552 35.58333206 -52.0564003
v 5.213753223 35.58333206 -52.00432968
v 5.239955425 35.58333206 -51.95591354
v 5.273769855 35.58333206 -51.91246796
v 5.314273357 35.58333206 -51.87518311
v 5.360361576 35.58333206 -51.84506989
v 5.410777569 35.58333206 -51.82295609
v 5.464146137 35.58333206 -51.80944061
v 5.519011021 35.58333206 -51.80489731
v 5.573875904 35.58333206 -51.80944061
v 5.627243996 35.58333206 -51.82295609
v 5.677659988 35.58333206 -51.84506989
v 5.723748684 35.58333206 -51.87518311
v 5.764252186 35.58333206 -51.91246796
v 5.798066616 35.58333206 -51.95591354
v 5.824268818 35.58333206 -52.00432968
v 5.842144489 35.58333206 -52.0564003
v 5.851205826 35.58333206 -52.11070251
v 5.851205826 35.58333206 -52.16575623
v 5.842144489 35.58333206 -52.22005844
v 5.824268818 35.58333206 -52.27212906
v 5.798066616 35.58333206 -52.3205452
v 5.764252186 35.58333206 -52.36399078
v 5.723748684 35.58333206 -52.40127563
v 5.677659988 35.58333206 -52.43138504
v 5.627243996 35.58333206 -52.45350266
v 5.573875904 35.58333206 -52.46701431
vn -0.1247744933 -0.581263423 0.8040921092
vn -0.1720761508 -0.5945168138 -0.7854549885
vn 0.02467634529 -0.601075232 0.7988113761
vn -0.02467634529 -0.601075232 -0.7988113761
vn 0.1721123308 -0.5945118666 0.7854508162
vn 0.1247550026 -0.5812660456 -0.8040933013
vn 0.3227138519 -0.5610950589 0.7622520328
vn 0.2809801698 -0.5337488055 -0.7975978851
vn 0.4786970019 -0.4990499318 0.722356081
vn 0.4446629286 -0.4570381641 -0.7703187466
vn 0.6355251074 -0.4082395732 0.6553230286
vn 0.6085006595 -0.3537445366 -0.7103462219
vn 0.7798323631 -0.2953923941 0.551910162
vn 0.7570790648 -0.2357152402 -0.6093189716
vn 0.8940467834 -0.1776484102 0.4112436771
vn 0.8741506338 -0.1242487878 -0.4694921374
vn 0.9668372273 -0.07829729468 0.2430953383
vn 0.952078104 -0.04202063382 -0.3029546738
vn 0.9979635477 -0.01702339202 0.06147319451
vn 0.9924016595 -0.004293165635 -0.1229652762
vn -0.3226975203 -0.5610972047 -0.7622573376
vn -0.2810184956 -0.5337436795 0.7975878119
vn -0.4787265062 -0.4990395308 -0.7223437428
vn -0.4446444511 -0.4570440352 0.7703259587
vn -0.6355386972 -0.408236146 -0.6553120017
vn -0.6084717512 -0.3537522852 0.7103670835
vn -0.7798137069 -0.2954009175 -0.5519319177
vn -0.7570900321 -0.2357124537 0.6093063951
vn -0.8940500617 -0.1776467264 -0.411237359
vn -0.8741536736 -0.1242468655 0.4694870114
vn -0.9668387771 -0.07829550654 -0.2430897951
vn -0.9520736933 -0.04202252999 0.302968353
vn -0.9979635477 -0.01702339202 -0.06147319451
vn -0.9924016595 -0.004293165635 0.1229652762
vn -0.02467634529 0.601075232 0.7988113761
vn -0.1721131653 0.5945129395 0.7854498029
vn -0.3227151036 0.5610936284 0.7622525096
vn -0.4786948264 0.4990493357 0.7223579288
vn -0.635525763 0.4082417488 0.655321002
vn -0.7798314691 0.2953904867 0.5519124269
vn -0.8940453529 0.1776504368 0.4112459421
vn -0.9668372273 0.07829729468 0.2430953383
vn -0.9979635477 0.01702339202 0.06147319451
vn -0.9924016595 0.004293165635 -0.1229652762
vn -0.952078104 0.04202063382 -0.3029546738
vn -0.8741481304 0.1242494211 -0.4694966674
vn -0.7570801973 0.2357165664 -0.6093170643
vn -0.6084997058 0.3537427187 -0.7103479505
vn -0.4446613789 0.4570397437 -0.7703187466
vn -0.2809815705 0.5337496996 -0.7975968122
vn -0.1247555017 0.5812648535 -0.8040940762
vn 0.02467634529 0.601075232 -0.7988113761
vn 0.1720753312 0.5945157409 -0.7854560018
vn 0.3226962686 0.5610985756 -0.7622568607
vn 0.4787286818 0.4990401268 -0.7223418951
vn 0.6355380416 0.4082339704 -0.6553140283
vn 0.7798146009 0.2954028249 -0.5519297123
vn 0.8940514922 0.1776446998 -0.4112350941
vn 0.9668387771 0.07829550654 -0.2430897951
vn 0.9979635477 0.01702339202 -0.06147319451
vn 0.9924016595 0.004293165635 0.1229652762
vn 0.9520736933 0.04202252999 0.302968353
vn 0.8741562366 0.1242462322 0.4694824815
vn 0.7570888996 0.2357111275 0.609308362
vn 0.6084727049 0.3537540734 0.7103654146
vn 0.4446460009 0.4570424557 0.7703260183
vn 0.2810171247 0.5337427855 0.7975888848
vn 0.1247740015 0.5812646151 0.8040913343
vn -0.1427839845 -0.4972777367 0.8557614088
vn -0.1064891219 -0.7624436021 -0.6382318139
vn 0.02158754691 -0.622813046 0.7820727825
vn -0.02160566486 -0.6228128076 -0.7820724845
vn 0.1064894944 -0.7624440193 0.6382312179
vn 0.1427846551 -0.4972771406 -0.8557616472
vn 0.2407601476 -0.5910211802 0.7698886395
vn 0.2883436084 -0.5692315102 -0.7699567676
vn 0.379576236 -0.5414610505 0.750161171
vn 0.4308493435 -0.5075548291 -0.7461614609
vn 0.5234832168 -0.4675572515 0.7122889757
vn 0.5764095783 -0.4218631387 -0.699845314
vn 0.6655094028 -0.3712717295 0.6474986672
vn 0.7152130008 -0.3171467483 -0.6228067875
vn 0.7931864858 -0.2613470256 0.5500481129
vn 0.8336540461 -0.2061056793 -0.5123879313
vn 0.8935706019 -0.1538055092 0.4217527807
vn 0.9212224483 -0.1067338064 -0.3741084039
vn 0.9600999355 -0.06686548144 0.2715457678
vn 0.9751855731 -0.03574087843 -0.2184848636
vn 0.9938210249 -0.01444165781 0.1100507081
vn 0.998478055 -0.003635565983 -0.0550305061
vn -0.2407411635 -0.5910240412 -0.7698923945
vn -0.2883253396 -0.5692347884 0.7699611783
vn -0.3795939386 -0.5414568186 -0.7501552701
vn -0.4308679402 -0.5075498819 0.7461540699
vn -0.5234562159 -0.4675663114 -0.7123028636
vn -0.5764250755 -0.4218574464 0.6998359561
vn -0.6655094028 -0.3712717295 -0.6474986672
vn -0.7152130008 -0.3171467483 0.6228067875
vn -0.7931864858 -0.2613470256 -0.5500481129
vn -0.8336540461 -0.2061056793 0.5123879313
vn -0.8935706019 -0.1538055092 -0.4217527807
vn -0.9212224483 -0.1067338064 0.3741084039
vn -0.9600999355 -0.06686548144 -0.2715457678
vn -0.9751855731 -0.03574087843 0.2184848636
vn -0.9938210249 -0.01444165781 -0.1100507081
vn -0.998478055 -0.003635565983 0.0550305061
vn 0.02160566486 0.6228128076 -0.7820724845
vn -0.1427839845 0.4972777367 -0.8557614088
vn -0.2883428037 0.569231689 -0.7699569464
vn -0.4308516979 0.5075542331 -0.7461605072
vn -0.5764110684 0.4218625724 -0.6998444796
vn -0.7152130008 0.3171467483 -0.6228067875
vn -0.8336540461 0.2061056793 -0.5123879313
vn -0.9212224483 0.1067338064 -0.3741084039
vn -0.9751855731 0.03574087843 -0.2184848636
vn -0.998478055 0.003635565983 -0.0550305061
vn -0.9938210249 0.01444165781 0.1100507081
vn -0.9600999355 0.06686548144 0.2715457678
vn -0.8935706019 0.1538055092 0.4217527807
vn -0.7931864858 0.2613470256 0.5500481129
vn -0.6655094028 0.3712717295 0.6474986672
vn -0.5234859586 0.467556268 0.7122876048
vn -0.3795772791 0.5414608121 0.7501608133
vn -0.2407587618 0.5910214186 0.7698888779
vn -0.1064891219 0.7624436021 0.6382318139
vn -0.02158754691 0.622813046 0.7820727825
vn 0.1427846551 0.4972771406 0.8557616472
vn 0.2883261442 0.5692346096 0.7699609995
vn 0.4308656156 0.507550478 0.7461550236
vn 0.576423645 0.4218580425 0.6998368502
vn 0.7152130008 0.3171467483 0.6228067875
vn 0.8336540461 0.2061056793 0.5123879313
vn 0.9212224483 0.1067338064 0.3741084039
vn 0.9751855731 0.03574087843 0.2184848636
vn 0.998478055 0.003635565983 0.0550305061
vn 0.9938210249 0.01444165781 -0.1100507081
vn 0.9600999355 0.06686548144 -0.2715457678
vn 0.8935706019 0.1538055092 -0.4217527807
vn 0.7931864858 0.2613470256 -0.5500481129
vn 0.6655094028 0.3712717295 -0.6474986672
vn 0.523453474 0.467567265 -0.7123042345
vn 0.3795928955 0.541457057 -0.7501556277
vn 0.2407425344 0.5910238624 -0.7698920965
vn 0.1064894944 0.7624440193 -0.6382312179
f 1//1 2//2 3//3 
f 3//3 2//2 4//4 
f 3//3 4//4 5//5 
f 5//5 4//4 6//6 
f 5//5 6//6 7//7 
f 7//7 6//6 8//8 
f 7//7 8//8 9//9 
f 9//9 8//8 10//10 
f 9//9 10//10 11//11 
f 11//11 10//10 12//12 
f 11//11 12//12 13//13 
f 13//13 12//12 14//14 
f 13//13 14//14 15//15 
f 15//15 14//14 16//16 
f 15//15 16//16 17//17 
f 17//17 16//16 18//18 
f 17//17 18//18 19//19 
f 19//19 18//18 20//20 
f 2//2 1//1 21//21 
f 21//21 1//1 22//22 
f 21//21 22//22 23//23 
f 23//23 22//22 24//24 
f 23//23 24//24 25//25 
f 25//25 24//24 26//26 
f 25//25 26//26 27//27 
f 27//27 26//26 28//28 
f 27//27 28//28 29//29 
f 29//29 28//28 30//30 
f 29//29 30//30 31//31 
f 31//31 30//30 32//32 
f 31//31 32//32 33//33 
f 33//33 32//32 34//34 
f 3//3 35//35 1//1 
f 1//1 35//35 36//36 
f 1//1 36//36 22//22 
f 22//22 36//36 37//37 
f 22//22 37//37 24//24 
f 24//24 37//37 38//38 
f 24//24 38//38 26//26 
f 26//26 38//38 39//39 
f 26//26 39//39 28//28 
f 28//28 39//39 40//40 
f 28//28 40//40 30//30 
f 30//30 40//40 41//41 
f 30//30 41//41 32//32 
f 32//32 41//41 42//42 
f 32//32 42//42 34//34 
f 34//34 42//42 43//43 
f 34//34 43//43 33//33 
f 33//33 43//43 44//44 
f 33//33 44//44 31//31 
f 31//31 44//44 45//45 
f 31//31 45//45 29//29 
f 29//29 45//45 46//46 
f 29//29 46//46 27//27 
f 27//27 46//46 47//47 
f 27//27 47//47 25//25 
f 25//25 47//47 48//48 
f 25//25 48//48 23//23 
f 23//23 48//48 49//49 
f 23//23 49//49 21//21 
f 21//21 49//49 50//50 
f 21//21 50//50 2//2 
f 2//2 50//50 51//51 
f 2//2 51//51 4//4 
f 4//4 51//51 52//52 
f 4//4 52//52 6//6 
f 6//6 52//52 53//53 
f 6//6 53//53 8//8 
f 8//8 53//53 54//54 
f 8//8 54//54 10//10 
f 10//10 54//54 55//55 
f 10//10 55//55 12//12 
f 12//12 55//55 56//56 
f 12//12 56//56 14//14 
f 14//14 56//56 57//57 
f 14//14 57//57 16//16 
f 16//16 57//57 58//58 
f 16//16 58//58 18//18 
f 18//18 58//58 59//59 
f 18//18 59//59 20//20 
f 20//20 59//59 60//60 
f 20//20 60//60 19//19 
f 19//19 60//60 61//61 
f 19//19 61//61 17//17 
f 17//17 61//61 62//62 
f 17//17 62//62 15//15 
f 15//15 62//62 63//63 
f 15//15 63//63 13//13 
f 13//13 63//63 64//64 
f 13//13 64//64 11//11 
f 11//11 64//64 65//65 
f 11//11 65//65 9//9 
f 9//9 65//65 66//66 
f 9//9 66//66 7//7 
f 7//7 66//66 67//67 
f 7//7 67//67 5//5 
f 5//5 67//67 68//68 
f 5//5 68//68 3//3 
f 3//3 68//68 35//35 
f 68//68 53//53 35//35 
f 35//35 53//53 52//52 
f 35//35 52//52 36//36 
f 36//36 52//52 51//51 
f 36//36 51//51 37//37 
f 37//37 51//51 50//50 
f 37//37 50//50 38//38 
f 38//38 50//50 49//49 
f 38//38 49//49 39//39 
f 39//39 49//49 48//48 
f 39//39 48//48 40//40 
f 40//40 48//48 47//47 
f 40//40 47//47 41//41 
f 41//41 47//47 46//46 
f 41//41 46//46 42//42 
f 42//42 46//46 45//45 
f 42//42 45//45 43//43 
f 43//43 45//45 44//44 
f 53//53 68//68 54//54 
f 54//54 68//68 67//67 
f 54//54 67//67 55//55 
f 55//55 67//67 66//66 
f 55//55 66//66 56//56 
f 56//56 66//66 65//65 
f 56//56 65//65 57//57 
f 57//57 65//65 64//64 
f 57//57 64//64 58//58 
f 58//58 64//64 63//63 
f 58//58 63//63 59//59 
f 59//59 63//63 62//62 
f 59//59 62//62 60//60 
f 60//60 62//62 61//61 
f 69//69 70//70 71//71 
f 71//71 70//70 72//72 
f 71//71 72//72 73//73 
f 73//73 72//72 74//74 
f 73//73 74//74 75//75 
f 75//75 74//74 76//76 
f 75//75 76//76 77//77 
f 77//77 76//76 78//78 
f 77//77 78//78 79//79 
f 79//79 78//78 80//80 
f 79//79 80//80 81//81 
f 81//81 80//80 82//82 
f 81//81 82//82 83//83 
f 83//83 82//82 84//84 
f 83//83 84//84 85//85 
f 85//85 84//84 86//86 
f 85//85 86//86 87//87 
f 87//87 86//86 88//88 
f 87//87 88//88 89//89 
f 89//89 88//88 90//90 
f 70//70 69//69 91//91 
f 91//91 69//69 92//92 
f 91//91 92//92 93//93 
f 93//93 92//92 94//94 
f 93//93 94//94 95//95 
f 95//95 94//94 96//96 
f 95//95 96//96 97//97 
f 97//97 96//96 98//98 
f 97//97 98//98 99//99 
f 99//99 98//98 100//100 
f 99//99 100//100 101//101 
f 101//101 100//100 102//102 
f 101//101 102//102 103//103 
f 103//103 102//102 104//104 
f 103//103 104//104 105//105 
f 105//105 104//104 106//106 
f 107//107 72//72 108//108 
f 108//108 72//72 70//70 
f 108//108 70//70 91//91 
f 108//108 91//91 109//109 
f 109//109 91//91 93//93 
f 109//109 93//93 110//110 
f 110//110 93//93 95//95 
f 110//110 95//95 111//111 
f 111//111 95//95 97//97 
f 111//111 97//97 112//112 
f 112//112 97//97 99//99 
f 112//112 99//99 113//113 
f 113//113 99//99 101//101 
f 113//113 101//101 114//114 
f 114//114 101//101 103//103 
f 114//114 103//103 115//115 
f 115//115 103//103 105//105 
f 115//115 105//105 116//116 
f 116//116 105//105 106//106 
f 116//116 106//106 117//117 
f 117//117 106//106 104//104 
f 117//117 104//104 118//118 
f 118//118 104//104 102//102 
f 118//118 102//102 119//119 
f 119//119 102//102 100//100 
f 119//119 100//100 120//120 
f 120//120 100//100 98//98 
f 120//120 98//98 121//121 
f 121//121 98//98 96//96 
f 121//121 96//96 122//122 
f 122//122 96//96 94//94 
f 122//122 94//94 123//123 
f 123//123 94//94 92//92 
f 123//123 92//92 124//124 
f 124//124 92//92 69//69 
f 124//124 69//69 125//125 
f 125//125 69//69 126//126 
f 126//126 69//69 71//71 
f 126//126 71//71 127//127 
f 127//127 71//71 73//73 
f 127//127 73//73 75//75 
f 127//127 75//75 128//128 
f 128//128 75//75 77//77 
f 128//128 77//77 129//129 
f 129//129 77//77 79//79 
f 129//129 79//79 130//130 
f 130//130 79//79 81//81 
f 130//130 81//81 131//131 
f 131//131 81//81 83//83 
f 131//131 83//83 132//132 
f 132//132 83//83 85//85 
f 132//132 85//85 133//133 
f 133//133 85//85 87//87 
f 133//133 87//87 134//134 
f 134//134 87//87 89//89 
f 134//134 89//89 135//135 
f 135//135 89//89 90//90 
f 135//135 90//90 136//136 
f 136//136 90//90 88//88 
f 136//136 88//88 137//137 
f 137//137 88//88 86//86 
f 137//137 86//86 138//138 
f 138//138 86//86 84//84 
f 138//138 84//84 139//139 
f 139//139 84//84 82//82 
f 139//139 82//82 140//140 
f 140//140 82//82 80//80 
f 140//140 80//80 141//141 
f 141//141 80//80 78//78 
f 141//141 78//78 142//142 
f 142//142 78//78 76//76 
f 142//142 76//76 143//143 
f 143//143 76//76 74//74 
f 143//143 74//74 144//144 
f 144//144 74//74 107//107 
f 107//107 74//74 72//72 
f 127//127 144//144 126//126 
f 126//126 144//144 107//107 
f 126//126 107//107 125//125 
f 125//125 107//107 108//108 
f 125//125 108//108 124//124 
f 124//124 108//108 109//109 
f 124//124 109//109 123//123 
f 123//123 109//109 110//110 
f 123//123 110//110 122//122 
f 122//122 110//110 111//111 
f 122//122 111//111 121//121 
f 121//121 111//111 112//112 
f 121//121 112//112 120//120 
f 120//120 112//112 113//113 
f 120//120 113//113 119//119 
f 119//119 113//113 114//114 
f 119//119 114//114 118//118 
f 118//118 114//114 115//115 
f 118//118 115//115 117//117 
f 117//117 115//115 116//116 
f 144//144 127//127 143//143 
f 143//143 127//127 128//128 
f 143//143 128//128 142//142 
f 142//142 128//128 129//129 
f 142//142 129//129 141//141 
f 141//141 129//129 130//130 
f 141//141 130//130 140//140 
f 140//140 130//130 131//131 
f 140//140 131//131 139//139 
f 139//139 131//131 132//132 
f 139//139 132//132 138//138 
f 138//138 132//132 133//133 
f 138//138 133//133 137//137 
f 137//137 133//133 134//134 
f 137//137 134//134 136//136 
f 136//136 134//134 135//135 
