v 5.572604656 35.54166794 -45.33802414
v 5.572604656 35.54166794 -44.76462555
v 5.519011021 35.54166794 -45.34299088
v 5.519011021 35.54166794 -44.75965881
v 5.465417385 35.54166794 -45.33802414
v 5.465417385 35.54166794 -44.76462555
v 5.413648605 35.54166794 -45.32329559
v 5.413648605 35.54166794 -44.7793541
v 5.365468025 35.54166794 -45.29930496
v 5.365468025 35.54166794 -44.80334473
v 5.322516441 35.54166794 -45.26686859
v 5.322516441 35.54166794 -44.8357811
v 5.286255836 35.54166794 -45.22709274
v 5.286255836 35.54166794 -44.87555695
v 5.257921696 35.54166794 -45.18133163
v 5.257921696 35.54166794 -44.92131805
v 5.238478661 35.54166794 -45.13114166
v 5.238478661 35.54166794 -44.97150421
v 5.228588581 35.54166794 -45.07823563
v 5.228588581 35.54166794 -45.02441406
v 5.624372959 35.54166794 -44.7793541
v 5.624372959 35.54166794 -45.32329559
v 5.672553539 35.54166794 -44.80334473
v 5.672553539 35.54166794 -45.29930496
v 5.7155056 35.54166794 -44.8357811
v 5.7155056 35.54166794 -45.26686859
v 5.751765728 35.54166794 -44.87555695
v 5.751765728 35.54166794 -45.22709274
v 5.780100346 35.54166794 -44.92131805
v 5.780100346 35.54166794 -45.18133163
v 5.799543381 35.54166794 -44.97150421
v 5.799543381 35.54166794 -45.13114166
v 5.80943346 35.54166794 -45.02441406
v 5.80943346 35.54166794 -45.07823563
v 5.519011021 34.77083206 -45.34299088
v 5.572604656 34.77083206 -45.33802414
v 5.624372959 34.77083206 -45.32329559
v 5.672553539 34.77083206 -45.29930496
v 5.7155056 34.77083206 -45.26686859
v 5.751765728 34.77083206 -45.22709274
v 5.780100346 34.77083206 -45.18133163
v 5.799543381 34.77083206 -45.13114166
v 5.80943346 34.77083206 -45.07823563
v 5.80943346 34.77083206 -45.02441406
v 5.799543381 34.77083206 -44.97150421
v 5.780100346 34.77083206 -44.92131805
v 5.751765728 34.77083206 -44.87555695
v 5.7155056 34.77083206 -44.8357811
v 5.672553539 34.77083206 -44.80334473
v 5.624372959 34.77083206 -44.7793541
v 5.572604656 34.77083206 -44.76462555
v 5.519011021 34.77083206 -44.75965881
v 5.465417385 34.77083206 -44.76462555
v 5.413648605 34.77083206 -44.7793541
v 5.365468025 34.77083206 -44.80334473
v 5.322516441 34.77083206 -44.8357811
v 5.286255836 34.77083206 -44.87555695
v 5.257921696 34.77083206 -44.92131805
v 5.238478661 34.77083206 -44.97150421
v 5.228588581 34.77083206 -45.02441406
v 5.228588581 34.77083206 -45.07823563
v 5.238478661 34.77083206 -45.13114166
v 5.257921696 34.77083206 -45.18133163
v 5.286255836 34.77083206 -45.22709274
v 5.322516441 34.77083206 -45.26686859
v 5.365468025 34.77083206 -45.29930496
v 5.413648605 34.77083206 -45.32329559
v 5.465417385 34.77083206 -45.33802414
v 5.464146137 34.75 -44.72253799
v 5.464146137 34.75 -45.38011169
v 5.519011021 34.75 -44.71799088
v 5.519011021 34.75 -45.38465881
v 5.573875904 34.75 -44.72253799
v 5.573875904 34.75 -45.38011169
v 5.627243996 34.75 -44.73605347
v 5.627243996 34.75 -45.36659622
v 5.677659988 34.75 -44.75816727
v 5.677659988 34.75 -45.34448242
v 5.723748684 34.75 -44.78827667
v 5.723748684 34.75 -45.3143692
v 5.764252186 34.75 -44.82556534
v 5.764252186 34.75 -45.27708435
v 5.798066616 34.75 -44.86900711
v 5.798066616 34.75 -45.23363876
v 5.824268818 34.75 -44.91742706
v 5.824268818 34.75 -45.18522263
v 5.842144489 34.75 -44.96949387
v 5.842144489 34.75 -45.13315201
v 5.851205826 34.75 -45.02379608
v 5.851205826 34.75 -45.07884979
v 5.410777569 34.75 -45.36659622
v 5.410777569 34.75 -44.73605347
v 5.360361576 34.75 -45.34448242
v 5.360361576 34.75 -44.75816727
v 5.314273357 34.75 -45.3143692
v 5.314273357 34.75 -44.78827667
v 5.273769855 34.75 -45.27708435
v 5.273769855 34.75 -44.82556534
v 5.239955425 34.75 -45.23363876
v 5.239955425 34.75 -44.86900711
v 5.213753223 34.75 -45.18522263
v 5.213753223 34.75 -44.91742706
v 5.195877552 34.75 -45.13315201
v 5.195877552 34.75 -44.96949387
v 5.186816216 34.75 -45.07884979
v 5.186816216 34.75 -45.02379608
v 5.519011021 35.58333206 -45.38465881
v 5.464146137 35.58333206 -45.38011169
v 5.410777569 35.58333206 -45.36659622
v 5.360361576 35.58333206 -45.34448242
v 5.314273357 35.58333206 -45.3143692
v 5.273769855 35.58333206 -45.27708435
v 5.239955425 35.58333206 -45.23363876
v 5.213753223 35.58333206 -45.18522263
v 5.195877552 35.58333206 -45.13315201
v 5.186816216 35.58333206 -45.07884979
v 5.186816216 35.58333206 -45.02379608
v 5.195877552 35.58333206 -44.96949387
v 5.213753223 35.58333206 -44.91742706
v 5.239955425 35.58333206 -44.86900711
v 5.273769855 35.58333206 -44.82556534
v 5.314273357 35.58333206 -44.78827667
v 5.360361576 35.58333206 -44.75816727
v 5.410777569 35.58333206 -44.73605347
v 5.464146137 35.58333206 -44.72253799
v 5.519011021 35.58333206 -44.71799088
v 5.573875904 35.58333206 -44.72253799
v 5.627243996 35.58333206 -44.73605347
v 5.677659988 35.58333206 -44.75816727
v 5.723748684 35.58333206 -44.78827667
v 5.764252186 35.58333206 -44.82556534
v 5.798066616 35.58333206 -44.86900711
v 5.824268818 35.58333206 -44.91742706
v 5.842144489 35.58333206 -44.96949387
v 5.851205826 35.58333206 -45.02379608
v 5.851205826 35.58333206 -45.07884979
v 5.842144489 35.58333206 -45.13315201
v 5.824268818 35.58333206 -45.18522263
v 5.798066616 35.58333206 -45.23363876
v 5.764252186 35.58333206 -45.27708435
v 5.723748684 35.58333206 -45.3143692
v 5.677659988 35.58333206 -45.34448242
v 5.627243996 35.58333206 -45.36659622
v 5.573875904 35.58333206 -45.38011169
vn -0.124755688 -0.5812630653 0.8040952682
vn -0.1720765531 -0.5945143104 -0.7854568362
vn 0.02467640489 -0.6010727286 0.7988132834
vn -0.02467640489 -0.6010727286 -0.7988132834
vn 0.1720757335 -0.5945132375 0.7854577899
vn 0.1247551963 -0.5812642574 -0.8040944934
vn 0.322696507 -0.5610976815 0.7622573972
vn 0.2809801698 -0.5337488055 -0.7975978851
vn 0.4787286818 -0.4990401268 0.7223418951
vn 0.444663167 -0.4570372403 -0.7703191638
vn 0.635538578 -0.4082320929 0.6553146243
vn 0.6085013747 -0.353741616 -0.7103470564
vn 0.7798152566 -0.2954001129 0.5519301891
vn 0.7570794225 -0.2357134223 -0.6093192697
vn 0.8940516114 -0.1776438653 0.4112351537
vn 0.8741450906 -0.1242513433 -0.4695017934
vn 0.9668387771 -0.07829550654 0.2430897951
vn 0.9520758986 -0.04202127829 -0.3029615283
vn 0.9979633689 -0.01702389494 0.06147610396
vn 0.9924020767 -0.00429276051 -0.1229623854
vn -0.3226977587 -0.5610963106 -0.762257874
vn -0.2809815705 -0.5337496996 0.7975968122
vn -0.4787265062 -0.4990395308 -0.7223437428
vn -0.4446616173 -0.4570388198 0.7703191042
vn -0.6355392933 -0.4082342684 -0.6553125978
vn -0.608500421 -0.3537398279 0.7103487849
vn -0.7798144221 -0.2953982055 -0.5519323945
vn -0.757080555 -0.2357147485 0.6093173027
vn -0.894040823 -0.1776533127 -0.4112545848
vn -0.8741481304 -0.1242494211 0.4694966674
vn -0.9668402672 -0.07829371095 -0.243084237
vn -0.952078104 -0.04202033207 0.3029546738
vn -0.9979634881 -0.01702349074 -0.06147464737
vn -0.9924013019 -0.004292962607 0.1229681671
vn -0.02467640489 0.6010727286 0.7988132834
vn -0.1720765531 0.5945143104 0.7854568362
vn -0.3226977587 0.5610963106 0.762257874
vn -0.4787265062 0.4990395308 0.7223437428
vn -0.6355392933 0.4082342684 0.6553125978
vn -0.7798144221 0.2953982055 0.5519323945
vn -0.8940501809 0.1776458919 0.4112374187
vn -0.9668387771 0.07829550654 0.2430897951
vn -0.9979633689 0.01702389494 0.06147610396
vn -0.9924020767 0.00429276051 -0.1229623854
vn -0.9520758986 0.04202127829 -0.3029615283
vn -0.8741425872 0.1242519766 -0.4695063233
vn -0.757080555 0.2357147485 -0.6093173027
vn -0.608500421 0.3537398279 -0.7103487849
vn -0.4446616173 0.4570388198 -0.7703191042
vn -0.2809815705 0.5337496996 -0.7975968122
vn -0.124755688 0.5812630653 -0.8040952682
vn 0.02467640489 0.6010727286 -0.7988132834
vn 0.1720757335 0.5945132375 -0.7854577899
vn 0.322696507 0.5610976815 -0.7622573972
vn 0.4787286818 0.4990401268 -0.7223418951
vn 0.635538578 0.4082320929 -0.6553146243
vn 0.7798152566 0.2954001129 -0.5519301891
vn 0.8940422535 0.1776512861 -0.4112523198
vn 0.9668402672 0.07829371095 -0.243084237
vn 0.9979634881 0.01702349074 -0.06147464737
vn 0.9924013019 0.004292962607 0.1229681671
vn 0.952078104 0.04202033207 0.3029546738
vn 0.8741506338 0.1242487878 0.4694921374
vn 0.7570794225 0.2357134223 0.6093192697
vn 0.6085013747 0.353741616 0.7103470564
vn 0.444663167 0.4570372403 0.7703191638
vn 0.2809801698 0.5337488055 0.7975978851
vn 0.1247551963 0.5812642574 0.8040944934
vn -0.1428136081 -0.4972748756 0.8557581306
vn -0.1065112427 -0.76244241 -0.6382295489
vn 0.0216056332 -0.6228142977 0.782071352
vn -0.0216056332 -0.6228142977 -0.782071352
vn 0.1065116152 -0.7624428272 0.6382289529
vn 0.1428142786 -0.4972742796 -0.855758369
vn 0.2407604754 -0.59101969 0.7698897123
vn 0.2883265316 -0.5692330003 -0.7699620724
vn 0.3795597851 -0.5414642096 0.750167191
vn 0.4308656156 -0.507550478 -0.7461550236
vn 0.5234683156 -0.4675622582 0.7122966051
vn 0.5764238834 -0.421857208 -0.6998371482
vn 0.6655218601 -0.3712647557 0.6474898458
vn 0.715213418 -0.31714499 -0.6228072047
vn 0.7931783795 -0.2613508105 0.5500580072
vn 0.8336541653 -0.2061049938 -0.512387991
vn 0.8935753703 -0.153801173 0.4217442274
vn 0.9212225676 -0.1067325994 -0.3741084635
vn 0.9600963593 -0.06686795503 0.2715578377
vn 0.9751855731 -0.03574087843 -0.2184848636
vn 0.9938210249 -0.01444165781 0.1100507081
vn 0.998478055 -0.003635565983 -0.0550305061
vn -0.2407591045 -0.5910198689 -0.7698899508
vn -0.288325727 -0.5692331791 0.7699622512
vn -0.3795775175 -0.5414599776 -0.7501612902
vn -0.4308354259 -0.5075586438 0.7461669445
vn -0.5234859586 -0.467556268 -0.7122876048
vn -0.5764393806 -0.4218515158 0.6998277903
vn -0.6655098796 -0.3712700903 -0.6474991441
vn -0.7152026892 -0.317149967 0.6228169799
vn -0.7931866646 -0.2613461912 -0.5500482321
vn -0.8336610794 -0.2061011046 0.5123782754
vn -0.8935707808 -0.1538043171 -0.4217528701
vn -0.9212190509 -0.1067348644 0.3741163909
vn -0.9600999951 -0.0668649897 -0.2715457976
vn -0.9751844406 -0.0357416831 0.2184897959
vn -0.9938210249 -0.01444165781 -0.1100507081
vn -0.998478055 -0.003635565983 0.0550305061
vn 0.0216056332 0.6228142977 -0.782071352
vn -0.1428136081 0.4972748756 -0.8557581306
vn -0.288325727 0.5692331791 -0.7699622512
vn -0.4308679402 0.5075498819 -0.7461540699
vn -0.5764253139 0.421856612 -0.6998362541
vn -0.715213418 0.31714499 -0.6228072047
vn -0.8336541653 0.2061049938 -0.512387991
vn -0.9212225676 0.1067325994 -0.3741084635
vn -0.9751855731 0.03574087843 -0.2184848636
vn -0.998478055 0.003635565983 -0.0550305061
vn -0.9938210249 0.01444165781 0.1100507081
vn -0.9600963593 0.06686795503 0.2715578377
vn -0.8935753703 0.153801173 0.4217442274
vn -0.7931783795 0.2613508105 0.5500580072
vn -0.6655218601 0.3712647557 0.6474898458
vn -0.5234710574 0.4675613046 0.7122952342
vn -0.379560858 0.5414640307 0.7501668334
vn -0.2407591045 0.5910198689 0.7698899508
vn -0.1065112427 0.76244241 0.6382295489
vn -0.0216056332 0.6228142977 0.782071352
vn 0.1428142786 0.4972742796 0.855758369
vn 0.2883265316 0.5692330003 0.7699620724
vn 0.4308331013 0.5075591803 0.7461678982
vn 0.5764378905 0.421852082 0.6998286843
vn 0.7152026892 0.317149967 0.6228169799
vn 0.8336610794 0.2061011046 0.5123782754
vn 0.9212190509 0.1067348644 0.3741163909
vn 0.9751844406 0.0357416831 0.2184897959
vn 0.998478055 0.003635565983 0.0550305061
vn 0.9938210249 0.01444165781 -0.1100507081
vn 0.9600999951 0.0668649897 -0.2715457976
vn 0.8935707808 0.1538043171 -0.4217528701
vn 0.7931866646 0.2613461912 -0.5500482321
vn 0.6655098796 0.3712700903 -0.6474991441
vn 0.5234832168 0.4675572515 -0.7122889757
vn 0.3795764744 0.541460216 -0.7501616478
vn 0.2407604754 0.59101969 -0.7698897123
vn 0.1065116152 0.7624428272 -0.6382289529
f 1//1 2//2 3//3 
f 3//3 2//2 4//4 
f 3//3 4//4 5//5 
f 5//5 4//4 6//6 
f 5//5 6//6 7//7 
f 7//7 6//6 8//8 
f 7//7 8//8 9//9 
f 9//9 8//8 10//10 
f 9//9 10//10 11//11 
f 11//11 10//10 12//12 
f 11//11 12//12 13//13 
f 13//13 12//12 14//14 
f 13//13 14//14 15//15 
f 15//15 14//14 16//16 
f 15//15 16//16 17//17 
f 17//17 16//16 18//18 
f 17//17 18//18 19//19 
f 19//19 18//18 20//20 
f 2//2 1//1 21//21 
f 21//21 1//1 22//22 
f 21//21 22//22 23//23 
f 23//23 22//22 24//24 
f 23//23 24//24 25//25 
f 25//25 24//24 26//26 
f 25//25 26//26 27//27 
f 27//27 26//26 28//28 
f 27//27 28//28 29//29 
f 29//29 28//28 30//30 
f 29//29 30//30 31//31 
f 31//31 30//30 32//32 
f 31//31 32//32 33//33 
f 33//33 32//32 34//34 
f 3//3 35//35 1//1 
f 1//1 35//35 36//36 
f 1//1 36//36 22//22 
f 22//22 36//36 37//37 
f 22//22 37//37 24//24 
f 24//24 37//37 38//38 
f 24//24 38//38 26//26 
f 26//26 38//38 39//39 
f 26//26 39//39 28//28 
f 28//28 39//39 40//40 
f 28//28 40//40 30//30 
f 30//30 40//40 41//41 
f 30//30 41//41 32//32 
f 32//32 41//41 42//42 
f 32//32 42//42 34//34 
f 34//34 42//42 43//43 
f 34//34 43//43 33//33 
f 33//33 43//43 44//44 
f 33//33 44//44 31//31 
f 31//31 44//44 45//45 
f 31//31 45//45 29//29 
f 29//29 45//45 46//46 
f 29//29 46//46 27//27 
f 27//27 46//46 47//47 
f 27//27 47//47 25//25 
f 25//25 47//47 48//48 
f 25//25 48//48 23//23 
f 23//23 48//48 49//49 
f 23//23 49//49 21//21 
f 21//21 49//49 50//50 
f 21//21 50//50 2//2 
f 2//2 50//50 51//51 
f 2//2 51//51 4//4 
f 4//4 51//51 52//52 
f 4//4 52//52 6//6 
f 6//6 52//52 53//53 
f 6//6 53//53 8//8 
f 8//8 53//53 54//54 
f 8//8 54//54 10//10 
f 10//10 54//54 55//55 
f 10//10 55//55 12//12 
f 12//12 55//55 56//56 
f 12//12 56//56 14//14 
f 14//14 56//56 57//57 
f 14//14 57//57 16//16 
f 16//16 57//57 58//58 
f 16//16 58//58 18//18 
f 18//18 58//58 59//59 
f 18//18 59//59 20//20 
f 20//20 59//59 60//60 
f 20//20 60//60 19//19 
f 19//19 60//60 61//61 
f 19//19 61//61 17//17 
f 17//17 61//61 62//62 
f 17//17 62//62 15//15 
f 15//15 62//62 63//63 
f 15//15 63//63 13//13 
f 13//13 63//63 64//64 
f 13//13 64//64 11//11 
f 11//11 64//64 65//65 
f 11//11 65//65 9//9 
f 9//9 65//65 66//66 
f 9//9 66//66 7//7 
f 7//7 66//66 67//67 
f 7//7 67//67 5//5 
f 5//5 67//67 68//68 
f 5//5 68//68 3//3 
f 3//3 68//68 35//35 
f 68//68 53//53 35//35 
f 35//35 53//53 52//52 
f 35//35 52//52 36//36 
f 36//36 52//52 51//51 
f 36//36 51//51 37//37 
f 37//37 51//51 50//50 
f 37//37 50//50 38//38 
f 38//38 50//50 49//49 
f 38//38 49//49 39//39 
f 39//39 49//49 48//48 
f 39//39 48//48 40//40 
f 40//40 48//48 47//47 
f 40//40 47//47 41//41 
f 41//41 47//47 46//46 
f 41//41 46//46 42//42 
f 42//42 46//46 45//45 
f 42//42 45//45 43//43 
f 43//43 45//45 44//44 
f 53//53 68//68 54//54 
f 54//54 68//68 67//67 
f 54//54 67//67 55//55 
f 55//55 67//67 66//66 
f 55//55 66//66 56//56 
f 56//56 66//66 65//65 
f 56//56 65//65 57//57 
f 57//57 65//65 64//64 
f 57//57 64//64 58//58 
f 58//58 64//64 63//63 
f 58//58 63//63 59//59 
f 59//59 63//63 62//62 
f 59//59 62//62 60//60 
f 60//60 62//62 61//61 
f 69//69 70//70 71//71 
f 71//71 70//70 72//72 
f 71//71 72//72 73//73 
f 73//73 72//72 74//74 
f 73//73 74//74 75//75 
f 75//75 74//74 76//76 
f 75//75 76//76 77//77 
f 77//77 76//76 78//78 
f 77//77 78//78 79//79 
f 79//79 78//78 80//80 
f 79//79 80//80 81//81 
f 81//81 80//80 82//82 
f 81//81 82//82 83//83 
f 83//83 82//82 84//84 
f 83//83 84//84 85//85 
f 85//85 84//84 86//86 
f 85//85 86//86 87//87 
f 87//87 86//86 88//88 
f 87//87 88//88 89//89 
f 89//89 88//88 90//90 
f 70//70 69//69 91//91 
f 91//91 69//69 92//92 
f 91//91 92//92 93//93 
f 93//93 92//92 94//94 
f 93//93 94//94 95//95 
f 95//95 94//94 96//96 
f 95//95 96//96 97//97 
f 97//97 96//96 98//98 
f 97//97 98//98 99//99 
f 99//99 98//98 100//100 
f 99//99 100//100 101//101 
f 101//101 100//100 102//102 
f 101//101 102//102 103//103 
f 103//103 102//102 104//104 
f 103//103 104//104 105//105 
f 105//105 104//104 106//106 
f 107//107 72//72 108//108 
f 108//108 72//72 70//70 
f 108//108 70//70 91//91 
f 108//108 91//91 109//109 
f 109//109 91//91 93//93 
f 109//109 93//93 110//110 
f 110//110 93//93 95//95 
f 110//110 95//95 111//111 
f 111//111 95//95 97//97 
f 111//111 97//97 112//112 
f 112//112 97//97 99//99 
f 112//112 99//99 113//113 
f 113//113 99//99 101//101 
f 113//113 101//101 114//114 
f 114//114 101//101 103//103 
f 114//114 103//103 115//115 
f 115//115 103//103 105//105 
f 115//115 105//105 116//116 
f 116//116 105//105 106//106 
f 116//116 106//106 117//117 
f 117//117 106//106 104//104 
f 117//117 104//104 118//118 
f 118//118 104//104 102//102 
f 118//118 102//102 119//119 
f 119//119 102//102 100//100 
f 119//119 100//100 120//120 
f 120//120 100//100 98//98 
f 120//120 98//98 121//121 
f 121//121 98//98 96//96 
f 121//121 96//96 122//122 
f 122//122 96//96 94//94 
f 122//122 94//94 123//123 
f 123//123 94//94 92//92 
f 123//123 92//92 124//124 
f 124//124 92//92 69//69 
f 124//124 69//69 125//125 
f 125//125 69//69 126//126 
f 126//126 69//69 71//71 
f 126//126 71//71 127//127 
f 127//127 71//71 73//73 
f 127//127 73//73 75//75 
f 127//127 75//75 128//128 
f 128//128 75//75 77//77 
f 128//128 77//77 129//129 
f 129//129 77//77 79//79 
f 129//129 79//79 130//130 
f 130//130 79//79 81//81 
f 130//130 81//81 131//131 
f 131//131 81//81 83//83 
f 131//131 83//83 132//132 
f 132//132 83//83 85//85 
f 132//132 85//85 133//133 
f 133//133 85//85 87//87 
f 133//133 87//87 134//134 
f 134//134 87//87 89//89 
f 134//134 89//89 135//135 
f 135//135 89//89 90//90 
f 135//135 90//90 136//136 
f 136//136 90//90 88//88 
f 136//136 88//88 137//137 
f 137//137 88//88 86//86 
f 137//137 86//86 138//138 
f 138//138 86//86 84//84 
f 138//138 84//84 139//139 
f 139//139 84//84 82//82 
f 139//139 82//82 140//140 
f 140//140 82//82 80//80 
f 140//140 80//80 141//141 
f 141//141 80//80 78//78 
f 141//141 78//78 142//142 
f 142//142 78//78 76//76 
f 142//142 76//76 143//143 
f 143//143 76//76 74//74 
f 143//143 74//74 144//144 
f 144//144 74//74 107//107 
f 107//107 74//74 72//72 
f 127//127 144//144 126//126 
f 126//126 144//144 107//107 
f 126//126 107//107 125//125 
f 125//125 107//107 108//108 
f 125//125 108//108 124//124 
f 124//124 108//108 109//109 
f 124//124 109//109 123//123 
f 123//123 109//109 110//110 
f 123//123 110//110 122//122 
f 122//122 110//110 111//111 
f 122//122 111//111 121//121 
f 121//121 111//111 112//112 
f 121//121 112//112 120//120 
f 120//120 112//112 113//113 
f 120//120 113//113 119//119 
f 119//119 113//113 114//114 
f 119//119 114//114 118//118 
f 118//118 114//114 115//115 
f 118//118 115//115 117//117 
f 117//117 115//115 116//116 
f 144//144 127//127 143//143 
f 143//143 127//127 128//128 
f 143//143 128//128 142//142 
f 142//142 128//128 129//129 
f 142//142 129//129 141//141 
f 141//141 129//129 130//130 
f 141//141 130//130 140//140 
f 140//140 130//130 131//131 
f 140//140 131//131 139//139 
f 139//139 131//131 132//132 
f 139//139 132//132 138//138 
f 138//138 132//132 133//133 
f 138//138 133//133 137//137 
f 137//137 133//133 134//134 
f 137//137 134//134 136//136 
f 136//136 134//134 135//135 
