v 7.133184433 24.02912903 -61.59574509
v 7.133184433 24.02912903 -63.47074509
v 5.258184433 24.02912903 -61.59574509
v 5.258184433 24.02912903 -63.47074509
v 5.258184433 26.21662903 -63.47074509
v 5.258184433 26.21662903 -61.59574509
v 7.133184433 26.21662903 -63.47074509
v 5.195684433 26.21662903 -63.53324509
v 7.195684433 26.21662903 -63.53324509
v 7.195684433 26.21662903 -61.53324509
v 7.133184433 26.21662903 -61.59574509
v 5.195684433 26.21662903 -61.53324509
v 5.195684433 23.96662903 -63.53324509
v 5.445684433 23.96662903 -63.53324509
v 5.258184433 23.96662903 -63.47074509
v 5.445684433 23.96662903 -61.53324509
v 5.258184433 23.96662903 -61.59574509
v 5.195684433 23.96662903 -61.53324509
v 5.154017925 23.96662903 -63.53324509
v 5.154017925 23.96662903 -61.53324509
v 5.445684433 23.674963 -61.53324509
v 5.445684433 23.674963 -63.53324509
v 7.195684433 23.674963 -61.53324509
v 7.195684433 23.674963 -63.53324509
v 5.154017925 26.21662903 -63.53324509
v 5.154017925 26.21662903 -61.53324509
vn -0.4175849855 0.3579300046 -0.835169971
vn -0.709828198 0.6084241271 0.354914099
vn 0.709828198 0.6084241271 -0.354914099
vn 0.4175849855 0.3579300046 0.835169971
vn 0.8937413096 0.03915438056 0.4468706548
vn 0.4470676482 0.02554672211 -0.8941352963
vn -0.4468706548 0.03915438056 0.8937413096
vn 0 0.1029847339 -0.9946829081
vn 0.7503919601 0.02710176632 -0.6604372859
vn 0.4938114882 0.02428581752 0.8692297935
vn -0.8931823969 0.05274029449 -0.4465911984
vn 0 0.1075081453 0.9942042232
vn 0 -0.4140410721 -0.9102581739
vn -0.05806960911 -0.03888598457 -0.9975548983
vn 0 -1 0
vn -0.1153311059 -0.0733692795 0.9906138182
vn 0 -1 0
vn 0 -0.4240650237 0.905631721
vn -0.9997743368 -0.01851426996 -0.01041427627
vn -0.9989621043 -0.01849922724 0.04162326083
vn -0.1627236754 -0.9763442278 0.1423832178
vn -0.16397506 -0.9838524461 -0.07173908502
vn 0.7642896175 -0.5262323618 0.3727477491
vn 0.6420964003 -0.4420992732 -0.6263070107
vn -0.9989621043 0.01849922724 -0.04162326083
vn -0.9997743368 0.01851426996 0.01041427627
f 1//1 2//2 3//3 
f 3//3 2//2 4//4 
f 4//4 5//5 3//3 
f 3//3 5//5 6//6 
f 2//2 7//7 4//4 
f 4//4 7//7 5//5 
f 5//5 7//7 8//8 
f 8//8 7//7 9//9 
f 10//10 11//11 12//12 
f 12//12 11//11 6//6 
f 7//7 11//11 9//9 
f 9//9 11//11 10//10 
f 3//3 6//6 1//1 
f 1//1 6//6 11//11 
f 1//1 11//11 2//2 
f 2//2 11//11 7//7 
f 13//13 14//14 15//15 
f 15//15 14//14 16//16 
f 15//15 16//16 17//17 
f 17//17 16//16 18//18 
f 15//15 17//17 13//13 
f 13//13 17//17 18//18 
f 13//13 18//18 19//19 
f 19//19 18//18 20//20 
f 21//21 22//22 23//23 
f 23//23 22//22 24//24 
f 14//14 22//22 16//16 
f 16//16 22//22 21//21 
f 10//10 23//23 9//9 
f 9//9 23//23 24//24 
f 19//19 25//25 13//13 
f 13//13 25//25 8//8 
f 13//13 8//8 14//14 
f 14//14 8//8 9//9 
f 14//14 9//9 24//24 
f 24//24 22//22 14//14 
f 25//25 26//26 8//8 
f 8//8 26//26 12//12 
f 8//8 12//12 5//5 
f 5//5 12//12 6//6 
f 25//25 19//19 26//26 
f 26//26 19//19 20//20 
f 26//26 20//20 12//12 
f 12//12 20//20 18//18 
f 12//12 18//18 16//16 
f 21//21 23//23 16//16 
f 16//16 23//23 10//10 
f 16//16 10//10 12//12 
