v -64.00373077 24.867136 -169.9697876
v -64.00373077 24.75 -169.9697876
v -63.33547592 24.867136 -169.629303
v -63.33547592 24.75 -169.629303
v -63.05337143 24.867136 -170.1829529
v -63.05337143 24.75 -170.1829529
v 13.63318443 24.867136 -128.5455627
v 13.63318443 24.75 -128.5455627
v 13.63318443 24.867136 -129.0078583
v 13.63318443 24.75 -129.0078583
v -10.70597172 24.867136 -142.2229309
v -10.70597172 24.75 -142.2229309
v -10.82030201 24.867136 -142.0123596
v -10.82030201 24.75 -142.0123596
v -17.85083961 24.867136 -145.8296356
v -17.85083961 24.75 -145.8296356
v -17.73650932 24.867136 -146.0402069
v -17.73650932 24.75 -146.0402069
v -24.76704788 24.867136 -149.8574829
v -24.76704788 24.75 -149.8574829
v -24.88137817 24.867136 -149.6469116
v -24.88137817 24.75 -149.6469116
v -35.42718506 24.867136 -155.372818
v -35.42718506 24.75 -155.372818
v -35.31284332 24.867136 -155.5834045
v -35.31284332 24.75 -155.5834045
v -52.88918686 24.867136 -165.1265717
v -52.88918686 24.75 -165.1265717
v -63.63702011 24.75 -170.6894989
v -53.00352859 24.75 -164.9159851
v -63.63702011 24.867136 -170.6894989
v -53.00352859 24.867136 -164.9159851
vn -0.1909327209 0.9815782309 -0.006990483496
vn -0.1504864991 -0.9831060767 0.1041933969
vn -0.02962919697 0.9258707762 0.3766767979
vn 0.1810630858 -0.9394291639 0.291013658
vn -0.1888691634 0.9136400223 0.3599865437
vn -0.3151591122 -0.7469732165 0.5854107738
vn -0.2765933275 0.8130683899 0.5122655034
vn -0.1575243622 -0.9418851733 0.2967126071
vn 0.0907978937 0.983528316 -0.1562939733
vn 0.1650393307 -0.9399557114 -0.2987395525
vn 0.3309228718 0.7150194049 -0.6158224344
vn 0.2028807253 -0.8983663917 -0.3895860314
vn 0.02061540261 0.9988159537 -0.04406519979
vn 0.04490704089 -0.9953044653 -0.08574584126
vn 0.1855863333 0.9255837798 -0.3299279213
vn 0.1061230153 -0.9796597362 -0.1703077853
vn 0.1257849634 0.9713032842 -0.201861605
vn 0.2153408527 -0.8983728886 -0.3828243911
vn 0.3243641853 0.7149835229 -0.6193435788
vn 0.1863805503 -0.8980816007 -0.3983864188
vn 0.02856072038 0.9979074001 -0.05800947174
vn 0.06014729664 -0.9917197824 -0.1134643555
vn 0.129992187 0.9635512829 -0.2338182181
vn 0.07043236494 -0.9904873371 -0.1182121336
vn 0.1182873622 0.9713901281 -0.2059352547
vn 0.2118630707 -0.8984028697 -0.3846899569
vn 0.3298853338 0.7150439024 -0.6163504124
vn 0.2002923936 -0.8983561397 -0.3909464777
vn 0.1700988412 -0.8786630034 -0.4461139739
vn 0.08735276014 -0.9824590683 -0.164753437
vn 0.3284809589 0.6792168617 -0.6563267112
vn 0.0417906642 0.9955202937 -0.08481102437
f 1//1 2//2 3//3 
f 3//3 2//2 4//4 
f 3//3 4//4 5//5 
f 5//5 4//4 6//6 
f 5//5 6//6 7//7 
f 7//7 6//6 8//8 
f 7//7 8//8 9//9 
f 9//9 8//8 10//10 
f 9//9 10//10 11//11 
f 11//11 10//10 12//12 
f 11//11 12//12 13//13 
f 13//13 12//12 14//14 
f 13//13 14//14 15//15 
f 15//15 14//14 16//16 
f 15//15 16//16 17//17 
f 17//17 16//16 18//18 
f 17//17 18//18 19//19 
f 19//19 18//18 20//20 
f 19//19 20//20 21//21 
f 21//21 20//20 22//22 
f 21//21 22//22 23//23 
f 23//23 22//22 24//24 
f 23//23 24//24 25//25 
f 25//25 24//24 26//26 
f 25//25 26//26 27//27 
f 27//27 26//26 28//28 
f 2//2 29//29 6//6 
f 6//6 29//29 30//30 
f 6//6 30//30 24//24 
f 24//24 30//30 26//26 
f 26//26 30//30 28//28 
f 24//24 22//22 6//6 
f 6//6 22//22 8//8 
f 8//8 22//22 16//16 
f 8//8 16//16 14//14 
f 20//20 18//18 22//22 
f 22//22 18//18 16//16 
f 12//12 10//10 14//14 
f 14//14 10//10 8//8 
f 6//6 4//4 2//2 
f 31//31 29//29 1//1 
f 1//1 29//29 2//2 
f 27//27 28//28 32//32 
f 32//32 28//28 30//30 
f 32//32 31//31 5//5 
f 5//5 31//31 1//1 
f 5//5 1//1 3//3 
f 7//7 21//21 5//5 
f 5//5 21//21 23//23 
f 5//5 23//23 32//32 
f 32//32 23//23 25//25 
f 32//32 25//25 27//27 
f 9//9 13//13 7//7 
f 7//7 13//13 15//15 
f 7//7 15//15 21//21 
f 21//21 15//15 17//17 
f 21//21 17//17 19//19 
f 9//9 11//11 13//13 
f 32//32 30//30 31//31 
f 31//31 30//30 29//29 
