v 14.0602684 23.75 -102.0818863
v 14.0602684 23.75 -103.5818863
v 14.14360142 23.75 -102.0818863
v 14.14360142 23.75 -103.5818863
v 14.0602684 30.75 -102.0818863
v 14.14360142 30.75 -102.0818863
v 14.0602684 30.75 -103.5818863
v 14.14360142 30.75 -103.5818863
vn -0.99381423 -0.01183107682 0.1104233786
vn -0.9995436668 -0.01189928409 -0.02776499465
vn 0.9995436668 -0.01189928409 0.02776499465
vn 0.99381423 -0.01183107682 -0.1104233786
vn -0.9995436668 0.01189928409 0.02776499465
vn 0.99381423 0.01183107682 0.1104233786
vn -0.99381423 0.01183107682 -0.1104233786
vn 0.9995436668 0.01189928409 -0.02776499465
f 1//1 2//2 3//3 
f 3//3 2//2 4//4 
f 5//5 1//1 6//6 
f 6//6 1//1 3//3 
f 7//7 2//2 5//5 
f 5//5 2//2 1//1 
f 2//2 7//7 4//4 
f 4//4 7//7 8//8 
f 6//6 3//3 8//8 
f 8//8 3//3 4//4 
f 7//7 5//5 8//8 
f 8//8 5//5 6//6 
