v -19.19036293 25.16866493 -138.8139191
v -19.08285904 25.51209068 -138.6309967
v -19.13181305 25.67064857 -138.8706512
v -19.10831451 25.1973877 -139.3035431
v -19.28952217 25.38244057 -138.9640503
v -18.86872864 25.22067261 -138.8256226
v -17.68975449 25.25326538 -139.3273468
v -17.97733116 25.26250648 -139.5796509
v -18.06422997 25.85889435 -139.6128387
v -17.79975891 25.88169289 -139.2016602
v -17.69999886 25.21375084 -138.7911682
v -17.88451576 25.63797569 -138.4663849
v -17.87815666 25.37139511 -138.6928864
v -17.9056015 25.17614746 -139.2090302
v -18.34482384 25.17724037 -138.9841614
v -18.01277924 25.29317284 -137.6477356
v -18.09644127 25.21100998 -138.059906
v -18.05273056 24.55295563 -137.9121094
v -18.39777374 24.59924507 -138.0608826
v -18.38107491 25.22785759 -137.878006
v -18.32850266 25.38656807 -138.159668
v -18.36728096 25.65101051 -137.8544769
v -19.13283348 26.44013405 -138.0173492
v -19.23525047 26.20495987 -137.9465942
v -18.53971291 25.90333748 -137.7155457
v -19.20020485 26.12839508 -138.3656006
v -19.35442352 26.45952797 -138.4344788
v -19.28123093 26.77655792 -138.9190369
v -19.07494545 26.48611832 -138.5020294
v -18.94735718 26.54205704 -138.7223206
v -18.96727753 26.85824394 -138.8432159
v -19.26724625 27.04314995 -139.2871094
v -18.97360039 27.13178825 -139.2867737
v -18.62124825 27.11536789 -139.0262604
v -18.69046402 27.39357948 -139.3339233
v -18.83581543 27.667696 -139.1406555
v -18.62257957 27.5586319 -138.9090118
v -18.61938095 27.97045708 -138.8998108
v -18.47090912 27.89792061 -139.4223633
v -18.25790787 28.03168297 -139.0719757
v -18.14886665 27.55472755 -138.8928375
v -18.1407814 27.66684341 -139.0950775
v -18.18266106 27.22772408 -138.8762665
v -18.39029312 27.39514732 -139.3397522
v -18.50524712 27.31113434 -139.457489
v -17.9256115 27.0164566 -139.1423035
v -17.88490868 27.09653854 -139.5672913
v -17.68252754 26.60338211 -139.0442505
v -17.74069977 26.58132935 -139.4485168
v -18.26538467 26.4955616 -139.7394257
v -19.02548027 26.89999962 -139.5744934
v -18.73568726 26.27157211 -139.6996918
v -18.64109612 25.3215065 -139.6414185
v -19.16593933 26.56918716 -139.3736115
v -18.95943642 25.87129211 -139.4307404
v -18.98651123 25.25187302 -139.5521698
v -18.9390564 25.16931152 -139.4429779
v -19.03848457 26.34863091 -138.8872681
v -19.14818001 25.89863205 -139.0809479
v -19.03928566 25.91975975 -138.7711487
v -18.97288895 26.27675819 -138.3330688
v -18.64982796 25.83930397 -138.743454
v -18.70974541 25.94634819 -138.258667
v -18.9412899 25.83382797 -138.1697693
v -18.46010017 25.42565346 -138.6398163
v -18.36003685 25.90009117 -138.7203369
v -18.25332069 25.68729019 -138.6428375
v -18.16194916 25.76996422 -138.1311646
v -18.02971649 25.8127327 -138.5316315
v -18.08448601 25.95456314 -138.8539886
v -18.38844872 27.11761093 -139.0474701
v -18.56222534 26.10882568 -138.7135468
v -18.55744171 26.58746147 -138.793869
v -18.28377342 26.48213577 -138.7805786
v -17.99391556 25.92851067 -138.931015
v -17.91259384 25.82464218 -138.7159271
v -17.65693283 26.0913868 -139.062912
v -17.9052639 26.37875748 -139.3742981
v -17.915802 26.350214 -138.9965057
v -17.85239029 26.0916214 -138.8687592
v -17.78884315 26.34306145 -138.8201752
v -17.51686096 26.26472092 -138.8547516
v -17.66645813 26.05593109 -138.5231323
v -17.73900795 25.62527657 -138.3663788
v -17.97212982 25.90397263 -138.3131256
v -18.16220284 25.89300156 -137.9224701
v -18.89339066 26.28098679 -137.960907
v -17.69378471 25.3157444 -138.0124512
v -17.55584526 25.47286987 -137.8990173
v -17.66496468 25.20479965 -137.5188751
v -17.96055603 25.58411789 -137.9701843
v -17.88293839 25.71630287 -137.7458344
v -17.50237083 25.42456055 -137.0560455
v -17.77215958 25.40506935 -137.5320892
v -18.17038536 25.69262505 -137.6513367
v -18.28614998 24.87944603 -137.6364746
v -18.45057487 24.04659081 -137.6301727
v -18.30187225 24.02708054 -137.6295624
v -18.22208786 24.02503204 -137.8635254
v -18.12343979 23.77560997 -137.5390625
v -18.30716896 23.88842201 -137.1199341
v -18.48437119 23.77594566 -137.3458252
v -18.21523094 23.7712574 -137.9632721
v -18.44111252 23.76306343 -138.0958099
v -18.29162598 24.14608574 -138.0948029
v -18.72341728 26.70857239 -137.8464508
v -18.8853035 26.77061272 -137.8099823
v -18.76313782 26.57076073 -137.8098297
v -18.51020432 26.7187767 -137.5857697
v -18.54263878 26.9450779 -137.4958191
v -18.73800278 26.91818619 -137.5884552
vn -0.5865991116 -0.5622807741 0.582873702
vn -0.6952762008 -0.5946060419 0.4037755132
vn -0.9712966681 0.1503415555 0.1843371391
vn -0.7035445571 -0.6500137448 -0.2872405648
vn -0.9961355329 0.02698986977 -0.08357971162
vn -0.1427560747 -0.8753814101 0.461874485
vn 0.9104566574 -0.06177191064 -0.4089656472
vn 0.1798855066 -0.7545391321 -0.6311195493
vn 0.5247817636 0.01790088788 -0.8510485888
vn 0.9721122384 0.2297406197 -0.04708553851
vn 0.9653003812 -0.1148754582 0.2345182896
vn 0.9765049815 -0.02716386132 0.213775903
vn 0.8894405365 -0.3846548498 0.2468526065
vn 0.2434319109 -0.9696738124 0.02176249586
vn -0.1326847523 -0.9876628518 0.08316735178
vn 0.8777436018 -0.2252841145 0.4228631556
vn 0.1522507221 -0.8905857205 -0.4285752773
vn 0.8779479265 -0.120146893 -0.4634352028
vn -0.81230551 0.05665261298 -0.5804741383
vn -0.9996256828 0.005026880186 0.02689272724
vn -0.9904517531 -0.1363128722 0.02059328184
vn -0.7916464806 -0.6005972624 0.1121551394
vn -0.6565306783 0.1453456432 0.7401635647
vn -0.7359240651 -0.3717500865 0.5658777356
vn -0.3951636851 -0.3256604373 0.8589475751
vn -0.9149900079 -0.3165103197 -0.2502289712
vn -0.9814515114 0.1886909902 0.0338918604
vn -0.7671589255 0.5202550888 0.3752357066
vn 0.7815387845 0.6227812171 -0.03661505878
vn 0.05006983131 0.2179959863 0.9746644497
vn -0.1474036127 0.6388463974 0.7550810575
vn -0.8337533474 0.5483608246 -0.06446535885
vn -0.4564724267 0.8879910707 0.05572044849
vn -0.4019508958 0.3456979096 0.8478964567
vn -0.7521077394 0.2026059628 -0.6271242499
vn -0.9870665669 0.1511926353 -0.05329533666
vn -0.3389253914 -0.1461101025 0.9293984175
vn -0.3759751916 0.675501585 0.6343029737
vn -0.05491434038 0.5022668839 -0.8629671931
vn 0.5760532618 0.7999381423 0.1681119502
vn 0.339329809 0.1772678643 0.9238135219
vn 0.8722134829 -0.00448359875 -0.4891047776
vn 0.739472568 -0.5772621036 0.3463362157
vn 0.7570139766 0.07882149518 -0.6486269832
vn 0.01519778185 0.7298144698 -0.6834762692
vn 0.4900619984 0.5893391371 0.6422761083
vn 0.3882007599 0.4749588966 -0.7897558212
vn 0.7535869479 0.5362946391 0.380124718
vn 0.7852751017 -0.1057351753 -0.6100516915
vn 0.1667262018 0.02496530674 -0.9856871367
vn -0.2637400627 0.2840303183 -0.921828568
vn -0.415695399 -0.06383021921 -0.907261312
vn -0.1017931402 -0.1521297097 -0.9831046462
vn -0.8717905879 -0.3041961789 -0.3839868009
vn -0.8849693537 -0.106251508 -0.4533650875
vn -0.5537609458 -0.00156096532 -0.8326742649
vn -0.4305377603 -0.8275096416 -0.360367924
vn -0.9464780688 -0.2965059876 -0.127528131
vn -0.8581107259 0.2870486975 -0.4257335365
vn -0.5851172805 0.5365051627 0.6081118584
vn 0.6832672954 0.5291351676 -0.503151834
vn 0.6661882401 0.6898415685 0.283393532
vn 0.8698841929 0.4621236026 -0.1724622846
vn -0.2174510211 -0.8466424346 0.4857074022
vn 0.05782939866 -0.4119854271 0.9093534946
vn 0.02991942875 0.2286358178 0.9730521441
vn -0.6745337844 0.6405909061 0.3669434488
vn -0.4091509879 0.5222668648 -0.7482197285
vn -0.6423944831 0.7226054072 0.2552855611
vn -0.2926054895 0.1238893047 0.9481737614
vn 0.2212251127 0.2624375224 0.9392475486
vn 0.04314063489 0.07511144876 0.9962415099
vn 0.07250528038 0.2427551448 0.9673742652
vn 0.3582645059 0.2570545971 0.8975352049
vn 0.80495435 0.2832457423 0.521363914
vn 0.8297923207 0.4036076665 -0.3854160607
vn 0.3436931968 -0.7173336148 -0.6060589552
vn 0.7382661104 -0.2232264876 -0.6365006566
vn 0.4305846393 0.06560962647 0.9001623392
vn -0.9670314789 0.01362361293 -0.2542920709
vn -0.3312999606 0.7162106633 0.6142333746
vn 0.9962168932 0.06627974659 0.05620385334
vn 0.4754503369 0.4934631288 0.7283138633
vn 0.9158455133 -0.3992496431 0.04274030402
vn -0.1036111563 0.9452332258 0.3095139861
vn 0.3221239448 0.925791502 0.1978542507
vn 0.679887116 0.7324644923 0.03534502909
vn -0.4269366562 -0.8103017807 -0.401417613
vn 0.8913038373 0.3576963246 -0.2786231041
vn 0.3534211516 -0.9347857833 0.03562303632
vn 0.8347278237 -0.549857378 -0.0297709126
vn 0.4875166416 0.8222842216 0.2935578525
vn 0.691527009 0.5180532336 0.5033996701
vn -0.8311618567 -0.4527411163 0.3227931261
vn -0.1484030336 0.313451618 0.9379363656
vn -0.4688253105 0.02655828185 0.8828915358
vn -0.9963776469 -0.02382059209 0.08163397759
vn 0.422149986 0.4839809835 0.7665192485
vn 0.9278243184 0.0070820814 0.3729501665
vn 0.8303297758 -0.5324423909 0.1644919068
vn 0.5576772094 0.6015429497 0.5719634295
vn -0.7355238199 -0.6685945392 0.1094809249
vn 0.07597026974 -0.9258566499 -0.3701594174
vn -0.8782145977 -0.3075258136 -0.3662881255
vn -0.1905047596 -0.0009517909493 -0.9816858172
vn 0.7246146202 0.2842029929 -0.627823472
vn -0.1286637485 0.9843733311 -0.120227918
vn -0.3083650768 -0.4778932929 0.8225138187
vn 0.3576045334 -0.7148059011 0.6009754539
vn 0.5752503872 0.6504666805 -0.4959637821
vn -0.6475995183 -0.03712136298 0.7610761523
f 1//1 2//2 3//3 
f 4//4 2//2 1//1 
f 5//5 4//4 1//1 
f 3//3 5//5 1//1 
f 4//4 6//6 2//2 
f 7//7 8//8 9//9 
f 10//10 7//7 9//9 
f 7//7 10//10 11//11 
f 10//10 12//12 11//11 
f 11//11 12//12 13//13 
f 7//7 14//14 8//8 
f 14//14 7//7 11//11 
f 14//14 11//11 13//13 
f 8//8 14//14 15//15 
f 14//14 13//13 16//16 
f 17//17 14//14 16//16 
f 15//15 14//14 17//17 
f 18//18 17//17 16//16 
f 17//17 18//18 19//19 
f 17//17 19//19 20//20 
f 20//20 21//21 17//17 
f 15//15 17//17 21//21 
f 21//21 20//20 22//22 
f 23//23 24//24 25//25 
f 3//3 2//2 26//26 
f 26//26 2//2 24//24 
f 23//23 26//26 24//24 
f 27//27 26//26 23//23 
f 28//28 27//27 29//29 
f 30//30 28//28 29//29 
f 31//31 28//28 30//30 
f 31//31 32//32 28//28 
f 33//33 32//32 31//31 
f 34//34 33//33 31//31 
f 35//35 33//33 34//34 
f 35//35 34//34 36//36 
f 36//36 34//34 37//37 
f 38//38 36//36 37//37 
f 39//39 36//36 38//38 
f 39//39 35//35 36//36 
f 40//40 39//39 38//38 
f 40//40 38//38 41//41 
f 38//38 37//37 41//41 
f 40//40 42//42 39//39 
f 42//42 40//40 41//41 
f 41//41 37//37 43//43 
f 43//43 42//42 41//41 
f 44//44 39//39 42//42 
f 35//35 39//39 44//44 
f 42//42 43//43 44//44 
f 45//45 33//33 35//35 
f 44//44 45//45 35//35 
f 45//45 44//44 46//46 
f 47//47 45//45 46//46 
f 48//48 47//47 46//46 
f 48//48 49//49 47//47 
f 47//47 49//49 50//50 
f 47//47 50//50 51//51 
f 45//45 47//47 51//51 
f 51//51 33//33 45//45 
f 51//51 32//32 33//33 
f 51//51 50//50 52//52 
f 52//52 50//50 53//53 
f 50//50 9//9 53//53 
f 53//53 9//9 8//8 
f 51//51 54//54 32//32 
f 54//54 51//51 52//52 
f 28//28 32//32 54//54 
f 28//28 54//54 27//27 
f 27//27 54//54 26//26 
f 54//54 52//52 55//55 
f 52//52 53//53 55//55 
f 55//55 53//53 56//56 
f 57//57 8//8 15//15 
f 53//53 57//57 56//56 
f 53//53 8//8 57//57 
f 56//56 57//57 55//55 
f 57//57 15//15 6//6 
f 4//4 57//57 6//6 
f 58//58 26//26 54//54 
f 26//26 58//58 29//29 
f 30//30 29//29 58//58 
f 54//54 55//55 58//58 
f 58//58 55//55 57//57 
f 58//58 57//57 59//59 
f 57//57 4//4 59//59 
f 5//5 59//59 4//4 
f 5//5 3//3 59//59 
f 30//30 58//58 60//60 
f 59//59 60//60 58//58 
f 60//60 59//59 3//3 
f 60//60 3//3 26//26 
f 61//61 62//62 60//60 
f 26//26 29//29 61//61 
f 60//60 26//26 61//61 
f 63//63 62//62 61//61 
f 64//64 22//22 25//25 
f 2//2 6//6 64//64 
f 24//24 64//64 25//25 
f 2//2 64//64 24//24 
f 64//64 65//65 63//63 
f 65//65 62//62 63//63 
f 15//15 21//21 65//65 
f 6//6 15//15 65//65 
f 65//65 64//64 6//6 
f 66//66 62//62 65//65 
f 66//66 65//65 67//67 
f 67//67 65//65 21//21 
f 64//64 68//68 22//22 
f 63//63 68//68 64//64 
f 68//68 21//21 22//22 
f 67//67 21//21 68//68 
f 69//69 67//67 68//68 
f 66//66 67//67 70//70 
f 70//70 67//67 69//69 
f 71//71 43//43 37//37 
f 71//71 37//37 34//34 
f 46//46 44//44 71//71 
f 71//71 44//44 43//43 
f 70//70 72//72 66//66 
f 72//72 62//62 66//66 
f 60//60 62//62 72//72 
f 34//34 31//31 73//73 
f 31//31 30//30 73//73 
f 71//71 34//34 73//73 
f 30//30 60//60 73//73 
f 73//73 60//60 72//72 
f 71//71 73//73 74//74 
f 71//71 74//74 46//46 
f 74//74 70//70 69//69 
f 74//74 72//72 70//70 
f 74//74 73//73 72//72 
f 75//75 74//74 76//76 
f 76//76 74//74 69//69 
f 10//10 75//75 76//76 
f 76//76 12//12 10//10 
f 49//49 77//77 78//78 
f 49//49 78//78 50//50 
f 10//10 9//9 78//78 
f 50//50 78//78 9//9 
f 46//46 79//79 48//48 
f 78//78 77//77 79//79 
f 10//10 78//78 79//79 
f 79//79 74//74 75//75 
f 46//46 74//74 79//79 
f 79//79 75//75 10//10 
f 79//79 77//77 80//80 
f 80//80 77//77 76//76 
f 48//48 79//79 81//81 
f 79//79 80//80 81//81 
f 77//77 49//49 82//82 
f 82//82 48//48 81//81 
f 49//49 48//48 82//82 
f 83//83 82//82 81//81 
f 76//76 84//84 12//12 
f 77//77 82//82 84//84 
f 76//76 77//77 84//84 
f 82//82 83//83 84//84 
f 69//69 68//68 85//85 
f 85//85 76//76 69//69 
f 80//80 76//76 85//85 
f 83//83 85//85 84//84 
f 81//81 80//80 85//85 
f 83//83 81//81 85//85 
f 68//68 86//86 85//85 
f 86//86 68//68 87//87 
f 63//63 87//87 68//68 
f 88//88 89//89 90//90 
f 91//91 92//92 89//89 
f 91//91 89//89 88//88 
f 89//89 92//92 93//93 
f 91//91 88//88 94//94 
f 94//94 88//88 90//90 
f 89//89 93//93 90//90 
f 94//94 90//90 93//93 
f 12//12 84//84 91//91 
f 91//91 13//13 12//12 
f 13//13 91//91 16//16 
f 91//91 95//95 16//16 
f 84//84 92//92 91//91 
f 94//94 95//95 91//91 
f 92//92 95//95 94//94 
f 92//92 94//94 93//93 
f 92//92 86//86 95//95 
f 95//95 86//86 87//87 
f 95//95 25//25 22//22 
f 87//87 25//25 95//95 
f 20//20 19//19 96//96 
f 95//95 96//96 16//16 
f 95//95 20//20 96//96 
f 96//96 19//19 97//97 
f 96//96 97//97 98//98 
f 99//99 96//96 98//98 
f 18//18 16//16 99//99 
f 16//16 96//96 99//99 
f 100//100 101//101 102//102 
f 102//102 103//103 100//100 
f 100//100 99//99 101//101 
f 103//103 99//99 100//100 
f 102//102 101//101 98//98 
f 99//99 98//98 101//101 
f 98//98 97//97 102//102 
f 103//103 102//102 97//97 
f 104//104 103//103 97//97 
f 103//103 105//105 99//99 
f 104//104 97//97 105//105 
f 18//18 99//99 105//105 
f 19//19 18//18 105//105 
f 19//19 105//105 97//97 
f 104//104 105//105 103//103 
f 20//20 95//95 22//22 
f 85//85 86//86 92//92 
f 84//84 85//85 92//92 
f 61//61 87//87 63//63 
f 87//87 23//23 25//25 
f 61//61 106//106 87//87 
f 27//27 107//107 29//29 
f 107//107 27//27 23//23 
f 29//29 107//107 61//61 
f 61//61 107//107 106//106 
f 107//107 23//23 108//108 
f 108//108 23//23 87//87 
f 87//87 106//106 108//108 
f 106//106 109//109 108//108 
f 110//110 109//109 106//106 
f 111//111 110//110 106//106 
f 111//111 106//106 107//107 
f 111//111 108//108 109//109 
f 111//111 107//107 108//108 
f 110//110 111//111 109//109 
