v -66.88446808 0.1001099125 -36.88287735
v -67.14455414 -0.0964531973 -37.02252197
v -66.44690704 -0.0737779811 -36.63959885
v -66.8710022 0.9103453159 -36.85967255
v -66.49737549 1.583652139 -36.81532669
v -66.65114594 1.032079935 -36.79276276
v -66.39588928 1.160512924 -36.89907455
v -66.28884888 1.594238043 -37.11603546
v -66.81083679 1.841865182 -37.01723862
v -67.05628204 1.924276114 -37.36748123
v -66.81884003 1.519321322 -37.39457321
v -66.5783844 1.285355568 -37.1985321
v -66.81921387 1.329231858 -37.0692749
v -66.23433685 0.003281230573 -36.73929214
v -66.37548065 -0.06024068221 -36.97044754
v -66.71229553 0.2571993172 -37.06420517
v -67.07397461 -0.09804792702 -37.23286819
v -66.79602051 0.6017008424 -37.20462036
v -67.03372955 0.4652092457 -37.15994263
v -67.39139557 1.484690666 -37.79767227
v -67.07343292 1.665880561 -37.62434387
v -67.01625061 1.652013659 -37.92466354
v -66.63970947 1.483806968 -38.12460709
v -66.94054413 1.903316259 -38.12935257
v -66.21903229 1.675611854 -38.39962769
v -66.3095932 1.551881433 -38.21141434
v -66.17097473 1.402980924 -38.40845871
v -66.65802765 1.13589406 -38.26081085
v -66.69599915 0.5455949903 -38.25321198
v -66.35814667 1.014534473 -38.52001953
v -66.58042908 0.2651338279 -38.36686325
v -66.11895752 -0.01797535829 -38.37875366
v -66.07782745 -0.0265621338 -38.62111664
v -66.44804382 -0.05890358239 -38.6746521
v -66.95462036 -0.07463894039 -38.26919174
v -66.96486664 -0.06439872831 -38.49284744
v -66.98610687 0.2528521121 -38.34183121
v -66.65997314 0.920722425 -38.62620926
v -66.71505737 1.363435507 -38.3939476
v -67.64995575 1.356860876 -38.12951279
v -67.84635162 1.385151982 -37.70225906
v -68.17399597 1.562486768 -37.68130493
v -68.10569763 1.634624839 -38.20180511
v -68.23904419 1.937960148 -37.97349548
v -68.24221039 1.928867817 -37.49935532
v -68.42042542 2.442098141 -37.7063942
v -68.20317841 2.493520737 -37.40157318
v -67.89019012 2.129575968 -37.18683243
v -68.17471313 2.497897387 -37.13213348
v -67.52270508 2.010946035 -37.18632889
v -67.95471191 1.564959049 -37.23167419
v -67.63686371 1.431516528 -37.23320389
v -67.52688599 1.815446138 -37.05740738
v -67.99486542 2.298973083 -36.9937706
v -68.21290588 3.336792469 -37.10980606
v -67.97054291 2.789247513 -36.992733
v -67.94379425 3.325065136 -37.16222
v -67.82407379 2.637907743 -37.23426819
v -67.74391174 3.036633492 -37.41029358
v -67.867836 3.422347069 -37.57870483
v -67.56361389 2.88843751 -37.93258286
v -67.58834076 2.625185728 -37.69281387
v -67.71070862 2.549825668 -37.45898056
v -67.67190552 2.355920553 -37.0747757
v -67.65670776 2.310560226 -37.38759232
v -67.42456055 2.253052235 -37.69235229
v -66.92102051 2.013440847 -37.64473724
v -67.54077911 2.352202892 -38.1463356
v -67.30495453 2.221516132 -38.24922562
v -67.21347046 2.161509752 -37.99497223
v -67.53340149 2.363042831 -38.49269485
v -67.67177582 2.688756704 -38.24091339
v -67.67420959 2.606724024 -38.46876526
v -67.80776978 2.634310722 -38.69816589
v -67.65711212 3.096979141 -38.29116821
v -67.90109253 3.411721945 -38.64116287
v -67.86400604 3.536160231 -38.17337036
v -67.86567688 3.593737125 -37.87368393
v -67.99068451 3.873382568 -38.05106354
v -67.74190521 4.34291935 -38.09495926
v -67.5824585 4.131024837 -37.65794373
v -67.77384949 3.71620512 -37.5554657
v -67.686409 4.283643246 -37.48835373
v -67.83533478 4.581711292 -37.56687927
v -68.02771759 4.53153801 -38.02964401
v -68.252388 4.265227318 -37.99132156
v -67.91775513 4.025290012 -37.45859909
v -68.18495178 4.349151611 -37.63071823
v -68.09466553 3.706300974 -37.66044235
v -68.15391541 3.801332951 -37.92447281
v -68.4176178 3.294445515 -37.30640793
v -68.35454559 3.405140638 -37.95908737
v -68.25456238 3.354614973 -38.53053284
v -68.43836212 2.87680459 -37.93067932
v -68.31638336 3.11918807 -38.41081238
v -68.05236053 2.455325603 -38.50725937
v -67.8326416 2.320624352 -38.68956757
v -68.32297516 2.279598236 -38.13999557
v -68.02718353 2.265493631 -38.37314987
v -68.13710785 2.028060913 -38.3438797
v -67.64164734 1.997398973 -38.42643356
v -67.25737762 2.038457632 -38.34986115
v -66.35430908 1.565660119 -38.60426712
v -67.81967926 1.583325982 -38.44825363
v -67.33672333 1.779200912 -38.54221725
vn -0.06265374273 0.1920153797 0.9793899059
vn -0.8292945623 -0.3494897783 0.4360359907
vn -0.1268927306 -0.247390449 0.9605707526
vn -0.4943882525 0.1036185175 0.8630431294
vn -0.1157442406 0.04232716933 0.9923768044
vn 0.1904896349 -0.2107607722 0.9587979913
vn 0.9489164352 -0.2870691419 0.130953759
vn 0.8198519349 0.2717904449 -0.5039570928
vn 0.2124161422 0.8732247949 0.438586235
vn 0.7168847322 0.697152257 -0.007418953348
vn 0.4914790988 -0.2295970619 -0.8400794268
vn -0.06461473554 -0.1048650146 -0.992385149
vn -0.6233430505 -0.7819084525 0.007913286798
vn 0.6502275467 0.7403218746 0.1706682444
vn 0.387632668 -0.7351430058 -0.5561525822
vn 0.9705603719 0.2035147846 -0.1288189292
vn 0.09499675035 -0.2302614599 -0.968480885
vn 0.5623775721 -0.2328194231 -0.7934271097
vn -0.4755618274 0.1293414086 -0.8701216578
vn 0.3101500869 -0.9495967627 -0.04552984238
vn 0.9328387976 -0.329508245 -0.1457260102
vn 0.6990206242 -0.2116308808 0.6830684543
vn 0.2189819515 -0.6123114228 0.7596852183
vn 0.7204266787 0.5998706222 0.3480526209
vn 0.4945432842 0.8672387004 -0.05765400827
vn 0.5236554742 -0.06480115652 0.8494620323
vn 0.9758824706 -0.1839566529 -0.1175303534
vn -0.367408663 -0.1046347097 0.9241549969
vn 0.1828132123 -0.0364167802 0.9824729562
vn 0.9247065187 -0.3657057583 -0.1057221517
vn 0.4966476858 0.2875008881 -0.8189531565
vn 0.3607586622 -0.4712468386 0.8048475981
vn 0.4205338657 0.7092388272 -0.5658016801
vn -0.06893289089 -0.6470603347 -0.7593162656
vn -0.04403543472 -0.5690863729 0.8210977912
vn -0.2662538886 -0.05981562287 -0.9620451927
vn -0.974633038 0.2124057114 0.07052873075
vn -0.2457346022 -0.00853035599 -0.9692996144
vn -0.6714677215 -0.6234930754 -0.4004840553
vn -0.1355346739 -0.9887157083 -0.06380904466
vn -0.1251484603 -0.9920186996 0.01538526826
vn -0.7623234391 -0.6471177936 0.01007752866
vn -0.75143224 -0.5641581416 -0.3421624899
vn -0.955833137 -0.2827477753 -0.08022926748
vn -0.9085140228 -0.208438307 0.3621543348
vn -0.9666662812 -0.1842634976 0.1777731776
vn -0.8084391356 -0.1949001551 0.5553738475
vn -0.5540940166 -0.2241999209 0.801694572
vn -0.8451321721 -0.2677033246 0.4626948237
vn 0.1878756732 0.377460748 0.9067668319
vn -0.5916503668 -0.3623609543 0.7201696634
vn -0.264574945 -0.667637229 0.6958884001
vn -0.2100096494 0.04397759587 0.9767097235
vn -0.2874148488 -0.2326108813 0.9291312695
vn -0.4216136932 0.3343760669 0.8428727984
vn 0.4273320436 0.2027520537 0.8810669184
vn 0.691044867 0.4323828816 0.5792253613
vn 0.8806238174 0.2248878628 0.4170457721
vn 0.9101628065 0.2075267583 0.3585195243
vn 0.8750755787 0.3732165694 0.3081430197
vn 0.9448616505 0.3025817275 0.1252226532
vn 0.9773756862 0.1747952402 0.1190942526
vn 0.8855531812 0.2374893576 0.3992422819
vn 0.6318682432 0.560508728 0.5353245735
vn 0.7822090387 0.5843961835 0.2159401923
vn 0.5996363163 0.7955533862 0.08678210527
vn 0.7555297017 0.6411911249 0.1343459189
vn 0.9040970802 0.4207289517 -0.07480375469
vn 0.6214686036 0.7797198892 -0.07624728978
vn 0.5727932453 0.8081939816 -0.1368589103
vn 0.79193151 0.3991557658 -0.4620813131
vn 0.9504285455 0.220422551 -0.2193158865
vn 0.9226717353 0.2386773229 -0.3028366268
vn 0.7760491371 0.147022143 -0.6132962108
vn 0.9478685856 0.2232594043 -0.2273771614
vn 0.3260726035 0.5037484765 -0.7999463677
vn 0.7576746345 0.5868698955 -0.2855046391
vn 0.9773064256 0.04950259626 -0.2059650272
vn 0.0285477303 -0.05549235642 -0.9980509281
vn 0.6416867971 0.1521402597 -0.7517256141
vn 0.9919710159 -0.02893805318 -0.1231100038
vn 0.6012739539 -0.372651726 0.7068241239
vn 0.4995067418 0.04689222947 0.8650399446
vn 0.3079940379 0.8573969603 0.412322849
vn -0.3337533772 0.8828733563 -0.3303684592
vn -0.7171643972 0.06578633934 -0.6937920451
vn -0.2861929536 -0.03331394121 0.9575927258
vn -0.847407043 0.2276629955 0.4796570241
vn -0.4625608921 0.4651276767 0.7547805309
vn -0.8177387118 0.5307579637 -0.2227091342
vn -0.9524264336 0.1424752474 0.269415468
vn -0.9515557885 0.2850366831 -0.1153067648
vn -0.6657851934 0.2441244572 -0.7050768733
vn -0.9919615984 0.01547149755 -0.1255899817
vn -0.9069546461 -0.05523360893 -0.4175912738
vn -0.7050588131 -0.2445123941 -0.6656618714
vn -0.2563735843 -0.2313880175 -0.9384733438
vn -0.8967717886 -0.190545544 -0.3993653953
vn -0.546672821 -0.3736710846 -0.749345541
vn -0.4937186837 -0.06603516638 -0.8671108484
vn -0.1687519401 -0.1018079147 -0.9803866148
vn 0.3834048808 0.6405879259 -0.6653178334
vn 0.06672137231 0.09191970527 -0.9935285449
vn -0.2349639535 -0.4879105687 -0.8406754732
vn -0.04471967742 0.2635662854 -0.9636041522
f 1//1 2//2 3//3 
f 4//4 2//2 1//1 
f 5//5 4//4 6//6 
f 7//7 5//5 6//6 
f 8//8 5//5 7//7 
f 8//8 9//9 5//5 
f 8//8 10//10 9//9 
f 8//8 11//11 10//10 
f 11//11 8//8 12//12 
f 11//11 12//12 13//13 
f 5//5 13//13 4//4 
f 14//14 15//15 16//16 
f 15//15 2//2 17//17 
f 3//3 2//2 15//15 
f 14//14 16//16 3//3 
f 15//15 14//14 3//3 
f 17//17 16//16 15//15 
f 6//6 4//4 16//16 
f 7//7 6//6 16//16 
f 16//16 4//4 1//1 
f 18//18 7//7 16//16 
f 3//3 16//16 1//1 
f 18//18 16//16 19//19 
f 16//16 17//17 19//19 
f 19//19 17//17 2//2 
f 12//12 18//18 19//19 
f 8//8 18//18 12//12 
f 8//8 7//7 18//18 
f 19//19 13//13 12//12 
f 13//13 19//19 2//2 
f 4//4 13//13 2//2 
f 11//11 13//13 20//20 
f 21//21 10//10 11//11 
f 21//21 11//11 20//20 
f 22//22 21//21 20//20 
f 22//22 20//20 23//23 
f 24//24 22//22 23//23 
f 24//24 21//21 22//22 
f 25//25 26//26 27//27 
f 24//24 26//26 25//25 
f 23//23 26//26 24//24 
f 26//26 23//23 28//28 
f 26//26 28//28 29//29 
f 27//27 26//26 30//30 
f 26//26 29//29 30//30 
f 30//30 29//29 31//31 
f 31//31 29//29 32//32 
f 32//32 33//33 31//31 
f 32//32 34//34 33//33 
f 33//33 34//34 31//31 
f 34//34 32//32 35//35 
f 29//29 35//35 32//32 
f 34//34 35//35 36//36 
f 36//36 31//31 34//34 
f 37//37 36//36 35//35 
f 29//29 37//37 35//35 
f 38//38 36//36 37//37 
f 36//36 38//38 31//31 
f 38//38 30//30 31//31 
f 39//39 38//38 37//37 
f 29//29 39//39 37//37 
f 39//39 29//29 28//28 
f 23//23 39//39 28//28 
f 40//40 39//39 23//23 
f 40//40 23//23 20//20 
f 20//20 13//13 41//41 
f 40//40 20//20 41//41 
f 40//40 41//41 42//42 
f 40//40 42//42 43//43 
f 43//43 42//42 44//44 
f 44//44 42//42 45//45 
f 46//46 44//44 45//45 
f 47//47 46//46 45//45 
f 48//48 49//49 47//47 
f 9//9 10//10 50//50 
f 51//51 52//52 53//53 
f 45//45 42//42 51//51 
f 51//51 47//47 45//45 
f 42//42 41//41 51//51 
f 48//48 47//47 51//51 
f 52//52 51//51 41//41 
f 13//13 52//52 41//41 
f 48//48 51//51 53//53 
f 53//53 52//52 5//5 
f 13//13 5//5 52//52 
f 48//48 53//53 50//50 
f 50//50 53//53 9//9 
f 9//9 53//53 5//5 
f 54//54 48//48 50//50 
f 48//48 54//54 49//49 
f 54//54 55//55 49//49 
f 55//55 54//54 56//56 
f 57//57 55//55 56//56 
f 57//57 56//56 58//58 
f 59//59 57//57 58//58 
f 60//60 57//57 59//59 
f 60//60 59//59 61//61 
f 61//61 59//59 62//62 
f 62//62 59//59 63//63 
f 59//59 58//58 63//63 
f 63//63 58//58 64//64 
f 63//63 64//64 65//65 
f 64//64 50//50 10//10 
f 56//56 64//64 58//58 
f 56//56 54//54 64//64 
f 64//64 54//54 50//50 
f 63//63 66//66 62//62 
f 66//66 63//63 65//65 
f 65//65 64//64 66//66 
f 67//67 10//10 21//21 
f 67//67 64//64 10//10 
f 67//67 66//66 64//64 
f 67//67 21//21 24//24 
f 62//62 66//66 68//68 
f 68//68 66//66 69//69 
f 66//66 70//70 69//69 
f 24//24 70//70 67//67 
f 67//67 70//70 66//66 
f 69//69 71//71 68//68 
f 68//68 71//71 72//72 
f 73//73 72//72 71//71 
f 74//74 73//73 71//71 
f 75//75 62//62 68//68 
f 62//62 75//75 61//61 
f 74//74 75//75 73//73 
f 75//75 72//72 73//73 
f 75//75 68//68 72//72 
f 76//76 75//75 74//74 
f 76//76 77//77 75//75 
f 78//78 61//61 75//75 
f 78//78 60//60 61//61 
f 77//77 78//78 75//75 
f 79//79 78//78 77//77 
f 80//80 78//78 79//79 
f 80//80 81//81 78//78 
f 78//78 81//81 82//82 
f 82//82 60//60 78//78 
f 83//83 82//82 81//81 
f 80//80 84//84 81//81 
f 84//84 83//83 81//81 
f 85//85 84//84 80//80 
f 86//86 85//85 80//80 
f 86//86 80//80 79//79 
f 83//83 84//84 87//87 
f 83//83 87//87 82//82 
f 85//85 88//88 84//84 
f 84//84 88//88 87//87 
f 88//88 85//85 86//86 
f 60//60 89//89 57//57 
f 57//57 89//89 55//55 
f 87//87 88//88 89//89 
f 87//87 89//89 82//82 
f 82//82 89//89 60//60 
f 86//86 90//90 88//88 
f 88//88 90//90 89//89 
f 77//77 90//90 79//79 
f 90//90 86//86 79//79 
f 77//77 76//76 90//90 
f 49//49 91//91 47//47 
f 91//91 46//46 47//47 
f 55//55 89//89 91//91 
f 90//90 91//91 89//89 
f 55//55 91//91 49//49 
f 91//91 90//90 92//92 
f 93//93 92//92 90//90 
f 90//90 76//76 93//93 
f 91//91 94//94 46//46 
f 92//92 94//94 91//91 
f 92//92 95//95 94//94 
f 92//92 93//93 95//95 
f 95//95 93//93 96//96 
f 76//76 74//74 97//97 
f 93//93 97//97 96//96 
f 93//93 76//76 97//97 
f 74//74 71//71 97//97 
f 98//98 43//43 44//44 
f 96//96 97//97 99//99 
f 98//98 96//96 99//99 
f 95//95 96//96 98//98 
f 95//95 98//98 94//94 
f 94//94 98//98 46//46 
f 98//98 44//44 46//46 
f 43//43 98//98 100//100 
f 98//98 99//99 100//100 
f 99//99 97//97 101//101 
f 99//99 101//101 100//100 
f 97//97 71//71 102//102 
f 71//71 69//69 102//102 
f 69//69 70//70 102//102 
f 25//25 102//102 24//24 
f 70//70 24//24 102//102 
f 97//97 102//102 101//101 
f 25//25 27//27 103//103 
f 103//103 30//30 38//38 
f 103//103 27//27 30//30 
f 39//39 103//103 38//38 
f 25//25 103//103 102//102 
f 104//104 103//103 39//39 
f 104//104 101//101 105//105 
f 101//101 102//102 105//105 
f 105//105 102//102 103//103 
f 100//100 101//101 104//104 
f 43//43 100//100 104//104 
f 43//43 104//104 40//40 
f 104//104 39//39 40//40 
f 104//104 105//105 103//103 
