v -61.8594017 5.078202248 -25.72488976
v -62.15620804 4.312050343 -25.98098755
v -61.89730072 5.051673412 -25.33752441
v -62.02305984 4.365357399 -25.56768227
v -61.94452667 4.257352352 -25.63006592
v -61.8952179 4.094524384 -25.11161232
v -61.59885025 4.881266594 -25.11276436
v -61.49040604 4.146624088 -25.30557823
v -61.01556015 4.700446129 -25.74495888
v -61.10519409 2.615997314 -25.79536629
v -60.92073441 3.467641115 -26.09445381
v -61.01766205 2.54653883 -26.27304649
v -61.39873886 2.710226536 -25.78820229
v -61.49767685 2.544205904 -26.01516342
v -62.15641403 1.879022241 -25.54958153
v -61.8890419 2.641131878 -25.50252724
v -62.2902565 2.724402905 -25.70788956
v -61.98973465 3.422296524 -25.52848816
v -62.1974144 3.490022898 -26.07368279
v -62.3983078 3.915780783 -26.11695099
v -62.09957886 4.015564442 -25.32303429
v -62.30508423 4.135458946 -25.66303635
v -61.72152328 3.858599186 -25.40649986
v -62.17281342 3.911263227 -26.01198006
v -62.29885101 4.039882183 -26.14918709
v -62.4669838 4.21893692 -26.09936142
v -62.54325867 4.13708353 -26.43209648
v -62.44533157 4.407352448 -26.23416138
v -62.63598633 4.39585638 -26.37307167
v -62.39020538 4.460898876 -26.35240555
v -62.65057755 4.315833092 -26.48634338
v -62.50756454 4.277355671 -26.59383774
v -62.23033524 2.694107533 -26.12968254
v -62.144104 3.05583024 -26.50904083
v -62.00683594 4.213995934 -26.42607307
v -62.08215332 2.765990734 -26.68774414
v -61.74175644 3.507906675 -26.79597282
v -61.34047318 3.39656496 -26.87535477
v -60.98036194 3.794239044 -26.69373703
v -61.33163834 0.1655872762 -25.90856743
v -61.9137764 0.2027198225 -26.7773056
v -61.39746094 0.1825426519 -26.54933929
v -61.13674545 0.1534055173 -26.06536293
v -61.18913651 0.3710564375 -25.91023827
v -61.62737656 0.364908129 -26.24970055
v -61.39414215 0.3814993501 -26.41259193
v -61.15162277 1.223736882 -26.44992828
v -61.13127136 0.3739763796 -26.19400406
v -61.48157883 0.9560761452 -26.4010582
v -61.40233612 1.005203366 -26.02450562
v -61.09121323 1.496056437 -26.04344559
v -61.03197098 1.768385887 -26.25106049
v -61.40314102 1.784517765 -26.04858017
v -61.82816315 2.55281806 -26.31900406
v -61.66432571 2.729209423 -26.8017025
v -62.46196747 1.927063704 -25.83045578
v -61.97541809 1.65870738 -25.99697113
v -62.31654358 1.237427831 -25.8639946
v -62.12399673 0.410751313 -25.84866333
v -61.85457611 1.718421817 -25.56288719
v -61.9498558 0.3719356954 -25.5200901
v -62.35579681 1.327742815 -25.51712418
v -62.41333389 0.4083562791 -25.76124001
v -61.88848877 0.2343766391 -25.58242607
v -62.37411499 0.4042585194 -25.50024605
v -62.19226837 0.1777230948 -25.7661953
v -63.04695892 0.2385925204 -25.69489479
v -62.23131561 0.1858038008 -25.482481
v -61.16875458 2.639146805 -26.75001335
v -61.28174591 3.936538696 -27.08252144
v -60.777771 3.881328583 -26.87919044
v -60.68828201 4.639839172 -26.4436264
v -60.77365875 4.986043453 -26.68062973
v -60.99626541 4.159097672 -27.01079369
v -61.08139801 4.985849857 -26.79766846
v -61.28740311 4.200810432 -26.7886734
v -61.64792252 4.081568241 -26.77358437
v -61.6068306 6.146010876 -25.98987579
v -61.63898468 5.667293072 -25.85560036
v -61.43632507 6.01722765 -25.76015663
v -61.24207306 5.485787392 -25.84767723
v -61.15815735 6.051456928 -25.98702049
v -61.1768074 5.374569893 -25.99142838
v -61.44730377 5.35332346 -25.74636459
v -61.59609604 5.377211094 -25.89448929
v -61.851017 5.579216003 -26.0837059
v -61.7418251 5.368418694 -26.39355659
v -61.58053589 5.252660751 -26.20633125
v -61.83057785 4.602775574 -26.36530495
v -61.74569321 4.701270103 -26.50461388
v -61.65400696 5.144616127 -26.14214325
v -61.73725891 5.066896439 -25.9778347
v -61.59596634 6.099698067 -26.26708412
v -61.81034851 5.826938629 -26.15816879
v -61.77706146 5.697722912 -26.35326767
v -61.59606171 5.828169346 -26.38258362
v -61.25530243 5.678582668 -26.25218964
v -61.26182938 5.343267441 -26.24548721
v -61.53701019 5.098080635 -26.2726059
v -61.31576157 5.089396477 -26.53507805
v -61.442379 4.178464413 -27.04203987
v -61.86452103 4.274540424 -26.9077816
v -61.8952713 3.835958004 -27.03686523
v -61.89125443 4.026945591 -26.85419655
v -62.22487259 4.383107185 -26.84803009
v -61.85072708 4.032362461 -27.09355736
v -62.0879097 3.9798522 -26.97059631
v -62.09711838 4.258776188 -26.97110748
v -62.12092972 3.946755409 -27.02274323
v -62.28887939 4.070219994 -26.95942116
v -62.16969681 4.182312965 -27.0842514
v -62.37630844 4.195298672 -27.01489258
vn -0.8033332825 0.5417521 -0.2473061532
vn -0.8919519782 0.4446003735 -0.08217187226
vn -0.8099244833 0.4097912014 0.4196349978
vn -0.9218294024 0.1854789555 0.3403353095
vn -0.6504229903 0.7511719465 0.1126525253
vn -0.4361376464 -0.07484567165 0.8967620134
vn 0.4892036021 0.2840146422 0.8246304989
vn 0.5132902861 -0.1401446462 0.8466950655
vn 0.8718681931 0.01722772606 0.4894375503
vn 0.6847586632 -0.1860103011 0.7046316266
vn 0.9942717552 -0.02636539005 0.1035789251
vn 0.974981606 -0.2110159397 0.06987977773
vn 0.4767950475 -0.7361028194 0.4804363549
vn 0.5291737318 -0.3520410955 0.7720376849
vn 0.001117192907 -0.02610201575 0.9996586442
vn 0.04131714255 -0.1652470827 0.9853863716
vn -0.8530318141 0.1380225271 0.5032757521
vn -0.7428697944 0.1399775892 0.6546378732
vn -0.9916426539 0.1208940819 -0.04504964873
vn -0.5725220442 -0.8033823967 0.1636926234
vn -0.6815942526 -0.5112447143 0.5235056281
vn -0.8100098372 0.4357973337 0.3923834562
vn -0.4601872563 -0.4174372256 0.783564806
vn -0.92693609 -0.03133157268 0.3739088178
vn 0.3429093659 -0.5152702928 -0.7854359746
vn -0.8904600143 0.1378180683 0.4336901903
vn -0.1051067188 -0.9428511262 -0.3162029386
vn -0.3536218703 0.727324605 0.5881755352
vn -0.8891351819 0.2385182083 0.3905735314
vn 0.7584399581 0.2118765116 -0.6163417101
vn -0.6415002346 0.4551733732 -0.6174905896
vn 0.4558548927 0.003577902215 -0.8900468946
vn -0.8901652098 -0.06746231019 -0.4506159723
vn -0.9205849767 -0.1990067363 -0.3360350728
vn -0.8583915234 0.2568333149 -0.444072783
vn -0.5693762302 0.08388634026 -0.8177859187
vn -0.1005079225 0.1019282863 -0.9897013307
vn 0.03547867015 0.01570544951 -0.9992470145
vn 0.9287548661 -0.2804652452 -0.2423915416
vn -0.3781014383 -0.8382405639 0.3929275274
vn -0.745686233 -0.6409335136 -0.1820884794
vn 0.3179718256 -0.8565936089 -0.4063757956
vn 0.9376980662 -0.2618025541 -0.2284334004
vn 0.175897643 -0.006485785358 0.9843870997
vn -0.8977030516 0.2157538533 0.3841607273
vn 0.323870331 0.1951324791 -0.9257598519
vn 0.4199289083 -0.1775782257 -0.89001441
vn 0.9626817107 -0.1900982112 -0.1926305741
vn -0.7863332033 -0.09490226209 -0.6104699969
vn -0.8941349983 -0.08202853054 0.4402202964
vn 0.6206407547 0.07612922043 0.7803905606
vn 0.9762644172 -0.004204147961 0.2165412605
vn -0.1703054905 0.04044979438 0.9845607281
vn -0.5818415284 -0.5601507425 -0.5896537304
vn -0.5499662161 -0.3117001653 -0.7748420238
vn -0.890316844 -0.06567172706 -0.4505808651
vn 0.4980410933 -0.2061482221 -0.8422932625
vn -0.6478517652 -0.06329647452 -0.7591321468
vn 0.2734481096 -0.202246666 -0.9403842092
vn 0.9024115801 -0.1640225649 0.398434341
vn 0.8475887775 -0.0702835843 0.5259786248
vn -0.5221191049 0.05080725253 0.8513578773
vn -0.7511571646 0.1339786053 -0.6463842988
vn 0.6695466638 -0.7387100458 -0.07755439728
vn -0.3549175858 0.1952795833 0.9142753482
vn 0.05998923257 -0.7606169581 -0.6464233398
vn -0.7770346403 -0.6294391751 0.004847382661
vn -0.06320290267 -0.7806609273 0.6217506528
vn 0.6474483013 -0.1345286965 -0.7501417994
vn 0.1325612217 -0.5171619058 -0.8455596566
vn 0.8737771511 -0.2309570163 -0.4279863536
vn 0.9443382621 -0.01344452798 0.3287012279
vn 0.7649737 0.4550122619 -0.4558279216
vn 0.1796723157 0.2621476352 -0.9481542706
vn -0.2638739347 0.3822018504 -0.8856027722
vn -0.3545306325 0.4124930501 -0.8391409516
vn -0.5470358133 0.185968861 -0.8161907792
vn -0.5353528857 0.7486135364 0.3911203146
vn -0.5455469489 0.02644952759 0.837662816
vn 0.06791529804 0.2457812428 0.9669431448
vn 0.3534488678 -0.02202375233 0.9351945519
vn 0.8640176058 0.5034223795 -0.006288052071
vn 0.8525153995 0.3929933012 0.3446356654
vn -0.1422614008 0.8660976887 0.4792040586
vn -0.8153764009 -0.1650671661 0.5549001098
vn -0.938378036 -0.2314555496 0.2566611767
vn -0.2843445837 -0.461930126 -0.8401004076
vn -0.6808674932 -0.09184769541 -0.7266247272
vn -0.8691617846 0.4126699567 -0.2725093067
vn -0.6235228181 0.3367084265 -0.7055824995
vn -0.8736331463 0.4141600132 -0.2554145753
vn -0.8269777298 0.5023323298 -0.252527386
vn 0.1114976257 0.6865133047 -0.7185177803
vn -0.9158014059 0.3981881738 0.05247798562
vn -0.8138741255 0.1644590199 -0.5572810769
vn 0.02101272345 0.2077159286 -0.9779634476
vn 0.6166903377 0.1156226099 -0.7786684036
vn 0.05872856081 0.6488471031 -0.7586490512
vn -0.2477141321 0.517328918 -0.8191511035
vn -0.5232102275 0.6272053123 -0.5769441724
vn 0.02858049609 0.8362038136 -0.5476735234
vn 0.1436371505 0.9861605763 0.08279907703
vn -0.2395198047 -0.9675049186 0.08102186024
vn -0.4135765731 -0.3359240592 0.8462325335
vn -0.2701336741 0.2314340025 0.9345940948
vn -0.04382891208 0.1377580017 -0.9894956946
vn -0.09917489439 -0.529255867 0.8426461816
vn -0.3976334631 0.9156703949 0.05861153826
vn -0.2870450616 -0.5544624329 -0.7811379433
vn -0.602214396 -0.4282714725 0.6737368703
vn -0.1704402715 0.07809902728 -0.982268095
vn -0.7017449737 0.7117594481 -0.03086225502
f 1//1 2//2 3//3 
f 4//4 3//3 2//2 
f 2//2 5//5 4//4 
f 6//6 3//3 4//4 
f 6//6 7//7 3//3 
f 7//7 6//6 8//8 
f 8//8 9//9 7//7 
f 9//9 8//8 10//10 
f 9//9 10//10 11//11 
f 11//11 10//10 12//12 
f 13//13 12//12 10//10 
f 12//12 13//13 14//14 
f 14//14 13//13 15//15 
f 13//13 16//16 15//15 
f 10//10 16//16 13//13 
f 16//16 17//17 15//15 
f 16//16 10//10 8//8 
f 16//16 18//18 17//17 
f 19//19 17//17 18//18 
f 20//20 21//21 22//22 
f 4//4 22//22 21//21 
f 6//6 4//4 21//21 
f 21//21 23//23 6//6 
f 24//24 20//20 25//25 
f 2//2 26//26 22//22 
f 26//26 20//20 22//22 
f 20//20 26//26 25//25 
f 25//25 26//26 27//27 
f 26//26 2//2 28//28 
f 26//26 28//28 29//29 
f 27//27 26//26 29//29 
f 24//24 25//25 30//30 
f 2//2 24//24 30//30 
f 28//28 2//2 30//30 
f 29//29 30//30 31//31 
f 28//28 30//30 29//29 
f 30//30 25//25 27//27 
f 30//30 27//27 32//32 
f 31//31 27//27 29//29 
f 31//31 32//32 27//27 
f 31//31 30//30 32//32 
f 21//21 20//20 23//23 
f 23//23 20//20 24//24 
f 2//2 22//22 5//5 
f 22//22 4//4 5//5 
f 6//6 23//23 8//8 
f 24//24 18//18 23//23 
f 16//16 8//8 23//23 
f 23//23 18//18 16//16 
f 2//2 19//19 24//24 
f 18//18 24//24 19//19 
f 17//17 19//19 33//33 
f 33//33 19//19 34//34 
f 19//19 35//35 34//34 
f 1//1 35//35 2//2 
f 35//35 19//19 2//2 
f 35//35 36//36 34//34 
f 37//37 38//38 36//36 
f 38//38 37//37 39//39 
f 40//40 41//41 42//42 
f 40//40 43//43 44//44 
f 44//44 45//45 40//40 
f 45//45 46//46 41//41 
f 40//40 45//45 41//41 
f 46//46 42//42 41//41 
f 43//43 40//40 42//42 
f 43//43 42//42 46//46 
f 43//43 46//46 44//44 
f 47//47 48//48 46//46 
f 49//49 46//46 45//45 
f 47//47 46//46 49//49 
f 44//44 46//46 48//48 
f 45//45 44//44 50//50 
f 50//50 49//49 45//45 
f 44//44 51//51 50//50 
f 51//51 44//44 48//48 
f 47//47 52//52 48//48 
f 52//52 51//51 48//48 
f 52//52 53//53 51//51 
f 53//53 50//50 51//51 
f 33//33 34//34 54//54 
f 34//34 55//55 54//54 
f 54//54 55//55 50//50 
f 54//54 50//50 53//53 
f 14//14 54//54 53//53 
f 17//17 33//33 56//56 
f 54//54 56//56 33//33 
f 56//56 54//54 57//57 
f 56//56 15//15 17//17 
f 56//56 57//57 58//58 
f 57//57 59//59 58//58 
f 57//57 54//54 60//60 
f 54//54 14//14 60//60 
f 60//60 14//14 15//15 
f 57//57 61//61 59//59 
f 57//57 60//60 61//61 
f 61//61 60//60 62//62 
f 62//62 56//56 58//58 
f 15//15 62//62 60//60 
f 15//15 56//56 62//62 
f 58//58 59//59 63//63 
f 62//62 58//58 63//63 
f 59//59 64//64 63//63 
f 64//64 59//59 61//61 
f 65//65 64//64 61//61 
f 61//61 62//62 65//65 
f 65//65 62//62 63//63 
f 63//63 64//64 66//66 
f 66//66 67//67 63//63 
f 68//68 65//65 67//67 
f 65//65 63//63 67//67 
f 66//66 64//64 68//68 
f 65//65 68//68 64//64 
f 68//68 67//67 66//66 
f 55//55 49//49 50//50 
f 14//14 53//53 52//52 
f 47//47 49//49 55//55 
f 36//36 38//38 55//55 
f 34//34 36//36 55//55 
f 55//55 69//69 47//47 
f 55//55 38//38 69//69 
f 47//47 69//69 52//52 
f 52//52 69//69 12//12 
f 14//14 52//52 12//12 
f 69//69 39//39 12//12 
f 39//39 69//69 38//38 
f 11//11 12//12 39//39 
f 39//39 9//9 11//11 
f 39//39 70//70 71//71 
f 72//72 39//39 71//71 
f 39//39 72//72 9//9 
f 72//72 71//71 73//73 
f 74//74 73//73 71//71 
f 71//71 70//70 74//74 
f 74//74 75//75 73//73 
f 75//75 74//74 76//76 
f 77//77 39//39 37//37 
f 77//77 37//37 36//36 
f 77//77 75//75 76//76 
f 78//78 79//79 80//80 
f 81//81 82//82 80//80 
f 83//83 82//82 81//81 
f 79//79 81//81 80//80 
f 84//84 83//83 81//81 
f 83//83 84//84 7//7 
f 84//84 3//3 7//7 
f 84//84 1//1 3//3 
f 81//81 79//79 85//85 
f 86//86 85//85 79//79 
f 87//87 88//88 85//85 
f 85//85 86//86 87//87 
f 85//85 84//84 81//81 
f 35//35 89//89 90//90 
f 91//91 85//85 88//88 
f 92//92 84//84 85//85 
f 91//91 92//92 85//85 
f 92//92 35//35 1//1 
f 92//92 89//89 35//35 
f 1//1 84//84 92//92 
f 90//90 91//91 88//88 
f 90//90 89//89 91//91 
f 92//92 91//91 89//89 
f 78//78 82//82 93//93 
f 94//94 79//79 78//78 
f 78//78 93//93 94//94 
f 94//94 86//86 79//79 
f 78//78 80//80 82//82 
f 87//87 86//86 95//95 
f 94//94 95//95 86//86 
f 93//93 96//96 94//94 
f 94//94 96//96 95//95 
f 87//87 95//95 96//96 
f 96//96 97//97 87//87 
f 93//93 97//97 96//96 
f 93//93 82//82 97//97 
f 97//97 82//82 83//83 
f 73//73 98//98 83//83 
f 9//9 83//83 7//7 
f 72//72 83//83 9//9 
f 83//83 72//72 73//73 
f 97//97 83//83 98//98 
f 97//97 98//98 87//87 
f 87//87 98//98 88//88 
f 99//99 98//98 90//90 
f 90//90 98//98 100//100 
f 99//99 88//88 98//98 
f 75//75 100//100 98//98 
f 75//75 98//98 73//73 
f 99//99 90//90 88//88 
f 90//90 100//100 75//75 
f 77//77 90//90 75//75 
f 77//77 36//36 90//90 
f 36//36 35//35 90//90 
f 70//70 101//101 74//74 
f 76//76 74//74 101//101 
f 101//101 77//77 76//76 
f 77//77 101//101 102//102 
f 39//39 103//103 70//70 
f 103//103 39//39 77//77 
f 104//104 102//102 105//105 
f 104//104 103//103 77//77 
f 104//104 77//77 102//102 
f 103//103 104//104 106//106 
f 106//106 102//102 101//101 
f 101//101 70//70 106//106 
f 103//103 106//106 70//70 
f 107//107 106//106 104//104 
f 104//104 105//105 108//108 
f 108//108 107//107 104//104 
f 108//108 102//102 106//106 
f 105//105 102//102 108//108 
f 109//109 106//106 107//107 
f 110//110 107//107 108//108 
f 107//107 110//110 109//109 
f 111//111 106//106 109//109 
f 110//110 108//108 112//112 
f 111//111 109//109 110//110 
f 108//108 106//106 111//111 
f 111//111 112//112 108//108 
f 112//112 111//111 110//110 
