v -67.26119995 0.1666666716 -91.14241791
v -67.26119995 0.1770833284 -91.14241791
v -65.41674805 0.1666666716 -90.5395813
v -65.41674805 0.1770833284 -90.5395813
v -64.06287384 0.1770833284 -88.95249939
v -64.06287384 0.1666666716 -88.95249939
v -64.1785965 0.1770833284 -89.37496948
v -64.1785965 0.1666666716 -89.37496948
v -64.38350677 0.1770833284 -89.76210785
v -64.38350677 0.1666666716 -89.76210785
v -64.66778564 0.1770833284 -90.0953598
v -64.66778564 0.1666666716 -90.0953598
v -65.01779938 0.1770833284 -90.3587265
v -65.01779938 0.1666666716 -90.3587265
v -60.40797806 0.1666666716 -65.95838928
v -60.40797806 0.1770833284 -65.95838928
v -64.13365936 0.1770833284 -61.33679581
v -64.13365936 0.1666666716 -61.33679581
v -63.19504547 0.1770833284 -61.50338364
v -63.19504547 0.1666666716 -61.50338364
v -62.32250595 0.1770833284 -61.88734055
v -62.32250595 0.1666666716 -61.88734055
v -61.56559753 0.1770833284 -62.4668541
v -61.56559753 0.1666666716 -62.4668541
v -60.96731186 0.1770833284 -63.20901108
v -60.96731186 0.1666666716 -63.20901108
v -60.56162643 0.1770833284 -64.0716629
v -60.56162643 0.1666666716 -64.0716629
v -60.37158203 0.1770833284 -65.00580597
v -60.37158203 0.1666666716 -65.00580597
v -69.20425415 0.1666666716 -61.0514679
v -69.20425415 0.1770833284 -61.0514679
v -69.77764893 0.1666666716 -65.10388184
v -69.77764893 0.1770833284 -65.10388184
v -70.67581177 0.1666666716 -69.09732056
v -70.67581177 0.1770833284 -69.09732056
v -71.9718399 0.1666666716 -73.24160767
v -71.9718399 0.1770833284 -73.24160767
v -73.01506042 0.1666666716 -76.27134705
v -73.01506042 0.1770833284 -76.27134705
v -74.4675827 0.1666666716 -80.48977661
v -74.4675827 0.1770833284 -80.48977661
v -75.69654083 0.1770833284 -84.05893707
v -69.07341003 0.1770833284 -85.59771729
v -75.69654083 0.1666666716 -84.05893707
v -69.07341003 0.1666666716 -85.59771729
vn -0.009649669752 -0.999940753 -0.00503242109
vn -0.003992898855 0.999979198 -0.005062284414
vn 0.0005967723555 -0.9999982715 -0.001759443199
vn 0.0004151485336 0.9999992847 -0.001137288637
vn 0.0034344499 0.9999939799 -0.0005494974903
vn 0.001764127752 -0.9999983907 -0.0002875954378
vn 0.2921438217 0.9507611394 -0.1034662873
vn 0.2837663591 -0.950761795 -0.1246140674
vn 0.06965315342 0.9966157079 -0.04365233704
vn 0.06626420468 -0.9966157079 -0.04864387214
vn 0.02659123205 0.9993011951 -0.0262681134
vn 0.02459274419 -0.9993011951 -0.02814791352
vn 0.01171514671 0.9997658134 -0.01819514111
vn 0.01034904271 -0.9997658134 -0.01900533028
vn 0.001315627829 -0.9999991059 -0.0002058943937
vn 0.0006978619494 0.9999997616 -0.0001044773962
vn 7.475318125e-05 0.9999993443 0.001123442082
vn 6.271349412e-05 -0.9999997616 0.0007044781232
vn 0.001143206609 0.999989748 0.004383502062
vn 0.001489722403 -0.999989748 0.004278170411
vn 0.002930779941 0.9999809265 0.005442055874
vn 0.00335613382 -0.9999809265 0.005190547556
vn 0.006185162347 0.9999572635 0.006871347781
vn 0.006714293733 -0.9999572635 0.006355297286
vn 0.01312332228 0.9998737574 0.008959198371
vn 0.01379708201 -0.9998737574 0.007882252336
vn 0.03265187889 0.9993911386 0.01229507197
vn 0.03352962807 -0.9993911386 0.009647496976
vn 0.1353727728 0.9906574488 0.01649372466
vn 0.1362577081 -0.9906574488 0.005626908503
vn -0.001751068281 -0.9999839664 0.005388648249
vn -0.003932646941 0.9999873638 0.003126897849
vn -0.003161063883 -0.999994874 0.0005343100056
vn -0.003145654686 0.999994874 0.0006191661814
vn -0.0004500494688 -0.9999998808 0.000114722061
vn -0.0004556457279 0.9999998808 0.000129482316
vn -0.002372328658 -0.9999969006 0.0007619572571
vn -0.002138719661 0.999997437 0.0007089689607
vn -0.002064985689 -0.9999976158 0.0007110307342
vn -0.002303810092 0.9999970198 0.0007932651206
vn -0.002245103242 -0.9999971986 0.0007730507641
vn -0.002123691607 0.9999974966 0.0007312449161
vn -0.00271191611 0.999984324 -0.004903157242
vn -0.0003051041276 0.9999999404 -0.0002475867223
vn -0.003540355945 -0.999992311 -0.00169945485
vn -0.0002083187865 -0.9999999404 -0.0003638213384
f 1//1 2//2 3//3 
f 3//3 2//2 4//4 
f 5//5 6//6 7//7 
f 7//7 6//6 8//8 
f 7//7 8//8 9//9 
f 9//9 8//8 10//10 
f 9//9 10//10 11//11 
f 11//11 10//10 12//12 
f 11//11 12//12 13//13 
f 13//13 12//12 14//14 
f 13//13 14//14 4//4 
f 4//4 14//14 3//3 
f 6//6 5//5 15//15 
f 15//15 5//5 16//16 
f 17//17 18//18 19//19 
f 19//19 18//18 20//20 
f 19//19 20//20 21//21 
f 21//21 20//20 22//22 
f 21//21 22//22 23//23 
f 23//23 22//22 24//24 
f 23//23 24//24 25//25 
f 25//25 24//24 26//26 
f 25//25 26//26 27//27 
f 27//27 26//26 28//28 
f 27//27 28//28 29//29 
f 29//29 28//28 30//30 
f 29//29 30//30 16//16 
f 16//16 30//30 15//15 
f 18//18 17//17 31//31 
f 31//31 17//17 32//32 
f 31//31 32//32 33//33 
f 33//33 32//32 34//34 
f 33//33 34//34 35//35 
f 35//35 34//34 36//36 
f 35//35 36//36 37//37 
f 37//37 36//36 38//38 
f 37//37 38//38 39//39 
f 39//39 38//38 40//40 
f 39//39 40//40 41//41 
f 41//41 40//40 42//42 
f 43//43 42//42 44//44 
f 44//44 42//42 40//40 
f 44//44 40//40 38//38 
f 38//38 36//36 44//44 
f 44//44 36//36 16//16 
f 44//44 16//16 5//5 
f 16//16 36//36 17//17 
f 17//17 36//36 34//34 
f 17//17 34//34 32//32 
f 17//17 19//19 16//16 
f 16//16 19//19 21//21 
f 16//16 21//21 23//23 
f 23//23 25//25 16//16 
f 16//16 25//25 27//27 
f 16//16 27//27 29//29 
f 7//7 9//9 5//5 
f 5//5 9//9 11//11 
f 5//5 11//11 13//13 
f 13//13 4//4 5//5 
f 5//5 4//4 44//44 
f 4//4 2//2 44//44 
f 41//41 42//42 45//45 
f 45//45 42//42 43//43 
f 46//46 44//44 1//1 
f 1//1 44//44 2//2 
f 1//1 3//3 46//46 
f 46//46 3//3 6//6 
f 46//46 6//6 15//15 
f 3//3 14//14 6//6 
f 6//6 14//14 12//12 
f 6//6 12//12 10//10 
f 10//10 8//8 6//6 
f 30//30 28//28 15//15 
f 15//15 28//28 26//26 
f 15//15 26//26 24//24 
f 24//24 22//22 15//15 
f 15//15 22//22 20//20 
f 15//15 20//20 18//18 
f 31//31 33//33 18//18 
f 18//18 33//33 35//35 
f 18//18 35//35 15//15 
f 15//15 35//35 46//46 
f 35//35 37//37 46//46 
f 46//46 37//37 39//39 
f 46//46 39//39 41//41 
f 41//41 45//45 46//46 
f 45//45 43//43 46//46 
f 46//46 43//43 44//44 
