v -65.99593353 22.29317284 -84.67138672
v -65.99593353 20.29317284 -84.67138672
v -67.14867401 22.29317284 -88.49367523
v -67.14867401 20.29317284 -88.49367523
v -68.05988312 22.29317284 -86.03154755
v -68.43395233 22.29317284 -85.95109558
v -76.71961212 22.29317284 -85.30951691
v -76.092453 22.29317284 -83.48812866
v -67.67729187 22.29317284 -86.03659821
v -67.30123138 22.29317284 -85.96605682
v -66.9464798 22.29317284 -85.8227005
v -66.62699127 22.29317284 -85.6121521
v -66.35533142 22.29317284 -85.34270477
v -66.14218903 22.29317284 -85.02494812
v -76.71961212 20.29317284 -85.30951691
v -66.14218903 20.29317284 -85.02494812
v -66.35533142 20.29317284 -85.34270477
v -66.62699127 20.29317284 -85.6121521
v -66.9464798 20.29317284 -85.8227005
v -67.30123138 20.29317284 -85.96605682
v -67.67729187 20.29317284 -86.03659821
v -68.05988312 20.29317284 -86.03154755
v -68.43395233 20.29317284 -85.95109558
v -76.092453 20.29317284 -83.48812866
vn 0.9636587501 0.02342759445 -0.2661070824
vn 0.9587890506 -0.009959112853 -0.2839442194
vn 0.2458913475 0.7147615552 -0.6547162533
vn -0.1051340848 -0.5353944898 -0.8380331397
vn 0.1144454107 0.615513742 0.7797724605
vn 0.203392759 0.7431392074 0.6374758482
vn -0.3032946289 0.6617193818 -0.6856674552
vn -0.09941270202 0.6527655125 0.7510088086
vn -0.04068087414 0.6389816403 0.7681455016
vn -0.1922268569 0.6352095604 0.7480358481
vn -0.3469866514 0.6033563614 0.718026042
vn -0.5099198222 0.5364716053 0.6724433303
vn -0.679815352 0.4212855399 0.6003078818
vn -0.8396546245 0.2423615605 0.4860462844
vn -0.3273111582 -0.856667757 -0.3987327218
vn -0.8700528145 -0.2423622608 0.4292652607
vn -0.7181536555 -0.4212863147 0.5538710356
vn -0.5534138083 -0.5364727378 0.6371264458
vn -0.3938719034 -0.6033546925 0.6934176683
vn -0.2414356023 -0.6352086067 0.7336339951
vn -0.09156046063 -0.6389833689 0.7637518644
vn 0.06244719028 -0.6155131459 0.7856487036
vn 0.1292452812 -0.9010134339 0.4140899181
vn 0.1725097001 -0.4304698706 0.8859661818
f 1//1 2//2 3//3 
f 3//3 2//2 4//4 
f 5//5 3//3 6//6 
f 6//6 3//3 7//7 
f 6//6 7//7 8//8 
f 5//5 9//9 3//3 
f 3//3 9//9 10//10 
f 3//3 10//10 11//11 
f 11//11 12//12 3//3 
f 3//3 12//12 13//13 
f 3//3 13//13 14//14 
f 14//14 1//1 3//3 
f 3//3 4//4 7//7 
f 7//7 4//4 15//15 
f 2//2 1//1 16//16 
f 16//16 1//1 14//14 
f 16//16 14//14 17//17 
f 17//17 14//14 13//13 
f 17//17 13//13 18//18 
f 18//18 13//13 12//12 
f 18//18 12//12 19//19 
f 19//19 12//12 11//11 
f 19//19 11//11 20//20 
f 20//20 11//11 10//10 
f 20//20 10//10 21//21 
f 21//21 10//10 9//9 
f 21//21 9//9 22//22 
f 22//22 9//9 5//5 
f 22//22 5//5 23//23 
f 23//23 5//5 6//6 
f 24//24 15//15 23//23 
f 23//23 15//15 4//4 
f 23//23 4//4 22//22 
f 22//22 4//4 21//21 
f 21//21 4//4 20//20 
f 20//20 4//4 19//19 
f 19//19 4//4 18//18 
f 18//18 4//4 17//17 
f 17//17 4//4 16//16 
f 16//16 4//4 2//2 
f 8//8 24//24 6//6 
f 6//6 24//24 23//23 
f 7//7 15//15 8//8 
f 8//8 15//15 24//24 
