v 3.452046633 34.09375 -111.1496124
v 3.452046633 33.73958206 -111.1496124
v 2.952046633 34.09375 -111.1496124
v 2.952046633 33.73958206 -111.1496124
v 2.952046633 34.09375 -107.2220917
v 2.952046633 33.73958206 -107.2220917
v -14.21461964 34.09375 -107.2220917
v -14.21461964 33.73958206 -107.2220917
v -14.21461964 34.09375 -108.7637634
v -14.21461964 33.73958206 -108.7637634
v -14.6584816 34.09375 -108.7637634
v -14.6584816 33.73958206 -108.7637634
v 3.452046633 33.73958206 -106.7220917
v -14.6584816 33.73958206 -106.7220917
v -14.6584816 34.09375 -106.7220917
v 3.452046633 34.09375 -106.7220917
vn 0.6000266075 0.7992622256 -0.03388050944
vn 0.3503194451 -0.9332822561 -0.07912316173
vn -0.5718588233 0.8073272109 -0.1456030011
vn -0.8158664107 -0.5759036541 -0.051932659
vn -0.1219230518 0.9561049342 -0.2664546371
vn -0.05560726672 -0.872130096 -0.4861038029
vn 0.03441831842 0.6413181424 -0.766502738
vn 0.09174883366 -0.8547801375 -0.5108160973
vn 0.8411432505 0.5270825624 -0.1210865751
vn 0.5869965553 -0.735655129 -0.3380037844
vn -0.407324791 0.8959464431 -0.1771058291
vn -0.6709502935 -0.7379068732 -0.07293271273
vn 0.2350871116 -0.8447249532 0.4808054268
vn -0.03205062822 -0.8219851255 0.5686063766
vn -0.07350032777 0.9425116181 0.3259901702
vn 0.09145013243 0.657204926 0.7481433749
f 1//1 2//2 3//3 
f 3//3 2//2 4//4 
f 3//3 4//4 5//5 
f 5//5 4//4 6//6 
f 5//5 6//6 7//7 
f 7//7 6//6 8//8 
f 7//7 8//8 9//9 
f 9//9 8//8 10//10 
f 9//9 10//10 11//11 
f 11//11 10//10 12//12 
f 2//2 13//13 6//6 
f 6//6 13//13 14//14 
f 6//6 14//14 8//8 
f 8//8 14//14 12//12 
f 8//8 12//12 10//10 
f 6//6 4//4 2//2 
f 11//11 12//12 15//15 
f 15//15 12//12 14//14 
f 16//16 13//13 1//1 
f 1//1 13//13 2//2 
f 15//15 16//16 5//5 
f 5//5 16//16 1//1 
f 5//5 1//1 3//3 
f 5//5 7//7 15//15 
f 15//15 7//7 11//11 
f 11//11 7//7 9//9 
f 15//15 14//14 16//16 
f 16//16 14//14 13//13 
