v -44.61681366 24.75 -92.59835052
v -44.61681366 23.75 -92.59835052
v -44.45014954 24.75 -92.59835052
v -44.45014954 23.75 -92.59835052
v -44.45014954 23.75 -94.39001465
v -44.45014954 24.75 -94.39001465
v -44.61681366 24.75 -94.39001465
v -44.61681366 23.75 -94.39001465
vn -0.9853578806 0.1642238051 0.04582996666
vn -0.9701930285 -0.1616963744 0.1804985404
vn 0.9701930285 0.1616963744 0.1804985404
vn 0.9853578806 -0.1642238051 0.04582996666
vn 0.9701930285 -0.1616963744 -0.1804985404
vn 0.9853578806 0.1642238051 -0.04582996666
vn -0.9701930285 0.1616963744 -0.1804985404
vn -0.9853578806 -0.1642238051 -0.04582996666
f 1//1 2//2 3//3 
f 3//3 2//2 4//4 
f 5//5 6//6 4//4 
f 4//4 6//6 3//3 
f 7//7 1//1 6//6 
f 6//6 1//1 3//3 
f 2//2 8//8 4//4 
f 4//4 8//8 5//5 
f 2//2 1//1 8//8 
f 8//8 1//1 7//7 
f 8//8 7//7 5//5 
f 5//5 7//7 6//6 
