v -44.45014954 24.75 -92.59835052
v -44.45014954 23.75 -92.59835052
v -44.61681366 24.75 -92.59835052
v -44.61681366 23.75 -92.59835052
v -43.2209816 23.75 -91.36917877
v -43.2209816 23.75 -91.20251465
v -43.35860443 23.75 -91.37690735
v -43.37726593 23.75 -91.21128845
v -43.49449921 23.75 -91.40000153
v -43.53158569 23.75 -91.23751068
v -43.62694931 23.75 -91.43815613
v -43.68199539 23.75 -91.28084564
v -43.75429916 23.75 -91.49090576
v -43.82661057 23.75 -91.34074402
v -43.87493896 23.75 -91.55757904
v -43.9636116 23.75 -91.41646576
v -43.98735428 23.75 -91.63734436
v -44.09127045 23.75 -91.50704193
v -44.09013367 23.75 -91.72919464
v -44.20798492 23.75 -91.61134338
v -44.18198395 23.75 -91.83197784
v -44.31229019 23.75 -91.72805786
v -44.26174545 23.75 -91.94438934
v -44.40286636 23.75 -91.85572052
v -44.32842255 23.75 -92.06503296
v -44.47858429 23.75 -91.99272156
v -44.38117218 23.75 -92.19238281
v -44.53848648 23.75 -92.13733673
v -44.4193306 23.75 -92.3248291
v -44.58181763 23.75 -92.28774261
v -44.44242096 23.75 -92.46072388
v -44.60803986 23.75 -92.44206238
v -43.2209816 24.75 -91.20251465
v -43.37726593 24.75 -91.21128845
v -43.53158569 24.75 -91.23751068
v -43.68199539 24.75 -91.28084564
v -43.82661057 24.75 -91.34074402
v -43.9636116 24.75 -91.41646576
v -44.09127045 24.75 -91.50704193
v -44.20798492 24.75 -91.61134338
v -44.31229019 24.75 -91.72805786
v -44.40286636 24.75 -91.85572052
v -44.47858429 24.75 -91.99272156
v -44.53848648 24.75 -92.13733673
v -44.58181763 24.75 -92.28774261
v -44.60803986 24.75 -92.44206238
v -44.44242096 24.75 -92.46072388
v -44.4193306 24.75 -92.3248291
v -44.38117218 24.75 -92.19238281
v -44.32842255 24.75 -92.06503296
v -44.26174545 24.75 -91.94438934
v -44.18198395 24.75 -91.83197784
v -44.09013367 24.75 -91.72919464
v -43.98735428 24.75 -91.63734436
v -43.87493896 24.75 -91.55757904
v -43.75429916 24.75 -91.49090576
v -43.62694931 24.75 -91.43815613
v -43.49449921 24.75 -91.40000153
v -43.35860443 24.75 -91.37690735
v -43.2209816 24.75 -91.36917877
vn 0.8319696188 0.06932974607 -0.5504724979
vn 0.3734852672 -0.06224659458 -0.9255453348
vn -0.4299066365 0.1347457319 -0.8927619457
vn -0.8936616778 -0.140050292 -0.4263270199
vn 0.5504831076 -0.06932915747 -0.8319626451
vn 0.8927663565 -0.1347429156 0.4298982918
vn 0.1083438098 -0.2528096735 -0.9614306688
vn -0.09216631204 -0.1579975337 0.9831287265
vn 0.201218307 -0.1715871245 -0.9644008875
vn -0.2016835213 -0.157994315 0.9666237831
vn 0.3079042137 -0.1715855449 -0.9358169436
vn -0.3086340427 -0.1579945385 0.93796736
vn 0.4107553959 -0.1715829819 -0.8954547644
vn -0.4117043018 -0.15799281 0.8975176215
vn 0.5084345341 -0.1715844125 -0.8438323736
vn -0.509617269 -0.1579895616 0.8457715511
vn 0.5997287631 -0.1715822369 -0.7815912962
vn -0.6010933518 -0.1579957008 0.7834054828
vn 0.6834657788 -0.1715845466 -0.7095302939
vn -0.6850293875 -0.1579986215 0.711175859
vn 0.7586075664 -0.1715873927 -0.6285477877
vn -0.7603535652 -0.1579953283 0.6299999356
vn 0.8242084384 -0.1715888828 -0.5396643877
vn -0.8261202574 -0.1579951495 0.5408908129
vn 0.8794520497 -0.1715846211 -0.4439851344
vn -0.8814771771 -0.1579949558 0.4450119138
vn 0.923631072 -0.1715852022 -0.3427304029
vn -0.9257599711 -0.1579928696 0.343521148
vn 0.9561961889 -0.1715854853 -0.2371651232
vn -0.9584004283 -0.1579979211 0.2377083749
vn 0.9783400297 -0.1752120107 -0.1102341488
vn -0.9853804111 -0.1104128733 0.129747659
vn 0.4293664098 0.07499975711 0.9000108242
vn -0.1277878881 0.2045038044 0.9704887867
vn -0.2377198339 0.1579955667 0.9583979845
vn -0.3435113728 0.1579941511 0.9257633686
vn -0.4450185895 0.1579910219 0.8814744949
vn -0.5409041047 0.1579919308 0.8261121511
vn -0.6299943328 0.1579954475 0.7603582144
vn -0.7111640573 0.157997787 0.6850418448
vn -0.7834075689 0.1579953879 0.6010906696
vn -0.8457801342 0.1579944342 0.5096015334
vn -0.8975141644 0.1579956561 0.4117107391
vn -0.9379680753 0.1579952836 0.3086315393
vn -0.9666249156 0.1579951197 0.2016774118
vn -0.9895471334 0.1104122996 0.09276650846
vn 0.9361793399 0.3353228271 -0.1054837108
vn 0.9644032121 0.1715818793 -0.2012116015
vn 0.9358092546 0.1715887636 -0.30792588
vn 0.8954526186 0.171584934 -0.4107593298
vn 0.8438307047 0.1715852618 -0.5084370971
vn 0.7815954685 0.1715912223 -0.5997207165
vn 0.7095437646 0.1715833843 -0.6834521294
vn 0.6285582781 0.1715817004 -0.7586001158
vn 0.5396670699 0.1715838015 -0.8242077827
vn 0.443977952 0.1715847701 -0.8794556856
vn 0.3427195549 0.1715830564 -0.9236354828
vn 0.2371520996 0.1715899408 -0.9561986327
vn 0.1115946025 0.08304561675 -0.9902777672
vn 0.9192296863 0.13202402 -0.3709264398
f 1//1 2//2 3//3 
f 3//3 2//2 4//4 
f 5//5 6//6 7//7 
f 7//7 6//6 8//8 
f 7//7 8//8 9//9 
f 9//9 8//8 10//10 
f 9//9 10//10 11//11 
f 11//11 10//10 12//12 
f 11//11 12//12 13//13 
f 13//13 12//12 14//14 
f 13//13 14//14 15//15 
f 15//15 14//14 16//16 
f 15//15 16//16 17//17 
f 17//17 16//16 18//18 
f 17//17 18//18 19//19 
f 19//19 18//18 20//20 
f 19//19 20//20 21//21 
f 21//21 20//20 22//22 
f 21//21 22//22 23//23 
f 23//23 22//22 24//24 
f 23//23 24//24 25//25 
f 25//25 24//24 26//26 
f 25//25 26//26 27//27 
f 27//27 26//26 28//28 
f 27//27 28//28 29//29 
f 29//29 28//28 30//30 
f 29//29 30//30 31//31 
f 31//31 30//30 32//32 
f 31//31 32//32 4//4 
f 4//4 2//2 31//31 
f 6//6 33//33 8//8 
f 8//8 33//33 34//34 
f 8//8 34//34 10//10 
f 10//10 34//34 35//35 
f 10//10 35//35 12//12 
f 12//12 35//35 36//36 
f 12//12 36//36 14//14 
f 14//14 36//36 37//37 
f 14//14 37//37 16//16 
f 16//16 37//37 38//38 
f 16//16 38//38 18//18 
f 18//18 38//38 39//39 
f 18//18 39//39 20//20 
f 20//20 39//39 40//40 
f 20//20 40//40 22//22 
f 22//22 40//40 41//41 
f 22//22 41//41 24//24 
f 24//24 41//41 42//42 
f 24//24 42//42 26//26 
f 26//26 42//42 43//43 
f 26//26 43//43 28//28 
f 28//28 43//43 44//44 
f 28//28 44//44 30//30 
f 30//30 44//44 45//45 
f 30//30 45//45 32//32 
f 32//32 45//45 46//46 
f 32//32 46//46 4//4 
f 4//4 46//46 3//3 
f 2//2 1//1 31//31 
f 31//31 1//1 47//47 
f 31//31 47//47 48//48 
f 31//31 48//48 29//29 
f 29//29 48//48 49//49 
f 29//29 49//49 27//27 
f 27//27 49//49 50//50 
f 27//27 50//50 25//25 
f 25//25 50//50 51//51 
f 25//25 51//51 23//23 
f 23//23 51//51 52//52 
f 23//23 52//52 21//21 
f 21//21 52//52 53//53 
f 21//21 53//53 19//19 
f 19//19 53//53 54//54 
f 19//19 54//54 17//17 
f 17//17 54//54 55//55 
f 17//17 55//55 15//15 
f 15//15 55//55 56//56 
f 15//15 56//56 13//13 
f 13//13 56//56 57//57 
f 13//13 57//57 11//11 
f 11//11 57//57 58//58 
f 11//11 58//58 9//9 
f 9//9 58//58 59//59 
f 9//9 59//59 7//7 
f 7//7 59//59 5//5 
f 5//5 59//59 60//60 
f 33//33 60//60 34//34 
f 34//34 60//60 59//59 
f 34//34 59//59 58//58 
f 34//34 58//58 35//35 
f 35//35 58//58 57//57 
f 35//35 57//57 36//36 
f 36//36 57//57 56//56 
f 36//36 56//56 37//37 
f 37//37 56//56 55//55 
f 37//37 55//55 38//38 
f 38//38 55//55 54//54 
f 38//38 54//54 39//39 
f 39//39 54//54 53//53 
f 39//39 53//53 40//40 
f 40//40 53//53 52//52 
f 40//40 52//52 41//41 
f 41//41 52//52 51//51 
f 41//41 51//51 42//42 
f 42//42 51//51 50//50 
f 42//42 50//50 43//43 
f 43//43 50//50 49//49 
f 43//43 49//49 44//44 
f 44//44 49//49 48//48 
f 44//44 48//48 45//45 
f 45//45 48//48 47//47 
f 45//45 47//47 46//46 
f 46//46 47//47 3//3 
f 3//3 47//47 1//1 
f 33//33 6//6 60//60 
f 60//60 6//6 5//5 
