v 3.498257399 12.41666698 -82.85626984
v 3.498257399 12.29166698 -82.85626984
v 8.258194923 12.41666698 -85.0758667
v 8.258194923 12.29166698 -85.0758667
v 3.075639248 12.41666698 -83.76257324
v 7.835576534 12.41666698 -85.9821701
v 3.075639248 12.29166698 -83.76257324
v 7.835576534 12.29166698 -85.9821701
vn 0.009601063095 0.9911727905 0.1322283596
vn 0.08155225962 -0.9698837399 0.229509756
vn 0.06311713159 0.9922086596 0.107416153
vn 0.04787728935 -0.9977710843 0.04648208991
vn -0.06311713159 0.9922086596 -0.107416153
vn -0.009601062164 0.9911727905 -0.1322283596
vn -0.04787728935 -0.9977710843 -0.04648209363
vn -0.08155225962 -0.9698837399 -0.2295097411
f 1//1 2//2 3//3 
f 3//3 2//2 4//4 
f 1//1 3//3 5//5 
f 5//5 3//3 6//6 
f 5//5 7//7 1//1 
f 1//1 7//7 2//2 
f 3//3 4//4 6//6 
f 6//6 4//4 8//8 
f 2//2 7//7 4//4 
f 4//4 7//7 8//8 
f 6//6 8//8 5//5 
f 5//5 8//8 7//7 
