v -67.07033539 12.62906551 -85.64897919
v -66.18286896 12.62906551 -82.28752899
v -67.03004456 12.62906551 -85.65961456
v -65.98488617 12.62906551 -81.70087433
v -66.17755127 12.62906551 -82.26738739
v -66.02516937 12.62906551 -81.69023895
v -66.21783447 12.62906551 -82.25675201
v -66.22315216 12.62906551 -82.27689362
v -66.10574341 12.62906551 -81.66896057
v -67.15090179 12.62906551 -85.62770081
v -67.11061859 12.62906551 -85.63834381
v -66.06546021 12.62906551 -81.67960358
v -65.35760498 14.36441708 -78.99845886
v -65.35228729 14.37745476 -78.97831726
v -65.31731415 14.36441708 -79.00909424
v -65.31199646 14.37745476 -78.98895264
v -64.45176697 16.48636436 -75.73065948
v -64.44644928 16.499403 -75.71051025
v -64.48673248 16.499403 -75.69987488
v -64.49205017 16.48636436 -75.72001648
v -63.62649918 18.60831261 -72.44158173
v -61.41650772 24.125 -63.90759277
v -63.62118149 18.62135124 -72.42144012
v -62.76094818 20.73026085 -69.16314697
v -62.75563049 20.74329948 -69.14299774
v -62.72066116 20.73026085 -69.17378235
v -62.71534348 20.74329948 -69.15363312
v -61.29565048 24.125 -63.9394989
v -61.85511017 22.85220909 -65.89533997
v -61.84979248 22.86524773 -65.87519836
v -61.8900795 22.86524773 -65.86456299
v -61.89539719 22.85220909 -65.88470459
v -61.3762207 24.125 -63.91822815
v -61.33593369 24.125 -63.92886353
v -63.58621216 18.60831261 -72.4522171
v -63.58089447 18.62135124 -72.4320755
v -69.80664062 6.01960659 -95.85004425
v -69.80132294 6.032644272 -95.82989502
v -69.76635742 6.01960659 -95.86067963
v -69.76103973 6.032644272 -95.84053802
v -71.46325684 1.760799766 -102.4512253
v -68.90080261 8.141554832 -92.58223724
v -68.89548492 8.154592514 -92.56209564
v -68.03525543 10.26350307 -89.30380249
v -71.58411407 1.760799766 -102.4193192
v -70.66687775 3.910696268 -99.1083374
v -70.67219543 3.897658587 -99.128479
v -70.6319046 3.897658587 -99.13911438
v -70.62658691 3.910696268 -99.11897278
v -71.49214172 1.788747907 -102.3974075
v -71.53242493 1.788747907 -102.3867722
v -68.93577576 8.154592514 -92.55146027
v -68.94109344 8.141554832 -92.57160187
v -68.07553864 10.26350307 -89.29316711
v -68.07022095 10.27654076 -89.27301788
v -68.02993774 10.27654076 -89.28366089
v -67.22802734 12.24246883 -86.24626923
v -67.22270966 12.25550652 -86.22612762
v -67.26299286 12.25550652 -86.21549225
v -67.26831055 12.24246883 -86.23563385
v -61.25036621 24.125 -63.60475922
v -61.2556839 24.125 -63.62490082
v -61.29065323 24.125 -63.59412384
v -61.29597092 24.125 -63.61426544
v -60.98974609 24.125 -62.6176033
v -60.94163132 24.125 -62.59859467
v -61.06249237 24.125 -62.56668472
v -61.03003311 24.125 -62.60696793
v -71.46325684 1.318422675 -102.4512253
v -71.58411407 1.318422675 -102.4193192
v -60.94163132 23.75 -62.59859467
v -61.06249237 23.75 -62.56668472
v -66.07826233 12.25406551 -81.56486511
v -67.12342072 12.25406551 -85.52360535
v -61.38902283 23.75 -63.8034935
v -67.00256348 12.25406551 -85.55551147
v -61.26816559 23.75 -63.83539963
v -65.95740509 12.25406551 -81.59677124
v -61.2556839 27.23696327 -63.62490082
v -61.29597092 27.23696327 -63.61426544
v -61.03003311 27.25 -62.60696793
v -61.29065323 27.25 -63.59412384
v -60.98974609 27.25 -62.6176033
v -61.25036621 27.25 -63.60475922
v -61.84979248 25.7804718 -65.87519836
v -61.8900795 25.7804718 -65.86456299
v -70.66687775 6.825921535 -99.1083374
v -70.62658691 6.825921535 -99.11897278
v -69.80664062 8.934832573 -95.85004425
v -69.76635742 8.934832573 -95.86067963
v -70.6319046 6.812883854 -99.13911438
v -70.67219543 6.812883854 -99.128479
v -71.49214172 4.703973293 -102.3974075
v -71.53242493 4.703973293 -102.3867722
v -69.80132294 8.947869301 -95.82989502
v -69.76103973 8.947869301 -95.84053802
v -68.94109344 11.05678082 -92.57160187
v -68.90080261 11.05678082 -92.58223724
v -68.93577576 11.06981754 -92.55146027
v -68.89548492 11.06981754 -92.56209564
v -68.07553864 13.17872906 -89.29316711
v -68.03525543 13.17872906 -89.30380249
v -68.07022095 13.19176579 -89.27301788
v -68.02993774 13.19176579 -89.28366089
v -67.26831055 15.15769386 -86.23563385
v -67.22802734 15.15769386 -86.24626923
v -66.18286896 15.15769386 -82.28752899
v -67.22270966 15.17073154 -86.22612762
v -66.17755127 15.17073154 -82.26738739
v -67.26299286 15.17073154 -86.21549225
v -65.31731415 17.27964211 -79.00909424
v -65.35760498 17.27964211 -78.99845886
v -66.21783447 15.17073154 -82.25675201
v -66.22315216 15.15769386 -82.27689362
v -65.35228729 17.29268074 -78.97831726
v -65.31199646 17.29268074 -78.98895264
v -64.49205017 19.40159035 -75.72001648
v -64.45176697 19.40159035 -75.73065948
v -64.48673248 19.41462898 -75.69987488
v -64.44644928 19.41462898 -75.71051025
v -63.62649918 21.52353859 -72.44158173
v -63.58621216 21.52353859 -72.4522171
v -63.62118149 21.53657722 -72.42144012
v -63.58089447 21.53657722 -72.4320755
v -62.76094818 23.64548683 -69.16314697
v -62.72066116 23.64548683 -69.17378235
v -62.75563049 23.65852356 -69.14299774
v -62.71534348 23.65852356 -69.15363312
v -61.89539719 25.76743507 -65.88470459
v -61.85511017 25.76743507 -65.89533997
vn 0.966648221 0.008130513132 -0.2559787035
vn 0.9692260027 0.03615731746 -0.2435027212
vn 0.9371054769 0.1432866752 -0.3182801902
vn 0.9542174935 0.07014574111 -0.2907723188
vn 0.9221509695 0.01736536063 -0.3864402175
vn 0.9648172259 0.01462377515 -0.2625144422
vn -0.9821376801 0.01806230657 0.187294811
vn -0.9598525763 0.03604663908 0.2781792879
vn -0.9733928442 0.07014857233 0.2181411088
vn -0.9720893502 0.1432898939 0.1857694238
vn -0.9670288563 0.00812958274 0.2545370162
vn -0.9686622024 0.0146223288 0.2479509711
vn -0.9643899202 0.006548270583 0.2644034624
vn -0.9720252156 0.01455097366 0.2344254553
vn 0.9675237536 0.00659786677 -0.2526940703
vn 0.9576001167 0.01445861999 -0.2877375782
vn 0.9672594666 0.007277575787 -0.2536852062
vn 0.9575999975 0.01446274389 -0.2877378762
vn -0.9720249772 0.01455211733 0.2344262898
vn -0.9648151398 0.007233357988 0.2628297508
vn -0.9699264765 0.04613465443 0.2389859408
vn -0.9751418829 0.1375142038 0.1737472713
vn -0.972025454 0.01455371734 0.2344242632
vn -0.964815259 0.007234222256 0.2628292441
vn -0.9720252156 0.01455213875 0.2344252467
vn 0.967259109 0.007278452627 -0.2536865175
vn 0.9576002359 0.01445983909 -0.2877372503
vn 0.9338245988 0.1375136375 -0.3302447498
vn 0.9672591686 0.007278203033 -0.2536863983
vn 0.9526563883 0.01456734166 -0.3036997616
vn -0.9739668965 0.01472851541 0.2262113541
vn -0.964815259 0.007234391291 0.2628291249
vn -0.9678219557 0.007113752887 0.2515355051
vn 0.9658561945 0.007113263011 -0.2589810491
vn 0.9597890973 0.04617407173 -0.2768987119
vn 0.9576005936 0.0144579662 -0.287736088
vn -0.9648151994 0.007234064396 0.2628293335
vn -0.9720259905 0.01455684658 0.2344218493
vn 0.967259407 0.007277315017 -0.2536852956
vn 0.9576002359 0.01446065959 -0.2877371907
vn 0.9501317739 0.07456313819 -0.3028035462
vn 0.9602493644 0.04405329376 -0.2756456137
vn 0.9575995803 0.01446167938 -0.2877393365
vn 0.9672590494 0.00727972528 -0.2536867559
vn -0.9765028358 0.07443799078 0.2022405416
vn -0.9720250964 0.01455105655 0.2344258875
vn -0.9648153186 0.007234658115 0.2628289759
vn 0.9672589302 0.007278596517 -0.2536871433
vn 0.9576004744 0.01445687842 -0.2877365351
vn 0.9575981498 0.01447214559 -0.2877435088
vn -0.9720905423 0.0150458524 0.2341231108
vn -0.9720255733 0.01455480885 0.2344236076
vn -0.9697002769 0.04401453957 0.2402999848
vn -0.9648153782 0.007234918419 0.2628288269
vn -0.9722379446 0.0145709822 0.2335403562
vn 0.9570795298 0.01447307784 -0.2894638181
vn 0.9673713446 0.007289024536 -0.2532579899
vn 0.9185259938 0.01512274332 -0.3950712085
vn -0.9839692116 0.01573681831 0.1776428074
vn -0.9645798206 0.007240603678 0.2636916935
vn 0.9424214959 0.03186617047 -0.3329057395
vn 0.9919027686 0.01590868086 -0.1259994358
vn -0.9717513323 0.01612516493 0.2354556024
vn -0.869094491 0.01465591881 0.4944289625
vn 0.971850574 0.007466074545 -0.2354796529
vn 0.9812153578 0.103175357 -0.1630071104
vn -0.948605597 0.104765296 0.2986161411
vn -0.9428120255 0.0136870062 0.3330436945
vn 0.8795877695 -0.4718336165 0.06081449613
vn -0.8771454692 -0.2683589458 0.3982453048
vn 0.936899364 -0.3148831725 -0.151882112
vn -0.753082335 -0.547509253 0.3648295105
vn -0.8699330688 -0.3217811584 0.373728931
vn -0.8892837167 -0.2527123094 0.3811967075
vn -0.8798840046 -0.2622029781 0.3963000774
vn 0.9686620235 -0.1705455035 -0.1805770546
vn 0.9736688733 -0.1494114101 -0.1721776575
vn 0.8917155862 -0.4517508149 0.02764999308
vn 0.9730080962 0.01248681173 -0.2304329723
vn -0.9662960172 0.02497555502 0.2562191784
vn -0.9613768458 0.01332953759 0.2749125361
vn -0.9843457341 0.0132881552 0.1757466346
vn 0.9843457341 0.0132881552 -0.1757466346
vn 0.9613768458 0.01332953759 -0.2749125361
vn 0.9616814256 0.01532364916 -0.2737407088
vn -0.9726874232 0.0076615992 0.2319924831
vn -0.971006155 0.007145921234 0.2389476448
vn 0.96280092 0.01428985968 -0.269833535
vn -0.9678707719 0.02857380547 0.2498193383
vn 0.9706797004 0.01428845059 -0.2399514765
vn 0.9706798196 0.01429099403 -0.2399508804
vn -0.9678707719 0.02857381292 0.2498193234
vn 0.9628006816 0.01428985689 -0.269834578
vn -0.9710059762 0.007144651376 0.2389484197
vn -0.971006155 0.007144963369 0.2389477044
vn 0.9628006816 0.01429020148 -0.2698344886
vn -0.9678708911 0.02857445925 0.2498189211
vn 0.9706799388 0.01429099031 -0.2399503589
vn -0.971006155 0.007145921234 0.2389476448
vn 0.96280092 0.01428986061 -0.269833535
vn -0.9678707719 0.02857380547 0.2498193234
vn 0.9706797004 0.01428845059 -0.2399514914
vn -0.9712203145 0.007144852541 0.2380758226
vn 0.9626798034 0.01428884827 -0.2702654302
vn -0.9676457644 0.02857206948 0.2506896257
vn 0.9711094499 0.01428802684 -0.238206476
vn 0.9696219563 -4.530437946e-05 -0.2446082681
vn 0.9638879299 0.02809201553 -0.2648223042
vn 0.9628371596 0.02307839878 -0.269094795
vn -0.9716883898 0.01404824667 0.2358480245
vn 0.9706798196 0.01429099496 -0.2399508804
vn -0.9678707719 0.02857381478 0.2498193234
vn -0.9703809023 0.02466834523 0.2403172106
vn -0.9654400945 -9.037306882e-05 0.2606250346
vn -0.9710062742 0.007145920303 0.2389471233
vn 0.9628008604 0.01429021917 -0.2698337436
vn -0.9678708315 0.02857445925 0.249818936
vn 0.9706798792 0.0142890783 -0.2399508059
vn -0.9710057378 0.007144649979 0.2389494926
vn 0.9628008008 0.01428922545 -0.2698341906
vn -0.9678705931 0.02857254073 0.2498201132
vn 0.9706795216 0.01428972092 -0.2399522364
vn -0.9710060954 0.007145285141 0.2389480323
vn 0.9628008008 0.01428985596 -0.2698340416
vn -0.9678707719 0.02857380547 0.2498193383
vn 0.97067976 0.01428972092 -0.2399511784
vn -0.9710060954 0.007145287469 0.2389480323
vn 0.9628008008 0.01428986061 -0.2698340416
vn -0.9678707719 0.02857380547 0.2498193234
vn 0.97067976 0.01428972092 -0.2399511784
f 1//1 2//2 3//3 
f 3//3 2//2 4//4 
f 4//4 2//2 5//5 
f 4//4 5//5 6//6 
f 5//5 2//2 7//7 
f 7//7 2//2 8//8 
f 7//7 8//8 9//9 
f 9//9 8//8 10//10 
f 10//10 8//8 11//11 
f 9//9 12//12 7//7 
f 12//12 9//9 13//13 
f 13//13 9//9 14//14 
f 13//13 14//14 15//15 
f 15//15 14//14 16//16 
f 15//15 16//16 4//4 
f 4//4 16//16 17//17 
f 4//4 17//17 18//18 
f 18//18 17//17 19//19 
f 19//19 17//17 20//20 
f 19//19 20//20 9//9 
f 9//9 20//20 14//14 
f 19//19 9//9 21//21 
f 21//21 9//9 22//22 
f 21//21 22//22 23//23 
f 23//23 22//22 24//24 
f 24//24 22//22 25//25 
f 24//24 25//25 26//26 
f 26//26 25//25 27//27 
f 26//26 27//27 28//28 
f 28//28 27//27 29//29 
f 28//28 29//29 30//30 
f 30//30 29//29 31//31 
f 31//31 29//29 32//32 
f 31//31 32//32 22//22 
f 22//22 32//32 25//25 
f 22//22 33//33 31//31 
f 30//30 34//34 28//28 
f 4//4 35//35 28//28 
f 28//28 35//35 36//36 
f 28//28 36//36 26//26 
f 4//4 6//6 15//15 
f 21//21 23//23 35//35 
f 35//35 23//23 36//36 
f 18//18 35//35 4//4 
f 37//37 38//38 39//39 
f 39//39 38//38 40//40 
f 39//39 40//40 41//41 
f 41//41 40//40 42//42 
f 41//41 42//42 3//3 
f 3//3 42//42 43//43 
f 3//3 43//43 44//44 
f 38//38 37//37 45//45 
f 45//45 37//37 46//46 
f 45//45 46//46 47//47 
f 47//47 46//46 48//48 
f 48//48 46//46 49//49 
f 48//48 49//49 41//41 
f 41//41 49//49 39//39 
f 50//50 41//41 51//51 
f 51//51 41//41 45//45 
f 51//51 45//45 47//47 
f 50//50 48//48 41//41 
f 43//43 42//42 52//52 
f 52//52 42//42 53//53 
f 52//52 53//53 10//10 
f 10//10 53//53 45//45 
f 45//45 53//53 38//38 
f 54//54 55//55 44//44 
f 44//44 55//55 56//56 
f 44//44 56//56 3//3 
f 3//3 56//56 57//57 
f 3//3 57//57 58//58 
f 58//58 57//57 59//59 
f 59//59 57//57 60//60 
f 59//59 60//60 10//10 
f 10//10 60//60 55//55 
f 10//10 55//55 54//54 
f 54//54 52//52 10//10 
f 58//58 1//1 3//3 
f 10//10 11//11 59//59 
f 61//61 62//62 63//63 
f 63//63 62//62 64//64 
f 63//63 64//64 22//22 
f 22//22 64//64 33//33 
f 65//65 66//66 61//61 
f 61//61 66//66 28//28 
f 61//61 28//28 62//62 
f 62//62 28//28 34//34 
f 66//66 65//65 67//67 
f 67//67 65//65 68//68 
f 67//67 68//68 63//63 
f 22//22 67//67 63//63 
f 41//41 69//69 45//45 
f 45//45 69//69 70//70 
f 71//71 66//66 72//72 
f 72//72 66//66 67//67 
f 73//73 9//9 74//74 
f 74//74 9//9 10//10 
f 74//74 10//10 45//45 
f 73//73 75//75 9//9 
f 9//9 75//75 22//22 
f 22//22 75//75 67//67 
f 67//67 75//75 72//72 
f 45//45 70//70 74//74 
f 69//69 41//41 76//76 
f 76//76 41//41 3//3 
f 76//76 3//3 4//4 
f 28//28 77//77 4//4 
f 4//4 77//77 78//78 
f 4//4 78//78 76//76 
f 28//28 66//66 77//77 
f 77//77 66//66 71//71 
f 62//62 79//79 64//64 
f 64//64 79//79 80//80 
f 68//68 81//81 63//63 
f 63//63 81//81 82//82 
f 65//65 83//83 68//68 
f 68//68 83//83 81//81 
f 61//61 84//84 65//65 
f 65//65 84//84 83//83 
f 62//62 34//34 79//79 
f 79//79 34//34 85//85 
f 85//85 34//34 30//30 
f 31//31 86//86 30//30 
f 30//30 86//86 85//85 
f 83//83 84//84 81//81 
f 81//81 84//84 82//82 
f 63//63 82//82 61//61 
f 61//61 82//82 84//84 
f 86//86 80//80 85//85 
f 85//85 80//80 79//79 
f 64//64 80//80 33//33 
f 33//33 80//80 86//86 
f 33//33 86//86 31//31 
f 75//75 77//77 72//72 
f 72//72 77//77 71//71 
f 46//46 87//87 49//49 
f 49//49 87//87 88//88 
f 46//46 37//37 87//87 
f 87//87 37//37 89//89 
f 39//39 90//90 37//37 
f 37//37 90//90 89//89 
f 49//49 88//88 39//39 
f 39//39 88//88 90//90 
f 87//87 89//89 88//88 
f 88//88 89//89 90//90 
f 48//48 91//91 47//47 
f 47//47 91//91 92//92 
f 50//50 93//93 48//48 
f 48//48 93//93 91//91 
f 51//51 94//94 50//50 
f 50//50 94//94 93//93 
f 91//91 93//93 92//92 
f 92//92 93//93 94//94 
f 51//51 47//47 94//94 
f 94//94 47//47 92//92 
f 38//38 95//95 40//40 
f 40//40 95//95 96//96 
f 38//38 53//53 95//95 
f 95//95 53//53 97//97 
f 42//42 98//98 53//53 
f 53//53 98//98 97//97 
f 40//40 96//96 42//42 
f 42//42 96//96 98//98 
f 95//95 97//97 96//96 
f 96//96 97//97 98//98 
f 52//52 99//99 43//43 
f 43//43 99//99 100//100 
f 52//52 54//54 99//99 
f 99//99 54//54 101//101 
f 44//44 102//102 54//54 
f 54//54 102//102 101//101 
f 43//43 100//100 44//44 
f 44//44 100//100 102//102 
f 99//99 101//101 100//100 
f 100//100 101//101 102//102 
f 55//55 103//103 56//56 
f 56//56 103//103 104//104 
f 55//55 60//60 103//103 
f 103//103 60//60 105//105 
f 57//57 106//106 60//60 
f 60//60 106//106 105//105 
f 56//56 104//104 57//57 
f 57//57 104//104 106//106 
f 103//103 105//105 104//104 
f 104//104 105//105 106//106 
f 2//2 1//1 107//107 
f 107//107 1//1 108//108 
f 107//107 108//108 109//109 
f 1//1 58//58 108//108 
f 59//59 110//110 58//58 
f 58//58 110//110 108//108 
f 15//15 111//111 13//13 
f 13//13 111//111 112//112 
f 111//111 15//15 109//109 
f 109//109 15//15 6//6 
f 109//109 6//6 5//5 
f 76//76 74//74 69//69 
f 69//69 74//74 70//70 
f 7//7 113//113 5//5 
f 5//5 113//113 109//109 
f 7//7 12//12 113//113 
f 113//113 12//12 13//13 
f 113//113 13//13 112//112 
f 113//113 112//112 109//109 
f 109//109 112//112 111//111 
f 109//109 108//108 113//113 
f 113//113 108//108 110//110 
f 74//74 76//76 73//73 
f 73//73 76//76 78//78 
f 113//113 114//114 109//109 
f 109//109 114//114 107//107 
f 8//8 114//114 11//11 
f 11//11 114//114 110//110 
f 11//11 110//110 59//59 
f 114//114 113//113 110//110 
f 2//2 107//107 8//8 
f 8//8 107//107 114//114 
f 14//14 115//115 16//16 
f 16//16 115//115 116//116 
f 14//14 20//20 115//115 
f 115//115 20//20 117//117 
f 17//17 118//118 20//20 
f 20//20 118//118 117//117 
f 16//16 116//116 17//17 
f 17//17 116//116 118//118 
f 115//115 117//117 116//116 
f 116//116 117//117 118//118 
f 19//19 119//119 18//18 
f 18//18 119//119 120//120 
f 19//19 21//21 119//119 
f 119//119 21//21 121//121 
f 35//35 122//122 21//21 
f 21//21 122//122 121//121 
f 18//18 120//120 35//35 
f 35//35 120//120 122//122 
f 119//119 121//121 120//120 
f 120//120 121//121 122//122 
f 23//23 123//123 36//36 
f 36//36 123//123 124//124 
f 23//23 24//24 123//123 
f 123//123 24//24 125//125 
f 26//26 126//126 24//24 
f 24//24 126//126 125//125 
f 36//36 124//124 26//26 
f 26//26 124//124 126//126 
f 123//123 125//125 124//124 
f 124//124 125//125 126//126 
f 25//25 127//127 27//27 
f 27//27 127//127 128//128 
f 25//25 32//32 127//127 
f 127//127 32//32 129//129 
f 29//29 130//130 32//32 
f 32//32 130//130 129//129 
f 73//73 78//78 75//75 
f 75//75 78//78 77//77 
f 127//127 129//129 128//128 
f 128//128 129//129 130//130 
f 27//27 128//128 29//29 
f 29//29 128//128 130//130 
