v 1.619069934 34.54166794 -108.7483749
v 1.619069934 34.54166794 -108.1749802
v 1.565476298 34.54166794 -108.7533417
v 1.565476298 34.54166794 -108.1700134
v 1.511882663 34.54166794 -108.7483749
v 1.511882663 34.54166794 -108.1749802
v 1.460114121 34.54166794 -108.7336502
v 1.460114121 34.54166794 -108.1897049
v 1.411933541 34.54166794 -108.7096558
v 1.411933541 34.54166794 -108.2136993
v 1.368981719 34.54166794 -108.6772232
v 1.368981719 34.54166794 -108.2461319
v 1.332721233 34.54166794 -108.6374435
v 1.332721233 34.54166794 -108.2859116
v 1.304386973 34.54166794 -108.5916824
v 1.304386973 34.54166794 -108.3316727
v 1.284943819 34.54166794 -108.5414963
v 1.284943819 34.54166794 -108.3818588
v 1.275053859 34.54166794 -108.4885864
v 1.275053859 34.54166794 -108.4347687
v 1.670838475 34.54166794 -108.1897049
v 1.670838475 34.54166794 -108.7336502
v 1.719018936 34.54166794 -108.2136993
v 1.719018936 34.54166794 -108.7096558
v 1.761970878 34.54166794 -108.2461319
v 1.761970878 34.54166794 -108.6772232
v 1.798231363 34.54166794 -108.2859116
v 1.798231363 34.54166794 -108.6374435
v 1.826565623 34.54166794 -108.3316727
v 1.826565623 34.54166794 -108.5916824
v 1.846008778 34.54166794 -108.3818588
v 1.846008778 34.54166794 -108.5414963
v 1.855898738 34.54166794 -108.4347687
v 1.855898738 34.54166794 -108.4885864
v 1.565476298 33.77083206 -108.7533417
v 1.619069934 33.77083206 -108.7483749
v 1.670838475 33.77083206 -108.7336502
v 1.719018936 33.77083206 -108.7096558
v 1.761970878 33.77083206 -108.6772232
v 1.798231363 33.77083206 -108.6374435
v 1.826565623 33.77083206 -108.5916824
v 1.846008778 33.77083206 -108.5414963
v 1.855898738 33.77083206 -108.4885864
v 1.855898738 33.77083206 -108.4347687
v 1.846008778 33.77083206 -108.3818588
v 1.826565623 33.77083206 -108.3316727
v 1.798231363 33.77083206 -108.2859116
v 1.761970878 33.77083206 -108.2461319
v 1.719018936 33.77083206 -108.2136993
v 1.670838475 33.77083206 -108.1897049
v 1.619069934 33.77083206 -108.1749802
v 1.565476298 33.77083206 -108.1700134
v 1.511882663 33.77083206 -108.1749802
v 1.460114121 33.77083206 -108.1897049
v 1.411933541 33.77083206 -108.2136993
v 1.368981719 33.77083206 -108.2461319
v 1.332721233 33.77083206 -108.2859116
v 1.304386973 33.77083206 -108.3316727
v 1.284943819 33.77083206 -108.3818588
v 1.275053859 33.77083206 -108.4347687
v 1.275053859 33.77083206 -108.4885864
v 1.284943819 33.77083206 -108.5414963
v 1.304386973 33.77083206 -108.5916824
v 1.332721233 33.77083206 -108.6374435
v 1.368981719 33.77083206 -108.6772232
v 1.411933541 33.77083206 -108.7096558
v 1.460114121 33.77083206 -108.7336502
v 1.511882663 33.77083206 -108.7483749
v 1.510611415 33.75 -108.1328888
v 1.510611415 33.75 -108.7904663
v 1.565476298 33.75 -108.1283417
v 1.565476298 33.75 -108.7950134
v 1.620341182 33.75 -108.1328888
v 1.620341182 33.75 -108.7904663
v 1.673709393 33.75 -108.1464081
v 1.673709393 33.75 -108.776947
v 1.724125385 33.75 -108.1685181
v 1.724125385 33.75 -108.754837
v 1.770213842 33.75 -108.1986313
v 1.770213842 33.75 -108.7247238
v 1.810717583 33.75 -108.2359161
v 1.810717583 33.75 -108.687439
v 1.844531775 33.75 -108.2793579
v 1.844531775 33.75 -108.6439896
v 1.870734096 33.75 -108.3277817
v 1.870734096 33.75 -108.5955734
v 1.888609648 33.75 -108.3798523
v 1.888609648 33.75 -108.5435028
v 1.897671103 33.75 -108.4341507
v 1.897671103 33.75 -108.4892044
v 1.457243085 33.75 -108.776947
v 1.457243085 33.75 -108.1464081
v 1.406827092 33.75 -108.754837
v 1.406827092 33.75 -108.1685181
v 1.360738754 33.75 -108.7247238
v 1.360738754 33.75 -108.1986313
v 1.320235014 33.75 -108.687439
v 1.320235014 33.75 -108.2359161
v 1.286420822 33.75 -108.6439896
v 1.286420822 33.75 -108.2793579
v 1.260218501 33.75 -108.5955734
v 1.260218501 33.75 -108.3277817
v 1.24234283 33.75 -108.5435028
v 1.24234283 33.75 -108.3798523
v 1.233281493 33.75 -108.4892044
v 1.233281493 33.75 -108.4341507
v 1.565476298 34.58333206 -108.7950134
v 1.510611415 34.58333206 -108.7904663
v 1.457243085 34.58333206 -108.776947
v 1.406827092 34.58333206 -108.754837
v 1.360738754 34.58333206 -108.7247238
v 1.320235014 34.58333206 -108.687439
v 1.286420822 34.58333206 -108.6439896
v 1.260218501 34.58333206 -108.5955734
v 1.24234283 34.58333206 -108.5435028
v 1.233281493 34.58333206 -108.4892044
v 1.233281493 34.58333206 -108.4341507
v 1.24234283 34.58333206 -108.3798523
v 1.260218501 34.58333206 -108.3277817
v 1.286420822 34.58333206 -108.2793579
v 1.320235014 34.58333206 -108.2359161
v 1.360738754 34.58333206 -108.1986313
v 1.406827092 34.58333206 -108.1685181
v 1.457243085 34.58333206 -108.1464081
v 1.510611415 34.58333206 -108.1328888
v 1.565476298 34.58333206 -108.1283417
v 1.620341182 34.58333206 -108.1328888
v 1.673709393 34.58333206 -108.1464081
v 1.724125385 34.58333206 -108.1685181
v 1.770213842 34.58333206 -108.1986313
v 1.810717583 34.58333206 -108.2359161
v 1.844531775 34.58333206 -108.2793579
v 1.870734096 34.58333206 -108.3277817
v 1.888609648 34.58333206 -108.3798523
v 1.897671103 34.58333206 -108.4341507
v 1.897671103 34.58333206 -108.4892044
v 1.888609648 34.58333206 -108.5435028
v 1.870734096 34.58333206 -108.5955734
v 1.844531775 34.58333206 -108.6439896
v 1.810717583 34.58333206 -108.687439
v 1.770213842 34.58333206 -108.7247238
v 1.724125385 34.58333206 -108.754837
v 1.673709393 34.58333206 -108.776947
v 1.620341182 34.58333206 -108.7904663
vn -0.1247365475 -0.5812641978 0.8040974736
vn -0.1720395386 -0.5945150852 -0.7854642868
vn 0.02467646264 -0.6010701656 0.7988151908
vn -0.02467646264 -0.6010701656 -0.7988151908
vn 0.1720395386 -0.5945150852 0.7854642868
vn 0.1247365475 -0.5812641978 -0.8040974736
vn 0.3227145076 -0.5610942841 0.7622522712
vn 0.280962199 -0.5337532163 -0.797601223
vn 0.4787120223 -0.4990438819 0.722350359
vn 0.4446795881 -0.4570327103 -0.7703123689
vn 0.6355509162 -0.4082283676 0.6553049684
vn 0.6084861755 -0.3537470102 -0.710357368
vn 0.7798241377 -0.2953936756 0.5519211292
vn 0.7570998669 -0.2357029021 -0.6092979312
vn 0.8940416574 -0.1776496917 0.411254257
vn 0.8741443157 -0.1242504194 -0.4695035517
vn 0.9668405056 -0.07829338312 0.2430835366
vn 0.9520757198 -0.04202091694 -0.302962184
vn 0.9979633093 -0.01702378877 0.06147681922
vn 0.9924018979 -0.004292506259 -0.1229638159
vn -0.322714895 -0.5610945225 -0.7622519732
vn -0.2809624672 -0.5337528586 0.7976014018
vn -0.4787119031 -0.4990432858 -0.7223507762
vn -0.4446797371 -0.457033217 0.7703120112
vn -0.6355504394 -0.4082288742 -0.6553051472
vn -0.6084855199 -0.3537470102 0.710357964
vn -0.7798241377 -0.2953936756 -0.5519211292
vn -0.7570998669 -0.2357029021 0.6092979312
vn -0.8940416574 -0.1776496917 -0.411254257
vn -0.8741443157 -0.1242504194 0.4695035517
vn -0.9668405056 -0.07829338312 -0.2430835366
vn -0.9520757198 -0.04202091694 0.302962184
vn -0.9979633093 -0.01702378877 -0.06147681922
vn -0.9924018979 -0.004292506259 0.1229638159
vn -0.02467646264 0.6010701656 0.7988151908
vn -0.1720395386 0.5945150852 0.7854642868
vn -0.322714895 0.5610945225 0.7622519732
vn -0.4787119031 0.4990432858 0.7223507762
vn -0.6355504394 0.4082288742 0.6553051472
vn -0.7798241377 0.2953936756 0.5519211292
vn -0.8940416574 0.1776496917 0.411254257
vn -0.9668405056 0.07829338312 0.2430835366
vn -0.9979633093 0.01702378877 0.06147681922
vn -0.9924018979 0.004292506259 -0.1229638159
vn -0.9520757198 0.04202091694 -0.302962184
vn -0.8741443157 0.1242504194 -0.4695035517
vn -0.7570998669 0.2357029021 -0.6092979312
vn -0.6084855199 0.3537470102 -0.710357964
vn -0.4446797371 0.457033217 -0.7703120112
vn -0.2809624672 0.5337528586 -0.7976014018
vn -0.1247365475 0.5812641978 -0.8040974736
vn 0.02467646264 0.6010701656 -0.7988151908
vn 0.1720395386 0.5945150852 -0.7854642868
vn 0.3227145076 0.5610942841 -0.7622522712
vn 0.4787120223 0.4990438819 -0.722350359
vn 0.6355509162 0.4082283676 -0.6553049684
vn 0.7798241377 0.2953936756 -0.5519211292
vn 0.8940416574 0.1776496917 -0.411254257
vn 0.9668405056 0.07829338312 -0.2430835366
vn 0.9979633093 0.01702378877 -0.06147681922
vn 0.9924018979 0.004292506259 0.1229638159
vn 0.9520757198 0.04202091694 0.302962184
vn 0.8741443157 0.1242504194 0.4695035517
vn 0.7570998669 0.2357029021 0.6092979312
vn 0.6084861755 0.3537470102 0.710357368
vn 0.4446795881 0.4570327103 0.7703123689
vn 0.280962199 0.5337532163 0.797601223
vn 0.1247365475 0.5812641978 0.8040974736
vn -0.1428434104 -0.4972731769 0.855754137
vn -0.1065333113 -0.7624426484 -0.6382255554
vn 0.02160558477 -0.6228164434 0.7820695639
vn -0.02160558477 -0.6228164434 -0.7820695639
vn 0.1065334007 -0.7624427676 0.6382254362
vn 0.1428435892 -0.4972730279 -0.8557541966
vn 0.2407778949 -0.5910162926 0.7698867917
vn 0.2883090675 -0.5692353845 -0.7699669003
vn 0.3795434237 -0.5414688587 0.7501721382
vn 0.4308499992 -0.5075562596 -0.74616009
vn 0.523483634 -0.4675578475 0.7122882605
vn 0.5764229298 -0.4218582511 -0.6998372674
vn 0.6654966474 -0.3712774515 0.647508502
vn 0.7152352333 -0.3171365261 -0.6227865219
vn 0.7931876183 -0.2613463402 0.5500468016
vn 0.8336611986 -0.2061003447 -0.5123783946
vn 0.8935890794 -0.1537908167 0.4217190146
vn 0.9212230444 -0.1067303121 -0.3741079271
vn 0.960098505 -0.06686427444 0.2715511918
vn 0.9751832485 -0.03574103862 -0.2184954435
vn 0.9938203096 -0.01444200706 0.110057205
vn 0.9984779358 -0.003635697765 -0.05503250286
vn -0.2407775521 -0.5910163522 -0.7698869109
vn -0.2883088589 -0.5692353845 0.7699669003
vn -0.3795436919 -0.5414688587 -0.750172019
vn -0.4308505952 -0.5075561404 0.7461598516
vn -0.5234842896 -0.4675576091 -0.7122879028
vn -0.5764232874 -0.4218581021 0.6998370886
vn -0.6655206084 -0.3712668419 -0.647489965
vn -0.7151922584 -0.3171564639 0.6228256226
vn -0.7932041883 -0.2613370717 -0.5500273108
vn -0.8336750269 -0.2060925514 0.5123590231
vn -0.8935703635 -0.1538035721 -0.421754092
vn -0.9212294817 -0.1067260876 0.3740932643
vn -0.9600982666 -0.06686449051 -0.2715518475
vn -0.9751833677 -0.03574099764 0.2184947431
vn -0.9938204885 -0.01444181986 -0.1100557745
vn -0.9984779954 -0.003635650035 0.05503178015
vn 0.02160558477 0.6228164434 -0.7820695639
vn -0.1428434104 0.4972731769 -0.855754137
vn -0.2883088589 0.5692353845 -0.7699669003
vn -0.4308505952 0.5075561404 -0.7461598516
vn -0.5764232874 0.4218581021 -0.6998370886
vn -0.7152352333 0.3171365261 -0.6227865219
vn -0.8336611986 0.2061003447 -0.5123783946
vn -0.921222508 0.1067306176 -0.374109149
vn -0.9751833677 0.03574099764 -0.2184947431
vn -0.9984779954 0.003635650035 -0.05503178015
vn -0.9938204885 0.01444181986 0.1100557745
vn -0.9600982666 0.06686449051 0.2715518475
vn -0.8935887814 0.1537909955 0.4217195809
vn -0.7931876183 0.2613463402 0.5500468016
vn -0.6654966474 0.3712774515 0.647508502
vn -0.5234842896 0.4675576091 0.7122879028
vn -0.3795436919 0.5414688587 0.750172019
vn -0.2407775521 0.5910163522 0.7698869109
vn -0.1065333113 0.7624426484 0.6382255554
vn -0.02160558477 0.6228164434 0.7820695639
vn 0.1428435892 0.4972730279 0.8557541966
vn 0.2883090675 0.5692353845 0.7699669003
vn 0.4308499992 0.5075562596 0.74616009
vn 0.5764229298 0.4218582511 0.6998372674
vn 0.7151922584 0.3171564639 0.6228256226
vn 0.8336750269 0.2060925514 0.5123590231
vn 0.9212300181 0.1067257822 0.3740920424
vn 0.9751832485 0.03574103862 0.2184954435
vn 0.9984779358 0.003635697765 0.05503250286
vn 0.9938203096 0.01444200706 -0.110057205
vn 0.960098505 0.06686427444 -0.2715511918
vn 0.8935706615 0.1538033932 -0.4217535257
vn 0.7932041883 0.2613370717 -0.5500273108
vn 0.6655206084 0.3712668419 -0.647489965
vn 0.523483634 0.4675578475 -0.7122882605
vn 0.3795434237 0.5414688587 -0.7501721382
vn 0.2407778949 0.5910162926 -0.7698867917
vn 0.1065334007 0.7624427676 -0.6382254362
f 1//1 2//2 3//3 
f 3//3 2//2 4//4 
f 3//3 4//4 5//5 
f 5//5 4//4 6//6 
f 5//5 6//6 7//7 
f 7//7 6//6 8//8 
f 7//7 8//8 9//9 
f 9//9 8//8 10//10 
f 9//9 10//10 11//11 
f 11//11 10//10 12//12 
f 11//11 12//12 13//13 
f 13//13 12//12 14//14 
f 13//13 14//14 15//15 
f 15//15 14//14 16//16 
f 15//15 16//16 17//17 
f 17//17 16//16 18//18 
f 17//17 18//18 19//19 
f 19//19 18//18 20//20 
f 2//2 1//1 21//21 
f 21//21 1//1 22//22 
f 21//21 22//22 23//23 
f 23//23 22//22 24//24 
f 23//23 24//24 25//25 
f 25//25 24//24 26//26 
f 25//25 26//26 27//27 
f 27//27 26//26 28//28 
f 27//27 28//28 29//29 
f 29//29 28//28 30//30 
f 29//29 30//30 31//31 
f 31//31 30//30 32//32 
f 31//31 32//32 33//33 
f 33//33 32//32 34//34 
f 3//3 35//35 1//1 
f 1//1 35//35 36//36 
f 1//1 36//36 22//22 
f 22//22 36//36 37//37 
f 22//22 37//37 24//24 
f 24//24 37//37 38//38 
f 24//24 38//38 26//26 
f 26//26 38//38 39//39 
f 26//26 39//39 28//28 
f 28//28 39//39 40//40 
f 28//28 40//40 30//30 
f 30//30 40//40 41//41 
f 30//30 41//41 32//32 
f 32//32 41//41 42//42 
f 32//32 42//42 34//34 
f 34//34 42//42 43//43 
f 34//34 43//43 33//33 
f 33//33 43//43 44//44 
f 33//33 44//44 31//31 
f 31//31 44//44 45//45 
f 31//31 45//45 29//29 
f 29//29 45//45 46//46 
f 29//29 46//46 27//27 
f 27//27 46//46 47//47 
f 27//27 47//47 25//25 
f 25//25 47//47 48//48 
f 25//25 48//48 23//23 
f 23//23 48//48 49//49 
f 23//23 49//49 21//21 
f 21//21 49//49 50//50 
f 21//21 50//50 2//2 
f 2//2 50//50 51//51 
f 2//2 51//51 4//4 
f 4//4 51//51 52//52 
f 4//4 52//52 6//6 
f 6//6 52//52 53//53 
f 6//6 53//53 8//8 
f 8//8 53//53 54//54 
f 8//8 54//54 10//10 
f 10//10 54//54 55//55 
f 10//10 55//55 12//12 
f 12//12 55//55 56//56 
f 12//12 56//56 14//14 
f 14//14 56//56 57//57 
f 14//14 57//57 16//16 
f 16//16 57//57 58//58 
f 16//16 58//58 18//18 
f 18//18 58//58 59//59 
f 18//18 59//59 20//20 
f 20//20 59//59 60//60 
f 20//20 60//60 19//19 
f 19//19 60//60 61//61 
f 19//19 61//61 17//17 
f 17//17 61//61 62//62 
f 17//17 62//62 15//15 
f 15//15 62//62 63//63 
f 15//15 63//63 13//13 
f 13//13 63//63 64//64 
f 13//13 64//64 11//11 
f 11//11 64//64 65//65 
f 11//11 65//65 9//9 
f 9//9 65//65 66//66 
f 9//9 66//66 7//7 
f 7//7 66//66 67//67 
f 7//7 67//67 5//5 
f 5//5 67//67 68//68 
f 5//5 68//68 3//3 
f 3//3 68//68 35//35 
f 68//68 53//53 35//35 
f 35//35 53//53 52//52 
f 35//35 52//52 36//36 
f 36//36 52//52 51//51 
f 36//36 51//51 37//37 
f 37//37 51//51 50//50 
f 37//37 50//50 38//38 
f 38//38 50//50 49//49 
f 38//38 49//49 39//39 
f 39//39 49//49 48//48 
f 39//39 48//48 40//40 
f 40//40 48//48 47//47 
f 40//40 47//47 41//41 
f 41//41 47//47 46//46 
f 41//41 46//46 42//42 
f 42//42 46//46 45//45 
f 42//42 45//45 43//43 
f 43//43 45//45 44//44 
f 53//53 68//68 54//54 
f 54//54 68//68 67//67 
f 54//54 67//67 55//55 
f 55//55 67//67 66//66 
f 55//55 66//66 56//56 
f 56//56 66//66 65//65 
f 56//56 65//65 57//57 
f 57//57 65//65 64//64 
f 57//57 64//64 58//58 
f 58//58 64//64 63//63 
f 58//58 63//63 59//59 
f 59//59 63//63 62//62 
f 59//59 62//62 60//60 
f 60//60 62//62 61//61 
f 69//69 70//70 71//71 
f 71//71 70//70 72//72 
f 71//71 72//72 73//73 
f 73//73 72//72 74//74 
f 73//73 74//74 75//75 
f 75//75 74//74 76//76 
f 75//75 76//76 77//77 
f 77//77 76//76 78//78 
f 77//77 78//78 79//79 
f 79//79 78//78 80//80 
f 79//79 80//80 81//81 
f 81//81 80//80 82//82 
f 81//81 82//82 83//83 
f 83//83 82//82 84//84 
f 83//83 84//84 85//85 
f 85//85 84//84 86//86 
f 85//85 86//86 87//87 
f 87//87 86//86 88//88 
f 87//87 88//88 89//89 
f 89//89 88//88 90//90 
f 70//70 69//69 91//91 
f 91//91 69//69 92//92 
f 91//91 92//92 93//93 
f 93//93 92//92 94//94 
f 93//93 94//94 95//95 
f 95//95 94//94 96//96 
f 95//95 96//96 97//97 
f 97//97 96//96 98//98 
f 97//97 98//98 99//99 
f 99//99 98//98 100//100 
f 99//99 100//100 101//101 
f 101//101 100//100 102//102 
f 101//101 102//102 103//103 
f 103//103 102//102 104//104 
f 103//103 104//104 105//105 
f 105//105 104//104 106//106 
f 107//107 72//72 108//108 
f 108//108 72//72 70//70 
f 108//108 70//70 91//91 
f 108//108 91//91 109//109 
f 109//109 91//91 93//93 
f 109//109 93//93 110//110 
f 110//110 93//93 95//95 
f 110//110 95//95 111//111 
f 111//111 95//95 97//97 
f 111//111 97//97 112//112 
f 112//112 97//97 99//99 
f 112//112 99//99 113//113 
f 113//113 99//99 101//101 
f 113//113 101//101 114//114 
f 114//114 101//101 103//103 
f 114//114 103//103 115//115 
f 115//115 103//103 105//105 
f 115//115 105//105 116//116 
f 116//116 105//105 106//106 
f 116//116 106//106 117//117 
f 117//117 106//106 104//104 
f 117//117 104//104 118//118 
f 118//118 104//104 102//102 
f 118//118 102//102 119//119 
f 119//119 102//102 100//100 
f 119//119 100//100 120//120 
f 120//120 100//100 98//98 
f 120//120 98//98 121//121 
f 121//121 98//98 96//96 
f 121//121 96//96 122//122 
f 122//122 96//96 94//94 
f 122//122 94//94 123//123 
f 123//123 94//94 92//92 
f 123//123 92//92 124//124 
f 124//124 92//92 69//69 
f 124//124 69//69 125//125 
f 125//125 69//69 126//126 
f 126//126 69//69 71//71 
f 126//126 71//71 127//127 
f 127//127 71//71 73//73 
f 127//127 73//73 75//75 
f 127//127 75//75 128//128 
f 128//128 75//75 77//77 
f 128//128 77//77 129//129 
f 129//129 77//77 79//79 
f 129//129 79//79 130//130 
f 130//130 79//79 81//81 
f 130//130 81//81 131//131 
f 131//131 81//81 83//83 
f 131//131 83//83 132//132 
f 132//132 83//83 85//85 
f 132//132 85//85 133//133 
f 133//133 85//85 87//87 
f 133//133 87//87 134//134 
f 134//134 87//87 89//89 
f 134//134 89//89 135//135 
f 135//135 89//89 90//90 
f 135//135 90//90 136//136 
f 136//136 90//90 88//88 
f 136//136 88//88 137//137 
f 137//137 88//88 86//86 
f 137//137 86//86 138//138 
f 138//138 86//86 84//84 
f 138//138 84//84 139//139 
f 139//139 84//84 82//82 
f 139//139 82//82 140//140 
f 140//140 82//82 80//80 
f 140//140 80//80 141//141 
f 141//141 80//80 78//78 
f 141//141 78//78 142//142 
f 142//142 78//78 76//76 
f 142//142 76//76 143//143 
f 143//143 76//76 74//74 
f 143//143 74//74 144//144 
f 144//144 74//74 107//107 
f 107//107 74//74 72//72 
f 127//127 144//144 126//126 
f 126//126 144//144 107//107 
f 126//126 107//107 125//125 
f 125//125 107//107 108//108 
f 125//125 108//108 124//124 
f 124//124 108//108 109//109 
f 124//124 109//109 123//123 
f 123//123 109//109 110//110 
f 123//123 110//110 122//122 
f 122//122 110//110 111//111 
f 122//122 111//111 121//121 
f 121//121 111//111 112//112 
f 121//121 112//112 120//120 
f 120//120 112//112 113//113 
f 120//120 113//113 119//119 
f 119//119 113//113 114//114 
f 119//119 114//114 118//118 
f 118//118 114//114 115//115 
f 118//118 115//115 117//117 
f 117//117 115//115 116//116 
f 144//144 127//127 143//143 
f 143//143 127//127 128//128 
f 143//143 128//128 142//142 
f 142//142 128//128 129//129 
f 142//142 129//129 141//141 
f 141//141 129//129 130//130 
f 141//141 130//130 140//140 
f 140//140 130//130 131//131 
f 140//140 131//131 139//139 
f 139//139 131//131 132//132 
f 139//139 132//132 138//138 
f 138//138 132//132 133//133 
f 138//138 133//133 137//137 
f 137//137 133//133 134//134 
f 137//137 134//134 136//136 
f 136//136 134//134 135//135 
