v -19.35639954 24.75 -84.64001465
v -19.35639954 23.75 -84.64001465
v -19.52306557 24.75 -84.64001465
v -19.52306557 23.75 -84.64001465
v -19.35639954 23.75 -81.97335052
v -19.35639954 24.75 -81.97335052
v -19.52306557 23.75 -81.97335052
v -19.52306557 24.75 -81.97335052
vn 0.985925734 0.1643203348 -0.03081009164
vn 0.9789805412 -0.1631627977 -0.1223722175
vn -0.9789805412 0.1631627977 -0.1223722175
vn -0.985925734 -0.1643203348 -0.03081009164
vn 0.985925734 -0.1643203348 0.03081009164
vn 0.9789805412 0.1631627977 0.1223722175
vn -0.9789805412 -0.1631627977 0.1223722175
vn -0.985925734 0.1643203348 0.03081009164
f 1//1 2//2 3//3 
f 3//3 2//2 4//4 
f 2//2 1//1 5//5 
f 5//5 1//1 6//6 
f 2//2 5//5 4//4 
f 4//4 5//5 7//7 
f 6//6 1//1 8//8 
f 8//8 1//1 3//3 
f 7//7 8//8 4//4 
f 4//4 8//8 3//3 
f 5//5 6//6 7//7 
f 7//7 6//6 8//8 
