v -45.80126953 24.75 -81.11917877
v -45.80126953 23.75 -81.11917877
v -45.63460541 24.75 -81.11917877
v -45.63460541 23.75 -81.11917877
v -45.63460541 23.75 -84.66085052
v -45.63460541 24.75 -84.66085052
v -45.80126953 24.75 -84.66085052
v -45.80126953 23.75 -84.66085052
vn -0.9861287475 0.1643522829 0.0232026428
vn -0.9821709991 -0.1636926681 0.09243807942
vn 0.9821709991 0.1636926681 0.09243807942
vn 0.9861287475 -0.1643522829 0.0232026428
vn 0.9821709991 -0.1636926681 -0.09243807942
vn 0.9861287475 0.1643522829 -0.0232026428
vn -0.9821709991 0.1636926681 -0.09243807942
vn -0.9861287475 -0.1643522829 -0.0232026428
f 1//1 2//2 3//3 
f 3//3 2//2 4//4 
f 5//5 6//6 4//4 
f 4//4 6//6 3//3 
f 7//7 1//1 6//6 
f 6//6 1//1 3//3 
f 2//2 8//8 4//4 
f 4//4 8//8 5//5 
f 2//2 1//1 8//8 
f 8//8 1//1 7//7 
f 8//8 7//7 5//5 
f 5//5 7//7 6//6 
