v -14.14598179 37.25 -84.66085052
v -14.14598179 23.75 -84.66085052
v -14.75014877 37.25 -84.66085052
v -14.75014877 23.75 -84.66085052
v -14.14598179 23.75 -83.54418182
v -14.14598179 37.25 -83.54418182
v -14.75014877 23.75 -83.54418182
v -14.75014877 37.25 -83.54418182
vn 0.9644026756 0.04316001758 -0.2608921826
vn 0.6783883572 -0.03035998717 -0.7340759635
vn -0.6783883572 0.03035998717 -0.7340759635
vn -0.9644026756 -0.04316001758 -0.2608921826
vn 0.9644026756 -0.04316001758 0.2608921826
vn 0.6783883572 0.03035998717 0.7340759635
vn -0.6783883572 -0.03035998717 0.7340759635
vn -0.9644026756 0.04316001758 0.2608921826
f 1//1 2//2 3//3 
f 3//3 2//2 4//4 
f 2//2 1//1 5//5 
f 5//5 1//1 6//6 
f 2//2 5//5 4//4 
f 4//4 5//5 7//7 
f 6//6 1//1 8//8 
f 8//8 1//1 3//3 
f 7//7 8//8 4//4 
f 4//4 8//8 3//3 
f 5//5 6//6 7//7 
f 7//7 6//6 8//8 
