v -71.95352173 3.533197165 -103.070488
v -71.95214844 3.522413015 -103.0708542
v -71.95214844 3.543981314 -103.0708542
v -71.94812775 3.554030418 -103.0719147
v -71.94812775 3.512363911 -103.0719147
v -71.94171906 3.562659979 -103.0736084
v -71.94171906 3.50373435 -103.0736084
v -71.93338013 3.569281578 -103.0758057
v -71.93338013 3.497112751 -103.0758057
v -71.92366028 3.573444128 -103.0783768
v -71.92366028 3.492950201 -103.0783768
v -71.91323853 3.574863911 -103.0811234
v -71.91323853 3.491530418 -103.0811234
v -71.90280914 3.573444128 -103.0838776
v -71.90280914 3.492950201 -103.0838776
v -71.89308929 3.569281578 -103.086441
v -71.89308929 3.497112751 -103.086441
v -71.88475037 3.562659979 -103.0886459
v -71.88475037 3.50373435 -103.0886459
v -71.8783493 3.554030418 -103.0903397
v -71.8783493 3.512363911 -103.0903397
v -71.87432098 3.543981314 -103.0914001
v -71.87432098 3.522413015 -103.0914001
v -71.87294769 3.533197165 -103.0917587
v -71.78000641 3.533197165 -104.8339539
v -71.7787323 3.543981314 -104.833313
v -71.7787323 3.522413015 -104.833313
v -71.77501678 3.512363911 -104.8314438
v -71.77501678 3.554030418 -104.8314438
v -71.769104 3.50373435 -104.8284683
v -71.769104 3.562659979 -104.8284683
v -71.76139069 3.497112751 -104.824585
v -71.76139069 3.569281578 -104.824585
v -71.75241852 3.492950201 -104.8200684
v -71.75241852 3.573444128 -104.8200684
v -71.74278259 3.491530418 -104.8152237
v -71.74278259 3.574863911 -104.8152237
v -71.7331543 3.492950201 -104.8103714
v -71.7331543 3.573444128 -104.8103714
v -71.7241745 3.497112751 -104.8058548
v -71.7241745 3.569281578 -104.8058548
v -71.71646881 3.50373435 -104.8019791
v -71.71646881 3.562659979 -104.8019791
v -71.7105484 3.512363911 -104.7990036
v -71.7105484 3.554030418 -104.7990036
v -71.70683289 3.522413015 -104.7971268
v -71.70683289 3.543981314 -104.7971268
v -71.70556641 3.533197165 -104.7964935
v -72.19920349 3.533197165 -104.0010376
v -72.19882202 3.538635731 -104.0009995
v -72.19769287 3.543981314 -104.000885
v -72.19582367 3.549141884 -104.0006866
v -72.19326019 3.554030418 -104.0004196
v -72.19004059 3.55856204 -104.0000839
v -72.18621826 3.562659979 -103.9996872
v -72.1770401 3.569281578 -103.9987259
v -72.17184448 3.571692228 -103.9981842
v -72.16635132 3.573444128 -103.997612
v -72.15488434 3.574863911 -103.9964142
v -72.14910126 3.574507475 -103.9958038
v -72.13792419 3.571692228 -103.9946442
v -72.13272858 3.569281578 -103.9940948
v -72.12355042 3.562659979 -103.9931412
v -72.11972809 3.55856204 -103.9927368
v -72.11650085 3.554030418 -103.9924011
v -72.11393738 3.549141884 -103.9921341
v -72.11207581 3.543981314 -103.9919434
v -72.11094666 3.538635731 -103.9918213
v -72.11056519 3.533197165 -103.9917831
v -72.11094666 3.52775836 -103.9918213
v -72.11207581 3.522413015 -103.9919434
v -72.11393738 3.517252445 -103.9921341
v -72.11650085 3.512363911 -103.9924011
v -72.11972809 3.507832289 -103.9927368
v -72.12355042 3.50373435 -103.9931412
v -72.13272858 3.497112751 -103.9940948
v -72.13792419 3.494702101 -103.9946442
v -72.14340973 3.492950201 -103.9952164
v -72.15488434 3.491530418 -103.9964142
v -72.16066742 3.491886854 -103.9970169
v -72.17184448 3.494702101 -103.9981842
v -72.1770401 3.497112751 -103.9987259
v -72.18621826 3.50373435 -103.9996872
v -72.19004059 3.507832289 -104.0000839
v -72.19326019 3.512363911 -104.0004196
v -72.19582367 3.517252445 -104.0006866
v -72.19769287 3.522413015 -104.000885
v -72.19882202 3.52775836 -104.0009995
vn -0.9665551782 1.867256011e-14 0.2564588189
vn -0.9314187765 -0.2587985396 0.2558952868
vn -0.9328719974 0.2588069141 0.2505370378
vn -0.8327497244 0.4998810589 0.2380059063
vn -0.8301044106 -0.499774754 0.2472891361
vn -0.6556242704 0.7262269855 0.2067635655
vn -0.6529563665 -0.7259628177 0.215930447
vn -0.45287624 0.8701989651 0.1940536797
vn -0.4494734406 -0.8694204092 0.2051384449
vn -0.2065167874 0.9705979228 0.1236547232
vn -0.2282441556 -0.9625299573 0.1464263052
vn 0.03909375519 0.9945010543 0.09715623409
vn 0.04589058831 -0.9968389273 0.06485557556
vn 0.2706095874 0.9625647068 0.01547918096
vn 0.2852993011 -0.958183825 0.02209346741
vn 0.5212711692 0.850112617 -0.0747320056
vn 0.5193665624 -0.8505151272 -0.08296024054
vn 0.7068381906 0.6963739395 -0.1242702976
vn 0.7038544416 -0.6968858838 -0.1376190037
vn 0.8439865708 0.5000941753 -0.1938877702
vn 0.8416455388 -0.5002123713 -0.2035200447
vn 0.9364196658 0.2588373125 -0.2368997484
vn 0.9349917173 -0.2588487267 -0.2424621135
vn 0.9671938419 8.277265253e-15 -0.2540394068
vn -0.8926754594 2.788344583e-15 -0.4507000148
vn -0.8582488298 0.25895679 -0.4431143403
vn -0.8608600497 -0.2589694262 -0.4380123317
vn -0.7654454112 -0.4996547103 -0.4055101275
vn -0.7607976198 0.4995399415 -0.4143028855
vn -0.5982244015 -0.726233542 -0.3386922479
vn -0.5935439467 0.7259578109 -0.3474058509
vn -0.4018229544 -0.870072782 -0.285502404
vn -0.3960568905 0.8692364693 -0.2959170938
vn -0.1944961697 -0.9627677798 -0.1877482235
vn -0.1732504368 0.9700978398 -0.1699836254
vn 0.059379749 -0.9966555238 -0.0561414659
vn 0.05987311527 0.9941439033 -0.08996189386
vn 0.2880426049 -0.9571982026 0.028338084
vn 0.2667334676 0.962785244 0.04356344417
vn 0.4953976274 -0.850019753 0.1790186167
vn 0.4917193949 0.8504533768 0.1869252622
vn 0.6665585041 -0.696469903 0.2657619715
vn 0.6607159972 0.6970142126 0.2786136568
vn 0.7860952616 -0.5000951886 0.3632617295
vn 0.7816780806 0.5002120137 0.3725148439
vn 0.8674345613 -0.2586621046 0.4250308275
vn 0.8648062944 0.2586737275 0.4303463101
vn 0.8938373923 -2.054727653e-15 0.4483912587
vn -0.9951941371 -5.625058949e-18 -0.09792161733
vn -0.9854488373 0.139602229 -0.09696270525
vn -0.9565941691 0.2758049071 -0.09412354231
vn -0.9098975658 0.4050578177 -0.08952448517
vn -0.8468716741 0.5252296925 -0.08331932127
vn -0.7693160176 0.6343699694 -0.0756810233
vn -0.6310808659 0.773229301 -0.06207564473
vn -0.5488530993 0.8341739178 -0.05398241803
vn -0.3594557643 0.932492435 -0.03534664214
vn -0.1819873154 0.9831380844 -0.01789285056
vn -0.08533708006 0.9963167906 -0.008389445953
vn 0.1577711403 0.9873539805 0.01550497953
vn 0.3245410323 0.9453339577 0.03188749775
vn 0.5274528861 0.8480026722 0.05181684345
vn 0.610973835 0.7893727422 0.06001402438
vn 0.7691553235 0.6345815063 0.0755405724
vn 0.8465815783 0.5257257223 0.08313931525
vn 0.9099570513 0.4049611688 0.08935667574
vn 0.9567962289 0.2751625776 0.09394939244
vn 0.9855046272 0.1393452734 0.09676559269
vn 0.9952143431 5.818969937e-18 0.09771622717
vn 0.9855046272 -0.1393452734 0.09676559269
vn 0.9567946196 -0.2751683295 0.09394923598
vn 0.9099570513 -0.4049611688 0.08935667574
vn 0.8465815783 -0.5257257223 0.08313931525
vn 0.7691553235 -0.6345815063 0.0755405724
vn 0.610973835 -0.7893727422 0.06001402438
vn 0.5274528861 -0.8480026722 0.05181684345
vn 0.359521538 -0.9324679375 0.03532395139
vn 0.1577711403 -0.9873539805 0.01550497953
vn 0.06087612733 -0.9981274009 0.005983908195
vn -0.157915324 -0.9873306155 -0.0155250039
vn -0.3246802986 -0.9452848434 -0.03192650527
vn -0.5488530993 -0.8341739178 -0.05398241803
vn -0.6310808659 -0.773229301 -0.06207564473
vn -0.7693160176 -0.6343699694 -0.0756810233
vn -0.8468716741 -0.5252296925 -0.08331932127
vn -0.9098975658 -0.4050578177 -0.08952448517
vn -0.9565925002 -0.2758106887 -0.0941233784
vn -0.9854488373 -0.139602229 -0.09696270525
f 1//1 2//2 3//3 
f 3//3 2//2 4//4 
f 4//4 2//2 5//5 
f 4//4 5//5 6//6 
f 6//6 5//5 7//7 
f 6//6 7//7 8//8 
f 8//8 7//7 9//9 
f 8//8 9//9 10//10 
f 10//10 9//9 11//11 
f 10//10 11//11 12//12 
f 12//12 11//11 13//13 
f 12//12 13//13 14//14 
f 14//14 13//13 15//15 
f 14//14 15//15 16//16 
f 16//16 15//15 17//17 
f 16//16 17//17 18//18 
f 18//18 17//17 19//19 
f 18//18 19//19 20//20 
f 20//20 19//19 21//21 
f 20//20 21//21 22//22 
f 22//22 21//21 23//23 
f 22//22 23//23 24//24 
f 25//25 26//26 27//27 
f 27//27 26//26 28//28 
f 28//28 26//26 29//29 
f 28//28 29//29 30//30 
f 30//30 29//29 31//31 
f 30//30 31//31 32//32 
f 32//32 31//31 33//33 
f 32//32 33//33 34//34 
f 34//34 33//33 35//35 
f 34//34 35//35 36//36 
f 36//36 35//35 37//37 
f 36//36 37//37 38//38 
f 38//38 37//37 39//39 
f 38//38 39//39 40//40 
f 40//40 39//39 41//41 
f 40//40 41//41 42//42 
f 42//42 41//41 43//43 
f 42//42 43//43 44//44 
f 44//44 43//43 45//45 
f 44//44 45//45 46//46 
f 46//46 45//45 47//47 
f 46//46 47//47 48//48 
f 49//49 50//50 25//25 
f 25//25 50//50 26//26 
f 26//26 50//50 51//51 
f 26//26 51//51 52//52 
f 26//26 52//52 29//29 
f 29//29 52//52 53//53 
f 29//29 53//53 54//54 
f 29//29 54//54 31//31 
f 31//31 54//54 55//55 
f 31//31 55//55 56//56 
f 31//31 56//56 33//33 
f 33//33 56//56 57//57 
f 33//33 57//57 35//35 
f 35//35 57//57 58//58 
f 35//35 58//58 59//59 
f 35//35 59//59 37//37 
f 37//37 59//59 60//60 
f 37//37 60//60 39//39 
f 39//39 60//60 61//61 
f 39//39 61//61 41//41 
f 41//41 61//61 62//62 
f 41//41 62//62 63//63 
f 41//41 63//63 43//43 
f 43//43 63//63 64//64 
f 43//43 64//64 45//45 
f 45//45 64//64 65//65 
f 45//45 65//65 66//66 
f 45//45 66//66 47//47 
f 47//47 66//66 67//67 
f 47//47 67//67 68//68 
f 69//69 48//48 68//68 
f 68//68 48//48 47//47 
f 69//69 24//24 70//70 
f 70//70 24//24 23//23 
f 70//70 23//23 71//71 
f 71//71 23//23 72//72 
f 72//72 23//23 21//21 
f 72//72 21//21 73//73 
f 73//73 21//21 74//74 
f 74//74 21//21 19//19 
f 74//74 19//19 75//75 
f 75//75 19//19 17//17 
f 75//75 17//17 76//76 
f 76//76 17//17 77//77 
f 77//77 17//17 15//15 
f 77//77 15//15 78//78 
f 78//78 15//15 13//13 
f 78//78 13//13 79//79 
f 79//79 13//13 80//80 
f 80//80 13//13 11//11 
f 80//80 11//11 81//81 
f 81//81 11//11 9//9 
f 81//81 9//9 82//82 
f 82//82 9//9 7//7 
f 82//82 7//7 83//83 
f 83//83 7//7 84//84 
f 84//84 7//7 5//5 
f 84//84 5//5 85//85 
f 85//85 5//5 86//86 
f 86//86 5//5 2//2 
f 86//86 2//2 87//87 
f 87//87 2//2 88//88 
f 88//88 2//2 1//1 
f 88//88 1//1 49//49 
f 49//49 1//1 50//50 
f 50//50 1//1 3//3 
f 50//50 3//3 51//51 
f 51//51 3//3 52//52 
f 52//52 3//3 4//4 
f 52//52 4//4 53//53 
f 53//53 4//4 54//54 
f 54//54 4//4 6//6 
f 54//54 6//6 55//55 
f 55//55 6//6 56//56 
f 56//56 6//6 8//8 
f 56//56 8//8 57//57 
f 57//57 8//8 10//10 
f 57//57 10//10 58//58 
f 58//58 10//10 59//59 
f 59//59 10//10 12//12 
f 59//59 12//12 60//60 
f 60//60 12//12 14//14 
f 60//60 14//14 61//61 
f 61//61 14//14 16//16 
f 61//61 16//16 62//62 
f 62//62 16//16 63//63 
f 63//63 16//16 18//18 
f 63//63 18//18 64//64 
f 64//64 18//18 20//20 
f 64//64 20//20 65//65 
f 65//65 20//20 66//66 
f 66//66 20//20 22//22 
f 66//66 22//22 67//67 
f 67//67 22//22 68//68 
f 68//68 22//22 24//24 
f 68//68 24//24 69//69 
f 69//69 70//70 48//48 
f 48//48 70//70 46//46 
f 46//46 70//70 71//71 
f 46//46 71//71 72//72 
f 46//46 72//72 44//44 
f 44//44 72//72 73//73 
f 44//44 73//73 74//74 
f 44//44 74//74 42//42 
f 42//42 74//74 75//75 
f 42//42 75//75 40//40 
f 40//40 75//75 76//76 
f 40//40 76//76 77//77 
f 40//40 77//77 38//38 
f 38//38 77//77 78//78 
f 38//38 78//78 36//36 
f 36//36 78//78 79//79 
f 36//36 79//79 80//80 
f 36//36 80//80 34//34 
f 34//34 80//80 81//81 
f 34//34 81//81 32//32 
f 32//32 81//81 82//82 
f 32//32 82//82 30//30 
f 30//30 82//82 83//83 
f 30//30 83//83 84//84 
f 30//30 84//84 28//28 
f 28//28 84//84 85//85 
f 28//28 85//85 86//86 
f 28//28 86//86 27//27 
f 27//27 86//86 87//87 
f 27//27 87//87 88//88 
f 49//49 25//25 88//88 
f 88//88 25//25 27//27 
