v -72.13792419 3.573418379 -104.0537262
v -72.13792419 3.492924452 -104.0537262
v -72.12831879 3.574838161 -104.0488281
v -72.12831879 3.491504669 -104.0488281
v -72.11870575 3.573418379 -104.0439301
v -72.11870575 3.492924452 -104.0439301
v -72.10975647 3.569255829 -104.0393677
v -72.10975647 3.497087002 -104.0393677
v -72.10206604 3.56263423 -104.0354538
v -72.10206604 3.503708601 -104.0354538
v -72.09616852 3.554004669 -104.0324478
v -72.09616852 3.512338161 -104.0324478
v -72.092453 3.543955564 -104.0305557
v -72.092453 3.522387266 -104.0305557
v -72.09119415 3.533171415 -104.0299149
v -72.1468811 3.497087002 -104.0582886
v -72.1468811 3.569255829 -104.0582886
v -72.15457153 3.503708601 -104.0622025
v -72.15457153 3.56263423 -104.0622025
v -72.16046906 3.512338161 -104.0652084
v -72.16046906 3.554004669 -104.0652084
v -72.16417694 3.522387266 -104.0671005
v -72.16417694 3.543955564 -104.0671005
v -72.16544342 3.533171415 -104.0677414
v -71.70367432 3.543955564 -104.7935791
v -71.70340729 3.533171415 -104.7909775
v -71.70566559 3.522387266 -104.7896729
v -71.71030426 3.512338161 -104.7897415
v -71.71700287 3.503708601 -104.7911835
v -71.72529602 3.497087002 -104.7939072
v -71.7346344 3.492924452 -104.7977142
v -71.74437714 3.491504669 -104.8023529
v -71.70645905 3.554004669 -104.797287
v -71.71156311 3.56263423 -104.801857
v -71.71864319 3.569255829 -104.8069687
v -71.727211 3.573418379 -104.8122864
v -71.73668671 3.574838161 -104.8174438
v -71.74642944 3.573418379 -104.8220825
v -71.75576782 3.569255829 -104.8258896
v -71.7640686 3.56263423 -104.8286057
v -71.77075958 3.554004669 -104.8300476
v -71.77539825 3.543955564 -104.8301239
v -71.77765656 3.533171415 -104.8288116
v -71.77738953 3.522387266 -104.8262177
v -71.7746048 3.512338161 -104.8225021
v -71.76950073 3.503708601 -104.8179398
v -71.76242828 3.497087002 -104.8128204
v -71.75385284 3.492924452 -104.8075027
v -70.61096191 2.527598858 -106.9420166
v -70.61904144 2.520467758 -106.9191666
v -70.60945892 2.530820608 -106.9534378
v -70.60975647 2.533644438 -106.9642639
v -70.61183929 2.535962105 -106.9740906
v -70.61562347 2.537683964 -106.9825287
v -70.61811066 2.538300037 -106.9861298
v -70.62096405 2.53874445 -106.9892654
v -70.62416077 2.539012909 -106.9919052
v -70.62766266 2.539102554 -106.9940262
v -70.63143921 2.539012909 -106.9956131
v -70.63545227 2.53874445 -106.9966431
v -70.6396637 2.538300037 -106.9971085
v -70.64404297 2.537683964 -106.9970093
v -70.65309143 2.535962105 -106.9951096
v -70.66226196 2.533644438 -106.9910202
v -70.67119598 2.530820608 -106.9848938
v -70.6795578 2.527598858 -106.9769669
v -70.69329071 2.520467758 -106.9570007
v -70.70137787 2.51333642 -106.9341507
v -70.70287323 2.51011467 -106.9227295
v -70.70257568 2.50729084 -106.9118958
v -70.70049286 2.504973412 -106.9020767
v -70.69670868 2.503251314 -106.893631
v -70.6942215 2.502635241 -106.8900375
v -70.6913681 2.502190828 -106.8869019
v -70.68817902 2.501922607 -106.8842621
v -70.68467712 2.501832724 -106.8821335
v -70.68090057 2.501922607 -106.8805542
v -70.67688751 2.502190828 -106.8795166
v -70.67266846 2.502635241 -106.8790512
v -70.66829681 2.503251314 -106.879158
v -70.65924835 2.504973412 -106.8810577
v -70.65007019 2.50729084 -106.8851471
v -70.64113617 2.51011467 -106.8912735
v -70.63277435 2.51333642 -106.8991928
v -71.17282104 0.7275152206 -105.9003372
v -71.17327881 0.7616389394 -105.8437119
v -71.1818924 0.7267220616 -105.9062805
v -71.18242645 0.7664600015 -105.8403397
v -71.19203949 0.7275152206 -105.9101334
v -71.19261169 0.7701593041 -105.8393707
v -71.20256042 0.7298406959 -105.9116135
v -71.20313263 0.7724847794 -105.8408508
v -71.21274567 0.7335399985 -105.9106369
v -71.21327209 0.7732779384 -105.8447037
v -71.22189331 0.7383610606 -105.9072723
v -71.22235107 0.7724847794 -105.850647
v -71.22938538 0.7439752221 -105.9017334
v -71.22973633 0.7701593041 -105.858284
v -71.23471069 0.75 -105.8944092
v -71.23493195 0.7664600015 -105.8670959
v -71.23750305 0.7560247779 -105.8857956
v -71.23757935 0.7616389394 -105.8764801
v -71.16578674 0.7560247779 -105.8492508
v -71.16543579 0.7298406959 -105.8927002
v -71.16046143 0.75 -105.856575
v -71.16024017 0.7335399985 -105.8838882
v -71.15766144 0.7439752221 -105.8651886
v -71.15759277 0.7383610606 -105.8745041
vn -0.3060347438 0.9501463771 -0.05970394611
vn -0.2343488187 -0.9720467925 -0.01434009895
vn -0.03245157003 0.9974440932 0.06365649402
vn -0.06566384435 -0.9894891977 0.1288384795
vn 0.225244388 0.9496241212 0.2178967148
vn 0.152247712 -0.972617805 0.1755995303
vn 0.4424964786 0.8407430053 0.3120064735
vn 0.3797193766 -0.8850359917 0.2693036199
vn 0.6312948465 0.6744235158 0.3829095364
vn 0.5819726586 -0.736631155 0.3445030153
vn 0.7762400508 0.4615705907 0.4294228554
vn 0.7422641516 -0.5374708176 0.4002112448
vn 0.8650509715 0.2162579596 0.4526800811
vn 0.847723484 -0.3008944094 0.4368379712
vn 0.8896499872 -0.0437707752 0.4545404911
vn -0.4455067813 -0.8844271302 -0.1389690042
vn -0.5079342723 0.8414613008 -0.1842434108
vn -0.6261186004 -0.7361854315 -0.256917417
vn -0.6756789684 0.6747374535 -0.2969633937
vn -0.7649456263 -0.5370822549 -0.3555289507
vn -0.7990185022 0.4616024494 -0.3853474259
vn -0.8544749022 -0.3009856343 -0.4234149754
vn -0.8718993068 0.2161908746 -0.4393781126
vn -0.8906597495 -0.04363811016 -0.4525715113
vn 0.8963086605 0.233011663 0.3772749305
vn 0.8909085989 0.01443377137 0.4539532363
vn 0.8361801505 -0.2138346881 0.5050520301
vn 0.7179862261 -0.4571143985 0.5249211788
vn 0.5422149301 -0.6607339978 0.51906991
vn 0.3401797712 -0.8221304417 0.4564857185
vn 0.1074009612 -0.9185278416 0.3804887533
vn -0.1215573475 -0.9634680748 0.2386483699
vn 0.8371084929 0.4774913788 0.2669295073
vn 0.7269268632 0.6749648452 0.1264902949
vn 0.5518465042 0.8339374661 -0.00371280266
vn 0.3532536626 0.923817277 -0.1475585848
vn 0.1451818496 0.9475085139 -0.2848680615
vn -0.08820176125 0.9238259196 -0.372513175
vn -0.3214215338 0.8339172602 -0.4486314952
vn -0.5297648907 0.6748252511 -0.5137704015
vn -0.7079540491 0.4775310159 -0.5203509927
vn -0.8320823312 0.232938841 -0.5033671856
vn -0.8909072876 0.01456783619 -0.4539515376
vn -0.9000824094 -0.2138554007 -0.3796281517
vn -0.846724093 -0.4570355117 -0.2723543346
vn -0.7387061119 -0.6606485248 -0.133629337
vn -0.569236517 -0.822145164 -0.006860682275
vn -0.3709148467 -0.9185452461 0.1367361099
vn 0.9590017796 0.08327994496 0.2708875835
vn 0.8912161589 0.0002114955569 0.4535787404
vn 0.9837399125 0.162718609 0.07601576298
vn 0.9752882719 0.2127919048 -0.05943411216
vn 0.9403393865 0.264872849 -0.2135514319
vn 0.8510277867 0.3238637745 -0.41335693
vn 0.7586963773 0.3563028872 -0.5453696251
vn 0.6624904871 0.3766123056 -0.6475102305
vn 0.5708368421 0.387963742 -0.7236224413
vn 0.4171487689 0.3943038285 -0.8188475966
vn 0.2499417514 0.3877644837 -0.8872247934
vn 0.1340236813 0.3765617311 -0.9166454673
vn -0.004167089239 0.3564006686 -0.9343239069
vn -0.1657644808 0.3239181936 -0.9314500093
vn -0.3800536692 0.2648064196 -0.8862487078
vn -0.5253074765 0.2127395272 -0.8238895535
vn -0.6396397352 0.1626029611 -0.7512797713
vn -0.7828400731 0.08339957148 -0.6166084409
vn -0.8908035755 0.0002071847557 -0.4543884993
vn -0.9588968158 -0.08334714919 -0.2712382674
vn -0.983702898 -0.1629488468 -0.07600193471
vn -0.9752073884 -0.2131919563 0.05932765827
vn -0.9402974844 -0.2653097808 0.2131933272
vn -0.8507738113 -0.3247978687 0.4131467938
vn -0.758192122 -0.357275784 0.5454344153
vn -0.6627130508 -0.3774809241 0.6467763186
vn -0.570900023 -0.3886383772 0.723210454
vn -0.4169507921 -0.3953187466 0.8184589744
vn -0.2498279363 -0.3889476955 0.8867387772
vn -0.1345798522 -0.3775832355 0.9161436558
vn 0.005101837683 -0.3571524024 0.9340322018
vn 0.1661994159 -0.3246062398 0.9311329126
vn 0.3800006211 -0.2652864456 0.8861278892
vn 0.5251896381 -0.2132024318 0.8238449693
vn 0.6396614909 -0.1630204171 0.7511707544
vn 0.7830484509 -0.08331558853 0.6163551807
vn 0.5843672156 -0.5575643182 -0.5896074772
vn 0.5825933814 0.250202477 0.7732940316
vn 0.3679526448 -0.5859683752 -0.7219777703
vn 0.3559747934 0.3696976304 0.8582572937
vn 0.1298660636 -0.5691905618 -0.8118847609
vn 0.09987179935 0.4502357244 0.8873068094
vn -0.121250771 -0.5200349092 -0.8454951048
vn -0.147908479 0.5097276568 0.8475262523
vn -0.3707439005 -0.4193341136 -0.8286783695
vn -0.3852314353 0.5293908119 0.7558717132
vn -0.5972237587 -0.2990100682 -0.7442558408
vn -0.5951315165 0.5223548412 0.6107077003
vn -0.7831052542 -0.1413377672 -0.6056151986
vn -0.7698088288 0.4749464393 0.4264039099
vn -0.8939620256 -0.009638606571 -0.4480390251
vn -0.8973363638 0.3918015063 0.2031724006
vn -0.9542998075 0.1280827969 -0.2700123787
vn -0.9611081481 0.2743831575 -0.03138519078
vn 0.7760076523 0.117131725 0.6197517514
vn 0.762894392 -0.4971118569 -0.413366586
vn 0.8879035115 -0.009607941844 0.459929347
vn 0.8952741027 -0.3981541693 -0.1998937428
vn 0.9536688328 -0.1306609958 0.2710044682
vn 0.9607838392 -0.275485158 0.03166068718
f 1//1 2//2 3//3 
f 3//3 2//2 4//4 
f 3//3 4//4 5//5 
f 5//5 4//4 6//6 
f 5//5 6//6 7//7 
f 7//7 6//6 8//8 
f 7//7 8//8 9//9 
f 9//9 8//8 10//10 
f 9//9 10//10 11//11 
f 11//11 10//10 12//12 
f 11//11 12//12 13//13 
f 13//13 12//12 14//14 
f 13//13 14//14 15//15 
f 2//2 1//1 16//16 
f 16//16 1//1 17//17 
f 16//16 17//17 18//18 
f 18//18 17//17 19//19 
f 18//18 19//19 20//20 
f 20//20 19//19 21//21 
f 20//20 21//21 22//22 
f 22//22 21//21 23//23 
f 22//22 23//23 24//24 
f 25//25 13//13 26//26 
f 26//26 13//13 15//15 
f 26//26 15//15 27//27 
f 27//27 15//15 14//14 
f 27//27 14//14 28//28 
f 28//28 14//14 12//12 
f 28//28 12//12 29//29 
f 29//29 12//12 10//10 
f 29//29 10//10 30//30 
f 30//30 10//10 8//8 
f 30//30 8//8 31//31 
f 31//31 8//8 6//6 
f 31//31 6//6 32//32 
f 32//32 6//6 4//4 
f 32//32 4//4 2//2 
f 13//13 25//25 11//11 
f 11//11 25//25 33//33 
f 11//11 33//33 9//9 
f 9//9 33//33 34//34 
f 9//9 34//34 7//7 
f 7//7 34//34 35//35 
f 7//7 35//35 5//5 
f 5//5 35//35 36//36 
f 5//5 36//36 3//3 
f 3//3 36//36 37//37 
f 3//3 37//37 38//38 
f 3//3 38//38 1//1 
f 1//1 38//38 39//39 
f 1//1 39//39 17//17 
f 17//17 39//39 40//40 
f 17//17 40//40 19//19 
f 19//19 40//40 41//41 
f 19//19 41//41 21//21 
f 21//21 41//41 42//42 
f 21//21 42//42 23//23 
f 23//23 42//42 43//43 
f 23//23 43//43 24//24 
f 24//24 43//43 44//44 
f 24//24 44//44 22//22 
f 22//22 44//44 45//45 
f 22//22 45//45 20//20 
f 20//20 45//45 46//46 
f 20//20 46//46 18//18 
f 18//18 46//46 47//47 
f 18//18 47//47 16//16 
f 16//16 47//47 48//48 
f 16//16 48//48 2//2 
f 2//2 48//48 32//32 
f 49//49 25//25 50//50 
f 50//50 25//25 26//26 
f 50//50 26//26 27//27 
f 25//25 49//49 33//33 
f 33//33 49//49 51//51 
f 33//33 51//51 34//34 
f 34//34 51//51 52//52 
f 34//34 52//52 53//53 
f 34//34 53//53 35//35 
f 35//35 53//53 54//54 
f 35//35 54//54 36//36 
f 36//36 54//54 55//55 
f 36//36 55//55 56//56 
f 56//56 57//57 36//36 
f 36//36 57//57 37//37 
f 37//37 57//57 58//58 
f 37//37 58//58 59//59 
f 37//37 59//59 38//38 
f 38//38 59//59 60//60 
f 38//38 60//60 61//61 
f 61//61 62//62 38//38 
f 38//38 62//62 39//39 
f 39//39 62//62 63//63 
f 39//39 63//63 40//40 
f 40//40 63//63 64//64 
f 40//40 64//64 65//65 
f 40//40 65//65 41//41 
f 41//41 65//65 66//66 
f 41//41 66//66 42//42 
f 42//42 66//66 67//67 
f 42//42 67//67 43//43 
f 43//43 67//67 44//44 
f 44//44 67//67 68//68 
f 44//44 68//68 45//45 
f 45//45 68//68 69//69 
f 45//45 69//69 46//46 
f 46//46 69//69 70//70 
f 46//46 70//70 71//71 
f 46//46 71//71 47//47 
f 47//47 71//71 72//72 
f 47//47 72//72 48//48 
f 48//48 72//72 73//73 
f 48//48 73//73 74//74 
f 74//74 75//75 48//48 
f 48//48 75//75 32//32 
f 32//32 75//75 76//76 
f 32//32 76//76 77//77 
f 32//32 77//77 31//31 
f 31//31 77//77 78//78 
f 31//31 78//78 79//79 
f 79//79 80//80 31//31 
f 31//31 80//80 30//30 
f 30//30 80//80 81//81 
f 30//30 81//81 29//29 
f 29//29 81//81 82//82 
f 29//29 82//82 83//83 
f 29//29 83//83 28//28 
f 28//28 83//83 84//84 
f 28//28 84//84 27//27 
f 27//27 84//84 50//50 
f 85//85 86//86 87//87 
f 87//87 86//86 88//88 
f 87//87 88//88 89//89 
f 89//89 88//88 90//90 
f 89//89 90//90 91//91 
f 91//91 90//90 92//92 
f 91//91 92//92 93//93 
f 93//93 92//92 94//94 
f 93//93 94//94 95//95 
f 95//95 94//94 96//96 
f 95//95 96//96 97//97 
f 97//97 96//96 98//98 
f 97//97 98//98 99//99 
f 99//99 98//98 100//100 
f 99//99 100//100 101//101 
f 101//101 100//100 102//102 
f 86//86 85//85 103//103 
f 103//103 85//85 104//104 
f 103//103 104//104 105//105 
f 105//105 104//104 106//106 
f 105//105 106//106 107//107 
f 107//107 106//106 108//108 
f 89//89 59//59 87//87 
f 87//87 59//59 58//58 
f 87//87 58//58 57//57 
f 91//91 62//62 89//89 
f 89//89 62//62 61//61 
f 89//89 61//61 60//60 
f 62//62 91//91 63//63 
f 63//63 91//91 93//93 
f 63//63 93//93 64//64 
f 64//64 93//93 65//65 
f 65//65 93//93 95//95 
f 65//65 95//95 66//66 
f 66//66 95//95 97//97 
f 66//66 97//97 67//67 
f 67//67 97//97 99//99 
f 67//67 99//99 101//101 
f 67//67 101//101 68//68 
f 68//68 101//101 102//102 
f 68//68 102//102 69//69 
f 69//69 102//102 100//100 
f 69//69 100//100 70//70 
f 70//70 100//100 71//71 
f 71//71 100//100 98//98 
f 71//71 98//98 72//72 
f 72//72 98//98 96//96 
f 72//72 96//96 73//73 
f 73//73 96//96 74//74 
f 74//74 96//96 75//75 
f 75//75 96//96 94//94 
f 75//75 94//94 76//76 
f 76//76 94//94 77//77 
f 77//77 94//94 92//92 
f 77//77 92//92 78//78 
f 78//78 92//92 79//79 
f 79//79 92//92 80//80 
f 80//80 92//92 90//90 
f 80//80 90//90 81//81 
f 81//81 90//90 88//88 
f 81//81 88//88 82//82 
f 82//82 88//88 83//83 
f 83//83 88//88 86//86 
f 83//83 86//86 84//84 
f 84//84 86//86 103//103 
f 84//84 103//103 50//50 
f 50//50 103//103 105//105 
f 50//50 105//105 107//107 
f 50//50 107//107 49//49 
f 49//49 107//107 108//108 
f 49//49 108//108 51//51 
f 51//51 108//108 106//106 
f 51//51 106//106 52//52 
f 52//52 106//106 53//53 
f 53//53 106//106 104//104 
f 53//53 104//104 54//54 
f 54//54 104//104 85//85 
f 54//54 85//85 55//55 
f 55//55 85//85 56//56 
f 56//56 85//85 57//57 
f 57//57 85//85 87//87 
f 60//60 59//59 89//89 
