v 1.98752594 27.48072815 -38.74603271
v 1.788457632 27.55893326 -38.36037064
v 1.99627924 27.6467247 -38.61097336
v 2.041728735 27.4318924 -38.61772537
v 1.843811989 27.35134125 -38.28704071
v 1.816420317 27.25375938 -38.13614655
v 1.53073132 27.58996964 -37.87132645
v 1.532253623 27.5584774 -37.36672211
v 1.496489167 27.83171844 -37.61885834
v 1.724254966 27.80530548 -37.76651001
v 1.847899914 27.99254608 -37.8143425
v 1.868070602 27.67827034 -37.89197159
v 1.802975416 27.72188377 -37.38888168
v 1.889156461 28.37154579 -37.40737915
v 2.480642796 29.00723457 -37.8368454
v 2.851531744 28.66120148 -37.67398834
v 3.11321497 29.01953316 -37.98218155
v 2.584058046 28.91498947 -38.14842224
v 2.278884172 29.11536026 -37.8588028
v 1.602007508 28.18691635 -37.50153351
v 1.731682777 28.74736786 -37.72836304
v 1.731121659 28.30060387 -37.93698502
v 2.034763336 28.0412178 -38.28803253
v 1.961840153 27.53152847 -38.25268936
v 2.006617069 26.71823502 -38.19935989
v 2.397138834 27.22588921 -38.44218063
v 2.056777954 27.17254257 -38.14176941
v 2.175281763 27.21577072 -38.37361145
v 2.963739872 27.228508 -38.36751556
v 2.849835634 28.05799866 -38.35996246
v 2.368926764 28.24988556 -38.30312347
v 2.754638672 23.7831459 -38.42485428
v 3.121423483 24.02809143 -38.01826096
v 3.083385468 23.75445557 -38.36158752
v 3.160107851 25.31629181 -37.90625381
v 2.938838243 26.08169937 -38.46074677
v 3.229140043 23.79199409 -37.64089966
v 2.947850704 24.1709156 -37.95172882
v 2.935153961 24.85113907 -38.20004272
v 3.099599361 24.11306763 -37.62142563
v 2.803759575 25.52565956 -37.91462708
v 2.375977278 26.66134453 -38.32833862
v 2.516023397 26.52343559 -37.95087814
v 2.929186106 26.52985954 -37.88628769
v 3.100311279 26.56934357 -38.26093292
v 3.035393238 26.76186752 -37.81637955
v 3.115534544 25.68217278 -38.08835602
v 2.126108646 26.37710571 -38.18058014
v 1.855957627 26.43637466 -37.79470825
v 1.888470769 24.87175179 -37.85913849
v 2.210337639 25.01400185 -37.52680969
v 2.272555351 25.55071449 -37.63815689
v 2.303175449 25.29519653 -37.89575577
v 2.260518074 27.50867081 -37.57851791
v 2.433237791 26.79109001 -37.52613831
v 2.717827797 27.3206768 -37.60134506
v 3.178172112 28.40024948 -37.93880844
v 3.073162317 27.81142807 -38.01970673
v 2.12852335 26.63393021 -37.54590225
v 3.348582268 27.61656189 -38.15834808
v 3.239097357 28.51883888 -38.30145645
v 3.322604656 26.90739441 -37.93898773
v 3.193844795 26.86902809 -38.13418198
v 1.927476764 24.43478584 -37.86811829
v 2.272092819 24.21194839 -37.80092621
v 1.850783825 24.01017761 -37.96582031
v 1.860787034 23.77010155 -38.0039978
v 1.350708246 23.79685402 -38.01045609
v 2.344162941 23.77326202 -37.74533081
v 1.613398552 23.77693558 -37.73028183
v 1.911417007 24.0279007 -37.69132233
v 3.028611898 23.77135086 -37.60728073
v 2.982151985 27.6632309 -38.16711426
v 3.169159651 27.53487778 -38.1403923
v 3.478454351 26.8241272 -38.27647018
v 3.173326492 27.36392784 -38.63097382
v 2.715993881 28.68122101 -38.32785416
v 3.183825254 28.81745338 -38.27117538
v 3.7760396 28.36512375 -38.38550568
v 3.730390072 28.6641674 -38.41945648
v 3.554231882 28.64330292 -38.03093338
v 4.080596924 28.4577198 -38.25697708
v 4.192667007 28.85411072 -38.83960342
v 4.048493862 28.94795609 -38.94671249
v 3.91550827 29.05650902 -38.9516716
v 4.055029392 29.28892708 -39.3299408
v 4.043500423 29.41580772 -39.15752411
v 4.220623016 29.46382904 -39.07771301
v 4.056223392 29.13557053 -38.83603668
v 3.88917613 28.67118835 -38.17193604
v 2.1507411 27.76519012 -38.28635406
v 2.368700504 28.78611183 -38.21900177
v 2.25795579 28.77433968 -38.17603683
v 2.368172169 29.30802917 -38.30101395
v 2.491971493 29.13749695 -38.05564499
v 2.518208265 29.52780533 -38.20697021
v 2.570964336 29.41646957 -38.06312943
v 2.466892719 29.46571922 -37.83940506
v 2.152663708 29.45375633 -37.79223633
v 2.119409084 29.73556328 -37.90266037
v 2.448464155 29.67455292 -37.95479202
v 2.300449133 29.76119995 -38.23213196
v 1.930619717 29.68154907 -38.2101593
v 2.070383549 29.59862518 -38.35469055
v 2.370334387 29.51699066 -38.35443497
v 1.948887467 29.39022255 -38.2943306
v 2.024543524 28.99860191 -38.32703781
v 1.930012822 29.18998337 -38.30979538
v 1.914605975 29.39625359 -38.05060577
v 2.115960836 28.86924934 -38.03734589
v 2.112368345 29.27537155 -37.90336609
vn -0.7496273518 -0.2738519013 -0.6025479436
vn -0.7646152377 0.4731588066 -0.4375892282
vn 0.3854824007 0.9196919799 -0.07463206351
vn 0.9209313393 -0.3798753023 0.08706438541
vn -0.1416163296 -0.954272151 -0.2632670105
vn -0.8669525385 -0.4707372785 0.1637063026
vn -0.9223914742 0.02975650504 -0.3851084411
vn -0.5669798255 -0.5701386929 0.5945382714
vn -0.8847720027 0.2811636925 -0.3716523051
vn 0.2454674989 0.5177882314 -0.8195371032
vn -0.2820453644 -0.4996711016 -0.8190110922
vn -0.8371127844 0.03123973496 0.5461376309
vn 0.7858337164 -0.2593910992 0.5614104271
vn 0.0005294576404 0.074042961 0.9972549081
vn 0.07667133957 0.6817111373 0.7275928855
vn 0.2967957854 0.1812364012 0.9375849962
vn 0.3841409981 0.8630664349 0.3279512227
vn 0.04838324711 0.7044838667 -0.7080689073
vn -0.02183702216 0.5675281882 0.8230643272
vn -0.9052799344 0.2156315297 0.3660208285
vn -0.5971490741 0.7242919207 0.3446944058
vn -0.9069066644 -0.02580164373 -0.4205408394
vn -0.5412974358 0.2140650302 -0.8131256104
vn -0.5093918443 0.03467387334 -0.8598358631
vn -0.498233676 -0.1619937122 -0.8517753482
vn -0.1241234541 0.01573762298 -0.9921419621
vn -0.506480217 -0.1130359247 -0.8548103571
vn -0.6524836421 -0.08038350195 -0.7535274029
vn 0.6339787841 0.09373506159 -0.7676487565
vn -0.2016017586 -0.0742418915 -0.9766498208
vn -0.178756237 0.1411789358 -0.9737118483
vn -0.821346581 -0.5273157954 -0.2175495774
vn 0.8196613789 0.07443198562 -0.5679921508
vn 0.7877086997 -0.3955234885 -0.4723094404
vn 0.9550007582 0.08537030965 0.2840519547
vn 0.3423877358 -0.08404316753 -0.9357923865
vn 0.918859005 -0.3878494501 0.07260099053
vn -0.998457253 0.01203834172 0.05420522764
vn -0.7799655795 -0.2611268461 -0.5687411427
vn -0.378685385 0.108437933 0.9191510081
vn -0.7461777329 -0.1151248366 0.6557172537
vn -0.7352615595 -0.2880990505 -0.6135058403
vn 0.5996368527 -0.7247354984 0.3394026458
vn 0.429694742 -0.1676074266 0.8872824907
vn 0.9944044948 0.0308077801 -0.101047501
vn 0.8466198444 -0.05353111401 0.529499054
vn 0.9989378452 0.04293904454 -0.01671430469
vn -0.1834214628 -0.2172923833 -0.9587181807
vn -0.942464292 -0.03177049384 0.3327938318
vn -0.9637373686 -0.07345271111 -0.256544292
vn -0.08207219094 -0.02440043725 0.9963276386
vn 0.1960218847 -0.08541671932 0.9768722653
vn 0.8179708123 -0.1725543737 -0.5487701893
vn 0.1226105988 -0.06103178859 0.9905765057
vn 0.5049991012 -0.2019484192 0.8391619325
vn 0.4284279644 0.1613639593 0.8890507221
vn 0.5316082239 -0.3210044801 0.783804059
vn 0.5951515436 0.07769154012 0.7998491526
vn -0.5875346661 0.005907890387 0.8091773987
vn 0.975554049 0.1762965769 0.1312015355
vn 0.5955481529 0.01703050174 -0.8031390309
vn 0.4087695479 -0.119190082 0.9048210979
vn 0.2659969926 -0.7583049536 -0.5951631665
vn -0.1517274827 0.005904796999 -0.9884047508
vn 0.9351131916 -0.07460395992 -0.3464066386
vn -0.3628430367 0.659250021 -0.6585851312
vn 0.2530375123 -0.558191061 -0.7901865244
vn -0.7388153672 0.07570406795 -0.6696422696
vn 0.5154409409 -0.7002698183 0.4939056933
vn -0.397834152 -0.4847099185 0.7789635658
vn -0.3806065023 0.03636149317 0.9240219593
vn -0.8491708636 -0.2478165329 0.4663645029
vn 0.4954114854 -0.1552716047 -0.854668498
vn -0.8258261681 -0.486082226 -0.2858936191
vn 0.2925978005 -0.767950356 -0.569770813
vn 0.1265637577 -0.05589991808 -0.9903821349
vn -0.1057149693 0.3014563918 -0.947601378
vn 0.1358224005 0.7972382903 -0.5881865621
vn -0.1462098062 -0.8206185699 -0.5524562001
vn -0.3782535493 0.8694098592 -0.3178848028
vn 0.4181708097 0.3763790727 0.8267236352
vn 0.6706891656 -0.1472772658 0.7269700766
vn 0.7625230551 -0.5100452304 -0.3980106115
vn 0.3779340684 -0.5824992657 -0.719625175
vn -0.9445956945 0.004352434073 -0.3282072842
vn -0.2904917002 -0.395675838 -0.8712377548
vn -0.3173455596 0.9441659451 -0.08855739236
vn 0.9986904263 -0.01177486032 -0.04978751764
vn 0.157873407 0.7126803994 0.6834930182
vn 0.3609108925 0.9080899954 0.2124049813
vn -0.2269098461 0.06745789945 -0.9715767503
vn 0.05467004701 0.1145535633 -0.9919116497
vn -0.1927799433 -0.0530413352 -0.9798073769
vn 0.5190836191 -0.2257000506 -0.824385643
vn 0.9662281871 -0.2178450376 0.1376469582
vn 0.8581130505 0.1890610307 -0.477386564
vn 0.9877793789 0.0524601303 0.1467644125
vn 0.4612729847 0.02167990804 0.8869933486
vn -0.1115201786 -0.08375160396 0.990226686
vn -0.3143590391 0.7232987285 0.6148311496
vn 0.6289263368 0.7233095169 0.2850876749
vn 0.2108204812 0.9141383171 -0.3462743163
vn -0.745942533 0.6526863575 -0.1325527877
vn -0.181631729 0.3275815248 -0.9272001982
vn 0.1427348107 0.06438562274 -0.9876645207
vn -0.4986677766 0.01483840682 -0.8666661978
vn -0.4134280682 -0.3971630037 -0.8193526864
vn -0.9751593471 -0.1772991419 -0.1327752322
vn -0.9123874307 -0.1023214385 0.3963325322
vn -0.9044563174 0.1456960142 -0.4009132087
vn -0.6054094434 -0.2751656473 0.7468354702
f 1//1 2//2 3//3 
f 4//4 1//1 3//3 
f 4//4 5//5 1//1 
f 2//2 1//1 5//5 
f 6//6 2//2 5//5 
f 7//7 8//8 9//9 
f 6//6 8//8 7//7 
f 6//6 7//7 2//2 
f 9//9 10//10 7//7 
f 10//10 9//9 11//11 
f 12//12 7//7 10//10 
f 12//12 2//2 7//7 
f 12//12 10//10 13//13 
f 13//13 10//10 11//11 
f 13//13 8//8 6//6 
f 6//6 12//12 13//13 
f 11//11 12//12 14//14 
f 13//13 11//11 14//14 
f 15//15 16//16 17//17 
f 15//15 17//17 18//18 
f 18//18 19//19 15//15 
f 20//20 8//8 13//13 
f 9//9 8//8 20//20 
f 9//9 20//20 11//11 
f 13//13 14//14 20//20 
f 19//19 21//21 15//15 
f 16//16 15//15 21//21 
f 14//14 16//16 21//21 
f 14//14 21//21 20//20 
f 11//11 22//22 12//12 
f 21//21 22//22 20//20 
f 22//22 11//11 20//20 
f 23//23 22//22 21//21 
f 24//24 22//22 23//23 
f 24//24 6//6 5//5 
f 12//12 22//22 24//24 
f 2//2 12//12 24//24 
f 24//24 5//5 4//4 
f 3//3 24//24 4//4 
f 2//2 24//24 3//3 
f 6//6 24//24 25//25 
f 26//26 27//27 28//28 
f 29//29 26//26 30//30 
f 31//31 30//30 26//26 
f 32//32 33//33 34//34 
f 35//35 33//33 36//36 
f 37//37 33//33 35//35 
f 38//38 39//39 33//33 
f 36//36 33//33 39//39 
f 40//40 41//41 38//38 
f 41//41 40//40 35//35 
f 39//39 38//38 41//41 
f 42//42 27//27 26//26 
f 27//27 42//42 25//25 
f 36//36 42//42 26//26 
f 39//39 42//42 36//36 
f 42//42 39//39 41//41 
f 41//41 43//43 42//42 
f 44//44 43//43 41//41 
f 45//45 46//46 44//44 
f 35//35 44//44 41//41 
f 47//47 44//44 35//35 
f 47//47 45//45 44//44 
f 48//48 25//25 42//42 
f 43//43 48//48 42//42 
f 25//25 49//49 6//6 
f 49//49 48//48 50//50 
f 48//48 49//49 25//25 
f 50//50 51//51 49//49 
f 49//49 51//51 52//52 
f 51//51 53//53 52//52 
f 54//54 55//55 56//56 
f 54//54 16//16 14//14 
f 16//16 54//54 57//57 
f 54//54 14//14 12//12 
f 54//54 56//56 58//58 
f 58//58 57//57 54//54 
f 12//12 59//59 54//54 
f 55//55 54//54 59//59 
f 55//55 46//46 56//56 
f 55//55 53//53 43//43 
f 55//55 52//52 53//53 
f 55//55 44//44 46//46 
f 43//43 44//44 55//55 
f 59//59 52//52 55//55 
f 58//58 56//56 46//46 
f 58//58 60//60 61//61 
f 58//58 62//62 60//60 
f 63//63 62//62 58//58 
f 46//46 63//63 58//58 
f 61//61 57//57 58//58 
f 59//59 6//6 49//49 
f 59//59 12//12 6//6 
f 59//59 49//49 52//52 
f 53//53 48//48 43//43 
f 50//50 48//48 53//53 
f 53//53 64//64 50//50 
f 65//65 53//53 51//51 
f 64//64 53//53 65//65 
f 65//65 66//66 64//64 
f 66//66 67//67 68//68 
f 66//66 65//65 67//67 
f 69//69 67//67 65//65 
f 70//70 67//67 69//69 
f 70//70 68//68 67//67 
f 70//70 66//66 68//68 
f 70//70 71//71 66//66 
f 65//65 71//71 69//69 
f 71//71 65//65 51//51 
f 50//50 71//71 51//51 
f 64//64 66//66 71//71 
f 64//64 71//71 50//50 
f 71//71 70//70 69//69 
f 34//34 37//37 32//32 
f 72//72 32//32 37//37 
f 32//32 38//38 33//33 
f 32//32 72//72 38//38 
f 34//34 33//33 37//37 
f 40//40 38//38 72//72 
f 72//72 37//37 40//40 
f 40//40 37//37 35//35 
f 36//36 47//47 35//35 
f 47//47 36//36 45//45 
f 29//29 36//36 26//26 
f 29//29 45//45 36//36 
f 46//46 45//45 29//29 
f 63//63 46//46 73//73 
f 73//73 46//46 29//29 
f 62//62 63//63 74//74 
f 63//63 73//73 74//74 
f 74//74 73//73 30//30 
f 29//29 30//30 73//73 
f 62//62 75//75 60//60 
f 75//75 62//62 74//74 
f 30//30 76//76 74//74 
f 75//75 74//74 76//76 
f 60//60 75//75 76//76 
f 60//60 76//76 61//61 
f 77//77 76//76 30//30 
f 61//61 76//76 77//77 
f 78//78 61//61 77//77 
f 61//61 79//79 57//57 
f 61//61 78//78 80//80 
f 61//61 80//80 79//79 
f 17//17 16//16 57//57 
f 57//57 81//81 17//17 
f 81//81 57//57 82//82 
f 79//79 82//82 57//57 
f 79//79 83//83 82//82 
f 79//79 84//84 83//83 
f 84//84 85//85 86//86 
f 79//79 85//85 84//84 
f 80//80 85//85 79//79 
f 86//86 85//85 87//87 
f 88//88 84//84 87//87 
f 84//84 86//86 87//87 
f 89//89 84//84 88//88 
f 89//89 87//87 85//85 
f 82//82 83//83 89//89 
f 84//84 89//89 83//83 
f 89//89 80//80 82//82 
f 80//80 89//89 85//85 
f 87//87 89//89 88//88 
f 81//81 82//82 90//90 
f 80//80 90//90 82//82 
f 17//17 81//81 78//78 
f 90//90 78//78 81//81 
f 90//90 80//80 78//78 
f 78//78 77//77 17//17 
f 17//17 77//77 18//18 
f 31//31 77//77 30//30 
f 77//77 31//31 18//18 
f 24//24 91//91 25//25 
f 91//91 27//27 25//25 
f 27//27 91//91 28//28 
f 91//91 26//26 28//28 
f 26//26 91//91 31//31 
f 24//24 23//23 91//91 
f 91//91 92//92 31//31 
f 92//92 18//18 31//31 
f 91//91 23//23 93//93 
f 91//91 93//93 92//92 
f 94//94 92//92 93//93 
f 18//18 92//92 95//95 
f 92//92 94//94 95//95 
f 18//18 95//95 19//19 
f 95//95 94//94 96//96 
f 95//95 96//96 97//97 
f 95//95 97//97 98//98 
f 95//95 98//98 99//99 
f 99//99 19//19 95//95 
f 100//100 99//99 98//98 
f 98//98 101//101 100//100 
f 101//101 98//98 97//97 
f 97//97 96//96 101//101 
f 100//100 101//101 102//102 
f 101//101 96//96 102//102 
f 103//103 100//100 102//102 
f 104//104 103//103 102//102 
f 102//102 96//96 105//105 
f 102//102 105//105 104//104 
f 94//94 105//105 96//96 
f 104//104 105//105 106//106 
f 106//106 103//103 104//104 
f 106//106 105//105 107//107 
f 107//107 105//105 94//94 
f 94//94 93//93 107//107 
f 108//108 106//106 107//107 
f 109//109 108//108 107//107 
f 106//106 108//108 109//109 
f 106//106 109//109 103//103 
f 103//103 109//109 100//100 
f 109//109 99//99 100//100 
f 107//107 93//93 110//110 
f 23//23 21//21 110//110 
f 109//109 107//107 110//110 
f 19//19 110//110 21//21 
f 23//23 110//110 93//93 
f 99//99 109//109 111//111 
f 19//19 111//111 110//110 
f 99//99 111//111 19//19 
f 110//110 111//111 109//109 
