v 2.625351906 25.22094536 -60.57962036
v 2.450535774 25.55759811 -60.83106995
v 2.505428553 25.46375465 -60.38828278
v 2.632095098 24.2934761 -60.34926987
v 2.32253623 24.33706665 -60.33098221
v 2.152163744 25.48662758 -60.27732086
v 2.756135702 26.71532822 -60.45159531
v 2.614587069 27.52575684 -60.71443939
v 2.306532621 27.27876472 -60.64981461
v 2.357819557 26.60562897 -60.53152847
v 1.914896727 27.2679081 -61.08535004
v 1.963128805 26.57920647 -60.87885666
v 2.703542471 26.56811523 -60.74303055
v 2.546046257 25.9526825 -60.46138382
v 2.82645154 26.48500633 -61.18864441
v 2.406665087 26.25522423 -61.26898956
v 2.236814022 23.76468277 -60.24570847
v 2.033395052 23.84158897 -59.74988937
v 2.149973154 23.93273926 -60.1881218
v 2.480434895 23.76792526 -60.65846634
v 2.458179712 23.79508209 -60.06348419
v 2.375195503 24.07885742 -60.20523453
v 2.328543663 24.25223732 -60.63422775
v 2.635852814 23.94011307 -60.58023071
v 2.258524895 25.26779556 -60.71470261
v 2.137126684 26.1931076 -61.08296204
v 1.745342493 26.49413109 -61.2894516
v 1.995931149 28.26626968 -61.94681931
v 2.238417149 28.39665413 -62.21726227
v 1.915668726 27.50947952 -62.16190338
v 1.919013977 28.14156723 -61.42073441
v 1.921861053 27.47861099 -61.47928619
v 2.161536455 27.50948334 -61.84411621
v 2.377610445 28.69254494 -61.76689911
v 2.499377966 28.13853455 -62.17101669
v 1.873318911 27.5988636 -61.95755386
v 2.072818518 27.21343803 -62.14863205
v 1.511648417 27.52136421 -61.94853592
v 2.150362492 27.34577179 -61.8727951
v 1.365131378 27.29896545 -61.650177
v 1.361548543 27.54891777 -61.53020859
v 1.276476264 27.73188782 -61.61436081
v 1.257589221 27.55036163 -61.69986725
v 1.110926986 27.48872948 -61.37359619
v 1.067920685 27.62062073 -61.23076248
v 1.030318379 27.72549057 -61.37517166
v 0.9627670646 27.62361336 -61.46496582
v 1.987868309 27.14200974 -61.75568771
v 2.449120522 27.28013039 -61.77569199
v 2.970590115 28.29344749 -61.37451553
v 2.69677949 28.78792191 -61.44575882
v 2.661324739 27.08575058 -61.5345726
v 2.430216789 26.51113129 -61.84812546
v 2.809131622 27.38432693 -61.06422043
v 1.9538486 26.44060135 -61.84754181
v 2.276649952 26.36952209 -61.84706116
v 2.988757849 28.43535995 -60.82748032
v 2.713172436 28.00004768 -60.80157471
v 2.714089632 28.68734741 -60.83197021
v 2.775128365 28.14403725 -60.45875549
v 2.598675966 28.42429352 -60.49982452
v 2.438345671 28.26114464 -60.78184891
v 2.306354523 28.04881287 -60.3858757
v 2.42266202 27.92342758 -60.16427612
v 2.308069944 28.248106 -60.22780609
v 1.699403405 28.20917702 -59.68447113
v 1.933711171 27.97285652 -59.56873322
v 2.413005829 28.21897507 -59.98555756
v 1.376546025 28.15076828 -59.35750198
v 1.724340916 28.03337097 -59.62280655
v 1.237237453 28.25786972 -59.22527313
v 1.480574727 28.39655876 -59.39864731
v 1.812527537 28.24952507 -59.54734421
v 2.362349033 28.59427452 -61.24617004
v 1.979323745 27.67564011 -61.14315414
v 2.068589211 28.01683998 -61.13880539
v 2.33364749 28.8239994 -61.66378403
v 2.334772348 28.75928497 -61.2646904
v 2.598131418 28.93296623 -61.54340363
v 2.229301929 28.63769531 -61.35883713
v 2.082616806 28.22531891 -61.5213356
v 2.24759841 28.50767708 -61.45136642
v 2.192471504 29.14881706 -61.65850067
v 2.538121939 29.14169121 -61.29167175
v 2.320830584 29.23157692 -61.12133026
v 2.084738016 28.78849602 -61.36560822
v 2.070067167 28.97546196 -61.18754578
v 2.005986691 29.27887344 -61.41818237
v 2.406929016 29.25759315 -61.81682205
v 2.098904133 29.45351982 -61.58203125
v 2.369290113 29.59654999 -61.62153244
v 2.095968008 29.62003899 -61.41007996
v 2.196809769 29.50555801 -61.23513794
v 2.093127489 29.1953125 -61.22907257
v 2.374816179 29.60444641 -61.31477356
v 2.71311307 29.36601257 -61.48187256
v 2.574388266 29.52519417 -61.40752411
v 2.610588551 29.49887466 -61.67265701
v 2.450664282 25.58767319 -61.5144043
v 2.082214355 25.77708817 -61.7256012
v 2.505883694 25.20061684 -61.66469574
v 2.377066135 24.32985115 -61.68696213
v 2.27404356 24.05858994 -61.47500992
v 2.282756329 24.34402275 -61.4372139
v 2.015286684 25.20007896 -61.43475723
v 2.56588006 24.3093071 -61.30440521
v 2.416492939 25.2944355 -61.32155991
v 2.276607037 23.94799614 -61.25304413
v 2.109952688 23.80804443 -61.59748459
v 2.729957819 24.07131195 -61.49725342
v 2.726998568 23.75610161 -61.37332153
v 2.591678619 23.75406647 -61.56190491
v 1.805230021 23.77824402 -61.20541382
vn 0.8748416901 0.02840228193 -0.4835755527
vn 0.7112134099 -0.2693516314 -0.6493267417
vn 0.6062854528 0.08318790048 0.7908841372
vn 0.7208616138 0.02917919308 0.6924644709
vn -0.6970617175 -0.05027124658 0.7152466178
vn -0.7153342962 0.02323718928 0.6983959675
vn 0.3652299643 0.08240946382 0.927262485
vn 0.7590543032 0.1066820696 0.642226994
vn -0.4563220441 0.1763314456 0.8721682429
vn -0.3699495792 0.1562500894 0.9158183336
vn -0.828178525 0.1557587087 0.5383861065
vn -0.9332232475 -0.04141097516 0.3569027185
vn 0.9432553053 -0.01615495048 0.3316752613
vn 0.9195913076 -0.1690838039 0.3546301425
vn 0.9577642083 -0.2630700171 -0.1161114797
vn 0.8799281716 -0.4306205213 -0.2007295936
vn -0.3691591918 -0.9232110381 -0.1067842543
vn -0.5074558854 -0.5021631122 0.7002290487
vn -0.9215421081 0.3783825636 -0.0871021226
vn -0.3443059623 -0.7056337595 -0.6193015575
vn 0.7331014276 -0.3369198143 0.5908022523
vn 0.1811265051 0.4093668759 0.8942102194
vn -0.7936819792 -0.01240954641 -0.6082063317
vn 0.7738103867 -0.07762932777 -0.628642261
vn -0.7214159369 -0.2381699681 -0.6502569318
vn -0.6426718235 -0.5477666259 0.5356534719
vn -0.9961146116 -0.08487427235 0.02349526994
vn -0.9493284225 0.253488332 -0.1857934147
vn -0.285462141 0.4019487202 -0.8700278997
vn -0.3984691501 0.09149379283 -0.9126068354
vn -0.9280281067 0.3343988955 0.1641379446
vn -0.9790634513 0.04627888277 -0.1982247233
vn -0.365821898 -0.5983866453 -0.7128167748
vn -0.2524970472 0.8714332581 -0.4205345213
vn 0.6933472753 -0.02036868967 -0.7203156352
vn -0.6219258308 0.3328076005 0.7088351846
vn 0.2471622378 -0.767477572 -0.5915141702
vn -0.5007383823 0.2933278978 -0.8143830895
vn 0.4947707951 0.04480874166 0.8678675294
vn -0.2559956908 -0.9517635703 0.169151634
vn 0.3845280111 -0.03195834532 0.9225599766
vn 0.197622478 0.9753007889 -0.09865956753
vn -0.7172452211 -0.3919432461 -0.5761421919
vn 0.08788351715 -0.9412071109 0.3261988163
vn -0.6471391916 -0.2154613435 0.7312914729
vn 0.4076705873 0.6900523901 0.5980237126
vn -0.8776177764 -0.07097668946 -0.4740773439
vn -0.5935817361 0.1056197882 -0.7978127599
vn 0.6953318119 -0.1998580992 -0.6903407574
vn 0.9301912189 -0.07503630966 -0.3593242168
vn 0.6814283133 0.6695836186 -0.2954881489
vn 0.8728629947 0.05636460334 -0.4846991003
vn 0.5168523192 -0.1794067621 -0.837064445
vn 0.9900092483 -0.1398000419 -0.01837389171
vn -0.6648926139 -0.04685554281 -0.7454679012
vn 0.6696701646 -0.1784870476 -0.7208912969
vn 0.9494052529 0.1474781334 0.2772722244
vn 0.5511801243 -0.6813848615 0.4815756679
vn -0.2222198099 0.8890249133 0.4003161788
vn 0.8565080762 -0.1688295007 0.4877402186
vn 0.0787198171 0.8630407453 0.4989627898
vn -0.7422891855 0.3148075938 0.5915259719
vn -0.6709258556 -0.5575661063 -0.4888542593
vn 0.3877714872 -0.8798121214 0.2748888135
vn -0.462829411 0.8668667674 -0.1852861047
vn -0.6399166584 0.3727670312 -0.6719757318
vn 0.272293061 -0.8161670566 0.5096349716
vn 0.6573820114 0.3527305126 0.665905416
vn -0.6833732128 -0.3260520399 -0.6532160044
vn -0.4146040082 -0.9099752903 -0.006964443717
vn 0.114976339 -0.2691701055 0.9562049508
vn -0.1000740379 0.9738454223 -0.2039860338
vn 0.3877107799 0.64618361 0.6573637724
vn -0.6141527891 0.5948855281 0.5185822248
vn -0.8913393617 0.2270423025 0.3923849463
vn -0.7642059922 0.3772970736 0.5231024623
vn -0.3329793215 -0.181392312 -0.9253224134
vn 0.2686979771 -0.318251431 0.9091300368
vn 0.9291540384 -0.2420346141 -0.2794494927
vn -0.9652305245 0.2130146623 0.1515083462
vn -0.7789204717 0.5252858996 0.342575103
vn -0.9057839513 0.3114316761 -0.2873425186
vn -0.740218401 -0.2531919777 -0.6228728294
vn 0.7324735522 -0.2270039022 0.6418346763
vn 0.2966725826 0.08959782869 0.9507668614
vn -0.7180351615 -0.5716494322 -0.3970421851
vn -0.5699712634 -0.247467801 0.7835128903
vn -0.9926031828 0.05429225415 -0.1085876226
vn 0.06030562893 -0.0009612800786 -0.9981794953
vn -0.762092948 0.2983799577 -0.5746161342
vn -0.04073014483 0.8387696147 -0.5429609418
vn -0.4759151936 0.8794749975 -0.005333537702
vn -0.6248599291 0.3990294039 0.6710630655
vn -0.6512934566 0.2208972126 0.7259622812
vn 0.3764238358 0.6843062043 0.6245238781
vn 0.8735400438 0.1131612211 0.4734155536
vn 0.5265423059 0.8445090652 0.09776321054
vn 0.7084444761 0.2561578453 -0.6576394439
vn 0.9187891483 0.042919036 -0.39240852
vn -0.4929024875 -0.1585581303 -0.8555153012
vn 0.7271752357 0.125034526 -0.6749685407
vn -0.3262146115 -0.1875365227 -0.9265064001
vn -0.6365236044 0.2246959507 -0.7378004193
vn -0.8803793192 -0.2144839615 0.4229998291
vn -0.8589314222 -0.2592353225 0.4416263998
vn -0.06386832148 -0.007093250751 0.9979331493
vn 0.5639643669 -0.01283579972 0.825699389
vn -0.0693250373 0.4736185074 0.877997458
vn -0.5921628475 0.2552343011 -0.7643288374
vn 0.9837056398 0.03675953671 -0.1759885252
vn 0.4034650028 -0.5311254263 0.7450649142
vn 0.0913682729 -0.6901953816 -0.7178316116
vn -0.2072768509 -0.9097293019 0.3597622812
f 1//1 2//2 3//3 
f 3//3 4//4 1//1 
f 5//5 4//4 3//3 
f 6//6 5//5 3//3 
f 7//7 8//8 9//9 
f 7//7 9//9 10//10 
f 10//10 9//9 11//11 
f 10//10 11//11 12//12 
f 10//10 12//12 6//6 
f 13//13 7//7 10//10 
f 7//7 13//13 8//8 
f 6//6 3//3 14//14 
f 13//13 10//10 14//14 
f 6//6 14//14 10//10 
f 2//2 14//14 3//3 
f 13//13 14//14 15//15 
f 15//15 8//8 13//13 
f 15//15 14//14 16//16 
f 14//14 2//2 16//16 
f 17//17 18//18 19//19 
f 17//17 20//20 21//21 
f 19//19 20//20 17//17 
f 18//18 17//17 21//21 
f 21//21 19//19 18//18 
f 22//22 23//23 19//19 
f 19//19 23//23 20//20 
f 22//22 19//19 21//21 
f 21//21 24//24 22//22 
f 24//24 21//21 20//20 
f 24//24 4//4 22//22 
f 22//22 4//4 5//5 
f 22//22 5//5 23//23 
f 23//23 24//24 20//20 
f 25//25 24//24 23//23 
f 25//25 23//23 5//5 
f 4//4 24//24 1//1 
f 24//24 25//25 1//1 
f 25//25 2//2 1//1 
f 12//12 26//26 25//25 
f 2//2 25//25 26//26 
f 12//12 25//25 6//6 
f 6//6 25//25 5//5 
f 16//16 2//2 26//26 
f 11//11 27//27 12//12 
f 12//12 27//27 26//26 
f 28//28 29//29 30//30 
f 31//31 28//28 32//32 
f 28//28 33//33 32//32 
f 34//34 29//29 28//28 
f 34//34 35//35 29//29 
f 28//28 36//36 33//33 
f 36//36 28//28 30//30 
f 29//29 35//35 30//30 
f 31//31 34//34 28//28 
f 30//30 35//35 37//37 
f 30//30 37//37 38//38 
f 38//38 39//39 36//36 
f 30//30 38//38 36//36 
f 39//39 40//40 37//37 
f 40//40 38//38 37//37 
f 40//40 39//39 41//41 
f 38//38 42//42 39//39 
f 41//41 39//39 42//42 
f 43//43 38//38 40//40 
f 41//41 43//43 40//40 
f 38//38 43//43 42//42 
f 44//44 43//43 41//41 
f 45//45 44//44 46//46 
f 47//47 44//44 45//45 
f 46//46 42//42 47//47 
f 46//46 41//41 42//42 
f 41//41 46//46 44//44 
f 43//43 47//47 42//42 
f 44//44 47//47 43//43 
f 46//46 47//47 45//45 
f 39//39 33//33 36//36 
f 33//33 39//39 37//37 
f 33//33 37//37 35//35 
f 32//32 33//33 48//48 
f 33//33 49//49 48//48 
f 33//33 35//35 49//49 
f 35//35 50//50 49//49 
f 50//50 35//35 51//51 
f 51//51 35//35 34//34 
f 52//52 53//53 49//49 
f 48//48 49//49 53//53 
f 54//54 52//52 49//49 
f 50//50 54//54 49//49 
f 52//52 54//54 15//15 
f 52//52 15//15 53//53 
f 48//48 53//53 55//55 
f 16//16 53//53 15//15 
f 55//55 53//53 56//56 
f 16//16 56//56 53//53 
f 50//50 57//57 54//54 
f 50//50 51//51 57//57 
f 15//15 54//54 8//8 
f 54//54 58//58 8//8 
f 54//54 57//57 58//58 
f 59//59 57//57 51//51 
f 60//60 58//58 57//57 
f 60//60 57//57 61//61 
f 57//57 59//59 61//61 
f 62//62 8//8 58//58 
f 62//62 58//58 63//63 
f 63//63 58//58 64//64 
f 62//62 63//63 65//65 
f 66//66 65//65 63//63 
f 67//67 63//63 64//64 
f 67//67 64//64 68//68 
f 69//69 66//66 70//70 
f 70//70 66//66 63//63 
f 70//70 63//63 67//67 
f 71//71 66//66 69//69 
f 69//69 70//70 71//71 
f 71//71 72//72 66//66 
f 73//73 71//71 70//70 
f 73//73 66//66 72//72 
f 73//73 70//70 67//67 
f 68//68 73//73 67//67 
f 73//73 68//68 65//65 
f 73//73 65//65 66//66 
f 73//73 72//72 71//71 
f 64//64 58//58 60//60 
f 68//68 64//64 60//60 
f 60//60 61//61 68//68 
f 68//68 61//61 65//65 
f 65//65 61//61 62//62 
f 59//59 62//62 61//61 
f 74//74 62//62 59//59 
f 11//11 9//9 62//62 
f 62//62 75//75 11//11 
f 9//9 8//8 62//62 
f 75//75 62//62 76//76 
f 62//62 74//74 76//76 
f 51//51 74//74 59//59 
f 51//51 34//34 77//77 
f 78//78 51//51 79//79 
f 51//51 78//78 74//74 
f 51//51 77//77 79//79 
f 74//74 78//78 80//80 
f 76//76 74//74 80//80 
f 76//76 80//80 75//75 
f 81//81 75//75 80//80 
f 80//80 82//82 81//81 
f 80//80 77//77 82//82 
f 78//78 83//83 80//80 
f 83//83 77//77 80//80 
f 84//84 85//85 78//78 
f 79//79 84//84 78//78 
f 83//83 78//78 86//86 
f 86//86 78//78 87//87 
f 85//85 87//87 78//78 
f 88//88 83//83 86//86 
f 89//89 77//77 83//83 
f 90//90 83//83 88//88 
f 89//89 83//83 90//90 
f 86//86 87//87 88//88 
f 90//90 91//91 89//89 
f 91//91 90//90 92//92 
f 90//90 88//88 93//93 
f 90//90 93//93 92//92 
f 94//94 88//88 87//87 
f 93//93 88//88 94//94 
f 85//85 94//94 87//87 
f 85//85 93//93 94//94 
f 93//93 95//95 92//92 
f 93//93 85//85 95//95 
f 92//92 95//95 91//91 
f 95//95 96//96 97//97 
f 95//95 85//85 96//96 
f 97//97 91//91 95//95 
f 96//96 85//85 84//84 
f 96//96 84//84 79//79 
f 96//96 79//79 98//98 
f 97//97 96//96 98//98 
f 91//91 97//97 98//98 
f 91//91 98//98 89//89 
f 79//79 89//89 98//98 
f 77//77 89//89 79//79 
f 77//77 34//34 82//82 
f 81//81 82//82 34//34 
f 81//81 34//34 31//31 
f 31//31 75//75 81//81 
f 31//31 32//32 75//75 
f 75//75 32//32 11//11 
f 32//32 27//27 11//11 
f 27//27 32//32 48//48 
f 27//27 48//48 55//55 
f 16//16 99//99 56//56 
f 55//55 100//100 27//27 
f 56//56 100//100 55//55 
f 99//99 100//100 56//56 
f 100//100 99//99 101//101 
f 102//102 100//100 101//101 
f 102//102 103//103 104//104 
f 102//102 105//105 100//100 
f 105//105 102//102 104//104 
f 105//105 27//27 100//100 
f 26//26 27//27 105//105 
f 106//106 104//104 103//103 
f 106//106 105//105 104//104 
f 99//99 107//107 101//101 
f 105//105 106//106 107//107 
f 99//99 16//16 107//107 
f 26//26 107//107 16//16 
f 26//26 105//105 107//107 
f 103//103 108//108 106//106 
f 109//109 108//108 103//103 
f 103//103 102//102 110//110 
f 106//106 108//108 110//110 
f 101//101 110//110 102//102 
f 110//110 101//101 107//107 
f 110//110 107//107 106//106 
f 108//108 111//111 110//110 
f 111//111 112//112 110//110 
f 109//109 112//112 113//113 
f 113//113 108//108 109//109 
f 108//108 113//113 111//111 
f 103//103 110//110 112//112 
f 109//109 103//103 112//112 
f 113//113 112//112 111//111 
