v -11.42834759 25.3206749 -136.4285889
v -11.59640312 25.59394836 -136.4634247
v -11.34292126 25.43218803 -136.1246338
v -11.42517853 25.15460396 -136.2111816
v -11.83571815 25.07839012 -136.0322571
v -11.75189686 25.106987 -135.5782623
v -13.02616978 25.0362854 -135.6871185
v -12.21603298 23.99245262 -135.8289642
v -12.54700279 24.40752029 -135.7349243
v -12.25426674 23.98226738 -135.6506653
v -12.48139572 24.13149834 -135.6373138
v -12.62185955 24.30886841 -135.6292267
v -13.25331116 24.98855972 -135.5604401
v -12.89893627 24.207304 -135.7550659
v -13.51565456 25.05426407 -135.8029175
v -13.46491909 25.21649551 -135.647171
v -13.22727108 25.12822151 -135.5905151
v -12.06345272 25.25006485 -135.3180542
v -11.72398853 25.29824066 -135.3510132
v -11.44065952 25.24992371 -135.541626
v -11.42338371 26.09707642 -135.8795471
v -11.52867031 26.02277756 -136.3593445
v -11.45277596 26.47700691 -136.3767853
v -11.66936302 26.22809601 -136.5703125
v -11.66371441 26.66603851 -136.8406219
v -11.9413414 25.66083908 -136.9936981
v -11.78955841 26.71689034 -136.8981628
v -12.01956272 25.76621437 -137.0432892
v -12.37107944 25.43917656 -137.0756683
v -12.47760963 25.0155468 -137.0276031
v -12.21977615 23.68885803 -136.4374084
v -12.28287125 24.20147896 -136.6299896
v -12.43437862 23.91725922 -136.6574249
v -12.1370306 23.79818916 -136.4867249
v -12.13586044 23.68082619 -136.5772247
v -12.7797575 23.72039223 -137.1668854
v -12.51283169 23.68020248 -137.1205292
v -12.63366508 25.28901482 -137.2810516
v -12.40822887 24.09965134 -136.733429
v -12.16515636 24.13892555 -136.6894226
v -12.47549152 24.11193275 -136.9804535
v -12.58648396 25.13612366 -137.4397278
v -12.21738911 24.25882912 -136.9209595
v -12.48353291 25.19873047 -137.4565277
v -12.27652836 25.04252243 -137.1544647
v -12.16088104 25.46924019 -136.9791565
v -12.09387207 25.54655647 -136.7691803
v -11.75364971 25.59579468 -136.486084
v -12.18634892 25.51866531 -136.5264893
v -12.22084522 25.1770916 -136.1557922
v -12.28054333 25.34382057 -136.2710571
v -12.24304867 25.64219666 -136.0152283
v -12.32388973 25.21216965 -136.0406494
v -12.47993374 25.56111145 -135.7473602
v -12.53347683 25.64113426 -135.8594055
v -12.33955669 25.65940094 -135.7452087
v -12.5666275 25.61680222 -135.6001892
v -11.90306091 25.93173981 -135.3543549
v -12.14053726 26.17863083 -135.5977783
v -12.27351093 25.81650925 -136.1383972
v -12.27133656 26.08467674 -136.201004
v -12.34556866 26.72192955 -136.0489807
v -11.92553234 25.93978691 -136.3897705
v -12.36917973 26.21702576 -136.3382874
v -12.19133854 26.841856 -136.2940216
v -12.14303589 26.68321609 -136.4120026
v -12.15225315 26.54948616 -136.5647736
v -12.02909088 26.35487747 -136.8466949
v -12.69556999 23.67592812 -135.9765167
v -12.64850235 23.68338013 -135.6673737
v -13.007411 23.70559502 -135.9526825
v -12.68447781 24.27800179 -135.8577728
v -13.47091675 25.20168114 -135.9248352
v -13.2214613 25.09820366 -135.9615021
v -12.89494991 25.4186039 -135.8666534
v -12.87384033 25.5290947 -135.7052765
v -12.67649555 25.6607914 -135.7055206
v -12.26011086 25.50723267 -135.3162842
v -12.5613203 25.56810188 -135.4862823
v -12.607234 25.64907265 -135.5089722
v -12.22328091 26.08885574 -135.1616516
v -12.73089218 25.44504166 -135.4665375
v -12.49144363 26.25286674 -135.1630707
v -12.58092403 25.50747108 -135.2234802
v -12.23641968 26.19547844 -135.0584412
v -12.32007027 26.29273796 -135.0489502
v -12.20677662 27.13443756 -135.656189
v -11.86591911 26.71138954 -135.4591522
v -12.09791851 26.48177147 -135.5619965
v -12.09046745 27.14748955 -135.622467
v -11.87151432 27.23083496 -136.3240662
v -11.81506348 27.60870934 -136.5593872
v -11.91689396 27.14940453 -136.4857178
v -12.14199638 27.15820503 -136.1688538
v -12.05196571 27.49870491 -136.1758881
v -11.86124611 27.58373833 -136.2602692
v -11.57060051 26.7348671 -135.8163757
v -11.80667496 27.00549507 -136.5320282
v -12.35513687 26.19486046 -135.3561249
v -12.33090973 26.74028206 -135.6483307
v -12.45844555 27.29491234 -136.297226
v -12.37319565 27.51596451 -136.202301
v -12.44369507 27.48785591 -136.3379364
v -12.43875313 27.48797226 -136.4815216
v -12.21420288 27.07694054 -136.2275238
v -12.40287209 27.08056641 -136.3532715
v -12.02021599 27.63174057 -136.708847
v -12.13293266 27.353508 -136.6506805
v -12.16422367 27.71448708 -136.6735992
v -12.07958984 27.02153397 -136.510788
v -12.01391506 27.73453331 -136.2403107
v -12.30834675 27.83034515 -136.427887
v -11.86457157 27.76040268 -136.3768005
v -12.0218029 26.19487 -136.6743317
v -12.15906525 25.85445404 -136.9278107
v -12.63048172 25.41024971 -137.0314941
v -12.37915134 25.43349648 -136.7991486
v -12.7783041 25.38020897 -136.8169403
v -13.02762604 25.27410889 -136.7254028
v -13.00697136 25.22850227 -136.603653
v -12.94810486 25.06454659 -136.8145752
v -13.01667881 25.16573715 -136.8817444
v -12.55868435 25.30386353 -136.8963318
vn 0.7189350128 -0.2261187285 -0.6572691798
vn 0.6881089211 0.167942524 -0.7059047222
vn 0.9903125167 0.05204780772 -0.1287328154
vn 0.4556347728 -0.8824544549 -0.1169235483
vn -0.006383591797 -0.9991181493 -0.04149964079
vn 0.1325916201 -0.9588013887 0.2512356341
vn 0.1663979739 -0.9835272431 0.07061094791
vn 0.5190577507 0.1922426671 -0.8328396082
vn 0.76781708 0.607134223 0.2045604587
vn 0.7118220329 -0.4150958359 0.5665729046
vn -0.435850054 0.1364848018 0.8896104097
vn 0.07585209608 -0.1760781556 0.9814494252
vn -0.4172469079 -0.3253334165 0.8485653996
vn -0.6336578727 -0.6694825292 0.3876478374
vn -0.8006541729 -0.5409243703 -0.2575921118
vn -0.5598005652 0.6029956937 0.5683481097
vn 0.06412515789 -0.05954246223 0.9961639643
vn -0.05137111619 -0.4559623003 0.8885152936
vn 0.4493742585 0.1248425543 0.8845773339
vn 0.8659035563 -0.1077247858 0.4884735942
vn 0.9903254509 0.1095404178 0.08518458903
vn 0.7578163743 -0.08979524672 -0.6462593079
vn 0.9598152637 0.2170092016 -0.1779372394
vn 0.8877046108 -0.4486121833 -0.1035741493
vn 0.8815143108 0.0504454039 -0.4694547355
vn 0.8306666017 -0.3271448314 -0.4505210519
vn -0.1093140244 0.3549823165 -0.9284600019
vn -0.2130594999 0.2518795729 -0.9440139532
vn 0.07995952666 0.2852317989 -0.9551174045
vn -0.2961488068 -0.8920378685 0.3414151967
vn -0.5788420439 -0.3538864851 0.7346470356
vn -0.05032882467 0.4214216769 0.9054671526
vn -0.8191137314 0.3606180847 0.4461023211
vn 0.6560792923 0.3492940366 0.6689944863
vn 0.6529435515 -0.6778432727 -0.3379249275
vn -0.641036272 -0.7130190134 0.2840358913
vn 0.4392150044 0.2053320706 -0.874602139
vn -0.9753698707 0.2200531214 -0.01517184079
vn -0.9707724452 0.0666494742 0.2305616736
vn 0.8438905478 -0.0579793714 -0.5333733559
vn -0.1063923985 -0.601652205 -0.7916408777
vn -0.9722937346 -0.1712807864 -0.1590840816
vn 0.6947274804 -0.2729701698 -0.6654629707
vn 0.5466867685 -0.06395451725 -0.8348912597
vn 0.9642148614 -0.02320097946 -0.2641049027
vn 0.6193802357 0.3217345774 -0.7161389589
vn -0.09550571442 0.2306360751 0.9683417082
vn -0.02417463809 0.5254123211 -0.8505042195
vn -0.6182296276 0.7510963678 -0.2316167951
vn -0.5904433727 -0.7689450383 0.2451533973
vn -0.9744228721 0.1133210137 0.1940578669
vn -0.9393935204 0.1123086065 -0.3239238262
vn -0.3582106829 -0.2476013005 -0.9002103806
vn -0.3994610012 0.4458724856 -0.8010172248
vn -0.5299143195 0.7648426294 -0.3663421869
vn -0.8092179298 0.5611011386 0.1741603166
vn -0.2586108446 0.9410305619 -0.2181327641
vn -0.2903734446 0.4094706178 0.864879787
vn -0.8669544458 0.002555529587 0.49838081
vn -0.9908675551 0.04236819223 -0.1280093491
vn -0.8658031821 -0.1002031639 -0.4902491271
vn -0.9886292815 0.09158683568 -0.1192643642
vn -0.2741298676 -0.4677782655 -0.8402596712
vn -0.8881179094 -0.229563117 -0.3981801271
vn -0.9404672384 0.09728598595 -0.3256636858
vn -0.8215424418 0.3243802488 -0.4688768089
vn -0.8241388798 0.3266115189 -0.4627310932
vn -0.7636839151 0.2314718813 -0.6026670933
vn 0.3292662203 -0.3936405778 -0.858272016
vn -0.1268629283 -0.5533234477 0.823249042
vn -0.8915203214 0.08832327276 0.4442864954
vn -0.3132905662 -0.1724317819 -0.9338716865
vn -0.5114071369 0.2696588933 -0.8159331083
vn 0.2736056745 0.08468862623 -0.958106339
vn -0.08375721425 0.5714421868 -0.8163568974
vn -0.4403279424 0.8940224648 0.08267501742
vn -0.4127808511 0.9095948339 -0.04742589965
vn -0.2235992104 0.1586578637 0.961681366
vn 0.4890439808 0.2746348083 0.8278959394
vn -0.1792994291 0.4526655376 -0.8734675646
vn 0.8337540627 -0.4882240295 -0.2578593194
vn -0.547547698 0.2051456571 0.811237812
vn -0.9468952417 0.3143926859 0.06742908061
vn 0.1874751002 -0.5702027082 0.7998262048
vn 0.5646013618 -0.1775290519 0.806045115
vn -0.2610967755 0.3681485057 0.8923537135
vn -0.7171924114 0.6441092491 0.266004324
vn 0.7437793612 0.0873818025 0.6626889706
vn 0.5828365684 -0.152762711 0.7981008887
vn 0.4526471496 0.6795516014 0.5773388743
vn 0.7636821866 0.597761631 0.2438659966
vn 0.944727242 -0.01403819956 -0.3275566101
vn -0.2479455471 0.2064169049 -0.9465278983
vn -0.7607309818 0.4924762249 0.4227949083
vn 0.2248617411 0.02634717152 0.9740344286
vn 0.8190649152 0.05126287416 0.5714060068
vn 0.7626538277 0.3668594956 0.5327036977
vn 0.8293457031 0.5282605886 -0.1820067763
vn -0.1848407388 -0.2885372937 -0.9394573569
vn -0.9997520447 -0.02154616453 0.005625953898
vn -0.8233778477 -0.1814626753 0.5376989841
vn -0.3848585486 0.2178364247 0.8969008923
vn -0.9327827096 0.3074116707 0.1881872118
vn -0.755659461 -0.01286953408 -0.654838264
vn -0.9819051623 -0.188917473 0.01313090697
vn -0.6491693258 -0.547968924 -0.5275502205
vn 0.4012616575 0.3745295405 -0.8358927369
vn -0.2878109217 -0.2929802835 -0.9117715955
vn -0.5193898678 0.1974003613 -0.8314248323
vn -0.2610385418 -0.6471309066 -0.7162963152
vn 0.003857009346 0.5930242538 0.805175364
vn -0.3697125614 0.9291324615 0.00504610315
vn 0.4370238483 0.8895825148 -0.1328649074
vn -0.7285813689 -0.6845073104 -0.0248788204
vn -0.796331048 0.5913032889 0.1273472309
vn -0.4993039966 0.5431877375 -0.6750130653
vn -0.6053434014 0.6659521461 0.4359669387
vn -0.1696617156 0.4679678082 0.8673067689
vn -0.7698822021 0.6116659641 -0.1820609719
vn 0.4166279137 -0.2174985409 0.8826752305
vn 0.3405626714 -0.7438607216 0.5750550032
vn -0.3127437532 -0.2818178535 -0.9070667028
vn -0.8085143566 -0.4692756534 0.3550843
f 1//1 2//2 3//3 
f 3//3 4//4 1//1 
f 5//5 4//4 6//6 
f 5//5 6//6 7//7 
f 8//8 9//9 10//10 
f 10//10 9//9 11//11 
f 12//12 11//11 9//9 
f 13//13 14//14 12//12 
f 15//15 14//14 13//13 
f 16//16 15//15 13//13 
f 17//17 16//16 13//13 
f 13//13 12//12 17//17 
f 17//17 12//12 9//9 
f 7//7 17//17 9//9 
f 18//18 17//17 7//7 
f 7//7 6//6 18//18 
f 18//18 6//6 19//19 
f 19//19 6//6 20//20 
f 6//6 4//4 20//20 
f 3//3 20//20 4//4 
f 3//3 21//21 20//20 
f 21//21 22//22 23//23 
f 21//21 3//3 22//22 
f 22//22 3//3 2//2 
f 23//23 22//22 24//24 
f 23//23 24//24 25//25 
f 25//25 24//24 26//26 
f 26//26 27//27 25//25 
f 28//28 27//27 26//26 
f 29//29 28//28 26//26 
f 1//1 4//4 30//30 
f 5//5 30//30 4//4 
f 31//31 32//32 33//33 
f 34//34 32//32 31//31 
f 35//35 34//34 31//31 
f 31//31 36//36 35//35 
f 31//31 33//33 36//36 
f 36//36 37//37 35//35 
f 36//36 33//33 37//37 
f 38//38 39//39 30//30 
f 32//32 30//30 39//39 
f 39//39 33//33 32//32 
f 37//37 33//33 39//39 
f 34//34 35//35 40//40 
f 40//40 35//35 37//37 
f 37//37 39//39 40//40 
f 40//40 39//39 41//41 
f 39//39 42//42 41//41 
f 38//38 42//42 39//39 
f 43//43 40//40 41//41 
f 43//43 41//41 44//44 
f 42//42 44//44 41//41 
f 44//44 42//42 38//38 
f 40//40 45//45 34//34 
f 32//32 34//34 45//45 
f 45//45 30//30 32//32 
f 30//30 45//45 1//1 
f 45//45 40//40 43//43 
f 43//43 44//44 45//45 
f 46//46 45//45 44//44 
f 38//38 46//46 44//44 
f 29//29 46//46 38//38 
f 1//1 45//45 46//46 
f 29//29 26//26 46//46 
f 47//47 46//46 26//26 
f 47//47 26//26 24//24 
f 48//48 2//2 1//1 
f 2//2 48//48 22//22 
f 48//48 46//46 47//47 
f 48//48 1//1 46//46 
f 47//47 49//49 48//48 
f 50//50 30//30 5//5 
f 30//30 50//50 51//51 
f 51//51 52//52 49//49 
f 53//53 52//52 51//51 
f 53//53 51//51 50//50 
f 5//5 53//53 50//50 
f 7//7 53//53 5//5 
f 52//52 53//53 54//54 
f 52//52 54//54 55//55 
f 55//55 56//56 52//52 
f 55//55 54//54 57//57 
f 55//55 57//57 56//56 
f 57//57 58//58 56//56 
f 58//58 18//18 19//19 
f 56//56 58//58 59//59 
f 59//59 60//60 56//56 
f 56//56 60//60 52//52 
f 60//60 49//49 52//52 
f 49//49 60//60 48//48 
f 60//60 61//61 48//48 
f 61//61 60//60 62//62 
f 63//63 48//48 61//61 
f 63//63 22//22 48//48 
f 64//64 61//61 65//65 
f 65//65 66//66 64//64 
f 63//63 61//61 64//64 
f 66//66 67//67 64//64 
f 68//68 64//64 67//67 
f 69//69 70//70 71//71 
f 69//69 72//72 8//8 
f 69//69 8//8 10//10 
f 11//11 70//70 10//10 
f 10//10 70//70 69//69 
f 11//11 71//71 70//70 
f 72//72 69//69 71//71 
f 72//72 71//71 11//11 
f 72//72 73//73 74//74 
f 8//8 72//72 74//74 
f 12//12 72//72 11//11 
f 14//14 72//72 12//12 
f 15//15 73//73 72//72 
f 72//72 14//14 15//15 
f 73//73 75//75 74//74 
f 15//15 16//16 73//73 
f 73//73 16//16 76//76 
f 73//73 76//76 75//75 
f 8//8 74//74 9//9 
f 9//9 74//74 7//7 
f 74//74 53//53 7//7 
f 75//75 53//53 74//74 
f 75//75 76//76 77//77 
f 53//53 75//75 54//54 
f 75//75 57//57 54//54 
f 75//75 77//77 57//57 
f 78//78 18//18 58//58 
f 79//79 58//58 57//57 
f 58//58 79//79 78//78 
f 79//79 57//57 80//80 
f 81//81 79//79 80//80 
f 77//77 76//76 82//82 
f 77//77 82//82 80//80 
f 80//80 82//82 83//83 
f 78//78 79//79 82//82 
f 82//82 18//18 78//78 
f 17//17 18//18 82//82 
f 82//82 76//76 16//16 
f 17//17 82//82 16//16 
f 82//82 79//79 84//84 
f 81//81 84//84 79//79 
f 81//81 85//85 84//84 
f 83//83 86//86 87//87 
f 83//83 82//82 86//86 
f 86//86 82//82 84//84 
f 86//86 84//84 85//85 
f 88//88 86//86 85//85 
f 88//88 85//85 81//81 
f 88//88 81//81 89//89 
f 86//86 88//88 90//90 
f 86//86 90//90 87//87 
f 87//87 90//90 91//91 
f 92//92 91//91 93//93 
f 94//94 91//91 95//95 
f 91//91 94//94 87//87 
f 91//91 96//96 95//95 
f 92//92 96//96 91//91 
f 88//88 97//97 90//90 
f 89//89 97//97 88//88 
f 93//93 91//91 98//98 
f 93//93 98//98 27//27 
f 27//27 98//98 25//25 
f 98//98 23//23 25//25 
f 97//97 91//91 90//90 
f 23//23 98//98 97//97 
f 23//23 97//97 21//21 
f 89//89 19//19 97//97 
f 20//20 97//97 19//19 
f 97//97 20//20 21//21 
f 97//97 98//98 91//91 
f 80//80 57//57 77//77 
f 81//81 80//80 99//99 
f 80//80 83//83 99//99 
f 81//81 99//99 89//89 
f 58//58 19//19 89//89 
f 89//89 59//59 58//58 
f 89//89 100//100 59//59 
f 89//89 99//99 100//100 
f 100//100 99//99 83//83 
f 100//100 83//83 87//87 
f 100//100 60//60 59//59 
f 100//100 62//62 60//60 
f 100//100 87//87 94//94 
f 62//62 100//100 94//94 
f 101//101 102//102 103//103 
f 103//103 104//104 101//101 
f 102//102 105//105 94//94 
f 101//101 105//105 102//102 
f 62//62 94//94 105//105 
f 62//62 105//105 61//61 
f 61//61 105//105 65//65 
f 101//101 106//106 105//105 
f 101//101 104//104 106//106 
f 107//107 93//93 108//108 
f 109//109 108//108 104//104 
f 108//108 109//109 107//107 
f 105//105 110//110 65//65 
f 104//104 108//108 106//106 
f 105//105 106//106 110//110 
f 93//93 65//65 110//110 
f 108//108 93//93 110//110 
f 108//108 110//110 106//106 
f 102//102 94//94 95//95 
f 111//111 102//102 95//95 
f 96//96 111//111 95//95 
f 112//112 103//103 102//102 
f 111//111 112//112 102//102 
f 103//103 112//112 104//104 
f 112//112 109//109 104//104 
f 109//109 112//112 107//107 
f 112//112 113//113 107//107 
f 112//112 111//111 113//113 
f 111//111 96//96 113//113 
f 113//113 96//96 92//92 
f 113//113 92//92 107//107 
f 107//107 92//92 93//93 
f 67//67 93//93 68//68 
f 93//93 27//27 68//68 
f 66//66 65//65 93//93 
f 67//67 66//66 93//93 
f 28//28 68//68 27//27 
f 24//24 22//22 114//114 
f 68//68 114//114 64//64 
f 63//63 64//64 114//114 
f 47//47 24//24 114//114 
f 22//22 63//63 114//114 
f 115//115 114//114 68//68 
f 114//114 115//115 47//47 
f 28//28 115//115 68//68 
f 29//29 38//38 116//116 
f 28//28 116//116 115//115 
f 116//116 28//28 29//29 
f 51//51 49//49 117//117 
f 117//117 49//49 47//47 
f 47//47 115//115 118//118 
f 118//118 115//115 116//116 
f 118//118 117//117 47//47 
f 118//118 119//119 120//120 
f 118//118 116//116 119//119 
f 119//119 121//121 120//120 
f 121//121 118//118 120//120 
f 121//121 119//119 122//122 
f 119//119 116//116 122//122 
f 122//122 116//116 123//123 
f 123//123 118//118 121//121 
f 51//51 123//123 30//30 
f 123//123 51//51 117//117 
f 118//118 123//123 117//117 
f 123//123 116//116 38//38 
f 38//38 30//30 123//123 
f 122//122 123//123 121//121 
