v -76.01610565 23.75 -83.64294434
v -76.01610565 23.76041603 -83.64294434
v -80.11388397 23.75 -95.54383087
v -80.11388397 23.76041603 -95.54383087
v -74.09067535 23.75 -97.61776733
v -74.09067535 23.76041603 -97.61776733
v -68.92092896 23.76041603 -94.85675812
v -68.92092896 23.75 -94.85675812
v -69.17080688 23.76041603 -95.54242706
v -69.17080688 23.75 -95.54242706
v -69.54109955 23.76041603 -96.17127991
v -69.54109955 23.75 -96.17127991
v -70.01948547 23.76041603 -96.72238922
v -70.01948547 23.75 -96.72238922
v -70.59002686 23.76041603 -97.17741394
v -70.59002686 23.75 -97.17741394
v -71.23375702 23.76041603 -97.52120972
v -71.23375702 23.75 -97.52120972
v -71.92922211 23.76041603 -97.74232483
v -71.92922211 23.75 -97.74232483
v -72.65329742 23.76041603 -97.83341217
v -72.65329742 23.75 -97.83341217
v -73.38186646 23.76041603 -97.79142761
v -73.38186646 23.75 -97.79142761
v -66.09493256 23.76041603 -85.26501465
v -66.36104584 23.76041603 -85.67449951
v -66.72145081 23.76041603 -86.00404358
v -67.15306091 23.76041603 -86.23254395
v -67.62821198 23.76041603 -86.34534454
v -68.11647034 23.76041603 -86.33522797
v -68.58654022 23.76041603 -86.20284271
v -66.09493256 23.75 -85.26501465
v -68.58654022 23.75 -86.20284271
v -66.36104584 23.75 -85.67449951
v -66.72145081 23.75 -86.00404358
v -67.15306091 23.75 -86.23254395
v -67.62821198 23.75 -86.34534454
v -68.11647034 23.75 -86.33522797
vn -0.0003168870753 -0.9999995828 0.0008858752553
vn -0.0009926536586 0.9999992251 0.0007301772712
vn -0.003361442592 -0.9999943376 0.0002822037786
vn -0.00208485662 0.9999973178 -0.001032589003
vn -0.0002802862145 -0.9999996424 -0.0008272791165
vn -0.0001570380555 0.9999998808 -0.0004825976212
vn 0.001201302279 0.9999992251 -0.0003568310058
vn 0.0006628355477 -0.9999997616 -0.0002010772878
vn 0.209612295 0.9735241532 -0.0911777392
vn 0.2036582232 -0.9735242724 -0.1037967578
vn 0.04900038615 0.9982527494 -0.03302165493
vn 0.04689433426 -0.9982527494 -0.03594987467
vn 0.01903970726 0.9996443391 -0.0186737664
vn 0.01786492579 -0.9996443391 -0.01980050839
vn 0.008796032518 0.9998829365 -0.01252090186
vn 0.008015734144 -0.9998829365 -0.01303433906
vn 0.004184784368 0.9999495745 -0.009131786413
vn 0.003619814059 -0.9999495745 -0.009370036423
vn 0.001759562874 0.9999741316 -0.006977990735
vn 0.001330565079 -0.9999741316 -0.007072384004
vn 0.0003526420915 0.99998492 -0.005475442391
vn 1.790558053e-05 -0.99998492 -0.005486746319
vn -0.0005180197768 0.9999904037 -0.004355106503
vn -0.0007827823865 -0.9999904037 -0.004315374419
vn 0.0653405413 0.9977167845 -0.01708423905
vn -0.002882706933 0.999992311 0.002662439132
vn -0.001416413928 0.9999965429 0.002203510376
vn -0.0006554113934 0.9999977946 0.001994534163
vn -0.0001195184814 0.9999982119 0.001874321257
vn 0.0003457561834 0.9999983311 0.001796655823
vn 0.0007898400654 0.9999970198 0.002305254573
vn 0.1386843622 -0.9895371199 -0.03978572413
vn 0.000424783706 -0.9999991059 0.001258665929
vn -0.003098364687 -0.999992311 0.002408066764
vn -0.00159837387 -0.9999965429 0.002075284021
vn -0.0008224025369 -0.9999977946 0.001931690727
vn -0.000278223044 -0.9999982119 0.001857397845
vn 0.0001919652132 -0.9999983311 0.001819533412
f 1//1 2//2 3//3 
f 3//3 2//2 4//4 
f 3//3 4//4 5//5 
f 5//5 4//4 6//6 
f 7//7 8//8 9//9 
f 9//9 8//8 10//10 
f 9//9 10//10 11//11 
f 11//11 10//10 12//12 
f 11//11 12//12 13//13 
f 13//13 12//12 14//14 
f 13//13 14//14 15//15 
f 15//15 14//14 16//16 
f 15//15 16//16 17//17 
f 17//17 16//16 18//18 
f 17//17 18//18 19//19 
f 19//19 18//18 20//20 
f 19//19 20//20 21//21 
f 21//21 20//20 22//22 
f 21//21 22//22 23//23 
f 23//23 22//22 24//24 
f 23//23 24//24 6//6 
f 6//6 24//24 5//5 
f 25//25 7//7 26//26 
f 26//26 7//7 27//27 
f 27//27 7//7 28//28 
f 28//28 7//7 29//29 
f 29//29 7//7 30//30 
f 30//30 7//7 31//31 
f 31//31 7//7 2//2 
f 2//2 7//7 6//6 
f 2//2 6//6 4//4 
f 9//9 11//11 7//7 
f 7//7 11//11 13//13 
f 7//7 13//13 15//15 
f 15//15 17//17 7//7 
f 7//7 17//17 19//19 
f 7//7 19//19 21//21 
f 21//21 23//23 7//7 
f 7//7 23//23 6//6 
f 8//8 7//7 32//32 
f 32//32 7//7 25//25 
f 33//33 31//31 1//1 
f 1//1 31//31 2//2 
f 32//32 34//34 8//8 
f 8//8 34//34 35//35 
f 8//8 35//35 36//36 
f 36//36 37//37 8//8 
f 8//8 37//37 38//38 
f 8//8 38//38 33//33 
f 33//33 1//1 8//8 
f 8//8 1//1 5//5 
f 8//8 5//5 24//24 
f 1//1 3//3 5//5 
f 24//24 22//22 8//8 
f 8//8 22//22 20//20 
f 8//8 20//20 18//18 
f 18//18 16//16 8//8 
f 8//8 16//16 14//14 
f 8//8 14//14 12//12 
f 12//12 10//10 8//8 
f 31//31 33//33 30//30 
f 30//30 33//33 38//38 
f 30//30 38//38 29//29 
f 29//29 38//38 37//37 
f 29//29 37//37 28//28 
f 28//28 37//37 36//36 
f 28//28 36//36 27//27 
f 27//27 36//36 35//35 
f 27//27 35//35 26//26 
f 26//26 35//35 34//34 
f 26//26 34//34 25//25 
f 25//25 34//34 32//32 
