v -54.67922211 26.39904785 -128.4570465
v -54.79259872 25.68257141 -128.3853607
v -55.01631546 26.53293991 -128.6959381
v -54.7040863 25.4356308 -128.0870819
v -54.6151123 24.89110947 -128.3294373
v -54.90899277 25.12840271 -128.4539795
v -55.10477066 25.48907471 -128.2982941
v -54.89748383 29.49312019 -127.8240509
v -55.13554001 29.05243492 -127.8330688
v -54.70814133 29.04056549 -127.804863
v -54.98162842 28.74344826 -127.9267578
v -55.15065002 29.43410492 -128.0465393
v -55.10989761 29.00933075 -128.1643066
v -54.57197189 29.49534035 -127.8748856
v -54.79755783 29.58079338 -128.2254791
v -54.77843857 28.65476418 -127.7713928
v -54.48540878 28.75827408 -127.8362961
v -54.72951126 28.61183357 -127.2649002
v -54.3251152 28.44472122 -127.6437225
v -54.47597122 28.2882061 -127.3183441
v -54.98163223 28.41016006 -127.5033951
v -54.86841965 27.72650909 -127.194252
v -55.18933487 27.74315071 -127.5312119
v -55.04841614 27.80305862 -127.2573242
v -55.1592598 27.57980728 -127.2017288
v -55.25442505 28.11129189 -127.6411514
v -55.34919357 27.90409088 -128.1501465
v -54.86956787 28.60531235 -128.0952606
v -54.73875046 29.07775307 -128.329895
v -54.68000031 28.68928528 -128.3464661
v -55.13416672 28.45001984 -128.3128204
v -55.33366013 27.89183044 -128.5433807
v -55.42591095 27.68381882 -127.4172821
v -55.1397934 27.21265793 -127.2556229
v -55.54008865 27.66533852 -128.2331238
v -55.09447098 27.59348106 -128.4895782
v -54.98527908 28.536026 -128.6567688
v -55.05841446 27.89901924 -128.6189728
v -54.59157181 28.40637207 -128.5640259
v -54.37604523 28.62686348 -127.9338837
v -54.6906929 27.58129883 -128.5097046
v -55.0177269 27.30602646 -128.6355133
v -55.27626419 27.20225143 -127.6473846
v -55.38311386 26.71017456 -127.6987381
v -55.56981659 26.63327408 -127.6442795
v -55.42918396 26.44594574 -127.5751266
v -55.3282547 27.34189034 -127.7724533
v -55.35664749 26.80490112 -128.0099335
v -55.35506058 27.35046196 -127.5096054
v -55.10659027 26.61246109 -127.8840561
v -55.13628387 26.58656502 -127.6063156
v -55.57798767 26.60115242 -127.4123688
v -55.30061722 27.42886734 -128.2770538
v -55.29782867 26.11863518 -128.0843353
v -55.35759735 26.5680542 -128.4312592
v -54.97164917 25.79719734 -127.4074173
v -54.9752655 26.18873024 -127.8487473
v -54.42735291 27.52195168 -128.328598
v -54.49865341 26.91981888 -128.547226
v -54.39678955 27.5273056 -127.452179
v -54.28689194 26.8885498 -128.0177307
v -54.65781021 26.3998909 -128.0410767
v -54.83021164 26.11688042 -127.9545746
v -54.50201416 26.37200737 -128.4697266
v -54.3997345 26.35259247 -127.8135452
v -54.43917084 26.39946175 -127.5232925
v -54.51053619 25.56203079 -127.5464935
v -54.43965149 25.65659523 -127.3502502
v -54.29082489 25.20017052 -127.3730545
v -54.36143112 24.69346428 -127.3390808
v -54.73400879 25.27428246 -127.4480133
v -54.53816223 24.38487816 -127.076088
v -54.21675873 24.34352303 -127.0675125
v -54.28842163 25.12930489 -127.0903702
v -54.34228134 24.50593185 -126.8236313
v -54.17540741 24.05123329 -126.8969879
v -54.20897293 23.89271736 -127.1063156
v -54.36097717 23.93352127 -126.93367
v -54.4012146 23.78475761 -126.5544434
v -54.80841827 23.83845139 -126.4143219
v -54.71670151 23.76678848 -126.7153015
v -54.57927322 23.96856689 -126.6218643
v -54.60487366 25.55056381 -127.1207352
v -55.06357574 26.80894089 -127.4632645
v -54.72303391 25.3904171 -127.1412354
v -55.03004074 27.0865345 -127.5163879
v -55.3346138 26.80364799 -127.3812637
v -54.65747833 26.60310936 -127.3409271
v -54.52020645 24.3080864 -126.8803864
v -54.80096436 27.4102726 -127.4026184
v -54.52315521 29.14537811 -127.7842484
v -54.5862999 29.70070839 -128.0576324
v -54.50221252 29.48255539 -128.3892212
v -54.68057251 29.17401314 -128.5099182
v -54.50372696 28.89183044 -128.5084686
v -54.2794075 28.84372139 -128.3046112
v -54.15613937 28.8025589 -128.0464783
v -54.29992676 28.92102051 -127.8275986
v -54.33917618 29.45753288 -128.1530914
v -54.2869606 29.39743805 -127.9284744
v -54.64501572 27.68157387 -127.3434219
v -55.02706146 25.33892632 -128.0643005
v -54.77151871 24.59000969 -127.9415131
v -54.91725159 24.2879982 -128.1795959
v -55.01119614 24.06075096 -127.916481
v -55.31669617 23.81477356 -127.6357269
v -54.94301224 23.82049942 -127.747963
v -55.10678482 23.74501991 -128.0193329
v -54.55994797 24.03273964 -128.2096863
v -54.74567413 23.91842461 -128.0734558
v -54.66254807 23.71972466 -128.1106415
v -54.59015656 24.24759865 -128.0652313
vn 0.9287173152 -0.2691718936 -0.2550110519
vn 0.4963410497 -0.1032208651 -0.8619692922
vn -0.07832307369 -0.1644486338 -0.983271122
vn 0.8694853783 0.04158421233 0.492205143
vn 0.8829884529 -0.06533753127 -0.4648250937
vn -0.213013202 -0.1239555851 -0.9691544771
vn -0.7924547195 -0.2494527996 -0.556586802
vn -0.2144628614 0.5396481156 0.814116478
vn -0.651925087 -0.09194312245 0.7526886463
vn -0.06697875261 0.003308779094 0.9977489114
vn -0.8108322024 -0.5714544654 0.1264551431
vn -0.874628365 0.4693613946 -0.1213468388
vn -0.6830275059 -0.1612473428 -0.7123712301
vn 0.01908945292 0.5268462896 0.8497462273
vn -0.5317416787 0.6215505004 -0.5752614737
vn -0.6144990325 0.6199073195 0.4879609048
vn 0.3516442776 0.5248123407 0.7751892209
vn -0.07194424421 0.5895892978 0.8044926524
vn 0.9875129461 0.1287190169 0.09082759917
vn 0.5997512341 0.03483040258 0.7994281054
vn -0.7939817905 0.4896849096 0.3602799475
vn 0.2012366802 -0.09672003239 0.9747558832
vn -0.7786192894 0.4476221502 0.4397571981
vn -0.6525560617 0.37631464 0.6576912999
vn -0.09805567563 -0.08753231168 0.9913239479
vn -0.8660188913 0.442145884 0.2334916145
vn -0.8732773662 0.4784888029 0.09184272587
vn -0.7913109064 0.6106883287 -0.02977914177
vn -0.6921864748 -0.1523972899 -0.70544523
vn -0.0467106849 0.3352285326 -0.9409781694
vn -0.8409584761 0.5410993099 0.0005983969895
vn -0.814817369 0.1676812172 -0.5549375415
vn -0.8497172594 0.3560926616 0.3888168931
vn -0.1725132465 -0.2221802473 0.9596223831
vn -0.96582371 -0.1694718897 -0.1961219013
vn -0.3855012953 -0.2107140124 -0.8983253241
vn -0.3617652655 0.5395522118 -0.7602692246
vn 0.04984461516 -0.1433204561 -0.9884203076
vn 0.6533863544 0.1006992906 -0.7502972484
vn 0.9520415068 -0.1018227488 -0.2885291278
vn 0.2842425704 -0.08945531398 -0.9545699954
vn -0.1859601736 0.1691114306 -0.9678946733
vn -0.8330156803 0.1899826676 -0.5196070671
vn -0.8056072593 -0.3679253757 -0.4643574655
vn -0.8186315894 0.1323512495 -0.5588608384
vn 0.1492832303 -0.9713665843 0.1848282516
vn -0.999122858 0.03806208819 0.01745688356
vn -0.9943421483 -0.05843189359 0.08870996535
vn -0.978402853 -0.1332961023 0.1579873711
vn -0.8802314997 -0.4038382769 0.2492130399
vn -0.7424339652 -0.5982583761 0.3014609814
vn -0.7401305437 0.05641259626 0.6700928211
vn -0.934229672 -0.07914038002 -0.3477811813
vn -0.8197612762 -0.2324813157 0.5233965516
vn -0.8772512674 -0.05629964918 -0.4767184854
vn -0.9589927793 -0.2471109629 0.1388130337
vn -0.8864475489 -0.4509893656 -0.1040162891
vn 0.8807991743 0.0662676245 -0.4688298106
vn 0.5999640822 0.0556059517 -0.7980921268
vn 0.8132588863 -0.04189366102 0.5803920031
vn 0.9977169633 -0.03761318699 -0.05609072
vn 0.3581779003 -0.9071081877 -0.2210506052
vn 0.7213016152 -0.6912428737 0.04367242754
vn 0.7435769439 -0.4460671246 -0.4981139302
vn 0.8416270614 -0.4190566838 -0.3406690061
vn 0.9168798327 -0.01452017669 0.3988991678
vn 0.6052669883 -0.2621469796 -0.7516188025
vn 0.9455999732 0.2519048452 0.2058752477
vn 0.9196924567 0.07093406469 -0.3861789703
vn 0.05624626204 -0.3604038954 -0.9310989976
vn -0.6720975637 -0.4491670728 -0.5886712074
vn -0.8048001528 -0.4471355081 -0.3903416097
vn 0.9153441191 -0.1277923137 -0.3818564117
vn 0.8318603039 0.2794430554 0.4794997871
vn 0.3629995286 0.3071655035 0.8797048926
vn 0.9326147437 -0.07445814461 0.3531087041
vn -0.3584623635 -0.1619414836 -0.9193909168
vn 0.4618125558 -0.8868876696 -0.01262710523
vn 0.6279402375 -0.364690572 0.687525928
vn -0.4467838705 -0.1070083454 0.8882192373
vn -0.6781288981 -0.4582028985 -0.5746227503
vn -0.4466898739 0.6135489345 0.6511726975
vn 0.1297910959 0.2421106398 0.9615283012
vn -0.4149475992 0.06568725407 0.9074710011
vn -0.8417047858 -0.09353554249 0.5317745209
vn 0.08497437835 -0.1780273616 0.9803497195
vn 0.402985692 -0.4308302999 0.8074576259
vn 0.1504073441 0.1072528064 0.9827890992
vn -0.9930911064 0.07409699261 0.09099251777
vn 0.1347254217 -0.1773623079 0.9748803377
vn 0.1308953911 0.1055342406 0.9857631326
vn 0.2791540325 0.959143877 0.04600058123
vn 0.4684949219 0.4425667226 -0.7646222711
vn -0.5193564892 0.1005116701 -0.8486260772
vn 0.399179697 -0.3827278316 -0.8331716657
vn 0.7883623838 -0.1153655201 -0.6042975783
vn 0.9990828037 -0.04133015126 -0.01119488478
vn 0.5491315126 -0.06498458982 0.8332056403
vn 0.8657692075 0.3661486804 -0.3411434293
vn 0.7434160709 0.3760030866 0.5531313419
vn 0.3903478682 -0.2300712913 0.8914570808
vn -0.5351308584 -0.1177031845 0.8365291357
vn 0.1884565353 0.1665188074 0.9678613544
vn -0.7724021673 -0.1775225252 -0.6098201275
vn -0.8195576072 0.5312550664 0.2146938294
vn -0.8639628887 0.1008543968 0.4933523536
vn 0.492913723 -0.2745314538 0.8256322145
vn -0.4643945694 -0.5232967734 -0.7144915462
vn 0.07556630671 -0.1648954004 -0.9834120274
vn 0.586198926 -0.7867780328 0.1932645887
vn 0.6831108928 -0.3388977945 0.6469217539
vn 0.9625579715 -0.06077269837 0.2641756833
f 1//1 2//2 3//3 
f 2//2 1//1 4//4 
f 2//2 4//4 5//5 
f 5//5 6//6 2//2 
f 2//2 6//6 7//7 
f 2//2 7//7 3//3 
f 8//8 9//9 10//10 
f 11//11 10//10 9//9 
f 12//12 13//13 9//9 
f 11//11 9//9 13//13 
f 14//14 15//15 8//8 
f 10//10 14//14 8//8 
f 15//15 12//12 8//8 
f 8//8 12//12 9//9 
f 10//10 11//11 16//16 
f 16//16 17//17 10//10 
f 17//17 16//16 18//18 
f 17//17 18//18 19//19 
f 19//19 18//18 20//20 
f 16//16 21//21 18//18 
f 20//20 18//18 22//22 
f 21//21 23//23 24//24 
f 18//18 24//24 22//22 
f 18//18 21//21 24//24 
f 22//22 24//24 25//25 
f 26//26 23//23 21//21 
f 23//23 26//26 27//27 
f 28//28 11//11 29//29 
f 29//29 30//30 28//28 
f 16//16 11//11 28//28 
f 16//16 28//28 21//21 
f 21//21 28//28 26//26 
f 26//26 31//31 27//27 
f 26//26 28//28 31//31 
f 32//32 27//27 31//31 
f 23//23 27//27 33//33 
f 24//24 23//23 33//33 
f 24//24 33//33 25//25 
f 25//25 33//33 34//34 
f 32//32 35//35 27//27 
f 33//33 27//27 35//35 
f 36//36 35//35 32//32 
f 31//31 37//37 32//32 
f 28//28 30//30 37//37 
f 28//28 37//37 31//31 
f 37//37 38//38 32//32 
f 38//38 36//36 32//32 
f 37//37 39//39 38//38 
f 30//30 39//39 37//37 
f 39//39 30//30 40//40 
f 39//39 41//41 38//38 
f 41//41 36//36 38//38 
f 41//41 42//42 36//36 
f 43//43 44//44 45//45 
f 44//44 46//46 45//45 
f 43//43 47//47 44//44 
f 48//48 44//44 47//47 
f 49//49 47//47 43//43 
f 49//49 43//43 45//45 
f 50//50 51//51 44//44 
f 44//44 48//48 50//50 
f 44//44 51//51 46//46 
f 52//52 45//45 46//46 
f 52//52 49//49 45//45 
f 34//34 49//49 52//52 
f 49//49 53//53 47//47 
f 35//35 53//53 49//49 
f 33//33 49//49 34//34 
f 33//33 35//35 49//49 
f 53//53 48//48 47//47 
f 50//50 48//48 54//54 
f 48//48 55//55 54//54 
f 48//48 53//53 55//55 
f 51//51 50//50 56//56 
f 57//57 56//56 50//50 
f 57//57 50//50 54//54 
f 53//53 42//42 55//55 
f 36//36 53//53 35//35 
f 36//36 42//42 53//53 
f 42//42 3//3 55//55 
f 7//7 55//55 3//3 
f 54//54 55//55 7//7 
f 39//39 58//58 41//41 
f 40//40 58//58 39//39 
f 40//40 19//19 58//58 
f 41//41 58//58 42//42 
f 42//42 58//58 59//59 
f 42//42 59//59 3//3 
f 19//19 60//60 61//61 
f 61//61 58//58 19//19 
f 61//61 59//59 58//58 
f 62//62 63//63 1//1 
f 61//61 64//64 59//59 
f 64//64 62//62 1//1 
f 59//59 64//64 3//3 
f 3//3 64//64 1//1 
f 64//64 65//65 62//62 
f 61//61 65//65 64//64 
f 62//62 65//65 63//63 
f 60//60 66//66 61//61 
f 61//61 66//66 65//65 
f 66//66 67//67 65//65 
f 63//63 65//65 67//67 
f 68//68 67//67 66//66 
f 67//67 68//68 69//69 
f 67//67 69//69 70//70 
f 67//67 70//70 71//71 
f 57//57 71//71 56//56 
f 63//63 71//71 57//57 
f 67//67 71//71 63//63 
f 70//70 72//72 71//71 
f 70//70 69//69 73//73 
f 70//70 73//73 72//72 
f 69//69 68//68 74//74 
f 69//69 74//74 73//73 
f 74//74 75//75 73//73 
f 76//76 73//73 75//75 
f 73//73 76//76 77//77 
f 77//77 76//76 78//78 
f 78//78 76//76 79//79 
f 76//76 75//75 79//79 
f 79//79 80//80 81//81 
f 79//79 82//82 80//80 
f 79//79 75//75 82//82 
f 83//83 84//84 85//85 
f 51//51 56//56 84//84 
f 84//84 86//86 87//87 
f 88//88 86//86 84//84 
f 83//83 66//66 88//88 
f 66//66 83//83 68//68 
f 83//83 88//88 84//84 
f 84//84 56//56 85//85 
f 83//83 85//85 89//89 
f 51//51 84//84 87//87 
f 74//74 83//83 75//75 
f 74//74 68//68 83//83 
f 75//75 83//83 89//89 
f 85//85 56//56 71//71 
f 71//71 72//72 85//85 
f 85//85 72//72 89//89 
f 88//88 90//90 86//86 
f 66//66 60//60 88//88 
f 60//60 90//90 88//88 
f 89//89 77//77 81//81 
f 73//73 77//77 89//89 
f 73//73 89//89 72//72 
f 75//75 89//89 82//82 
f 89//89 81//81 82//82 
f 78//78 79//79 81//81 
f 77//77 78//78 81//81 
f 82//82 81//81 80//80 
f 10//10 17//17 91//91 
f 91//91 14//14 10//10 
f 15//15 13//13 12//12 
f 11//11 13//13 29//29 
f 15//15 29//29 13//13 
f 92//92 15//15 14//14 
f 93//93 15//15 92//92 
f 94//94 29//29 15//15 
f 93//93 94//94 15//15 
f 30//30 29//29 94//94 
f 94//94 95//95 30//30 
f 93//93 95//95 94//94 
f 30//30 95//95 40//40 
f 40//40 17//17 19//19 
f 96//96 40//40 95//95 
f 96//96 97//97 40//40 
f 40//40 98//98 17//17 
f 97//97 98//98 40//40 
f 95//95 93//93 96//96 
f 99//99 96//96 93//93 
f 93//93 92//92 99//99 
f 96//96 99//99 97//97 
f 99//99 100//100 97//97 
f 98//98 97//97 100//100 
f 100//100 99//99 92//92 
f 100//100 92//92 14//14 
f 100//100 14//14 91//91 
f 100//100 91//91 98//98 
f 98//98 91//91 17//17 
f 19//19 20//20 60//60 
f 20//20 22//22 101//101 
f 60//60 20//20 101//101 
f 60//60 101//101 90//90 
f 90//90 101//101 22//22 
f 90//90 22//22 25//25 
f 90//90 25//25 34//34 
f 86//86 90//90 34//34 
f 86//86 34//34 87//87 
f 34//34 52//52 87//87 
f 46//46 87//87 52//52 
f 46//46 51//51 87//87 
f 57//57 54//54 63//63 
f 4//4 63//63 102//102 
f 1//1 63//63 4//4 
f 102//102 63//63 54//54 
f 7//7 102//102 54//54 
f 5//5 4//4 103//103 
f 4//4 102//102 103//103 
f 104//104 102//102 7//7 
f 6//6 104//104 7//7 
f 6//6 5//5 104//104 
f 102//102 104//104 103//103 
f 103//103 104//104 105//105 
f 106//106 107//107 105//105 
f 103//103 105//105 107//107 
f 108//108 107//107 106//106 
f 105//105 108//108 106//106 
f 104//104 108//108 105//105 
f 104//104 109//109 108//108 
f 108//108 110//110 107//107 
f 111//111 110//110 109//109 
f 109//109 110//110 108//108 
f 110//110 112//112 107//107 
f 112//112 111//111 109//109 
f 112//112 109//109 104//104 
f 103//103 107//107 112//112 
f 5//5 103//103 112//112 
f 5//5 112//112 104//104 
f 112//112 110//110 111//111 
