v -74.69049835 26.40188026 -136.0695953
v -74.69248962 26.36048698 -136.062439
v -74.67970276 26.39499092 -136.1077271
v -74.68170166 26.35338783 -136.1005402
v -75.17040253 26.26964378 -136.9696198
v -75.35153198 26.49061966 -135.7061615
v -75.1723938 26.2280426 -136.9624329
v -75.2091217 26.26939964 -136.980545
v -75.8859024 26.3243103 -136.6032104
v -75.21110535 26.22800636 -136.9733887
v -75.87015533 26.35813713 -136.6171112
v -75.94880676 27.1155262 -136.6824646
v -75.36728668 26.45678902 -135.692276
v -75.97044373 27.11426544 -136.6699829
v -75.93776703 27.14728928 -136.6603699
v -75.95948792 27.14602661 -136.6478271
v -75.44708252 27.27263641 -135.7984924
v -75.45182037 27.24674606 -135.7590332
v -75.46880341 27.27136993 -135.7859344
v -75.43019104 27.24800491 -135.7715302
v -75.08974457 26.16682243 -137.6221008
v -74.96479797 26.11937141 -137.7860107
v -74.75682831 26.263237 -137.5708771
v -74.60580444 26.87245178 -137.9184113
v -75.02565765 26.67988777 -136.2767181
v -75.01930237 26.61222076 -136.2554932
v -74.98990631 26.63448524 -136.2768402
v -74.96029663 26.34547424 -137.0474854
v -75.0641861 26.4774189 -137.0471497
v -75.04571533 26.28077507 -136.9854584
v -75.08639526 26.41977882 -137.6593018
v -74.87234497 26.77504158 -137.4642944
v -74.85562897 27.14267731 -137.5603333
v -74.72148895 27.1933918 -137.7156372
v -74.85701752 25.7737484 -137.5470428
v -74.95900726 25.93683052 -137.3130035
v -74.8236618 25.94025803 -137.4394989
v -75.4900589 26.17951393 -136.540863
v -74.98896027 25.41730499 -137.072876
v -74.73769379 25.46520233 -137.6613922
v -73.88951874 25.39548111 -137.3717346
v -74.63347626 25.94128418 -137.7659149
v -74.64286041 25.54728317 -137.7065582
v -74.13640594 25.48752403 -137.6449585
v -74.31317902 26.92369652 -137.77742
v -73.69316864 26.25825691 -137.3359528
v -73.68824005 25.8616066 -137.049118
v -73.77379608 26.26713562 -136.9722748
v -73.54380035 26.72276497 -137.0371246
v -73.66945648 26.88567543 -137.2899933
v -73.65940857 27.07211494 -136.7932892
v -74.17854309 27.12489891 -136.9782715
v -73.91675568 26.74178696 -136.6291809
v -74.6300354 27.54257774 -136.8323212
v -74.69921875 27.61388016 -137.1147308
v -74.67028046 27.37975693 -136.8661804
v -74.58460999 27.15541649 -136.9594116
v -74.2693634 27.61226273 -136.8631592
v -74.73275757 27.81582069 -136.8766174
v -74.56524658 27.84917641 -136.802597
v -74.54743958 27.87213135 -137.2677612
v -74.52112579 27.5675602 -137.2551727
v -74.50267029 27.18480682 -137.2384491
v -74.43041992 28.02264595 -137.0432281
v -74.22071838 27.8614006 -136.9598846
v -74.14421082 27.59563637 -137.1151276
v -73.96593475 27.25221062 -137.0184479
v -74.31827545 27.95169258 -137.157074
v -74.31162262 27.8893013 -137.2729645
v -74.21102142 27.72085953 -137.2331238
v -74.34667969 27.32542992 -137.3818054
v -74.23947144 26.46978188 -136.6666107
v -73.94300842 26.20954323 -136.8312378
v -73.82128906 26.20819664 -136.5464325
v -74.44562531 26.20273781 -136.3299866
v -73.67952728 26.06304359 -136.6010437
v -73.83654022 25.94101906 -136.827713
v -73.93824768 25.88642502 -136.6167755
v -73.75835419 25.74308586 -136.8116913
v -73.84714508 25.76671028 -136.6230621
v -73.67389679 25.48855209 -137.0755005
v -74.4805069 25.30196953 -135.8557739
v -74.57369995 25.20267677 -136.1192627
v -74.59687805 24.4276371 -136.1322632
v -74.56759644 24.4030571 -135.9732666
v -74.60977173 24.14526939 -136.1653748
v -74.92234039 23.7655735 -135.6977081
v -75.04273224 24.01017952 -135.834137
v -75.33046722 23.86391068 -135.6307983
v -75.05112457 23.76547432 -135.9734497
v -74.56165314 23.80371284 -136.2190552
v -74.85254669 24.23210907 -136.0839539
v -74.86719513 24.16446114 -135.9054718
v -74.85786438 25.45836067 -135.8530731
v -74.61359406 25.37367058 -135.7124023
v -74.39648438 25.69244003 -135.9506378
v -75.16149902 25.96227837 -136.0397186
v -75.25203705 26.24256706 -136.3149872
v -74.62851715 25.69406319 -135.8262634
v -74.84216309 26.21816826 -136.4031677
v -74.97909546 26.25242805 -136.3449097
v -74.68825531 26.35527039 -136.2501373
v -75.0672226 26.28570747 -136.1525879
v -74.44458771 26.13749504 -136.238205
v -74.45027924 26.03367233 -136.3532715
v -74.21389771 25.99738121 -136.5962067
v -74.68123627 25.73942757 -136.1652069
v -74.58827209 25.85385513 -136.7243805
v -74.6389389 26.07204437 -136.8405762
v -74.98722076 26.11803818 -136.7246094
v -74.36097717 26.33554077 -136.7658844
v -74.74861145 26.40445709 -137.0122833
v -74.81095123 25.33596992 -136.0937195
v -74.44203186 25.38982773 -136.9743042
v -75.02174377 25.92893028 -136.425705
v -75.45649719 25.90262985 -136.4175873
v -74.46421051 25.60106087 -135.6141205
v -74.46065521 25.76498795 -135.5387573
v -74.68029022 25.78255653 -135.0648041
v -74.39647675 25.52129364 -135.2210083
v -74.47503662 25.85731506 -135.1219788
v -74.18612671 25.73752403 -135.3447571
v -74.11976624 25.58387947 -135.8169098
v -73.91799927 25.57648277 -135.611969
v -74.42747498 25.86726952 -135.785141
vn 0.4924625456 0.4430218041 0.7491410375
vn 0.4398112893 -0.4250656366 0.7911291122
vn 0.08713287115 0.9781739712 -0.1886359155
vn 0.04355154186 -0.9916837215 0.1211057454
vn 0.8337888122 0.1910891533 -0.5179586411
vn 0.6041603088 0.6814701557 -0.4130238891
vn -0.02471576631 -0.987445116 0.156016916
vn 0.03173059225 0.9821958542 -0.1851605773
vn -0.6092196107 -0.690541029 0.3898776472
vn -0.4618091285 -0.4534582496 -0.7623043656
vn 0.5808982253 0.6461241245 -0.4950564802
vn 0.00673473021 -0.06886341423 -0.9976033568
vn -0.5811769962 -0.6690524817 0.4632516205
vn -0.8708032966 -0.05103942752 0.4889750183
vn 0.8629829884 0.06234803051 -0.5013712049
vn -0.5201836824 0.8389461637 0.1599320322
vn 0.3357543349 0.890704155 -0.3064557016
vn -0.8429281712 -0.04407314584 0.5362179279
vn -0.8202490807 0.3661234975 0.4394826889
vn 0.8770665526 0.05163408443 -0.4775858223
vn -0.3095612228 -0.9323550463 0.1867776215
vn 0.04720376432 -0.4140890837 -0.9090116024
vn -0.9210672379 -0.3732377291 -0.1110347211
vn -0.1817062497 0.005676579662 -0.9833364487
vn 0.5994623303 0.7709837556 -0.2150090933
vn -0.9739453793 -0.1847092211 0.1315783709
vn 0.8915521502 -0.4049684405 0.2028184384
vn 0.9194430113 -0.3595724106 0.1591611505
vn -0.2297592312 0.9727714062 -0.03043907322
vn -0.872500062 -0.4480083287 0.1950183213
vn -0.883454442 0.3355249465 -0.3270034492
vn -0.882614255 -0.1046519205 0.4583012462
vn -0.7201234102 0.4293023944 0.5450887084
vn -0.3327127099 0.6994398832 -0.6325235963
vn -0.8450624943 -0.1095986217 -0.5233139396
vn -0.140395999 0.9248416424 -0.3534924388
vn -0.9580833316 0.1988029033 -0.2062854767
vn -0.8903813958 0.2676044703 -0.3682509661
vn -0.5687867999 -0.8073052764 -0.1572889835
vn -0.2880989015 -0.8948655725 -0.3409026861
vn 0.06663018465 -0.985078752 -0.1586828977
vn -0.3832996488 -0.1301426142 -0.9144092798
vn -0.008691115305 -0.2120306194 -0.97722435
vn 0.534547627 -0.1198167875 -0.836601913
vn 0.4580597281 0.1248452365 -0.8801107407
vn 0.7722339034 -0.0761917606 -0.6307532191
vn 0.9723042846 -0.0542679131 -0.2273310274
vn 0.9713357687 -0.1652986258 0.1708307415
vn 0.993794322 -0.0933380574 0.06050536409
vn 0.6799263954 0.4398751855 -0.5866940618
vn 0.634298861 0.5012184978 0.5885957479
vn -0.3989281058 0.3671319485 0.8402799964
vn -0.2628573477 0.2302946299 0.9369474053
vn -0.4612800181 -0.1594474614 0.8728099465
vn -0.9320365787 -0.1199797615 -0.3419249356
vn -0.4787600935 -0.3240230083 0.8159643412
vn -0.313491255 -0.5969968438 0.7384564877
vn 0.363386929 -0.08096523583 0.9281134605
vn -0.8887392879 0.4516706169 0.07833369076
vn 0.1514929533 0.4306411743 0.8897179961
vn -0.5959686041 0.4919931591 -0.6346370578
vn -0.3449184895 0.02898455039 -0.9381850362
vn -0.8610877395 0.317219466 0.3973659873
vn -0.2891335785 0.9566063881 0.0361382924
vn 0.6876336336 0.5293716788 0.4969160855
vn 0.9098149538 0.3823820055 0.161309585
vn 0.7913563848 0.5987146497 0.1236765832
vn 0.6109432578 0.7914827466 -0.01741971634
vn 0.1711592525 0.1579690427 -0.9724969268
vn 0.5635265112 0.2005761564 -0.8013782501
vn 0.3790327609 0.642029047 -0.6664329767
vn -0.440749675 0.3069310188 0.8435242176
vn -0.3806844652 0.4972768128 0.779612124
vn 0.4576217532 0.2443177253 0.8549217582
vn -0.2043231875 0.8485713601 -0.4880355299
vn 0.9186062217 -0.3101926446 0.2448328435
vn 0.954539299 -0.2919427156 -0.06020099297
vn 0.5707542896 0.0347327888 0.8203859925
vn 0.9028512239 0.1810215116 0.389988333
vn 0.8207427859 -0.09066945314 0.5640569925
vn 0.7784961462 -0.6167358756 0.1165358201
vn 0.8093912005 -0.3228435218 0.4905690253
vn 0.2272645682 -0.9475513101 -0.2247160077
vn 0.4312861264 -0.00580769591 -0.9021965265
vn 0.7527220845 -0.2474120557 0.6100792885
vn 0.8646293879 0.08430376649 0.4952866435
vn 0.5760575533 -0.2686047256 0.7720163465
vn -0.1798849553 0.8318736553 0.5250025392
vn -0.886703968 -0.2054008543 0.4142059982
vn -0.5901411176 -0.45455724 -0.6671665311
vn 0.2330919206 -0.6405990124 -0.7316427231
vn -0.7347208858 0.07449777424 -0.6742665172
vn -0.1041575968 -0.1954845041 0.9751600027
vn -0.9362295866 0.09964687377 0.336963892
vn 0.05725617707 -0.0268481262 0.997998476
vn 0.762737453 0.6205797195 0.1819680929
vn -0.5395072103 0.1758097559 0.8234214783
vn 0.3814806044 0.9243678451 0.004076736514
vn -0.7297251821 -0.3569204807 0.5831885338
vn 0.05823041499 0.3436693549 -0.9372836351
vn -0.6003790498 -0.7968704104 0.06739819795
vn 0.1652131677 0.983084619 0.07905204594
vn -0.2347379476 -0.2106514573 0.9489594698
vn 0.1725258827 -0.5032941103 0.8467171192
vn -0.3643954992 -0.8737912178 -0.3220322728
vn -0.3295853138 0.715294838 0.6162198186
vn -0.930632472 0.3625005782 -0.05016497523
vn -0.7597952485 0.5370441079 0.3664625585
vn -0.545096755 0.6050931811 0.5802859068
vn 0.2583863139 0.9659001827 0.01653410494
vn -0.5257239342 0.1628239751 0.8349267244
vn -0.8547122478 0.1617873311 0.4932462275
vn -0.8496543169 -0.03531144932 -0.5261564851
vn -0.3127616346 -0.9309179783 0.188605234
vn 0.8661486506 -0.08432713896 0.4926210344
vn -0.3951306641 -0.8562117219 0.3328261971
vn -0.4513239861 -0.8856072426 -0.1095739529
vn -0.9949886799 0.07908719033 -0.06117755547
vn -0.9723966122 -0.2326402813 0.0179821495
vn -0.07572241127 -0.9384473562 0.3370202482
vn 0.2337032855 0.8380399346 0.4930231869
vn 0.6559823751 0.6589434147 0.3680769503
vn 0.1692446917 -0.8592228889 -0.4827963114
vn 0.976518631 0.2033732682 0.07106819749
vn 0.2523117363 0.9582825303 0.1342885196
f 1//1 2//2 3//3 
f 3//3 2//2 4//4 
f 4//4 5//5 3//3 
f 3//3 6//6 1//1 
f 5//5 4//4 7//7 
f 5//5 7//7 8//8 
f 8//8 3//3 5//5 
f 8//8 6//6 3//3 
f 7//7 9//9 10//10 
f 8//8 7//7 10//10 
f 10//10 11//11 8//8 
f 11//11 10//10 9//9 
f 6//6 8//8 11//11 
f 9//9 12//12 11//11 
f 13//13 4//4 2//2 
f 1//1 13//13 2//2 
f 13//13 1//1 6//6 
f 7//7 4//4 13//13 
f 7//7 13//13 9//9 
f 12//12 9//9 14//14 
f 13//13 14//14 9//9 
f 12//12 14//14 15//15 
f 15//15 11//11 12//12 
f 15//15 6//6 11//11 
f 15//15 14//14 16//16 
f 16//16 17//17 15//15 
f 6//6 18//18 13//13 
f 14//14 13//13 18//18 
f 14//14 19//19 16//16 
f 18//18 19//19 14//14 
f 17//17 16//16 19//19 
f 17//17 19//19 20//20 
f 6//6 15//15 20//20 
f 20//20 15//15 17//17 
f 18//18 6//6 20//20 
f 20//20 19//19 18//18 
f 21//21 22//22 23//23 
f 23//23 22//22 24//24 
f 25//25 26//26 27//27 
f 27//27 28//28 25//25 
f 25//25 29//29 26//26 
f 26//26 30//30 27//27 
f 25//25 28//28 29//29 
f 26//26 29//29 30//30 
f 27//27 30//30 28//28 
f 30//30 21//21 28//28 
f 29//29 31//31 30//30 
f 31//31 21//21 30//30 
f 23//23 29//29 28//28 
f 23//23 31//31 29//29 
f 31//31 23//23 32//32 
f 32//32 33//33 31//31 
f 34//34 31//31 33//33 
f 31//31 34//34 24//24 
f 31//31 24//24 22//22 
f 31//31 22//22 21//21 
f 28//28 21//21 23//23 
f 35//35 36//36 37//37 
f 38//38 36//36 35//35 
f 38//38 35//35 39//39 
f 35//35 40//40 39//39 
f 40//40 41//41 39//39 
f 24//24 42//42 23//23 
f 37//37 23//23 42//42 
f 43//43 35//35 37//37 
f 37//37 42//42 43//43 
f 35//35 43//43 40//40 
f 40//40 43//43 41//41 
f 43//43 44//44 41//41 
f 34//34 45//45 24//24 
f 24//24 45//45 42//42 
f 45//45 43//43 42//42 
f 43//43 45//45 44//44 
f 46//46 44//44 45//45 
f 47//47 44//44 46//46 
f 46//46 48//48 47//47 
f 48//48 46//46 49//49 
f 46//46 50//50 49//49 
f 45//45 50//50 46//46 
f 49//49 50//50 51//51 
f 51//51 52//52 53//53 
f 54//54 55//55 56//56 
f 56//56 55//55 57//57 
f 58//58 54//54 56//56 
f 59//59 55//55 54//54 
f 60//60 59//59 54//54 
f 58//58 60//60 54//54 
f 59//59 61//61 55//55 
f 55//55 61//61 62//62 
f 55//55 62//62 63//63 
f 55//55 63//63 57//57 
f 56//56 57//57 58//58 
f 59//59 60//60 64//64 
f 59//59 64//64 61//61 
f 65//65 60//60 58//58 
f 65//65 58//58 66//66 
f 67//67 58//58 57//57 
f 66//66 58//58 67//67 
f 65//65 68//68 60//60 
f 68//68 65//65 66//66 
f 68//68 64//64 60//60 
f 68//68 61//61 64//64 
f 61//61 69//69 62//62 
f 61//61 68//68 69//69 
f 66//66 70//70 68//68 
f 69//69 68//68 70//70 
f 69//69 70//70 62//62 
f 66//66 67//67 70//70 
f 67//67 71//71 70//70 
f 62//62 70//70 71//71 
f 71//71 63//63 62//62 
f 72//72 52//52 63//63 
f 33//33 72//72 63//63 
f 33//33 63//63 34//34 
f 71//71 34//34 63//63 
f 57//57 63//63 52//52 
f 45//45 71//71 50//50 
f 71//71 67//67 50//50 
f 45//45 34//34 71//71 
f 51//51 50//50 67//67 
f 67//67 52//52 51//51 
f 57//57 52//52 67//67 
f 72//72 53//53 52//52 
f 73//73 53//53 72//72 
f 51//51 53//53 74//74 
f 49//49 51//51 74//74 
f 53//53 73//73 74//74 
f 75//75 74//74 73//73 
f 49//49 74//74 76//76 
f 48//48 49//49 77//77 
f 76//76 77//77 49//49 
f 47//47 48//48 77//77 
f 76//76 78//78 77//77 
f 76//76 74//74 78//78 
f 47//47 77//77 79//79 
f 79//79 77//77 78//78 
f 78//78 80//80 79//79 
f 81//81 41//41 44//44 
f 79//79 80//80 81//81 
f 47//47 79//79 81//81 
f 47//47 81//81 44//44 
f 81//81 80//80 82//82 
f 83//83 81//81 82//82 
f 81//81 83//83 41//41 
f 82//82 84//84 83//83 
f 84//84 82//82 85//85 
f 85//85 86//86 84//84 
f 87//87 88//88 89//89 
f 87//87 86//86 88//88 
f 89//89 88//88 90//90 
f 87//87 89//89 90//90 
f 90//90 91//91 87//87 
f 91//91 86//86 87//87 
f 92//92 91//91 90//90 
f 88//88 92//92 90//90 
f 92//92 86//86 91//91 
f 84//84 86//86 92//92 
f 88//88 86//86 93//93 
f 88//88 93//93 92//92 
f 86//86 85//85 93//93 
f 82//82 93//93 85//85 
f 92//92 93//93 94//94 
f 95//95 93//93 82//82 
f 93//93 95//95 94//94 
f 82//82 96//96 95//95 
f 96//96 82//82 80//80 
f 78//78 96//96 80//80 
f 97//97 98//98 38//38 
f 95//95 96//96 99//99 
f 100//100 101//101 102//102 
f 103//103 102//102 101//101 
f 104//104 103//103 101//101 
f 102//102 75//75 100//100 
f 100//100 105//105 101//101 
f 104//104 101//101 105//105 
f 100//100 75//75 105//105 
f 102//102 103//103 104//104 
f 104//104 75//75 102//102 
f 104//104 105//105 106//106 
f 105//105 75//75 106//106 
f 74//74 75//75 104//104 
f 78//78 74//74 104//104 
f 106//106 78//78 104//104 
f 96//96 78//78 106//106 
f 106//106 75//75 73//73 
f 72//72 106//106 73//73 
f 107//107 96//96 106//106 
f 108//108 107//107 106//106 
f 106//106 109//109 108//108 
f 109//109 37//37 36//36 
f 110//110 108//108 109//109 
f 110//110 109//109 36//36 
f 111//111 72//72 112//112 
f 37//37 112//112 23//23 
f 112//112 72//72 33//33 
f 33//33 32//32 112//112 
f 112//112 32//32 23//23 
f 109//109 106//106 111//111 
f 106//106 72//72 111//111 
f 112//112 37//37 109//109 
f 111//111 112//112 109//109 
f 108//108 113//113 107//107 
f 113//113 108//108 114//114 
f 115//115 114//114 108//108 
f 110//110 115//115 108//108 
f 38//38 98//98 110//110 
f 110//110 98//98 115//115 
f 38//38 110//110 36//36 
f 115//115 116//116 114//114 
f 116//116 115//115 107//107 
f 96//96 107//107 115//115 
f 115//115 98//98 96//96 
f 113//113 99//99 107//107 
f 116//116 107//107 99//99 
f 38//38 116//116 97//97 
f 97//97 116//116 99//99 
f 38//38 39//39 116//116 
f 39//39 114//114 116//116 
f 39//39 41//41 114//114 
f 113//113 114//114 83//83 
f 83//83 114//114 41//41 
f 113//113 94//94 99//99 
f 84//84 113//113 83//83 
f 113//113 92//92 94//94 
f 92//92 113//113 84//84 
f 95//95 99//99 94//94 
f 99//99 96//96 117//117 
f 99//99 117//117 118//118 
f 119//119 118//118 120//120 
f 120//120 118//118 117//117 
f 119//119 120//120 121//121 
f 119//119 121//121 118//118 
f 121//121 120//120 122//122 
f 123//123 117//117 96//96 
f 117//117 123//123 120//120 
f 124//124 122//122 120//120 
f 125//125 122//122 124//124 
f 121//121 122//122 125//125 
f 121//121 125//125 118//118 
f 118//118 125//125 99//99 
f 96//96 125//125 123//123 
f 120//120 123//123 124//124 
f 98//98 125//125 96//96 
f 97//97 125//125 98//98 
f 97//97 99//99 125//125 
f 125//125 124//124 123//123 
