v -14.46863842 23.78677177 -122.6078949
v -14.5594492 23.77200508 -122.3130951
v -14.70028591 23.82595444 -122.5116272
v -13.91940308 23.77934647 -122.2109299
v -13.85311413 24.98288727 -122.354538
v -13.8435564 25.04529572 -122.1016846
v -13.98917675 24.1820507 -122.2569733
v -13.46356297 25.17380905 -121.7256241
v -13.4436121 25.17644119 -122.1077347
v -13.97683716 25.22163963 -122.0448532
v -13.24131584 25.39707756 -121.4901962
v -12.69994164 25.20795631 -121.6053467
v -12.54806137 25.28662491 -121.6470718
v -12.3644495 25.87424469 -121.728714
v -12.47364521 25.95178413 -121.5890503
v -12.32022667 25.95985222 -122.0808487
v -12.42497063 25.66557693 -122.3611221
v -12.54017067 26.01543999 -122.3385544
v -12.72666359 25.73444176 -122.5241623
v -12.66176891 25.43604279 -122.5264282
v -12.45756912 25.32604408 -122.2488632
v -12.78620434 25.14225388 -122.0436935
v -13.08400631 25.30982971 -122.5444641
v -13.04293633 25.69249344 -122.5434265
v -13.91688347 25.58107567 -122.4406586
v -13.53846455 25.37269974 -122.276535
v -13.91407204 25.49427795 -122.3958435
v -13.97575855 25.20668983 -122.4495239
v -14.06517124 24.1830616 -122.3979111
v -14.31273937 24.06785011 -122.4354858
v -14.15683079 24.11756897 -122.1998901
v -14.31813335 24.28105354 -121.904335
v -14.35188961 24.3254528 -121.7488937
v -15.01041985 24.08004189 -122.1000061
v -14.34016418 24.65409851 -121.9535828
v -14.71082401 24.5496788 -121.8859787
v -14.61408806 24.44556046 -122.0679321
v -15.1135006 24.1737957 -121.9153595
v -14.26284504 24.95129013 -121.8831329
v -14.49097443 24.92687988 -122.1225128
v -14.27356625 24.93021584 -122.1812057
v -14.23642731 25.53644753 -122.3922043
v -14.39764118 25.51697159 -122.1536102
v -14.43193626 25.03595161 -121.9246902
v -14.26588249 24.64886475 -122.3978424
v -14.15688705 25.98154259 -122.2560349
v -14.15617847 25.95532227 -122.1061707
v -13.65113544 25.84094238 -122.0206223
v -13.09615517 25.8463974 -122.1779022
v -13.08244801 25.88240242 -121.6072464
v -13.0021553 26.01608276 -121.8686066
v -13.90131569 26.69028473 -121.4981842
v -13.60485268 26.62638092 -121.6223526
v -13.88139153 26.65835381 -121.6335373
v -13.64247704 26.57190704 -121.4274445
v -13.13742828 25.92519379 -121.3611679
v -13.58769035 26.71837616 -121.5044327
v -13.18875027 26.32626724 -121.4165115
v -13.08127689 26.08272362 -121.4861832
v -13.01532173 26.15292931 -121.2246933
v -12.84134865 26.37959671 -121.5227432
v -12.99513149 26.72684669 -121.5826645
v -12.91404533 26.99097824 -121.4231339
v -12.69518757 26.71976089 -121.4500961
v -12.87209988 26.18192291 -121.6888504
v -12.65082359 26.11573219 -121.5382385
v -12.77953434 25.67210579 -121.4061356
v -12.80926228 26.19112587 -122.2361832
v -13.10189342 26.39173889 -121.8041153
v -12.8524313 26.97639465 -121.8398132
v -12.93606949 26.32901573 -122.3489914
v -12.73768044 25.9722271 -122.3798599
v -13.17388439 26.38045883 -122.4380951
v -12.94745731 26.22349358 -122.6067657
v -12.9690361 26.36130524 -122.480751
v -12.81541729 27.30047226 -122.1884232
v -12.55588913 27.27097702 -122.0891571
v -12.81487846 27.02909088 -122.0942535
v -13.0422411 27.41377258 -122.206665
v -12.68057156 27.67841911 -122.3224792
v -12.39160824 27.60569954 -122.0708008
v -12.51734257 27.11275291 -122.4003677
v -12.74737263 26.75889015 -122.4144135
v -13.07604313 27.15373039 -121.9903717
v -12.73416996 27.18572807 -121.8649826
v -13.15213299 27.74897385 -122.1050415
v -12.71870136 27.98235893 -122.0839844
v -12.46850395 27.4238739 -121.9162216
v -12.28044987 26.4918766 -121.8905029
v -12.21826839 26.90792656 -122.1233749
v -12.32321548 26.95853043 -122.3585587
v -12.71066666 27.56255913 -121.7593689
v -12.64874077 27.89350128 -121.8324356
v -12.57201099 26.93159676 -122.626915
v -12.67067242 26.32532501 -122.4710922
v -12.34630585 26.65342903 -122.4276962
v -12.43866539 26.09353447 -122.6515961
v -12.47238827 25.85221481 -122.5349884
v -13.20647335 26.68377304 -122.4392776
v -13.2876873 26.73272324 -122.3170471
v -13.1922245 26.59805107 -122.1978455
v -12.52673244 26.89967918 -121.5363541
v -13.11652565 27.39481544 -121.8921204
v -12.46167374 27.0411911 -121.8452835
v -13.0658102 27.76172256 -121.8361053
v -13.13539696 25.69757271 -121.540535
v -13.21208 25.73917961 -122.018013
v -13.40243149 25.7148819 -121.7406998
v -13.88988876 25.60880852 -121.9968719
v -14.02192593 25.57047844 -121.925293
v -14.1406002 24.93549156 -122.0685883
v -14.28994751 24.36836243 -122.284874
vn 0.2768310905 -0.4859045148 -0.8290122747
vn -0.4664650559 -0.3950674534 0.7914114594
vn -0.7919585109 0.5713416934 -0.215337798
vn 0.6219314337 -0.777659297 0.09190934151
vn 0.9051659703 -0.08992286772 -0.4154376686
vn 0.5528876781 -0.600638926 0.5775362253
vn 0.9559344649 -0.1635211706 0.2438238561
vn -0.1061056033 -0.9177902937 0.3826258481
vn 0.1913944334 -0.8989425898 -0.3940435946
vn -0.3804316521 -0.2094810903 0.9007715583
vn -0.392914772 -0.1112305373 0.9128229618
vn 0.0889217481 -0.7846928835 0.6134737134
vn 0.7920983434 -0.4506185651 0.411731869
vn 0.9551951289 -0.1874825507 0.2290251404
vn 0.6534730792 -0.03067145869 0.7563281059
vn 0.9671455622 -0.1400946528 -0.2121390849
vn 0.7568665743 0.03450103849 -0.6526581645
vn 0.8662220836 -0.1028868705 -0.4889515042
vn 0.1121408567 0.7051707506 -0.7001133561
vn 0.3377593458 -0.2485430092 -0.9078243375
vn 0.7943252325 -0.5827482343 -0.171615541
vn 0.08192794025 -0.9833695292 -0.1620870829
vn -0.07036649436 -0.7145127058 -0.6960747838
vn -0.08415255696 0.2260729969 -0.9704686403
vn -0.1931858659 -0.01783614606 -0.9810000658
vn -0.03407479823 -0.789822042 -0.6123888493
vn 0.162976265 -0.002266212134 -0.9866273999
vn 0.2488149554 -0.1800424308 -0.9516700506
vn 0.2333096564 -0.03122448549 -0.9719010592
vn -0.6567490101 0.7337959409 -0.1738510281
vn -0.1774590611 -0.05775276199 0.982432127
vn 0.5690230131 -0.4973401725 -0.6548782587
vn 0.0749072656 -0.2912426591 0.9537120461
vn 0.126071617 -0.8897996545 -0.4385915101
vn 0.9369000793 -0.2835471034 0.2044975162
vn -0.5054386258 0.5120569468 0.6944994926
vn -0.08179170638 0.04353054985 -0.9956983328
vn -0.7308334112 0.1643074006 0.6624844074
vn 0.1270671636 -0.002400487429 0.9918912053
vn -0.8907289505 0.1367021501 -0.4334910512
vn -0.6763042808 -0.3573448658 -0.6441406608
vn -0.4769071639 0.05308810622 -0.8773489594
vn -0.9546898603 0.292827487 -0.05309718102
vn -0.591524303 0.2123952806 0.7778092623
vn -0.761610806 -0.02460613288 -0.6475673914
vn -0.1414783299 0.8278778791 -0.5427725911
vn -0.3908240199 0.450065583 0.8029305935
vn 0.06235120445 0.6850547194 0.7258183956
vn -0.2003278285 0.9773113728 -0.06878387183
vn -0.6052514911 0.7120406032 0.3559056222
vn -0.7763773799 0.628898859 0.04152564704
vn -0.2825071812 0.9366127253 0.207234934
vn -0.1429992914 -0.1682551801 -0.9753160477
vn -0.3232791126 -0.8933606744 -0.3120854199
vn -0.5175639391 -0.2968373299 0.8025055528
vn -0.4022065401 -0.9138066769 0.05645535886
vn 0.4022472203 0.8586657047 0.3176324069
vn -0.3431540132 0.9121824503 -0.2239833325
vn 0.08850925416 -0.1250342429 -0.9881966114
vn 0.1668285429 0.003850325011 0.9859784245
vn 0.2437710911 -0.9686124921 -0.04863583669
vn -0.9927656651 0.0866554603 -0.08310942352
vn -0.3807086349 0.5735607147 0.7253199816
vn 0.413900435 -0.04574011639 0.9091722965
vn -0.8578968048 -0.1092826948 0.5020661354
vn -0.1141090766 0.008487290703 0.9934319854
vn 0.002092042239 0.08512483537 0.9963681102
vn -0.9249655008 -0.3442927599 -0.1609386951
vn -0.9885318279 0.02363110706 -0.1491522193
vn -0.9061872959 0.4089126289 -0.107773006
vn -0.971026361 0.05684388429 -0.2321133018
vn -0.9272728562 -0.1258918047 -0.3525851965
vn -0.8265755773 -0.5523822904 0.1079196408
vn -0.3700995743 -0.2092724293 -0.9051139951
vn 0.6846268177 0.7276790142 0.04206398129
vn 0.1211429536 -0.351360321 -0.9283697009
vn -0.08706163615 0.06449087709 -0.9941132665
vn -0.847252965 0.1806022525 -0.4995450079
vn -0.5815896392 -0.2109519541 -0.785654366
vn 0.1282761097 0.1281617433 -0.9834225178
vn 0.9188556075 0.3933196962 -0.03168569133
vn -0.4415724576 0.6368548274 -0.6320044994
vn -0.8245849609 0.2767848969 -0.4934062958
vn -0.7070950866 -0.6834583879 0.1813867241
vn -0.09525354952 0.2490750253 0.963788569
vn -0.7350876927 0.4315626323 -0.5228764415
vn 0.08244530112 0.9449081421 -0.3167829216
vn 0.5645162463 0.1147501618 0.8174067736
vn 0.8968575597 0.06687070429 0.4372354448
vn 0.9974075556 0.0296753291 -0.06555535644
vn 0.7641770244 0.2796174884 -0.5812465549
vn 0.1642443985 -0.03656993806 0.9857415557
vn 0.3846783638 0.5692380071 0.7266296744
vn -0.05151079595 0.1997478157 -0.9784924388
vn -0.4794232249 0.2410817891 -0.8438204527
vn 0.9188676476 -0.09778846055 -0.3822559714
vn 0.244436428 0.03465110809 -0.9690459967
vn 0.5590061545 -0.8033274412 -0.2053708434
vn 0.351377219 0.6898053885 -0.6330106854
vn -0.9940715432 -0.1067249328 0.02077478729
vn 0.5088745952 0.05802356079 0.8588829637
vn 0.6974200606 0.298030436 0.6517539024
vn -0.711098969 -0.2199288458 0.667809546
vn 0.6468484402 0.3990817368 0.6498621702
vn -0.4883997738 0.4860400259 0.7247280478
vn -0.4856435061 0.5633618832 0.6684113741
vn -0.3130340278 0.8755720258 0.3679447174
vn -0.3864226639 0.7835922837 0.4864777923
vn -0.3380943835 0.3670621812 0.8665780425
vn 0.1187649593 0.08485075086 0.989290297
vn 0.1690641493 -0.2925440669 0.9411882162
vn -0.9732807875 -0.07188793272 0.2180749178
f 1//1 2//2 3//3 
f 4//4 2//2 1//1 
f 5//5 6//6 7//7 
f 8//8 6//6 9//9 
f 8//8 10//10 6//6 
f 10//10 8//8 11//11 
f 12//12 11//11 8//8 
f 13//13 14//14 15//15 
f 16//16 17//17 18//18 
f 17//17 19//19 18//18 
f 17//17 20//20 19//19 
f 14//14 13//13 21//21 
f 16//16 14//14 21//21 
f 17//17 16//16 21//21 
f 17//17 21//21 20//20 
f 13//13 12//12 22//22 
f 21//21 13//13 22//22 
f 21//21 22//22 23//23 
f 20//20 21//21 23//23 
f 22//22 12//12 8//8 
f 22//22 8//8 9//9 
f 24//24 20//20 23//23 
f 19//19 20//20 24//24 
f 24//24 23//23 25//25 
f 23//23 22//22 26//26 
f 23//23 26//26 25//25 
f 26//26 22//22 9//9 
f 26//26 27//27 25//25 
f 26//26 9//9 28//28 
f 9//9 6//6 28//28 
f 6//6 5//5 28//28 
f 27//27 26//26 28//28 
f 5//5 29//29 28//28 
f 5//5 7//7 29//29 
f 29//29 7//7 4//4 
f 29//29 4//4 1//1 
f 2//2 30//30 3//3 
f 30//30 1//1 3//3 
f 1//1 30//30 29//29 
f 6//6 31//31 7//7 
f 7//7 31//31 4//4 
f 32//32 33//33 34//34 
f 32//32 35//35 33//33 
f 33//33 35//35 36//36 
f 35//35 32//32 37//37 
f 37//37 32//32 34//34 
f 33//33 36//36 38//38 
f 34//34 33//33 38//38 
f 38//38 37//37 34//34 
f 37//37 38//38 36//36 
f 35//35 39//39 36//36 
f 40//40 37//37 36//36 
f 39//39 40//40 36//36 
f 41//41 35//35 37//37 
f 40//40 41//41 37//37 
f 40//40 42//42 41//41 
f 43//43 40//40 44//44 
f 43//43 42//42 40//40 
f 39//39 44//44 40//40 
f 27//27 28//28 42//42 
f 27//27 42//42 25//25 
f 41//41 42//42 45//45 
f 42//42 29//29 45//45 
f 46//46 42//42 43//43 
f 47//47 46//46 43//43 
f 47//47 43//43 44//44 
f 46//46 25//25 42//42 
f 42//42 28//28 29//29 
f 47//47 48//48 46//46 
f 49//49 46//46 48//48 
f 49//49 19//19 46//46 
f 49//49 50//50 51//51 
f 52//52 53//53 54//54 
f 55//55 53//53 56//56 
f 57//57 53//53 52//52 
f 53//53 55//55 54//54 
f 57//57 58//58 53//53 
f 55//55 57//57 52//52 
f 52//52 54//54 55//55 
f 59//59 56//56 53//53 
f 59//59 53//53 58//58 
f 55//55 58//58 57//57 
f 56//56 60//60 55//55 
f 60//60 58//58 55//55 
f 61//61 59//59 58//58 
f 62//62 61//61 58//58 
f 62//62 58//58 63//63 
f 63//63 58//58 60//60 
f 56//56 59//59 61//61 
f 61//61 60//60 56//56 
f 64//64 60//60 61//61 
f 63//63 60//60 64//64 
f 65//65 66//66 61//61 
f 62//62 65//65 61//61 
f 66//66 65//65 67//67 
f 65//65 51//51 67//67 
f 65//65 68//68 51//51 
f 62//62 69//69 65//65 
f 69//69 68//68 65//65 
f 62//62 70//70 69//69 
f 68//68 69//69 71//71 
f 68//68 71//71 72//72 
f 51//51 68//68 72//72 
f 51//51 72//72 49//49 
f 72//72 19//19 49//49 
f 18//18 19//19 72//72 
f 71//71 73//73 72//72 
f 73//73 74//74 72//72 
f 71//71 75//75 73//73 
f 76//76 77//77 78//78 
f 76//76 78//78 79//79 
f 76//76 79//79 80//80 
f 77//77 80//80 81//81 
f 77//77 81//81 82//82 
f 78//78 77//77 82//82 
f 80//80 77//77 76//76 
f 78//78 83//83 69//69 
f 70//70 78//78 69//69 
f 78//78 84//84 79//79 
f 85//85 84//84 78//78 
f 85//85 78//78 70//70 
f 82//82 83//83 78//78 
f 86//86 80//80 79//79 
f 87//87 80//80 86//86 
f 87//87 81//81 80//80 
f 81//81 88//88 89//89 
f 90//90 81//81 89//89 
f 90//90 91//91 81//81 
f 81//81 91//91 82//82 
f 81//81 92//92 88//88 
f 93//93 92//92 81//81 
f 87//87 93//93 81//81 
f 82//82 94//94 83//83 
f 91//91 94//94 82//82 
f 69//69 83//83 71//71 
f 83//83 95//95 71//71 
f 83//83 94//94 95//95 
f 90//90 89//89 16//16 
f 96//96 90//90 16//16 
f 91//91 90//90 96//96 
f 91//91 96//96 94//94 
f 97//97 96//96 98//98 
f 18//18 98//98 96//96 
f 96//96 97//97 94//94 
f 18//18 96//96 16//16 
f 94//94 97//97 95//95 
f 97//97 98//98 74//74 
f 95//95 97//97 74//74 
f 74//74 98//98 72//72 
f 72//72 98//98 18//18 
f 95//95 75//75 71//71 
f 75//75 95//95 74//74 
f 75//75 74//74 99//99 
f 74//74 73//73 99//99 
f 100//100 99//99 73//73 
f 99//99 101//101 75//75 
f 73//73 75//75 101//101 
f 100//100 73//73 101//101 
f 100//100 101//101 99//99 
f 66//66 64//64 61//61 
f 63//63 70//70 62//62 
f 64//64 102//102 63//63 
f 63//63 102//102 85//85 
f 85//85 70//70 63//63 
f 85//85 103//103 84//84 
f 102//102 104//104 85//85 
f 88//88 85//85 104//104 
f 85//85 88//88 92//92 
f 85//85 92//92 103//103 
f 103//103 79//79 84//84 
f 103//103 86//86 79//79 
f 105//105 86//86 103//103 
f 87//87 86//86 105//105 
f 105//105 93//93 87//87 
f 93//93 105//105 92//92 
f 103//103 92//92 105//105 
f 89//89 88//88 104//104 
f 104//104 102//102 89//89 
f 14//14 89//89 15//15 
f 89//89 102//102 15//15 
f 16//16 89//89 14//14 
f 15//15 102//102 64//64 
f 66//66 15//15 64//64 
f 67//67 15//15 66//66 
f 67//67 11//11 12//12 
f 67//67 106//106 11//11 
f 67//67 12//12 13//13 
f 13//13 15//15 67//67 
f 67//67 51//51 50//50 
f 50//50 106//106 67//67 
f 49//49 107//107 50//50 
f 49//49 48//48 107//107 
f 50//50 107//107 106//106 
f 106//106 108//108 11//11 
f 108//108 109//109 11//11 
f 108//108 107//107 109//109 
f 109//109 107//107 48//48 
f 107//107 108//108 106//106 
f 19//19 24//24 46//46 
f 24//24 25//25 46//46 
f 109//109 48//48 47//47 
f 10//10 109//109 110//110 
f 109//109 47//47 110//110 
f 11//11 109//109 10//10 
f 47//47 44//44 110//110 
f 110//110 44//44 39//39 
f 111//111 10//10 110//110 
f 110//110 39//39 111//111 
f 111//111 39//39 35//35 
f 41//41 111//111 35//35 
f 31//31 6//6 111//111 
f 6//6 10//10 111//111 
f 31//31 111//111 112//112 
f 111//111 41//41 112//112 
f 112//112 41//41 45//45 
f 45//45 29//29 112//112 
f 112//112 29//29 30//30 
f 4//4 31//31 2//2 
f 30//30 2//2 31//31 
f 31//31 112//112 30//30 
