v -56.27548599 26.12885475 -151.9593658
v -56.24094009 25.79370499 -151.8451233
v -56.28972244 25.79370499 -151.9212952
v -56.25895309 26.14056206 -151.9259491
v -56.19622803 26.12878227 -151.8419495
v -56.29830551 25.79370499 -151.7751923
v -56.41177368 26.12857628 -151.9261932
v -56.37723541 25.79370499 -151.8984375
v -56.41750336 26.12766266 -151.7853088
v -56.41046524 26.13796616 -151.8357849
v -56.38254166 25.79370499 -151.808136
v -56.22742844 26.13956261 -151.8150024
v -56.28940201 26.12855721 -151.7361145
v -56.33290863 26.13786507 -151.7583618
v -56.20777893 26.14627838 -151.8438721
v -56.29110336 26.14627647 -151.7478943
v -56.40737152 26.14628601 -151.7921906
v -56.27845001 26.14629173 -151.9485931
v -56.40150833 26.14629173 -151.9196472
v -57.80098343 25.5789566 -150.154892
v -57.18727875 25.50606918 -150.2497864
v -57.54209137 25.96703911 -150.0580902
v -58.14541245 25.70256233 -150.2767639
v -57.94670105 26.05130577 -150.1799774
v -58.17718124 25.68990707 -150.4098969
v -57.9630394 25.71377945 -150.3232269
v -58.10393524 25.64323425 -150.5876007
v -58.01213074 25.86790657 -150.641922
v -58.28797531 25.9171772 -150.8701935
v -57.9581604 25.95783615 -150.7814026
v -58.24466324 26.01298332 -151.0722046
v -57.85866165 25.94225311 -151.0327454
v -57.63629532 26.11844635 -151.0897369
v -57.81474304 25.82723236 -150.9241943
v -57.60500717 26.12118912 -150.9228363
v -57.43410492 26.00948524 -150.9558868
v -57.58892822 26.58574486 -150.846405
v -57.46225739 26.65162277 -151.0508728
v -57.78022766 26.17185211 -151.0045776
v -57.55324173 27.22195816 -150.7412109
v -57.78931808 27.25164795 -150.554184
v -57.85770416 26.99219131 -150.8552399
v -58.02255249 26.58611107 -150.7736359
v -58.04707336 26.65215874 -150.8972015
v -58.54158783 26.21581841 -151.3464661
v -57.7232399 25.69027138 -151.8361053
v -57.77330399 25.86187935 -151.9257507
v -57.62002563 25.37391281 -151.2753296
v -57.64834213 25.52912903 -152.0536041
v -57.43701172 25.19145966 -151.2183838
v -57.75586319 25.67595482 -151.0952606
v -57.4420929 25.15577316 -150.7719727
v -58.241745 25.93246651 -151.4802094
v -57.81600952 25.16892052 -150.7341919
v -58.80817413 26.12358856 -151.7028809
v -58.7569046 25.86239243 -151.9829865
v -58.60466003 26.02552223 -151.9951324
v -58.81224442 26.01725006 -151.4987183
v -58.7010231 26.24265862 -151.4053955
v -58.04801559 25.29797173 -150.6341553
v -58.33528519 25.65371132 -151.6085968
v -58.63191986 26.2750473 -151.8188171
v -58.60715866 26.11744118 -151.7593994
v -57.87651825 25.68976593 -152.054718
v -57.53499603 25.72903824 -152.2951965
v -57.55493927 25.53301239 -152.4017029
v -57.475914 25.40683174 -152.7585907
v -57.39369965 25.5776577 -152.8352356
v -57.18724823 25.66641998 -152.1144104
v -57.47101212 25.59501457 -151.9285431
v -57.29176712 25.47853279 -151.9845581
v -57.45661163 25.43875885 -152.2722321
v -56.47301483 26.08229256 -150.8741913
v -56.41545868 26.11835861 -150.7051086
v -56.31554794 25.93737602 -150.729599
v -56.70376968 25.8490448 -150.7108002
v -56.46850204 25.97335243 -151.1204834
v -56.41266251 25.88866234 -151.5216675
v -56.18888092 25.72062111 -151.4346008
v -56.78991699 26.33901215 -150.8378601
v -56.53467941 26.27710915 -150.8440552
v -56.44351578 25.90908241 -150.5509949
v -56.46020126 25.77283859 -151.463028
v -56.19897079 25.90261269 -151.8847656
v -56.39617157 25.85500336 -151.8150635
v -56.82746124 26.28903389 -150.5103455
v -56.84070969 26.19234085 -150.7051392
v -57.14851761 26.43632317 -151.1262512
v -57.18616867 26.92157173 -150.8099976
v -56.92298508 26.80116463 -150.9205322
v -56.88131714 26.1826725 -150.2864685
v -56.7857666 25.50799751 -150.7116089
v -56.69404221 26.73784065 -150.388855
v -56.71795654 26.99491882 -150.6766815
v -57.20024872 27.11423492 -150.7605133
v -57.02127838 26.76448631 -150.1709442
v -57.4066391 27.41928864 -150.53479
v -57.24837112 27.32649422 -150.5795441
v -57.10505676 27.61116409 -150.6131439
v -57.40116119 26.77218246 -150.7651825
v -57.38339233 27.33201408 -151.0971527
v -57.09171677 27.4595623 -151.1430969
v -56.99402618 27.73538017 -150.987381
v -57.72011948 26.90020943 -150.1220245
v -57.51660156 27.34526825 -150.6146088
v -57.52539825 27.70780945 -150.5509644
v -58.00508118 27.17351532 -150.4345245
v -57.19979477 28.01623917 -150.7733002
v -57.25821304 27.90482903 -151.1602478
v -57.42579651 27.9746151 -150.8919983
v -57.63699341 27.57621193 -150.9021149
v -57.38986206 27.59566307 -151.1160889
v -57.19853592 26.59069443 -150.8307037
v -56.85281754 25.51994896 -151.1318512
v -57.43678284 26.16947556 -150.833313
v -57.06846237 26.07059097 -150.7834625
v -57.10283279 25.7960968 -151.1213074
v -57.10416031 25.87802696 -150.9808502
v -56.90648651 25.42065239 -150.4003906
v -56.97953033 25.26536942 -151.1115417
v -57.6156311 25.40247726 -152.2903748
v -57.391922 25.27076912 -152.2372284
v -57.69366837 24.72611046 -152.3041077
v -57.91378403 24.17429543 -152.3167725
v -57.71778107 25.24282265 -152.00737
v -57.86837006 24.72716713 -152.0954437
v -57.96873474 24.41066551 -152.0504761
v -58.08734131 24.05049324 -152.4171295
v -57.93429947 23.81678772 -152.8708191
v -58.13785172 23.82935143 -152.8346863
v -58.08864594 23.7701683 -152.0216217
v -57.5502739 25.09523964 -151.9173889
v -57.13141632 25.22484207 -150.4925537
v -57.84088898 23.99713326 -152.2063141
v -57.93612289 24.08313179 -152.0448608
v -57.36162949 25.16335869 -152.0415192
v -58.82746506 26.2453537 -151.7688293
v -58.30341721 26.78884125 -150.9643707
v -58.61277771 26.5092144 -150.9463043
v -58.25374603 26.87817001 -150.6651917
v -58.01401138 26.69864082 -150.3925781
v -57.74108505 26.59255409 -150.076889
v -57.6391716 25.27321053 -150.2247009
v -57.96094894 25.30623627 -150.3075256
vn 0.3389180303 -0.07265473902 -0.9380063415
vn 0.9461416006 -0.1933016032 -0.2597124875
vn 0.06993859261 -0.3229262531 -0.9438364506
vn 0.7645659447 0.3861449063 -0.5160726905
vn 0.985904932 -0.09831059724 0.1353755146
vn 0.4849912822 -0.3786365092 0.7883006334
vn -0.554345727 -0.09559932351 -0.8267778158
vn -0.8855826259 -0.3173244596 -0.3391881585
vn -0.9125133753 -0.09107394516 0.398779273
vn -0.9981811643 -0.04393795133 -0.041277688
vn -0.6242464781 -0.190800041 0.7575696111
vn 0.7502614856 -0.03918446228 0.6599789858
vn 0.1295461804 -0.08725213259 0.9877271056
vn -0.3577269316 -0.03889901936 0.9330157042
vn 0.06412341446 0.9974482656 -0.03138672933
vn 0.07089527696 0.978735745 0.1924841702
vn -0.03915044293 0.9986542463 0.0340134427
vn 0.03674049303 0.996512413 -0.07492092252
vn -0.1807200611 0.9565435648 -0.2288333178
vn -0.1367051452 -0.2432465553 0.9602826834
vn 0.234127 -0.3414157629 0.9102855921
vn 0.1299917102 -0.08653888106 0.9877313375
vn -0.449408263 -0.163678214 0.8782036304
vn -0.7671330571 0.1955156177 0.6109668612
vn -0.992737174 0.1065995693 0.05576243624
vn -0.7590218782 -0.4471728504 0.4732041955
vn -0.8447945714 -0.07314608246 0.5300677419
vn -0.9510095119 0.1876568049 -0.2456945479
vn -0.5374348164 0.5071702003 0.6737523675
vn -0.7566174865 0.5638786554 -0.3310148418
vn 0.4129486978 0.9006333351 -0.1353994906
vn 0.02767141908 0.6205439568 -0.7836833
vn 0.7983224988 -0.3007337451 -0.521766603
vn 0.2712616026 0.1180515513 -0.9552386999
vn 0.5245153308 -0.0691248849 -0.8485902548
vn 0.08779332042 0.4524832666 -0.8874408007
vn 0.7063810229 -0.07649133354 -0.7036866546
vn 0.204833895 0.2312242836 -0.9510932565
vn -0.4640952349 0.2488443404 -0.8501129746
vn -0.5557385683 0.3440199196 -0.7568387985
vn -0.2501659393 0.6880118251 -0.681217134
vn 0.2341590375 0.2982183397 -0.925329864
vn -0.9826020598 -0.1451746225 -0.1158340871
vn 0.8118652701 -0.08508615196 -0.5776115656
vn 0.8859946728 0.2834538221 0.3669704795
vn 0.6492617726 0.2819786668 0.7063619494
vn 0.3368635178 0.9123657346 -0.2326192558
vn -0.9734270573 -0.215974018 -0.0761244297
vn -0.7793959379 -0.5250919461 0.3417900801
vn -0.926199615 -0.3537164629 0.1305333376
vn -0.3274631202 0.6590768099 -0.6770418286
vn -0.1534175575 -0.8875910044 -0.4343331754
vn 0.4830245078 -0.7523634434 -0.4479247034
vn -0.1940613687 -0.9117664099 -0.3619698584
vn -0.4432277679 -0.7583571076 0.4779577255
vn -0.8160469532 -0.3698452413 -0.4441642165
vn 0.8934678435 -0.09606937319 -0.4387321472
vn -0.7513867617 -0.6590848565 0.03201795742
vn -0.6586218476 -0.3746842742 0.6525557041
vn -0.7963058949 -0.5565910339 0.236861527
vn -0.4321238101 -0.8977583647 -0.08543363959
vn 0.4815056026 0.585162282 -0.6524856091
vn 0.09738809615 -0.07054701447 -0.9927430153
vn -0.5590953827 -0.1820680946 -0.8088656068
vn -0.1178628281 0.9767972231 -0.1788170785
vn -0.8463236094 -0.3937609196 -0.3587321043
vn 0.2986219525 -0.8862151504 -0.3541858196
vn 0.3947229087 0.7771912813 -0.4900688827
vn 0.9114465117 0.4106186032 -0.02564332448
vn -0.2625976205 0.9628936052 -0.06227625534
vn 0.8800033331 0.3431913853 -0.3283500969
vn 0.7864015102 -0.4180985689 -0.4547155797
vn 0.3609882593 0.7138819695 -0.6000499725
vn 0.7765494585 0.5821056366 0.2410890758
vn 0.9325802922 0.3466440737 0.1006571576
vn -0.6535696983 -0.7552710772 -0.04911452904
vn -0.8293573856 0.4869451523 -0.2739539742
vn 0.1668725908 0.9841332436 -0.0602930896
vn 0.7007778883 -0.7105839849 0.06309311092
vn 0.05270856991 -0.07596855611 -0.995716095
vn 0.889039278 0.3032441437 -0.3430046439
vn 0.4696198702 -0.4850445986 0.7376916409
vn -0.778192699 -0.584161818 -0.2305884808
vn 0.61334759 0.7878319025 -0.0559071824
vn -0.3963776231 -0.779320538 -0.4853290319
vn 0.007608761545 -0.4702409208 0.8825052977
vn 0.9041312933 -0.1223816723 -0.4093523324
vn 0.7018437982 0.1778741181 -0.6897652149
vn -0.07234785706 0.2516681254 -0.9651056528
vn 0.1757448018 0.2247960418 -0.9584260583
vn 0.8819598556 -0.07909168303 0.4646410346
vn 0.9913163781 0.06333477795 -0.1152414456
vn 0.7471621037 0.3202816546 0.5823817253
vn 0.7428426147 0.599978745 -0.2970023155
vn 0.8258965015 -0.119989723 -0.5509060025
vn 0.3076916635 0.1580853015 0.9382616282
vn 0.1558121294 0.5944967866 0.78885746
vn 0.6479041576 0.6421726346 0.409676075
vn 0.7018443942 0.09428902715 0.7060623169
vn -0.0341507718 -0.2645105124 -0.9637779593
vn -0.1904454976 -0.4738655388 -0.8597569466
vn 0.5198082328 -0.3262990713 -0.7895114422
vn 0.9941313863 0.0962780267 -0.04932866991
vn -0.1435474306 0.4507530928 0.881031096
vn -0.9216045141 0.3271353245 0.2088721395
vn -0.4830875099 0.4180738628 0.7693118453
vn -0.5596630573 0.5675750971 0.6038507819
vn 0.4264671504 0.7938005924 0.4335969985
vn -0.06036743894 0.5323793888 -0.844350636
vn -0.6964049339 0.7137627006 -0.0745857656
vn -0.9383992553 0.02340785973 -0.344759196
vn -0.4063185155 -0.01184407808 -0.9136547446
vn -0.6024223566 -0.04235573858 -0.7970529199
vn 0.8770172 -0.006675407756 -0.4804126024
vn 0.2304226607 0.1147338673 -0.9663030505
vn -0.4622460306 0.2136058211 -0.8606399894
vn 0.05989006907 0.9095348716 -0.4112901092
vn 0.003558096942 0.6161151528 -0.7876480222
vn 0.61730057 -0.3167641163 0.7201392055
vn 0.6970866323 -0.7004113793 -0.1532779336
vn -0.6511957645 0.2266895324 -0.7242622972
vn 0.6832144856 -0.2059739232 -0.7005659938
vn -0.5156486034 0.1439350098 -0.8446237445
vn 0.2394936681 0.3696855009 -0.8977613449
vn -0.9422480464 0.07844700664 0.325598985
vn -0.8772437572 0.2076244503 -0.4328227043
vn -0.9066312909 0.2467261553 0.3422659039
vn -0.8477568626 0.5243000388 -0.08011104912
vn 0.8372612596 -0.3976816833 -0.3752904534
vn -0.9477958083 -0.2586750388 -0.1864680797
vn -0.2988256514 -0.891354382 0.3408673704
vn 0.08082173765 -0.8988665342 0.4307049513
vn 0.2175977677 -0.9524027705 0.2134950757
vn 0.9164001942 -0.3942351341 -0.06920544058
vn 0.1172448322 -0.2220233977 0.9679665565
vn 0.891282022 -0.4412074685 0.1046534851
vn -0.7264558673 0.6406694651 -0.2486052066
vn -0.2775392234 0.8433562517 -0.4601328075
vn -0.8904262185 0.1841676533 0.4162012041
vn -0.7914971709 0.5386029482 0.2888582349
vn -0.5284684896 -0.4841436744 0.6973707676
vn -0.4091884494 0.0588167347 0.9105522633
vn 0.0925129205 -0.5899376869 0.802131474
vn -0.4785020053 -0.7504655719 0.4558916688
f 1//1 2//2 3//3 
f 1//1 4//4 2//2 
f 2//2 4//4 5//5 
f 5//5 6//6 2//2 
f 3//3 7//7 1//1 
f 7//7 3//3 8//8 
f 9//9 10//10 8//8 
f 8//8 10//10 7//7 
f 11//11 8//8 6//6 
f 6//6 8//8 3//3 
f 6//6 3//3 2//2 
f 9//9 8//8 11//11 
f 5//5 12//12 6//6 
f 6//6 12//12 13//13 
f 13//13 11//11 6//6 
f 13//13 14//14 11//11 
f 11//11 14//14 9//9 
f 15//15 12//12 5//5 
f 15//15 16//16 12//12 
f 12//12 16//16 13//13 
f 16//16 14//14 13//13 
f 17//17 16//16 15//15 
f 16//16 17//17 14//14 
f 14//14 17//17 9//9 
f 4//4 15//15 5//5 
f 15//15 4//4 17//17 
f 17//17 4//4 18//18 
f 17//17 10//10 9//9 
f 18//18 4//4 1//1 
f 1//1 19//19 18//18 
f 17//17 18//18 19//19 
f 17//17 19//19 10//10 
f 10//10 19//19 7//7 
f 19//19 1//1 7//7 
f 20//20 21//21 22//22 
f 23//23 20//20 22//22 
f 23//23 22//22 24//24 
f 23//23 24//24 25//25 
f 25//25 26//26 23//23 
f 20//20 23//23 26//26 
f 27//27 26//26 25//25 
f 28//28 27//27 25//25 
f 29//29 27//27 28//28 
f 29//29 28//28 30//30 
f 30//30 31//31 29//29 
f 32//32 31//31 30//30 
f 33//33 34//34 32//32 
f 33//33 35//35 34//34 
f 36//36 34//34 35//35 
f 36//36 35//35 37//37 
f 35//35 33//33 37//37 
f 37//37 33//33 38//38 
f 30//30 39//39 32//32 
f 39//39 40//40 38//38 
f 32//32 39//39 33//33 
f 39//39 38//38 33//33 
f 39//39 41//41 40//40 
f 39//39 42//42 41//41 
f 43//43 42//42 39//39 
f 39//39 30//30 43//43 
f 43//43 30//30 28//28 
f 43//43 28//28 25//25 
f 24//24 43//43 25//25 
f 44//44 42//42 43//43 
f 43//43 45//45 44//44 
f 45//45 29//29 31//31 
f 45//45 46//46 47//47 
f 48//48 49//49 50//50 
f 34//34 36//36 51//51 
f 51//51 32//32 34//34 
f 51//51 48//48 50//50 
f 31//31 32//32 51//51 
f 51//51 50//50 52//52 
f 53//53 49//49 46//46 
f 45//45 53//53 46//46 
f 45//45 31//31 53//53 
f 52//52 53//53 51//51 
f 53//53 31//31 51//51 
f 52//52 54//54 53//53 
f 55//55 56//56 57//57 
f 58//58 59//59 55//55 
f 54//54 60//60 58//58 
f 58//58 53//53 54//54 
f 29//29 59//59 58//58 
f 27//27 29//29 58//58 
f 27//27 58//58 60//60 
f 53//53 61//61 49//49 
f 53//53 58//58 61//61 
f 55//55 62//62 63//63 
f 63//63 61//61 58//58 
f 55//55 63//63 58//58 
f 44//44 63//63 62//62 
f 44//44 45//45 63//63 
f 63//63 45//45 47//47 
f 63//63 64//64 61//61 
f 64//64 49//49 61//61 
f 63//63 47//47 64//64 
f 47//47 46//46 65//65 
f 64//64 47//47 65//65 
f 64//64 65//65 66//66 
f 66//66 49//49 64//64 
f 67//67 66//66 65//65 
f 67//67 65//65 68//68 
f 68//68 69//69 67//67 
f 69//69 68//68 65//65 
f 70//70 48//48 51//51 
f 70//70 65//65 46//46 
f 70//70 69//69 65//65 
f 70//70 46//46 49//49 
f 49//49 48//48 70//70 
f 71//71 67//67 69//69 
f 71//71 69//69 70//70 
f 66//66 67//67 72//72 
f 72//72 67//67 71//71 
f 73//73 74//74 75//75 
f 76//76 73//73 77//77 
f 77//77 73//73 78//78 
f 79//79 78//78 73//73 
f 75//75 79//79 73//73 
f 73//73 80//80 81//81 
f 76//76 80//80 73//73 
f 74//74 81//81 82//82 
f 73//73 81//81 74//74 
f 74//74 82//82 75//75 
f 79//79 75//75 82//82 
f 76//76 79//79 82//82 
f 76//76 83//83 79//79 
f 78//78 79//79 84//84 
f 85//85 79//79 83//83 
f 79//79 85//85 84//84 
f 78//78 85//85 83//83 
f 78//78 84//84 85//85 
f 77//77 78//78 83//83 
f 83//83 76//76 77//77 
f 82//82 86//86 76//76 
f 87//87 76//76 86//86 
f 80//80 76//76 87//87 
f 87//87 88//88 80//80 
f 80//80 88//88 89//89 
f 81//81 80//80 90//90 
f 89//89 90//90 80//80 
f 87//87 91//91 92//92 
f 92//92 88//88 87//87 
f 91//91 87//87 86//86 
f 82//82 93//93 86//86 
f 93//93 91//91 86//86 
f 81//81 93//93 82//82 
f 81//81 90//90 94//94 
f 93//93 81//81 94//94 
f 90//90 95//95 94//94 
f 89//89 95//95 90//90 
f 96//96 93//93 97//97 
f 91//91 93//93 96//96 
f 98//98 97//97 93//93 
f 93//93 94//94 98//98 
f 95//95 98//98 94//94 
f 99//99 98//98 95//95 
f 100//100 101//101 95//95 
f 95//95 89//89 100//100 
f 95//95 101//101 102//102 
f 103//103 95//95 102//102 
f 99//99 95//95 103//103 
f 97//97 98//98 99//99 
f 96//96 97//97 104//104 
f 105//105 97//97 106//106 
f 106//106 97//97 99//99 
f 97//97 105//105 107//107 
f 107//107 104//104 97//97 
f 103//103 108//108 99//99 
f 106//106 99//99 108//108 
f 109//109 103//103 102//102 
f 103//103 109//109 108//108 
f 108//108 109//109 110//110 
f 106//106 108//108 110//110 
f 106//106 111//111 105//105 
f 111//111 40//40 105//105 
f 41//41 105//105 40//40 
f 105//105 41//41 107//107 
f 106//106 110//110 111//111 
f 111//111 110//110 109//109 
f 102//102 112//112 109//109 
f 111//111 109//109 112//112 
f 101//101 112//112 102//102 
f 112//112 101//101 111//111 
f 111//111 100//100 40//40 
f 100//100 111//111 101//101 
f 100//100 113//113 37//37 
f 100//100 37//37 38//38 
f 100//100 89//89 113//113 
f 100//100 38//38 40//40 
f 88//88 113//113 89//89 
f 114//114 88//88 92//92 
f 88//88 114//114 113//113 
f 115//115 113//113 116//116 
f 116//116 113//113 117//117 
f 113//113 114//114 117//117 
f 37//37 113//113 115//115 
f 37//37 115//115 36//36 
f 36//36 115//115 116//116 
f 36//36 116//116 118//118 
f 116//116 117//117 118//118 
f 51//51 118//118 117//117 
f 70//70 51//51 117//117 
f 70//70 117//117 71//71 
f 117//117 114//114 71//71 
f 51//51 36//36 118//118 
f 92//92 119//119 114//114 
f 120//120 114//114 119//119 
f 114//114 120//120 72//72 
f 72//72 71//71 114//114 
f 66//66 72//72 49//49 
f 121//121 72//72 122//122 
f 49//49 72//72 121//121 
f 121//121 122//122 123//123 
f 123//123 122//122 124//124 
f 121//121 125//125 49//49 
f 49//49 125//125 50//50 
f 126//126 125//125 121//121 
f 121//121 123//123 126//126 
f 126//126 123//123 127//127 
f 126//126 127//127 125//125 
f 124//124 127//127 123//123 
f 128//128 127//127 124//124 
f 128//128 129//129 130//130 
f 124//124 129//129 128//128 
f 130//130 129//129 131//131 
f 128//128 130//130 131//131 
f 127//127 132//132 125//125 
f 132//132 133//133 52//52 
f 132//132 120//120 133//133 
f 132//132 52//52 50//50 
f 125//125 132//132 50//50 
f 131//131 129//129 134//134 
f 129//129 124//124 134//134 
f 122//122 134//134 124//124 
f 135//135 131//131 134//134 
f 136//136 132//132 135//135 
f 132//132 127//127 135//135 
f 135//135 128//128 131//131 
f 127//127 128//128 135//135 
f 122//122 136//136 134//134 
f 72//72 136//136 122//122 
f 120//120 132//132 136//136 
f 72//72 120//120 136//136 
f 136//136 135//135 134//134 
f 55//55 59//59 137//137 
f 57//57 62//62 55//55 
f 137//137 56//56 55//55 
f 137//137 57//57 56//56 
f 137//137 62//62 57//57 
f 137//137 138//138 62//62 
f 138//138 44//44 62//62 
f 139//139 137//137 59//59 
f 139//139 138//138 137//137 
f 140//140 41//41 138//138 
f 138//138 41//41 42//42 
f 44//44 138//138 42//42 
f 139//139 140//140 138//138 
f 29//29 45//45 59//59 
f 45//45 141//141 59//59 
f 139//139 59//59 141//141 
f 140//140 139//139 141//141 
f 140//140 141//141 107//107 
f 107//107 41//41 140//140 
f 43//43 141//141 45//45 
f 141//141 43//43 142//142 
f 141//141 104//104 107//107 
f 141//141 142//142 104//104 
f 96//96 142//142 22//22 
f 24//24 22//22 142//142 
f 142//142 43//43 24//24 
f 142//142 96//96 104//104 
f 96//96 22//22 119//119 
f 91//91 96//96 119//119 
f 91//91 119//119 92//92 
f 119//119 22//22 21//21 
f 21//21 133//133 119//119 
f 133//133 120//120 119//119 
f 52//52 133//133 54//54 
f 133//133 21//21 143//143 
f 54//54 133//133 144//144 
f 144//144 143//143 20//20 
f 60//60 54//54 144//144 
f 144//144 20//20 26//26 
f 26//26 27//27 144//144 
f 144//144 27//27 60//60 
f 21//21 20//20 143//143 
f 143//143 144//144 133//133 
