v -24.0452652 23.75019073 -44.5381813
v -24.23511887 23.74800491 -44.5502739
v -23.83782387 23.75614166 -44.99809647
v -24.0161705 24.11740494 -44.60884094
v -23.89188385 23.83944893 -45.34141541
v -24.07711029 23.83503532 -45.19285583
v -24.04559135 24.07328033 -44.87403488
v -24.16127586 24.18939972 -44.59342575
v -24.03698158 24.65939903 -44.36120605
v -23.90150642 24.49185371 -44.64958572
v -24.03721046 24.52157402 -44.73310471
v -24.21912003 24.49878883 -44.63249588
v -24.23271561 25.08677483 -44.34827805
v -24.20573235 25.36538315 -44.55435562
v -23.92656136 25.29647636 -44.60271835
v -24.03234482 25.50260162 -44.58494949
v -24.39632225 25.53983498 -44.36591721
v -24.39868164 25.25893974 -44.09179306
v -24.62156105 25.33880615 -44.03097153
v -24.9846859 25.09790421 -43.3014946
v -24.97470093 25.29402924 -43.96002579
v -25.35390091 25.32888412 -43.69277191
v -25.32273865 25.26424599 -43.20246887
v -24.79368019 25.19895744 -42.87654877
v -25.16805458 25.84078026 -42.98299789
v -25.39801788 25.7569809 -43.32175064
v -25.31124687 26.18276978 -43.23774338
v -25.12637138 26.54266357 -43.10247803
v -25.02146721 26.29143333 -42.91970062
v -25.00197792 26.90937233 -43.00922775
v -25.30358505 26.89724731 -43.37746048
v -25.35043716 26.51126289 -43.58148956
v -25.3903904 26.94762039 -43.74689865
v -25.42527962 26.01493835 -43.79478073
v -25.26895905 25.80839157 -43.64215088
v -25.0182972 25.9093895 -44.07737732
v -25.27001953 26.12352943 -43.91261673
v -25.25304794 26.98114777 -43.87199783
v -25.05046654 26.27279472 -43.80582809
v -24.88473511 26.89510918 -43.63766861
v -24.49903297 26.22660446 -43.33760834
v -24.86374664 25.91246414 -43.59597015
v -24.58167267 25.85779572 -43.60996246
v -24.83123589 25.7763195 -43.67362976
v -25.0039444 26.03104401 -43.86791611
v -24.66368484 25.92546272 -43.99328613
v -24.44217873 26.00391388 -43.94235611
v -24.55728912 26.0605011 -44.24071503
v -24.21211243 26.28915024 -44.15350723
v -24.28516769 26.39379692 -44.35037231
v -24.48389816 26.3781662 -44.19656754
v -24.34087181 26.04900551 -44.37546921
v -25.11253548 25.68540382 -43.85569382
v -24.66999054 25.72830009 -44.35890579
v -24.83857346 25.81023026 -44.14282227
v -24.60832405 26.83936119 -43.45079041
v -24.61532784 27.11105728 -43.26376343
v -24.29380608 26.77250671 -43.21456146
v -24.69879341 27.11353683 -43.68445587
v -24.72126961 26.86863518 -42.95756531
v -24.79795837 27.17235565 -43.14235687
v -24.26607513 26.84701157 -43.07254028
v -24.60194206 27.12921333 -43.87836456
v -24.763134 27.54782867 -43.07925034
v -24.34280205 27.47572899 -43.60919189
v -24.38939285 27.48563385 -43.25258255
v -24.34384155 25.97275543 -43.27770233
v -24.93940353 27.17088318 -43.47218323
v -24.88913727 27.34428787 -43.78588104
v -24.61855698 27.62798309 -43.88135147
v -24.45062065 27.87360001 -43.42847061
v -24.90351105 27.74708748 -43.69860077
v -24.90722847 27.82313728 -43.3075943
v -24.97608948 27.25356674 -43.28725433
v -24.39320183 26.7754631 -42.95471954
v -24.41728973 25.78819275 -43.11465836
v -24.34593773 25.86859512 -43.93878937
v -24.94384766 25.91922569 -42.87537766
v -24.61337852 25.89364243 -42.97181702
v -24.4348259 25.55909538 -42.98727417
v -24.18055725 25.22846794 -43.59466171
v -24.32147217 25.60827827 -43.23013306
v -24.18029594 26.04903221 -44.31101227
v -24.26462936 25.69826698 -43.9643898
v -24.08337212 25.54665756 -43.72104263
v -23.94559097 25.21835709 -44.28446579
v -24.04495811 25.52309418 -44.15502167
v -23.85660744 25.1530323 -44.47242355
v -23.63923264 25.27471161 -44.52739334
v -23.91537094 25.66430473 -44.56048965
v -23.99657059 25.816679 -44.35691071
v -23.69538116 25.42420197 -44.23648834
v -23.3887825 25.04328346 -44.3502388
v -23.57296181 25.03941536 -44.22169876
v -23.41635513 24.74430084 -44.13308716
v -23.22473145 24.67016983 -44.04102707
v -23.07326126 24.91062355 -44.4336319
v -22.84555435 24.82188225 -44.50432587
v -23.26371956 24.54316521 -44.24105453
v -22.86945915 24.85095215 -44.77105331
v -23.0242939 24.62349701 -44.65519714
v -23.41742516 24.82470512 -44.36762238
v -24.21666336 25.97143936 -44.5892067
vn 0.6129902601 -0.244194746 0.75140661
vn -0.7413201332 -0.6678898931 -0.0660873726
vn 0.9453660846 -0.3191332519 0.06661043316
vn 0.8763102889 -0.04706629366 0.4794423878
vn 0.2486360222 -0.7522254586 -0.6101942062
vn -0.9091746807 0.1390673369 -0.3925069273
vn 0.4461275935 0.6826391816 -0.5787693262
vn -0.9620740414 0.01658050902 0.2722841799
vn 0.235765174 -0.2851115763 0.929045856
vn 0.9923619628 -0.1231183112 -0.007720287889
vn -0.214985311 0.1315911412 -0.9677112699
vn -0.9028455615 -0.01986123435 -0.4295060039
vn -0.6974477768 -0.58632797 0.4120511413
vn -0.6783128977 0.0117380796 -0.7346794009
vn 0.2985190749 0.06710760295 -0.9520414472
vn -0.2155853063 -0.08197573572 -0.9730380177
vn -0.5653502941 -0.4772343338 -0.672775209
vn -0.6712934375 -0.7080990672 -0.2189996243
vn -0.09645295888 -0.9056326151 -0.4129484296
vn -0.05802766979 -0.9924215078 -0.108316049
vn -0.2427137196 -0.7997797132 -0.5490378141
vn -0.8124750257 -0.3496830165 -0.4664826989
vn -0.7585772872 -0.4266296625 0.4924912453
vn 0.05740056559 -0.5833141208 0.8102158904
vn -0.6626403332 -0.01566740498 0.7487738729
vn -0.9946038127 0.01871348172 0.1020441577
vn -0.8833189011 0.1102455854 0.4556243718
vn -0.7610282898 0.1320143044 0.6351441741
vn -0.2809271216 0.1101007685 0.9533927441
vn -0.5665590167 0.445389241 0.6932815313
vn -0.8315514326 0.3576548398 0.4249767959
vn -0.988271594 -0.001972181024 0.152693525
vn -0.9177462459 0.3476980925 -0.1919579506
vn -0.9517505765 -0.2108269632 -0.2229860574
vn -0.9376352429 -0.1265446842 -0.3237694204
vn -0.5912257433 -0.007937861606 -0.8064670563
vn -0.2251101583 0.1543030739 -0.9620373845
vn 0.2508721352 0.2886392772 -0.9239861965
vn 0.5993232131 0.04303976893 -0.799349308
vn 0.5396180749 0.06932285428 -0.8390510678
vn 0.5810650587 0.05907381326 -0.8117103577
vn 0.592249155 0.2288409472 -0.7725753784
vn -0.1129975393 0.9323080182 -0.3435597718
vn 0.2817129791 0.9438231587 0.1727299541
vn 0.4761168361 0.8660316467 -0.1526497751
vn 0.0003552316048 0.8970150948 0.4419998229
vn -0.2124908119 0.9220390916 0.3235608041
vn -0.5438890457 0.8347055912 -0.08632090688
vn 0.5202565193 0.540545702 0.6611682773
vn 0.3041313589 0.5535367727 -0.7753071189
vn -0.7901052237 0.5869516134 -0.1766963601
vn -0.3450772762 0.4730325639 -0.8106551766
vn -0.7546945214 0.06653479487 -0.6526939273
vn -0.5535886884 -0.1418249458 -0.8206249475
vn -0.5754850507 0.1656957567 -0.800850749
vn 0.6694114804 0.01509606279 -0.7427384257
vn 0.9449044466 -0.07948549837 0.3175493777
vn 0.68287462 0.1502127647 -0.7149254084
vn 0.04250391573 -0.5956284404 -0.8021347523
vn 0.07990398258 0.402271986 0.9120266438
vn -0.2586336434 0.3296345472 0.9079921246
vn 0.8557656407 0.2567622066 0.4491528571
vn 0.5569409728 -0.5484493375 -0.623714745
vn 0.03188291937 0.2204004824 0.9748882651
vn 0.9567614794 -0.1644436717 -0.2399287075
vn 0.7807739377 -0.03388563916 0.6238940358
vn 0.933155179 0.2404582351 -0.2672100067
vn -0.6643470526 0.7413473129 -0.09511672705
vn -0.7797493935 -0.1535519511 -0.6069700718
vn 0.2613389492 0.4031160474 -0.8770401478
vn 0.4807648957 0.8712220788 0.0991827324
vn -0.7330201268 0.5501419902 -0.4000315666
vn -0.6694136858 0.6494628787 0.3606706262
vn -0.9837080836 -0.001035199501 0.1797701716
vn 0.2861592174 -0.001680524088 0.9581806064
vn 0.8685121536 -0.03290878236 0.4945741892
vn 0.944368124 0.2293787301 0.2356993705
vn 0.05374093354 0.01370873861 0.9984608293
vn 0.4054885209 -0.03831909597 0.9132966399
vn 0.6006495357 -0.142471239 0.7867159843
vn 0.4417475164 -0.8699256778 0.2192907035
vn 0.8983862996 0.3364500999 0.282317847
vn 0.8582124114 0.4574941993 0.2327456623
vn 0.7497809529 0.5704734325 0.335244149
vn 0.918043077 0.2966997027 0.2629946768
vn 0.6358003616 -0.4091588557 0.6544821858
vn 0.7096680999 0.3890554011 0.5873730779
vn 0.3986955583 -0.8483607769 -0.348318547
vn 0.6400358081 0.2851745188 -0.7134631276
vn 0.5907083154 0.4289304912 -0.6834341884
vn 0.7748441696 0.5798285007 0.2518240809
vn 0.5985990167 0.4308007061 0.675344348
vn 0.6372773051 0.7131049037 0.2921625972
vn -0.3115997314 -0.4161975384 0.8542161584
vn -0.7014797926 -0.1582583487 0.6948959231
vn 0.4904230833 0.2951090932 0.8199974298
vn 0.2646386623 0.952327311 0.1517862082
vn 0.8766198754 -0.2946749926 0.3804001808
vn -0.01447055116 -0.9994667768 0.02927070297
vn -0.1866805702 0.5800285339 -0.7929169536
vn -0.1410904974 -0.8069213629 -0.5735602975
vn -0.610032618 -0.2857922614 -0.7390419245
vn -0.06319402903 0.3728813231 -0.9257246256
f 1//1 2//2 3//3 
f 1//1 3//3 4//4 
f 3//3 2//2 5//5 
f 6//6 5//5 2//2 
f 7//7 5//5 6//6 
f 7//7 3//3 5//5 
f 4//4 3//3 7//7 
f 1//1 8//8 2//2 
f 8//8 6//6 2//2 
f 8//8 7//7 6//6 
f 4//4 8//8 1//1 
f 9//9 8//8 4//4 
f 9//9 4//4 10//10 
f 10//10 4//4 7//7 
f 8//8 11//11 7//7 
f 11//11 10//10 7//7 
f 12//12 11//11 8//8 
f 9//9 13//13 8//8 
f 8//8 13//13 12//12 
f 13//13 14//14 12//12 
f 14//14 11//11 12//12 
f 15//15 10//10 11//11 
f 15//15 11//11 14//14 
f 16//16 15//15 14//14 
f 14//14 17//17 16//16 
f 18//18 14//14 13//13 
f 18//18 17//17 14//14 
f 19//19 17//17 18//18 
f 20//20 21//21 19//19 
f 20//20 22//22 21//21 
f 20//20 23//23 22//22 
f 24//24 23//23 20//20 
f 25//25 23//23 24//24 
f 23//23 26//26 22//22 
f 25//25 26//26 23//23 
f 26//26 25//25 27//27 
f 27//27 25//25 28//28 
f 29//29 28//28 25//25 
f 29//29 30//30 28//28 
f 31//31 28//28 30//30 
f 27//27 28//28 31//31 
f 27//27 31//31 32//32 
f 26//26 27//27 32//32 
f 32//32 31//31 33//33 
f 34//34 32//32 33//33 
f 35//35 26//26 32//32 
f 32//32 34//34 35//35 
f 26//26 35//35 22//22 
f 35//35 34//34 36//36 
f 34//34 33//33 37//37 
f 37//37 36//36 34//34 
f 38//38 37//37 33//33 
f 38//38 39//39 37//37 
f 40//40 39//39 38//38 
f 40//40 41//41 39//39 
f 41//41 42//42 39//39 
f 42//42 41//41 43//43 
f 42//42 43//43 44//44 
f 39//39 45//45 37//37 
f 45//45 39//39 42//42 
f 42//42 44//44 45//45 
f 37//37 45//45 36//36 
f 44//44 43//43 46//46 
f 45//45 44//44 46//46 
f 47//47 46//46 43//43 
f 36//36 45//45 48//48 
f 45//45 46//46 48//48 
f 47//47 48//48 46//46 
f 49//49 50//50 51//51 
f 49//49 51//51 48//48 
f 48//48 47//47 49//49 
f 51//51 50//50 52//52 
f 49//49 52//52 50//50 
f 48//48 51//51 52//52 
f 35//35 53//53 22//22 
f 35//35 36//36 53//53 
f 54//54 19//19 21//21 
f 36//36 48//48 55//55 
f 53//53 36//36 55//55 
f 21//21 22//22 54//54 
f 53//53 54//54 22//22 
f 55//55 48//48 52//52 
f 55//55 52//52 54//54 
f 19//19 54//54 17//17 
f 16//16 17//17 54//54 
f 56//56 57//57 58//58 
f 59//59 56//56 40//40 
f 56//56 41//41 40//40 
f 56//56 58//58 41//41 
f 60//60 57//57 61//61 
f 62//62 57//57 60//60 
f 57//57 62//62 58//58 
f 56//56 59//59 57//57 
f 57//57 59//59 63//63 
f 57//57 64//64 61//61 
f 65//65 57//57 63//63 
f 66//66 57//57 65//65 
f 57//57 66//66 64//64 
f 41//41 58//58 67//67 
f 62//62 67//67 58//58 
f 59//59 68//68 69//69 
f 59//59 69//69 63//63 
f 59//59 40//40 68//68 
f 65//65 63//63 70//70 
f 69//69 70//70 63//63 
f 71//71 66//66 65//65 
f 65//65 70//70 71//71 
f 72//72 70//70 69//69 
f 71//71 70//70 72//72 
f 64//64 66//66 71//71 
f 73//73 71//71 72//72 
f 73//73 64//64 71//71 
f 72//72 74//74 73//73 
f 64//64 73//73 74//74 
f 74//74 72//72 69//69 
f 68//68 74//74 69//69 
f 31//31 30//30 68//68 
f 30//30 61//61 68//68 
f 31//31 68//68 33//33 
f 38//38 68//68 40//40 
f 68//68 38//38 33//33 
f 68//68 61//61 74//74 
f 64//64 74//74 61//61 
f 60//60 61//61 30//30 
f 30//30 29//29 60//60 
f 29//29 75//75 60//60 
f 60//60 75//75 62//62 
f 76//76 62//62 75//75 
f 62//62 76//76 67//67 
f 67//67 76//76 77//77 
f 67//67 77//77 47//47 
f 43//43 67//67 47//47 
f 67//67 43//43 41//41 
f 29//29 78//78 75//75 
f 78//78 79//79 75//75 
f 75//75 79//79 76//76 
f 80//80 78//78 24//24 
f 78//78 25//25 24//24 
f 78//78 80//80 79//79 
f 79//79 80//80 76//76 
f 29//29 25//25 78//78 
f 80//80 24//24 81//81 
f 82//82 80//80 81//81 
f 80//80 82//82 76//76 
f 76//76 82//82 77//77 
f 49//49 47//47 77//77 
f 49//49 77//77 83//83 
f 77//77 84//84 83//83 
f 77//77 82//82 84//84 
f 82//82 85//85 84//84 
f 82//82 81//81 85//85 
f 81//81 18//18 13//13 
f 81//81 19//19 18//18 
f 24//24 20//20 81//81 
f 20//20 19//19 81//81 
f 85//85 81//81 86//86 
f 13//13 86//86 81//81 
f 85//85 87//87 84//84 
f 85//85 86//86 87//87 
f 86//86 13//13 9//9 
f 10//10 86//86 9//9 
f 88//88 10//10 15//15 
f 88//88 86//86 10//10 
f 15//15 89//89 88//88 
f 16//16 89//89 15//15 
f 90//90 89//89 16//16 
f 91//91 89//89 90//90 
f 91//91 92//92 89//89 
f 92//92 93//93 89//89 
f 94//94 93//93 92//92 
f 88//88 94//94 86//86 
f 92//92 86//86 94//94 
f 93//93 94//94 95//95 
f 95//95 96//96 93//93 
f 93//93 96//96 97//97 
f 96//96 98//98 97//97 
f 96//96 99//99 98//98 
f 96//96 95//95 99//99 
f 97//97 98//98 100//100 
f 99//99 101//101 98//98 
f 101//101 100//100 98//98 
f 99//99 102//102 101//101 
f 93//93 97//97 102//102 
f 102//102 97//97 100//100 
f 95//95 102//102 99//99 
f 94//94 102//102 95//95 
f 102//102 89//89 93//93 
f 88//88 89//89 102//102 
f 102//102 94//94 88//88 
f 101//101 102//102 100//100 
f 87//87 86//86 92//92 
f 91//91 87//87 92//92 
f 91//91 84//84 87//87 
f 83//83 84//84 91//91 
f 103//103 91//91 90//90 
f 83//83 91//91 103//103 
f 103//103 90//90 16//16 
f 52//52 83//83 103//103 
f 83//83 52//52 49//49 
f 16//16 54//54 103//103 
f 52//52 103//103 54//54 
f 55//55 54//54 53//53 
