v -82.18817902 23.85392761 -107.2969513
v -82.14946747 23.77458382 -106.8544693
v -82.3506012 23.74014473 -107.1777802
v -82.55195618 23.89523315 -106.9414978
v -82.46151733 24.02786446 -106.8450165
v -82.38196564 23.85263824 -106.4947586
v -82.6244278 23.76624298 -106.4642105
v -82.50841522 24.6620636 -106.6270447
v -82.25832367 24.6241684 -106.7219696
v -82.15738678 24.7657814 -106.4247208
v -82.51993561 24.32351875 -106.3983154
v -82.44515991 25.92905426 -106.7431183
v -82.27716064 25.62428856 -106.4258194
v -81.97400665 25.8394928 -106.6006241
v -81.83943939 26.44522476 -106.4259415
v -81.81313324 26.41178513 -106.8566132
v -81.65706635 26.47060204 -106.5524673
v -81.74045563 27.02969742 -106.4868393
v -81.77880096 27.5750885 -106.4102173
v -81.7540741 27.31813812 -106.5417862
v -81.51729584 27.44843102 -106.2619705
v -81.75775146 28.07055283 -106.3041534
v -81.51631927 28.03608322 -106.4865646
v -81.70851135 28.6396122 -106.426445
v -82.53490448 27.96124649 -106.3658447
v -82.22160339 28.68525696 -106.4800034
v -83.07407379 28.41975975 -106.5022278
v -83.1071701 28.68738556 -106.6832886
v -82.67767334 28.82157707 -106.7071228
v -83.10307312 28.56468201 -106.9387665
v -83.00730133 27.27441978 -107.036644
v -82.6740036 26.96544456 -107.4612122
v -82.97830963 26.7442646 -107.3422852
v -83.18525696 27.02042007 -107.3217545
v -83.40234375 27.61444283 -106.8661804
v -83.11681366 27.68101692 -106.8860321
v -83.3595047 26.81843185 -107.1215668
v -83.02169037 26.55525398 -107.1786957
v -82.95529938 25.78004074 -107.4620209
v -83.09455872 25.79782295 -107.2355042
v -83.07505035 25.35928726 -107.0969162
v -83.1087265 24.48373604 -107.1810379
v -82.98160553 24.18308449 -107.0136642
v -82.94921875 24.04977989 -107.3714981
v -83.20178223 23.78854752 -107.5526276
v -83.05960083 23.86308479 -107.8809128
v -82.85533905 23.78572464 -107.6028748
v -82.92881775 23.7774353 -106.9269943
v -82.85441589 24.37578964 -106.9332504
v -82.72877502 24.0329361 -107.0247879
v -82.76152802 23.84730911 -107.1964951
v -82.73942566 24.71644402 -107.2118378
v -82.84614563 25.42098045 -107.4984512
v -82.65958405 25.52831268 -107.1083908
v -82.4630127 26.39415169 -107.0994949
v -82.61471558 25.94154739 -106.8846817
v -82.22703552 29.81014442 -107.1176376
v -82.44897461 29.6195488 -107.2437134
v -82.64874268 29.53324127 -106.9488449
v -82.29523468 29.04536819 -107.363472
v -82.47789001 28.78749847 -106.9994431
v -82.01731873 29.40288544 -107.1066895
v -82.52189636 29.63255501 -106.6844101
v -82.05220032 29.59695435 -106.6712952
v -82.43789673 29.04640388 -106.7067337
v -82.1457901 28.86371803 -106.8061676
v -82.23558807 28.74188995 -107.0227051
v -82.65727997 28.3226223 -107.2002716
v -81.64736938 28.47756577 -106.7601242
v -81.9916153 28.14435387 -107.1399841
v -82.64639282 27.70604706 -107.3692703
v -82.39826202 27.62196541 -107.2234192
v -82.04857635 27.64715576 -107.1998444
v -82.67288208 26.57025909 -107.2910538
v -82.466362 27.02447701 -107.1155396
v -82.20658112 26.75393677 -107.1188126
v -82.60388184 27.36670494 -107.3791962
v -81.75244904 27.3597126 -107.173439
v -82.08168793 27.52169991 -107.5764389
v -82.27593231 27.1569767 -107.6858749
v -82.40207672 27.39994049 -107.6307526
v -81.96395874 27.30405235 -107.5052109
v -82.22455597 27.16493416 -107.3375168
v -82.2455368 27.25885391 -107.5681152
v -82.0200119 27.06265259 -107.2045059
v -81.73364258 27.69674683 -106.736908
v -81.38757324 27.48096848 -106.4873276
v -81.96541595 26.37502289 -107.0439835
v -82.01355743 25.57616615 -106.8261642
v -82.27101135 26.13723183 -106.9533157
v -82.84692383 25.62901688 -106.9647217
v -82.5263443 26.38206863 -106.6363907
v -83.0590744 26.57987976 -106.8542252
v -82.89020538 26.51390839 -106.4461823
v -82.36850739 26.34306526 -106.4441452
v -82.08294678 26.41794395 -106.2983246
v -82.32392883 27.19069099 -106.2349548
v -83.20108795 27.19067955 -106.7877197
v -83.07125092 27.72064209 -106.5813065
v -83.46946716 27.52333641 -106.5736008
v -83.00118256 27.25711441 -106.6696854
v -82.72090912 27.41222191 -106.4045792
v -82.41834259 26.41094017 -106.2666016
vn 0.3466796577 0.7636201382 -0.5446994901
vn 0.8726114631 -0.4164480269 0.2551866174
vn -0.235370636 -0.9459968209 -0.2229139507
vn -0.8798403144 0.1728533357 -0.4427220225
vn -0.06928683072 0.7210367322 -0.6894239783
vn 0.9075636864 -0.1853198856 0.3768086135
vn -0.8647088408 -0.4941166937 0.09015168995
vn -0.812079072 0.02802373283 -0.5828741193
vn 0.4894576967 -0.2049400806 -0.8476029038
vn 0.8053590059 -0.1481842846 0.5739671588
vn -0.5561993718 0.05723754689 0.8290754557
vn -0.9727789164 -0.04700893909 0.226916939
vn -0.2633054256 -7.250768249e-05 0.9647125006
vn 0.8430493474 -0.1987585723 0.4997627139
vn 0.7350260019 -0.2905512452 0.6126310229
vn 0.9339661002 -0.2216145694 -0.2803466916
vn 0.976437211 0.01402150467 -0.215345636
vn 0.9816157222 0.1200837493 0.1483591944
vn 0.1269551516 -0.2981626093 0.9460346103
vn 0.6017814279 -0.3454035223 0.7201080322
vn 0.3038214445 -0.1540005356 0.94020015
vn 0.02578677423 0.09556870908 0.9950887561
vn 0.9799208641 0.1886002123 0.06469204277
vn 0.2939443886 0.4867954254 0.8225733638
vn -0.1152729914 0.1211827472 0.9859142303
vn -0.07412154227 0.4316299558 0.8990003467
vn -0.2641165853 0.1432377398 0.9537952542
vn -0.7791019678 0.5437838435 0.3119282722
vn -0.4312814176 0.8906921148 0.1437494457
vn -0.5857303143 0.2623229921 -0.7668811083
vn -0.3112327158 0.4052309692 -0.8596057296
vn -0.007447911892 0.08662055433 -0.9962135553
vn -0.3041600883 -0.06513320655 -0.9503916502
vn -0.2564380765 0.3647720516 -0.8950870633
vn -0.7483248711 0.2798228264 -0.6014225483
vn -0.5350297093 0.02434781566 -0.8444823027
vn -0.9299083948 -0.3603678346 -0.0735213086
vn -0.7668089867 -0.08200892806 -0.6366148591
vn -0.4434852302 0.1789424568 -0.8782371283
vn -0.9978870153 -0.0624957718 0.0177704785
vn -0.9748510718 0.02397339419 0.2215640992
vn -0.7700060606 -0.07674799114 -0.6334038377
vn -0.80277282 0.04100285098 0.5948735476
vn -0.03771515563 0.5720367432 -0.819360435
vn -0.9485720396 -0.3133247197 0.04515188932
vn -0.105970867 0.6337447762 -0.7662491202
vn 0.577480793 -0.7715371847 -0.2669198811
vn -0.2823231518 -0.7430741787 0.6067408323
vn 0.5573008657 0.04777991772 0.8289347291
vn 0.9034097195 -0.05314734578 0.4254717529
vn 0.9242932796 -0.1512460411 -0.3504376113
vn 0.9357452393 -0.05736798421 -0.347979486
vn 0.2586738765 -0.1274663806 -0.9575176835
vn 0.977674365 -0.21012263 0.001125461655
vn 0.6745102406 -0.2352587134 -0.6997780204
vn 0.6071667075 -0.7435647845 0.2801071405
vn 0.2702025175 0.864772141 -0.4232726693
vn -0.7025686502 0.09076486528 -0.7058038116
vn -0.9888943434 0.1420603544 -0.04366730154
vn 0.1401288062 -0.1479982734 -0.9790099263
vn -0.7368823886 0.1800053716 -0.651615262
vn 0.9486244321 -0.03772269934 -0.3141475618
vn -0.4057974517 0.5173870325 0.7534182668
vn 0.6318919659 0.232481733 0.7393677831
vn -0.4031410217 0.08432908356 0.911244154
vn 0.868686378 0.4144970775 0.2712492943
vn 0.5233734846 0.1297156662 -0.8421722054
vn -0.04765162617 0.3151837587 -0.9478335977
vn 0.7887865305 0.2304588258 -0.5698285103
vn 0.3434528708 0.1906754076 -0.9196102619
vn -0.05409841239 0.134560734 -0.9894275069
vn 0.1020493507 0.3944562078 -0.9132306576
vn 0.6834772825 0.298912555 -0.6659655571
vn 0.3141424954 -0.01122888364 -0.9493094087
vn 0.3764263988 -0.2437589318 -0.8938035369
vn 0.112738803 -0.1983959079 -0.9736164808
vn -0.5660951734 0.0173216965 -0.8241578937
vn 0.8420960307 0.09108240902 -0.5315808654
vn 0.2032049745 0.7397150397 -0.641505599
vn 0.2279938012 -0.1724691093 -0.9582657218
vn -0.5363571048 0.3094806373 -0.785202384
vn 0.5702572465 -0.6023895144 -0.5585101247
vn 0.007109578233 -0.7412932515 -0.6711435914
vn -0.1193332225 -0.8814074397 -0.4570344388
vn 0.8239375949 -0.2742463946 -0.495898962
vn 0.7835098505 0.1799422055 -0.5947546363
vn 0.9062343836 -0.330619961 -0.2634952366
vn 0.2970750928 -0.2420760244 -0.9236587882
vn 0.7590117455 -0.262961179 -0.5956110954
vn -0.1939966232 -0.2378767729 -0.9517247081
vn -0.2077110112 -0.1596814692 0.9650688767
vn -0.4618715048 -0.5201092958 0.7184434533
vn -0.7759284377 -0.2961337268 0.5569918156
vn -0.6242589355 -0.2180012763 0.7501841187
vn -0.6681351066 -0.4416241348 0.5988017917
vn 0.3096627593 -0.09154710919 0.9464291334
vn 0.02281920053 0.01382581331 0.9996439815
vn -0.338318795 -0.3844013214 0.8589388728
vn -0.2403250784 -0.2123000175 0.9471919537
vn -0.7468357682 -0.0668849051 0.6616364121
vn -0.7208760381 -0.07118880749 0.6893981695
vn -0.3711265624 0.03407403082 0.9279569387
vn -0.2013372183 -0.2247060835 0.9533994198
f 1//1 2//2 3//3 
f 1//1 3//3 4//4 
f 1//1 4//4 5//5 
f 1//1 5//5 2//2 
f 5//5 6//6 2//2 
f 5//5 4//4 7//7 
f 3//3 2//2 7//7 
f 7//7 4//4 3//3 
f 2//2 6//6 7//7 
f 7//7 8//8 5//5 
f 9//9 5//5 8//8 
f 9//9 6//6 5//5 
f 9//9 10//10 6//6 
f 10//10 11//11 6//6 
f 11//11 7//7 6//6 
f 8//8 7//7 11//11 
f 12//12 8//8 11//11 
f 10//10 13//13 11//11 
f 12//12 11//11 13//13 
f 14//14 13//13 10//10 
f 15//15 14//14 16//16 
f 17//17 15//15 16//16 
f 18//18 15//15 17//17 
f 19//19 20//20 21//21 
f 22//22 19//19 21//21 
f 22//22 21//21 23//23 
f 23//23 24//24 22//22 
f 24//24 25//25 22//22 
f 24//24 26//26 25//25 
f 26//26 27//27 25//25 
f 26//26 28//28 27//27 
f 29//29 28//28 26//26 
f 28//28 29//29 30//30 
f 31//31 32//32 33//33 
f 33//33 34//34 31//31 
f 28//28 30//30 35//35 
f 35//35 30//30 36//36 
f 31//31 34//34 35//35 
f 31//31 35//35 36//36 
f 34//34 33//33 37//37 
f 35//35 34//34 37//37 
f 37//37 33//33 38//38 
f 38//38 39//39 40//40 
f 41//41 42//42 43//43 
f 42//42 44//44 43//43 
f 44//44 45//45 43//43 
f 46//46 45//45 44//44 
f 46//46 44//44 47//47 
f 46//46 47//47 45//45 
f 47//47 48//48 45//45 
f 43//43 45//45 48//48 
f 43//43 48//48 49//49 
f 49//49 48//48 50//50 
f 51//51 47//47 44//44 
f 48//48 47//47 51//51 
f 48//48 51//51 50//50 
f 52//52 51//51 44//44 
f 50//50 51//51 52//52 
f 52//52 49//49 50//50 
f 42//42 52//52 44//44 
f 42//42 53//53 52//52 
f 53//53 54//54 52//52 
f 53//53 40//40 39//39 
f 53//53 42//42 41//41 
f 41//41 40//40 53//53 
f 55//55 54//54 53//53 
f 56//56 54//54 55//55 
f 57//57 58//58 59//59 
f 58//58 60//60 61//61 
f 59//59 58//58 61//61 
f 60//60 58//58 57//57 
f 60//60 57//57 62//62 
f 59//59 63//63 57//57 
f 57//57 63//63 64//64 
f 64//64 62//62 57//57 
f 59//59 61//61 65//65 
f 59//59 65//65 63//63 
f 63//63 65//65 64//64 
f 64//64 66//66 62//62 
f 64//64 65//65 66//66 
f 66//66 65//65 26//26 
f 65//65 29//29 26//26 
f 61//61 29//29 65//65 
f 67//67 68//68 61//61 
f 61//61 68//68 30//30 
f 29//29 61//61 30//30 
f 60//60 67//67 61//61 
f 60//60 62//62 67//67 
f 62//62 66//66 67//67 
f 66//66 26//26 24//24 
f 24//24 69//69 66//66 
f 66//66 69//69 67//67 
f 67//67 69//69 70//70 
f 68//68 67//67 70//70 
f 71//71 68//68 70//70 
f 68//68 71//71 30//30 
f 70//70 72//72 71//71 
f 72//72 70//70 73//73 
f 74//74 75//75 76//76 
f 75//75 74//74 32//32 
f 71//71 77//77 30//30 
f 71//71 72//72 77//77 
f 36//36 77//77 31//31 
f 30//30 77//77 36//36 
f 32//32 77//77 75//75 
f 77//77 32//32 31//31 
f 73//73 78//78 79//79 
f 79//79 72//72 73//73 
f 72//72 79//79 77//77 
f 79//79 80//80 81//81 
f 81//81 77//77 79//79 
f 78//78 82//82 79//79 
f 83//83 82//82 78//78 
f 84//84 81//81 80//80 
f 77//77 81//81 84//84 
f 78//78 85//85 83//83 
f 84//84 83//83 77//77 
f 79//79 84//84 80//80 
f 79//79 82//82 84//84 
f 83//83 85//85 76//76 
f 83//83 76//76 75//75 
f 77//77 83//83 75//75 
f 83//83 84//84 82//82 
f 69//69 73//73 70//70 
f 69//69 86//86 73//73 
f 24//24 23//23 69//69 
f 69//69 23//23 86//86 
f 78//78 73//73 86//86 
f 86//86 23//23 87//87 
f 86//86 87//87 78//78 
f 78//78 87//87 85//85 
f 85//85 87//87 20//20 
f 20//20 87//87 21//21 
f 23//23 21//21 87//87 
f 88//88 85//85 16//16 
f 85//85 88//88 76//76 
f 16//16 85//85 17//17 
f 85//85 18//18 17//17 
f 20//20 18//18 85//85 
f 38//38 74//74 39//39 
f 74//74 55//55 53//53 
f 74//74 53//53 39//39 
f 38//38 33//33 74//74 
f 32//32 74//74 33//33 
f 76//76 55//55 74//74 
f 76//76 88//88 55//55 
f 88//88 89//89 90//90 
f 55//55 88//88 90//90 
f 89//89 88//88 16//16 
f 89//89 14//14 10//10 
f 16//16 14//14 89//89 
f 89//89 9//9 90//90 
f 89//89 10//10 9//9 
f 56//56 90//90 12//12 
f 12//12 90//90 8//8 
f 55//55 90//90 56//56 
f 90//90 9//9 8//8 
f 91//91 43//43 49//49 
f 91//91 49//49 52//52 
f 52//52 54//54 91//91 
f 91//91 54//54 56//56 
f 40//40 41//41 91//91 
f 41//41 43//43 91//91 
f 92//92 91//91 56//56 
f 92//92 56//56 12//12 
f 93//93 38//38 40//40 
f 93//93 40//40 91//91 
f 93//93 91//91 92//92 
f 93//93 37//37 38//38 
f 93//93 92//92 94//94 
f 94//94 92//92 95//95 
f 92//92 12//12 95//95 
f 95//95 12//12 13//13 
f 20//20 96//96 18//18 
f 14//14 96//96 13//13 
f 13//13 96//96 95//95 
f 96//96 14//14 15//15 
f 18//18 96//96 15//15 
f 19//19 22//22 97//97 
f 19//19 97//97 20//20 
f 98//98 99//99 100//100 
f 98//98 93//93 101//101 
f 98//98 37//37 93//93 
f 101//101 99//99 98//98 
f 100//100 37//37 98//98 
f 27//27 100//100 99//99 
f 27//27 99//99 102//102 
f 102//102 99//99 101//101 
f 100//100 35//35 37//37 
f 28//28 35//35 100//100 
f 27//27 28//28 100//100 
f 97//97 102//102 94//94 
f 22//22 102//102 97//97 
f 101//101 94//94 102//102 
f 25//25 102//102 22//22 
f 25//25 27//27 102//102 
f 94//94 101//101 93//93 
f 94//94 103//103 97//97 
f 20//20 97//97 96//96 
f 96//96 103//103 95//95 
f 94//94 95//95 103//103 
f 97//97 103//103 96//96 
