v -48.85672379 4.364980221 -104.2319489
v -48.54290771 4.341030121 -104.7622528
v -48.90326691 4.156676769 -104.279274
v -48.53199768 4.243041039 -105.0551147
v -48.24084091 4.241528988 -104.9968719
v -48.44908142 4.070206642 -105.1684723
v -48.43844223 4.247569084 -104.6617737
v -48.55907822 4.079488277 -104.5377197
v -48.41296005 4.076892853 -104.4702148
v -48.70267487 4.263549805 -103.9741974
v -49.20728683 4.659481525 -104.2907104
v -49.16711044 4.344540596 -103.9844894
v -49.18621826 4.60654211 -104.8321304
v -49.42460251 4.985626698 -104.2741089
v -49.197052 4.411791325 -104.4400024
v -49.07052231 4.088917255 -104.2465363
v -48.90582657 4.056807518 -104.0257187
v -49.34690475 4.289940834 -104.4021149
v -49.36186218 3.940137863 -104.4805527
v -49.59060669 3.887185097 -104.4523239
v -49.58545303 2.919406176 -104.2599945
v -49.87906647 2.937316179 -104.4567413
v -50.12350464 2.951696157 -104.6458817
v -49.95282745 2.535885811 -104.6418152
v -50.00075531 0.5545505285 -104.918663
v -49.91621399 1.400826812 -104.7384872
v -49.84584808 1.934704661 -104.8792496
v -49.83241653 0.5918011665 -105.0673904
v -50.00268936 0.2192814946 -105.001564
v -49.85580444 0.2048359513 -104.752655
v -49.11567688 0.2394389808 -104.8086166
v -49.15876007 0.1872276962 -105.0205841
v -49.91531754 0.6358824968 -104.7986069
v -49.64709854 0.4364632666 -104.8420639
v -49.64107513 0.5060859323 -104.9959946
v -49.71471024 1.034524322 -104.6825714
v -49.48291397 1.274580002 -104.8755646
v -49.40520096 2.194074869 -104.5984573
v -49.71031952 1.993261218 -104.5481339
v -49.41118622 2.05361557 -104.9419937
v -49.67902756 1.681525588 -105.0289459
v -49.61045456 2.559566975 -105.0650482
v -49.28314209 2.512519598 -104.8064041
v -49.46040726 2.806975126 -104.4661942
v -49.25502777 2.765836716 -104.7303467
v -49.33417511 2.886272907 -104.9490051
v -49.54053879 2.266246796 -105.3879242
v -49.33824921 2.893691063 -105.2469177
v -49.30477524 2.834186316 -104.3967133
v -49.23485184 3.331276417 -104.996727
v -49.24155426 3.73556757 -105.0512314
v -49.27970886 4.161447048 -105.0805511
v -49.16165161 4.221069813 -105.2632446
v -49.48882294 3.74333334 -105.3554993
v -49.37192535 4.427896976 -105.5017624
v -49.58003998 4.901364803 -105.655365
v -49.31726456 4.675390244 -105.2453003
v -49.51544571 5.0695014 -105.1748657
v -49.846035 4.946361542 -105.5657196
v -49.69704056 3.981331825 -105.5051651
v -49.8010025 2.571456671 -105.0631409
v -50.01268768 1.90088594 -105.3772125
v -49.75704575 1.904311061 -105.3411636
v -50.27225876 1.42939961 -105.4168243
v -50.67281342 0.8641568422 -105.5046005
v -50.73500824 0.9134645462 -105.7101364
v -50.44943619 0.8418044448 -105.6352692
v -50.12508774 1.987260461 -105.5346069
v -50.80272675 1.093943596 -105.5550232
v -50.33585739 1.733198881 -105.6977234
v -51.1449585 0.9118307233 -105.4966888
v -50.99499512 0.7821260095 -105.385849
v -50.5572319 0.2067093104 -105.6803894
v -50.70057297 0.2292749435 -105.8143997
v -50.67313385 0.3422047198 -105.5062103
v -50.95760345 0.6091174483 -105.6693497
v -50.05678558 2.322116137 -105.2828293
v -50.19173813 2.969882011 -105.0935974
v -49.6618042 1.851427197 -105.6600647
v -50.05518341 1.373723745 -105.6643372
v -49.79311752 1.956666708 -105.785759
v -49.59450531 2.780410051 -105.6363144
v -49.91893768 2.174731016 -105.740509
v -49.94997787 2.923920631 -105.5749359
v -50.2477684 3.050606966 -105.2166519
v -49.98987961 3.619888306 -105.2784119
v -49.97399902 3.862693548 -104.793869
v -49.89906311 3.658316851 -104.662262
v -49.72641754 4.498979568 -104.291214
v -50.0586319 4.588835239 -105.3274078
v -49.94553375 4.311522484 -105.4676666
v -49.93888474 4.602460861 -104.4568558
v -49.98644638 4.446434021 -105.7148285
v -49.84544754 5.029353619 -105.0229187
v -49.65998459 4.891768456 -104.2554245
v -49.57287216 5.242083549 -104.9103928
v -49.5930748 5.005193233 -104.3864059
v -49.40587616 4.806670189 -105.0046768
v -49.29358292 5.061095715 -105.0890579
v -49.07066727 4.861351967 -104.8891983
v -49.07043076 5.070085526 -105.0740433
v -48.84691238 5.206617355 -104.8370514
v -48.86448669 5.505800247 -105.0734863
v -48.76137161 5.545968056 -104.6614532
v -49.0319519 5.114688396 -104.6531982
v -49.39380646 5.044245243 -104.7314911
v -49.09809494 5.447267056 -104.5041962
v -49.0210228 5.791712761 -104.9938049
v -49.20119476 5.803113461 -104.7275696
v -49.31527328 5.589970589 -105.0892715
v -49.42143631 5.588779449 -104.7033234
v -49.70757675 3.805541277 -105.4485321
v -49.69397736 4.41259861 -105.8132401
v -49.66288757 3.79924202 -105.839592
v -49.76625443 3.669875383 -105.6093445
v -49.37975311 2.854688406 -105.8422699
v -49.69298935 3.033333302 -105.7735825
v -49.53340912 2.749927759 -105.8818817
v -49.8132019 3.762785435 -105.9590149
v -50.04188156 3.847946167 -105.7623062
v -49.7883606 3.055387259 -105.9791641
vn 0.3707694113 0.8585242033 -0.3542121649
vn -0.3041015267 0.9266448021 -0.2210241556
vn -0.5707060695 -0.3931566179 -0.7209177613
vn -0.6822675467 -0.2005189955 -0.7030669451
vn 0.7974300981 0.5706108212 -0.1962360144
vn -0.007869578898 -0.9998794794 0.01338213217
vn 0.8685052991 0.3821911514 0.3156397641
vn -0.1069129035 -0.9494169354 -0.2952576578
vn 0.7368097901 -0.564475894 0.3721266985
vn 0.577203691 0.5079741478 0.6393732429
vn 0.6673841476 0.6601446867 0.3446845412
vn -0.1607905626 0.2052510232 0.9654110074
vn 0.9184735417 0.3453041017 -0.1927989125
vn 0.638574183 0.7545155287 0.1514242142
vn 0.9768010974 -0.1540702134 -0.1487346441
vn -0.06104320288 -0.7787440419 -0.6243647933
vn -0.2347863615 -0.8908197284 0.388992995
vn -0.1355068088 -0.7431609035 0.6552478671
vn 0.7904905081 -0.008089056239 0.6124209166
vn -0.3599083424 0.04133489355 0.9320715666
vn -0.045717787 0.005797452293 0.9989375472
vn -0.465474844 -0.06246023998 0.8828544021
vn -0.9030055404 -0.04336548969 0.4274347425
vn -0.951623559 -0.2478622496 0.181595549
vn -0.9941271544 0.09326278418 -0.05489358678
vn -0.813379705 0.02819484659 0.5810495019
vn -0.9333533645 0.01758043282 -0.3585281372
vn -0.2844110727 0.05082312971 -0.9573543668
vn -0.3425779045 -0.5802568793 -0.7388790846
vn -0.1752958 -0.6176516414 0.7666667104
vn 0.3593477905 0.03616162762 0.9325028062
vn 0.2901047766 -0.5181838274 -0.8045648932
vn -0.3936413527 -0.2060697079 0.8958692551
vn 0.3204728365 0.4073728621 0.85518682
vn 0.9078620076 0.09018978477 -0.4094538093
vn 0.3455958962 -0.2013766915 0.9165210724
vn 0.9797148108 -0.1917268187 -0.05830748007
vn 0.756143868 -0.1872583032 0.6270413399
vn -0.3322345316 -0.1418420821 0.9324703813
vn 0.8032773137 -0.1073606536 -0.5858491063
vn 0.09898366034 -0.03370597959 -0.9945180416
vn 0.5696288347 -0.3122496009 -0.7602783442
vn 0.8745620251 -0.1424625218 -0.4635144472
vn 0.2265972644 -0.3245812356 0.9183140397
vn 0.9683046341 -0.1647468954 0.1877353787
vn 0.9244714379 -0.3564645052 -0.1352242529
vn 0.7597461343 -0.4659378231 0.453528136
vn 0.9356695414 -0.1239760965 -0.3303823173
vn 0.9209321737 -0.005838864017 0.3896790743
vn 0.975984931 -0.02935959958 -0.2158504874
vn 0.9928607941 -0.04492213205 -0.11049629
vn 0.9816666245 0.188125059 -0.03065365553
vn 0.9145597816 -0.01642321609 -0.4041171968
vn 0.6214187741 -0.08794628829 -0.7785269022
vn 0.6258940101 -0.1908952445 -0.7561849356
vn 0.651309967 0.4429903626 -0.6160802245
vn 0.9338677526 0.3551665843 -0.04180575535
vn 0.5713614225 0.7001444101 -0.4281868339
vn -0.5341307521 0.68462044 -0.4959830046
vn 0.4893305898 -0.6492971778 -0.5822102427
vn -0.782694459 -0.5642598271 0.2626789212
vn -0.4382296801 -0.006481443532 0.8988396525
vn 0.4663730562 -0.480027318 0.7430140972
vn 0.3312146366 -0.3845878243 0.8616200089
vn 0.3673266172 -0.1543129534 0.917201519
vn 0.05386935174 0.05336717516 -0.9971208572
vn 0.6540273428 -0.7194666266 0.2337006629
vn -0.8587105274 0.5124415159 0.004460718017
vn -0.6515898108 0.5154615641 0.5565339923
vn -0.5279505849 0.4204950035 -0.737869978
vn -0.7925251722 0.3678664565 -0.4863929152
vn -0.2188030034 -0.1395439804 0.9657394886
vn 0.9913447499 0.06709107012 -0.1128468588
vn -0.3729953468 -0.3475060165 -0.8602988124
vn 0.202265501 -0.5105749369 0.8357044458
vn -0.8396929502 -0.3576434255 -0.4086647928
vn -0.9954922199 -0.07550761104 0.05739209056
vn -0.8828532696 -0.4634090662 0.07630278915
vn 0.9022562504 -0.3896184266 -0.1847461015
vn 0.6728611588 -0.5774400234 -0.4624077082
vn 0.0601163283 0.009718892165 -0.9981440902
vn 0.5624744892 0.09755469114 -0.821039319
vn -0.6220167875 0.1724364161 -0.7637805939
vn -0.6498426199 0.1173608154 -0.7509534359
vn -0.9756658077 0.2165545523 -0.03435664251
vn -0.8780372739 0.1052482724 -0.466876179
vn -0.9897882342 0.03762709722 0.1374899
vn -0.8044809103 0.02556683123 0.5934280157
vn -0.4760023654 -0.3524649441 0.8057233691
vn -0.9937441349 0.1116765365 0.0009755547508
vn -0.947347939 -0.2696934342 -0.1726190746
vn -0.9363234043 0.1384375393 0.322697252
vn -0.7573328018 0.2121483386 -0.6176083684
vn -0.8163601756 0.5628386736 0.1294938922
vn -0.5175882578 0.5166971684 0.6820017695
vn -0.5993224978 0.7959262133 -0.08552213013
vn 0.6378671527 0.7606066465 0.120843038
vn 0.9748443365 0.2074872702 -0.08140979707
vn -0.05167261884 -0.3293167055 -0.942804575
vn 0.2353988737 -0.9707602859 0.04703077674
vn 0.3598081768 -0.2441093475 -0.9005268812
vn 0.9073154926 -0.4089681804 -0.09758925438
vn 0.6188725829 0.07097300887 -0.7822784185
vn 0.8286044598 0.3140777051 0.4634327292
vn 0.3548921347 -0.5098686218 0.7836360931
vn -0.0932393074 -0.4106642306 0.9070068002
vn -0.1019498557 0.04559691623 0.9937440157
vn 0.3612673283 0.8514469266 -0.3801631629
vn -0.1424126476 0.8972964287 0.4178249836
vn -0.4112393856 0.3531950414 -0.8403186798
vn -0.7949254513 0.3203231096 0.5152539611
vn -0.1240917593 0.1831449121 -0.9752226472
vn 0.4409412444 0.1007804051 -0.8918599486
vn 0.9862197638 0.1283694506 -0.104363963
vn 0.2001140565 -0.1329975873 0.9707038999
vn 0.9612653255 0.07501808554 -0.265219301
vn -0.5211308002 -0.3700726628 0.7690701485
vn -0.4707715213 -0.8733978868 0.1247007474
vn -0.02347736992 0.1251884848 -0.9918551445
vn -0.9484633207 -0.2141542882 0.2335707396
vn -0.484780848 -0.2186440974 -0.8468661308
f 1//1 2//2 3//3 
f 3//3 2//2 4//4 
f 5//5 4//4 2//2 
f 5//5 6//6 4//4 
f 7//7 6//6 5//5 
f 2//2 1//1 7//7 
f 5//5 2//2 7//7 
f 7//7 4//4 6//6 
f 7//7 8//8 4//4 
f 3//3 4//4 8//8 
f 8//8 7//7 9//9 
f 7//7 10//10 9//9 
f 7//7 1//1 10//10 
f 11//11 12//12 10//10 
f 1//1 11//11 10//10 
f 11//11 13//13 14//14 
f 3//3 15//15 1//1 
f 15//15 11//11 1//1 
f 15//15 13//13 11//11 
f 3//3 16//16 15//15 
f 9//9 17//17 8//8 
f 10//10 17//17 9//9 
f 17//17 3//3 8//8 
f 12//12 17//17 10//10 
f 16//16 3//3 17//17 
f 17//17 18//18 16//16 
f 16//16 18//18 15//15 
f 18//18 19//19 15//15 
f 18//18 20//20 19//19 
f 20//20 21//21 19//19 
f 21//21 20//20 22//22 
f 23//23 22//22 20//20 
f 22//22 23//23 24//24 
f 25//25 26//26 27//27 
f 25//25 27//27 28//28 
f 28//28 29//29 25//25 
f 29//29 30//30 25//25 
f 31//31 30//30 32//32 
f 29//29 28//28 32//32 
f 32//32 30//30 29//29 
f 26//26 25//25 33//33 
f 32//32 34//34 31//31 
f 31//31 34//34 30//30 
f 34//34 25//25 30//30 
f 33//33 25//25 34//34 
f 32//32 35//35 34//34 
f 32//32 28//28 35//35 
f 34//34 35//35 36//36 
f 36//36 33//33 34//34 
f 26//26 33//33 36//36 
f 35//35 37//37 36//36 
f 36//36 37//37 38//38 
f 39//39 22//22 24//24 
f 36//36 39//39 26//26 
f 39//39 27//27 26//26 
f 38//38 39//39 36//36 
f 24//24 27//27 39//39 
f 37//37 40//40 38//38 
f 35//35 28//28 41//41 
f 35//35 41//41 37//37 
f 41//41 40//40 37//37 
f 28//28 27//27 41//41 
f 41//41 42//42 40//40 
f 40//40 43//43 38//38 
f 40//40 42//42 43//43 
f 21//21 22//22 44//44 
f 44//44 22//22 39//39 
f 44//44 39//39 38//38 
f 45//45 44//44 38//38 
f 43//43 45//45 38//38 
f 43//43 46//46 45//45 
f 43//43 42//42 46//46 
f 46//46 42//42 47//47 
f 48//48 46//46 47//47 
f 49//49 44//44 45//45 
f 21//21 44//44 49//49 
f 19//19 21//21 49//49 
f 46//46 48//48 50//50 
f 45//45 46//46 50//50 
f 50//50 49//49 45//45 
f 51//51 15//15 19//19 
f 51//51 13//13 15//15 
f 51//51 19//19 49//49 
f 50//50 51//51 49//49 
f 51//51 52//52 13//13 
f 53//53 52//52 51//51 
f 54//54 53//53 51//51 
f 54//54 55//55 53//53 
f 55//55 56//56 53//53 
f 53//53 56//56 57//57 
f 57//57 52//52 53//53 
f 56//56 58//58 57//57 
f 56//56 59//59 58//58 
f 54//54 60//60 55//55 
f 61//61 62//62 63//63 
f 63//63 62//62 64//64 
f 65//65 66//66 67//67 
f 67//67 64//64 65//65 
f 68//68 69//69 62//62 
f 70//70 66//66 69//69 
f 69//69 68//68 70//70 
f 64//64 69//69 65//65 
f 62//62 69//69 64//64 
f 66//66 71//71 69//69 
f 69//69 71//71 72//72 
f 65//65 69//69 72//72 
f 73//73 74//74 66//66 
f 75//75 74//74 73//73 
f 66//66 65//65 75//75 
f 65//65 72//72 75//75 
f 66//66 75//75 73//73 
f 75//75 72//72 76//76 
f 76//76 72//72 71//71 
f 74//74 76//76 66//66 
f 71//71 66//66 76//76 
f 75//75 76//76 74//74 
f 63//63 47//47 61//61 
f 62//62 77//77 68//68 
f 61//61 23//23 78//78 
f 61//61 77//77 62//62 
f 78//78 77//77 61//61 
f 24//24 23//23 61//61 
f 27//27 24//24 61//61 
f 41//41 27//27 61//61 
f 42//42 41//41 61//61 
f 61//61 47//47 42//42 
f 64//64 79//79 63//63 
f 63//63 79//79 47//47 
f 80//80 64//64 67//67 
f 64//64 80//80 79//79 
f 81//81 82//82 79//79 
f 80//80 81//81 79//79 
f 79//79 48//48 47//47 
f 82//82 48//48 79//79 
f 66//66 81//81 80//80 
f 67//67 66//66 80//80 
f 66//66 70//70 81//81 
f 81//81 70//70 68//68 
f 81//81 83//83 82//82 
f 68//68 83//83 81//81 
f 68//68 77//77 83//83 
f 84//84 83//83 77//77 
f 77//77 78//78 84//84 
f 85//85 78//78 23//23 
f 84//84 78//78 85//85 
f 86//86 84//84 85//85 
f 85//85 87//87 86//86 
f 88//88 87//87 85//85 
f 23//23 88//88 85//85 
f 23//23 20//20 88//88 
f 12//12 89//89 17//17 
f 89//89 18//18 17//17 
f 18//18 89//89 20//20 
f 20//20 89//89 88//88 
f 86//86 90//90 91//91 
f 86//86 87//87 90//90 
f 92//92 88//88 89//89 
f 92//92 87//87 88//88 
f 92//92 90//90 87//87 
f 90//90 59//59 93//93 
f 90//90 93//93 91//91 
f 90//90 92//92 94//94 
f 94//94 59//59 90//90 
f 89//89 95//95 92//92 
f 95//95 94//94 92//92 
f 12//12 95//95 89//89 
f 14//14 95//95 11//11 
f 11//11 95//95 12//12 
f 59//59 94//94 96//96 
f 58//58 59//59 96//96 
f 96//96 94//94 95//95 
f 96//96 95//95 97//97 
f 95//95 14//14 97//97 
f 97//97 14//14 13//13 
f 58//58 98//98 57//57 
f 52//52 57//57 98//98 
f 13//13 52//52 98//98 
f 13//13 98//98 97//97 
f 58//58 96//96 99//99 
f 98//98 58//58 99//99 
f 100//100 99//99 101//101 
f 101//101 102//102 100//100 
f 103//103 102//102 101//101 
f 103//103 104//104 102//102 
f 102//102 104//104 105//105 
f 102//102 105//105 100//100 
f 106//106 96//96 97//97 
f 99//99 106//106 98//98 
f 98//98 106//106 97//97 
f 105//105 106//106 100//100 
f 100//100 106//106 99//99 
f 104//104 107//107 105//105 
f 107//107 106//106 105//105 
f 103//103 108//108 104//104 
f 104//104 108//108 109//109 
f 109//109 107//107 104//104 
f 108//108 110//110 109//109 
f 103//103 110//110 108//108 
f 109//109 111//111 107//107 
f 101//101 110//110 103//103 
f 99//99 110//110 101//101 
f 111//111 106//106 107//107 
f 111//111 96//96 106//106 
f 99//99 96//96 110//110 
f 111//111 110//110 96//96 
f 110//110 111//111 109//109 
f 83//83 84//84 82//82 
f 84//84 112//112 82//82 
f 54//54 82//82 112//112 
f 51//51 82//82 54//54 
f 48//48 82//82 50//50 
f 82//82 51//51 50//50 
f 84//84 86//86 112//112 
f 112//112 86//86 60//60 
f 112//112 60//60 54//54 
f 60//60 86//86 91//91 
f 56//56 55//55 113//113 
f 113//113 59//59 56//56 
f 93//93 59//59 113//113 
f 113//113 55//55 60//60 
f 114//114 113//113 60//60 
f 115//115 114//114 60//60 
f 115//115 116//116 114//114 
f 117//117 118//118 116//116 
f 116//116 115//115 117//117 
f 113//113 119//119 93//93 
f 114//114 119//119 113//113 
f 116//116 119//119 114//114 
f 91//91 93//93 120//120 
f 119//119 120//120 93//93 
f 91//91 120//120 60//60 
f 120//120 115//115 60//60 
f 115//115 120//120 117//117 
f 116//116 121//121 119//119 
f 118//118 121//121 116//116 
f 117//117 121//121 118//118 
f 117//117 120//120 121//121 
f 121//121 120//120 119//119 
