v -23.79561806 4.715908527 -143.9932861
v -23.79234886 4.531810284 -144.2579651
v -23.98588181 3.974185228 -144.0969238
v -23.83106613 4.27509737 -143.4750977
v -23.90151215 3.384148836 -143.3677826
v -23.91222382 3.387936354 -143.1383209
v -24.02432442 2.878248215 -143.20578
v -23.73038673 3.421690702 -143.054657
v -23.82068062 2.837727785 -143.0908203
v -23.96998024 2.587347269 -143.248291
v -24.1276989 2.726386309 -143.3045959
v -24.05325699 2.50658989 -143.3458862
v -23.96068764 2.742254257 -143.4386444
v -23.3927002 5.437233448 -143.8496246
v -23.6101017 5.040772438 -143.7518005
v -23.48101616 5.176716805 -144.0051727
v -23.79468536 4.726837158 -143.30513
v -23.84620857 4.732769012 -143.8122101
v -23.63718224 4.778336525 -143.2584839
v -23.89196014 4.768066883 -144.0122681
v -23.75886154 4.907222748 -143.9868774
v -23.9800415 5.03732729 -143.8821411
v -23.62874794 5.319318295 -143.7239685
v -23.42498589 5.661135197 -144.0705872
v -23.50323296 5.657347202 -143.6947784
v -23.41387367 5.691260338 -143.8540497
v -23.11085892 4.608170986 -144.5772858
v -23.57707405 5.011222839 -144.1824188
v -23.41682816 4.834691525 -144.6623993
v -23.58876991 4.557180405 -144.6280823
v -23.43948555 3.762881517 -144.8695221
v -23.20055199 3.782470226 -144.2714233
v -23.12658501 4.367717743 -144.5112
v -23.34465408 3.8703022 -144.5006866
v -23.24566841 3.565118074 -144.5667725
v -23.07703781 3.83609724 -144.7306976
v -23.24926376 3.390923023 -144.8191376
v -23.22514534 4.5419631 -144.7128601
v -23.71529579 5.318016529 -144.184845
v -23.70632744 5.864796638 -143.8844757
v -24.00379372 5.740273952 -143.7748108
v -23.92585564 5.615091801 -143.7200317
v -23.54833412 5.628881454 -144.1838989
v -24.08716202 5.287816048 -143.8420105
v -23.97889137 5.418454647 -144.0377808
v -24.05604362 5.687072277 -143.8590851
v -24.03785706 5.425671101 -143.8586121
v -24.01359558 4.251170635 -143.9772644
v -23.5458889 4.371330261 -143.1348267
v -23.38931274 4.233250618 -143.3629761
v -23.16670609 3.965108395 -143.9340668
v -23.36419296 3.782570362 -143.6215363
v -23.60163498 3.996293306 -143.447937
v -23.85963249 2.873292685 -143.3742523
v -23.18009567 3.381579399 -144.4521027
v -23.30092239 2.661296606 -143.6167603
v -23.21193886 2.800102234 -144.045929
v -23.2408638 1.866330504 -143.8197479
v -23.63441277 0.411482811 -143.7313995
v -24.16631699 0.2877774537 -143.6555328
v -23.99842072 0.1958493888 -143.5783234
v -23.647295 0.6204170585 -143.8921661
v -24.17691231 0.17079629 -143.7844391
v -23.4050312 0.6273331046 -143.7444458
v -23.36951637 0.3134895861 -143.7638092
v -23.26123619 0.16175282 -143.84375
v -23.15101242 0.5968906879 -143.9257355
v -23.43824387 0.5666233897 -144.0620117
v -23.33833885 1.165277839 -143.9599915
v -23.26550865 1.554163814 -143.6651154
v -23.45774841 0.7395755649 -144.0807037
v -23.6746006 1.174538255 -143.825592
v -23.53919792 2.559824705 -144.1255341
v -23.32637596 2.086168528 -144.2973633
v -23.20286179 2.817338228 -144.4480286
v -23.23531532 2.135273457 -144.5705872
v -23.18263245 1.872929573 -144.3170013
v -22.99135017 1.136337042 -144.219635
v -23.22313499 1.01782918 -144.5279541
v -23.09584999 0.7864114642 -144.2847748
v -23.02864265 0.7724457979 -144.4775848
v -22.88856888 0.9272610545 -144.5195618
v -23.42239189 3.003154993 -144.6990814
v -23.4288578 3.545921803 -144.5730438
v -23.77673912 3.207609177 -144.8440552
v -23.3288784 2.04373765 -144.7104187
v -22.86072922 0.3937045336 -144.4087524
v -22.56475639 0.3487624824 -144.2361298
v -23.01747894 0.1417136937 -144.539917
v -23.05223465 0.5515565276 -144.3571777
v -22.70397758 0.6456953287 -144.4847565
v -22.55673027 0.4150618017 -144.1620636
v -23.24334908 0.2791844904 -144.2761688
v -22.82879257 0.2858920097 -144.1487579
v -22.67813301 0.8373602629 -144.3262329
v -22.87677956 0.7375233173 -144.1112061
v -23.71165848 2.951931 -144.7118378
v -23.5452137 1.846007586 -144.2456818
v -23.92238617 2.907689571 -144.581665
v -23.88738823 3.220773935 -144.7308655
v -24.02656937 3.170409203 -144.4335938
v -23.72732544 2.594087839 -144.1359253
v -23.90411568 2.619199514 -143.7191925
v -23.86641502 3.112310886 -144.3682251
v -23.90788651 3.19974184 -144.0545044
v -24.03499603 3.497517347 -144.0972595
v -24.00270844 2.712913036 -143.9818115
v -23.6255455 3.439068556 -144.5624695
v -24.02043724 3.90590024 -144.1141052
v -23.8523159 3.76156354 -143.5988617
v -23.52688408 3.62826395 -144.653717
v -23.58572578 3.462244749 -143.4954987
v -23.56513596 2.626232386 -143.4417877
v -23.46823502 0.997322917 -143.6308899
vn -0.8552745581 0.1539457291 -0.4947788417
vn -0.8556765318 0.3111314774 -0.4135394096
vn -0.7075079083 -0.03876979649 -0.7056412101
vn -0.9885533452 -0.1456184983 0.03946522251
vn -0.6737452149 0.01105591469 -0.7388810515
vn -0.9232461452 0.1236352623 0.3637731075
vn -0.8974497318 0.06739024818 0.4359386861
vn 0.0731927827 0.02078332938 0.9971012473
vn 0.8762086034 -0.3410540521 0.3405005336
vn 0.4457342625 -0.7259401083 0.5237670541
vn -0.9428442121 0.2843151987 -0.173809126
vn -0.4060619771 -0.6989968419 -0.5886570215
vn 0.1903602779 -0.1752334386 -0.9659483433
vn 0.909018755 -0.1911540031 0.3703310192
vn -0.4686864913 0.4299012721 0.7716980577
vn 0.9190009236 0.3922344148 -0.03986872733
vn -0.8206423521 0.2591491938 0.5093013048
vn -0.8971591592 0.4162862897 0.1476859152
vn 0.8317600489 0.38628304 0.3986986578
vn -0.8454760909 0.3930977583 -0.3614475429
vn -0.9564443231 -0.2869391143 -0.05366741866
vn -0.8292645812 -0.5584990978 0.0199748762
vn -0.06834350526 -0.1653020084 0.9838721752
vn 0.796967566 0.1605437994 -0.5822957754
vn 0.233644098 0.2853218317 0.9295170307
vn 0.7879320383 0.5918244123 0.1700205356
vn 0.9414165616 0.2861856818 0.1784170866
vn -0.6534587145 0.3327979445 -0.679880321
vn -0.122355178 0.5025114417 -0.8558688164
vn -0.8405098915 -0.0601464361 -0.5384473205
vn -0.1937659681 0.1441330463 -0.9704021811
vn 0.9958232641 -0.03727175295 0.08334753662
vn 0.9814947248 -0.1395861208 0.1310872883
vn -0.4567425549 -0.07490483671 -0.8864398003
vn 0.5285521746 -0.3050421178 0.7922006845
vn 0.7113864422 0.04625587165 -0.7012771964
vn 0.5885525346 -0.3523825109 -0.7276211381
vn 0.6605150104 0.1740572751 -0.7303587794
vn -0.164670527 -0.1631016135 -0.9727699757
vn 0.01514657494 0.9903765321 -0.1375676394
vn -0.1845992804 0.6485806108 0.7384214997
vn -0.2986383438 -0.1039176434 0.9486918449
vn -0.2668910921 0.4685766101 -0.842143178
vn -0.9362723231 -0.3213853538 0.1417940557
vn -0.6064453125 0.1544854939 -0.7799732685
vn -0.6488710642 0.4891398251 -0.582845211
vn -0.7133395672 -0.1127543449 0.6916885972
vn -0.9805166125 0.1036902741 0.1668395996
vn 0.2855949402 0.1231705621 0.9504023194
vn 0.9621794224 0.03197043389 0.2705339491
vn 0.974014461 -0.04102162272 0.2227398902
vn 0.8445643187 -0.08905345201 0.5279968381
vn -0.7856811881 -0.6184546351 -0.01479747333
vn 0.5805462599 -0.2343864143 -0.7797621489
vn 0.9153596163 0.05975822359 -0.3981780708
vn 0.8768689036 0.0221617762 0.4802184105
vn 0.9922368526 -0.1073026285 0.0628663823
vn 0.9820694327 -0.01588460989 -0.1878491491
vn -0.175825879 0.6051868796 0.7764239311
vn -0.4129524231 0.8754247427 0.2512007952
vn 0.09934254736 -0.4668660462 0.8787304163
vn -0.8299424052 0.5453705788 0.117330648
vn -0.4187469184 -0.4252358377 -0.8023873568
vn 0.319778055 -0.09955035895 0.9422482252
vn 0.3753528297 -0.008392652497 0.9268440008
vn 0.2092721164 -0.8329297304 -0.5122823715
vn 0.9956216812 -0.04182483256 -0.08359523863
vn -0.07244084775 -0.2635620236 -0.9619185925
vn 0.1705929041 -0.02011014707 -0.9851363301
vn 0.2723454833 -0.0915858075 0.9578308463
vn -0.4860411286 0.1234339699 -0.8651751876
vn -0.8960337639 -0.2053469867 -0.3936447203
vn 0.7859434485 -0.3343707919 -0.5200856924
vn 0.7531398535 -0.1528720558 0.6398519278
vn 0.9778389931 -0.06106873229 -0.20025374
vn 0.9545584321 0.05081070587 -0.2936604321
vn 0.7806046605 0.3605030179 0.5105819702
vn -0.1628091186 -0.08803251386 0.9827224612
vn -0.813470006 -0.3913401365 -0.430255115
vn -0.653439641 -0.002017368563 0.7569758892
vn -0.2237135172 -0.2775705159 -0.9342948794
vn 0.316747576 -0.0979828164 -0.9434353709
vn 0.6032822728 -0.05283127725 -0.79577595
vn 0.6243140697 0.4940647483 -0.6050883532
vn -0.3457018137 -0.0578353852 -0.9365603924
vn 0.223396197 0.008363272995 -0.9746918678
vn 0.2271885872 -0.03480311111 -0.973228693
vn 0.4511588216 -0.8682286739 -0.2064817548
vn -0.07485052198 -0.6375892758 -0.7667315602
vn -0.9847054482 0.06749661267 0.1606218666
vn 0.4110323191 -0.05337130278 -0.9100571275
vn 0.4093123674 0.1076825187 0.9060176015
vn -0.4357773662 -0.7557718754 0.4887811244
vn -0.1875687838 0.1302497387 0.9735773802
vn 0.9075921178 0.4183865488 0.03505983204
vn -0.1561890095 0.09802677482 0.9828508496
vn -0.191218406 -0.1842791885 -0.9640937448
vn -0.7070721984 -0.3232652247 0.6289265156
vn -0.8821980953 -0.3317519128 -0.3341664672
vn -0.7264503241 0.5306766629 -0.4366373718
vn -0.7989102602 0.4602754712 -0.3871548176
vn -0.8813560605 -0.2376715094 -0.4083181918
vn -0.8460757136 -0.1365655363 0.5152724981
vn -0.9238864779 -0.3233929574 0.2045746148
vn -0.7802655101 -0.3825983703 -0.4947769642
vn -0.9996685386 0.007593081798 0.02459893003
vn -0.6654197574 -0.3765842021 -0.6445160508
vn -0.5876409411 0.4324766397 -0.6838436127
vn -0.9796931744 0.1172659919 -0.1626344472
vn -0.7777538896 0.05173174292 0.6264365315
vn -0.9056295753 0.05677793548 0.4202514887
vn 0.228243351 0.01625302061 0.9734684229
vn -0.1014444381 -0.1023815647 0.9895589948
vn -0.4375 -0.08953300864 0.894749999
f 1//1 2//2 3//3 
f 4//4 5//5 6//6 
f 7//7 6//6 5//5 
f 7//7 8//8 6//6 
f 7//7 9//9 8//8 
f 10//10 9//9 7//7 
f 11//11 12//12 10//10 
f 12//12 13//13 10//10 
f 7//7 11//11 10//10 
f 14//14 15//15 16//16 
f 17//17 15//15 18//18 
f 17//17 19//19 15//15 
f 16//16 15//15 19//19 
f 18//18 15//15 20//20 
f 20//20 15//15 21//21 
f 22//22 21//21 15//15 
f 15//15 23//23 22//22 
f 14//14 23//23 15//15 
f 14//14 16//16 24//24 
f 25//25 23//23 14//14 
f 26//26 14//14 24//24 
f 26//26 25//25 14//14 
f 19//19 27//27 16//16 
f 28//28 16//16 29//29 
f 16//16 27//27 29//29 
f 28//28 29//29 2//2 
f 30//30 29//29 31//31 
f 30//30 2//2 29//29 
f 32//32 33//33 27//27 
f 34//34 33//33 32//32 
f 34//34 35//35 33//33 
f 36//36 35//35 37//37 
f 31//31 36//36 37//37 
f 38//38 27//27 33//33 
f 38//38 29//29 27//27 
f 35//35 36//36 33//33 
f 29//29 36//36 31//31 
f 38//38 36//36 29//29 
f 36//36 38//38 33//33 
f 28//28 39//39 16//16 
f 39//39 24//24 16//16 
f 40//40 26//26 24//24 
f 40//40 25//25 26//26 
f 40//40 41//41 25//25 
f 42//42 23//23 25//25 
f 41//41 42//42 25//25 
f 40//40 24//24 43//43 
f 43//43 24//24 39//39 
f 39//39 28//28 22//22 
f 39//39 22//22 44//44 
f 45//45 39//39 44//44 
f 45//45 43//43 39//39 
f 43//43 46//46 40//40 
f 46//46 41//41 40//40 
f 42//42 41//41 46//46 
f 46//46 43//43 45//45 
f 44//44 47//47 45//45 
f 46//46 45//45 47//47 
f 46//46 47//47 42//42 
f 47//47 23//23 42//42 
f 44//44 23//23 47//47 
f 44//44 22//22 23//23 
f 22//22 28//28 21//21 
f 21//21 28//28 20//20 
f 20//20 28//28 2//2 
f 3//3 20//20 1//1 
f 3//3 48//48 20//20 
f 20//20 2//2 1//1 
f 18//18 20//20 48//48 
f 48//48 17//17 18//18 
f 4//4 17//17 48//48 
f 6//6 17//17 4//4 
f 6//6 8//8 17//17 
f 17//17 8//8 49//49 
f 19//19 17//17 49//49 
f 19//19 50//50 27//27 
f 19//19 49//49 50//50 
f 49//49 8//8 50//50 
f 50//50 51//51 27//27 
f 50//50 52//52 51//51 
f 53//53 50//50 54//54 
f 50//50 53//53 52//52 
f 50//50 8//8 9//9 
f 9//9 54//54 50//50 
f 27//27 51//51 32//32 
f 51//51 52//52 32//32 
f 34//34 32//32 55//55 
f 56//56 32//32 52//52 
f 32//32 57//57 55//55 
f 58//58 57//57 56//56 
f 56//56 57//57 32//32 
f 59//59 60//60 61//61 
f 59//59 62//62 63//63 
f 64//64 62//62 59//59 
f 64//64 59//59 65//65 
f 61//61 65//65 59//59 
f 59//59 63//63 60//60 
f 60//60 63//63 61//61 
f 66//66 65//65 61//61 
f 63//63 66//66 61//61 
f 67//67 64//64 65//65 
f 67//67 65//65 66//66 
f 63//63 68//68 66//66 
f 62//62 68//68 63//63 
f 67//67 69//69 58//58 
f 67//67 70//70 64//64 
f 70//70 67//67 58//58 
f 71//71 69//69 67//67 
f 68//68 71//71 67//67 
f 68//68 67//67 66//66 
f 62//62 71//71 68//68 
f 72//72 69//69 71//71 
f 69//69 73//73 58//58 
f 57//57 58//58 73//73 
f 57//57 73//73 74//74 
f 57//57 74//74 75//75 
f 57//57 75//75 55//55 
f 74//74 76//76 75//75 
f 77//77 76//76 74//74 
f 78//78 79//79 80//80 
f 80//80 79//79 81//81 
f 79//79 82//82 81//81 
f 76//76 83//83 75//75 
f 83//83 55//55 75//75 
f 84//84 55//55 83//83 
f 37//37 84//84 83//83 
f 37//37 83//83 85//85 
f 79//79 86//86 82//82 
f 87//87 88//88 89//89 
f 90//90 91//91 87//87 
f 87//87 91//91 88//88 
f 92//92 88//88 91//91 
f 88//88 93//93 89//89 
f 93//93 88//88 94//94 
f 92//92 94//94 88//88 
f 90//90 87//87 89//89 
f 90//90 89//89 93//93 
f 93//93 94//94 90//90 
f 81//81 95//95 91//91 
f 91//91 90//90 81//81 
f 91//91 95//95 92//92 
f 80//80 81//81 90//90 
f 90//90 92//92 96//96 
f 90//90 94//94 92//92 
f 96//96 80//80 90//90 
f 92//92 95//95 96//96 
f 80//80 96//96 95//95 
f 78//78 80//80 95//95 
f 95//95 77//77 78//78 
f 82//82 95//95 81//81 
f 95//95 86//86 77//77 
f 95//95 82//82 86//86 
f 76//76 77//77 86//86 
f 86//86 83//83 76//76 
f 97//97 83//83 86//86 
f 85//85 83//83 97//97 
f 77//77 98//98 78//78 
f 79//79 78//78 98//98 
f 73//73 98//98 74//74 
f 98//98 77//77 74//74 
f 99//99 97//97 86//86 
f 99//99 86//86 79//79 
f 99//99 79//79 98//98 
f 85//85 97//97 99//99 
f 100//100 85//85 99//99 
f 100//100 99//99 101//101 
f 102//102 98//98 73//73 
f 73//73 69//69 102//102 
f 72//72 102//102 69//69 
f 102//102 99//99 98//98 
f 102//102 72//72 103//103 
f 104//104 99//99 102//102 
f 105//105 104//104 102//102 
f 103//103 106//106 107//107 
f 105//105 102//102 103//103 
f 107//107 105//105 103//103 
f 106//106 108//108 101//101 
f 101//101 99//99 106//106 
f 106//106 99//99 104//104 
f 106//106 104//104 105//105 
f 109//109 108//108 106//106 
f 110//110 109//109 106//106 
f 103//103 110//110 106//106 
f 106//106 105//105 107//107 
f 34//34 55//55 84//84 
f 108//108 34//34 84//84 
f 84//84 35//35 111//111 
f 84//84 37//37 35//35 
f 84//84 111//111 85//85 
f 100//100 108//108 84//84 
f 31//31 37//37 85//85 
f 100//100 84//84 85//85 
f 34//34 111//111 35//35 
f 111//111 34//34 30//30 
f 3//3 30//30 34//34 
f 109//109 3//3 34//34 
f 34//34 108//108 109//109 
f 30//30 31//31 111//111 
f 85//85 111//111 31//31 
f 2//2 30//30 3//3 
f 108//108 100//100 101//101 
f 48//48 3//3 109//109 
f 4//4 48//48 109//109 
f 4//4 109//109 53//53 
f 110//110 53//53 109//109 
f 110//110 112//112 53//53 
f 110//110 113//113 112//112 
f 103//103 113//113 110//110 
f 103//103 70//70 113//113 
f 103//103 114//114 70//70 
f 103//103 72//72 114//114 
f 72//72 71//71 114//114 
f 62//62 114//114 71//71 
f 114//114 62//62 64//64 
f 70//70 114//114 64//64 
f 58//58 113//113 70//70 
f 56//56 113//113 58//58 
f 56//56 112//112 113//113 
f 112//112 56//56 52//52 
f 53//53 112//112 52//52 
f 53//53 5//5 4//4 
f 53//53 54//54 5//5 
f 7//7 5//5 54//54 
f 11//11 7//7 54//54 
f 9//9 10//10 54//54 
f 13//13 11//11 54//54 
f 13//13 54//54 10//10 
f 11//11 13//13 12//12 
