v -37.6750145 2.694091082 -138.4195709
v -37.78283691 2.894176483 -138.4119873
v -37.8604126 2.731886625 -138.6263733
v -37.91615677 3.639012337 -138.7476349
v -37.84791565 4.023087025 -138.9602203
v -37.59413528 3.632942677 -138.951416
v -37.70478821 3.102034092 -138.7546539
v -37.45220566 3.132102966 -139.1639557
v -37.49720001 4.138802528 -138.9637299
v -37.66234589 4.561013699 -139.1147766
v -37.38402176 4.880554199 -139.2501678
v -37.08693314 5.542916298 -138.8937988
v -37.19865417 5.35959959 -139.0759125
v -37.3587265 5.363549709 -138.8215027
v -37.28688431 5.530072212 -138.7054596
v -37.14415741 5.926069736 -139.0707703
v -37.28736115 6.17503643 -138.8172455
v -37.34668732 5.680787563 -138.484436
v -37.19091415 6.217155457 -138.5600739
v -36.99998474 6.219330788 -138.943222
v -36.7997551 5.969947815 -138.9280701
v -36.79962921 6.121062756 -138.5961609
v -37.12377548 5.941473007 -138.3297119
v -37.14770508 5.45951128 -138.3204803
v -36.92086411 5.65725708 -138.3796692
v -36.84558868 5.536683083 -138.6214752
v -37.1021347 5.387326241 -138.5363312
v -36.81032944 5.232801914 -138.5050201
v -36.8819046 5.494869232 -138.7683258
v -36.23370743 5.19722414 -138.5745239
v -36.2408638 5.167739868 -138.9352112
v -36.1777916 4.869038582 -138.932312
v -35.87362671 4.236391068 -138.7643127
v -35.93915939 4.122099876 -138.9102478
v -36.32900238 4.454760551 -138.8110657
v -36.41107178 4.88399601 -139.0947418
v -36.47493744 4.117595196 -139.001236
v -36.35289383 4.007427692 -138.7989502
v -36.20400238 3.712916613 -138.7164612
v -36.1422348 3.200387239 -138.6480255
v -36.40565109 3.403500557 -138.4556732
v -36.38746643 3.232975721 -138.5968018
v -36.50387192 3.273533583 -138.1441498
v -36.08927917 3.694074631 -138.555191
v -36.62660599 3.3875525 -138.0753174
v -36.00944901 4.157279968 -138.5359039
v -36.27924347 4.159829617 -138.6313782
v -36.56039429 3.741738796 -138.365387
v -36.3029747 4.907224178 -138.4811859
v -37.0874176 0.5651541948 -139.0707092
v -37.0632019 0.2269652188 -139.1240082
v -37.4104805 0.19446522 -138.6677246
v -36.9884758 1.761381269 -138.9567413
v -36.97612381 0.9718897939 -139.0209961
v -37.15677261 1.529327393 -139.1909637
v -37.42905807 1.526551843 -138.9842987
v -37.57454681 2.954990149 -138.4977417
v -37.4244957 2.185232878 -138.9459686
v -37.46727753 2.488277435 -138.5243683
v -37.51003265 3.008704185 -138.9764862
v -37.36896515 2.012696743 -138.6351471
v -37.10235977 2.039376497 -139.0869751
v -37.23395157 2.288691044 -139.0781708
v -36.99591827 2.185764313 -138.8869019
v -37.00169754 2.882775545 -138.9238129
v -37.38370514 3.180259228 -138.2851868
v -37.1516571 2.153074265 -138.5849915
v -37.26738739 1.669219136 -138.7336426
v -36.92020416 2.701814413 -138.6386719
v -37.03207397 2.826387882 -138.4377289
v -36.67790222 1.945639849 -137.9957123
v -36.79853058 2.924540758 -138.1115875
v -37.23964691 3.320498705 -138.2289734
v -36.48658752 2.093608856 -137.7884064
v -36.36474228 2.030911922 -137.8344421
v -36.62376785 0.8843241334 -137.9703979
v -36.47175217 0.35779199 -137.4362793
v -36.31063843 0.4684645534 -137.8477325
v -36.48945999 0.6022014618 -137.7776489
v -36.2346611 0.279858917 -137.1325989
v -36.49337387 0.1785269082 -137.3840179
v -36.62641144 0.1671456695 -138.1290588
v -36.1736908 0.1802624613 -137.6230621
v -36.43490601 0.1738615483 -138.2405396
v -36.32515717 0.6082381606 -138.0902557
v -36.307724 0.8308300376 -137.9244385
v -36.2685051 1.902890325 -137.9997864
v -36.5318985 0.6256922483 -138.1764374
v -36.6006012 0.6423819065 -138.068512
v -36.34472656 1.521607637 -138.2979279
v -36.65430069 2.017739534 -138.2640076
v -36.28134155 2.473156214 -138.0936127
v -36.40519714 2.130331278 -138.2741547
v -36.40130997 2.809150219 -138.5651855
v -36.79379654 2.766909599 -138.7491455
v -37.24771881 3.035538197 -139.0814514
v -36.61509323 3.148487568 -138.9709015
v -36.9801445 3.152516365 -139.1984711
v -36.51712418 3.735491991 -139.1219025
v -36.34265518 3.219996691 -139.053421
v -37.05557251 3.965426445 -139.1999817
v -37.32068253 0.873858273 -138.9407043
v -37.15702438 0.5270964503 -138.6799622
v -36.93010712 0.5825918317 -139.072998
v -36.86267853 0.1831364781 -139.0244293
v -37.14657211 0.3691469729 -138.4149323
v -37.25080109 0.1673359573 -138.2554932
v -37.51552963 0.2698785961 -138.1911469
v -37.0908165 0.7416995168 -138.7441101
v -36.90670395 0.6323851347 -138.8327026
v -37.6409111 3.430616856 -138.5502319
v -37.44859314 4.037477016 -138.4369507
v -37.27317429 4.593960285 -138.3439331
v -36.80699539 4.133198738 -138.2781372
v -37.87356186 4.290410042 -138.7288666
v -37.56071854 4.096056461 -138.7207642
v -37.71154404 5.028549671 -138.6696777
v -37.78890991 5.086870193 -139.0351715
v -37.26599503 5.125176907 -138.5502472
v -37.01763153 4.741663456 -138.370224
v -36.73190308 4.643533707 -138.2469025
vn 0.6650277972 -0.6960211992 -0.2707259357
vn -0.5288552046 0.1220979095 0.8398835063
vn -0.6899499297 -0.3159955144 -0.6512418389
vn -0.9041122198 0.07197702676 0.4211892486
vn -0.701150775 -0.10520906 -0.7052082419
vn -0.400349915 -0.136430949 -0.9061493278
vn -0.4087897539 -0.4867741466 -0.7719727159
vn -0.4585558176 -0.01792339236 -0.8884848356
vn -0.370444566 -0.06505265832 -0.926573813
vn -0.2402075082 -0.1366162747 -0.9610599875
vn -0.0787011683 0.04092035443 -0.9960580468
vn 0.001323536155 0.5460491776 -0.8377520442
vn 0.01534032635 0.5019091368 -0.8647843003
vn -0.610984087 0.7800366879 0.1350601614
vn -0.9803227186 -0.07695244998 -0.1817848831
vn -0.2539567947 -0.1325539798 -0.9580894709
vn -0.9180323482 0.275342226 -0.285312593
vn -0.9428764582 -0.02224733122 0.3323989809
vn -0.3750167191 0.8026365638 0.4638286829
vn 0.2292938679 0.8662612438 -0.4438646138
vn 0.845600009 -0.01835694909 -0.533501327
vn 0.8064516783 0.4431568384 0.3914686739
vn -0.06632138044 0.3258254826 0.9431008697
vn -0.2420911491 -0.3472588062 0.9059818983
vn 0.6913233399 -0.1539091766 0.7059631944
vn 0.9487174153 -0.1265721172 0.2896803617
vn -0.1864845157 -0.3760131896 0.9076550007
vn 0.03657275438 0.4260523915 0.9039589763
vn 0.7096960545 0.6454477906 -0.2823625505
vn 0.6122770309 0.5808426738 0.5364127755
vn 0.4396924376 0.6520752907 -0.6176312566
vn 0.707123518 0.1309613287 -0.6948564649
vn 0.962451458 0.1725890785 0.2095238119
vn 0.1762155145 -0.230738014 -0.9569263458
vn 0.2961973548 -0.1752566099 -0.9389101267
vn 0.3010474443 0.05488560721 -0.9520283341
vn 0.5643429756 -0.03031446785 -0.8249836564
vn 0.5389471054 0.03815892711 -0.8414748311
vn 0.8488997221 -0.1534385681 -0.5057923198
vn 0.9316313267 -0.308070153 0.1927586049
vn 0.82943964 -0.4356992245 0.3495655358
vn 0.9740069509 -0.226503402 0.002576474566
vn 0.7327924371 0.04381914064 0.6790398359
vn 0.8641799688 -0.3818063438 0.3277451098
vn 0.07271230221 0.3209497929 0.94430089
vn 0.4055898786 0.1441728324 0.902613461
vn 0.1242245361 0.2312549949 0.9649297595
vn 0.3364831805 0.1059498191 0.9357102513
vn 0.5353512764 0.00977920834 0.8445729017
vn -0.6114619374 -0.04108029231 -0.79020679
vn -0.4226194918 -0.3499073982 -0.8360368609
vn -0.8957599998 -0.3557633758 -0.2665453553
vn 0.9592987895 -0.01485294383 0.2820022404
vn 0.952070117 0.09071903676 -0.2921174169
vn -0.0309892036 0.01459495351 -0.9994131327
vn -0.9286402464 -0.1279492676 -0.348218739
vn -0.9101011753 -0.2601529658 0.3225465119
vn -0.8689616919 -0.06785979867 -0.4902047217
vn -0.6729822755 -0.2964909971 0.6776340604
vn -0.821205914 -0.2873643935 -0.4929934442
vn -0.7973566055 -0.2317853272 0.5572234392
vn 0.3019191921 0.1566278487 -0.9403789043
vn 0.2632511258 0.00449317554 -0.9647168517
vn 0.9733093381 -0.05662008747 -0.2224029899
vn 0.7717718482 0.0843905285 -0.6302748919
vn -0.3298803568 -0.2722304165 0.9039189816
vn 0.4191151261 -0.3016268015 0.8563666344
vn -0.1119338498 -0.1754951924 0.9780962467
vn 0.09286653996 -0.9610674381 -0.2602406144
vn -0.5366140008 -0.4263420701 0.7282018065
vn -0.8835177422 -0.167607531 0.4373832643
vn -0.3405848444 -0.001001194585 0.940213263
vn -0.2536320388 0.1203370318 0.9597863555
vn -0.09694267064 0.2515911162 0.9629662633
vn 0.2457163781 -0.03877359256 0.9685660005
vn -0.7079488039 -0.01797099039 0.7060350776
vn -0.7952523232 0.4661113918 0.3877033293
vn 0.7156312466 0.6300414205 0.3015290201
vn -0.1265080422 0.5133110285 0.8488271236
vn 0.6537069082 0.4985414445 0.5693186522
vn -0.3758279085 -0.8926855326 0.2487287074
vn -0.8210945725 -0.5695237517 -0.03803118691
vn 0.7228140235 -0.6858133078 -0.08485274017
vn 0.6211900115 -0.3631667197 -0.694429934
vn 0.8645188808 -0.02533928864 -0.5019611716
vn 0.8236532211 0.01927678287 0.5667660832
vn 0.9973172545 0.06667918712 -0.03020152636
vn -0.1790471971 0.00132401567 -0.9838395715
vn -0.9192275405 -0.02951515652 -0.3926188946
vn 0.4876571298 -0.07589002699 -0.8697305322
vn -0.6091383696 -0.2826290429 -0.7409934402
vn 0.8740490675 0.1745637804 0.4533935487
vn 0.6955634952 -0.2116711587 -0.6865760684
vn 0.7453148365 -0.2778162956 -0.6060725451
vn 0.2187640667 -0.5522745252 -0.8044471145
vn 0.02386288345 -0.4031084776 -0.9148410559
vn 0.4314545989 -0.6842983365 -0.5878628492
vn 0.122599192 -0.2209645361 -0.9675453901
vn 0.48646155 0.1219897419 -0.8651437163
vn 0.5241119266 -0.1777751893 -0.8328881264
vn 0.0152619658 -0.01199027989 -0.9998116493
vn -0.9210758805 -0.2047153562 0.3312262893
vn -0.8320916891 0.4364422262 0.3422595859
vn 0.7115532756 0.1296343803 -0.6905699372
vn 0.741646111 -0.6622352004 0.106796816
vn 0.5414900184 0.5643966794 0.6230930686
vn 0.2896226048 -0.9017853141 0.3207834363
vn -0.7160648108 0.6212602258 0.3182560205
vn 0.3845661879 0.08948300779 0.9187500477
vn 0.8847004175 0.2023289353 0.4199620485
vn -0.4907239079 0.1538329273 0.857627809
vn -0.7257858515 0.02955587953 0.6872854829
vn -0.2961206734 0.1441482455 0.9442107081
vn 0.01941213571 0.02833515592 0.9994099736
vn -0.7649024129 0.1106090024 0.634578526
vn -0.5503157377 0.03802298754 0.8340904117
vn -0.6536558867 0.2208144516 0.7238611579
vn -0.812040925 0.3708198071 -0.4506464899
vn -0.3158605099 0.3552777767 0.879778266
vn -0.1866178066 0.24645935 0.9510160685
vn 0.1840220243 0.1570764482 0.9702901244
f 1//1 2//2 3//3 
f 2//2 4//4 3//3 
f 4//4 5//5 3//3 
f 5//5 6//6 3//3 
f 7//7 3//3 6//6 
f 3//3 7//7 1//1 
f 8//8 7//7 6//6 
f 8//8 6//6 9//9 
f 10//10 6//6 5//5 
f 6//6 10//10 9//9 
f 10//10 11//11 9//9 
f 12//12 13//13 14//14 
f 15//15 12//12 14//14 
f 15//15 16//16 12//12 
f 15//15 17//17 16//16 
f 17//17 15//15 18//18 
f 17//17 18//18 19//19 
f 19//19 20//20 17//17 
f 16//16 17//17 20//20 
f 16//16 20//20 21//21 
f 21//21 20//20 22//22 
f 22//22 20//20 19//19 
f 23//23 22//22 19//19 
f 19//19 18//18 23//23 
f 23//23 18//18 24//24 
f 24//24 25//25 23//23 
f 25//25 22//22 23//23 
f 25//25 26//26 22//22 
f 26//26 21//21 22//22 
f 24//24 27//27 25//25 
f 27//27 26//26 25//25 
f 18//18 27//27 24//24 
f 18//18 15//15 27//27 
f 28//28 26//26 27//27 
f 28//28 29//29 26//26 
f 12//12 16//16 29//29 
f 26//26 29//29 21//21 
f 29//29 16//16 21//21 
f 30//30 29//29 28//28 
f 30//30 31//31 29//29 
f 31//31 12//12 29//29 
f 31//31 13//13 12//12 
f 32//32 31//31 30//30 
f 33//33 32//32 30//30 
f 34//34 32//32 33//33 
f 35//35 32//32 34//34 
f 35//35 36//36 32//32 
f 36//36 31//31 32//32 
f 13//13 31//31 36//36 
f 11//11 13//13 36//36 
f 37//37 36//36 35//35 
f 38//38 37//37 35//35 
f 38//38 35//35 34//34 
f 39//39 38//38 34//34 
f 40//40 39//39 41//41 
f 40//40 41//41 42//42 
f 42//42 41//41 43//43 
f 41//41 44//44 43//43 
f 41//41 39//39 44//44 
f 39//39 34//34 44//44 
f 44//44 34//34 33//33 
f 44//44 45//45 43//43 
f 44//44 46//46 45//45 
f 44//44 33//33 46//46 
f 45//45 47//47 48//48 
f 46//46 47//47 45//45 
f 49//49 33//33 30//30 
f 46//46 33//33 49//49 
f 47//47 49//49 48//48 
f 50//50 51//51 52//52 
f 53//53 54//54 55//55 
f 55//55 54//54 50//50 
f 56//56 55//55 50//50 
f 57//57 58//58 59//59 
f 57//57 60//60 58//58 
f 57//57 7//7 60//60 
f 7//7 8//8 60//60 
f 56//56 58//58 55//55 
f 58//58 56//56 61//61 
f 58//58 61//61 59//59 
f 55//55 58//58 62//62 
f 62//62 53//53 55//55 
f 58//58 63//63 62//62 
f 63//63 64//64 62//62 
f 62//62 64//64 53//53 
f 63//63 65//65 64//64 
f 66//66 59//59 67//67 
f 67//67 53//53 64//64 
f 68//68 53//53 67//67 
f 68//68 67//67 61//61 
f 67//67 59//59 61//61 
f 64//64 65//65 69//69 
f 67//67 64//64 69//69 
f 70//70 66//66 67//67 
f 69//69 70//70 67//67 
f 70//70 69//69 71//71 
f 72//72 70//70 71//71 
f 70//70 72//72 66//66 
f 66//66 72//72 73//73 
f 72//72 45//45 73//73 
f 72//72 43//43 45//45 
f 72//72 71//71 74//74 
f 75//75 74//74 71//71 
f 75//75 71//71 76//76 
f 77//77 78//78 79//79 
f 80//80 78//78 77//77 
f 80//80 77//77 81//81 
f 81//81 77//77 82//82 
f 81//81 82//82 83//83 
f 80//80 81//81 83//83 
f 83//83 78//78 80//80 
f 82//82 84//84 83//83 
f 84//84 85//85 83//83 
f 78//78 83//83 85//85 
f 79//79 78//78 86//86 
f 78//78 85//85 86//86 
f 86//86 76//76 79//79 
f 75//75 76//76 86//86 
f 87//87 75//75 86//86 
f 88//88 84//84 82//82 
f 89//89 88//88 82//82 
f 89//89 82//82 77//77 
f 76//76 89//89 79//79 
f 79//79 89//89 77//77 
f 88//88 85//85 84//84 
f 88//88 89//89 90//90 
f 86//86 85//85 90//90 
f 90//90 85//85 88//88 
f 86//86 90//90 87//87 
f 69//69 91//91 71//71 
f 76//76 91//91 89//89 
f 76//76 71//71 91//91 
f 91//91 90//90 89//89 
f 75//75 92//92 74//74 
f 74//74 92//92 72//72 
f 92//92 43//43 72//72 
f 92//92 42//42 43//43 
f 75//75 93//93 92//92 
f 87//87 93//93 75//75 
f 93//93 87//87 90//90 
f 91//91 93//93 90//90 
f 92//92 93//93 94//94 
f 92//92 94//94 42//42 
f 95//95 93//93 91//91 
f 69//69 95//95 91//91 
f 93//93 95//95 94//94 
f 58//58 96//96 63//63 
f 58//58 60//60 96//96 
f 95//95 69//69 96//96 
f 65//65 96//96 69//69 
f 96//96 65//65 63//63 
f 8//8 96//96 60//60 
f 95//95 97//97 94//94 
f 95//95 96//96 97//97 
f 42//42 94//94 97//97 
f 98//98 97//97 96//96 
f 96//96 8//8 98//98 
f 38//38 99//99 37//37 
f 42//42 100//100 40//40 
f 42//42 97//97 100//100 
f 98//98 100//100 97//97 
f 40//40 100//100 39//39 
f 100//100 38//38 39//39 
f 100//100 99//99 38//38 
f 101//101 37//37 99//99 
f 100//100 98//98 101//101 
f 37//37 101//101 36//36 
f 11//11 36//36 101//101 
f 11//11 101//101 9//9 
f 9//9 101//101 8//8 
f 8//8 101//101 98//98 
f 100//100 101//101 99//99 
f 56//56 50//50 102//102 
f 102//102 50//50 103//103 
f 54//54 104//104 50//50 
f 105//105 51//51 104//104 
f 104//104 51//51 50//50 
f 51//51 105//105 52//52 
f 103//103 50//50 52//52 
f 106//106 103//103 52//52 
f 107//107 52//52 105//105 
f 106//106 52//52 108//108 
f 108//108 52//52 107//107 
f 109//109 102//102 103//103 
f 110//110 109//109 103//103 
f 106//106 110//110 103//103 
f 106//106 108//108 107//107 
f 107//107 105//105 106//106 
f 106//106 105//105 110//110 
f 110//110 105//105 104//104 
f 104//104 54//54 110//110 
f 110//110 54//54 109//109 
f 54//54 53//53 109//109 
f 109//109 53//53 68//68 
f 102//102 109//109 68//68 
f 68//68 56//56 102//102 
f 68//68 61//61 56//56 
f 57//57 59//59 66//66 
f 111//111 2//2 57//57 
f 1//1 57//57 2//2 
f 1//1 7//7 57//57 
f 111//111 57//57 66//66 
f 73//73 111//111 66//66 
f 112//112 73//73 113//113 
f 73//73 114//114 113//113 
f 111//111 73//73 112//112 
f 48//48 73//73 45//45 
f 48//48 114//114 73//73 
f 2//2 111//111 4//4 
f 115//115 4//4 111//111 
f 112//112 116//116 111//111 
f 116//116 115//115 111//111 
f 117//117 116//116 112//112 
f 117//117 115//115 116//116 
f 115//115 5//5 4//4 
f 115//115 118//118 5//5 
f 117//117 118//118 115//115 
f 113//113 117//117 112//112 
f 119//119 117//117 113//113 
f 119//119 14//14 117//117 
f 14//14 118//118 117//117 
f 118//118 10//10 5//5 
f 118//118 11//11 10//10 
f 11//11 118//118 13//13 
f 14//14 13//13 118//118 
f 120//120 119//119 113//113 
f 113//113 114//114 120//120 
f 120//120 28//28 119//119 
f 14//14 119//119 15//15 
f 15//15 119//119 27//27 
f 28//28 27//27 119//119 
f 121//121 28//28 120//120 
f 114//114 121//121 120//120 
f 48//48 121//121 114//114 
f 30//30 28//28 121//121 
f 49//49 30//30 121//121 
f 48//48 49//49 121//121 
f 49//49 47//47 46//46 
