v -72.89376068 27.05501366 -127.6720123
v -72.83816528 27.07691193 -128.3002014
v -72.87382507 27.09122276 -127.669014
v -72.85810089 27.04069328 -128.3032074
v -73.3907547 27.26844597 -127.7366714
v -73.27085876 27.23550987 -128.3945923
v -73.25092316 27.27172852 -128.3916016
v -73.37081909 27.30466461 -127.7336731
v -72.09373474 25.39379692 -128.2404175
v -71.96416473 26.14456749 -128.0875702
v -72.11688232 25.282341 -127.9173889
v -72.17870331 24.29931068 -128.150177
v -72.33590698 24.95475006 -128.2205505
v -72.32176208 24.29838943 -128.0462036
v -72.38250732 24.77537918 -128.0160675
v -71.99134827 23.75 -127.8511887
v -72.16027069 23.82034492 -127.9230652
v -72.12849426 23.88944817 -128.0214996
v -72.42354584 23.77172661 -127.8402405
v -72.34627533 24.13554764 -127.8799896
v -72.06549072 24.2565136 -127.9397354
v -72.21628571 24.0766449 -128.0460968
v -72.58892059 23.75 -128.1447144
v -72.75060272 23.75 -127.9903717
v -72.25888824 24.34123611 -127.8587494
v -72.34415436 25.5906353 -127.8478012
v -71.98043823 26.15294075 -127.6897583
v -72.27147675 25.46304703 -127.5630646
v -72.35290527 25.20439339 -127.7151031
v -72.42114258 25.13614845 -127.3943024
v -72.19420624 24.29919815 -127.4825439
v -72.41443634 24.31959152 -127.6437302
v -72.70314789 25.19429398 -127.6992493
v -72.4733963 25.824049 -127.9262238
v -72.65168762 26.2761364 -127.6996078
v -72.52553558 26.34839249 -128.039917
v -72.47402191 26.32773781 -128.2532959
v -72.53853607 26.69687653 -128.1585236
v -72.63642883 26.3074398 -128.2478638
v -72.39704895 26.29333687 -128.5277557
v -72.18276978 26.24122429 -128.4715729
v -71.99636841 26.2494278 -128.469162
v -71.99312592 26.20611191 -128.3215485
v -71.97501373 26.79355812 -128.3974915
v -71.72073364 26.20918655 -127.9348831
v -71.70349884 27.71796608 -128.0682373
v -71.73690796 27.66838837 -127.7694778
v -71.78448486 26.21399117 -127.5680847
v -71.7729187 27.77646637 -127.5219803
v -72.10616302 26.22422981 -127.2468719
v -72.22507477 26.26546097 -127.3300476
v -72.56021118 26.26909828 -127.3663406
v -72.36631012 23.75 -127.4621735
v -72.23496246 23.91209984 -127.5555344
v -72.18413544 23.86656761 -127.3938293
v -72.78578186 23.75 -127.5573807
v -72.37448883 24.13711357 -127.5642395
v -72.09586334 23.75 -127.5578995
v -72.12010956 24.16011238 -127.4104919
v -72.65630341 23.75 -127.3548889
v -72.36766815 24.26556587 -127.3900757
v -72.43942261 24.31971359 -127.4718857
v -72.65148163 25.3019619 -127.4784164
v -72.63944244 27.40267563 -127.695076
v -72.31584167 27.26219177 -127.1588211
v -72.1905899 27.09547234 -127.0982132
v -72.17532349 28.09672737 -127.2584
v -72.00405884 27.94732666 -127.2070465
v -73.13481903 27.16980743 -128.3246613
v -73.15283966 27.1359272 -128.2592316
v -73.04797363 27.07335091 -128.1541138
v -72.98980713 27.14729691 -128.4855499
v -72.95777893 26.96752167 -128.3365326
v -72.90948486 27.12921143 -128.2482605
v -72.74804688 27.15160751 -128.286911
v -72.75014496 27.15463829 -128.4761047
v -72.75413513 26.97402763 -128.4056549
v -72.54836273 27.1825695 -128.5314331
v -72.43752289 27.05132675 -128.3439026
v -72.47570038 26.90931511 -128.4946136
v -72.37778473 26.91696739 -128.397644
v -71.83491516 27.00421333 -128.5097046
v -71.93830872 27.05082512 -128.3355103
v -72.03633118 27.13657188 -128.5948944
v -72.52218628 27.14806175 -128.1690674
v -72.1337204 27.22615242 -128.3882751
v -71.74514008 27.76992989 -128.2748413
v -72.13135529 28.04503059 -128.3561554
v -72.40148926 27.74799347 -128.1923828
v -72.21894073 28.08358574 -128.0487518
v -72.26085663 27.67807007 -128.3509369
v -72.58655548 27.15579224 -127.7596741
v -72.53661346 27.64344025 -127.9853516
v -72.31005859 28.04035378 -127.4443359
v -72.41332245 27.24264336 -127.392601
v -72.14704895 28.30043983 -127.669487
v -72.51769257 27.6892128 -127.7885208
v -72.28368378 28.05978203 -127.6887741
v -72.27565765 28.20581436 -127.9140167
v -71.90570831 28.31039429 -128.00737
v -71.91106415 28.03955078 -128.4241638
v -72.13214111 27.62965012 -128.3204651
v -72.01220703 28.55975342 -127.9430084
v -72.04775238 28.4637413 -127.8000793
v -72.28723907 28.56876373 -127.6928253
v -71.86685944 28.18007088 -127.6099548
v -71.95871735 28.78125381 -127.8779678
v -72.25227356 28.78071404 -127.6581955
v -72.61484528 28.69626617 -127.7585983
v -72.09160614 28.83033562 -127.80439
v -72.03859711 28.80101204 -127.9506912
v -72.25662994 28.82672501 -128.1972961
v -72.01515198 28.96679115 -127.88694
v -72.1410141 29.07403755 -127.8634186
v -72.55029297 28.95225906 -127.8362427
v -72.68979645 28.73096085 -127.9499969
v -72.50658417 28.97197723 -128.0893097
v -72.34290314 29.13231087 -127.8767929
v -72.21482086 29.05658722 -128.0099945
v -72.07765198 29.13105774 -127.9751434
v -72.11919403 28.30891037 -128.0569305
v -72.29882812 28.39180756 -127.7104111
v -72.54375458 28.46397781 -127.8089981
v -72.19785309 28.48243904 -128.11763
v -72.49542999 28.30434799 -127.9373093
v -72.30992126 28.57411003 -128.1993256
v -72.55596161 28.72899818 -128.2023773
v -72.52832794 28.42729187 -128.0467377
v -71.91423035 27.79575729 -127.3126984
v -72.06348419 27.01443481 -127.2086792
v -72.15424347 27.12195015 -127.3882599
v -72.49797821 27.02215195 -127.4492111
v -72.64061737 27.13569641 -127.5417175
v -72.63250732 26.93398094 -127.3595581
v -72.77167511 26.97027779 -127.4896469
v -72.92783356 26.9824791 -127.6205902
v -72.71641541 27.19439507 -127.3191986
v -72.89671326 27.16775513 -127.5135345
v -72.80757904 27.13425064 -127.6683655
v -73.05898285 27.01266479 -127.7096176
v -73.19946289 27.2088089 -127.6196899
v -72.94983673 27.08817291 -127.7970734
v -73.21414948 27.19814682 -127.8445969
v -73.15856934 27.12309837 -127.9141693
v -73.01976776 27.1431675 -127.9094009
vn -0.2679952681 -0.9543758631 0.1317012012
vn 0.4836013615 0.875249207 -0.008281918243
vn 0.4552416503 0.8875143528 0.07122755051
vn -0.3589987457 -0.9306765199 -0.07043556124
vn -0.4851929545 -0.8744017482 0.003059035866
vn -0.4858107269 -0.867357254 -0.1080707684
vn 0.2825998664 0.9520704746 -0.1170433536
vn 0.3604767323 0.9296950698 0.07565420866
vn 0.8501045704 -0.1052067801 -0.5159977674
vn 0.9290793538 -0.3656158149 0.0560053736
vn 0.7675142884 0.001786479494 0.6410293579
vn 0.3528759778 -0.1900540739 -0.9161648154
vn -0.5092529058 -0.145700261 -0.8481939435
vn -0.9183437228 -0.1652446091 -0.3596373796
vn -0.9914531112 -0.1004173011 0.08328896016
vn 0.4849119782 -0.07206008583 0.8715891838
vn -0.003238300094 -0.5006280541 0.8656564355
vn 0.4857845008 -0.4700630605 -0.7369220853
vn 0.05654687434 -0.7173233628 0.6944419742
vn -0.3721838892 0.25988096 0.891033709
vn 0.9802937508 -0.009179195389 0.197331816
vn -0.198785603 0.2980594933 -0.9336192012
vn 0.09488071501 -0.6005140543 -0.7939650416
vn -0.8362225294 0.5475171804 -0.0309322048
vn -0.2185500711 -0.03097891062 0.9753338695
vn 0.5188060403 -0.3641809523 0.7734419703
vn 0.7593796849 -0.6250137091 0.1808324307
vn 0.9319714904 -0.2850317657 0.2240225077
vn 0.9092621803 -0.05733992159 -0.4122552872
vn 0.5033736825 -0.008964433335 0.8640223145
vn 0.9956145883 0.08605006337 -0.03670118004
vn -0.04143117368 -0.241270259 -0.9695731401
vn -0.9523638487 -0.09434369206 -0.2900039852
vn -0.7761975527 -0.1516093165 -0.6119902134
vn -0.9864010215 0.01038173307 -0.1640281677
vn -0.9632747769 -0.06149571016 -0.2613808513
vn -0.9033783674 -0.1921597272 -0.3833824694
vn -0.9951302409 -0.05281417817 0.08322519064
vn -0.9408842921 -0.02052721381 -0.3381055892
vn -0.367942363 0.04416109622 -0.9287993312
vn 0.08200456202 -0.2902213335 -0.9534394741
vn 0.6530709863 -0.07626316696 -0.7534469366
vn 0.2565760612 -0.9262260795 -0.2761774361
vn 0.6517383456 0.04955750704 -0.7568230629
vn 0.9667432308 -0.1509975344 -0.206415236
vn 0.9735376835 0.04684550315 -0.2236734778
vn 0.9899116158 0.03040726669 0.1383850724
vn 0.8897743821 -0.1691443175 0.4239006639
vn 0.7605586052 0.03231741115 0.6484644413
vn 0.2325092852 0.02835550532 0.9721807241
vn 0.3134931326 -0.322565794 0.8931255937
vn -0.7619864941 0.03112388775 0.6468445659
vn 0.2821000218 -0.8752165437 0.3929575086
vn 0.04236068949 -0.4111071527 -0.9106022716
vn 0.2726052105 -0.5766509175 0.7701689005
vn -0.6173478365 0.02329025231 -0.7863454819
vn -0.02379467338 0.1754031181 -0.9842091203
vn 0.7193991542 0.07094044983 -0.6909647584
vn 0.5966267586 0.04465539753 0.8012754917
vn -0.1318281442 -0.1376262754 0.9816722274
vn -0.3571865261 0.1936384439 0.9137406349
vn -0.9419350028 -0.2550135255 0.2184639722
vn -0.5861976147 -0.069974415 0.8071405888
vn -0.9293000102 0.1302199811 0.3456070423
vn -0.6784598231 0.1839740872 0.7112283707
vn -0.02639902197 -0.07889547944 0.9965332747
vn -0.2908666432 0.5036215186 0.8134875298
vn 0.5710764527 0.210063979 0.7935646176
vn 0.01696960069 0.9752260447 0.2205587029
vn -0.7326895595 -0.6255122423 -0.2681424916
vn -0.04756393284 -0.09995318949 0.9938546419
vn -0.3987069428 0.5899294615 -0.7021509409
vn -0.2408488691 -0.9155229926 -0.3221947849
vn 0.3431767821 0.4849470556 0.8043979406
vn 0.1384409517 0.4708917439 0.871260643
vn -0.2614097893 0.01771969721 -0.9650652409
vn -0.02960790135 -0.9762196541 0.2147522569
vn -0.1281094104 0.8374254107 -0.5313253403
vn -0.4422155023 0.6613889337 0.6058135629
vn -0.07193530351 -0.8598893285 -0.505386591
vn -0.2264835835 0.09959367663 -0.9689098597
vn 0.7556793094 -0.2828913927 -0.59069556
vn 0.8538173437 -0.489113003 -0.1782258749
vn -0.2277564108 0.1172021627 -0.9666388631
vn -0.8431787491 0.114474684 -0.5253047943
vn -0.513313055 0.4934299588 -0.7021656632
vn 0.9712095857 0.08103708178 -0.2240199447
vn -0.5892995596 0.4457750022 -0.6738031507
vn -0.8209648132 0.3697247207 -0.4351096451
vn -0.7909177542 0.5309636593 -0.304181993
vn -0.4601606429 0.05255170912 -0.8862789869
vn -0.9685948491 0.02982775122 -0.2468487918
vn -0.9668216705 0.1522665024 -0.2051116973
vn -0.8696745038 0.3076072633 0.3860622048
vn -0.8151703477 0.3689925671 0.4464770555
vn -0.3430405855 0.6759129763 0.6522766948
vn -0.8851652741 0.4542191327 -0.1008335277
vn -0.8864530325 0.460904032 -0.04205399752
vn -0.8517376781 -0.5194497108 -0.06866524369
vn 0.7475110292 0.6039380431 -0.2765612304
vn 0.4488343 0.3250695169 -0.8323926926
vn -0.7014598846 0.02995663509 -0.7120791078
vn 0.7670896053 0.05790149048 -0.6389217377
vn 0.6833421588 0.2834893167 0.6728129387
vn -0.05429255962 -0.08477503061 0.9949198365
vn 0.8230195045 0.4852717221 0.295212239
vn 0.8518061042 0.05730382353 0.5207136273
vn 0.1307725012 0.2470118701 0.9601477385
vn -0.5285774469 0.01664696448 0.8487218022
vn 0.3828521073 0.399866432 0.8327851295
vn 0.7065380812 0.1984680593 -0.679274857
vn 0.4124885798 0.2475576997 -0.8766803145
vn 0.9392914772 0.3070723712 -0.1530949175
vn 0.2621227205 0.4672749341 0.844361186
vn -0.5941652656 0.6779522896 0.4328374863
vn -0.993006587 0.01102012116 -0.1175433025
vn -0.4645829499 0.7138317227 -0.5240295529
vn -0.05523388088 0.7556350231 0.652659893
vn 0.1434452236 0.6511890888 -0.7452356815
vn 0.4203900695 0.851621151 -0.3130711913
vn 0.04264324158 0.03513102978 -0.9984725118
vn -0.4593682289 -0.4728883207 0.7519025803
vn -0.6709358096 -0.4783484042 0.5665932894
vn 0.07280059904 -0.4757955074 -0.876537919
vn -0.4064038992 -0.7639739513 -0.5011783242
vn 0.2122041881 -0.2743735015 -0.9379171729
vn -0.5161123276 -0.01367034763 -0.8564118147
vn -0.6143624187 -0.5537525415 -0.5620648861
vn 0.9272460938 -0.2330666482 0.2930777669
vn 0.8013544083 -0.5578792691 0.2158746123
vn 0.3585112393 -0.06738547236 0.9310901761
vn -0.4110727906 -0.02865880728 0.9111519456
vn 0.3907112479 0.05517807975 -0.9188580513
vn -0.2764470279 -0.7583830953 0.5902813673
vn -0.4775471985 -0.795717001 0.3725360632
vn -0.1276442409 -0.9636477828 0.2347123772
vn -0.5174731612 0.6514737606 0.5548003912
vn -0.4767658114 0.6716778278 0.5670478344
vn 0.4576859474 0.5198598504 -0.7212969661
vn -0.3398157656 -0.9308720231 -0.1341733187
vn -0.3109255135 0.7597685456 0.5710315704
vn 0.5172137022 0.6719685793 -0.5300454497
vn -0.9861862063 0.05996913463 -0.1544035077
vn -0.2289630622 -0.7937825322 -0.5634582639
vn 0.4070207477 0.8906425238 -0.2027066201
f 1//1 2//2 3//3 
f 1//1 4//4 2//2 
f 5//5 6//6 4//4 
f 5//5 4//4 1//1 
f 7//7 8//8 2//2 
f 4//4 7//7 2//2 
f 4//4 6//6 7//7 
f 7//7 6//6 5//5 
f 8//8 5//5 1//1 
f 8//8 3//3 2//2 
f 3//3 8//8 1//1 
f 8//8 7//7 5//5 
f 9//9 10//10 11//11 
f 12//12 13//13 9//9 
f 14//14 13//13 12//12 
f 14//14 15//15 13//13 
f 16//16 17//17 18//18 
f 19//19 17//17 20//20 
f 16//16 20//20 17//17 
f 18//18 17//17 19//19 
f 16//16 18//18 21//21 
f 16//16 21//21 20//20 
f 21//21 18//18 22//22 
f 23//23 22//22 18//18 
f 23//23 18//18 19//19 
f 24//24 19//19 20//20 
f 19//19 24//24 23//23 
f 23//23 24//24 22//22 
f 20//20 22//22 24//24 
f 22//22 20//20 14//14 
f 14//14 12//12 22//22 
f 22//22 12//12 21//21 
f 21//21 11//11 25//25 
f 21//21 12//12 9//9 
f 21//21 25//25 20//20 
f 9//9 11//11 21//21 
f 25//25 14//14 20//20 
f 25//25 15//15 14//14 
f 26//26 15//15 25//25 
f 26//26 25//25 11//11 
f 11//11 10//10 26//26 
f 26//26 10//10 27//27 
f 26//26 27//27 28//28 
f 26//26 28//28 29//29 
f 30//30 29//29 28//28 
f 30//30 31//31 29//29 
f 31//31 32//32 29//29 
f 32//32 33//33 34//34 
f 32//32 34//34 29//29 
f 15//15 26//26 34//34 
f 26//26 29//29 34//34 
f 34//34 33//33 35//35 
f 34//34 35//35 36//36 
f 13//13 15//15 37//37 
f 15//15 34//34 37//37 
f 37//37 34//34 36//36 
f 36//36 38//38 37//37 
f 38//38 39//39 37//37 
f 39//39 40//40 37//37 
f 13//13 41//41 9//9 
f 9//9 41//41 10//10 
f 37//37 40//40 41//41 
f 37//37 41//41 13//13 
f 41//41 40//40 42//42 
f 10//10 41//41 43//43 
f 43//43 41//41 42//42 
f 42//42 40//40 44//44 
f 45//45 27//27 10//10 
f 45//45 42//42 44//44 
f 45//45 43//43 42//42 
f 45//45 10//10 43//43 
f 45//45 44//44 46//46 
f 45//45 46//46 47//47 
f 45//45 47//47 48//48 
f 48//48 27//27 45//45 
f 48//48 47//47 49//49 
f 48//48 49//49 50//50 
f 30//30 28//28 51//51 
f 51//51 48//48 50//50 
f 27//27 48//48 51//51 
f 27//27 51//51 28//28 
f 51//51 50//50 52//52 
f 53//53 54//54 55//55 
f 56//56 57//57 54//54 
f 58//58 54//54 57//57 
f 55//55 54//54 58//58 
f 55//55 59//59 53//53 
f 60//60 53//53 59//59 
f 53//53 60//60 56//56 
f 54//54 53//53 56//56 
f 55//55 58//58 59//59 
f 59//59 58//58 57//57 
f 31//31 61//61 59//59 
f 31//31 59//59 57//57 
f 61//61 60//60 59//59 
f 56//56 60//60 61//61 
f 56//56 61//61 57//57 
f 31//31 57//57 32//32 
f 32//32 57//57 62//62 
f 57//57 61//61 62//62 
f 30//30 61//61 31//31 
f 30//30 63//63 61//61 
f 63//63 62//62 61//61 
f 62//62 33//33 32//32 
f 33//33 62//62 63//63 
f 52//52 33//33 63//63 
f 30//30 51//51 63//63 
f 51//51 52//52 63//63 
f 33//33 52//52 35//35 
f 35//35 52//52 64//64 
f 65//65 66//66 67//67 
f 66//66 68//68 67//67 
f 69//69 70//70 71//71 
f 70//70 72//72 73//73 
f 72//72 70//70 69//69 
f 69//69 74//74 72//72 
f 73//73 71//71 70//70 
f 74//74 69//69 71//71 
f 71//71 73//73 74//74 
f 75//75 72//72 74//74 
f 76//76 73//73 72//72 
f 72//72 75//75 76//76 
f 73//73 76//76 77//77 
f 77//77 74//74 73//73 
f 74//74 77//77 75//75 
f 78//78 75//75 79//79 
f 80//80 75//75 77//77 
f 75//75 80//80 79//79 
f 75//75 78//78 76//76 
f 76//76 80//80 77//77 
f 80//80 76//76 78//78 
f 80//80 81//81 79//79 
f 80//80 82//82 83//83 
f 80//80 84//84 82//82 
f 81//81 80//80 83//83 
f 80//80 78//78 84//84 
f 85//85 86//86 79//79 
f 78//78 79//79 86//86 
f 81//81 85//85 79//79 
f 85//85 81//81 40//40 
f 40//40 81//81 44//44 
f 83//83 44//44 81//81 
f 46//46 83//83 87//87 
f 83//83 82//82 87//87 
f 44//44 83//83 46//46 
f 40//40 39//39 85//85 
f 39//39 38//38 85//85 
f 88//88 89//89 90//90 
f 89//89 91//91 85//85 
f 89//89 88//88 91//91 
f 38//38 92//92 85//85 
f 85//85 92//92 93//93 
f 85//85 93//93 89//89 
f 35//35 64//64 92//92 
f 35//35 92//92 36//36 
f 38//38 36//36 92//92 
f 94//94 65//65 67//67 
f 94//94 95//95 65//65 
f 96//96 94//94 67//67 
f 64//64 95//95 94//94 
f 93//93 92//92 97//97 
f 92//92 64//64 97//97 
f 98//98 99//99 90//90 
f 89//89 97//97 90//90 
f 90//90 97//97 98//98 
f 89//89 93//93 97//97 
f 96//96 98//98 94//94 
f 98//98 96//96 99//99 
f 97//97 64//64 94//94 
f 98//98 97//97 94//94 
f 85//85 91//91 86//86 
f 88//88 90//90 100//100 
f 100//100 101//101 88//88 
f 88//88 102//102 91//91 
f 84//84 102//102 88//88 
f 84//84 88//88 101//101 
f 91//91 102//102 86//86 
f 102//102 84//84 86//86 
f 86//86 84//84 78//78 
f 84//84 101//101 82//82 
f 82//82 101//101 87//87 
f 100//100 46//46 87//87 
f 87//87 101//101 100//100 
f 100//100 103//103 104//104 
f 105//105 96//96 104//104 
f 100//100 104//104 106//106 
f 96//96 106//106 104//104 
f 107//107 104//104 103//103 
f 105//105 108//108 109//109 
f 107//107 108//108 104//104 
f 108//108 105//105 104//104 
f 110//110 108//108 107//107 
f 111//111 103//103 112//112 
f 103//103 111//111 107//107 
f 107//107 111//111 113//113 
f 107//107 113//113 110//110 
f 113//113 114//114 110//110 
f 115//115 116//116 109//109 
f 117//117 116//116 115//115 
f 115//115 109//109 108//108 
f 110//110 118//118 108//108 
f 110//110 114//114 118//118 
f 118//118 115//115 108//108 
f 113//113 119//119 120//120 
f 120//120 114//114 113//113 
f 118//118 114//114 120//120 
f 119//119 115//115 118//118 
f 119//119 117//117 115//115 
f 111//111 112//112 119//119 
f 119//119 113//113 111//111 
f 117//117 119//119 112//112 
f 120//120 119//119 118//118 
f 103//103 100//100 121//121 
f 106//106 46//46 100//100 
f 100//100 90//90 121//121 
f 121//121 90//90 99//99 
f 96//96 122//122 99//99 
f 122//122 123//123 99//99 
f 124//124 99//99 125//125 
f 121//121 99//99 124//124 
f 125//125 99//99 123//123 
f 124//124 103//103 121//121 
f 126//126 103//103 124//124 
f 112//112 103//103 126//126 
f 127//127 112//112 126//126 
f 112//112 127//127 117//117 
f 127//127 116//116 117//117 
f 128//128 127//127 126//126 
f 116//116 127//127 128//128 
f 128//128 126//126 124//124 
f 124//124 125//125 128//128 
f 125//125 123//123 128//128 
f 123//123 116//116 128//128 
f 116//116 123//123 109//109 
f 105//105 109//109 123//123 
f 123//123 122//122 105//105 
f 105//105 122//122 96//96 
f 106//106 96//96 67//67 
f 47//47 46//46 106//106 
f 106//106 67//67 68//68 
f 49//49 106//106 68//68 
f 49//49 47//47 106//106 
f 129//129 49//49 68//68 
f 66//66 130//130 68//68 
f 68//68 130//130 129//129 
f 131//131 50//50 49//49 
f 49//49 129//129 131//131 
f 131//131 129//129 130//130 
f 132//132 131//131 130//130 
f 50//50 132//132 52//52 
f 64//64 52//52 132//132 
f 132//132 95//95 64//64 
f 132//132 50//50 131//131 
f 95//95 132//132 133//133 
f 134//134 133//133 132//132 
f 134//134 66//66 65//65 
f 134//134 130//130 66//66 
f 134//134 132//132 130//130 
f 135//135 133//133 134//134 
f 136//136 133//133 135//135 
f 134//134 137//137 135//135 
f 137//137 134//134 65//65 
f 95//95 137//137 65//65 
f 133//133 137//137 95//95 
f 135//135 138//138 136//136 
f 138//138 135//135 137//137 
f 137//137 139//139 138//138 
f 133//133 136//136 139//139 
f 139//139 137//137 133//133 
f 140//140 139//139 136//136 
f 141//141 136//136 138//138 
f 136//136 141//141 140//140 
f 138//138 142//142 141//141 
f 139//139 140//140 142//142 
f 142//142 138//138 139//139 
f 143//143 140//140 141//141 
f 142//142 144//144 145//145 
f 145//145 141//141 142//142 
f 141//141 145//145 143//143 
f 140//140 143//143 144//144 
f 144//144 142//142 140//140 
f 145//145 144//144 143//143 
