v -25.75764847 3.870900869 -150.6907806
v -25.93350792 3.599048615 -150.7147675
v -26.01476288 3.601781607 -150.5281525
v -25.90870285 3.495291948 -150.3487549
v -26.03686333 2.959562063 -150.5158691
v -26.07272339 3.283176184 -150.7094421
v -26.36552429 3.027813911 -150.6260834
v -26.16492653 3.139257908 -150.7097778
v -26.21583557 3.553989172 -151.3706818
v -25.79956627 4.071492195 -151.0097046
v -25.70741272 4.422472 -150.7387238
v -25.91492653 4.444854736 -151.1309662
v -25.59594154 4.601246834 -151.0530396
v -25.61611366 4.470368385 -151.404068
v -25.83991432 4.161037445 -151.3661346
v -25.72460175 3.846082211 -151.3096161
v -25.62579346 3.592295885 -151.0971375
v -25.86759186 3.679128885 -151.27388
v -25.56011009 3.929698467 -151.3600159
v -25.36444092 4.255300045 -151.2543335
v -25.44696045 4.513274193 -150.9121552
v -25.41802979 3.842585564 -150.8143616
v -25.3627243 3.651756048 -151.1007996
v -25.4997654 4.207633018 -150.7628784
v -25.76853561 4.045093536 -150.8645325
v -25.44979477 4.075250149 -150.6983948
v -25.35160828 3.883023262 -151.1912231
v -25.46953011 3.516428232 -150.9521637
v -25.27819824 3.512788534 -150.9940491
v -24.81487465 3.660088539 -151.1998138
v -25.05661774 2.622321129 -150.7434082
v -24.82420731 3.103691816 -151.0558014
v -24.71338654 2.559163809 -151.2270508
v -24.47249031 2.495429754 -151.2264709
v -24.41891098 2.392239094 -150.3862915
v -24.36055183 2.532703876 -150.3444061
v -24.51755524 2.506631613 -149.8998718
v -24.43951797 2.510113716 -149.9628601
v -24.38802528 2.630327225 -150.0612183
v -24.55258369 2.616503 -150.3140411
v -24.92004967 2.199507475 -150.5437469
v -25.21515656 2.126896143 -150.4806671
v -24.99495506 1.926834822 -149.3709717
v -25.7515564 2.318359852 -150.7905273
v -25.74308586 2.226142406 -150.6061401
v -25.44046974 2.303374767 -150.5820465
v -24.96438599 2.331947803 -150.6769562
v -24.83613968 2.742108583 -151.1568756
v -25.10589981 2.610646009 -150.5311737
v -25.19893456 1.799563646 -149.8029022
v -25.37682915 1.911050916 -150.5138855
v -24.69124031 1.822265267 -150.4345703
v -24.86535835 1.86512816 -149.3904266
v -25.1319828 1.896234035 -149.4753113
v -25.25023079 0.6846888661 -149.2193909
v -25.48664665 0.7170197368 -148.9238434
v -25.24567795 2.926034689 -150.7294922
v -24.61683464 2.721033573 -151.0065918
v -24.71625328 1.591080427 -151.2697754
v -24.91838837 2.124066353 -151.4349365
v -24.92173004 3.202497482 -151.6074219
v -24.68540382 2.771838665 -151.3857422
v -25.41748428 2.775772095 -150.6887207
v -25.66072845 2.77999568 -150.6315002
v -25.68349838 3.055899382 -150.8083344
v -26.06209755 3.315603971 -150.9300232
v -25.84726143 2.214252472 -150.6373749
v -26.00754547 1.844551325 -150.4354706
v -26.13591957 1.907285929 -150.8951874
v -26.05912399 2.283438921 -151.2339325
v -26.16410637 1.649562716 -151.3218079
v -25.93704796 1.675506115 -150.5516815
v -26.01838875 1.576327801 -149.5702209
v -25.79381371 1.488384247 -149.7203217
v -25.64641571 1.590632439 -150.334259
v -25.45165253 1.597700477 -150.8141327
v -25.03535271 1.583818793 -151.4826813
v -24.75374603 1.653843403 -150.6700134
v -25.52108002 2.547044516 -151.5895996
v -25.94639015 1.610901713 -151.2831268
v -25.96191978 2.408943892 -151.2302094
v -26.00667 2.92274642 -150.8475189
v -25.88139153 2.641834259 -151.4330139
v -26.01126289 3.009586573 -151.2702484
v -26.20605087 2.727108955 -150.519577
v -26.35273933 2.816138268 -150.5253448
v -25.89422417 3.016994715 -151.595047
v -25.87187767 3.317566872 -151.6656647
v -26.20453262 3.30758667 -151.3992157
v -25.97430801 1.854771733 -149.4944305
v -25.77846336 0.6779145598 -148.9825134
v -25.87389374 1.815920711 -149.3981018
v -25.62339211 1.771022797 -149.7082214
v -25.58151817 1.365716338 -149.415329
v -25.70632172 0.8966937661 -148.74086
v -25.92059708 0.2333561033 -149.2102966
v -25.71493721 0.6520283222 -149.0308685
v -25.83718109 0.3457854092 -149.3306274
v -25.65121269 0.6522576213 -149.3032227
v -25.55778122 1.008370876 -149.327774
v -25.78697777 0.306117624 -148.5359955
v -25.62498283 0.4712795317 -148.7982635
v -25.57223701 0.37678352 -148.3752899
v -25.60655212 0.7860879302 -148.869339
v -25.47038841 0.650867641 -149.0488129
v -25.18426895 0.3927001357 -148.9260712
v -25.31018257 0.2364978045 -148.9481506
v -25.47514725 0.2640713453 -148.8069305
v -25.49059677 0.2074732929 -148.4020996
v -25.76303291 0.1721118391 -149.3035278
v -25.53324127 0.460116744 -148.0738373
v -25.46634483 0.5249040127 -148.0957489
v -25.46206665 0.7185853124 -149.3519287
v -25.14069557 1.627140284 -149.7441101
v -24.92910004 1.563159108 -149.6583252
v -25.56948853 0.4392925501 -149.1165466
v -24.82154655 3.64687705 -151.4486542
v -24.49503326 2.733564615 -151.2802582
v -24.60356903 3.162396193 -151.1247253
v -24.74915314 3.261470556 -151.5309143
v -24.46172523 2.789460421 -151.1576691
v -24.6368103 2.65177846 -150.0356293
v -24.59424019 2.535053968 -150.0692902
vn 0.4989104569 0.8420831561 0.2049006969
vn 0.8376899362 -0.2317172289 -0.4945529997
vn -0.8168507814 0.5222707987 0.2449244559
vn 0.4435478449 -0.09192124754 0.8915244341
vn 0.9650279284 -0.2474562526 -0.08652460575
vn -0.249376446 0.2041899264 -0.9466350079
vn -0.8192873001 0.5657438636 0.09328543395
vn 0.2821301818 0.8577263951 0.4297767282
vn -0.7664762735 0.6316806674 -0.1161621809
vn -0.8681022525 -0.3212047815 0.3784520328
vn -0.5492166877 0.3612872064 0.7535466552
vn -0.9556046724 0.2945849001 -0.006280774716
vn -0.1664648056 0.984875679 0.04805618152
vn 0.1776897162 0.5324216485 -0.827619195
vn -0.5682344437 -0.02568818629 -0.8224656582
vn -0.8779866099 0.2543830276 -0.4054981768
vn -0.5118272901 0.2550517023 0.8203544617
vn -0.216811657 0.6257020831 0.7493261099
vn 0.1246354505 0.3727881908 -0.9195079803
vn 0.9647189975 0.1522953957 -0.2147636265
vn 0.8698138595 0.4405505359 0.2221240848
vn 0.8612187505 -0.1915347129 0.4707618654
vn 0.2297555804 -0.5167253017 0.8247467875
vn 0.3669950366 0.1184828654 0.9226464629
vn -0.5964630842 -0.4978198707 0.6296087503
vn -0.2453120351 -0.1890242994 0.9508374333
vn 0.4707989395 0.8423262239 0.2623640895
vn -0.1088951156 0.4496312737 0.8865514994
vn 0.230368197 0.4434269369 0.8662003279
vn 0.4716525674 0.4475307763 0.7597763538
vn 0.6724569798 0.2208438516 0.7064202428
vn 0.4902688861 0.08470460773 0.8674454093
vn -0.784737289 -0.6197940707 -0.006534398999
vn 0.733679235 -0.585665822 -0.3445436358
vn -0.3149998486 -0.9440580606 0.09761931002
vn 0.9700629115 -0.235530749 -0.05918781832
vn 0.1328155696 0.5929368138 0.7942203283
vn 0.205092147 -0.9651177526 0.1627420336
vn 0.4492374957 0.8722757697 0.1931855977
vn -0.8998322487 0.3828880191 0.209042415
vn 0.5643775463 0.7430830002 0.3595909774
vn -0.4524162412 0.7386890054 0.4996579885
vn 0.2050100714 0.6588320136 0.7238171697
vn 0.03892780468 0.2431019694 0.969219327
vn 0.03132873774 0.883543849 0.4672994018
vn -0.08851739019 0.2371861041 0.9674230814
vn -0.2095273584 0.2082412094 0.9553710818
vn 0.9922541976 0.1198472753 0.03268428892
vn 0.6436440349 0.4652713537 0.6076552272
vn -0.9627643824 0.1034881696 0.2497498542
vn 0.4480105639 0.5219413042 0.7258538604
vn 0.9864583611 0.1163732633 0.1155729964
vn 0.9428230524 0.1563441306 0.2943488657
vn -0.8470548987 0.4673562944 0.2531325519
vn 0.8694779277 -0.372197777 0.3247721493
vn 0.4765131772 0.5747707486 0.6652622223
vn 0.1780256629 0.3008986413 0.9368921518
vn -0.5788601637 0.452512145 0.6783462763
vn 0.9635620713 -0.07679098845 -0.2562251389
vn 0.5539059639 -0.04176031798 -0.8315312862
vn 0.2574911118 -0.05131850019 -0.9649169445
vn 0.3333688974 -0.2633430064 -0.9052709937
vn -0.3228936791 0.1753893495 0.930042088
vn 0.1073528603 0.2121556997 0.971321404
vn -0.04513305053 0.4175570011 0.9075291753
vn -0.1703599095 0.5118662119 0.8420038223
vn -0.7913292646 0.2011606693 0.577349484
vn -0.954276979 0.2820809782 0.09892328084
vn -0.9619806409 0.1500369012 0.2282151282
vn -0.9788683653 0.166250959 0.1190686151
vn -0.8840447664 -0.3431611955 -0.31734097
vn -0.3608539104 -0.9326022863 0.006116464268
vn -0.9207311869 -0.3740463853 -0.1111005321
vn -0.0784830004 -0.8446081281 -0.5296012759
vn 0.5384104252 -0.8396486044 0.07144505531
vn -0.1692376733 -0.983104229 0.06974733621
vn -0.07192574441 -0.7334423065 -0.6759356856
vn 0.2266897261 -0.9737491608 0.0205990728
vn -0.01430942677 -0.1504899263 -0.9885079861
vn -0.2586598098 -0.6237802505 -0.7375590205
vn -0.6931403875 0.14328973 -0.7064166069
vn -0.9673334956 -0.2008015215 0.1547404826
vn -0.5700255632 -0.18326208 -0.8009281158
vn -0.6070915461 -0.7455435991 -0.2749629319
vn 0.2420517653 -0.8855823874 0.396427542
vn -0.9403917789 -0.3391283751 0.02559697442
vn -0.6512839198 -0.428065151 -0.6265696287
vn -0.08252112567 0.2318319827 -0.9692493081
vn -0.8269134164 -0.295299679 -0.4785522819
vn -0.8646335006 0.4302253127 0.2594513893
vn -0.9743540287 -0.1549486518 0.1631722897
vn 0.3910703361 0.7223502398 0.5703280568
vn 0.985337913 -0.1557392478 0.06967425346
vn 0.8638004065 0.3680924475 0.344030261
vn -0.231709525 0.3960513473 0.8885122538
vn -0.9139859676 -0.3878441155 0.119191274
vn -0.9582591057 0.05580366403 -0.2804023325
vn -0.7640616894 0.374874115 -0.5250515342
vn -0.4523852766 -0.03335474432 -0.8911986351
vn -0.7943702936 0.2459542602 -0.5554118752
vn -0.9020670652 0.12744914 0.4123491049
vn -0.5523996353 0.7188403606 0.422046423
vn -0.8338690996 0.3910505772 0.3895404637
vn -0.2347841561 0.517862916 0.8226143718
vn 0.6551396251 -0.226081863 -0.720887661
vn 0.9927153587 0.05593632534 0.1067117304
vn -0.1127895862 -0.5258299112 -0.8430785537
vn 0.5495274663 -0.7656028867 -0.334472388
vn 0.1972886771 -0.9495335817 0.2438507825
vn 0.4569388926 -0.7885046601 -0.4116640091
vn -0.7392846346 -0.4375328124 0.5118820667
vn 0.7404695153 0.5208557844 0.4247518182
vn 0.2769376636 -0.5818943381 -0.7646597624
vn -0.7888908982 -0.3213511705 -0.5238173008
vn 0.5505090356 -0.816999495 -0.1716147661
vn 0.8026682138 -0.3574284017 -0.4774606824
vn 0.3392395675 0.5373045802 -0.7721530199
vn 0.6838514209 0.2395316958 -0.6891819835
vn 0.9563522339 0.2921156883 -0.007666553371
vn 0.8349397182 0.09087970853 -0.5427858829
vn 0.7557858229 0.6125035882 0.2315752506
vn -0.504652679 0.8147272468 0.2855612636
vn -0.4898548126 -0.8655191064 -0.1044936106
f 1//1 2//2 3//3 
f 1//1 3//3 4//4 
f 1//1 4//4 2//2 
f 2//2 4//4 5//5 
f 2//2 5//5 6//6 
f 3//3 2//2 6//6 
f 7//7 3//3 6//6 
f 8//8 7//7 6//6 
f 6//6 5//5 8//8 
f 8//8 9//9 7//7 
f 10//10 11//11 12//12 
f 11//11 13//13 12//12 
f 12//12 13//13 14//14 
f 15//15 12//12 14//14 
f 12//12 15//15 16//16 
f 16//16 10//10 12//12 
f 17//17 10//10 16//16 
f 16//16 18//18 17//17 
f 18//18 16//16 9//9 
f 15//15 14//14 19//19 
f 15//15 19//19 16//16 
f 20//20 19//19 14//14 
f 13//13 11//11 21//21 
f 14//14 13//13 21//21 
f 14//14 21//21 20//20 
f 20//20 21//21 22//22 
f 20//20 22//22 23//23 
f 24//24 25//25 26//26 
f 25//25 11//11 10//10 
f 23//23 25//25 10//10 
f 25//25 23//23 22//22 
f 26//26 25//25 22//22 
f 21//21 24//24 22//22 
f 26//26 22//22 24//24 
f 24//24 11//11 25//25 
f 21//21 11//11 24//24 
f 23//23 10//10 17//17 
f 27//27 20//20 23//23 
f 27//27 19//19 20//20 
f 27//27 23//23 28//28 
f 28//28 23//23 17//17 
f 29//29 27//27 28//28 
f 30//30 27//27 29//29 
f 30//30 31//31 32//32 
f 33//33 34//34 35//35 
f 36//36 35//35 34//34 
f 37//37 38//38 39//39 
f 39//39 38//38 36//36 
f 40//40 33//33 35//35 
f 35//35 36//36 40//40 
f 41//41 42//42 43//43 
f 42//42 44//44 45//45 
f 46//46 44//44 42//42 
f 47//47 46//46 42//42 
f 47//47 42//42 41//41 
f 48//48 49//49 41//41 
f 50//50 42//42 51//51 
f 52//52 41//41 53//53 
f 50//50 54//54 42//42 
f 51//51 42//42 45//45 
f 52//52 48//48 41//41 
f 53//53 41//41 43//43 
f 42//42 54//54 43//43 
f 49//49 47//47 41//41 
f 43//43 55//55 53//53 
f 56//56 43//43 54//54 
f 55//55 43//43 56//56 
f 57//57 47//47 49//49 
f 31//31 49//49 48//48 
f 49//49 31//31 57//57 
f 32//32 31//31 48//48 
f 33//33 58//58 48//48 
f 32//32 48//48 58//58 
f 48//48 59//59 60//60 
f 48//48 52//52 59//59 
f 48//48 60//60 61//61 
f 62//62 48//48 61//61 
f 48//48 62//62 33//33 
f 47//47 57//57 46//46 
f 63//63 44//44 46//46 
f 46//46 57//57 63//63 
f 44//44 64//64 45//45 
f 64//64 44//44 65//65 
f 65//65 44//44 63//63 
f 63//63 57//57 65//65 
f 65//65 57//57 28//28 
f 57//57 29//29 28//28 
f 57//57 30//30 29//29 
f 31//31 30//30 57//57 
f 65//65 66//66 64//64 
f 18//18 66//66 65//65 
f 17//17 18//18 65//65 
f 17//17 65//65 28//28 
f 64//64 66//66 67//67 
f 66//66 9//9 8//8 
f 68//68 67//67 69//69 
f 67//67 70//70 69//69 
f 69//69 70//70 71//71 
f 71//71 72//72 69//69 
f 69//69 72//72 68//68 
f 73//73 68//68 72//72 
f 72//72 74//74 73//73 
f 74//74 72//72 75//75 
f 75//75 72//72 76//76 
f 59//59 77//77 60//60 
f 76//76 72//72 77//77 
f 76//76 77//77 78//78 
f 78//78 77//77 59//59 
f 60//60 77//77 79//79 
f 72//72 71//71 80//80 
f 77//77 72//72 80//80 
f 71//71 70//70 81//81 
f 80//80 71//71 81//81 
f 81//81 70//70 82//82 
f 67//67 66//66 82//82 
f 70//70 67//67 82//82 
f 82//82 8//8 5//5 
f 82//82 66//66 8//8 
f 83//83 81//81 82//82 
f 83//83 80//80 81//81 
f 80//80 83//83 77//77 
f 83//83 79//79 77//77 
f 82//82 84//84 83//83 
f 82//82 85//85 84//84 
f 82//82 5//5 85//85 
f 4//4 85//85 5//5 
f 84//84 85//85 86//86 
f 4//4 86//86 85//85 
f 86//86 3//3 7//7 
f 4//4 3//3 86//86 
f 9//9 86//86 7//7 
f 87//87 88//88 79//79 
f 89//89 88//88 87//87 
f 9//9 88//88 89//89 
f 87//87 79//79 83//83 
f 87//87 84//84 86//86 
f 87//87 83//83 84//84 
f 9//9 89//89 86//86 
f 89//89 87//87 86//86 
f 9//9 66//66 18//18 
f 67//67 45//45 64//64 
f 67//67 68//68 45//45 
f 90//90 45//45 68//68 
f 90//90 68//68 73//73 
f 73//73 74//74 91//91 
f 91//91 90//90 73//73 
f 51//51 45//45 92//92 
f 45//45 90//90 92//92 
f 92//92 90//90 91//91 
f 92//92 93//93 51//51 
f 56//56 94//94 92//92 
f 95//95 56//56 92//92 
f 92//92 91//91 95//95 
f 92//92 94//94 93//93 
f 96//96 97//97 98//98 
f 99//99 97//97 100//100 
f 97//97 99//99 98//98 
f 91//91 74//74 97//97 
f 100//100 97//97 74//74 
f 101//101 97//97 96//96 
f 97//97 101//101 102//102 
f 97//97 103//103 91//91 
f 103//103 104//104 91//91 
f 103//103 102//102 101//101 
f 103//103 97//97 102//102 
f 104//104 103//103 56//56 
f 105//105 56//56 106//106 
f 107//107 105//105 106//106 
f 106//106 108//108 107//107 
f 109//109 103//103 101//101 
f 106//106 109//109 108//108 
f 110//110 108//108 109//109 
f 109//109 96//96 110//110 
f 101//101 96//96 109//109 
f 103//103 109//109 111//111 
f 112//112 103//103 111//111 
f 112//112 56//56 103//103 
f 106//106 56//56 112//112 
f 106//106 112//112 109//109 
f 112//112 111//111 109//109 
f 104//104 95//95 91//91 
f 56//56 95//95 104//104 
f 55//55 56//56 113//113 
f 113//113 56//56 105//105 
f 56//56 100//100 94//94 
f 54//54 100//100 56//56 
f 94//94 100//100 93//93 
f 100//100 74//74 93//93 
f 100//100 114//114 99//99 
f 100//100 54//54 114//114 
f 93//93 74//74 75//75 
f 51//51 93//93 75//75 
f 51//51 75//75 76//76 
f 50//50 51//51 76//76 
f 115//115 76//76 78//78 
f 115//115 114//114 76//76 
f 50//50 76//76 114//114 
f 50//50 114//114 54//54 
f 115//115 113//113 114//114 
f 114//114 113//113 99//99 
f 113//113 116//116 99//99 
f 116//116 110//110 99//99 
f 110//110 98//98 99//99 
f 98//98 110//110 96//96 
f 110//110 116//116 108//108 
f 108//108 105//105 107//107 
f 108//108 116//116 105//105 
f 113//113 105//105 116//116 
f 115//115 55//55 113//113 
f 115//115 53//53 55//55 
f 53//53 115//115 52//52 
f 52//52 115//115 78//78 
f 59//59 52//52 78//78 
f 61//61 60//60 79//79 
f 88//88 61//61 79//79 
f 9//9 16//16 88//88 
f 16//16 19//19 88//88 
f 19//19 117//117 88//88 
f 88//88 117//117 61//61 
f 62//62 118//118 34//34 
f 33//33 62//62 34//34 
f 62//62 119//119 118//118 
f 120//120 119//119 62//62 
f 61//61 120//120 62//62 
f 120//120 61//61 117//117 
f 30//30 117//117 27//27 
f 117//117 30//30 119//119 
f 119//119 120//120 117//117 
f 27//27 117//117 19//19 
f 30//30 32//32 119//119 
f 119//119 121//121 118//118 
f 119//119 32//32 121//121 
f 34//34 118//118 121//121 
f 39//39 121//121 40//40 
f 40//40 121//121 58//58 
f 32//32 58//58 121//121 
f 121//121 36//36 34//34 
f 121//121 39//39 36//36 
f 58//58 33//33 40//40 
f 37//37 39//39 122//122 
f 122//122 38//38 37//37 
f 38//38 122//122 123//123 
f 39//39 40//40 122//122 
f 38//38 123//123 36//36 
f 40//40 36//36 123//123 
f 123//123 122//122 40//40 
