v -36.85978317 26.27742386 -141.1021271
v -36.87673187 26.47751045 -141.2088776
v -36.66991806 26.31521988 -141.3048401
v -36.5539856 27.22234535 -141.3709412
v -36.33626175 27.60642052 -141.3214874
v -36.32291031 27.21627617 -141.0679016
v -36.52857208 26.68536758 -141.1609955
v -36.09880829 26.71543694 -140.9450378
v -36.3021965 27.72213554 -140.9724121
v -36.16611481 28.14434624 -141.1500854
v -36.00698853 28.46388817 -140.8846283
v -36.33609772 29.12624931 -140.5576172
v -36.16441345 28.94293213 -140.6847839
v -36.43180847 28.94688416 -140.8220673
v -36.54115295 29.11340523 -140.740387
v -36.16478348 29.50940323 -140.6300507
v -36.42983246 29.75836945 -140.7506104
v -36.76654816 29.2641201 -140.7807007
v -36.6776123 29.80048943 -140.6321106
v -36.27928925 29.8026638 -140.475296
v -36.27693558 29.55328178 -140.2745056
v -36.60756302 29.70439529 -140.2454529
v -36.90125275 29.52480698 -140.5451508
v -36.91252899 29.04284477 -140.5681763
v -36.83380508 29.24059105 -140.3473663
v -36.58634949 29.1200161 -140.2934418
v -36.69354248 28.97065926 -140.5415955
v -36.69929886 28.81613541 -140.2481689
v -36.44322586 29.0782032 -140.3424225
v -36.57979584 28.78055763 -139.6798096
v -36.22110748 28.75107384 -139.7183685
v -36.21850586 28.4523716 -139.6552887
v -36.3593483 27.81972504 -139.3376312
v -36.2196846 27.70543289 -139.4156342
v -36.35245514 28.03809357 -139.7953491
v -36.07701874 28.46732903 -139.9018402
v -36.17573547 27.70092773 -139.9573059
v -36.36660767 27.59076118 -139.8181
v -36.43581009 27.29624939 -139.6625824
v -36.49859619 26.78372002 -139.5950928
v -36.71317673 26.98683357 -139.8407288
v -36.57100296 26.81630898 -139.8349152
v -37.03207397 26.85686684 -139.911438
v -36.58647537 27.2774086 -139.5342407
v -37.11134338 26.97088623 -140.0276947
v -36.59872818 27.74061394 -139.4530334
v -36.52713394 27.74316216 -139.7301178
v -36.81660461 27.32507133 -139.9870148
v -36.15990448 24.14848709 -140.5735168
v -36.10469818 23.81029892 -140.5540314
v -36.5895195 23.7777977 -140.8602295
v -36.19973373 24.55522346 -140.458313
v -36.1439209 24.16592598 -140.4169922
v -36.3097496 24.45719147 -140.7945557
v -36.55523682 24.11042976 -140.6087952
v -36.27576828 25.10988426 -140.9063263
v -36.04615784 25.11266136 -140.6530914
v -36.2648201 25.34471512 -140.4650116
v -36.31354904 25.76856613 -140.8984375
v -36.61835861 25.59602928 -140.8160248
v -36.29060745 26.5920372 -140.9863129
v -36.73727036 26.0716114 -140.9043121
v -36.77314758 26.53832436 -141.0088501
v -36.14500809 25.62270927 -140.5898132
v -36.16524124 25.87202454 -140.7201385
v -36.33503723 25.76909828 -140.4663391
v -36.29877853 26.46610832 -140.4753113
v -36.6493721 25.73640823 -140.5951691
v -36.51137543 25.25255203 -140.7234192
v -36.96826553 26.76359177 -140.8002167
v -36.57572556 26.28514671 -140.369278
v -36.78565216 26.40972137 -140.4632111
v -37.19512939 25.52897263 -140.0718689
v -37.09019852 26.50787354 -140.2021332
v -37.01170731 26.90383148 -140.6517944
v -37.38496017 25.67694283 -139.863205
v -37.3284874 25.61424446 -139.7458344
v -37.21562576 24.46765709 -140.0157318
v -37.73446274 23.94112587 -139.8177338
v -37.3105278 24.05179787 -139.6931
v -37.39592743 24.18553543 -139.8651276
v -38.01631165 23.8631916 -139.5550842
v -37.78841019 23.76185989 -139.8347321
v -37.05779266 23.75047874 -140.032196
v -37.52240372 23.76359558 -139.5370941
v -36.93005371 23.75719452 -139.8511353
v -37.07019806 24.19157219 -139.7286987
v -37.23386002 24.41416359 -139.6968842
v -37.15538025 25.48622322 -139.6643829
v -37.0023613 24.20902634 -139.9421692
v -37.11586761 24.22571564 -140.0012054
v -36.86501694 25.10494041 -139.7662964
v -36.92579269 25.60107231 -140.0717316
v -37.06303406 26.05648994 -139.6853485
v -36.89397049 25.71366501 -139.8244629
v -36.60371017 26.39248276 -139.8459625
v -36.45465851 26.35024261 -140.2529907
v -36.16318512 26.61887169 -140.7341309
v -36.21816254 26.73182106 -140.0942841
v -36.02327728 26.73584938 -140.4777832
v -36.05921173 27.31882477 -140.0098572
v -36.11221695 26.80332947 -139.8300781
v -36.02835083 27.54875946 -140.5530548
v -36.18642426 23.76646996 -140.3455963
v -36.81834793 23.95248032 -140.5752869
v -36.98626328 23.75066948 -140.6652222
v -37.07344437 23.85321236 -140.9233398
v -36.48555374 24.32503319 -140.5484314
v -36.38125229 24.21571922 -140.3727417
v -36.72664642 27.01395035 -141.0795441
v -36.8227272 27.62080956 -140.8780823
v -36.90010452 28.17729378 -140.6952209
v -36.92502594 27.71653175 -140.2250824
v -36.56896591 27.87374306 -141.3268738
v -36.54976654 27.67938995 -141.0145111
v -36.61381531 28.61188316 -141.1603088
v -36.25645065 28.67020416 -141.2692413
v -36.69394684 28.70851135 -140.7060547
v -36.85164261 28.32499695 -140.4429474
v -36.94958878 28.22686768 -140.1475525
v -36.67882156 28.49055672 -139.7406769
vn 0.32766518 -0.6960158944 0.6389033198
vn -0.8827773929 0.1220923662 -0.4536491036
vn 0.5886317492 -0.3159906566 -0.7440850735
vn -0.4983727336 0.07197333872 -0.8639701605
vn 0.6414234638 -0.1052093729 -0.7599387765
vn 0.8678088784 -0.1364276558 -0.4778024852
vn 0.7334121466 -0.4867709875 -0.4745109379
vn 0.8451360464 -0.0179255195 -0.534250617
vn 0.890760839 -0.06504887342 -0.449793011
vn 0.9364682436 -0.1366154999 -0.3230533898
vn 0.9854082465 0.04091706127 -0.1652160287
vn 0.8346821666 0.5460449457 -0.07169799507
vn 0.862835288 0.5019007921 -0.06009016931
vn -0.1877977848 0.7800372243 -0.5968868136
vn 0.09563977271 -0.07695994526 -0.9924364686
vn 0.9323134422 -0.1325496286 -0.3364852071
vn 0.2042087615 0.2753493786 -0.9394048452
vn -0.4133256078 -0.02224866673 -0.9103114605
vn -0.4947500825 0.8026394248 -0.3331551552
vn 0.4621642232 0.8662593365 0.1897339076
vn 0.6051856279 -0.018357886 0.7958726883
vn -0.3197043538 0.4431612492 0.8374946117
vn -0.9452908635 0.3258300424 0.01612362079
vn -0.9236382246 -0.3472464979 -0.1622106582
vn -0.6430309415 -0.1539004743 0.7502171993
vn -0.2059016079 -0.1265695542 0.9703528881
vn -0.9204593301 -0.3760014474 -0.106665276
vn -0.8973343372 0.4260458052 0.1152219698
vn 0.3431694508 0.6454324126 0.6823867559
vn -0.4810071588 0.5808409452 0.6567007899
vn 0.6536071897 0.6520691514 0.3841918707
vn 0.7538413405 0.1309634596 0.6438725591
vn -0.1248473823 0.1725945324 0.9770487547
vn 0.9686416388 -0.2307355553 0.09216553718
vn 0.9611521959 -0.1752454937 0.2132498771
vn 0.9746443629 0.05488422886 0.2169241011
vn 0.8710353374 -0.03032106906 0.4902836382
vn 0.8852508664 0.03815450519 0.4635462761
vn 0.5778538585 -0.1534469575 0.8015852571
vn -0.1108148396 -0.3080672026 0.944888711
vn -0.2759423256 -0.4356957078 0.856752634
vn 0.08231961727 -0.226509586 0.970524013
vn -0.6125930548 0.04381654039 0.7891830206
vn -0.2511817515 -0.381809026 0.8894546628
vn -0.934371233 0.3209479451 0.1547345966
vn -0.8638281226 0.1441715658 0.4827167988
vn -0.9504341483 0.2312544584 0.2078371048
vn -0.9028253555 0.105950132 0.4167504311
vn 0.7339064479 -0.0410753116 -0.6780074835
vn 0.796028316 -0.3499112427 -0.4938633442
vn 0.1874581128 -0.3557613492 -0.9155836105
vn 0.3740103841 0.09071906656 0.9229768515
vn 0.7499639392 0.129636988 0.6486511827
vn -0.4102642238 -0.2047164887 -0.8886925578
vn -0.4134834707 0.4364616275 -0.7990823984
vn 0.2659364641 -0.127952233 -0.9554611444
vn 0.9929097295 0.0145957293 -0.1179713234
vn -0.1973109245 -0.01485766564 0.9802283645
vn 0.4126085043 -0.06785760075 -0.9083774686
vn -0.6246094704 -0.2317828685 -0.745747745
vn 0.4195595682 -0.2873710096 -0.8610387444
vn -0.7337087989 -0.296489954 -0.6113633513
vn -0.4006391466 -0.2601611912 -0.8785240054
vn 0.9631166458 0.1566184312 0.2188080847
vn 0.983990252 0.004499855451 0.1781654507
vn 0.3063927591 -0.05661849678 0.9502198696
vn 0.6951417923 0.08439354599 0.7139016986
vn -0.8165802956 -0.3016247153 0.4921576679
vn -0.9841294289 -0.1755005419 -0.02624440193
vn -0.9292295575 -0.2722333372 -0.2498428226
vn 0.2673440278 -0.9610683918 0.06981945038
vn -0.7721994519 -0.4263423383 -0.4711053073
vn -0.5127240419 -0.167605266 -0.8420347571
vn -0.9663205147 -0.0009957355214 -0.2573395669
vn -0.9782398939 0.1203393862 -0.169012323
vn -0.9677493572 0.2515974939 -0.01264320314
vn -0.9434596896 -0.03877196088 0.3292120695
vn -0.7650565505 -0.01797489636 -0.643712163
vn -0.4555431008 0.4661265612 -0.758423686
vn -0.2380065322 0.630035758 0.7391940951
vn -0.8566218615 0.5133150816 -0.05202519521
vn -0.5101739168 0.4985169768 0.7008590698
vn -0.2805410624 -0.8926842809 -0.3527200818
vn -0.0336830765 -0.5695153475 -0.8212902546
vn 0.1475278288 -0.6858255267 0.7126561999
vn 0.7459326982 -0.3631624579 0.5582987666
vn 0.5754064918 -0.02534505166 0.8174747229
vn -0.4928174019 0.01927531324 0.8699192405
vn 0.1170157716 0.06667478383 0.9908893704
vn 0.9644924998 0.001322776778 -0.2641068399
vn 0.3109978735 -0.02950979397 -0.949952364
vn 0.908926785 -0.07589115202 0.4099910557
vn 0.6850804687 -0.2826265395 -0.6714067459
vn -0.3754897118 0.1745665222 0.9102384448
vn 0.7445858717 -0.2116681933 0.6330785155
vn 0.6687246561 -0.277826488 0.6896519065
vn 0.8204514384 -0.5522763729 0.1478180587
vn 0.9134396315 -0.4031080008 -0.05596381426
vn 0.6232230663 -0.6843079329 0.3785705566
vn 0.9745486379 -0.2209658921 0.03780314699
vn 0.9042518139 0.1219907627 0.4092027545
vn 0.8754010201 -0.1777623445 0.4495260119
vn 0.9973372221 -0.01198606379 -0.07193624228
vn -0.04175629839 -0.6622404456 0.7481269836
vn -0.5735206604 0.5644020438 0.5937376022
vn -0.2943181694 -0.9017863274 0.3164778352
vn -0.3794640303 0.6212607026 -0.6855962276
vn -0.881734848 0.08948238939 0.4631808698
vn -0.3412647545 0.2023291439 0.917933166
vn -0.8971366882 0.153837204 -0.4141013324
vn -0.747929275 0.02955733426 -0.6631200314
vn -0.9664257765 0.1441481709 -0.2127029002
vn -0.9939142466 0.02833555825 0.106449686
vn -0.6988377571 0.1106097102 -0.7066761851
vn -0.8788832426 0.03802424297 -0.4755191207
vn -0.7780792713 0.220813781 -0.5880764723
vn 0.37815997 0.3708158433 -0.8482279181
vn -0.9039610624 0.3552724123 -0.2379830778
vn -0.9636613131 0.246460706 -0.1030241475
vn -0.95055902 0.1570732445 0.2678908706
vn -0.7947049141 0.009786645882 0.6069170833
f 1//1 2//2 3//3 
f 2//2 4//4 3//3 
f 4//4 5//5 3//3 
f 5//5 6//6 3//3 
f 7//7 3//3 6//6 
f 3//3 7//7 1//1 
f 8//8 7//7 6//6 
f 8//8 6//6 9//9 
f 6//6 10//10 9//9 
f 10//10 6//6 5//5 
f 10//10 11//11 9//9 
f 12//12 13//13 14//14 
f 15//15 12//12 14//14 
f 15//15 16//16 12//12 
f 15//15 17//17 16//16 
f 17//17 15//15 18//18 
f 17//17 18//18 19//19 
f 19//19 20//20 17//17 
f 16//16 17//17 20//20 
f 16//16 20//20 21//21 
f 21//21 20//20 22//22 
f 22//22 20//20 19//19 
f 23//23 22//22 19//19 
f 19//19 18//18 23//23 
f 23//23 18//18 24//24 
f 25//25 22//22 23//23 
f 24//24 25//25 23//23 
f 25//25 26//26 22//22 
f 26//26 21//21 22//22 
f 27//27 26//26 25//25 
f 24//24 27//27 25//25 
f 18//18 27//27 24//24 
f 18//18 15//15 27//27 
f 28//28 26//26 27//27 
f 28//28 29//29 26//26 
f 29//29 16//16 21//21 
f 26//26 29//29 21//21 
f 12//12 16//16 29//29 
f 30//30 29//29 28//28 
f 30//30 31//31 29//29 
f 31//31 12//12 29//29 
f 31//31 13//13 12//12 
f 32//32 31//31 30//30 
f 33//33 32//32 30//30 
f 34//34 32//32 33//33 
f 35//35 32//32 34//34 
f 36//36 31//31 32//32 
f 35//35 36//36 32//32 
f 13//13 31//31 36//36 
f 11//11 13//13 36//36 
f 37//37 36//36 35//35 
f 38//38 35//35 34//34 
f 38//38 37//37 35//35 
f 39//39 38//38 34//34 
f 40//40 39//39 41//41 
f 40//40 41//41 42//42 
f 42//42 41//41 43//43 
f 41//41 44//44 43//43 
f 41//41 39//39 44//44 
f 39//39 34//34 44//44 
f 44//44 34//34 33//33 
f 44//44 45//45 43//43 
f 44//44 46//46 45//45 
f 44//44 33//33 46//46 
f 46//46 47//47 45//45 
f 45//45 47//47 48//48 
f 49//49 50//50 51//51 
f 52//52 53//53 49//49 
f 53//53 50//50 49//49 
f 54//54 49//49 55//55 
f 56//56 49//49 54//54 
f 56//56 57//57 49//49 
f 58//58 52//52 57//57 
f 57//57 52//52 49//49 
f 56//56 59//59 57//57 
f 59//59 56//56 60//60 
f 7//7 8//8 61//61 
f 59//59 60//60 62//62 
f 63//63 59//59 62//62 
f 63//63 61//61 59//59 
f 63//63 7//7 61//61 
f 64//64 58//58 57//57 
f 57//57 59//59 64//64 
f 59//59 65//65 64//64 
f 64//64 66//66 58//58 
f 65//65 66//66 64//64 
f 65//65 67//67 66//66 
f 68//68 58//58 66//66 
f 69//69 58//58 68//68 
f 69//69 68//68 60//60 
f 68//68 62//62 60//60 
f 70//70 62//62 68//68 
f 68//68 66//66 71//71 
f 66//66 67//67 71//71 
f 71//71 72//72 68//68 
f 72//72 70//70 68//68 
f 72//72 71//71 73//73 
f 74//74 45//45 75//75 
f 70//70 74//74 75//75 
f 74//74 43//43 45//45 
f 72//72 74//74 70//70 
f 74//74 72//72 73//73 
f 74//74 73//73 76//76 
f 77//77 76//76 73//73 
f 77//77 73//73 78//78 
f 79//79 80//80 81//81 
f 82//82 80//80 79//79 
f 82//82 79//79 83//83 
f 83//83 79//79 84//84 
f 82//82 83//83 85//85 
f 85//85 80//80 82//82 
f 83//83 84//84 85//85 
f 84//84 86//86 85//85 
f 86//86 87//87 85//85 
f 80//80 85//85 87//87 
f 81//81 80//80 88//88 
f 80//80 87//87 88//88 
f 88//88 78//78 81//81 
f 77//77 78//78 88//88 
f 89//89 77//77 88//88 
f 90//90 86//86 84//84 
f 81//81 91//91 79//79 
f 90//90 87//87 86//86 
f 91//91 84//84 79//79 
f 78//78 91//91 81//81 
f 91//91 90//90 84//84 
f 90//90 91//91 92//92 
f 88//88 87//87 92//92 
f 92//92 87//87 90//90 
f 88//88 92//92 89//89 
f 78//78 93//93 91//91 
f 78//78 73//73 93//93 
f 71//71 93//93 73//73 
f 93//93 92//92 91//91 
f 94//94 43//43 74//74 
f 94//94 42//42 43//43 
f 76//76 94//94 74//74 
f 77//77 94//94 76//76 
f 93//93 95//95 92//92 
f 95//95 89//89 92//92 
f 89//89 95//95 77//77 
f 77//77 95//95 94//94 
f 94//94 96//96 42//42 
f 94//94 95//95 96//96 
f 95//95 97//97 96//96 
f 97//97 95//95 93//93 
f 71//71 97//97 93//93 
f 97//97 71//71 98//98 
f 67//67 98//98 71//71 
f 59//59 61//61 98//98 
f 59//59 98//98 65//65 
f 98//98 67//67 65//65 
f 8//8 98//98 61//61 
f 42//42 96//96 99//99 
f 97//97 99//99 96//96 
f 97//97 98//98 99//99 
f 100//100 99//99 98//98 
f 98//98 8//8 100//100 
f 38//38 101//101 37//37 
f 102//102 101//101 38//38 
f 102//102 38//38 39//39 
f 103//103 37//37 101//101 
f 8//8 103//103 100//100 
f 37//37 103//103 36//36 
f 9//9 103//103 8//8 
f 11//11 36//36 103//103 
f 11//11 103//103 9//9 
f 102//102 100//100 103//103 
f 100//100 102//102 99//99 
f 42//42 99//99 102//102 
f 42//42 102//102 40//40 
f 40//40 102//102 39//39 
f 102//102 103//103 101//101 
f 104//104 50//50 53//53 
f 50//50 104//104 51//51 
f 55//55 49//49 51//51 
f 105//105 55//55 51//51 
f 106//106 51//51 104//104 
f 105//105 51//51 107//107 
f 107//107 51//51 106//106 
f 108//108 54//54 55//55 
f 109//109 108//108 55//55 
f 105//105 109//109 55//55 
f 105//105 107//107 106//106 
f 106//106 104//104 105//105 
f 105//105 104//104 109//109 
f 109//109 104//104 53//53 
f 53//53 52//52 109//109 
f 109//109 52//52 108//108 
f 52//52 58//58 108//108 
f 108//108 58//58 69//69 
f 54//54 108//108 69//69 
f 69//69 56//56 54//54 
f 69//69 60//60 56//56 
f 63//63 62//62 70//70 
f 110//110 63//63 70//70 
f 110//110 2//2 63//63 
f 1//1 63//63 2//2 
f 1//1 7//7 63//63 
f 75//75 110//110 70//70 
f 110//110 75//75 111//111 
f 111//111 75//75 112//112 
f 75//75 113//113 112//112 
f 48//48 113//113 75//75 
f 48//48 75//75 45//45 
f 2//2 110//110 4//4 
f 114//114 4//4 110//110 
f 111//111 115//115 110//110 
f 115//115 114//114 110//110 
f 114//114 5//5 4//4 
f 116//116 117//117 114//114 
f 114//114 117//117 5//5 
f 116//116 114//114 115//115 
f 116//116 115//115 111//111 
f 112//112 116//116 111//111 
f 118//118 14//14 116//116 
f 118//118 116//116 112//112 
f 14//14 117//117 116//116 
f 117//117 11//11 10//10 
f 11//11 117//117 13//13 
f 117//117 10//10 5//5 
f 14//14 13//13 117//117 
f 119//119 118//118 112//112 
f 112//112 113//113 119//119 
f 14//14 118//118 15//15 
f 15//15 118//118 27//27 
f 119//119 28//28 118//118 
f 28//28 27//27 118//118 
f 120//120 28//28 119//119 
f 113//113 120//120 119//119 
f 48//48 120//120 113//113 
f 121//121 30//30 120//120 
f 48//48 121//121 120//120 
f 30//30 28//28 120//120 
f 47//47 121//121 48//48 
f 46//46 33//33 121//121 
f 121//121 33//33 30//30 
f 121//121 47//47 46//46 
