v 13.78943443 33.75 5.157693863
v 13.78943443 24.75 5.157693863
v 13.8102684 33.75 5.157693863
v 13.8102684 24.75 5.157693863
v 13.8102684 24.75 4.428526878
v 13.8102684 33.75 4.428526878
v 13.78943443 33.75 4.428526878
v 13.78943443 24.75 4.428526878
vn -0.9998952746 0.002314643003 0.014284648
vn -0.9983685613 -0.002311108867 0.05705134943
vn 0.9983685613 0.002311108867 0.05705134943
vn 0.9998952746 -0.002314643003 0.014284648
vn 0.9983685613 -0.002311108867 -0.05705134943
vn 0.9998952746 0.002314643003 -0.014284648
vn -0.9983685613 0.002311108867 -0.05705134943
vn -0.9998952746 -0.002314643003 -0.014284648
f 1//1 2//2 3//3 
f 3//3 2//2 4//4 
f 5//5 6//6 4//4 
f 4//4 6//6 3//3 
f 7//7 1//1 6//6 
f 6//6 1//1 3//3 
f 2//2 8//8 4//4 
f 4//4 8//8 5//5 
f 2//2 1//1 8//8 
f 8//8 1//1 7//7 
f 8//8 7//7 5//5 
f 5//5 7//7 6//6 
