v 13.78943443 33.75 -111.092308
v 13.78943443 24.75 -111.092308
v 13.8102684 33.75 -111.092308
v 13.8102684 24.75 -111.092308
v 13.8102684 24.75 -112.5714722
v 13.8102684 33.75 -112.5714722
v 13.78943443 33.75 -112.5714722
v 13.78943443 24.75 -112.5714722
vn -0.9999725223 0.002314821817 0.007042286918
vn -0.9996007681 -0.002313961275 0.02815867588
vn 0.9996007681 0.002313961275 0.02815867588
vn 0.9999725223 -0.002314821817 0.007042286918
vn 0.9996007681 -0.002313961275 -0.02815867588
vn 0.9999725223 0.002314821817 -0.007042286918
vn -0.9996007681 0.002313961275 -0.02815867588
vn -0.9999725223 -0.002314821817 -0.007042286918
f 1//1 2//2 3//3 
f 3//3 2//2 4//4 
f 5//5 6//6 4//4 
f 4//4 6//6 3//3 
f 7//7 1//1 6//6 
f 6//6 1//1 3//3 
f 2//2 8//8 4//4 
f 4//4 8//8 5//5 
f 2//2 1//1 8//8 
f 8//8 1//1 7//7 
f 8//8 7//7 5//5 
f 5//5 7//7 6//6 
