v 14.14360142 23.75 7.418110371
v 14.14360142 23.75 8.918110847
v 14.0602684 23.75 7.418110371
v 14.0602684 23.75 8.918110847
v 14.0602684 30.75 7.418110371
v 14.0602684 30.75 8.918110847
v 14.14360142 30.75 7.418110371
v 14.14360142 30.75 8.918110847
vn 0.99381423 -0.01183107682 -0.1104233488
vn 0.9995436668 -0.01189928409 0.0277649872
vn -0.9995436668 -0.01189928409 -0.0277649872
vn -0.99381423 -0.01183107682 0.1104233488
vn -0.99381423 0.01183107682 -0.1104233488
vn -0.9995436668 0.01189928409 0.0277649872
vn 0.9995436668 0.01189928409 -0.0277649872
vn 0.99381423 0.01183107682 0.1104233488
f 1//1 2//2 3//3 
f 3//3 2//2 4//4 
f 5//5 3//3 6//6 
f 6//6 3//3 4//4 
f 7//7 1//1 5//5 
f 5//5 1//1 3//3 
f 2//2 8//8 4//4 
f 4//4 8//8 6//6 
f 8//8 2//2 7//7 
f 7//7 2//2 1//1 
f 8//8 7//7 6//6 
f 6//6 7//7 5//5 
