v 13.78943443 25.73958397 71.90769196
v 13.78943443 24.75 71.90769196
v 13.8102684 25.73958397 71.90769196
v 13.8102684 24.75 71.90769196
v 13.8102684 24.75 70.42852783
v 13.8102684 25.73958397 70.42852783
v 13.78943443 25.73958397 70.42852783
v 13.78943443 24.75 70.42852783
vn -0.999753654 0.02104807459 0.007040745579
vn -0.9993821979 -0.02104025334 0.02815251797
vn 0.9993821979 0.02104025334 0.02815251797
vn 0.999753654 -0.02104807459 0.007040745579
vn 0.9993821979 -0.02104025334 -0.02815251797
vn 0.999753654 0.02104807459 -0.007040745579
vn -0.9993821979 0.02104025334 -0.02815251797
vn -0.999753654 -0.02104807459 -0.007040745579
f 1//1 2//2 3//3 
f 3//3 2//2 4//4 
f 5//5 6//6 4//4 
f 4//4 6//6 3//3 
f 7//7 1//1 6//6 
f 6//6 1//1 3//3 
f 2//2 8//8 4//4 
f 4//4 8//8 5//5 
f 2//2 1//1 8//8 
f 8//8 1//1 7//7 
f 8//8 7//7 5//5 
f 5//5 7//7 6//6 
