v 13.78943443 33.75 -73.59230804
v 13.78943443 30.76041603 -73.59230804
v 13.8102684 33.75 -73.59230804
v 13.8102684 30.76041603 -73.59230804
v 13.8102684 30.76041603 -75.07147217
v 13.8102684 33.75 -75.07147217
v 13.78943443 33.75 -75.07147217
v 13.78943443 30.76041603 -75.07147217
vn -0.9999509454 0.006968510337 0.007042135112
vn -0.9995791912 -0.006965919863 0.02815806866
vn 0.9995791912 0.006965919863 0.02815806866
vn 0.9999509454 -0.006968510337 0.007042135112
vn 0.9995791912 -0.006965919863 -0.02815806866
vn 0.9999509454 0.006968510337 -0.007042135112
vn -0.9995791912 0.006965919863 -0.02815806866
vn -0.9999509454 -0.006968510337 -0.007042135112
f 1//1 2//2 3//3 
f 3//3 2//2 4//4 
f 5//5 6//6 4//4 
f 4//4 6//6 3//3 
f 7//7 1//1 6//6 
f 6//6 1//1 3//3 
f 2//2 8//8 4//4 
f 4//4 8//8 5//5 
f 2//2 1//1 8//8 
f 8//8 1//1 7//7 
f 8//8 7//7 5//5 
f 5//5 7//7 6//6 
