v 13.7946434 31.75 -19.57147217
v 13.7946434 33.75 -19.57147217
v 13.7946434 31.75 -19.59230614
v 13.7946434 33.75 -19.59230614
v 13.79985142 33.75 -19.57147217
v 13.79985142 33.75 -19.59230614
vn 0.9701353312 -0.005052479915 0.2425116301
vn -0.9922759533 0.00258389418 0.1240231395
vn -0.9701446295 -0.002526264172 -0.2425139546
vn -0.9701446295 0.002526264172 -0.2425139546
vn 0.9701477289 1.794798652e-15 0.2425147295
vn 0.9922792912 9.190008899e-16 -0.1240235567
f 1//1 2//2 3//3 
f 3//3 2//2 4//4 
f 5//5 6//6 2//2 
f 2//2 6//6 4//4 
f 6//6 3//3 4//4 
f 2//2 1//1 5//5 
f 3//3 6//6 1//1 
f 1//1 6//6 5//5 
