v 13.7946434 31.75 1.428526998
v 13.7946434 33.75 1.428526998
v 13.7946434 31.75 1.407693744
v 13.7946434 33.75 1.407693744
v 13.79985142 33.75 1.428526998
v 13.79985142 33.75 1.407693744
vn 0.9701333642 -0.005052469671 0.2425194681
vn -0.9922754169 0.002583893016 0.1240273342
vn -0.9701426625 -0.00252625905 -0.2425217927
vn -0.9701426625 0.00252625905 -0.2425217927
vn 0.970145762 4.231544994e-16 0.2425225675
vn 0.9922787547 2.170496913e-16 -0.1240277439
f 1//1 2//2 3//3 
f 3//3 2//2 4//4 
f 5//5 6//6 2//2 
f 2//2 6//6 4//4 
f 6//6 3//3 4//4 
f 2//2 1//1 5//5 
f 3//3 6//6 1//1 
f 1//1 6//6 5//5 
