v 13.7946434 31.75 -3.821472883
v 13.7946434 33.75 -3.821472883
v 13.7946434 31.75 -3.842306376
v 13.7946434 33.75 -3.842306376
v 13.79985142 33.75 -3.821472883
v 13.79985142 33.75 -3.842306376
vn 0.9701340199 -0.00505247293 0.2425168604
vn -0.9922755957 0.002583893249 0.1240259334
vn -0.9701433182 -0.00252626068 -0.24251917
vn -0.9701433182 0.00252626068 -0.24251917
vn 0.9701464176 1.672404681e-17 0.2425199449
vn 0.9922789335 9.198284808e-18 -0.1240263507
f 1//1 2//2 3//3 
f 3//3 2//2 4//4 
f 5//5 6//6 2//2 
f 2//2 6//6 4//4 
f 6//6 3//3 4//4 
f 2//2 1//1 5//5 
f 3//3 6//6 1//1 
f 1//1 6//6 5//5 
