v -50.96961975 27.94831467 -141.2863922
v -51.28343582 27.92436409 -140.7561035
v -50.92307663 27.74000931 -141.2390747
v -51.29434586 27.82637405 -140.4632263
v -51.58550644 27.82486153 -140.5214844
v -51.37726212 27.65353966 -140.349884
v -51.38790131 27.8309021 -140.8565826
v -51.26726532 27.66282082 -140.9806366
v -51.41338348 27.66022682 -141.0481262
v -51.12367249 27.84688377 -141.5441589
v -50.6190567 28.24281502 -141.2276459
v -50.65923309 27.92787361 -141.5338593
v -50.64012527 28.18987465 -140.6862183
v -50.40174103 28.56896019 -141.2442474
v -50.62929153 27.99512482 -141.0783539
v -50.75582123 27.67225075 -141.2718201
v -50.92051697 27.64014053 -141.49263
v -50.47943878 27.87327385 -141.1162415
v -50.46448135 27.52347183 -141.037796
v -50.23573685 27.47051811 -141.0660248
v -50.2408905 26.50273895 -141.2583466
v -49.94727707 26.52064896 -141.061615
v -49.7028389 26.53503036 -140.872467
v -49.87351608 26.11921883 -140.8765411
v -49.82558823 24.13788414 -140.5996857
v -49.91012955 24.98415947 -140.7798615
v -49.98049545 25.5180378 -140.6390991
v -49.993927 24.17513466 -140.4509583
v -49.82365417 23.80261421 -140.5167847
v -49.97053909 23.78816986 -140.7657013
v -50.71067047 23.82277298 -140.7097321
v -50.66758347 23.77056122 -140.4977722
v -49.911026 24.21921539 -140.7197418
v -50.179245 24.01979637 -140.6762848
v -50.1852684 24.08941841 -140.5223541
v -50.1116333 24.61785698 -140.8357849
v -50.34342957 24.85791397 -140.6427917
v -50.42114258 25.7774086 -140.9198914
v -50.11602402 25.57659531 -140.9702148
v -50.41515732 25.63694954 -140.576355
v -50.14731598 25.26485825 -140.4893951
v -50.21588898 26.14290047 -140.4532928
v -50.54320145 26.09585381 -140.7119446
v -50.36593628 26.39030838 -141.0521545
v -50.57131577 26.34917068 -140.7880096
v -50.49216843 26.4696064 -140.5693359
v -50.28580475 25.84958076 -140.1304321
v -50.48809433 26.47702408 -140.2714386
v -50.5215683 26.41752052 -141.1216431
v -50.5914917 26.91460991 -140.5216217
v -50.58478928 27.31890106 -140.4671173
v -50.54663467 27.74477959 -140.4377899
v -50.66469193 27.80440331 -140.2550964
v -50.3375206 27.32666588 -140.1628571
v -50.45441818 28.01123047 -140.0165863
v -50.24630356 28.48469734 -139.8629913
v -50.50907898 28.25872421 -140.273056
v -50.31089783 28.65283394 -140.3434906
v -49.98030853 28.52969551 -139.9526367
v -50.12930298 27.56466484 -140.0131836
v -50.02534103 26.15479088 -140.4552002
v -49.81365585 25.4842186 -140.1411285
v -50.06929779 25.4876442 -140.1771851
v -49.55408478 25.01273346 -140.101532
v -49.15353012 24.44749069 -140.0137482
v -49.0913353 24.49679756 -139.8082123
v -49.37690735 24.42513847 -139.8830872
v -49.7012558 25.57059288 -139.9837494
v -49.02361679 24.67727661 -139.9633331
v -49.49048615 25.31653214 -139.8206329
v -48.68138504 24.49516487 -140.0216522
v -48.83134842 24.36545944 -140.1324921
v -49.26911545 23.79004288 -139.8379517
v -49.12577057 23.81260872 -139.703949
v -49.15320969 23.92553711 -140.012146
v -48.86874008 24.19245148 -139.848999
v -49.76955795 25.90544891 -140.2355194
v -49.63460541 26.55321503 -140.4247437
v -50.16453934 25.43476105 -139.8582916
v -49.77116013 24.95705795 -139.8540192
v -50.03322601 25.54000092 -139.7325897
v -50.23183823 26.36374283 -139.8820343
v -49.90740585 25.75806427 -139.7778473
v -49.87636566 26.50725365 -139.9434204
v -49.57857513 26.63393974 -140.3016968
v -49.83646774 27.20322227 -140.2399292
v -49.85234451 27.44602776 -140.7244873
v -49.92728043 27.24164963 -140.8560944
v -50.09992599 28.08231354 -141.2271271
v -49.76771164 28.17216873 -140.1909485
v -49.88080978 27.8948555 -140.0506897
v -49.8874588 28.18579483 -141.0614929
v -49.83989716 28.02976799 -139.8035278
v -49.980896 28.61268616 -140.4954376
v -50.16636276 28.47510147 -141.2629242
v -50.25347137 28.82541656 -140.6079559
v -50.23326874 28.58852577 -141.1319427
v -50.42046738 28.3900032 -140.5136719
v -50.53276062 28.64442825 -140.4292908
v -50.75567627 28.44468498 -140.6291504
v -50.75591278 28.65341949 -140.4443054
v -50.97943115 28.78995132 -140.6813049
v -50.96185684 29.08913422 -140.44487
v -51.06497192 29.12930107 -140.8569031
v -50.79439163 28.69802094 -140.8651428
v -50.43253708 28.62757874 -140.7868652
v -50.7282486 29.03059959 -141.0141449
v -50.80532074 29.37504578 -140.5245514
v -50.62514877 29.386446 -140.7907867
v -50.51107025 29.1733036 -140.4290771
v -50.40490723 29.17211342 -140.8150177
v -50.11876678 27.38887405 -140.0698242
v -50.13236618 27.99593163 -139.7051086
v -50.16345596 27.38257599 -139.6787567
v -50.06008911 27.25320816 -139.9090118
v -50.44659042 26.43802071 -139.6760864
v -50.13335419 26.61666679 -139.7447662
v -50.29293442 26.33326149 -139.6364746
v -50.01314163 27.34611893 -139.5593414
v -49.78446198 27.43128014 -139.7560425
v -50.03798294 26.63872147 -139.5391846
vn -0.3707658947 0.858525753 0.3542120755
vn 0.3040958047 0.9266470075 0.2210227102
vn 0.5707118511 -0.393162787 0.7209098339
vn 0.6822616458 -0.2005131692 0.7030743361
vn -0.7974375486 0.5706024766 0.1962300688
vn 0.007871816866 -0.9998794794 -0.0133821452
vn -0.8685051799 0.3821891248 -0.3156426251
vn 0.1069097444 -0.9494174719 0.2952570915
vn -0.7368043065 -0.564484477 -0.3721245527
vn -0.5772075057 0.507968545 -0.6393742561
vn -0.6673819423 0.6601472497 -0.3446839154
vn 0.1608110964 0.2052319497 -0.9654116631
vn -0.9184747338 0.3453027308 0.1927958429
vn -0.6385731101 0.7545178533 -0.1514173299
vn -0.9767999649 -0.1540762931 0.1487356275
vn 0.0610530749 -0.7787410021 0.6243676543
vn 0.2347824126 -0.890818119 -0.3889991343
vn 0.1355085224 -0.7431514263 -0.6552582383
vn -0.7904865742 -0.008091496304 -0.6124259233
vn 0.3599022329 0.04133403674 -0.9320739508
vn 0.04571831226 0.005799471866 -0.9989375472
vn 0.4654657245 -0.06245745346 -0.8828594089
vn 0.9030072093 -0.04337118566 -0.4274305999
vn 0.9516239166 -0.2478637248 -0.1815916896
vn 0.9941267371 0.09326651692 0.05489381403
vn 0.8133839369 0.0281964764 -0.5810434818
vn 0.9333557487 0.01757837646 0.3585220575
vn 0.2844183147 0.05081914738 0.9573523998
vn 0.3425748646 -0.5802669525 0.7388725877
vn 0.175296694 -0.6176418066 -0.7666743994
vn -0.3593480885 0.03619171306 -0.9325015545
vn -0.290102154 -0.518197298 0.8045572042
vn 0.3936550021 -0.2060728967 -0.8958625197
vn -0.3204715252 0.4073768258 -0.8551854491
vn -0.9078669548 0.09017954767 0.4094449878
vn -0.3455870748 -0.2013759166 -0.9165245891
vn -0.9797151685 -0.1917254031 0.05830597132
vn -0.7561427951 -0.187256828 -0.6270430088
vn 0.3322322369 -0.1418419331 -0.9324712157
vn -0.8032849431 -0.1073632464 0.5858382583
vn -0.09899301827 -0.03371079266 0.9945169687
vn -0.5696374774 -0.3122424781 0.7602748275
vn -0.8745667934 -0.1424663067 0.4635044038
vn -0.2266002893 -0.3245794773 -0.9183139205
vn -0.9683051109 -0.1647475064 -0.1877323091
vn -0.924472928 -0.3564601541 0.1352254748
vn -0.7597381473 -0.4659369588 -0.4535424113
vn -0.9356689453 -0.1239772737 0.3303834498
vn -0.9209308028 -0.005837064236 -0.3896824718
vn -0.9759852886 -0.02936088853 0.2158487886
vn -0.9928608537 -0.04492145032 0.1104960442
vn -0.9816672206 0.1881219745 0.03065292723
vn -0.9145579338 -0.01642191596 0.4041213691
vn -0.6214115024 -0.08794834465 0.778532505
vn -0.6258901954 -0.1908967197 0.756187737
vn -0.6513082385 0.4429976642 0.616076827
vn -0.9338672757 0.3551677763 0.04180581123
vn -0.5713592172 0.7001432776 0.4281915724
vn 0.5341320634 0.6846202016 0.4959819615
vn -0.4893421531 -0.6492956281 0.5822021961
vn 0.7827051282 -0.5642477274 -0.2626731098
vn 0.4382196963 -0.006477483548 -0.8988445401
vn -0.4663544595 -0.480019629 -0.7430307269
vn -0.3312056959 -0.3845774829 -0.8616280556
vn -0.3673153222 -0.1543201357 -0.9172048569
vn -0.05387531221 0.05337097868 0.9971203208
vn -0.6540259719 -0.7194678187 -0.233700946
vn 0.8587095737 0.5124431252 -0.004462259356
vn 0.6515886784 0.5154597163 -0.5565370321
vn 0.5279617906 0.4205046296 0.7378565073
vn 0.7925192118 0.3678739369 0.486397028
vn 0.2188180238 -0.1395441145 -0.9657360315
vn -0.9913451076 0.06709067523 0.1128436476
vn 0.3730170727 -0.347514838 0.8602858186
vn -0.2022735178 -0.510566771 -0.8357074857
vn 0.8396918774 -0.3576449454 0.4086656868
vn 0.9954919219 -0.07550989091 -0.05739419162
vn 0.8828510046 -0.4634130597 -0.07630480826
vn -0.9022575021 -0.3896161914 0.1847447008
vn -0.6728667021 -0.577444315 0.4623942971
vn -0.06011660025 0.009719058871 0.9981440306
vn -0.5624722838 0.09755525738 0.8210407495
vn 0.6220216751 0.1724374592 0.7637763619
vn 0.6498362422 0.1173605621 0.7509589195
vn 0.9756655693 0.2165552527 0.03435951471
vn 0.8780369163 0.1052474156 0.4668770432
vn 0.9897887707 0.0376284197 -0.1374855936
vn 0.8044768572 0.02556726895 -0.5934334993
vn 0.4760010242 -0.3524587452 -0.8057269454
vn 0.9937442541 0.1116752774 -0.0009748101584
vn 0.9473488927 -0.2696917057 0.1726163924
vn 0.9363214374 0.1384392977 -0.3227021694
vn 0.7573351264 0.2121482641 0.617605567
vn 0.8163588047 0.5628401041 -0.1294965297
vn 0.5175941586 0.5166875124 -0.682004571
vn 0.5993257165 0.7959237099 0.08552280813
vn -0.637866199 0.7606077194 -0.1208410561
vn -0.9748446345 0.2074858099 0.08140992373
vn 0.05167900026 -0.3293244541 0.9428015351
vn -0.2353988141 -0.9707603455 -0.04702978209
vn -0.3598215282 -0.244104445 0.9005228877
vn -0.9073159695 -0.4089665115 0.09759175032
vn -0.6188809872 0.07097783685 0.7822713256
vn -0.8285993338 0.3140744567 -0.4634440243
vn -0.3548841476 -0.5098637938 -0.7836428881
vn 0.09323026985 -0.4106553197 -0.9070117474
vn 0.1019558683 0.04558658972 -0.9937438369
vn -0.3612692654 0.8514481187 0.3801587522
vn 0.1424227655 0.8972913623 -0.4178324342
vn 0.4112282097 0.3531995118 0.8403222561
vn 0.7949231267 0.320325464 -0.5152560472
vn 0.124080047 0.1831410825 0.9752248526
vn -0.4409298599 0.1007851884 0.891865015
vn -0.9862197042 0.1283696443 0.1043642312
vn -0.2001051605 -0.1329974681 -0.9707057476
vn -0.9612653852 0.07501809299 0.2652189434
vn 0.5211457014 -0.3700740337 -0.7690594196
vn 0.4707764983 -0.8733952641 -0.1247002929
vn 0.02347568981 0.1251901388 0.9918549657
vn 0.9484630227 -0.2141548544 -0.233571291
vn 0.4847611785 -0.2186380625 0.8468789458
f 1//1 2//2 3//3 
f 3//3 2//2 4//4 
f 5//5 4//4 2//2 
f 5//5 6//6 4//4 
f 7//7 6//6 5//5 
f 2//2 1//1 7//7 
f 5//5 2//2 7//7 
f 7//7 4//4 6//6 
f 7//7 8//8 4//4 
f 3//3 4//4 8//8 
f 8//8 7//7 9//9 
f 7//7 10//10 9//9 
f 7//7 1//1 10//10 
f 11//11 12//12 10//10 
f 1//1 11//11 10//10 
f 11//11 13//13 14//14 
f 3//3 15//15 1//1 
f 15//15 11//11 1//1 
f 15//15 13//13 11//11 
f 3//3 16//16 15//15 
f 9//9 17//17 8//8 
f 10//10 17//17 9//9 
f 17//17 3//3 8//8 
f 12//12 17//17 10//10 
f 16//16 3//3 17//17 
f 17//17 18//18 16//16 
f 16//16 18//18 15//15 
f 18//18 19//19 15//15 
f 18//18 20//20 19//19 
f 20//20 21//21 19//19 
f 21//21 20//20 22//22 
f 23//23 22//22 20//20 
f 22//22 23//23 24//24 
f 25//25 26//26 27//27 
f 25//25 27//27 28//28 
f 28//28 29//29 25//25 
f 29//29 30//30 25//25 
f 31//31 30//30 32//32 
f 29//29 28//28 32//32 
f 32//32 30//30 29//29 
f 26//26 25//25 33//33 
f 32//32 34//34 31//31 
f 31//31 34//34 30//30 
f 34//34 25//25 30//30 
f 33//33 25//25 34//34 
f 32//32 35//35 34//34 
f 32//32 28//28 35//35 
f 34//34 35//35 36//36 
f 36//36 33//33 34//34 
f 26//26 33//33 36//36 
f 35//35 37//37 36//36 
f 36//36 37//37 38//38 
f 39//39 22//22 24//24 
f 36//36 39//39 26//26 
f 39//39 27//27 26//26 
f 38//38 39//39 36//36 
f 24//24 27//27 39//39 
f 37//37 40//40 38//38 
f 35//35 28//28 41//41 
f 35//35 41//41 37//37 
f 41//41 40//40 37//37 
f 28//28 27//27 41//41 
f 41//41 42//42 40//40 
f 40//40 43//43 38//38 
f 40//40 42//42 43//43 
f 21//21 22//22 44//44 
f 44//44 22//22 39//39 
f 44//44 39//39 38//38 
f 45//45 44//44 38//38 
f 43//43 45//45 38//38 
f 43//43 46//46 45//45 
f 43//43 42//42 46//46 
f 46//46 42//42 47//47 
f 48//48 46//46 47//47 
f 49//49 44//44 45//45 
f 21//21 44//44 49//49 
f 19//19 21//21 49//49 
f 46//46 48//48 50//50 
f 45//45 46//46 50//50 
f 50//50 49//49 45//45 
f 51//51 15//15 19//19 
f 51//51 13//13 15//15 
f 51//51 19//19 49//49 
f 50//50 51//51 49//49 
f 51//51 52//52 13//13 
f 53//53 52//52 51//51 
f 54//54 53//53 51//51 
f 54//54 55//55 53//53 
f 55//55 56//56 53//53 
f 53//53 56//56 57//57 
f 57//57 52//52 53//53 
f 56//56 58//58 57//57 
f 56//56 59//59 58//58 
f 54//54 60//60 55//55 
f 61//61 62//62 63//63 
f 63//63 62//62 64//64 
f 65//65 66//66 67//67 
f 67//67 64//64 65//65 
f 68//68 69//69 62//62 
f 70//70 66//66 69//69 
f 69//69 68//68 70//70 
f 64//64 69//69 65//65 
f 62//62 69//69 64//64 
f 66//66 71//71 69//69 
f 69//69 71//71 72//72 
f 65//65 69//69 72//72 
f 73//73 74//74 66//66 
f 75//75 74//74 73//73 
f 66//66 65//65 75//75 
f 65//65 72//72 75//75 
f 66//66 75//75 73//73 
f 75//75 72//72 76//76 
f 76//76 72//72 71//71 
f 74//74 76//76 66//66 
f 71//71 66//66 76//76 
f 75//75 76//76 74//74 
f 63//63 47//47 61//61 
f 62//62 77//77 68//68 
f 61//61 23//23 78//78 
f 61//61 77//77 62//62 
f 78//78 77//77 61//61 
f 24//24 23//23 61//61 
f 27//27 24//24 61//61 
f 41//41 27//27 61//61 
f 42//42 41//41 61//61 
f 61//61 47//47 42//42 
f 64//64 79//79 63//63 
f 63//63 79//79 47//47 
f 80//80 64//64 67//67 
f 64//64 80//80 79//79 
f 81//81 82//82 79//79 
f 80//80 81//81 79//79 
f 79//79 48//48 47//47 
f 82//82 48//48 79//79 
f 66//66 81//81 80//80 
f 67//67 66//66 80//80 
f 66//66 70//70 81//81 
f 81//81 70//70 68//68 
f 81//81 83//83 82//82 
f 68//68 83//83 81//81 
f 68//68 77//77 83//83 
f 84//84 83//83 77//77 
f 77//77 78//78 84//84 
f 85//85 78//78 23//23 
f 84//84 78//78 85//85 
f 86//86 84//84 85//85 
f 85//85 87//87 86//86 
f 88//88 87//87 85//85 
f 23//23 88//88 85//85 
f 23//23 20//20 88//88 
f 12//12 89//89 17//17 
f 89//89 18//18 17//17 
f 18//18 89//89 20//20 
f 20//20 89//89 88//88 
f 86//86 90//90 91//91 
f 86//86 87//87 90//90 
f 92//92 88//88 89//89 
f 92//92 87//87 88//88 
f 92//92 90//90 87//87 
f 90//90 59//59 93//93 
f 90//90 93//93 91//91 
f 90//90 92//92 94//94 
f 94//94 59//59 90//90 
f 89//89 95//95 92//92 
f 95//95 94//94 92//92 
f 12//12 95//95 89//89 
f 14//14 95//95 11//11 
f 11//11 95//95 12//12 
f 59//59 94//94 96//96 
f 58//58 59//59 96//96 
f 96//96 94//94 95//95 
f 96//96 95//95 97//97 
f 95//95 14//14 97//97 
f 97//97 14//14 13//13 
f 58//58 98//98 57//57 
f 52//52 57//57 98//98 
f 13//13 52//52 98//98 
f 13//13 98//98 97//97 
f 58//58 96//96 99//99 
f 98//98 58//58 99//99 
f 100//100 99//99 101//101 
f 101//101 102//102 100//100 
f 103//103 102//102 101//101 
f 103//103 104//104 102//102 
f 102//102 104//104 105//105 
f 102//102 105//105 100//100 
f 106//106 96//96 97//97 
f 99//99 106//106 98//98 
f 98//98 106//106 97//97 
f 105//105 106//106 100//100 
f 100//100 106//106 99//99 
f 104//104 107//107 105//105 
f 107//107 106//106 105//105 
f 103//103 108//108 104//104 
f 104//104 108//108 109//109 
f 109//109 107//107 104//104 
f 108//108 110//110 109//109 
f 103//103 110//110 108//108 
f 109//109 111//111 107//107 
f 101//101 110//110 103//103 
f 99//99 110//110 101//101 
f 111//111 106//106 107//107 
f 111//111 96//96 106//106 
f 99//99 96//96 110//110 
f 111//111 110//110 96//96 
f 110//110 111//111 109//109 
f 83//83 84//84 82//82 
f 84//84 112//112 82//82 
f 54//54 82//82 112//112 
f 51//51 82//82 54//54 
f 48//48 82//82 50//50 
f 82//82 51//51 50//50 
f 84//84 86//86 112//112 
f 112//112 86//86 60//60 
f 112//112 60//60 54//54 
f 60//60 86//86 91//91 
f 56//56 55//55 113//113 
f 113//113 59//59 56//56 
f 93//93 59//59 113//113 
f 113//113 55//55 60//60 
f 114//114 113//113 60//60 
f 115//115 114//114 60//60 
f 115//115 116//116 114//114 
f 117//117 118//118 116//116 
f 116//116 115//115 117//117 
f 113//113 119//119 93//93 
f 114//114 119//119 113//113 
f 116//116 119//119 114//114 
f 91//91 93//93 120//120 
f 119//119 120//120 93//93 
f 91//91 120//120 60//60 
f 120//120 115//115 60//60 
f 115//115 120//120 117//117 
f 116//116 121//121 119//119 
f 118//118 121//121 116//116 
f 117//117 121//121 118//118 
f 117//117 120//120 121//121 
f 121//121 120//120 119//119 
