v -51.42675781 0.5772145987 -112.5167313
v -51.19787216 0.1815419942 -112.6157227
v -51.35852051 0.1815419942 -112.7421494
v -51.60256958 0.1815419942 -112.7364655
v -51.61860657 0.6863615513 -112.708725
v -51.81177902 0.68438977 -112.4335938
v -51.89688873 0.5920177102 -112.6107712
v -51.59902573 0.1815419942 -112.4840088
v -51.53922272 0.5665616989 -112.4120483
v -51.97783661 5.275321484 -112.3679352
v -52.08863449 5.266483307 -112.6708298
v -51.84703445 5.243422031 -112.7744217
v -51.70893097 5.393956661 -112.4849243
v -51.80809021 5.148842335 -112.6778793
v -52.141819 5.492628098 -112.583046
v -52.02193451 5.466833591 -112.7773514
v -51.9283371 5.509996891 -112.3557281
v -51.73108673 5.653254509 -113.0243988
v -51.79375839 5.074599743 -112.9110947
v -51.74221802 4.726200581 -112.2282104
v -51.60482788 5.004511356 -112.5457153
v -52.11765289 4.600088596 -112.853714
v -52.03339386 4.94351387 -113.03759
v -51.46004105 5.185862541 -112.6573486
v -51.819561 4.825239182 -113.3430328
v -51.59850311 4.898805618 -112.8939972
v -52.15484619 4.541492939 -113.2551651
v -52.00210953 3.682661057 -113.0941315
v -51.72496033 4.196259975 -113.2377319
v -51.4666214 4.388385773 -113.2640152
v -51.22878265 4.425944805 -112.680481
v -51.3353157 5.078750134 -112.8980789
v -51.3987999 5.286210537 -113.0911255
v -51.62078094 5.848785877 -112.7302475
v -51.38963699 5.691016674 -112.9632721
v -51.85831451 5.621554852 -112.5795593
v -51.54942322 5.55107975 -112.499382
v -51.27806473 5.612513065 -112.7674561
v -51.36566925 4.721617699 -112.2115173
v -51.33040619 4.162293434 -112.5762405
v -51.40309525 4.128461361 -113.0972595
v -51.85531235 2.760026217 -112.9009552
v -51.7532692 2.995944977 -113.2785873
v -51.64762497 2.131771564 -113.0488205
v -51.29167557 1.578041315 -113.3910294
v -51.22010422 3.870630026 -112.8865509
v -51.47003174 3.295062304 -113.344368
v -51.40209961 2.586368084 -113.3610153
v -51.21240997 2.813241482 -113.2464676
v -51.30967331 3.163290739 -112.8358154
v -51.27431488 3.766735554 -112.553154
v -51.1536026 3.236978292 -112.5097351
v -51.33003235 2.672270298 -112.7777176
v -51.42887878 2.496161461 -112.8748169
v -51.10390472 2.160600424 -112.9544601
v -50.95215607 2.258090496 -113.164299
v -50.74391174 0.7292650938 -113.2530365
v -51.02328491 0.6874672174 -112.890625
v -51.44581223 1.479717851 -113.0971985
v -51.33557892 0.9920209646 -113.1144409
v -51.50640106 0.5678936839 -113.2310486
v -51.42985153 0.6461613774 -113.349823
v -51.13864136 0.691437006 -113.3376541
v -51.06723785 0.1815419942 -113.3665848
v -51.15239716 0.6663255095 -113.1648254
v -50.9644165 0.1815419942 -113.1633606
v -51.64566422 2.891174555 -112.7659149
v -51.23556519 0.7041896582 -112.3241653
v -51.59382629 2.669465303 -112.8330002
v -51.66676712 2.775209904 -112.334877
v -51.84938431 3.07784462 -112.4329071
v -52.01591492 3.181450129 -112.7926331
v -51.95921326 3.110183716 -112.3646698
v -51.47822571 4.005403519 -112.3681946
v -51.80899429 3.816623926 -112.1706238
v -51.40647125 3.163992882 -112.2006912
v -52.01451111 2.938412189 -112.4635315
v -52.09970093 3.252509832 -112.3799438
v -51.91530991 3.964094639 -112.3082962
v -51.77275467 3.640685797 -112.3734207
v -52.05828094 3.18440938 -112.5813904
v -51.95319748 3.762267113 -112.8336029
v -52.20152664 3.984481812 -113.0286713
v -52.25068283 3.805455923 -113.1561508
v -52.12717819 2.85903883 -112.6559906
v -52.2393837 2.713435173 -112.5655594
v -52.25791931 2.930866003 -112.6555405
v -52.00947189 4.173556328 -113.0011215
v -51.76215744 3.982713223 -112.4314804
v -51.7526741 4.41321516 -112.3333817
vn 0.9862300158 0.1160558835 0.1178194359
vn 0.7077381611 -0.2536030412 0.6593877077
vn 0.4990566671 -0.08662558347 -0.8622287512
vn -0.6944255829 -0.3149349988 -0.6469846368
vn 0.2015361041 -0.07195853442 -0.9768342376
vn -0.389847964 -0.0619617179 0.9187923074
vn -0.9489763379 -0.001545370556 -0.3153434992
vn -0.4040857852 -0.7067309618 0.5807288885
vn 0.1018356457 -0.3550280035 0.9292925596
vn -0.3087710738 -0.7119601965 0.6306926012
vn -0.7116610408 -0.6626486182 -0.2333138734
vn -0.6873669624 -0.4999497831 -0.5268556476
vn 0.3550105095 -0.261623621 0.8975080252
vn -0.7105435133 0.2927967608 0.6398421526
vn -0.8862477541 0.4179183841 0.1997727603
vn -0.7344610095 0.4121052623 -0.5391997099
vn -0.06807135791 0.5373093486 0.8406336904
vn -0.4333847165 0.1674259305 -0.885520339
vn -0.2756557167 0.5610444546 -0.7805402279
vn -0.5895363092 0.3055048585 0.7477390766
vn 0.6871667504 0.6773485541 0.2626800239
vn -0.9237214327 0.01811623946 0.3826363385
vn -0.7744843364 0.6048347354 -0.1853345782
vn 0.5885848403 -0.3364489079 0.73509866
vn 0.08843518049 0.2433515042 -0.9658981562
vn 0.7422477603 0.2614322305 -0.6170262694
vn -0.7668033242 0.05243958533 -0.639736414
vn -0.4439754784 -0.2004236132 -0.8733361959
vn -0.1117412299 -0.01290562656 -0.9936535358
vn 0.7369124889 0.2507751286 -0.62775141
vn 0.9417456388 0.2904122472 -0.1696345955
vn 0.9096124172 -0.4141764045 0.03260647878
vn 0.3303552568 -0.09518794715 -0.9390445352
vn -0.1251236051 0.9812657833 0.1464977264
vn 0.4343698621 0.6014866233 -0.6704749465
vn -0.2697233856 0.8357448578 0.4783093333
vn 0.3963852525 0.2621947229 0.879848063
vn 0.9379506707 0.1917984039 0.2888976634
vn 0.6650174856 0.1386269331 0.733848989
vn 0.9686944485 -0.03009469621 0.2464252114
vn 0.7990548611 0.06994249672 -0.5971761346
vn -0.9446538091 -0.3273569942 -0.02160054632
vn -0.6402086616 -0.1029523835 -0.7612710595
vn -0.888761878 -0.3743334115 0.2645314038
vn -0.1379166991 -0.005934072658 -0.9904260635
vn 0.9611362815 0.06273376942 -0.2688522041
vn 0.5443331003 0.1118628606 -0.8313772678
vn -0.2289049029 0.002676546574 -0.9734451175
vn 0.7103286386 0.2398342043 -0.6617498398
vn 0.9971078038 0.07599952072 -0.0003284945851
vn 0.8448028564 0.1988592446 0.4967526495
vn 0.9945678711 0.00215209974 0.1040676981
vn 0.672720015 -0.1079901233 -0.7319740057
vn 0.07714985311 -0.2824788094 0.9561660886
vn 0.05657349154 -0.05772072822 0.9967285395
vn 0.9769133329 0.1760834754 -0.1209748238
vn 0.8472055197 -0.04224639758 -0.5295829177
vn 0.3447645307 -0.1458976418 0.9272816777
vn -0.7358094454 -0.2379556298 0.6340043545
vn -0.6952525377 0.003951552324 0.7187547088
vn -0.811447084 -0.2555133998 0.5256106257
vn -0.2597239316 -0.05861373246 -0.9639024138
vn 0.3475911021 -0.1739568114 -0.9213682413
vn -0.1024931893 -0.4572142065 -0.8834309578
vn 0.3774564266 -0.4050083756 0.8327633739
vn 0.3581294715 -0.3044328392 0.8826459646
vn -0.7986143231 -0.1196085587 -0.5898380876
vn 0.9040342569 -0.1375236958 0.404733628
vn -0.2558462322 -0.3430110514 0.9038175344
vn -0.9157267213 -0.01001917664 0.4016767144
vn -0.5095357895 -0.8413815498 -0.1801398546
vn -0.7085226178 -0.6563646793 -0.259193182
vn -0.09461033344 -0.1165765896 0.9886651635
vn 0.4746443927 -0.05211903527 0.8786332011
vn 0.06219584495 -0.1240487695 0.9903249741
vn 0.1168096438 0.01995815523 0.9929537773
vn 0.3898184896 -0.8741281033 0.2897267044
vn -0.910918951 0.2053645551 0.3578436375
vn -0.9254931808 0.2163547575 -0.3108905852
vn -0.9202244282 0.3257642686 -0.2169439793
vn -0.9340043664 0.2795768976 0.2224243432
vn -0.7663428187 0.2589585483 0.5879278779
vn -0.6897852421 0.2740169764 0.6701574326
vn -0.7965347171 -0.3005554378 -0.5245939493
vn 0.6033754945 -0.2573853433 -0.7547786236
vn -0.5421356559 -0.4568993151 0.7052176595
vn -0.8703121543 0.3221371472 -0.3725377321
vn -0.8835343122 -0.07456123084 0.4623935223
vn -0.9143528342 -0.101491265 0.3919929564
vn -0.9799060225 -0.0643947199 0.1887788773
f 1//1 2//2 3//3 
f 4//4 5//5 3//3 
f 5//5 1//1 3//3 
f 6//6 7//7 8//8 
f 8//8 5//5 4//4 
f 8//8 7//7 5//5 
f 8//8 4//4 3//3 
f 9//9 8//8 1//1 
f 10//10 11//11 12//12 
f 13//13 10//10 14//14 
f 15//15 16//16 11//11 
f 10//10 15//15 11//11 
f 11//11 16//16 12//12 
f 15//15 10//10 17//17 
f 10//10 12//12 14//14 
f 13//13 17//17 10//10 
f 16//16 18//18 12//12 
f 14//14 12//12 19//19 
f 12//12 18//18 19//19 
f 20//20 21//21 14//14 
f 22//22 20//20 14//14 
f 23//23 22//22 14//14 
f 23//23 14//14 19//19 
f 13//13 14//14 24//24 
f 14//14 21//21 24//24 
f 23//23 19//19 25//25 
f 18//18 26//26 19//19 
f 25//25 19//19 26//26 
f 22//22 23//23 27//27 
f 25//25 27//27 23//23 
f 28//28 25//25 29//29 
f 27//27 25//25 28//28 
f 25//25 26//26 30//30 
f 29//29 25//25 30//30 
f 26//26 31//31 30//30 
f 21//21 31//31 26//26 
f 32//32 26//26 33//33 
f 24//24 26//26 32//32 
f 26//26 18//18 33//33 
f 24//24 21//21 26//26 
f 18//18 16//16 34//34 
f 18//18 35//35 33//33 
f 18//18 34//34 35//35 
f 16//16 15//15 36//36 
f 16//16 36//36 34//34 
f 15//15 17//17 36//36 
f 36//36 17//17 13//13 
f 36//36 13//13 37//37 
f 36//36 37//37 34//34 
f 34//34 37//37 38//38 
f 34//34 38//38 35//35 
f 35//35 38//38 33//33 
f 38//38 32//32 33//33 
f 38//38 24//24 32//32 
f 37//37 24//24 38//38 
f 13//13 24//24 37//37 
f 39//39 31//31 21//21 
f 20//20 39//39 21//21 
f 40//40 41//41 31//31 
f 39//39 40//40 31//31 
f 30//30 31//31 41//41 
f 41//41 29//29 30//30 
f 42//42 43//43 44//44 
f 44//44 43//43 45//45 
f 43//43 28//28 29//29 
f 42//42 28//28 43//43 
f 46//46 47//47 41//41 
f 29//29 41//41 47//47 
f 45//45 43//43 48//48 
f 48//48 47//47 45//45 
f 47//47 49//49 45//45 
f 43//43 29//29 47//47 
f 47//47 50//50 49//49 
f 46//46 50//50 47//47 
f 47//47 48//48 43//43 
f 41//41 40//40 46//46 
f 51//51 52//52 46//46 
f 46//46 52//52 50//50 
f 51//51 46//46 40//40 
f 50//50 52//52 53//53 
f 53//53 54//54 50//50 
f 54//54 55//55 50//50 
f 56//56 50//50 55//55 
f 50//50 56//56 49//49 
f 45//45 49//49 56//56 
f 56//56 57//57 45//45 
f 58//58 57//57 56//56 
f 58//58 56//56 55//55 
f 59//59 44//44 45//45 
f 59//59 45//45 60//60 
f 45//45 61//61 60//60 
f 61//61 45//45 62//62 
f 62//62 45//45 63//63 
f 63//63 45//45 57//57 
f 58//58 63//63 57//57 
f 61//61 62//62 64//64 
f 64//64 62//62 63//63 
f 58//58 65//65 63//63 
f 63//63 65//65 66//66 
f 63//63 66//66 64//64 
f 61//61 64//64 66//66 
f 61//61 66//66 65//65 
f 61//61 65//65 58//58 
f 61//61 58//58 60//60 
f 55//55 60//60 58//58 
f 59//59 60//60 55//55 
f 44//44 59//59 55//55 
f 54//54 44//44 55//55 
f 67//67 53//53 5//5 
f 53//53 52//52 68//68 
f 69//69 54//54 53//53 
f 53//53 67//67 69//69 
f 69//69 44//44 54//54 
f 5//5 53//53 68//68 
f 42//42 44//44 69//69 
f 67//67 42//42 69//69 
f 70//70 67//67 7//7 
f 71//71 72//72 67//67 
f 70//70 71//71 67//67 
f 70//70 73//73 71//71 
f 73//73 74//74 75//75 
f 76//76 74//74 73//73 
f 73//73 70//70 76//76 
f 77//77 72//72 71//71 
f 73//73 77//77 71//71 
f 78//78 77//77 73//73 
f 73//73 75//75 78//78 
f 79//79 78//78 75//75 
f 78//78 79//79 80//80 
f 81//81 78//78 80//80 
f 72//72 77//77 81//81 
f 81//81 80//80 82//82 
f 81//81 82//82 83//83 
f 83//83 84//84 81//81 
f 84//84 72//72 81//81 
f 77//77 85//85 81//81 
f 77//77 86//86 85//85 
f 78//78 86//86 77//77 
f 81//81 85//85 87//87 
f 87//87 78//78 81//81 
f 78//78 87//87 86//86 
f 86//86 87//87 85//85 
f 72//72 42//42 67//67 
f 7//7 67//67 5//5 
f 72//72 28//28 42//42 
f 72//72 84//84 28//28 
f 84//84 27//27 28//28 
f 83//83 27//27 84//84 
f 22//22 27//27 88//88 
f 83//83 88//88 27//27 
f 83//83 82//82 88//88 
f 89//89 88//88 82//82 
f 22//22 88//88 89//89 
f 89//89 82//82 80//80 
f 80//80 90//90 89//89 
f 79//79 90//90 80//80 
f 22//22 89//89 90//90 
f 90//90 20//20 22//22 
f 79//79 20//20 90//90 
f 20//20 79//79 75//75 
f 20//20 75//75 39//39 
f 75//75 74//74 39//39 
f 39//39 74//74 40//40 
f 74//74 51//51 40//40 
f 74//74 76//76 51//51 
f 52//52 51//51 76//76 
f 76//76 68//68 52//52 
f 5//5 68//68 1//1 
f 6//6 9//9 68//68 
f 76//76 6//6 68//68 
f 9//9 1//1 68//68 
f 76//76 70//70 6//6 
f 6//6 70//70 7//7 
f 8//8 3//3 2//2 
f 8//8 2//2 1//1 
f 6//6 8//8 9//9 
