v -68.06621552 24.75 -110.177887
v -68.06621552 23.75 -110.177887
v -67.91954803 24.75 -110.0987244
v -67.91954803 23.75 -110.0987244
v -55.96549225 23.75 -132.2483368
v -55.96549225 24.75 -132.2483368
v -56.11215973 24.75 -132.3274841
v -56.11215973 23.75 -132.3274841
vn -0.8785395622 0.08304544538 -0.470395267
vn -0.8741731644 -0.1643857211 -0.4569448233
vn 0.8288264275 0.3161981702 0.4615901411
vn 0.8664883375 -0.1643954366 0.4713513553
vn 0.8741740584 -0.1643789411 0.4569455981
vn 0.8785398602 0.08304188401 0.470395267
vn -0.8288266063 0.3161980212 -0.4615899026
vn -0.8664882779 -0.1643954813 -0.4713514745
f 1//1 2//2 3//3 
f 3//3 2//2 4//4 
f 5//5 6//6 4//4 
f 4//4 6//6 3//3 
f 1//1 3//3 7//7 
f 7//7 3//3 6//6 
f 2//2 8//8 4//4 
f 4//4 8//8 5//5 
f 2//2 1//1 8//8 
f 8//8 1//1 7//7 
f 8//8 7//7 5//5 
f 5//5 7//7 6//6 
