v -27.88322258 26.44270134 -55.41850662
v -27.6014328 26.42551422 -55.87871933
v -27.80296516 27.0510273 -55.73661804
v -27.78722572 25.58130074 -55.70043564
v -27.70425415 25.53084564 -56.04063416
v -27.77478409 25.65468407 -56.27508545
v -28.18220711 27.50395775 -56.13973999
v -27.92625809 26.55545235 -56.37091064
v -28.23026657 26.557024 -56.06210327
v -28.41023636 26.6402092 -55.5782814
v -28.34315681 27.32831955 -55.53785324
v -28.22248077 26.6885891 -55.35792542
v -28.37719345 26.08117867 -55.4365654
v -28.26818657 26.03991127 -55.40554047
v -28.39160728 26.18580627 -55.27038956
v -28.32518005 26.36648178 -55.3850708
v -28.06733513 23.8213501 -55.65338135
v -28.07533836 23.80638313 -55.91772079
v -27.76032829 23.93326187 -55.67056656
v -27.92133904 24.03923035 -55.77092743
v -27.88816643 24.0903244 -55.65563965
v -27.72496223 24.10487366 -55.62107468
v -27.80154228 24.22037125 -55.65673447
v -28.02866936 24.48834991 -55.70376587
v -27.80154228 24.28865433 -55.65673447
v -28.01812744 24.49840164 -55.72060394
v -28.15195465 25.64346886 -55.82449341
v -27.85280228 25.04655838 -55.55263138
v -28.00800705 25.57789993 -55.46962738
v -28.05671501 24.9298439 -55.48746109
v -28.17793655 25.18708611 -55.67524719
v -28.38072205 25.60892105 -55.69552231
v -27.93700409 25.59890747 -55.86857224
v -28.00757599 25.29107094 -56.17155075
v -27.73415947 25.0965538 -55.91091537
v -27.34137535 24.51083374 -55.85783768
v -27.47197723 25.10223007 -55.87312317
v -26.9795742 24.39673996 -55.63961792
v -27.15286255 24.5245533 -55.75011444
v -27.11833572 23.95188904 -55.64265442
v -28.07743835 25.61431122 -56.26340103
v -27.85624123 26.4071064 -56.35630035
v -26.95103455 24.01307487 -55.80070496
v -27.51805687 25.12647438 -56.12893677
v -28.28153992 26.26784325 -55.24161911
v -28.21066666 27.50742722 -55.13897705
v -28.11610603 27.45555687 -55.34535599
v -28.09143829 27.02169991 -55.18111038
v -28.00963402 27.91550636 -55.17838287
v -28.18918037 28.10743904 -55.25763702
v -28.26380157 27.6748867 -55.38801193
v -28.40803146 27.57192039 -55.71430588
v -28.22412872 28.05787849 -55.37594223
v -27.89899063 27.99905014 -56.18011475
v -28.05921364 28.13104057 -55.787117
v -27.79289436 28.18681717 -56.14517212
v -27.72848129 27.99422836 -56.27923584
v -27.5499897 27.9752655 -56.08763123
v -27.71541023 26.60156631 -56.2693634
v -27.56487846 27.23275948 -56.16613388
v -27.86475754 26.5655365 -56.35047531
v -27.75382423 26.54514503 -56.24464417
v -27.39499474 27.31667519 -56.17882538
v -27.71268463 27.52298355 -56.13332367
v -27.5059185 27.18037605 -56.37599945
v -27.78575325 27.15013313 -56.16630173
v -27.61545372 27.50285339 -55.95824051
v -27.71670532 27.07676888 -55.99533081
v -27.65922356 27.48435593 -55.70756912
v -27.63633156 27.77524948 -55.57268524
v -27.75263023 27.2990551 -55.72451782
v -27.83467293 27.48156738 -55.47455215
v -28.01582909 27.14809799 -55.49303055
v -27.74081993 28.2521286 -55.63035583
v -27.74406624 28.47014809 -55.79496765
v -27.66995811 28.48641777 -55.59890366
v -27.71931458 28.75904083 -55.73573303
v -27.53391075 28.46203232 -55.60415649
v -27.58892632 28.66450691 -55.84193039
v -27.49668121 28.32310295 -55.69538116
v -27.58484268 28.25595856 -55.89412689
v -27.59794807 28.14900589 -55.77799988
v -27.81810379 28.37802887 -55.76416016
v -28.10762596 28.29468536 -55.7413826
v -28.0050354 28.60057449 -55.97449875
v -28.33812904 28.35961533 -55.69953537
v -28.37606239 28.53791809 -55.75070953
v -28.20544624 28.73993492 -55.9813118
v -27.84255981 28.75994682 -55.94836044
v -27.93686295 28.99011421 -55.9107933
v -28.31382179 28.95648766 -55.83032608
v -28.33703041 28.71065331 -55.67612076
v -28.07600594 28.61359787 -55.5144577
v -27.92103004 28.35322762 -55.51718903
v -27.72220421 28.75904083 -55.73739624
v -27.93044662 28.98734856 -55.62742233
v -28.07655716 28.7816391 -55.53062439
vn 0.6240392327 0.008930007927 0.78134197
vn 0.9883136749 0.002713356633 0.1524098068
vn 0.8531829119 0.1266126186 0.5060120225
vn 0.8341225982 -0.2497448176 0.4917998016
vn 0.9988157153 -0.01451833639 0.04643734917
vn 0.7502743602 -0.1500702053 -0.6438689828
vn -0.6591616273 0.08087653667 -0.7476395965
vn -0.3852288127 0.09438614547 -0.9179815054
vn -0.8540335298 -0.01331805065 -0.5200474858
vn -0.9766155481 -0.003039535368 -0.2149715871
vn -0.6320213675 0.003541376442 0.7749428749
vn -0.1939112395 0.1315146387 0.9721637368
vn -0.8407773972 -0.2213364393 0.494068414
vn 0.2864679694 -0.3186122477 0.9035609365
vn -0.9962264895 0.08368662745 -0.0230071377
vn 0.2288075238 -0.07444574684 0.9706209302
vn -0.3795936704 -0.388748914 0.8395135403
vn 0.00912041124 -0.1020399034 -0.9947385192
vn 0.6362522244 -0.7710952759 0.02439620718
vn 0.09876673669 0.1966976672 -0.975476861
vn -0.7344633341 0.2767498195 0.6196556687
vn 0.9888776541 0.1437755227 -0.03807320073
vn 0.805747211 0.4352077842 -0.4017033875
vn -0.9204663038 -0.2695268691 0.2830142379
vn 0.9885162711 -0.1200164035 -0.09182427078
vn 0.2169176787 -0.003946991637 -0.9761819243
vn 0.1362302899 -0.1079247668 -0.9847809672
vn 0.928367734 0.03617620096 -0.3698981106
vn 0.1943776459 -0.1486708224 0.9695948958
vn -0.4807439744 -0.1862681061 0.8568485379
vn -0.8984155655 -0.2797673345 -0.3384962678
vn -0.9633579254 -0.2669991255 0.02555388398
vn -0.05535655841 -0.9011096358 0.4300431609
vn -0.8483515978 -0.5294317007 0.001265859464
vn -0.3893141448 -0.1525044292 0.908392489
vn -0.7286071181 -0.3639709651 0.5802212954
vn 0.3598279953 0.3691722453 0.8568755388
vn 0.6403215528 0.1787820309 0.7470108867
vn 0.6746311784 0.5868102312 0.4478018582
vn -0.5601338148 -0.2974987924 0.7731394172
vn -0.5898244381 -0.1866581291 -0.7856626511
vn 0.1838904172 -0.07335272431 -0.9802059531
vn 0.205630213 -0.2908632457 -0.9344061017
vn 0.6772766113 0.2287227511 -0.6992726922
vn 0.4536832869 -0.1829487681 0.8721818924
vn -0.7045808434 0.03345177695 0.7088348269
vn -0.443174094 -0.8948569894 0.05317602307
vn 0.9644864798 -0.1753745824 0.1975085884
vn 0.6306620836 0.08098964393 0.7718199492
vn -0.5876825452 0.4117392898 0.6964911819
vn -0.9282880425 -0.04132441431 0.3695586026
vn -0.9349085093 0.2536175847 -0.2482421249
vn -0.8883650899 0.4335886836 -0.1510243118
vn -0.7373125553 0.2686280608 -0.6198461056
vn -0.7844384313 0.3392833471 -0.5191755295
vn -0.130659923 0.8086478114 -0.5735997558
vn 0.2636132538 0.2864261568 -0.9211232662
vn 0.9437950253 0.2987757623 -0.1413647234
vn 0.870172739 0.05796284229 -0.4893258214
vn -0.5444418192 0.03453019261 0.8380875587
vn -0.9019581079 0.2848957777 -0.324508816
vn 0.7560073137 -0.5528798103 0.3503952622
vn 0.9375382662 -0.1671248525 0.3051086068
vn -0.08527180552 -0.3087330163 -0.9473186731
vn 0.1382402182 -0.03286905587 -0.9898531437
vn 0.5625875592 0.1181543469 -0.8182510138
vn 0.9844188094 -0.1754522771 -0.01166625787
vn 0.9961176515 0.08627261221 -0.01751098596
vn 0.9271897078 -0.2963256836 0.2291512936
vn 0.861355722 -0.007314756047 0.5079495907
vn 0.7807459831 -0.3362716138 0.5266470909
vn 0.6156451106 -0.3327383399 0.7143292427
vn 0.4255094826 -0.008929447271 0.9049099088
vn 0.6387771368 0.3165929317 0.701236546
vn -0.8886908889 0.2225886881 -0.400852561
vn -0.331602484 -0.1068502441 0.9373488426
vn -0.3852905035 0.800878942 0.4584148228
vn 0.7228462696 0.4199521244 0.5487563014
vn 0.6451327205 0.4040732384 -0.6484817266
vn 0.9758862257 -0.1820538044 0.1204264686
vn 0.1965938807 -0.131459564 -0.9716322422
vn 0.971021235 -0.01887295954 0.2382467687
vn 0.5688330531 0.3223990798 -0.7566292286
vn -0.8699496984 -0.4179005027 -0.2618142366
vn -0.08360627294 -0.4616714716 -0.8831021786
vn -0.7203217745 -0.6720198989 0.1718305796
vn -0.6917347908 -0.2583115101 -0.674372375
vn -0.4368447065 0.07896398753 -0.8960644007
vn 0.541210115 -0.003043174278 -0.8408818841
vn 0.2638788223 0.763517797 -0.5894137025
vn -0.6072713137 0.7917494178 0.06598846614
vn -0.8596617579 0.1523577124 0.4876154661
vn -0.413179338 -0.2610796094 0.8724220395
vn 0.2653092742 0.4511852562 0.8520814776
vn 0.9005085826 0.1741687804 0.3984338939
vn 0.1939182431 0.8283855319 0.5255217552
vn 0.04622760043 0.3437617719 0.937918365
f 1//1 2//2 3//3 
f 2//2 1//1 4//4 
f 2//2 4//4 5//5 
f 5//5 6//6 2//2 
f 7//7 8//8 9//9 
f 10//10 7//7 9//9 
f 11//11 10//10 12//12 
f 13//13 14//14 15//15 
f 16//16 10//10 13//13 
f 13//13 15//15 16//16 
f 12//12 10//10 16//16 
f 12//12 16//16 1//1 
f 17//17 18//18 19//19 
f 20//20 18//18 21//21 
f 20//20 22//22 18//18 
f 17//17 22//22 21//21 
f 21//21 18//18 17//17 
f 19//19 18//18 22//22 
f 22//22 17//17 19//19 
f 23//23 22//22 20//20 
f 21//21 22//22 23//23 
f 21//21 24//24 20//20 
f 21//21 23//23 24//24 
f 24//24 23//23 25//25 
f 20//20 26//26 23//23 
f 23//23 26//26 25//25 
f 20//20 24//24 26//26 
f 27//27 25//25 26//26 
f 26//26 24//24 27//27 
f 28//28 29//29 25//25 
f 24//24 25//25 30//30 
f 28//28 25//25 27//27 
f 29//29 30//30 25//25 
f 24//24 30//30 31//31 
f 27//27 24//24 31//31 
f 27//27 31//31 32//32 
f 28//28 27//27 33//33 
f 27//27 32//32 33//33 
f 30//30 32//32 31//31 
f 30//30 29//29 32//32 
f 13//13 10//10 32//32 
f 33//33 34//34 35//35 
f 33//33 35//35 5//5 
f 36//36 35//35 34//34 
f 37//37 35//35 36//36 
f 37//37 5//5 35//35 
f 38//38 39//39 40//40 
f 36//36 40//40 39//39 
f 37//37 36//36 39//39 
f 33//33 41//41 34//34 
f 6//6 5//5 41//41 
f 41//41 42//42 6//6 
f 8//8 42//42 41//41 
f 9//9 8//8 41//41 
f 32//32 41//41 33//33 
f 10//10 41//41 32//32 
f 41//41 10//10 9//9 
f 38//38 40//40 43//43 
f 38//38 43//43 39//39 
f 36//36 43//43 40//40 
f 34//34 41//41 43//43 
f 34//34 43//43 36//36 
f 39//39 43//43 44//44 
f 39//39 44//44 37//37 
f 44//44 5//5 37//37 
f 41//41 5//5 44//44 
f 44//44 43//43 41//41 
f 29//29 13//13 32//32 
f 33//33 5//5 4//4 
f 33//33 4//4 29//29 
f 28//28 33//33 29//29 
f 16//16 29//29 1//1 
f 1//1 29//29 4//4 
f 14//14 13//13 29//29 
f 16//16 14//14 29//29 
f 15//15 14//14 45//45 
f 16//16 45//45 14//14 
f 46//46 15//15 45//45 
f 47//47 15//15 46//46 
f 47//47 16//16 15//15 
f 46//46 45//45 48//48 
f 48//48 16//16 47//47 
f 48//48 45//45 16//16 
f 46//46 48//48 49//49 
f 48//48 47//47 49//49 
f 49//49 50//50 46//46 
f 51//51 11//11 47//47 
f 46//46 51//51 47//47 
f 50//50 51//51 46//46 
f 7//7 10//10 52//52 
f 10//10 11//11 52//52 
f 52//52 11//11 51//51 
f 50//50 53//53 51//51 
f 53//53 52//52 51//51 
f 53//53 54//54 52//52 
f 54//54 7//7 52//52 
f 53//53 55//55 54//54 
f 55//55 56//56 54//54 
f 57//57 54//54 56//56 
f 58//58 57//57 56//56 
f 8//8 59//59 42//42 
f 42//42 59//59 6//6 
f 59//59 2//2 6//6 
f 60//60 61//61 62//62 
f 63//63 60//60 62//62 
f 60//60 64//64 65//65 
f 61//61 60//60 65//65 
f 65//65 62//62 61//61 
f 58//58 60//60 63//63 
f 60//60 58//58 64//64 
f 63//63 62//62 65//65 
f 63//63 65//65 58//58 
f 65//65 64//64 54//54 
f 57//57 58//58 65//65 
f 57//57 65//65 54//54 
f 7//7 64//64 66//66 
f 54//54 64//64 7//7 
f 58//58 67//67 64//64 
f 66//66 64//64 67//67 
f 66//66 8//8 7//7 
f 8//8 66//66 59//59 
f 2//2 68//68 3//3 
f 2//2 59//59 68//68 
f 59//59 66//66 68//68 
f 69//69 68//68 66//66 
f 69//69 66//66 67//67 
f 70//70 69//69 67//67 
f 71//71 72//72 73//73 
f 49//49 72//72 70//70 
f 70//70 72//72 69//69 
f 69//69 72//72 71//71 
f 71//71 73//73 3//3 
f 3//3 68//68 71//71 
f 69//69 71//71 68//68 
f 72//72 47//47 73//73 
f 72//72 49//49 47//47 
f 47//47 11//11 73//73 
f 73//73 12//12 1//1 
f 73//73 11//11 12//12 
f 3//3 73//73 1//1 
f 70//70 74//74 49//49 
f 75//75 76//76 77//77 
f 74//74 76//76 75//75 
f 76//76 78//78 77//77 
f 77//77 79//79 75//75 
f 79//79 77//77 78//78 
f 79//79 78//78 80//80 
f 78//78 76//76 80//80 
f 75//75 79//79 81//81 
f 80//80 81//81 79//79 
f 80//80 76//76 82//82 
f 82//82 81//81 80//80 
f 76//76 74//74 82//82 
f 70//70 82//82 74//74 
f 58//58 82//82 67//67 
f 67//67 82//82 70//70 
f 82//82 83//83 81//81 
f 75//75 81//81 83//83 
f 55//55 83//83 56//56 
f 56//56 83//83 58//58 
f 58//58 83//83 82//82 
f 83//83 74//74 75//75 
f 55//55 53//53 84//84 
f 83//83 55//55 84//84 
f 84//84 85//85 83//83 
f 84//84 86//86 85//85 
f 85//85 86//86 87//87 
f 88//88 85//85 87//87 
f 85//85 88//88 89//89 
f 85//85 89//89 83//83 
f 89//89 88//88 90//90 
f 91//91 90//90 88//88 
f 92//92 87//87 86//86 
f 88//88 87//87 92//92 
f 88//88 92//92 91//91 
f 86//86 84//84 93//93 
f 93//93 92//92 86//86 
f 53//53 94//94 84//84 
f 94//94 93//93 84//84 
f 83//83 94//94 74//74 
f 94//94 53//53 50//50 
f 94//94 50//50 49//49 
f 49//49 74//74 94//94 
f 89//89 90//90 95//95 
f 89//89 95//95 83//83 
f 94//94 83//83 95//95 
f 96//96 90//90 91//91 
f 91//91 97//97 96//96 
f 92//92 97//97 91//91 
f 96//96 95//95 90//90 
f 92//92 93//93 97//97 
f 94//94 97//97 93//93 
f 95//95 97//97 94//94 
f 96//96 97//97 95//95 
