v -67.91954803 24.75 -110.0987244
v -67.91954803 23.75 -110.0987244
v -68.06621552 24.75 -110.177887
v -68.06621552 23.75 -110.177887
v -71.7217865 23.75 -109.085022
v -71.44789886 23.75 -108.9564896
v -71.80094147 23.75 -108.9383545
v -71.52998352 23.75 -108.8099518
v -71.16134644 23.75 -108.8594208
v -71.2470932 23.75 -108.7105789
v -70.86572266 23.75 -108.7950516
v -70.95536041 23.75 -108.6413116
v -70.5647583 23.75 -108.764183
v -70.65798187 23.75 -108.6029282
v -70.35822296 23.75 -108.5958328
v -70.26222992 23.75 -108.7672119
v -70.05937195 23.75 -108.6201096
v -69.96193695 23.75 -108.8040924
v -69.76468658 23.75 -108.675499
v -69.66766357 23.75 -108.8743591
v -69.47740936 23.75 -108.7613831
v -69.20068359 23.75 -108.8768234
v -69.38311005 23.75 -108.9771347
v -68.93753815 23.75 -109.0205612
v -69.11184692 23.75 -109.1111298
v -68.69085693 23.75 -109.1910172
v -68.8572998 23.75 -109.2746429
v -68.46334839 23.75 -109.386322
v -68.62265778 23.75 -109.4656372
v -68.25749969 23.75 -109.6043396
v -68.41087341 23.75 -109.681694
v -68.07556915 23.75 -109.8426743
v -68.22460938 23.75 -109.9201126
v -71.7217865 24.75 -109.085022
v -71.44789886 24.75 -108.9564896
v -71.16134644 24.75 -108.8594208
v -70.86572266 24.75 -108.7950516
v -70.5647583 24.75 -108.764183
v -70.26222992 24.75 -108.7672119
v -69.96193695 24.75 -108.8040924
v -69.66766357 24.75 -108.8743591
v -69.38311005 24.75 -108.9771347
v -69.11184692 24.75 -109.1111298
v -68.8572998 24.75 -109.2746429
v -68.62265778 24.75 -109.4656372
v -68.41087341 24.75 -109.681694
v -68.22460938 24.75 -109.9201126
v -68.07556915 24.75 -109.8426743
v -68.25749969 24.75 -109.6043396
v -68.46334839 24.75 -109.386322
v -68.69085693 24.75 -109.1910172
v -68.93753815 24.75 -109.0205612
v -69.20068359 24.75 -108.8768234
v -69.47740936 24.75 -108.7613831
v -69.76468658 24.75 -108.675499
v -70.05937195 24.75 -108.6201096
v -70.35822296 24.75 -108.5958328
v -70.65798187 24.75 -108.6029282
v -70.95536041 24.75 -108.6413116
v -71.2470932 24.75 -108.7105789
v -71.52998352 24.75 -108.8099518
v -71.80094147 24.75 -108.9383545
vn 0.9503685832 0.1616833508 0.2658157647
vn 0.9249995351 -0.2245440036 -0.3065222204
vn -0.2137412876 0.1082062051 -0.9708790183
vn -0.6833914518 -0.07884305716 -0.7257822752
vn -0.3541977704 -0.1082014218 -0.9288898706
vn 0.3854340613 -0.1638548523 -0.9080705643
vn -0.6485257745 -0.1616840065 0.7438229322
vn -0.3591120541 -0.1655676514 0.9184910655
vn 0.2813770175 -0.1633860469 -0.9455855489
vn -0.2611316144 -0.1659680754 0.9509284496
vn 0.1737423688 -0.1628685743 -0.9712298512
vn -0.1602758616 -0.1664164066 0.9729425907
vn 0.0632353723 -0.2166339159 -0.9742027521
vn -0.05815449357 -0.1112016067 0.9920948744
vn 0.0455202572 -0.1640842706 0.9853954911
vn -0.04672071338 -0.1654965132 -0.9851030707
vn 0.1482885629 -0.1639966965 0.9752515554
vn -0.1567116231 -0.165578872 -0.9736658335
vn 0.2494168878 -0.1639488935 0.9544171095
vn -0.2620758414 -0.2165210694 -0.9404439926
vn 0.3503270149 -0.1128311753 0.9298064709
vn 0.4420904815 -0.1680265218 0.8810920119
vn -0.3697345853 -0.160979107 -0.9150858521
vn 0.5318199396 -0.1674479395 0.8301377892
vn -0.469812125 -0.1616623104 -0.8678374887
vn 0.6157360673 -0.1669080555 0.7700719833
vn -0.5639622211 -0.1622936428 -0.8096958399
vn 0.6929163933 -0.1664185971 0.7015494704
vn -0.651012361 -0.1628680229 -0.7413884997
vn 0.7625075579 -0.1659684181 0.6253292561
vn -0.7298571467 -0.1633857191 -0.663787365
vn 0.8237534165 -0.1655653566 0.5422345996
vn -0.7995320559 -0.1638522148 -0.5778416395
vn 0.1728838235 0.07884003222 -0.9817817807
vn 0.3511897326 0.1638549566 -0.9218553901
vn 0.2457835227 0.163385421 -0.9554557204
vn 0.1372758299 0.1628698409 -0.9770510793
vn 0.02672402374 0.2166338414 -0.9758870602
vn -0.0835538581 0.1654955 -0.9826647639
vn -0.1930386573 0.1655793935 -0.9671192169
vn -0.2970925272 0.2165213376 -0.9299755692
vn -0.4037262499 0.1609777361 -0.9006060362
vn -0.5019575953 0.1616644859 -0.8496488333
vn -0.5938753486 0.1622922271 -0.7880185843
vn -0.6782976389 0.1628687531 -0.7165096402
vn -0.7541912794 0.1633843929 -0.6360039711
vn -0.8206005096 0.163852632 -0.5475099087
vn 0.8043102622 0.1655659825 0.5706776381
vn 0.7402026653 0.1659674495 0.6515786648
vn 0.6679899096 0.1664189547 0.7253234982
vn 0.5884629488 0.166907236 0.7911089063
vn 0.5025020838 0.167448163 0.848205626
vn 0.4110435843 0.1680272669 0.8959966302
vn 0.3176387846 0.1128310412 0.9414747953
vn 0.2159327716 0.1639479548 0.9625456333
vn 0.114128679 0.1639985293 0.9798362851
vn 0.01107421704 0.1640829444 0.9863843918
vn -0.09276337177 0.1112012938 0.9894590378
vn -0.19417198 0.1664167941 0.9667485356
vn -0.2941782475 0.1659692973 0.941229701
vn -0.3909757137 0.1655665785 0.905387044
vn -0.9414571524 0.2245496362 0.2514674067
f 1//1 2//2 3//3 
f 3//3 2//2 4//4 
f 5//5 6//6 7//7 
f 7//7 6//6 8//8 
f 8//8 6//6 9//9 
f 8//8 9//9 10//10 
f 10//10 9//9 11//11 
f 10//10 11//11 12//12 
f 12//12 11//11 13//13 
f 12//12 13//13 14//14 
f 14//14 13//13 15//15 
f 15//15 13//13 16//16 
f 15//15 16//16 17//17 
f 17//17 16//16 18//18 
f 17//17 18//18 19//19 
f 19//19 18//18 20//20 
f 19//19 20//20 21//21 
f 21//21 20//20 22//22 
f 22//22 20//20 23//23 
f 22//22 23//23 24//24 
f 24//24 23//23 25//25 
f 24//24 25//25 26//26 
f 26//26 25//25 27//27 
f 26//26 27//27 28//28 
f 28//28 27//27 29//29 
f 28//28 29//29 30//30 
f 30//30 29//29 31//31 
f 30//30 31//31 32//32 
f 32//32 31//31 33//33 
f 32//32 33//33 2//2 
f 2//2 33//33 4//4 
f 5//5 34//34 6//6 
f 6//6 34//34 35//35 
f 6//6 35//35 9//9 
f 9//9 35//35 36//36 
f 9//9 36//36 11//11 
f 11//11 36//36 37//37 
f 11//11 37//37 13//13 
f 13//13 37//37 38//38 
f 13//13 38//38 16//16 
f 16//16 38//38 39//39 
f 16//16 39//39 18//18 
f 18//18 39//39 40//40 
f 18//18 40//40 20//20 
f 20//20 40//40 41//41 
f 20//20 41//41 23//23 
f 23//23 41//41 42//42 
f 23//23 42//42 25//25 
f 25//25 42//42 43//43 
f 25//25 43//43 27//27 
f 27//27 43//43 44//44 
f 27//27 44//44 29//29 
f 29//29 44//44 45//45 
f 29//29 45//45 31//31 
f 31//31 45//45 46//46 
f 31//31 46//46 33//33 
f 33//33 46//46 47//47 
f 33//33 47//47 4//4 
f 4//4 47//47 3//3 
f 2//2 1//1 32//32 
f 32//32 1//1 48//48 
f 32//32 48//48 30//30 
f 30//30 48//48 49//49 
f 30//30 49//49 28//28 
f 28//28 49//49 50//50 
f 28//28 50//50 26//26 
f 26//26 50//50 51//51 
f 26//26 51//51 24//24 
f 24//24 51//51 52//52 
f 24//24 52//52 22//22 
f 22//22 52//52 53//53 
f 22//22 53//53 21//21 
f 21//21 53//53 54//54 
f 21//21 54//54 19//19 
f 19//19 54//54 55//55 
f 19//19 55//55 17//17 
f 17//17 55//55 56//56 
f 17//17 56//56 15//15 
f 15//15 56//56 57//57 
f 15//15 57//57 14//14 
f 14//14 57//57 58//58 
f 14//14 58//58 12//12 
f 12//12 58//58 59//59 
f 12//12 59//59 10//10 
f 10//10 59//59 60//60 
f 10//10 60//60 8//8 
f 8//8 60//60 61//61 
f 8//8 61//61 7//7 
f 7//7 61//61 62//62 
f 34//34 62//62 35//35 
f 35//35 62//62 61//61 
f 35//35 61//61 36//36 
f 36//36 61//61 60//60 
f 36//36 60//60 37//37 
f 37//37 60//60 59//59 
f 37//37 59//59 38//38 
f 38//38 59//59 58//58 
f 38//38 58//58 57//57 
f 38//38 57//57 39//39 
f 39//39 57//57 56//56 
f 39//39 56//56 40//40 
f 40//40 56//56 55//55 
f 40//40 55//55 41//41 
f 41//41 55//55 54//54 
f 41//41 54//54 53//53 
f 41//41 53//53 42//42 
f 42//42 53//53 52//52 
f 42//42 52//52 43//43 
f 43//43 52//52 51//51 
f 43//43 51//51 44//44 
f 44//44 51//51 50//50 
f 44//44 50//50 45//45 
f 45//45 50//50 49//49 
f 45//45 49//49 46//46 
f 46//46 49//49 48//48 
f 46//46 48//48 47//47 
f 47//47 48//48 1//1 
f 47//47 1//1 3//3 
f 34//34 5//5 62//62 
f 62//62 5//5 7//7 
