v 13.76860142 28.188797 -21.41619873
v 13.76860142 28.188797 -21.2657814
v 13.78943443 28.188797 -21.41619873
v 13.78943443 28.188797 -21.2657814
v 13.76860142 28.2828083 -21.41619873
v 13.78943443 28.2828083 -21.41619873
v 13.76860142 28.2828083 -21.29711914
v 13.78943443 28.2828083 -21.29711914
v 13.76860142 28.33294678 -21.29711914
v 13.78943443 28.33294678 -21.29711914
v 13.76860142 28.33294678 -21.41619873
v 13.78943443 28.33294678 -21.41619873
v 13.76860142 28.42068863 -21.41619873
v 13.78943443 28.42068863 -21.41619873
v 13.76860142 28.42068863 -21.2657814
v 13.78943443 28.42068863 -21.2657814
v 13.76860142 28.47082901 -21.2657814
v 13.78943443 28.47082901 -21.2657814
v 13.76860142 28.47082901 -21.47260475
v 13.78943443 28.47082901 -21.47260475
v 13.78943443 28.13865852 -21.2657814
v 13.78943443 28.13865852 -21.47260475
v 13.76860142 28.13865852 -21.47260475
v 13.76860142 28.13865852 -21.2657814
v 13.76860142 28.42068863 -21.51020813
v 13.76860142 28.42068863 -21.60421944
v 13.78943443 28.42068863 -21.51020813
v 13.78943443 28.42068863 -21.60421944
v 13.76860142 28.47082901 -21.51020813
v 13.78943443 28.47082901 -21.51020813
v 13.76860142 28.47082901 -21.74836731
v 13.78943443 28.47082901 -21.74836731
v 13.76860142 28.42068863 -21.74836731
v 13.78943443 28.42068863 -21.74836731
v 13.76860142 28.42068863 -21.66062546
v 13.78943443 28.42068863 -21.66062546
v 13.78943443 28.13865852 -21.66062546
v 13.78943443 28.13865852 -21.60421944
v 13.76860142 28.13865852 -21.60421944
v 13.76860142 28.13865852 -21.66062546
v 13.76860142 28.47082901 -21.84237671
v 13.76860142 28.47082901 -21.78597069
v 13.78943443 28.47082901 -21.84237671
v 13.78943443 28.47082901 -21.78597069
v 13.78943443 28.13865852 -21.84237671
v 13.78943443 28.13865852 -21.78597069
v 13.76860142 28.13865852 -21.84237671
v 13.76860142 28.13865852 -21.78597069
v 13.76860142 28.25470352 -21.9614563
v 13.76860142 28.47082901 -21.9614563
v 13.78943443 28.25470352 -21.9614563
v 13.78943443 28.47082901 -21.9614563
v 13.76860142 28.21917915 -21.96574211
v 13.78943443 28.21917915 -21.96574211
v 13.76860142 28.19741631 -21.97859383
v 13.78943443 28.19741631 -21.97859383
v 13.76860142 28.18253136 -22.0244236
v 13.78943443 28.18253136 -22.0244236
v 13.76860142 28.19643593 -22.06805038
v 13.78943443 28.19643593 -22.06805038
v 13.76860142 28.21795654 -22.08211517
v 13.78943443 28.21795654 -22.08211517
v 13.76860142 28.25470352 -22.08680344
v 13.78943443 28.25470352 -22.08680344
v 13.76860142 28.47082901 -22.08680344
v 13.78943443 28.47082901 -22.08680344
v 13.76860142 28.47082901 -22.14320946
v 13.78943443 28.47082901 -22.14320946
v 13.76860142 28.25225449 -22.14320946
v 13.78943443 28.25225449 -22.14320946
v 13.76860142 28.18718147 -22.13175201
v 13.78943443 28.18718147 -22.13175201
v 13.76860142 28.14703178 -22.09405136
v 13.78943443 28.14703178 -22.09405136
v 13.76860142 28.13239098 -22.02706909
v 13.78943443 28.13239098 -22.02706909
v 13.76860142 28.14938164 -21.95876312
v 13.78943443 28.14938164 -21.95876312
v 13.76860142 28.18977737 -21.92106247
v 13.78943443 28.18977737 -21.92106247
v 13.78943443 28.47082901 -21.91131783
v 13.78943443 28.25666046 -21.91131783
v 13.76860142 28.47082901 -21.91131783
v 13.76860142 28.25666046 -21.91131783
v 13.76860142 28.15369034 -22.40702629
v 13.76860142 28.18095207 -22.43806839
v 13.78943443 28.15369034 -22.40702629
v 13.78943443 28.18095207 -22.43806839
v 13.76860142 28.13771629 -22.36665535
v 13.78943443 28.13771629 -22.36665535
v 13.76860142 28.13239098 -22.32016373
v 13.78943443 28.13239098 -22.32016373
v 13.76860142 28.13946724 -22.26668358
v 13.78943443 28.13946724 -22.26668358
v 13.76860142 28.16069221 -22.22414589
v 13.78943443 28.16069221 -22.22414589
v 13.76860142 28.19420815 -22.19634819
v 13.78943443 28.19420815 -22.19634819
v 13.76860142 28.23815346 -22.18708038
v 13.78943443 28.23815346 -22.18708038
v 13.76860142 28.29411888 -22.20509911
v 13.78943443 28.29411888 -22.20509911
v 13.76860142 28.31636047 -22.23178482
v 13.78943443 28.31636047 -22.23178482
v 13.76860142 28.33245659 -22.27580261
v 13.78943443 28.33245659 -22.27580261
v 13.76860142 28.34636307 -22.33387375
v 13.78943443 28.34636307 -22.33387375
v 13.76860142 28.36193275 -22.36949539
v 13.78943443 28.36193275 -22.36949539
v 13.76860142 28.38592529 -22.38136864
v 13.78943443 28.38592529 -22.38136864
v 13.76860142 28.41535187 -22.36584663
v 13.78943443 28.41535187 -22.36584663
v 13.76860142 28.42695618 -22.32075119
v 13.78943443 28.42695618 -22.32075119
v 13.76860142 28.41755486 -22.27915764
v 13.78943443 28.41755486 -22.27915764
v 13.76860142 28.3893528 -22.2560215
v 13.78943443 28.3893528 -22.2560215
v 13.76860142 28.40188789 -22.19961548
v 13.78943443 28.40188789 -22.19961548
v 13.76860142 28.43375015 -22.21505165
v 13.78943443 28.43375015 -22.21505165
v 13.76860142 28.4574604 -22.24275208
v 13.78943443 28.4574604 -22.24275208
v 13.76860142 28.47218704 -22.27887535
v 13.78943443 28.47218704 -22.27887535
v 13.76860142 28.47709465 -22.31957626
v 13.78943443 28.47709465 -22.31957626
v 13.76860142 28.47048569 -22.36672783
v 13.78943443 28.47048569 -22.36672783
v 13.76860142 28.45065498 -22.40457726
v 13.78943443 28.45065498 -22.40457726
v 13.76860142 28.41988182 -22.42947578
v 13.78943443 28.41988182 -22.42947578
v 13.76860142 28.38044167 -22.43777466
v 13.78943443 28.38044167 -22.43777466
v 13.76860142 28.33901787 -22.42803192
v 13.78943443 28.33901787 -22.42803192
v 13.76860142 28.30900383 -22.40213013
v 13.78943443 28.30900383 -22.40213013
v 13.76860142 28.28995705 -22.35208893
v 13.78943443 28.28995705 -22.35208893
v 13.76860142 28.27605057 -22.28618431
v 13.78943443 28.27605057 -22.28618431
v 13.76860142 28.25661278 -22.25156593
v 13.78943443 28.25661278 -22.25156593
v 13.76860142 28.22963333 -22.2434864
v 13.78943443 28.22963333 -22.2434864
v 13.76860142 28.19609261 -22.26184845
v 13.78943443 28.19609261 -22.26184845
v 13.76860142 28.18253136 -22.31428909
v 13.78943443 28.18253136 -22.31428909
v 13.76860142 28.19506454 -22.37311935
v 13.78943443 28.19506454 -22.37311935
v 13.78943443 28.22013474 -22.4565773
v 13.78943443 28.23266983 -22.40017128
v 13.76860142 28.23266983 -22.40017128
v 13.76860142 28.22013474 -22.4565773
vn -0.9774403572 0.131942451 0.1649289131
vn -0.7647693157 0.6355379224 0.1059216484
vn 0.962248385 0.2597834468 0.08118274063
vn 0.8946495056 0.3717354238 0.2478204817
vn -0.9906857014 -0.1266575456 0.04999699071
vn 0.9901784062 -0.07480470091 0.1181140691
vn -0.8787228465 -0.3651177585 0.3074657321
vn 0.9204576015 -0.3824589252 0.08051718771
vn -0.9204576015 0.3824589252 0.08051718771
vn 0.8787228465 0.3651177585 0.3074657321
vn -0.9520451427 0.1717969328 0.2531715333
vn 0.965875566 0.2430373281 0.08953904361
vn -0.9615616202 -0.2636059523 0.07688367367
vn 0.9785311222 -0.1341290027 0.1564810127
vn -0.8946542144 -0.3717232645 0.2478217781
vn 0.7647810578 -0.6355235577 0.1059232727
vn -0.8998951316 0.4329373538 0.05247870833
vn 0.9660744667 0.2323880494 0.1126761064
vn -0.9307058454 0.1087244749 -0.3492358327
vn 0.9579194784 0.2238071263 -0.1797237098
vn 0.8998886943 -0.4329507351 0.05247833207
vn 0.9215644002 -0.1153997853 -0.3706777096
vn -0.9520924091 -0.2384451032 -0.1914784461
vn -0.9660724998 -0.2323964089 0.1126758754
vn -0.8546498418 -0.3551016748 0.3787828088
vn -0.9906584024 -0.07564335316 0.1134634987
vn 0.7581748962 -0.6300338507 0.1680124402
vn 0.9477474093 -0.05244752765 0.3146809042
vn -0.8578362465 0.5110991597 0.05380163714
vn 0.9515274763 0.2834602296 0.1193554997
vn -0.9627531767 0.249192223 -0.1049263999
vn 0.8870257139 0.4591829181 -0.04833659157
vn -0.7565959692 -0.6287217736 -0.1796426028
vn 0.8457170725 -0.351390183 -0.4016062319
vn -0.8893820643 -0.07026875764 -0.4517320991
vn 0.9846540689 -0.0921972692 -0.1481756121
vn 0.8029330373 -0.05931110308 -0.5931110382
vn 0.9807884097 -0.07244893163 0.1811223328
vn -0.8029330373 -0.05931110308 0.5931110382
vn -0.9807884097 -0.07244893163 -0.1811223328
vn -0.8033275008 0.05038296804 -0.5934024453
vn -0.9815075994 0.061558038 0.1812551469
vn 0.9815075994 0.061558038 -0.1812551469
vn 0.8033275008 0.05038296804 0.5934024453
vn 0.8033275008 -0.05038296804 -0.5934024453
vn 0.9815075994 -0.061558038 0.1812551469
vn -0.9815075994 -0.061558038 -0.1812551469
vn -0.8033275008 -0.05038296804 0.5934024453
vn -0.9033852816 0.01279408671 -0.4286389053
vn -0.9219169617 0.04463531822 -0.3848074675
vn 0.791215241 0.005602745805 -0.6115121245
vn 0.9745404124 0.09436624497 -0.2033862323
vn -0.9814215899 0.06805464625 -0.1793884635
vn 0.9765937328 0.04837686941 -0.2095814198
vn -0.8251212835 0.506705761 -0.2498480976
vn 0.8789301515 0.3694341183 -0.3016625047
vn -0.945653379 0.323653847 0.03143116832
vn 0.9437688589 0.3283557892 -0.03850700706
vn -0.9663410783 0.2015172541 0.1599239558
vn 0.9503349662 0.2798248231 0.1362407655
vn -0.9801307917 0.04751145467 0.1925779581
vn 0.9844556451 0.06680953503 0.162430346
vn -0.9386896491 0.003446198767 0.3447460532
vn 0.9752084017 0.007160538808 0.2211726755
vn -0.9230896235 0.1779590249 0.3409341872
vn 0.8019422293 0.0773017332 0.5923791528
vn -0.9364829659 0.04488098249 -0.3478295207
vn 0.9788524508 0.09382308275 -0.1817832142
vn -0.9270083308 -0.02459138259 -0.3742336035
vn 0.8644474149 -0.01146589313 -0.5025924444
vn -0.8858478069 -0.2379785478 -0.3982962072
vn 0.8728490472 -0.1636395305 -0.4597354233
vn -0.9027816057 -0.3987213671 -0.1612659097
vn 0.9152168036 -0.3352651596 -0.2235520333
vn -0.9090353251 -0.4148514867 0.03940898553
vn 0.9104733467 -0.4128062725 -0.02508414723
vn -0.9384554029 -0.2855641842 0.1943052411
vn 0.9280626774 -0.3425448537 0.1461597085
vn -0.8509926796 -0.1638462096 0.4989648163
vn 0.867325902 -0.2486206591 0.4312001467
vn 0.7669525743 0.07460448891 0.6373522878
vn 0.9647694826 -0.01471408643 0.2626848817
vn -0.9089042544 0.1768253595 0.377658397
vn -0.9324065447 -0.007110253442 0.3613411486
vn -0.9397591949 -0.3020779788 -0.160004884
vn -0.8919892907 -0.2947708964 -0.3427320421
vn 0.9415986538 -0.277410239 -0.1908809245
vn 0.8889434338 -0.248080492 -0.3850138783
vn -0.9408557415 -0.3322501183 -0.06633502245
vn 0.9435377717 -0.3179041743 -0.09313090891
vn -0.8422212601 -0.5382422209 0.03096199036
vn 0.8536461592 -0.5206983685 -0.012707402
vn -0.931497097 -0.3425244987 0.1224342436
vn 0.9259938002 -0.3673920035 0.08694037795
vn -0.9267965555 -0.2792433798 0.2511399388
vn 0.9227269292 -0.3197765052 0.2152161151
vn -0.8779460192 -0.1707038432 0.4472929537
vn 0.8801179528 -0.2395639122 0.4098799229
vn -0.86614573 0.08459407091 0.492580384
vn 0.8854516149 -0.001669823774 0.4647285938
vn -0.9372496009 0.2019811422 0.2841950059
vn 0.9129111171 0.1728517115 0.3697507381
vn -0.9376643896 0.313989222 0.1489839703
vn 0.9482706785 0.2695668638 0.1676794589
vn -0.8687839508 0.4775688946 0.1309290677
vn 0.8850944042 0.4438434541 0.1400388032
vn -0.9592399001 0.2668653429 0.0929608345
vn 0.9468937516 0.3091631532 0.08837617934
vn -0.9826167822 0.1267267466 0.1356634945
vn 0.9773227572 0.1764640063 0.1170501038
vn -0.9854165912 -0.03836167604 0.165778473
vn 0.9877344966 0.01649633236 0.1552690566
vn -0.9312673807 -0.3261449933 0.1623898894
vn 0.9457092881 -0.2385479808 0.2207460701
vn -0.9599753022 -0.2796448469 -0.01569174416
vn 0.957590282 -0.2865649164 0.03002393059
vn -0.9382553697 -0.2768967152 -0.2073765099
vn 0.9315113425 -0.3326542377 -0.1470639259
vn -0.9080589414 -0.418731302 -0.009646399878
vn 0.9351760745 -0.3257016838 -0.1391551495
vn -0.7650979757 -0.2044433504 0.6105964184
vn 0.6463817358 -0.6586928964 0.3851159513
vn -0.884165287 0.3112647831 0.3483761847
vn 0.8861181736 0.2579429448 0.3850454986
vn -0.9332851171 0.317071259 0.1686556935
vn 0.9360058904 0.2911971211 0.1977300346
vn -0.9294111133 0.3612535894 0.07543778419
vn 0.9315110445 0.347967118 0.1058585793
vn -0.842264533 0.538046062 -0.03311999887
vn 0.8542822599 0.5196477771 0.01296054758
vn -0.9306737185 0.342371285 -0.1289507002
vn 0.9259275198 0.3664171696 -0.09163337946
vn -0.9261356592 0.2764168978 -0.2566444874
vn 0.9225788116 0.3160426021 -0.2212813497
vn -0.8791046143 0.1686957181 -0.4457766414
vn 0.8803598285 0.2365158796 -0.4111286998
vn -0.8725429773 -0.04450444505 -0.4865060747
vn 0.8764312267 0.02739330754 -0.4807472229
vn -0.933150053 -0.1864564419 -0.3073514998
vn 0.9300934076 -0.1370516866 -0.3407977223
vn -0.8832700253 -0.4124523103 -0.2229735255
vn 0.9022568464 -0.3405910134 -0.2644434571
vn -0.9251365662 -0.3676253259 -0.09473074228
vn 0.9347550273 -0.3390448391 -0.1062152162
vn -0.9719605446 -0.2190306336 -0.08554662019
vn 0.9608169794 -0.2666452825 -0.07570371777
vn -0.9557940364 -0.1672893316 -0.2418098152
vn 0.9438362122 -0.2515363693 -0.2142489702
vn -0.9851318598 0.05004928634 -0.1643481553
vn 0.9881637096 0.003861022182 -0.1533544511
vn -0.9279422164 0.3344083428 -0.1646035314
vn 0.9434030652 0.245970577 -0.2224616259
vn -0.9532085061 0.3016245663 0.02040097117
vn 0.9562991858 0.2912357152 -0.02595374733
vn -0.935655117 0.2786870301 0.216524899
vn 0.9233218431 0.3523991108 0.152616024
vn 0.7165575027 0.5764439702 -0.3927565217
vn 0.942653656 0.2903295755 0.1646598876
vn -0.9312238693 0.3629927635 0.03253267333
vn -0.7835836411 0.1295993477 -0.6076188684
f 1//1 2//2 3//3 
f 3//3 2//2 4//4 
f 5//5 1//1 6//6 
f 6//6 1//1 3//3 
f 7//7 5//5 8//8 
f 8//8 5//5 6//6 
f 9//9 7//7 10//10 
f 10//10 7//7 8//8 
f 11//11 9//9 12//12 
f 12//12 9//9 10//10 
f 13//13 11//11 14//14 
f 14//14 11//11 12//12 
f 15//15 13//13 16//16 
f 16//16 13//13 14//14 
f 17//17 15//15 18//18 
f 18//18 15//15 16//16 
f 19//19 17//17 20//20 
f 20//20 17//17 18//18 
f 4//4 21//21 3//3 
f 3//3 21//21 22//22 
f 3//3 22//22 6//6 
f 6//6 22//22 20//20 
f 6//6 20//20 12//12 
f 12//12 20//20 14//14 
f 14//14 20//20 18//18 
f 14//14 18//18 16//16 
f 10//10 8//8 12//12 
f 12//12 8//8 6//6 
f 23//23 19//19 22//22 
f 22//22 19//19 20//20 
f 2//2 24//24 4//4 
f 4//4 24//24 21//21 
f 2//2 1//1 24//24 
f 24//24 1//1 23//23 
f 23//23 1//1 5//5 
f 23//23 5//5 19//19 
f 19//19 5//5 11//11 
f 19//19 11//11 13//13 
f 7//7 9//9 5//5 
f 5//5 9//9 11//11 
f 15//15 17//17 13//13 
f 13//13 17//17 19//19 
f 24//24 23//23 21//21 
f 21//21 23//23 22//22 
f 25//25 26//26 27//27 
f 27//27 26//26 28//28 
f 29//29 25//25 30//30 
f 30//30 25//25 27//27 
f 31//31 29//29 32//32 
f 32//32 29//29 30//30 
f 33//33 31//31 34//34 
f 34//34 31//31 32//32 
f 35//35 33//33 36//36 
f 36//36 33//33 34//34 
f 37//37 36//36 38//38 
f 38//38 36//36 28//28 
f 28//28 36//36 32//32 
f 28//28 32//32 30//30 
f 36//36 34//34 32//32 
f 30//30 27//27 28//28 
f 26//26 39//39 28//28 
f 28//28 39//39 38//38 
f 40//40 35//35 37//37 
f 37//37 35//35 36//36 
f 39//39 26//26 40//40 
f 40//40 26//26 35//35 
f 35//35 26//26 31//31 
f 35//35 31//31 33//33 
f 25//25 29//29 26//26 
f 26//26 29//29 31//31 
f 39//39 40//40 38//38 
f 38//38 40//40 37//37 
f 41//41 42//42 43//43 
f 43//43 42//42 44//44 
f 45//45 43//43 46//46 
f 46//46 43//43 44//44 
f 47//47 41//41 45//45 
f 45//45 41//41 43//43 
f 42//42 48//48 44//44 
f 44//44 48//48 46//46 
f 48//48 42//42 47//47 
f 47//47 42//42 41//41 
f 48//48 47//47 46//46 
f 46//46 47//47 45//45 
f 49//49 50//50 51//51 
f 51//51 50//50 52//52 
f 53//53 49//49 54//54 
f 54//54 49//49 51//51 
f 55//55 53//53 56//56 
f 56//56 53//53 54//54 
f 57//57 55//55 58//58 
f 58//58 55//55 56//56 
f 59//59 57//57 60//60 
f 60//60 57//57 58//58 
f 61//61 59//59 62//62 
f 62//62 59//59 60//60 
f 63//63 61//61 64//64 
f 64//64 61//61 62//62 
f 65//65 63//63 66//66 
f 66//66 63//63 64//64 
f 67//67 65//65 68//68 
f 68//68 65//65 66//66 
f 69//69 67//67 70//70 
f 70//70 67//67 68//68 
f 71//71 69//69 72//72 
f 72//72 69//69 70//70 
f 73//73 71//71 74//74 
f 74//74 71//71 72//72 
f 75//75 73//73 76//76 
f 76//76 73//73 74//74 
f 77//77 75//75 78//78 
f 78//78 75//75 76//76 
f 79//79 77//77 80//80 
f 80//80 77//77 78//78 
f 81//81 82//82 52//52 
f 52//52 82//82 51//51 
f 51//51 82//82 54//54 
f 54//54 82//82 80//80 
f 54//54 80//80 78//78 
f 76//76 58//58 78//78 
f 78//78 58//58 56//56 
f 78//78 56//56 54//54 
f 58//58 76//76 60//60 
f 60//60 76//76 74//74 
f 60//60 74//74 62//62 
f 62//62 74//74 72//72 
f 62//62 72//72 70//70 
f 62//62 70//70 64//64 
f 64//64 70//70 68//68 
f 64//64 68//68 66//66 
f 50//50 83//83 52//52 
f 52//52 83//83 81//81 
f 84//84 79//79 82//82 
f 82//82 79//79 80//80 
f 83//83 50//50 84//84 
f 84//84 50//50 49//49 
f 84//84 49//49 53//53 
f 55//55 77//77 53//53 
f 53//53 77//77 79//79 
f 53//53 79//79 84//84 
f 55//55 57//57 77//77 
f 77//77 57//57 75//75 
f 75//75 57//57 59//59 
f 75//75 59//59 73//73 
f 73//73 59//59 61//61 
f 73//73 61//61 71//71 
f 71//71 61//61 69//69 
f 69//69 61//61 63//63 
f 69//69 63//63 67//67 
f 67//67 63//63 65//65 
f 83//83 84//84 81//81 
f 81//81 84//84 82//82 
f 85//85 86//86 87//87 
f 87//87 86//86 88//88 
f 89//89 85//85 90//90 
f 90//90 85//85 87//87 
f 91//91 89//89 92//92 
f 92//92 89//89 90//90 
f 93//93 91//91 94//94 
f 94//94 91//91 92//92 
f 95//95 93//93 96//96 
f 96//96 93//93 94//94 
f 97//97 95//95 98//98 
f 98//98 95//95 96//96 
f 99//99 97//97 100//100 
f 100//100 97//97 98//98 
f 101//101 99//99 102//102 
f 102//102 99//99 100//100 
f 103//103 101//101 104//104 
f 104//104 101//101 102//102 
f 105//105 103//103 106//106 
f 106//106 103//103 104//104 
f 107//107 105//105 108//108 
f 108//108 105//105 106//106 
f 109//109 107//107 110//110 
f 110//110 107//107 108//108 
f 111//111 109//109 112//112 
f 112//112 109//109 110//110 
f 113//113 111//111 114//114 
f 114//114 111//111 112//112 
f 115//115 113//113 116//116 
f 116//116 113//113 114//114 
f 117//117 115//115 118//118 
f 118//118 115//115 116//116 
f 119//119 117//117 120//120 
f 120//120 117//117 118//118 
f 121//121 119//119 122//122 
f 122//122 119//119 120//120 
f 123//123 121//121 124//124 
f 124//124 121//121 122//122 
f 125//125 123//123 126//126 
f 126//126 123//123 124//124 
f 127//127 125//125 128//128 
f 128//128 125//125 126//126 
f 129//129 127//127 130//130 
f 130//130 127//127 128//128 
f 131//131 129//129 132//132 
f 132//132 129//129 130//130 
f 133//133 131//131 134//134 
f 134//134 131//131 132//132 
f 135//135 133//133 136//136 
f 136//136 133//133 134//134 
f 137//137 135//135 138//138 
f 138//138 135//135 136//136 
f 139//139 137//137 140//140 
f 140//140 137//137 138//138 
f 141//141 139//139 142//142 
f 142//142 139//139 140//140 
f 143//143 141//141 144//144 
f 144//144 141//141 142//142 
f 145//145 143//143 146//146 
f 146//146 143//143 144//144 
f 147//147 145//145 148//148 
f 148//148 145//145 146//146 
f 149//149 147//147 150//150 
f 150//150 147//147 148//148 
f 151//151 149//149 152//152 
f 152//152 149//149 150//150 
f 153//153 151//151 154//154 
f 154//154 151//151 152//152 
f 155//155 153//153 156//156 
f 156//156 153//153 154//154 
f 157//157 158//158 88//88 
f 88//88 158//158 87//87 
f 87//87 158//158 156//156 
f 87//87 156//156 90//90 
f 90//90 156//156 154//154 
f 90//90 154//154 92//92 
f 92//92 154//154 94//94 
f 94//94 154//154 152//152 
f 94//94 152//152 96//96 
f 96//96 152//152 150//150 
f 96//96 150//150 98//98 
f 98//98 150//150 100//100 
f 100//100 150//150 102//102 
f 102//102 150//150 148//148 
f 102//102 148//148 104//104 
f 104//104 148//148 146//146 
f 104//104 146//146 106//106 
f 106//106 146//146 108//108 
f 108//108 146//146 144//144 
f 108//108 144//144 110//110 
f 110//110 144//144 142//142 
f 110//110 142//142 140//140 
f 110//110 140//140 112//112 
f 112//112 140//140 138//138 
f 112//112 138//138 136//136 
f 136//136 134//134 112//112 
f 112//112 134//134 114//114 
f 114//114 134//134 132//132 
f 114//114 132//132 116//116 
f 116//116 132//132 130//130 
f 116//116 130//130 128//128 
f 116//116 128//128 118//118 
f 118//118 128//128 126//126 
f 118//118 126//126 120//120 
f 120//120 126//126 124//124 
f 120//120 124//124 122//122 
f 159//159 155//155 158//158 
f 158//158 155//155 156//156 
f 86//86 160//160 88//88 
f 88//88 160//160 157//157 
f 160//160 86//86 159//159 
f 159//159 86//86 85//85 
f 159//159 85//85 155//155 
f 155//155 85//85 89//89 
f 155//155 89//89 153//153 
f 153//153 89//89 91//91 
f 153//153 91//91 93//93 
f 153//153 93//93 151//151 
f 151//151 93//93 95//95 
f 151//151 95//95 149//149 
f 149//149 95//95 97//97 
f 149//149 97//97 99//99 
f 99//99 101//101 149//149 
f 149//149 101//101 147//147 
f 147//147 101//101 103//103 
f 147//147 103//103 145//145 
f 145//145 103//103 105//105 
f 145//145 105//105 107//107 
f 145//145 107//107 143//143 
f 143//143 107//107 109//109 
f 143//143 109//109 141//141 
f 141//141 109//109 139//139 
f 139//139 109//109 111//111 
f 139//139 111//111 137//137 
f 137//137 111//111 135//135 
f 135//135 111//111 133//133 
f 133//133 111//111 113//113 
f 133//133 113//113 131//131 
f 131//131 113//113 115//115 
f 131//131 115//115 129//129 
f 129//129 115//115 127//127 
f 127//127 115//115 117//117 
f 127//127 117//117 125//125 
f 125//125 117//117 119//119 
f 125//125 119//119 123//123 
f 123//123 119//119 121//121 
f 160//160 159//159 157//157 
f 157//157 159//159 158//158 
