v -44.5022316 37.5 -27.07751465
v -44.5022316 23.75 -27.07751465
v -43.89806366 37.5 -27.07751465
v -43.89806366 23.75 -27.07751465
v -44.5022316 23.75 -28.46293068
v -44.5022316 37.5 -28.46293068
v -43.89806366 23.75 -28.46293068
v -43.89806366 37.5 -28.46293068
vn -0.9761443138 0.04289127886 0.212844044
vn -0.7532150745 -0.03309588507 0.6569411755
vn 0.7532150745 0.03309588507 0.6569411755
vn 0.9761443138 -0.04289127886 0.212844044
vn -0.9761443138 -0.04289127886 -0.212844044
vn -0.7532150745 0.03309588507 -0.6569411755
vn 0.7532150745 -0.03309588507 -0.6569411755
vn 0.9761443138 0.04289127886 -0.212844044
f 1//1 2//2 3//3 
f 3//3 2//2 4//4 
f 2//2 1//1 5//5 
f 5//5 1//1 6//6 
f 2//2 5//5 4//4 
f 4//4 5//5 7//7 
f 6//6 1//1 8//8 
f 8//8 1//1 3//3 
f 7//7 8//8 4//4 
f 4//4 8//8 3//3 
f 5//5 6//6 7//7 
f 7//7 6//6 8//8 
