v -57.13750839 24.75 -135.7572327
v -57.13750839 23.75 -135.7572327
v -57.05834961 24.75 -135.9039001
v -57.05834961 23.75 -135.9039001
v -57.93368912 23.75 -136.3763123
v -57.93368912 24.75 -136.3763123
v -58.01284409 24.75 -136.2296448
v -58.01284409 23.75 -136.2296448
vn -0.3984406292 0.0827569589 0.9134529829
vn -0.1686116159 -0.1560904831 0.9732450247
vn 0.6960132718 0.3013628125 -0.6517253518
vn 0.5393609405 -0.1638387144 -0.825982213
vn 0.1686122268 -0.156089887 -0.9732450247
vn 0.3984399438 0.08275619894 -0.9134533405
vn -0.6960117221 0.3013621271 0.6517273784
vn -0.5393617749 -0.1638389826 0.825981617
f 1//1 2//2 3//3 
f 3//3 2//2 4//4 
f 5//5 6//6 4//4 
f 4//4 6//6 3//3 
f 1//1 3//3 7//7 
f 7//7 3//3 6//6 
f 2//2 8//8 4//4 
f 4//4 8//8 5//5 
f 2//2 1//1 8//8 
f 8//8 1//1 7//7 
f 8//8 7//7 5//5 
f 5//5 7//7 6//6 
