v -74.51509094 23.75 -84.08919525
v -74.51509094 20.29180336 -84.08919525
v -74.463974 23.75 -83.93056488
v -74.463974 20.29180336 -83.93056488
v -68.21061707 20.29180336 -85.94564056
v -68.21061707 23.75 -85.94564056
v -68.26173401 23.75 -86.10427856
v -68.26173401 20.29180336 -86.10427856
vn -0.3183864951 0.04813490435 -0.9467381239
vn -0.3529110849 -0.09582249075 -0.930737257
vn 0.2577886283 0.04807603732 0.9650045037
vn 0.2945267558 -0.02408787049 0.9553396106
vn 0.3529120982 -0.0958224535 0.9307368398
vn 0.3183859587 0.04813491181 0.9467383027
vn -0.2577875257 0.04807815701 -0.9650046825
vn -0.2945272923 -0.02408892289 -0.9553394318
f 1//1 2//2 3//3 
f 3//3 2//2 4//4 
f 5//5 6//6 4//4 
f 4//4 6//6 3//3 
f 7//7 1//1 6//6 
f 6//6 1//1 3//3 
f 8//8 5//5 2//2 
f 2//2 5//5 4//4 
f 2//2 1//1 8//8 
f 8//8 1//1 7//7 
f 8//8 7//7 5//5 
f 5//5 7//7 6//6 
