v -14.85488892 34.54166794 -122.0750351
v -14.85488892 34.54166794 -121.5016327
v -14.9084816 34.54166794 -122.0800018
v -14.9084816 34.54166794 -121.496666
v -14.96207523 34.54166794 -122.0750351
v -14.96207523 34.54166794 -121.5016327
v -15.01384449 34.54166794 -122.0603104
v -15.01384449 34.54166794 -121.5163651
v -15.06202507 34.54166794 -122.0363159
v -15.06202507 34.54166794 -121.5403519
v -15.10497665 34.54166794 -122.0038834
v -15.10497665 34.54166794 -121.5727921
v -15.14123726 34.54166794 -121.9641037
v -15.14123726 34.54166794 -121.6125641
v -15.16957092 34.54166794 -121.9183426
v -15.16957092 34.54166794 -121.6583252
v -15.18901443 34.54166794 -121.8681564
v -15.18901443 34.54166794 -121.708519
v -15.19890499 34.54166794 -121.8152466
v -15.19890499 34.54166794 -121.7614212
v -14.80311966 34.54166794 -121.5163651
v -14.80311966 34.54166794 -122.0603104
v -14.75493908 34.54166794 -121.5403519
v -14.75493908 34.54166794 -122.0363159
v -14.7119875 34.54166794 -121.5727921
v -14.7119875 34.54166794 -122.0038834
v -14.67572689 34.54166794 -121.6125641
v -14.67572689 34.54166794 -121.9641037
v -14.64739323 34.54166794 -121.6583252
v -14.64739323 34.54166794 -121.9183426
v -14.62794971 34.54166794 -121.708519
v -14.62794971 34.54166794 -121.8681564
v -14.61805916 34.54166794 -121.7614212
v -14.61805916 34.54166794 -121.8152466
v -14.9084816 33.77083206 -122.0800018
v -14.85488892 33.77083206 -122.0750351
v -14.80311966 33.77083206 -122.0603104
v -14.75493908 33.77083206 -122.0363159
v -14.7119875 33.77083206 -122.0038834
v -14.67572689 33.77083206 -121.9641037
v -14.64739323 33.77083206 -121.9183426
v -14.62794971 33.77083206 -121.8681564
v -14.61805916 33.77083206 -121.8152466
v -14.61805916 33.77083206 -121.7614212
v -14.62794971 33.77083206 -121.708519
v -14.64739323 33.77083206 -121.6583252
v -14.67572689 33.77083206 -121.6125641
v -14.7119875 33.77083206 -121.5727921
v -14.75493908 33.77083206 -121.5403519
v -14.80311966 33.77083206 -121.5163651
v -14.85488892 33.77083206 -121.5016327
v -14.9084816 33.77083206 -121.496666
v -14.96207523 33.77083206 -121.5016327
v -15.01384449 33.77083206 -121.5163651
v -15.06202507 33.77083206 -121.5403519
v -15.10497665 33.77083206 -121.5727921
v -15.14123726 33.77083206 -121.6125641
v -15.16957092 33.77083206 -121.6583252
v -15.18901443 33.77083206 -121.708519
v -15.19890499 33.77083206 -121.7614212
v -15.19890499 33.77083206 -121.8152466
v -15.18901443 33.77083206 -121.8681564
v -15.16957092 33.77083206 -121.9183426
v -15.14123726 33.77083206 -121.9641037
v -15.10497665 33.77083206 -122.0038834
v -15.06202507 33.77083206 -122.0363159
v -15.01384449 33.77083206 -122.0603104
v -14.96207523 33.77083206 -122.0750351
v -14.96334648 33.75 -121.459549
v -14.96334648 33.75 -122.1171265
v -14.9084816 33.75 -121.4550018
v -14.9084816 33.75 -122.121666
v -14.85361671 33.75 -121.459549
v -14.85361671 33.75 -122.1171265
v -14.8002491 33.75 -121.4730606
v -14.8002491 33.75 -122.1036072
v -14.74983311 33.75 -121.4951782
v -14.74983311 33.75 -122.0814972
v -14.70374489 33.75 -121.5252914
v -14.70374489 33.75 -122.051384
v -14.66324043 33.75 -121.5625763
v -14.66324043 33.75 -122.0140991
v -14.62942696 33.75 -121.6060181
v -14.62942696 33.75 -121.9706497
v -14.6032238 33.75 -121.6544342
v -14.6032238 33.75 -121.9222336
v -14.58534908 33.75 -121.7065048
v -14.58534908 33.75 -121.870163
v -14.57628727 33.75 -121.7608109
v -14.57628727 33.75 -121.8158646
v -15.01671505 33.75 -122.1036072
v -15.01671505 33.75 -121.4730606
v -15.06713104 33.75 -122.0814972
v -15.06713104 33.75 -121.4951782
v -15.11321926 33.75 -122.051384
v -15.11321926 33.75 -121.5252914
v -15.15372372 33.75 -122.0140991
v -15.15372372 33.75 -121.5625763
v -15.18753719 33.75 -121.9706497
v -15.18753719 33.75 -121.6060181
v -15.2137394 33.75 -121.9222336
v -15.2137394 33.75 -121.6544342
v -15.23161507 33.75 -121.870163
v -15.23161507 33.75 -121.7065048
v -15.24067688 33.75 -121.8158646
v -15.24067688 33.75 -121.7608109
v -14.9084816 34.58333206 -122.121666
v -14.96334648 34.58333206 -122.1171265
v -15.01671505 34.58333206 -122.1036072
v -15.06713104 34.58333206 -122.0814972
v -15.11321926 34.58333206 -122.051384
v -15.15372372 34.58333206 -122.0140991
v -15.18753719 34.58333206 -121.9706497
v -15.2137394 34.58333206 -121.9222336
v -15.23161507 34.58333206 -121.870163
v -15.24067688 34.58333206 -121.8158646
v -15.24067688 34.58333206 -121.7608109
v -15.23161507 34.58333206 -121.7065048
v -15.2137394 34.58333206 -121.6544342
v -15.18753719 34.58333206 -121.6060181
v -15.15372372 34.58333206 -121.5625763
v -15.11321926 34.58333206 -121.5252914
v -15.06713104 34.58333206 -121.4951782
v -15.01671505 34.58333206 -121.4730606
v -14.96334648 34.58333206 -121.459549
v -14.9084816 34.58333206 -121.4550018
v -14.85361671 34.58333206 -121.459549
v -14.8002491 34.58333206 -121.4730606
v -14.74983311 34.58333206 -121.4951782
v -14.70374489 34.58333206 -121.5252914
v -14.66324043 34.58333206 -121.5625763
v -14.62942696 34.58333206 -121.6060181
v -14.6032238 34.58333206 -121.6544342
v -14.58534908 34.58333206 -121.7065048
v -14.57628727 34.58333206 -121.7608109
v -14.57628727 34.58333206 -121.8158646
v -14.58534908 34.58333206 -121.870163
v -14.6032238 34.58333206 -121.9222336
v -14.62942696 34.58333206 -121.9706497
v -14.66324043 34.58333206 -122.0140991
v -14.70374489 34.58333206 -122.051384
v -14.74983311 34.58333206 -122.0814972
v -14.8002491 34.58333206 -122.1036072
v -14.85361671 34.58333206 -122.1171265
vn -0.1247366443 -0.5812715888 0.8040921092
vn -0.1721128821 -0.5945083499 -0.7854533195
vn 0.02467654459 -0.6010729671 0.7988131046
vn -0.02467658557 -0.601077497 -0.7988097072
vn 0.1720374972 -0.5945186019 0.785462141
vn 0.1247734129 -0.5812666416 -0.8040899634
vn 0.3227121532 -0.5610981584 0.7622504234
vn 0.2809966803 -0.533747673 -0.7975928187
vn 0.4787119627 -0.4990478158 0.7223476768
vn 0.4446454942 -0.4570444226 -0.7703251243
vn 0.6355506182 -0.408229351 0.6553046703
vn 0.608514607 -0.3537397385 -0.7103366852
vn 0.7798262239 -0.2953973413 0.5519162416
vn 0.757060945 -0.2357225269 -0.6093386412
vn 0.8940410018 -0.1776520163 0.4112546742
vn 0.8741571903 -0.1242484376 -0.4694800675
vn 0.9668380022 -0.078296341 0.243092522
vn 0.9520776868 -0.04202100635 -0.3029558957
vn 0.9979634285 -0.01702380739 0.06147469208
vn 0.992400229 -0.004293571692 -0.1229768991
vn -0.3226769865 -0.5611052513 -0.7622600794
vn -0.2809597552 -0.5337536931 0.7976017594
vn -0.4787436426 -0.4990380108 -0.7223334312
vn -0.4446793497 -0.4570358694 0.7703106403
vn -0.6355248094 -0.4082405865 -0.6553227305
vn -0.6084866524 -0.353749305 0.7103558183
vn -0.7798084617 -0.2954078019 -0.5519357324
vn -0.7571002841 -0.235706076 0.6092961431
vn -0.8940597773 -0.1776371896 -0.4112203419
vn -0.8741461039 -0.1242535487 0.4694993794
vn -0.9668349028 -0.07829992473 -0.2431036383
vn -0.952073276 -0.04202290252 0.3029695749
vn -0.9979632497 -0.01702461392 -0.06147760153
vn -0.9924016595 -0.004293167498 0.1229653284
vn -0.02467658557 0.601077497 0.7988097072
vn -0.1720388681 0.5945161581 0.7854636312
vn -0.3227121532 0.5610981584 0.7622504234
vn -0.4787119627 0.4990478158 0.7223476768
vn -0.6355506182 0.408229351 0.6553046703
vn -0.7798262239 0.2953973413 0.5519162416
vn -0.8940410018 0.1776520163 0.4112546742
vn -0.9668380022 0.078296341 0.243092522
vn -0.9979634285 0.01702380739 0.06147469208
vn -0.992400229 0.004293571692 -0.1229768991
vn -0.9520776868 0.04202100635 -0.3029558957
vn -0.8741571903 0.1242484376 -0.4694800675
vn -0.757060945 0.2357225269 -0.6093386412
vn -0.608514607 0.3537397385 -0.7103366852
vn -0.4446454942 0.4570444226 -0.7703251243
vn -0.2809966803 0.533747673 -0.7975928187
vn -0.1247746423 0.5812687874 -0.8040882349
vn 0.02467654459 0.6010729671 -0.7988131046
vn 0.1721115112 0.5945107937 -0.7854518294
vn 0.3226769865 0.5611052513 -0.7622600794
vn 0.4787436426 0.4990380108 -0.7223334312
vn 0.6355248094 0.4082405865 -0.6553227305
vn 0.7798084617 0.2954078019 -0.5519357324
vn 0.8940597773 0.1776371896 -0.4112203419
vn 0.9668349028 0.07829992473 -0.2431036383
vn 0.9979632497 0.01702461392 -0.06147760153
vn 0.9924016595 0.004293167498 0.1229653284
vn 0.952073276 0.04202290252 0.3029695749
vn 0.8741461039 0.1242535487 0.4694993794
vn 0.7571002841 0.235706076 0.6092961431
vn 0.6084866524 0.353749305 0.7103558183
vn 0.4446793497 0.4570358694 0.7703106403
vn 0.2809597552 0.5337536931 0.7976017594
vn 0.124735415 0.581269443 0.8040938377
vn -0.1427838504 -0.4972792268 0.8557605743
vn -0.1064888835 -0.7624448538 -0.6382303834
vn 0.0216056481 -0.6228135228 0.7820718884
vn -0.02156941406 -0.6228140593 -0.7820725441
vn 0.1064896286 -0.7624456882 0.6382291913
vn 0.1427851915 -0.4972780347 -0.8557610512
vn 0.2407437563 -0.5910243988 0.7698913217
vn 0.2883093357 -0.5692383647 -0.7699645758
vn 0.3796101511 -0.5414544344 0.7501488328
vn 0.4308511913 -0.5075559616 -0.7461596131
vn 0.5234829783 -0.4675579965 0.7122886777
vn 0.5764193535 -0.4218594134 -0.6998395324
vn 0.6654942632 -0.3712786734 0.6475102305
vn 0.7152374387 -0.3171357214 -0.6227843165
vn 0.7931729555 -0.2613542974 0.5500641465
vn 0.8336582184 -0.2061029226 -0.5123822093
vn 0.8935680985 -0.1538075805 0.4217573404
vn 0.9212245345 -0.1067329198 -0.3741034865
vn 0.9601041675 -0.06686174124 0.2715317607
vn 0.9751833677 -0.03574211523 -0.2184947431
vn 0.9938209653 -0.01444174349 0.1100513563
vn 0.9984778166 -0.003635840723 -0.05503466725
vn -0.2407761961 -0.5910195112 -0.7698848844
vn -0.2883425951 -0.5692324638 0.7699564695
vn -0.3795434535 -0.541470468 -0.7501710057
vn -0.4308837056 -0.5075472593 0.7461467981
vn -0.5234829783 -0.4675579965 -0.7122886777
vn -0.5764193535 -0.4218594134 0.6998395324
vn -0.6655182242 -0.3712680638 -0.6474916935
vn -0.7151945233 -0.3171556592 0.6228234768
vn -0.7932090759 -0.2613342702 -0.5500215888
vn -0.8336499929 -0.2061077952 0.5123936534
vn -0.8935706019 -0.1538055092 -0.4217527807
vn -0.9212224483 -0.1067338064 0.3741084039
vn -0.9600973725 -0.06686747819 -0.2715544701
vn -0.9751865864 -0.03573997691 0.2184805125
vn -0.9938198328 -0.01444307342 -0.110061489
vn -0.9984779358 -0.00363567262 0.05503211915
vn 0.02156941406 0.6228140593 -0.7820725441
vn -0.1427838504 0.4972792268 -0.8557605743
vn -0.2883076668 0.5692387223 -0.7699649334
vn -0.4308511913 0.5075559616 -0.7461596131
vn -0.5764193535 0.4218594134 -0.6998395324
vn -0.7152374387 0.3171357214 -0.6227843165
vn -0.8336638212 0.2061000019 -0.5123742819
vn -0.9212224483 0.1067338064 -0.3741084039
vn -0.9751820564 0.03574320301 -0.2185002416
vn -0.9984778166 0.003635840723 -0.05503466725
vn -0.9938209653 0.01444174349 0.1100513563
vn -0.9601009488 0.06686451286 0.2715424299
vn -0.8935706019 0.1538055092 0.4217527807
vn -0.7931759357 0.2613528073 0.5500606298
vn -0.6654942632 0.3712786734 0.6475102305
vn -0.5234829783 0.4675579965 0.7122886777
vn -0.3796101511 0.5414544344 0.7501488328
vn -0.2407409847 0.591024816 0.7698917985
vn -0.1064888835 0.7624448538 0.6382303834
vn -0.0216056481 0.6228135228 0.7820718884
vn 0.1427851915 0.4972780347 0.8557610512
vn 0.288344264 0.5692321062 0.7699561119
vn 0.4308837056 0.5075472593 0.7461467981
vn 0.5764193535 0.4218594134 0.6998395324
vn 0.7151945233 0.3171556592 0.6228234768
vn 0.8336443901 0.2061107159 0.5124015808
vn 0.9212245345 0.1067329198 0.3741034865
vn 0.9751878977 0.0357388854 0.218475014
vn 0.9984779358 0.00363567262 0.05503211915
vn 0.9938198328 0.01444307342 -0.110061489
vn 0.9601005316 0.06686470658 -0.2715438306
vn 0.8935680985 0.1538075805 -0.4217573404
vn 0.7932061553 0.2613357306 -0.5500251055
vn 0.6655182242 0.3712680638 -0.6474916935
vn 0.5234829783 0.4675579965 -0.7122886777
vn 0.3795434535 0.541470468 -0.7501710057
vn 0.2407789677 0.591019094 -0.7698843479
vn 0.1064896286 0.7624456882 -0.6382291913
f 1//1 2//2 3//3 
f 3//3 2//2 4//4 
f 3//3 4//4 5//5 
f 5//5 4//4 6//6 
f 5//5 6//6 7//7 
f 7//7 6//6 8//8 
f 7//7 8//8 9//9 
f 9//9 8//8 10//10 
f 9//9 10//10 11//11 
f 11//11 10//10 12//12 
f 11//11 12//12 13//13 
f 13//13 12//12 14//14 
f 13//13 14//14 15//15 
f 15//15 14//14 16//16 
f 15//15 16//16 17//17 
f 17//17 16//16 18//18 
f 17//17 18//18 19//19 
f 19//19 18//18 20//20 
f 2//2 1//1 21//21 
f 21//21 1//1 22//22 
f 21//21 22//22 23//23 
f 23//23 22//22 24//24 
f 23//23 24//24 25//25 
f 25//25 24//24 26//26 
f 25//25 26//26 27//27 
f 27//27 26//26 28//28 
f 27//27 28//28 29//29 
f 29//29 28//28 30//30 
f 29//29 30//30 31//31 
f 31//31 30//30 32//32 
f 31//31 32//32 33//33 
f 33//33 32//32 34//34 
f 3//3 35//35 1//1 
f 1//1 35//35 36//36 
f 1//1 36//36 22//22 
f 22//22 36//36 37//37 
f 22//22 37//37 24//24 
f 24//24 37//37 38//38 
f 24//24 38//38 26//26 
f 26//26 38//38 39//39 
f 26//26 39//39 28//28 
f 28//28 39//39 40//40 
f 28//28 40//40 30//30 
f 30//30 40//40 41//41 
f 30//30 41//41 32//32 
f 32//32 41//41 42//42 
f 32//32 42//42 34//34 
f 34//34 42//42 43//43 
f 34//34 43//43 33//33 
f 33//33 43//43 44//44 
f 33//33 44//44 31//31 
f 31//31 44//44 45//45 
f 31//31 45//45 29//29 
f 29//29 45//45 46//46 
f 29//29 46//46 27//27 
f 27//27 46//46 47//47 
f 27//27 47//47 25//25 
f 25//25 47//47 48//48 
f 25//25 48//48 23//23 
f 23//23 48//48 49//49 
f 23//23 49//49 21//21 
f 21//21 49//49 50//50 
f 21//21 50//50 2//2 
f 2//2 50//50 51//51 
f 2//2 51//51 4//4 
f 4//4 51//51 52//52 
f 4//4 52//52 6//6 
f 6//6 52//52 53//53 
f 6//6 53//53 8//8 
f 8//8 53//53 54//54 
f 8//8 54//54 10//10 
f 10//10 54//54 55//55 
f 10//10 55//55 12//12 
f 12//12 55//55 56//56 
f 12//12 56//56 14//14 
f 14//14 56//56 57//57 
f 14//14 57//57 16//16 
f 16//16 57//57 58//58 
f 16//16 58//58 18//18 
f 18//18 58//58 59//59 
f 18//18 59//59 20//20 
f 20//20 59//59 60//60 
f 20//20 60//60 19//19 
f 19//19 60//60 61//61 
f 19//19 61//61 17//17 
f 17//17 61//61 62//62 
f 17//17 62//62 15//15 
f 15//15 62//62 63//63 
f 15//15 63//63 13//13 
f 13//13 63//63 64//64 
f 13//13 64//64 11//11 
f 11//11 64//64 65//65 
f 11//11 65//65 9//9 
f 9//9 65//65 66//66 
f 9//9 66//66 7//7 
f 7//7 66//66 67//67 
f 7//7 67//67 5//5 
f 5//5 67//67 68//68 
f 5//5 68//68 3//3 
f 3//3 68//68 35//35 
f 68//68 53//53 35//35 
f 35//35 53//53 52//52 
f 35//35 52//52 36//36 
f 36//36 52//52 51//51 
f 36//36 51//51 37//37 
f 37//37 51//51 50//50 
f 37//37 50//50 38//38 
f 38//38 50//50 49//49 
f 38//38 49//49 39//39 
f 39//39 49//49 48//48 
f 39//39 48//48 40//40 
f 40//40 48//48 47//47 
f 40//40 47//47 41//41 
f 41//41 47//47 46//46 
f 41//41 46//46 42//42 
f 42//42 46//46 45//45 
f 42//42 45//45 43//43 
f 43//43 45//45 44//44 
f 53//53 68//68 54//54 
f 54//54 68//68 67//67 
f 54//54 67//67 55//55 
f 55//55 67//67 66//66 
f 55//55 66//66 56//56 
f 56//56 66//66 65//65 
f 56//56 65//65 57//57 
f 57//57 65//65 64//64 
f 57//57 64//64 58//58 
f 58//58 64//64 63//63 
f 58//58 63//63 59//59 
f 59//59 63//63 62//62 
f 59//59 62//62 60//60 
f 60//60 62//62 61//61 
f 69//69 70//70 71//71 
f 71//71 70//70 72//72 
f 71//71 72//72 73//73 
f 73//73 72//72 74//74 
f 73//73 74//74 75//75 
f 75//75 74//74 76//76 
f 75//75 76//76 77//77 
f 77//77 76//76 78//78 
f 77//77 78//78 79//79 
f 79//79 78//78 80//80 
f 79//79 80//80 81//81 
f 81//81 80//80 82//82 
f 81//81 82//82 83//83 
f 83//83 82//82 84//84 
f 83//83 84//84 85//85 
f 85//85 84//84 86//86 
f 85//85 86//86 87//87 
f 87//87 86//86 88//88 
f 87//87 88//88 89//89 
f 89//89 88//88 90//90 
f 70//70 69//69 91//91 
f 91//91 69//69 92//92 
f 91//91 92//92 93//93 
f 93//93 92//92 94//94 
f 93//93 94//94 95//95 
f 95//95 94//94 96//96 
f 95//95 96//96 97//97 
f 97//97 96//96 98//98 
f 97//97 98//98 99//99 
f 99//99 98//98 100//100 
f 99//99 100//100 101//101 
f 101//101 100//100 102//102 
f 101//101 102//102 103//103 
f 103//103 102//102 104//104 
f 103//103 104//104 105//105 
f 105//105 104//104 106//106 
f 107//107 72//72 108//108 
f 108//108 72//72 70//70 
f 108//108 70//70 91//91 
f 108//108 91//91 109//109 
f 109//109 91//91 93//93 
f 109//109 93//93 110//110 
f 110//110 93//93 95//95 
f 110//110 95//95 111//111 
f 111//111 95//95 97//97 
f 111//111 97//97 112//112 
f 112//112 97//97 99//99 
f 112//112 99//99 113//113 
f 113//113 99//99 101//101 
f 113//113 101//101 114//114 
f 114//114 101//101 103//103 
f 114//114 103//103 115//115 
f 115//115 103//103 105//105 
f 115//115 105//105 116//116 
f 116//116 105//105 106//106 
f 116//116 106//106 117//117 
f 117//117 106//106 104//104 
f 117//117 104//104 118//118 
f 118//118 104//104 102//102 
f 118//118 102//102 119//119 
f 119//119 102//102 100//100 
f 119//119 100//100 120//120 
f 120//120 100//100 98//98 
f 120//120 98//98 121//121 
f 121//121 98//98 96//96 
f 121//121 96//96 122//122 
f 122//122 96//96 94//94 
f 122//122 94//94 123//123 
f 123//123 94//94 92//92 
f 123//123 92//92 124//124 
f 124//124 92//92 69//69 
f 124//124 69//69 125//125 
f 125//125 69//69 126//126 
f 126//126 69//69 71//71 
f 126//126 71//71 127//127 
f 127//127 71//71 73//73 
f 127//127 73//73 75//75 
f 127//127 75//75 128//128 
f 128//128 75//75 77//77 
f 128//128 77//77 129//129 
f 129//129 77//77 79//79 
f 129//129 79//79 130//130 
f 130//130 79//79 81//81 
f 130//130 81//81 131//131 
f 131//131 81//81 83//83 
f 131//131 83//83 132//132 
f 132//132 83//83 85//85 
f 132//132 85//85 133//133 
f 133//133 85//85 87//87 
f 133//133 87//87 134//134 
f 134//134 87//87 89//89 
f 134//134 89//89 135//135 
f 135//135 89//89 90//90 
f 135//135 90//90 136//136 
f 136//136 90//90 88//88 
f 136//136 88//88 137//137 
f 137//137 88//88 86//86 
f 137//137 86//86 138//138 
f 138//138 86//86 84//84 
f 138//138 84//84 139//139 
f 139//139 84//84 82//82 
f 139//139 82//82 140//140 
f 140//140 82//82 80//80 
f 140//140 80//80 141//141 
f 141//141 80//80 78//78 
f 141//141 78//78 142//142 
f 142//142 78//78 76//76 
f 142//142 76//76 143//143 
f 143//143 76//76 74//74 
f 143//143 74//74 144//144 
f 144//144 74//74 107//107 
f 107//107 74//74 72//72 
f 127//127 144//144 126//126 
f 126//126 144//144 107//107 
f 126//126 107//107 125//125 
f 125//125 107//107 108//108 
f 125//125 108//108 124//124 
f 124//124 108//108 109//109 
f 124//124 109//109 123//123 
f 123//123 109//109 110//110 
f 123//123 110//110 122//122 
f 122//122 110//110 111//111 
f 122//122 111//111 121//121 
f 121//121 111//111 112//112 
f 121//121 112//112 120//120 
f 120//120 112//112 113//113 
f 120//120 113//113 119//119 
f 119//119 113//113 114//114 
f 119//119 114//114 118//118 
f 118//118 114//114 115//115 
f 118//118 115//115 117//117 
f 117//117 115//115 116//116 
f 144//144 127//127 143//143 
f 143//143 127//127 128//128 
f 143//143 128//128 142//142 
f 142//142 128//128 129//129 
f 142//142 129//129 141//141 
f 141//141 129//129 130//130 
f 141//141 130//130 140//140 
f 140//140 130//130 131//131 
f 140//140 131//131 139//139 
f 139//139 131//131 132//132 
f 139//139 132//132 138//138 
f 138//138 132//132 133//133 
f 138//138 133//133 137//137 
f 137//137 133//133 134//134 
f 137//137 134//134 136//136 
f 136//136 134//134 135//135 
