v -60.38006973 23.75 -63.89702606
v -60.38006973 20.29180336 -63.89702606
v -60.21995926 23.75 -63.9433136
v -60.21995926 20.29180336 -63.9433136
v -66.36338043 20.29180336 -85.19259644
v -66.36338043 23.75 -85.19259644
v -66.52153015 23.75 -85.139534
v -66.52153015 20.29180336 -85.139534
vn -0.9584907293 0.04814593866 0.2810294032
vn -0.9519492984 -0.09594866633 0.2908374667
vn 0.9636147022 0.04813346267 -0.2629256248
vn 0.9614174366 -0.0240902286 -0.2740367055
vn 0.9519451261 -0.0959789902 -0.2908411026
vn 0.9584912062 0.04813827947 -0.2810289562
vn -0.963614881 0.04810228571 0.262930721
vn -0.9614177346 -0.02408610471 0.2740361094
f 1//1 2//2 3//3 
f 3//3 2//2 4//4 
f 5//5 6//6 4//4 
f 4//4 6//6 3//3 
f 7//7 1//1 6//6 
f 6//6 1//1 3//3 
f 8//8 5//5 2//2 
f 2//2 5//5 4//4 
f 2//2 1//1 8//8 
f 8//8 1//1 7//7 
f 8//8 7//7 5//5 
f 5//5 7//7 6//6 
