v -84.63961792 30.25259399 -126.7162781
v -84.63961792 32.25259399 -126.7162781
v -84.63396454 30.25259399 -126.711998
v -84.63396454 32.25259399 -126.711998
v -85.90399933 30.25259399 -125.0347137
v -85.90399933 32.25259399 -125.0347137
v -85.90965271 30.25259399 -125.0389938
v -85.90965271 32.25259399 -125.0389938
v -84.8895874 30.25259399 -127.6940918
v -84.8895874 32.25259399 -127.6940918
v -86.2515564 32.25259399 -125.0210724
v -86.2515564 30.25259399 -125.0210724
vn 0.8934829831 -0.3854384124 -0.2304895222
vn 0.7443455458 0.6380243897 -0.1971664131
vn 0.8012833595 -0.003545314772 0.598274529
vn 0.7982523441 0.001772702788 0.6023205519
vn 0.7962139845 -0.003545388114 0.6050047278
vn 0.7931302786 0.007090488914 0.6090106964
vn 0.007035644259 -0.9640955925 0.2654622495
vn 0.02166788466 0.8806266189 0.473315239
vn -0.8035482168 -0.234598428 -0.5470592976
vn -0.3029429018 0.5385455489 -0.7862533331
vn -0.9102810025 0.07598379254 -0.406958133
vn -0.9558244944 -0.1611974537 -0.2457945049
f 1//1 2//2 3//3 
f 3//3 2//2 4//4 
f 3//3 4//4 5//5 
f 5//5 4//4 6//6 
f 5//5 6//6 7//7 
f 7//7 6//6 8//8 
f 9//9 10//10 1//1 
f 1//1 10//10 2//2 
f 11//11 8//8 10//10 
f 10//10 8//8 2//2 
f 2//2 8//8 6//6 
f 2//2 6//6 4//4 
f 12//12 11//11 9//9 
f 9//9 11//11 10//10 
f 12//12 9//9 7//7 
f 7//7 9//9 1//1 
f 7//7 1//1 5//5 
f 5//5 1//1 3//3 
f 7//7 8//8 12//12 
f 12//12 8//8 11//11 
