v -82.48500824 30.25259399 -130.944931
v -82.48500824 32.25259399 -130.944931
v -82.47935486 30.25259399 -130.9406586
v -82.47935486 32.25259399 -130.9406586
v -83.74938965 30.25259399 -129.263382
v -83.74938965 32.25259399 -129.263382
v -83.75504303 30.25259399 -129.2676544
v -83.75504303 32.25259399 -129.2676544
v -82.73497772 30.25259399 -131.92276
v -82.73497772 32.25259399 -131.92276
v -84.09694672 32.25259399 -129.2497406
v -84.09694672 30.25259399 -129.2497406
vn 0.8934852481 -0.3854344189 -0.2304874212
vn 0.7443459034 0.6380239725 -0.1971665025
vn 0.8012794852 -0.003543032566 0.5982797742
vn 0.7982503772 0.001771554002 0.6023231745
vn 0.7962133288 -0.003543080296 0.6050055623
vn 0.7931316495 0.007085843012 0.6090089679
vn 0.007041331381 -0.9640960097 0.2654604912
vn 0.02166253142 0.880628109 0.473312676
vn -0.8035467267 -0.2346013784 -0.5470601916
vn -0.3029302359 0.5385518074 -0.7862538695
vn -0.9102811813 0.0759845823 -0.4069575965
vn -0.9558246732 -0.1611984372 -0.2457931191
f 1//1 2//2 3//3 
f 3//3 2//2 4//4 
f 3//3 4//4 5//5 
f 5//5 4//4 6//6 
f 5//5 6//6 7//7 
f 7//7 6//6 8//8 
f 9//9 10//10 1//1 
f 1//1 10//10 2//2 
f 11//11 8//8 10//10 
f 10//10 8//8 2//2 
f 2//2 8//8 6//6 
f 2//2 6//6 4//4 
f 12//12 11//11 9//9 
f 9//9 11//11 10//10 
f 12//12 9//9 7//7 
f 7//7 9//9 1//1 
f 7//7 1//1 5//5 
f 5//5 1//1 3//3 
f 7//7 8//8 12//12 
f 12//12 8//8 11//11 
