v -55.79655838 16.95833397 -26.39546585
v -55.79655838 16.95833397 -25.82206345
v -55.85015488 16.95833397 -26.40043068
v -55.85015488 16.95833397 -25.81709862
v -55.90374756 16.95833397 -26.39546585
v -55.90374756 16.95833397 -25.82206345
v -55.95551682 16.95833397 -26.3807354
v -55.95551682 16.95833397 -25.8367939
v -56.00369644 16.95833397 -26.35674477
v -56.00369644 16.95833397 -25.86078453
v -56.04664612 16.95833397 -26.3243084
v -56.04664612 16.95833397 -25.8932209
v -56.08290863 16.95833397 -26.28453255
v -56.08290863 16.95833397 -25.93299675
v -56.1112442 16.95833397 -26.23877144
v -56.1112442 16.95833397 -25.97875786
v -56.13068771 16.95833397 -26.18858337
v -56.13068771 16.95833397 -26.02894592
v -56.14057541 16.95833397 -26.13567543
v -56.14057541 16.95833397 -26.08185387
v -55.74479294 16.95833397 -25.8367939
v -55.74479294 16.95833397 -26.3807354
v -55.6966095 16.95833397 -25.86078453
v -55.6966095 16.95833397 -26.35674477
v -55.65365982 16.95833397 -25.8932209
v -55.65365982 16.95833397 -26.3243084
v -55.61739731 16.95833397 -25.93299675
v -55.61739731 16.95833397 -26.28453255
v -55.58906555 16.95833397 -25.97875786
v -55.58906555 16.95833397 -26.23877144
v -55.56962204 16.95833397 -26.02894592
v -55.56962204 16.95833397 -26.18858337
v -55.55973053 16.95833397 -26.08185387
v -55.55973053 16.95833397 -26.13567543
v -55.85015488 16.1875 -26.40043068
v -55.79655838 16.1875 -26.39546585
v -55.74479294 16.1875 -26.3807354
v -55.6966095 16.1875 -26.35674477
v -55.65365982 16.1875 -26.3243084
v -55.61739731 16.1875 -26.28453255
v -55.58906555 16.1875 -26.23877144
v -55.56962204 16.1875 -26.18858337
v -55.55973053 16.1875 -26.13567543
v -55.55973053 16.1875 -26.08185387
v -55.56962204 16.1875 -26.02894592
v -55.58906555 16.1875 -25.97875786
v -55.61739731 16.1875 -25.93299675
v -55.65365982 16.1875 -25.8932209
v -55.6966095 16.1875 -25.86078453
v -55.74479294 16.1875 -25.8367939
v -55.79655838 16.1875 -25.82206345
v -55.85015488 16.1875 -25.81709862
v -55.90374756 16.1875 -25.82206345
v -55.95551682 16.1875 -25.8367939
v -56.00369644 16.1875 -25.86078453
v -56.04664612 16.1875 -25.8932209
v -56.08290863 16.1875 -25.93299675
v -56.1112442 16.1875 -25.97875786
v -56.13068771 16.1875 -26.02894592
v -56.14057541 16.1875 -26.08185387
v -56.14057541 16.1875 -26.13567543
v -56.13068771 16.1875 -26.18858337
v -56.1112442 16.1875 -26.23877144
v -56.08290863 16.1875 -26.28453255
v -56.04664612 16.1875 -26.3243084
v -56.00369644 16.1875 -26.35674477
v -55.95551682 16.1875 -26.3807354
v -55.90374756 16.1875 -26.39546585
v -55.90501785 16.16666603 -25.7799778
v -55.90501785 16.16666603 -26.4375515
v -55.85015488 16.16666603 -25.77543068
v -55.85015488 16.16666603 -26.44209862
v -55.79528809 16.16666603 -25.7799778
v -55.79528809 16.16666603 -26.4375515
v -55.74192047 16.16666603 -25.79349136
v -55.74192047 16.16666603 -26.42403793
v -55.69150543 16.16666603 -25.81560707
v -55.69150543 16.16666603 -26.40192223
v -55.64541626 16.16666603 -25.84571838
v -55.64541626 16.16666603 -26.37181091
v -55.6049118 16.16666603 -25.88300323
v -55.6049118 16.16666603 -26.33452606
v -55.57109833 16.16666603 -25.92644882
v -55.57109833 16.16666603 -26.29108047
v -55.54489517 16.16666603 -25.97486687
v -55.54489517 16.16666603 -26.24266243
v -55.5270195 16.16666603 -26.02693558
v -55.5270195 16.16666603 -26.19059372
v -55.51795959 16.16666603 -26.08123779
v -55.51795959 16.16666603 -26.1362915
v -55.95838547 16.16666603 -26.42403793
v -55.95838547 16.16666603 -25.79349136
v -56.00880432 16.16666603 -26.40192223
v -56.00880432 16.16666603 -25.81560707
v -56.05488968 16.16666603 -26.37181091
v -56.05488968 16.16666603 -25.84571838
v -56.09539413 16.16666603 -26.33452606
v -56.09539413 16.16666603 -25.88300323
v -56.12920761 16.16666603 -26.29108047
v -56.12920761 16.16666603 -25.92644882
v -56.15541077 16.16666603 -26.24266243
v -56.15541077 16.16666603 -25.97486687
v -56.17328644 16.16666603 -26.19059372
v -56.17328644 16.16666603 -26.02693558
v -56.18234634 16.16666603 -26.1362915
v -56.18234634 16.16666603 -26.08123779
v -55.85015488 17 -26.44209862
v -55.90501785 17 -26.4375515
v -55.95838547 17 -26.42403793
v -56.00880432 17 -26.40192223
v -56.05488968 17 -26.37181091
v -56.09539413 17 -26.33452606
v -56.12920761 17 -26.29108047
v -56.15541077 17 -26.24266243
v -56.17328644 17 -26.19059372
v -56.18234634 17 -26.1362915
v -56.18234634 17 -26.08123779
v -56.17328644 17 -26.02693558
v -56.15541077 17 -25.97486687
v -56.12920761 17 -25.92644882
v -56.09539413 17 -25.88300323
v -56.05488968 17 -25.84571838
v -56.00880432 17 -25.81560707
v -55.95838547 17 -25.79349136
v -55.90501785 17 -25.7799778
v -55.85015488 17 -25.77543068
v -55.79528809 17 -25.7799778
v -55.74192047 17 -25.79349136
v -55.69150543 17 -25.81560707
v -55.64541626 17 -25.84571838
v -55.6049118 17 -25.88300323
v -55.57109833 17 -25.92644882
v -55.54489517 17 -25.97486687
v -55.5270195 17 -26.02693558
v -55.51795959 17 -26.08123779
v -55.51795959 17 -26.1362915
v -55.5270195 17 -26.19059372
v -55.54489517 17 -26.24266243
v -55.57109833 17 -26.29108047
v -55.6049118 17 -26.33452606
v -55.64541626 17 -26.37181091
v -55.69150543 17 -26.40192223
v -55.74192047 17 -26.42403793
v -55.79528809 17 -26.4375515
vn -0.1247451827 -0.5812529325 0.8041042686
vn -0.1720862091 -0.5945296288 -0.7854430676
vn 0.02466653474 -0.6010836959 0.7988052964
vn -0.02466637082 -0.6010655761 -0.7988189459
vn 0.1720851064 -0.5945113897 0.7854571342
vn 0.1247461364 -0.5812709928 -0.8040910363
vn 0.32270661 -0.5611009598 0.7622507215
vn 0.2809992135 -0.5337431431 -0.7975949049
vn 0.4787405133 -0.4990401566 0.7223340273
vn 0.444673419 -0.4570328295 -0.7703158855
vn 0.6355356574 -0.4082242548 0.6553223729
vn 0.6085048914 -0.353749603 -0.7103400826
vn 0.7797993422 -0.2954102159 0.5519472361
vn 0.7570624948 -0.235720858 -0.6093373895
vn 0.8940402269 -0.1776546091 0.4112552404
vn 0.8741388917 -0.1242536753 -0.4695127308
vn 0.96684587 -0.07829386741 0.2430620044
vn 0.9520797133 -0.04201754183 -0.3029500842
vn 0.9979643822 -0.0170196481 0.06146061793
vn 0.9924052954 -0.004291852936 -0.1229360849
vn -0.3227044344 -0.5610826015 -0.7622651458
vn -0.2810017467 -0.5337609649 0.7975821495
vn -0.4787267745 -0.4990535676 -0.7223338485
vn -0.4446562231 -0.4570287168 0.7703282237
vn -0.6355356574 -0.4082242548 -0.6553223729
vn -0.6085048914 -0.353749603 0.7103400826
vn -0.7798212767 -0.2954081595 -0.5519174337
vn -0.7570763826 -0.2357068956 0.6093255281
vn -0.8940517902 -0.1776383817 -0.41123721
vn -0.8741590977 -0.1242486089 0.4694764912
vn -0.9668343663 -0.07829783112 -0.2431064099
vn -0.9520726204 -0.04202378914 0.3029715121
vn -0.9979628325 -0.01702618785 -0.06148423254
vn -0.9923995137 -0.004293483682 0.1229827926
vn -0.02466637082 0.6010655761 0.7988189459
vn -0.1720862091 0.5945296288 0.7854430676
vn -0.3227044344 0.5610826015 0.7622651458
vn -0.4787267745 0.4990535676 0.7223338485
vn -0.6355356574 0.4082242548 0.6553223729
vn -0.7798212767 0.2954081595 0.5519174337
vn -0.8940517902 0.1776383817 0.41123721
vn -0.9668343663 0.07829783112 0.2431064099
vn -0.9979628325 0.01702618785 0.06148423254
vn -0.9923995137 0.004293483682 -0.1229827926
vn -0.9520726204 0.04202378914 -0.3029715121
vn -0.8741590977 0.1242486089 -0.4694764912
vn -0.7570763826 0.2357068956 -0.6093255281
vn -0.6085048914 0.353749603 -0.7103400826
vn -0.4446562231 0.4570287168 -0.7703282237
vn -0.2810017467 0.5337609649 -0.7975821495
vn -0.1247451827 0.5812529325 -0.8041042686
vn 0.02466653474 0.6010836959 -0.7988052964
vn 0.1720851064 0.5945113897 -0.7854571342
vn 0.32270661 0.5611009598 -0.7622507215
vn 0.4787405133 0.4990401566 -0.7223340273
vn 0.6355356574 0.4082242548 -0.6553223729
vn 0.7797993422 0.2954102159 -0.5519472361
vn 0.8940402269 0.1776546091 -0.4112552404
vn 0.96684587 0.07829386741 -0.2430620044
vn 0.9979643822 0.0170196481 -0.06146061793
vn 0.9924052954 0.004291852936 0.1229360849
vn 0.9520797133 0.04201754183 0.3029500842
vn 0.8741388917 0.1242536753 0.4695127308
vn 0.7570624948 0.235720858 0.6093373895
vn 0.6085048914 0.353749603 0.7103400826
vn 0.444673419 0.4570328295 0.7703158855
vn 0.2809992135 0.5337431431 0.7975949049
vn 0.1247461364 0.5812709928 0.8040910363
vn -0.1428024471 -0.4972765744 0.8557590246
vn -0.1065032259 -0.7624414563 -0.6382319927
vn 0.02160559408 -0.6228045821 0.782079041
vn -0.02160570957 -0.6228221655 -0.7820650339
vn 0.1064987928 -0.7624454498 0.6382279396
vn 0.1427979171 -0.4972727001 -0.8557620049
vn 0.2407542914 -0.5910212398 0.7698904276
vn 0.2883391678 -0.5692314506 -0.7699584961
vn 0.3795880079 -0.541457355 0.7501578927
vn 0.4308577776 -0.5075516701 -0.7461587787
vn 0.52346313 -0.4675632119 0.7122997642
vn 0.5764096379 -0.4218623638 -0.6998457313
vn 0.6655064821 -0.3712726235 0.6475011706
vn 0.7152161598 -0.3171450198 -0.6228040457
vn 0.7931938171 -0.2613421381 0.5500398278
vn 0.8336584568 -0.2061017901 -0.5123823285
vn 0.8935682178 -0.1538058966 0.4217576981
vn 0.9212186933 -0.1067350879 -0.3741173148
vn 0.9601005316 -0.06686478108 0.2715438306
vn 0.9751887918 -0.03573905677 -0.2184708118
vn 0.9938229918 -0.01443937328 0.1100335419
vn 0.9984785318 -0.003634985304 -0.0550218448
vn -0.2407488078 -0.5910218954 -0.7698916197
vn -0.2883261442 -0.5692335963 0.7699617743
vn -0.3795794249 -0.5414598584 -0.7501604557
vn -0.4308669567 -0.5075498819 0.7461546659
vn -0.5234851241 -0.4675554931 -0.7122887373
vn -0.57642138 -0.421857655 0.6998389363
vn -0.6655064821 -0.3712726235 -0.6475011706
vn -0.7152161598 -0.3171450198 0.6228040457
vn -0.7931938171 -0.2613421381 -0.5500398278
vn -0.8336584568 -0.2061017901 0.5123823285
vn -0.8935682178 -0.1538058966 -0.4217576981
vn -0.9212186933 -0.1067350879 0.3741173148
vn -0.9601005316 -0.06686478108 -0.2715438306
vn -0.9751887918 -0.03573905677 0.2184708118
vn -0.9938229918 -0.01443937328 -0.1100335419
vn -0.9984785318 -0.003634985304 0.0550218448
vn 0.02160559408 0.6228045821 -0.782079041
vn -0.1428024471 0.4972765744 -0.8557590246
vn -0.2883261442 0.5692335963 -0.7699617743
vn -0.4308669567 0.5075498819 -0.7461546659
vn -0.57642138 0.421857655 -0.6998389363
vn -0.7152161598 0.3171450198 -0.6228040457
vn -0.8336584568 0.2061017901 -0.5123823285
vn -0.9212186933 0.1067350879 -0.3741173148
vn -0.9751887918 0.03573905677 -0.2184708118
vn -0.9984785318 0.003634985304 -0.0550218448
vn -0.9938229918 0.01443937328 0.1100335419
vn -0.9601005316 0.06686478108 0.2715438306
vn -0.8935682178 0.1538058966 0.4217576981
vn -0.7931938171 0.2613421381 0.5500398278
vn -0.6655064821 0.3712726235 0.6475011706
vn -0.5234851241 0.4675554931 0.7122887373
vn -0.3795794249 0.5414598584 0.7501604557
vn -0.2407488078 0.5910218954 0.7698916197
vn -0.1065032259 0.7624414563 0.6382319927
vn -0.02160570957 0.6228221655 0.7820650339
vn 0.1427979171 0.4972727001 0.8557620049
vn 0.2883391678 0.5692314506 0.7699584961
vn 0.4308577776 0.5075516701 0.7461587787
vn 0.5764096379 0.4218623638 0.6998457313
vn 0.7152161598 0.3171450198 0.6228040457
vn 0.8336584568 0.2061017901 0.5123823285
vn 0.9212186933 0.1067350879 0.3741173148
vn 0.9751887918 0.03573905677 0.2184708118
vn 0.9984785318 0.003634985304 0.0550218448
vn 0.9938229918 0.01443937328 -0.1100335419
vn 0.9601005316 0.06686478108 -0.2715438306
vn 0.8935682178 0.1538058966 -0.4217576981
vn 0.7931938171 0.2613421381 -0.5500398278
vn 0.6655064821 0.3712726235 -0.6475011706
vn 0.52346313 0.4675632119 -0.7122997642
vn 0.3795880079 0.541457355 -0.7501578927
vn 0.2407542914 0.5910212398 -0.7698904276
vn 0.1064987928 0.7624454498 -0.6382279396
f 1//1 2//2 3//3 
f 3//3 2//2 4//4 
f 3//3 4//4 5//5 
f 5//5 4//4 6//6 
f 5//5 6//6 7//7 
f 7//7 6//6 8//8 
f 7//7 8//8 9//9 
f 9//9 8//8 10//10 
f 9//9 10//10 11//11 
f 11//11 10//10 12//12 
f 11//11 12//12 13//13 
f 13//13 12//12 14//14 
f 13//13 14//14 15//15 
f 15//15 14//14 16//16 
f 15//15 16//16 17//17 
f 17//17 16//16 18//18 
f 17//17 18//18 19//19 
f 19//19 18//18 20//20 
f 2//2 1//1 21//21 
f 21//21 1//1 22//22 
f 21//21 22//22 23//23 
f 23//23 22//22 24//24 
f 23//23 24//24 25//25 
f 25//25 24//24 26//26 
f 25//25 26//26 27//27 
f 27//27 26//26 28//28 
f 27//27 28//28 29//29 
f 29//29 28//28 30//30 
f 29//29 30//30 31//31 
f 31//31 30//30 32//32 
f 31//31 32//32 33//33 
f 33//33 32//32 34//34 
f 3//3 35//35 1//1 
f 1//1 35//35 36//36 
f 1//1 36//36 22//22 
f 22//22 36//36 37//37 
f 22//22 37//37 24//24 
f 24//24 37//37 38//38 
f 24//24 38//38 26//26 
f 26//26 38//38 39//39 
f 26//26 39//39 28//28 
f 28//28 39//39 40//40 
f 28//28 40//40 30//30 
f 30//30 40//40 41//41 
f 30//30 41//41 32//32 
f 32//32 41//41 42//42 
f 32//32 42//42 34//34 
f 34//34 42//42 43//43 
f 34//34 43//43 33//33 
f 33//33 43//43 44//44 
f 33//33 44//44 31//31 
f 31//31 44//44 45//45 
f 31//31 45//45 29//29 
f 29//29 45//45 46//46 
f 29//29 46//46 27//27 
f 27//27 46//46 47//47 
f 27//27 47//47 25//25 
f 25//25 47//47 48//48 
f 25//25 48//48 23//23 
f 23//23 48//48 49//49 
f 23//23 49//49 21//21 
f 21//21 49//49 50//50 
f 21//21 50//50 2//2 
f 2//2 50//50 51//51 
f 2//2 51//51 4//4 
f 4//4 51//51 52//52 
f 4//4 52//52 6//6 
f 6//6 52//52 53//53 
f 6//6 53//53 8//8 
f 8//8 53//53 54//54 
f 8//8 54//54 10//10 
f 10//10 54//54 55//55 
f 10//10 55//55 12//12 
f 12//12 55//55 56//56 
f 12//12 56//56 14//14 
f 14//14 56//56 57//57 
f 14//14 57//57 16//16 
f 16//16 57//57 58//58 
f 16//16 58//58 18//18 
f 18//18 58//58 59//59 
f 18//18 59//59 20//20 
f 20//20 59//59 60//60 
f 20//20 60//60 19//19 
f 19//19 60//60 61//61 
f 19//19 61//61 17//17 
f 17//17 61//61 62//62 
f 17//17 62//62 15//15 
f 15//15 62//62 63//63 
f 15//15 63//63 13//13 
f 13//13 63//63 64//64 
f 13//13 64//64 11//11 
f 11//11 64//64 65//65 
f 11//11 65//65 9//9 
f 9//9 65//65 66//66 
f 9//9 66//66 7//7 
f 7//7 66//66 67//67 
f 7//7 67//67 5//5 
f 5//5 67//67 68//68 
f 5//5 68//68 3//3 
f 3//3 68//68 35//35 
f 68//68 53//53 35//35 
f 35//35 53//53 52//52 
f 35//35 52//52 36//36 
f 36//36 52//52 51//51 
f 36//36 51//51 37//37 
f 37//37 51//51 50//50 
f 37//37 50//50 38//38 
f 38//38 50//50 49//49 
f 38//38 49//49 39//39 
f 39//39 49//49 48//48 
f 39//39 48//48 40//40 
f 40//40 48//48 47//47 
f 40//40 47//47 41//41 
f 41//41 47//47 46//46 
f 41//41 46//46 42//42 
f 42//42 46//46 45//45 
f 42//42 45//45 43//43 
f 43//43 45//45 44//44 
f 53//53 68//68 54//54 
f 54//54 68//68 67//67 
f 54//54 67//67 55//55 
f 55//55 67//67 66//66 
f 55//55 66//66 56//56 
f 56//56 66//66 65//65 
f 56//56 65//65 57//57 
f 57//57 65//65 64//64 
f 57//57 64//64 58//58 
f 58//58 64//64 63//63 
f 58//58 63//63 59//59 
f 59//59 63//63 62//62 
f 59//59 62//62 60//60 
f 60//60 62//62 61//61 
f 69//69 70//70 71//71 
f 71//71 70//70 72//72 
f 71//71 72//72 73//73 
f 73//73 72//72 74//74 
f 73//73 74//74 75//75 
f 75//75 74//74 76//76 
f 75//75 76//76 77//77 
f 77//77 76//76 78//78 
f 77//77 78//78 79//79 
f 79//79 78//78 80//80 
f 79//79 80//80 81//81 
f 81//81 80//80 82//82 
f 81//81 82//82 83//83 
f 83//83 82//82 84//84 
f 83//83 84//84 85//85 
f 85//85 84//84 86//86 
f 85//85 86//86 87//87 
f 87//87 86//86 88//88 
f 87//87 88//88 89//89 
f 89//89 88//88 90//90 
f 70//70 69//69 91//91 
f 91//91 69//69 92//92 
f 91//91 92//92 93//93 
f 93//93 92//92 94//94 
f 93//93 94//94 95//95 
f 95//95 94//94 96//96 
f 95//95 96//96 97//97 
f 97//97 96//96 98//98 
f 97//97 98//98 99//99 
f 99//99 98//98 100//100 
f 99//99 100//100 101//101 
f 101//101 100//100 102//102 
f 101//101 102//102 103//103 
f 103//103 102//102 104//104 
f 103//103 104//104 105//105 
f 105//105 104//104 106//106 
f 107//107 72//72 108//108 
f 108//108 72//72 70//70 
f 108//108 70//70 91//91 
f 108//108 91//91 109//109 
f 109//109 91//91 93//93 
f 109//109 93//93 110//110 
f 110//110 93//93 95//95 
f 110//110 95//95 111//111 
f 111//111 95//95 97//97 
f 111//111 97//97 112//112 
f 112//112 97//97 99//99 
f 112//112 99//99 113//113 
f 113//113 99//99 101//101 
f 113//113 101//101 114//114 
f 114//114 101//101 103//103 
f 114//114 103//103 115//115 
f 115//115 103//103 105//105 
f 115//115 105//105 116//116 
f 116//116 105//105 106//106 
f 116//116 106//106 117//117 
f 117//117 106//106 104//104 
f 117//117 104//104 118//118 
f 118//118 104//104 102//102 
f 118//118 102//102 119//119 
f 119//119 102//102 100//100 
f 119//119 100//100 120//120 
f 120//120 100//100 98//98 
f 120//120 98//98 121//121 
f 121//121 98//98 96//96 
f 121//121 96//96 122//122 
f 122//122 96//96 94//94 
f 122//122 94//94 123//123 
f 123//123 94//94 92//92 
f 123//123 92//92 124//124 
f 124//124 92//92 69//69 
f 124//124 69//69 125//125 
f 125//125 69//69 126//126 
f 126//126 69//69 71//71 
f 126//126 71//71 127//127 
f 127//127 71//71 73//73 
f 127//127 73//73 75//75 
f 127//127 75//75 128//128 
f 128//128 75//75 77//77 
f 128//128 77//77 129//129 
f 129//129 77//77 79//79 
f 129//129 79//79 130//130 
f 130//130 79//79 81//81 
f 130//130 81//81 131//131 
f 131//131 81//81 83//83 
f 131//131 83//83 132//132 
f 132//132 83//83 85//85 
f 132//132 85//85 133//133 
f 133//133 85//85 87//87 
f 133//133 87//87 134//134 
f 134//134 87//87 89//89 
f 134//134 89//89 135//135 
f 135//135 89//89 90//90 
f 135//135 90//90 136//136 
f 136//136 90//90 88//88 
f 136//136 88//88 137//137 
f 137//137 88//88 86//86 
f 137//137 86//86 138//138 
f 138//138 86//86 84//84 
f 138//138 84//84 139//139 
f 139//139 84//84 82//82 
f 139//139 82//82 140//140 
f 140//140 82//82 80//80 
f 140//140 80//80 141//141 
f 141//141 80//80 78//78 
f 141//141 78//78 142//142 
f 142//142 78//78 76//76 
f 142//142 76//76 143//143 
f 143//143 76//76 74//74 
f 143//143 74//74 144//144 
f 144//144 74//74 107//107 
f 107//107 74//74 72//72 
f 127//127 144//144 126//126 
f 126//126 144//144 107//107 
f 126//126 107//107 125//125 
f 125//125 107//107 108//108 
f 125//125 108//108 124//124 
f 124//124 108//108 109//109 
f 124//124 109//109 123//123 
f 123//123 109//109 110//110 
f 123//123 110//110 122//122 
f 122//122 110//110 111//111 
f 122//122 111//111 121//121 
f 121//121 111//111 112//112 
f 121//121 112//112 120//120 
f 120//120 112//112 113//113 
f 120//120 113//113 119//119 
f 119//119 113//113 114//114 
f 119//119 114//114 118//118 
f 118//118 114//114 115//115 
f 118//118 115//115 117//117 
f 117//117 115//115 116//116 
f 144//144 127//127 143//143 
f 143//143 127//127 128//128 
f 143//143 128//128 142//142 
f 142//142 128//128 129//129 
f 142//142 129//129 141//141 
f 141//141 129//129 130//130 
f 141//141 130//130 140//140 
f 140//140 130//130 131//131 
f 140//140 131//131 139//139 
f 139//139 131//131 132//132 
f 139//139 132//132 138//138 
f 138//138 132//132 133//133 
f 138//138 133//133 137//137 
f 137//137 133//133 134//134 
f 137//137 134//134 136//136 
f 136//136 134//134 135//135 
