v -34.06615829 16.95833397 -133.3950195
v -34.06615829 16.95833397 -132.8216248
v -34.11975479 16.95833397 -133.3999939
v -34.11975479 16.95833397 -132.8166504
v -34.17334747 16.95833397 -133.3950195
v -34.17334747 16.95833397 -132.8216248
v -34.22511673 16.95833397 -133.3802948
v -34.22511673 16.95833397 -132.8363495
v -34.27329636 16.95833397 -133.356308
v -34.27329636 16.95833397 -132.8603516
v -34.31624603 16.95833397 -133.3238678
v -34.31624603 16.95833397 -132.8927765
v -34.35250854 16.95833397 -133.2840881
v -34.35250854 16.95833397 -132.9325562
v -34.38084412 16.95833397 -133.238327
v -34.38084412 16.95833397 -132.9783173
v -34.40028381 16.95833397 -133.1881409
v -34.40028381 16.95833397 -133.0285034
v -34.41017532 16.95833397 -133.1352386
v -34.41017532 16.95833397 -133.0814056
v -34.01439285 16.95833397 -132.8363495
v -34.01439285 16.95833397 -133.3802948
v -33.96620941 16.95833397 -132.8603516
v -33.96620941 16.95833397 -133.356308
v -33.92325974 16.95833397 -132.8927765
v -33.92325974 16.95833397 -133.3238678
v -33.88699722 16.95833397 -132.9325562
v -33.88699722 16.95833397 -133.2840881
v -33.85866547 16.95833397 -132.9783173
v -33.85866547 16.95833397 -133.238327
v -33.83922195 16.95833397 -133.0285034
v -33.83922195 16.95833397 -133.1881409
v -33.82933044 16.95833397 -133.0814056
v -33.82933044 16.95833397 -133.1352386
v -34.11975479 16.1875 -133.3999939
v -34.06615829 16.1875 -133.3950195
v -34.01439285 16.1875 -133.3802948
v -33.96620941 16.1875 -133.356308
v -33.92325974 16.1875 -133.3238678
v -33.88699722 16.1875 -133.2840881
v -33.85866547 16.1875 -133.238327
v -33.83922195 16.1875 -133.1881409
v -33.82933044 16.1875 -133.1352386
v -33.82933044 16.1875 -133.0814056
v -33.83922195 16.1875 -133.0285034
v -33.85866547 16.1875 -132.9783173
v -33.88699722 16.1875 -132.9325562
v -33.92325974 16.1875 -132.8927765
v -33.96620941 16.1875 -132.8603516
v -34.01439285 16.1875 -132.8363495
v -34.06615829 16.1875 -132.8216248
v -34.11975479 16.1875 -132.8166504
v -34.17334747 16.1875 -132.8216248
v -34.22511673 16.1875 -132.8363495
v -34.27329636 16.1875 -132.8603516
v -34.31624603 16.1875 -132.8927765
v -34.35250854 16.1875 -132.9325562
v -34.38084412 16.1875 -132.9783173
v -34.40028381 16.1875 -133.0285034
v -34.41017532 16.1875 -133.0814056
v -34.41017532 16.1875 -133.1352386
v -34.40028381 16.1875 -133.1881409
v -34.38084412 16.1875 -133.238327
v -34.35250854 16.1875 -133.2840881
v -34.31624603 16.1875 -133.3238678
v -34.27329636 16.1875 -133.356308
v -34.22511673 16.1875 -133.3802948
v -34.17334747 16.1875 -133.3950195
v -34.17461777 16.16666603 -132.779541
v -34.17461777 16.16666603 -133.4371185
v -34.11975479 16.16666603 -132.7749939
v -34.11975479 16.16666603 -133.4416504
v -34.064888 16.16666603 -132.779541
v -34.064888 16.16666603 -133.4371185
v -34.01152039 16.16666603 -132.793045
v -34.01152039 16.16666603 -133.4235992
v -33.96110535 16.16666603 -132.8151703
v -33.96110535 16.16666603 -133.4014893
v -33.91501617 16.16666603 -132.8452759
v -33.91501617 16.16666603 -133.3713684
v -33.87451172 16.16666603 -132.8825684
v -33.87451172 16.16666603 -133.3340912
v -33.84069824 16.16666603 -132.9260101
v -33.84069824 16.16666603 -133.2906342
v -33.81449509 16.16666603 -132.9744263
v -33.81449509 16.16666603 -133.242218
v -33.79661942 16.16666603 -133.0264893
v -33.79661942 16.16666603 -133.190155
v -33.78755951 16.16666603 -133.0807953
v -33.78755951 16.16666603 -133.135849
v -34.22798538 16.16666603 -133.4235992
v -34.22798538 16.16666603 -132.793045
v -34.27840042 16.16666603 -133.4014893
v -34.27840042 16.16666603 -132.8151703
v -34.32448959 16.16666603 -133.3713684
v -34.32448959 16.16666603 -132.8452759
v -34.36499405 16.16666603 -133.3340912
v -34.36499405 16.16666603 -132.8825684
v -34.39880753 16.16666603 -133.2906342
v -34.39880753 16.16666603 -132.9260101
v -34.42501068 16.16666603 -133.242218
v -34.42501068 16.16666603 -132.9744263
v -34.44288635 16.16666603 -133.190155
v -34.44288635 16.16666603 -133.0264893
v -34.45194626 16.16666603 -133.135849
v -34.45194626 16.16666603 -133.0807953
v -34.11975479 17 -133.4416504
v -34.17461777 17 -133.4371185
v -34.22798538 17 -133.4235992
v -34.27840042 17 -133.4014893
v -34.32448959 17 -133.3713684
v -34.36499405 17 -133.3340912
v -34.39880753 17 -133.2906342
v -34.42501068 17 -133.242218
v -34.44288635 17 -133.190155
v -34.45194626 17 -133.135849
v -34.45194626 17 -133.0807953
v -34.44288635 17 -133.0264893
v -34.42501068 17 -132.9744263
v -34.39880753 17 -132.9260101
v -34.36499405 17 -132.8825684
v -34.32448959 17 -132.8452759
v -34.27840042 17 -132.8151703
v -34.22798538 17 -132.793045
v -34.17461777 17 -132.779541
v -34.11975479 17 -132.7749939
v -34.064888 17 -132.779541
v -34.01152039 17 -132.793045
v -33.96110535 17 -132.8151703
v -33.91501617 17 -132.8452759
v -33.87451172 17 -132.8825684
v -33.84069824 17 -132.9260101
v -33.81449509 17 -132.9744263
v -33.79661942 17 -133.0264893
v -33.78755951 17 -133.0807953
v -33.78755951 17 -133.135849
v -33.79661942 17 -133.190155
v -33.81449509 17 -133.242218
v -33.84069824 17 -133.2906342
v -33.87451172 17 -133.3340912
v -33.91501617 17 -133.3713684
v -33.96110535 17 -133.4014893
v -34.01152039 17 -133.4235992
v -34.064888 17 -133.4371185
vn -0.1248119622 -0.5812454224 0.8040993214
vn -0.1720770895 -0.5945298076 -0.7854449749
vn 0.02471380867 -0.6010863781 0.7988018394
vn -0.02471364476 -0.6010682583 -0.7988154888
vn 0.1720759869 -0.5945115685 0.785458982
vn 0.1248129085 -0.5812634826 -0.8040861487
vn 0.3226450682 -0.5611133575 0.7622676492
vn 0.2809990048 -0.5337441564 -0.7975943685
vn 0.4787566364 -0.499034375 0.7223273516
vn 0.4447244704 -0.4570189416 -0.7702946663
vn 0.6355741024 -0.408208251 0.655295074
vn 0.6084347367 -0.3537745476 -0.7103877068
vn 0.7798084617 -0.2954042256 0.5519376397
vn 0.7570827007 -0.2357100099 -0.6093165278
vn 0.8940543532 -0.1776518673 0.4112257957
vn 0.8741473556 -0.124242276 -0.469500035
vn 0.9668355584 -0.07829116285 0.2431038618
vn 0.9520809054 -0.04202277586 -0.3029456139
vn 0.9979632497 -0.01702528633 0.06147768348
vn 0.9923995137 -0.004294396844 -0.1229827926
vn -0.3227835894 -0.5610665083 -0.7622435093
vn -0.2809276581 -0.5337739587 0.7975995541
vn -0.4786795378 -0.4990674257 -0.7223556042
vn -0.4446395636 -0.4570319653 0.7703359127
vn -0.6355224848 -0.408230722 -0.6553311348
vn -0.6085464954 -0.353736341 0.7103109956
vn -0.7798303366 -0.2954021692 -0.5519077778
vn -0.7570965886 -0.2356960475 0.6093046665
vn -0.8940474391 -0.1776398569 -0.4112459421
vn -0.8741564751 -0.124248445 0.4694814086
vn -0.9668290019 -0.07830350101 -0.2431258708
vn -0.9520670176 -0.04202707112 0.3029885888
vn -0.9979632497 -0.01702528633 -0.06147768348
vn -0.9923995137 -0.004294396844 0.1229827926
vn -0.02471364476 0.6010682583 0.7988154888
vn -0.1720770895 0.5945298076 0.7854449749
vn -0.3226428926 0.5610949397 0.7622821331
vn -0.4787428975 0.499047786 0.7223271728
vn -0.6355741024 0.408208251 0.655295074
vn -0.7798303366 0.2954021692 0.5519077778
vn -0.8940474391 0.1776398569 0.4112459421
vn -0.9668290019 0.07830350101 0.2431258708
vn -0.9979632497 0.01702528633 0.06147768348
vn -0.9923995137 0.004294396844 -0.1229827926
vn -0.9520670176 0.04202707112 -0.3029885888
vn -0.8741564751 0.124248445 -0.4694814086
vn -0.7570965886 0.2356960475 -0.6093046665
vn -0.6084347367 0.3537745476 -0.7103877068
vn -0.4447072446 0.4570148289 -0.7703070045
vn -0.2810015678 0.5337619185 -0.7975815535
vn -0.1248119622 0.5812454224 -0.8040993214
vn 0.02471380867 0.6010863781 -0.7988018394
vn 0.1720759869 0.5945115685 -0.785458982
vn 0.3227857649 0.5610849261 -0.7622290254
vn 0.4786932468 0.4990540147 -0.722355783
vn 0.6355224848 0.408230722 -0.6553311348
vn 0.7798084617 0.2954042256 -0.5519376397
vn 0.8940543532 0.1776518673 -0.4112257957
vn 0.9668355584 0.07829116285 -0.2431038618
vn 0.9979632497 0.01702528633 -0.06147768348
vn 0.9923995137 0.004294396844 0.1229827926
vn 0.9520809054 0.04202277586 0.3029456139
vn 0.8741473556 0.124242276 0.469500035
vn 0.7570827007 0.2357100099 0.6093165278
vn 0.6085464954 0.353736341 0.7103109956
vn 0.4446567595 0.457036078 0.7703235745
vn 0.2809251249 0.5337561369 0.7976123095
vn 0.1248129085 0.5812634826 0.8040861487
vn -0.1427282989 -0.4972848594 0.8557665348
vn -0.1064477488 -0.7624453902 -0.6382365823
vn 0.02160567604 -0.6228009462 0.7820819616
vn -0.02153331973 -0.6228195429 -0.7820691466
vn 0.1064433157 -0.7624493837 0.6382325292
vn 0.1427237689 -0.4972809851 -0.8557695746
vn 0.2407094389 -0.5910316706 0.7698964477
vn 0.2883120179 -0.5692401528 -0.7699622512
vn 0.3796454072 -0.5414465666 0.7501366138
vn 0.4309141636 -0.5075380802 -0.7461354136
vn 0.5234479904 -0.4675691128 0.7123070359
vn 0.5763885975 -0.421870023 -0.699858427
vn 0.6655424237 -0.3712566793 0.6474733949
vn 0.7152594924 -0.3171234727 -0.6227652431
vn 0.79317379 -0.2613507211 0.550064683
vn 0.8336729407 -0.206090197 -0.5123633742
vn 0.8935570717 -0.1538111866 0.4217794538
vn 0.9212064743 -0.1067427918 -0.3741451204
vn 0.9600968361 -0.06686874479 0.2715558708
vn 0.9751893282 -0.03574014828 -0.2184683383
vn 0.9938235283 -0.01443921216 0.1100284755
vn 0.9984785914 -0.003634901252 -0.05502057448
vn -0.2407798618 -0.5910210609 -0.7698825598
vn -0.2883818746 -0.5692276359 0.7699453235
vn -0.3795787096 -0.5414626002 -0.7501587868
vn -0.4308491349 -0.5075555444 0.7461611032
vn -0.5235074759 -0.4675490558 -0.7122765183
vn -0.5764447451 -0.4218495786 0.6998245716
vn -0.665494442 -0.3712779582 -0.647510469
vn -0.7152165771 -0.3171434104 0.6228044033
vn -0.7932400703 -0.261313647 -0.5499866605
vn -0.8336452842 -0.2061057836 0.5124021173
vn -0.8935570717 -0.1538111866 -0.4217794538
vn -0.9212064743 -0.1067427918 0.3741451204
vn -0.9600968361 -0.06686874479 -0.2715558708
vn -0.9751893282 -0.03574014828 0.2184683383
vn -0.9938235283 -0.01443921216 -0.1100284755
vn -0.9984785914 -0.003634901252 0.05502057448
vn 0.02153320611 0.6228019595 -0.7820831537
vn -0.1427282989 0.4972848594 -0.8557665348
vn -0.2883120179 0.5692401528 -0.7699622512
vn -0.4309141636 0.5075380802 -0.7461354136
vn -0.5763885975 0.421870023 -0.699858427
vn -0.7152594924 0.3171234727 -0.6227652431
vn -0.8336729407 0.206090197 -0.5123633742
vn -0.9212064743 0.1067427918 -0.3741451204
vn -0.9751893282 0.03574014828 -0.2184683383
vn -0.9984785914 0.003634901252 -0.05502057448
vn -0.9938235283 0.01443921216 0.1100284755
vn -0.9600968361 0.06686874479 0.2715558708
vn -0.8935570717 0.1538111866 0.4217794538
vn -0.79317379 0.2613507211 0.550064683
vn -0.6655424237 0.3712566793 0.6474733949
vn -0.5234479904 0.4675691128 0.7123070359
vn -0.3796454072 0.5414465666 0.7501366138
vn -0.2407094389 0.5910316706 0.7698964477
vn -0.1064477488 0.7624453902 0.6382365823
vn -0.02160578966 0.6228185296 0.7820679545
vn 0.1427237689 0.4972809851 0.8557695746
vn 0.2883818746 0.5692276359 0.7699453235
vn 0.4308491349 0.5075555444 0.7461611032
vn 0.5764447451 0.4218495786 0.6998245716
vn 0.7152165771 0.3171434104 0.6228044033
vn 0.8336452842 0.2061057836 0.5124021173
vn 0.9212064743 0.1067427918 0.3741451204
vn 0.9751893282 0.03574014828 0.2184683383
vn 0.9984785914 0.003634901252 0.05502057448
vn 0.9938235283 0.01443921216 -0.1100284755
vn 0.9600968361 0.06686874479 -0.2715558708
vn 0.8935570717 0.1538111866 -0.4217794538
vn 0.7932400703 0.261313647 -0.5499866605
vn 0.665494442 0.3712779582 -0.647510469
vn 0.5235074759 0.4675490558 -0.7122765183
vn 0.3795787096 0.5414626002 -0.7501587868
vn 0.2407798618 0.5910210609 -0.7698825598
vn 0.1064433157 0.7624493837 -0.6382325292
f 1//1 2//2 3//3 
f 3//3 2//2 4//4 
f 3//3 4//4 5//5 
f 5//5 4//4 6//6 
f 5//5 6//6 7//7 
f 7//7 6//6 8//8 
f 7//7 8//8 9//9 
f 9//9 8//8 10//10 
f 9//9 10//10 11//11 
f 11//11 10//10 12//12 
f 11//11 12//12 13//13 
f 13//13 12//12 14//14 
f 13//13 14//14 15//15 
f 15//15 14//14 16//16 
f 15//15 16//16 17//17 
f 17//17 16//16 18//18 
f 17//17 18//18 19//19 
f 19//19 18//18 20//20 
f 2//2 1//1 21//21 
f 21//21 1//1 22//22 
f 21//21 22//22 23//23 
f 23//23 22//22 24//24 
f 23//23 24//24 25//25 
f 25//25 24//24 26//26 
f 25//25 26//26 27//27 
f 27//27 26//26 28//28 
f 27//27 28//28 29//29 
f 29//29 28//28 30//30 
f 29//29 30//30 31//31 
f 31//31 30//30 32//32 
f 31//31 32//32 33//33 
f 33//33 32//32 34//34 
f 3//3 35//35 1//1 
f 1//1 35//35 36//36 
f 1//1 36//36 22//22 
f 22//22 36//36 37//37 
f 22//22 37//37 24//24 
f 24//24 37//37 38//38 
f 24//24 38//38 26//26 
f 26//26 38//38 39//39 
f 26//26 39//39 28//28 
f 28//28 39//39 40//40 
f 28//28 40//40 30//30 
f 30//30 40//40 41//41 
f 30//30 41//41 32//32 
f 32//32 41//41 42//42 
f 32//32 42//42 34//34 
f 34//34 42//42 43//43 
f 34//34 43//43 33//33 
f 33//33 43//43 44//44 
f 33//33 44//44 31//31 
f 31//31 44//44 45//45 
f 31//31 45//45 29//29 
f 29//29 45//45 46//46 
f 29//29 46//46 27//27 
f 27//27 46//46 47//47 
f 27//27 47//47 25//25 
f 25//25 47//47 48//48 
f 25//25 48//48 23//23 
f 23//23 48//48 49//49 
f 23//23 49//49 21//21 
f 21//21 49//49 50//50 
f 21//21 50//50 2//2 
f 2//2 50//50 51//51 
f 2//2 51//51 4//4 
f 4//4 51//51 52//52 
f 4//4 52//52 6//6 
f 6//6 52//52 53//53 
f 6//6 53//53 8//8 
f 8//8 53//53 54//54 
f 8//8 54//54 10//10 
f 10//10 54//54 55//55 
f 10//10 55//55 12//12 
f 12//12 55//55 56//56 
f 12//12 56//56 14//14 
f 14//14 56//56 57//57 
f 14//14 57//57 16//16 
f 16//16 57//57 58//58 
f 16//16 58//58 18//18 
f 18//18 58//58 59//59 
f 18//18 59//59 20//20 
f 20//20 59//59 60//60 
f 20//20 60//60 19//19 
f 19//19 60//60 61//61 
f 19//19 61//61 17//17 
f 17//17 61//61 62//62 
f 17//17 62//62 15//15 
f 15//15 62//62 63//63 
f 15//15 63//63 13//13 
f 13//13 63//63 64//64 
f 13//13 64//64 11//11 
f 11//11 64//64 65//65 
f 11//11 65//65 9//9 
f 9//9 65//65 66//66 
f 9//9 66//66 7//7 
f 7//7 66//66 67//67 
f 7//7 67//67 5//5 
f 5//5 67//67 68//68 
f 5//5 68//68 3//3 
f 3//3 68//68 35//35 
f 68//68 53//53 35//35 
f 35//35 53//53 52//52 
f 35//35 52//52 36//36 
f 36//36 52//52 51//51 
f 36//36 51//51 37//37 
f 37//37 51//51 50//50 
f 37//37 50//50 38//38 
f 38//38 50//50 49//49 
f 38//38 49//49 39//39 
f 39//39 49//49 48//48 
f 39//39 48//48 40//40 
f 40//40 48//48 47//47 
f 40//40 47//47 41//41 
f 41//41 47//47 46//46 
f 41//41 46//46 42//42 
f 42//42 46//46 45//45 
f 42//42 45//45 43//43 
f 43//43 45//45 44//44 
f 53//53 68//68 54//54 
f 54//54 68//68 67//67 
f 54//54 67//67 55//55 
f 55//55 67//67 66//66 
f 55//55 66//66 56//56 
f 56//56 66//66 65//65 
f 56//56 65//65 57//57 
f 57//57 65//65 64//64 
f 57//57 64//64 58//58 
f 58//58 64//64 63//63 
f 58//58 63//63 59//59 
f 59//59 63//63 62//62 
f 59//59 62//62 60//60 
f 60//60 62//62 61//61 
f 69//69 70//70 71//71 
f 71//71 70//70 72//72 
f 71//71 72//72 73//73 
f 73//73 72//72 74//74 
f 73//73 74//74 75//75 
f 75//75 74//74 76//76 
f 75//75 76//76 77//77 
f 77//77 76//76 78//78 
f 77//77 78//78 79//79 
f 79//79 78//78 80//80 
f 79//79 80//80 81//81 
f 81//81 80//80 82//82 
f 81//81 82//82 83//83 
f 83//83 82//82 84//84 
f 83//83 84//84 85//85 
f 85//85 84//84 86//86 
f 85//85 86//86 87//87 
f 87//87 86//86 88//88 
f 87//87 88//88 89//89 
f 89//89 88//88 90//90 
f 70//70 69//69 91//91 
f 91//91 69//69 92//92 
f 91//91 92//92 93//93 
f 93//93 92//92 94//94 
f 93//93 94//94 95//95 
f 95//95 94//94 96//96 
f 95//95 96//96 97//97 
f 97//97 96//96 98//98 
f 97//97 98//98 99//99 
f 99//99 98//98 100//100 
f 99//99 100//100 101//101 
f 101//101 100//100 102//102 
f 101//101 102//102 103//103 
f 103//103 102//102 104//104 
f 103//103 104//104 105//105 
f 105//105 104//104 106//106 
f 107//107 72//72 108//108 
f 108//108 72//72 70//70 
f 108//108 70//70 91//91 
f 108//108 91//91 109//109 
f 109//109 91//91 93//93 
f 109//109 93//93 110//110 
f 110//110 93//93 95//95 
f 110//110 95//95 111//111 
f 111//111 95//95 97//97 
f 111//111 97//97 112//112 
f 112//112 97//97 99//99 
f 112//112 99//99 113//113 
f 113//113 99//99 101//101 
f 113//113 101//101 114//114 
f 114//114 101//101 103//103 
f 114//114 103//103 115//115 
f 115//115 103//103 105//105 
f 115//115 105//105 116//116 
f 116//116 105//105 106//106 
f 116//116 106//106 117//117 
f 117//117 106//106 104//104 
f 117//117 104//104 118//118 
f 118//118 104//104 102//102 
f 118//118 102//102 119//119 
f 119//119 102//102 100//100 
f 119//119 100//100 120//120 
f 120//120 100//100 98//98 
f 120//120 98//98 121//121 
f 121//121 98//98 96//96 
f 121//121 96//96 122//122 
f 122//122 96//96 94//94 
f 122//122 94//94 123//123 
f 123//123 94//94 92//92 
f 123//123 92//92 124//124 
f 124//124 92//92 69//69 
f 124//124 69//69 125//125 
f 125//125 69//69 126//126 
f 126//126 69//69 71//71 
f 126//126 71//71 127//127 
f 127//127 71//71 73//73 
f 127//127 73//73 75//75 
f 127//127 75//75 128//128 
f 128//128 75//75 77//77 
f 128//128 77//77 129//129 
f 129//129 77//77 79//79 
f 129//129 79//79 130//130 
f 130//130 79//79 81//81 
f 130//130 81//81 131//131 
f 131//131 81//81 83//83 
f 131//131 83//83 132//132 
f 132//132 83//83 85//85 
f 132//132 85//85 133//133 
f 133//133 85//85 87//87 
f 133//133 87//87 134//134 
f 134//134 87//87 89//89 
f 134//134 89//89 135//135 
f 135//135 89//89 90//90 
f 135//135 90//90 136//136 
f 136//136 90//90 88//88 
f 136//136 88//88 137//137 
f 137//137 88//88 86//86 
f 137//137 86//86 138//138 
f 138//138 86//86 84//84 
f 138//138 84//84 139//139 
f 139//139 84//84 82//82 
f 139//139 82//82 140//140 
f 140//140 82//82 80//80 
f 140//140 80//80 141//141 
f 141//141 80//80 78//78 
f 141//141 78//78 142//142 
f 142//142 78//78 76//76 
f 142//142 76//76 143//143 
f 143//143 76//76 74//74 
f 143//143 74//74 144//144 
f 144//144 74//74 107//107 
f 107//107 74//74 72//72 
f 127//127 144//144 126//126 
f 126//126 144//144 107//107 
f 126//126 107//107 125//125 
f 125//125 107//107 108//108 
f 125//125 108//108 124//124 
f 124//124 108//108 109//109 
f 124//124 109//109 123//123 
f 123//123 109//109 110//110 
f 123//123 110//110 122//122 
f 122//122 110//110 111//111 
f 122//122 111//111 121//121 
f 121//121 111//111 112//112 
f 121//121 112//112 120//120 
f 120//120 112//112 113//113 
f 120//120 113//113 119//119 
f 119//119 113//113 114//114 
f 119//119 114//114 118//118 
f 118//118 114//114 115//115 
f 118//118 115//115 117//117 
f 117//117 115//115 116//116 
f 144//144 127//127 143//143 
f 143//143 127//127 128//128 
f 143//143 128//128 142//142 
f 142//142 128//128 129//129 
f 142//142 129//129 141//141 
f 141//141 129//129 130//130 
f 141//141 130//130 140//140 
f 140//140 130//130 131//131 
f 140//140 131//131 139//139 
f 139//139 131//131 132//132 
f 139//139 132//132 138//138 
f 138//138 132//132 133//133 
f 138//138 133//133 137//137 
f 137//137 133//133 134//134 
f 137//137 134//134 136//136 
f 136//136 134//134 135//135 
