v -46.03902054 16.95833397 -132.5884247
v -46.03902054 16.95833397 -132.0150299
v -46.09261322 16.95833397 -132.593399
v -46.09261322 16.95833397 -132.0100708
v -46.14620972 16.95833397 -132.5884247
v -46.14620972 16.95833397 -132.0150299
v -46.19797516 16.95833397 -132.5737
v -46.19797516 16.95833397 -132.0297546
v -46.2461586 16.95833397 -132.5497131
v -46.2461586 16.95833397 -132.0537567
v -46.28910828 16.95833397 -132.5172729
v -46.28910828 16.95833397 -132.0861816
v -46.32537079 16.95833397 -132.4774933
v -46.32537079 16.95833397 -132.1259613
v -46.35370255 16.95833397 -132.4317322
v -46.35370255 16.95833397 -132.1717224
v -46.37314606 16.95833397 -132.381546
v -46.37314606 16.95833397 -132.2219086
v -46.38303757 16.95833397 -132.3286438
v -46.38303757 16.95833397 -132.274826
v -45.98725128 16.95833397 -132.0297546
v -45.98725128 16.95833397 -132.5737
v -45.93907166 16.95833397 -132.0537567
v -45.93907166 16.95833397 -132.5497131
v -45.89611816 16.95833397 -132.0861816
v -45.89611816 16.95833397 -132.5172729
v -45.85985947 16.95833397 -132.1259613
v -45.85985947 16.95833397 -132.4774933
v -45.8315239 16.95833397 -132.1717224
v -45.8315239 16.95833397 -132.4317322
v -45.81208038 16.95833397 -132.2219086
v -45.81208038 16.95833397 -132.381546
v -45.80219269 16.95833397 -132.274826
v -45.80219269 16.95833397 -132.3286438
v -46.09261322 16.1875 -132.593399
v -46.03902054 16.1875 -132.5884247
v -45.98725128 16.1875 -132.5737
v -45.93907166 16.1875 -132.5497131
v -45.89611816 16.1875 -132.5172729
v -45.85985947 16.1875 -132.4774933
v -45.8315239 16.1875 -132.4317322
v -45.81208038 16.1875 -132.381546
v -45.80219269 16.1875 -132.3286438
v -45.80219269 16.1875 -132.274826
v -45.81208038 16.1875 -132.2219086
v -45.8315239 16.1875 -132.1717224
v -45.85985947 16.1875 -132.1259613
v -45.89611816 16.1875 -132.0861816
v -45.93907166 16.1875 -132.0537567
v -45.98725128 16.1875 -132.0297546
v -46.03902054 16.1875 -132.0150299
v -46.09261322 16.1875 -132.0100708
v -46.14620972 16.1875 -132.0150299
v -46.19797516 16.1875 -132.0297546
v -46.2461586 16.1875 -132.0537567
v -46.28910828 16.1875 -132.0861816
v -46.32537079 16.1875 -132.1259613
v -46.35370255 16.1875 -132.1717224
v -46.37314606 16.1875 -132.2219086
v -46.38303757 16.1875 -132.274826
v -46.38303757 16.1875 -132.3286438
v -46.37314606 16.1875 -132.381546
v -46.35370255 16.1875 -132.4317322
v -46.32537079 16.1875 -132.4774933
v -46.28910828 16.1875 -132.5172729
v -46.2461586 16.1875 -132.5497131
v -46.19797516 16.1875 -132.5737
v -46.14620972 16.1875 -132.5884247
v -46.14748001 16.16666603 -131.9729462
v -46.14748001 16.16666603 -132.6305237
v -46.09261322 16.16666603 -131.968399
v -46.09261322 16.16666603 -132.6350708
v -46.03775024 16.16666603 -131.9729462
v -46.03775024 16.16666603 -132.6305237
v -45.98438263 16.16666603 -131.9864655
v -45.98438263 16.16666603 -132.6170044
v -45.93396378 16.16666603 -132.0085754
v -45.93396378 16.16666603 -132.5948944
v -45.88787842 16.16666603 -132.038681
v -45.88787842 16.16666603 -132.5647736
v -45.84737396 16.16666603 -132.0759735
v -45.84737396 16.16666603 -132.5274963
v -45.81356049 16.16666603 -132.1194153
v -45.81356049 16.16666603 -132.4840393
v -45.78735733 16.16666603 -132.1678314
v -45.78735733 16.16666603 -132.4356232
v -45.76948166 16.16666603 -132.2199097
v -45.76948166 16.16666603 -132.3835602
v -45.76041794 16.16666603 -132.2742004
v -45.76041794 16.16666603 -132.3292542
v -46.20084763 16.16666603 -132.6170044
v -46.20084763 16.16666603 -131.9864655
v -46.25126266 16.16666603 -132.5948944
v -46.25126266 16.16666603 -132.0085754
v -46.29735184 16.16666603 -132.5647736
v -46.29735184 16.16666603 -132.038681
v -46.33785629 16.16666603 -132.5274963
v -46.33785629 16.16666603 -132.0759735
v -46.37166977 16.16666603 -132.4840393
v -46.37166977 16.16666603 -132.1194153
v -46.39787292 16.16666603 -132.4356232
v -46.39787292 16.16666603 -132.1678314
v -46.4157486 16.16666603 -132.3835602
v -46.4157486 16.16666603 -132.2199097
v -46.4248085 16.16666603 -132.3292542
v -46.4248085 16.16666603 -132.2742004
v -46.09261322 17 -132.6350708
v -46.14748001 17 -132.6305237
v -46.20084763 17 -132.6170044
v -46.25126266 17 -132.5948944
v -46.29735184 17 -132.5647736
v -46.33785629 17 -132.5274963
v -46.37166977 17 -132.4840393
v -46.39787292 17 -132.4356232
v -46.4157486 17 -132.3835602
v -46.4248085 17 -132.3292542
v -46.4248085 17 -132.2742004
v -46.4157486 17 -132.2199097
v -46.39787292 17 -132.1678314
v -46.37166977 17 -132.1194153
v -46.33785629 17 -132.0759735
v -46.29735184 17 -132.038681
v -46.25126266 17 -132.0085754
v -46.20084763 17 -131.9864655
v -46.14748001 17 -131.9729462
v -46.09261322 17 -131.968399
v -46.03775024 17 -131.9729462
v -45.98438263 17 -131.9864655
v -45.93396378 17 -132.0085754
v -45.88787842 17 -132.038681
v -45.84737396 17 -132.0759735
v -45.81356049 17 -132.1194153
v -45.78735733 17 -132.1678314
v -45.76948166 17 -132.2199097
v -45.76041794 17 -132.2742004
v -45.76041794 17 -132.3292542
v -45.76948166 17 -132.3835602
v -45.78735733 17 -132.4356232
v -45.81356049 17 -132.4840393
v -45.84737396 17 -132.5274963
v -45.88787842 17 -132.5647736
v -45.93396378 17 -132.5948944
v -45.98438263 17 -132.6170044
v -46.03775024 17 -132.6305237
vn -0.1248129085 -0.5812634826 0.8040861487
vn -0.1720025092 -0.5945159197 -0.785471797
vn 0.02471380122 -0.601061523 0.7988205552
vn -0.02463820204 -0.6010807753 -0.7988083959
vn 0.172077626 -0.5945263505 0.7854474187
vn 0.1246599853 -0.581256628 -0.8041148186
vn 0.3226428926 -0.5610949397 0.7622821331
vn 0.2810015678 -0.5337619185 -0.7975815535
vn 0.4787428975 -0.499047786 0.7223271728
vn 0.4447072446 -0.4570148289 -0.7703070045
vn 0.6355741024 -0.408208251 0.655295074
vn 0.6084347367 -0.3537745476 -0.7103877068
vn 0.7798303366 -0.2954021692 0.5519077778
vn 0.7570965886 -0.2356960475 -0.6093046665
vn 0.8940474391 -0.1776398569 0.4112459421
vn 0.8741564751 -0.124248445 -0.4694814086
vn 0.9668290019 -0.07830350101 0.2431258708
vn 0.9520759583 -0.04202206433 -0.3029612601
vn 0.9979624748 -0.01702729426 0.06148932502
vn 0.9924009442 -0.004292775411 -0.1229712144
vn -0.3227857649 -0.5610849261 -0.7622290254
vn -0.2809251249 -0.5337561369 0.7976123095
vn -0.4786758721 -0.4990491271 -0.7223706841
vn -0.4446443915 -0.457048744 0.7703232169
vn -0.6355278492 -0.4082481265 -0.6553150415
vn -0.6085391045 -0.3537219167 0.7103245258
vn -0.779823482 -0.2953869104 -0.5519255996
vn -0.7571058273 -0.2357067019 0.6092890501
vn -0.8940359354 -0.1776560843 -0.4112640023
vn -0.8741362691 -0.1242535189 0.4695176482
vn -0.9668528438 -0.07828521729 -0.2430370152
vn -0.9520741701 -0.04201960936 0.3029671609
vn -0.9979644418 -0.01701914147 -0.0614598915
vn -0.9924038649 -0.004291953053 0.1229476556
vn -0.02471396513 0.6010796428 0.7988069057
vn -0.1720765233 0.5945081711 0.7854614854
vn -0.3226450682 0.5611133575 0.7622676492
vn -0.4787392616 0.4990294874 0.7223422527
vn -0.6355794668 0.4082256556 0.6552789807
vn -0.779823482 0.2953869104 0.5519255996
vn -0.8940359354 0.1776560843 0.4112640023
vn -0.9668405056 0.0782995373 0.2430814654
vn -0.9979640841 0.01702075265 0.06146570668
vn -0.9924067259 0.004291144665 -0.1229245067
vn -0.9520830512 0.04201581702 -0.3029398322
vn -0.8741362691 0.1242535189 -0.4695176482
vn -0.7571058273 0.2357067019 -0.6092890501
vn -0.6084273458 0.3537601233 -0.710401237
vn -0.4447120726 0.4570315778 -0.7702943087
vn -0.2809990048 0.5337441564 -0.7975943685
vn -0.124660939 0.5812746286 -0.8041016459
vn 0.02463803813 0.6010626554 -0.7988220453
vn 0.1720036119 0.5945341587 -0.7854577303
vn 0.3227835894 0.5610665083 -0.7622435093
vn 0.4786795378 0.4990674257 -0.7223556042
vn 0.6355224848 0.408230722 -0.6553311348
vn 0.7798303366 0.2954021692 -0.5519077778
vn 0.8940474391 0.1776398569 -0.4112459421
vn 0.9668413401 0.07828918844 -0.2430814058
vn 0.9979628921 0.01702568121 -0.06148350611
vn 0.9923980832 0.004293583799 0.1229943708
vn 0.9520670772 0.04202585667 0.3029885888
vn 0.8741564751 0.124248445 0.4694814086
vn 0.7570965886 0.2356960475 0.6093046665
vn 0.6085464954 0.353736341 0.7103109956
vn 0.4446395636 0.4570319653 0.7703359127
vn 0.2809276581 0.5337739587 0.7975995541
vn 0.1248119622 0.5812454224 0.8040993214
vn -0.1428422332 -0.4972695112 0.8557564616
vn -0.1065317914 -0.7624445558 -0.6382235289
vn 0.02160566114 -0.6228243709 0.7820633054
vn -0.02160554752 -0.6228067875 -0.7820773125
vn 0.1065362245 -0.7624405622 0.638227582
vn 0.1428467631 -0.4972733855 -0.8557534814
vn 0.2407757044 -0.5910156965 0.7698879838
vn 0.288300544 -0.5692358613 -0.7699697018
vn 0.3795044422 -0.5414777994 0.75018543
vn 0.4309233427 -0.5075362921 -0.7461313605
vn 0.5234699845 -0.467561394 0.7122959495
vn 0.5764003396 -0.4218653142 -0.6998516321
vn 0.6655424237 -0.3712566793 0.6474733949
vn 0.7152594924 -0.3171234727 -0.6227652431
vn 0.79317379 -0.2613507211 0.550064683
vn 0.8336729407 -0.206090197 -0.5123633742
vn 0.8935754895 -0.1537985951 0.4217449427
vn 0.9212067127 -0.1067408398 -0.37414518
vn 0.9600979686 -0.06686393172 0.271553129
vn 0.9751793742 -0.03574286774 -0.2185124159
vn 0.9938161373 -0.01444686949 0.11009451
vn 0.9984773397 -0.003636426991 -0.05504366755
vn -0.240781188 -0.5910149813 -0.7698867917
vn -0.2883135676 -0.5692337155 0.7699663639
vn -0.3795796931 -0.5414592624 -0.7501607537
vn -0.4307841063 -0.5075730085 0.7461867332
vn -0.5235074759 -0.4675490558 -0.7122765183
vn -0.5764447451 -0.4218495786 0.6998245716
vn -0.665494442 -0.3712779582 -0.647510469
vn -0.7152165771 -0.3171434104 0.6228044033
vn -0.7932400703 -0.261313647 -0.5499866605
vn -0.8336452842 -0.2061057836 0.5124021173
vn -0.8935570717 -0.1538111866 -0.4217794538
vn -0.9212346077 -0.10672272 0.3740816712
vn -0.9600970745 -0.06686577201 -0.2715559006
vn -0.9751849174 -0.03574038669 0.2184880972
vn -0.9938235879 -0.0144382054 -0.110028483
vn -0.9984782934 -0.003635237692 0.05502566323
vn 0.02160566114 0.6228243709 -0.7820633054
vn -0.1428422332 0.4972695112 -0.8557564616
vn -0.2883135676 0.5692337155 -0.7699663639
vn -0.4309141636 0.5075380802 -0.7461354136
vn -0.5763885975 0.421870023 -0.699858427
vn -0.7152594924 0.3171234727 -0.6227652431
vn -0.8336729407 0.206090197 -0.5123633742
vn -0.9212067127 0.1067408398 -0.37414518
vn -0.9751894474 0.03573716059 -0.2184683681
vn -0.9984785914 0.003634901252 -0.05502057448
vn -0.9938212633 0.01444086432 0.1100487486
vn -0.9601042867 0.0668598339 0.2715317905
vn -0.8935754895 0.1537985951 0.4217449427
vn -0.79317379 0.2613507211 0.550064683
vn -0.6655424237 0.3712566793 0.6474733949
vn -0.5234479904 0.4675691128 0.7123070359
vn -0.3795129955 0.541475296 0.7501829267
vn -0.240781188 0.5910149813 0.7698867917
vn -0.1065317914 0.7624445558 0.6382235289
vn -0.02160554752 0.6228067875 0.7820773125
vn 0.1428467631 0.4972733855 0.8557534814
vn 0.288300544 0.5692358613 0.7699697018
vn 0.4307932854 0.5075712204 0.7461826801
vn 0.5764564276 0.4218448699 0.6998177767
vn 0.7152165771 0.3171434104 0.6228044033
vn 0.8336452842 0.2061057836 0.5124021173
vn 0.9212346077 0.10672272 0.3740816712
vn 0.9751747847 0.03574609384 0.218532145
vn 0.9984770417 0.003636763664 0.05504876375
vn 0.9938184023 0.01444420964 -0.110074237
vn 0.9600907564 0.06686986983 -0.271577239
vn 0.8935570717 0.1538111866 -0.4217794538
vn 0.7932400703 0.261313647 -0.5499866605
vn 0.665494442 0.3712779582 -0.647510469
vn 0.5235294104 0.467541337 -0.7122654319
vn 0.37957111 0.5414617658 -0.7501632571
vn 0.2407757044 0.5910156965 -0.7698879838
vn 0.1065362245 0.7624405622 -0.638227582
f 1//1 2//2 3//3 
f 3//3 2//2 4//4 
f 3//3 4//4 5//5 
f 5//5 4//4 6//6 
f 5//5 6//6 7//7 
f 7//7 6//6 8//8 
f 7//7 8//8 9//9 
f 9//9 8//8 10//10 
f 9//9 10//10 11//11 
f 11//11 10//10 12//12 
f 11//11 12//12 13//13 
f 13//13 12//12 14//14 
f 13//13 14//14 15//15 
f 15//15 14//14 16//16 
f 15//15 16//16 17//17 
f 17//17 16//16 18//18 
f 17//17 18//18 19//19 
f 19//19 18//18 20//20 
f 2//2 1//1 21//21 
f 21//21 1//1 22//22 
f 21//21 22//22 23//23 
f 23//23 22//22 24//24 
f 23//23 24//24 25//25 
f 25//25 24//24 26//26 
f 25//25 26//26 27//27 
f 27//27 26//26 28//28 
f 27//27 28//28 29//29 
f 29//29 28//28 30//30 
f 29//29 30//30 31//31 
f 31//31 30//30 32//32 
f 31//31 32//32 33//33 
f 33//33 32//32 34//34 
f 3//3 35//35 1//1 
f 1//1 35//35 36//36 
f 1//1 36//36 22//22 
f 22//22 36//36 37//37 
f 22//22 37//37 24//24 
f 24//24 37//37 38//38 
f 24//24 38//38 26//26 
f 26//26 38//38 39//39 
f 26//26 39//39 28//28 
f 28//28 39//39 40//40 
f 28//28 40//40 30//30 
f 30//30 40//40 41//41 
f 30//30 41//41 32//32 
f 32//32 41//41 42//42 
f 32//32 42//42 34//34 
f 34//34 42//42 43//43 
f 34//34 43//43 33//33 
f 33//33 43//43 44//44 
f 33//33 44//44 31//31 
f 31//31 44//44 45//45 
f 31//31 45//45 29//29 
f 29//29 45//45 46//46 
f 29//29 46//46 27//27 
f 27//27 46//46 47//47 
f 27//27 47//47 25//25 
f 25//25 47//47 48//48 
f 25//25 48//48 23//23 
f 23//23 48//48 49//49 
f 23//23 49//49 21//21 
f 21//21 49//49 50//50 
f 21//21 50//50 2//2 
f 2//2 50//50 51//51 
f 2//2 51//51 4//4 
f 4//4 51//51 52//52 
f 4//4 52//52 6//6 
f 6//6 52//52 53//53 
f 6//6 53//53 8//8 
f 8//8 53//53 54//54 
f 8//8 54//54 10//10 
f 10//10 54//54 55//55 
f 10//10 55//55 12//12 
f 12//12 55//55 56//56 
f 12//12 56//56 14//14 
f 14//14 56//56 57//57 
f 14//14 57//57 16//16 
f 16//16 57//57 58//58 
f 16//16 58//58 18//18 
f 18//18 58//58 59//59 
f 18//18 59//59 20//20 
f 20//20 59//59 60//60 
f 20//20 60//60 19//19 
f 19//19 60//60 61//61 
f 19//19 61//61 17//17 
f 17//17 61//61 62//62 
f 17//17 62//62 15//15 
f 15//15 62//62 63//63 
f 15//15 63//63 13//13 
f 13//13 63//63 64//64 
f 13//13 64//64 11//11 
f 11//11 64//64 65//65 
f 11//11 65//65 9//9 
f 9//9 65//65 66//66 
f 9//9 66//66 7//7 
f 7//7 66//66 67//67 
f 7//7 67//67 5//5 
f 5//5 67//67 68//68 
f 5//5 68//68 3//3 
f 3//3 68//68 35//35 
f 68//68 53//53 35//35 
f 35//35 53//53 52//52 
f 35//35 52//52 36//36 
f 36//36 52//52 51//51 
f 36//36 51//51 37//37 
f 37//37 51//51 50//50 
f 37//37 50//50 38//38 
f 38//38 50//50 49//49 
f 38//38 49//49 39//39 
f 39//39 49//49 48//48 
f 39//39 48//48 40//40 
f 40//40 48//48 47//47 
f 40//40 47//47 41//41 
f 41//41 47//47 46//46 
f 41//41 46//46 42//42 
f 42//42 46//46 45//45 
f 42//42 45//45 43//43 
f 43//43 45//45 44//44 
f 53//53 68//68 54//54 
f 54//54 68//68 67//67 
f 54//54 67//67 55//55 
f 55//55 67//67 66//66 
f 55//55 66//66 56//56 
f 56//56 66//66 65//65 
f 56//56 65//65 57//57 
f 57//57 65//65 64//64 
f 57//57 64//64 58//58 
f 58//58 64//64 63//63 
f 58//58 63//63 59//59 
f 59//59 63//63 62//62 
f 59//59 62//62 60//60 
f 60//60 62//62 61//61 
f 69//69 70//70 71//71 
f 71//71 70//70 72//72 
f 71//71 72//72 73//73 
f 73//73 72//72 74//74 
f 73//73 74//74 75//75 
f 75//75 74//74 76//76 
f 75//75 76//76 77//77 
f 77//77 76//76 78//78 
f 77//77 78//78 79//79 
f 79//79 78//78 80//80 
f 79//79 80//80 81//81 
f 81//81 80//80 82//82 
f 81//81 82//82 83//83 
f 83//83 82//82 84//84 
f 83//83 84//84 85//85 
f 85//85 84//84 86//86 
f 85//85 86//86 87//87 
f 87//87 86//86 88//88 
f 87//87 88//88 89//89 
f 89//89 88//88 90//90 
f 70//70 69//69 91//91 
f 91//91 69//69 92//92 
f 91//91 92//92 93//93 
f 93//93 92//92 94//94 
f 93//93 94//94 95//95 
f 95//95 94//94 96//96 
f 95//95 96//96 97//97 
f 97//97 96//96 98//98 
f 97//97 98//98 99//99 
f 99//99 98//98 100//100 
f 99//99 100//100 101//101 
f 101//101 100//100 102//102 
f 101//101 102//102 103//103 
f 103//103 102//102 104//104 
f 103//103 104//104 105//105 
f 105//105 104//104 106//106 
f 107//107 72//72 108//108 
f 108//108 72//72 70//70 
f 108//108 70//70 91//91 
f 108//108 91//91 109//109 
f 109//109 91//91 93//93 
f 109//109 93//93 110//110 
f 110//110 93//93 95//95 
f 110//110 95//95 111//111 
f 111//111 95//95 97//97 
f 111//111 97//97 112//112 
f 112//112 97//97 99//99 
f 112//112 99//99 113//113 
f 113//113 99//99 101//101 
f 113//113 101//101 114//114 
f 114//114 101//101 103//103 
f 114//114 103//103 115//115 
f 115//115 103//103 105//105 
f 115//115 105//105 116//116 
f 116//116 105//105 106//106 
f 116//116 106//106 117//117 
f 117//117 106//106 104//104 
f 117//117 104//104 118//118 
f 118//118 104//104 102//102 
f 118//118 102//102 119//119 
f 119//119 102//102 100//100 
f 119//119 100//100 120//120 
f 120//120 100//100 98//98 
f 120//120 98//98 121//121 
f 121//121 98//98 96//96 
f 121//121 96//96 122//122 
f 122//122 96//96 94//94 
f 122//122 94//94 123//123 
f 123//123 94//94 92//92 
f 123//123 92//92 124//124 
f 124//124 92//92 69//69 
f 124//124 69//69 125//125 
f 125//125 69//69 126//126 
f 126//126 69//69 71//71 
f 126//126 71//71 127//127 
f 127//127 71//71 73//73 
f 127//127 73//73 75//75 
f 127//127 75//75 128//128 
f 128//128 75//75 77//77 
f 128//128 77//77 129//129 
f 129//129 77//77 79//79 
f 129//129 79//79 130//130 
f 130//130 79//79 81//81 
f 130//130 81//81 131//131 
f 131//131 81//81 83//83 
f 131//131 83//83 132//132 
f 132//132 83//83 85//85 
f 132//132 85//85 133//133 
f 133//133 85//85 87//87 
f 133//133 87//87 134//134 
f 134//134 87//87 89//89 
f 134//134 89//89 135//135 
f 135//135 89//89 90//90 
f 135//135 90//90 136//136 
f 136//136 90//90 88//88 
f 136//136 88//88 137//137 
f 137//137 88//88 86//86 
f 137//137 86//86 138//138 
f 138//138 86//86 84//84 
f 138//138 84//84 139//139 
f 139//139 84//84 82//82 
f 139//139 82//82 140//140 
f 140//140 82//82 80//80 
f 140//140 80//80 141//141 
f 141//141 80//80 78//78 
f 141//141 78//78 142//142 
f 142//142 78//78 76//76 
f 142//142 76//76 143//143 
f 143//143 76//76 74//74 
f 143//143 74//74 144//144 
f 144//144 74//74 107//107 
f 107//107 74//74 72//72 
f 127//127 144//144 126//126 
f 126//126 144//144 107//107 
f 126//126 107//107 125//125 
f 125//125 107//107 108//108 
f 125//125 108//108 124//124 
f 124//124 108//108 109//109 
f 124//124 109//109 123//123 
f 123//123 109//109 110//110 
f 123//123 110//110 122//122 
f 122//122 110//110 111//111 
f 122//122 111//111 121//121 
f 121//121 111//111 112//112 
f 121//121 112//112 120//120 
f 120//120 112//112 113//113 
f 120//120 113//113 119//119 
f 119//119 113//113 114//114 
f 119//119 114//114 118//118 
f 118//118 114//114 115//115 
f 118//118 115//115 117//117 
f 117//117 115//115 116//116 
f 144//144 127//127 143//143 
f 143//143 127//127 128//128 
f 143//143 128//128 142//142 
f 142//142 128//128 129//129 
f 142//142 129//129 141//141 
f 141//141 129//129 130//130 
f 141//141 130//130 140//140 
f 140//140 130//130 131//131 
f 140//140 131//131 139//139 
f 139//139 131//131 132//132 
f 139//139 132//132 138//138 
f 138//138 132//132 133//133 
f 138//138 133//133 137//137 
f 137//137 133//133 134//134 
f 137//137 134//134 136//136 
f 136//136 134//134 135//135 
