v -36.23147964 4.561293125 -131.7139893
v -36.32447433 4.557873726 -131.7388
v -36.19981384 4.759412289 -131.7777863
v -36.16410446 4.78145504 -131.6456604
v -36.15732956 4.916919231 -131.667038
v -36.25961685 4.934765816 -131.5665741
v -36.19454575 4.893950462 -131.8047333
v -36.3991127 4.929639339 -131.6038055
v -36.26225281 4.798576832 -131.5492706
v -36.20667267 4.576605797 -131.6221924
v -36.27485657 4.58850193 -131.5552216
v -36.39611053 4.793656826 -131.5849915
v -36.43632889 4.906667233 -131.7415009
v -36.3340416 4.888821125 -131.8419647
v -36.36785126 4.585082531 -131.5800476
v -36.43182373 4.771614075 -131.7171173
v -36.33367157 4.754492283 -131.8135223
v -36.39266586 4.569769859 -131.6718292
v -36.30251312 4.781036854 -131.8122101
v -36.22841644 4.880415916 -131.8090057
v -36.30170059 4.877723217 -131.8285675
v -36.22922897 4.783729076 -131.7926483
v -36.2101059 4.788480759 -131.8649597
v -36.2220459 4.779223919 -131.8189545
v -36.28338623 4.785788536 -131.8845215
v -36.27812195 4.82747364 -131.9099884
v -36.2048378 4.830165863 -131.8904266
v -36.20471954 4.844396591 -131.8928375
v -36.27799988 4.841703892 -131.912384
v -36.29532623 4.776528358 -131.8385162
v -36.27950287 4.857599735 -131.9089508
v -36.21009064 4.868922234 -131.8760834
v -36.28337479 4.866226196 -131.8956451
v -36.20621872 4.860295296 -131.8894043
v -35.66192627 2.580099106 -131.7983856
v -35.90918732 0.6812619567 -131.7043762
v -35.99401093 2.194094419 -131.6863556
v -35.40859222 2.865373611 -131.5957489
v -35.68186569 1.156159997 -131.4887085
v -35.59127045 3.256033421 -131.9395142
v -35.22439575 3.346851587 -131.5995331
v -35.26094818 3.473945379 -131.1604309
v -35.39820862 3.171417713 -130.9105225
v -35.68638229 3.807971954 -130.9147949
v -35.69878387 3.89533329 -130.6675262
v -35.77125549 3.695413828 -130.6980743
v -35.2085762 4.269011497 -130.2082825
v -35.5031929 4.059632301 -130.2033844
v -35.76663971 3.875213146 -130.6386871
v -36.01141739 3.870005608 -131.0589142
v -35.99621582 4.136361122 -131.1157532
v -35.75967789 4.128492355 -130.9049683
v -35.72491837 4.722481728 -130.7616882
v -36.10302734 4.487381935 -131.09552
v -35.96789551 4.180798054 -131.5615845
v -36.02550125 4.489010334 -131.6813965
v -36.12617493 3.857501268 -131.4421692
v -35.94890213 3.868286848 -131.7535248
v -35.95789719 3.254429579 -131.8907776
v -35.51044846 4.289780617 -130.3077545
v -35.25191498 4.311598301 -130.0202942
v -35.66073227 4.955681801 -130.5807495
v -35.46781158 4.702442169 -130.7646332
v -35.49414062 4.903940201 -130.673996
v -35.84873199 4.931385994 -130.8236084
v -35.42870331 5.197360992 -131.0198975
v -35.34115982 4.610774994 -131.0102844
v -35.83124924 4.868859291 -131.3627625
v -35.66656113 5.193330288 -131.0534668
v -35.66014481 5.229162216 -130.7216644
v -35.46897507 5.204221725 -131.2266693
v -35.45801544 5.522926331 -131.2188416
v -35.37505341 5.575837612 -130.8358459
v -35.95461655 5.399551392 -131.1271667
v -35.72945023 5.504690647 -130.7244263
v -35.60705948 4.967487335 -131.892868
v -35.6580658 5.151731968 -131.4610138
v -36.03189087 5.288759708 -131.3598938
v -35.38863754 5.096212864 -131.5704651
v -35.90373993 5.2117033 -131.6408997
v -35.70447922 5.540501118 -131.6043243
v -35.97507477 5.676480293 -131.5592041
v -36.0414238 5.723176479 -131.0834961
v -35.72869873 5.965295792 -131.1374512
v -35.66318893 5.736735344 -130.9095459
v -35.50339508 3.933939457 -131.0931244
v -35.36348724 4.140570164 -131.4889832
v -35.24742508 4.633238792 -131.5820312
v -35.30757904 4.632733345 -131.8141174
v -35.51473236 4.004640579 -131.7090302
v -35.70889664 3.943433523 -131.8569031
v -35.4060173 3.807747364 -131.9421539
v -35.60676193 4.141942501 -132.0949402
v -35.56610107 4.452463627 -131.9885406
v -35.69665527 4.229472637 -131.7834778
v -36.29902649 4.664506912 -131.9585419
v -36.18440628 4.886631012 -131.9126892
v -36.29694366 4.705534458 -131.8174744
v -35.97914505 3.227252007 -131.4125061
v -36.054142 3.634644032 -131.0163269
v -36.079422 3.018275499 -131.1131134
v -35.95600891 2.659956932 -131.3071289
v -36.19205475 2.292575121 -131.4536743
v -36.1146965 0.8372837901 -131.3648987
v -35.96149445 1.921667695 -131.1813507
v -35.96132278 3.235410452 -130.8731995
v -35.92921448 1.847266436 -130.9236145
v -35.56759262 3.147478342 -130.8079224
v -35.73674011 1.067104578 -130.8923645
v -35.90444565 1.254640818 -130.9547729
v -35.77521133 0.7054352164 -130.8348694
v -36.27659225 0.2786715925 -130.9589539
v -35.82933807 0.4732995033 -130.9780121
v -36.12866974 0.7652288675 -131.105011
v -36.41900253 0.2109471262 -131.125885
v -36.09433746 0.197765395 -131.1538086
v -35.40422058 1.526440382 -131.3130188
v -35.47071075 1.852015138 -130.9778137
v -35.36512756 0.7065178752 -131.191452
v -35.26174545 0.5939942002 -131.43927
v -35.51306915 0.5980750918 -131.5654602
v -35.33421326 0.4574689269 -131.4062347
v -35.78976059 0.9132542014 -131.1641541
v -35.72390366 0.8850780725 -131.3687897
v -35.72308731 0.599170208 -131.4191437
v -35.89829254 0.1741100401 -131.4337921
v -35.66906357 0.2031909674 -131.6403198
v -35.79685974 0.6904720664 -131.6692505
vn 0.6858053207 -0.6557154059 -0.3157663643
vn -0.02438693307 -0.6474314332 -0.7617334127
vn 0.7003250122 -0.2547695637 -0.6668112874
vn 0.9557619691 -0.09720569104 0.2776150405
vn 0.9552085996 0.2948154807 0.02569650114
vn 0.3094740212 0.803283751 0.508882165
vn 0.2549093366 0.8245913386 -0.5050449371
vn -0.3290469944 0.8780487776 0.3475030661
vn 0.2543348074 0.02520297468 0.9667877555
vn 0.7497276068 -0.4418643117 0.4926098585
vn 0.01968090795 -0.152185455 0.988155961
vn -0.7025299668 -0.009939833544 0.7115847468
vn -0.6964557767 0.696326673 -0.1734315306
vn -0.4094881117 0.1496888399 -0.8999515176
vn -0.6123059988 -0.6276162863 0.4808109701
vn -0.9579843283 -0.1674879193 -0.2328387052
vn -0.2565447688 -0.2899236977 -0.9220244288
vn -0.8355180025 -0.379304111 -0.3975400627
vn -0.4258815348 0.01732704602 0.904613018
vn 0.1649240404 0.4604723155 0.8722186089
vn -0.6874983907 0.7050142288 0.1740715206
vn 0.5689364076 -0.2005814761 0.7975452542
vn 0.6238402724 -0.6322236061 -0.4594742954
vn 0.5999428034 -0.7975548506 0.0630467236
vn -0.0180479493 -0.8879795074 -0.4595287144
vn -0.02422404662 -0.4440842569 -0.8956575394
vn 0.5932396054 -0.4042366147 -0.6961749196
vn 0.3585952222 0.04831098765 -0.9322422147
vn -0.517359376 0.005758823361 -0.8557488322
vn -0.8479207754 -0.4788483679 -0.2274524271
vn -0.4980419278 0.3178708553 -0.8067913651
vn 0.778095305 0.6230019331 0.08022648096
vn -0.6948569417 0.6102090478 -0.3805505335
vn 0.2157311589 0.6882210374 -0.6926845312
vn 0.3583831191 -0.142010361 -0.9227104783
vn -0.5944347382 -0.07897684723 -0.8002561927
vn -0.516148746 -0.07159864157 -0.8535010815
vn 0.9219748974 -0.1627978534 -0.351367563
vn 0.7084802389 -0.06173845381 -0.7030249834
vn 0.4442879558 -0.03366839886 -0.8952511549
vn 0.9404212832 0.1530572772 -0.3036136329
vn 0.9347159266 0.03004267998 0.3541237116
vn 0.9432533979 -0.03489427269 0.3302353621
vn 0.4367767274 0.2800983489 0.8548514843
vn 0.4953067303 0.5698123574 -0.6557324529
vn 0.4637769759 -0.869137764 0.171786204
vn 0.8828982115 -0.2389576435 -0.404215306
vn -0.352229774 -0.5323473811 0.7697664499
vn -0.8604024053 0.2092128843 0.4646908939
vn -0.6453735232 0.3941862881 0.6543012857
vn -0.7299042344 -0.1130059287 0.6741434932
vn 0.09049881995 -0.3321697414 0.9388680458
vn -0.6063731909 -0.4292659461 0.6693596244
vn -0.9738171101 0.1708130538 0.1500103623
vn -0.8686881661 0.06465350837 -0.4911219776
vn -0.8433855772 0.207845673 -0.4954804778
vn -0.9952859282 -0.01661147177 -0.09555082023
vn -0.6995341778 0.227354154 -0.6774674058
vn -0.7198209167 -0.01395232137 -0.6940196157
vn -0.9853208661 -0.1571269482 0.06673734635
vn 0.004878226202 0.4920249879 0.870567441
vn -0.4454865754 0.5393100381 0.7146232724
vn 0.6947493553 -0.7192302942 0.005576866679
vn 0.8696237803 0.4189340174 0.2612446547
vn -0.8481742144 0.4250268638 0.3161528707
vn 0.8960595131 0.2335836142 0.3775129616
vn 0.9472798705 -0.0514411144 0.3162510395
vn -0.9252004027 0.3663517237 -0.09894733876
vn -0.8324690461 -0.2461295724 0.4964025915
vn -0.1176378503 -0.6610911489 0.7410261631
vn 0.9390100837 0.3025280833 -0.1635141373
vn 0.8894230127 0.3079073131 -0.3378162086
vn 0.8278274536 0.2530762255 0.5006536841
vn -0.7582193613 -0.2913937867 0.5832606554
vn -0.4995285273 0.2980882525 0.8133969903
vn -0.4238975048 0.4593083858 -0.7806066275
vn 0.1613849401 0.2146073729 -0.9632748961
vn -0.9362820387 -0.2975652218 -0.1866304576
vn 0.8420006633 0.5179553032 -0.1508547068
vn -0.3529845774 -0.3737430573 -0.8577400446
vn 0.591368556 0.3194701076 -0.7404201627
vn -0.6657204628 0.4869603515 -0.5654076934
vn -0.8808463812 0.3274262249 0.3419089913
vn 0.3027711213 0.9276918769 -0.2184431255
vn -0.02881228738 0.7099537253 0.7036587
vn 0.9095417261 0.07024295628 0.4096336961
vn 0.946254313 -0.3233992159 -0.003969323356
vn 0.9986471534 0.02990889363 0.04253632203
vn 0.8658492565 0.04153671116 -0.4985777438
vn 0.9620455503 0.01632830314 -0.2724000216
vn -0.513407886 -0.3632823229 -0.7774562836
vn 0.8169662356 -0.4535373151 -0.3561882079
vn 0.1614062339 0.06432826072 -0.9847892523
vn -0.307194531 0.226154685 -0.9243838787
vn -0.6555247307 0.4659154713 -0.5943148136
vn -0.5730780959 -0.3331980705 -0.7487059236
vn 0.6024638414 0.7908378839 -0.1077622175
vn -0.3602870703 -0.1269773543 0.92415905
vn -0.9999809265 -0.005022296216 0.003590834793
vn -0.8523181081 -0.02406078391 0.522470057
vn -0.9977836609 -0.05177907273 0.04179366305
vn -0.9670912027 0.031623438 0.2524570525
vn -0.9985544086 0.05359848589 -0.004043674562
vn -0.8740393519 -0.4205000103 -0.2433823049
vn -0.960447073 0.01386959571 0.2781169116
vn -0.5137219429 0.008594284765 0.8579136729
vn -0.5970438123 -0.05390815064 0.8003953099
vn 0.2239356637 -0.003976433538 0.9745958447
vn 0.2642314136 -0.04699198157 0.963313818
vn -0.694382906 0.09059368074 0.7138803601
vn -0.04085655883 -0.02859487571 0.998755753
vn -0.3113578558 -0.1526932716 0.9379451275
vn 0.5396080613 -0.8366408944 -0.09410171956
vn -0.9459018111 0.1103400514 0.3051143885
vn -0.7271218896 0.01502861548 -0.6863438487
vn 0.2537492216 -0.3829890788 -0.8882176876
vn 0.9893755317 0.007110611536 -0.1452083737
vn 0.798905015 -0.0281339325 0.6007988453
vn 0.7969639301 -0.2124153376 0.5654451251
vn 0.9161592126 0.09397694468 -0.3896416724
vn 0.3121278286 0.09903942049 -0.944863677
vn 0.09240882844 -0.7341603041 0.6726583838
vn -0.06838366389 -0.7293105721 -0.6807567477
vn -0.3810771108 -0.7659049034 0.5178512931
vn -0.8926935196 -0.0427926369 0.4486279488
vn -0.2095544934 -0.4984512925 0.841209352
vn -0.05810378119 -0.2475605905 -0.9671285748
vn 0.6867223382 -0.3749225438 -0.6227724552
f 1//1 2//2 3//3 
f 4//4 1//1 3//3 
f 4//4 3//3 5//5 
f 6//6 4//4 5//5 
f 7//7 6//6 5//5 
f 5//5 3//3 7//7 
f 6//6 7//7 8//8 
f 8//8 9//9 6//6 
f 9//9 4//4 6//6 
f 9//9 10//10 4//4 
f 10//10 1//1 4//4 
f 11//11 10//10 9//9 
f 12//12 9//9 8//8 
f 12//12 11//11 9//9 
f 13//13 12//12 8//8 
f 8//8 7//7 13//13 
f 13//13 7//7 14//14 
f 15//15 11//11 12//12 
f 15//15 10//10 11//11 
f 10//10 15//15 1//1 
f 1//1 15//15 2//2 
f 16//16 12//12 13//13 
f 14//14 16//16 13//13 
f 16//16 15//15 12//12 
f 7//7 17//17 14//14 
f 3//3 17//17 7//7 
f 17//17 16//16 14//14 
f 3//3 2//2 17//17 
f 18//18 15//15 16//16 
f 2//2 18//18 17//17 
f 2//2 15//15 18//18 
f 17//17 18//18 16//16 
f 19//19 20//20 21//21 
f 22//22 20//20 19//19 
f 23//23 24//24 25//25 
f 26//26 23//23 25//25 
f 27//27 23//23 26//26 
f 26//26 28//28 27//27 
f 29//29 28//28 26//26 
f 30//30 22//22 19//19 
f 25//25 24//24 30//30 
f 26//26 30//30 29//29 
f 30//30 26//26 25//25 
f 24//24 22//22 30//30 
f 21//21 30//30 19//19 
f 29//29 31//31 28//28 
f 29//29 30//30 31//31 
f 22//22 32//32 20//20 
f 24//24 32//32 22//22 
f 32//32 21//21 20//20 
f 28//28 32//32 27//27 
f 23//23 32//32 24//24 
f 27//27 32//32 23//23 
f 33//33 21//21 32//32 
f 33//33 30//30 21//21 
f 31//31 30//30 33//33 
f 31//31 33//33 34//34 
f 32//32 28//28 34//34 
f 28//28 31//31 34//34 
f 34//34 33//33 32//32 
f 35//35 36//36 37//37 
f 38//38 39//39 35//35 
f 40//40 38//38 35//35 
f 41//41 38//38 40//40 
f 42//42 38//38 41//41 
f 38//38 42//42 43//43 
f 43//43 42//42 44//44 
f 44//44 45//45 46//46 
f 45//45 47//47 46//46 
f 47//47 48//48 46//46 
f 46//46 48//48 49//49 
f 45//45 50//50 49//49 
f 45//45 44//44 50//50 
f 51//51 50//50 52//52 
f 51//51 52//52 53//53 
f 51//51 53//53 54//54 
f 55//55 54//54 56//56 
f 54//54 55//55 57//57 
f 51//51 54//54 57//57 
f 51//51 57//57 50//50 
f 57//57 55//55 58//58 
f 35//35 37//37 59//59 
f 60//60 61//61 62//62 
f 60//60 49//49 48//48 
f 60//60 45//45 49//49 
f 47//47 45//45 60//60 
f 60//60 48//48 61//61 
f 47//47 60//60 63//63 
f 61//61 48//48 47//47 
f 64//64 61//61 47//47 
f 60//60 53//53 63//63 
f 65//65 53//53 60//60 
f 62//62 65//65 60//60 
f 64//64 62//62 61//61 
f 64//64 66//66 62//62 
f 66//66 65//65 62//62 
f 64//64 47//47 63//63 
f 64//64 63//63 67//67 
f 66//66 64//64 67//67 
f 53//53 65//65 54//54 
f 65//65 68//68 54//54 
f 66//66 69//69 65//65 
f 69//69 68//68 65//65 
f 70//70 69//69 66//66 
f 66//66 67//67 71//71 
f 66//66 71//71 72//72 
f 66//66 72//72 73//73 
f 73//73 70//70 66//66 
f 74//74 69//69 70//70 
f 68//68 69//69 74//74 
f 70//70 75//75 74//74 
f 70//70 73//73 75//75 
f 68//68 56//56 54//54 
f 68//68 76//76 56//56 
f 77//77 76//76 68//68 
f 78//78 77//77 68//68 
f 74//74 78//78 68//68 
f 79//79 76//76 77//77 
f 77//77 78//78 80//80 
f 77//77 80//80 81//81 
f 80//80 78//78 82//82 
f 74//74 83//83 78//78 
f 79//79 77//77 71//71 
f 72//72 71//71 77//77 
f 83//83 82//82 78//78 
f 72//72 77//77 81//81 
f 82//82 81//81 80//80 
f 84//84 82//82 83//83 
f 84//84 81//81 82//82 
f 74//74 85//85 83//83 
f 85//85 84//84 83//83 
f 85//85 74//74 75//75 
f 73//73 85//85 75//75 
f 73//73 72//72 85//85 
f 84//84 85//85 72//72 
f 84//84 72//72 81//81 
f 71//71 67//67 79//79 
f 67//67 86//86 87//87 
f 86//86 67//67 52//52 
f 67//67 63//63 52//52 
f 87//87 88//88 67//67 
f 88//88 79//79 67//67 
f 52//52 63//63 53//53 
f 79//79 88//88 89//89 
f 76//76 79//79 89//89 
f 88//88 87//87 89//89 
f 42//42 86//86 44//44 
f 44//44 86//86 50//50 
f 86//86 52//52 50//50 
f 90//90 86//86 41//41 
f 87//87 86//86 90//90 
f 41//41 86//86 42//42 
f 89//89 87//87 90//90 
f 40//40 91//91 90//90 
f 89//89 90//90 92//92 
f 92//92 90//90 91//91 
f 90//90 41//41 40//40 
f 93//93 89//89 92//92 
f 94//94 89//89 93//93 
f 89//89 94//94 76//76 
f 76//76 94//94 95//95 
f 56//56 76//76 95//95 
f 95//95 94//94 93//93 
f 96//96 93//93 91//91 
f 92//92 91//91 93//93 
f 97//97 95//95 93//93 
f 93//93 96//96 97//97 
f 97//97 96//96 98//98 
f 91//91 98//98 96//96 
f 91//91 95//95 98//98 
f 95//95 91//91 58//58 
f 91//91 59//59 58//58 
f 91//91 40//40 59//59 
f 95//95 97//97 98//98 
f 55//55 95//95 58//58 
f 95//95 55//55 56//56 
f 57//57 58//58 59//59 
f 40//40 35//35 59//59 
f 57//57 59//59 99//99 
f 50//50 57//57 100//100 
f 57//57 99//99 100//100 
f 49//49 50//50 100//100 
f 46//46 49//49 100//100 
f 44//44 46//46 100//100 
f 101//101 100//100 99//99 
f 101//101 99//99 102//102 
f 102//102 99//99 103//103 
f 99//99 59//59 103//103 
f 59//59 37//37 103//103 
f 36//36 103//103 37//37 
f 36//36 104//104 103//103 
f 101//101 102//102 105//105 
f 102//102 103//103 105//105 
f 106//106 100//100 101//101 
f 101//101 107//107 106//106 
f 101//101 105//105 107//107 
f 108//108 100//100 106//106 
f 44//44 100//100 108//108 
f 43//43 44//44 108//108 
f 108//108 106//106 107//107 
f 109//109 108//108 107//107 
f 107//107 105//105 110//110 
f 110//110 105//105 103//103 
f 109//109 107//107 110//110 
f 111//111 109//109 110//110 
f 111//111 112//112 113//113 
f 114//114 115//115 112//112 
f 113//113 112//112 116//116 
f 116//116 112//112 115//115 
f 111//111 114//114 112//112 
f 117//117 118//118 119//119 
f 119//119 118//118 109//109 
f 109//109 118//118 108//108 
f 117//117 119//119 120//120 
f 117//117 120//120 121//121 
f 121//121 39//39 117//117 
f 117//117 108//108 118//118 
f 39//39 38//38 117//117 
f 43//43 117//117 38//38 
f 43//43 108//108 117//117 
f 119//119 109//109 111//111 
f 122//122 120//120 119//119 
f 122//122 119//119 123//123 
f 123//123 119//119 113//113 
f 119//119 111//111 113//113 
f 120//120 122//122 121//121 
f 122//122 123//123 124//124 
f 122//122 124//124 125//125 
f 122//122 125//125 126//126 
f 127//127 122//122 126//126 
f 122//122 127//127 121//121 
f 125//125 127//127 126//126 
f 125//125 121//121 127//127 
f 128//128 39//39 121//121 
f 128//128 121//121 125//125 
f 128//128 125//125 124//124 
f 124//124 104//104 128//128 
f 128//128 104//104 36//36 
f 35//35 128//128 36//36 
f 39//39 128//128 35//35 
f 124//124 123//123 104//104 
f 123//123 114//114 104//104 
f 123//123 116//116 114//114 
f 113//113 116//116 123//123 
f 110//110 114//114 111//111 
f 103//103 114//114 110//110 
f 103//103 104//104 114//114 
f 114//114 116//116 115//115 
