v -45.5197258 18.66666603 -127.8868713
v -45.5197258 0.6666666865 -127.8868713
v -45.52392578 18.66666603 -127.9492264
v -45.52392578 0.6666666865 -127.9492264
v -45.88769531 0.6666666865 -127.8151245
v -45.90722656 0.6666666865 -127.8744888
v -46.22637939 0.6666666865 -127.6543732
v -46.26002502 0.6666666865 -127.7070389
v -46.51462555 0.6666666865 -127.41465
v -46.56027985 0.6666666865 -127.4573364
v -46.73442459 0.6666666865 -127.1109467
v -46.78923798 0.6666666865 -127.140976
v -46.87204742 0.6666666865 -126.7622223
v -46.93259811 0.6666666865 -126.7777176
v -46.91889954 0.6666666865 -126.3902588
v -46.98139954 0.6666666865 -126.3902588
v -46.98139954 18.66666603 -126.3902588
v -46.93259811 18.66666603 -126.7777176
v -46.78923798 18.66666603 -127.140976
v -46.56027985 18.66666603 -127.4573364
v -46.26002502 18.66666603 -127.7070389
v -45.90722656 18.66666603 -127.8744888
v -45.88769531 18.66666603 -127.8151245
v -46.22637939 18.66666603 -127.6543732
v -46.51462555 18.66666603 -127.41465
v -46.73442459 18.66666603 -127.1109467
v -46.87204742 18.66666603 -126.7622223
v -46.91889954 18.66666603 -126.3902588
vn 0.2708025873 0.001698955894 0.962633431
vn 0.4794667065 -0.003151871962 0.8775544167
vn 0.1265497804 0.006677087862 -0.9919377565
vn -0.1123095378 -0.003399034264 -0.9936674833
vn 0.2724089622 -0.003517057048 0.9621751308
vn -0.3521014452 -0.003422603011 -0.935955584
vn 0.5024983883 -0.003517072415 0.8645709753
vn -0.5731931329 -0.003422786715 -0.8194131851
vn 0.7011947632 -0.003517288249 0.7129611373
vn -0.7584836483 -0.003422944574 -0.6516830325
vn 0.8560851812 -0.003517363919 0.5168227553
vn -0.8963935971 -0.003422907554 -0.4432457089
vn 0.9575058222 -0.003517413745 0.288392514
vn -0.9783100486 -0.003422971349 -0.2071177959
vn 0.9786530137 -0.003468947019 0.2054902315
vn -0.9811996818 -0.003406943521 0.1929650903
vn -0.9989740849 0.001734330086 -0.04525233433
vn -0.957505703 0.003422960639 -0.2883940637
vn -0.8560858965 0.003422918962 -0.5168222189
vn -0.7011891603 0.003422950394 -0.7129670382
vn -0.5024921298 0.003422779264 -0.8645750284
vn -0.2724113762 0.003422606969 -0.9621747732
vn 0.3521006405 0.003517062403 0.9359555244
vn 0.5732029676 0.003517050529 0.8194059134
vn 0.7584847212 0.003517312463 0.6516813636
vn 0.8963938951 0.003517357865 0.4432444274
vn 0.9783093333 0.003517400008 0.2071195096
vn 0.907776475 0.006435434334 0.4194048643
f 1//1 2//2 3//3 
f 3//3 2//2 4//4 
f 2//2 5//5 4//4 
f 4//4 5//5 6//6 
f 6//6 5//5 7//7 
f 6//6 7//7 8//8 
f 8//8 7//7 9//9 
f 8//8 9//9 10//10 
f 10//10 9//9 11//11 
f 10//10 11//11 12//12 
f 12//12 11//11 13//13 
f 12//12 13//13 14//14 
f 14//14 13//13 15//15 
f 14//14 15//15 16//16 
f 16//16 17//17 14//14 
f 14//14 17//17 18//18 
f 14//14 18//18 12//12 
f 12//12 18//18 19//19 
f 12//12 19//19 10//10 
f 10//10 19//19 20//20 
f 10//10 20//20 8//8 
f 8//8 20//20 21//21 
f 8//8 21//21 6//6 
f 6//6 21//21 22//22 
f 6//6 22//22 4//4 
f 4//4 22//22 3//3 
f 2//2 1//1 5//5 
f 5//5 1//1 23//23 
f 5//5 23//23 7//7 
f 7//7 23//23 24//24 
f 7//7 24//24 9//9 
f 9//9 24//24 25//25 
f 9//9 25//25 11//11 
f 11//11 25//25 26//26 
f 11//11 26//26 13//13 
f 13//13 26//26 27//27 
f 13//13 27//27 15//15 
f 15//15 27//27 28//28 
f 17//17 28//28 18//18 
f 18//18 28//28 27//27 
f 18//18 27//27 19//19 
f 19//19 27//27 26//26 
f 19//19 26//26 20//20 
f 20//20 26//26 25//25 
f 20//20 25//25 21//21 
f 21//21 25//25 24//24 
f 21//21 24//24 22//22 
f 22//22 24//24 23//23 
f 22//22 23//23 3//3 
f 3//3 23//23 1//1 
f 17//17 16//16 28//28 
f 28//28 16//16 15//15 
